<?xml version="1.0" encoding="UTF-8" standalone="no"?>
<!DOCTYPE svg PUBLIC "-//W3C//DTD SVG 1.1//EN"
 "http://www.w3.org/Graphics/SVG/1.1/DTD/svg11.dtd">
<!-- Generated by graphviz version 2.38.0 (20140413.2041)
 -->
<!-- Title: Interface/gui/main.cpp Pages: 1 -->
<!--zoomable 420 -->
<svg id="main" version="1.1" xmlns="http://www.w3.org/2000/svg" xmlns:xlink="http://www.w3.org/1999/xlink" xml:space="preserve" onload="init(evt)">
<style type="text/css"><![CDATA[
.edge:hover path { stroke: red; }
.edge:hover polygon { stroke: red; fill: red; }
]]></style>
<script type="text/javascript"><![CDATA[
var edges = document.getElementsByTagName('g');
if (edges && edges.length) {
  for (var i=0;i<edges.length;i++) {
    if (edges[i].id.substr(0,4)=='edge') {
      edges[i].setAttribute('class','edge');
    }
  }
}
]]></script>
        <defs>
                <circle id="rim" cx="0" cy="0" r="7"/>
                <circle id="rim2" cx="0" cy="0" r="3.5"/>
                <g id="zoomPlus">
                        <use xlink:href="#rim" fill="#404040">
                                <set attributeName="fill" to="#808080" begin="zoomplus.mouseover" end="zoomplus.mouseout"/>
                        </use>
                        <path d="M-4,0h8M0,-4v8" fill="none" stroke="white" stroke-width="1.5" pointer-events="none"/>
                </g>
                <g id="zoomMin">
                        <use xlink:href="#rim" fill="#404040">
                                <set attributeName="fill" to="#808080" begin="zoomminus.mouseover" end="zoomminus.mouseout"/>
                        </use>
                        <path d="M-4,0h8" fill="none" stroke="white" stroke-width="1.5" pointer-events="none"/>
                </g>
                <g id="dirArrow">
                        <path fill="none" stroke="white" stroke-width="1.5" d="M0,-3.0v7 M-2.5,-0.5L0,-3.0L2.5,-0.5"/>
                </g>
               <g id="resetDef">
                       <use xlink:href="#rim2" fill="#404040">
                               <set attributeName="fill" to="#808080" begin="reset.mouseover" end="reset.mouseout"/>
                       </use>
               </g>
        </defs>

<script type="text/javascript">
var viewWidth = 904;
var viewHeight = 420;
var sectionId = 'dynsection-0';
</script>
<script xlink:href="svgpan.js"/>
<svg id="graph" class="graph">
<g id="viewport">
<title>Interface/gui/main.cpp</title>
<polygon fill="white" stroke="none" points="-4,4 -4,-416 900,-416 900,4 -4,4"/>
<!-- Node0 -->
<g id="node1" class="node"><title>Node0</title>
<polygon fill="#bfbfbf" stroke="black" points="213.5,-392.5 213.5,-411.5 326.5,-411.5 326.5,-392.5 213.5,-392.5"/>
<text text-anchor="middle" x="270" y="-399.5" font-family="Helvetica,sans-Serif" font-size="10.00">Interface/gui/main.cpp</text>
</g>
<!-- Node1 -->
<g id="node2" class="node"><title>Node1</title>
<polygon fill="white" stroke="#bfbfbf" points="59,-336.5 59,-355.5 131,-355.5 131,-336.5 59,-336.5"/>
<text text-anchor="middle" x="95" y="-343.5" font-family="Helvetica,sans-Serif" font-size="10.00">QApplication</text>
</g>
<!-- Node0&#45;&gt;Node1 -->
<g id="edge1" class="edge"><title>Node0&#45;&gt;Node1</title>
<path fill="none" stroke="midnightblue" d="M242.271,-392.444C212.574,-383.28 165.284,-368.688 132.331,-358.519"/>
<polygon fill="midnightblue" stroke="midnightblue" points="133.187,-355.121 122.6,-355.516 131.123,-361.809 133.187,-355.121"/>
</g>
<!-- Node2 -->
<g id="node3" class="node"><title>Node2</title>
<polygon fill="white" stroke="#bfbfbf" points="149,-336.5 149,-355.5 217,-355.5 217,-336.5 149,-336.5"/>
<text text-anchor="middle" x="183" y="-343.5" font-family="Helvetica,sans-Serif" font-size="10.00">QTranslator</text>
</g>
<!-- Node0&#45;&gt;Node2 -->
<g id="edge2" class="edge"><title>Node0&#45;&gt;Node2</title>
<path fill="none" stroke="midnightblue" d="M256.022,-392.324C242.45,-383.9 221.62,-370.971 205.675,-361.074"/>
<polygon fill="midnightblue" stroke="midnightblue" points="207.286,-357.954 196.943,-355.655 203.594,-363.902 207.286,-357.954"/>
</g>
<!-- Node3 -->
<g id="node4" class="node"><title>Node3</title>
<polygon fill="white" stroke="#bfbfbf" points="235,-336.5 235,-355.5 305,-355.5 305,-336.5 235,-336.5"/>
<text text-anchor="middle" x="270" y="-343.5" font-family="Helvetica,sans-Serif" font-size="10.00">QLibraryInfo</text>
</g>
<!-- Node0&#45;&gt;Node3 -->
<g id="edge3" class="edge"><title>Node0&#45;&gt;Node3</title>
<path fill="none" stroke="midnightblue" d="M270,-392.083C270,-385.006 270,-374.861 270,-365.986"/>
<polygon fill="midnightblue" stroke="midnightblue" points="273.5,-365.751 270,-355.751 266.5,-365.751 273.5,-365.751"/>
</g>
<!-- Node4 -->
<g id="node5" class="node"><title>Node4</title>
<polygon fill="white" stroke="#bfbfbf" points="323,-336.5 323,-355.5 395,-355.5 395,-336.5 323,-336.5"/>
<text text-anchor="middle" x="359" y="-343.5" font-family="Helvetica,sans-Serif" font-size="10.00">QTextCodec</text>
</g>
<!-- Node0&#45;&gt;Node4 -->
<g id="edge4" class="edge"><title>Node0&#45;&gt;Node4</title>
<path fill="none" stroke="midnightblue" d="M284.299,-392.324C298.183,-383.9 319.492,-370.971 335.804,-361.074"/>
<polygon fill="midnightblue" stroke="midnightblue" points="338.002,-363.834 344.736,-355.655 334.371,-357.85 338.002,-363.834"/>
</g>
<!-- Node5 -->
<g id="node6" class="node"><title>Node5</title>
<g id="a_node6"><a xlink:href="altair-gui_8h.html" target="_top" xlink:title="Code de la classe MainWindow qui construit l&#39;interface graphique. ">
<polygon fill="white" stroke="black" points="413,-336.5 413,-355.5 475,-355.5 475,-336.5 413,-336.5"/>
<text text-anchor="middle" x="444" y="-343.5" font-family="Helvetica,sans-Serif" font-size="10.00">altair&#45;gui.h</text>
</a>
</g>
</g>
<!-- Node0&#45;&gt;Node5 -->
<g id="edge5" class="edge"><title>Node0&#45;&gt;Node5</title>
<path fill="none" stroke="midnightblue" d="M297.571,-392.444C327.097,-383.28 374.118,-368.688 406.883,-358.519"/>
<polygon fill="midnightblue" stroke="midnightblue" points="408.045,-361.823 416.558,-355.516 405.97,-355.138 408.045,-361.823"/>
</g>
<!-- Node6 -->
<g id="node7" class="node"><title>Node6</title>
<polygon fill="white" stroke="#bfbfbf" points="0,-280.5 0,-299.5 80,-299.5 80,-280.5 0,-280.5"/>
<text text-anchor="middle" x="40" y="-287.5" font-family="Helvetica,sans-Serif" font-size="10.00">QMainWindow</text>
</g>
<!-- Node5&#45;&gt;Node6 -->
<g id="edge6" class="edge"><title>Node5&#45;&gt;Node6</title>
<path fill="none" stroke="midnightblue" d="M412.62,-337.605C409.714,-337.021 406.807,-336.475 404,-336 268.318,-313.051 230.152,-320.371 90.3208,-300.098"/>
<polygon fill="midnightblue" stroke="midnightblue" points="90.4775,-296.583 80.0744,-298.589 89.4581,-303.508 90.4775,-296.583"/>
</g>
<!-- Node7 -->
<g id="node8" class="node"><title>Node7</title>
<polygon fill="white" stroke="#bfbfbf" points="98,-280.5 98,-299.5 150,-299.5 150,-280.5 98,-280.5"/>
<text text-anchor="middle" x="124" y="-287.5" font-family="Helvetica,sans-Serif" font-size="10.00">QDialog</text>
</g>
<!-- Node5&#45;&gt;Node7 -->
<g id="edge7" class="edge"><title>Node5&#45;&gt;Node7</title>
<path fill="none" stroke="midnightblue" d="M412.603,-337.701C409.7,-337.097 406.799,-336.52 404,-336 298.962,-316.495 268.652,-321.416 160.33,-300.086"/>
<polygon fill="midnightblue" stroke="midnightblue" points="160.797,-296.611 150.304,-298.082 159.424,-303.475 160.797,-296.611"/>
</g>
<!-- Node8 -->
<g id="node9" class="node"><title>Node8</title>
<polygon fill="white" stroke="#bfbfbf" points="168,-280.5 168,-299.5 228,-299.5 228,-280.5 168,-280.5"/>
<text text-anchor="middle" x="198" y="-287.5" font-family="Helvetica,sans-Serif" font-size="10.00">QProcess</text>
</g>
<!-- Node5&#45;&gt;Node8 -->
<g id="edge8" class="edge"><title>Node5&#45;&gt;Node8</title>
<path fill="none" stroke="midnightblue" d="M412.997,-337.995C409.958,-337.317 406.92,-336.643 404,-336 332.892,-320.336 312.735,-316.816 238.107,-300.223"/>
<polygon fill="midnightblue" stroke="midnightblue" points="238.746,-296.78 228.224,-298.02 237.223,-303.612 238.746,-296.78"/>
</g>
<!-- Node9 -->
<g id="node10" class="node"><title>Node9</title>
<polygon fill="white" stroke="#bfbfbf" points="246,-280.5 246,-299.5 314,-299.5 314,-280.5 246,-280.5"/>
<text text-anchor="middle" x="280" y="-287.5" font-family="Helvetica,sans-Serif" font-size="10.00">QDomNode</text>
</g>
<!-- Node5&#45;&gt;Node9 -->
<g id="edge9" class="edge"><title>Node5&#45;&gt;Node9</title>
<path fill="none" stroke="midnightblue" d="M418.014,-336.444C390.304,-327.32 346.248,-312.813 315.384,-302.651"/>
<polygon fill="midnightblue" stroke="midnightblue" points="316.458,-299.32 305.865,-299.516 314.268,-305.968 316.458,-299.32"/>
</g>
<!-- Node10 -->
<g id="node11" class="node"><title>Node10</title>
<polygon fill="white" stroke="#bfbfbf" points="332,-280.5 332,-299.5 372,-299.5 372,-280.5 332,-280.5"/>
<text text-anchor="middle" x="352" y="-287.5" font-family="Helvetica,sans-Serif" font-size="10.00">QFile</text>
</g>
<!-- Node5&#45;&gt;Node10 -->
<g id="edge10" class="edge"><title>Node5&#45;&gt;Node10</title>
<path fill="none" stroke="midnightblue" d="M429.219,-336.324C414.733,-327.822 392.427,-314.729 375.507,-304.797"/>
<polygon fill="midnightblue" stroke="midnightblue" points="377.141,-301.698 366.745,-299.655 373.597,-307.735 377.141,-301.698"/>
</g>
<!-- Node11 -->
<g id="node12" class="node"><title>Node11</title>
<polygon fill="white" stroke="#bfbfbf" points="390,-280.5 390,-299.5 434,-299.5 434,-280.5 390,-280.5"/>
<text text-anchor="middle" x="412" y="-287.5" font-family="Helvetica,sans-Serif" font-size="10.00">QtXml</text>
</g>
<!-- Node5&#45;&gt;Node11 -->
<g id="edge11" class="edge"><title>Node5&#45;&gt;Node11</title>
<path fill="none" stroke="midnightblue" d="M438.716,-336.083C434.289,-328.613 427.837,-317.724 422.382,-308.52"/>
<polygon fill="midnightblue" stroke="midnightblue" points="425.295,-306.57 417.186,-299.751 419.273,-310.138 425.295,-306.57"/>
</g>
<!-- Node12 -->
<g id="node13" class="node"><title>Node12</title>
<g id="a_node13"><a xlink:href="options_8h.html" target="_top" xlink:title="Code des classes du dialogue d&#39;options. ">
<polygon fill="white" stroke="black" points="554,-280.5 554,-299.5 610,-299.5 610,-280.5 554,-280.5"/>
<text text-anchor="middle" x="582" y="-287.5" font-family="Helvetica,sans-Serif" font-size="10.00">options.h</text>
</a>
</g>
</g>
<!-- Node5&#45;&gt;Node12 -->
<g id="edge12" class="edge"><title>Node5&#45;&gt;Node12</title>
<path fill="none" stroke="midnightblue" d="M465.867,-336.444C488.779,-327.478 524.975,-313.314 550.866,-303.183"/>
<polygon fill="midnightblue" stroke="midnightblue" points="552.199,-306.42 560.236,-299.516 549.648,-299.901 552.199,-306.42"/>
</g>
<!-- Node20 -->
<g id="node21" class="node"><title>Node20</title>
<g id="a_node21"><a xlink:href="common_8h.html" target="_top" xlink:title="Code de la classe common, qui regroupe des utilitaires communs à l&#39;interface graphique MainWindow...">
<polygon fill="white" stroke="black" points="499,-224.5 499,-243.5 561,-243.5 561,-224.5 499,-224.5"/>
<text text-anchor="middle" x="530" y="-231.5" font-family="Helvetica,sans-Serif" font-size="10.00">common.h</text>
</a>
</g>
</g>
<!-- Node5&#45;&gt;Node20 -->
<g id="edge28" class="edge"><title>Node5&#45;&gt;Node20</title>
<path fill="none" stroke="midnightblue" d="M461.505,-336.373C475.589,-328.619 494.954,-316 507,-300 517.339,-286.266 523.316,-267.486 526.572,-253.643"/>
<polygon fill="midnightblue" stroke="midnightblue" points="530.011,-254.295 528.63,-243.791 523.159,-252.864 530.011,-254.295"/>
</g>
<!-- Node22 -->
<g id="node23" class="node"><title>Node22</title>
<g id="a_node23"><a xlink:href="highlighter_8h.html" target="_top" xlink:title="Code de l&#39;utilitaire de colorisation du code XML du projet .alt. ">
<polygon fill="white" stroke="black" points="633.5,-280.5 633.5,-299.5 702.5,-299.5 702.5,-280.5 633.5,-280.5"/>
<text text-anchor="middle" x="668" y="-287.5" font-family="Helvetica,sans-Serif" font-size="10.00">highlighter.h</text>
</a>
</g>
</g>
<!-- Node5&#45;&gt;Node22 -->
<g id="edge29" class="edge"><title>Node5&#45;&gt;Node22</title>
<path fill="none" stroke="midnightblue" d="M475.146,-337.492C513.734,-328.189 579.74,-312.277 623.618,-301.699"/>
<polygon fill="midnightblue" stroke="midnightblue" points="624.544,-305.076 633.445,-299.33 622.903,-298.271 624.544,-305.076"/>
</g>
<!-- Node25 -->
<g id="node26" class="node"><title>Node25</title>
<g id="a_node26"><a xlink:href="gui__enums_8h.html" target="_top" xlink:title="Code de constantes et de classes regroupant des constantes. ">
<polygon fill="white" stroke="black" points="779,-280.5 779,-299.5 851,-299.5 851,-280.5 779,-280.5"/>
<text text-anchor="middle" x="815" y="-287.5" font-family="Helvetica,sans-Serif" font-size="10.00">gui_enums.h</text>
</a>
</g>
</g>
<!-- Node5&#45;&gt;Node25 -->
<g id="edge32" class="edge"><title>Node5&#45;&gt;Node25</title>
<path fill="none" stroke="midnightblue" d="M475.312,-340.443C540.632,-330.935 691.714,-308.945 768.456,-297.775"/>
<polygon fill="midnightblue" stroke="midnightblue" points="769.383,-301.177 778.775,-296.273 768.375,-294.25 769.383,-301.177"/>
</g>
<!-- Node27 -->
<g id="node28" class="node"><title>Node27</title>
<g id="a_node28"><a xlink:href="altair_8h.html" target="_top" xlink:title="Code de la classe principale Altair, qui joue le rôle d&#39;agent de l&#39;interface graphique. ">
<polygon fill="white" stroke="black" points="452,-280.5 452,-299.5 498,-299.5 498,-280.5 452,-280.5"/>
<text text-anchor="middle" x="475" y="-287.5" font-family="Helvetica,sans-Serif" font-size="10.00">altair.h</text>
</a>
</g>
</g>
<!-- Node5&#45;&gt;Node27 -->
<g id="edge34" class="edge"><title>Node5&#45;&gt;Node27</title>
<path fill="none" stroke="midnightblue" d="M443.953,-336.083C446.722,-328.455 452.764,-317.264 458.96,-307.941"/>
<polygon fill="midnightblue" stroke="midnightblue" points="461.852,-309.914 464.845,-299.751 456.167,-305.829 461.852,-309.914"/>
</g>
<!-- Node13 -->
<g id="node14" class="node"><title>Node13</title>
<g id="a_node14"><a xlink:href="flineframe_8h.html" target="_top" xlink:title="Ce fichier contient la classe FLineFrame, dérivée fonctionnelle de FLineEdit. ">
<polygon fill="white" stroke="black" points="601,-168.5 601,-187.5 669,-187.5 669,-168.5 601,-168.5"/>
<text text-anchor="middle" x="635" y="-175.5" font-family="Helvetica,sans-Serif" font-size="10.00">flineframe.h</text>
</a>
</g>
</g>
<!-- Node12&#45;&gt;Node13 -->
<g id="edge13" class="edge"><title>Node12&#45;&gt;Node13</title>
<path fill="none" stroke="midnightblue" d="M585.15,-280.429C589.868,-267.844 599.259,-243.72 609,-224 613.595,-214.697 619.309,-204.671 624.209,-196.449"/>
<polygon fill="midnightblue" stroke="midnightblue" points="627.275,-198.143 629.471,-187.778 621.291,-194.511 627.275,-198.143"/>
</g>
<!-- Node12&#45;&gt;Node20 -->
<g id="edge22" class="edge"><title>Node12&#45;&gt;Node20</title>
<path fill="none" stroke="midnightblue" d="M573.413,-280.083C565.841,-272.22 554.622,-260.569 545.486,-251.081"/>
<polygon fill="midnightblue" stroke="midnightblue" points="547.885,-248.527 538.427,-243.751 542.842,-253.382 547.885,-248.527"/>
</g>
<!-- Node14 -->
<g id="node15" class="node"><title>Node14</title>
<g id="a_node15"><a xlink:href="fwidgets_8h.html" target="_top" xlink:title="fwidgets.h">
<polygon fill="white" stroke="black" points="459,-112.5 459,-131.5 521,-131.5 521,-112.5 459,-112.5"/>
<text text-anchor="middle" x="490" y="-119.5" font-family="Helvetica,sans-Serif" font-size="10.00">fwidgets.h</text>
</a>
</g>
</g>
<!-- Node13&#45;&gt;Node14 -->
<g id="edge14" class="edge"><title>Node13&#45;&gt;Node14</title>
<path fill="none" stroke="midnightblue" d="M612.024,-168.444C587.843,-159.438 549.582,-145.189 522.354,-135.049"/>
<polygon fill="midnightblue" stroke="midnightblue" points="523.461,-131.727 512.868,-131.516 521.018,-138.286 523.461,-131.727"/>
</g>
<!-- Node16 -->
<g id="node17" class="node"><title>Node16</title>
<g id="a_node17"><a xlink:href="fstring_8h.html" target="_top" xlink:title="fstring.h">
<polygon fill="white" stroke="black" points="229,-56.5 229,-75.5 281,-75.5 281,-56.5 229,-56.5"/>
<text text-anchor="middle" x="255" y="-63.5" font-family="Helvetica,sans-Serif" font-size="10.00">fstring.h</text>
</a>
</g>
</g>
<!-- Node13&#45;&gt;Node16 -->
<g id="edge20" class="edge"><title>Node13&#45;&gt;Node16</title>
<path fill="none" stroke="midnightblue" d="M624.411,-168.443C606.266,-154.261 567.546,-126.058 530,-112 448.236,-81.3867 345.087,-71.5721 291.338,-68.4456"/>
<polygon fill="midnightblue" stroke="midnightblue" points="291.441,-64.9462 281.268,-67.9053 291.066,-71.9361 291.441,-64.9462"/>
</g>
<!-- Node18 -->
<g id="node19" class="node"><title>Node18</title>
<g id="a_node19"><a xlink:href="enums_8h.html" target="_top" xlink:title="Enumérations et constantes permettant de paramétrer les fwidgets. ">
<polygon fill="white" stroke="black" points="193,-0.5 193,-19.5 247,-19.5 247,-0.5 193,-0.5"/>
<text text-anchor="middle" x="220" y="-7.5" font-family="Helvetica,sans-Serif" font-size="10.00">enums.h</text>
</a>
</g>
</g>
<!-- Node13&#45;&gt;Node18 -->
<g id="edge21" class="edge"><title>Node13&#45;&gt;Node18</title>
<path fill="none" stroke="midnightblue" d="M637.838,-168.208C644.405,-145.977 657.906,-87.0862 628,-56 572.444,1.74799 353.982,-31.5622 257.125,-19.6995"/>
<polygon fill="midnightblue" stroke="midnightblue" points="257.438,-16.208 247.035,-18.2163 256.42,-23.1336 257.438,-16.208"/>
</g>
<!-- Node15 -->
<g id="node16" class="node"><title>Node15</title>
<polygon fill="white" stroke="#bfbfbf" points="555.5,-56.5 555.5,-75.5 618.5,-75.5 618.5,-56.5 555.5,-56.5"/>
<text text-anchor="middle" x="587" y="-63.5" font-family="Helvetica,sans-Serif" font-size="10.00">QtWidgets</text>
</g>
<!-- Node14&#45;&gt;Node15 -->
<g id="edge15" class="edge"><title>Node14&#45;&gt;Node15</title>
<path fill="none" stroke="midnightblue" d="M505.585,-112.324C520.999,-103.743 544.812,-90.486 562.71,-80.5224"/>
<polygon fill="midnightblue" stroke="midnightblue" points="564.419,-83.5767 571.454,-75.6545 561.014,-77.4606 564.419,-83.5767"/>
</g>
<!-- Node14&#45;&gt;Node16 -->
<g id="edge16" class="edge"><title>Node14&#45;&gt;Node16</title>
<path fill="none" stroke="midnightblue" d="M458.794,-113.829C415.382,-103.854 336.946,-85.8301 291.077,-75.29"/>
<polygon fill="midnightblue" stroke="midnightblue" points="291.787,-71.8621 281.257,-73.0336 290.22,-78.6843 291.787,-71.8621"/>
</g>
<!-- Node19 -->
<g id="node20" class="node"><title>Node19</title>
<g id="a_node20"><a xlink:href="tags_8h.html" target="_top" xlink:title="tags.h">
<polygon fill="white" stroke="black" points="468,-56.5 468,-75.5 512,-75.5 512,-56.5 468,-56.5"/>
<text text-anchor="middle" x="490" y="-63.5" font-family="Helvetica,sans-Serif" font-size="10.00">tags.h</text>
</a>
</g>
</g>
<!-- Node14&#45;&gt;Node19 -->
<g id="edge19" class="edge"><title>Node14&#45;&gt;Node19</title>
<path fill="none" stroke="midnightblue" d="M490,-112.083C490,-105.006 490,-94.8611 490,-85.9865"/>
<polygon fill="midnightblue" stroke="midnightblue" points="493.5,-85.751 490,-75.7511 486.5,-85.7511 493.5,-85.751"/>
</g>
<!-- Node17 -->
<g id="node18" class="node"><title>Node17</title>
<polygon fill="white" stroke="#bfbfbf" points="265,-0.5 265,-19.5 313,-19.5 313,-0.5 265,-0.5"/>
<text text-anchor="middle" x="289" y="-7.5" font-family="Helvetica,sans-Serif" font-size="10.00">QtCore</text>
</g>
<!-- Node16&#45;&gt;Node17 -->
<g id="edge17" class="edge"><title>Node16&#45;&gt;Node17</title>
<path fill="none" stroke="midnightblue" d="M260.614,-56.083C265.367,-48.5341 272.318,-37.4948 278.152,-28.2298"/>
<polygon fill="midnightblue" stroke="midnightblue" points="281.124,-30.0783 283.49,-19.7511 275.2,-26.3486 281.124,-30.0783"/>
</g>
<!-- Node16&#45;&gt;Node18 -->
<g id="edge18" class="edge"><title>Node16&#45;&gt;Node18</title>
<path fill="none" stroke="midnightblue" d="M249.22,-56.083C244.328,-48.5341 237.173,-37.4948 231.167,-28.2298"/>
<polygon fill="midnightblue" stroke="midnightblue" points="234.048,-26.239 225.672,-19.7511 228.174,-30.0463 234.048,-26.239"/>
</g>
<!-- Node20&#45;&gt;Node14 -->
<g id="edge24" class="edge"><title>Node20&#45;&gt;Node14</title>
<path fill="none" stroke="midnightblue" d="M526.861,-224.368C520.377,-206.537 505.38,-165.295 496.644,-141.272"/>
<polygon fill="midnightblue" stroke="midnightblue" points="499.831,-139.793 493.124,-131.591 493.252,-142.185 499.831,-139.793"/>
</g>
<!-- Node20&#45;&gt;Node15 -->
<g id="edge23" class="edge"><title>Node20&#45;&gt;Node15</title>
<path fill="none" stroke="midnightblue" d="M561.207,-227.945C600.351,-220.895 664.048,-206.825 678,-188 706.734,-149.23 647.451,-103.836 611.617,-81.2589"/>
<polygon fill="midnightblue" stroke="midnightblue" points="613.009,-78.0073 602.652,-75.774 609.356,-83.9784 613.009,-78.0073"/>
</g>
<!-- Node21 -->
<g id="node22" class="node"><title>Node21</title>
<g id="a_node22"><a xlink:href="tools_8h.html" target="_top" xlink:title="tools.h">
<polygon fill="white" stroke="black" points="537,-168.5 537,-187.5 583,-187.5 583,-168.5 537,-168.5"/>
<text text-anchor="middle" x="560" y="-175.5" font-family="Helvetica,sans-Serif" font-size="10.00">tools.h</text>
</a>
</g>
</g>
<!-- Node20&#45;&gt;Node21 -->
<g id="edge25" class="edge"><title>Node20&#45;&gt;Node21</title>
<path fill="none" stroke="midnightblue" d="M534.954,-224.083C539.104,-216.613 545.153,-205.724 550.267,-196.52"/>
<polygon fill="midnightblue" stroke="midnightblue" points="553.341,-198.192 555.138,-187.751 547.222,-194.793 553.341,-198.192"/>
</g>
<!-- Node21&#45;&gt;Node14 -->
<g id="edge27" class="edge"><title>Node21&#45;&gt;Node14</title>
<path fill="none" stroke="midnightblue" d="M548.753,-168.324C538.203,-160.185 522.199,-147.839 509.558,-138.087"/>
<polygon fill="midnightblue" stroke="midnightblue" points="511.507,-135.171 501.451,-131.834 507.231,-140.713 511.507,-135.171"/>
</g>
<!-- Node21&#45;&gt;Node15 -->
<g id="edge26" class="edge"><title>Node21&#45;&gt;Node15</title>
<path fill="none" stroke="midnightblue" d="M562.119,-168.368C566.476,-150.617 576.527,-109.666 582.435,-85.5974"/>
<polygon fill="midnightblue" stroke="midnightblue" points="585.906,-86.1375 584.891,-75.5914 579.108,-84.4688 585.906,-86.1375"/>
</g>
<!-- Node23 -->
<g id="node24" class="node"><title>Node23</title>
<polygon fill="white" stroke="#bfbfbf" points="617.5,-224.5 617.5,-243.5 718.5,-243.5 718.5,-224.5 617.5,-224.5"/>
<text text-anchor="middle" x="668" y="-231.5" font-family="Helvetica,sans-Serif" font-size="10.00">QSyntaxHighlighter</text>
</g>
<!-- Node22&#45;&gt;Node23 -->
<g id="edge30" class="edge"><title>Node22&#45;&gt;Node23</title>
<path fill="none" stroke="midnightblue" d="M668,-280.083C668,-273.006 668,-262.861 668,-253.986"/>
<polygon fill="midnightblue" stroke="midnightblue" points="671.5,-253.751 668,-243.751 664.5,-253.751 671.5,-253.751"/>
</g>
<!-- Node24 -->
<g id="node25" class="node"><title>Node24</title>
<polygon fill="white" stroke="#bfbfbf" points="736.5,-224.5 736.5,-243.5 831.5,-243.5 831.5,-224.5 736.5,-224.5"/>
<text text-anchor="middle" x="784" y="-231.5" font-family="Helvetica,sans-Serif" font-size="10.00">QTextCharFormat</text>
</g>
<!-- Node22&#45;&gt;Node24 -->
<g id="edge31" class="edge"><title>Node22&#45;&gt;Node24</title>
<path fill="none" stroke="midnightblue" d="M686.381,-280.444C705.216,-271.675 734.731,-257.935 756.379,-247.858"/>
<polygon fill="midnightblue" stroke="midnightblue" points="758.117,-250.91 765.705,-243.516 755.162,-244.564 758.117,-250.91"/>
</g>
<!-- Node26 -->
<g id="node27" class="node"><title>Node26</title>
<polygon fill="white" stroke="#bfbfbf" points="850,-224.5 850,-243.5 896,-243.5 896,-224.5 850,-224.5"/>
<text text-anchor="middle" x="873" y="-231.5" font-family="Helvetica,sans-Serif" font-size="10.00">cstdint</text>
</g>
<!-- Node25&#45;&gt;Node26 -->
<g id="edge33" class="edge"><title>Node25&#45;&gt;Node26</title>
<path fill="none" stroke="midnightblue" d="M824.319,-280.324C832.893,-272.341 845.812,-260.313 856.188,-250.653"/>
<polygon fill="midnightblue" stroke="midnightblue" points="858.578,-253.21 863.512,-243.834 853.808,-248.086 858.578,-253.21"/>
</g>
<!-- Node27&#45;&gt;Node5 -->
<g id="edge46" class="edge"><title>Node27&#45;&gt;Node5</title>
<path fill="none" stroke="midnightblue" d="M475.107,-299.751C472.385,-307.327 466.369,-318.505 460.176,-327.855"/>
<polygon fill="midnightblue" stroke="midnightblue" points="457.261,-325.914 454.285,-336.083 462.952,-329.989 457.261,-325.914"/>
</g>
<!-- Node27&#45;&gt;Node14 -->
<g id="edge43" class="edge"><title>Node27&#45;&gt;Node14</title>
<path fill="none" stroke="midnightblue" d="M475.806,-280.075C478.168,-253.945 485.101,-177.211 488.321,-141.577"/>
<polygon fill="midnightblue" stroke="midnightblue" points="491.812,-141.843 489.226,-131.568 484.84,-141.213 491.812,-141.843"/>
</g>
<!-- Node27&#45;&gt;Node16 -->
<g id="edge35" class="edge"><title>Node27&#45;&gt;Node16</title>
<path fill="none" stroke="midnightblue" d="M451.948,-282.44C448.941,-281.607 445.899,-280.775 443,-280 287.617,-238.46 190.837,-315.661 93,-188 77.6709,-167.998 97.0795,-127.355 113,-112 141.597,-84.418 187.012,-73.7346 218.76,-69.6008"/>
<polygon fill="midnightblue" stroke="midnightblue" points="219.421,-73.0482 228.959,-68.4351 218.626,-66.0935 219.421,-73.0482"/>
</g>
<!-- Node27&#45;&gt;Node18 -->
<g id="edge45" class="edge"><title>Node27&#45;&gt;Node18</title>
<path fill="none" stroke="midnightblue" d="M451.686,-281.973C448.778,-281.236 445.832,-280.555 443,-280 303.417,-252.656 260.217,-288.13 125,-244 69.5542,-225.905 11,-237.324 11,-179 11,-179 11,-179 11,-121 11,-44.4116 122.263,-21.026 182.428,-13.9791"/>
<polygon fill="midnightblue" stroke="midnightblue" points="183.108,-17.4262 192.677,-12.8785 182.36,-10.4663 183.108,-17.4262"/>
</g>
<!-- Node27&#45;&gt;Node20 -->
<g id="edge44" class="edge"><title>Node27&#45;&gt;Node20</title>
<path fill="none" stroke="midnightblue" d="M484.082,-280.083C492.171,-272.141 504.195,-260.335 513.91,-250.797"/>
<polygon fill="midnightblue" stroke="midnightblue" points="516.403,-253.254 521.087,-243.751 511.499,-248.26 516.403,-253.254"/>
</g>
<!-- Node28 -->
<g id="node29" class="node"><title>Node28</title>
<g id="a_node29"><a xlink:href="flistframe_8h.html" target="_top" xlink:title="flistframe.h">
<polygon fill="white" stroke="black" points="310.5,-224.5 310.5,-243.5 375.5,-243.5 375.5,-224.5 310.5,-224.5"/>
<text text-anchor="middle" x="343" y="-231.5" font-family="Helvetica,sans-Serif" font-size="10.00">flistframe.h</text>
</a>
</g>
</g>
<!-- Node27&#45;&gt;Node28 -->
<g id="edge36" class="edge"><title>Node27&#45;&gt;Node28</title>
<path fill="none" stroke="midnightblue" d="M454.084,-280.444C432.264,-271.517 397.85,-257.439 373.108,-247.317"/>
<polygon fill="midnightblue" stroke="midnightblue" points="374.399,-244.063 363.818,-243.516 371.748,-250.542 374.399,-244.063"/>
</g>
<!-- Node28&#45;&gt;Node14 -->
<g id="edge37" class="edge"><title>Node28&#45;&gt;Node14</title>
<path fill="none" stroke="midnightblue" d="M343.132,-224.193C343.814,-210.411 347.119,-183.702 362,-168 384.657,-144.093 420.75,-132.877 448.843,-127.621"/>
<polygon fill="midnightblue" stroke="midnightblue" points="449.513,-131.057 458.791,-125.941 448.348,-124.155 449.513,-131.057"/>
</g>
<!-- Node28&#45;&gt;Node16 -->
<g id="edge38" class="edge"><title>Node28&#45;&gt;Node16</title>
<path fill="none" stroke="midnightblue" d="M310.317,-231.752C251.506,-228.745 131.575,-218.887 106,-188 66.4045,-140.179 163.365,-97.8744 219.086,-78.3863"/>
<polygon fill="midnightblue" stroke="midnightblue" points="220.305,-81.6687 228.639,-75.1265 218.044,-75.0438 220.305,-81.6687"/>
</g>
<!-- Node28&#45;&gt;Node21 -->
<g id="edge39" class="edge"><title>Node28&#45;&gt;Node21</title>
<path fill="none" stroke="midnightblue" d="M375.958,-224.799C416.836,-214.626 486.117,-197.386 527.011,-187.209"/>
<polygon fill="midnightblue" stroke="midnightblue" points="527.902,-190.594 536.761,-184.783 526.212,-183.801 527.902,-190.594"/>
</g>
<!-- Node29 -->
<g id="node30" class="node"><title>Node29</title>
<polygon fill="white" stroke="#bfbfbf" points="371.5,-168.5 371.5,-187.5 442.5,-187.5 442.5,-168.5 371.5,-168.5"/>
<text text-anchor="middle" x="407" y="-175.5" font-family="Helvetica,sans-Serif" font-size="10.00">QToolButton</text>
</g>
<!-- Node28&#45;&gt;Node29 -->
<g id="edge40" class="edge"><title>Node28&#45;&gt;Node29</title>
<path fill="none" stroke="midnightblue" d="M353.283,-224.324C362.836,-216.263 377.28,-204.077 388.784,-194.369"/>
<polygon fill="midnightblue" stroke="midnightblue" points="391.144,-196.958 396.53,-187.834 386.63,-191.608 391.144,-196.958"/>
</g>
<!-- Node30 -->
<g id="node31" class="node"><title>Node30</title>
<polygon fill="white" stroke="#bfbfbf" points="115,-168.5 115,-187.5 215,-187.5 215,-168.5 115,-168.5"/>
<text text-anchor="middle" x="165" y="-175.5" font-family="Helvetica,sans-Serif" font-size="10.00">QFileSystemModel</text>
</g>
<!-- Node28&#45;&gt;Node30 -->
<g id="edge41" class="edge"><title>Node28&#45;&gt;Node30</title>
<path fill="none" stroke="midnightblue" d="M314.795,-224.444C284.59,-215.28 236.489,-200.688 202.971,-190.519"/>
<polygon fill="midnightblue" stroke="midnightblue" points="203.658,-187.07 193.073,-187.516 201.626,-193.769 203.658,-187.07"/>
</g>
<!-- Node31 -->
<g id="node32" class="node"><title>Node31</title>
<polygon fill="white" stroke="#bfbfbf" points="233.5,-168.5 233.5,-187.5 314.5,-187.5 314.5,-168.5 233.5,-168.5"/>
<text text-anchor="middle" x="274" y="-175.5" font-family="Helvetica,sans-Serif" font-size="10.00">QMessageBox</text>
</g>
<!-- Node28&#45;&gt;Node31 -->
<g id="edge42" class="edge"><title>Node28&#45;&gt;Node31</title>
<path fill="none" stroke="midnightblue" d="M331.914,-224.324C321.514,-216.185 305.739,-203.839 293.278,-194.087"/>
<polygon fill="midnightblue" stroke="midnightblue" points="295.32,-191.241 285.288,-187.834 291.006,-196.753 295.32,-191.241"/>
</g>
</g>
</svg>
        <g id="navigator" transform="translate(0 0)" fill="#404254">
                <rect fill="#f2f5e9" fill-opacity="0.5" stroke="#606060" stroke-width=".5" x="0" y="0" width="60" height="60"/>
                <use id="zoomplus" xlink:href="#zoomPlus" x="17" y="9" onmousedown="handleZoom(evt,'in')"/>
                <use id="zoomminus" xlink:href="#zoomMin" x="42" y="9" onmousedown="handleZoom(evt,'out')"/>
                <use id="reset" xlink:href="#resetDef" x="30" y="36" onmousedown="handleReset()"/>
                <g id="arrowUp" xlink:href="#dirArrow" transform="translate(30 24)" onmousedown="handlePan(0,-1)">
                  <use xlink:href="#rim" fill="#404040">
                        <set attributeName="fill" to="#808080" begin="arrowUp.mouseover" end="arrowUp.mouseout"/>
                  </use>
                  <path fill="none" stroke="white" stroke-width="1.5" d="M0,-3.0v7 M-2.5,-0.5L0,-3.0L2.5,-0.5"/>
                </g>
                <g id="arrowRight" xlink:href="#dirArrow" transform="rotate(90) translate(36 -43)" onmousedown="handlePan(1,0)">
                  <use xlink:href="#rim" fill="#404040">
                        <set attributeName="fill" to="#808080" begin="arrowRight.mouseover" end="arrowRight.mouseout"/>
                  </use>
                  <path fill="none" stroke="white" stroke-width="1.5" d="M0,-3.0v7 M-2.5,-0.5L0,-3.0L2.5,-0.5"/>
                </g>
                <g id="arrowDown" xlink:href="#dirArrow" transform="rotate(180) translate(-30 -48)" onmousedown="handlePan(0,1)">
                  <use xlink:href="#rim" fill="#404040">
                        <set attributeName="fill" to="#808080" begin="arrowDown.mouseover" end="arrowDown.mouseout"/>
                  </use>
                  <path fill="none" stroke="white" stroke-width="1.5" d="M0,-3.0v7 M-2.5,-0.5L0,-3.0L2.5,-0.5"/>
                </g>
                <g id="arrowLeft" xlink:href="#dirArrow" transform="rotate(270) translate(-36 17)" onmousedown="handlePan(-1,0)">
                  <use xlink:href="#rim" fill="#404040">
                        <set attributeName="fill" to="#808080" begin="arrowLeft.mouseover" end="arrowLeft.mouseout"/>
                  </use>
                  <path fill="none" stroke="white" stroke-width="1.5" d="M0,-3.0v7 M-2.5,-0.5L0,-3.0L2.5,-0.5"/>
                </g>
        </g>
        <svg viewBox="0 0 15 15" width="100%" height="30px" preserveAspectRatio="xMaxYMin meet">
         <g id="arrow_out" transform="scale(0.3 0.3)">
          <a xlink:href="_interface_2gui_2main_8cpp__incl_org.svg" target="_base">
           <rect id="button" ry="5" rx="5" y="6" x="6" height="38" width="38"
                fill="#f2f5e9" fill-opacity="0.5" stroke="#606060" stroke-width="1.0"/>
           <path id="arrow"
             d="M 11.500037,31.436501 C 11.940474,20.09759 22.043105,11.32322 32.158766,21.979434 L 37.068811,17.246167 C 37.068811,17.246167 37.088388,32 37.088388,32 L 22.160133,31.978069 C 22.160133,31.978069 26.997745,27.140456 26.997745,27.140456 C 18.528582,18.264221 13.291696,25.230495 11.500037,31.436501 z"
             style="fill:#404040;"/>
          </a>
         </g>
        </svg>
</svg>
