<?xml version="1.0" encoding="UTF-8" standalone="no"?>
<!DOCTYPE svg PUBLIC "-//W3C//DTD SVG 1.1//EN"
 "http://www.w3.org/Graphics/SVG/1.1/DTD/svg11.dtd">
<!-- Generated by graphviz version 2.38.0 (20140413.2041)
 -->
<!-- Title: Interface/gui/altair&#45;gui.h Pages: 1 -->
<svg width="904pt" height="375pt"
 viewBox="0.00 0.00 904.00 375.00" xmlns="http://www.w3.org/2000/svg" xmlns:xlink="http://www.w3.org/1999/xlink">
<g id="graph0" class="graph" transform="scale(1 1) rotate(0) translate(4 371)">
<title>Interface/gui/altair&#45;gui.h</title>
<polygon fill="white" stroke="none" points="-4,4 -4,-371 900,-371 900,4 -4,4"/>
<!-- Node0 -->
<g id="node1" class="node"><title>Node0</title>
<polygon fill="#bfbfbf" stroke="black" points="395.5,-336.5 395.5,-366.5 490.5,-366.5 490.5,-336.5 395.5,-336.5"/>
<text text-anchor="start" x="403.5" y="-354.5" font-family="Helvetica,sans-Serif" font-size="10.00">Interface/gui/altair</text>
<text text-anchor="middle" x="443" y="-343.5" font-family="Helvetica,sans-Serif" font-size="10.00">&#45;gui.h</text>
</g>
<!-- Node1 -->
<g id="node2" class="node"><title>Node1</title>
<polygon fill="white" stroke="#bfbfbf" points="0,-280.5 0,-299.5 80,-299.5 80,-280.5 0,-280.5"/>
<text text-anchor="middle" x="40" y="-287.5" font-family="Helvetica,sans-Serif" font-size="10.00">QMainWindow</text>
</g>
<!-- Node0&#45;&gt;Node1 -->
<g id="edge1" class="edge"><title>Node0&#45;&gt;Node1</title>
<path fill="none" stroke="midnightblue" d="M395.383,-344.322C329.254,-335.606 205.624,-318.823 90.1619,-300.137"/>
<polygon fill="midnightblue" stroke="midnightblue" points="90.5209,-296.649 80.0887,-298.498 89.397,-303.558 90.5209,-296.649"/>
</g>
<!-- Node2 -->
<g id="node3" class="node"><title>Node2</title>
<polygon fill="white" stroke="#bfbfbf" points="98,-280.5 98,-299.5 150,-299.5 150,-280.5 98,-280.5"/>
<text text-anchor="middle" x="124" y="-287.5" font-family="Helvetica,sans-Serif" font-size="10.00">QDialog</text>
</g>
<!-- Node0&#45;&gt;Node2 -->
<g id="edge2" class="edge"><title>Node0&#45;&gt;Node2</title>
<path fill="none" stroke="midnightblue" d="M395.298,-343.15C340.741,-334.492 248.549,-319.097 160.236,-300.143"/>
<polygon fill="midnightblue" stroke="midnightblue" points="160.837,-296.692 150.322,-297.996 159.355,-303.533 160.837,-296.692"/>
</g>
<!-- Node3 -->
<g id="node4" class="node"><title>Node3</title>
<polygon fill="white" stroke="#bfbfbf" points="168,-280.5 168,-299.5 228,-299.5 228,-280.5 168,-280.5"/>
<text text-anchor="middle" x="198" y="-287.5" font-family="Helvetica,sans-Serif" font-size="10.00">QProcess</text>
</g>
<!-- Node0&#45;&gt;Node3 -->
<g id="edge3" class="edge"><title>Node0&#45;&gt;Node3</title>
<path fill="none" stroke="midnightblue" d="M395.471,-338.957C349.609,-327.819 280.966,-311.149 237.875,-300.684"/>
<polygon fill="midnightblue" stroke="midnightblue" points="238.572,-297.252 228.028,-298.293 236.92,-304.054 238.572,-297.252"/>
</g>
<!-- Node4 -->
<g id="node5" class="node"><title>Node4</title>
<polygon fill="white" stroke="#bfbfbf" points="246,-280.5 246,-299.5 314,-299.5 314,-280.5 246,-280.5"/>
<text text-anchor="middle" x="280" y="-287.5" font-family="Helvetica,sans-Serif" font-size="10.00">QDomNode</text>
</g>
<!-- Node0&#45;&gt;Node4 -->
<g id="edge4" class="edge"><title>Node0&#45;&gt;Node4</title>
<path fill="none" stroke="midnightblue" d="M404.371,-336.399C376.656,-326.283 339.695,-312.791 313.283,-303.149"/>
<polygon fill="midnightblue" stroke="midnightblue" points="314.312,-299.799 303.718,-299.658 311.911,-306.375 314.312,-299.799"/>
</g>
<!-- Node5 -->
<g id="node6" class="node"><title>Node5</title>
<polygon fill="white" stroke="#bfbfbf" points="332,-280.5 332,-299.5 372,-299.5 372,-280.5 332,-280.5"/>
<text text-anchor="middle" x="352" y="-287.5" font-family="Helvetica,sans-Serif" font-size="10.00">QFile</text>
</g>
<!-- Node0&#45;&gt;Node5 -->
<g id="edge5" class="edge"><title>Node0&#45;&gt;Node5</title>
<path fill="none" stroke="midnightblue" d="M421.434,-336.399C407.12,-327.04 388.388,-314.792 373.989,-305.377"/>
<polygon fill="midnightblue" stroke="midnightblue" points="375.526,-302.201 365.241,-299.658 371.696,-308.06 375.526,-302.201"/>
</g>
<!-- Node6 -->
<g id="node7" class="node"><title>Node6</title>
<polygon fill="white" stroke="#bfbfbf" points="390,-280.5 390,-299.5 434,-299.5 434,-280.5 390,-280.5"/>
<text text-anchor="middle" x="412" y="-287.5" font-family="Helvetica,sans-Serif" font-size="10.00">QtXml</text>
</g>
<!-- Node0&#45;&gt;Node6 -->
<g id="edge6" class="edge"><title>Node0&#45;&gt;Node6</title>
<path fill="none" stroke="midnightblue" d="M435.653,-336.399C431.335,-328.11 425.835,-317.554 421.226,-308.708"/>
<polygon fill="midnightblue" stroke="midnightblue" points="424.235,-306.909 416.511,-299.658 418.027,-310.144 424.235,-306.909"/>
</g>
<!-- Node7 -->
<g id="node8" class="node"><title>Node7</title>
<g id="a_node8"><a xlink:href="options_8h.html" target="_top" xlink:title="Code des classes du dialogue d&#39;options. ">
<polygon fill="white" stroke="black" points="554,-280.5 554,-299.5 610,-299.5 610,-280.5 554,-280.5"/>
<text text-anchor="middle" x="582" y="-287.5" font-family="Helvetica,sans-Serif" font-size="10.00">options.h</text>
</a>
</g>
</g>
<!-- Node0&#45;&gt;Node7 -->
<g id="edge7" class="edge"><title>Node0&#45;&gt;Node7</title>
<path fill="none" stroke="midnightblue" d="M475.941,-336.399C499.159,-326.461 529.986,-313.265 552.419,-303.662"/>
<polygon fill="midnightblue" stroke="midnightblue" points="553.958,-306.811 561.774,-299.658 551.204,-300.375 553.958,-306.811"/>
</g>
<!-- Node15 -->
<g id="node16" class="node"><title>Node15</title>
<g id="a_node16"><a xlink:href="common_8h.html" target="_top" xlink:title="Code de la classe common, qui regroupe des utilitaires communs à l&#39;interface graphique MainWindow...">
<polygon fill="white" stroke="black" points="499,-224.5 499,-243.5 561,-243.5 561,-224.5 499,-224.5"/>
<text text-anchor="middle" x="530" y="-231.5" font-family="Helvetica,sans-Serif" font-size="10.00">common.h</text>
</a>
</g>
</g>
<!-- Node0&#45;&gt;Node15 -->
<g id="edge23" class="edge"><title>Node0&#45;&gt;Node15</title>
<path fill="none" stroke="midnightblue" d="M467.089,-336.297C480.453,-327.355 496.453,-314.73 507,-300 517.008,-286.023 523.026,-267.273 526.38,-253.503"/>
<polygon fill="midnightblue" stroke="midnightblue" points="529.804,-254.231 528.525,-243.714 522.966,-252.733 529.804,-254.231"/>
</g>
<!-- Node17 -->
<g id="node18" class="node"><title>Node17</title>
<g id="a_node18"><a xlink:href="highlighter_8h.html" target="_top" xlink:title="Code de l&#39;utilitaire de colorisation du code XML du projet .alt. ">
<polygon fill="white" stroke="black" points="633.5,-280.5 633.5,-299.5 702.5,-299.5 702.5,-280.5 633.5,-280.5"/>
<text text-anchor="middle" x="668" y="-287.5" font-family="Helvetica,sans-Serif" font-size="10.00">highlighter.h</text>
</a>
</g>
</g>
<!-- Node0&#45;&gt;Node17 -->
<g id="edge24" class="edge"><title>Node0&#45;&gt;Node17</title>
<path fill="none" stroke="midnightblue" d="M490.717,-337.882C530.741,-327.297 587.361,-312.324 625.764,-302.169"/>
<polygon fill="midnightblue" stroke="midnightblue" points="626.825,-305.509 635.598,-299.568 625.036,-298.741 626.825,-305.509"/>
</g>
<!-- Node20 -->
<g id="node21" class="node"><title>Node20</title>
<g id="a_node21"><a xlink:href="gui__enums_8h.html" target="_top" xlink:title="Code de constantes et de classes regroupant des constantes. ">
<polygon fill="white" stroke="black" points="779,-280.5 779,-299.5 851,-299.5 851,-280.5 779,-280.5"/>
<text text-anchor="middle" x="815" y="-287.5" font-family="Helvetica,sans-Serif" font-size="10.00">gui_enums.h</text>
</a>
</g>
</g>
<!-- Node0&#45;&gt;Node20 -->
<g id="edge27" class="edge"><title>Node0&#45;&gt;Node20</title>
<path fill="none" stroke="midnightblue" d="M490.871,-342.843C562.786,-331.341 697.813,-309.744 768.76,-298.396"/>
<polygon fill="midnightblue" stroke="midnightblue" points="769.426,-301.834 778.747,-296.798 768.32,-294.922 769.426,-301.834"/>
</g>
<!-- Node22 -->
<g id="node23" class="node"><title>Node22</title>
<g id="a_node23"><a xlink:href="altair_8h.html" target="_top" xlink:title="Code de la classe principale Altair, qui joue le rôle d&#39;agent de l&#39;interface graphique. ">
<polygon fill="white" stroke="black" points="452,-280.5 452,-299.5 498,-299.5 498,-280.5 452,-280.5"/>
<text text-anchor="middle" x="475" y="-287.5" font-family="Helvetica,sans-Serif" font-size="10.00">altair.h</text>
</a>
</g>
</g>
<!-- Node0&#45;&gt;Node22 -->
<g id="edge29" class="edge"><title>Node0&#45;&gt;Node22</title>
<path fill="none" stroke="midnightblue" d="M444.744,-336.399C448.211,-327.932 453.923,-317.099 459.603,-308.139"/>
<polygon fill="midnightblue" stroke="midnightblue" points="462.649,-309.885 465.414,-299.658 456.875,-305.929 462.649,-309.885"/>
</g>
<!-- Node8 -->
<g id="node9" class="node"><title>Node8</title>
<g id="a_node9"><a xlink:href="flineframe_8h.html" target="_top" xlink:title="Ce fichier contient la classe FLineFrame, dérivée fonctionnelle de FLineEdit. ">
<polygon fill="white" stroke="black" points="601,-168.5 601,-187.5 669,-187.5 669,-168.5 601,-168.5"/>
<text text-anchor="middle" x="635" y="-175.5" font-family="Helvetica,sans-Serif" font-size="10.00">flineframe.h</text>
</a>
</g>
</g>
<!-- Node7&#45;&gt;Node8 -->
<g id="edge8" class="edge"><title>Node7&#45;&gt;Node8</title>
<path fill="none" stroke="midnightblue" d="M585.15,-280.429C589.868,-267.844 599.259,-243.72 609,-224 613.595,-214.697 619.309,-204.671 624.209,-196.449"/>
<polygon fill="midnightblue" stroke="midnightblue" points="627.275,-198.143 629.471,-187.778 621.291,-194.511 627.275,-198.143"/>
</g>
<!-- Node7&#45;&gt;Node15 -->
<g id="edge17" class="edge"><title>Node7&#45;&gt;Node15</title>
<path fill="none" stroke="midnightblue" d="M573.413,-280.083C565.841,-272.22 554.622,-260.569 545.486,-251.081"/>
<polygon fill="midnightblue" stroke="midnightblue" points="547.885,-248.527 538.427,-243.751 542.842,-253.382 547.885,-248.527"/>
</g>
<!-- Node9 -->
<g id="node10" class="node"><title>Node9</title>
<g id="a_node10"><a xlink:href="fwidgets_8h.html" target="_top" xlink:title="fwidgets.h">
<polygon fill="white" stroke="black" points="459,-112.5 459,-131.5 521,-131.5 521,-112.5 459,-112.5"/>
<text text-anchor="middle" x="490" y="-119.5" font-family="Helvetica,sans-Serif" font-size="10.00">fwidgets.h</text>
</a>
</g>
</g>
<!-- Node8&#45;&gt;Node9 -->
<g id="edge9" class="edge"><title>Node8&#45;&gt;Node9</title>
<path fill="none" stroke="midnightblue" d="M612.024,-168.444C587.843,-159.438 549.582,-145.189 522.354,-135.049"/>
<polygon fill="midnightblue" stroke="midnightblue" points="523.461,-131.727 512.868,-131.516 521.018,-138.286 523.461,-131.727"/>
</g>
<!-- Node11 -->
<g id="node12" class="node"><title>Node11</title>
<g id="a_node12"><a xlink:href="fstring_8h.html" target="_top" xlink:title="fstring.h">
<polygon fill="white" stroke="black" points="229,-56.5 229,-75.5 281,-75.5 281,-56.5 229,-56.5"/>
<text text-anchor="middle" x="255" y="-63.5" font-family="Helvetica,sans-Serif" font-size="10.00">fstring.h</text>
</a>
</g>
</g>
<!-- Node8&#45;&gt;Node11 -->
<g id="edge15" class="edge"><title>Node8&#45;&gt;Node11</title>
<path fill="none" stroke="midnightblue" d="M624.411,-168.443C606.266,-154.261 567.546,-126.058 530,-112 448.236,-81.3867 345.087,-71.5721 291.338,-68.4456"/>
<polygon fill="midnightblue" stroke="midnightblue" points="291.441,-64.9462 281.268,-67.9053 291.066,-71.9361 291.441,-64.9462"/>
</g>
<!-- Node13 -->
<g id="node14" class="node"><title>Node13</title>
<g id="a_node14"><a xlink:href="enums_8h.html" target="_top" xlink:title="Enumérations et constantes permettant de paramétrer les fwidgets. ">
<polygon fill="white" stroke="black" points="193,-0.5 193,-19.5 247,-19.5 247,-0.5 193,-0.5"/>
<text text-anchor="middle" x="220" y="-7.5" font-family="Helvetica,sans-Serif" font-size="10.00">enums.h</text>
</a>
</g>
</g>
<!-- Node8&#45;&gt;Node13 -->
<g id="edge16" class="edge"><title>Node8&#45;&gt;Node13</title>
<path fill="none" stroke="midnightblue" d="M637.838,-168.208C644.405,-145.977 657.906,-87.0862 628,-56 572.444,1.74799 353.982,-31.5622 257.125,-19.6995"/>
<polygon fill="midnightblue" stroke="midnightblue" points="257.438,-16.208 247.035,-18.2163 256.42,-23.1336 257.438,-16.208"/>
</g>
<!-- Node10 -->
<g id="node11" class="node"><title>Node10</title>
<polygon fill="white" stroke="#bfbfbf" points="555.5,-56.5 555.5,-75.5 618.5,-75.5 618.5,-56.5 555.5,-56.5"/>
<text text-anchor="middle" x="587" y="-63.5" font-family="Helvetica,sans-Serif" font-size="10.00">QtWidgets</text>
</g>
<!-- Node9&#45;&gt;Node10 -->
<g id="edge10" class="edge"><title>Node9&#45;&gt;Node10</title>
<path fill="none" stroke="midnightblue" d="M505.585,-112.324C520.999,-103.743 544.812,-90.486 562.71,-80.5224"/>
<polygon fill="midnightblue" stroke="midnightblue" points="564.419,-83.5767 571.454,-75.6545 561.014,-77.4606 564.419,-83.5767"/>
</g>
<!-- Node9&#45;&gt;Node11 -->
<g id="edge11" class="edge"><title>Node9&#45;&gt;Node11</title>
<path fill="none" stroke="midnightblue" d="M458.794,-113.829C415.382,-103.854 336.946,-85.8301 291.077,-75.29"/>
<polygon fill="midnightblue" stroke="midnightblue" points="291.787,-71.8621 281.257,-73.0336 290.22,-78.6843 291.787,-71.8621"/>
</g>
<!-- Node14 -->
<g id="node15" class="node"><title>Node14</title>
<g id="a_node15"><a xlink:href="tags_8h.html" target="_top" xlink:title="tags.h">
<polygon fill="white" stroke="black" points="468,-56.5 468,-75.5 512,-75.5 512,-56.5 468,-56.5"/>
<text text-anchor="middle" x="490" y="-63.5" font-family="Helvetica,sans-Serif" font-size="10.00">tags.h</text>
</a>
</g>
</g>
<!-- Node9&#45;&gt;Node14 -->
<g id="edge14" class="edge"><title>Node9&#45;&gt;Node14</title>
<path fill="none" stroke="midnightblue" d="M490,-112.083C490,-105.006 490,-94.8611 490,-85.9865"/>
<polygon fill="midnightblue" stroke="midnightblue" points="493.5,-85.751 490,-75.7511 486.5,-85.7511 493.5,-85.751"/>
</g>
<!-- Node12 -->
<g id="node13" class="node"><title>Node12</title>
<polygon fill="white" stroke="#bfbfbf" points="265,-0.5 265,-19.5 313,-19.5 313,-0.5 265,-0.5"/>
<text text-anchor="middle" x="289" y="-7.5" font-family="Helvetica,sans-Serif" font-size="10.00">QtCore</text>
</g>
<!-- Node11&#45;&gt;Node12 -->
<g id="edge12" class="edge"><title>Node11&#45;&gt;Node12</title>
<path fill="none" stroke="midnightblue" d="M260.614,-56.083C265.367,-48.5341 272.318,-37.4948 278.152,-28.2298"/>
<polygon fill="midnightblue" stroke="midnightblue" points="281.124,-30.0783 283.49,-19.7511 275.2,-26.3486 281.124,-30.0783"/>
</g>
<!-- Node11&#45;&gt;Node13 -->
<g id="edge13" class="edge"><title>Node11&#45;&gt;Node13</title>
<path fill="none" stroke="midnightblue" d="M249.22,-56.083C244.328,-48.5341 237.173,-37.4948 231.167,-28.2298"/>
<polygon fill="midnightblue" stroke="midnightblue" points="234.048,-26.239 225.672,-19.7511 228.174,-30.0463 234.048,-26.239"/>
</g>
<!-- Node15&#45;&gt;Node9 -->
<g id="edge19" class="edge"><title>Node15&#45;&gt;Node9</title>
<path fill="none" stroke="midnightblue" d="M526.861,-224.368C520.377,-206.537 505.38,-165.295 496.644,-141.272"/>
<polygon fill="midnightblue" stroke="midnightblue" points="499.831,-139.793 493.124,-131.591 493.252,-142.185 499.831,-139.793"/>
</g>
<!-- Node15&#45;&gt;Node10 -->
<g id="edge18" class="edge"><title>Node15&#45;&gt;Node10</title>
<path fill="none" stroke="midnightblue" d="M561.207,-227.945C600.351,-220.895 664.048,-206.825 678,-188 706.734,-149.23 647.451,-103.836 611.617,-81.2589"/>
<polygon fill="midnightblue" stroke="midnightblue" points="613.009,-78.0073 602.652,-75.774 609.356,-83.9784 613.009,-78.0073"/>
</g>
<!-- Node16 -->
<g id="node17" class="node"><title>Node16</title>
<g id="a_node17"><a xlink:href="tools_8h.html" target="_top" xlink:title="tools.h">
<polygon fill="white" stroke="black" points="537,-168.5 537,-187.5 583,-187.5 583,-168.5 537,-168.5"/>
<text text-anchor="middle" x="560" y="-175.5" font-family="Helvetica,sans-Serif" font-size="10.00">tools.h</text>
</a>
</g>
</g>
<!-- Node15&#45;&gt;Node16 -->
<g id="edge20" class="edge"><title>Node15&#45;&gt;Node16</title>
<path fill="none" stroke="midnightblue" d="M534.954,-224.083C539.104,-216.613 545.153,-205.724 550.267,-196.52"/>
<polygon fill="midnightblue" stroke="midnightblue" points="553.341,-198.192 555.138,-187.751 547.222,-194.793 553.341,-198.192"/>
</g>
<!-- Node16&#45;&gt;Node9 -->
<g id="edge22" class="edge"><title>Node16&#45;&gt;Node9</title>
<path fill="none" stroke="midnightblue" d="M548.753,-168.324C538.203,-160.185 522.199,-147.839 509.558,-138.087"/>
<polygon fill="midnightblue" stroke="midnightblue" points="511.507,-135.171 501.451,-131.834 507.231,-140.713 511.507,-135.171"/>
</g>
<!-- Node16&#45;&gt;Node10 -->
<g id="edge21" class="edge"><title>Node16&#45;&gt;Node10</title>
<path fill="none" stroke="midnightblue" d="M562.119,-168.368C566.476,-150.617 576.527,-109.666 582.435,-85.5974"/>
<polygon fill="midnightblue" stroke="midnightblue" points="585.906,-86.1375 584.891,-75.5914 579.108,-84.4688 585.906,-86.1375"/>
</g>
<!-- Node18 -->
<g id="node19" class="node"><title>Node18</title>
<polygon fill="white" stroke="#bfbfbf" points="617.5,-224.5 617.5,-243.5 718.5,-243.5 718.5,-224.5 617.5,-224.5"/>
<text text-anchor="middle" x="668" y="-231.5" font-family="Helvetica,sans-Serif" font-size="10.00">QSyntaxHighlighter</text>
</g>
<!-- Node17&#45;&gt;Node18 -->
<g id="edge25" class="edge"><title>Node17&#45;&gt;Node18</title>
<path fill="none" stroke="midnightblue" d="M668,-280.083C668,-273.006 668,-262.861 668,-253.986"/>
<polygon fill="midnightblue" stroke="midnightblue" points="671.5,-253.751 668,-243.751 664.5,-253.751 671.5,-253.751"/>
</g>
<!-- Node19 -->
<g id="node20" class="node"><title>Node19</title>
<polygon fill="white" stroke="#bfbfbf" points="736.5,-224.5 736.5,-243.5 831.5,-243.5 831.5,-224.5 736.5,-224.5"/>
<text text-anchor="middle" x="784" y="-231.5" font-family="Helvetica,sans-Serif" font-size="10.00">QTextCharFormat</text>
</g>
<!-- Node17&#45;&gt;Node19 -->
<g id="edge26" class="edge"><title>Node17&#45;&gt;Node19</title>
<path fill="none" stroke="midnightblue" d="M686.381,-280.444C705.216,-271.675 734.731,-257.935 756.379,-247.858"/>
<polygon fill="midnightblue" stroke="midnightblue" points="758.117,-250.91 765.705,-243.516 755.162,-244.564 758.117,-250.91"/>
</g>
<!-- Node21 -->
<g id="node22" class="node"><title>Node21</title>
<polygon fill="white" stroke="#bfbfbf" points="850,-224.5 850,-243.5 896,-243.5 896,-224.5 850,-224.5"/>
<text text-anchor="middle" x="873" y="-231.5" font-family="Helvetica,sans-Serif" font-size="10.00">cstdint</text>
</g>
<!-- Node20&#45;&gt;Node21 -->
<g id="edge28" class="edge"><title>Node20&#45;&gt;Node21</title>
<path fill="none" stroke="midnightblue" d="M824.319,-280.324C832.893,-272.341 845.812,-260.313 856.188,-250.653"/>
<polygon fill="midnightblue" stroke="midnightblue" points="858.578,-253.21 863.512,-243.834 853.808,-248.086 858.578,-253.21"/>
</g>
<!-- Node22&#45;&gt;Node0 -->
<g id="edge41" class="edge"><title>Node22&#45;&gt;Node0</title>
<path fill="none" stroke="midnightblue" d="M475.273,-299.658C472.894,-307.031 467.564,-317.963 461.785,-327.803"/>
<polygon fill="midnightblue" stroke="midnightblue" points="458.746,-326.062 456.423,-336.399 464.685,-329.767 458.746,-326.062"/>
</g>
<!-- Node22&#45;&gt;Node9 -->
<g id="edge38" class="edge"><title>Node22&#45;&gt;Node9</title>
<path fill="none" stroke="midnightblue" d="M475.806,-280.075C478.168,-253.945 485.101,-177.211 488.321,-141.577"/>
<polygon fill="midnightblue" stroke="midnightblue" points="491.812,-141.843 489.226,-131.568 484.84,-141.213 491.812,-141.843"/>
</g>
<!-- Node22&#45;&gt;Node11 -->
<g id="edge30" class="edge"><title>Node22&#45;&gt;Node11</title>
<path fill="none" stroke="midnightblue" d="M451.946,-282.444C448.94,-281.61 445.899,-280.778 443,-280 287.652,-238.329 190.913,-315.602 93,-188 78.0197,-168.477 95.8959,-127.75 112,-112 140.67,-83.9602 186.632,-73.3719 218.684,-69.3854"/>
<polygon fill="midnightblue" stroke="midnightblue" points="219.41,-72.8273 228.975,-68.2709 218.657,-65.868 219.41,-72.8273"/>
</g>
<!-- Node22&#45;&gt;Node13 -->
<g id="edge40" class="edge"><title>Node22&#45;&gt;Node13</title>
<path fill="none" stroke="midnightblue" d="M451.686,-281.972C448.778,-281.235 445.832,-280.554 443,-280 302.979,-252.596 259.56,-288.501 124,-244 68.952,-225.929 11,-236.938 11,-179 11,-179 11,-179 11,-121 11,-44.4116 122.263,-21.026 182.428,-13.9791"/>
<polygon fill="midnightblue" stroke="midnightblue" points="183.108,-17.4262 192.677,-12.8785 182.36,-10.4663 183.108,-17.4262"/>
</g>
<!-- Node22&#45;&gt;Node15 -->
<g id="edge39" class="edge"><title>Node22&#45;&gt;Node15</title>
<path fill="none" stroke="midnightblue" d="M484.082,-280.083C492.171,-272.141 504.195,-260.335 513.91,-250.797"/>
<polygon fill="midnightblue" stroke="midnightblue" points="516.403,-253.254 521.087,-243.751 511.499,-248.26 516.403,-253.254"/>
</g>
<!-- Node23 -->
<g id="node24" class="node"><title>Node23</title>
<g id="a_node24"><a xlink:href="flistframe_8h.html" target="_top" xlink:title="flistframe.h">
<polygon fill="white" stroke="black" points="310.5,-224.5 310.5,-243.5 375.5,-243.5 375.5,-224.5 310.5,-224.5"/>
<text text-anchor="middle" x="343" y="-231.5" font-family="Helvetica,sans-Serif" font-size="10.00">flistframe.h</text>
</a>
</g>
</g>
<!-- Node22&#45;&gt;Node23 -->
<g id="edge31" class="edge"><title>Node22&#45;&gt;Node23</title>
<path fill="none" stroke="midnightblue" d="M454.084,-280.444C432.264,-271.517 397.85,-257.439 373.108,-247.317"/>
<polygon fill="midnightblue" stroke="midnightblue" points="374.399,-244.063 363.818,-243.516 371.748,-250.542 374.399,-244.063"/>
</g>
<!-- Node23&#45;&gt;Node9 -->
<g id="edge32" class="edge"><title>Node23&#45;&gt;Node9</title>
<path fill="none" stroke="midnightblue" d="M343.288,-224.189C344.211,-210.4 347.965,-183.681 363,-168 385.466,-144.569 420.894,-133.318 448.63,-127.927"/>
<polygon fill="midnightblue" stroke="midnightblue" points="449.596,-131.311 458.84,-126.134 448.385,-124.416 449.596,-131.311"/>
</g>
<!-- Node23&#45;&gt;Node11 -->
<g id="edge33" class="edge"><title>Node23&#45;&gt;Node11</title>
<path fill="none" stroke="midnightblue" d="M310.317,-231.752C251.506,-228.745 131.575,-218.887 106,-188 66.4045,-140.179 163.365,-97.8744 219.086,-78.3863"/>
<polygon fill="midnightblue" stroke="midnightblue" points="220.305,-81.6687 228.639,-75.1265 218.044,-75.0438 220.305,-81.6687"/>
</g>
<!-- Node23&#45;&gt;Node16 -->
<g id="edge34" class="edge"><title>Node23&#45;&gt;Node16</title>
<path fill="none" stroke="midnightblue" d="M375.958,-224.799C416.836,-214.626 486.117,-197.386 527.011,-187.209"/>
<polygon fill="midnightblue" stroke="midnightblue" points="527.902,-190.594 536.761,-184.783 526.212,-183.801 527.902,-190.594"/>
</g>
<!-- Node24 -->
<g id="node25" class="node"><title>Node24</title>
<polygon fill="white" stroke="#bfbfbf" points="371.5,-168.5 371.5,-187.5 442.5,-187.5 442.5,-168.5 371.5,-168.5"/>
<text text-anchor="middle" x="407" y="-175.5" font-family="Helvetica,sans-Serif" font-size="10.00">QToolButton</text>
</g>
<!-- Node23&#45;&gt;Node24 -->
<g id="edge35" class="edge"><title>Node23&#45;&gt;Node24</title>
<path fill="none" stroke="midnightblue" d="M353.283,-224.324C362.836,-216.263 377.28,-204.077 388.784,-194.369"/>
<polygon fill="midnightblue" stroke="midnightblue" points="391.144,-196.958 396.53,-187.834 386.63,-191.608 391.144,-196.958"/>
</g>
<!-- Node25 -->
<g id="node26" class="node"><title>Node25</title>
<polygon fill="white" stroke="#bfbfbf" points="115,-168.5 115,-187.5 215,-187.5 215,-168.5 115,-168.5"/>
<text text-anchor="middle" x="165" y="-175.5" font-family="Helvetica,sans-Serif" font-size="10.00">QFileSystemModel</text>
</g>
<!-- Node23&#45;&gt;Node25 -->
<g id="edge36" class="edge"><title>Node23&#45;&gt;Node25</title>
<path fill="none" stroke="midnightblue" d="M314.795,-224.444C284.59,-215.28 236.489,-200.688 202.971,-190.519"/>
<polygon fill="midnightblue" stroke="midnightblue" points="203.658,-187.07 193.073,-187.516 201.626,-193.769 203.658,-187.07"/>
</g>
<!-- Node26 -->
<g id="node27" class="node"><title>Node26</title>
<polygon fill="white" stroke="#bfbfbf" points="233.5,-168.5 233.5,-187.5 314.5,-187.5 314.5,-168.5 233.5,-168.5"/>
<text text-anchor="middle" x="274" y="-175.5" font-family="Helvetica,sans-Serif" font-size="10.00">QMessageBox</text>
</g>
<!-- Node23&#45;&gt;Node26 -->
<g id="edge37" class="edge"><title>Node23&#45;&gt;Node26</title>
<path fill="none" stroke="midnightblue" d="M331.914,-224.324C321.514,-216.185 305.739,-203.839 293.278,-194.087"/>
<polygon fill="midnightblue" stroke="midnightblue" points="295.32,-191.241 285.288,-187.834 291.006,-196.753 295.32,-191.241"/>
</g>
</g>
</svg>
