<?xml version="1.0" encoding="UTF-8" standalone="no"?>
<!DOCTYPE svg PUBLIC "-//W3C//DTD SVG 1.1//EN"
 "http://www.w3.org/Graphics/SVG/1.1/DTD/svg11.dtd">
<!-- Generated by graphviz version 2.38.0 (20140413.2041)
 -->
<!-- Title: Interface/gui/altair.h Pages: 1 -->
<svg width="875pt" height="151pt"
 viewBox="0.00 0.00 875.00 151.00" xmlns="http://www.w3.org/2000/svg" xmlns:xlink="http://www.w3.org/1999/xlink">
<g id="graph0" class="graph" transform="scale(1 1) rotate(0) translate(4 147)">
<title>Interface/gui/altair.h</title>
<polygon fill="white" stroke="none" points="-4,4 -4,-147 871,-147 871,4 -4,4"/>
<!-- Node28 -->
<g id="node1" class="node"><title>Node28</title>
<polygon fill="#bfbfbf" stroke="black" points="290,-123.5 290,-142.5 400,-142.5 400,-123.5 290,-123.5"/>
<text text-anchor="middle" x="345" y="-130.5" font-family="Helvetica,sans-Serif" font-size="10.00">Interface/gui/altair.h</text>
</g>
<!-- Node29 -->
<g id="node2" class="node"><title>Node29</title>
<g id="a_node2"><a xlink:href="altair-gui_8h.html" target="_top" xlink:title="Code de la classe MainWindow qui construit l&#39;interface graphique. ">
<polygon fill="white" stroke="black" points="9.5,-56.5 9.5,-86.5 110.5,-86.5 110.5,-56.5 9.5,-56.5"/>
<text text-anchor="start" x="17.5" y="-74.5" font-family="Helvetica,sans-Serif" font-size="10.00">Interface/gui/altair</text>
<text text-anchor="middle" x="60" y="-63.5" font-family="Helvetica,sans-Serif" font-size="10.00">&#45;gui.h</text>
</a>
</g>
</g>
<!-- Node28&#45;&gt;Node29 -->
<g id="edge1" class="edge"><title>Node28&#45;&gt;Node29</title>
<path fill="none" stroke="midnightblue" d="M282.703,-121.622C235.311,-112.868 168.804,-99.7597 111,-87 110.267,-86.8383 109.53,-86.6746 108.789,-86.5091"/>
<polygon fill="midnightblue" stroke="midnightblue" points="282.348,-125.115 292.815,-123.476 283.611,-118.23 282.348,-125.115"/>
</g>
<!-- Node31 -->
<g id="node4" class="node"><title>Node31</title>
<g id="a_node4"><a xlink:href="altair_8cpp.html" target="_top" xlink:title="Code implémentant la classe principale Altair, qui joue le rôle d&#39;agent de l&#39;interface graphique...">
<polygon fill="white" stroke="black" points="128.5,-62 128.5,-81 249.5,-81 249.5,-62 128.5,-62"/>
<text text-anchor="middle" x="189" y="-69" font-family="Helvetica,sans-Serif" font-size="10.00">Interface/gui/altair.cpp</text>
</a>
</g>
</g>
<!-- Node28&#45;&gt;Node31 -->
<g id="edge4" class="edge"><title>Node28&#45;&gt;Node31</title>
<path fill="none" stroke="midnightblue" d="M312.967,-119.782C282.652,-108.22 237.934,-91.1641 211.31,-81.0091"/>
<polygon fill="midnightblue" stroke="midnightblue" points="312.058,-123.182 322.649,-123.475 314.553,-116.641 312.058,-123.182"/>
</g>
<!-- Node32 -->
<g id="node5" class="node"><title>Node32</title>
<g id="a_node5"><a xlink:href="mainwindow_8cpp.html" target="_top" xlink:title="Code de l&#39;implémentation de la classe MainWindow de l&#39;interface graphique. ">
<polygon fill="white" stroke="black" points="267.5,-62 267.5,-81 422.5,-81 422.5,-62 267.5,-62"/>
<text text-anchor="middle" x="345" y="-69" font-family="Helvetica,sans-Serif" font-size="10.00">Interface/gui/mainwindow.cpp</text>
</a>
</g>
</g>
<!-- Node28&#45;&gt;Node32 -->
<g id="edge5" class="edge"><title>Node28&#45;&gt;Node32</title>
<path fill="none" stroke="midnightblue" d="M345,-113.317C345,-102.496 345,-89.398 345,-81.0091"/>
<polygon fill="midnightblue" stroke="midnightblue" points="341.5,-113.475 345,-123.475 348.5,-113.475 341.5,-113.475"/>
</g>
<!-- Node33 -->
<g id="node6" class="node"><title>Node33</title>
<g id="a_node6"><a xlink:href="options_8cpp.html" target="_top" xlink:title="Implémentation des classes du dialogue d&#39;options. ">
<polygon fill="white" stroke="black" points="441,-62 441,-81 573,-81 573,-62 441,-62"/>
<text text-anchor="middle" x="507" y="-69" font-family="Helvetica,sans-Serif" font-size="10.00">Interface/gui/options.cpp</text>
</a>
</g>
</g>
<!-- Node28&#45;&gt;Node33 -->
<g id="edge6" class="edge"><title>Node28&#45;&gt;Node33</title>
<path fill="none" stroke="midnightblue" d="M377.855,-119.933C409.342,-108.368 456.063,-91.2083 483.832,-81.0091"/>
<polygon fill="midnightblue" stroke="midnightblue" points="376.391,-116.742 368.211,-123.475 378.804,-123.313 376.391,-116.742"/>
</g>
<!-- Node34 -->
<g id="node7" class="node"><title>Node34</title>
<g id="a_node7"><a xlink:href="run_8cpp.html" target="_top" xlink:title="Implémentation de la classe Altair agent de la classe MainWindow qui construit l&#39;interface graphique...">
<polygon fill="white" stroke="black" points="591.5,-62 591.5,-81 704.5,-81 704.5,-62 591.5,-62"/>
<text text-anchor="middle" x="648" y="-69" font-family="Helvetica,sans-Serif" font-size="10.00">Interface/gui/run.cpp</text>
</a>
</g>
</g>
<!-- Node28&#45;&gt;Node34 -->
<g id="edge7" class="edge"><title>Node28&#45;&gt;Node34</title>
<path fill="none" stroke="midnightblue" d="M402.197,-121.614C450.256,-112.774 520.712,-99.5483 582,-87 591.08,-85.141 600.841,-83.0486 609.998,-81.0437"/>
<polygon fill="midnightblue" stroke="midnightblue" points="401.497,-118.184 392.293,-123.432 402.761,-125.069 401.497,-118.184"/>
</g>
<!-- Node35 -->
<g id="node8" class="node"><title>Node35</title>
<g id="a_node8"><a xlink:href="xmlparser_8cpp.html" target="_top" xlink:title="Implémentation de la classe Altair agent de la classe MainWindow qui construit l&#39;interface graphique...">
<polygon fill="white" stroke="black" points="723,-62 723,-81 867,-81 867,-62 723,-62"/>
<text text-anchor="middle" x="795" y="-69" font-family="Helvetica,sans-Serif" font-size="10.00">Interface/gui/xmlparser.cpp</text>
</a>
</g>
</g>
<!-- Node28&#45;&gt;Node35 -->
<g id="edge8" class="edge"><title>Node28&#45;&gt;Node35</title>
<path fill="none" stroke="midnightblue" d="M410.227,-125.158C484.083,-117.153 607.942,-102.947 714,-87 725.726,-85.2369 738.362,-83.0929 750.087,-81.0002"/>
<polygon fill="midnightblue" stroke="midnightblue" points="409.711,-121.693 400.145,-126.246 410.462,-128.653 409.711,-121.693"/>
</g>
<!-- Node29&#45;&gt;Node28 -->
<g id="edge2" class="edge"><title>Node29&#45;&gt;Node28</title>
<path fill="none" stroke="midnightblue" d="M120.59,-85.1087C123.439,-85.7592 126.253,-86.3936 129,-87 191.045,-100.696 263.118,-114.794 306.462,-123.476"/>
<polygon fill="midnightblue" stroke="midnightblue" points="121.349,-81.6921 110.818,-82.8534 119.775,-88.5128 121.349,-81.6921"/>
</g>
<!-- Node30 -->
<g id="node3" class="node"><title>Node30</title>
<g id="a_node3"><a xlink:href="_interface_2gui_2main_8cpp.html" target="_top" xlink:title="Lance l&#39;interface graphique en chargeant le bon contexte linguistique et la feuille de style...">
<polygon fill="white" stroke="black" points="-7.10543e-15,-0.5 -7.10543e-15,-19.5 120,-19.5 120,-0.5 -7.10543e-15,-0.5"/>
<text text-anchor="middle" x="60" y="-7.5" font-family="Helvetica,sans-Serif" font-size="10.00">Interface/gui/main.cpp</text>
</a>
</g>
</g>
<!-- Node29&#45;&gt;Node30 -->
<g id="edge3" class="edge"><title>Node29&#45;&gt;Node30</title>
<path fill="none" stroke="midnightblue" d="M60,-46.2892C60,-36.857 60,-26.6548 60,-19.6578"/>
<polygon fill="midnightblue" stroke="midnightblue" points="56.5001,-46.3993 60,-56.3993 63.5001,-46.3994 56.5001,-46.3993"/>
</g>
</g>
</svg>
