<?xml version="1.0" encoding="UTF-8" standalone="no"?>
<!DOCTYPE svg PUBLIC "-//W3C//DTD SVG 1.1//EN"
 "http://www.w3.org/Graphics/SVG/1.1/DTD/svg11.dtd">
<!-- Generated by graphviz version 2.38.0 (20140413.2041)
 -->
<!-- Title: Interface/gui/altair.h Pages: 1 -->
<!--zoomable 252 -->
<svg id="main" version="1.1" xmlns="http://www.w3.org/2000/svg" xmlns:xlink="http://www.w3.org/1999/xlink" xml:space="preserve" onload="init(evt)">
<style type="text/css"><![CDATA[
.edge:hover path { stroke: red; }
.edge:hover polygon { stroke: red; fill: red; }
]]></style>
<script type="text/javascript"><![CDATA[
var edges = document.getElementsByTagName('g');
if (edges && edges.length) {
  for (var i=0;i<edges.length;i++) {
    if (edges[i].id.substr(0,4)=='edge') {
      edges[i].setAttribute('class','edge');
    }
  }
}
]]></script>
        <defs>
                <circle id="rim" cx="0" cy="0" r="7"/>
                <circle id="rim2" cx="0" cy="0" r="3.5"/>
                <g id="zoomPlus">
                        <use xlink:href="#rim" fill="#404040">
                                <set attributeName="fill" to="#808080" begin="zoomplus.mouseover" end="zoomplus.mouseout"/>
                        </use>
                        <path d="M-4,0h8M0,-4v8" fill="none" stroke="white" stroke-width="1.5" pointer-events="none"/>
                </g>
                <g id="zoomMin">
                        <use xlink:href="#rim" fill="#404040">
                                <set attributeName="fill" to="#808080" begin="zoomminus.mouseover" end="zoomminus.mouseout"/>
                        </use>
                        <path d="M-4,0h8" fill="none" stroke="white" stroke-width="1.5" pointer-events="none"/>
                </g>
                <g id="dirArrow">
                        <path fill="none" stroke="white" stroke-width="1.5" d="M0,-3.0v7 M-2.5,-0.5L0,-3.0L2.5,-0.5"/>
                </g>
               <g id="resetDef">
                       <use xlink:href="#rim2" fill="#404040">
                               <set attributeName="fill" to="#808080" begin="reset.mouseover" end="reset.mouseout"/>
                       </use>
               </g>
        </defs>

<script type="text/javascript">
var viewWidth = 1037;
var viewHeight = 252;
var sectionId = 'dynsection-0';
</script>
<script xlink:href="svgpan.js"/>
<svg id="graph" class="graph">
<g id="viewport">
<title>Interface/gui/altair.h</title>
<polygon fill="white" stroke="none" points="-4,4 -4,-248 1032.5,-248 1032.5,4 -4,4"/>
<!-- Node0 -->
<g id="node1" class="node"><title>Node0</title>
<polygon fill="#bfbfbf" stroke="black" points="150.5,-224.5 150.5,-243.5 253.5,-243.5 253.5,-224.5 150.5,-224.5"/>
<text text-anchor="middle" x="202" y="-231.5" font-family="Helvetica,sans-Serif" font-size="10.00">Interface/gui/altair.h</text>
</g>
<!-- Node1 -->
<g id="node2" class="node"><title>Node1</title>
<polygon fill="white" stroke="#bfbfbf" points="0,-168.5 0,-187.5 52,-187.5 52,-168.5 0,-168.5"/>
<text text-anchor="middle" x="26" y="-175.5" font-family="Helvetica,sans-Serif" font-size="10.00">fstring.h</text>
</g>
<!-- Node0&#45;&gt;Node1 -->
<g id="edge1" class="edge"><title>Node0&#45;&gt;Node1</title>
<path fill="none" stroke="midnightblue" d="M174.112,-224.444C143.719,-215.118 95.0013,-200.171 61.8031,-189.985"/>
<polygon fill="midnightblue" stroke="midnightblue" points="62.6228,-186.576 52.036,-186.988 60.5695,-193.268 62.6228,-186.576"/>
</g>
<!-- Node2 -->
<g id="node3" class="node"><title>Node2</title>
<polygon fill="white" stroke="#bfbfbf" points="70.5,-168.5 70.5,-187.5 135.5,-187.5 135.5,-168.5 70.5,-168.5"/>
<text text-anchor="middle" x="103" y="-175.5" font-family="Helvetica,sans-Serif" font-size="10.00">flistframe.h</text>
</g>
<!-- Node0&#45;&gt;Node2 -->
<g id="edge2" class="edge"><title>Node0&#45;&gt;Node2</title>
<path fill="none" stroke="midnightblue" d="M186.094,-224.324C170.362,-215.743 146.058,-202.486 127.791,-192.522"/>
<polygon fill="midnightblue" stroke="midnightblue" points="129.322,-189.37 118.867,-187.655 125.97,-195.516 129.322,-189.37"/>
</g>
<!-- Node3 -->
<g id="node4" class="node"><title>Node3</title>
<polygon fill="white" stroke="#bfbfbf" points="133,-0.5 133,-19.5 195,-19.5 195,-0.5 133,-0.5"/>
<text text-anchor="middle" x="164" y="-7.5" font-family="Helvetica,sans-Serif" font-size="10.00">fwidgets.h</text>
</g>
<!-- Node0&#45;&gt;Node3 -->
<g id="edge3" class="edge"><title>Node0&#45;&gt;Node3</title>
<path fill="none" stroke="midnightblue" d="M200.51,-224.297C194.919,-191.633 175.103,-75.8661 167.245,-29.9573"/>
<polygon fill="midnightblue" stroke="midnightblue" points="170.658,-29.1499 165.521,-19.8837 163.758,-30.3309 170.658,-29.1499"/>
</g>
<!-- Node4 -->
<g id="node5" class="node"><title>Node4</title>
<g id="a_node5"><a xlink:href="common_8h.html" target="_top" xlink:title="Code de la classe common, qui regroupe des utilitaires communs à l&#39;interface graphique MainWindow...">
<polygon fill="white" stroke="black" points="214,-56.5 214,-75.5 276,-75.5 276,-56.5 214,-56.5"/>
<text text-anchor="middle" x="245" y="-63.5" font-family="Helvetica,sans-Serif" font-size="10.00">common.h</text>
</a>
</g>
</g>
<!-- Node0&#45;&gt;Node4 -->
<g id="edge4" class="edge"><title>Node0&#45;&gt;Node4</title>
<path fill="none" stroke="midnightblue" d="M204.312,-224.075C211.08,-197.945 230.957,-121.211 240.188,-85.577"/>
<polygon fill="midnightblue" stroke="midnightblue" points="243.661,-86.1263 242.781,-75.5681 236.885,-84.3709 243.661,-86.1263"/>
</g>
<!-- Node7 -->
<g id="node8" class="node"><title>Node7</title>
<polygon fill="white" stroke="#bfbfbf" points="553,-168.5 553,-187.5 607,-187.5 607,-168.5 553,-168.5"/>
<text text-anchor="middle" x="580" y="-175.5" font-family="Helvetica,sans-Serif" font-size="10.00">enums.h</text>
</g>
<!-- Node0&#45;&gt;Node7 -->
<g id="edge8" class="edge"><title>Node0&#45;&gt;Node7</title>
<path fill="none" stroke="midnightblue" d="M253.569,-228.069C318.738,-221.426 434.501,-208.265 542.825,-188.031"/>
<polygon fill="midnightblue" stroke="midnightblue" points="543.772,-191.414 552.947,-186.115 542.47,-184.536 543.772,-191.414"/>
</g>
<!-- Node8 -->
<g id="node9" class="node"><title>Node8</title>
<g id="a_node9"><a xlink:href="altair-gui_8h.html" target="_top" xlink:title="Code de la classe MainWindow qui construit l&#39;interface graphique. ">
<polygon fill="white" stroke="black" points="473,-168.5 473,-187.5 535,-187.5 535,-168.5 473,-168.5"/>
<text text-anchor="middle" x="504" y="-175.5" font-family="Helvetica,sans-Serif" font-size="10.00">altair&#45;gui.h</text>
</a>
</g>
</g>
<!-- Node0&#45;&gt;Node8 -->
<g id="edge9" class="edge"><title>Node0&#45;&gt;Node8</title>
<path fill="none" stroke="midnightblue" d="M244.764,-224.444C302.681,-213.665 405.133,-195.374 462.433,-185.608"/>
<polygon fill="midnightblue" stroke="midnightblue" points="463.311,-189.009 472.586,-183.888 462.141,-182.108 463.311,-189.009"/>
</g>
<!-- Node4&#45;&gt;Node3 -->
<g id="edge6" class="edge"><title>Node4&#45;&gt;Node3</title>
<path fill="none" stroke="midnightblue" d="M231.986,-56.324C219.468,-47.979 200.318,-35.2122 185.529,-25.3524"/>
<polygon fill="midnightblue" stroke="midnightblue" points="187.244,-22.2894 176.982,-19.6545 183.361,-28.1137 187.244,-22.2894"/>
</g>
<!-- Node5 -->
<g id="node6" class="node"><title>Node5</title>
<polygon fill="white" stroke="#bfbfbf" points="213.5,-0.5 213.5,-19.5 276.5,-19.5 276.5,-0.5 213.5,-0.5"/>
<text text-anchor="middle" x="245" y="-7.5" font-family="Helvetica,sans-Serif" font-size="10.00">QtWidgets</text>
</g>
<!-- Node4&#45;&gt;Node5 -->
<g id="edge5" class="edge"><title>Node4&#45;&gt;Node5</title>
<path fill="none" stroke="midnightblue" d="M245,-56.083C245,-49.0059 245,-38.8611 245,-29.9865"/>
<polygon fill="midnightblue" stroke="midnightblue" points="248.5,-29.751 245,-19.7511 241.5,-29.7511 248.5,-29.751"/>
</g>
<!-- Node6 -->
<g id="node7" class="node"><title>Node6</title>
<polygon fill="white" stroke="#bfbfbf" points="295,-0.5 295,-19.5 341,-19.5 341,-0.5 295,-0.5"/>
<text text-anchor="middle" x="318" y="-7.5" font-family="Helvetica,sans-Serif" font-size="10.00">tools.h</text>
</g>
<!-- Node4&#45;&gt;Node6 -->
<g id="edge7" class="edge"><title>Node4&#45;&gt;Node6</title>
<path fill="none" stroke="midnightblue" d="M256.729,-56.324C267.837,-48.1066 284.742,-35.6017 297.983,-25.8069"/>
<polygon fill="midnightblue" stroke="midnightblue" points="300.1,-28.5948 306.058,-19.8339 295.937,-22.9671 300.1,-28.5948"/>
</g>
<!-- Node8&#45;&gt;Node0 -->
<g id="edge25" class="edge"><title>Node8&#45;&gt;Node0</title>
<path fill="none" stroke="midnightblue" d="M472.847,-185.384C423.558,-194.666 327.021,-211.978 263.466,-222.973"/>
<polygon fill="midnightblue" stroke="midnightblue" points="262.821,-219.532 253.562,-224.681 264.011,-226.43 262.821,-219.532"/>
</g>
<!-- Node8&#45;&gt;Node4 -->
<g id="edge19" class="edge"><title>Node8&#45;&gt;Node4</title>
<path fill="none" stroke="midnightblue" d="M472.691,-175.472C413.639,-171.934 289.034,-161.131 259,-132 246.839,-120.204 244.02,-100.57 243.829,-85.9612"/>
<polygon fill="midnightblue" stroke="midnightblue" points="247.339,-85.6601 244.111,-75.5689 240.341,-85.4704 247.339,-85.6601"/>
</g>
<!-- Node9 -->
<g id="node10" class="node"><title>Node9</title>
<polygon fill="white" stroke="#bfbfbf" points="430,-112.5 430,-131.5 510,-131.5 510,-112.5 430,-112.5"/>
<text text-anchor="middle" x="470" y="-119.5" font-family="Helvetica,sans-Serif" font-size="10.00">QMainWindow</text>
</g>
<!-- Node8&#45;&gt;Node9 -->
<g id="edge10" class="edge"><title>Node8&#45;&gt;Node9</title>
<path fill="none" stroke="midnightblue" d="M498.386,-168.083C493.633,-160.534 486.682,-149.495 480.848,-140.23"/>
<polygon fill="midnightblue" stroke="midnightblue" points="483.8,-138.349 475.51,-131.751 477.876,-142.078 483.8,-138.349"/>
</g>
<!-- Node10 -->
<g id="node11" class="node"><title>Node10</title>
<polygon fill="white" stroke="#bfbfbf" points="413,-56.5 413,-75.5 465,-75.5 465,-56.5 413,-56.5"/>
<text text-anchor="middle" x="439" y="-63.5" font-family="Helvetica,sans-Serif" font-size="10.00">QDialog</text>
</g>
<!-- Node8&#45;&gt;Node10 -->
<g id="edge11" class="edge"><title>Node8&#45;&gt;Node10</title>
<path fill="none" stroke="midnightblue" d="M509.703,-168.407C517.57,-155.372 529.641,-130.195 519,-112 509.383,-95.5567 491.304,-84.6579 474.763,-77.7109"/>
<polygon fill="midnightblue" stroke="midnightblue" points="475.867,-74.3856 465.277,-74.0653 473.355,-80.9197 475.867,-74.3856"/>
</g>
<!-- Node11 -->
<g id="node12" class="node"><title>Node11</title>
<polygon fill="white" stroke="#bfbfbf" points="604,-112.5 604,-131.5 664,-131.5 664,-112.5 604,-112.5"/>
<text text-anchor="middle" x="634" y="-119.5" font-family="Helvetica,sans-Serif" font-size="10.00">QProcess</text>
</g>
<!-- Node8&#45;&gt;Node11 -->
<g id="edge12" class="edge"><title>Node8&#45;&gt;Node11</title>
<path fill="none" stroke="midnightblue" d="M524.599,-168.444C545.993,-159.557 579.681,-145.563 604.024,-135.451"/>
<polygon fill="midnightblue" stroke="midnightblue" points="605.605,-138.585 613.497,-131.516 602.92,-132.12 605.605,-138.585"/>
</g>
<!-- Node12 -->
<g id="node13" class="node"><title>Node12</title>
<polygon fill="white" stroke="#bfbfbf" points="682,-112.5 682,-131.5 750,-131.5 750,-112.5 682,-112.5"/>
<text text-anchor="middle" x="716" y="-119.5" font-family="Helvetica,sans-Serif" font-size="10.00">QDomNode</text>
</g>
<!-- Node8&#45;&gt;Node12 -->
<g id="edge13" class="edge"><title>Node8&#45;&gt;Node12</title>
<path fill="none" stroke="midnightblue" d="M535.281,-169.032C571.595,-159.782 631.713,-144.469 672.548,-134.068"/>
<polygon fill="midnightblue" stroke="midnightblue" points="673.662,-137.396 682.488,-131.536 671.934,-130.613 673.662,-137.396"/>
</g>
<!-- Node13 -->
<g id="node14" class="node"><title>Node13</title>
<polygon fill="white" stroke="#bfbfbf" points="768,-112.5 768,-131.5 808,-131.5 808,-112.5 768,-112.5"/>
<text text-anchor="middle" x="788" y="-119.5" font-family="Helvetica,sans-Serif" font-size="10.00">QFile</text>
</g>
<!-- Node8&#45;&gt;Node13 -->
<g id="edge14" class="edge"><title>Node8&#45;&gt;Node13</title>
<path fill="none" stroke="midnightblue" d="M535.408,-169.76C538.309,-169.144 541.206,-168.548 544,-168 635.919,-149.978 662.961,-154.1 757.798,-132.016"/>
<polygon fill="midnightblue" stroke="midnightblue" points="758.889,-135.355 767.815,-129.646 757.278,-128.543 758.889,-135.355"/>
</g>
<!-- Node14 -->
<g id="node15" class="node"><title>Node14</title>
<polygon fill="white" stroke="#bfbfbf" points="826,-112.5 826,-131.5 870,-131.5 870,-112.5 826,-112.5"/>
<text text-anchor="middle" x="848" y="-119.5" font-family="Helvetica,sans-Serif" font-size="10.00">QtXml</text>
</g>
<!-- Node8&#45;&gt;Node14 -->
<g id="edge15" class="edge"><title>Node8&#45;&gt;Node14</title>
<path fill="none" stroke="midnightblue" d="M535.389,-169.657C538.293,-169.062 541.197,-168.499 544,-168 661.312,-147.112 695.437,-156.597 815.781,-131.974"/>
<polygon fill="midnightblue" stroke="midnightblue" points="816.675,-135.363 825.751,-129.897 815.247,-128.51 816.675,-135.363"/>
</g>
<!-- Node15 -->
<g id="node16" class="node"><title>Node15</title>
<g id="a_node16"><a xlink:href="options_8h.html" target="_top" xlink:title="Code des classes du dialogue d&#39;options. ">
<polygon fill="white" stroke="black" points="268,-112.5 268,-131.5 324,-131.5 324,-112.5 268,-112.5"/>
<text text-anchor="middle" x="296" y="-119.5" font-family="Helvetica,sans-Serif" font-size="10.00">options.h</text>
</a>
</g>
</g>
<!-- Node8&#45;&gt;Node15 -->
<g id="edge16" class="edge"><title>Node8&#45;&gt;Node15</title>
<path fill="none" stroke="midnightblue" d="M472.86,-168.916C435.746,-159.28 373.751,-143.185 333.89,-132.837"/>
<polygon fill="midnightblue" stroke="midnightblue" points="334.573,-129.398 324.015,-130.273 332.814,-136.174 334.573,-129.398"/>
</g>
<!-- Node17 -->
<g id="node18" class="node"><title>Node17</title>
<g id="a_node18"><a xlink:href="highlighter_8h.html" target="_top" xlink:title="Code de l&#39;utilitaire de colorisation du code XML du projet .alt. ">
<polygon fill="white" stroke="black" points="888.5,-112.5 888.5,-131.5 957.5,-131.5 957.5,-112.5 888.5,-112.5"/>
<text text-anchor="middle" x="923" y="-119.5" font-family="Helvetica,sans-Serif" font-size="10.00">highlighter.h</text>
</a>
</g>
</g>
<!-- Node8&#45;&gt;Node17 -->
<g id="edge20" class="edge"><title>Node8&#45;&gt;Node17</title>
<path fill="none" stroke="midnightblue" d="M535.376,-169.584C538.283,-169.005 541.191,-168.465 544,-168 688.558,-144.05 729.297,-154.552 878.483,-131.924"/>
<polygon fill="midnightblue" stroke="midnightblue" points="879.119,-135.368 888.469,-130.385 878.052,-128.449 879.119,-135.368"/>
</g>
<!-- Node20 -->
<g id="node21" class="node"><title>Node20</title>
<g id="a_node21"><a xlink:href="gui__enums_8h.html" target="_top" xlink:title="Code de constantes et de classes regroupant des constantes. ">
<polygon fill="white" stroke="black" points="528,-56.5 528,-75.5 600,-75.5 600,-56.5 528,-56.5"/>
<text text-anchor="middle" x="564" y="-63.5" font-family="Helvetica,sans-Serif" font-size="10.00">gui_enums.h</text>
</a>
</g>
</g>
<!-- Node8&#45;&gt;Node20 -->
<g id="edge23" class="edge"><title>Node8&#45;&gt;Node20</title>
<path fill="none" stroke="midnightblue" d="M517.207,-168.298C528.314,-160.244 543.674,-147.236 552,-132 559.824,-117.682 562.659,-99.2167 563.633,-85.6285"/>
<polygon fill="midnightblue" stroke="midnightblue" points="567.133,-85.7056 564.082,-75.5595 560.14,-85.3936 567.133,-85.7056"/>
</g>
<!-- Node22 -->
<g id="node23" class="node"><title>Node22</title>
<g id="a_node23"><a xlink:href="matricules_8h.html" target="_top" xlink:title="Code de la classe MatriculeInput, qui construit un dialogue d&#39;extraction des bulletins. ">
<polygon fill="white" stroke="black" points="342,-112.5 342,-131.5 412,-131.5 412,-112.5 342,-112.5"/>
<text text-anchor="middle" x="377" y="-119.5" font-family="Helvetica,sans-Serif" font-size="10.00">matricules.h</text>
</a>
</g>
</g>
<!-- Node8&#45;&gt;Node22 -->
<g id="edge26" class="edge"><title>Node8&#45;&gt;Node22</title>
<path fill="none" stroke="midnightblue" d="M483.876,-168.444C462.976,-159.557 430.065,-145.563 406.284,-135.451"/>
<polygon fill="midnightblue" stroke="midnightblue" points="407.602,-132.208 397.029,-131.516 404.862,-138.65 407.602,-132.208"/>
</g>
<!-- Node15&#45;&gt;Node4 -->
<g id="edge18" class="edge"><title>Node15&#45;&gt;Node4</title>
<path fill="none" stroke="midnightblue" d="M287.578,-112.083C280.152,-104.22 269.148,-92.5688 260.188,-83.0813"/>
<polygon fill="midnightblue" stroke="midnightblue" points="262.676,-80.618 253.265,-75.7511 257.587,-85.4244 262.676,-80.618"/>
</g>
<!-- Node16 -->
<g id="node17" class="node"><title>Node16</title>
<polygon fill="white" stroke="#bfbfbf" points="305,-56.5 305,-75.5 373,-75.5 373,-56.5 305,-56.5"/>
<text text-anchor="middle" x="339" y="-63.5" font-family="Helvetica,sans-Serif" font-size="10.00">flineframe.h</text>
</g>
<!-- Node15&#45;&gt;Node16 -->
<g id="edge17" class="edge"><title>Node15&#45;&gt;Node16</title>
<path fill="none" stroke="midnightblue" d="M303.101,-112.083C309.237,-104.377 318.27,-93.0333 325.739,-83.6531"/>
<polygon fill="midnightblue" stroke="midnightblue" points="328.54,-85.7542 332.032,-75.7511 323.064,-81.3936 328.54,-85.7542"/>
</g>
<!-- Node18 -->
<g id="node19" class="node"><title>Node18</title>
<polygon fill="white" stroke="#bfbfbf" points="814.5,-56.5 814.5,-75.5 915.5,-75.5 915.5,-56.5 814.5,-56.5"/>
<text text-anchor="middle" x="865" y="-63.5" font-family="Helvetica,sans-Serif" font-size="10.00">QSyntaxHighlighter</text>
</g>
<!-- Node17&#45;&gt;Node18 -->
<g id="edge21" class="edge"><title>Node17&#45;&gt;Node18</title>
<path fill="none" stroke="midnightblue" d="M913.681,-112.324C905.107,-104.341 892.188,-92.3128 881.812,-82.6529"/>
<polygon fill="midnightblue" stroke="midnightblue" points="884.192,-80.0865 874.488,-75.8339 879.422,-85.2098 884.192,-80.0865"/>
</g>
<!-- Node19 -->
<g id="node20" class="node"><title>Node19</title>
<polygon fill="white" stroke="#bfbfbf" points="933.5,-56.5 933.5,-75.5 1028.5,-75.5 1028.5,-56.5 933.5,-56.5"/>
<text text-anchor="middle" x="981" y="-63.5" font-family="Helvetica,sans-Serif" font-size="10.00">QTextCharFormat</text>
</g>
<!-- Node17&#45;&gt;Node19 -->
<g id="edge22" class="edge"><title>Node17&#45;&gt;Node19</title>
<path fill="none" stroke="midnightblue" d="M932.319,-112.324C940.893,-104.341 953.812,-92.3128 964.188,-82.6529"/>
<polygon fill="midnightblue" stroke="midnightblue" points="966.578,-85.2098 971.512,-75.8339 961.808,-80.0865 966.578,-85.2098"/>
</g>
<!-- Node21 -->
<g id="node22" class="node"><title>Node21</title>
<polygon fill="white" stroke="#bfbfbf" points="541,-0.5 541,-19.5 587,-19.5 587,-0.5 541,-0.5"/>
<text text-anchor="middle" x="564" y="-7.5" font-family="Helvetica,sans-Serif" font-size="10.00">cstdint</text>
</g>
<!-- Node20&#45;&gt;Node21 -->
<g id="edge24" class="edge"><title>Node20&#45;&gt;Node21</title>
<path fill="none" stroke="midnightblue" d="M564,-56.083C564,-49.0059 564,-38.8611 564,-29.9865"/>
<polygon fill="midnightblue" stroke="midnightblue" points="567.5,-29.751 564,-19.7511 560.5,-29.7511 567.5,-29.751"/>
</g>
<!-- Node22&#45;&gt;Node4 -->
<g id="edge28" class="edge"><title>Node22&#45;&gt;Node4</title>
<path fill="none" stroke="midnightblue" d="M356.084,-112.444C334.264,-103.517 299.85,-89.4387 275.108,-79.3168"/>
<polygon fill="midnightblue" stroke="midnightblue" points="276.399,-76.0634 265.818,-75.5164 273.748,-82.5422 276.399,-76.0634"/>
</g>
<!-- Node22&#45;&gt;Node10 -->
<g id="edge27" class="edge"><title>Node22&#45;&gt;Node10</title>
<path fill="none" stroke="midnightblue" d="M386.961,-112.324C396.127,-104.341 409.937,-92.3128 421.028,-82.6529"/>
<polygon fill="midnightblue" stroke="midnightblue" points="423.615,-85.041 428.857,-75.8339 419.018,-79.7624 423.615,-85.041"/>
</g>
<!-- Node22&#45;&gt;Node16 -->
<g id="edge29" class="edge"><title>Node22&#45;&gt;Node16</title>
<path fill="none" stroke="midnightblue" d="M370.725,-112.083C365.358,-104.455 357.482,-93.2645 350.921,-83.9408"/>
<polygon fill="midnightblue" stroke="midnightblue" points="353.775,-81.9149 345.158,-75.7511 348.051,-85.9434 353.775,-81.9149"/>
</g>
<!-- Node22&#45;&gt;Node20 -->
<g id="edge30" class="edge"><title>Node22&#45;&gt;Node20</title>
<path fill="none" stroke="midnightblue" d="M406.631,-112.444C438.5,-103.241 489.333,-88.5617 524.564,-78.3879"/>
<polygon fill="midnightblue" stroke="midnightblue" points="525.872,-81.6534 534.508,-75.5164 523.929,-74.9282 525.872,-81.6534"/>
</g>
</g>
</svg>
        <g id="navigator" transform="translate(0 0)" fill="#404254">
                <rect fill="#f2f5e9" fill-opacity="0.5" stroke="#606060" stroke-width=".5" x="0" y="0" width="60" height="60"/>
                <use id="zoomplus" xlink:href="#zoomPlus" x="17" y="9" onmousedown="handleZoom(evt,'in')"/>
                <use id="zoomminus" xlink:href="#zoomMin" x="42" y="9" onmousedown="handleZoom(evt,'out')"/>
                <use id="reset" xlink:href="#resetDef" x="30" y="36" onmousedown="handleReset()"/>
                <g id="arrowUp" xlink:href="#dirArrow" transform="translate(30 24)" onmousedown="handlePan(0,-1)">
                  <use xlink:href="#rim" fill="#404040">
                        <set attributeName="fill" to="#808080" begin="arrowUp.mouseover" end="arrowUp.mouseout"/>
                  </use>
                  <path fill="none" stroke="white" stroke-width="1.5" d="M0,-3.0v7 M-2.5,-0.5L0,-3.0L2.5,-0.5"/>
                </g>
                <g id="arrowRight" xlink:href="#dirArrow" transform="rotate(90) translate(36 -43)" onmousedown="handlePan(1,0)">
                  <use xlink:href="#rim" fill="#404040">
                        <set attributeName="fill" to="#808080" begin="arrowRight.mouseover" end="arrowRight.mouseout"/>
                  </use>
                  <path fill="none" stroke="white" stroke-width="1.5" d="M0,-3.0v7 M-2.5,-0.5L0,-3.0L2.5,-0.5"/>
                </g>
                <g id="arrowDown" xlink:href="#dirArrow" transform="rotate(180) translate(-30 -48)" onmousedown="handlePan(0,1)">
                  <use xlink:href="#rim" fill="#404040">
                        <set attributeName="fill" to="#808080" begin="arrowDown.mouseover" end="arrowDown.mouseout"/>
                  </use>
                  <path fill="none" stroke="white" stroke-width="1.5" d="M0,-3.0v7 M-2.5,-0.5L0,-3.0L2.5,-0.5"/>
                </g>
                <g id="arrowLeft" xlink:href="#dirArrow" transform="rotate(270) translate(-36 17)" onmousedown="handlePan(-1,0)">
                  <use xlink:href="#rim" fill="#404040">
                        <set attributeName="fill" to="#808080" begin="arrowLeft.mouseover" end="arrowLeft.mouseout"/>
                  </use>
                  <path fill="none" stroke="white" stroke-width="1.5" d="M0,-3.0v7 M-2.5,-0.5L0,-3.0L2.5,-0.5"/>
                </g>
        </g>
        <svg viewBox="0 0 15 15" width="100%" height="30px" preserveAspectRatio="xMaxYMin meet">
         <g id="arrow_out" transform="scale(0.3 0.3)">
          <a xlink:href="altair_8h__incl_org.svg" target="_base">
           <rect id="button" ry="5" rx="5" y="6" x="6" height="38" width="38"
                fill="#f2f5e9" fill-opacity="0.5" stroke="#606060" stroke-width="1.0"/>
           <path id="arrow"
             d="M 11.500037,31.436501 C 11.940474,20.09759 22.043105,11.32322 32.158766,21.979434 L 37.068811,17.246167 C 37.068811,17.246167 37.088388,32 37.088388,32 L 22.160133,31.978069 C 22.160133,31.978069 26.997745,27.140456 26.997745,27.140456 C 18.528582,18.264221 13.291696,25.230495 11.500037,31.436501 z"
             style="fill:#404040;"/>
          </a>
         </g>
        </svg>
</svg>
