<?xml version="1.0" encoding="UTF-8" standalone="no"?>
<!DOCTYPE svg PUBLIC "-//W3C//DTD SVG 1.1//EN"
 "http://www.w3.org/Graphics/SVG/1.1/DTD/svg11.dtd">
<!-- Generated by graphviz version 2.38.0 (20140413.2041)
 -->
<!-- Title: Interface/gui/altair.h Pages: 1 -->
<!--zoomable 420 -->
<svg id="main" version="1.1" xmlns="http://www.w3.org/2000/svg" xmlns:xlink="http://www.w3.org/1999/xlink" xml:space="preserve" onload="init(evt)">
<style type="text/css"><![CDATA[
.edge:hover path { stroke: red; }
.edge:hover polygon { stroke: red; fill: red; }
]]></style>
<script type="text/javascript"><![CDATA[
var edges = document.getElementsByTagName('g');
if (edges && edges.length) {
  for (var i=0;i<edges.length;i++) {
    if (edges[i].id.substr(0,4)=='edge') {
      edges[i].setAttribute('class','edge');
    }
  }
}
]]></script>
        <defs>
                <circle id="rim" cx="0" cy="0" r="7"/>
                <circle id="rim2" cx="0" cy="0" r="3.5"/>
                <g id="zoomPlus">
                        <use xlink:href="#rim" fill="#404040">
                                <set attributeName="fill" to="#808080" begin="zoomplus.mouseover" end="zoomplus.mouseout"/>
                        </use>
                        <path d="M-4,0h8M0,-4v8" fill="none" stroke="white" stroke-width="1.5" pointer-events="none"/>
                </g>
                <g id="zoomMin">
                        <use xlink:href="#rim" fill="#404040">
                                <set attributeName="fill" to="#808080" begin="zoomminus.mouseover" end="zoomminus.mouseout"/>
                        </use>
                        <path d="M-4,0h8" fill="none" stroke="white" stroke-width="1.5" pointer-events="none"/>
                </g>
                <g id="dirArrow">
                        <path fill="none" stroke="white" stroke-width="1.5" d="M0,-3.0v7 M-2.5,-0.5L0,-3.0L2.5,-0.5"/>
                </g>
               <g id="resetDef">
                       <use xlink:href="#rim2" fill="#404040">
                               <set attributeName="fill" to="#808080" begin="reset.mouseover" end="reset.mouseout"/>
                       </use>
               </g>
        </defs>

<script type="text/javascript">
var viewWidth = 1107;
var viewHeight = 420;
var sectionId = 'dynsection-0';
</script>
<script xlink:href="svgpan.js"/>
<svg id="graph" class="graph">
<g id="viewport">
<title>Interface/gui/altair.h</title>
<polygon fill="white" stroke="none" points="-4,4 -4,-416 1103,-416 1103,4 -4,4"/>
<!-- Node0 -->
<g id="node1" class="node"><title>Node0</title>
<polygon fill="#bfbfbf" stroke="black" points="552,-392.5 552,-411.5 662,-411.5 662,-392.5 552,-392.5"/>
<text text-anchor="middle" x="607" y="-399.5" font-family="Helvetica,sans-Serif" font-size="10.00">Interface/gui/altair.h</text>
</g>
<!-- Node1 -->
<g id="node2" class="node"><title>Node1</title>
<g id="a_node2"><a xlink:href="fstring_8h.html" target="_top" xlink:title="fstring.h">
<polygon fill="white" stroke="black" points="466,-56.5 466,-75.5 520,-75.5 520,-56.5 466,-56.5"/>
<text text-anchor="middle" x="493" y="-63.5" font-family="Helvetica,sans-Serif" font-size="10.00">fstring.h</text>
</a>
</g>
</g>
<!-- Node0&#45;&gt;Node1 -->
<g id="edge1" class="edge"><title>Node0&#45;&gt;Node1</title>
<path fill="none" stroke="midnightblue" d="M551.793,-396.788C402.161,-384.638 0,-346.792 0,-291 0,-291 0,-291 0,-177 0,-83.6685 340.827,-69.494 455.71,-67.3672"/>
<polygon fill="midnightblue" stroke="midnightblue" points="455.851,-70.8655 465.792,-67.2012 455.736,-63.8664 455.851,-70.8655"/>
</g>
<!-- Node3 -->
<g id="node4" class="node"><title>Node3</title>
<g id="a_node4"><a xlink:href="enums_8h.html" target="_top" xlink:title="Enumérations et constantes permettant de paramétrer les fwidgets. ">
<polygon fill="white" stroke="black" points="591,-0.5 591,-19.5 647,-19.5 647,-0.5 591,-0.5"/>
<text text-anchor="middle" x="619" y="-7.5" font-family="Helvetica,sans-Serif" font-size="10.00">enums.h</text>
</a>
</g>
</g>
<!-- Node0&#45;&gt;Node3 -->
<g id="edge21" class="edge"><title>Node0&#45;&gt;Node3</title>
<path fill="none" stroke="midnightblue" d="M662.007,-400.219C790.392,-396.91 1099,-379.729 1099,-291 1099,-291 1099,-291 1099,-121 1099,-30.5295 770.929,-14.4653 657.239,-11.6145"/>
<polygon fill="midnightblue" stroke="midnightblue" points="657.312,-8.1154 647.234,-11.3843 657.151,-15.1135 657.312,-8.1154"/>
</g>
<!-- Node4 -->
<g id="node5" class="node"><title>Node4</title>
<g id="a_node5"><a xlink:href="flistframe_8h.html" target="_top" xlink:title="flistframe.h">
<polygon fill="white" stroke="black" points="178,-224.5 178,-243.5 246,-243.5 246,-224.5 178,-224.5"/>
<text text-anchor="middle" x="212" y="-231.5" font-family="Helvetica,sans-Serif" font-size="10.00">flistframe.h</text>
</a>
</g>
</g>
<!-- Node0&#45;&gt;Node4 -->
<g id="edge4" class="edge"><title>Node0&#45;&gt;Node4</title>
<path fill="none" stroke="midnightblue" d="M551.841,-401.941C459.837,-402.303 280.714,-397.476 236,-356 207.698,-329.748 207.353,-280.477 209.627,-253.618"/>
<polygon fill="midnightblue" stroke="midnightblue" points="213.114,-253.924 210.687,-243.611 206.153,-253.186 213.114,-253.924"/>
</g>
<!-- Node5 -->
<g id="node6" class="node"><title>Node5</title>
<g id="a_node6"><a xlink:href="fwidgets_8h.html" target="_top" xlink:title="fwidgets.h">
<polygon fill="white" stroke="black" points="527,-112.5 527,-131.5 591,-131.5 591,-112.5 527,-112.5"/>
<text text-anchor="middle" x="559" y="-119.5" font-family="Helvetica,sans-Serif" font-size="10.00">fwidgets.h</text>
</a>
</g>
</g>
<!-- Node0&#45;&gt;Node5 -->
<g id="edge16" class="edge"><title>Node0&#45;&gt;Node5</title>
<path fill="none" stroke="midnightblue" d="M551.937,-392.604C465.159,-378.122 302.933,-345.555 269,-300 263.69,-292.871 264.627,-287.739 269,-280 280.869,-258.998 433.549,-179.037 455,-168 478.71,-155.801 506.466,-143.906 527.337,-135.412"/>
<polygon fill="midnightblue" stroke="midnightblue" points="528.723,-138.627 536.692,-131.644 526.108,-132.133 528.723,-138.627"/>
</g>
<!-- Node12 -->
<g id="node13" class="node"><title>Node12</title>
<g id="a_node13"><a xlink:href="common_8h.html" target="_top" xlink:title="Code de la classe common, qui regroupe des utilitaires communs à l&#39;interface graphique MainWindow...">
<polygon fill="white" stroke="black" points="895.5,-224.5 895.5,-243.5 960.5,-243.5 960.5,-224.5 895.5,-224.5"/>
<text text-anchor="middle" x="928" y="-231.5" font-family="Helvetica,sans-Serif" font-size="10.00">common.h</text>
</a>
</g>
</g>
<!-- Node0&#45;&gt;Node12 -->
<g id="edge17" class="edge"><title>Node0&#45;&gt;Node12</title>
<path fill="none" stroke="midnightblue" d="M662.132,-395.798C764.165,-384.909 976.077,-355.959 1020,-300 1038.44,-276.509 1002.15,-257.915 969.855,-246.734"/>
<polygon fill="midnightblue" stroke="midnightblue" points="970.62,-243.302 960.027,-243.505 968.435,-249.952 970.62,-243.302"/>
</g>
<!-- Node13 -->
<g id="node14" class="node"><title>Node13</title>
<g id="a_node14"><a xlink:href="altair-gui_8h.html" target="_top" xlink:title="Code de la classe MainWindow qui construit l&#39;interface graphique. ">
<polygon fill="white" stroke="black" points="574.5,-336.5 574.5,-355.5 639.5,-355.5 639.5,-336.5 574.5,-336.5"/>
<text text-anchor="middle" x="607" y="-343.5" font-family="Helvetica,sans-Serif" font-size="10.00">altair&#45;gui.h</text>
</a>
</g>
</g>
<!-- Node0&#45;&gt;Node13 -->
<g id="edge22" class="edge"><title>Node0&#45;&gt;Node13</title>
<path fill="none" stroke="midnightblue" d="M601.834,-392.083C600.324,-384.927 599.894,-374.635 600.542,-365.691"/>
<polygon fill="midnightblue" stroke="midnightblue" points="604.015,-366.126 601.869,-355.751 597.077,-365.2 604.015,-366.126"/>
</g>
<!-- Node2 -->
<g id="node3" class="node"><title>Node2</title>
<polygon fill="white" stroke="#bfbfbf" points="467.5,-0.5 467.5,-19.5 518.5,-19.5 518.5,-0.5 467.5,-0.5"/>
<text text-anchor="middle" x="493" y="-7.5" font-family="Helvetica,sans-Serif" font-size="10.00">QtCore</text>
</g>
<!-- Node1&#45;&gt;Node2 -->
<g id="edge2" class="edge"><title>Node1&#45;&gt;Node2</title>
<path fill="none" stroke="midnightblue" d="M493,-56.083C493,-49.0059 493,-38.8611 493,-29.9865"/>
<polygon fill="midnightblue" stroke="midnightblue" points="496.5,-29.751 493,-19.7511 489.5,-29.7511 496.5,-29.751"/>
</g>
<!-- Node1&#45;&gt;Node3 -->
<g id="edge3" class="edge"><title>Node1&#45;&gt;Node3</title>
<path fill="none" stroke="midnightblue" d="M512.965,-56.4435C533.609,-47.5961 566.063,-33.6875 589.632,-23.5865"/>
<polygon fill="midnightblue" stroke="midnightblue" points="591.316,-26.6727 599.128,-19.5164 588.558,-20.2387 591.316,-26.6727"/>
</g>
<!-- Node4&#45;&gt;Node1 -->
<g id="edge9" class="edge"><title>Node4&#45;&gt;Node1</title>
<path fill="none" stroke="midnightblue" d="M177.776,-230.768C122.459,-225.87 22.8657,-210.945 57,-168 106.861,-105.268 359.426,-78.0568 455.675,-69.8517"/>
<polygon fill="midnightblue" stroke="midnightblue" points="456.146,-73.3247 465.821,-69.0082 455.566,-66.3488 456.146,-73.3247"/>
</g>
<!-- Node4&#45;&gt;Node5 -->
<g id="edge5" class="edge"><title>Node4&#45;&gt;Node5</title>
<path fill="none" stroke="midnightblue" d="M209.977,-224.467C207.241,-210.575 204.255,-183.108 219,-168 259.439,-126.565 434.651,-122.115 516.533,-122.369"/>
<polygon fill="midnightblue" stroke="midnightblue" points="516.723,-125.87 526.743,-122.426 516.763,-118.87 516.723,-125.87"/>
</g>
<!-- Node8 -->
<g id="node9" class="node"><title>Node8</title>
<g id="a_node9"><a xlink:href="tools_8h.html" target="_top" xlink:title="tools.h">
<polygon fill="white" stroke="black" points="640.5,-168.5 640.5,-187.5 687.5,-187.5 687.5,-168.5 640.5,-168.5"/>
<text text-anchor="middle" x="664" y="-175.5" font-family="Helvetica,sans-Serif" font-size="10.00">tools.h</text>
</a>
</g>
</g>
<!-- Node4&#45;&gt;Node8 -->
<g id="edge10" class="edge"><title>Node4&#45;&gt;Node8</title>
<path fill="none" stroke="midnightblue" d="M246.058,-229.711C314.803,-222.947 475.016,-206.544 609,-188 615.955,-187.037 623.385,-185.897 630.464,-184.758"/>
<polygon fill="midnightblue" stroke="midnightblue" points="631.187,-188.186 640.486,-183.11 630.05,-181.279 631.187,-188.186"/>
</g>
<!-- Node9 -->
<g id="node10" class="node"><title>Node9</title>
<polygon fill="white" stroke="#bfbfbf" points="332,-168.5 332,-187.5 408,-187.5 408,-168.5 332,-168.5"/>
<text text-anchor="middle" x="370" y="-175.5" font-family="Helvetica,sans-Serif" font-size="10.00">QToolButton</text>
</g>
<!-- Node4&#45;&gt;Node9 -->
<g id="edge13" class="edge"><title>Node4&#45;&gt;Node9</title>
<path fill="none" stroke="midnightblue" d="M237.036,-224.444C263.616,-215.359 305.809,-200.939 335.523,-190.783"/>
<polygon fill="midnightblue" stroke="midnightblue" points="336.751,-194.062 345.082,-187.516 334.487,-187.439 336.751,-194.062"/>
</g>
<!-- Node10 -->
<g id="node11" class="node"><title>Node10</title>
<polygon fill="white" stroke="#bfbfbf" points="66.5,-168.5 66.5,-187.5 171.5,-187.5 171.5,-168.5 66.5,-168.5"/>
<text text-anchor="middle" x="119" y="-175.5" font-family="Helvetica,sans-Serif" font-size="10.00">QFileSystemModel</text>
</g>
<!-- Node4&#45;&gt;Node10 -->
<g id="edge14" class="edge"><title>Node4&#45;&gt;Node10</title>
<path fill="none" stroke="midnightblue" d="M197.058,-224.324C182.415,-215.822 159.866,-202.729 142.762,-192.797"/>
<polygon fill="midnightblue" stroke="midnightblue" points="144.31,-189.649 133.905,-187.655 140.795,-195.703 144.31,-189.649"/>
</g>
<!-- Node11 -->
<g id="node12" class="node"><title>Node11</title>
<polygon fill="white" stroke="#bfbfbf" points="228,-168.5 228,-187.5 314,-187.5 314,-168.5 228,-168.5"/>
<text text-anchor="middle" x="271" y="-175.5" font-family="Helvetica,sans-Serif" font-size="10.00">QMessageBox</text>
</g>
<!-- Node4&#45;&gt;Node11 -->
<g id="edge15" class="edge"><title>Node4&#45;&gt;Node11</title>
<path fill="none" stroke="midnightblue" d="M221.479,-224.324C230.201,-216.341 243.343,-204.313 253.898,-194.653"/>
<polygon fill="midnightblue" stroke="midnightblue" points="256.334,-197.167 261.348,-187.834 251.608,-192.004 256.334,-197.167"/>
</g>
<!-- Node5&#45;&gt;Node1 -->
<g id="edge7" class="edge"><title>Node5&#45;&gt;Node1</title>
<path fill="none" stroke="midnightblue" d="M548.396,-112.324C538.544,-104.263 523.649,-92.0765 511.785,-82.3695"/>
<polygon fill="midnightblue" stroke="midnightblue" points="513.753,-79.4575 503.797,-75.8339 509.32,-84.8752 513.753,-79.4575"/>
</g>
<!-- Node6 -->
<g id="node7" class="node"><title>Node6</title>
<polygon fill="white" stroke="#bfbfbf" points="647,-56.5 647,-75.5 713,-75.5 713,-56.5 647,-56.5"/>
<text text-anchor="middle" x="680" y="-63.5" font-family="Helvetica,sans-Serif" font-size="10.00">QtWidgets</text>
</g>
<!-- Node5&#45;&gt;Node6 -->
<g id="edge6" class="edge"><title>Node5&#45;&gt;Node6</title>
<path fill="none" stroke="midnightblue" d="M578.173,-112.444C597.909,-103.636 628.885,-89.8116 651.493,-79.722"/>
<polygon fill="midnightblue" stroke="midnightblue" points="653.211,-82.788 660.917,-75.5164 650.359,-76.3957 653.211,-82.788"/>
</g>
<!-- Node7 -->
<g id="node8" class="node"><title>Node7</title>
<g id="a_node8"><a xlink:href="tags_8h.html" target="_top" xlink:title="tags.h">
<polygon fill="white" stroke="black" points="538.5,-56.5 538.5,-75.5 583.5,-75.5 583.5,-56.5 538.5,-56.5"/>
<text text-anchor="middle" x="561" y="-63.5" font-family="Helvetica,sans-Serif" font-size="10.00">tags.h</text>
</a>
</g>
</g>
<!-- Node5&#45;&gt;Node7 -->
<g id="edge8" class="edge"><title>Node5&#45;&gt;Node7</title>
<path fill="none" stroke="midnightblue" d="M559.33,-112.083C559.592,-105.006 559.968,-94.8611 560.297,-85.9865"/>
<polygon fill="midnightblue" stroke="midnightblue" points="563.803,-85.8738 560.676,-75.7511 556.808,-85.6147 563.803,-85.8738"/>
</g>
<!-- Node8&#45;&gt;Node5 -->
<g id="edge12" class="edge"><title>Node8&#45;&gt;Node5</title>
<path fill="none" stroke="midnightblue" d="M647.13,-168.324C630.291,-159.664 604.193,-146.242 584.762,-136.249"/>
<polygon fill="midnightblue" stroke="midnightblue" points="586.322,-133.116 575.828,-131.655 583.12,-139.341 586.322,-133.116"/>
</g>
<!-- Node8&#45;&gt;Node6 -->
<g id="edge11" class="edge"><title>Node8&#45;&gt;Node6</title>
<path fill="none" stroke="midnightblue" d="M665.255,-168.368C667.838,-150.617 673.794,-109.666 677.295,-85.5974"/>
<polygon fill="midnightblue" stroke="midnightblue" points="680.774,-85.9911 678.75,-75.5914 673.847,-84.9835 680.774,-85.9911"/>
</g>
<!-- Node12&#45;&gt;Node5 -->
<g id="edge19" class="edge"><title>Node12&#45;&gt;Node5</title>
<path fill="none" stroke="midnightblue" d="M899.352,-224.46C833.611,-204.862 671.872,-156.647 597.522,-134.483"/>
<polygon fill="midnightblue" stroke="midnightblue" points="598.213,-131.037 587.63,-131.535 596.213,-137.746 598.213,-131.037"/>
</g>
<!-- Node12&#45;&gt;Node6 -->
<g id="edge18" class="edge"><title>Node12&#45;&gt;Node6</title>
<path fill="none" stroke="midnightblue" d="M915.016,-224.309C874.671,-197.304 751.213,-114.667 701.286,-81.2479"/>
<polygon fill="midnightblue" stroke="midnightblue" points="703.113,-78.2591 692.856,-75.6051 699.219,-84.0762 703.113,-78.2591"/>
</g>
<!-- Node12&#45;&gt;Node8 -->
<g id="edge20" class="edge"><title>Node12&#45;&gt;Node8</title>
<path fill="none" stroke="midnightblue" d="M895.364,-226.324C844.9,-216.002 748.446,-196.273 697.477,-185.848"/>
<polygon fill="midnightblue" stroke="midnightblue" points="698.119,-182.406 687.62,-183.831 696.716,-189.264 698.119,-182.406"/>
</g>
<!-- Node13&#45;&gt;Node0 -->
<g id="edge41" class="edge"><title>Node13&#45;&gt;Node0</title>
<path fill="none" stroke="midnightblue" d="M612.131,-355.751C613.657,-362.858 614.104,-373.136 613.472,-382.101"/>
<polygon fill="midnightblue" stroke="midnightblue" points="609.993,-381.713 612.166,-392.083 616.934,-382.622 609.993,-381.713"/>
</g>
<!-- Node13&#45;&gt;Node12 -->
<g id="edge35" class="edge"><title>Node13&#45;&gt;Node12</title>
<path fill="none" stroke="midnightblue" d="M639.79,-343.74C730.527,-339.919 979.859,-327.033 1004,-300 1022.18,-279.64 989.364,-259.771 961.332,-247.469"/>
<polygon fill="midnightblue" stroke="midnightblue" points="962.665,-244.233 952.089,-243.598 959.961,-250.69 962.665,-244.233"/>
</g>
<!-- Node14 -->
<g id="node15" class="node"><title>Node14</title>
<polygon fill="white" stroke="#bfbfbf" points="529,-280.5 529,-299.5 615,-299.5 615,-280.5 529,-280.5"/>
<text text-anchor="middle" x="572" y="-287.5" font-family="Helvetica,sans-Serif" font-size="10.00">QMainWindow</text>
</g>
<!-- Node13&#45;&gt;Node14 -->
<g id="edge23" class="edge"><title>Node13&#45;&gt;Node14</title>
<path fill="none" stroke="midnightblue" d="M601.22,-336.083C596.328,-328.534 589.173,-317.495 583.167,-308.23"/>
<polygon fill="midnightblue" stroke="midnightblue" points="586.048,-306.239 577.672,-299.751 580.174,-310.046 586.048,-306.239"/>
</g>
<!-- Node15 -->
<g id="node16" class="node"><title>Node15</title>
<polygon fill="white" stroke="#bfbfbf" points="537.5,-224.5 537.5,-243.5 592.5,-243.5 592.5,-224.5 537.5,-224.5"/>
<text text-anchor="middle" x="565" y="-231.5" font-family="Helvetica,sans-Serif" font-size="10.00">QDialog</text>
</g>
<!-- Node13&#45;&gt;Node15 -->
<g id="edge24" class="edge"><title>Node13&#45;&gt;Node15</title>
<path fill="none" stroke="midnightblue" d="M613.068,-336.19C621.125,-323.308 633.314,-298.817 624,-280 617.397,-266.659 604.735,-256.194 592.829,-248.726"/>
<polygon fill="midnightblue" stroke="midnightblue" points="594.391,-245.587 583.984,-243.602 590.882,-251.643 594.391,-245.587"/>
</g>
<!-- Node16 -->
<g id="node17" class="node"><title>Node16</title>
<polygon fill="white" stroke="#bfbfbf" points="763.5,-280.5 763.5,-299.5 826.5,-299.5 826.5,-280.5 763.5,-280.5"/>
<text text-anchor="middle" x="795" y="-287.5" font-family="Helvetica,sans-Serif" font-size="10.00">QProcess</text>
</g>
<!-- Node13&#45;&gt;Node16 -->
<g id="edge25" class="edge"><title>Node13&#45;&gt;Node16</title>
<path fill="none" stroke="midnightblue" d="M636.789,-336.444C668.829,-327.241 719.933,-312.562 755.353,-302.388"/>
<polygon fill="midnightblue" stroke="midnightblue" points="756.705,-305.641 765.35,-299.516 754.773,-298.913 756.705,-305.641"/>
</g>
<!-- Node17 -->
<g id="node18" class="node"><title>Node17</title>
<polygon fill="white" stroke="#bfbfbf" points="845,-280.5 845,-299.5 917,-299.5 917,-280.5 845,-280.5"/>
<text text-anchor="middle" x="881" y="-287.5" font-family="Helvetica,sans-Serif" font-size="10.00">QDomNode</text>
</g>
<!-- Node13&#45;&gt;Node17 -->
<g id="edge26" class="edge"><title>Node13&#45;&gt;Node17</title>
<path fill="none" stroke="midnightblue" d="M639.507,-338.593C687.95,-329.046 779.307,-311.042 834.713,-300.122"/>
<polygon fill="midnightblue" stroke="midnightblue" points="835.487,-303.537 844.622,-298.169 834.133,-296.669 835.487,-303.537"/>
</g>
<!-- Node18 -->
<g id="node19" class="node"><title>Node18</title>
<polygon fill="white" stroke="#bfbfbf" points="278.5,-280.5 278.5,-299.5 319.5,-299.5 319.5,-280.5 278.5,-280.5"/>
<text text-anchor="middle" x="299" y="-287.5" font-family="Helvetica,sans-Serif" font-size="10.00">QFile</text>
</g>
<!-- Node13&#45;&gt;Node18 -->
<g id="edge27" class="edge"><title>Node13&#45;&gt;Node18</title>
<path fill="none" stroke="midnightblue" d="M574.49,-341.268C523.934,-335.139 423.314,-321.638 329.72,-300.155"/>
<polygon fill="midnightblue" stroke="midnightblue" points="330.346,-296.707 319.812,-297.844 328.756,-303.524 330.346,-296.707"/>
</g>
<!-- Node19 -->
<g id="node20" class="node"><title>Node19</title>
<polygon fill="white" stroke="#bfbfbf" points="337.5,-280.5 337.5,-299.5 382.5,-299.5 382.5,-280.5 337.5,-280.5"/>
<text text-anchor="middle" x="360" y="-287.5" font-family="Helvetica,sans-Serif" font-size="10.00">QtXml</text>
</g>
<!-- Node13&#45;&gt;Node19 -->
<g id="edge28" class="edge"><title>Node13&#45;&gt;Node19</title>
<path fill="none" stroke="midnightblue" d="M574.201,-338.263C532.824,-329.697 459.518,-314.299 397,-300 395.55,-299.668 394.069,-299.325 392.574,-298.976"/>
<polygon fill="midnightblue" stroke="midnightblue" points="393.214,-295.53 382.675,-296.62 391.593,-302.34 393.214,-295.53"/>
</g>
<!-- Node20 -->
<g id="node21" class="node"><title>Node20</title>
<g id="a_node21"><a xlink:href="options_8h.html" target="_top" xlink:title="Code des classes du dialogue d&#39;options. ">
<polygon fill="white" stroke="black" points="935.5,-280.5 935.5,-299.5 994.5,-299.5 994.5,-280.5 935.5,-280.5"/>
<text text-anchor="middle" x="965" y="-287.5" font-family="Helvetica,sans-Serif" font-size="10.00">options.h</text>
</a>
</g>
</g>
<!-- Node13&#45;&gt;Node20 -->
<g id="edge29" class="edge"><title>Node13&#45;&gt;Node20</title>
<path fill="none" stroke="midnightblue" d="M639.757,-341.329C696.025,-334.819 814.837,-320.177 925.271,-299.989"/>
<polygon fill="midnightblue" stroke="midnightblue" points="926.047,-303.405 935.245,-298.146 924.776,-296.521 926.047,-303.405"/>
</g>
<!-- Node22 -->
<g id="node23" class="node"><title>Node22</title>
<g id="a_node23"><a xlink:href="highlighter_8h.html" target="_top" xlink:title="Code de l&#39;utilitaire de colorisation du code XML du projet .alt. ">
<polygon fill="white" stroke="black" points="671,-280.5 671,-299.5 745,-299.5 745,-280.5 671,-280.5"/>
<text text-anchor="middle" x="708" y="-287.5" font-family="Helvetica,sans-Serif" font-size="10.00">highlighter.h</text>
</a>
</g>
</g>
<!-- Node13&#45;&gt;Node22 -->
<g id="edge36" class="edge"><title>Node13&#45;&gt;Node22</title>
<path fill="none" stroke="midnightblue" d="M623.227,-336.324C639.351,-327.703 664.3,-314.364 682.964,-304.386"/>
<polygon fill="midnightblue" stroke="midnightblue" points="684.644,-307.456 691.813,-299.655 681.344,-301.283 684.644,-307.456"/>
</g>
<!-- Node25 -->
<g id="node26" class="node"><title>Node25</title>
<g id="a_node26"><a xlink:href="gui__enums_8h.html" target="_top" xlink:title="Code de constantes et de classes regroupant des constantes. ">
<polygon fill="white" stroke="black" points="405.5,-224.5 405.5,-243.5 480.5,-243.5 480.5,-224.5 405.5,-224.5"/>
<text text-anchor="middle" x="443" y="-231.5" font-family="Helvetica,sans-Serif" font-size="10.00">gui_enums.h</text>
</a>
</g>
</g>
<!-- Node13&#45;&gt;Node25 -->
<g id="edge39" class="edge"><title>Node13&#45;&gt;Node25</title>
<path fill="none" stroke="midnightblue" d="M574.478,-341.461C528.354,-335.696 447.565,-322.59 430,-300 419.541,-286.549 425.529,-266.914 432.437,-252.748"/>
<polygon fill="midnightblue" stroke="midnightblue" points="435.725,-254.026 437.409,-243.566 429.57,-250.693 435.725,-254.026"/>
</g>
<!-- Node27 -->
<g id="node28" class="node"><title>Node27</title>
<g id="a_node28"><a xlink:href="matricules_8h.html" target="_top" xlink:title="Code de la classe MatriculeInput, qui construit un dialogue d&#39;extraction des bulletins. ">
<polygon fill="white" stroke="black" points="439,-280.5 439,-299.5 511,-299.5 511,-280.5 439,-280.5"/>
<text text-anchor="middle" x="475" y="-287.5" font-family="Helvetica,sans-Serif" font-size="10.00">matricules.h</text>
</a>
</g>
</g>
<!-- Node13&#45;&gt;Node27 -->
<g id="edge42" class="edge"><title>Node13&#45;&gt;Node27</title>
<path fill="none" stroke="midnightblue" d="M586.084,-336.444C564.264,-327.517 529.85,-313.439 505.108,-303.317"/>
<polygon fill="midnightblue" stroke="midnightblue" points="506.399,-300.063 495.818,-299.516 503.748,-306.542 506.399,-300.063"/>
</g>
<!-- Node20&#45;&gt;Node12 -->
<g id="edge34" class="edge"><title>Node20&#45;&gt;Node12</title>
<path fill="none" stroke="midnightblue" d="M958.89,-280.083C953.718,-272.534 946.154,-261.495 939.806,-252.23"/>
<polygon fill="midnightblue" stroke="midnightblue" points="942.536,-250.022 933.996,-243.751 936.761,-253.979 942.536,-250.022"/>
</g>
<!-- Node21 -->
<g id="node22" class="node"><title>Node21</title>
<g id="a_node22"><a xlink:href="flineframe_8h.html" target="_top" xlink:title="Ce fichier contient la classe FLineFrame, dérivée fonctionnelle de FLineEdit. ">
<polygon fill="white" stroke="black" points="529.5,-168.5 529.5,-187.5 600.5,-187.5 600.5,-168.5 529.5,-168.5"/>
<text text-anchor="middle" x="565" y="-175.5" font-family="Helvetica,sans-Serif" font-size="10.00">flineframe.h</text>
</a>
</g>
</g>
<!-- Node20&#45;&gt;Node21 -->
<g id="edge30" class="edge"><title>Node20&#45;&gt;Node21</title>
<path fill="none" stroke="midnightblue" d="M949.618,-280.268C919.106,-262.973 853.381,-225.858 848,-224 825.992,-216.403 684.85,-195.855 610.571,-185.358"/>
<polygon fill="midnightblue" stroke="midnightblue" points="610.943,-181.876 600.553,-183.946 609.966,-188.808 610.943,-181.876"/>
</g>
<!-- Node21&#45;&gt;Node1 -->
<g id="edge32" class="edge"><title>Node21&#45;&gt;Node1</title>
<path fill="none" stroke="midnightblue" d="M553.557,-168.481C543.08,-160.172 527.763,-146.671 518,-132 508.381,-117.545 501.687,-98.8525 497.663,-85.226"/>
<polygon fill="midnightblue" stroke="midnightblue" points="501.031,-84.2745 495.003,-75.5615 494.282,-86.1318 501.031,-84.2745"/>
</g>
<!-- Node21&#45;&gt;Node3 -->
<g id="edge33" class="edge"><title>Node21&#45;&gt;Node3</title>
<path fill="none" stroke="midnightblue" d="M574.042,-168.252C582.213,-159.781 593.868,-146.17 600,-132 614.726,-97.9683 618.206,-54.155 618.928,-29.6773"/>
<polygon fill="midnightblue" stroke="midnightblue" points="622.429,-29.6756 619.098,-19.6181 615.43,-29.5578 622.429,-29.6756"/>
</g>
<!-- Node21&#45;&gt;Node5 -->
<g id="edge31" class="edge"><title>Node21&#45;&gt;Node5</title>
<path fill="none" stroke="midnightblue" d="M564.009,-168.083C563.214,-160.927 562.071,-150.635 561.077,-141.691"/>
<polygon fill="midnightblue" stroke="midnightblue" points="564.555,-141.303 559.972,-131.751 557.598,-142.076 564.555,-141.303"/>
</g>
<!-- Node23 -->
<g id="node24" class="node"><title>Node23</title>
<polygon fill="white" stroke="#bfbfbf" points="731,-224.5 731,-243.5 839,-243.5 839,-224.5 731,-224.5"/>
<text text-anchor="middle" x="785" y="-231.5" font-family="Helvetica,sans-Serif" font-size="10.00">QSyntaxHighlighter</text>
</g>
<!-- Node22&#45;&gt;Node23 -->
<g id="edge37" class="edge"><title>Node22&#45;&gt;Node23</title>
<path fill="none" stroke="midnightblue" d="M720.371,-280.324C732.158,-272.058 750.132,-259.453 764.136,-249.632"/>
<polygon fill="midnightblue" stroke="midnightblue" points="766.482,-252.262 772.659,-243.655 762.462,-246.531 766.482,-252.262"/>
</g>
<!-- Node24 -->
<g id="node25" class="node"><title>Node24</title>
<polygon fill="white" stroke="#bfbfbf" points="611,-224.5 611,-243.5 713,-243.5 713,-224.5 611,-224.5"/>
<text text-anchor="middle" x="662" y="-231.5" font-family="Helvetica,sans-Serif" font-size="10.00">QTextCharFormat</text>
</g>
<!-- Node22&#45;&gt;Node24 -->
<g id="edge38" class="edge"><title>Node22&#45;&gt;Node24</title>
<path fill="none" stroke="midnightblue" d="M700.404,-280.083C693.773,-272.298 683.979,-260.801 675.942,-251.367"/>
<polygon fill="midnightblue" stroke="midnightblue" points="678.604,-249.094 669.455,-243.751 673.275,-253.633 678.604,-249.094"/>
</g>
<!-- Node26 -->
<g id="node27" class="node"><title>Node26</title>
<polygon fill="white" stroke="#bfbfbf" points="464.5,-168.5 464.5,-187.5 511.5,-187.5 511.5,-168.5 464.5,-168.5"/>
<text text-anchor="middle" x="488" y="-175.5" font-family="Helvetica,sans-Serif" font-size="10.00">cstdint</text>
</g>
<!-- Node25&#45;&gt;Node26 -->
<g id="edge40" class="edge"><title>Node25&#45;&gt;Node26</title>
<path fill="none" stroke="midnightblue" d="M450.431,-224.083C456.853,-216.377 466.306,-205.033 474.122,-195.653"/>
<polygon fill="midnightblue" stroke="midnightblue" points="476.994,-197.674 480.707,-187.751 471.617,-193.193 476.994,-197.674"/>
</g>
<!-- Node27&#45;&gt;Node12 -->
<g id="edge44" class="edge"><title>Node27&#45;&gt;Node12</title>
<path fill="none" stroke="midnightblue" d="M511.3,-281.455C514.238,-280.931 517.165,-280.438 520,-280 664.932,-257.598 702.244,-260.198 848,-244 860.033,-242.663 873.083,-241.2 885.083,-239.85"/>
<polygon fill="midnightblue" stroke="midnightblue" points="885.762,-243.296 895.307,-238.698 884.978,-236.34 885.762,-243.296"/>
</g>
<!-- Node27&#45;&gt;Node15 -->
<g id="edge43" class="edge"><title>Node27&#45;&gt;Node15</title>
<path fill="none" stroke="midnightblue" d="M489.46,-280.324C503.5,-271.9 525.048,-258.971 541.543,-249.074"/>
<polygon fill="midnightblue" stroke="midnightblue" points="543.802,-251.801 550.576,-243.655 540.2,-245.798 543.802,-251.801"/>
</g>
<!-- Node27&#45;&gt;Node21 -->
<g id="edge45" class="edge"><title>Node27&#45;&gt;Node21</title>
<path fill="none" stroke="midnightblue" d="M482.19,-280.159C492.371,-267.645 511.58,-244.053 528,-224 535.785,-214.492 544.515,-203.873 551.539,-195.339"/>
<polygon fill="midnightblue" stroke="midnightblue" points="554.242,-197.563 557.896,-187.618 548.838,-193.113 554.242,-197.563"/>
</g>
<!-- Node27&#45;&gt;Node25 -->
<g id="edge46" class="edge"><title>Node27&#45;&gt;Node25</title>
<path fill="none" stroke="midnightblue" d="M469.716,-280.083C465.289,-272.613 458.837,-261.724 453.382,-252.52"/>
<polygon fill="midnightblue" stroke="midnightblue" points="456.295,-250.57 448.186,-243.751 450.273,-254.138 456.295,-250.57"/>
</g>
</g>
</svg>
        <g id="navigator" transform="translate(0 0)" fill="#404254">
                <rect fill="#f2f5e9" fill-opacity="0.5" stroke="#606060" stroke-width=".5" x="0" y="0" width="60" height="60"/>
                <use id="zoomplus" xlink:href="#zoomPlus" x="17" y="9" onmousedown="handleZoom(evt,'in')"/>
                <use id="zoomminus" xlink:href="#zoomMin" x="42" y="9" onmousedown="handleZoom(evt,'out')"/>
                <use id="reset" xlink:href="#resetDef" x="30" y="36" onmousedown="handleReset()"/>
                <g id="arrowUp" xlink:href="#dirArrow" transform="translate(30 24)" onmousedown="handlePan(0,-1)">
                  <use xlink:href="#rim" fill="#404040">
                        <set attributeName="fill" to="#808080" begin="arrowUp.mouseover" end="arrowUp.mouseout"/>
                  </use>
                  <path fill="none" stroke="white" stroke-width="1.5" d="M0,-3.0v7 M-2.5,-0.5L0,-3.0L2.5,-0.5"/>
                </g>
                <g id="arrowRight" xlink:href="#dirArrow" transform="rotate(90) translate(36 -43)" onmousedown="handlePan(1,0)">
                  <use xlink:href="#rim" fill="#404040">
                        <set attributeName="fill" to="#808080" begin="arrowRight.mouseover" end="arrowRight.mouseout"/>
                  </use>
                  <path fill="none" stroke="white" stroke-width="1.5" d="M0,-3.0v7 M-2.5,-0.5L0,-3.0L2.5,-0.5"/>
                </g>
                <g id="arrowDown" xlink:href="#dirArrow" transform="rotate(180) translate(-30 -48)" onmousedown="handlePan(0,1)">
                  <use xlink:href="#rim" fill="#404040">
                        <set attributeName="fill" to="#808080" begin="arrowDown.mouseover" end="arrowDown.mouseout"/>
                  </use>
                  <path fill="none" stroke="white" stroke-width="1.5" d="M0,-3.0v7 M-2.5,-0.5L0,-3.0L2.5,-0.5"/>
                </g>
                <g id="arrowLeft" xlink:href="#dirArrow" transform="rotate(270) translate(-36 17)" onmousedown="handlePan(-1,0)">
                  <use xlink:href="#rim" fill="#404040">
                        <set attributeName="fill" to="#808080" begin="arrowLeft.mouseover" end="arrowLeft.mouseout"/>
                  </use>
                  <path fill="none" stroke="white" stroke-width="1.5" d="M0,-3.0v7 M-2.5,-0.5L0,-3.0L2.5,-0.5"/>
                </g>
        </g>
        <svg viewBox="0 0 15 15" width="100%" height="30px" preserveAspectRatio="xMaxYMin meet">
         <g id="arrow_out" transform="scale(0.3 0.3)">
          <a xlink:href="altair_8h__incl_org.svg" target="_base">
           <rect id="button" ry="5" rx="5" y="6" x="6" height="38" width="38"
                fill="#f2f5e9" fill-opacity="0.5" stroke="#606060" stroke-width="1.0"/>
           <path id="arrow"
             d="M 11.500037,31.436501 C 11.940474,20.09759 22.043105,11.32322 32.158766,21.979434 L 37.068811,17.246167 C 37.068811,17.246167 37.088388,32 37.088388,32 L 22.160133,31.978069 C 22.160133,31.978069 26.997745,27.140456 26.997745,27.140456 C 18.528582,18.264221 13.291696,25.230495 11.500037,31.436501 z"
             style="fill:#404040;"/>
          </a>
         </g>
        </svg>
</svg>
