<?xml version="1.0" encoding="UTF-8" standalone="no"?>
<!DOCTYPE svg PUBLIC "-//W3C//DTD SVG 1.1//EN"
 "http://www.w3.org/Graphics/SVG/1.1/DTD/svg11.dtd">
<!-- Generated by graphviz version 2.38.0 (20140413.2041)
 -->
<!-- Title: Interface/gui/altair&#45;gui.h Pages: 1 -->
<!--zoomable 207 -->
<svg id="main" version="1.1" xmlns="http://www.w3.org/2000/svg" xmlns:xlink="http://www.w3.org/1999/xlink" xml:space="preserve" onload="init(evt)">
<style type="text/css"><![CDATA[
.edge:hover path { stroke: red; }
.edge:hover polygon { stroke: red; fill: red; }
]]></style>
<script type="text/javascript"><![CDATA[
var edges = document.getElementsByTagName('g');
if (edges && edges.length) {
  for (var i=0;i<edges.length;i++) {
    if (edges[i].id.substr(0,4)=='edge') {
      edges[i].setAttribute('class','edge');
    }
  }
}
]]></script>
        <defs>
                <circle id="rim" cx="0" cy="0" r="7"/>
                <circle id="rim2" cx="0" cy="0" r="3.5"/>
                <g id="zoomPlus">
                        <use xlink:href="#rim" fill="#404040">
                                <set attributeName="fill" to="#808080" begin="zoomplus.mouseover" end="zoomplus.mouseout"/>
                        </use>
                        <path d="M-4,0h8M0,-4v8" fill="none" stroke="white" stroke-width="1.5" pointer-events="none"/>
                </g>
                <g id="zoomMin">
                        <use xlink:href="#rim" fill="#404040">
                                <set attributeName="fill" to="#808080" begin="zoomminus.mouseover" end="zoomminus.mouseout"/>
                        </use>
                        <path d="M-4,0h8" fill="none" stroke="white" stroke-width="1.5" pointer-events="none"/>
                </g>
                <g id="dirArrow">
                        <path fill="none" stroke="white" stroke-width="1.5" d="M0,-3.0v7 M-2.5,-0.5L0,-3.0L2.5,-0.5"/>
                </g>
               <g id="resetDef">
                       <use xlink:href="#rim2" fill="#404040">
                               <set attributeName="fill" to="#808080" begin="reset.mouseover" end="reset.mouseout"/>
                       </use>
               </g>
        </defs>

<script type="text/javascript">
var viewWidth = 1111;
var viewHeight = 207;
var sectionId = 'dynsection-0';
</script>
<script xlink:href="svgpan.js"/>
<svg id="graph" class="graph">
<g id="viewport">
<title>Interface/gui/altair&#45;gui.h</title>
<polygon fill="white" stroke="none" points="-4,4 -4,-203 1107,-203 1107,4 -4,4"/>
<!-- Node0 -->
<g id="node1" class="node"><title>Node0</title>
<polygon fill="#bfbfbf" stroke="black" points="382.5,-168.5 382.5,-198.5 477.5,-198.5 477.5,-168.5 382.5,-168.5"/>
<text text-anchor="start" x="390.5" y="-186.5" font-family="Helvetica,sans-Serif" font-size="10.00">Interface/gui/altair</text>
<text text-anchor="middle" x="430" y="-175.5" font-family="Helvetica,sans-Serif" font-size="10.00">&#45;gui.h</text>
</g>
<!-- Node1 -->
<g id="node2" class="node"><title>Node1</title>
<polygon fill="white" stroke="#bfbfbf" points="0,-112.5 0,-131.5 80,-131.5 80,-112.5 0,-112.5"/>
<text text-anchor="middle" x="40" y="-119.5" font-family="Helvetica,sans-Serif" font-size="10.00">QMainWindow</text>
</g>
<!-- Node0&#45;&gt;Node1 -->
<g id="edge1" class="edge"><title>Node0&#45;&gt;Node1</title>
<path fill="none" stroke="midnightblue" d="M382.389,-175.589C317.242,-166.076 196.686,-148.273 94,-132 92.7327,-131.799 91.449,-131.594 90.1539,-131.387"/>
<polygon fill="midnightblue" stroke="midnightblue" points="90.5243,-127.901 80.0929,-129.755 89.4036,-134.811 90.5243,-127.901"/>
</g>
<!-- Node2 -->
<g id="node3" class="node"><title>Node2</title>
<polygon fill="white" stroke="#bfbfbf" points="190,-56.5 190,-75.5 242,-75.5 242,-56.5 190,-56.5"/>
<text text-anchor="middle" x="216" y="-63.5" font-family="Helvetica,sans-Serif" font-size="10.00">QDialog</text>
</g>
<!-- Node0&#45;&gt;Node2 -->
<g id="edge2" class="edge"><title>Node0&#45;&gt;Node2</title>
<path fill="none" stroke="midnightblue" d="M382.236,-181.745C305.266,-179.405 159.144,-169.945 127,-132 107.106,-108.516 147.353,-88.8804 180.016,-77.5293"/>
<polygon fill="midnightblue" stroke="midnightblue" points="181.442,-80.7441 189.834,-74.2774 179.241,-74.0991 181.442,-80.7441"/>
</g>
<!-- Node3 -->
<g id="node4" class="node"><title>Node3</title>
<polygon fill="white" stroke="#bfbfbf" points="136,-112.5 136,-131.5 196,-131.5 196,-112.5 136,-112.5"/>
<text text-anchor="middle" x="166" y="-119.5" font-family="Helvetica,sans-Serif" font-size="10.00">QProcess</text>
</g>
<!-- Node0&#45;&gt;Node3 -->
<g id="edge3" class="edge"><title>Node0&#45;&gt;Node3</title>
<path fill="none" stroke="midnightblue" d="M382.139,-171.845C338.712,-162.158 272.644,-147.371 206.055,-132.231"/>
<polygon fill="midnightblue" stroke="midnightblue" points="206.757,-128.801 196.23,-129.995 205.204,-135.627 206.757,-128.801"/>
</g>
<!-- Node4 -->
<g id="node5" class="node"><title>Node4</title>
<polygon fill="white" stroke="#bfbfbf" points="214,-112.5 214,-131.5 282,-131.5 282,-112.5 214,-112.5"/>
<text text-anchor="middle" x="248" y="-119.5" font-family="Helvetica,sans-Serif" font-size="10.00">QDomNode</text>
</g>
<!-- Node0&#45;&gt;Node4 -->
<g id="edge4" class="edge"><title>Node0&#45;&gt;Node4</title>
<path fill="none" stroke="midnightblue" d="M386.869,-168.399C355.42,-158.118 313.308,-144.351 283.733,-134.682"/>
<polygon fill="midnightblue" stroke="midnightblue" points="284.81,-131.352 274.217,-131.571 282.634,-138.005 284.81,-131.352"/>
</g>
<!-- Node5 -->
<g id="node6" class="node"><title>Node5</title>
<polygon fill="white" stroke="#bfbfbf" points="300,-112.5 300,-131.5 340,-131.5 340,-112.5 300,-112.5"/>
<text text-anchor="middle" x="320" y="-119.5" font-family="Helvetica,sans-Serif" font-size="10.00">QFile</text>
</g>
<!-- Node0&#45;&gt;Node5 -->
<g id="edge5" class="edge"><title>Node0&#45;&gt;Node5</title>
<path fill="none" stroke="midnightblue" d="M403.932,-168.399C386.135,-158.773 362.688,-146.09 345.101,-136.577"/>
<polygon fill="midnightblue" stroke="midnightblue" points="346.467,-133.337 336.006,-131.658 343.136,-139.494 346.467,-133.337"/>
</g>
<!-- Node6 -->
<g id="node7" class="node"><title>Node6</title>
<polygon fill="white" stroke="#bfbfbf" points="358,-112.5 358,-131.5 402,-131.5 402,-112.5 358,-112.5"/>
<text text-anchor="middle" x="380" y="-119.5" font-family="Helvetica,sans-Serif" font-size="10.00">QtXml</text>
</g>
<!-- Node0&#45;&gt;Node6 -->
<g id="edge6" class="edge"><title>Node0&#45;&gt;Node6</title>
<path fill="none" stroke="midnightblue" d="M418.151,-168.399C410.885,-159.753 401.548,-148.642 393.929,-139.576"/>
<polygon fill="midnightblue" stroke="midnightblue" points="396.388,-137.062 387.275,-131.658 391.029,-141.565 396.388,-137.062"/>
</g>
<!-- Node7 -->
<g id="node8" class="node"><title>Node7</title>
<g id="a_node8"><a xlink:href="options_8h.html" target="_top" xlink:title="Code des classes du dialogue d&#39;options. ">
<polygon fill="white" stroke="black" points="546,-112.5 546,-131.5 602,-131.5 602,-112.5 546,-112.5"/>
<text text-anchor="middle" x="574" y="-119.5" font-family="Helvetica,sans-Serif" font-size="10.00">options.h</text>
</a>
</g>
</g>
<!-- Node0&#45;&gt;Node7 -->
<g id="edge7" class="edge"><title>Node0&#45;&gt;Node7</title>
<path fill="none" stroke="midnightblue" d="M464.126,-168.399C488.287,-158.416 520.402,-145.147 543.667,-135.534"/>
<polygon fill="midnightblue" stroke="midnightblue" points="545.141,-138.711 553.047,-131.658 542.468,-132.242 545.141,-138.711"/>
</g>
<!-- Node9 -->
<g id="node10" class="node"><title>Node9</title>
<g id="a_node10"><a xlink:href="common_8h.html" target="_top" xlink:title="Code de la classe common, qui regroupe des utilitaires communs à l&#39;interface graphique MainWindow...">
<polygon fill="white" stroke="black" points="545,-56.5 545,-75.5 607,-75.5 607,-56.5 545,-56.5"/>
<text text-anchor="middle" x="576" y="-63.5" font-family="Helvetica,sans-Serif" font-size="10.00">common.h</text>
</a>
</g>
</g>
<!-- Node0&#45;&gt;Node9 -->
<g id="edge13" class="edge"><title>Node0&#45;&gt;Node9</title>
<path fill="none" stroke="midnightblue" d="M477.941,-175.733C525.94,-167.86 594.923,-153.177 611,-132 622.77,-116.496 608.256,-96.5108 594.502,-82.8179"/>
<polygon fill="midnightblue" stroke="midnightblue" points="596.812,-80.186 587.111,-75.9265 592.038,-85.3059 596.812,-80.186"/>
</g>
<!-- Node13 -->
<g id="node14" class="node"><title>Node13</title>
<g id="a_node14"><a xlink:href="highlighter_8h.html" target="_top" xlink:title="Code de l&#39;utilitaire de colorisation du code XML du projet .alt. ">
<polygon fill="white" stroke="black" points="658.5,-112.5 658.5,-131.5 727.5,-131.5 727.5,-112.5 658.5,-112.5"/>
<text text-anchor="middle" x="693" y="-119.5" font-family="Helvetica,sans-Serif" font-size="10.00">highlighter.h</text>
</a>
</g>
</g>
<!-- Node0&#45;&gt;Node13 -->
<g id="edge14" class="edge"><title>Node0&#45;&gt;Node13</title>
<path fill="none" stroke="midnightblue" d="M477.627,-171.725C526.171,-160.743 600.885,-143.84 648.331,-133.106"/>
<polygon fill="midnightblue" stroke="midnightblue" points="649.332,-136.468 658.313,-130.847 647.787,-129.64 649.332,-136.468"/>
</g>
<!-- Node16 -->
<g id="node17" class="node"><title>Node16</title>
<g id="a_node17"><a xlink:href="gui__enums_8h.html" target="_top" xlink:title="Code de constantes et de classes regroupant des constantes. ">
<polygon fill="white" stroke="black" points="369,-56.5 369,-75.5 441,-75.5 441,-56.5 369,-56.5"/>
<text text-anchor="middle" x="405" y="-63.5" font-family="Helvetica,sans-Serif" font-size="10.00">gui_enums.h</text>
</a>
</g>
</g>
<!-- Node0&#45;&gt;Node16 -->
<g id="edge17" class="edge"><title>Node0&#45;&gt;Node16</title>
<path fill="none" stroke="midnightblue" d="M426.935,-168.337C422.43,-147.527 414.018,-108.663 409.022,-85.5834"/>
<polygon fill="midnightblue" stroke="midnightblue" points="412.413,-84.7027 406.877,-75.6695 405.571,-86.1836 412.413,-84.7027"/>
</g>
<!-- Node18 -->
<g id="node19" class="node"><title>Node18</title>
<g id="a_node19"><a xlink:href="altair_8h.html" target="_top" xlink:title="Code de la classe principale Altair, qui joue le rôle d&#39;agent de l&#39;interface graphique. ">
<polygon fill="white" stroke="black" points="867,-112.5 867,-131.5 913,-131.5 913,-112.5 867,-112.5"/>
<text text-anchor="middle" x="890" y="-119.5" font-family="Helvetica,sans-Serif" font-size="10.00">altair.h</text>
</a>
</g>
</g>
<!-- Node0&#45;&gt;Node18 -->
<g id="edge19" class="edge"><title>Node0&#45;&gt;Node18</title>
<path fill="none" stroke="midnightblue" d="M477.841,-175.733C571.432,-163.198 776.246,-136.746 856.72,-126.847"/>
<polygon fill="midnightblue" stroke="midnightblue" points="857.285,-130.304 866.786,-125.617 856.435,-123.356 857.285,-130.304"/>
</g>
<!-- Node22 -->
<g id="node23" class="node"><title>Node22</title>
<g id="a_node23"><a xlink:href="matricules_8h.html" target="_top" xlink:title="Code de la classe MatriculeInput, qui construit un dialogue d&#39;extraction des bulletins. ">
<polygon fill="white" stroke="black" points="458,-112.5 458,-131.5 528,-131.5 528,-112.5 458,-112.5"/>
<text text-anchor="middle" x="493" y="-119.5" font-family="Helvetica,sans-Serif" font-size="10.00">matricules.h</text>
</a>
</g>
</g>
<!-- Node0&#45;&gt;Node22 -->
<g id="edge26" class="edge"><title>Node0&#45;&gt;Node22</title>
<path fill="none" stroke="midnightblue" d="M444.93,-168.399C454.368,-159.486 466.58,-147.952 476.333,-138.741"/>
<polygon fill="midnightblue" stroke="midnightblue" points="478.966,-141.069 483.833,-131.658 474.16,-135.979 478.966,-141.069"/>
</g>
<!-- Node8 -->
<g id="node9" class="node"><title>Node8</title>
<polygon fill="white" stroke="#bfbfbf" points="459,-56.5 459,-75.5 527,-75.5 527,-56.5 459,-56.5"/>
<text text-anchor="middle" x="493" y="-63.5" font-family="Helvetica,sans-Serif" font-size="10.00">flineframe.h</text>
</g>
<!-- Node7&#45;&gt;Node8 -->
<g id="edge8" class="edge"><title>Node7&#45;&gt;Node8</title>
<path fill="none" stroke="midnightblue" d="M560.986,-112.324C548.468,-103.979 529.318,-91.2122 514.529,-81.3524"/>
<polygon fill="midnightblue" stroke="midnightblue" points="516.244,-78.2894 505.982,-75.6545 512.361,-84.1137 516.244,-78.2894"/>
</g>
<!-- Node7&#45;&gt;Node9 -->
<g id="edge9" class="edge"><title>Node7&#45;&gt;Node9</title>
<path fill="none" stroke="midnightblue" d="M574.33,-112.083C574.592,-105.006 574.968,-94.8611 575.297,-85.9865"/>
<polygon fill="midnightblue" stroke="midnightblue" points="578.803,-85.8738 575.676,-75.7511 571.808,-85.6147 578.803,-85.8738"/>
</g>
<!-- Node10 -->
<g id="node11" class="node"><title>Node10</title>
<polygon fill="white" stroke="#bfbfbf" points="507.5,-0.5 507.5,-19.5 570.5,-19.5 570.5,-0.5 507.5,-0.5"/>
<text text-anchor="middle" x="539" y="-7.5" font-family="Helvetica,sans-Serif" font-size="10.00">QtWidgets</text>
</g>
<!-- Node9&#45;&gt;Node10 -->
<g id="edge10" class="edge"><title>Node9&#45;&gt;Node10</title>
<path fill="none" stroke="midnightblue" d="M569.89,-56.083C564.718,-48.5341 557.154,-37.4948 550.806,-28.2298"/>
<polygon fill="midnightblue" stroke="midnightblue" points="553.536,-26.0221 544.996,-19.7511 547.761,-29.9787 553.536,-26.0221"/>
</g>
<!-- Node11 -->
<g id="node12" class="node"><title>Node11</title>
<polygon fill="white" stroke="#bfbfbf" points="840,-0.5 840,-19.5 902,-19.5 902,-0.5 840,-0.5"/>
<text text-anchor="middle" x="871" y="-7.5" font-family="Helvetica,sans-Serif" font-size="10.00">fwidgets.h</text>
</g>
<!-- Node9&#45;&gt;Node11 -->
<g id="edge11" class="edge"><title>Node9&#45;&gt;Node11</title>
<path fill="none" stroke="midnightblue" d="M607.413,-57.7866C610.313,-57.1648 613.208,-56.5601 616,-56 691.255,-40.9022 779.556,-25.9265 830.026,-17.6258"/>
<polygon fill="midnightblue" stroke="midnightblue" points="830.6,-21.0786 839.902,-16.0074 829.468,-14.1707 830.6,-21.0786"/>
</g>
<!-- Node12 -->
<g id="node13" class="node"><title>Node12</title>
<polygon fill="white" stroke="#bfbfbf" points="589,-0.5 589,-19.5 635,-19.5 635,-0.5 589,-0.5"/>
<text text-anchor="middle" x="612" y="-7.5" font-family="Helvetica,sans-Serif" font-size="10.00">tools.h</text>
</g>
<!-- Node9&#45;&gt;Node12 -->
<g id="edge12" class="edge"><title>Node9&#45;&gt;Node12</title>
<path fill="none" stroke="midnightblue" d="M581.945,-56.083C586.977,-48.5341 594.337,-37.4948 600.513,-28.2298"/>
<polygon fill="midnightblue" stroke="midnightblue" points="603.531,-30.0131 606.166,-19.7511 597.707,-26.1301 603.531,-30.0131"/>
</g>
<!-- Node14 -->
<g id="node15" class="node"><title>Node14</title>
<polygon fill="white" stroke="#bfbfbf" points="625.5,-56.5 625.5,-75.5 726.5,-75.5 726.5,-56.5 625.5,-56.5"/>
<text text-anchor="middle" x="676" y="-63.5" font-family="Helvetica,sans-Serif" font-size="10.00">QSyntaxHighlighter</text>
</g>
<!-- Node13&#45;&gt;Node14 -->
<g id="edge15" class="edge"><title>Node13&#45;&gt;Node14</title>
<path fill="none" stroke="midnightblue" d="M690.193,-112.083C687.915,-104.849 684.629,-94.4087 681.792,-85.3968"/>
<polygon fill="midnightblue" stroke="midnightblue" points="685.096,-84.2385 678.755,-75.7511 678.419,-86.3406 685.096,-84.2385"/>
</g>
<!-- Node15 -->
<g id="node16" class="node"><title>Node15</title>
<polygon fill="white" stroke="#bfbfbf" points="744.5,-56.5 744.5,-75.5 839.5,-75.5 839.5,-56.5 744.5,-56.5"/>
<text text-anchor="middle" x="792" y="-63.5" font-family="Helvetica,sans-Serif" font-size="10.00">QTextCharFormat</text>
</g>
<!-- Node13&#45;&gt;Node15 -->
<g id="edge16" class="edge"><title>Node13&#45;&gt;Node15</title>
<path fill="none" stroke="midnightblue" d="M708.906,-112.324C724.638,-103.743 748.942,-90.486 767.209,-80.5224"/>
<polygon fill="midnightblue" stroke="midnightblue" points="769.03,-83.5157 776.133,-75.6545 765.678,-77.3704 769.03,-83.5157"/>
</g>
<!-- Node17 -->
<g id="node18" class="node"><title>Node17</title>
<polygon fill="white" stroke="#bfbfbf" points="382,-0.5 382,-19.5 428,-19.5 428,-0.5 382,-0.5"/>
<text text-anchor="middle" x="405" y="-7.5" font-family="Helvetica,sans-Serif" font-size="10.00">cstdint</text>
</g>
<!-- Node16&#45;&gt;Node17 -->
<g id="edge18" class="edge"><title>Node16&#45;&gt;Node17</title>
<path fill="none" stroke="midnightblue" d="M405,-56.083C405,-49.0059 405,-38.8611 405,-29.9865"/>
<polygon fill="midnightblue" stroke="midnightblue" points="408.5,-29.751 405,-19.7511 401.5,-29.7511 408.5,-29.751"/>
</g>
<!-- Node18&#45;&gt;Node0 -->
<g id="edge25" class="edge"><title>Node18&#45;&gt;Node0</title>
<path fill="none" stroke="midnightblue" d="M866.986,-126.411C797.656,-135.909 590.16,-162.798 487.996,-175.583"/>
<polygon fill="midnightblue" stroke="midnightblue" points="487.342,-172.137 477.853,-176.849 488.209,-179.083 487.342,-172.137"/>
</g>
<!-- Node18&#45;&gt;Node9 -->
<g id="edge23" class="edge"><title>Node18&#45;&gt;Node9</title>
<path fill="none" stroke="midnightblue" d="M866.824,-117.662C821.092,-110.976 715.813,-95.0903 617.507,-76.2049"/>
<polygon fill="midnightblue" stroke="midnightblue" points="617.889,-72.714 607.406,-74.2488 616.558,-79.5863 617.889,-72.714"/>
</g>
<!-- Node18&#45;&gt;Node11 -->
<g id="edge22" class="edge"><title>Node18&#45;&gt;Node11</title>
<path fill="none" stroke="midnightblue" d="M913.222,-117.395C953.421,-110.138 1029.36,-91.3585 1004,-56 983.256,-27.0826 942.916,-16.5124 912.077,-12.7679"/>
<polygon fill="midnightblue" stroke="midnightblue" points="912.329,-9.27544 902.026,-11.743 911.619,-16.2393 912.329,-9.27544"/>
</g>
<!-- Node19 -->
<g id="node20" class="node"><title>Node19</title>
<polygon fill="white" stroke="#bfbfbf" points="1051,-56.5 1051,-75.5 1103,-75.5 1103,-56.5 1051,-56.5"/>
<text text-anchor="middle" x="1077" y="-63.5" font-family="Helvetica,sans-Serif" font-size="10.00">fstring.h</text>
</g>
<!-- Node18&#45;&gt;Node19 -->
<g id="edge20" class="edge"><title>Node18&#45;&gt;Node19</title>
<path fill="none" stroke="midnightblue" d="M913.306,-114.27C945.344,-105.018 1003.3,-88.2834 1040.95,-77.4101"/>
<polygon fill="midnightblue" stroke="midnightblue" points="1042.36,-80.6468 1050.99,-74.5098 1040.42,-73.9216 1042.36,-80.6468"/>
</g>
<!-- Node20 -->
<g id="node21" class="node"><title>Node20</title>
<polygon fill="white" stroke="#bfbfbf" points="857.5,-56.5 857.5,-75.5 922.5,-75.5 922.5,-56.5 857.5,-56.5"/>
<text text-anchor="middle" x="890" y="-63.5" font-family="Helvetica,sans-Serif" font-size="10.00">flistframe.h</text>
</g>
<!-- Node18&#45;&gt;Node20 -->
<g id="edge21" class="edge"><title>Node18&#45;&gt;Node20</title>
<path fill="none" stroke="midnightblue" d="M890,-112.083C890,-105.006 890,-94.8611 890,-85.9865"/>
<polygon fill="midnightblue" stroke="midnightblue" points="893.5,-85.751 890,-75.7511 886.5,-85.7511 893.5,-85.751"/>
</g>
<!-- Node21 -->
<g id="node22" class="node"><title>Node21</title>
<polygon fill="white" stroke="#bfbfbf" points="941,-56.5 941,-75.5 995,-75.5 995,-56.5 941,-56.5"/>
<text text-anchor="middle" x="968" y="-63.5" font-family="Helvetica,sans-Serif" font-size="10.00">enums.h</text>
</g>
<!-- Node18&#45;&gt;Node21 -->
<g id="edge24" class="edge"><title>Node18&#45;&gt;Node21</title>
<path fill="none" stroke="midnightblue" d="M902.532,-112.324C914.586,-103.979 933.027,-91.2122 947.269,-81.3524"/>
<polygon fill="midnightblue" stroke="midnightblue" points="949.269,-84.2243 955.499,-75.6545 945.285,-78.469 949.269,-84.2243"/>
</g>
<!-- Node22&#45;&gt;Node2 -->
<g id="edge27" class="edge"><title>Node22&#45;&gt;Node2</title>
<path fill="none" stroke="midnightblue" d="M457.918,-114.161C405.1,-103.864 305.661,-84.479 252.196,-74.0562"/>
<polygon fill="midnightblue" stroke="midnightblue" points="252.628,-70.5747 242.143,-72.0965 251.289,-77.4454 252.628,-70.5747"/>
</g>
<!-- Node22&#45;&gt;Node8 -->
<g id="edge29" class="edge"><title>Node22&#45;&gt;Node8</title>
<path fill="none" stroke="midnightblue" d="M493,-112.083C493,-105.006 493,-94.8611 493,-85.9865"/>
<polygon fill="midnightblue" stroke="midnightblue" points="496.5,-85.751 493,-75.7511 489.5,-85.7511 496.5,-85.751"/>
</g>
<!-- Node22&#45;&gt;Node9 -->
<g id="edge28" class="edge"><title>Node22&#45;&gt;Node9</title>
<path fill="none" stroke="midnightblue" d="M506.335,-112.324C519.162,-103.979 538.785,-91.2122 553.94,-81.3524"/>
<polygon fill="midnightblue" stroke="midnightblue" points="556.224,-84.0417 562.698,-75.6545 552.407,-78.1742 556.224,-84.0417"/>
</g>
<!-- Node22&#45;&gt;Node16 -->
<g id="edge30" class="edge"><title>Node22&#45;&gt;Node16</title>
<path fill="none" stroke="midnightblue" d="M478.861,-112.324C465.134,-103.9 444.064,-90.9709 427.936,-81.0741"/>
<polygon fill="midnightblue" stroke="midnightblue" points="429.457,-77.9016 419.104,-75.6545 425.796,-83.8678 429.457,-77.9016"/>
</g>
</g>
</svg>
        <g id="navigator" transform="translate(0 0)" fill="#404254">
                <rect fill="#f2f5e9" fill-opacity="0.5" stroke="#606060" stroke-width=".5" x="0" y="0" width="60" height="60"/>
                <use id="zoomplus" xlink:href="#zoomPlus" x="17" y="9" onmousedown="handleZoom(evt,'in')"/>
                <use id="zoomminus" xlink:href="#zoomMin" x="42" y="9" onmousedown="handleZoom(evt,'out')"/>
                <use id="reset" xlink:href="#resetDef" x="30" y="36" onmousedown="handleReset()"/>
                <g id="arrowUp" xlink:href="#dirArrow" transform="translate(30 24)" onmousedown="handlePan(0,-1)">
                  <use xlink:href="#rim" fill="#404040">
                        <set attributeName="fill" to="#808080" begin="arrowUp.mouseover" end="arrowUp.mouseout"/>
                  </use>
                  <path fill="none" stroke="white" stroke-width="1.5" d="M0,-3.0v7 M-2.5,-0.5L0,-3.0L2.5,-0.5"/>
                </g>
                <g id="arrowRight" xlink:href="#dirArrow" transform="rotate(90) translate(36 -43)" onmousedown="handlePan(1,0)">
                  <use xlink:href="#rim" fill="#404040">
                        <set attributeName="fill" to="#808080" begin="arrowRight.mouseover" end="arrowRight.mouseout"/>
                  </use>
                  <path fill="none" stroke="white" stroke-width="1.5" d="M0,-3.0v7 M-2.5,-0.5L0,-3.0L2.5,-0.5"/>
                </g>
                <g id="arrowDown" xlink:href="#dirArrow" transform="rotate(180) translate(-30 -48)" onmousedown="handlePan(0,1)">
                  <use xlink:href="#rim" fill="#404040">
                        <set attributeName="fill" to="#808080" begin="arrowDown.mouseover" end="arrowDown.mouseout"/>
                  </use>
                  <path fill="none" stroke="white" stroke-width="1.5" d="M0,-3.0v7 M-2.5,-0.5L0,-3.0L2.5,-0.5"/>
                </g>
                <g id="arrowLeft" xlink:href="#dirArrow" transform="rotate(270) translate(-36 17)" onmousedown="handlePan(-1,0)">
                  <use xlink:href="#rim" fill="#404040">
                        <set attributeName="fill" to="#808080" begin="arrowLeft.mouseover" end="arrowLeft.mouseout"/>
                  </use>
                  <path fill="none" stroke="white" stroke-width="1.5" d="M0,-3.0v7 M-2.5,-0.5L0,-3.0L2.5,-0.5"/>
                </g>
        </g>
        <svg viewBox="0 0 15 15" width="100%" height="30px" preserveAspectRatio="xMaxYMin meet">
         <g id="arrow_out" transform="scale(0.3 0.3)">
          <a xlink:href="altair-gui_8h__incl_org.svg" target="_base">
           <rect id="button" ry="5" rx="5" y="6" x="6" height="38" width="38"
                fill="#f2f5e9" fill-opacity="0.5" stroke="#606060" stroke-width="1.0"/>
           <path id="arrow"
             d="M 11.500037,31.436501 C 11.940474,20.09759 22.043105,11.32322 32.158766,21.979434 L 37.068811,17.246167 C 37.068811,17.246167 37.088388,32 37.088388,32 L 22.160133,31.978069 C 22.160133,31.978069 26.997745,27.140456 26.997745,27.140456 C 18.528582,18.264221 13.291696,25.230495 11.500037,31.436501 z"
             style="fill:#404040;"/>
          </a>
         </g>
        </svg>
</svg>
