<?xml version="1.0" encoding="UTF-8" standalone="no"?>
<!DOCTYPE svg PUBLIC "-//W3C//DTD SVG 1.1//EN"
 "http://www.w3.org/Graphics/SVG/1.1/DTD/svg11.dtd">
<!-- Generated by graphviz version 2.38.0 (20140413.2041)
 -->
<!-- Title: tools::copyDir Pages: 1 -->
<!--zoomable 218 -->
<svg id="main" version="1.1" xmlns="http://www.w3.org/2000/svg" xmlns:xlink="http://www.w3.org/1999/xlink" xml:space="preserve" onload="init(evt)">
<style type="text/css"><![CDATA[
.edge:hover path { stroke: red; }
.edge:hover polygon { stroke: red; fill: red; }
]]></style>
<script type="text/javascript"><![CDATA[
var edges = document.getElementsByTagName('g');
if (edges && edges.length) {
  for (var i=0;i<edges.length;i++) {
    if (edges[i].id.substr(0,4)=='edge') {
      edges[i].setAttribute('class','edge');
    }
  }
}
]]></script>
        <defs>
                <circle id="rim" cx="0" cy="0" r="7"/>
                <circle id="rim2" cx="0" cy="0" r="3.5"/>
                <g id="zoomPlus">
                        <use xlink:href="#rim" fill="#404040">
                                <set attributeName="fill" to="#808080" begin="zoomplus.mouseover" end="zoomplus.mouseout"/>
                        </use>
                        <path d="M-4,0h8M0,-4v8" fill="none" stroke="white" stroke-width="1.5" pointer-events="none"/>
                </g>
                <g id="zoomMin">
                        <use xlink:href="#rim" fill="#404040">
                                <set attributeName="fill" to="#808080" begin="zoomminus.mouseover" end="zoomminus.mouseout"/>
                        </use>
                        <path d="M-4,0h8" fill="none" stroke="white" stroke-width="1.5" pointer-events="none"/>
                </g>
                <g id="dirArrow">
                        <path fill="none" stroke="white" stroke-width="1.5" d="M0,-3.0v7 M-2.5,-0.5L0,-3.0L2.5,-0.5"/>
                </g>
               <g id="resetDef">
                       <use xlink:href="#rim2" fill="#404040">
                               <set attributeName="fill" to="#808080" begin="reset.mouseover" end="reset.mouseout"/>
                       </use>
               </g>
        </defs>

<script type="text/javascript">
var viewWidth = 673;
var viewHeight = 218;
var sectionId = 'dynsection-4';
</script>
<script xlink:href="svgpan.js"/>
<svg id="graph" class="graph">
<g id="viewport">
<title>tools::copyDir</title>
<polygon fill="white" stroke="none" points="-4,4 -4,-214 669,-214 669,4 -4,4"/>
<!-- Node16 -->
<g id="node1" class="node"><title>Node16</title>
<polygon fill="#bfbfbf" stroke="black" points="0,-152.5 0,-171.5 77,-171.5 77,-152.5 0,-152.5"/>
<text text-anchor="middle" x="38.5" y="-159.5" font-family="Helvetica,sans-Serif" font-size="10.00">tools::copyDir</text>
</g>
<!-- Node17 -->
<g id="node2" class="node"><title>Node17</title>
<g id="a_node2"><a xlink:href="class_main_window.html#a0931b2b0fde3d9c2b983d7eded8724a0" target="_top" xlink:title="Enregistrer l&#39;ensemble des données d&#39;output (bases CSV, rapports...) dans un répertoire. ">
<polygon fill="white" stroke="black" points="351,-190.5 351,-209.5 488,-209.5 488,-190.5 351,-190.5"/>
<text text-anchor="middle" x="419.5" y="-197.5" font-family="Helvetica,sans-Serif" font-size="10.00">MainWindow::exportProject</text>
</a>
</g>
</g>
<!-- Node16&#45;&gt;Node17 -->
<g id="edge1" class="edge"><title>Node16&#45;&gt;Node17</title>
<path fill="none" stroke="midnightblue" d="M87.0554,-171.848C95.6635,-173.405 104.579,-174.871 113,-176 194.467,-186.925 288.874,-193.405 350.928,-196.826"/>
<polygon fill="midnightblue" stroke="midnightblue" points="87.6128,-168.391 77.1397,-169.993 86.3256,-175.272 87.6128,-168.391"/>
</g>
<!-- Node18 -->
<g id="node3" class="node"><title>Node18</title>
<g id="a_node3"><a xlink:href="classtools.html#ae1018e45c513785270b999cbcfa8beb6" target="_top" xlink:title="tools::IOControl">
<polygon fill="white" stroke="black" points="113,-114.5 113,-133.5 199,-133.5 199,-114.5 113,-114.5"/>
<text text-anchor="middle" x="156" y="-121.5" font-family="Helvetica,sans-Serif" font-size="10.00">tools::IOControl</text>
</a>
</g>
</g>
<!-- Node16&#45;&gt;Node18 -->
<g id="edge2" class="edge"><title>Node16&#45;&gt;Node18</title>
<path fill="none" stroke="midnightblue" d="M78.4841,-149.174C93.9817,-144.075 111.502,-138.311 125.864,-133.586"/>
<polygon fill="midnightblue" stroke="midnightblue" points="77.0508,-145.961 68.6455,-152.411 79.2385,-152.61 77.0508,-145.961"/>
</g>
<!-- Node19 -->
<g id="node4" class="node"><title>Node19</title>
<g id="a_node4"><a xlink:href="classtools.html#a0765c68c41d7c957f1fb0f0da8b4a9c9" target="_top" xlink:title="tools::copyFile">
<polygon fill="white" stroke="black" points="235,-152.5 235,-171.5 315,-171.5 315,-152.5 235,-152.5"/>
<text text-anchor="middle" x="275" y="-159.5" font-family="Helvetica,sans-Serif" font-size="10.00">tools::copyFile</text>
</a>
</g>
</g>
<!-- Node18&#45;&gt;Node19 -->
<g id="edge3" class="edge"><title>Node18&#45;&gt;Node19</title>
<path fill="none" stroke="midnightblue" d="M196.042,-136.68C211.851,-141.815 229.799,-147.644 244.485,-152.414"/>
<polygon fill="midnightblue" stroke="midnightblue" points="197.116,-133.349 186.524,-133.589 194.954,-140.007 197.116,-133.349"/>
</g>
<!-- Node21 -->
<g id="node6" class="node"><title>Node21</title>
<g id="a_node6"><a xlink:href="classtools.html#aae1cdbea84aed049937a52ceb9421794" target="_top" xlink:title="tools::zip">
<polygon fill="white" stroke="black" points="247,-38.5 247,-57.5 303,-57.5 303,-38.5 247,-38.5"/>
<text text-anchor="middle" x="275" y="-45.5" font-family="Helvetica,sans-Serif" font-size="10.00">tools::zip</text>
</a>
</g>
</g>
<!-- Node18&#45;&gt;Node21 -->
<g id="edge7" class="edge"><title>Node18&#45;&gt;Node21</title>
<path fill="none" stroke="midnightblue" d="M180.491,-108.741C204.019,-93.4578 239.497,-70.412 259.302,-57.5473"/>
<polygon fill="midnightblue" stroke="midnightblue" points="178.298,-105.992 171.818,-114.375 182.111,-111.862 178.298,-105.992"/>
</g>
<!-- Node24 -->
<g id="node9" class="node"><title>Node24</title>
<g id="a_node9"><a xlink:href="classtools.html#aa7c6bc6eb08611b448cf5f2785853e63" target="_top" xlink:title="tools::unzip">
<polygon fill="white" stroke="black" points="241.5,-114.5 241.5,-133.5 308.5,-133.5 308.5,-114.5 241.5,-114.5"/>
<text text-anchor="middle" x="275" y="-121.5" font-family="Helvetica,sans-Serif" font-size="10.00">tools::unzip</text>
</a>
</g>
</g>
<!-- Node18&#45;&gt;Node24 -->
<g id="edge11" class="edge"><title>Node18&#45;&gt;Node24</title>
<path fill="none" stroke="midnightblue" d="M209.506,-124C220.354,-124 231.48,-124 241.37,-124"/>
<polygon fill="midnightblue" stroke="midnightblue" points="209.24,-120.5 199.24,-124 209.24,-127.5 209.24,-120.5"/>
</g>
<!-- Node19&#45;&gt;Node16 -->
<g id="edge4" class="edge"><title>Node19&#45;&gt;Node16</title>
<path fill="none" stroke="midnightblue" d="M224.67,-162C180.676,-162 117.209,-162 77.1765,-162"/>
<polygon fill="midnightblue" stroke="midnightblue" points="224.853,-165.5 234.853,-162 224.853,-158.5 224.853,-165.5"/>
</g>
<!-- Node19&#45;&gt;Node17 -->
<g id="edge5" class="edge"><title>Node19&#45;&gt;Node17</title>
<path fill="none" stroke="midnightblue" d="M321.653,-174.174C341.358,-179.429 364.075,-185.487 382.553,-190.414"/>
<polygon fill="midnightblue" stroke="midnightblue" points="322.523,-170.784 311.959,-171.589 320.719,-177.548 322.523,-170.784"/>
</g>
<!-- Node20 -->
<g id="node5" class="node"><title>Node20</title>
<g id="a_node5"><a xlink:href="class_main_window.html#ae11018a1c92bd7f20ff54a3f78eacb51" target="_top" xlink:title="Désarchiver le projet. ">
<polygon fill="white" stroke="black" points="524.5,-114.5 524.5,-133.5 664.5,-133.5 664.5,-114.5 524.5,-114.5"/>
<text text-anchor="middle" x="594.5" y="-121.5" font-family="Helvetica,sans-Serif" font-size="10.00">MainWindow::restoreProject</text>
</a>
</g>
</g>
<!-- Node19&#45;&gt;Node20 -->
<g id="edge6" class="edge"><title>Node19&#45;&gt;Node20</title>
<path fill="none" stroke="midnightblue" d="M325.287,-156.691C368.274,-151.997 432.3,-144.848 488,-138 499.737,-136.557 512.199,-134.961 524.29,-133.378"/>
<polygon fill="midnightblue" stroke="midnightblue" points="324.662,-153.239 315.1,-157.801 325.42,-160.197 324.662,-153.239"/>
</g>
<!-- Node22 -->
<g id="node7" class="node"><title>Node22</title>
<g id="a_node7"><a xlink:href="classtools.html#aefd7e17f4eeb34a4ab3d254eb3bb0a03" target="_top" xlink:title="tools::zipDir">
<polygon fill="white" stroke="black" points="385,-0.5 385,-19.5 454,-19.5 454,-0.5 385,-0.5"/>
<text text-anchor="middle" x="419.5" y="-7.5" font-family="Helvetica,sans-Serif" font-size="10.00">tools::zipDir</text>
</a>
</g>
</g>
<!-- Node21&#45;&gt;Node22 -->
<g id="edge8" class="edge"><title>Node21&#45;&gt;Node22</title>
<path fill="none" stroke="midnightblue" d="M312.907,-38.158C335.166,-32.2224 363.302,-24.7195 384.932,-18.9513"/>
<polygon fill="midnightblue" stroke="midnightblue" points="311.899,-34.8045 303.139,-40.763 313.703,-41.5682 311.899,-34.8045"/>
</g>
<!-- Node23 -->
<g id="node8" class="node"><title>Node23</title>
<g id="a_node8"><a xlink:href="class_main_window.html#a34512b73d3342c5a5b59a8f420d4d4c4" target="_top" xlink:title="Archiver le projet courant. ">
<polygon fill="white" stroke="black" points="524,-19.5 524,-38.5 665,-38.5 665,-19.5 524,-19.5"/>
<text text-anchor="middle" x="594.5" y="-26.5" font-family="Helvetica,sans-Serif" font-size="10.00">MainWindow::archiveProject</text>
</a>
</g>
</g>
<!-- Node21&#45;&gt;Node23 -->
<g id="edge10" class="edge"><title>Node21&#45;&gt;Node23</title>
<path fill="none" stroke="midnightblue" d="M313.091,-45.7804C364.634,-42.6959 458.888,-37.0555 523.793,-33.1715"/>
<polygon fill="midnightblue" stroke="midnightblue" points="312.843,-42.2889 303.07,-46.3801 313.261,-49.2764 312.843,-42.2889"/>
</g>
<!-- Node22&#45;&gt;Node23 -->
<g id="edge9" class="edge"><title>Node22&#45;&gt;Node23</title>
<path fill="none" stroke="midnightblue" d="M464.44,-14.8258C482.418,-16.8003 503.663,-19.1335 523.671,-21.3309"/>
<polygon fill="midnightblue" stroke="midnightblue" points="464.589,-11.3212 454.267,-13.7085 463.825,-18.2794 464.589,-11.3212"/>
</g>
<!-- Node24&#45;&gt;Node20 -->
<g id="edge14" class="edge"><title>Node24&#45;&gt;Node20</title>
<path fill="none" stroke="midnightblue" d="M318.813,-124C371.57,-124 461.891,-124 524.49,-124"/>
<polygon fill="midnightblue" stroke="midnightblue" points="318.782,-120.5 308.782,-124 318.782,-127.5 318.782,-120.5"/>
</g>
<!-- Node25 -->
<g id="node10" class="node"><title>Node25</title>
<g id="a_node10"><a xlink:href="classtools.html#ae821185bfd6650842559ef2f9d92f1ac" target="_top" xlink:title="tools::unzipDir">
<polygon fill="white" stroke="black" points="379.5,-76.5 379.5,-95.5 459.5,-95.5 459.5,-76.5 379.5,-76.5"/>
<text text-anchor="middle" x="419.5" y="-83.5" font-family="Helvetica,sans-Serif" font-size="10.00">tools::unzipDir</text>
</a>
</g>
</g>
<!-- Node24&#45;&gt;Node25 -->
<g id="edge12" class="edge"><title>Node24&#45;&gt;Node25</title>
<path fill="none" stroke="midnightblue" d="M318.4,-112.693C338.877,-107.233 363.18,-100.752 382.712,-95.5436"/>
<polygon fill="midnightblue" stroke="midnightblue" points="317.453,-109.324 308.692,-115.282 319.257,-116.087 317.453,-109.324"/>
</g>
<!-- Node25&#45;&gt;Node20 -->
<g id="edge13" class="edge"><title>Node25&#45;&gt;Node20</title>
<path fill="none" stroke="midnightblue" d="M469.555,-96.7751C494.936,-102.35 525.647,-109.096 550.148,-114.478"/>
<polygon fill="midnightblue" stroke="midnightblue" points="470.274,-93.3497 459.756,-94.6228 468.773,-100.187 470.274,-93.3497"/>
</g>
</g>
</svg>
        <g id="navigator" transform="translate(0 0)" fill="#404254">
                <rect fill="#f2f5e9" fill-opacity="0.5" stroke="#606060" stroke-width=".5" x="0" y="0" width="60" height="60"/>
                <use id="zoomplus" xlink:href="#zoomPlus" x="17" y="9" onmousedown="handleZoom(evt,'in')"/>
                <use id="zoomminus" xlink:href="#zoomMin" x="42" y="9" onmousedown="handleZoom(evt,'out')"/>
                <use id="reset" xlink:href="#resetDef" x="30" y="36" onmousedown="handleReset()"/>
                <g id="arrowUp" xlink:href="#dirArrow" transform="translate(30 24)" onmousedown="handlePan(0,-1)">
                  <use xlink:href="#rim" fill="#404040">
                        <set attributeName="fill" to="#808080" begin="arrowUp.mouseover" end="arrowUp.mouseout"/>
                  </use>
                  <path fill="none" stroke="white" stroke-width="1.5" d="M0,-3.0v7 M-2.5,-0.5L0,-3.0L2.5,-0.5"/>
                </g>
                <g id="arrowRight" xlink:href="#dirArrow" transform="rotate(90) translate(36 -43)" onmousedown="handlePan(1,0)">
                  <use xlink:href="#rim" fill="#404040">
                        <set attributeName="fill" to="#808080" begin="arrowRight.mouseover" end="arrowRight.mouseout"/>
                  </use>
                  <path fill="none" stroke="white" stroke-width="1.5" d="M0,-3.0v7 M-2.5,-0.5L0,-3.0L2.5,-0.5"/>
                </g>
                <g id="arrowDown" xlink:href="#dirArrow" transform="rotate(180) translate(-30 -48)" onmousedown="handlePan(0,1)">
                  <use xlink:href="#rim" fill="#404040">
                        <set attributeName="fill" to="#808080" begin="arrowDown.mouseover" end="arrowDown.mouseout"/>
                  </use>
                  <path fill="none" stroke="white" stroke-width="1.5" d="M0,-3.0v7 M-2.5,-0.5L0,-3.0L2.5,-0.5"/>
                </g>
                <g id="arrowLeft" xlink:href="#dirArrow" transform="rotate(270) translate(-36 17)" onmousedown="handlePan(-1,0)">
                  <use xlink:href="#rim" fill="#404040">
                        <set attributeName="fill" to="#808080" begin="arrowLeft.mouseover" end="arrowLeft.mouseout"/>
                  </use>
                  <path fill="none" stroke="white" stroke-width="1.5" d="M0,-3.0v7 M-2.5,-0.5L0,-3.0L2.5,-0.5"/>
                </g>
        </g>
        <svg viewBox="0 0 15 15" width="100%" height="30px" preserveAspectRatio="xMaxYMin meet">
         <g id="arrow_out" transform="scale(0.3 0.3)">
          <a xlink:href="classtools_a37c9c486d90129b0d6a4ac93f29fd5bb_icgraph_org.svg" target="_base">
           <rect id="button" ry="5" rx="5" y="6" x="6" height="38" width="38"
                fill="#f2f5e9" fill-opacity="0.5" stroke="#606060" stroke-width="1.0"/>
           <path id="arrow"
             d="M 11.500037,31.436501 C 11.940474,20.09759 22.043105,11.32322 32.158766,21.979434 L 37.068811,17.246167 C 37.068811,17.246167 37.088388,32 37.088388,32 L 22.160133,31.978069 C 22.160133,31.978069 26.997745,27.140456 26.997745,27.140456 C 18.528582,18.264221 13.291696,25.230495 11.500037,31.436501 z"
             style="fill:#404040;"/>
          </a>
         </g>
        </svg>
</svg>
