<?xml version="1.0" encoding="UTF-8" standalone="no"?>
<!DOCTYPE svg PUBLIC "-//W3C//DTD SVG 1.1//EN"
 "http://www.w3.org/Graphics/SVG/1.1/DTD/svg11.dtd">
<!-- Generated by graphviz version 2.38.0 (20140413.2041)
 -->
<!-- Title: MainWindow Pages: 1 -->
<!--zoomable 2345 -->
<svg id="main" version="1.1" xmlns="http://www.w3.org/2000/svg" xmlns:xlink="http://www.w3.org/1999/xlink" xml:space="preserve" onload="init(evt)">
<style type="text/css"><![CDATA[
.edge:hover path { stroke: red; }
.edge:hover polygon { stroke: red; fill: red; }
]]></style>
<script type="text/javascript"><![CDATA[
var edges = document.getElementsByTagName('g');
if (edges && edges.length) {
  for (var i=0;i<edges.length;i++) {
    if (edges[i].id.substr(0,4)=='edge') {
      edges[i].setAttribute('class','edge');
    }
  }
}
]]></script>
        <defs>
                <circle id="rim" cx="0" cy="0" r="7"/>
                <circle id="rim2" cx="0" cy="0" r="3.5"/>
                <g id="zoomPlus">
                        <use xlink:href="#rim" fill="#404040">
                                <set attributeName="fill" to="#808080" begin="zoomplus.mouseover" end="zoomplus.mouseout"/>
                        </use>
                        <path d="M-4,0h8M0,-4v8" fill="none" stroke="white" stroke-width="1.5" pointer-events="none"/>
                </g>
                <g id="zoomMin">
                        <use xlink:href="#rim" fill="#404040">
                                <set attributeName="fill" to="#808080" begin="zoomminus.mouseover" end="zoomminus.mouseout"/>
                        </use>
                        <path d="M-4,0h8" fill="none" stroke="white" stroke-width="1.5" pointer-events="none"/>
                </g>
                <g id="dirArrow">
                        <path fill="none" stroke="white" stroke-width="1.5" d="M0,-3.0v7 M-2.5,-0.5L0,-3.0L2.5,-0.5"/>
                </g>
               <g id="resetDef">
                       <use xlink:href="#rim2" fill="#404040">
                               <set attributeName="fill" to="#808080" begin="reset.mouseover" end="reset.mouseout"/>
                       </use>
               </g>
        </defs>

<script type="text/javascript">
var viewWidth = 776;
var viewHeight = 2345;
var sectionId = 'dynsection-1';
</script>
<script xlink:href="svgpan.js"/>
<svg id="graph" class="graph">
<g id="viewport">
<title>MainWindow</title>
<polygon fill="white" stroke="none" points="-4,4 -4,-2341 771.5,-2341 771.5,4 -4,4"/>
<!-- Node2 -->
<g id="node1" class="node"><title>Node2</title>
<polygon fill="#bfbfbf" stroke="black" points="278,-809.5 278,-1394.5 441,-1394.5 441,-809.5 278,-809.5"/>
<text text-anchor="middle" x="359.5" y="-1382.5" font-family="Helvetica,sans-Serif" font-size="10.00">MainWindow</text>
<polyline fill="none" stroke="black" points="278,-1375.5 441,-1375.5 "/>
<text text-anchor="start" x="286" y="-1363.5" font-family="Helvetica,sans-Serif" font-size="10.00">+ settings</text>
<text text-anchor="start" x="286" y="-1352.5" font-family="Helvetica,sans-Serif" font-size="10.00">+ recentFiles</text>
<text text-anchor="start" x="286" y="-1341.5" font-family="Helvetica,sans-Serif" font-size="10.00">+ consoleDialog</text>
<text text-anchor="start" x="286" y="-1330.5" font-family="Helvetica,sans-Serif" font-size="10.00">&#45; consoleCounter</text>
<text text-anchor="start" x="286" y="-1319.5" font-family="Helvetica,sans-Serif" font-size="10.00">&#45; height</text>
<text text-anchor="start" x="286" y="-1308.5" font-family="Helvetica,sans-Serif" font-size="10.00">&#45; width</text>
<text text-anchor="start" x="286" y="-1297.5" font-family="Helvetica,sans-Serif" font-size="10.00">&#45; actionHash</text>
<text text-anchor="start" x="286" y="-1286.5" font-family="Helvetica,sans-Serif" font-size="10.00">&#45; tempLog</text>
<text text-anchor="start" x="286" y="-1275.5" font-family="Helvetica,sans-Serif" font-size="10.00">&#45; editWidget</text>
<text text-anchor="start" x="286" y="-1264.5" font-family="Helvetica,sans-Serif" font-size="10.00">&#45; fileTreeViewDockWidget</text>
<text text-anchor="start" x="286" y="-1253.5" font-family="Helvetica,sans-Serif" font-size="10.00">&#45; bottomDockWidget</text>
<text text-anchor="start" x="286" y="-1242.5" font-family="Helvetica,sans-Serif" font-size="10.00">&#45; managerDockWidget</text>
<text text-anchor="start" x="286" y="-1231.5" font-family="Helvetica,sans-Serif" font-size="10.00">&#45; bottomTabWidget</text>
<text text-anchor="start" x="286" y="-1220.5" font-family="Helvetica,sans-Serif" font-size="10.00">et 67 de plus...</text>
<polyline fill="none" stroke="black" points="278,-1213.5 441,-1213.5 "/>
<text text-anchor="start" x="286" y="-1201.5" font-family="Helvetica,sans-Serif" font-size="10.00">+ MainWindow()</text>
<text text-anchor="start" x="286" y="-1190.5" font-family="Helvetica,sans-Serif" font-size="10.00">+ strippedName()</text>
<text text-anchor="start" x="286" y="-1179.5" font-family="Helvetica,sans-Serif" font-size="10.00">+ on_clearOutputTextButton</text>
<text text-anchor="start" x="286" y="-1168.5" font-family="Helvetica,sans-Serif" font-size="10.00">_clicked()</text>
<text text-anchor="start" x="286" y="-1157.5" font-family="Helvetica,sans-Serif" font-size="10.00">+ getEditor()</text>
<text text-anchor="start" x="286" y="-1146.5" font-family="Helvetica,sans-Serif" font-size="10.00">+ isDefaultSaveProjectChecked()</text>
<text text-anchor="start" x="286" y="-1135.5" font-family="Helvetica,sans-Serif" font-size="10.00">+ saveProjectAs()</text>
<text text-anchor="start" x="286" y="-1124.5" font-family="Helvetica,sans-Serif" font-size="10.00">+ saveProjectAs()</text>
<text text-anchor="start" x="286" y="-1113.5" font-family="Helvetica,sans-Serif" font-size="10.00">+ feedLHXConsoleWithHtml()</text>
<text text-anchor="start" x="286" y="-1102.5" font-family="Helvetica,sans-Serif" font-size="10.00">+ feedRConsoleWithHtml()</text>
<text text-anchor="start" x="286" y="-1091.5" font-family="Helvetica,sans-Serif" font-size="10.00">+ getConsoleCounter()</text>
<text text-anchor="start" x="286" y="-1080.5" font-family="Helvetica,sans-Serif" font-size="10.00">+ standardDisplay()</text>
<text text-anchor="start" x="286" y="-1069.5" font-family="Helvetica,sans-Serif" font-size="10.00">+ updateRecentFileActions()</text>
<text text-anchor="start" x="286" y="-1058.5" font-family="Helvetica,sans-Serif" font-size="10.00">+ resetExtractionBulletins()</text>
<text text-anchor="start" x="286" y="-1047.5" font-family="Helvetica,sans-Serif" font-size="10.00">&#45; readFile()</text>
<text text-anchor="start" x="286" y="-1036.5" font-family="Helvetica,sans-Serif" font-size="10.00">&#45; createActions()</text>
<text text-anchor="start" x="286" y="-1025.5" font-family="Helvetica,sans-Serif" font-size="10.00">&#45; createMenus()</text>
<text text-anchor="start" x="286" y="-1014.5" font-family="Helvetica,sans-Serif" font-size="10.00">&#45; createToolBars()</text>
<text text-anchor="start" x="286" y="-1003.5" font-family="Helvetica,sans-Serif" font-size="10.00">&#45; extraire_donnees_protegees()</text>
<text text-anchor="start" x="286" y="-992.5" font-family="Helvetica,sans-Serif" font-size="10.00">&#45; nettoyer_donnees()</text>
<text text-anchor="start" x="286" y="-981.5" font-family="Helvetica,sans-Serif" font-size="10.00">&#45; on_displayFileTreeViewButton</text>
<text text-anchor="start" x="286" y="-970.5" font-family="Helvetica,sans-Serif" font-size="10.00">_clicked()</text>
<text text-anchor="start" x="286" y="-959.5" font-family="Helvetica,sans-Serif" font-size="10.00">&#45; on_displayFileTreeViewButton</text>
<text text-anchor="start" x="286" y="-948.5" font-family="Helvetica,sans-Serif" font-size="10.00">_clicked()</text>
<text text-anchor="start" x="286" y="-937.5" font-family="Helvetica,sans-Serif" font-size="10.00">&#45; on_openManagerWidgetButton</text>
<text text-anchor="start" x="286" y="-926.5" font-family="Helvetica,sans-Serif" font-size="10.00">_clicked()</text>
<text text-anchor="start" x="286" y="-915.5" font-family="Helvetica,sans-Serif" font-size="10.00">&#45; on_openManagerWidgetButton</text>
<text text-anchor="start" x="286" y="-904.5" font-family="Helvetica,sans-Serif" font-size="10.00">_clicked()</text>
<text text-anchor="start" x="286" y="-893.5" font-family="Helvetica,sans-Serif" font-size="10.00">&#45; on_editProjectButton</text>
<text text-anchor="start" x="286" y="-882.5" font-family="Helvetica,sans-Serif" font-size="10.00">_clicked()</text>
<text text-anchor="start" x="286" y="-871.5" font-family="Helvetica,sans-Serif" font-size="10.00">&#45; on_optionsButton_clicked()</text>
<text text-anchor="start" x="286" y="-860.5" font-family="Helvetica,sans-Serif" font-size="10.00">&#45; displayFullScreen()</text>
<text text-anchor="start" x="286" y="-849.5" font-family="Helvetica,sans-Serif" font-size="10.00">&#45; toggleFullScreen()</text>
<text text-anchor="start" x="286" y="-838.5" font-family="Helvetica,sans-Serif" font-size="10.00">&#45; configure()</text>
<text text-anchor="start" x="286" y="-827.5" font-family="Helvetica,sans-Serif" font-size="10.00">&#45; configureOptions()</text>
<text text-anchor="start" x="286" y="-816.5" font-family="Helvetica,sans-Serif" font-size="10.00">et 11 de plus...</text>
</g>
<!-- Node14 -->
<g id="node13" class="node"><title>Node14</title>
<g id="a_node13"><a xlink:href="class_altair.html" target="_top" xlink:title="Classe Altair, agent de la classe MainWindow qui implémente les fonctions globales de l&#39;interface gra...">
<polygon fill="white" stroke="black" points="553.5,-0.5 553.5,-761.5 717.5,-761.5 717.5,-0.5 553.5,-0.5"/>
<text text-anchor="middle" x="635.5" y="-749.5" font-family="Helvetica,sans-Serif" font-size="10.00">Altair</text>
<polyline fill="none" stroke="black" points="553.5,-742.5 717.5,-742.5 "/>
<text text-anchor="start" x="561.5" y="-730.5" font-family="Helvetica,sans-Serif" font-size="10.00">+ project</text>
<text text-anchor="start" x="561.5" y="-719.5" font-family="Helvetica,sans-Serif" font-size="10.00">+ outputTextEdit</text>
<text text-anchor="start" x="561.5" y="-708.5" font-family="Helvetica,sans-Serif" font-size="10.00">+ model</text>
<text text-anchor="start" x="561.5" y="-697.5" font-family="Helvetica,sans-Serif" font-size="10.00">+ fileTreeView</text>
<text text-anchor="start" x="561.5" y="-686.5" font-family="Helvetica,sans-Serif" font-size="10.00">+ managerWidget</text>
<text text-anchor="start" x="561.5" y="-675.5" font-family="Helvetica,sans-Serif" font-size="10.00">+ rankFile</text>
<text text-anchor="start" x="561.5" y="-664.5" font-family="Helvetica,sans-Serif" font-size="10.00">+ projectName</text>
<text text-anchor="start" x="561.5" y="-653.5" font-family="Helvetica,sans-Serif" font-size="10.00">+ rootDir</text>
<text text-anchor="start" x="561.5" y="-642.5" font-family="Helvetica,sans-Serif" font-size="10.00">+ username</text>
<text text-anchor="start" x="561.5" y="-631.5" font-family="Helvetica,sans-Serif" font-size="10.00">+ XML_FILTERS</text>
<text text-anchor="start" x="561.5" y="-620.5" font-family="Helvetica,sans-Serif" font-size="10.00">+ RefreshFlag</text>
<text text-anchor="start" x="561.5" y="-609.5" font-family="Helvetica,sans-Serif" font-size="10.00">&#45; hasIndexChanged</text>
<text text-anchor="start" x="561.5" y="-598.5" font-family="Helvetica,sans-Serif" font-size="10.00">&#45; fileCount</text>
<text text-anchor="start" x="561.5" y="-587.5" font-family="Helvetica,sans-Serif" font-size="10.00">&#45; row</text>
<text text-anchor="start" x="561.5" y="-576.5" font-family="Helvetica,sans-Serif" font-size="10.00">&#45; currentIndex</text>
<text text-anchor="start" x="561.5" y="-565.5" font-family="Helvetica,sans-Serif" font-size="10.00">&#45; fileSizeDataBase</text>
<text text-anchor="start" x="561.5" y="-554.5" font-family="Helvetica,sans-Serif" font-size="10.00">&#45; iconShowMaximized</text>
<text text-anchor="start" x="561.5" y="-543.5" font-family="Helvetica,sans-Serif" font-size="10.00">&#45; iconShowNormal</text>
<text text-anchor="start" x="561.5" y="-532.5" font-family="Helvetica,sans-Serif" font-size="10.00">&#45; progress</text>
<text text-anchor="start" x="561.5" y="-521.5" font-family="Helvetica,sans-Serif" font-size="10.00">&#45; mainLayout</text>
<text text-anchor="start" x="561.5" y="-510.5" font-family="Helvetica,sans-Serif" font-size="10.00">&#45; progressLayout</text>
<text text-anchor="start" x="561.5" y="-499.5" font-family="Helvetica,sans-Serif" font-size="10.00">&#45; managerLayout</text>
<text text-anchor="start" x="561.5" y="-488.5" font-family="Helvetica,sans-Serif" font-size="10.00">&#45; allLayout</text>
<text text-anchor="start" x="561.5" y="-477.5" font-family="Helvetica,sans-Serif" font-size="10.00">&#45; totalSize</text>
<polyline fill="none" stroke="black" points="553.5,-470.5 717.5,-470.5 "/>
<text text-anchor="start" x="561.5" y="-458.5" font-family="Helvetica,sans-Serif" font-size="10.00">+ Altair()</text>
<text text-anchor="start" x="561.5" y="-447.5" font-family="Helvetica,sans-Serif" font-size="10.00">+ clearInterfaceAndParseProject()</text>
<text text-anchor="start" x="561.5" y="-436.5" font-family="Helvetica,sans-Serif" font-size="10.00">+ checkEmptyProjectName()</text>
<text text-anchor="start" x="561.5" y="-425.5" font-family="Helvetica,sans-Serif" font-size="10.00">+ startDrag()</text>
<text text-anchor="start" x="561.5" y="-414.5" font-family="Helvetica,sans-Serif" font-size="10.00">+ dragMoveEvent()</text>
<text text-anchor="start" x="561.5" y="-403.5" font-family="Helvetica,sans-Serif" font-size="10.00">+ dragEnterEvent()</text>
<text text-anchor="start" x="561.5" y="-392.5" font-family="Helvetica,sans-Serif" font-size="10.00">+ dropEvent()</text>
<text text-anchor="start" x="561.5" y="-381.5" font-family="Helvetica,sans-Serif" font-size="10.00">+ setCurrentFile()</text>
<text text-anchor="start" x="561.5" y="-370.5" font-family="Helvetica,sans-Serif" font-size="10.00">+ size()</text>
<text text-anchor="start" x="561.5" y="-359.5" font-family="Helvetica,sans-Serif" font-size="10.00">+ refreshProjectManagerValues()</text>
<text text-anchor="start" x="561.5" y="-348.5" font-family="Helvetica,sans-Serif" font-size="10.00">et 7 de plus...</text>
<text text-anchor="start" x="561.5" y="-337.5" font-family="Helvetica,sans-Serif" font-size="10.00">+ updateProject()</text>
<text text-anchor="start" x="561.5" y="-326.5" font-family="Helvetica,sans-Serif" font-size="10.00">+ on_openProjectButton</text>
<text text-anchor="start" x="561.5" y="-315.5" font-family="Helvetica,sans-Serif" font-size="10.00">_clicked()</text>
<text text-anchor="start" x="561.5" y="-304.5" font-family="Helvetica,sans-Serif" font-size="10.00">+ on_newProjectButton</text>
<text text-anchor="start" x="561.5" y="-293.5" font-family="Helvetica,sans-Serif" font-size="10.00">_clicked()</text>
<text text-anchor="start" x="561.5" y="-282.5" font-family="Helvetica,sans-Serif" font-size="10.00">+ on_deleteItem_clicked()</text>
<text text-anchor="start" x="561.5" y="-271.5" font-family="Helvetica,sans-Serif" font-size="10.00">+ closeProject()</text>
<text text-anchor="start" x="561.5" y="-260.5" font-family="Helvetica,sans-Serif" font-size="10.00">+ openProjectFileCommonCode()</text>
<text text-anchor="start" x="561.5" y="-249.5" font-family="Helvetica,sans-Serif" font-size="10.00">+ importData()</text>
<text text-anchor="start" x="561.5" y="-238.5" font-family="Helvetica,sans-Serif" font-size="10.00">+ textAppend()</text>
<text text-anchor="start" x="561.5" y="-227.5" font-family="Helvetica,sans-Serif" font-size="10.00">+ killProcess()</text>
<text text-anchor="start" x="561.5" y="-216.5" font-family="Helvetica,sans-Serif" font-size="10.00">&#45; assignWidgetValues()</text>
<text text-anchor="start" x="561.5" y="-205.5" font-family="Helvetica,sans-Serif" font-size="10.00">&#45; clearProjectData()</text>
<text text-anchor="start" x="561.5" y="-194.5" font-family="Helvetica,sans-Serif" font-size="10.00">&#45; initialize()</text>
<text text-anchor="start" x="561.5" y="-183.5" font-family="Helvetica,sans-Serif" font-size="10.00">&#45; makeParserString()</text>
<text text-anchor="start" x="561.5" y="-172.5" font-family="Helvetica,sans-Serif" font-size="10.00">&#45; makeDataString()</text>
<text text-anchor="start" x="561.5" y="-161.5" font-family="Helvetica,sans-Serif" font-size="10.00">&#45; makeSystemString()</text>
<text text-anchor="start" x="561.5" y="-150.5" font-family="Helvetica,sans-Serif" font-size="10.00">&#45; processSecondLevelData()</text>
<text text-anchor="start" x="561.5" y="-139.5" font-family="Helvetica,sans-Serif" font-size="10.00">&#45; parseEntry()</text>
<text text-anchor="start" x="561.5" y="-128.5" font-family="Helvetica,sans-Serif" font-size="10.00">&#45; refreshRowPresentation()</text>
<text text-anchor="start" x="561.5" y="-117.5" font-family="Helvetica,sans-Serif" font-size="10.00">&#45; updateIndexInfo()</text>
<text text-anchor="start" x="561.5" y="-106.5" font-family="Helvetica,sans-Serif" font-size="10.00">et 8 de plus...</text>
<text text-anchor="start" x="561.5" y="-95.5" font-family="Helvetica,sans-Serif" font-size="10.00">&#45; run()</text>
<text text-anchor="start" x="561.5" y="-84.5" font-family="Helvetica,sans-Serif" font-size="10.00">&#45; runRAltair()</text>
<text text-anchor="start" x="561.5" y="-73.5" font-family="Helvetica,sans-Serif" font-size="10.00">&#45; processFinished()</text>
<text text-anchor="start" x="561.5" y="-62.5" font-family="Helvetica,sans-Serif" font-size="10.00">&#45; processFinished()</text>
<text text-anchor="start" x="561.5" y="-51.5" font-family="Helvetica,sans-Serif" font-size="10.00">&#45; deleteGroup()</text>
<text text-anchor="start" x="561.5" y="-40.5" font-family="Helvetica,sans-Serif" font-size="10.00">&#45; on_helpButton_clicked()</text>
<text text-anchor="start" x="561.5" y="-29.5" font-family="Helvetica,sans-Serif" font-size="10.00">&#45; requestSaveProject()</text>
<text text-anchor="start" x="561.5" y="-18.5" font-family="Helvetica,sans-Serif" font-size="10.00">&#45; openProjectFile()</text>
<text text-anchor="start" x="561.5" y="-7.5" font-family="Helvetica,sans-Serif" font-size="10.00">&#45; refreshRowPresentation()</text>
</a>
</g>
</g>
<!-- Node2&#45;&gt;Node14 -->
<g id="edge22" class="edge"><title>Node2&#45;&gt;Node14</title>
<path fill="none" stroke="#404040" d="M429.293,-809.291C432.592,-799.362 435.995,-789.573 439.5,-780 469.218,-698.821 510.552,-612.32 547.605,-540.769"/>
<polygon fill="none" stroke="#404040" points="547.737,-540.516 546.958,-533.347 553.276,-529.871 554.055,-537.04 547.737,-540.516"/>
<text text-anchor="middle" x="458" y="-783" font-family="Helvetica,sans-Serif" font-size="10.00"> +parent</text>
</g>
<!-- Node3 -->
<g id="node2" class="node"><title>Node3</title>
<polygon fill="white" stroke="#bfbfbf" points="161.5,-1486.5 161.5,-1543.5 241.5,-1543.5 241.5,-1486.5 161.5,-1486.5"/>
<text text-anchor="middle" x="201.5" y="-1531.5" font-family="Helvetica,sans-Serif" font-size="10.00">QMainWindow</text>
<polyline fill="none" stroke="#bfbfbf" points="161.5,-1524.5 241.5,-1524.5 "/>
<text text-anchor="middle" x="201.5" y="-1512.5" font-family="Helvetica,sans-Serif" font-size="10.00"> </text>
<polyline fill="none" stroke="#bfbfbf" points="161.5,-1505.5 241.5,-1505.5 "/>
<text text-anchor="middle" x="201.5" y="-1493.5" font-family="Helvetica,sans-Serif" font-size="10.00"> </text>
</g>
<!-- Node3&#45;&gt;Node2 -->
<g id="edge1" class="edge"><title>Node3&#45;&gt;Node2</title>
<path fill="none" stroke="midnightblue" d="M215.771,-1476.88C230.264,-1439.18 253.93,-1377.62 277.914,-1315.23"/>
<polygon fill="none" stroke="midnightblue" points="212.434,-1475.8 212.112,-1486.39 218.967,-1478.32 212.434,-1475.8"/>
</g>
<!-- Node4 -->
<g id="node3" class="node"><title>Node4</title>
<g id="a_node3"><a xlink:href="class_highlighter.html" target="_top" xlink:title="{Highlighter\n|&#45; highlightingRules\l&#45; keywordFormat\l|+ Highlighter()\l# highlightBlock()\l&#45; createRulePattern()\l}">
<polygon fill="white" stroke="black" points="260,-1470 260,-1560 367,-1560 367,-1470 260,-1470"/>
<text text-anchor="middle" x="313.5" y="-1548" font-family="Helvetica,sans-Serif" font-size="10.00">Highlighter</text>
<polyline fill="none" stroke="black" points="260,-1541 367,-1541 "/>
<text text-anchor="start" x="268" y="-1529" font-family="Helvetica,sans-Serif" font-size="10.00">&#45; highlightingRules</text>
<text text-anchor="start" x="268" y="-1518" font-family="Helvetica,sans-Serif" font-size="10.00">&#45; keywordFormat</text>
<polyline fill="none" stroke="black" points="260,-1511 367,-1511 "/>
<text text-anchor="start" x="268" y="-1499" font-family="Helvetica,sans-Serif" font-size="10.00">+ Highlighter()</text>
<text text-anchor="start" x="268" y="-1488" font-family="Helvetica,sans-Serif" font-size="10.00"># highlightBlock()</text>
<text text-anchor="start" x="268" y="-1477" font-family="Helvetica,sans-Serif" font-size="10.00">&#45; createRulePattern()</text>
</a>
</g>
</g>
<!-- Node4&#45;&gt;Node2 -->
<g id="edge2" class="edge"><title>Node4&#45;&gt;Node2</title>
<path fill="none" stroke="#404040" d="M318.467,-1469.63C320.423,-1452.14 322.846,-1430.49 325.529,-1406.52"/>
<polygon fill="none" stroke="#404040" points="325.532,-1406.5 322.224,-1400.09 326.867,-1394.57 330.174,-1400.98 325.532,-1406.5"/>
<text text-anchor="middle" x="351" y="-1416" font-family="Helvetica,sans-Serif" font-size="10.00"> &#45;highlighter</text>
</g>
<!-- Node5 -->
<g id="node4" class="node"><title>Node5</title>
<polygon fill="white" stroke="#bfbfbf" points="93,-1913.5 93,-1970.5 194,-1970.5 194,-1913.5 93,-1913.5"/>
<text text-anchor="middle" x="143.5" y="-1958.5" font-family="Helvetica,sans-Serif" font-size="10.00">QSyntaxHighlighter</text>
<polyline fill="none" stroke="#bfbfbf" points="93,-1951.5 194,-1951.5 "/>
<text text-anchor="middle" x="143.5" y="-1939.5" font-family="Helvetica,sans-Serif" font-size="10.00"> </text>
<polyline fill="none" stroke="#bfbfbf" points="93,-1932.5 194,-1932.5 "/>
<text text-anchor="middle" x="143.5" y="-1920.5" font-family="Helvetica,sans-Serif" font-size="10.00"> </text>
</g>
<!-- Node5&#45;&gt;Node4 -->
<g id="edge3" class="edge"><title>Node5&#45;&gt;Node4</title>
<path fill="none" stroke="midnightblue" d="M140.132,-1902.99C136.257,-1835.47 137.886,-1693.54 208.5,-1606 221.251,-1590.19 234.071,-1599.94 250.5,-1588 261.249,-1580.19 271.432,-1570.23 280.354,-1560.22"/>
<polygon fill="none" stroke="midnightblue" points="136.652,-1903.41 140.791,-1913.16 143.637,-1902.96 136.652,-1903.41"/>
</g>
<!-- Node6 -->
<g id="node5" class="node"><title>Node6</title>
<g id="a_node5"><a xlink:href="classoptions.html" target="_top" xlink:title="Classe de l&#39;onglet Codes, qui permet de saisir manuellement les codes de paye de certaines catégories...">
<polygon fill="white" stroke="black" points="385.5,-1442.5 385.5,-1587.5 495.5,-1587.5 495.5,-1442.5 385.5,-1442.5"/>
<text text-anchor="middle" x="440.5" y="-1575.5" font-family="Helvetica,sans-Serif" font-size="10.00">options</text>
<polyline fill="none" stroke="black" points="385.5,-1568.5 495.5,-1568.5 "/>
<text text-anchor="start" x="393.5" y="-1556.5" font-family="Helvetica,sans-Serif" font-size="10.00">+ optionWidget</text>
<text text-anchor="start" x="393.5" y="-1545.5" font-family="Helvetica,sans-Serif" font-size="10.00">+ RefreshFlag</text>
<text text-anchor="start" x="393.5" y="-1534.5" font-family="Helvetica,sans-Serif" font-size="10.00">&#45; closeButton</text>
<text text-anchor="start" x="393.5" y="-1523.5" font-family="Helvetica,sans-Serif" font-size="10.00">&#45; pagesWidget</text>
<polyline fill="none" stroke="black" points="385.5,-1516.5 495.5,-1516.5 "/>
<text text-anchor="start" x="393.5" y="-1504.5" font-family="Helvetica,sans-Serif" font-size="10.00">+ options()</text>
<text text-anchor="start" x="393.5" y="-1493.5" font-family="Helvetica,sans-Serif" font-size="10.00">+ clearOptionData()</text>
<text text-anchor="start" x="393.5" y="-1482.5" font-family="Helvetica,sans-Serif" font-size="10.00">&#45; createIcons()</text>
<text text-anchor="start" x="393.5" y="-1471.5" font-family="Helvetica,sans-Serif" font-size="10.00">&#45; createIcon()</text>
<text text-anchor="start" x="393.5" y="-1460.5" font-family="Helvetica,sans-Serif" font-size="10.00">&#45; changePage()</text>
<text text-anchor="start" x="393.5" y="-1449.5" font-family="Helvetica,sans-Serif" font-size="10.00">&#45; enchainerRapports()</text>
</a>
</g>
</g>
<!-- Node6&#45;&gt;Node2 -->
<g id="edge4" class="edge"><title>Node6&#45;&gt;Node2</title>
<path fill="none" stroke="#404040" d="M426.391,-1442.41C424.205,-1431.32 421.837,-1419.3 419.34,-1406.63"/>
<polygon fill="none" stroke="#404040" points="419.334,-1406.6 414.249,-1401.49 417.014,-1394.83 422.098,-1399.94 419.334,-1406.6"/>
<text text-anchor="middle" x="439" y="-1416" font-family="Helvetica,sans-Serif" font-size="10.00"> +dialog</text>
</g>
<!-- Node7 -->
<g id="node6" class="node"><title>Node7</title>
<polygon fill="white" stroke="#bfbfbf" points="283.5,-2140.5 283.5,-2197.5 335.5,-2197.5 335.5,-2140.5 283.5,-2140.5"/>
<text text-anchor="middle" x="309.5" y="-2185.5" font-family="Helvetica,sans-Serif" font-size="10.00">QDialog</text>
<polyline fill="none" stroke="#bfbfbf" points="283.5,-2178.5 335.5,-2178.5 "/>
<text text-anchor="middle" x="309.5" y="-2166.5" font-family="Helvetica,sans-Serif" font-size="10.00"> </text>
<polyline fill="none" stroke="#bfbfbf" points="283.5,-2159.5 335.5,-2159.5 "/>
<text text-anchor="middle" x="309.5" y="-2147.5" font-family="Helvetica,sans-Serif" font-size="10.00"> </text>
</g>
<!-- Node7&#45;&gt;Node6 -->
<g id="edge5" class="edge"><title>Node7&#45;&gt;Node6</title>
<path fill="none" stroke="midnightblue" d="M279.757,-2131.85C265.143,-2111.73 249.075,-2085.45 241.5,-2059 212.87,-1959.02 221.752,-1927.11 241.5,-1825 261.418,-1722.01 254.99,-1679.84 329.5,-1606 345.094,-1590.55 357.439,-1600.48 375.5,-1588 378.825,-1585.7 382.098,-1583.2 385.299,-1580.56"/>
<polygon fill="none" stroke="midnightblue" points="277.115,-2134.16 285.903,-2140.08 282.724,-2129.97 277.115,-2134.16"/>
</g>
<!-- Node10 -->
<g id="node9" class="node"><title>Node10</title>
<g id="a_node9"><a xlink:href="classprocess_page.html" target="_top" xlink:title="Classe de l&#39;onglet Traitement du dialgue d&#39;options. ">
<polygon fill="white" stroke="black" points="513.5,-1869.5 513.5,-2014.5 623.5,-2014.5 623.5,-1869.5 513.5,-1869.5"/>
<text text-anchor="middle" x="568.5" y="-2002.5" font-family="Helvetica,sans-Serif" font-size="10.00">processPage</text>
<polyline fill="none" stroke="black" points="513.5,-1995.5 623.5,-1995.5 "/>
<text text-anchor="start" x="521.5" y="-1983.5" font-family="Helvetica,sans-Serif" font-size="10.00">+ logFrame</text>
<text text-anchor="start" x="521.5" y="-1972.5" font-family="Helvetica,sans-Serif" font-size="10.00">+ rapportEntier</text>
<text text-anchor="start" x="521.5" y="-1961.5" font-family="Helvetica,sans-Serif" font-size="10.00">+ enchainerRapports</text>
<text text-anchor="start" x="521.5" y="-1950.5" font-family="Helvetica,sans-Serif" font-size="10.00">&#45; processTypeWidget</text>
<text text-anchor="start" x="521.5" y="-1939.5" font-family="Helvetica,sans-Serif" font-size="10.00">&#45; memoryUseWidget</text>
<text text-anchor="start" x="521.5" y="-1928.5" font-family="Helvetica,sans-Serif" font-size="10.00">&#45; rapportTypeWidget</text>
<text text-anchor="start" x="521.5" y="-1917.5" font-family="Helvetica,sans-Serif" font-size="10.00">&#45; processTypeBox</text>
<text text-anchor="start" x="521.5" y="-1906.5" font-family="Helvetica,sans-Serif" font-size="10.00">&#45; logCheckBox</text>
<text text-anchor="start" x="521.5" y="-1895.5" font-family="Helvetica,sans-Serif" font-size="10.00">&#45; consoleCheckBox</text>
<polyline fill="none" stroke="black" points="513.5,-1888.5 623.5,-1888.5 "/>
<text text-anchor="start" x="521.5" y="-1876.5" font-family="Helvetica,sans-Serif" font-size="10.00">+ processPage()</text>
</a>
</g>
</g>
<!-- Node7&#45;&gt;Node10 -->
<g id="edge9" class="edge"><title>Node7&#45;&gt;Node10</title>
<path fill="none" stroke="midnightblue" d="M345.161,-2155.12C387.459,-2138.39 458.069,-2105.69 504.5,-2059 517.232,-2046.2 528.173,-2030.34 537.225,-2014.5"/>
<polygon fill="none" stroke="midnightblue" points="343.878,-2151.87 335.817,-2158.74 346.406,-2158.39 343.878,-2151.87"/>
</g>
<!-- Node11 -->
<g id="node10" class="node"><title>Node11</title>
<g id="a_node10"><a xlink:href="classstandard_page.html" target="_top" xlink:title="Classe de l&#39;onglet &quot;Format des bases&quot; du dialogue d&#39;options. ">
<polygon fill="white" stroke="black" points="386,-1864 386,-2020 495,-2020 495,-1864 386,-1864"/>
<text text-anchor="middle" x="440.5" y="-2008" font-family="Helvetica,sans-Serif" font-size="10.00">standardPage</text>
<polyline fill="none" stroke="black" points="386,-2001 495,-2001 "/>
<text text-anchor="start" x="394" y="-1989" font-family="Helvetica,sans-Serif" font-size="10.00">+ tableCheckBox</text>
<text text-anchor="start" x="394" y="-1978" font-family="Helvetica,sans-Serif" font-size="10.00">+ FPHCheckBox</text>
<text text-anchor="start" x="394" y="-1967" font-family="Helvetica,sans-Serif" font-size="10.00">+ exportWidget</text>
<text text-anchor="start" x="394" y="-1956" font-family="Helvetica,sans-Serif" font-size="10.00">&#45; baseTypeWidget</text>
<text text-anchor="start" x="394" y="-1945" font-family="Helvetica,sans-Serif" font-size="10.00">&#45; maxNLigneLineEdit</text>
<text text-anchor="start" x="394" y="-1934" font-family="Helvetica,sans-Serif" font-size="10.00">&#45; baseTypeBox</text>
<text text-anchor="start" x="394" y="-1923" font-family="Helvetica,sans-Serif" font-size="10.00">&#45; etabCheckBox</text>
<text text-anchor="start" x="394" y="-1912" font-family="Helvetica,sans-Serif" font-size="10.00">&#45; rangCheckBox</text>
<text text-anchor="start" x="394" y="-1901" font-family="Helvetica,sans-Serif" font-size="10.00">&#45; maxNLigneLabel</text>
<polyline fill="none" stroke="black" points="386,-1894 495,-1894 "/>
<text text-anchor="start" x="394" y="-1882" font-family="Helvetica,sans-Serif" font-size="10.00">+ standardPage()</text>
<text text-anchor="start" x="394" y="-1871" font-family="Helvetica,sans-Serif" font-size="10.00">&#45; substituer_versant()</text>
</a>
</g>
</g>
<!-- Node7&#45;&gt;Node11 -->
<g id="edge12" class="edge"><title>Node7&#45;&gt;Node11</title>
<path fill="none" stroke="midnightblue" d="M332.34,-2131.8C345.5,-2110.71 362.212,-2083.52 376.5,-2059 383.796,-2046.48 391.377,-2033.1 398.661,-2020.03"/>
<polygon fill="none" stroke="midnightblue" points="329.272,-2130.11 326.936,-2140.44 335.206,-2133.82 329.272,-2130.11"/>
</g>
<!-- Node12 -->
<g id="node11" class="node"><title>Node12</title>
<g id="a_node11"><a xlink:href="classcode_page.html" target="_top" xlink:title="Classe de l&#39;onglet Codes permettant d&#39;exporter des codes de paye manuellement spécifiés vers les scri...">
<polygon fill="white" stroke="black" points="251,-1825.5 251,-2058.5 368,-2058.5 368,-1825.5 251,-1825.5"/>
<text text-anchor="middle" x="309.5" y="-2046.5" font-family="Helvetica,sans-Serif" font-size="10.00">codePage</text>
<polyline fill="none" stroke="black" points="251,-2039.5 368,-2039.5 "/>
<text text-anchor="start" x="259" y="-2027.5" font-family="Helvetica,sans-Serif" font-size="10.00">&#45; prologue_codes_path</text>
<text text-anchor="start" x="259" y="-2016.5" font-family="Helvetica,sans-Serif" font-size="10.00">&#45; variables</text>
<text text-anchor="start" x="259" y="-2005.5" font-family="Helvetica,sans-Serif" font-size="10.00">&#45; listeCodes</text>
<text text-anchor="start" x="259" y="-1994.5" font-family="Helvetica,sans-Serif" font-size="10.00">&#45; listeLabels</text>
<text text-anchor="start" x="259" y="-1983.5" font-family="Helvetica,sans-Serif" font-size="10.00">&#45; listeDialogueLabels</text>
<text text-anchor="start" x="259" y="-1972.5" font-family="Helvetica,sans-Serif" font-size="10.00">&#45; label</text>
<text text-anchor="start" x="259" y="-1961.5" font-family="Helvetica,sans-Serif" font-size="10.00">&#45; init_label_text</text>
<text text-anchor="start" x="259" y="-1950.5" font-family="Helvetica,sans-Serif" font-size="10.00">&#45; appliquerCodes</text>
<text text-anchor="start" x="259" y="-1939.5" font-family="Helvetica,sans-Serif" font-size="10.00">&#45; vLayout</text>
<text text-anchor="start" x="259" y="-1928.5" font-family="Helvetica,sans-Serif" font-size="10.00">&#45; mainLayout</text>
<text text-anchor="start" x="259" y="-1917.5" font-family="Helvetica,sans-Serif" font-size="10.00">&#45; baseBox</text>
<polyline fill="none" stroke="black" points="251,-1910.5 368,-1910.5 "/>
<text text-anchor="start" x="259" y="-1898.5" font-family="Helvetica,sans-Serif" font-size="10.00">+ codePage()</text>
<text text-anchor="start" x="259" y="-1887.5" font-family="Helvetica,sans-Serif" font-size="10.00">+ resetLabel()</text>
<text text-anchor="start" x="259" y="-1876.5" font-family="Helvetica,sans-Serif" font-size="10.00">&#45; ajouterVariable()</text>
<text text-anchor="start" x="259" y="-1865.5" font-family="Helvetica,sans-Serif" font-size="10.00">&#45; reinitialiser_prologue()</text>
<text text-anchor="start" x="259" y="-1854.5" font-family="Helvetica,sans-Serif" font-size="10.00">&#45; substituer_valeurs</text>
<text text-anchor="start" x="259" y="-1843.5" font-family="Helvetica,sans-Serif" font-size="10.00">_dans_script_R()</text>
<text text-anchor="start" x="259" y="-1832.5" font-family="Helvetica,sans-Serif" font-size="10.00">&#45; activer_fph()</text>
</a>
</g>
</g>
<!-- Node7&#45;&gt;Node12 -->
<g id="edge15" class="edge"><title>Node7&#45;&gt;Node12</title>
<path fill="none" stroke="midnightblue" d="M309.5,-2130.25C309.5,-2110.31 309.5,-2084.65 309.5,-2058.75"/>
<polygon fill="none" stroke="midnightblue" points="306,-2130.41 309.5,-2140.41 313,-2130.41 306,-2130.41"/>
</g>
<!-- Node13 -->
<g id="node12" class="node"><title>Node13</title>
<g id="a_node12"><a xlink:href="class_matricule_input.html" target="_top" xlink:title="Classe permettant de construire un dialogue d&#39;extraction des bulletins de paye par matricule...">
<polygon fill="white" stroke="black" points="0,-1606.5 0,-1806.5 129,-1806.5 129,-1606.5 0,-1606.5"/>
<text text-anchor="middle" x="64.5" y="-1794.5" font-family="Helvetica,sans-Serif" font-size="10.00">MatriculeInput</text>
<polyline fill="none" stroke="black" points="0,-1787.5 129,-1787.5 "/>
<text text-anchor="start" x="8" y="-1775.5" font-family="Helvetica,sans-Serif" font-size="10.00">+ matricules</text>
<text text-anchor="start" x="8" y="-1764.5" font-family="Helvetica,sans-Serif" font-size="10.00">&#45; layout</text>
<text text-anchor="start" x="8" y="-1753.5" font-family="Helvetica,sans-Serif" font-size="10.00">&#45; closeButton</text>
<text text-anchor="start" x="8" y="-1742.5" font-family="Helvetica,sans-Serif" font-size="10.00">&#45; matrLineEdit</text>
<text text-anchor="start" x="8" y="-1731.5" font-family="Helvetica,sans-Serif" font-size="10.00">&#45; matrLineEdit2</text>
<text text-anchor="start" x="8" y="-1720.5" font-family="Helvetica,sans-Serif" font-size="10.00">&#45; matrLineEdit3</text>
<text text-anchor="start" x="8" y="-1709.5" font-family="Helvetica,sans-Serif" font-size="10.00">&#45; matrLineEditList</text>
<text text-anchor="start" x="8" y="-1698.5" font-family="Helvetica,sans-Serif" font-size="10.00">&#45; eraseButtonList</text>
<text text-anchor="start" x="8" y="-1687.5" font-family="Helvetica,sans-Serif" font-size="10.00">&#45; dossier</text>
<text text-anchor="start" x="8" y="-1676.5" font-family="Helvetica,sans-Serif" font-size="10.00">&#45; dirpath</text>
<polyline fill="none" stroke="black" points="0,-1669.5 129,-1669.5 "/>
<text text-anchor="start" x="8" y="-1657.5" font-family="Helvetica,sans-Serif" font-size="10.00">+ MatriculeInput()</text>
<text text-anchor="start" x="8" y="-1646.5" font-family="Helvetica,sans-Serif" font-size="10.00">+ clear()</text>
<text text-anchor="start" x="8" y="-1635.5" font-family="Helvetica,sans-Serif" font-size="10.00">+ checkDefaultFolder()</text>
<text text-anchor="start" x="8" y="-1624.5" font-family="Helvetica,sans-Serif" font-size="10.00">+ ajouterLigneMatricules()</text>
<text text-anchor="start" x="8" y="-1613.5" font-family="Helvetica,sans-Serif" font-size="10.00">&#45; checkInput()</text>
</a>
</g>
</g>
<!-- Node7&#45;&gt;Node13 -->
<g id="edge18" class="edge"><title>Node7&#45;&gt;Node13</title>
<path fill="none" stroke="midnightblue" d="M273.147,-2162.15C221.141,-2151.66 126.997,-2124.29 83.5,-2059 34.3675,-1985.25 34.7974,-1882.28 44.4073,-1806.85"/>
<polygon fill="none" stroke="midnightblue" points="272.785,-2165.65 283.265,-2164.09 274.1,-2158.77 272.785,-2165.65"/>
</g>
<!-- Node8 -->
<g id="node7" class="node"><title>Node8</title>
<g id="a_node7"><a xlink:href="classcommon.html" target="_top" xlink:title="Classe dérivée de la classe tools ajoutant des fonctionnalités de communication de l&#39;interface vers l...">
<polygon fill="white" stroke="black" points="508,-2096.5 508,-2241.5 629,-2241.5 629,-2096.5 508,-2096.5"/>
<text text-anchor="middle" x="568.5" y="-2229.5" font-family="Helvetica,sans-Serif" font-size="10.00">common</text>
<polyline fill="none" stroke="black" points="508,-2222.5 629,-2222.5 "/>
<text text-anchor="start" x="516" y="-2210.5" font-family="Helvetica,sans-Serif" font-size="10.00">+ execPath</text>
<text text-anchor="start" x="516" y="-2199.5" font-family="Helvetica,sans-Serif" font-size="10.00">+ sharedir</text>
<text text-anchor="start" x="516" y="-2188.5" font-family="Helvetica,sans-Serif" font-size="10.00">+ RAltairDirStr</text>
<text text-anchor="start" x="516" y="-2177.5" font-family="Helvetica,sans-Serif" font-size="10.00">+ RAltairCommandStr</text>
<text text-anchor="start" x="516" y="-2166.5" font-family="Helvetica,sans-Serif" font-size="10.00">+ altairCommandStr</text>
<polyline fill="none" stroke="black" points="508,-2159.5 629,-2159.5 "/>
<text text-anchor="start" x="516" y="-2147.5" font-family="Helvetica,sans-Serif" font-size="10.00">+ common()</text>
<text text-anchor="start" x="516" y="-2136.5" font-family="Helvetica,sans-Serif" font-size="10.00">+ exporter_identification</text>
<text text-anchor="start" x="516" y="-2125.5" font-family="Helvetica,sans-Serif" font-size="10.00">_controle()</text>
<text text-anchor="start" x="516" y="-2114.5" font-family="Helvetica,sans-Serif" font-size="10.00">+ exporter_identification</text>
<text text-anchor="start" x="516" y="-2103.5" font-family="Helvetica,sans-Serif" font-size="10.00">_controle()</text>
</a>
</g>
</g>
<!-- Node8&#45;&gt;Node6 -->
<g id="edge6" class="edge"><title>Node8&#45;&gt;Node6</title>
<path fill="none" stroke="midnightblue" d="M621.983,-2087.34C626.252,-2078.08 629.909,-2068.53 632.5,-2059 658.917,-1961.84 677.563,-1690.3 622.5,-1606 594.068,-1562.47 537.98,-1539.22 495.544,-1527.34"/>
<polygon fill="none" stroke="midnightblue" points="618.754,-2085.98 617.526,-2096.5 625.049,-2089.04 618.754,-2085.98"/>
</g>
<!-- Node8&#45;&gt;Node10 -->
<g id="edge10" class="edge"><title>Node8&#45;&gt;Node10</title>
<path fill="none" stroke="midnightblue" d="M568.5,-2086.24C568.5,-2062.82 568.5,-2037.47 568.5,-2014.7"/>
<polygon fill="none" stroke="midnightblue" points="565,-2086.5 568.5,-2096.5 572,-2086.5 565,-2086.5"/>
</g>
<!-- Node8&#45;&gt;Node11 -->
<g id="edge13" class="edge"><title>Node8&#45;&gt;Node11</title>
<path fill="none" stroke="midnightblue" d="M520.94,-2087.55C515.36,-2077.95 509.778,-2068.27 504.5,-2059 497.388,-2046.51 489.934,-2033.2 482.728,-2020.22"/>
<polygon fill="none" stroke="midnightblue" points="517.997,-2089.46 526.054,-2096.33 524.045,-2085.93 517.997,-2089.46"/>
</g>
<!-- Node8&#45;&gt;Node12 -->
<g id="edge16" class="edge"><title>Node8&#45;&gt;Node12</title>
<path fill="none" stroke="midnightblue" d="M498.393,-2139.32C459.14,-2120.71 411.256,-2093.5 376.5,-2059 373.611,-2056.13 370.805,-2053.12 368.082,-2049.98"/>
<polygon fill="none" stroke="midnightblue" points="497.113,-2142.58 507.656,-2143.63 500.065,-2136.23 497.113,-2142.58"/>
</g>
<!-- Node8&#45;&gt;Node14 -->
<g id="edge21" class="edge"><title>Node8&#45;&gt;Node14</title>
<path fill="none" stroke="midnightblue" d="M635.178,-2095.77C643.886,-2084.03 652.017,-2071.59 658.5,-2059 682.938,-2011.56 689.5,-1996.36 689.5,-1943 689.5,-1943 689.5,-1943 689.5,-1101 689.5,-990.687 683.101,-871.12 674.709,-761.743"/>
<polygon fill="none" stroke="midnightblue" points="632.356,-2093.7 629.071,-2103.77 637.92,-2097.94 632.356,-2093.7"/>
</g>
<!-- Node9 -->
<g id="node8" class="node"><title>Node9</title>
<polygon fill="white" stroke="#bfbfbf" points="549.5,-2279.5 549.5,-2336.5 587.5,-2336.5 587.5,-2279.5 549.5,-2279.5"/>
<text text-anchor="middle" x="568.5" y="-2324.5" font-family="Helvetica,sans-Serif" font-size="10.00">tools</text>
<polyline fill="none" stroke="#bfbfbf" points="549.5,-2317.5 587.5,-2317.5 "/>
<text text-anchor="middle" x="568.5" y="-2305.5" font-family="Helvetica,sans-Serif" font-size="10.00"> </text>
<polyline fill="none" stroke="#bfbfbf" points="549.5,-2298.5 587.5,-2298.5 "/>
<text text-anchor="middle" x="568.5" y="-2286.5" font-family="Helvetica,sans-Serif" font-size="10.00"> </text>
</g>
<!-- Node9&#45;&gt;Node8 -->
<g id="edge7" class="edge"><title>Node9&#45;&gt;Node8</title>
<path fill="none" stroke="midnightblue" d="M568.5,-2269.21C568.5,-2260.58 568.5,-2251.14 568.5,-2241.61"/>
<polygon fill="none" stroke="midnightblue" points="565,-2269.28 568.5,-2279.28 572,-2269.28 565,-2269.28"/>
</g>
<!-- Node10&#45;&gt;Node6 -->
<g id="edge8" class="edge"><title>Node10&#45;&gt;Node6</title>
<path fill="none" stroke="#404040" d="M565.319,-1869.25C560.03,-1799.44 545.954,-1691.67 508.5,-1606 506.492,-1601.41 504.206,-1596.83 501.718,-1592.32"/>
<polygon fill="none" stroke="#404040" points="501.679,-1592.26 495.185,-1589.12 495.58,-1581.92 502.074,-1585.06 501.679,-1592.26"/>
<text text-anchor="middle" x="588" y="-1704" font-family="Helvetica,sans-Serif" font-size="10.00"> +processTab</text>
</g>
<!-- Node11&#45;&gt;Node6 -->
<g id="edge11" class="edge"><title>Node11&#45;&gt;Node6</title>
<path fill="none" stroke="#404040" d="M440.5,-1863.54C440.5,-1789.04 440.5,-1676.72 440.5,-1600.07"/>
<polygon fill="none" stroke="#404040" points="440.5,-1599.62 436.5,-1593.62 440.5,-1587.62 444.5,-1593.62 440.5,-1599.62"/>
<text text-anchor="middle" x="472.5" y="-1704" font-family="Helvetica,sans-Serif" font-size="10.00"> +standardTab</text>
</g>
<!-- Node12&#45;&gt;Node6 -->
<g id="edge14" class="edge"><title>Node12&#45;&gt;Node6</title>
<path fill="none" stroke="#404040" d="M328.781,-1825.37C341.781,-1759.66 361.687,-1676.66 389.5,-1606 390.475,-1603.52 391.509,-1601.03 392.59,-1598.53"/>
<polygon fill="none" stroke="#404040" points="392.61,-1598.49 391.474,-1591.37 397.61,-1587.58 398.746,-1594.7 392.61,-1598.49"/>
<text text-anchor="middle" x="413" y="-1704" font-family="Helvetica,sans-Serif" font-size="10.00"> +codeTab</text>
</g>
<!-- Node13&#45;&gt;Node2 -->
<g id="edge17" class="edge"><title>Node13&#45;&gt;Node2</title>
<path fill="none" stroke="#404040" d="M84.3063,-1606.3C96.2847,-1555.8 113.865,-1494.22 137.5,-1442 173.159,-1363.22 225.758,-1281.93 270.808,-1218.71"/>
<polygon fill="none" stroke="#404040" points="270.977,-1218.47 271.222,-1211.27 277.969,-1208.72 277.724,-1215.93 270.977,-1218.47"/>
<text text-anchor="middle" x="145" y="-1512.5" font-family="Helvetica,sans-Serif" font-size="10.00"> &#45;m</text>
</g>
<!-- Node14&#45;&gt;Node2 -->
<g id="edge19" class="edge"><title>Node14&#45;&gt;Node2</title>
<path fill="none" stroke="#404040" d="M553.439,-595.776C519.379,-684.503 479.847,-787.486 445.394,-877.239"/>
<polygon fill="none" stroke="#404040" points="445.303,-877.477 446.887,-884.512 441.003,-888.68 439.418,-881.645 445.303,-877.477"/>
<text text-anchor="middle" x="494.5" y="-783" font-family="Helvetica,sans-Serif" font-size="10.00"> &#45;altair</text>
</g>
<!-- Node15 -->
<g id="node14" class="node"><title>Node15</title>
<polygon fill="white" stroke="#bfbfbf" points="717.5,-1073.5 717.5,-1130.5 767.5,-1130.5 767.5,-1073.5 717.5,-1073.5"/>
<text text-anchor="middle" x="742.5" y="-1118.5" font-family="Helvetica,sans-Serif" font-size="10.00">FDialog</text>
<polyline fill="none" stroke="#bfbfbf" points="717.5,-1111.5 767.5,-1111.5 "/>
<text text-anchor="middle" x="742.5" y="-1099.5" font-family="Helvetica,sans-Serif" font-size="10.00"> </text>
<polyline fill="none" stroke="#bfbfbf" points="717.5,-1092.5 767.5,-1092.5 "/>
<text text-anchor="middle" x="742.5" y="-1080.5" font-family="Helvetica,sans-Serif" font-size="10.00"> </text>
</g>
<!-- Node15&#45;&gt;Node14 -->
<g id="edge20" class="edge"><title>Node15&#45;&gt;Node14</title>
<path fill="none" stroke="midnightblue" d="M738.519,-1063.32C732.04,-1003.26 718.428,-882.186 703.5,-780 702.613,-773.931 701.708,-767.812 700.786,-761.653"/>
<polygon fill="none" stroke="midnightblue" points="735.06,-1063.89 739.608,-1073.46 742.02,-1063.14 735.06,-1063.89"/>
</g>
</g>
</svg>
        <g id="navigator" transform="translate(0 0)" fill="#404254">
                <rect fill="#f2f5e9" fill-opacity="0.5" stroke="#606060" stroke-width=".5" x="0" y="0" width="60" height="60"/>
                <use id="zoomplus" xlink:href="#zoomPlus" x="17" y="9" onmousedown="handleZoom(evt,'in')"/>
                <use id="zoomminus" xlink:href="#zoomMin" x="42" y="9" onmousedown="handleZoom(evt,'out')"/>
                <use id="reset" xlink:href="#resetDef" x="30" y="36" onmousedown="handleReset()"/>
                <g id="arrowUp" xlink:href="#dirArrow" transform="translate(30 24)" onmousedown="handlePan(0,-1)">
                  <use xlink:href="#rim" fill="#404040">
                        <set attributeName="fill" to="#808080" begin="arrowUp.mouseover" end="arrowUp.mouseout"/>
                  </use>
                  <path fill="none" stroke="white" stroke-width="1.5" d="M0,-3.0v7 M-2.5,-0.5L0,-3.0L2.5,-0.5"/>
                </g>
                <g id="arrowRight" xlink:href="#dirArrow" transform="rotate(90) translate(36 -43)" onmousedown="handlePan(1,0)">
                  <use xlink:href="#rim" fill="#404040">
                        <set attributeName="fill" to="#808080" begin="arrowRight.mouseover" end="arrowRight.mouseout"/>
                  </use>
                  <path fill="none" stroke="white" stroke-width="1.5" d="M0,-3.0v7 M-2.5,-0.5L0,-3.0L2.5,-0.5"/>
                </g>
                <g id="arrowDown" xlink:href="#dirArrow" transform="rotate(180) translate(-30 -48)" onmousedown="handlePan(0,1)">
                  <use xlink:href="#rim" fill="#404040">
                        <set attributeName="fill" to="#808080" begin="arrowDown.mouseover" end="arrowDown.mouseout"/>
                  </use>
                  <path fill="none" stroke="white" stroke-width="1.5" d="M0,-3.0v7 M-2.5,-0.5L0,-3.0L2.5,-0.5"/>
                </g>
                <g id="arrowLeft" xlink:href="#dirArrow" transform="rotate(270) translate(-36 17)" onmousedown="handlePan(-1,0)">
                  <use xlink:href="#rim" fill="#404040">
                        <set attributeName="fill" to="#808080" begin="arrowLeft.mouseover" end="arrowLeft.mouseout"/>
                  </use>
                  <path fill="none" stroke="white" stroke-width="1.5" d="M0,-3.0v7 M-2.5,-0.5L0,-3.0L2.5,-0.5"/>
                </g>
        </g>
        <svg viewBox="0 0 15 15" width="100%" height="30px" preserveAspectRatio="xMaxYMin meet">
         <g id="arrow_out" transform="scale(0.3 0.3)">
          <a xlink:href="class_main_window__coll__graph_org.svg" target="_base">
           <rect id="button" ry="5" rx="5" y="6" x="6" height="38" width="38"
                fill="#f2f5e9" fill-opacity="0.5" stroke="#606060" stroke-width="1.0"/>
           <path id="arrow"
             d="M 11.500037,31.436501 C 11.940474,20.09759 22.043105,11.32322 32.158766,21.979434 L 37.068811,17.246167 C 37.068811,17.246167 37.088388,32 37.088388,32 L 22.160133,31.978069 C 22.160133,31.978069 26.997745,27.140456 26.997745,27.140456 C 18.528582,18.264221 13.291696,25.230495 11.500037,31.436501 z"
             style="fill:#404040;"/>
          </a>
         </g>
        </svg>
</svg>
