<?xml version="1.0" encoding="UTF-8" standalone="no"?>
<!DOCTYPE svg PUBLIC "-//W3C//DTD SVG 1.1//EN"
 "http://www.w3.org/Graphics/SVG/1.1/DTD/svg11.dtd">
<!-- Generated by graphviz version 2.38.0 (20140413.2041)
 -->
<!-- Title: MatriculeInput::updateProject Pages: 1 -->
<svg width="533pt" height="127pt"
 viewBox="0.00 0.00 533.00 127.00" xmlns="http://www.w3.org/2000/svg" xmlns:xlink="http://www.w3.org/1999/xlink">
<g id="graph0" class="graph" transform="scale(1 1) rotate(0) translate(4 123)">
<title>MatriculeInput::updateProject</title>
<polygon fill="white" stroke="none" points="-4,4 -4,-123 529,-123 529,4 -4,4"/>
<!-- Node23 -->
<g id="node1" class="node"><title>Node23</title>
<polygon fill="#bfbfbf" stroke="black" points="0,-50 0,-69 152,-69 152,-50 0,-50"/>
<text text-anchor="middle" x="76" y="-57" font-family="Helvetica,sans-Serif" font-size="10.00">MatriculeInput::updateProject</text>
</g>
<!-- Node24 -->
<g id="node2" class="node"><title>Node24</title>
<g id="a_node2"><a xlink:href="class_matricule_input.html#a531419ed5d9ad186758b0ed44621a4e0" target="_top" xlink:title="Vérifie qu&#39;à l&#39;ouverture du dialogue, le répertoire par défaut dirpath est bien renseigné. ">
<polygon fill="white" stroke="black" points="188,-88.5 188,-118.5 336,-118.5 336,-88.5 188,-88.5"/>
<text text-anchor="start" x="196" y="-106.5" font-family="Helvetica,sans-Serif" font-size="10.00">MatriculeInput::checkDefault</text>
<text text-anchor="middle" x="262" y="-95.5" font-family="Helvetica,sans-Serif" font-size="10.00">Folder</text>
</a>
</g>
</g>
<!-- Node23&#45;&gt;Node24 -->
<g id="edge1" class="edge"><title>Node23&#45;&gt;Node24</title>
<path fill="none" stroke="midnightblue" d="M126.697,-71.384C148.647,-76.6331 174.705,-82.8642 197.999,-88.4346"/>
<polygon fill="midnightblue" stroke="midnightblue" points="127.465,-67.9691 116.925,-69.0473 125.837,-74.7772 127.465,-67.9691"/>
</g>
<!-- Node25 -->
<g id="node3" class="node"><title>Node25</title>
<g id="a_node3"><a xlink:href="class_matricule_input.html#a1b9d9f0c939a200f2643958749f7ec42" target="_top" xlink:title="Réinitialisation de tous les champs. ">
<polygon fill="white" stroke="black" points="207,-50 207,-69 317,-69 317,-50 207,-50"/>
<text text-anchor="middle" x="262" y="-57" font-family="Helvetica,sans-Serif" font-size="10.00">MatriculeInput::clear</text>
</a>
</g>
</g>
<!-- Node23&#45;&gt;Node25 -->
<g id="edge2" class="edge"><title>Node23&#45;&gt;Node25</title>
<path fill="none" stroke="midnightblue" d="M162.524,-59.5C177.657,-59.5 193.025,-59.5 206.979,-59.5"/>
<polygon fill="midnightblue" stroke="midnightblue" points="162.105,-56.0001 152.105,-59.5 162.105,-63.0001 162.105,-56.0001"/>
</g>
<!-- Node27 -->
<g id="node5" class="node"><title>Node27</title>
<g id="a_node5"><a xlink:href="class_matricule_input.html#a4f670aeeae85155afbe9011c741791be" target="_top" xlink:title="Constructeur de la classe MatriculeInput. ">
<polygon fill="white" stroke="black" points="197,-0.5 197,-30.5 327,-30.5 327,-0.5 197,-0.5"/>
<text text-anchor="start" x="205" y="-18.5" font-family="Helvetica,sans-Serif" font-size="10.00">MatriculeInput::Matricule</text>
<text text-anchor="middle" x="262" y="-7.5" font-family="Helvetica,sans-Serif" font-size="10.00">Input</text>
</a>
</g>
</g>
<!-- Node23&#45;&gt;Node27 -->
<g id="edge4" class="edge"><title>Node23&#45;&gt;Node27</title>
<path fill="none" stroke="midnightblue" d="M126.697,-47.616C148.647,-42.3669 174.705,-36.1358 197.999,-30.5654"/>
<polygon fill="midnightblue" stroke="midnightblue" points="125.837,-44.2228 116.925,-49.9527 127.465,-51.0309 125.837,-44.2228"/>
</g>
<!-- Node26 -->
<g id="node4" class="node"><title>Node26</title>
<g id="a_node4"><a xlink:href="class_main_window.html#a7f2aaeb01d8c0cdbe5d608ef8e866bb7" target="_top" xlink:title="Réinitialise le dialogue d&#39;extraction des matricules. ">
<polygon fill="white" stroke="black" points="372,-44.5 372,-74.5 525,-74.5 525,-44.5 372,-44.5"/>
<text text-anchor="start" x="380" y="-62.5" font-family="Helvetica,sans-Serif" font-size="10.00">MainWindow::resetExtraction</text>
<text text-anchor="middle" x="448.5" y="-51.5" font-family="Helvetica,sans-Serif" font-size="10.00">Bulletins</text>
</a>
</g>
</g>
<!-- Node25&#45;&gt;Node26 -->
<g id="edge3" class="edge"><title>Node25&#45;&gt;Node26</title>
<path fill="none" stroke="midnightblue" d="M327.604,-59.5C341.944,-59.5 357.267,-59.5 371.999,-59.5"/>
<polygon fill="midnightblue" stroke="midnightblue" points="327.358,-56.0001 317.358,-59.5 327.358,-63.0001 327.358,-56.0001"/>
</g>
</g>
</svg>
