<?xml version="1.0" encoding="UTF-8" standalone="no"?>
<!DOCTYPE svg PUBLIC "-//W3C//DTD SVG 1.1//EN"
 "http://www.w3.org/Graphics/SVG/1.1/DTD/svg11.dtd">
<!-- Generated by graphviz version 2.38.0 (20140413.2041)
 -->
<!-- Title: tools::IOControl Pages: 1 -->
<svg width="323pt" height="47pt"
 viewBox="0.00 0.00 323.00 47.00" xmlns="http://www.w3.org/2000/svg" xmlns:xlink="http://www.w3.org/1999/xlink">
<g id="graph0" class="graph" transform="scale(1 1) rotate(0) translate(4 43)">
<title>tools::IOControl</title>
<polygon fill="white" stroke="none" points="-4,4 -4,-43 319,-43 319,4 -4,4"/>
<!-- Node106 -->
<g id="node1" class="node"><title>Node106</title>
<polygon fill="#bfbfbf" stroke="black" points="0,-0.5 0,-19.5 86,-19.5 86,-0.5 0,-0.5"/>
<text text-anchor="middle" x="43" y="-7.5" font-family="Helvetica,sans-Serif" font-size="10.00">tools::IOControl</text>
</g>
<!-- Node107 -->
<g id="node2" class="node"><title>Node107</title>
<g id="a_node2"><a xlink:href="classtools.html#a37c9c486d90129b0d6a4ac93f29fd5bb" target="_top" xlink:title="tools::copyDir">
<polygon fill="white" stroke="black" points="122,-19.5 122,-38.5 199,-38.5 199,-19.5 122,-19.5"/>
<text text-anchor="middle" x="160.5" y="-26.5" font-family="Helvetica,sans-Serif" font-size="10.00">tools::copyDir</text>
</a>
</g>
</g>
<!-- Node106&#45;&gt;Node107 -->
<g id="edge1" class="edge"><title>Node106&#45;&gt;Node107</title>
<path fill="none" stroke="midnightblue" d="M86.0249,-16.9132C94.4624,-18.3012 103.385,-19.7689 111.993,-21.185"/>
<polygon fill="midnightblue" stroke="midnightblue" points="111.471,-24.6462 121.907,-22.8159 112.608,-17.739 111.471,-24.6462"/>
</g>
<!-- Node108 -->
<g id="node3" class="node"><title>Node108</title>
<g id="a_node3"><a xlink:href="classtools.html#a0765c68c41d7c957f1fb0f0da8b4a9c9" target="_top" xlink:title="tools::copyFile">
<polygon fill="white" stroke="black" points="235,-0.5 235,-19.5 315,-19.5 315,-0.5 235,-0.5"/>
<text text-anchor="middle" x="275" y="-7.5" font-family="Helvetica,sans-Serif" font-size="10.00">tools::copyFile</text>
</a>
</g>
</g>
<!-- Node107&#45;&gt;Node108 -->
<g id="edge2" class="edge"><title>Node107&#45;&gt;Node108</title>
<path fill="none" stroke="midnightblue" d="M199.274,-22.6204C207.532,-21.2257 216.388,-19.73 225.013,-18.2734"/>
<polygon fill="midnightblue" stroke="midnightblue" points="225.704,-21.7064 234.981,-16.5899 224.538,-14.8041 225.704,-21.7064"/>
</g>
<!-- Node108&#45;&gt;Node106 -->
<g id="edge3" class="edge"><title>Node108&#45;&gt;Node106</title>
<path fill="none" stroke="midnightblue" d="M234.768,-10C196.589,-10 138.336,-10 96.2466,-10"/>
<polygon fill="midnightblue" stroke="midnightblue" points="96.1856,-6.5001 86.1855,-10 96.1855,-13.5001 96.1856,-6.5001"/>
</g>
</g>
</svg>
