<?xml version="1.0" encoding="UTF-8" standalone="no"?>
<!DOCTYPE svg PUBLIC "-//W3C//DTD SVG 1.1//EN"
 "http://www.w3.org/Graphics/SVG/1.1/DTD/svg11.dtd">
<!-- Generated by graphviz version 2.38.0 (20140413.2041)
 -->
<!-- Title: FLineEdit Pages: 1 -->
<svg width="234pt" height="573pt"
 viewBox="0.00 0.00 233.50 573.00" xmlns="http://www.w3.org/2000/svg" xmlns:xlink="http://www.w3.org/1999/xlink">
<g id="graph0" class="graph" transform="scale(1 1) rotate(0) translate(4 569)">
<title>FLineEdit</title>
<polygon fill="white" stroke="none" points="-4,4 -4,-569 229.5,-569 229.5,4 -4,4"/>
<!-- Node5 -->
<g id="node1" class="node"><title>Node5</title>
<polygon fill="#bfbfbf" stroke="black" points="31.5,-0.5 31.5,-145.5 153.5,-145.5 153.5,-0.5 31.5,-0.5"/>
<text text-anchor="middle" x="92.5" y="-133.5" font-family="Helvetica,sans-Serif" font-size="10.00">FLineEdit</text>
<polyline fill="none" stroke="black" points="31.5,-126.5 153.5,-126.5 "/>
<text text-anchor="middle" x="92.5" y="-114.5" font-family="Helvetica,sans-Serif" font-size="10.00"> </text>
<polyline fill="none" stroke="black" points="31.5,-107.5 153.5,-107.5 "/>
<text text-anchor="start" x="39.5" y="-95.5" font-family="Helvetica,sans-Serif" font-size="10.00">+ FLineEdit()</text>
<text text-anchor="start" x="39.5" y="-84.5" font-family="Helvetica,sans-Serif" font-size="10.00">+ FLineEdit()</text>
<text text-anchor="start" x="39.5" y="-73.5" font-family="Helvetica,sans-Serif" font-size="10.00">+ FLineEdit()</text>
<text text-anchor="start" x="39.5" y="-62.5" font-family="Helvetica,sans-Serif" font-size="10.00">+ FLineEdit()</text>
<text text-anchor="start" x="39.5" y="-51.5" font-family="Helvetica,sans-Serif" font-size="10.00">+ FLineEdit()</text>
<text text-anchor="start" x="39.5" y="-40.5" font-family="Helvetica,sans-Serif" font-size="10.00">+ FLineEdit()</text>
<text text-anchor="start" x="39.5" y="-29.5" font-family="Helvetica,sans-Serif" font-size="10.00">+ isAbstractEnabled()</text>
<text text-anchor="start" x="39.5" y="-18.5" font-family="Helvetica,sans-Serif" font-size="10.00">+ setWidgetFromXml()</text>
<text text-anchor="start" x="39.5" y="-7.5" font-family="Helvetica,sans-Serif" font-size="10.00">+ setXmlFromWidget()</text>
</g>
<!-- Node6 -->
<g id="node2" class="node"><title>Node6</title>
<polygon fill="white" stroke="#bfbfbf" points="0,-298 0,-355 63,-355 63,-298 0,-298"/>
<text text-anchor="middle" x="31.5" y="-343" font-family="Helvetica,sans-Serif" font-size="10.00">QLineEdit</text>
<polyline fill="none" stroke="#bfbfbf" points="0,-336 63,-336 "/>
<text text-anchor="middle" x="31.5" y="-324" font-family="Helvetica,sans-Serif" font-size="10.00"> </text>
<polyline fill="none" stroke="#bfbfbf" points="0,-317 63,-317 "/>
<text text-anchor="middle" x="31.5" y="-305" font-family="Helvetica,sans-Serif" font-size="10.00"> </text>
</g>
<!-- Node6&#45;&gt;Node5 -->
<g id="edge1" class="edge"><title>Node6&#45;&gt;Node5</title>
<path fill="none" stroke="midnightblue" d="M40.6835,-287.637C49.7699,-250.174 63.9049,-191.896 75.1177,-145.666"/>
<polygon fill="none" stroke="midnightblue" points="37.2169,-287.081 38.2611,-297.624 44.0197,-288.731 37.2169,-287.081"/>
</g>
<!-- Node7 -->
<g id="node3" class="node"><title>Node7</title>
<g id="a_node3"><a xlink:href="class_f_abstract_widget.html" target="_top" xlink:title="{FAbstractWidget\n|+ commandLineList\l+ commandLineType\l+ disabledObjects\l+ enabledObjects\l+ optionLabel\l+ status\l# componentList\l# description\l# hashKey\l# widgetDepth\l|+ commandLineStringList()\l+ getComponentList()\l+ getDepth()\l+ getDescription()\l+ getHashKey()\l+ isAbstractDisabled()\l+ isAbstractEnabled()\l+ setDisableObjects()\l+ setHashKey()\l+ setWidgetFromXml()\l+ setXmlFromWidget()\l# FCore()\l# FCore()\l}">
<polygon fill="white" stroke="black" points="81.5,-182.5 81.5,-470.5 225.5,-470.5 225.5,-182.5 81.5,-182.5"/>
<text text-anchor="middle" x="153.5" y="-458.5" font-family="Helvetica,sans-Serif" font-size="10.00">FAbstractWidget</text>
<polyline fill="none" stroke="black" points="81.5,-451.5 225.5,-451.5 "/>
<text text-anchor="start" x="89.5" y="-439.5" font-family="Helvetica,sans-Serif" font-size="10.00">+ commandLineList</text>
<text text-anchor="start" x="89.5" y="-428.5" font-family="Helvetica,sans-Serif" font-size="10.00">+ commandLineType</text>
<text text-anchor="start" x="89.5" y="-417.5" font-family="Helvetica,sans-Serif" font-size="10.00">+ disabledObjects</text>
<text text-anchor="start" x="89.5" y="-406.5" font-family="Helvetica,sans-Serif" font-size="10.00">+ enabledObjects</text>
<text text-anchor="start" x="89.5" y="-395.5" font-family="Helvetica,sans-Serif" font-size="10.00">+ optionLabel</text>
<text text-anchor="start" x="89.5" y="-384.5" font-family="Helvetica,sans-Serif" font-size="10.00">+ status</text>
<text text-anchor="start" x="89.5" y="-373.5" font-family="Helvetica,sans-Serif" font-size="10.00"># componentList</text>
<text text-anchor="start" x="89.5" y="-362.5" font-family="Helvetica,sans-Serif" font-size="10.00"># description</text>
<text text-anchor="start" x="89.5" y="-351.5" font-family="Helvetica,sans-Serif" font-size="10.00"># hashKey</text>
<text text-anchor="start" x="89.5" y="-340.5" font-family="Helvetica,sans-Serif" font-size="10.00"># widgetDepth</text>
<polyline fill="none" stroke="black" points="81.5,-333.5 225.5,-333.5 "/>
<text text-anchor="start" x="89.5" y="-321.5" font-family="Helvetica,sans-Serif" font-size="10.00">+ commandLineStringList()</text>
<text text-anchor="start" x="89.5" y="-310.5" font-family="Helvetica,sans-Serif" font-size="10.00">+ getComponentList()</text>
<text text-anchor="start" x="89.5" y="-299.5" font-family="Helvetica,sans-Serif" font-size="10.00">+ getDepth()</text>
<text text-anchor="start" x="89.5" y="-288.5" font-family="Helvetica,sans-Serif" font-size="10.00">+ getDescription()</text>
<text text-anchor="start" x="89.5" y="-277.5" font-family="Helvetica,sans-Serif" font-size="10.00">+ getHashKey()</text>
<text text-anchor="start" x="89.5" y="-266.5" font-family="Helvetica,sans-Serif" font-size="10.00">+ isAbstractDisabled()</text>
<text text-anchor="start" x="89.5" y="-255.5" font-family="Helvetica,sans-Serif" font-size="10.00">+ isAbstractEnabled()</text>
<text text-anchor="start" x="89.5" y="-244.5" font-family="Helvetica,sans-Serif" font-size="10.00">+ setDisableObjects()</text>
<text text-anchor="start" x="89.5" y="-233.5" font-family="Helvetica,sans-Serif" font-size="10.00">+ setHashKey()</text>
<text text-anchor="start" x="89.5" y="-222.5" font-family="Helvetica,sans-Serif" font-size="10.00">+ setWidgetFromXml()</text>
<text text-anchor="start" x="89.5" y="-211.5" font-family="Helvetica,sans-Serif" font-size="10.00">+ setXmlFromWidget()</text>
<text text-anchor="start" x="89.5" y="-200.5" font-family="Helvetica,sans-Serif" font-size="10.00"># FCore()</text>
<text text-anchor="start" x="89.5" y="-189.5" font-family="Helvetica,sans-Serif" font-size="10.00"># FCore()</text>
</a>
</g>
</g>
<!-- Node7&#45;&gt;Node5 -->
<g id="edge2" class="edge"><title>Node7&#45;&gt;Node5</title>
<path fill="none" stroke="midnightblue" d="M116.44,-172.704C114.179,-163.383 111.969,-154.271 109.862,-145.584"/>
<polygon fill="none" stroke="midnightblue" points="113.054,-173.59 118.812,-182.483 119.856,-171.94 113.054,-173.59"/>
</g>
<!-- Node8 -->
<g id="node4" class="node"><title>Node8</title>
<g id="a_node4"><a xlink:href="classflags.html" target="_top" xlink:title="{flags\n||}">
<polygon fill="white" stroke="black" points="134,-507.5 134,-564.5 173,-564.5 173,-507.5 134,-507.5"/>
<text text-anchor="middle" x="153.5" y="-552.5" font-family="Helvetica,sans-Serif" font-size="10.00">flags</text>
<polyline fill="none" stroke="black" points="134,-545.5 173,-545.5 "/>
<text text-anchor="middle" x="153.5" y="-533.5" font-family="Helvetica,sans-Serif" font-size="10.00"> </text>
<polyline fill="none" stroke="black" points="134,-526.5 173,-526.5 "/>
<text text-anchor="middle" x="153.5" y="-514.5" font-family="Helvetica,sans-Serif" font-size="10.00"> </text>
</a>
</g>
</g>
<!-- Node8&#45;&gt;Node7 -->
<g id="edge3" class="edge"><title>Node8&#45;&gt;Node7</title>
<path fill="none" stroke="midnightblue" d="M153.5,-497.377C153.5,-489.29 153.5,-480.284 153.5,-470.756"/>
<polygon fill="none" stroke="midnightblue" points="150,-497.446 153.5,-507.446 157,-497.446 150,-497.446"/>
</g>
</g>
</svg>
