<?xml version="1.0" encoding="UTF-8" standalone="no"?>
<!DOCTYPE svg PUBLIC "-//W3C//DTD SVG 1.1//EN"
 "http://www.w3.org/Graphics/SVG/1.1/DTD/svg11.dtd">
<!-- Generated by graphviz version 2.38.0 (20140413.2041)
 -->
<!-- Title: Altair::closeProject Pages: 1 -->
<!--zoomable 344 -->
<svg id="main" version="1.1" xmlns="http://www.w3.org/2000/svg" xmlns:xlink="http://www.w3.org/1999/xlink" xml:space="preserve" onload="init(evt)">
<style type="text/css"><![CDATA[
.edge:hover path { stroke: red; }
.edge:hover polygon { stroke: red; fill: red; }
]]></style>
<script type="text/javascript"><![CDATA[
var edges = document.getElementsByTagName('g');
if (edges && edges.length) {
  for (var i=0;i<edges.length;i++) {
    if (edges[i].id.substr(0,4)=='edge') {
      edges[i].setAttribute('class','edge');
    }
  }
}
]]></script>
        <defs>
                <circle id="rim" cx="0" cy="0" r="7"/>
                <circle id="rim2" cx="0" cy="0" r="3.5"/>
                <g id="zoomPlus">
                        <use xlink:href="#rim" fill="#404040">
                                <set attributeName="fill" to="#808080" begin="zoomplus.mouseover" end="zoomplus.mouseout"/>
                        </use>
                        <path d="M-4,0h8M0,-4v8" fill="none" stroke="white" stroke-width="1.5" pointer-events="none"/>
                </g>
                <g id="zoomMin">
                        <use xlink:href="#rim" fill="#404040">
                                <set attributeName="fill" to="#808080" begin="zoomminus.mouseover" end="zoomminus.mouseout"/>
                        </use>
                        <path d="M-4,0h8" fill="none" stroke="white" stroke-width="1.5" pointer-events="none"/>
                </g>
                <g id="dirArrow">
                        <path fill="none" stroke="white" stroke-width="1.5" d="M0,-3.0v7 M-2.5,-0.5L0,-3.0L2.5,-0.5"/>
                </g>
               <g id="resetDef">
                       <use xlink:href="#rim2" fill="#404040">
                               <set attributeName="fill" to="#808080" begin="reset.mouseover" end="reset.mouseout"/>
                       </use>
               </g>
        </defs>

<script type="text/javascript">
var viewWidth = 862;
var viewHeight = 344;
var sectionId = 'dynsection-12';
</script>
<script xlink:href="svgpan.js"/>
<svg id="graph" class="graph">
<g id="viewport">
<title>Altair::closeProject</title>
<polygon fill="white" stroke="none" points="-4,4 -4,-340 858,-340 858,4 -4,4"/>
<!-- Node157 -->
<g id="node1" class="node"><title>Node157</title>
<polygon fill="#bfbfbf" stroke="black" points="0,-152.5 0,-171.5 99,-171.5 99,-152.5 0,-152.5"/>
<text text-anchor="middle" x="49.5" y="-159.5" font-family="Helvetica,sans-Serif" font-size="10.00">Altair::closeProject</text>
</g>
<!-- Node158 -->
<g id="node2" class="node"><title>Node158</title>
<g id="a_node2"><a xlink:href="class_f_list_frame.html#a5c6ce884a0169251e359364921d1f89c" target="_top" xlink:title="FListFrame::addNewTab">
<polygon fill="white" stroke="black" points="151.5,-316.5 151.5,-335.5 276.5,-335.5 276.5,-316.5 151.5,-316.5"/>
<text text-anchor="middle" x="214" y="-323.5" font-family="Helvetica,sans-Serif" font-size="10.00">FListFrame::addNewTab</text>
</a>
</g>
</g>
<!-- Node157&#45;&gt;Node158 -->
<g id="edge1" class="edge"><title>Node157&#45;&gt;Node158</title>
<path fill="none" stroke="midnightblue" d="M53.6367,-171.816C62.2811,-197.284 88.9115,-265.999 135,-302 140.401,-306.219 146.547,-309.701 152.962,-312.573"/>
<polygon fill="midnightblue" stroke="midnightblue" points="151.913,-315.922 162.498,-316.36 154.496,-309.416 151.913,-315.922"/>
</g>
<!-- Node159 -->
<g id="node3" class="node"><title>Node159</title>
<g id="a_node3"><a xlink:href="class_f_list_frame.html#a4bf0d0d8e56418df395b020d2e66db5f" target="_top" xlink:title="Récupère la taille courante (0&#45;based) du conteneur widgetContainer Cette taille doit en principe être...">
<polygon fill="white" stroke="black" points="728,-278.5 728,-297.5 837,-297.5 837,-278.5 728,-278.5"/>
<text text-anchor="middle" x="782.5" y="-285.5" font-family="Helvetica,sans-Serif" font-size="10.00">FListFrame::getRank</text>
</a>
</g>
</g>
<!-- Node157&#45;&gt;Node159 -->
<g id="edge16" class="edge"><title>Node157&#45;&gt;Node159</title>
<path fill="none" stroke="midnightblue" d="M81.1605,-171.514C154.188,-193.656 344.53,-248.321 508,-269 579.571,-278.054 662.264,-283.047 717.821,-285.614"/>
<polygon fill="midnightblue" stroke="midnightblue" points="717.724,-289.113 727.871,-286.066 718.038,-282.12 717.724,-289.113"/>
</g>
<!-- Node160 -->
<g id="node4" class="node"><title>Node160</title>
<g id="a_node4"><a xlink:href="class_altair.html#a5b3c33b6ae4f6b57b5593245751ef203" target="_top" xlink:title="Efface toutes les données du projet .alt et réinitialise l&#39;interface et les conteneurs de données int...">
<polygon fill="white" stroke="black" points="155,-152.5 155,-171.5 273,-171.5 273,-152.5 155,-152.5"/>
<text text-anchor="middle" x="214" y="-159.5" font-family="Helvetica,sans-Serif" font-size="10.00">Altair::clearProjectData</text>
</a>
</g>
</g>
<!-- Node157&#45;&gt;Node160 -->
<g id="edge3" class="edge"><title>Node157&#45;&gt;Node160</title>
<path fill="none" stroke="midnightblue" d="M99.2554,-162C113.46,-162 129.25,-162 144.435,-162"/>
<polygon fill="midnightblue" stroke="midnightblue" points="144.823,-165.5 154.823,-162 144.823,-158.5 144.823,-165.5"/>
</g>
<!-- Node165 -->
<g id="node9" class="node"><title>Node165</title>
<g id="a_node9"><a xlink:href="class_altair.html#a78a2870bb9b316c5ad6bcbd64471eeb8" target="_top" xlink:title="Renvoie la taille des données exportées. ">
<polygon fill="white" stroke="black" points="751,-57.5 751,-76.5 814,-76.5 814,-57.5 751,-57.5"/>
<text text-anchor="middle" x="782.5" y="-64.5" font-family="Helvetica,sans-Serif" font-size="10.00">Altair::size</text>
</a>
</g>
</g>
<!-- Node157&#45;&gt;Node165 -->
<g id="edge18" class="edge"><title>Node157&#45;&gt;Node165</title>
<path fill="none" stroke="midnightblue" d="M83.1194,-152.488C157.59,-131.378 346.189,-81.3498 508,-67 590.252,-59.7056 686.967,-62.3217 740.538,-64.7497"/>
<polygon fill="midnightblue" stroke="midnightblue" points="740.505,-68.2519 750.659,-65.2297 740.836,-61.2598 740.505,-68.2519"/>
</g>
<!-- Node170 -->
<g id="node14" class="node"><title>Node170</title>
<g id="a_node14"><a xlink:href="class_f_list_frame.html#aa893c83c81b1780a7978433a107962f1" target="_top" xlink:title="Accesseur en lecture de widgetContainer. ">
<polygon fill="white" stroke="black" points="135,-0.5 135,-19.5 293,-19.5 293,-0.5 135,-0.5"/>
<text text-anchor="middle" x="214" y="-7.5" font-family="Helvetica,sans-Serif" font-size="10.00">FListFrame::getWidgetContainer</text>
</a>
</g>
</g>
<!-- Node157&#45;&gt;Node170 -->
<g id="edge17" class="edge"><title>Node157&#45;&gt;Node170</title>
<path fill="none" stroke="midnightblue" d="M54.1616,-152.333C63.6796,-128.511 91.5241,-66.5666 135,-34 140.769,-29.6786 147.326,-26.1269 154.129,-23.2097"/>
<polygon fill="midnightblue" stroke="midnightblue" points="155.425,-26.4613 163.508,-19.6123 152.918,-19.9256 155.425,-26.4613"/>
</g>
<!-- Node158&#45;&gt;Node159 -->
<g id="edge2" class="edge"><title>Node158&#45;&gt;Node159</title>
<path fill="none" stroke="midnightblue" d="M276.866,-324.316C365.29,-321.558 532.85,-315.031 675,-302 688.898,-300.726 703.771,-299 717.862,-297.196"/>
<polygon fill="midnightblue" stroke="midnightblue" points="718.498,-300.643 727.959,-295.874 717.589,-293.702 718.498,-300.643"/>
</g>
<!-- Node161 -->
<g id="node5" class="node"><title>Node161</title>
<g id="a_node5"><a xlink:href="class_f_list_frame.html#a018583305b4464d69c66805aceb1a2ac" target="_top" xlink:title="FListFrame::initializeWidget\lContainer">
<polygon fill="white" stroke="black" points="331.5,-196 331.5,-226 469.5,-226 469.5,-196 331.5,-196"/>
<text text-anchor="start" x="339.5" y="-214" font-family="Helvetica,sans-Serif" font-size="10.00">FListFrame::initializeWidget</text>
<text text-anchor="middle" x="400.5" y="-203" font-family="Helvetica,sans-Serif" font-size="10.00">Container</text>
</a>
</g>
</g>
<!-- Node160&#45;&gt;Node161 -->
<g id="edge4" class="edge"><title>Node160&#45;&gt;Node161</title>
<path fill="none" stroke="midnightblue" d="M251.011,-171.564C274.268,-177.74 305.235,-185.965 332.871,-193.304"/>
<polygon fill="midnightblue" stroke="midnightblue" points="332.318,-196.779 342.881,-195.963 334.115,-190.013 332.318,-196.779"/>
</g>
<!-- Node162 -->
<g id="node6" class="node"><title>Node162</title>
<g id="a_node6"><a xlink:href="class_altair.html#abf7d1895e52f7b8d7d26e4b5a0e6146a" target="_top" xlink:title="Rafraîchit le gestionnaire de projet à la droite de l&#39;interface. ">
<polygon fill="white" stroke="black" points="329,-147 329,-177 472,-177 472,-147 329,-147"/>
<text text-anchor="start" x="337" y="-165" font-family="Helvetica,sans-Serif" font-size="10.00">Altair::refreshProjectManager</text>
<text text-anchor="middle" x="400.5" y="-154" font-family="Helvetica,sans-Serif" font-size="10.00">Values</text>
</a>
</g>
</g>
<!-- Node160&#45;&gt;Node162 -->
<g id="edge5" class="edge"><title>Node160&#45;&gt;Node162</title>
<path fill="none" stroke="midnightblue" d="M273.124,-162C287.594,-162 303.368,-162 318.712,-162"/>
<polygon fill="midnightblue" stroke="midnightblue" points="318.715,-165.5 328.715,-162 318.715,-158.5 318.715,-165.5"/>
</g>
<!-- Node169 -->
<g id="node13" class="node"><title>Node169</title>
<g id="a_node13"><a xlink:href="classcode_page.html#ad89c8fd4b641a2b884ac3980759fe329" target="_top" xlink:title="Réinitialisation de l&#39;élément de texte variable de l&#39;onglet. ">
<polygon fill="white" stroke="black" points="345,-108.5 345,-127.5 456,-127.5 456,-108.5 345,-108.5"/>
<text text-anchor="middle" x="400.5" y="-115.5" font-family="Helvetica,sans-Serif" font-size="10.00">codePage::resetLabel</text>
</a>
</g>
</g>
<!-- Node160&#45;&gt;Node169 -->
<g id="edge15" class="edge"><title>Node160&#45;&gt;Node169</title>
<path fill="none" stroke="midnightblue" d="M255.034,-152.453C282.838,-145.822 320.077,-136.941 349.783,-129.857"/>
<polygon fill="midnightblue" stroke="midnightblue" points="350.629,-133.253 359.544,-127.529 349.005,-126.444 350.629,-133.253"/>
</g>
<!-- Node163 -->
<g id="node7" class="node"><title>Node163</title>
<g id="a_node7"><a xlink:href="class_f_list_frame.html#a58337134c45f052ad6bb45c014fd5c3f" target="_top" xlink:title="Récupère les titres d&#39;onglet. ">
<polygon fill="white" stroke="black" points="526,-240.5 526,-259.5 657,-259.5 657,-240.5 526,-240.5"/>
<text text-anchor="middle" x="591.5" y="-247.5" font-family="Helvetica,sans-Serif" font-size="10.00">FListFrame::getTabLabels</text>
</a>
</g>
</g>
<!-- Node162&#45;&gt;Node163 -->
<g id="edge6" class="edge"><title>Node162&#45;&gt;Node163</title>
<path fill="none" stroke="midnightblue" d="M454.299,-177.089C460.526,-179.906 466.583,-183.19 472,-187 492.668,-201.535 486.535,-217.67 508,-231 511.414,-233.12 515.04,-235.004 518.794,-236.678"/>
<polygon fill="midnightblue" stroke="midnightblue" points="517.752,-240.029 528.34,-240.422 520.308,-233.513 517.752,-240.029"/>
</g>
<!-- Node164 -->
<g id="node8" class="node"><title>Node164</title>
<g id="a_node8"><a xlink:href="class_altair.html#adc79f280e4f580298a8dd80e2f7cf712" target="_top" xlink:title="Parcourt la table de chachage Hash::wrapper dans laquelle sont stockés à la clé &quot;XHL&quot; les chemins des...">
<polygon fill="white" stroke="black" points="513,-76.5 513,-95.5 670,-95.5 670,-76.5 513,-76.5"/>
<text text-anchor="middle" x="591.5" y="-83.5" font-family="Helvetica,sans-Serif" font-size="10.00">Altair::processSecondLevelData</text>
</a>
</g>
</g>
<!-- Node162&#45;&gt;Node164 -->
<g id="edge8" class="edge"><title>Node162&#45;&gt;Node164</title>
<path fill="none" stroke="midnightblue" d="M451.519,-146.993C458.597,-144.094 465.627,-140.766 472,-137 490.43,-126.109 488.977,-114.819 508,-105 512.537,-102.658 517.361,-100.602 522.311,-98.7977"/>
<polygon fill="midnightblue" stroke="midnightblue" points="523.539,-102.078 531.944,-95.6277 521.351,-95.4291 523.539,-102.078"/>
</g>
<!-- Node166 -->
<g id="node10" class="node"><title>Node166</title>
<g id="a_node10"><a xlink:href="namespace_xml_method.html#ac0a708c4bc4c55df24e60816d69a90cf" target="_top" xlink:title="XmlMethod::displaySecond\lLevelData">
<polygon fill="white" stroke="black" points="523.5,-191 523.5,-221 659.5,-221 659.5,-191 523.5,-191"/>
<text text-anchor="start" x="531.5" y="-209" font-family="Helvetica,sans-Serif" font-size="10.00">XmlMethod::displaySecond</text>
<text text-anchor="middle" x="591.5" y="-198" font-family="Helvetica,sans-Serif" font-size="10.00">LevelData</text>
</a>
</g>
</g>
<!-- Node162&#45;&gt;Node166 -->
<g id="edge10" class="edge"><title>Node162&#45;&gt;Node166</title>
<path fill="none" stroke="midnightblue" d="M466.014,-177.019C482.043,-180.751 499.356,-184.781 515.828,-188.616"/>
<polygon fill="midnightblue" stroke="midnightblue" points="515.422,-192.115 525.956,-190.974 517.01,-185.297 515.422,-192.115"/>
</g>
<!-- Node167 -->
<g id="node11" class="node"><title>Node167</title>
<g id="a_node11"><a xlink:href="namespace_xml_method.html#aad1e553eb1ec6f1bb128cc6744cba9e3" target="_top" xlink:title="XmlMethod::displayTextData">
<polygon fill="white" stroke="black" points="711,-152.5 711,-171.5 854,-171.5 854,-152.5 711,-152.5"/>
<text text-anchor="middle" x="782.5" y="-159.5" font-family="Helvetica,sans-Serif" font-size="10.00">XmlMethod::displayTextData</text>
</a>
</g>
</g>
<!-- Node162&#45;&gt;Node167 -->
<g id="edge12" class="edge"><title>Node162&#45;&gt;Node167</title>
<path fill="none" stroke="midnightblue" d="M472.085,-162C536.904,-162 632.906,-162 700.754,-162"/>
<polygon fill="midnightblue" stroke="midnightblue" points="700.972,-165.5 710.972,-162 700.972,-158.5 700.972,-165.5"/>
</g>
<!-- Node168 -->
<g id="node12" class="node"><title>Node168</title>
<g id="a_node12"><a xlink:href="namespace_xml_method.html#a796c4f03d9e7a8057f0102b87eecbd3e" target="_top" xlink:title="XmlMethod::displayFirstLevelData">
<polygon fill="white" stroke="black" points="508,-114.5 508,-133.5 675,-133.5 675,-114.5 508,-114.5"/>
<text text-anchor="middle" x="591.5" y="-121.5" font-family="Helvetica,sans-Serif" font-size="10.00">XmlMethod::displayFirstLevelData</text>
</a>
</g>
</g>
<!-- Node162&#45;&gt;Node168 -->
<g id="edge13" class="edge"><title>Node162&#45;&gt;Node168</title>
<path fill="none" stroke="midnightblue" d="M472.145,-147.796C492.324,-143.739 514.055,-139.37 533.321,-135.496"/>
<polygon fill="midnightblue" stroke="midnightblue" points="534.035,-138.923 543.149,-133.52 532.656,-132.06 534.035,-138.923"/>
</g>
<!-- Node163&#45;&gt;Node159 -->
<g id="edge7" class="edge"><title>Node163&#45;&gt;Node159</title>
<path fill="none" stroke="midnightblue" d="M640.193,-259.589C665.695,-264.716 697.282,-271.067 724.12,-276.463"/>
<polygon fill="midnightblue" stroke="midnightblue" points="723.657,-279.94 734.15,-278.48 725.036,-273.077 723.657,-279.94"/>
</g>
<!-- Node164&#45;&gt;Node165 -->
<g id="edge9" class="edge"><title>Node164&#45;&gt;Node165</title>
<path fill="none" stroke="midnightblue" d="M670.192,-78.1897C694.405,-75.7556 720.14,-73.1685 740.758,-71.0957"/>
<polygon fill="midnightblue" stroke="midnightblue" points="741.139,-74.5752 750.739,-70.0924 740.439,-67.6103 741.139,-74.5752"/>
</g>
<!-- Node166&#45;&gt;Node167 -->
<g id="edge11" class="edge"><title>Node166&#45;&gt;Node167</title>
<path fill="none" stroke="midnightblue" d="M657.014,-190.981C681.141,-185.364 708.176,-179.07 730.873,-173.786"/>
<polygon fill="midnightblue" stroke="midnightblue" points="731.694,-177.189 740.64,-171.512 730.107,-170.371 731.694,-177.189"/>
</g>
<!-- Node168&#45;&gt;Node167 -->
<g id="edge14" class="edge"><title>Node168&#45;&gt;Node167</title>
<path fill="none" stroke="midnightblue" d="M640.193,-133.589C665.695,-138.716 697.282,-145.067 724.12,-150.463"/>
<polygon fill="midnightblue" stroke="midnightblue" points="723.657,-153.94 734.15,-152.48 725.036,-147.077 723.657,-153.94"/>
</g>
</g>
</svg>
        <g id="navigator" transform="translate(0 0)" fill="#404254">
                <rect fill="#f2f5e9" fill-opacity="0.5" stroke="#606060" stroke-width=".5" x="0" y="0" width="60" height="60"/>
                <use id="zoomplus" xlink:href="#zoomPlus" x="17" y="9" onmousedown="handleZoom(evt,'in')"/>
                <use id="zoomminus" xlink:href="#zoomMin" x="42" y="9" onmousedown="handleZoom(evt,'out')"/>
                <use id="reset" xlink:href="#resetDef" x="30" y="36" onmousedown="handleReset()"/>
                <g id="arrowUp" xlink:href="#dirArrow" transform="translate(30 24)" onmousedown="handlePan(0,-1)">
                  <use xlink:href="#rim" fill="#404040">
                        <set attributeName="fill" to="#808080" begin="arrowUp.mouseover" end="arrowUp.mouseout"/>
                  </use>
                  <path fill="none" stroke="white" stroke-width="1.5" d="M0,-3.0v7 M-2.5,-0.5L0,-3.0L2.5,-0.5"/>
                </g>
                <g id="arrowRight" xlink:href="#dirArrow" transform="rotate(90) translate(36 -43)" onmousedown="handlePan(1,0)">
                  <use xlink:href="#rim" fill="#404040">
                        <set attributeName="fill" to="#808080" begin="arrowRight.mouseover" end="arrowRight.mouseout"/>
                  </use>
                  <path fill="none" stroke="white" stroke-width="1.5" d="M0,-3.0v7 M-2.5,-0.5L0,-3.0L2.5,-0.5"/>
                </g>
                <g id="arrowDown" xlink:href="#dirArrow" transform="rotate(180) translate(-30 -48)" onmousedown="handlePan(0,1)">
                  <use xlink:href="#rim" fill="#404040">
                        <set attributeName="fill" to="#808080" begin="arrowDown.mouseover" end="arrowDown.mouseout"/>
                  </use>
                  <path fill="none" stroke="white" stroke-width="1.5" d="M0,-3.0v7 M-2.5,-0.5L0,-3.0L2.5,-0.5"/>
                </g>
                <g id="arrowLeft" xlink:href="#dirArrow" transform="rotate(270) translate(-36 17)" onmousedown="handlePan(-1,0)">
                  <use xlink:href="#rim" fill="#404040">
                        <set attributeName="fill" to="#808080" begin="arrowLeft.mouseover" end="arrowLeft.mouseout"/>
                  </use>
                  <path fill="none" stroke="white" stroke-width="1.5" d="M0,-3.0v7 M-2.5,-0.5L0,-3.0L2.5,-0.5"/>
                </g>
        </g>
        <svg viewBox="0 0 15 15" width="100%" height="30px" preserveAspectRatio="xMaxYMin meet">
         <g id="arrow_out" transform="scale(0.3 0.3)">
          <a xlink:href="class_altair_ab67e3285c4a6c8fb48d12381ea6ac6bd_cgraph_org.svg" target="_base">
           <rect id="button" ry="5" rx="5" y="6" x="6" height="38" width="38"
                fill="#f2f5e9" fill-opacity="0.5" stroke="#606060" stroke-width="1.0"/>
           <path id="arrow"
             d="M 11.500037,31.436501 C 11.940474,20.09759 22.043105,11.32322 32.158766,21.979434 L 37.068811,17.246167 C 37.068811,17.246167 37.088388,32 37.088388,32 L 22.160133,31.978069 C 22.160133,31.978069 26.997745,27.140456 26.997745,27.140456 C 18.528582,18.264221 13.291696,25.230495 11.500037,31.436501 z"
             style="fill:#404040;"/>
          </a>
         </g>
        </svg>
</svg>
