<?xml version="1.0" encoding="UTF-8" standalone="no"?>
<!DOCTYPE svg PUBLIC "-//W3C//DTD SVG 1.1//EN"
 "http://www.w3.org/Graphics/SVG/1.1/DTD/svg11.dtd">
<!-- Generated by graphviz version 2.38.0 (20140413.2041)
 -->
<!-- Title: FListWidget::setTabLabels Pages: 1 -->
<!--zoomable 413 -->
<svg id="main" version="1.1" xmlns="http://www.w3.org/2000/svg" xmlns:xlink="http://www.w3.org/1999/xlink" xml:space="preserve" onload="init(evt)">
<style type="text/css"><![CDATA[
.edge:hover path { stroke: red; }
.edge:hover polygon { stroke: red; fill: red; }
]]></style>
<script type="text/javascript"><![CDATA[
var edges = document.getElementsByTagName('g');
if (edges && edges.length) {
  for (var i=0;i<edges.length;i++) {
    if (edges[i].id.substr(0,4)=='edge') {
      edges[i].setAttribute('class','edge');
    }
  }
}
]]></script>
        <defs>
                <circle id="rim" cx="0" cy="0" r="7"/>
                <circle id="rim2" cx="0" cy="0" r="3.5"/>
                <g id="zoomPlus">
                        <use xlink:href="#rim" fill="#404040">
                                <set attributeName="fill" to="#808080" begin="zoomplus.mouseover" end="zoomplus.mouseout"/>
                        </use>
                        <path d="M-4,0h8M0,-4v8" fill="none" stroke="white" stroke-width="1.5" pointer-events="none"/>
                </g>
                <g id="zoomMin">
                        <use xlink:href="#rim" fill="#404040">
                                <set attributeName="fill" to="#808080" begin="zoomminus.mouseover" end="zoomminus.mouseout"/>
                        </use>
                        <path d="M-4,0h8" fill="none" stroke="white" stroke-width="1.5" pointer-events="none"/>
                </g>
                <g id="dirArrow">
                        <path fill="none" stroke="white" stroke-width="1.5" d="M0,-3.0v7 M-2.5,-0.5L0,-3.0L2.5,-0.5"/>
                </g>
               <g id="resetDef">
                       <use xlink:href="#rim2" fill="#404040">
                               <set attributeName="fill" to="#808080" begin="reset.mouseover" end="reset.mouseout"/>
                       </use>
               </g>
        </defs>

<script type="text/javascript">
var viewWidth = 1497;
var viewHeight = 413;
var sectionId = 'dynsection-8';
</script>
<script xlink:href="svgpan.js"/>
<svg id="graph" class="graph">
<g id="viewport">
<title>FListWidget::setTabLabels</title>
<polygon fill="white" stroke="none" points="-4,4 -4,-408.5 1493,-408.5 1493,4 -4,4"/>
<!-- Node32 -->
<g id="node1" class="node"><title>Node32</title>
<polygon fill="#bfbfbf" stroke="black" points="0,-284.5 0,-303.5 134,-303.5 134,-284.5 0,-284.5"/>
<text text-anchor="middle" x="67" y="-291.5" font-family="Helvetica,sans-Serif" font-size="10.00">FListWidget::setTabLabels</text>
</g>
<!-- Node33 -->
<g id="node2" class="node"><title>Node33</title>
<g id="a_node2"><a xlink:href="class_f_list_frame.html#a868a44b7df707f05fef3503d1472ed1d" target="_top" xlink:title="FListFrame::deleteGroup">
<polygon fill="white" stroke="black" points="173,-322.5 173,-341.5 298,-341.5 298,-322.5 173,-322.5"/>
<text text-anchor="middle" x="235.5" y="-329.5" font-family="Helvetica,sans-Serif" font-size="10.00">FListFrame::deleteGroup</text>
</a>
</g>
</g>
<!-- Node32&#45;&gt;Node33 -->
<g id="edge1" class="edge"><title>Node32&#45;&gt;Node33</title>
<path fill="none" stroke="midnightblue" d="M119.809,-305.824C143.283,-311.182 170.665,-317.431 192.787,-322.48"/>
<polygon fill="midnightblue" stroke="midnightblue" points="120.543,-302.402 110.015,-303.589 118.985,-309.226 120.543,-302.402"/>
</g>
<!-- Node34 -->
<g id="node3" class="node"><title>Node34</title>
<g id="a_node3"><a xlink:href="class_f_list_frame.html#aa993bd2e0b975a839c6f8b46dea4690c" target="_top" xlink:title="FListFrame::finalise">
<polygon fill="white" stroke="black" points="184,-284.5 184,-303.5 287,-303.5 287,-284.5 184,-284.5"/>
<text text-anchor="middle" x="235.5" y="-291.5" font-family="Helvetica,sans-Serif" font-size="10.00">FListFrame::finalise</text>
</a>
</g>
</g>
<!-- Node32&#45;&gt;Node34 -->
<g id="edge2" class="edge"><title>Node32&#45;&gt;Node34</title>
<path fill="none" stroke="midnightblue" d="M144.433,-294C157.796,-294 171.395,-294 183.84,-294"/>
<polygon fill="midnightblue" stroke="midnightblue" points="144.284,-290.5 134.284,-294 144.284,-297.5 144.284,-290.5"/>
</g>
<!-- Node36 -->
<g id="node5" class="node"><title>Node36</title>
<g id="a_node5"><a xlink:href="class_f_list_frame.html#a7ecbe60018d55d1a1352c5fd24c5e72e" target="_top" xlink:title="FListFrame::setTabLabels">
<polygon fill="white" stroke="black" points="170,-246.5 170,-265.5 301,-265.5 301,-246.5 170,-246.5"/>
<text text-anchor="middle" x="235.5" y="-253.5" font-family="Helvetica,sans-Serif" font-size="10.00">FListFrame::setTabLabels</text>
</a>
</g>
</g>
<!-- Node32&#45;&gt;Node36 -->
<g id="edge4" class="edge"><title>Node32&#45;&gt;Node36</title>
<path fill="none" stroke="midnightblue" d="M119.809,-282.176C143.283,-276.818 170.665,-270.569 192.787,-265.52"/>
<polygon fill="midnightblue" stroke="midnightblue" points="118.985,-278.774 110.015,-284.411 120.543,-285.598 118.985,-278.774"/>
</g>
<!-- Node35 -->
<g id="node4" class="node"><title>Node35</title>
<g id="a_node4"><a xlink:href="class_f_list_frame.html#a865246df8a4d4000ac3c818abc6d7f71" target="_top" xlink:title="FListFrame::FListFrame">
<polygon fill="white" stroke="black" points="337,-284.5 337,-303.5 459,-303.5 459,-284.5 337,-284.5"/>
<text text-anchor="middle" x="398" y="-291.5" font-family="Helvetica,sans-Serif" font-size="10.00">FListFrame::FListFrame</text>
</a>
</g>
</g>
<!-- Node34&#45;&gt;Node35 -->
<g id="edge3" class="edge"><title>Node34&#45;&gt;Node35</title>
<path fill="none" stroke="midnightblue" d="M297.427,-294C310.298,-294 323.875,-294 336.722,-294"/>
<polygon fill="midnightblue" stroke="midnightblue" points="297.283,-290.5 287.283,-294 297.283,-297.5 297.283,-290.5"/>
</g>
<!-- Node37 -->
<g id="node6" class="node"><title>Node37</title>
<g id="a_node6"><a xlink:href="class_altair.html#a3f6193de22ed2034c9b6dbe7a8ac4d97" target="_top" xlink:title="Lors du décodage du projet XML .alt, décoder le noed courant et renvoyer l&#39;empilement des valeurs en ...">
<polygon fill="white" stroke="black" points="352,-246.5 352,-265.5 444,-265.5 444,-246.5 352,-246.5"/>
<text text-anchor="middle" x="398" y="-253.5" font-family="Helvetica,sans-Serif" font-size="10.00">Altair::parseEntry</text>
</a>
</g>
</g>
<!-- Node36&#45;&gt;Node37 -->
<g id="edge5" class="edge"><title>Node36&#45;&gt;Node37</title>
<path fill="none" stroke="midnightblue" d="M311.695,-256C325.348,-256 339.197,-256 351.652,-256"/>
<polygon fill="midnightblue" stroke="midnightblue" points="311.319,-252.5 301.319,-256 311.319,-259.5 311.319,-252.5"/>
</g>
<!-- Node38 -->
<g id="node7" class="node"><title>Node38</title>
<g id="a_node7"><a xlink:href="class_altair.html#a41b6c8a35ed8ba14c7c0ce2e6994655f" target="_top" xlink:title="Décode le projet représenté par un pointeur vers QFile ou similaire. ">
<polygon fill="white" stroke="black" points="495,-246.5 495,-265.5 611,-265.5 611,-246.5 495,-246.5"/>
<text text-anchor="middle" x="553" y="-253.5" font-family="Helvetica,sans-Serif" font-size="10.00">Altair::parseProjectFile</text>
</a>
</g>
</g>
<!-- Node37&#45;&gt;Node38 -->
<g id="edge6" class="edge"><title>Node37&#45;&gt;Node38</title>
<path fill="none" stroke="midnightblue" d="M454.377,-256C467.5,-256 481.523,-256 494.729,-256"/>
<polygon fill="midnightblue" stroke="midnightblue" points="454.078,-252.5 444.078,-256 454.077,-259.5 454.078,-252.5"/>
</g>
<!-- Node39 -->
<g id="node8" class="node"><title>Node39</title>
<g id="a_node8"><a xlink:href="class_altair.html#ac9d7d8e7cebf70212818f1a8ba7d7d78" target="_top" xlink:title="Rafraîchit le gestionnaire de projet à la droite de l&#39;interface. Fonction globale par défaut...">
<polygon fill="white" stroke="black" points="647,-246.5 647,-265.5 790,-265.5 790,-246.5 647,-246.5"/>
<text text-anchor="middle" x="718.5" y="-253.5" font-family="Helvetica,sans-Serif" font-size="10.00">Altair::refreshProjectManager</text>
</a>
</g>
</g>
<!-- Node38&#45;&gt;Node39 -->
<g id="edge7" class="edge"><title>Node38&#45;&gt;Node39</title>
<path fill="none" stroke="midnightblue" d="M621.321,-256C629.737,-256 638.365,-256 646.83,-256"/>
<polygon fill="midnightblue" stroke="midnightblue" points="621.184,-252.5 611.184,-256 621.184,-259.5 621.184,-252.5"/>
</g>
<!-- Node40 -->
<g id="node9" class="node"><title>Node40</title>
<g id="a_node9"><a xlink:href="class_altair.html#acaa583766e1c062ea311847fcdd35374" target="_top" xlink:title="Efface les onglets, le gestionnaire de projet et lit le projet .alt en cours. ">
<polygon fill="white" stroke="black" points="826,-292 826,-322 948,-322 948,-292 826,-292"/>
<text text-anchor="start" x="834" y="-310" font-family="Helvetica,sans-Serif" font-size="10.00">Altair::clearInterfaceAnd</text>
<text text-anchor="middle" x="887" y="-299" font-family="Helvetica,sans-Serif" font-size="10.00">ParseProject</text>
</a>
</g>
</g>
<!-- Node39&#45;&gt;Node40 -->
<g id="edge8" class="edge"><title>Node39&#45;&gt;Node40</title>
<path fill="none" stroke="midnightblue" d="M760.632,-268.599C783.682,-275.659 812.58,-284.511 836.82,-291.936"/>
<polygon fill="midnightblue" stroke="midnightblue" points="761.404,-265.175 750.817,-265.593 759.354,-271.868 761.404,-265.175"/>
</g>
<!-- Node44 -->
<g id="node13" class="node"><title>Node44</title>
<g id="a_node13"><a xlink:href="class_altair.html#a2eb0a89c3223b2df1c01d2b3b7d1c0eb" target="_top" xlink:title="Rafraichir le projet .alt après avoir actualisé l&#39;interface. ">
<polygon fill="white" stroke="black" points="834.5,-196.5 834.5,-215.5 939.5,-215.5 939.5,-196.5 834.5,-196.5"/>
<text text-anchor="middle" x="887" y="-203.5" font-family="Helvetica,sans-Serif" font-size="10.00">Altair::updateProject</text>
</a>
</g>
</g>
<!-- Node39&#45;&gt;Node44 -->
<g id="edge12" class="edge"><title>Node39&#45;&gt;Node44</title>
<path fill="none" stroke="midnightblue" d="M760.996,-243.539C789.822,-234.882 827.661,-223.519 854.126,-215.572"/>
<polygon fill="midnightblue" stroke="midnightblue" points="759.78,-240.249 751.209,-246.478 761.793,-246.954 759.78,-240.249"/>
</g>
<!-- Node41 -->
<g id="node10" class="node"><title>Node41</title>
<g id="a_node10"><a xlink:href="class_altair.html#aa341707131924eff160bcab41422d1ec" target="_top" xlink:title="Code commun à différentes fonctions lancées pour l&#39;analyse des projets. ">
<polygon fill="white" stroke="black" points="984,-354.5 984,-373.5 1160,-373.5 1160,-354.5 984,-354.5"/>
<text text-anchor="middle" x="1072" y="-361.5" font-family="Helvetica,sans-Serif" font-size="10.00">Altair::openProjectFileCommonCode</text>
</a>
</g>
</g>
<!-- Node40&#45;&gt;Node41 -->
<g id="edge9" class="edge"><title>Node40&#45;&gt;Node41</title>
<path fill="none" stroke="midnightblue" d="M939.56,-325.38C953.891,-330.309 969.5,-335.513 984,-340 1000.46,-345.096 1018.84,-350.243 1034.45,-354.457"/>
<polygon fill="midnightblue" stroke="midnightblue" points="940.467,-321.99 929.872,-322.023 938.175,-328.605 940.467,-321.99"/>
</g>
<!-- Node42 -->
<g id="node11" class="node"><title>Node42</title>
<g id="a_node11"><a xlink:href="class_altair.html#ab98d384297c6b94ff65a683eb5f99633" target="_top" xlink:title="Ouvre le projet, le décode en appelant parseProjectFile et actualise l&#39;interface &#160;en conséquence...">
<polygon fill="white" stroke="black" points="1196,-374 1196,-404 1337,-404 1337,-374 1196,-374"/>
<text text-anchor="start" x="1204" y="-392" font-family="Helvetica,sans-Serif" font-size="10.00">Altair::on_openProjectButton</text>
<text text-anchor="middle" x="1266.5" y="-381" font-family="Helvetica,sans-Serif" font-size="10.00">_clicked</text>
</a>
</g>
</g>
<!-- Node41&#45;&gt;Node42 -->
<g id="edge10" class="edge"><title>Node41&#45;&gt;Node42</title>
<path fill="none" stroke="midnightblue" d="M1156.33,-374.822C1169.52,-376.535 1183.04,-378.29 1195.87,-379.957"/>
<polygon fill="midnightblue" stroke="midnightblue" points="1156.69,-371.34 1146.33,-373.523 1155.79,-378.282 1156.69,-371.34"/>
</g>
<!-- Node43 -->
<g id="node12" class="node"><title>Node43</title>
<g id="a_node12"><a xlink:href="class_altair.html#a84cf34107cd413ab33800b583bdef59e" target="_top" xlink:title="Ouvre le projet .alt et décode le projet pour actualiser l&#39;interface. ">
<polygon fill="white" stroke="black" points="1210,-335.5 1210,-354.5 1323,-354.5 1323,-335.5 1210,-335.5"/>
<text text-anchor="middle" x="1266.5" y="-342.5" font-family="Helvetica,sans-Serif" font-size="10.00">Altair::openProjectFile</text>
</a>
</g>
</g>
<!-- Node41&#45;&gt;Node43 -->
<g id="edge11" class="edge"><title>Node41&#45;&gt;Node43</title>
<path fill="none" stroke="midnightblue" d="M1170.57,-354.369C1184.1,-353.034 1197.59,-351.702 1209.98,-350.48"/>
<polygon fill="midnightblue" stroke="midnightblue" points="1169.85,-350.924 1160.24,-355.389 1170.53,-357.89 1169.85,-350.924"/>
</g>
<!-- Node45 -->
<g id="node14" class="node"><title>Node45</title>
<g id="a_node14"><a xlink:href="class_altair.html#ae0975ced0a36e0ed889ae06043a4df66" target="_top" xlink:title="Constructeur. ">
<polygon fill="white" stroke="black" points="1232.5,-278.5 1232.5,-297.5 1300.5,-297.5 1300.5,-278.5 1232.5,-278.5"/>
<text text-anchor="middle" x="1266.5" y="-285.5" font-family="Helvetica,sans-Serif" font-size="10.00">Altair::Altair</text>
</a>
</g>
</g>
<!-- Node44&#45;&gt;Node45 -->
<g id="edge13" class="edge"><title>Node44&#45;&gt;Node45</title>
<path fill="none" stroke="midnightblue" d="M901.906,-223.702C923.219,-250.263 963.627,-298.257 984,-307 1071.1,-344.379 1187.36,-314.397 1238.93,-297.528"/>
<polygon fill="midnightblue" stroke="midnightblue" points="904.43,-221.253 895.467,-215.604 898.951,-225.61 904.43,-221.253"/>
</g>
<!-- Node46 -->
<g id="node15" class="node"><title>Node46</title>
<g id="a_node15"><a xlink:href="class_altair.html#ab913abfdd0c6fbbceb9a051a4443d5fa" target="_top" xlink:title="Supprimer un onglet central. ">
<polygon fill="white" stroke="black" points="1023,-278.5 1023,-297.5 1121,-297.5 1121,-278.5 1023,-278.5"/>
<text text-anchor="middle" x="1072" y="-285.5" font-family="Helvetica,sans-Serif" font-size="10.00">Altair::deleteGroup</text>
</a>
</g>
</g>
<!-- Node44&#45;&gt;Node46 -->
<g id="edge14" class="edge"><title>Node44&#45;&gt;Node46</title>
<path fill="none" stroke="midnightblue" d="M907.596,-221.982C926.183,-236.354 955.443,-256.997 984,-269 996.115,-274.092 1009.78,-277.897 1022.62,-280.709"/>
<polygon fill="midnightblue" stroke="midnightblue" points="909.632,-219.13 899.613,-215.685 905.296,-224.626 909.632,-219.13"/>
</g>
<!-- Node47 -->
<g id="node16" class="node"><title>Node47</title>
<g id="a_node16"><a xlink:href="class_altair.html#a1afa285a65e0bdff4c761ad05ec9f8df" target="_top" xlink:title="Fonction réimplémentée : fin du déplacement de la souris. ">
<polygon fill="white" stroke="black" points="1027.5,-240.5 1027.5,-259.5 1116.5,-259.5 1116.5,-240.5 1027.5,-240.5"/>
<text text-anchor="middle" x="1072" y="-247.5" font-family="Helvetica,sans-Serif" font-size="10.00">Altair::dropEvent</text>
</a>
</g>
</g>
<!-- Node44&#45;&gt;Node47 -->
<g id="edge16" class="edge"><title>Node44&#45;&gt;Node47</title>
<path fill="none" stroke="midnightblue" d="M933.596,-218.269C949.51,-222.447 967.512,-227.054 984,-231 997.983,-234.346 1013.29,-237.769 1027.11,-240.77"/>
<polygon fill="midnightblue" stroke="midnightblue" points="934.038,-214.767 923.476,-215.598 932.252,-221.535 934.038,-214.767"/>
</g>
<!-- Node48 -->
<g id="node17" class="node"><title>Node48</title>
<g id="a_node17"><a xlink:href="class_altair.html#a299584936cc20c9a1451977264eba1f5" target="_top" xlink:title="Ecrase un item d&#39;un onglet donné ">
<polygon fill="white" stroke="black" points="1018.5,-191 1018.5,-221 1125.5,-221 1125.5,-191 1018.5,-191"/>
<text text-anchor="start" x="1026.5" y="-209" font-family="Helvetica,sans-Serif" font-size="10.00">Altair::on_deleteItem</text>
<text text-anchor="middle" x="1072" y="-198" font-family="Helvetica,sans-Serif" font-size="10.00">_clicked</text>
</a>
</g>
</g>
<!-- Node44&#45;&gt;Node48 -->
<g id="edge17" class="edge"><title>Node44&#45;&gt;Node48</title>
<path fill="none" stroke="midnightblue" d="M950.245,-206C972.366,-206 997.037,-206 1018.28,-206"/>
<polygon fill="midnightblue" stroke="midnightblue" points="949.951,-202.5 939.951,-206 949.951,-209.5 949.951,-202.5"/>
</g>
<!-- Node49 -->
<g id="node18" class="node"><title>Node49</title>
<g id="a_node18"><a xlink:href="classoptions.html#a52a9fb1d5bdb6ed104e700390b8c0208" target="_top" xlink:title="options::options">
<polygon fill="white" stroke="black" points="1029,-152.5 1029,-171.5 1115,-171.5 1115,-152.5 1029,-152.5"/>
<text text-anchor="middle" x="1072" y="-159.5" font-family="Helvetica,sans-Serif" font-size="10.00">options::options</text>
</a>
</g>
</g>
<!-- Node44&#45;&gt;Node49 -->
<g id="edge19" class="edge"><title>Node44&#45;&gt;Node49</title>
<path fill="none" stroke="midnightblue" d="M933.596,-193.731C949.51,-189.553 967.512,-184.946 984,-181 998.585,-177.51 1014.61,-173.937 1028.88,-170.845"/>
<polygon fill="midnightblue" stroke="midnightblue" points="932.252,-190.465 923.476,-196.402 934.038,-197.233 932.252,-190.465"/>
</g>
<!-- Node50 -->
<g id="node19" class="node"><title>Node50</title>
<g id="a_node19"><a xlink:href="class_altair.html#aab5da600c227ac7eb604fa24a9308d26" target="_top" xlink:title="Enregistre le projet .alt en actualisant projectName et l&#39;état de l&#39;interface &#160;. ">
<polygon fill="white" stroke="black" points="1006.5,-114.5 1006.5,-133.5 1137.5,-133.5 1137.5,-114.5 1006.5,-114.5"/>
<text text-anchor="middle" x="1072" y="-121.5" font-family="Helvetica,sans-Serif" font-size="10.00">Altair::requestSaveProject</text>
</a>
</g>
</g>
<!-- Node44&#45;&gt;Node50 -->
<g id="edge20" class="edge"><title>Node44&#45;&gt;Node50</title>
<path fill="none" stroke="midnightblue" d="M907.596,-190.018C926.183,-175.646 955.443,-155.003 984,-143 993.122,-139.166 1003.12,-136.062 1012.99,-133.562"/>
<polygon fill="midnightblue" stroke="midnightblue" points="905.296,-187.374 899.613,-196.315 909.632,-192.87 905.296,-187.374"/>
</g>
<!-- Node51 -->
<g id="node20" class="node"><title>Node51</title>
<g id="a_node20"><a xlink:href="class_altair.html#a7d10f8ecf4097577885172afb6c2e9c6" target="_top" xlink:title="Lance l&#39;exécution de l&#39;application en ligne de commande lhx. ">
<polygon fill="white" stroke="black" points="1401.5,-38.5 1401.5,-57.5 1460.5,-57.5 1460.5,-38.5 1401.5,-38.5"/>
<text text-anchor="middle" x="1431" y="-45.5" font-family="Helvetica,sans-Serif" font-size="10.00">Altair::run</text>
</a>
</g>
</g>
<!-- Node44&#45;&gt;Node51 -->
<g id="edge21" class="edge"><title>Node44&#45;&gt;Node51</title>
<path fill="none" stroke="midnightblue" d="M899.418,-187.738C915.24,-164.19 946.199,-124.011 984,-105 1054.6,-69.4935 1258.7,-72.6606 1337,-62 1358.52,-59.0705 1382.78,-55.4061 1401.13,-52.5612"/>
<polygon fill="midnightblue" stroke="midnightblue" points="896.285,-186.135 893.762,-196.425 902.151,-189.955 896.285,-186.135"/>
</g>
<!-- Node52 -->
<g id="node21" class="node"><title>Node52</title>
<g id="a_node21"><a xlink:href="class_altair.html#a08b5e402c9a694af09110afe33219080" target="_top" xlink:title="Construction de la ligne de commande pour des bases de paye dans un répertoire donné ...">
<polygon fill="white" stroke="black" points="1027,-38.5 1027,-57.5 1117,-57.5 1117,-38.5 1027,-38.5"/>
<text text-anchor="middle" x="1072" y="-45.5" font-family="Helvetica,sans-Serif" font-size="10.00">Altair::runWorker</text>
</a>
</g>
</g>
<!-- Node44&#45;&gt;Node52 -->
<g id="edge22" class="edge"><title>Node44&#45;&gt;Node52</title>
<path fill="none" stroke="midnightblue" d="M896.402,-187.017C910.322,-157.794 940.96,-102.027 984,-72 996.593,-63.2143 1012.29,-57.6381 1026.88,-54.1016"/>
<polygon fill="midnightblue" stroke="midnightblue" points="893.195,-185.615 892.183,-196.161 899.551,-188.547 893.195,-185.615"/>
</g>
<!-- Node46&#45;&gt;Node45 -->
<g id="edge15" class="edge"><title>Node46&#45;&gt;Node45</title>
<path fill="none" stroke="midnightblue" d="M1131.09,-288C1164.18,-288 1204.43,-288 1232.22,-288"/>
<polygon fill="midnightblue" stroke="midnightblue" points="1131.08,-284.5 1121.08,-288 1131.08,-291.5 1131.08,-284.5"/>
</g>
<!-- Node48&#45;&gt;Node45 -->
<g id="edge18" class="edge"><title>Node48&#45;&gt;Node45</title>
<path fill="none" stroke="midnightblue" d="M1135.39,-222.155C1143.76,-224.836 1152.16,-227.798 1160,-231 1193.54,-244.691 1230.22,-266.103 1250.28,-278.416"/>
<polygon fill="midnightblue" stroke="midnightblue" points="1136.2,-218.742 1125.61,-219.139 1134.13,-225.431 1136.2,-218.742"/>
</g>
<!-- Node52&#45;&gt;Node51 -->
<g id="edge23" class="edge"><title>Node52&#45;&gt;Node51</title>
<path fill="none" stroke="midnightblue" d="M1127.57,-48C1204.49,-48 1342.04,-48 1401.42,-48"/>
<polygon fill="midnightblue" stroke="midnightblue" points="1127.13,-44.5001 1117.13,-48 1127.13,-51.5001 1127.13,-44.5001"/>
</g>
<!-- Node53 -->
<g id="node22" class="node"><title>Node53</title>
<g id="a_node22"><a xlink:href="class_altair.html#ae04f2a5771d47bbe2e0cc3a11b72d6bf" target="_top" xlink:title="Parcourt le répertoire en cours du mode distributif, un à chaque appel Exporte l&#39;identification dans ...">
<polygon fill="white" stroke="black" points="1198,-0.5 1198,-19.5 1335,-19.5 1335,-0.5 1198,-0.5"/>
<text text-anchor="middle" x="1266.5" y="-7.5" font-family="Helvetica,sans-Serif" font-size="10.00">Altair::runWorkerDistributed</text>
</a>
</g>
</g>
<!-- Node52&#45;&gt;Node53 -->
<g id="edge24" class="edge"><title>Node52&#45;&gt;Node53</title>
<path fill="none" stroke="midnightblue" d="M1127.28,-37.2849C1155.54,-31.7057 1189.81,-24.9413 1217.15,-19.5436"/>
<polygon fill="midnightblue" stroke="midnightblue" points="1126.3,-33.9116 1117.16,-39.282 1127.65,-40.779 1126.3,-33.9116"/>
</g>
<!-- Node53&#45;&gt;Node51 -->
<g id="edge26" class="edge"><title>Node53&#45;&gt;Node51</title>
<path fill="none" stroke="midnightblue" d="M1318.31,-21.8811C1345.65,-28.2745 1378.36,-35.9253 1401.3,-41.2884"/>
<polygon fill="midnightblue" stroke="midnightblue" points="1319.04,-18.4581 1308.51,-19.589 1317.45,-25.2742 1319.04,-18.4581"/>
</g>
<!-- Node54 -->
<g id="node23" class="node"><title>Node54</title>
<g id="a_node23"><a xlink:href="class_altair.html#a16b8035c4383a789cd00b687fb105fe9" target="_top" xlink:title="Traitement de la fin de l&#39;exécution de lhx. ">
<polygon fill="white" stroke="black" points="1373,-0.5 1373,-19.5 1489,-19.5 1489,-0.5 1373,-0.5"/>
<text text-anchor="middle" x="1431" y="-7.5" font-family="Helvetica,sans-Serif" font-size="10.00">Altair::processFinished</text>
</a>
</g>
</g>
<!-- Node53&#45;&gt;Node54 -->
<g id="edge25" class="edge"><title>Node53&#45;&gt;Node54</title>
<path fill="none" stroke="midnightblue" d="M1345.08,-10C1354.41,-10 1363.81,-10 1372.78,-10"/>
<polygon fill="midnightblue" stroke="midnightblue" points="1345,-6.5001 1335,-10 1345,-13.5001 1345,-6.5001"/>
</g>
</g>
</svg>
        <g id="navigator" transform="translate(0 0)" fill="#404254">
                <rect fill="#f2f5e9" fill-opacity="0.5" stroke="#606060" stroke-width=".5" x="0" y="0" width="60" height="60"/>
                <use id="zoomplus" xlink:href="#zoomPlus" x="17" y="9" onmousedown="handleZoom(evt,'in')"/>
                <use id="zoomminus" xlink:href="#zoomMin" x="42" y="9" onmousedown="handleZoom(evt,'out')"/>
                <use id="reset" xlink:href="#resetDef" x="30" y="36" onmousedown="handleReset()"/>
                <g id="arrowUp" xlink:href="#dirArrow" transform="translate(30 24)" onmousedown="handlePan(0,-1)">
                  <use xlink:href="#rim" fill="#404040">
                        <set attributeName="fill" to="#808080" begin="arrowUp.mouseover" end="arrowUp.mouseout"/>
                  </use>
                  <path fill="none" stroke="white" stroke-width="1.5" d="M0,-3.0v7 M-2.5,-0.5L0,-3.0L2.5,-0.5"/>
                </g>
                <g id="arrowRight" xlink:href="#dirArrow" transform="rotate(90) translate(36 -43)" onmousedown="handlePan(1,0)">
                  <use xlink:href="#rim" fill="#404040">
                        <set attributeName="fill" to="#808080" begin="arrowRight.mouseover" end="arrowRight.mouseout"/>
                  </use>
                  <path fill="none" stroke="white" stroke-width="1.5" d="M0,-3.0v7 M-2.5,-0.5L0,-3.0L2.5,-0.5"/>
                </g>
                <g id="arrowDown" xlink:href="#dirArrow" transform="rotate(180) translate(-30 -48)" onmousedown="handlePan(0,1)">
                  <use xlink:href="#rim" fill="#404040">
                        <set attributeName="fill" to="#808080" begin="arrowDown.mouseover" end="arrowDown.mouseout"/>
                  </use>
                  <path fill="none" stroke="white" stroke-width="1.5" d="M0,-3.0v7 M-2.5,-0.5L0,-3.0L2.5,-0.5"/>
                </g>
                <g id="arrowLeft" xlink:href="#dirArrow" transform="rotate(270) translate(-36 17)" onmousedown="handlePan(-1,0)">
                  <use xlink:href="#rim" fill="#404040">
                        <set attributeName="fill" to="#808080" begin="arrowLeft.mouseover" end="arrowLeft.mouseout"/>
                  </use>
                  <path fill="none" stroke="white" stroke-width="1.5" d="M0,-3.0v7 M-2.5,-0.5L0,-3.0L2.5,-0.5"/>
                </g>
        </g>
        <svg viewBox="0 0 15 15" width="100%" height="30px" preserveAspectRatio="xMaxYMin meet">
         <g id="arrow_out" transform="scale(0.3 0.3)">
          <a xlink:href="class_f_list_widget_aac6eaaeb9946354f743394b54c84a6a7_icgraph_org.svg" target="_base">
           <rect id="button" ry="5" rx="5" y="6" x="6" height="38" width="38"
                fill="#f2f5e9" fill-opacity="0.5" stroke="#606060" stroke-width="1.0"/>
           <path id="arrow"
             d="M 11.500037,31.436501 C 11.940474,20.09759 22.043105,11.32322 32.158766,21.979434 L 37.068811,17.246167 C 37.068811,17.246167 37.088388,32 37.088388,32 L 22.160133,31.978069 C 22.160133,31.978069 26.997745,27.140456 26.997745,27.140456 C 18.528582,18.264221 13.291696,25.230495 11.500037,31.436501 z"
             style="fill:#404040;"/>
          </a>
         </g>
        </svg>
</svg>
