<?xml version="1.0" encoding="UTF-8" standalone="no"?>
<!DOCTYPE svg PUBLIC "-//W3C//DTD SVG 1.1//EN"
 "http://www.w3.org/Graphics/SVG/1.1/DTD/svg11.dtd">
<!-- Generated by graphviz version 2.38.0 (20140413.2041)
 -->
<!-- Title: FListFrame::addNewTab Pages: 1 -->
<svg width="481pt" height="393pt"
 viewBox="0.00 0.00 481.00 393.00" xmlns="http://www.w3.org/2000/svg" xmlns:xlink="http://www.w3.org/1999/xlink">
<g id="graph0" class="graph" transform="scale(1 1) rotate(0) translate(4 389)">
<title>FListFrame::addNewTab</title>
<polygon fill="white" stroke="none" points="-4,4 -4,-389 477,-389 477,4 -4,4"/>
<!-- Node25 -->
<g id="node1" class="node"><title>Node25</title>
<polygon fill="#bfbfbf" stroke="black" points="0,-189.5 0,-208.5 125,-208.5 125,-189.5 0,-189.5"/>
<text text-anchor="middle" x="62.5" y="-196.5" font-family="Helvetica,sans-Serif" font-size="10.00">FListFrame::addNewTab</text>
</g>
<!-- Node26 -->
<g id="node2" class="node"><title>Node26</title>
<g id="a_node2"><a xlink:href="class_f_list_widget.html#af24de94813d9e1939dd98a7a2f5539fb" target="_top" xlink:title="FListWidget::addGroup">
<polygon fill="white" stroke="black" points="161,-327.5 161,-346.5 278,-346.5 278,-327.5 161,-327.5"/>
<text text-anchor="middle" x="219.5" y="-334.5" font-family="Helvetica,sans-Serif" font-size="10.00">FListWidget::addGroup</text>
</a>
</g>
</g>
<!-- Node25&#45;&gt;Node26 -->
<g id="edge1" class="edge"><title>Node25&#45;&gt;Node26</title>
<path fill="none" stroke="midnightblue" d="M82.1679,-215.62C114.789,-244.664 181.192,-303.784 207.454,-327.165"/>
<polygon fill="midnightblue" stroke="midnightblue" points="84.4434,-212.96 74.6472,-208.925 79.7886,-218.188 84.4434,-212.96"/>
</g>
<!-- Node28 -->
<g id="node4" class="node"><title>Node28</title>
<g id="a_node4"><a xlink:href="class_f_list_widget.html#ac9bc1c75b6e519155a7af03ce7c4287a" target="_top" xlink:title="FListWidget::setWidgetFromXml">
<polygon fill="white" stroke="black" points="314,-327.5 314,-346.5 473,-346.5 473,-327.5 314,-327.5"/>
<text text-anchor="middle" x="393.5" y="-334.5" font-family="Helvetica,sans-Serif" font-size="10.00">FListWidget::setWidgetFromXml</text>
</a>
</g>
</g>
<!-- Node25&#45;&gt;Node28 -->
<g id="edge15" class="edge"><title>Node25&#45;&gt;Node28</title>
<path fill="none" stroke="midnightblue" d="M89.6019,-213.62C134.326,-238.158 229.015,-287.892 314,-318 324.177,-321.606 335.334,-324.761 345.96,-327.411"/>
<polygon fill="midnightblue" stroke="midnightblue" points="91.0338,-210.412 80.5877,-208.643 87.6504,-216.54 91.0338,-210.412"/>
</g>
<!-- Node29 -->
<g id="node5" class="node"><title>Node29</title>
<g id="a_node5"><a xlink:href="class_altair.html#ab67e3285c4a6c8fb48d12381ea6ac6bd" target="_top" xlink:title="Ferme le projet et réinitialise l&#39;interface (gestionnaire de projet inclus) ">
<polygon fill="white" stroke="black" points="170,-189.5 170,-208.5 269,-208.5 269,-189.5 170,-189.5"/>
<text text-anchor="middle" x="219.5" y="-196.5" font-family="Helvetica,sans-Serif" font-size="10.00">Altair::closeProject</text>
</a>
</g>
</g>
<!-- Node25&#45;&gt;Node29 -->
<g id="edge4" class="edge"><title>Node25&#45;&gt;Node29</title>
<path fill="none" stroke="midnightblue" d="M135.402,-199C147.086,-199 158.94,-199 169.896,-199"/>
<polygon fill="midnightblue" stroke="midnightblue" points="135.206,-195.5 125.205,-199 135.205,-202.5 135.206,-195.5"/>
</g>
<!-- Node36 -->
<g id="node12" class="node"><title>Node36</title>
<g id="a_node12"><a xlink:href="class_f_list_frame.html#aa993bd2e0b975a839c6f8b46dea4690c" target="_top" xlink:title="FListFrame::finalise">
<polygon fill="white" stroke="black" points="168,-128.5 168,-147.5 271,-147.5 271,-128.5 168,-128.5"/>
<text text-anchor="middle" x="219.5" y="-135.5" font-family="Helvetica,sans-Serif" font-size="10.00">FListFrame::finalise</text>
</a>
</g>
</g>
<!-- Node25&#45;&gt;Node36 -->
<g id="edge11" class="edge"><title>Node25&#45;&gt;Node36</title>
<path fill="none" stroke="midnightblue" d="M97.123,-185.768C126.379,-174.254 168.077,-157.844 194.196,-147.565"/>
<polygon fill="midnightblue" stroke="midnightblue" points="95.7423,-182.55 87.7188,-189.469 98.3058,-189.063 95.7423,-182.55"/>
</g>
<!-- Node38 -->
<g id="node14" class="node"><title>Node38</title>
<g id="a_node14"><a xlink:href="flistframe_8cpp.html#a8ce4ab3e25940112701a829eea4dc8db" target="_top" xlink:title="finalise_macro">
<polygon fill="white" stroke="black" points="179.5,-44.5 179.5,-63.5 259.5,-63.5 259.5,-44.5 179.5,-44.5"/>
<text text-anchor="middle" x="219.5" y="-51.5" font-family="Helvetica,sans-Serif" font-size="10.00">finalise_macro</text>
</a>
</g>
</g>
<!-- Node25&#45;&gt;Node38 -->
<g id="edge13" class="edge"><title>Node25&#45;&gt;Node38</title>
<path fill="none" stroke="midnightblue" d="M81.106,-182.53C113.587,-152.145 181.998,-88.1469 208.089,-63.739"/>
<polygon fill="midnightblue" stroke="midnightblue" points="78.5817,-180.099 73.67,-189.486 83.3638,-185.211 78.5817,-180.099"/>
</g>
<!-- Node27 -->
<g id="node3" class="node"><title>Node27</title>
<g id="a_node3"><a xlink:href="class_f_list_frame.html#a8859291101ef64727925cbe283bb86d6" target="_top" xlink:title="Efface tous les onglets et, selon la valeur des paramètres, insère un onglet vierge (ou pas) et effac...">
<polygon fill="white" stroke="black" points="323,-365.5 323,-384.5 464,-384.5 464,-365.5 323,-365.5"/>
<text text-anchor="middle" x="393.5" y="-372.5" font-family="Helvetica,sans-Serif" font-size="10.00">FListFrame::deleteAllGroups</text>
</a>
</g>
</g>
<!-- Node26&#45;&gt;Node27 -->
<g id="edge2" class="edge"><title>Node26&#45;&gt;Node27</title>
<path fill="none" stroke="midnightblue" d="M273.696,-348.753C298.017,-354.126 326.455,-360.409 349.409,-365.48"/>
<polygon fill="midnightblue" stroke="midnightblue" points="274.422,-345.329 263.903,-346.589 272.912,-352.164 274.422,-345.329"/>
</g>
<!-- Node26&#45;&gt;Node28 -->
<g id="edge3" class="edge"><title>Node26&#45;&gt;Node28</title>
<path fill="none" stroke="midnightblue" d="M288.319,-337C296.688,-337 305.298,-337 313.812,-337"/>
<polygon fill="midnightblue" stroke="midnightblue" points="288.252,-333.5 278.252,-337 288.252,-340.5 288.252,-333.5"/>
</g>
<!-- Node30 -->
<g id="node6" class="node"><title>Node30</title>
<g id="a_node6"><a xlink:href="class_altair.html#ae0975ced0a36e0ed889ae06043a4df66" target="_top" xlink:title="Constructeur. ">
<polygon fill="white" stroke="black" points="359.5,-289.5 359.5,-308.5 427.5,-308.5 427.5,-289.5 359.5,-289.5"/>
<text text-anchor="middle" x="393.5" y="-296.5" font-family="Helvetica,sans-Serif" font-size="10.00">Altair::Altair</text>
</a>
</g>
</g>
<!-- Node29&#45;&gt;Node30 -->
<g id="edge5" class="edge"><title>Node29&#45;&gt;Node30</title>
<path fill="none" stroke="midnightblue" d="M241.885,-214.754C252.928,-223.132 266.468,-233.788 278,-244 294.941,-259 294.268,-268.925 314,-280 327.817,-287.755 344.732,-292.366 359.316,-295.097"/>
<polygon fill="midnightblue" stroke="midnightblue" points="243.749,-211.777 233.65,-208.575 239.548,-217.377 243.749,-211.777"/>
</g>
<!-- Node31 -->
<g id="node7" class="node"><title>Node31</title>
<g id="a_node7"><a xlink:href="class_altair.html#a1afa285a65e0bdff4c761ad05ec9f8df" target="_top" xlink:title="Fonction réimplémentée : fin du déplacement de la souris. ">
<polygon fill="white" stroke="black" points="349,-251.5 349,-270.5 438,-270.5 438,-251.5 349,-251.5"/>
<text text-anchor="middle" x="393.5" y="-258.5" font-family="Helvetica,sans-Serif" font-size="10.00">Altair::dropEvent</text>
</a>
</g>
</g>
<!-- Node29&#45;&gt;Node31 -->
<g id="edge6" class="edge"><title>Node29&#45;&gt;Node31</title>
<path fill="none" stroke="midnightblue" d="M247.641,-213.182C266,-222.348 291.004,-234.014 314,-242 325.127,-245.864 337.403,-249.238 348.877,-252.028"/>
<polygon fill="midnightblue" stroke="midnightblue" points="249.194,-210.045 238.691,-208.649 246.031,-216.29 249.194,-210.045"/>
</g>
<!-- Node32 -->
<g id="node8" class="node"><title>Node32</title>
<g id="a_node8"><a xlink:href="class_altair.html#a2f6882c170016e2d7729058b08896a1d" target="_top" xlink:title="Tuer l&#39;application en ligne de commande lhx. ">
<polygon fill="white" stroke="black" points="347,-213.5 347,-232.5 440,-232.5 440,-213.5 347,-213.5"/>
<text text-anchor="middle" x="393.5" y="-220.5" font-family="Helvetica,sans-Serif" font-size="10.00">Altair::killProcess</text>
</a>
</g>
</g>
<!-- Node29&#45;&gt;Node32 -->
<g id="edge7" class="edge"><title>Node29&#45;&gt;Node32</title>
<path fill="none" stroke="midnightblue" d="M279.259,-207.199C301.336,-210.279 326.083,-213.732 346.799,-216.623"/>
<polygon fill="midnightblue" stroke="midnightblue" points="279.716,-203.729 269.328,-205.813 278.749,-210.662 279.716,-203.729"/>
</g>
<!-- Node33 -->
<g id="node9" class="node"><title>Node33</title>
<g id="a_node9"><a xlink:href="class_altair.html#a2e9b932b1dbf45bf9ad0db41dce474b6" target="_top" xlink:title="Crée un nouveau projet défaut.alt. ">
<polygon fill="white" stroke="black" points="324.5,-164 324.5,-194 462.5,-194 462.5,-164 324.5,-164"/>
<text text-anchor="start" x="332.5" y="-182" font-family="Helvetica,sans-Serif" font-size="10.00">Altair::on_newProjectButton</text>
<text text-anchor="middle" x="393.5" y="-171" font-family="Helvetica,sans-Serif" font-size="10.00">_clicked</text>
</a>
</g>
</g>
<!-- Node29&#45;&gt;Node33 -->
<g id="edge8" class="edge"><title>Node29&#45;&gt;Node33</title>
<path fill="none" stroke="midnightblue" d="M279.588,-192.129C293.987,-190.455 309.505,-188.651 324.289,-186.931"/>
<polygon fill="midnightblue" stroke="midnightblue" points="278.857,-188.691 269.328,-193.322 279.666,-195.644 278.857,-188.691"/>
</g>
<!-- Node34 -->
<g id="node10" class="node"><title>Node34</title>
<g id="a_node10"><a xlink:href="class_altair.html#ab98d384297c6b94ff65a683eb5f99633" target="_top" xlink:title="Ouvre le projet, le décode en appelant parseProjectFile et actualise l&#39;interface &#160;en conséquence...">
<polygon fill="white" stroke="black" points="323,-115 323,-145 464,-145 464,-115 323,-115"/>
<text text-anchor="start" x="331" y="-133" font-family="Helvetica,sans-Serif" font-size="10.00">Altair::on_openProjectButton</text>
<text text-anchor="middle" x="393.5" y="-122" font-family="Helvetica,sans-Serif" font-size="10.00">_clicked</text>
</a>
</g>
</g>
<!-- Node29&#45;&gt;Node34 -->
<g id="edge9" class="edge"><title>Node29&#45;&gt;Node34</title>
<path fill="none" stroke="midnightblue" d="M248.147,-184.815C266.541,-175.672 291.389,-163.876 314,-155 322.92,-151.498 332.548,-148.117 341.903,-145.033"/>
<polygon fill="midnightblue" stroke="midnightblue" points="246.529,-181.711 239.162,-189.325 249.67,-187.967 246.529,-181.711"/>
</g>
<!-- Node35 -->
<g id="node11" class="node"><title>Node35</title>
<g id="a_node11"><a xlink:href="class_altair.html#a84cf34107cd413ab33800b583bdef59e" target="_top" xlink:title="Ouvre le projet .alt et décode le projet pour actualiser l&#39;interface. ">
<polygon fill="white" stroke="black" points="337,-76.5 337,-95.5 450,-95.5 450,-76.5 337,-76.5"/>
<text text-anchor="middle" x="393.5" y="-83.5" font-family="Helvetica,sans-Serif" font-size="10.00">Altair::openProjectFile</text>
</a>
</g>
</g>
<!-- Node29&#45;&gt;Node35 -->
<g id="edge10" class="edge"><title>Node29&#45;&gt;Node35</title>
<path fill="none" stroke="midnightblue" d="M245.295,-183.591C256.011,-176.274 268.291,-166.958 278,-157 297.623,-136.874 290.822,-120.903 314,-105 320.822,-100.319 328.668,-96.7871 336.706,-94.1224"/>
<polygon fill="midnightblue" stroke="midnightblue" points="243.165,-180.803 236.752,-189.236 247.024,-186.643 243.165,-180.803"/>
</g>
<!-- Node37 -->
<g id="node13" class="node"><title>Node37</title>
<g id="a_node13"><a xlink:href="class_f_list_frame.html#a865246df8a4d4000ac3c818abc6d7f71" target="_top" xlink:title="FListFrame::FListFrame">
<polygon fill="white" stroke="black" points="332.5,-38.5 332.5,-57.5 454.5,-57.5 454.5,-38.5 332.5,-38.5"/>
<text text-anchor="middle" x="393.5" y="-45.5" font-family="Helvetica,sans-Serif" font-size="10.00">FListFrame::FListFrame</text>
</a>
</g>
</g>
<!-- Node36&#45;&gt;Node37 -->
<g id="edge12" class="edge"><title>Node36&#45;&gt;Node37</title>
<path fill="none" stroke="midnightblue" d="M237.996,-121.129C255.754,-104.922 284.73,-80.904 314,-67 322.106,-63.1495 331.065,-60.0367 339.945,-57.5335"/>
<polygon fill="midnightblue" stroke="midnightblue" points="235.15,-118.997 230.227,-128.379 239.926,-124.115 235.15,-118.997"/>
</g>
<!-- Node39 -->
<g id="node15" class="node"><title>Node39</title>
<g id="a_node15"><a xlink:href="flistframe_8cpp.html#a1dfc6277dce182d91d605c721a585c7a" target="_top" xlink:title="finalise_macro">
<polygon fill="white" stroke="black" points="353.5,-0.5 353.5,-19.5 433.5,-19.5 433.5,-0.5 353.5,-0.5"/>
<text text-anchor="middle" x="393.5" y="-7.5" font-family="Helvetica,sans-Serif" font-size="10.00">finalise_macro</text>
</a>
</g>
</g>
<!-- Node38&#45;&gt;Node39 -->
<g id="edge14" class="edge"><title>Node38&#45;&gt;Node39</title>
<path fill="none" stroke="midnightblue" d="M265.33,-41.7813C280.737,-37.644 298.105,-33.048 314,-29 326.773,-25.7471 340.75,-22.3213 353.324,-19.2882"/>
<polygon fill="midnightblue" stroke="midnightblue" points="264.269,-38.4423 255.524,-44.4236 266.091,-45.2012 264.269,-38.4423"/>
</g>
</g>
</svg>
