<?xml version="1.0" encoding="UTF-8" standalone="no"?>
<!DOCTYPE svg PUBLIC "-//W3C//DTD SVG 1.1//EN"
 "http://www.w3.org/Graphics/SVG/1.1/DTD/svg11.dtd">
<!-- Generated by graphviz version 2.38.0 (20140413.2041)
 -->
<!-- Title: MatriculeInput Pages: 1 -->
<svg width="101pt" height="226pt"
 viewBox="0.00 0.00 101.00 226.00" xmlns="http://www.w3.org/2000/svg" xmlns:xlink="http://www.w3.org/1999/xlink">
<g id="graph0" class="graph" transform="scale(1 1) rotate(0) translate(4 222)">
<title>MatriculeInput</title>
<polygon fill="white" stroke="none" points="-4,4 -4,-222 97,-222 97,4 -4,4"/>
<!-- Node0 -->
<g id="node1" class="node"><title>Node0</title>
<polygon fill="#bfbfbf" stroke="black" points="-7.10543e-15,-0.5 -7.10543e-15,-123.5 93,-123.5 93,-0.5 -7.10543e-15,-0.5"/>
<text text-anchor="middle" x="46.5" y="-111.5" font-family="Helvetica,sans-Serif" font-size="10.00">MatriculeInput</text>
<polyline fill="none" stroke="black" points="-7.10543e-15,-104.5 93,-104.5 "/>
<text text-anchor="start" x="8" y="-92.5" font-family="Helvetica,sans-Serif" font-size="10.00">+ matricules</text>
<text text-anchor="start" x="8" y="-81.5" font-family="Helvetica,sans-Serif" font-size="10.00">&#45; closeButton</text>
<text text-anchor="start" x="8" y="-70.5" font-family="Helvetica,sans-Serif" font-size="10.00">&#45; dossier</text>
<text text-anchor="start" x="8" y="-59.5" font-family="Helvetica,sans-Serif" font-size="10.00">&#45; matrLineEdit</text>
<text text-anchor="start" x="8" y="-48.5" font-family="Helvetica,sans-Serif" font-size="10.00">&#45; matrLineEdit2</text>
<text text-anchor="start" x="8" y="-37.5" font-family="Helvetica,sans-Serif" font-size="10.00">&#45; matrLineEdit3</text>
<polyline fill="none" stroke="black" points="-7.10543e-15,-30.5 93,-30.5 "/>
<text text-anchor="start" x="8" y="-18.5" font-family="Helvetica,sans-Serif" font-size="10.00">+ MatriculeInput()</text>
<text text-anchor="start" x="8" y="-7.5" font-family="Helvetica,sans-Serif" font-size="10.00">&#45; checkInput()</text>
</g>
<!-- Node1 -->
<g id="node2" class="node"><title>Node1</title>
<polygon fill="white" stroke="#bfbfbf" points="20.5,-160.5 20.5,-217.5 72.5,-217.5 72.5,-160.5 20.5,-160.5"/>
<text text-anchor="middle" x="46.5" y="-205.5" font-family="Helvetica,sans-Serif" font-size="10.00">QDialog</text>
<polyline fill="none" stroke="#bfbfbf" points="20.5,-198.5 72.5,-198.5 "/>
<text text-anchor="middle" x="46.5" y="-186.5" font-family="Helvetica,sans-Serif" font-size="10.00"> </text>
<polyline fill="none" stroke="#bfbfbf" points="20.5,-179.5 72.5,-179.5 "/>
<text text-anchor="middle" x="46.5" y="-167.5" font-family="Helvetica,sans-Serif" font-size="10.00"> </text>
</g>
<!-- Node1&#45;&gt;Node0 -->
<g id="edge1" class="edge"><title>Node1&#45;&gt;Node0</title>
<path fill="none" stroke="midnightblue" d="M46.5,-150.099C46.5,-141.739 46.5,-132.68 46.5,-123.672"/>
<polygon fill="none" stroke="midnightblue" points="43.0001,-150.258 46.5,-160.258 50.0001,-150.258 43.0001,-150.258"/>
</g>
</g>
</svg>
