<?xml version="1.0" encoding="UTF-8" standalone="no"?>
<!DOCTYPE svg PUBLIC "-//W3C//DTD SVG 1.1//EN"
 "http://www.w3.org/Graphics/SVG/1.1/DTD/svg11.dtd">
<!-- Generated by graphviz version 2.38.0 (20140413.2041)
 -->
<!-- Title: Hash::createReference Pages: 1 -->
<svg width="1156pt" height="420pt"
 viewBox="0.00 0.00 1156.00 420.00" xmlns="http://www.w3.org/2000/svg" xmlns:xlink="http://www.w3.org/1999/xlink">
<g id="graph0" class="graph" transform="scale(1 1) rotate(0) translate(4 416)">
<title>Hash::createReference</title>
<polygon fill="white" stroke="none" points="-4,4 -4,-416 1152,-416 1152,4 -4,4"/>
<!-- Node18 -->
<g id="node1" class="node"><title>Node18</title>
<polygon fill="#bfbfbf" stroke="black" points="0,-354.5 0,-373.5 118,-373.5 118,-354.5 0,-354.5"/>
<text text-anchor="middle" x="59" y="-361.5" font-family="Helvetica,sans-Serif" font-size="10.00">Hash::createReference</text>
</g>
<!-- Node19 -->
<g id="node2" class="node"><title>Node19</title>
<g id="a_node2"><a xlink:href="class_f_list_frame.html#aa993bd2e0b975a839c6f8b46dea4690c" target="_top" xlink:title="FListFrame::finalise">
<polygon fill="white" stroke="black" points="160.5,-392.5 160.5,-411.5 263.5,-411.5 263.5,-392.5 160.5,-392.5"/>
<text text-anchor="middle" x="212" y="-399.5" font-family="Helvetica,sans-Serif" font-size="10.00">FListFrame::finalise</text>
</a>
</g>
</g>
<!-- Node18&#45;&gt;Node19 -->
<g id="edge1" class="edge"><title>Node18&#45;&gt;Node19</title>
<path fill="none" stroke="midnightblue" d="M107.843,-376.04C128.939,-381.349 153.377,-387.499 173.17,-392.48"/>
<polygon fill="midnightblue" stroke="midnightblue" points="108.656,-372.635 98.1037,-373.589 106.947,-379.424 108.656,-372.635"/>
</g>
<!-- Node21 -->
<g id="node4" class="node"><title>Node21</title>
<g id="a_node4"><a xlink:href="class_altair.html#aa341707131924eff160bcab41422d1ec" target="_top" xlink:title="Code commun à différentes fonctions lancées pour l&#39;analyse des projets. ">
<polygon fill="white" stroke="black" points="643,-354.5 643,-373.5 819,-373.5 819,-354.5 643,-354.5"/>
<text text-anchor="middle" x="731" y="-361.5" font-family="Helvetica,sans-Serif" font-size="10.00">Altair::openProjectFileCommonCode</text>
</a>
</g>
</g>
<!-- Node18&#45;&gt;Node21 -->
<g id="edge3" class="edge"><title>Node18&#45;&gt;Node21</title>
<path fill="none" stroke="midnightblue" d="M128.299,-364C250.874,-364 507.962,-364 642.968,-364"/>
<polygon fill="midnightblue" stroke="midnightblue" points="128.286,-360.5 118.286,-364 128.286,-367.5 128.286,-360.5"/>
</g>
<!-- Node24 -->
<g id="node7" class="node"><title>Node24</title>
<g id="a_node7"><a xlink:href="class_altair.html#a41b6c8a35ed8ba14c7c0ce2e6994655f" target="_top" xlink:title="Décode le projet représenté par un pointeur vers QFile ou similaire. ">
<polygon fill="white" stroke="black" points="154,-313.5 154,-332.5 270,-332.5 270,-313.5 154,-313.5"/>
<text text-anchor="middle" x="212" y="-320.5" font-family="Helvetica,sans-Serif" font-size="10.00">Altair::parseProjectFile</text>
</a>
</g>
</g>
<!-- Node18&#45;&gt;Node24 -->
<g id="edge6" class="edge"><title>Node18&#45;&gt;Node24</title>
<path fill="none" stroke="midnightblue" d="M104.784,-351.84C127.513,-345.669 154.719,-338.282 175.907,-332.529"/>
<polygon fill="midnightblue" stroke="midnightblue" points="103.755,-348.493 95.022,-354.491 105.59,-355.248 103.755,-348.493"/>
</g>
<!-- Node20 -->
<g id="node3" class="node"><title>Node20</title>
<g id="a_node3"><a xlink:href="class_f_list_frame.html#a865246df8a4d4000ac3c818abc6d7f71" target="_top" xlink:title="FListFrame::FListFrame">
<polygon fill="white" stroke="black" points="316.5,-392.5 316.5,-411.5 438.5,-411.5 438.5,-392.5 316.5,-392.5"/>
<text text-anchor="middle" x="377.5" y="-399.5" font-family="Helvetica,sans-Serif" font-size="10.00">FListFrame::FListFrame</text>
</a>
</g>
</g>
<!-- Node19&#45;&gt;Node20 -->
<g id="edge2" class="edge"><title>Node19&#45;&gt;Node20</title>
<path fill="none" stroke="midnightblue" d="M274.166,-402C287.922,-402 302.51,-402 316.23,-402"/>
<polygon fill="midnightblue" stroke="midnightblue" points="273.836,-398.5 263.836,-402 273.836,-405.5 273.836,-398.5"/>
</g>
<!-- Node22 -->
<g id="node5" class="node"><title>Node22</title>
<g id="a_node5"><a xlink:href="class_altair.html#ab98d384297c6b94ff65a683eb5f99633" target="_top" xlink:title="Ouvre le projet, le décode en appelant parseProjectFile et actualise l&#39;interface &#160;en conséquence...">
<polygon fill="white" stroke="black" points="855,-374 855,-404 996,-404 996,-374 855,-374"/>
<text text-anchor="start" x="863" y="-392" font-family="Helvetica,sans-Serif" font-size="10.00">Altair::on_openProjectButton</text>
<text text-anchor="middle" x="925.5" y="-381" font-family="Helvetica,sans-Serif" font-size="10.00">_clicked</text>
</a>
</g>
</g>
<!-- Node21&#45;&gt;Node22 -->
<g id="edge4" class="edge"><title>Node21&#45;&gt;Node22</title>
<path fill="none" stroke="midnightblue" d="M815.329,-374.822C828.517,-376.535 842.035,-378.29 854.868,-379.957"/>
<polygon fill="midnightblue" stroke="midnightblue" points="815.693,-371.34 805.325,-373.523 814.791,-378.282 815.693,-371.34"/>
</g>
<!-- Node23 -->
<g id="node6" class="node"><title>Node23</title>
<g id="a_node6"><a xlink:href="class_altair.html#a84cf34107cd413ab33800b583bdef59e" target="_top" xlink:title="Ouvre le projet .alt et décode le projet pour actualiser l&#39;interface. ">
<polygon fill="white" stroke="black" points="869,-335.5 869,-354.5 982,-354.5 982,-335.5 869,-335.5"/>
<text text-anchor="middle" x="925.5" y="-342.5" font-family="Helvetica,sans-Serif" font-size="10.00">Altair::openProjectFile</text>
</a>
</g>
</g>
<!-- Node21&#45;&gt;Node23 -->
<g id="edge5" class="edge"><title>Node21&#45;&gt;Node23</title>
<path fill="none" stroke="midnightblue" d="M829.572,-354.369C843.1,-353.034 856.593,-351.702 868.982,-350.48"/>
<polygon fill="midnightblue" stroke="midnightblue" points="828.846,-350.924 819.238,-355.389 829.534,-357.89 828.846,-350.924"/>
</g>
<!-- Node25 -->
<g id="node8" class="node"><title>Node25</title>
<g id="a_node8"><a xlink:href="class_altair.html#ac9d7d8e7cebf70212818f1a8ba7d7d78" target="_top" xlink:title="Rafraîchit le gestionnaire de projet à la droite de l&#39;interface. Fonction globale par défaut...">
<polygon fill="white" stroke="black" points="306,-310.5 306,-329.5 449,-329.5 449,-310.5 306,-310.5"/>
<text text-anchor="middle" x="377.5" y="-317.5" font-family="Helvetica,sans-Serif" font-size="10.00">Altair::refreshProjectManager</text>
</a>
</g>
</g>
<!-- Node24&#45;&gt;Node25 -->
<g id="edge7" class="edge"><title>Node24&#45;&gt;Node25</title>
<path fill="none" stroke="midnightblue" d="M280.321,-321.765C288.737,-321.61 297.365,-321.452 305.83,-321.297"/>
<polygon fill="midnightblue" stroke="midnightblue" points="280.118,-318.268 270.184,-321.951 280.247,-325.267 280.118,-318.268"/>
</g>
<!-- Node26 -->
<g id="node9" class="node"><title>Node26</title>
<g id="a_node9"><a xlink:href="class_altair.html#acaa583766e1c062ea311847fcdd35374" target="_top" xlink:title="Efface les onglets, le gestionnaire de projet et lit le projet .alt en cours. ">
<polygon fill="white" stroke="black" points="485,-305 485,-335 607,-335 607,-305 485,-305"/>
<text text-anchor="start" x="493" y="-323" font-family="Helvetica,sans-Serif" font-size="10.00">Altair::clearInterfaceAnd</text>
<text text-anchor="middle" x="546" y="-312" font-family="Helvetica,sans-Serif" font-size="10.00">ParseProject</text>
</a>
</g>
</g>
<!-- Node25&#45;&gt;Node26 -->
<g id="edge8" class="edge"><title>Node25&#45;&gt;Node26</title>
<path fill="none" stroke="midnightblue" d="M459.193,-320C467.815,-320 476.473,-320 484.798,-320"/>
<polygon fill="midnightblue" stroke="midnightblue" points="459.111,-316.5 449.111,-320 459.111,-323.5 459.111,-316.5"/>
</g>
<!-- Node27 -->
<g id="node10" class="node"><title>Node27</title>
<g id="a_node10"><a xlink:href="class_altair.html#a2eb0a89c3223b2df1c01d2b3b7d1c0eb" target="_top" xlink:title="Rafraichir le projet .alt après avoir actualisé l&#39;interface. ">
<polygon fill="white" stroke="black" points="493.5,-196.5 493.5,-215.5 598.5,-215.5 598.5,-196.5 493.5,-196.5"/>
<text text-anchor="middle" x="546" y="-203.5" font-family="Helvetica,sans-Serif" font-size="10.00">Altair::updateProject</text>
</a>
</g>
</g>
<!-- Node25&#45;&gt;Node27 -->
<g id="edge10" class="edge"><title>Node25&#45;&gt;Node27</title>
<path fill="none" stroke="midnightblue" d="M400.948,-304.63C435.771,-280.787 501.809,-235.572 530.777,-215.738"/>
<polygon fill="midnightblue" stroke="midnightblue" points="398.683,-301.939 392.409,-310.477 402.638,-307.715 398.683,-301.939"/>
</g>
<!-- Node26&#45;&gt;Node21 -->
<g id="edge9" class="edge"><title>Node26&#45;&gt;Node21</title>
<path fill="none" stroke="midnightblue" d="M616.926,-336.813C641.757,-342.783 668.836,-349.294 690.268,-354.447"/>
<polygon fill="midnightblue" stroke="midnightblue" points="617.716,-333.403 607.175,-334.468 616.079,-340.209 617.716,-333.403"/>
</g>
<!-- Node28 -->
<g id="node11" class="node"><title>Node28</title>
<g id="a_node11"><a xlink:href="class_altair.html#ae0975ced0a36e0ed889ae06043a4df66" target="_top" xlink:title="Constructeur. ">
<polygon fill="white" stroke="black" points="891.5,-278.5 891.5,-297.5 959.5,-297.5 959.5,-278.5 891.5,-278.5"/>
<text text-anchor="middle" x="925.5" y="-285.5" font-family="Helvetica,sans-Serif" font-size="10.00">Altair::Altair</text>
</a>
</g>
</g>
<!-- Node27&#45;&gt;Node28 -->
<g id="edge11" class="edge"><title>Node27&#45;&gt;Node28</title>
<path fill="none" stroke="midnightblue" d="M557.656,-224.274C572.975,-248.502 603.748,-290.155 643,-307 730.1,-344.379 846.357,-314.397 897.931,-297.528"/>
<polygon fill="midnightblue" stroke="midnightblue" points="560.586,-222.357 552.389,-215.645 554.612,-226.004 560.586,-222.357"/>
</g>
<!-- Node29 -->
<g id="node12" class="node"><title>Node29</title>
<g id="a_node12"><a xlink:href="class_altair.html#ab913abfdd0c6fbbceb9a051a4443d5fa" target="_top" xlink:title="Supprimer un onglet central. ">
<polygon fill="white" stroke="black" points="682,-278.5 682,-297.5 780,-297.5 780,-278.5 682,-278.5"/>
<text text-anchor="middle" x="731" y="-285.5" font-family="Helvetica,sans-Serif" font-size="10.00">Altair::deleteGroup</text>
</a>
</g>
</g>
<!-- Node27&#45;&gt;Node29 -->
<g id="edge12" class="edge"><title>Node27&#45;&gt;Node29</title>
<path fill="none" stroke="midnightblue" d="M566.596,-221.982C585.183,-236.354 614.443,-256.997 643,-269 655.115,-274.092 668.776,-277.897 681.621,-280.709"/>
<polygon fill="midnightblue" stroke="midnightblue" points="568.632,-219.13 558.613,-215.685 564.296,-224.626 568.632,-219.13"/>
</g>
<!-- Node30 -->
<g id="node13" class="node"><title>Node30</title>
<g id="a_node13"><a xlink:href="class_altair.html#a1afa285a65e0bdff4c761ad05ec9f8df" target="_top" xlink:title="Fonction réimplémentée : fin du déplacement de la souris. ">
<polygon fill="white" stroke="black" points="686.5,-240.5 686.5,-259.5 775.5,-259.5 775.5,-240.5 686.5,-240.5"/>
<text text-anchor="middle" x="731" y="-247.5" font-family="Helvetica,sans-Serif" font-size="10.00">Altair::dropEvent</text>
</a>
</g>
</g>
<!-- Node27&#45;&gt;Node30 -->
<g id="edge14" class="edge"><title>Node27&#45;&gt;Node30</title>
<path fill="none" stroke="midnightblue" d="M594.244,-218.001C609.761,-221.892 627.104,-226.186 643,-230 657.618,-233.507 673.649,-237.228 687.924,-240.497"/>
<polygon fill="midnightblue" stroke="midnightblue" points="594.895,-214.556 584.344,-215.511 593.188,-221.344 594.895,-214.556"/>
</g>
<!-- Node31 -->
<g id="node14" class="node"><title>Node31</title>
<g id="a_node14"><a xlink:href="class_altair.html#a299584936cc20c9a1451977264eba1f5" target="_top" xlink:title="Ecrase un item d&#39;un onglet donné ">
<polygon fill="white" stroke="black" points="677.5,-191 677.5,-221 784.5,-221 784.5,-191 677.5,-191"/>
<text text-anchor="start" x="685.5" y="-209" font-family="Helvetica,sans-Serif" font-size="10.00">Altair::on_deleteItem</text>
<text text-anchor="middle" x="731" y="-198" font-family="Helvetica,sans-Serif" font-size="10.00">_clicked</text>
</a>
</g>
</g>
<!-- Node27&#45;&gt;Node31 -->
<g id="edge15" class="edge"><title>Node27&#45;&gt;Node31</title>
<path fill="none" stroke="midnightblue" d="M609.245,-206C631.366,-206 656.037,-206 677.284,-206"/>
<polygon fill="midnightblue" stroke="midnightblue" points="608.951,-202.5 598.951,-206 608.951,-209.5 608.951,-202.5"/>
</g>
<!-- Node32 -->
<g id="node15" class="node"><title>Node32</title>
<g id="a_node15"><a xlink:href="classoptions.html#a52a9fb1d5bdb6ed104e700390b8c0208" target="_top" xlink:title="Constructeur de l&#39;onglet correspondant à un pointeur parent vers une instance de la classe Altair...">
<polygon fill="white" stroke="black" points="688,-152.5 688,-171.5 774,-171.5 774,-152.5 688,-152.5"/>
<text text-anchor="middle" x="731" y="-159.5" font-family="Helvetica,sans-Serif" font-size="10.00">options::options</text>
</a>
</g>
</g>
<!-- Node27&#45;&gt;Node32 -->
<g id="edge17" class="edge"><title>Node27&#45;&gt;Node32</title>
<path fill="none" stroke="midnightblue" d="M592.596,-193.731C608.51,-189.553 626.512,-184.946 643,-181 657.585,-177.51 673.607,-173.937 687.885,-170.845"/>
<polygon fill="midnightblue" stroke="midnightblue" points="591.252,-190.465 582.476,-196.402 593.038,-197.233 591.252,-190.465"/>
</g>
<!-- Node33 -->
<g id="node16" class="node"><title>Node33</title>
<g id="a_node16"><a xlink:href="class_altair.html#aab5da600c227ac7eb604fa24a9308d26" target="_top" xlink:title="Enregistre le projet .alt en actualisant projectName et l&#39;état de l&#39;interface &#160;. ">
<polygon fill="white" stroke="black" points="665.5,-114.5 665.5,-133.5 796.5,-133.5 796.5,-114.5 665.5,-114.5"/>
<text text-anchor="middle" x="731" y="-121.5" font-family="Helvetica,sans-Serif" font-size="10.00">Altair::requestSaveProject</text>
</a>
</g>
</g>
<!-- Node27&#45;&gt;Node33 -->
<g id="edge18" class="edge"><title>Node27&#45;&gt;Node33</title>
<path fill="none" stroke="midnightblue" d="M566.596,-190.018C585.183,-175.646 614.443,-155.003 643,-143 652.122,-139.166 662.12,-136.062 671.986,-133.562"/>
<polygon fill="midnightblue" stroke="midnightblue" points="564.296,-187.374 558.613,-196.315 568.632,-192.87 564.296,-187.374"/>
</g>
<!-- Node34 -->
<g id="node17" class="node"><title>Node34</title>
<g id="a_node17"><a xlink:href="class_altair.html#a7d10f8ecf4097577885172afb6c2e9c6" target="_top" xlink:title="Lance l&#39;exécution de l&#39;application en ligne de commande lhx. ">
<polygon fill="white" stroke="black" points="1060.5,-38.5 1060.5,-57.5 1119.5,-57.5 1119.5,-38.5 1060.5,-38.5"/>
<text text-anchor="middle" x="1090" y="-45.5" font-family="Helvetica,sans-Serif" font-size="10.00">Altair::run</text>
</a>
</g>
</g>
<!-- Node27&#45;&gt;Node34 -->
<g id="edge19" class="edge"><title>Node27&#45;&gt;Node34</title>
<path fill="none" stroke="midnightblue" d="M558.418,-187.738C574.24,-164.19 605.199,-124.011 643,-105 713.598,-69.4935 917.698,-72.6606 996,-62 1017.52,-59.0705 1041.78,-55.4061 1060.13,-52.5612"/>
<polygon fill="midnightblue" stroke="midnightblue" points="555.285,-186.135 552.762,-196.425 561.151,-189.955 555.285,-186.135"/>
</g>
<!-- Node35 -->
<g id="node18" class="node"><title>Node35</title>
<g id="a_node18"><a xlink:href="class_altair.html#a08b5e402c9a694af09110afe33219080" target="_top" xlink:title="Construction de la ligne de commande pour des bases de paye dans un répertoire donné ...">
<polygon fill="white" stroke="black" points="686,-38.5 686,-57.5 776,-57.5 776,-38.5 686,-38.5"/>
<text text-anchor="middle" x="731" y="-45.5" font-family="Helvetica,sans-Serif" font-size="10.00">Altair::runWorker</text>
</a>
</g>
</g>
<!-- Node27&#45;&gt;Node35 -->
<g id="edge20" class="edge"><title>Node27&#45;&gt;Node35</title>
<path fill="none" stroke="midnightblue" d="M555.402,-187.017C569.322,-157.794 599.96,-102.027 643,-72 655.593,-63.2143 671.294,-57.6381 685.878,-54.1016"/>
<polygon fill="midnightblue" stroke="midnightblue" points="552.195,-185.615 551.183,-196.161 558.551,-188.547 552.195,-185.615"/>
</g>
<!-- Node29&#45;&gt;Node28 -->
<g id="edge13" class="edge"><title>Node29&#45;&gt;Node28</title>
<path fill="none" stroke="midnightblue" d="M790.094,-288C823.175,-288 863.432,-288 891.215,-288"/>
<polygon fill="midnightblue" stroke="midnightblue" points="790.079,-284.5 780.079,-288 790.079,-291.5 790.079,-284.5"/>
</g>
<!-- Node31&#45;&gt;Node28 -->
<g id="edge16" class="edge"><title>Node31&#45;&gt;Node28</title>
<path fill="none" stroke="midnightblue" d="M794.388,-222.155C802.759,-224.836 811.157,-227.798 819,-231 852.537,-244.691 889.223,-266.103 909.284,-278.416"/>
<polygon fill="midnightblue" stroke="midnightblue" points="795.196,-218.742 784.609,-219.139 793.133,-225.431 795.196,-218.742"/>
</g>
<!-- Node35&#45;&gt;Node34 -->
<g id="edge21" class="edge"><title>Node35&#45;&gt;Node34</title>
<path fill="none" stroke="midnightblue" d="M786.571,-48C863.494,-48 1001.04,-48 1060.42,-48"/>
<polygon fill="midnightblue" stroke="midnightblue" points="786.133,-44.5001 776.133,-48 786.133,-51.5001 786.133,-44.5001"/>
</g>
<!-- Node36 -->
<g id="node19" class="node"><title>Node36</title>
<g id="a_node19"><a xlink:href="class_altair.html#ae04f2a5771d47bbe2e0cc3a11b72d6bf" target="_top" xlink:title="Parcourt le répertoire en cours du mode distributif, un à chaque appel Exporte l&#39;identification dans ...">
<polygon fill="white" stroke="black" points="857,-0.5 857,-19.5 994,-19.5 994,-0.5 857,-0.5"/>
<text text-anchor="middle" x="925.5" y="-7.5" font-family="Helvetica,sans-Serif" font-size="10.00">Altair::runWorkerDistributed</text>
</a>
</g>
</g>
<!-- Node35&#45;&gt;Node36 -->
<g id="edge22" class="edge"><title>Node35&#45;&gt;Node36</title>
<path fill="none" stroke="midnightblue" d="M786.281,-37.2849C814.544,-31.7057 848.811,-24.9413 876.154,-19.5436"/>
<polygon fill="midnightblue" stroke="midnightblue" points="785.296,-33.9116 776.163,-39.282 786.652,-40.779 785.296,-33.9116"/>
</g>
<!-- Node36&#45;&gt;Node34 -->
<g id="edge24" class="edge"><title>Node36&#45;&gt;Node34</title>
<path fill="none" stroke="midnightblue" d="M977.307,-21.8811C1004.65,-28.2745 1037.36,-35.9253 1060.3,-41.2884"/>
<polygon fill="midnightblue" stroke="midnightblue" points="978.04,-18.4581 967.506,-19.589 976.446,-25.2742 978.04,-18.4581"/>
</g>
<!-- Node37 -->
<g id="node20" class="node"><title>Node37</title>
<g id="a_node20"><a xlink:href="class_altair.html#a16b8035c4383a789cd00b687fb105fe9" target="_top" xlink:title="Traitement de la fin de l&#39;exécution de lhx. ">
<polygon fill="white" stroke="black" points="1032,-0.5 1032,-19.5 1148,-19.5 1148,-0.5 1032,-0.5"/>
<text text-anchor="middle" x="1090" y="-7.5" font-family="Helvetica,sans-Serif" font-size="10.00">Altair::processFinished</text>
</a>
</g>
</g>
<!-- Node36&#45;&gt;Node37 -->
<g id="edge23" class="edge"><title>Node36&#45;&gt;Node37</title>
<path fill="none" stroke="midnightblue" d="M1004.08,-10C1013.41,-10 1022.81,-10 1031.78,-10"/>
<polygon fill="midnightblue" stroke="midnightblue" points="1004,-6.5001 994.003,-10 1004,-13.5001 1004,-6.5001"/>
</g>
</g>
</svg>
