<?xml version="1.0" encoding="UTF-8" standalone="no"?>
<!DOCTYPE svg PUBLIC "-//W3C//DTD SVG 1.1//EN"
 "http://www.w3.org/Graphics/SVG/1.1/DTD/svg11.dtd">
<!-- Generated by graphviz version 2.38.0 (20140413.2041)
 -->
<!-- Title: FListWidget::FListWidget Pages: 1 -->
<svg width="256pt" height="66pt"
 viewBox="0.00 0.00 256.00 66.00" xmlns="http://www.w3.org/2000/svg" xmlns:xlink="http://www.w3.org/1999/xlink">
<g id="graph0" class="graph" transform="scale(1 1) rotate(0) translate(4 62)">
<title>FListWidget::FListWidget</title>
<polygon fill="white" stroke="none" points="-4,4 -4,-62 252,-62 252,4 -4,4"/>
<!-- Node0 -->
<g id="node1" class="node"><title>Node0</title>
<polygon fill="#bfbfbf" stroke="black" points="0,-19.5 0,-38.5 132,-38.5 132,-19.5 0,-19.5"/>
<text text-anchor="middle" x="66" y="-26.5" font-family="Helvetica,sans-Serif" font-size="10.00">FListWidget::FListWidget</text>
</g>
<!-- Node1 -->
<g id="node2" class="node"><title>Node1</title>
<g id="a_node2"><a xlink:href="templates_8h.html#af9e9a83f3128fefbef4968186ae6aa6b" target="_top" xlink:title="Crée une table de hachage entre deux listes de même longueur. ">
<polygon fill="white" stroke="black" points="172.5,-38.5 172.5,-57.5 243.5,-57.5 243.5,-38.5 172.5,-38.5"/>
<text text-anchor="middle" x="208" y="-45.5" font-family="Helvetica,sans-Serif" font-size="10.00">createHash</text>
</a>
</g>
</g>
<!-- Node0&#45;&gt;Node1 -->
<g id="edge1" class="edge"><title>Node0&#45;&gt;Node1</title>
<path fill="none" stroke="midnightblue" d="M132.082,-37.8325C142.255,-39.2132 152.567,-40.6127 162.154,-41.9137"/>
<polygon fill="midnightblue" stroke="midnightblue" points="161.85,-45.4046 172.23,-43.2812 162.792,-38.4681 161.85,-45.4046"/>
</g>
<!-- Node2 -->
<g id="node3" class="node"><title>Node2</title>
<g id="a_node3"><a xlink:href="struct_abstract.html#af7b700041c9d75de3f642f15ece3e6ae" target="_top" xlink:title="Réinitialiser toutes les valeurs du de la table de hachage Hash::wrapper. ">
<polygon fill="white" stroke="black" points="168,-0.5 168,-19.5 248,-19.5 248,-0.5 168,-0.5"/>
<text text-anchor="middle" x="208" y="-7.5" font-family="Helvetica,sans-Serif" font-size="10.00">Abstract::initH</text>
</a>
</g>
</g>
<!-- Node0&#45;&gt;Node2 -->
<g id="edge2" class="edge"><title>Node0&#45;&gt;Node2</title>
<path fill="none" stroke="midnightblue" d="M132.082,-20.1675C140.617,-19.0091 149.25,-17.8375 157.471,-16.7218"/>
<polygon fill="midnightblue" stroke="midnightblue" points="158.185,-20.157 167.624,-15.3439 157.244,-13.2206 158.185,-20.157"/>
</g>
</g>
</svg>
