<?xml version="1.0" encoding="UTF-8" standalone="no"?>
<!DOCTYPE svg PUBLIC "-//W3C//DTD SVG 1.1//EN"
 "http://www.w3.org/Graphics/SVG/1.1/DTD/svg11.dtd">
<!-- Generated by graphviz version 2.38.0 (20140413.2041)
 -->
<!-- Title: FLineEdit Pages: 1 -->
<svg width="220pt" height="810pt"
 viewBox="0.00 0.00 219.50 810.00" xmlns="http://www.w3.org/2000/svg" xmlns:xlink="http://www.w3.org/1999/xlink">
<g id="graph0" class="graph" transform="scale(1 1) rotate(0) translate(4 806)">
<title>FLineEdit</title>
<polygon fill="white" stroke="none" points="-4,4 -4,-806 215.5,-806 215.5,4 -4,4"/>
<!-- Node0 -->
<g id="node1" class="node"><title>Node0</title>
<polygon fill="#bfbfbf" stroke="black" points="24,-215.5 24,-371.5 149,-371.5 149,-215.5 24,-215.5"/>
<text text-anchor="middle" x="86.5" y="-359.5" font-family="Helvetica,sans-Serif" font-size="10.00">FLineEdit</text>
<polyline fill="none" stroke="black" points="24,-352.5 149,-352.5 "/>
<text text-anchor="middle" x="86.5" y="-340.5" font-family="Helvetica,sans-Serif" font-size="10.00"> </text>
<polyline fill="none" stroke="black" points="24,-333.5 149,-333.5 "/>
<text text-anchor="start" x="32" y="-321.5" font-family="Helvetica,sans-Serif" font-size="10.00">+ FLineEdit()</text>
<text text-anchor="start" x="32" y="-310.5" font-family="Helvetica,sans-Serif" font-size="10.00">+ FLineEdit()</text>
<text text-anchor="start" x="32" y="-299.5" font-family="Helvetica,sans-Serif" font-size="10.00">+ FLineEdit()</text>
<text text-anchor="start" x="32" y="-288.5" font-family="Helvetica,sans-Serif" font-size="10.00">+ FLineEdit()</text>
<text text-anchor="start" x="32" y="-277.5" font-family="Helvetica,sans-Serif" font-size="10.00">+ FLineEdit()</text>
<text text-anchor="start" x="32" y="-266.5" font-family="Helvetica,sans-Serif" font-size="10.00">+ FLineEdit()</text>
<text text-anchor="start" x="32" y="-255.5" font-family="Helvetica,sans-Serif" font-size="10.00">+ isAbstractEnabled()</text>
<text text-anchor="start" x="32" y="-244.5" font-family="Helvetica,sans-Serif" font-size="10.00">+ refreshWidgetDisplay()</text>
<text text-anchor="start" x="32" y="-233.5" font-family="Helvetica,sans-Serif" font-size="10.00">+ setWidgetFromXml()</text>
<text text-anchor="start" x="32" y="-222.5" font-family="Helvetica,sans-Serif" font-size="10.00">+ setXmlFromWidget()</text>
</g>
<!-- Node4 -->
<g id="node5" class="node"><title>Node4</title>
<g id="a_node5"><a xlink:href="class_f_line_frame.html" target="_top" xlink:title="Ligne de saisie de texte FLineEdit enrichie de fonctionnalités. ">
<polygon fill="white" stroke="black" points="31,-0.5 31,-178.5 142,-178.5 142,-0.5 31,-0.5"/>
<text text-anchor="middle" x="86.5" y="-166.5" font-family="Helvetica,sans-Serif" font-size="10.00">FLineFrame</text>
<polyline fill="none" stroke="black" points="31,-159.5 142,-159.5 "/>
<text text-anchor="start" x="39" y="-147.5" font-family="Helvetica,sans-Serif" font-size="10.00">&#45; componentList</text>
<text text-anchor="start" x="39" y="-136.5" font-family="Helvetica,sans-Serif" font-size="10.00">&#45; frameLayout</text>
<text text-anchor="start" x="39" y="-125.5" font-family="Helvetica,sans-Serif" font-size="10.00">&#45; label</text>
<text text-anchor="start" x="39" y="-114.5" font-family="Helvetica,sans-Serif" font-size="10.00">&#45; lineEdit</text>
<text text-anchor="start" x="39" y="-103.5" font-family="Helvetica,sans-Serif" font-size="10.00">&#45; oButton</text>
<text text-anchor="start" x="39" y="-92.5" font-family="Helvetica,sans-Serif" font-size="10.00">&#45; pathCategory</text>
<text text-anchor="start" x="39" y="-81.5" font-family="Helvetica,sans-Serif" font-size="10.00">&#45; sButton</text>
<polyline fill="none" stroke="black" points="31,-74.5 142,-74.5 "/>
<text text-anchor="start" x="39" y="-62.5" font-family="Helvetica,sans-Serif" font-size="10.00">+ FLineFrame()</text>
<text text-anchor="start" x="39" y="-51.5" font-family="Helvetica,sans-Serif" font-size="10.00">+ getComponentList()</text>
<text text-anchor="start" x="39" y="-40.5" font-family="Helvetica,sans-Serif" font-size="10.00">+ getLayout()</text>
<text text-anchor="start" x="39" y="-29.5" font-family="Helvetica,sans-Serif" font-size="10.00">+ getText()</text>
<text text-anchor="start" x="39" y="-18.5" font-family="Helvetica,sans-Serif" font-size="10.00">+ setPathCategory()</text>
<text text-anchor="start" x="39" y="-7.5" font-family="Helvetica,sans-Serif" font-size="10.00">+ setText()</text>
</a>
</g>
</g>
<!-- Node0&#45;&gt;Node4 -->
<g id="edge4" class="edge"><title>Node0&#45;&gt;Node4</title>
<path fill="none" stroke="midnightblue" d="M86.5,-205.117C86.5,-196.403 86.5,-187.551 86.5,-178.828"/>
<polygon fill="none" stroke="midnightblue" points="83.0001,-205.268 86.5,-215.268 90.0001,-205.268 83.0001,-205.268"/>
</g>
<!-- Node1 -->
<g id="node2" class="node"><title>Node1</title>
<polygon fill="white" stroke="#bfbfbf" points="0,-529.5 0,-586.5 59,-586.5 59,-529.5 0,-529.5"/>
<text text-anchor="middle" x="29.5" y="-574.5" font-family="Helvetica,sans-Serif" font-size="10.00">QLineEdit</text>
<polyline fill="none" stroke="#bfbfbf" points="0,-567.5 59,-567.5 "/>
<text text-anchor="middle" x="29.5" y="-555.5" font-family="Helvetica,sans-Serif" font-size="10.00"> </text>
<polyline fill="none" stroke="#bfbfbf" points="0,-548.5 59,-548.5 "/>
<text text-anchor="middle" x="29.5" y="-536.5" font-family="Helvetica,sans-Serif" font-size="10.00"> </text>
</g>
<!-- Node1&#45;&gt;Node0 -->
<g id="edge1" class="edge"><title>Node1&#45;&gt;Node0</title>
<path fill="none" stroke="midnightblue" d="M37.7103,-519.189C46.0485,-480.79 59.1995,-420.226 69.7478,-371.648"/>
<polygon fill="none" stroke="midnightblue" points="34.194,-518.889 35.4923,-529.404 41.0346,-520.374 34.194,-518.889"/>
</g>
<!-- Node2 -->
<g id="node3" class="node"><title>Node2</title>
<g id="a_node3"><a xlink:href="class_f_abstract_widget.html" target="_top" xlink:title="{FAbstractWidget\n|+ commandLineList\l+ commandLineType\l+ disabledObjects\l+ enabledObjects\l+ optionLabel\l+ status\l# componentList\l# description\l# hashKey\l# widgetDepth\l|+ commandLineStringList()\l+ getComponentList()\l+ getDepth()\l+ getDescription()\l+ getHashKey()\l+ isAbstractDisabled()\l+ isAbstractEnabled()\l+ refreshWidgetDisplay()\l+ setDisableObjects()\l+ setHashKey()\l+ setWidgetFromXml()\l+ setXmlFromWidget()\l# FCore()\l# FCore()\l}">
<polygon fill="white" stroke="black" points="77.5,-408.5 77.5,-707.5 211.5,-707.5 211.5,-408.5 77.5,-408.5"/>
<text text-anchor="middle" x="144.5" y="-695.5" font-family="Helvetica,sans-Serif" font-size="10.00">FAbstractWidget</text>
<polyline fill="none" stroke="black" points="77.5,-688.5 211.5,-688.5 "/>
<text text-anchor="start" x="85.5" y="-676.5" font-family="Helvetica,sans-Serif" font-size="10.00">+ commandLineList</text>
<text text-anchor="start" x="85.5" y="-665.5" font-family="Helvetica,sans-Serif" font-size="10.00">+ commandLineType</text>
<text text-anchor="start" x="85.5" y="-654.5" font-family="Helvetica,sans-Serif" font-size="10.00">+ disabledObjects</text>
<text text-anchor="start" x="85.5" y="-643.5" font-family="Helvetica,sans-Serif" font-size="10.00">+ enabledObjects</text>
<text text-anchor="start" x="85.5" y="-632.5" font-family="Helvetica,sans-Serif" font-size="10.00">+ optionLabel</text>
<text text-anchor="start" x="85.5" y="-621.5" font-family="Helvetica,sans-Serif" font-size="10.00">+ status</text>
<text text-anchor="start" x="85.5" y="-610.5" font-family="Helvetica,sans-Serif" font-size="10.00"># componentList</text>
<text text-anchor="start" x="85.5" y="-599.5" font-family="Helvetica,sans-Serif" font-size="10.00"># description</text>
<text text-anchor="start" x="85.5" y="-588.5" font-family="Helvetica,sans-Serif" font-size="10.00"># hashKey</text>
<text text-anchor="start" x="85.5" y="-577.5" font-family="Helvetica,sans-Serif" font-size="10.00"># widgetDepth</text>
<polyline fill="none" stroke="black" points="77.5,-570.5 211.5,-570.5 "/>
<text text-anchor="start" x="85.5" y="-558.5" font-family="Helvetica,sans-Serif" font-size="10.00">+ commandLineStringList()</text>
<text text-anchor="start" x="85.5" y="-547.5" font-family="Helvetica,sans-Serif" font-size="10.00">+ getComponentList()</text>
<text text-anchor="start" x="85.5" y="-536.5" font-family="Helvetica,sans-Serif" font-size="10.00">+ getDepth()</text>
<text text-anchor="start" x="85.5" y="-525.5" font-family="Helvetica,sans-Serif" font-size="10.00">+ getDescription()</text>
<text text-anchor="start" x="85.5" y="-514.5" font-family="Helvetica,sans-Serif" font-size="10.00">+ getHashKey()</text>
<text text-anchor="start" x="85.5" y="-503.5" font-family="Helvetica,sans-Serif" font-size="10.00">+ isAbstractDisabled()</text>
<text text-anchor="start" x="85.5" y="-492.5" font-family="Helvetica,sans-Serif" font-size="10.00">+ isAbstractEnabled()</text>
<text text-anchor="start" x="85.5" y="-481.5" font-family="Helvetica,sans-Serif" font-size="10.00">+ refreshWidgetDisplay()</text>
<text text-anchor="start" x="85.5" y="-470.5" font-family="Helvetica,sans-Serif" font-size="10.00">+ setDisableObjects()</text>
<text text-anchor="start" x="85.5" y="-459.5" font-family="Helvetica,sans-Serif" font-size="10.00">+ setHashKey()</text>
<text text-anchor="start" x="85.5" y="-448.5" font-family="Helvetica,sans-Serif" font-size="10.00">+ setWidgetFromXml()</text>
<text text-anchor="start" x="85.5" y="-437.5" font-family="Helvetica,sans-Serif" font-size="10.00">+ setXmlFromWidget()</text>
<text text-anchor="start" x="85.5" y="-426.5" font-family="Helvetica,sans-Serif" font-size="10.00"># FCore()</text>
<text text-anchor="start" x="85.5" y="-415.5" font-family="Helvetica,sans-Serif" font-size="10.00"># FCore()</text>
</a>
</g>
</g>
<!-- Node2&#45;&gt;Node0 -->
<g id="edge2" class="edge"><title>Node2&#45;&gt;Node0</title>
<path fill="none" stroke="midnightblue" d="M109.472,-398.47C107.445,-389.294 105.459,-380.304 103.555,-371.69"/>
<polygon fill="none" stroke="midnightblue" points="106.111,-399.482 111.687,-408.491 112.947,-397.971 106.111,-399.482"/>
</g>
<!-- Node3 -->
<g id="node4" class="node"><title>Node3</title>
<g id="a_node4"><a xlink:href="classflags.html" target="_top" xlink:title="{flags\n||}">
<polygon fill="white" stroke="black" points="125.5,-744.5 125.5,-801.5 163.5,-801.5 163.5,-744.5 125.5,-744.5"/>
<text text-anchor="middle" x="144.5" y="-789.5" font-family="Helvetica,sans-Serif" font-size="10.00">flags</text>
<polyline fill="none" stroke="black" points="125.5,-782.5 163.5,-782.5 "/>
<text text-anchor="middle" x="144.5" y="-770.5" font-family="Helvetica,sans-Serif" font-size="10.00"> </text>
<polyline fill="none" stroke="black" points="125.5,-763.5 163.5,-763.5 "/>
<text text-anchor="middle" x="144.5" y="-751.5" font-family="Helvetica,sans-Serif" font-size="10.00"> </text>
</a>
</g>
</g>
<!-- Node3&#45;&gt;Node2 -->
<g id="edge3" class="edge"><title>Node3&#45;&gt;Node2</title>
<path fill="none" stroke="midnightblue" d="M144.5,-733.923C144.5,-725.996 144.5,-717.193 144.5,-707.872"/>
<polygon fill="none" stroke="midnightblue" points="141,-734.154 144.5,-744.154 148,-734.154 141,-734.154"/>
</g>
</g>
</svg>
