<?xml version="1.0" encoding="UTF-8" standalone="no"?>
<!DOCTYPE svg PUBLIC "-//W3C//DTD SVG 1.1//EN"
 "http://www.w3.org/Graphics/SVG/1.1/DTD/svg11.dtd">
<!-- Generated by graphviz version 2.38.0 (20140413.2041)
 -->
<!-- Title: Altair::makeDataString Pages: 1 -->
<!--zoomable 344 -->
<svg id="main" version="1.1" xmlns="http://www.w3.org/2000/svg" xmlns:xlink="http://www.w3.org/1999/xlink" xml:space="preserve" onload="init(evt)">
<style type="text/css"><![CDATA[
.edge:hover path { stroke: red; }
.edge:hover polygon { stroke: red; fill: red; }
]]></style>
<script type="text/javascript"><![CDATA[
var edges = document.getElementsByTagName('g');
if (edges && edges.length) {
  for (var i=0;i<edges.length;i++) {
    if (edges[i].id.substr(0,4)=='edge') {
      edges[i].setAttribute('class','edge');
    }
  }
}
]]></script>
        <defs>
                <circle id="rim" cx="0" cy="0" r="7"/>
                <circle id="rim2" cx="0" cy="0" r="3.5"/>
                <g id="zoomPlus">
                        <use xlink:href="#rim" fill="#404040">
                                <set attributeName="fill" to="#808080" begin="zoomplus.mouseover" end="zoomplus.mouseout"/>
                        </use>
                        <path d="M-4,0h8M0,-4v8" fill="none" stroke="white" stroke-width="1.5" pointer-events="none"/>
                </g>
                <g id="zoomMin">
                        <use xlink:href="#rim" fill="#404040">
                                <set attributeName="fill" to="#808080" begin="zoomminus.mouseover" end="zoomminus.mouseout"/>
                        </use>
                        <path d="M-4,0h8" fill="none" stroke="white" stroke-width="1.5" pointer-events="none"/>
                </g>
                <g id="dirArrow">
                        <path fill="none" stroke="white" stroke-width="1.5" d="M0,-3.0v7 M-2.5,-0.5L0,-3.0L2.5,-0.5"/>
                </g>
               <g id="resetDef">
                       <use xlink:href="#rim2" fill="#404040">
                               <set attributeName="fill" to="#808080" begin="reset.mouseover" end="reset.mouseout"/>
                       </use>
               </g>
        </defs>

<script type="text/javascript">
var viewWidth = 906;
var viewHeight = 344;
var sectionId = 'dynsection-26';
</script>
<script xlink:href="svgpan.js"/>
<svg id="graph" class="graph">
<g id="viewport">
<title>Altair::makeDataString</title>
<polygon fill="white" stroke="none" points="-4,4 -4,-340 902,-340 902,4 -4,4"/>
<!-- Node326 -->
<g id="node1" class="node"><title>Node326</title>
<polygon fill="#bfbfbf" stroke="black" points="0,-171.5 0,-190.5 116,-190.5 116,-171.5 0,-171.5"/>
<text text-anchor="middle" x="58" y="-178.5" font-family="Helvetica,sans-Serif" font-size="10.00">Altair::makeDataString</text>
</g>
<!-- Node327 -->
<g id="node2" class="node"><title>Node327</title>
<g id="a_node2"><a xlink:href="class_altair.html#a43120f9909d0284074119529a03df85b" target="_top" xlink:title="Ecrit le projet XML d&#39;extension .alt contenant les références des donnéees de paye. ">
<polygon fill="white" stroke="black" points="152,-171.5 152,-190.5 265,-190.5 265,-171.5 152,-171.5"/>
<text text-anchor="middle" x="208.5" y="-178.5" font-family="Helvetica,sans-Serif" font-size="10.00">Altair::writeProjectFile</text>
</a>
</g>
</g>
<!-- Node326&#45;&gt;Node327 -->
<g id="edge1" class="edge"><title>Node326&#45;&gt;Node327</title>
<path fill="none" stroke="midnightblue" d="M126.58,-181C134.985,-181 143.505,-181 151.704,-181"/>
<polygon fill="midnightblue" stroke="midnightblue" points="126.414,-177.5 116.414,-181 126.414,-184.5 126.414,-177.5"/>
</g>
<!-- Node328 -->
<g id="node3" class="node"><title>Node328</title>
<g id="a_node3"><a xlink:href="class_altair.html#a2eb0a89c3223b2df1c01d2b3b7d1c0eb" target="_top" xlink:title="Rafraichir le projet .alt après avoir actualisé l&#39;interface. ">
<polygon fill="white" stroke="black" points="301,-171.5 301,-190.5 406,-190.5 406,-171.5 301,-171.5"/>
<text text-anchor="middle" x="353.5" y="-178.5" font-family="Helvetica,sans-Serif" font-size="10.00">Altair::updateProject</text>
</a>
</g>
</g>
<!-- Node327&#45;&gt;Node328 -->
<g id="edge2" class="edge"><title>Node327&#45;&gt;Node328</title>
<path fill="none" stroke="midnightblue" d="M275.235,-181C283.855,-181 292.588,-181 300.927,-181"/>
<polygon fill="midnightblue" stroke="midnightblue" points="275.197,-177.5 265.197,-181 275.197,-184.5 275.197,-177.5"/>
</g>
<!-- Node329 -->
<g id="node4" class="node"><title>Node329</title>
<g id="a_node4"><a xlink:href="class_altair.html#ae0975ced0a36e0ed889ae06043a4df66" target="_top" xlink:title="Constructeur. ">
<polygon fill="white" stroke="black" points="643.5,-272.5 643.5,-291.5 711.5,-291.5 711.5,-272.5 643.5,-272.5"/>
<text text-anchor="middle" x="677.5" y="-279.5" font-family="Helvetica,sans-Serif" font-size="10.00">Altair::Altair</text>
</a>
</g>
</g>
<!-- Node328&#45;&gt;Node329 -->
<g id="edge3" class="edge"><title>Node328&#45;&gt;Node329</title>
<path fill="none" stroke="midnightblue" d="M383.612,-194.927C400.432,-202.648 422.134,-212.06 442,-219 512.441,-243.608 597.576,-264.304 643.413,-274.734"/>
<polygon fill="midnightblue" stroke="midnightblue" points="384.866,-191.651 374.323,-190.608 381.915,-197.998 384.866,-191.651"/>
</g>
<!-- Node330 -->
<g id="node5" class="node"><title>Node330</title>
<g id="a_node5"><a xlink:href="class_altair.html#ab913abfdd0c6fbbceb9a051a4443d5fa" target="_top" xlink:title="Supprimer un onglet central. ">
<polygon fill="white" stroke="black" points="458.5,-316.5 458.5,-335.5 556.5,-335.5 556.5,-316.5 458.5,-316.5"/>
<text text-anchor="middle" x="507.5" y="-323.5" font-family="Helvetica,sans-Serif" font-size="10.00">Altair::deleteGroup</text>
</a>
</g>
</g>
<!-- Node328&#45;&gt;Node330 -->
<g id="edge4" class="edge"><title>Node328&#45;&gt;Node330</title>
<path fill="none" stroke="midnightblue" d="M362.588,-199.894C375.389,-227.546 402.935,-278.807 442,-307 447.396,-310.894 453.586,-313.996 459.95,-316.465"/>
<polygon fill="midnightblue" stroke="midnightblue" points="365.687,-198.25 358.411,-190.549 359.297,-201.106 365.687,-198.25"/>
</g>
<!-- Node331 -->
<g id="node6" class="node"><title>Node331</title>
<g id="a_node6"><a xlink:href="class_altair.html#a299584936cc20c9a1451977264eba1f5" target="_top" xlink:title="Ecrase un item d&#39;un onglet donné ">
<polygon fill="white" stroke="black" points="454,-267 454,-297 561,-297 561,-267 454,-267"/>
<text text-anchor="start" x="462" y="-285" font-family="Helvetica,sans-Serif" font-size="10.00">Altair::on_deleteItem</text>
<text text-anchor="middle" x="507.5" y="-274" font-family="Helvetica,sans-Serif" font-size="10.00">_clicked</text>
</a>
</g>
</g>
<!-- Node328&#45;&gt;Node331 -->
<g id="edge6" class="edge"><title>Node328&#45;&gt;Node331</title>
<path fill="none" stroke="midnightblue" d="M372.144,-197.514C389.149,-212.881 416.052,-235.786 442,-252 450.693,-257.432 460.529,-262.495 469.853,-266.858"/>
<polygon fill="midnightblue" stroke="midnightblue" points="374.376,-194.813 364.638,-190.638 369.647,-199.974 374.376,-194.813"/>
</g>
<!-- Node332 -->
<g id="node7" class="node"><title>Node332</title>
<g id="a_node7"><a xlink:href="class_altair.html#aab5da600c227ac7eb604fa24a9308d26" target="_top" xlink:title="Enregistre le projet .alt en actualisant projectName et l&#39;état de l&#39;interface &#160;. ">
<polygon fill="white" stroke="black" points="442,-190.5 442,-209.5 573,-209.5 573,-190.5 442,-190.5"/>
<text text-anchor="middle" x="507.5" y="-197.5" font-family="Helvetica,sans-Serif" font-size="10.00">Altair::requestSaveProject</text>
</a>
</g>
</g>
<!-- Node328&#45;&gt;Node332 -->
<g id="edge8" class="edge"><title>Node328&#45;&gt;Node332</title>
<path fill="none" stroke="midnightblue" d="M416.479,-188.747C424.874,-189.797 433.506,-190.876 441.944,-191.931"/>
<polygon fill="midnightblue" stroke="midnightblue" points="416.742,-185.253 406.385,-187.486 415.873,-192.199 416.742,-185.253"/>
</g>
<!-- Node333 -->
<g id="node8" class="node"><title>Node333</title>
<g id="a_node8"><a xlink:href="class_altair.html#a1afa285a65e0bdff4c761ad05ec9f8df" target="_top" xlink:title="Fonction réimplémentée : fin du déplacement de la souris. ">
<polygon fill="white" stroke="black" points="463,-152.5 463,-171.5 552,-171.5 552,-152.5 463,-152.5"/>
<text text-anchor="middle" x="507.5" y="-159.5" font-family="Helvetica,sans-Serif" font-size="10.00">Altair::dropEvent</text>
</a>
</g>
</g>
<!-- Node328&#45;&gt;Node333 -->
<g id="edge9" class="edge"><title>Node328&#45;&gt;Node333</title>
<path fill="none" stroke="midnightblue" d="M416.481,-173.252C432.067,-171.304 448.468,-169.254 462.938,-167.445"/>
<polygon fill="midnightblue" stroke="midnightblue" points="415.873,-169.801 406.385,-174.514 416.742,-176.747 415.873,-169.801"/>
</g>
<!-- Node334 -->
<g id="node9" class="node"><title>Node334</title>
<g id="a_node9"><a xlink:href="classoptions.html#a52a9fb1d5bdb6ed104e700390b8c0208" target="_top" xlink:title="Constructeur de l&#39;onglet correspondant à un pointeur parent vers une instance de la classe Altair...">
<polygon fill="white" stroke="black" points="464.5,-114.5 464.5,-133.5 550.5,-133.5 550.5,-114.5 464.5,-114.5"/>
<text text-anchor="middle" x="507.5" y="-121.5" font-family="Helvetica,sans-Serif" font-size="10.00">options::options</text>
</a>
</g>
</g>
<!-- Node328&#45;&gt;Node334 -->
<g id="edge10" class="edge"><title>Node328&#45;&gt;Node334</title>
<path fill="none" stroke="midnightblue" d="M384.009,-167.103C400.803,-159.468 422.349,-150.131 442,-143 451.328,-139.615 461.572,-136.384 471.096,-133.577"/>
<polygon fill="midnightblue" stroke="midnightblue" points="382.346,-164.015 374.721,-171.371 385.269,-170.376 382.346,-164.015"/>
</g>
<!-- Node335 -->
<g id="node10" class="node"><title>Node335</title>
<g id="a_node10"><a xlink:href="class_altair.html#a08b5e402c9a694af09110afe33219080" target="_top" xlink:title="Construction de la ligne de commande pour des bases de paye dans un répertoire donné ...">
<polygon fill="white" stroke="black" points="462.5,-38.5 462.5,-57.5 552.5,-57.5 552.5,-38.5 462.5,-38.5"/>
<text text-anchor="middle" x="507.5" y="-45.5" font-family="Helvetica,sans-Serif" font-size="10.00">Altair::runWorker</text>
</a>
</g>
</g>
<!-- Node328&#45;&gt;Node335 -->
<g id="edge11" class="edge"><title>Node328&#45;&gt;Node335</title>
<path fill="none" stroke="midnightblue" d="M364.919,-162.594C379.354,-138.619 407.588,-96.8435 442,-72 450.428,-65.9155 460.577,-61.1948 470.304,-57.6135"/>
<polygon fill="midnightblue" stroke="midnightblue" points="361.796,-161.002 359.759,-171.399 367.835,-164.541 361.796,-161.002"/>
</g>
<!-- Node337 -->
<g id="node12" class="node"><title>Node337</title>
<g id="a_node12"><a xlink:href="class_altair.html#a7d10f8ecf4097577885172afb6c2e9c6" target="_top" xlink:title="Lance l&#39;exécution de l&#39;application en ligne de commande lhx. ">
<polygon fill="white" stroke="black" points="810.5,-38.5 810.5,-57.5 869.5,-57.5 869.5,-38.5 810.5,-38.5"/>
<text text-anchor="middle" x="840" y="-45.5" font-family="Helvetica,sans-Serif" font-size="10.00">Altair::run</text>
</a>
</g>
</g>
<!-- Node328&#45;&gt;Node337 -->
<g id="edge16" class="edge"><title>Node328&#45;&gt;Node337</title>
<path fill="none" stroke="midnightblue" d="M369.108,-163.395C385.039,-145.506 412.265,-118.56 442,-105 566.156,-48.3827 610.975,-81.7122 746,-62 767.488,-58.863 791.751,-55.2067 810.105,-52.4175"/>
<polygon fill="midnightblue" stroke="midnightblue" points="366.123,-161.495 362.233,-171.35 371.42,-166.072 366.123,-161.495"/>
</g>
<!-- Node330&#45;&gt;Node329 -->
<g id="edge5" class="edge"><title>Node330&#45;&gt;Node329</title>
<path fill="none" stroke="midnightblue" d="M554.928,-313.84C582.95,-306.501 617.998,-297.322 643.254,-290.707"/>
<polygon fill="midnightblue" stroke="midnightblue" points="553.74,-310.533 544.953,-316.453 555.514,-317.305 553.74,-310.533"/>
</g>
<!-- Node331&#45;&gt;Node329 -->
<g id="edge7" class="edge"><title>Node331&#45;&gt;Node329</title>
<path fill="none" stroke="midnightblue" d="M571.47,-282C595.868,-282 622.795,-282 643.276,-282"/>
<polygon fill="midnightblue" stroke="midnightblue" points="571.195,-278.5 561.195,-282 571.195,-285.5 571.195,-278.5"/>
</g>
<!-- Node336 -->
<g id="node11" class="node"><title>Node336</title>
<g id="a_node11"><a xlink:href="class_altair.html#ae04f2a5771d47bbe2e0cc3a11b72d6bf" target="_top" xlink:title="Parcourt le répertoire en cours du mode distributif, un à chaque appel Exporte l&#39;identification dans ...">
<polygon fill="white" stroke="black" points="609,-0.5 609,-19.5 746,-19.5 746,-0.5 609,-0.5"/>
<text text-anchor="middle" x="677.5" y="-7.5" font-family="Helvetica,sans-Serif" font-size="10.00">Altair::runWorkerDistributed</text>
</a>
</g>
</g>
<!-- Node335&#45;&gt;Node336 -->
<g id="edge12" class="edge"><title>Node335&#45;&gt;Node336</title>
<path fill="none" stroke="midnightblue" d="M560.776,-36.1757C584.461,-30.8184 612.09,-24.5689 634.411,-19.5201"/>
<polygon fill="midnightblue" stroke="midnightblue" points="559.875,-32.791 550.893,-38.411 561.419,-39.6185 559.875,-32.791"/>
</g>
<!-- Node335&#45;&gt;Node337 -->
<g id="edge15" class="edge"><title>Node335&#45;&gt;Node337</title>
<path fill="none" stroke="midnightblue" d="M562.795,-48C633.596,-48 754.903,-48 810.115,-48"/>
<polygon fill="midnightblue" stroke="midnightblue" points="562.73,-44.5001 552.73,-48 562.73,-51.5001 562.73,-44.5001"/>
</g>
<!-- Node336&#45;&gt;Node337 -->
<g id="edge13" class="edge"><title>Node336&#45;&gt;Node337</title>
<path fill="none" stroke="midnightblue" d="M728.97,-21.9494C755.719,-28.2823 787.61,-35.833 810.155,-41.1707"/>
<polygon fill="midnightblue" stroke="midnightblue" points="729.538,-18.4871 719.001,-19.589 727.926,-25.2988 729.538,-18.4871"/>
</g>
<!-- Node338 -->
<g id="node13" class="node"><title>Node338</title>
<g id="a_node13"><a xlink:href="class_altair.html#a16b8035c4383a789cd00b687fb105fe9" target="_top" xlink:title="Traitement de la fin de l&#39;exécution de lhx. ">
<polygon fill="white" stroke="black" points="782,-0.5 782,-19.5 898,-19.5 898,-0.5 782,-0.5"/>
<text text-anchor="middle" x="840" y="-7.5" font-family="Helvetica,sans-Serif" font-size="10.00">Altair::processFinished</text>
</a>
</g>
</g>
<!-- Node336&#45;&gt;Node338 -->
<g id="edge14" class="edge"><title>Node336&#45;&gt;Node338</title>
<path fill="none" stroke="midnightblue" d="M756.215,-10C764.867,-10 773.558,-10 781.885,-10"/>
<polygon fill="midnightblue" stroke="midnightblue" points="756.101,-6.5001 746.101,-10 756.101,-13.5001 756.101,-6.5001"/>
</g>
</g>
</svg>
        <g id="navigator" transform="translate(0 0)" fill="#404254">
                <rect fill="#f2f5e9" fill-opacity="0.5" stroke="#606060" stroke-width=".5" x="0" y="0" width="60" height="60"/>
                <use id="zoomplus" xlink:href="#zoomPlus" x="17" y="9" onmousedown="handleZoom(evt,'in')"/>
                <use id="zoomminus" xlink:href="#zoomMin" x="42" y="9" onmousedown="handleZoom(evt,'out')"/>
                <use id="reset" xlink:href="#resetDef" x="30" y="36" onmousedown="handleReset()"/>
                <g id="arrowUp" xlink:href="#dirArrow" transform="translate(30 24)" onmousedown="handlePan(0,-1)">
                  <use xlink:href="#rim" fill="#404040">
                        <set attributeName="fill" to="#808080" begin="arrowUp.mouseover" end="arrowUp.mouseout"/>
                  </use>
                  <path fill="none" stroke="white" stroke-width="1.5" d="M0,-3.0v7 M-2.5,-0.5L0,-3.0L2.5,-0.5"/>
                </g>
                <g id="arrowRight" xlink:href="#dirArrow" transform="rotate(90) translate(36 -43)" onmousedown="handlePan(1,0)">
                  <use xlink:href="#rim" fill="#404040">
                        <set attributeName="fill" to="#808080" begin="arrowRight.mouseover" end="arrowRight.mouseout"/>
                  </use>
                  <path fill="none" stroke="white" stroke-width="1.5" d="M0,-3.0v7 M-2.5,-0.5L0,-3.0L2.5,-0.5"/>
                </g>
                <g id="arrowDown" xlink:href="#dirArrow" transform="rotate(180) translate(-30 -48)" onmousedown="handlePan(0,1)">
                  <use xlink:href="#rim" fill="#404040">
                        <set attributeName="fill" to="#808080" begin="arrowDown.mouseover" end="arrowDown.mouseout"/>
                  </use>
                  <path fill="none" stroke="white" stroke-width="1.5" d="M0,-3.0v7 M-2.5,-0.5L0,-3.0L2.5,-0.5"/>
                </g>
                <g id="arrowLeft" xlink:href="#dirArrow" transform="rotate(270) translate(-36 17)" onmousedown="handlePan(-1,0)">
                  <use xlink:href="#rim" fill="#404040">
                        <set attributeName="fill" to="#808080" begin="arrowLeft.mouseover" end="arrowLeft.mouseout"/>
                  </use>
                  <path fill="none" stroke="white" stroke-width="1.5" d="M0,-3.0v7 M-2.5,-0.5L0,-3.0L2.5,-0.5"/>
                </g>
        </g>
        <svg viewBox="0 0 15 15" width="100%" height="30px" preserveAspectRatio="xMaxYMin meet">
         <g id="arrow_out" transform="scale(0.3 0.3)">
          <a xlink:href="class_altair_a2f8d129da914d8b9ab3cdaf195f92bd1_icgraph_org.svg" target="_base">
           <rect id="button" ry="5" rx="5" y="6" x="6" height="38" width="38"
                fill="#f2f5e9" fill-opacity="0.5" stroke="#606060" stroke-width="1.0"/>
           <path id="arrow"
             d="M 11.500037,31.436501 C 11.940474,20.09759 22.043105,11.32322 32.158766,21.979434 L 37.068811,17.246167 C 37.068811,17.246167 37.088388,32 37.088388,32 L 22.160133,31.978069 C 22.160133,31.978069 26.997745,27.140456 26.997745,27.140456 C 18.528582,18.264221 13.291696,25.230495 11.500037,31.436501 z"
             style="fill:#404040;"/>
          </a>
         </g>
        </svg>
</svg>
