<?xml version="1.0" encoding="UTF-8" standalone="no"?>
<!DOCTYPE svg PUBLIC "-//W3C//DTD SVG 1.1//EN"
 "http://www.w3.org/Graphics/SVG/1.1/DTD/svg11.dtd">
<!-- Generated by graphviz version 2.38.0 (20140413.2041)
 -->
<!-- Title: tools::substituer Pages: 1 -->
<svg width="628pt" height="209pt"
 viewBox="0.00 0.00 628.00 209.00" xmlns="http://www.w3.org/2000/svg" xmlns:xlink="http://www.w3.org/1999/xlink">
<g id="graph0" class="graph" transform="scale(1 1) rotate(0) translate(4 205)">
<title>tools::substituer</title>
<polygon fill="white" stroke="none" points="-4,4 -4,-205 624,-205 624,4 -4,4"/>
<!-- Node141 -->
<g id="node1" class="node"><title>Node141</title>
<polygon fill="#bfbfbf" stroke="black" points="0,-50 0,-69 86,-69 86,-50 0,-50"/>
<text text-anchor="middle" x="43" y="-57" font-family="Helvetica,sans-Serif" font-size="10.00">tools::substituer</text>
</g>
<!-- Node142 -->
<g id="node2" class="node"><title>Node142</title>
<g id="a_node2"><a xlink:href="classcommon.html#a3149ba29e04e6e5f7f85a2894434bf9e" target="_top" xlink:title="Exporter les caractéristiques du contrôle dans le rapport : Siret, Budget, Employeur, Etablissement. ">
<polygon fill="white" stroke="black" points="122,-88.5 122,-118.5 277,-118.5 277,-88.5 122,-88.5"/>
<text text-anchor="start" x="130" y="-106.5" font-family="Helvetica,sans-Serif" font-size="10.00">common::exporter_identification</text>
<text text-anchor="middle" x="199.5" y="-95.5" font-family="Helvetica,sans-Serif" font-size="10.00">_controle</text>
</a>
</g>
</g>
<!-- Node141&#45;&gt;Node142 -->
<g id="edge1" class="edge"><title>Node141&#45;&gt;Node142</title>
<path fill="none" stroke="midnightblue" d="M87.2311,-71.8118C105.341,-76.9694 126.569,-83.0148 145.6,-88.4346"/>
<polygon fill="midnightblue" stroke="midnightblue" points="88.1005,-68.4202 77.5242,-69.0473 86.1831,-75.1526 88.1005,-68.4202"/>
</g>
<!-- Node147 -->
<g id="node7" class="node"><title>Node147</title>
<g id="a_node7"><a xlink:href="classcode_page.html#a7f3fcb4b6f622b1c11a7b39e245b76b6" target="_top" xlink:title="codePage::substituer\l_valeurs_dans_script_R">
<polygon fill="white" stroke="black" points="329.5,-44.5 329.5,-74.5 451.5,-74.5 451.5,-44.5 329.5,-44.5"/>
<text text-anchor="start" x="337.5" y="-62.5" font-family="Helvetica,sans-Serif" font-size="10.00">codePage::substituer</text>
<text text-anchor="middle" x="390.5" y="-51.5" font-family="Helvetica,sans-Serif" font-size="10.00">_valeurs_dans_script_R</text>
</a>
</g>
</g>
<!-- Node141&#45;&gt;Node147 -->
<g id="edge9" class="edge"><title>Node141&#45;&gt;Node147</title>
<path fill="none" stroke="midnightblue" d="M96.0559,-59.5C158.58,-59.5 263.265,-59.5 329.234,-59.5"/>
<polygon fill="midnightblue" stroke="midnightblue" points="96.0197,-56.0001 86.0197,-59.5 96.0196,-63.0001 96.0197,-56.0001"/>
</g>
<!-- Node149 -->
<g id="node9" class="node"><title>Node149</title>
<g id="a_node9"><a xlink:href="classstandard_page.html#abb37a1fff677f91ad2418b07593aa40d" target="_top" xlink:title="Exporter le versant FPH ou FPT dans le script R pour générer les tests adéquats. ">
<polygon fill="white" stroke="black" points="137,-0.5 137,-30.5 262,-30.5 262,-0.5 137,-0.5"/>
<text text-anchor="start" x="145" y="-18.5" font-family="Helvetica,sans-Serif" font-size="10.00">standardPage::substituer</text>
<text text-anchor="middle" x="199.5" y="-7.5" font-family="Helvetica,sans-Serif" font-size="10.00">_versant</text>
</a>
</g>
</g>
<!-- Node141&#45;&gt;Node149 -->
<g id="edge10" class="edge"><title>Node141&#45;&gt;Node149</title>
<path fill="none" stroke="midnightblue" d="M87.2311,-47.1882C105.341,-42.0306 126.569,-35.9852 145.6,-30.5654"/>
<polygon fill="midnightblue" stroke="midnightblue" points="86.1831,-43.8474 77.5242,-49.9527 88.1005,-50.5798 86.1831,-43.8474"/>
</g>
<!-- Node143 -->
<g id="node3" class="node"><title>Node143</title>
<g id="a_node3"><a xlink:href="classcommon.html#a7900f8a5d7ebd42770ce8c366dd4b933" target="_top" xlink:title="Exporter les caractéristiques du contrôle dans le rapport : Siret, Budget, Employeur, Etablissement. ">
<polygon fill="white" stroke="black" points="313,-170.5 313,-200.5 468,-200.5 468,-170.5 313,-170.5"/>
<text text-anchor="start" x="321" y="-188.5" font-family="Helvetica,sans-Serif" font-size="10.00">common::exporter_identification</text>
<text text-anchor="middle" x="390.5" y="-177.5" font-family="Helvetica,sans-Serif" font-size="10.00">_controle</text>
</a>
</g>
</g>
<!-- Node142&#45;&gt;Node143 -->
<g id="edge2" class="edge"><title>Node142&#45;&gt;Node143</title>
<path fill="none" stroke="midnightblue" d="M240.881,-122.869C262.195,-132.913 288.865,-145.201 313,-155.5 324.809,-160.539 337.77,-165.743 349.613,-170.373"/>
<polygon fill="midnightblue" stroke="midnightblue" points="242.333,-119.684 231.797,-118.572 239.34,-126.012 242.333,-119.684"/>
</g>
<!-- Node144 -->
<g id="node4" class="node"><title>Node144</title>
<g id="a_node4"><a xlink:href="class_altair.html#a7d10f8ecf4097577885172afb6c2e9c6" target="_top" xlink:title="Lance l&#39;exécution de l&#39;application en ligne de commande lhx. ">
<polygon fill="white" stroke="black" points="532.5,-132 532.5,-151 591.5,-151 591.5,-132 532.5,-132"/>
<text text-anchor="middle" x="562" y="-139" font-family="Helvetica,sans-Serif" font-size="10.00">Altair::run</text>
</a>
</g>
</g>
<!-- Node142&#45;&gt;Node144 -->
<g id="edge3" class="edge"><title>Node142&#45;&gt;Node144</title>
<path fill="none" stroke="midnightblue" d="M287.35,-118.976C296,-120.274 304.663,-121.479 313,-122.5 392.079,-132.187 485.988,-137.78 532.275,-140.148"/>
<polygon fill="midnightblue" stroke="midnightblue" points="287.637,-115.479 277.22,-117.413 286.57,-122.397 287.637,-115.479"/>
</g>
<!-- Node145 -->
<g id="node5" class="node"><title>Node145</title>
<g id="a_node5"><a xlink:href="class_altair.html#ae04f2a5771d47bbe2e0cc3a11b72d6bf" target="_top" xlink:title="Parcourt le répertoire en cours du mode distributif, un à chaque appel Exporte l&#39;identification dans ...">
<polygon fill="white" stroke="black" points="322,-94 322,-113 459,-113 459,-94 322,-94"/>
<text text-anchor="middle" x="390.5" y="-101" font-family="Helvetica,sans-Serif" font-size="10.00">Altair::runWorkerDistributed</text>
</a>
</g>
</g>
<!-- Node142&#45;&gt;Node145 -->
<g id="edge4" class="edge"><title>Node142&#45;&gt;Node145</title>
<path fill="none" stroke="midnightblue" d="M287.262,-103.5C298.891,-103.5 310.677,-103.5 321.909,-103.5"/>
<polygon fill="midnightblue" stroke="midnightblue" points="287.101,-100 277.101,-103.5 287.101,-107 287.101,-100"/>
</g>
<!-- Node142&#45;&gt;Node147 -->
<g id="edge7" class="edge"><title>Node142&#45;&gt;Node147</title>
<path fill="none" stroke="midnightblue" d="M274.931,-86.1723C293.002,-81.9652 312.099,-77.5192 329.412,-73.4887"/>
<polygon fill="midnightblue" stroke="midnightblue" points="273.96,-82.8044 265.014,-88.4808 275.548,-89.6221 273.96,-82.8044"/>
</g>
<!-- Node145&#45;&gt;Node144 -->
<g id="edge6" class="edge"><title>Node145&#45;&gt;Node144</title>
<path fill="none" stroke="midnightblue" d="M444.285,-115.334C473.365,-121.853 508.328,-129.692 532.36,-135.079"/>
<polygon fill="midnightblue" stroke="midnightblue" points="444.795,-111.861 434.272,-113.089 443.264,-118.692 444.795,-111.861"/>
</g>
<!-- Node146 -->
<g id="node6" class="node"><title>Node146</title>
<g id="a_node6"><a xlink:href="class_altair.html#a16b8035c4383a789cd00b687fb105fe9" target="_top" xlink:title="Traitement de la fin de l&#39;exécution de lhx. ">
<polygon fill="white" stroke="black" points="504,-94 504,-113 620,-113 620,-94 504,-94"/>
<text text-anchor="middle" x="562" y="-101" font-family="Helvetica,sans-Serif" font-size="10.00">Altair::processFinished</text>
</a>
</g>
</g>
<!-- Node145&#45;&gt;Node146 -->
<g id="edge5" class="edge"><title>Node145&#45;&gt;Node146</title>
<path fill="none" stroke="midnightblue" d="M469.568,-103.5C481.138,-103.5 492.876,-103.5 503.91,-103.5"/>
<polygon fill="midnightblue" stroke="midnightblue" points="469.466,-100 459.465,-103.5 469.465,-107 469.466,-100"/>
</g>
<!-- Node148 -->
<g id="node8" class="node"><title>Node148</title>
<g id="a_node8"><a xlink:href="classcode_page.html#a927a6bef8cac0406a49225bc72894a1f" target="_top" xlink:title="Constructeur du dialogue &quot;Code de paye des tests&quot;. ">
<polygon fill="white" stroke="black" points="507,-50 507,-69 617,-69 617,-50 507,-50"/>
<text text-anchor="middle" x="562" y="-57" font-family="Helvetica,sans-Serif" font-size="10.00">codePage::codePage</text>
</a>
</g>
</g>
<!-- Node147&#45;&gt;Node148 -->
<g id="edge8" class="edge"><title>Node147&#45;&gt;Node148</title>
<path fill="none" stroke="midnightblue" d="M461.999,-59.5C476.998,-59.5 492.61,-59.5 506.883,-59.5"/>
<polygon fill="midnightblue" stroke="midnightblue" points="461.737,-56.0001 451.737,-59.5 461.737,-63.0001 461.737,-56.0001"/>
</g>
<!-- Node150 -->
<g id="node10" class="node"><title>Node150</title>
<g id="a_node10"><a xlink:href="classstandard_page.html#a95b9887a321f29e844fd314048585cee" target="_top" xlink:title="Constructeur de l&#39;onglet &quot;Format des bases&quot;. ">
<polygon fill="white" stroke="black" points="319,-6 319,-25 462,-25 462,-6 319,-6"/>
<text text-anchor="middle" x="390.5" y="-13" font-family="Helvetica,sans-Serif" font-size="10.00">standardPage::standardPage</text>
</a>
</g>
</g>
<!-- Node149&#45;&gt;Node150 -->
<g id="edge11" class="edge"><title>Node149&#45;&gt;Node150</title>
<path fill="none" stroke="midnightblue" d="M272.477,-15.5C287.651,-15.5 303.647,-15.5 318.775,-15.5"/>
<polygon fill="midnightblue" stroke="midnightblue" points="272.124,-12.0001 262.124,-15.5 272.124,-19.0001 272.124,-12.0001"/>
</g>
</g>
</svg>
