<?xml version="1.0" encoding="UTF-8" standalone="no"?>
<!DOCTYPE svg PUBLIC "-//W3C//DTD SVG 1.1//EN"
 "http://www.w3.org/Graphics/SVG/1.1/DTD/svg11.dtd">
<!-- Generated by graphviz version 2.38.0 (20140413.2041)
 -->
<!-- Title: MatriculeInput::checkDefaultFolder Pages: 1 -->
<svg width="338pt" height="116pt"
 viewBox="0.00 0.00 338.00 115.50" xmlns="http://www.w3.org/2000/svg" xmlns:xlink="http://www.w3.org/1999/xlink">
<g id="graph0" class="graph" transform="scale(1 1) rotate(0) translate(4 111.5)">
<title>MatriculeInput::checkDefaultFolder</title>
<polygon fill="white" stroke="none" points="-4,4 -4,-111.5 334,-111.5 334,4 -4,4"/>
<!-- Node10 -->
<g id="node1" class="node"><title>Node10</title>
<polygon fill="#bfbfbf" stroke="black" points="0,-33 0,-63 148,-63 148,-33 0,-33"/>
<text text-anchor="start" x="8" y="-51" font-family="Helvetica,sans-Serif" font-size="10.00">MatriculeInput::checkDefault</text>
<text text-anchor="middle" x="74" y="-40" font-family="Helvetica,sans-Serif" font-size="10.00">Folder</text>
</g>
<!-- Node11 -->
<g id="node2" class="node"><title>Node11</title>
<g id="a_node2"><a xlink:href="class_matricule_input.html#a570b775e6c896dba52da89945a7fd02c" target="_top" xlink:title="Connecteur qui rajoute une ligne de saisie de matricules au dialogue Exportation des bulletins ...">
<polygon fill="white" stroke="black" points="184,-77 184,-107 330,-107 330,-77 184,-77"/>
<text text-anchor="start" x="192" y="-95" font-family="Helvetica,sans-Serif" font-size="10.00">MatriculeInput::ajouterLigne</text>
<text text-anchor="middle" x="257" y="-84" font-family="Helvetica,sans-Serif" font-size="10.00">Matricules</text>
</a>
</g>
</g>
<!-- Node10&#45;&gt;Node11 -->
<g id="edge1" class="edge"><title>Node10&#45;&gt;Node11</title>
<path fill="none" stroke="midnightblue" d="M136.784,-63.0192C151.989,-66.7156 168.401,-70.7053 184.042,-74.5074"/>
<polygon fill="midnightblue" stroke="midnightblue" points="183.644,-78.0125 194.188,-76.9738 185.297,-71.2106 183.644,-78.0125"/>
</g>
<!-- Node12 -->
<g id="node3" class="node"><title>Node12</title>
<g id="a_node3"><a xlink:href="class_f_line_frame.html#a63a8e07ab4bbff07da779f45e86e1721" target="_top" xlink:title="Accesseur en lecture : retourne le texte de la ligne. ">
<polygon fill="white" stroke="black" points="200.5,-38.5 200.5,-57.5 313.5,-57.5 313.5,-38.5 200.5,-38.5"/>
<text text-anchor="middle" x="257" y="-45.5" font-family="Helvetica,sans-Serif" font-size="10.00">FLineFrame::getText</text>
</a>
</g>
</g>
<!-- Node10&#45;&gt;Node12 -->
<g id="edge2" class="edge"><title>Node10&#45;&gt;Node12</title>
<path fill="none" stroke="midnightblue" d="M148.098,-48C162.015,-48 176.502,-48 190.176,-48"/>
<polygon fill="midnightblue" stroke="midnightblue" points="190.451,-51.5001 200.45,-48 190.45,-44.5001 190.451,-51.5001"/>
</g>
<!-- Node13 -->
<g id="node4" class="node"><title>Node13</title>
<g id="a_node4"><a xlink:href="class_f_line_frame.html#a532228c9d7ad141dda66d081df38b48a" target="_top" xlink:title="Accesseur en écriture : édite le texte de la ligne. ">
<polygon fill="white" stroke="black" points="200.5,-0.5 200.5,-19.5 313.5,-19.5 313.5,-0.5 200.5,-0.5"/>
<text text-anchor="middle" x="257" y="-7.5" font-family="Helvetica,sans-Serif" font-size="10.00">FLineFrame::setText</text>
</a>
</g>
</g>
<!-- Node10&#45;&gt;Node13 -->
<g id="edge3" class="edge"><title>Node10&#45;&gt;Node13</title>
<path fill="none" stroke="midnightblue" d="M146.536,-32.9814C164.626,-29.1835 183.774,-25.1634 200.911,-21.5656"/>
<polygon fill="midnightblue" stroke="midnightblue" points="201.678,-24.981 210.746,-19.5009 200.24,-18.1303 201.678,-24.981"/>
</g>
</g>
</svg>
