<?xml version="1.0" encoding="UTF-8" standalone="no"?>
<!DOCTYPE svg PUBLIC "-//W3C//DTD SVG 1.1//EN"
 "http://www.w3.org/Graphics/SVG/1.1/DTD/svg11.dtd">
<!-- Generated by graphviz version 2.38.0 (20140413.2041)
 -->
<!-- Title: options::options Pages: 1 -->
<svg width="1206pt" height="526pt"
 viewBox="0.00 0.00 1206.00 526.00" xmlns="http://www.w3.org/2000/svg" xmlns:xlink="http://www.w3.org/1999/xlink">
<g id="graph0" class="graph" transform="scale(1 1) rotate(0) translate(4 522)">
<title>options::options</title>
<polygon fill="white" stroke="none" points="-4,4 -4,-522 1202,-522 1202,4 -4,4"/>
<!-- Node0 -->
<g id="node1" class="node"><title>Node0</title>
<polygon fill="#bfbfbf" stroke="black" points="0,-283.5 0,-302.5 86,-302.5 86,-283.5 0,-283.5"/>
<text text-anchor="middle" x="43" y="-290.5" font-family="Helvetica,sans-Serif" font-size="10.00">options::options</text>
</g>
<!-- Node1 -->
<g id="node2" class="node"><title>Node1</title>
<g id="a_node2"><a xlink:href="classoptions.html#afd95d4619d23d889c1a7b5acca9aa9a3" target="_top" xlink:title="Changement d&#39;onglet du dialogue d&#39;options. ">
<polygon fill="white" stroke="black" points="136,-340.5 136,-359.5 244,-359.5 244,-340.5 136,-340.5"/>
<text text-anchor="middle" x="190" y="-347.5" font-family="Helvetica,sans-Serif" font-size="10.00">options::changePage</text>
</a>
</g>
</g>
<!-- Node0&#45;&gt;Node1 -->
<g id="edge1" class="edge"><title>Node0&#45;&gt;Node1</title>
<path fill="none" stroke="midnightblue" d="M61.2637,-302.511C76.8142,-310.81 100.47,-322.777 122,-331 128.004,-333.293 134.403,-335.453 140.775,-337.436"/>
<polygon fill="midnightblue" stroke="midnightblue" points="140.12,-340.894 150.704,-340.401 142.123,-334.186 140.12,-340.894"/>
</g>
<!-- Node2 -->
<g id="node3" class="node"><title>Node2</title>
<g id="a_node3"><a xlink:href="classoptions.html#ad87424d624e6d5e6a3999fbe7da72d09" target="_top" xlink:title="Méthode permettant d&#39;ajouter les icônes. ">
<polygon fill="white" stroke="black" points="137.5,-302.5 137.5,-321.5 242.5,-321.5 242.5,-302.5 137.5,-302.5"/>
<text text-anchor="middle" x="190" y="-309.5" font-family="Helvetica,sans-Serif" font-size="10.00">options::createIcons</text>
</a>
</g>
</g>
<!-- Node0&#45;&gt;Node2 -->
<g id="edge2" class="edge"><title>Node0&#45;&gt;Node2</title>
<path fill="none" stroke="midnightblue" d="M86.3298,-298.547C99.1774,-300.23 113.563,-302.115 127.407,-303.929"/>
<polygon fill="midnightblue" stroke="midnightblue" points="126.991,-307.404 137.361,-305.233 127.9,-300.464 126.991,-307.404"/>
</g>
<!-- Node4 -->
<g id="node5" class="node"><title>Node4</title>
<g id="a_node5"><a xlink:href="classoptions.html#a3ed5ebd88ec807e26894187b51327bc4" target="_top" xlink:title="Coche la case &quot;Enchainer les rapports&quot; qui permet de lancer R pour produire des rapports d&#39;analyse à ...">
<polygon fill="white" stroke="black" points="122,-264.5 122,-283.5 258,-283.5 258,-264.5 122,-264.5"/>
<text text-anchor="middle" x="190" y="-271.5" font-family="Helvetica,sans-Serif" font-size="10.00">options::enchainerRapports</text>
</a>
</g>
</g>
<!-- Node0&#45;&gt;Node4 -->
<g id="edge4" class="edge"><title>Node0&#45;&gt;Node4</title>
<path fill="none" stroke="midnightblue" d="M86.3298,-287.453C94.4075,-286.395 103.093,-285.257 111.87,-284.107"/>
<polygon fill="midnightblue" stroke="midnightblue" points="112.33,-287.576 121.79,-282.807 111.42,-280.636 112.33,-287.576"/>
</g>
<!-- Node5 -->
<g id="node6" class="node"><title>Node5</title>
<g id="a_node6"><a xlink:href="class_altair.html#a2eb0a89c3223b2df1c01d2b3b7d1c0eb" target="_top" xlink:title="Rafraichir le projet .alt après avoir actualisé l&#39;interface. ">
<polygon fill="white" stroke="black" points="137.5,-207.5 137.5,-226.5 242.5,-226.5 242.5,-207.5 137.5,-207.5"/>
<text text-anchor="middle" x="190" y="-214.5" font-family="Helvetica,sans-Serif" font-size="10.00">Altair::updateProject</text>
</a>
</g>
</g>
<!-- Node0&#45;&gt;Node5 -->
<g id="edge5" class="edge"><title>Node0&#45;&gt;Node5</title>
<path fill="none" stroke="midnightblue" d="M62.3644,-283.375C87.423,-270.24 132.528,-246.599 161.595,-231.364"/>
<polygon fill="midnightblue" stroke="midnightblue" points="163.552,-234.29 170.785,-226.547 160.303,-228.09 163.552,-234.29"/>
</g>
<!-- Node3 -->
<g id="node4" class="node"><title>Node3</title>
<g id="a_node4"><a xlink:href="classoptions.html#a45e2899f9b408fb65f4a84049be19713" target="_top" xlink:title="Méthode permettant d&#39;ajouter une icône particulière. ">
<polygon fill="white" stroke="black" points="315.5,-321.5 315.5,-340.5 415.5,-340.5 415.5,-321.5 315.5,-321.5"/>
<text text-anchor="middle" x="365.5" y="-328.5" font-family="Helvetica,sans-Serif" font-size="10.00">options::createIcon</text>
</a>
</g>
</g>
<!-- Node2&#45;&gt;Node3 -->
<g id="edge3" class="edge"><title>Node2&#45;&gt;Node3</title>
<path fill="none" stroke="midnightblue" d="M242.586,-317.649C262.325,-319.811 284.989,-322.293 305.378,-324.526"/>
<polygon fill="midnightblue" stroke="midnightblue" points="305.171,-328.024 315.493,-325.633 305.933,-321.065 305.171,-328.024"/>
</g>
<!-- Node6 -->
<g id="node7" class="node"><title>Node6</title>
<g id="a_node7"><a xlink:href="struct_abstract.html#af7b700041c9d75de3f642f15ece3e6ae" target="_top" xlink:title="Réinitialiser toutes les valeurs du de la table de hachage Hash::wrapper. ">
<polygon fill="white" stroke="black" points="325.5,-169.5 325.5,-188.5 405.5,-188.5 405.5,-169.5 325.5,-169.5"/>
<text text-anchor="middle" x="365.5" y="-176.5" font-family="Helvetica,sans-Serif" font-size="10.00">Abstract::initH</text>
</a>
</g>
</g>
<!-- Node5&#45;&gt;Node6 -->
<g id="edge6" class="edge"><title>Node5&#45;&gt;Node6</title>
<path fill="none" stroke="midnightblue" d="M234.781,-207.411C259.418,-202.015 290.241,-195.264 315.659,-189.697"/>
<polygon fill="midnightblue" stroke="midnightblue" points="316.449,-193.107 325.469,-187.549 314.951,-186.269 316.449,-193.107"/>
</g>
<!-- Node7 -->
<g id="node8" class="node"><title>Node7</title>
<g id="a_node8"><a xlink:href="class_main_window.html#ab58113ae4ed9a73ec3e3e5f83c98dfcc" target="_top" xlink:title="Vérifie si par défaut le projet .alt doit être enregistré à chaque modification de l&#39;état de l&#39;interf...">
<polygon fill="white" stroke="black" points="295.5,-120 295.5,-150 435.5,-150 435.5,-120 295.5,-120"/>
<text text-anchor="start" x="303.5" y="-138" font-family="Helvetica,sans-Serif" font-size="10.00">MainWindow::isDefaultSave</text>
<text text-anchor="middle" x="365.5" y="-127" font-family="Helvetica,sans-Serif" font-size="10.00">ProjectChecked</text>
</a>
</g>
</g>
<!-- Node5&#45;&gt;Node7 -->
<g id="edge7" class="edge"><title>Node5&#45;&gt;Node7</title>
<path fill="none" stroke="midnightblue" d="M206.294,-207.488C226.057,-195.444 261.761,-174.518 294,-160 298.762,-157.855 303.768,-155.768 308.824,-153.772"/>
<polygon fill="midnightblue" stroke="midnightblue" points="310.463,-156.893 318.556,-150.056 307.966,-150.353 310.463,-156.893"/>
</g>
<!-- Node8 -->
<g id="node9" class="node"><title>Node8</title>
<g id="a_node9"><a xlink:href="classtools.html#a89d2cd8ffcaed8423439c16d1ee59ab0" target="_top" xlink:title="tools::path_access">
<polygon fill="white" stroke="black" points="316,-81.5 316,-100.5 415,-100.5 415,-81.5 316,-81.5"/>
<text text-anchor="middle" x="365.5" y="-88.5" font-family="Helvetica,sans-Serif" font-size="10.00">tools::path_access</text>
</a>
</g>
</g>
<!-- Node5&#45;&gt;Node8 -->
<g id="edge8" class="edge"><title>Node5&#45;&gt;Node8</title>
<path fill="none" stroke="midnightblue" d="M197.475,-207.332C212.091,-186.283 249.828,-136.11 294,-110 297.848,-107.725 301.974,-105.717 306.228,-103.944"/>
<polygon fill="midnightblue" stroke="midnightblue" points="307.533,-107.193 315.688,-100.429 305.095,-100.632 307.533,-107.193"/>
</g>
<!-- Node9 -->
<g id="node10" class="node"><title>Node9</title>
<g id="a_node10"><a xlink:href="class_altair.html#ac9d7d8e7cebf70212818f1a8ba7d7d78" target="_top" xlink:title="Rafraîchit le gestionnaire de projet à la droite de l&#39;interface. Fonction globale par défaut...">
<polygon fill="white" stroke="black" points="294,-245.5 294,-264.5 437,-264.5 437,-245.5 294,-245.5"/>
<text text-anchor="middle" x="365.5" y="-252.5" font-family="Helvetica,sans-Serif" font-size="10.00">Altair::refreshProjectManager</text>
</a>
</g>
</g>
<!-- Node5&#45;&gt;Node9 -->
<g id="edge9" class="edge"><title>Node5&#45;&gt;Node9</title>
<path fill="none" stroke="midnightblue" d="M234.781,-226.589C257.986,-231.671 286.678,-237.955 311.173,-243.32"/>
<polygon fill="midnightblue" stroke="midnightblue" points="310.516,-246.759 321.033,-245.48 312.014,-239.921 310.516,-246.759"/>
</g>
<!-- Node32 -->
<g id="node33" class="node"><title>Node32</title>
<g id="a_node33"><a xlink:href="class_altair.html#ad0436bfddbdcdd19cc80154e02b4323c" target="_top" xlink:title="Assigner le fichier courant. ">
<polygon fill="white" stroke="black" points="312,-207.5 312,-226.5 419,-226.5 419,-207.5 312,-207.5"/>
<text text-anchor="middle" x="365.5" y="-214.5" font-family="Helvetica,sans-Serif" font-size="10.00">Altair::setCurrentFile</text>
</a>
</g>
</g>
<!-- Node5&#45;&gt;Node32 -->
<g id="edge38" class="edge"><title>Node5&#45;&gt;Node32</title>
<path fill="none" stroke="midnightblue" d="M242.586,-217C261.129,-217 282.252,-217 301.647,-217"/>
<polygon fill="midnightblue" stroke="midnightblue" points="301.912,-220.5 311.912,-217 301.912,-213.5 301.912,-220.5"/>
</g>
<!-- Node34 -->
<g id="node35" class="node"><title>Node34</title>
<g id="a_node35"><a xlink:href="class_altair.html#a43120f9909d0284074119529a03df85b" target="_top" xlink:title="Ecrit le projet XML d&#39;extension .alt contenant les références des donnéees de paye. ">
<polygon fill="white" stroke="black" points="309,-283.5 309,-302.5 422,-302.5 422,-283.5 309,-283.5"/>
<text text-anchor="middle" x="365.5" y="-290.5" font-family="Helvetica,sans-Serif" font-size="10.00">Altair::writeProjectFile</text>
</a>
</g>
</g>
<!-- Node5&#45;&gt;Node34 -->
<g id="edge40" class="edge"><title>Node5&#45;&gt;Node34</title>
<path fill="none" stroke="midnightblue" d="M207.916,-226.655C234.809,-241.961 285.19,-270.437 294,-274 299.938,-276.402 306.279,-278.596 312.632,-280.57"/>
<polygon fill="midnightblue" stroke="midnightblue" points="311.988,-284.029 322.569,-283.491 313.962,-277.313 311.988,-284.029"/>
</g>
<!-- Node10 -->
<g id="node11" class="node"><title>Node10</title>
<g id="a_node11"><a xlink:href="class_altair.html#a9df2266cd3e2a9905e74bb41c1f9415d" target="_top" xlink:title="Remplace un nom de projet vide par un nom par défaut. ">
<polygon fill="white" stroke="black" points="473,-283.5 473,-302.5 630,-302.5 630,-283.5 473,-283.5"/>
<text text-anchor="middle" x="551.5" y="-290.5" font-family="Helvetica,sans-Serif" font-size="10.00">Altair::checkEmptyProjectName</text>
</a>
</g>
</g>
<!-- Node9&#45;&gt;Node10 -->
<g id="edge10" class="edge"><title>Node9&#45;&gt;Node10</title>
<path fill="none" stroke="midnightblue" d="M412.931,-264.589C437.649,-269.694 468.239,-276.011 494.292,-281.392"/>
<polygon fill="midnightblue" stroke="midnightblue" points="493.902,-284.885 504.403,-283.48 495.317,-278.03 493.902,-284.885"/>
</g>
<!-- Node11 -->
<g id="node12" class="node"><title>Node11</title>
<g id="a_node12"><a xlink:href="class_altair.html#a41b6c8a35ed8ba14c7c0ce2e6994655f" target="_top" xlink:title="Décode le projet représenté par un pointeur vers QFile ou similaire. ">
<polygon fill="white" stroke="black" points="493.5,-245.5 493.5,-264.5 609.5,-264.5 609.5,-245.5 493.5,-245.5"/>
<text text-anchor="middle" x="551.5" y="-252.5" font-family="Helvetica,sans-Serif" font-size="10.00">Altair::parseProjectFile</text>
</a>
</g>
</g>
<!-- Node9&#45;&gt;Node11 -->
<g id="edge11" class="edge"><title>Node9&#45;&gt;Node11</title>
<path fill="none" stroke="midnightblue" d="M437.113,-255C452.264,-255 468.235,-255 483.254,-255"/>
<polygon fill="midnightblue" stroke="midnightblue" points="483.479,-258.5 493.479,-255 483.478,-251.5 483.479,-258.5"/>
</g>
<!-- Node17 -->
<g id="node18" class="node"><title>Node17</title>
<g id="a_node18"><a xlink:href="class_altair.html#a4995cdc9462838289b5b1df75edba552" target="_top" xlink:title="Ajouter du texte à l&#39;onglet des messages. ">
<polygon fill="white" stroke="black" points="888,-202.5 888,-221.5 983,-221.5 983,-202.5 888,-202.5"/>
<text text-anchor="middle" x="935.5" y="-209.5" font-family="Helvetica,sans-Serif" font-size="10.00">Altair::textAppend</text>
</a>
</g>
</g>
<!-- Node9&#45;&gt;Node17 -->
<g id="edge37" class="edge"><title>Node9&#45;&gt;Node17</title>
<path fill="none" stroke="midnightblue" d="M412.709,-245.462C431.358,-241.952 453.128,-238.28 473,-236 618.144,-219.344 790.308,-214.24 877.613,-212.681"/>
<polygon fill="midnightblue" stroke="midnightblue" points="877.893,-216.177 887.832,-212.508 877.774,-209.178 877.893,-216.177"/>
</g>
<!-- Node24 -->
<g id="node25" class="node"><title>Node24</title>
<g id="a_node25"><a xlink:href="class_altair.html#abf7d1895e52f7b8d7d26e4b5a0e6146a" target="_top" xlink:title="Rafraîchit le gestionnaire de projet à la droite de l&#39;interface. ">
<polygon fill="white" stroke="black" points="669.5,-121 669.5,-151 812.5,-151 812.5,-121 669.5,-121"/>
<text text-anchor="start" x="677.5" y="-139" font-family="Helvetica,sans-Serif" font-size="10.00">Altair::refreshProjectManager</text>
<text text-anchor="middle" x="741" y="-128" font-family="Helvetica,sans-Serif" font-size="10.00">Values</text>
</a>
</g>
</g>
<!-- Node9&#45;&gt;Node24 -->
<g id="edge36" class="edge"><title>Node9&#45;&gt;Node24</title>
<path fill="none" stroke="midnightblue" d="M415.71,-245.494C423.125,-243.01 430.468,-239.896 437,-236 456.98,-224.082 452.814,-209.566 473,-198 504.419,-179.998 592.843,-161.489 659.39,-149.437"/>
<polygon fill="midnightblue" stroke="midnightblue" points="660.229,-152.842 669.455,-147.633 658.994,-145.952 660.229,-152.842"/>
</g>
<!-- Node12 -->
<g id="node13" class="node"><title>Node12</title>
<g id="a_node13"><a xlink:href="class_altair.html#a8b7b1fa3e0b567dc1d4721bf88087a68" target="_top" xlink:title="Parcourt l&#39;ensemble des widgets fonctionnels Abstract::abstractWidgetList et actualise leur statut in...">
<polygon fill="white" stroke="black" points="674,-278.5 674,-297.5 808,-297.5 808,-278.5 674,-278.5"/>
<text text-anchor="middle" x="741" y="-285.5" font-family="Helvetica,sans-Serif" font-size="10.00">Altair::assignWidgetValues</text>
</a>
</g>
</g>
<!-- Node11&#45;&gt;Node12 -->
<g id="edge12" class="edge"><title>Node11&#45;&gt;Node12</title>
<path fill="none" stroke="midnightblue" d="M606.481,-264.501C628.059,-268.298 653.088,-272.703 675.604,-276.666"/>
<polygon fill="midnightblue" stroke="midnightblue" points="675.295,-280.166 685.751,-278.452 676.509,-273.272 675.295,-280.166"/>
</g>
<!-- Node18 -->
<g id="node19" class="node"><title>Node18</title>
<g id="a_node19"><a xlink:href="class_hash.html#a2ac10203aa8b32a04d9088e08ddbaab4" target="_top" xlink:title="Hash::createReference">
<polygon fill="white" stroke="black" points="682,-354.5 682,-373.5 800,-373.5 800,-354.5 682,-354.5"/>
<text text-anchor="middle" x="741" y="-361.5" font-family="Helvetica,sans-Serif" font-size="10.00">Hash::createReference</text>
</a>
</g>
</g>
<!-- Node11&#45;&gt;Node18 -->
<g id="edge18" class="edge"><title>Node11&#45;&gt;Node18</title>
<path fill="none" stroke="midnightblue" d="M609.769,-262.985C617.052,-265.684 624.032,-269.263 630,-274 657.71,-295.998 638.41,-322.852 666,-345 668.279,-346.829 670.713,-348.485 673.26,-349.982"/>
<polygon fill="midnightblue" stroke="midnightblue" points="671.777,-353.154 682.288,-354.49 674.904,-346.891 671.777,-353.154"/>
</g>
<!-- Node19 -->
<g id="node20" class="node"><title>Node19</title>
<g id="a_node20"><a xlink:href="class_altair.html#a3f6193de22ed2034c9b6dbe7a8ac4d97" target="_top" xlink:title="Lors du décodage du projet XML .alt, décoder le noed courant et renvoyer l&#39;empilement des valeurs en ...">
<polygon fill="white" stroke="black" points="695,-316.5 695,-335.5 787,-335.5 787,-316.5 695,-316.5"/>
<text text-anchor="middle" x="741" y="-323.5" font-family="Helvetica,sans-Serif" font-size="10.00">Altair::parseEntry</text>
</a>
</g>
</g>
<!-- Node11&#45;&gt;Node19 -->
<g id="edge19" class="edge"><title>Node11&#45;&gt;Node19</title>
<path fill="none" stroke="midnightblue" d="M606.744,-264.589C614.791,-267.057 622.793,-270.145 630,-274 649.139,-284.238 646.917,-296.658 666,-307 671.955,-310.227 678.478,-312.923 685.106,-315.171"/>
<polygon fill="midnightblue" stroke="midnightblue" points="684.252,-318.569 694.838,-318.153 686.303,-311.877 684.252,-318.569"/>
</g>
<!-- Node11&#45;&gt;Node24 -->
<g id="edge25" class="edge"><title>Node11&#45;&gt;Node24</title>
<path fill="none" stroke="midnightblue" d="M567.527,-245.463C597.806,-226.246 666.75,-182.489 707.71,-156.493"/>
<polygon fill="midnightblue" stroke="midnightblue" points="709.681,-159.388 716.249,-151.074 705.93,-153.478 709.681,-159.388"/>
</g>
<!-- Node31 -->
<g id="node32" class="node"><title>Node31</title>
<g id="a_node32"><a xlink:href="class_altair.html#a20528df591deee5ad32f28996ba8dc35" target="_top" xlink:title="Raccourcit les chemins dans les onglets en se limitant au non de fichier et les présente &#160;en surligna...">
<polygon fill="white" stroke="black" points="666,-240.5 666,-259.5 816,-259.5 816,-240.5 666,-240.5"/>
<text text-anchor="middle" x="741" y="-247.5" font-family="Helvetica,sans-Serif" font-size="10.00">Altair::refreshRowPresentation</text>
</a>
</g>
</g>
<!-- Node11&#45;&gt;Node31 -->
<g id="edge35" class="edge"><title>Node11&#45;&gt;Node31</title>
<path fill="none" stroke="midnightblue" d="M609.52,-253.479C624.103,-253.091 640.094,-252.664 655.73,-252.247"/>
<polygon fill="midnightblue" stroke="midnightblue" points="656.032,-255.74 665.936,-251.975 655.846,-248.743 656.032,-255.74"/>
</g>
<!-- Node13 -->
<g id="node14" class="node"><title>Node13</title>
<g id="a_node14"><a xlink:href="class_f_abstract_widget.html#ae6ba84e8ed8a54dc8121245f35f568fe" target="_top" xlink:title="Retourne la clé de hashage de Hash::wrapper correspondant au composant. ">
<polygon fill="white" stroke="black" points="860.5,-278.5 860.5,-297.5 1010.5,-297.5 1010.5,-278.5 860.5,-278.5"/>
<text text-anchor="middle" x="935.5" y="-285.5" font-family="Helvetica,sans-Serif" font-size="10.00">FAbstractWidget::getHashKey</text>
</a>
</g>
</g>
<!-- Node12&#45;&gt;Node13 -->
<g id="edge13" class="edge"><title>Node12&#45;&gt;Node13</title>
<path fill="none" stroke="midnightblue" d="M808.248,-288C821.725,-288 836.074,-288 850.084,-288"/>
<polygon fill="midnightblue" stroke="midnightblue" points="850.208,-291.5 860.208,-288 850.208,-284.5 850.208,-291.5"/>
</g>
<!-- Node14 -->
<g id="node15" class="node"><title>Node14</title>
<g id="a_node15"><a xlink:href="struct_abstract.html#a634c4a8152edbeb8d96d2ca8f30e1025" target="_top" xlink:title="Récupère toutes les clés de hachage (de Hash::wrapper) des FWidgets qui sont dans le vecteur FAbstrac...">
<polygon fill="white" stroke="black" points="884,-366.5 884,-385.5 987,-385.5 987,-366.5 884,-366.5"/>
<text text-anchor="middle" x="935.5" y="-373.5" font-family="Helvetica,sans-Serif" font-size="10.00">Abstract::hashKeys</text>
</a>
</g>
</g>
<!-- Node12&#45;&gt;Node14 -->
<g id="edge14" class="edge"><title>Node12&#45;&gt;Node14</title>
<path fill="none" stroke="midnightblue" d="M797.229,-297.558C803.868,-300.018 810.304,-303.111 816,-307 838.615,-322.44 829.194,-341.843 852,-357 858.701,-361.453 866.309,-364.871 874.129,-367.492"/>
<polygon fill="midnightblue" stroke="midnightblue" points="873.145,-370.851 883.726,-370.311 875.117,-364.135 873.145,-370.851"/>
</g>
<!-- Node15 -->
<g id="node16" class="node"><title>Node15</title>
<g id="a_node16"><a xlink:href="class_f_abstract_widget.html#a88c229861e7973810c6ac979d5526c2d" target="_top" xlink:title="FAbstractWidget::setWidget\lFromXml">
<polygon fill="white" stroke="black" points="865.5,-317 865.5,-347 1005.5,-347 1005.5,-317 865.5,-317"/>
<text text-anchor="start" x="873.5" y="-335" font-family="Helvetica,sans-Serif" font-size="10.00">FAbstractWidget::setWidget</text>
<text text-anchor="middle" x="935.5" y="-324" font-family="Helvetica,sans-Serif" font-size="10.00">FromXml</text>
</a>
</g>
</g>
<!-- Node12&#45;&gt;Node15 -->
<g id="edge15" class="edge"><title>Node12&#45;&gt;Node15</title>
<path fill="none" stroke="midnightblue" d="M783.77,-297.547C805.636,-302.545 833.097,-308.822 858.568,-314.644"/>
<polygon fill="midnightblue" stroke="midnightblue" points="858.061,-318.118 868.589,-316.935 859.62,-311.294 858.061,-318.118"/>
</g>
<!-- Node16 -->
<g id="node17" class="node"><title>Node16</title>
<g id="a_node17"><a xlink:href="class_altair.html#a78a2870bb9b316c5ad6bcbd64471eeb8" target="_top" xlink:title="Renvoie la taille des données exportées. ">
<polygon fill="white" stroke="black" points="1095,-202.5 1095,-221.5 1158,-221.5 1158,-202.5 1095,-202.5"/>
<text text-anchor="middle" x="1126.5" y="-209.5" font-family="Helvetica,sans-Serif" font-size="10.00">Altair::size</text>
</a>
</g>
</g>
<!-- Node12&#45;&gt;Node16 -->
<g id="edge16" class="edge"><title>Node12&#45;&gt;Node16</title>
<path fill="none" stroke="midnightblue" d="M790.182,-278.452C866.496,-263.328 1013.8,-234.137 1085,-220.025"/>
<polygon fill="midnightblue" stroke="midnightblue" points="1085.81,-223.434 1094.94,-218.056 1084.45,-216.567 1085.81,-223.434"/>
</g>
<!-- Node12&#45;&gt;Node17 -->
<g id="edge17" class="edge"><title>Node12&#45;&gt;Node17</title>
<path fill="none" stroke="midnightblue" d="M793.015,-278.433C800.961,-275.952 808.886,-272.855 816,-269 835.083,-258.658 833.084,-246.644 852,-236 860.019,-231.488 868.964,-227.756 877.923,-224.692"/>
<polygon fill="midnightblue" stroke="midnightblue" points="879.131,-227.981 887.607,-221.623 877.017,-221.308 879.131,-227.981"/>
</g>
<!-- Node20 -->
<g id="node21" class="node"><title>Node20</title>
<g id="a_node21"><a xlink:href="class_f_list_frame.html#a7ecbe60018d55d1a1352c5fd24c5e72e" target="_top" xlink:title="FListFrame::setTabLabels">
<polygon fill="white" stroke="black" points="870,-404.5 870,-423.5 1001,-423.5 1001,-404.5 870,-404.5"/>
<text text-anchor="middle" x="935.5" y="-411.5" font-family="Helvetica,sans-Serif" font-size="10.00">FListFrame::setTabLabels</text>
</a>
</g>
</g>
<!-- Node19&#45;&gt;Node20 -->
<g id="edge20" class="edge"><title>Node19&#45;&gt;Node20</title>
<path fill="none" stroke="midnightblue" d="M787.184,-332.322C797.248,-335.124 807.456,-339.166 816,-345 838.615,-360.44 829.194,-379.843 852,-395 855.121,-397.075 858.44,-398.924 861.884,-400.573"/>
<polygon fill="midnightblue" stroke="midnightblue" points="860.674,-403.861 871.25,-404.487 863.373,-397.402 860.674,-403.861"/>
</g>
<!-- Node22 -->
<g id="node23" class="node"><title>Node22</title>
<g id="a_node23"><a xlink:href="namespace_xml_method.html#abe26f53c2028527b0ebea361faa85221" target="_top" xlink:title="Empile les données pour un noeud donné, pour une profondeur d&#39;enchâssement donnée. ">
<polygon fill="white" stroke="black" points="877,-442.5 877,-461.5 994,-461.5 994,-442.5 877,-442.5"/>
<text text-anchor="middle" x="935.5" y="-449.5" font-family="Helvetica,sans-Serif" font-size="10.00">XmlMethod::stackData</text>
</a>
</g>
</g>
<!-- Node19&#45;&gt;Node22 -->
<g id="edge22" class="edge"><title>Node19&#45;&gt;Node22</title>
<path fill="none" stroke="midnightblue" d="M787.109,-330.601C797.519,-333.447 807.901,-337.941 816,-345 847.855,-372.765 819.8,-405.635 852,-433 856.592,-436.902 861.829,-440.042 867.387,-442.564"/>
<polygon fill="midnightblue" stroke="midnightblue" points="866.396,-445.932 876.986,-446.248 868.905,-439.397 866.396,-445.932"/>
</g>
<!-- Node23 -->
<g id="node24" class="node"><title>Node23</title>
<g id="a_node24"><a xlink:href="class_f_string_list.html#a71ec48a52b6ca4ffe89400d66f3ff634" target="_top" xlink:title="FStringList::toInt">
<polygon fill="white" stroke="black" points="891,-480.5 891,-499.5 980,-499.5 980,-480.5 891,-480.5"/>
<text text-anchor="middle" x="935.5" y="-487.5" font-family="Helvetica,sans-Serif" font-size="10.00">FStringList::toInt</text>
</a>
</g>
</g>
<!-- Node19&#45;&gt;Node23 -->
<g id="edge23" class="edge"><title>Node19&#45;&gt;Node23</title>
<path fill="none" stroke="midnightblue" d="M787.285,-329.886C797.813,-332.738 808.206,-337.414 816,-345 857.734,-385.623 809.762,-430.901 852,-471 859.998,-478.593 870.394,-483.367 881.097,-486.323"/>
<polygon fill="midnightblue" stroke="midnightblue" points="880.425,-489.759 890.951,-488.554 881.971,-482.932 880.425,-489.759"/>
</g>
<!-- Node21 -->
<g id="node22" class="node"><title>Node21</title>
<g id="a_node22"><a xlink:href="class_f_list_widget.html#aac6eaaeb9946354f743394b54c84a6a7" target="_top" xlink:title="FListWidget::setTabLabels">
<polygon fill="white" stroke="black" points="1059.5,-404.5 1059.5,-423.5 1193.5,-423.5 1193.5,-404.5 1059.5,-404.5"/>
<text text-anchor="middle" x="1126.5" y="-411.5" font-family="Helvetica,sans-Serif" font-size="10.00">FListWidget::setTabLabels</text>
</a>
</g>
</g>
<!-- Node20&#45;&gt;Node21 -->
<g id="edge21" class="edge"><title>Node20&#45;&gt;Node21</title>
<path fill="none" stroke="midnightblue" d="M1001.01,-414C1016.45,-414 1033.08,-414 1049.01,-414"/>
<polygon fill="midnightblue" stroke="midnightblue" points="1049.35,-417.5 1059.35,-414 1049.35,-410.5 1049.35,-417.5"/>
</g>
<!-- Node23&#45;&gt;Node23 -->
<g id="edge24" class="edge"><title>Node23&#45;&gt;Node23</title>
<path fill="none" stroke="midnightblue" d="M906.215,-499.757C891.969,-508.565 901.73,-518 935.5,-518 959.244,-518 971.119,-513.336 971.125,-507.504"/>
<polygon fill="midnightblue" stroke="midnightblue" points="973.827,-505.279 964.785,-499.757 968.409,-509.712 973.827,-505.279"/>
</g>
<!-- Node25 -->
<g id="node26" class="node"><title>Node25</title>
<g id="a_node26"><a xlink:href="namespace_xml_method.html#a796c4f03d9e7a8057f0102b87eecbd3e" target="_top" xlink:title="XmlMethod::displayFirstLevelData">
<polygon fill="white" stroke="black" points="852,-126.5 852,-145.5 1019,-145.5 1019,-126.5 852,-126.5"/>
<text text-anchor="middle" x="935.5" y="-133.5" font-family="Helvetica,sans-Serif" font-size="10.00">XmlMethod::displayFirstLevelData</text>
</a>
</g>
</g>
<!-- Node24&#45;&gt;Node25 -->
<g id="edge26" class="edge"><title>Node24&#45;&gt;Node25</title>
<path fill="none" stroke="midnightblue" d="M812.587,-136C822.064,-136 831.899,-136 841.687,-136"/>
<polygon fill="midnightblue" stroke="midnightblue" points="841.853,-139.5 851.852,-136 841.852,-132.5 841.853,-139.5"/>
</g>
<!-- Node26 -->
<g id="node27" class="node"><title>Node26</title>
<g id="a_node27"><a xlink:href="namespace_xml_method.html#aad1e553eb1ec6f1bb128cc6744cba9e3" target="_top" xlink:title="XmlMethod::displayTextData">
<polygon fill="white" stroke="black" points="1055,-82.5 1055,-101.5 1198,-101.5 1198,-82.5 1055,-82.5"/>
<text text-anchor="middle" x="1126.5" y="-89.5" font-family="Helvetica,sans-Serif" font-size="10.00">XmlMethod::displayTextData</text>
</a>
</g>
</g>
<!-- Node24&#45;&gt;Node26 -->
<g id="edge30" class="edge"><title>Node24&#45;&gt;Node26</title>
<path fill="none" stroke="midnightblue" d="M759.156,-120.857C779.604,-103.914 815.603,-77.4706 852,-67 932.93,-43.7181 1032.37,-64.4605 1086.26,-79.5632"/>
<polygon fill="midnightblue" stroke="midnightblue" points="1085.52,-82.9913 1096.09,-82.3996 1087.46,-76.2654 1085.52,-82.9913"/>
</g>
<!-- Node27 -->
<g id="node28" class="node"><title>Node27</title>
<g id="a_node28"><a xlink:href="namespace_xml_method.html#ac0a708c4bc4c55df24e60816d69a90cf" target="_top" xlink:title="XmlMethod::displaySecond\lLevelData">
<polygon fill="white" stroke="black" points="867.5,-77 867.5,-107 1003.5,-107 1003.5,-77 867.5,-77"/>
<text text-anchor="start" x="875.5" y="-95" font-family="Helvetica,sans-Serif" font-size="10.00">XmlMethod::displaySecond</text>
<text text-anchor="middle" x="935.5" y="-84" font-family="Helvetica,sans-Serif" font-size="10.00">LevelData</text>
</a>
</g>
</g>
<!-- Node24&#45;&gt;Node27 -->
<g id="edge28" class="edge"><title>Node24&#45;&gt;Node27</title>
<path fill="none" stroke="midnightblue" d="M807.709,-120.981C824.189,-117.214 842.001,-113.143 858.919,-109.276"/>
<polygon fill="midnightblue" stroke="midnightblue" points="859.792,-112.667 868.76,-107.026 858.232,-105.843 859.792,-112.667"/>
</g>
<!-- Node28 -->
<g id="node29" class="node"><title>Node28</title>
<g id="a_node29"><a xlink:href="class_f_list_frame.html#a58337134c45f052ad6bb45c014fd5c3f" target="_top" xlink:title="Récupère les titres d&#39;onglet. ">
<polygon fill="white" stroke="black" points="870,-0.5 870,-19.5 1001,-19.5 1001,-0.5 870,-0.5"/>
<text text-anchor="middle" x="935.5" y="-7.5" font-family="Helvetica,sans-Serif" font-size="10.00">FListFrame::getTabLabels</text>
</a>
</g>
</g>
<!-- Node24&#45;&gt;Node28 -->
<g id="edge31" class="edge"><title>Node24&#45;&gt;Node28</title>
<path fill="none" stroke="midnightblue" d="M754.231,-120.848C772.979,-98.6027 810.984,-57.2338 852,-34 860.006,-29.4647 868.945,-25.7216 877.901,-22.6522"/>
<polygon fill="midnightblue" stroke="midnightblue" points="879.109,-25.9407 887.583,-19.5804 876.993,-19.2685 879.109,-25.9407"/>
</g>
<!-- Node30 -->
<g id="node31" class="node"><title>Node30</title>
<g id="a_node31"><a xlink:href="class_altair.html#adc79f280e4f580298a8dd80e2f7cf712" target="_top" xlink:title="Parcourt la table de chachage Hash::wrapper dans laquelle sont stockés à la clé &quot;XHL&quot; les chemins des...">
<polygon fill="white" stroke="black" points="857,-164.5 857,-183.5 1014,-183.5 1014,-164.5 857,-164.5"/>
<text text-anchor="middle" x="935.5" y="-171.5" font-family="Helvetica,sans-Serif" font-size="10.00">Altair::processSecondLevelData</text>
</a>
</g>
</g>
<!-- Node24&#45;&gt;Node30 -->
<g id="edge33" class="edge"><title>Node24&#45;&gt;Node30</title>
<path fill="none" stroke="midnightblue" d="M812.587,-149.934C833.516,-154.066 856.192,-158.542 876.246,-162.5"/>
<polygon fill="midnightblue" stroke="midnightblue" points="875.676,-165.956 886.165,-164.459 877.032,-159.088 875.676,-165.956"/>
</g>
<!-- Node25&#45;&gt;Node26 -->
<g id="edge27" class="edge"><title>Node25&#45;&gt;Node26</title>
<path fill="none" stroke="midnightblue" d="M977.51,-126.453C1005.99,-119.822 1044.14,-110.941 1074.57,-103.857"/>
<polygon fill="midnightblue" stroke="midnightblue" points="1075.62,-107.205 1084.57,-101.529 1074.04,-100.387 1075.62,-107.205"/>
</g>
<!-- Node27&#45;&gt;Node26 -->
<g id="edge29" class="edge"><title>Node27&#45;&gt;Node26</title>
<path fill="none" stroke="midnightblue" d="M1003.67,-92C1016.86,-92 1030.82,-92 1044.41,-92"/>
<polygon fill="midnightblue" stroke="midnightblue" points="1044.71,-95.5001 1054.71,-92 1044.71,-88.5001 1044.71,-95.5001"/>
</g>
<!-- Node29 -->
<g id="node30" class="node"><title>Node29</title>
<g id="a_node30"><a xlink:href="class_f_list_frame.html#a4bf0d0d8e56418df395b020d2e66db5f" target="_top" xlink:title="Récupère la taille courante (0&#45;based) du conteneur widgetContainer Cette taille doit en principe être...">
<polygon fill="white" stroke="black" points="1072,-0.5 1072,-19.5 1181,-19.5 1181,-0.5 1072,-0.5"/>
<text text-anchor="middle" x="1126.5" y="-7.5" font-family="Helvetica,sans-Serif" font-size="10.00">FListFrame::getRank</text>
</a>
</g>
</g>
<!-- Node28&#45;&gt;Node29 -->
<g id="edge32" class="edge"><title>Node28&#45;&gt;Node29</title>
<path fill="none" stroke="midnightblue" d="M1001.01,-10C1020.68,-10 1042.29,-10 1061.9,-10"/>
<polygon fill="midnightblue" stroke="midnightblue" points="1061.95,-13.5001 1071.95,-10 1061.95,-6.5001 1061.95,-13.5001"/>
</g>
<!-- Node30&#45;&gt;Node16 -->
<g id="edge34" class="edge"><title>Node30&#45;&gt;Node16</title>
<path fill="none" stroke="midnightblue" d="M984.193,-183.589C1015.3,-189.843 1055.46,-197.918 1085.01,-203.859"/>
<polygon fill="midnightblue" stroke="midnightblue" points="1084.5,-207.326 1094.99,-205.866 1085.88,-200.463 1084.5,-207.326"/>
</g>
<!-- Node33 -->
<g id="node34" class="node"><title>Node33</title>
<g id="a_node34"><a xlink:href="class_main_window.html#affa76730fa370a3466b62a4caee721e3" target="_top" xlink:title="Actualise la liste des fichiers de projet .alt récents dans le menu Fichier. ">
<polygon fill="white" stroke="black" points="481.5,-115 481.5,-145 621.5,-145 621.5,-115 481.5,-115"/>
<text text-anchor="start" x="489.5" y="-133" font-family="Helvetica,sans-Serif" font-size="10.00">MainWindow::updateRecent</text>
<text text-anchor="middle" x="551.5" y="-122" font-family="Helvetica,sans-Serif" font-size="10.00">FileActions</text>
</a>
</g>
</g>
<!-- Node32&#45;&gt;Node33 -->
<g id="edge39" class="edge"><title>Node32&#45;&gt;Node33</title>
<path fill="none" stroke="midnightblue" d="M415.71,-207.494C423.125,-205.01 430.468,-201.896 437,-198 456.98,-186.082 453.68,-172.96 473,-160 479.013,-155.966 485.647,-152.361 492.428,-149.171"/>
<polygon fill="midnightblue" stroke="midnightblue" points="493.979,-152.312 501.72,-145.078 491.158,-145.906 493.979,-152.312"/>
</g>
<!-- Node34&#45;&gt;Node10 -->
<g id="edge41" class="edge"><title>Node34&#45;&gt;Node10</title>
<path fill="none" stroke="midnightblue" d="M422.205,-293C435.058,-293 449.035,-293 462.881,-293"/>
<polygon fill="midnightblue" stroke="midnightblue" points="462.921,-296.5 472.921,-293 462.921,-289.5 462.921,-296.5"/>
</g>
<!-- Node35 -->
<g id="node36" class="node"><title>Node35</title>
<g id="a_node36"><a xlink:href="class_altair.html#a2f8d129da914d8b9ab3cdaf195f92bd1" target="_top" xlink:title="Lance Altair::makeParserString sur le premier item courant de abstractWidgetList (celui des données d...">
<polygon fill="white" stroke="black" points="493.5,-340.5 493.5,-359.5 609.5,-359.5 609.5,-340.5 493.5,-340.5"/>
<text text-anchor="middle" x="551.5" y="-347.5" font-family="Helvetica,sans-Serif" font-size="10.00">Altair::makeDataString</text>
</a>
</g>
</g>
<!-- Node34&#45;&gt;Node35 -->
<g id="edge42" class="edge"><title>Node34&#45;&gt;Node35</title>
<path fill="none" stroke="midnightblue" d="M403.573,-302.545C414.388,-305.45 426.199,-308.74 437,-312 462.877,-319.811 491.761,-329.495 513.915,-337.132"/>
<polygon fill="midnightblue" stroke="midnightblue" points="512.99,-340.516 523.585,-340.483 515.282,-333.902 512.99,-340.516"/>
</g>
<!-- Node37 -->
<g id="node38" class="node"><title>Node37</title>
<g id="a_node38"><a xlink:href="class_altair.html#adb7f94af778c4b6874abab74c8ef4016" target="_top" xlink:title="Lance Altair::makeParserString sur l&#39;ensemble de la liste des FWidgets sauf le premier (tous les widg...">
<polygon fill="white" stroke="black" points="487.5,-387.5 487.5,-406.5 615.5,-406.5 615.5,-387.5 487.5,-387.5"/>
<text text-anchor="middle" x="551.5" y="-394.5" font-family="Helvetica,sans-Serif" font-size="10.00">Altair::makeSystemString</text>
</a>
</g>
</g>
<!-- Node34&#45;&gt;Node37 -->
<g id="edge44" class="edge"><title>Node34&#45;&gt;Node37</title>
<path fill="none" stroke="midnightblue" d="M419.348,-302.514C425.636,-304.981 431.695,-308.088 437,-312 461.116,-329.782 449.647,-350.227 473,-369 480.613,-375.12 489.679,-379.967 498.88,-383.786"/>
<polygon fill="midnightblue" stroke="midnightblue" points="497.871,-387.146 508.463,-387.402 500.343,-380.597 497.871,-387.146"/>
</g>
<!-- Node36 -->
<g id="node37" class="node"><title>Node36</title>
<g id="a_node37"><a xlink:href="class_altair.html#af73cbf33a9e3ff76896a8099b4b154fe" target="_top" xlink:title="Crée la chaîne QString permettant d&#39;écrire un projet XML d&#39;extension .alt Parcourt l&#39;ensemble de la l...">
<polygon fill="white" stroke="black" points="679.5,-392.5 679.5,-411.5 802.5,-411.5 802.5,-392.5 679.5,-392.5"/>
<text text-anchor="middle" x="741" y="-399.5" font-family="Helvetica,sans-Serif" font-size="10.00">Altair::makeParserString</text>
</a>
</g>
</g>
<!-- Node35&#45;&gt;Node36 -->
<g id="edge43" class="edge"><title>Node35&#45;&gt;Node36</title>
<path fill="none" stroke="midnightblue" d="M584.224,-359.515C606.943,-366.258 638.29,-375.416 666,-383 674.459,-385.315 683.484,-387.702 692.219,-389.968"/>
<polygon fill="midnightblue" stroke="midnightblue" points="691.356,-393.36 701.913,-392.466 693.103,-386.581 691.356,-393.36"/>
</g>
<!-- Node37&#45;&gt;Node36 -->
<g id="edge45" class="edge"><title>Node37&#45;&gt;Node36</title>
<path fill="none" stroke="midnightblue" d="M615.718,-398.686C632.87,-399.143 651.553,-399.641 669.099,-400.109"/>
<polygon fill="midnightblue" stroke="midnightblue" points="669.189,-403.613 679.278,-400.381 669.375,-396.615 669.189,-403.613"/>
</g>
</g>
</svg>
