<?xml version="1.0" encoding="UTF-8" standalone="no"?>
<!DOCTYPE svg PUBLIC "-//W3C//DTD SVG 1.1//EN"
 "http://www.w3.org/Graphics/SVG/1.1/DTD/svg11.dtd">
<!-- Generated by graphviz version 2.38.0 (20140413.2041)
 -->
<!-- Title: MatriculeInput::MatriculeInput Pages: 1 -->
<svg width="305pt" height="78pt"
 viewBox="0.00 0.00 305.00 77.50" xmlns="http://www.w3.org/2000/svg" xmlns:xlink="http://www.w3.org/1999/xlink">
<g id="graph0" class="graph" transform="scale(1 1) rotate(0) translate(4 73.5)">
<title>MatriculeInput::MatriculeInput</title>
<polygon fill="white" stroke="none" points="-4,4 -4,-73.5 301,-73.5 301,4 -4,4"/>
<!-- Node0 -->
<g id="node1" class="node"><title>Node0</title>
<polygon fill="#bfbfbf" stroke="black" points="0,-17 0,-47 124,-47 124,-17 0,-17"/>
<text text-anchor="start" x="8" y="-35" font-family="Helvetica,sans-Serif" font-size="10.00">MatriculeInput::Matricule</text>
<text text-anchor="middle" x="62" y="-24" font-family="Helvetica,sans-Serif" font-size="10.00">Input</text>
</g>
<!-- Node1 -->
<g id="node2" class="node"><title>Node1</title>
<g id="a_node2"><a xlink:href="class_matricule_input.html#a570b775e6c896dba52da89945a7fd02c" target="_top" xlink:title="Connecteur qui rajoute une ligne de saisie de matricules au dialogue Exportation des bulletins ...">
<polygon fill="white" stroke="black" points="160,-39 160,-69 297,-69 297,-39 160,-39"/>
<text text-anchor="start" x="168" y="-57" font-family="Helvetica,sans-Serif" font-size="10.00">MatriculeInput::ajouterLigne</text>
<text text-anchor="middle" x="228.5" y="-46" font-family="Helvetica,sans-Serif" font-size="10.00">Matricules</text>
</a>
</g>
</g>
<!-- Node0&#45;&gt;Node1 -->
<g id="edge1" class="edge"><title>Node0&#45;&gt;Node1</title>
<path fill="none" stroke="midnightblue" d="M124.254,-40.192C132.592,-41.3071 141.239,-42.4635 149.819,-43.6111"/>
<polygon fill="midnightblue" stroke="midnightblue" points="149.463,-47.0945 159.839,-44.9511 150.391,-40.1563 149.463,-47.0945"/>
</g>
<!-- Node2 -->
<g id="node3" class="node"><title>Node2</title>
<g id="a_node3"><a xlink:href="class_matricule_input.html#ae46b914e11ae6cb17e6c581ea0b6f994" target="_top" xlink:title="Vérifie l&#39;input (format de saisie). ">
<polygon fill="white" stroke="black" points="162.5,-0.5 162.5,-19.5 294.5,-19.5 294.5,-0.5 162.5,-0.5"/>
<text text-anchor="middle" x="228.5" y="-7.5" font-family="Helvetica,sans-Serif" font-size="10.00">MatriculeInput::checkInput</text>
</a>
</g>
</g>
<!-- Node0&#45;&gt;Node2 -->
<g id="edge2" class="edge"><title>Node0&#45;&gt;Node2</title>
<path fill="none" stroke="midnightblue" d="M124.254,-23.808C133.377,-22.5879 142.87,-21.3183 152.24,-20.0651"/>
<polygon fill="midnightblue" stroke="midnightblue" points="152.89,-23.5095 162.338,-18.7147 151.962,-16.5713 152.89,-23.5095"/>
</g>
</g>
</svg>
