<?xml version="1.0" encoding="UTF-8" standalone="no"?>
<!DOCTYPE svg PUBLIC "-//W3C//DTD SVG 1.1//EN"
 "http://www.w3.org/Graphics/SVG/1.1/DTD/svg11.dtd">
<!-- Generated by graphviz version 2.38.0 (20140413.2041)
 -->
<!-- Title: FListFrame::setStrikeOutFileNames Pages: 1 -->
<svg width="657pt" height="66pt"
 viewBox="0.00 0.00 657.00 66.00" xmlns="http://www.w3.org/2000/svg" xmlns:xlink="http://www.w3.org/1999/xlink">
<g id="graph0" class="graph" transform="scale(1 1) rotate(0) translate(4 62)">
<title>FListFrame::setStrikeOutFileNames</title>
<polygon fill="white" stroke="none" points="-4,4 -4,-62 653,-62 653,4 -4,4"/>
<!-- Node1038 -->
<g id="node1" class="node"><title>Node1038</title>
<polygon fill="#bfbfbf" stroke="black" points="0,-14 0,-44 127,-44 127,-14 0,-14"/>
<text text-anchor="start" x="8" y="-32" font-family="Helvetica,sans-Serif" font-size="10.00">FListFrame::setStrikeOut</text>
<text text-anchor="middle" x="63.5" y="-21" font-family="Helvetica,sans-Serif" font-size="10.00">FileNames</text>
</g>
<!-- Node1039 -->
<g id="node2" class="node"><title>Node1039</title>
<g id="a_node2"><a xlink:href="class_f_list_frame.html#aa993bd2e0b975a839c6f8b46dea4690c" target="_top" xlink:title="FListFrame::finalise">
<polygon fill="white" stroke="black" points="188.5,-38.5 188.5,-57.5 291.5,-57.5 291.5,-38.5 188.5,-38.5"/>
<text text-anchor="middle" x="240" y="-45.5" font-family="Helvetica,sans-Serif" font-size="10.00">FListFrame::finalise</text>
</a>
</g>
</g>
<!-- Node1038&#45;&gt;Node1039 -->
<g id="edge1" class="edge"><title>Node1038&#45;&gt;Node1039</title>
<path fill="none" stroke="midnightblue" d="M137.055,-36.9C154.314,-38.7791 172.362,-40.7443 188.394,-42.4899"/>
<polygon fill="midnightblue" stroke="midnightblue" points="137.326,-33.4089 127.006,-35.8058 136.568,-40.3677 137.326,-33.4089"/>
</g>
<!-- Node1042 -->
<g id="node5" class="node"><title>Node1042</title>
<g id="a_node5"><a xlink:href="class_f_list_frame.html#a404f9f839864aecceba585397c7c882f" target="_top" xlink:title="FListFrame::showContextMenu">
<polygon fill="white" stroke="black" points="163,-0.5 163,-19.5 317,-19.5 317,-0.5 163,-0.5"/>
<text text-anchor="middle" x="240" y="-7.5" font-family="Helvetica,sans-Serif" font-size="10.00">FListFrame::showContextMenu</text>
</a>
</g>
</g>
<!-- Node1038&#45;&gt;Node1042 -->
<g id="edge4" class="edge"><title>Node1038&#45;&gt;Node1042</title>
<path fill="none" stroke="midnightblue" d="M136.956,-21.1108C145.527,-20.1776 154.294,-19.223 162.913,-18.2846"/>
<polygon fill="midnightblue" stroke="midnightblue" points="136.568,-17.6323 127.006,-22.1942 137.326,-24.5911 136.568,-17.6323"/>
</g>
<!-- Node1040 -->
<g id="node3" class="node"><title>Node1040</title>
<g id="a_node3"><a xlink:href="class_f_list_frame.html#a865246df8a4d4000ac3c818abc6d7f71" target="_top" xlink:title="FListFrame::FListFrame">
<polygon fill="white" stroke="black" points="353,-38.5 353,-57.5 475,-57.5 475,-38.5 353,-38.5"/>
<text text-anchor="middle" x="414" y="-45.5" font-family="Helvetica,sans-Serif" font-size="10.00">FListFrame::FListFrame</text>
</a>
</g>
</g>
<!-- Node1039&#45;&gt;Node1040 -->
<g id="edge2" class="edge"><title>Node1039&#45;&gt;Node1040</title>
<path fill="none" stroke="midnightblue" d="M301.815,-48C318.426,-48 336.412,-48 352.979,-48"/>
<polygon fill="midnightblue" stroke="midnightblue" points="301.675,-44.5001 291.675,-48 301.675,-51.5001 301.675,-44.5001"/>
</g>
<!-- Node1041 -->
<g id="node4" class="node"><title>Node1041</title>
<g id="a_node4"><a xlink:href="class_f_list_frame.html#a2e360c50e0fcfb3d1ee658006ef9a678" target="_top" xlink:title="Accesseur en lecture de. ">
<polygon fill="white" stroke="black" points="511,-38.5 511,-57.5 649,-57.5 649,-38.5 511,-38.5"/>
<text text-anchor="middle" x="580" y="-45.5" font-family="Helvetica,sans-Serif" font-size="10.00">FListFrame::getSlotListSize</text>
</a>
</g>
</g>
<!-- Node1040&#45;&gt;Node1041 -->
<g id="edge3" class="edge"><title>Node1040&#45;&gt;Node1041</title>
<path fill="none" stroke="midnightblue" d="M485.338,-48C493.79,-48 502.411,-48 510.831,-48"/>
<polygon fill="midnightblue" stroke="midnightblue" points="485.136,-44.5001 475.136,-48 485.136,-51.5001 485.136,-44.5001"/>
</g>
<!-- Node1043 -->
<g id="node6" class="node"><title>Node1043</title>
<g id="a_node6"><a xlink:href="class_altair.html#ae0975ced0a36e0ed889ae06043a4df66" target="_top" xlink:title="Constructeur. ">
<polygon fill="white" stroke="black" points="380,-0.5 380,-19.5 448,-19.5 448,-0.5 380,-0.5"/>
<text text-anchor="middle" x="414" y="-7.5" font-family="Helvetica,sans-Serif" font-size="10.00">Altair::Altair</text>
</a>
</g>
</g>
<!-- Node1042&#45;&gt;Node1043 -->
<g id="edge5" class="edge"><title>Node1042&#45;&gt;Node1043</title>
<path fill="none" stroke="midnightblue" d="M327.253,-10C345.946,-10 364.624,-10 379.752,-10"/>
<polygon fill="midnightblue" stroke="midnightblue" points="327.193,-6.5001 317.193,-10 327.193,-13.5001 327.193,-6.5001"/>
</g>
</g>
</svg>
