<?xml version="1.0" encoding="UTF-8" standalone="no"?>
<!DOCTYPE svg PUBLIC "-//W3C//DTD SVG 1.1//EN"
 "http://www.w3.org/Graphics/SVG/1.1/DTD/svg11.dtd">
<!-- Generated by graphviz version 2.38.0 (20140413.2041)
 -->
<!-- Title: codePage::ajouterVariable Pages: 1 -->
<svg width="432pt" height="66pt"
 viewBox="0.00 0.00 432.00 66.00" xmlns="http://www.w3.org/2000/svg" xmlns:xlink="http://www.w3.org/1999/xlink">
<g id="graph0" class="graph" transform="scale(1 1) rotate(0) translate(4 62)">
<title>codePage::ajouterVariable</title>
<polygon fill="white" stroke="none" points="-4,4 -4,-62 428,-62 428,4 -4,4"/>
<!-- Node24 -->
<g id="node1" class="node"><title>Node24</title>
<polygon fill="#bfbfbf" stroke="black" points="0,-19.5 0,-38.5 140,-38.5 140,-19.5 0,-19.5"/>
<text text-anchor="middle" x="70" y="-26.5" font-family="Helvetica,sans-Serif" font-size="10.00">codePage::ajouterVariable</text>
</g>
<!-- Node25 -->
<g id="node2" class="node"><title>Node25</title>
<g id="a_node2"><a xlink:href="classcode_page.html#a3b8692dcc8d9bd11272f65d00f8f10ab" target="_top" xlink:title="codePage::activer_fph">
<polygon fill="white" stroke="black" points="176,-38.5 176,-57.5 298,-57.5 298,-38.5 176,-38.5"/>
<text text-anchor="middle" x="237" y="-45.5" font-family="Helvetica,sans-Serif" font-size="10.00">codePage::activer_fph</text>
</a>
</g>
</g>
<!-- Node24&#45;&gt;Node25 -->
<g id="edge1" class="edge"><title>Node24&#45;&gt;Node25</title>
<path fill="none" stroke="midnightblue" d="M150.146,-38.1138C158.813,-39.1117 167.528,-40.1154 175.91,-41.0805"/>
<polygon fill="midnightblue" stroke="midnightblue" points="150.354,-34.6146 140.019,-36.9476 149.553,-41.5687 150.354,-34.6146"/>
</g>
<!-- Node27 -->
<g id="node4" class="node"><title>Node27</title>
<g id="a_node4"><a xlink:href="classcode_page.html#a927a6bef8cac0406a49225bc72894a1f" target="_top" xlink:title="codePage::codePage">
<polygon fill="white" stroke="black" points="178.5,-0.5 178.5,-19.5 295.5,-19.5 295.5,-0.5 178.5,-0.5"/>
<text text-anchor="middle" x="237" y="-7.5" font-family="Helvetica,sans-Serif" font-size="10.00">codePage::codePage</text>
</a>
</g>
</g>
<!-- Node24&#45;&gt;Node27 -->
<g id="edge3" class="edge"><title>Node24&#45;&gt;Node27</title>
<path fill="none" stroke="midnightblue" d="M149.989,-19.9042C159.6,-18.7975 169.275,-17.6835 178.49,-16.6224"/>
<polygon fill="midnightblue" stroke="midnightblue" points="149.553,-16.4313 140.019,-21.0524 150.354,-23.3854 149.553,-16.4313"/>
</g>
<!-- Node26 -->
<g id="node3" class="node"><title>Node26</title>
<g id="a_node3"><a xlink:href="classoptions.html#a52a9fb1d5bdb6ed104e700390b8c0208" target="_top" xlink:title="Constructeur de l&#39;onglet correspondant à un pointeur parent vers une instance de la classe Altair...">
<polygon fill="white" stroke="black" points="334,-19.5 334,-38.5 424,-38.5 424,-19.5 334,-19.5"/>
<text text-anchor="middle" x="379" y="-26.5" font-family="Helvetica,sans-Serif" font-size="10.00">options::options</text>
</a>
</g>
</g>
<!-- Node25&#45;&gt;Node26 -->
<g id="edge2" class="edge"><title>Node25&#45;&gt;Node26</title>
<path fill="none" stroke="midnightblue" d="M308.376,-38.449C317.082,-37.2675 325.78,-36.087 333.931,-34.9808"/>
<polygon fill="midnightblue" stroke="midnightblue" points="307.624,-35.0189 298.185,-39.832 308.565,-41.9553 307.624,-35.0189"/>
</g>
<!-- Node27&#45;&gt;Node26 -->
<g id="edge4" class="edge"><title>Node27&#45;&gt;Node26</title>
<path fill="none" stroke="midnightblue" d="M305.92,-19.2177C315.338,-20.4959 324.807,-21.7809 333.643,-22.9801"/>
<polygon fill="midnightblue" stroke="midnightblue" points="306.132,-15.7144 295.752,-17.8377 305.19,-22.6508 306.132,-15.7144"/>
</g>
</g>
</svg>
