<?xml version="1.0" encoding="UTF-8" standalone="no"?>
<!DOCTYPE svg PUBLIC "-//W3C//DTD SVG 1.1//EN"
 "http://www.w3.org/Graphics/SVG/1.1/DTD/svg11.dtd">
<!-- Generated by graphviz version 2.38.0 (20140413.2041)
 -->
<!-- Title: Altair::openProjectFile Pages: 1 -->
<!--zoomable 680 -->
<svg id="main" version="1.1" xmlns="http://www.w3.org/2000/svg" xmlns:xlink="http://www.w3.org/1999/xlink" xml:space="preserve" onload="init(evt)">
<style type="text/css"><![CDATA[
.edge:hover path { stroke: red; }
.edge:hover polygon { stroke: red; fill: red; }
]]></style>
<script type="text/javascript"><![CDATA[
var edges = document.getElementsByTagName('g');
if (edges && edges.length) {
  for (var i=0;i<edges.length;i++) {
    if (edges[i].id.substr(0,4)=='edge') {
      edges[i].setAttribute('class','edge');
    }
  }
}
]]></script>
        <defs>
                <circle id="rim" cx="0" cy="0" r="7"/>
                <circle id="rim2" cx="0" cy="0" r="3.5"/>
                <g id="zoomPlus">
                        <use xlink:href="#rim" fill="#404040">
                                <set attributeName="fill" to="#808080" begin="zoomplus.mouseover" end="zoomplus.mouseout"/>
                        </use>
                        <path d="M-4,0h8M0,-4v8" fill="none" stroke="white" stroke-width="1.5" pointer-events="none"/>
                </g>
                <g id="zoomMin">
                        <use xlink:href="#rim" fill="#404040">
                                <set attributeName="fill" to="#808080" begin="zoomminus.mouseover" end="zoomminus.mouseout"/>
                        </use>
                        <path d="M-4,0h8" fill="none" stroke="white" stroke-width="1.5" pointer-events="none"/>
                </g>
                <g id="dirArrow">
                        <path fill="none" stroke="white" stroke-width="1.5" d="M0,-3.0v7 M-2.5,-0.5L0,-3.0L2.5,-0.5"/>
                </g>
               <g id="resetDef">
                       <use xlink:href="#rim2" fill="#404040">
                               <set attributeName="fill" to="#808080" begin="reset.mouseover" end="reset.mouseout"/>
                       </use>
               </g>
        </defs>

<script type="text/javascript">
var viewWidth = 1432;
var viewHeight = 680;
var sectionId = 'dynsection-35';
</script>
<script xlink:href="svgpan.js"/>
<svg id="graph" class="graph">
<g id="viewport">
<title>Altair::openProjectFile</title>
<polygon fill="white" stroke="none" points="-4,4 -4,-676 1428,-676 1428,4 -4,4"/>
<!-- Node468 -->
<g id="node1" class="node"><title>Node468</title>
<polygon fill="#bfbfbf" stroke="black" points="0,-269.5 0,-288.5 113,-288.5 113,-269.5 0,-269.5"/>
<text text-anchor="middle" x="56.5" y="-276.5" font-family="Helvetica,sans-Serif" font-size="10.00">Altair::openProjectFile</text>
</g>
<!-- Node469 -->
<g id="node2" class="node"><title>Node469</title>
<g id="a_node2"><a xlink:href="class_altair.html#ab67e3285c4a6c8fb48d12381ea6ac6bd" target="_top" xlink:title="Ferme le projet et réinitialise l&#39;interface (gestionnaire de projet inclus) ">
<polygon fill="white" stroke="black" points="541,-528.5 541,-547.5 640,-547.5 640,-528.5 541,-528.5"/>
<text text-anchor="middle" x="590.5" y="-535.5" font-family="Helvetica,sans-Serif" font-size="10.00">Altair::closeProject</text>
</a>
</g>
</g>
<!-- Node468&#45;&gt;Node469 -->
<g id="edge1" class="edge"><title>Node468&#45;&gt;Node469</title>
<path fill="none" stroke="midnightblue" d="M77.0651,-288.525C157.715,-327.789 464.645,-477.215 560.632,-523.946"/>
<polygon fill="midnightblue" stroke="midnightblue" points="559.234,-527.158 569.757,-528.388 562.298,-520.864 559.234,-527.158"/>
</g>
<!-- Node483 -->
<g id="node16" class="node"><title>Node483</title>
<g id="a_node16"><a xlink:href="class_altair.html#aa341707131924eff160bcab41422d1ec" target="_top" xlink:title="Code commun à différentes fonctions lancées pour l&#39;analyse des projets. ">
<polygon fill="white" stroke="black" points="149,-142.5 149,-161.5 325,-161.5 325,-142.5 149,-142.5"/>
<text text-anchor="middle" x="237" y="-149.5" font-family="Helvetica,sans-Serif" font-size="10.00">Altair::openProjectFileCommonCode</text>
</a>
</g>
</g>
<!-- Node468&#45;&gt;Node483 -->
<g id="edge20" class="edge"><title>Node468&#45;&gt;Node483</title>
<path fill="none" stroke="midnightblue" d="M70.9165,-269.454C101.541,-247.665 176.827,-194.101 214.21,-167.503"/>
<polygon fill="midnightblue" stroke="midnightblue" points="216.309,-170.306 222.428,-161.656 212.251,-164.602 216.309,-170.306"/>
</g>
<!-- Node470 -->
<g id="node3" class="node"><title>Node470</title>
<g id="a_node3"><a xlink:href="class_f_list_frame.html#a5c6ce884a0169251e359364921d1f89c" target="_top" xlink:title="FListFrame::addNewTab">
<polygon fill="white" stroke="black" points="714.5,-586.5 714.5,-605.5 839.5,-605.5 839.5,-586.5 714.5,-586.5"/>
<text text-anchor="middle" x="777" y="-593.5" font-family="Helvetica,sans-Serif" font-size="10.00">FListFrame::addNewTab</text>
</a>
</g>
</g>
<!-- Node469&#45;&gt;Node470 -->
<g id="edge2" class="edge"><title>Node469&#45;&gt;Node470</title>
<path fill="none" stroke="midnightblue" d="M621.313,-547.61C642.651,-554.466 672.071,-563.872 698,-572 710.041,-575.774 723.144,-579.827 735.114,-583.508"/>
<polygon fill="midnightblue" stroke="midnightblue" points="734.266,-586.909 744.853,-586.498 736.321,-580.218 734.266,-586.909"/>
</g>
<!-- Node471 -->
<g id="node4" class="node"><title>Node471</title>
<g id="a_node4"><a xlink:href="class_f_list_frame.html#a4bf0d0d8e56418df395b020d2e66db5f" target="_top" xlink:title="Récupère la taille courante (0&#45;based) du conteneur widgetContainer Cette taille doit en principe être...">
<polygon fill="white" stroke="black" points="1298,-593.5 1298,-612.5 1407,-612.5 1407,-593.5 1298,-593.5"/>
<text text-anchor="middle" x="1352.5" y="-600.5" font-family="Helvetica,sans-Serif" font-size="10.00">FListFrame::getRank</text>
</a>
</g>
</g>
<!-- Node469&#45;&gt;Node471 -->
<g id="edge17" class="edge"><title>Node469&#45;&gt;Node471</title>
<path fill="none" stroke="midnightblue" d="M640.198,-542.165C772.572,-553.486 1139,-584.826 1287.63,-597.537"/>
<polygon fill="midnightblue" stroke="midnightblue" points="1287.69,-601.055 1297.95,-598.42 1288.28,-594.08 1287.69,-601.055"/>
</g>
<!-- Node472 -->
<g id="node5" class="node"><title>Node472</title>
<g id="a_node5"><a xlink:href="class_altair.html#a5b3c33b6ae4f6b57b5593245751ef203" target="_top" xlink:title="Efface toutes les données du projet .alt et réinitialise l&#39;interface et les conteneurs de données int...">
<polygon fill="white" stroke="black" points="718,-508.5 718,-527.5 836,-527.5 836,-508.5 718,-508.5"/>
<text text-anchor="middle" x="777" y="-515.5" font-family="Helvetica,sans-Serif" font-size="10.00">Altair::clearProjectData</text>
</a>
</g>
</g>
<!-- Node469&#45;&gt;Node472 -->
<g id="edge4" class="edge"><title>Node469&#45;&gt;Node472</title>
<path fill="none" stroke="midnightblue" d="M640.458,-532.693C661.103,-530.455 685.489,-527.812 707.844,-525.388"/>
<polygon fill="midnightblue" stroke="midnightblue" points="708.388,-528.85 717.952,-524.292 707.633,-521.891 708.388,-528.85"/>
</g>
<!-- Node477 -->
<g id="node10" class="node"><title>Node477</title>
<g id="a_node10"><a xlink:href="class_altair.html#a78a2870bb9b316c5ad6bcbd64471eeb8" target="_top" xlink:title="Renvoie la taille des données exportées. ">
<polygon fill="white" stroke="black" points="1321,-334.5 1321,-353.5 1384,-353.5 1384,-334.5 1321,-334.5"/>
<text text-anchor="middle" x="1352.5" y="-341.5" font-family="Helvetica,sans-Serif" font-size="10.00">Altair::size</text>
</a>
</g>
</g>
<!-- Node469&#45;&gt;Node477 -->
<g id="edge19" class="edge"><title>Node469&#45;&gt;Node477</title>
<path fill="none" stroke="midnightblue" d="M609.62,-528.35C655.603,-504.214 781.05,-440.547 892,-404 972.401,-377.515 994.215,-375.077 1078,-363 1160.15,-351.159 1257.28,-346.633 1310.87,-344.952"/>
<polygon fill="midnightblue" stroke="midnightblue" points="1311.1,-348.446 1320.99,-344.652 1310.89,-341.45 1311.1,-348.446"/>
</g>
<!-- Node482 -->
<g id="node15" class="node"><title>Node482</title>
<g id="a_node15"><a xlink:href="class_f_list_frame.html#aa893c83c81b1780a7978433a107962f1" target="_top" xlink:title="Accesseur en lecture de widgetContainer. ">
<polygon fill="white" stroke="black" points="698,-624.5 698,-643.5 856,-643.5 856,-624.5 698,-624.5"/>
<text text-anchor="middle" x="777" y="-631.5" font-family="Helvetica,sans-Serif" font-size="10.00">FListFrame::getWidgetContainer</text>
</a>
</g>
</g>
<!-- Node469&#45;&gt;Node482 -->
<g id="edge18" class="edge"><title>Node469&#45;&gt;Node482</title>
<path fill="none" stroke="midnightblue" d="M601.807,-547.607C619.874,-563.923 659.055,-597.023 698,-615 703.269,-617.432 708.888,-619.576 714.604,-621.461"/>
<polygon fill="midnightblue" stroke="midnightblue" points="713.683,-624.839 724.268,-624.393 715.715,-618.141 713.683,-624.839"/>
</g>
<!-- Node470&#45;&gt;Node471 -->
<g id="edge3" class="edge"><title>Node470&#45;&gt;Node471</title>
<path fill="none" stroke="midnightblue" d="M839.647,-596.752C949.198,-598.09 1176.69,-600.866 1287.74,-602.222"/>
<polygon fill="midnightblue" stroke="midnightblue" points="1287.75,-605.722 1297.79,-602.344 1287.84,-598.723 1287.75,-605.722"/>
</g>
<!-- Node473 -->
<g id="node6" class="node"><title>Node473</title>
<g id="a_node6"><a xlink:href="class_f_list_frame.html#a018583305b4464d69c66805aceb1a2ac" target="_top" xlink:title="FListFrame::initializeWidget\lContainer">
<polygon fill="white" stroke="black" points="898,-470 898,-500 1036,-500 1036,-470 898,-470"/>
<text text-anchor="start" x="906" y="-488" font-family="Helvetica,sans-Serif" font-size="10.00">FListFrame::initializeWidget</text>
<text text-anchor="middle" x="967" y="-477" font-family="Helvetica,sans-Serif" font-size="10.00">Container</text>
</a>
</g>
</g>
<!-- Node472&#45;&gt;Node473 -->
<g id="edge5" class="edge"><title>Node472&#45;&gt;Node473</title>
<path fill="none" stroke="midnightblue" d="M832.125,-508.499C849.504,-505.449 869.114,-502.007 887.858,-498.716"/>
<polygon fill="midnightblue" stroke="midnightblue" points="888.618,-502.137 897.862,-496.96 887.408,-495.242 888.618,-502.137"/>
</g>
<!-- Node474 -->
<g id="node7" class="node"><title>Node474</title>
<g id="a_node7"><a xlink:href="class_altair.html#abf7d1895e52f7b8d7d26e4b5a0e6146a" target="_top" xlink:title="Rafraîchit le gestionnaire de projet à la droite de l&#39;interface. ">
<polygon fill="white" stroke="black" points="895.5,-414 895.5,-444 1038.5,-444 1038.5,-414 895.5,-414"/>
<text text-anchor="start" x="903.5" y="-432" font-family="Helvetica,sans-Serif" font-size="10.00">Altair::refreshProjectManager</text>
<text text-anchor="middle" x="967" y="-421" font-family="Helvetica,sans-Serif" font-size="10.00">Values</text>
</a>
</g>
</g>
<!-- Node472&#45;&gt;Node474 -->
<g id="edge6" class="edge"><title>Node472&#45;&gt;Node474</title>
<path fill="none" stroke="midnightblue" d="M795.962,-508.341C818.254,-496.474 857.543,-475.956 892,-460 900.724,-455.96 910.124,-451.845 919.2,-447.989"/>
<polygon fill="midnightblue" stroke="midnightblue" points="920.638,-451.181 928.499,-444.079 917.924,-444.729 920.638,-451.181"/>
</g>
<!-- Node481 -->
<g id="node14" class="node"><title>Node481</title>
<g id="a_node14"><a xlink:href="classcode_page.html#ad89c8fd4b641a2b884ac3980759fe329" target="_top" xlink:title="codePage::resetLabel">
<polygon fill="white" stroke="black" points="911.5,-519.5 911.5,-538.5 1022.5,-538.5 1022.5,-519.5 911.5,-519.5"/>
<text text-anchor="middle" x="967" y="-526.5" font-family="Helvetica,sans-Serif" font-size="10.00">codePage::resetLabel</text>
</a>
</g>
</g>
<!-- Node472&#45;&gt;Node481 -->
<g id="edge16" class="edge"><title>Node472&#45;&gt;Node481</title>
<path fill="none" stroke="midnightblue" d="M836.197,-521.405C856.771,-522.609 880.035,-523.97 901.127,-525.204"/>
<polygon fill="midnightblue" stroke="midnightblue" points="901.099,-528.708 911.286,-525.799 901.508,-521.72 901.099,-528.708"/>
</g>
<!-- Node475 -->
<g id="node8" class="node"><title>Node475</title>
<g id="a_node8"><a xlink:href="class_f_list_frame.html#a58337134c45f052ad6bb45c014fd5c3f" target="_top" xlink:title="Récupère les titres d&#39;onglet. ">
<polygon fill="white" stroke="black" points="1096,-536.5 1096,-555.5 1227,-555.5 1227,-536.5 1096,-536.5"/>
<text text-anchor="middle" x="1161.5" y="-543.5" font-family="Helvetica,sans-Serif" font-size="10.00">FListFrame::getTabLabels</text>
</a>
</g>
</g>
<!-- Node474&#45;&gt;Node475 -->
<g id="edge7" class="edge"><title>Node474&#45;&gt;Node475</title>
<path fill="none" stroke="midnightblue" d="M1016.83,-444.124C1025.82,-448.332 1034.67,-453.566 1042,-460 1065.94,-481.028 1052.9,-502.365 1078,-522 1083.45,-526.261 1089.63,-529.766 1096.09,-532.649"/>
<polygon fill="midnightblue" stroke="midnightblue" points="1095.14,-536.034 1105.73,-536.443 1097.7,-529.521 1095.14,-536.034"/>
</g>
<!-- Node476 -->
<g id="node9" class="node"><title>Node476</title>
<g id="a_node9"><a xlink:href="class_altair.html#adc79f280e4f580298a8dd80e2f7cf712" target="_top" xlink:title="Parcourt la table de chachage Hash::wrapper dans laquelle sont stockés à la clé &quot;XHL&quot; les chemins des...">
<polygon fill="white" stroke="black" points="1083,-372.5 1083,-391.5 1240,-391.5 1240,-372.5 1083,-372.5"/>
<text text-anchor="middle" x="1161.5" y="-379.5" font-family="Helvetica,sans-Serif" font-size="10.00">Altair::processSecondLevelData</text>
</a>
</g>
</g>
<!-- Node474&#45;&gt;Node476 -->
<g id="edge9" class="edge"><title>Node474&#45;&gt;Node476</title>
<path fill="none" stroke="midnightblue" d="M1026.17,-413.929C1042.88,-409.67 1061.15,-405.085 1078,-401 1087.75,-398.637 1098.16,-396.183 1108.2,-393.856"/>
<polygon fill="midnightblue" stroke="midnightblue" points="1109.11,-397.238 1118.06,-391.578 1107.53,-390.417 1109.11,-397.238"/>
</g>
<!-- Node478 -->
<g id="node11" class="node"><title>Node478</title>
<g id="a_node11"><a xlink:href="namespace_xml_method.html#ac0a708c4bc4c55df24e60816d69a90cf" target="_top" xlink:title="XmlMethod::displaySecond\lLevelData">
<polygon fill="white" stroke="black" points="1093.5,-411 1093.5,-441 1229.5,-441 1229.5,-411 1093.5,-411"/>
<text text-anchor="start" x="1101.5" y="-429" font-family="Helvetica,sans-Serif" font-size="10.00">XmlMethod::displaySecond</text>
<text text-anchor="middle" x="1161.5" y="-418" font-family="Helvetica,sans-Serif" font-size="10.00">LevelData</text>
</a>
</g>
</g>
<!-- Node474&#45;&gt;Node478 -->
<g id="edge11" class="edge"><title>Node474&#45;&gt;Node478</title>
<path fill="none" stroke="midnightblue" d="M1038.59,-427.9C1053.15,-427.673 1068.55,-427.433 1083.33,-427.203"/>
<polygon fill="midnightblue" stroke="midnightblue" points="1083.5,-430.701 1093.45,-427.045 1083.39,-423.701 1083.5,-430.701"/>
</g>
<!-- Node479 -->
<g id="node12" class="node"><title>Node479</title>
<g id="a_node12"><a xlink:href="namespace_xml_method.html#aad1e553eb1ec6f1bb128cc6744cba9e3" target="_top" xlink:title="XmlMethod::displayTextData">
<polygon fill="white" stroke="black" points="1281,-460.5 1281,-479.5 1424,-479.5 1424,-460.5 1281,-460.5"/>
<text text-anchor="middle" x="1352.5" y="-467.5" font-family="Helvetica,sans-Serif" font-size="10.00">XmlMethod::displayTextData</text>
</a>
</g>
</g>
<!-- Node474&#45;&gt;Node479 -->
<g id="edge13" class="edge"><title>Node474&#45;&gt;Node479</title>
<path fill="none" stroke="midnightblue" d="M1009.72,-444.066C1020.53,-448.614 1031.95,-454.01 1042,-460 1059.65,-470.518 1058.62,-482.167 1078,-489 1157.28,-516.96 1257.35,-497.297 1311.78,-482.413"/>
<polygon fill="midnightblue" stroke="midnightblue" points="1313.05,-485.693 1321.72,-479.609 1311.15,-478.956 1313.05,-485.693"/>
</g>
<!-- Node480 -->
<g id="node13" class="node"><title>Node480</title>
<g id="a_node13"><a xlink:href="namespace_xml_method.html#a796c4f03d9e7a8057f0102b87eecbd3e" target="_top" xlink:title="XmlMethod::displayFirstLevelData">
<polygon fill="white" stroke="black" points="1078,-460.5 1078,-479.5 1245,-479.5 1245,-460.5 1078,-460.5"/>
<text text-anchor="middle" x="1161.5" y="-467.5" font-family="Helvetica,sans-Serif" font-size="10.00">XmlMethod::displayFirstLevelData</text>
</a>
</g>
</g>
<!-- Node474&#45;&gt;Node480 -->
<g id="edge14" class="edge"><title>Node474&#45;&gt;Node480</title>
<path fill="none" stroke="midnightblue" d="M1038.59,-444.034C1060.72,-448.748 1084.8,-453.877 1105.67,-458.323"/>
<polygon fill="midnightblue" stroke="midnightblue" points="1105.13,-461.786 1115.64,-460.446 1106.59,-454.939 1105.13,-461.786"/>
</g>
<!-- Node475&#45;&gt;Node471 -->
<g id="edge8" class="edge"><title>Node475&#45;&gt;Node471</title>
<path fill="none" stroke="midnightblue" d="M1195.86,-555.561C1210.89,-559.907 1228.86,-565.151 1245,-570 1267.04,-576.621 1291.59,-584.211 1311.55,-590.442"/>
<polygon fill="midnightblue" stroke="midnightblue" points="1310.66,-593.828 1321.24,-593.472 1312.74,-587.147 1310.66,-593.828"/>
</g>
<!-- Node476&#45;&gt;Node477 -->
<g id="edge10" class="edge"><title>Node476&#45;&gt;Node477</title>
<path fill="none" stroke="midnightblue" d="M1210.19,-372.411C1241.3,-366.157 1281.46,-358.082 1311.01,-352.141"/>
<polygon fill="midnightblue" stroke="midnightblue" points="1311.88,-355.537 1320.99,-350.134 1310.5,-348.674 1311.88,-355.537"/>
</g>
<!-- Node478&#45;&gt;Node479 -->
<g id="edge12" class="edge"><title>Node478&#45;&gt;Node479</title>
<path fill="none" stroke="midnightblue" d="M1227.01,-441.019C1251.14,-446.636 1278.18,-452.93 1300.87,-458.214"/>
<polygon fill="midnightblue" stroke="midnightblue" points="1300.11,-461.629 1310.64,-460.488 1301.69,-454.811 1300.11,-461.629"/>
</g>
<!-- Node480&#45;&gt;Node479 -->
<g id="edge15" class="edge"><title>Node480&#45;&gt;Node479</title>
<path fill="none" stroke="midnightblue" d="M1245.12,-470C1253.6,-470 1262.2,-470 1270.66,-470"/>
<polygon fill="midnightblue" stroke="midnightblue" points="1270.88,-473.5 1280.88,-470 1270.88,-466.5 1270.88,-473.5"/>
</g>
<!-- Node483&#45;&gt;Node471 -->
<g id="edge47" class="edge"><title>Node483&#45;&gt;Node471</title>
<path fill="none" stroke="midnightblue" d="M239.538,-161.923C251.29,-233.813 333.425,-672 589.5,-672 589.5,-672 589.5,-672 968,-672 1094.38,-672 1240.53,-635.256 1310.3,-615.396"/>
<polygon fill="midnightblue" stroke="midnightblue" points="1311.39,-618.725 1320.03,-612.594 1309.45,-611.998 1311.39,-618.725"/>
</g>
<!-- Node484 -->
<g id="node17" class="node"><title>Node484</title>
<g id="a_node17"><a xlink:href="class_altair.html#a9df2266cd3e2a9905e74bb41c1f9415d" target="_top" xlink:title="Remplace un nom de projet vide par un nom par défaut. ">
<polygon fill="white" stroke="black" points="698.5,-50.5 698.5,-69.5 855.5,-69.5 855.5,-50.5 698.5,-50.5"/>
<text text-anchor="middle" x="777" y="-57.5" font-family="Helvetica,sans-Serif" font-size="10.00">Altair::checkEmptyProjectName</text>
</a>
</g>
</g>
<!-- Node483&#45;&gt;Node484 -->
<g id="edge21" class="edge"><title>Node483&#45;&gt;Node484</title>
<path fill="none" stroke="midnightblue" d="M259.335,-142.33C283.525,-131.726 324.368,-114.904 361,-105 471.251,-75.1928 603.031,-65.0309 688.052,-61.6228"/>
<polygon fill="midnightblue" stroke="midnightblue" points="688.324,-65.1151 698.184,-61.2398 688.059,-58.1201 688.324,-65.1151"/>
</g>
<!-- Node485 -->
<g id="node18" class="node"><title>Node485</title>
<g id="a_node18"><a xlink:href="class_altair.html#ad0436bfddbdcdd19cc80154e02b4323c" target="_top" xlink:title="Assigner le fichier courant. ">
<polygon fill="white" stroke="black" points="368.5,-9.5 368.5,-28.5 475.5,-28.5 475.5,-9.5 368.5,-9.5"/>
<text text-anchor="middle" x="422" y="-16.5" font-family="Helvetica,sans-Serif" font-size="10.00">Altair::setCurrentFile</text>
</a>
</g>
</g>
<!-- Node483&#45;&gt;Node485 -->
<g id="edge22" class="edge"><title>Node483&#45;&gt;Node485</title>
<path fill="none" stroke="midnightblue" d="M247.124,-142.458C266.571,-122.521 314.159,-75.831 361,-46 368.77,-41.0515 377.6,-36.5412 386.049,-32.6842"/>
<polygon fill="midnightblue" stroke="midnightblue" points="387.59,-35.8305 395.352,-28.6185 384.787,-29.4163 387.59,-35.8305"/>
</g>
<!-- Node487 -->
<g id="node20" class="node"><title>Node487</title>
<g id="a_node20"><a xlink:href="class_altair.html#acaa583766e1c062ea311847fcdd35374" target="_top" xlink:title="Efface les onglets, le gestionnaire de projet et lit le projet .alt en cours. ">
<polygon fill="white" stroke="black" points="361,-115 361,-145 483,-145 483,-115 361,-115"/>
<text text-anchor="start" x="369" y="-133" font-family="Helvetica,sans-Serif" font-size="10.00">Altair::clearInterfaceAnd</text>
<text text-anchor="middle" x="422" y="-122" font-family="Helvetica,sans-Serif" font-size="10.00">ParseProject</text>
</a>
</g>
</g>
<!-- Node483&#45;&gt;Node487 -->
<g id="edge24" class="edge"><title>Node483&#45;&gt;Node487</title>
<path fill="none" stroke="midnightblue" d="M317.202,-142.478C328.444,-141.127 339.937,-139.745 350.988,-138.417"/>
<polygon fill="midnightblue" stroke="midnightblue" points="351.481,-141.883 360.992,-137.214 350.646,-134.933 351.481,-141.883"/>
</g>
<!-- Node502 -->
<g id="node35" class="node"><title>Node502</title>
<g id="a_node35"><a xlink:href="class_hash.html#a2ac10203aa8b32a04d9088e08ddbaab4" target="_top" xlink:title="Hash::createReference">
<polygon fill="white" stroke="black" points="908,-126.5 908,-145.5 1026,-145.5 1026,-126.5 908,-126.5"/>
<text text-anchor="middle" x="967" y="-133.5" font-family="Helvetica,sans-Serif" font-size="10.00">Hash::createReference</text>
</a>
</g>
</g>
<!-- Node483&#45;&gt;Node502 -->
<g id="edge46" class="edge"><title>Node483&#45;&gt;Node502</title>
<path fill="none" stroke="midnightblue" d="M325.017,-153.522C337.103,-153.702 349.361,-153.869 361,-154 431.219,-154.793 448.777,-154.778 519,-155 582.555,-155.201 598.475,-156.983 662,-155 743.11,-152.468 836.215,-146.144 897.789,-141.484"/>
<polygon fill="midnightblue" stroke="midnightblue" points="898.067,-144.973 907.772,-140.723 897.534,-137.994 898.067,-144.973"/>
</g>
<!-- Node486 -->
<g id="node19" class="node"><title>Node486</title>
<g id="a_node19"><a xlink:href="class_main_window.html#affa76730fa370a3466b62a4caee721e3" target="_top" xlink:title="Actualise la liste des fichiers de projet .alt récents dans le menu Fichier. ">
<polygon fill="white" stroke="black" points="520.5,-1 520.5,-31 660.5,-31 660.5,-1 520.5,-1"/>
<text text-anchor="start" x="528.5" y="-19" font-family="Helvetica,sans-Serif" font-size="10.00">MainWindow::updateRecent</text>
<text text-anchor="middle" x="590.5" y="-8" font-family="Helvetica,sans-Serif" font-size="10.00">FileActions</text>
</a>
</g>
</g>
<!-- Node485&#45;&gt;Node486 -->
<g id="edge23" class="edge"><title>Node485&#45;&gt;Node486</title>
<path fill="none" stroke="midnightblue" d="M475.682,-18.0508C486.661,-17.853 498.464,-17.6403 510.164,-17.4295"/>
<polygon fill="midnightblue" stroke="midnightblue" points="510.46,-20.9248 520.396,-17.2451 510.334,-13.9259 510.46,-20.9248"/>
</g>
<!-- Node488 -->
<g id="node21" class="node"><title>Node488</title>
<g id="a_node21"><a xlink:href="class_main_window.html#a7bbefc0725287bac10300f9b32e54e4a" target="_top" xlink:title="Renvoie l&#39;éditeur du fichier de projet .alt. ">
<polygon fill="white" stroke="black" points="531.5,-126.5 531.5,-145.5 649.5,-145.5 649.5,-126.5 531.5,-126.5"/>
<text text-anchor="middle" x="590.5" y="-133.5" font-family="Helvetica,sans-Serif" font-size="10.00">MainWindow::getEditor</text>
</a>
</g>
</g>
<!-- Node487&#45;&gt;Node488 -->
<g id="edge25" class="edge"><title>Node487&#45;&gt;Node488</title>
<path fill="none" stroke="midnightblue" d="M483.11,-132.166C495.532,-132.614 508.7,-133.088 521.383,-133.545"/>
<polygon fill="midnightblue" stroke="midnightblue" points="521.308,-137.045 531.427,-133.907 521.56,-130.049 521.308,-137.045"/>
</g>
<!-- Node489 -->
<g id="node22" class="node"><title>Node489</title>
<g id="a_node22"><a xlink:href="class_altair.html#ac9d7d8e7cebf70212818f1a8ba7d7d78" target="_top" xlink:title="Rafraîchit le gestionnaire de projet à la droite de l&#39;interface. Fonction globale par défaut...">
<polygon fill="white" stroke="black" points="519,-88.5 519,-107.5 662,-107.5 662,-88.5 519,-88.5"/>
<text text-anchor="middle" x="590.5" y="-95.5" font-family="Helvetica,sans-Serif" font-size="10.00">Altair::refreshProjectManager</text>
</a>
</g>
</g>
<!-- Node487&#45;&gt;Node489 -->
<g id="edge26" class="edge"><title>Node487&#45;&gt;Node489</title>
<path fill="none" stroke="midnightblue" d="M483.11,-118.447C498.392,-115.51 514.805,-112.356 530.054,-109.425"/>
<polygon fill="midnightblue" stroke="midnightblue" points="530.723,-112.861 539.883,-107.536 529.402,-105.986 530.723,-112.861"/>
</g>
<!-- Node489&#45;&gt;Node474 -->
<g id="edge45" class="edge"><title>Node489&#45;&gt;Node474</title>
<path fill="none" stroke="midnightblue" d="M648.183,-107.57C653.247,-110.047 657.973,-113.141 662,-117 700.363,-153.761 667.12,-187.762 698,-231 758.476,-315.678 866.28,-379.113 925.045,-409.352"/>
<polygon fill="midnightblue" stroke="midnightblue" points="923.539,-412.513 934.04,-413.918 926.708,-406.271 923.539,-412.513"/>
</g>
<!-- Node489&#45;&gt;Node484 -->
<g id="edge27" class="edge"><title>Node489&#45;&gt;Node484</title>
<path fill="none" stroke="midnightblue" d="M638.057,-88.411C662.843,-83.3061 693.515,-76.9887 719.639,-71.6082"/>
<polygon fill="midnightblue" stroke="midnightblue" points="720.689,-74.9655 729.778,-69.5201 719.277,-68.1094 720.689,-74.9655"/>
</g>
<!-- Node490 -->
<g id="node23" class="node"><title>Node490</title>
<g id="a_node23"><a xlink:href="class_altair.html#a4995cdc9462838289b5b1df75edba552" target="_top" xlink:title="Ajouter du texte à l&#39;onglet des messages. ">
<polygon fill="white" stroke="black" points="1114,-0.5 1114,-19.5 1209,-19.5 1209,-0.5 1114,-0.5"/>
<text text-anchor="middle" x="1161.5" y="-7.5" font-family="Helvetica,sans-Serif" font-size="10.00">Altair::textAppend</text>
</a>
</g>
</g>
<!-- Node489&#45;&gt;Node490 -->
<g id="edge28" class="edge"><title>Node489&#45;&gt;Node490</title>
<path fill="none" stroke="midnightblue" d="M662.264,-95.8215C715.716,-93.4739 790.764,-88.6777 856,-79 862.304,-78.0649 1023.74,-41.2508 1108.93,-21.7889"/>
<polygon fill="midnightblue" stroke="midnightblue" points="1109.96,-25.1447 1118.93,-19.5051 1108.4,-18.3205 1109.96,-25.1447"/>
</g>
<!-- Node491 -->
<g id="node24" class="node"><title>Node491</title>
<g id="a_node24"><a xlink:href="class_altair.html#a41b6c8a35ed8ba14c7c0ce2e6994655f" target="_top" xlink:title="Décode le projet représenté par un pointeur vers QFile ou similaire. ">
<polygon fill="white" stroke="black" points="719,-202.5 719,-221.5 835,-221.5 835,-202.5 719,-202.5"/>
<text text-anchor="middle" x="777" y="-209.5" font-family="Helvetica,sans-Serif" font-size="10.00">Altair::parseProjectFile</text>
</a>
</g>
</g>
<!-- Node489&#45;&gt;Node491 -->
<g id="edge29" class="edge"><title>Node489&#45;&gt;Node491</title>
<path fill="none" stroke="midnightblue" d="M638.462,-107.606C646.544,-110.108 654.688,-113.202 662,-117 701.533,-137.531 739.67,-173.667 760.262,-194.962"/>
<polygon fill="midnightblue" stroke="midnightblue" points="757.837,-197.491 767.261,-202.333 762.913,-192.671 757.837,-197.491"/>
</g>
<!-- Node491&#45;&gt;Node474 -->
<g id="edge44" class="edge"><title>Node491&#45;&gt;Node474</title>
<path fill="none" stroke="midnightblue" d="M786.321,-221.604C814.275,-253.871 905.342,-358.985 946.037,-405.958"/>
<polygon fill="midnightblue" stroke="midnightblue" points="943.605,-408.496 952.798,-413.762 948.896,-403.912 943.605,-408.496"/>
</g>
<!-- Node492 -->
<g id="node25" class="node"><title>Node492</title>
<g id="a_node25"><a xlink:href="class_altair.html#a3f6193de22ed2034c9b6dbe7a8ac4d97" target="_top" xlink:title="Lors du décodage du projet XML .alt, décoder le noed courant et renvoyer l&#39;empilement des valeurs en ...">
<polygon fill="white" stroke="black" points="921,-240.5 921,-259.5 1013,-259.5 1013,-240.5 921,-240.5"/>
<text text-anchor="middle" x="967" y="-247.5" font-family="Helvetica,sans-Serif" font-size="10.00">Altair::parseEntry</text>
</a>
</g>
</g>
<!-- Node491&#45;&gt;Node492 -->
<g id="edge30" class="edge"><title>Node491&#45;&gt;Node492</title>
<path fill="none" stroke="midnightblue" d="M825.44,-221.589C851.386,-226.833 883.664,-233.358 910.743,-238.831"/>
<polygon fill="midnightblue" stroke="midnightblue" points="910.347,-242.322 920.842,-240.872 911.734,-235.46 910.347,-242.322"/>
</g>
<!-- Node497 -->
<g id="node30" class="node"><title>Node497</title>
<g id="a_node30"><a xlink:href="class_altair.html#a8b7b1fa3e0b567dc1d4721bf88087a68" target="_top" xlink:title="Parcourt l&#39;ensemble des widgets fonctionnels Abstract::abstractWidgetList et actualise leur statut in...">
<polygon fill="white" stroke="black" points="900,-164.5 900,-183.5 1034,-183.5 1034,-164.5 900,-164.5"/>
<text text-anchor="middle" x="967" y="-171.5" font-family="Helvetica,sans-Serif" font-size="10.00">Altair::assignWidgetValues</text>
</a>
</g>
</g>
<!-- Node491&#45;&gt;Node497 -->
<g id="edge36" class="edge"><title>Node491&#45;&gt;Node497</title>
<path fill="none" stroke="midnightblue" d="M825.44,-202.411C850.808,-197.284 882.227,-190.933 908.923,-185.537"/>
<polygon fill="midnightblue" stroke="midnightblue" points="909.792,-188.932 918.901,-183.52 908.406,-182.071 909.792,-188.932"/>
</g>
<!-- Node501 -->
<g id="node34" class="node"><title>Node501</title>
<g id="a_node34"><a xlink:href="class_altair.html#a20528df591deee5ad32f28996ba8dc35" target="_top" xlink:title="Raccourcit les chemins dans les onglets en se limitant au non de fichier et les présente &#160;en surligna...">
<polygon fill="white" stroke="black" points="892,-202.5 892,-221.5 1042,-221.5 1042,-202.5 892,-202.5"/>
<text text-anchor="middle" x="967" y="-209.5" font-family="Helvetica,sans-Serif" font-size="10.00">Altair::refreshRowPresentation</text>
</a>
</g>
</g>
<!-- Node491&#45;&gt;Node501 -->
<g id="edge42" class="edge"><title>Node491&#45;&gt;Node501</title>
<path fill="none" stroke="midnightblue" d="M835.172,-212C849.794,-212 865.828,-212 881.505,-212"/>
<polygon fill="midnightblue" stroke="midnightblue" points="881.738,-215.5 891.738,-212 881.738,-208.5 881.738,-215.5"/>
</g>
<!-- Node491&#45;&gt;Node502 -->
<g id="edge43" class="edge"><title>Node491&#45;&gt;Node502</title>
<path fill="none" stroke="midnightblue" d="M821.114,-202.442C832.87,-198.862 845.304,-194.127 856,-188 874.834,-177.211 872.917,-165.342 892,-155 896.224,-152.711 900.733,-150.689 905.364,-148.905"/>
<polygon fill="midnightblue" stroke="midnightblue" points="906.684,-152.152 914.985,-145.567 904.39,-145.539 906.684,-152.152"/>
</g>
<!-- Node493 -->
<g id="node26" class="node"><title>Node493</title>
<g id="a_node26"><a xlink:href="class_f_string_list.html#a71ec48a52b6ca4ffe89400d66f3ff634" target="_top" xlink:title="FStringList::toInt">
<polygon fill="white" stroke="black" points="1117,-278.5 1117,-297.5 1206,-297.5 1206,-278.5 1117,-278.5"/>
<text text-anchor="middle" x="1161.5" y="-285.5" font-family="Helvetica,sans-Serif" font-size="10.00">FStringList::toInt</text>
</a>
</g>
</g>
<!-- Node492&#45;&gt;Node493 -->
<g id="edge31" class="edge"><title>Node492&#45;&gt;Node493</title>
<path fill="none" stroke="midnightblue" d="M1013.13,-258.909C1041.17,-264.443 1077.35,-271.586 1106.84,-277.408"/>
<polygon fill="midnightblue" stroke="midnightblue" points="1106.49,-280.905 1116.97,-279.408 1107.84,-274.038 1106.49,-280.905"/>
</g>
<!-- Node494 -->
<g id="node27" class="node"><title>Node494</title>
<g id="a_node27"><a xlink:href="namespace_xml_method.html#abe26f53c2028527b0ebea361faa85221" target="_top" xlink:title="Empile les données pour un noeud donné, pour une profondeur d&#39;enchâssement donnée. ">
<polygon fill="white" stroke="black" points="1103,-240.5 1103,-259.5 1220,-259.5 1220,-240.5 1103,-240.5"/>
<text text-anchor="middle" x="1161.5" y="-247.5" font-family="Helvetica,sans-Serif" font-size="10.00">XmlMethod::stackData</text>
</a>
</g>
</g>
<!-- Node492&#45;&gt;Node494 -->
<g id="edge33" class="edge"><title>Node492&#45;&gt;Node494</title>
<path fill="none" stroke="midnightblue" d="M1013.13,-250C1036.78,-250 1066.22,-250 1092.55,-250"/>
<polygon fill="midnightblue" stroke="midnightblue" points="1092.86,-253.5 1102.86,-250 1092.86,-246.5 1092.86,-253.5"/>
</g>
<!-- Node495 -->
<g id="node28" class="node"><title>Node495</title>
<g id="a_node28"><a xlink:href="class_f_list_frame.html#a7ecbe60018d55d1a1352c5fd24c5e72e" target="_top" xlink:title="FListFrame::setTabLabels">
<polygon fill="white" stroke="black" points="1096,-164.5 1096,-183.5 1227,-183.5 1227,-164.5 1096,-164.5"/>
<text text-anchor="middle" x="1161.5" y="-171.5" font-family="Helvetica,sans-Serif" font-size="10.00">FListFrame::setTabLabels</text>
</a>
</g>
</g>
<!-- Node492&#45;&gt;Node495 -->
<g id="edge34" class="edge"><title>Node492&#45;&gt;Node495</title>
<path fill="none" stroke="midnightblue" d="M1011.09,-240.462C1021.34,-237.776 1032.16,-234.591 1042,-231 1074.8,-219.034 1110.7,-201.023 1134.29,-188.46"/>
<polygon fill="midnightblue" stroke="midnightblue" points="1136.16,-191.431 1143.3,-183.607 1132.84,-185.268 1136.16,-191.431"/>
</g>
<!-- Node493&#45;&gt;Node493 -->
<g id="edge32" class="edge"><title>Node493&#45;&gt;Node493</title>
<path fill="none" stroke="midnightblue" d="M1132.22,-297.757C1117.97,-306.565 1127.73,-316 1161.5,-316 1185.24,-316 1197.12,-311.336 1197.12,-305.504"/>
<polygon fill="midnightblue" stroke="midnightblue" points="1199.83,-303.279 1190.78,-297.757 1194.41,-307.712 1199.83,-303.279"/>
</g>
<!-- Node496 -->
<g id="node29" class="node"><title>Node496</title>
<g id="a_node29"><a xlink:href="class_f_list_widget.html#aac6eaaeb9946354f743394b54c84a6a7" target="_top" xlink:title="FListWidget::setTabLabels">
<polygon fill="white" stroke="black" points="1285.5,-164.5 1285.5,-183.5 1419.5,-183.5 1419.5,-164.5 1285.5,-164.5"/>
<text text-anchor="middle" x="1352.5" y="-171.5" font-family="Helvetica,sans-Serif" font-size="10.00">FListWidget::setTabLabels</text>
</a>
</g>
</g>
<!-- Node495&#45;&gt;Node496 -->
<g id="edge35" class="edge"><title>Node495&#45;&gt;Node496</title>
<path fill="none" stroke="midnightblue" d="M1227.01,-174C1242.45,-174 1259.08,-174 1275.01,-174"/>
<polygon fill="midnightblue" stroke="midnightblue" points="1275.35,-177.5 1285.35,-174 1275.35,-170.5 1275.35,-177.5"/>
</g>
<!-- Node497&#45;&gt;Node477 -->
<g id="edge40" class="edge"><title>Node497&#45;&gt;Node477</title>
<path fill="none" stroke="midnightblue" d="M1023.21,-183.518C1098.39,-196.758 1225.84,-220.309 1245,-231 1287.14,-254.516 1322.42,-300.399 1339.83,-325.869"/>
<polygon fill="midnightblue" stroke="midnightblue" points="1336.96,-327.869 1345.42,-334.25 1342.78,-323.987 1336.96,-327.869"/>
</g>
<!-- Node497&#45;&gt;Node490 -->
<g id="edge41" class="edge"><title>Node497&#45;&gt;Node490</title>
<path fill="none" stroke="midnightblue" d="M1028.67,-164.332C1033.56,-161.859 1038.1,-158.793 1042,-155 1083.73,-114.377 1035.76,-69.0992 1078,-29 1085.27,-22.0934 1094.53,-17.519 1104.2,-14.5241"/>
<polygon fill="midnightblue" stroke="midnightblue" points="1105.13,-17.8994 1113.95,-12.0278 1103.4,-11.1183 1105.13,-17.8994"/>
</g>
<!-- Node498 -->
<g id="node31" class="node"><title>Node498</title>
<g id="a_node31"><a xlink:href="class_f_abstract_widget.html#ae6ba84e8ed8a54dc8121245f35f568fe" target="_top" xlink:title="Retourne la clé de hashage de Hash::wrapper correspondant au composant. ">
<polygon fill="white" stroke="black" points="1086.5,-38.5 1086.5,-57.5 1236.5,-57.5 1236.5,-38.5 1086.5,-38.5"/>
<text text-anchor="middle" x="1161.5" y="-45.5" font-family="Helvetica,sans-Serif" font-size="10.00">FAbstractWidget::getHashKey</text>
</a>
</g>
</g>
<!-- Node497&#45;&gt;Node498 -->
<g id="edge37" class="edge"><title>Node497&#45;&gt;Node498</title>
<path fill="none" stroke="midnightblue" d="M1027.14,-164.38C1032.53,-161.912 1037.6,-158.835 1042,-155 1073.86,-127.235 1045.8,-94.3654 1078,-67 1079.82,-65.4533 1081.74,-64.0264 1083.74,-62.7103"/>
<polygon fill="midnightblue" stroke="midnightblue" points="1085.91,-65.5126 1092.98,-57.622 1082.53,-59.3813 1085.91,-65.5126"/>
</g>
<!-- Node499 -->
<g id="node32" class="node"><title>Node499</title>
<g id="a_node32"><a xlink:href="struct_abstract.html#a634c4a8152edbeb8d96d2ca8f30e1025" target="_top" xlink:title="Récupère toutes les clés de hachage (de Hash::wrapper) des FWidgets qui sont dans le vecteur FAbstrac...">
<polygon fill="white" stroke="black" points="1110,-126.5 1110,-145.5 1213,-145.5 1213,-126.5 1110,-126.5"/>
<text text-anchor="middle" x="1161.5" y="-133.5" font-family="Helvetica,sans-Serif" font-size="10.00">Abstract::hashKeys</text>
</a>
</g>
</g>
<!-- Node497&#45;&gt;Node499 -->
<g id="edge38" class="edge"><title>Node497&#45;&gt;Node499</title>
<path fill="none" stroke="midnightblue" d="M1016.58,-164.411C1042.66,-159.261 1075.01,-152.877 1102.42,-147.466"/>
<polygon fill="midnightblue" stroke="midnightblue" points="1103.14,-150.891 1112.27,-145.52 1101.78,-144.023 1103.14,-150.891"/>
</g>
<!-- Node500 -->
<g id="node33" class="node"><title>Node500</title>
<g id="a_node33"><a xlink:href="class_f_abstract_widget.html#a88c229861e7973810c6ac979d5526c2d" target="_top" xlink:title="FAbstractWidget::setWidget\lFromXml">
<polygon fill="white" stroke="black" points="1091.5,-77 1091.5,-107 1231.5,-107 1231.5,-77 1091.5,-77"/>
<text text-anchor="start" x="1099.5" y="-95" font-family="Helvetica,sans-Serif" font-size="10.00">FAbstractWidget::setWidget</text>
<text text-anchor="middle" x="1161.5" y="-84" font-family="Helvetica,sans-Serif" font-size="10.00">FromXml</text>
</a>
</g>
</g>
<!-- Node497&#45;&gt;Node500 -->
<g id="edge39" class="edge"><title>Node497&#45;&gt;Node500</title>
<path fill="none" stroke="midnightblue" d="M1020.43,-164.486C1027.95,-162.01 1035.37,-158.902 1042,-155 1062.05,-143.201 1058.21,-129.226 1078,-117 1081.41,-114.892 1085.01,-112.952 1088.73,-111.167"/>
<polygon fill="midnightblue" stroke="midnightblue" points="1090.39,-114.26 1098.15,-107.044 1087.58,-107.847 1090.39,-114.26"/>
</g>
</g>
</svg>
        <g id="navigator" transform="translate(0 0)" fill="#404254">
                <rect fill="#f2f5e9" fill-opacity="0.5" stroke="#606060" stroke-width=".5" x="0" y="0" width="60" height="60"/>
                <use id="zoomplus" xlink:href="#zoomPlus" x="17" y="9" onmousedown="handleZoom(evt,'in')"/>
                <use id="zoomminus" xlink:href="#zoomMin" x="42" y="9" onmousedown="handleZoom(evt,'out')"/>
                <use id="reset" xlink:href="#resetDef" x="30" y="36" onmousedown="handleReset()"/>
                <g id="arrowUp" xlink:href="#dirArrow" transform="translate(30 24)" onmousedown="handlePan(0,-1)">
                  <use xlink:href="#rim" fill="#404040">
                        <set attributeName="fill" to="#808080" begin="arrowUp.mouseover" end="arrowUp.mouseout"/>
                  </use>
                  <path fill="none" stroke="white" stroke-width="1.5" d="M0,-3.0v7 M-2.5,-0.5L0,-3.0L2.5,-0.5"/>
                </g>
                <g id="arrowRight" xlink:href="#dirArrow" transform="rotate(90) translate(36 -43)" onmousedown="handlePan(1,0)">
                  <use xlink:href="#rim" fill="#404040">
                        <set attributeName="fill" to="#808080" begin="arrowRight.mouseover" end="arrowRight.mouseout"/>
                  </use>
                  <path fill="none" stroke="white" stroke-width="1.5" d="M0,-3.0v7 M-2.5,-0.5L0,-3.0L2.5,-0.5"/>
                </g>
                <g id="arrowDown" xlink:href="#dirArrow" transform="rotate(180) translate(-30 -48)" onmousedown="handlePan(0,1)">
                  <use xlink:href="#rim" fill="#404040">
                        <set attributeName="fill" to="#808080" begin="arrowDown.mouseover" end="arrowDown.mouseout"/>
                  </use>
                  <path fill="none" stroke="white" stroke-width="1.5" d="M0,-3.0v7 M-2.5,-0.5L0,-3.0L2.5,-0.5"/>
                </g>
                <g id="arrowLeft" xlink:href="#dirArrow" transform="rotate(270) translate(-36 17)" onmousedown="handlePan(-1,0)">
                  <use xlink:href="#rim" fill="#404040">
                        <set attributeName="fill" to="#808080" begin="arrowLeft.mouseover" end="arrowLeft.mouseout"/>
                  </use>
                  <path fill="none" stroke="white" stroke-width="1.5" d="M0,-3.0v7 M-2.5,-0.5L0,-3.0L2.5,-0.5"/>
                </g>
        </g>
        <svg viewBox="0 0 15 15" width="100%" height="30px" preserveAspectRatio="xMaxYMin meet">
         <g id="arrow_out" transform="scale(0.3 0.3)">
          <a xlink:href="class_altair_a84cf34107cd413ab33800b583bdef59e_cgraph_org.svg" target="_base">
           <rect id="button" ry="5" rx="5" y="6" x="6" height="38" width="38"
                fill="#f2f5e9" fill-opacity="0.5" stroke="#606060" stroke-width="1.0"/>
           <path id="arrow"
             d="M 11.500037,31.436501 C 11.940474,20.09759 22.043105,11.32322 32.158766,21.979434 L 37.068811,17.246167 C 37.068811,17.246167 37.088388,32 37.088388,32 L 22.160133,31.978069 C 22.160133,31.978069 26.997745,27.140456 26.997745,27.140456 C 18.528582,18.264221 13.291696,25.230495 11.500037,31.436501 z"
             style="fill:#404040;"/>
          </a>
         </g>
        </svg>
</svg>
