<?xml version="1.0" encoding="UTF-8" standalone="no"?>
<!DOCTYPE svg PUBLIC "-//W3C//DTD SVG 1.1//EN"
 "http://www.w3.org/Graphics/SVG/1.1/DTD/svg11.dtd">
<!-- Generated by graphviz version 2.38.0 (20140413.2041)
 -->
<!-- Title: tools::unzip Pages: 1 -->
<svg width="436pt" height="47pt"
 viewBox="0.00 0.00 436.00 47.00" xmlns="http://www.w3.org/2000/svg" xmlns:xlink="http://www.w3.org/1999/xlink">
<g id="graph0" class="graph" transform="scale(1 1) rotate(0) translate(4 43)">
<title>tools::unzip</title>
<polygon fill="white" stroke="none" points="-4,4 -4,-43 432,-43 432,4 -4,4"/>
<!-- Node270 -->
<g id="node1" class="node"><title>Node270</title>
<polygon fill="#bfbfbf" stroke="black" points="0,-0.5 0,-19.5 68,-19.5 68,-0.5 0,-0.5"/>
<text text-anchor="middle" x="34" y="-7.5" font-family="Helvetica,sans-Serif" font-size="10.00">tools::unzip</text>
</g>
<!-- Node271 -->
<g id="node2" class="node"><title>Node271</title>
<g id="a_node2"><a xlink:href="classtools.html#ae1018e45c513785270b999cbcfa8beb6" target="_top" xlink:title="Procédure de contrôle des entrées&#45;sorties. ">
<polygon fill="white" stroke="black" points="104,-0.5 104,-19.5 193,-19.5 193,-0.5 104,-0.5"/>
<text text-anchor="middle" x="148.5" y="-7.5" font-family="Helvetica,sans-Serif" font-size="10.00">tools::IOControl</text>
</a>
</g>
</g>
<!-- Node270&#45;&gt;Node271 -->
<g id="edge1" class="edge"><title>Node270&#45;&gt;Node271</title>
<path fill="none" stroke="midnightblue" d="M68.1452,-10C76.1579,-10 84.9275,-10 93.6215,-10"/>
<polygon fill="midnightblue" stroke="midnightblue" points="93.7429,-13.5001 103.743,-10 93.7428,-6.5001 93.7429,-13.5001"/>
</g>
<!-- Node272 -->
<g id="node3" class="node"><title>Node272</title>
<g id="a_node3"><a xlink:href="classtools.html#a37c9c486d90129b0d6a4ac93f29fd5bb" target="_top" xlink:title="Copie un répertoire de manière sécurisée. ">
<polygon fill="white" stroke="black" points="229,-19.5 229,-38.5 309,-38.5 309,-19.5 229,-19.5"/>
<text text-anchor="middle" x="269" y="-26.5" font-family="Helvetica,sans-Serif" font-size="10.00">tools::copyDir</text>
</a>
</g>
</g>
<!-- Node271&#45;&gt;Node272 -->
<g id="edge2" class="edge"><title>Node271&#45;&gt;Node272</title>
<path fill="none" stroke="midnightblue" d="M193.288,-17.0209C201.538,-18.3436 210.217,-19.7353 218.624,-21.0832"/>
<polygon fill="midnightblue" stroke="midnightblue" points="218.268,-24.5706 228.696,-22.698 219.376,-17.6589 218.268,-24.5706"/>
</g>
<!-- Node273 -->
<g id="node4" class="node"><title>Node273</title>
<g id="a_node4"><a xlink:href="classtools.html#a0765c68c41d7c957f1fb0f0da8b4a9c9" target="_top" xlink:title="Copie un fichier de manière sécurisée. ">
<polygon fill="white" stroke="black" points="345,-0.5 345,-19.5 428,-19.5 428,-0.5 345,-0.5"/>
<text text-anchor="middle" x="386.5" y="-7.5" font-family="Helvetica,sans-Serif" font-size="10.00">tools::copyFile</text>
</a>
</g>
</g>
<!-- Node272&#45;&gt;Node273 -->
<g id="edge3" class="edge"><title>Node272&#45;&gt;Node273</title>
<path fill="none" stroke="midnightblue" d="M309.103,-22.5675C317.382,-21.2056 326.233,-19.7495 334.869,-18.3289"/>
<polygon fill="midnightblue" stroke="midnightblue" points="335.561,-21.7622 344.86,-16.6853 334.425,-14.855 335.561,-21.7622"/>
</g>
<!-- Node273&#45;&gt;Node271 -->
<g id="edge4" class="edge"><title>Node273&#45;&gt;Node271</title>
<path fill="none" stroke="midnightblue" d="M344.952,-10C305.766,-10 246.167,-10 203.085,-10"/>
<polygon fill="midnightblue" stroke="midnightblue" points="203.061,-6.5001 193.061,-10 203.061,-13.5001 203.061,-6.5001"/>
</g>
</g>
</svg>
