<?xml version="1.0" encoding="UTF-8" standalone="no"?>
<!DOCTYPE svg PUBLIC "-//W3C//DTD SVG 1.1//EN"
 "http://www.w3.org/Graphics/SVG/1.1/DTD/svg11.dtd">
<!-- Generated by graphviz version 2.38.0 (20140413.2041)
 -->
<!-- Title: Altair::clearInterfaceAndParseProject Pages: 1 -->
<!--zoomable 513 -->
<svg id="main" version="1.1" xmlns="http://www.w3.org/2000/svg" xmlns:xlink="http://www.w3.org/1999/xlink" xml:space="preserve" onload="init(evt)">
<style type="text/css"><![CDATA[
.edge:hover path { stroke: red; }
.edge:hover polygon { stroke: red; fill: red; }
]]></style>
<script type="text/javascript"><![CDATA[
var edges = document.getElementsByTagName('g');
if (edges && edges.length) {
  for (var i=0;i<edges.length;i++) {
    if (edges[i].id.substr(0,4)=='edge') {
      edges[i].setAttribute('class','edge');
    }
  }
}
]]></script>
        <defs>
                <circle id="rim" cx="0" cy="0" r="7"/>
                <circle id="rim2" cx="0" cy="0" r="3.5"/>
                <g id="zoomPlus">
                        <use xlink:href="#rim" fill="#404040">
                                <set attributeName="fill" to="#808080" begin="zoomplus.mouseover" end="zoomplus.mouseout"/>
                        </use>
                        <path d="M-4,0h8M0,-4v8" fill="none" stroke="white" stroke-width="1.5" pointer-events="none"/>
                </g>
                <g id="zoomMin">
                        <use xlink:href="#rim" fill="#404040">
                                <set attributeName="fill" to="#808080" begin="zoomminus.mouseover" end="zoomminus.mouseout"/>
                        </use>
                        <path d="M-4,0h8" fill="none" stroke="white" stroke-width="1.5" pointer-events="none"/>
                </g>
                <g id="dirArrow">
                        <path fill="none" stroke="white" stroke-width="1.5" d="M0,-3.0v7 M-2.5,-0.5L0,-3.0L2.5,-0.5"/>
                </g>
               <g id="resetDef">
                       <use xlink:href="#rim2" fill="#404040">
                               <set attributeName="fill" to="#808080" begin="reset.mouseover" end="reset.mouseout"/>
                       </use>
               </g>
        </defs>

<script type="text/javascript">
var viewWidth = 1070;
var viewHeight = 513;
var sectionId = 'dynsection-8';
</script>
<script xlink:href="svgpan.js"/>
<svg id="graph" class="graph">
<g id="viewport">
<title>Altair::clearInterfaceAndParseProject</title>
<polygon fill="white" stroke="none" points="-4,4 -4,-508.651 1066,-508.651 1066,4 -4,4"/>
<!-- Node109 -->
<g id="node1" class="node"><title>Node109</title>
<polygon fill="#bfbfbf" stroke="black" points="0,-253 0,-283 122,-283 122,-253 0,-253"/>
<text text-anchor="start" x="8" y="-271" font-family="Helvetica,sans-Serif" font-size="10.00">Altair::clearInterfaceAnd</text>
<text text-anchor="middle" x="61" y="-260" font-family="Helvetica,sans-Serif" font-size="10.00">ParseProject</text>
</g>
<!-- Node110 -->
<g id="node2" class="node"><title>Node110</title>
<g id="a_node2"><a xlink:href="class_main_window.html#a7bbefc0725287bac10300f9b32e54e4a" target="_top" xlink:title="Renvoie l&#39;éditeur du fichier de projet .alt. ">
<polygon fill="white" stroke="black" points="170.5,-277.5 170.5,-296.5 288.5,-296.5 288.5,-277.5 170.5,-277.5"/>
<text text-anchor="middle" x="229.5" y="-284.5" font-family="Helvetica,sans-Serif" font-size="10.00">MainWindow::getEditor</text>
</a>
</g>
</g>
<!-- Node109&#45;&gt;Node110 -->
<g id="edge1" class="edge"><title>Node109&#45;&gt;Node110</title>
<path fill="none" stroke="midnightblue" d="M122.11,-274.859C134.532,-276.277 147.7,-277.78 160.383,-279.227"/>
<polygon fill="midnightblue" stroke="midnightblue" points="160.095,-282.717 170.427,-280.373 160.888,-275.762 160.095,-282.717"/>
</g>
<!-- Node111 -->
<g id="node3" class="node"><title>Node111</title>
<g id="a_node3"><a xlink:href="class_altair.html#ac9d7d8e7cebf70212818f1a8ba7d7d78" target="_top" xlink:title="Rafraîchit le gestionnaire de projet à la droite de l&#39;interface. Fonction globale par défaut...">
<polygon fill="white" stroke="black" points="158,-239.5 158,-258.5 301,-258.5 301,-239.5 158,-239.5"/>
<text text-anchor="middle" x="229.5" y="-246.5" font-family="Helvetica,sans-Serif" font-size="10.00">Altair::refreshProjectManager</text>
</a>
</g>
</g>
<!-- Node109&#45;&gt;Node111 -->
<g id="edge2" class="edge"><title>Node109&#45;&gt;Node111</title>
<path fill="none" stroke="midnightblue" d="M122.11,-261.141C130.479,-260.186 139.187,-259.192 147.857,-258.203"/>
<polygon fill="midnightblue" stroke="midnightblue" points="148.456,-261.657 157.995,-257.046 147.662,-254.702 148.456,-261.657"/>
</g>
<!-- Node112 -->
<g id="node4" class="node"><title>Node112</title>
<g id="a_node4"><a xlink:href="class_altair.html#a9df2266cd3e2a9905e74bb41c1f9415d" target="_top" xlink:title="Remplace un nom de projet vide par un nom par défaut. ">
<polygon fill="white" stroke="black" points="337,-296.5 337,-315.5 494,-315.5 494,-296.5 337,-296.5"/>
<text text-anchor="middle" x="415.5" y="-303.5" font-family="Helvetica,sans-Serif" font-size="10.00">Altair::checkEmptyProjectName</text>
</a>
</g>
</g>
<!-- Node111&#45;&gt;Node112 -->
<g id="edge3" class="edge"><title>Node111&#45;&gt;Node112</title>
<path fill="none" stroke="midnightblue" d="M268.774,-258.511C279.287,-261.342 290.642,-264.601 301,-268 317.312,-273.352 320.79,-276.346 337,-282 348.315,-285.947 360.669,-289.921 372.121,-293.468"/>
<polygon fill="midnightblue" stroke="midnightblue" points="371.318,-296.883 381.905,-296.464 373.368,-290.19 371.318,-296.883"/>
</g>
<!-- Node113 -->
<g id="node5" class="node"><title>Node113</title>
<g id="a_node5"><a xlink:href="class_altair.html#a4995cdc9462838289b5b1df75edba552" target="_top" xlink:title="Ajouter du texte à l&#39;onglet des messages. ">
<polygon fill="white" stroke="black" points="752,-132.5 752,-151.5 847,-151.5 847,-132.5 752,-132.5"/>
<text text-anchor="middle" x="799.5" y="-139.5" font-family="Helvetica,sans-Serif" font-size="10.00">Altair::textAppend</text>
</a>
</g>
</g>
<!-- Node111&#45;&gt;Node113 -->
<g id="edge4" class="edge"><title>Node111&#45;&gt;Node113</title>
<path fill="none" stroke="midnightblue" d="M254.284,-239.366C275.656,-230.987 308.041,-218.97 337,-211 479.753,-171.712 653.896,-153.353 741.85,-146.064"/>
<polygon fill="midnightblue" stroke="midnightblue" points="742.201,-149.547 751.885,-145.25 741.635,-142.57 742.201,-149.547"/>
</g>
<!-- Node114 -->
<g id="node6" class="node"><title>Node114</title>
<g id="a_node6"><a xlink:href="class_altair.html#a41b6c8a35ed8ba14c7c0ce2e6994655f" target="_top" xlink:title="Décode le projet représenté par un pointeur vers QFile ou similaire. ">
<polygon fill="white" stroke="black" points="357.5,-220.5 357.5,-239.5 473.5,-239.5 473.5,-220.5 357.5,-220.5"/>
<text text-anchor="middle" x="415.5" y="-227.5" font-family="Helvetica,sans-Serif" font-size="10.00">Altair::parseProjectFile</text>
</a>
</g>
</g>
<!-- Node111&#45;&gt;Node114 -->
<g id="edge5" class="edge"><title>Node111&#45;&gt;Node114</title>
<path fill="none" stroke="midnightblue" d="M301.113,-241.708C316.264,-240.144 332.235,-238.495 347.254,-236.944"/>
<polygon fill="midnightblue" stroke="midnightblue" points="347.891,-240.397 357.479,-235.888 347.172,-233.434 347.891,-240.397"/>
</g>
<!-- Node127 -->
<g id="node19" class="node"><title>Node127</title>
<g id="a_node19"><a xlink:href="class_altair.html#abf7d1895e52f7b8d7d26e4b5a0e6146a" target="_top" xlink:title="Rafraîchit le gestionnaire de projet à la droite de l&#39;interface. ">
<polygon fill="white" stroke="black" points="533.5,-367 533.5,-397 676.5,-397 676.5,-367 533.5,-367"/>
<text text-anchor="start" x="541.5" y="-385" font-family="Helvetica,sans-Serif" font-size="10.00">Altair::refreshProjectManager</text>
<text text-anchor="middle" x="605" y="-374" font-family="Helvetica,sans-Serif" font-size="10.00">Values</text>
</a>
</g>
</g>
<!-- Node111&#45;&gt;Node127 -->
<g id="edge30" class="edge"><title>Node111&#45;&gt;Node127</title>
<path fill="none" stroke="midnightblue" d="M301.198,-248.534C356.057,-250.64 432.81,-259.101 494,-287 530.807,-303.782 564.652,-336.8 584.811,-359.138"/>
<polygon fill="midnightblue" stroke="midnightblue" points="582.359,-361.65 591.599,-366.835 587.61,-357.02 582.359,-361.65"/>
</g>
<!-- Node115 -->
<g id="node7" class="node"><title>Node115</title>
<g id="a_node7"><a xlink:href="class_altair.html#a3f6193de22ed2034c9b6dbe7a8ac4d97" target="_top" xlink:title="Lors du décodage du projet XML .alt, décoder le noed courant et renvoyer l&#39;empilement des valeurs en ...">
<polygon fill="white" stroke="black" points="559,-66.5 559,-85.5 651,-85.5 651,-66.5 559,-66.5"/>
<text text-anchor="middle" x="605" y="-73.5" font-family="Helvetica,sans-Serif" font-size="10.00">Altair::parseEntry</text>
</a>
</g>
</g>
<!-- Node114&#45;&gt;Node115 -->
<g id="edge6" class="edge"><title>Node114&#45;&gt;Node115</title>
<path fill="none" stroke="midnightblue" d="M428.229,-220.367C459.534,-194.655 545.321,-124.195 584.283,-92.1945"/>
<polygon fill="midnightblue" stroke="midnightblue" points="586.769,-94.6814 592.275,-85.6297 582.326,-89.2721 586.769,-94.6814"/>
</g>
<!-- Node120 -->
<g id="node12" class="node"><title>Node120</title>
<g id="a_node12"><a xlink:href="class_altair.html#a8b7b1fa3e0b567dc1d4721bf88087a68" target="_top" xlink:title="Parcourt l&#39;ensemble des widgets fonctionnels Abstract::abstractWidgetList et actualise leur statut in...">
<polygon fill="white" stroke="black" points="538,-220.5 538,-239.5 672,-239.5 672,-220.5 538,-220.5"/>
<text text-anchor="middle" x="605" y="-227.5" font-family="Helvetica,sans-Serif" font-size="10.00">Altair::assignWidgetValues</text>
</a>
</g>
</g>
<!-- Node114&#45;&gt;Node120 -->
<g id="edge12" class="edge"><title>Node114&#45;&gt;Node120</title>
<path fill="none" stroke="midnightblue" d="M473.52,-230C490.531,-230 509.459,-230 527.504,-230"/>
<polygon fill="midnightblue" stroke="midnightblue" points="527.711,-233.5 537.711,-230 527.711,-226.5 527.711,-233.5"/>
</g>
<!-- Node125 -->
<g id="node17" class="node"><title>Node125</title>
<g id="a_node17"><a xlink:href="class_altair.html#a20528df591deee5ad32f28996ba8dc35" target="_top" xlink:title="Raccourcit les chemins dans les onglets en se limitant au non de fichier et les présente &#160;en surligna...">
<polygon fill="white" stroke="black" points="530,-258.5 530,-277.5 680,-277.5 680,-258.5 530,-258.5"/>
<text text-anchor="middle" x="605" y="-265.5" font-family="Helvetica,sans-Serif" font-size="10.00">Altair::refreshRowPresentation</text>
</a>
</g>
</g>
<!-- Node114&#45;&gt;Node125 -->
<g id="edge18" class="edge"><title>Node114&#45;&gt;Node125</title>
<path fill="none" stroke="midnightblue" d="M463.814,-239.589C489.114,-244.716 520.45,-251.067 547.075,-256.463"/>
<polygon fill="midnightblue" stroke="midnightblue" points="546.53,-259.924 557.026,-258.48 547.921,-253.063 546.53,-259.924"/>
</g>
<!-- Node126 -->
<g id="node18" class="node"><title>Node126</title>
<g id="a_node18"><a xlink:href="class_hash.html#a2ac10203aa8b32a04d9088e08ddbaab4" target="_top" xlink:title="Hash::createReference">
<polygon fill="white" stroke="black" points="546,-182.5 546,-201.5 664,-201.5 664,-182.5 546,-182.5"/>
<text text-anchor="middle" x="605" y="-189.5" font-family="Helvetica,sans-Serif" font-size="10.00">Hash::createReference</text>
</a>
</g>
</g>
<!-- Node114&#45;&gt;Node126 -->
<g id="edge19" class="edge"><title>Node114&#45;&gt;Node126</title>
<path fill="none" stroke="midnightblue" d="M463.814,-220.411C489.114,-215.284 520.45,-208.933 547.075,-203.537"/>
<polygon fill="midnightblue" stroke="midnightblue" points="547.921,-206.937 557.026,-201.52 546.53,-200.076 547.921,-206.937"/>
</g>
<!-- Node114&#45;&gt;Node127 -->
<g id="edge20" class="edge"><title>Node114&#45;&gt;Node127</title>
<path fill="none" stroke="midnightblue" d="M462.26,-239.539C473.199,-243.041 484.46,-247.742 494,-254 516.04,-268.459 561.435,-325.82 586.469,-358.636"/>
<polygon fill="midnightblue" stroke="midnightblue" points="583.829,-360.947 592.662,-366.798 589.405,-356.716 583.829,-360.947"/>
</g>
<!-- Node116 -->
<g id="node8" class="node"><title>Node116</title>
<g id="a_node8"><a xlink:href="class_f_string_list.html#a71ec48a52b6ca4ffe89400d66f3ff634" target="_top" xlink:title="FStringList::toInt">
<polygon fill="white" stroke="black" points="755,-38.5 755,-57.5 844,-57.5 844,-38.5 755,-38.5"/>
<text text-anchor="middle" x="799.5" y="-45.5" font-family="Helvetica,sans-Serif" font-size="10.00">FStringList::toInt</text>
</a>
</g>
</g>
<!-- Node115&#45;&gt;Node116 -->
<g id="edge7" class="edge"><title>Node115&#45;&gt;Node116</title>
<path fill="none" stroke="midnightblue" d="M651.133,-69.4352C679.165,-65.3578 715.348,-60.0949 744.845,-55.8044"/>
<polygon fill="midnightblue" stroke="midnightblue" points="745.583,-59.234 754.975,-54.3309 744.575,-52.3069 745.583,-59.234"/>
</g>
<!-- Node117 -->
<g id="node9" class="node"><title>Node117</title>
<g id="a_node9"><a xlink:href="namespace_xml_method.html#abe26f53c2028527b0ebea361faa85221" target="_top" xlink:title="Empile les données pour un noeud donné, pour une profondeur d&#39;enchâssement donnée. ">
<polygon fill="white" stroke="black" points="741,-94.5 741,-113.5 858,-113.5 858,-94.5 741,-94.5"/>
<text text-anchor="middle" x="799.5" y="-101.5" font-family="Helvetica,sans-Serif" font-size="10.00">XmlMethod::stackData</text>
</a>
</g>
</g>
<!-- Node115&#45;&gt;Node117 -->
<g id="edge9" class="edge"><title>Node115&#45;&gt;Node117</title>
<path fill="none" stroke="midnightblue" d="M651.133,-82.5648C674.881,-86.019 704.477,-90.3239 730.903,-94.1677"/>
<polygon fill="midnightblue" stroke="midnightblue" points="730.457,-97.6396 740.857,-95.6155 731.465,-90.7125 730.457,-97.6396"/>
</g>
<!-- Node118 -->
<g id="node10" class="node"><title>Node118</title>
<g id="a_node10"><a xlink:href="class_f_list_frame.html#a7ecbe60018d55d1a1352c5fd24c5e72e" target="_top" xlink:title="FListFrame::setTabLabels">
<polygon fill="white" stroke="black" points="734,-0.5 734,-19.5 865,-19.5 865,-0.5 734,-0.5"/>
<text text-anchor="middle" x="799.5" y="-7.5" font-family="Helvetica,sans-Serif" font-size="10.00">FListFrame::setTabLabels</text>
</a>
</g>
</g>
<!-- Node115&#45;&gt;Node118 -->
<g id="edge10" class="edge"><title>Node115&#45;&gt;Node118</title>
<path fill="none" stroke="midnightblue" d="M625.467,-66.4309C647.142,-56.074 683.421,-39.6187 716,-29 723.935,-26.4138 732.408,-24.0401 740.791,-21.9119"/>
<polygon fill="midnightblue" stroke="midnightblue" points="741.669,-25.3006 750.553,-19.5283 740.008,-18.5004 741.669,-25.3006"/>
</g>
<!-- Node116&#45;&gt;Node116 -->
<g id="edge8" class="edge"><title>Node116&#45;&gt;Node116</title>
<path fill="none" stroke="midnightblue" d="M770.215,-57.7571C755.969,-66.5653 765.73,-76 799.5,-76 823.244,-76 835.119,-71.3356 835.125,-65.5043"/>
<polygon fill="midnightblue" stroke="midnightblue" points="837.827,-63.279 828.785,-57.7571 832.409,-67.7125 837.827,-63.279"/>
</g>
<!-- Node119 -->
<g id="node11" class="node"><title>Node119</title>
<g id="a_node11"><a xlink:href="class_f_list_widget.html#aac6eaaeb9946354f743394b54c84a6a7" target="_top" xlink:title="FListWidget::setTabLabels">
<polygon fill="white" stroke="black" points="923.5,-0.5 923.5,-19.5 1057.5,-19.5 1057.5,-0.5 923.5,-0.5"/>
<text text-anchor="middle" x="990.5" y="-7.5" font-family="Helvetica,sans-Serif" font-size="10.00">FListWidget::setTabLabels</text>
</a>
</g>
</g>
<!-- Node118&#45;&gt;Node119 -->
<g id="edge11" class="edge"><title>Node118&#45;&gt;Node119</title>
<path fill="none" stroke="midnightblue" d="M865.014,-10C880.454,-10 897.084,-10 913.006,-10"/>
<polygon fill="midnightblue" stroke="midnightblue" points="913.347,-13.5001 923.347,-10 913.347,-6.5001 913.347,-13.5001"/>
</g>
<!-- Node120&#45;&gt;Node113 -->
<g id="edge17" class="edge"><title>Node120&#45;&gt;Node113</title>
<path fill="none" stroke="midnightblue" d="M661.229,-220.442C667.868,-217.982 674.304,-214.889 680,-211 702.615,-195.56 693.194,-176.157 716,-161 723.731,-155.862 732.669,-152.103 741.747,-149.355"/>
<polygon fill="midnightblue" stroke="midnightblue" points="742.828,-152.689 751.603,-146.752 741.041,-145.921 742.828,-152.689"/>
</g>
<!-- Node121 -->
<g id="node13" class="node"><title>Node121</title>
<g id="a_node13"><a xlink:href="class_f_abstract_widget.html#ae6ba84e8ed8a54dc8121245f35f568fe" target="_top" xlink:title="Retourne la clé de hashage de Hash::wrapper correspondant au composant. ">
<polygon fill="white" stroke="black" points="724.5,-258.5 724.5,-277.5 874.5,-277.5 874.5,-258.5 724.5,-258.5"/>
<text text-anchor="middle" x="799.5" y="-265.5" font-family="Helvetica,sans-Serif" font-size="10.00">FAbstractWidget::getHashKey</text>
</a>
</g>
</g>
<!-- Node120&#45;&gt;Node121 -->
<g id="edge13" class="edge"><title>Node120&#45;&gt;Node121</title>
<path fill="none" stroke="midnightblue" d="M654.576,-239.589C680.665,-244.739 713.006,-251.123 740.418,-256.534"/>
<polygon fill="midnightblue" stroke="midnightblue" points="739.785,-259.977 750.273,-258.48 741.141,-253.109 739.785,-259.977"/>
</g>
<!-- Node122 -->
<g id="node14" class="node"><title>Node122</title>
<g id="a_node14"><a xlink:href="struct_abstract.html#a634c4a8152edbeb8d96d2ca8f30e1025" target="_top" xlink:title="Récupère toutes les clés de hachage (de Hash::wrapper) des FWidgets qui sont dans le vecteur FAbstrac...">
<polygon fill="white" stroke="black" points="748,-220.5 748,-239.5 851,-239.5 851,-220.5 748,-220.5"/>
<text text-anchor="middle" x="799.5" y="-227.5" font-family="Helvetica,sans-Serif" font-size="10.00">Abstract::hashKeys</text>
</a>
</g>
</g>
<!-- Node120&#45;&gt;Node122 -->
<g id="edge14" class="edge"><title>Node120&#45;&gt;Node122</title>
<path fill="none" stroke="midnightblue" d="M672.248,-230C693.557,-230 717.047,-230 737.927,-230"/>
<polygon fill="midnightblue" stroke="midnightblue" points="737.947,-233.5 747.946,-230 737.946,-226.5 737.947,-233.5"/>
</g>
<!-- Node123 -->
<g id="node15" class="node"><title>Node123</title>
<g id="a_node15"><a xlink:href="class_f_abstract_widget.html#a88c229861e7973810c6ac979d5526c2d" target="_top" xlink:title="FAbstractWidget::setWidget\lFromXml">
<polygon fill="white" stroke="black" points="729.5,-171 729.5,-201 869.5,-201 869.5,-171 729.5,-171"/>
<text text-anchor="start" x="737.5" y="-189" font-family="Helvetica,sans-Serif" font-size="10.00">FAbstractWidget::setWidget</text>
<text text-anchor="middle" x="799.5" y="-178" font-family="Helvetica,sans-Serif" font-size="10.00">FromXml</text>
</a>
</g>
</g>
<!-- Node120&#45;&gt;Node123 -->
<g id="edge15" class="edge"><title>Node120&#45;&gt;Node123</title>
<path fill="none" stroke="midnightblue" d="M647.77,-220.453C669.636,-215.455 697.097,-209.178 722.568,-203.356"/>
<polygon fill="midnightblue" stroke="midnightblue" points="723.62,-206.706 732.589,-201.065 722.061,-199.882 723.62,-206.706"/>
</g>
<!-- Node124 -->
<g id="node16" class="node"><title>Node124</title>
<g id="a_node16"><a xlink:href="class_altair.html#a78a2870bb9b316c5ad6bcbd64471eeb8" target="_top" xlink:title="Renvoie la taille des données exportées. ">
<polygon fill="white" stroke="black" points="959,-315.5 959,-334.5 1022,-334.5 1022,-315.5 959,-315.5"/>
<text text-anchor="middle" x="990.5" y="-322.5" font-family="Helvetica,sans-Serif" font-size="10.00">Altair::size</text>
</a>
</g>
</g>
<!-- Node120&#45;&gt;Node124 -->
<g id="edge16" class="edge"><title>Node120&#45;&gt;Node124</title>
<path fill="none" stroke="midnightblue" d="M658.427,-239.514C665.945,-241.99 673.37,-245.098 680,-249 700.051,-260.799 695.314,-276.355 716,-287 755.754,-307.456 882.768,-318.276 948.783,-322.643"/>
<polygon fill="midnightblue" stroke="midnightblue" points="948.628,-326.14 958.832,-323.288 949.077,-319.154 948.628,-326.14"/>
</g>
<!-- Node128 -->
<g id="node20" class="node"><title>Node128</title>
<g id="a_node20"><a xlink:href="class_f_list_frame.html#a58337134c45f052ad6bb45c014fd5c3f" target="_top" xlink:title="Récupère les titres d&#39;onglet. ">
<polygon fill="white" stroke="black" points="734,-372.5 734,-391.5 865,-391.5 865,-372.5 734,-372.5"/>
<text text-anchor="middle" x="799.5" y="-379.5" font-family="Helvetica,sans-Serif" font-size="10.00">FListFrame::getTabLabels</text>
</a>
</g>
</g>
<!-- Node127&#45;&gt;Node128 -->
<g id="edge21" class="edge"><title>Node127&#45;&gt;Node128</title>
<path fill="none" stroke="midnightblue" d="M676.587,-382C691.991,-382 708.341,-382 723.895,-382"/>
<polygon fill="midnightblue" stroke="midnightblue" points="723.984,-385.5 733.984,-382 723.984,-378.5 723.984,-385.5"/>
</g>
<!-- Node130 -->
<g id="node22" class="node"><title>Node130</title>
<g id="a_node22"><a xlink:href="class_altair.html#adc79f280e4f580298a8dd80e2f7cf712" target="_top" xlink:title="Parcourt la table de chachage Hash::wrapper dans laquelle sont stockés à la clé &quot;XHL&quot; les chemins des...">
<polygon fill="white" stroke="black" points="721,-334.5 721,-353.5 878,-353.5 878,-334.5 721,-334.5"/>
<text text-anchor="middle" x="799.5" y="-341.5" font-family="Helvetica,sans-Serif" font-size="10.00">Altair::processSecondLevelData</text>
</a>
</g>
</g>
<!-- Node127&#45;&gt;Node130 -->
<g id="edge23" class="edge"><title>Node127&#45;&gt;Node130</title>
<path fill="none" stroke="midnightblue" d="M676.587,-368.066C697.516,-363.934 720.192,-359.458 740.246,-355.5"/>
<polygon fill="midnightblue" stroke="midnightblue" points="741.032,-358.912 750.165,-353.541 739.676,-352.044 741.032,-358.912"/>
</g>
<!-- Node131 -->
<g id="node23" class="node"><title>Node131</title>
<g id="a_node23"><a xlink:href="namespace_xml_method.html#ac0a708c4bc4c55df24e60816d69a90cf" target="_top" xlink:title="XmlMethod::displaySecond\lLevelData">
<polygon fill="white" stroke="black" points="731.5,-449 731.5,-479 867.5,-479 867.5,-449 731.5,-449"/>
<text text-anchor="start" x="739.5" y="-467" font-family="Helvetica,sans-Serif" font-size="10.00">XmlMethod::displaySecond</text>
<text text-anchor="middle" x="799.5" y="-456" font-family="Helvetica,sans-Serif" font-size="10.00">LevelData</text>
</a>
</g>
</g>
<!-- Node127&#45;&gt;Node131 -->
<g id="edge25" class="edge"><title>Node127&#45;&gt;Node131</title>
<path fill="none" stroke="midnightblue" d="M632.027,-397.223C653.919,-409.601 686.312,-426.93 716,-439 721.823,-441.367 727.956,-443.631 734.14,-445.761"/>
<polygon fill="midnightblue" stroke="midnightblue" points="733.27,-449.16 743.864,-448.994 735.479,-442.518 733.27,-449.16"/>
</g>
<!-- Node132 -->
<g id="node24" class="node"><title>Node132</title>
<g id="a_node24"><a xlink:href="namespace_xml_method.html#aad1e553eb1ec6f1bb128cc6744cba9e3" target="_top" xlink:title="XmlMethod::displayTextData">
<polygon fill="white" stroke="black" points="919,-454.5 919,-473.5 1062,-473.5 1062,-454.5 919,-454.5"/>
<text text-anchor="middle" x="990.5" y="-461.5" font-family="Helvetica,sans-Serif" font-size="10.00">XmlMethod::displayTextData</text>
</a>
</g>
</g>
<!-- Node127&#45;&gt;Node132 -->
<g id="edge27" class="edge"><title>Node127&#45;&gt;Node132</title>
<path fill="none" stroke="midnightblue" d="M615.606,-397.044C632.423,-421.801 669.841,-470.253 716,-489 796.928,-521.868 902.086,-494.893 955.355,-476.892"/>
<polygon fill="midnightblue" stroke="midnightblue" points="956.692,-480.132 964.987,-473.541 954.392,-473.521 956.692,-480.132"/>
</g>
<!-- Node133 -->
<g id="node25" class="node"><title>Node133</title>
<g id="a_node25"><a xlink:href="namespace_xml_method.html#a796c4f03d9e7a8057f0102b87eecbd3e" target="_top" xlink:title="XmlMethod::displayFirstLevelData">
<polygon fill="white" stroke="black" points="716,-410.5 716,-429.5 883,-429.5 883,-410.5 716,-410.5"/>
<text text-anchor="middle" x="799.5" y="-417.5" font-family="Helvetica,sans-Serif" font-size="10.00">XmlMethod::displayFirstLevelData</text>
</a>
</g>
</g>
<!-- Node127&#45;&gt;Node133 -->
<g id="edge28" class="edge"><title>Node127&#45;&gt;Node133</title>
<path fill="none" stroke="midnightblue" d="M676.587,-395.934C697.516,-400.066 720.192,-404.542 740.246,-408.5"/>
<polygon fill="midnightblue" stroke="midnightblue" points="739.676,-411.956 750.165,-410.459 741.032,-405.088 739.676,-411.956"/>
</g>
<!-- Node129 -->
<g id="node21" class="node"><title>Node129</title>
<g id="a_node21"><a xlink:href="class_f_list_frame.html#a4bf0d0d8e56418df395b020d2e66db5f" target="_top" xlink:title="Récupère la taille courante (0&#45;based) du conteneur widgetContainer Cette taille doit en principe être...">
<polygon fill="white" stroke="black" points="936,-372.5 936,-391.5 1045,-391.5 1045,-372.5 936,-372.5"/>
<text text-anchor="middle" x="990.5" y="-379.5" font-family="Helvetica,sans-Serif" font-size="10.00">FListFrame::getRank</text>
</a>
</g>
</g>
<!-- Node128&#45;&gt;Node129 -->
<g id="edge22" class="edge"><title>Node128&#45;&gt;Node129</title>
<path fill="none" stroke="midnightblue" d="M865.014,-382C884.684,-382 906.288,-382 925.897,-382"/>
<polygon fill="midnightblue" stroke="midnightblue" points="925.948,-385.5 935.948,-382 925.948,-378.5 925.948,-385.5"/>
</g>
<!-- Node130&#45;&gt;Node124 -->
<g id="edge24" class="edge"><title>Node130&#45;&gt;Node124</title>
<path fill="none" stroke="midnightblue" d="M878.192,-336.19C902.405,-333.756 928.14,-331.168 948.758,-329.096"/>
<polygon fill="midnightblue" stroke="midnightblue" points="949.139,-332.575 958.739,-328.092 948.439,-325.61 949.139,-332.575"/>
</g>
<!-- Node131&#45;&gt;Node132 -->
<g id="edge26" class="edge"><title>Node131&#45;&gt;Node132</title>
<path fill="none" stroke="midnightblue" d="M867.666,-464C880.856,-464 894.823,-464 908.413,-464"/>
<polygon fill="midnightblue" stroke="midnightblue" points="908.712,-467.5 918.712,-464 908.712,-460.5 908.712,-467.5"/>
</g>
<!-- Node133&#45;&gt;Node132 -->
<g id="edge29" class="edge"><title>Node133&#45;&gt;Node132</title>
<path fill="none" stroke="midnightblue" d="M841.51,-429.547C869.992,-436.178 908.14,-445.059 938.571,-452.143"/>
<polygon fill="midnightblue" stroke="midnightblue" points="938.037,-455.613 948.57,-454.471 939.624,-448.795 938.037,-455.613"/>
</g>
</g>
</svg>
        <g id="navigator" transform="translate(0 0)" fill="#404254">
                <rect fill="#f2f5e9" fill-opacity="0.5" stroke="#606060" stroke-width=".5" x="0" y="0" width="60" height="60"/>
                <use id="zoomplus" xlink:href="#zoomPlus" x="17" y="9" onmousedown="handleZoom(evt,'in')"/>
                <use id="zoomminus" xlink:href="#zoomMin" x="42" y="9" onmousedown="handleZoom(evt,'out')"/>
                <use id="reset" xlink:href="#resetDef" x="30" y="36" onmousedown="handleReset()"/>
                <g id="arrowUp" xlink:href="#dirArrow" transform="translate(30 24)" onmousedown="handlePan(0,-1)">
                  <use xlink:href="#rim" fill="#404040">
                        <set attributeName="fill" to="#808080" begin="arrowUp.mouseover" end="arrowUp.mouseout"/>
                  </use>
                  <path fill="none" stroke="white" stroke-width="1.5" d="M0,-3.0v7 M-2.5,-0.5L0,-3.0L2.5,-0.5"/>
                </g>
                <g id="arrowRight" xlink:href="#dirArrow" transform="rotate(90) translate(36 -43)" onmousedown="handlePan(1,0)">
                  <use xlink:href="#rim" fill="#404040">
                        <set attributeName="fill" to="#808080" begin="arrowRight.mouseover" end="arrowRight.mouseout"/>
                  </use>
                  <path fill="none" stroke="white" stroke-width="1.5" d="M0,-3.0v7 M-2.5,-0.5L0,-3.0L2.5,-0.5"/>
                </g>
                <g id="arrowDown" xlink:href="#dirArrow" transform="rotate(180) translate(-30 -48)" onmousedown="handlePan(0,1)">
                  <use xlink:href="#rim" fill="#404040">
                        <set attributeName="fill" to="#808080" begin="arrowDown.mouseover" end="arrowDown.mouseout"/>
                  </use>
                  <path fill="none" stroke="white" stroke-width="1.5" d="M0,-3.0v7 M-2.5,-0.5L0,-3.0L2.5,-0.5"/>
                </g>
                <g id="arrowLeft" xlink:href="#dirArrow" transform="rotate(270) translate(-36 17)" onmousedown="handlePan(-1,0)">
                  <use xlink:href="#rim" fill="#404040">
                        <set attributeName="fill" to="#808080" begin="arrowLeft.mouseover" end="arrowLeft.mouseout"/>
                  </use>
                  <path fill="none" stroke="white" stroke-width="1.5" d="M0,-3.0v7 M-2.5,-0.5L0,-3.0L2.5,-0.5"/>
                </g>
        </g>
        <svg viewBox="0 0 15 15" width="100%" height="30px" preserveAspectRatio="xMaxYMin meet">
         <g id="arrow_out" transform="scale(0.3 0.3)">
          <a xlink:href="class_altair_acaa583766e1c062ea311847fcdd35374_cgraph_org.svg" target="_base">
           <rect id="button" ry="5" rx="5" y="6" x="6" height="38" width="38"
                fill="#f2f5e9" fill-opacity="0.5" stroke="#606060" stroke-width="1.0"/>
           <path id="arrow"
             d="M 11.500037,31.436501 C 11.940474,20.09759 22.043105,11.32322 32.158766,21.979434 L 37.068811,17.246167 C 37.068811,17.246167 37.088388,32 37.088388,32 L 22.160133,31.978069 C 22.160133,31.978069 26.997745,27.140456 26.997745,27.140456 C 18.528582,18.264221 13.291696,25.230495 11.500037,31.436501 z"
             style="fill:#404040;"/>
          </a>
         </g>
        </svg>
</svg>
