<?xml version="1.0" encoding="UTF-8" standalone="no"?>
<!DOCTYPE svg PUBLIC "-//W3C//DTD SVG 1.1//EN"
 "http://www.w3.org/Graphics/SVG/1.1/DTD/svg11.dtd">
<!-- Generated by graphviz version 2.38.0 (20140413.2041)
 -->
<!-- Title: FListFrame::FListFrame Pages: 1 -->
<!--zoomable 436 -->
<svg id="main" version="1.1" xmlns="http://www.w3.org/2000/svg" xmlns:xlink="http://www.w3.org/1999/xlink" xml:space="preserve" onload="init(evt)">
<style type="text/css"><![CDATA[
.edge:hover path { stroke: red; }
.edge:hover polygon { stroke: red; fill: red; }
]]></style>
<script type="text/javascript"><![CDATA[
var edges = document.getElementsByTagName('g');
if (edges && edges.length) {
  for (var i=0;i<edges.length;i++) {
    if (edges[i].id.substr(0,4)=='edge') {
      edges[i].setAttribute('class','edge');
    }
  }
}
]]></script>
        <defs>
                <circle id="rim" cx="0" cy="0" r="7"/>
                <circle id="rim2" cx="0" cy="0" r="3.5"/>
                <g id="zoomPlus">
                        <use xlink:href="#rim" fill="#404040">
                                <set attributeName="fill" to="#808080" begin="zoomplus.mouseover" end="zoomplus.mouseout"/>
                        </use>
                        <path d="M-4,0h8M0,-4v8" fill="none" stroke="white" stroke-width="1.5" pointer-events="none"/>
                </g>
                <g id="zoomMin">
                        <use xlink:href="#rim" fill="#404040">
                                <set attributeName="fill" to="#808080" begin="zoomminus.mouseover" end="zoomminus.mouseout"/>
                        </use>
                        <path d="M-4,0h8" fill="none" stroke="white" stroke-width="1.5" pointer-events="none"/>
                </g>
                <g id="dirArrow">
                        <path fill="none" stroke="white" stroke-width="1.5" d="M0,-3.0v7 M-2.5,-0.5L0,-3.0L2.5,-0.5"/>
                </g>
               <g id="resetDef">
                       <use xlink:href="#rim2" fill="#404040">
                               <set attributeName="fill" to="#808080" begin="reset.mouseover" end="reset.mouseout"/>
                       </use>
               </g>
        </defs>

<script type="text/javascript">
var viewWidth = 1074;
var viewHeight = 436;
var sectionId = 'dynsection-2';
</script>
<script xlink:href="svgpan.js"/>
<svg id="graph" class="graph">
<g id="viewport">
<title>FListFrame::FListFrame</title>
<polygon fill="white" stroke="none" points="-4,4 -4,-432 1070,-432 1070,4 -4,4"/>
<!-- Node0 -->
<g id="node1" class="node"><title>Node0</title>
<polygon fill="#bfbfbf" stroke="black" points="1.13687e-13,-229.5 1.13687e-13,-248.5 126,-248.5 126,-229.5 1.13687e-13,-229.5"/>
<text text-anchor="middle" x="63" y="-236.5" font-family="Helvetica,sans-Serif" font-size="10.00">FListFrame::FListFrame</text>
</g>
<!-- Node1 -->
<g id="node2" class="node"><title>Node1</title>
<g id="a_node2"><a xlink:href="class_f_list_frame.html#a1fda46dc7cfe6a661d2e2d1c66638134" target="_top" xlink:title="FListFrame::deleteGroup">
<polygon fill="white" stroke="black" points="351,-202.5 351,-221.5 483,-221.5 483,-202.5 351,-202.5"/>
<text text-anchor="middle" x="417" y="-209.5" font-family="Helvetica,sans-Serif" font-size="10.00">FListFrame::deleteGroup</text>
</a>
</g>
</g>
<!-- Node0&#45;&gt;Node1 -->
<g id="edge1" class="edge"><title>Node0&#45;&gt;Node1</title>
<path fill="none" stroke="midnightblue" d="M81.6725,-248.618C123.012,-269.738 228.464,-315.555 307,-280 329.091,-269.999 323.017,-252.737 343,-239 351.099,-233.432 360.489,-228.849 369.782,-225.14"/>
<polygon fill="midnightblue" stroke="midnightblue" points="371.212,-228.342 379.373,-221.586 368.78,-221.778 371.212,-228.342"/>
</g>
<!-- Node3 -->
<g id="node4" class="node"><title>Node3</title>
<g id="a_node4"><a xlink:href="class_f_list_frame.html#aa993bd2e0b975a839c6f8b46dea4690c" target="_top" xlink:title="FListFrame::finalise">
<polygon fill="white" stroke="black" points="181,-327.5 181,-346.5 288,-346.5 288,-327.5 181,-327.5"/>
<text text-anchor="middle" x="234.5" y="-334.5" font-family="Helvetica,sans-Serif" font-size="10.00">FListFrame::finalise</text>
</a>
</g>
</g>
<!-- Node0&#45;&gt;Node3 -->
<g id="edge3" class="edge"><title>Node0&#45;&gt;Node3</title>
<path fill="none" stroke="midnightblue" d="M74.3826,-248.673C91.4698,-264.149 127.113,-294.602 162,-313 170.165,-317.306 179.256,-321.061 188.143,-324.241"/>
<polygon fill="midnightblue" stroke="midnightblue" points="187.058,-327.569 197.653,-327.465 189.306,-320.94 187.058,-327.569"/>
</g>
<!-- Node9 -->
<g id="node10" class="node"><title>Node9</title>
<g id="a_node10"><a xlink:href="struct_abstract.html#af7b700041c9d75de3f642f15ece3e6ae" target="_top" xlink:title="Réinitialiser toutes les valeurs du de la table de hachage Hash::wrapper. ">
<polygon fill="white" stroke="black" points="194.5,-251.5 194.5,-270.5 274.5,-270.5 274.5,-251.5 194.5,-251.5"/>
<text text-anchor="middle" x="234.5" y="-258.5" font-family="Helvetica,sans-Serif" font-size="10.00">Abstract::initH</text>
</a>
</g>
</g>
<!-- Node0&#45;&gt;Node9 -->
<g id="edge10" class="edge"><title>Node0&#45;&gt;Node9</title>
<path fill="none" stroke="midnightblue" d="M126.153,-247.067C145.277,-249.549 166.056,-252.246 184.194,-254.6"/>
<polygon fill="midnightblue" stroke="midnightblue" points="183.885,-258.09 194.252,-255.906 184.786,-251.148 183.885,-258.09"/>
</g>
<!-- Node10 -->
<g id="node11" class="node"><title>Node10</title>
<g id="a_node11"><a xlink:href="class_f_list_frame.html#a018583305b4464d69c66805aceb1a2ac" target="_top" xlink:title="Initialise le conteneur de composants widgetContainer à blanc. ">
<polygon fill="white" stroke="black" points="162.5,-202 162.5,-232 306.5,-232 306.5,-202 162.5,-202"/>
<text text-anchor="start" x="170.5" y="-220" font-family="Helvetica,sans-Serif" font-size="10.00">FListFrame::initializeWidget</text>
<text text-anchor="middle" x="234.5" y="-209" font-family="Helvetica,sans-Serif" font-size="10.00">Container</text>
</a>
</g>
</g>
<!-- Node0&#45;&gt;Node10 -->
<g id="edge11" class="edge"><title>Node0&#45;&gt;Node10</title>
<path fill="none" stroke="midnightblue" d="M126.153,-230.933C134.734,-229.819 143.648,-228.662 152.508,-227.512"/>
<polygon fill="midnightblue" stroke="midnightblue" points="153,-230.978 162.467,-226.22 152.099,-224.036 153,-230.978"/>
</g>
<!-- Node11 -->
<g id="node12" class="node"><title>Node11</title>
<g id="a_node12"><a xlink:href="class_f_list_frame.html#a3b18347a90f89b4423e8a543f0c1c47c" target="_top" xlink:title="FListFrame::on_deleteItem\l_clicked">
<polygon fill="white" stroke="black" points="164,-153 164,-183 305,-183 305,-153 164,-153"/>
<text text-anchor="start" x="172" y="-171" font-family="Helvetica,sans-Serif" font-size="10.00">FListFrame::on_deleteItem</text>
<text text-anchor="middle" x="234.5" y="-160" font-family="Helvetica,sans-Serif" font-size="10.00">_clicked</text>
</a>
</g>
</g>
<!-- Node0&#45;&gt;Node11 -->
<g id="edge12" class="edge"><title>Node0&#45;&gt;Node11</title>
<path fill="none" stroke="midnightblue" d="M82.1197,-229.478C101.563,-219.458 133.5,-203.566 162,-192 166.658,-190.11 171.527,-188.247 176.438,-186.445"/>
<polygon fill="midnightblue" stroke="midnightblue" points="177.654,-189.727 185.893,-183.066 175.298,-183.136 177.654,-189.727"/>
</g>
<!-- Node12 -->
<g id="node13" class="node"><title>Node12</title>
<g id="a_node13"><a xlink:href="class_f_list_frame.html#ac14c494842340a0438766256c01f83bc" target="_top" xlink:title="FListFrame::on_importFrom\lMainTree_clicked">
<polygon fill="white" stroke="black" points="162,-104 162,-134 307,-134 307,-104 162,-104"/>
<text text-anchor="start" x="170" y="-122" font-family="Helvetica,sans-Serif" font-size="10.00">FListFrame::on_importFrom</text>
<text text-anchor="middle" x="234.5" y="-111" font-family="Helvetica,sans-Serif" font-size="10.00">MainTree_clicked</text>
</a>
</g>
</g>
<!-- Node0&#45;&gt;Node12 -->
<g id="edge15" class="edge"><title>Node0&#45;&gt;Node12</title>
<path fill="none" stroke="midnightblue" d="M71.2946,-229.377C86.2637,-210.259 122.393,-167.254 162,-143 164.65,-141.377 167.424,-139.849 170.275,-138.411"/>
<polygon fill="midnightblue" stroke="midnightblue" points="171.966,-141.486 179.588,-134.127 169.04,-135.127 171.966,-141.486"/>
</g>
<!-- Node2 -->
<g id="node3" class="node"><title>Node2</title>
<g id="a_node3"><a xlink:href="class_f_list_frame.html#a356ad4309df1e931fb3ee12ad88054fb" target="_top" xlink:title="Actualise currentWidget, row et currentIndex. ">
<polygon fill="white" stroke="black" points="527,-202.5 527,-221.5 677,-221.5 677,-202.5 527,-202.5"/>
<text text-anchor="middle" x="602" y="-209.5" font-family="Helvetica,sans-Serif" font-size="10.00">FListFrame::updateIndexInfo</text>
</a>
</g>
</g>
<!-- Node1&#45;&gt;Node2 -->
<g id="edge2" class="edge"><title>Node1&#45;&gt;Node2</title>
<path fill="none" stroke="midnightblue" d="M483.034,-212C493.889,-212 505.287,-212 516.542,-212"/>
<polygon fill="midnightblue" stroke="midnightblue" points="516.818,-215.5 526.818,-212 516.818,-208.5 516.818,-215.5"/>
</g>
<!-- Node3&#45;&gt;Node2 -->
<g id="edge6" class="edge"><title>Node3&#45;&gt;Node2</title>
<path fill="none" stroke="midnightblue" d="M256.342,-327.351C270.88,-320.349 290.545,-310.328 307,-300 323.94,-289.367 324.887,-281.48 343,-273 377.424,-256.885 474.821,-236.173 539.605,-223.503"/>
<polygon fill="midnightblue" stroke="midnightblue" points="540.559,-226.883 549.708,-221.541 539.224,-220.012 540.559,-226.883"/>
</g>
<!-- Node4 -->
<g id="node5" class="node"><title>Node4</title>
<g id="a_node5"><a xlink:href="class_f_list_frame.html#a5c6ce884a0169251e359364921d1f89c" target="_top" xlink:title="FListFrame::addNewTab">
<polygon fill="white" stroke="black" points="351.5,-282.5 351.5,-301.5 482.5,-301.5 482.5,-282.5 351.5,-282.5"/>
<text text-anchor="middle" x="417" y="-289.5" font-family="Helvetica,sans-Serif" font-size="10.00">FListFrame::addNewTab</text>
</a>
</g>
</g>
<!-- Node3&#45;&gt;Node4 -->
<g id="edge4" class="edge"><title>Node3&#45;&gt;Node4</title>
<path fill="none" stroke="midnightblue" d="M273.779,-327.457C301.18,-320.625 338.276,-311.377 367.712,-304.039"/>
<polygon fill="midnightblue" stroke="midnightblue" points="368.919,-307.345 377.776,-301.53 367.226,-300.553 368.919,-307.345"/>
</g>
<!-- Node6 -->
<g id="node7" class="node"><title>Node6</title>
<g id="a_node7"><a xlink:href="class_f_list_widget.html#aac6eaaeb9946354f743394b54c84a6a7" target="_top" xlink:title="FListWidget::setTabLabels">
<polygon fill="white" stroke="black" points="347,-408.5 347,-427.5 487,-427.5 487,-408.5 347,-408.5"/>
<text text-anchor="middle" x="417" y="-415.5" font-family="Helvetica,sans-Serif" font-size="10.00">FListWidget::setTabLabels</text>
</a>
</g>
</g>
<!-- Node3&#45;&gt;Node6 -->
<g id="edge7" class="edge"><title>Node3&#45;&gt;Node6</title>
<path fill="none" stroke="midnightblue" d="M249.475,-346.71C269.404,-360.165 307.514,-384.459 343,-399 348.885,-401.411 355.164,-403.591 361.476,-405.541"/>
<polygon fill="midnightblue" stroke="midnightblue" points="360.79,-408.987 371.37,-408.416 362.744,-402.265 360.79,-408.987"/>
</g>
<!-- Node7 -->
<g id="node8" class="node"><title>Node7</title>
<g id="a_node8"><a xlink:href="class_hash.html#a2ac10203aa8b32a04d9088e08ddbaab4" target="_top" xlink:title="Hash::createReference">
<polygon fill="white" stroke="black" points="354.5,-370.5 354.5,-389.5 479.5,-389.5 479.5,-370.5 354.5,-370.5"/>
<text text-anchor="middle" x="417" y="-377.5" font-family="Helvetica,sans-Serif" font-size="10.00">Hash::createReference</text>
</a>
</g>
</g>
<!-- Node3&#45;&gt;Node7 -->
<g id="edge8" class="edge"><title>Node3&#45;&gt;Node7</title>
<path fill="none" stroke="midnightblue" d="M275.559,-346.543C302.316,-352.917 337.704,-361.348 366.262,-368.151"/>
<polygon fill="midnightblue" stroke="midnightblue" points="365.514,-371.571 376.053,-370.484 367.137,-364.761 365.514,-371.571"/>
</g>
<!-- Node8 -->
<g id="node9" class="node"><title>Node8</title>
<g id="a_node9"><a xlink:href="class_f_list_frame.html#a560addf9867fbd5d05fbdb024e5b272c" target="_top" xlink:title="FListFrame::setStrikeOut\lFileNames">
<polygon fill="white" stroke="black" points="351.5,-321 351.5,-351 482.5,-351 482.5,-321 351.5,-321"/>
<text text-anchor="start" x="359.5" y="-339" font-family="Helvetica,sans-Serif" font-size="10.00">FListFrame::setStrikeOut</text>
<text text-anchor="middle" x="417" y="-328" font-family="Helvetica,sans-Serif" font-size="10.00">FileNames</text>
</a>
</g>
</g>
<!-- Node3&#45;&gt;Node8 -->
<g id="edge9" class="edge"><title>Node3&#45;&gt;Node8</title>
<path fill="none" stroke="midnightblue" d="M288.193,-336.708C304.72,-336.617 323.293,-336.514 341.051,-336.415"/>
<polygon fill="midnightblue" stroke="midnightblue" points="341.411,-339.913 351.391,-336.358 341.372,-332.913 341.411,-339.913"/>
</g>
<!-- Node5 -->
<g id="node6" class="node"><title>Node5</title>
<g id="a_node6"><a xlink:href="class_f_list_frame.html#a4bf0d0d8e56418df395b020d2e66db5f" target="_top" xlink:title="Récupère la taille courante (0&#45;based) du conteneur FListFrame::widgetContainer. ">
<polygon fill="white" stroke="black" points="545.5,-282.5 545.5,-301.5 658.5,-301.5 658.5,-282.5 545.5,-282.5"/>
<text text-anchor="middle" x="602" y="-289.5" font-family="Helvetica,sans-Serif" font-size="10.00">FListFrame::getRank</text>
</a>
</g>
</g>
<!-- Node4&#45;&gt;Node5 -->
<g id="edge5" class="edge"><title>Node4&#45;&gt;Node5</title>
<path fill="none" stroke="midnightblue" d="M482.519,-292C499.477,-292 517.793,-292 534.836,-292"/>
<polygon fill="midnightblue" stroke="midnightblue" points="535.26,-295.5 545.26,-292 535.26,-288.5 535.26,-295.5"/>
</g>
<!-- Node11&#45;&gt;Node1 -->
<g id="edge14" class="edge"><title>Node11&#45;&gt;Node1</title>
<path fill="none" stroke="midnightblue" d="M297.113,-183.019C319.948,-188.586 345.511,-194.817 367.065,-200.071"/>
<polygon fill="midnightblue" stroke="midnightblue" points="366.433,-203.52 376.977,-202.488 368.091,-196.719 366.433,-203.52"/>
</g>
<!-- Node11&#45;&gt;Node2 -->
<g id="edge13" class="edge"><title>Node11&#45;&gt;Node2</title>
<path fill="none" stroke="midnightblue" d="M305.063,-173.416C356.529,-177.761 428.281,-184.527 491,-193 506.991,-195.16 524.216,-197.925 540.181,-200.673"/>
<polygon fill="midnightblue" stroke="midnightblue" points="540.011,-204.196 550.464,-202.47 541.216,-197.301 540.011,-204.196"/>
</g>
<!-- Node13 -->
<g id="node14" class="node"><title>Node13</title>
<g id="a_node14"><a xlink:href="class_f_list_frame.html#a4228ed10f2d800b92ff34e2f25edcd8c" target="_top" xlink:title="Ajoute les fichiers d&#39;une portion d&#39;arborescence de fichiers au composant courant de l&#39;onglet central...">
<polygon fill="white" stroke="black" points="343,-104 343,-134 491,-134 491,-104 343,-104"/>
<text text-anchor="start" x="351" y="-122" font-family="Helvetica,sans-Serif" font-size="10.00">FListFrame::addParsedTree</text>
<text text-anchor="middle" x="417" y="-111" font-family="Helvetica,sans-Serif" font-size="10.00">ToListWidget</text>
</a>
</g>
</g>
<!-- Node12&#45;&gt;Node13 -->
<g id="edge16" class="edge"><title>Node12&#45;&gt;Node13</title>
<path fill="none" stroke="midnightblue" d="M307.098,-119C315.425,-119 323.973,-119 332.443,-119"/>
<polygon fill="midnightblue" stroke="midnightblue" points="332.714,-122.5 342.714,-119 332.714,-115.5 332.714,-122.5"/>
</g>
<!-- Node14 -->
<g id="node15" class="node"><title>Node14</title>
<g id="a_node15"><a xlink:href="class_f_list_frame.html#ae166a8e51ccbb22a5aa2f1d885507565" target="_top" xlink:title="FListFrame::parseTreeFor\lFilePaths">
<polygon fill="white" stroke="black" points="532.5,-132 532.5,-162 671.5,-162 671.5,-132 532.5,-132"/>
<text text-anchor="start" x="540.5" y="-150" font-family="Helvetica,sans-Serif" font-size="10.00">FListFrame::parseTreeFor</text>
<text text-anchor="middle" x="602" y="-139" font-family="Helvetica,sans-Serif" font-size="10.00">FilePaths</text>
</a>
</g>
</g>
<!-- Node13&#45;&gt;Node14 -->
<g id="edge17" class="edge"><title>Node13&#45;&gt;Node14</title>
<path fill="none" stroke="midnightblue" d="M491.115,-130.187C501.451,-131.769 512.114,-133.4 522.545,-134.996"/>
<polygon fill="midnightblue" stroke="midnightblue" points="522.043,-138.46 532.457,-136.513 523.102,-131.54 522.043,-138.46"/>
</g>
<!-- Node15 -->
<g id="node16" class="node"><title>Node15</title>
<g id="a_node16"><a xlink:href="class_f_list_frame.html#af8c91e66c02e4c6f1f0fb66097903b73" target="_top" xlink:title="FListFrame::addStringList\lToListWidget">
<polygon fill="white" stroke="black" points="534,-83 534,-113 670,-113 670,-83 534,-83"/>
<text text-anchor="start" x="542" y="-101" font-family="Helvetica,sans-Serif" font-size="10.00">FListFrame::addStringList</text>
<text text-anchor="middle" x="602" y="-90" font-family="Helvetica,sans-Serif" font-size="10.00">ToListWidget</text>
</a>
</g>
</g>
<!-- Node13&#45;&gt;Node15 -->
<g id="edge18" class="edge"><title>Node13&#45;&gt;Node15</title>
<path fill="none" stroke="midnightblue" d="M491.115,-110.61C501.829,-109.38 512.892,-108.111 523.686,-106.872"/>
<polygon fill="midnightblue" stroke="midnightblue" points="524.396,-110.314 533.932,-105.696 523.598,-103.359 524.396,-110.314"/>
</g>
<!-- Node16 -->
<g id="node17" class="node"><title>Node16</title>
<g id="a_node17"><a xlink:href="class_f_list_frame.html#a9353fe4926e97788a6462c3ee79f6a15" target="_top" xlink:title="FListFrame::clearTabLabels">
<polygon fill="white" stroke="black" points="724,-132.5 724,-151.5 870,-151.5 870,-132.5 724,-132.5"/>
<text text-anchor="middle" x="797" y="-139.5" font-family="Helvetica,sans-Serif" font-size="10.00">FListFrame::clearTabLabels</text>
</a>
</g>
</g>
<!-- Node15&#45;&gt;Node16 -->
<g id="edge19" class="edge"><title>Node15&#45;&gt;Node16</title>
<path fill="none" stroke="midnightblue" d="M668.88,-113.019C693.517,-118.636 721.125,-124.93 744.301,-130.214"/>
<polygon fill="midnightblue" stroke="midnightblue" points="743.747,-133.677 754.275,-132.488 745.303,-126.852 743.747,-133.677"/>
</g>
<!-- Node18 -->
<g id="node19" class="node"><title>Node18</title>
<g id="a_node19"><a xlink:href="class_f_list_frame.html#a0ebe3d7847101344e70c84aff2be39b0" target="_top" xlink:title="Accesseur en lecture du nombre d&#39;éléments (nombre d&#39;onglets) du vecteur widgetContainer. ">
<polygon fill="white" stroke="black" points="713,-83 713,-113 881,-113 881,-83 713,-83"/>
<text text-anchor="start" x="721" y="-101" font-family="Helvetica,sans-Serif" font-size="10.00">FListFrame::getWidgetContainer</text>
<text text-anchor="middle" x="797" y="-90" font-family="Helvetica,sans-Serif" font-size="10.00">Count</text>
</a>
</g>
</g>
<!-- Node15&#45;&gt;Node18 -->
<g id="edge21" class="edge"><title>Node15&#45;&gt;Node18</title>
<path fill="none" stroke="midnightblue" d="M670.231,-98C680.726,-98 691.731,-98 702.681,-98"/>
<polygon fill="midnightblue" stroke="midnightblue" points="702.705,-101.5 712.705,-98 702.705,-94.5001 702.705,-101.5"/>
</g>
<!-- Node19 -->
<g id="node20" class="node"><title>Node19</title>
<g id="a_node20"><a xlink:href="class_f_list_frame.html#a802475894ee1e30753faed81d9f9dc4b" target="_top" xlink:title="Appelle parseXhlFile(const QString&amp;) sur l&#39;ensemble de widgetContainer. ">
<polygon fill="white" stroke="black" points="731,-44.5 731,-63.5 863,-63.5 863,-44.5 731,-44.5"/>
<text text-anchor="middle" x="797" y="-51.5" font-family="Helvetica,sans-Serif" font-size="10.00">FListFrame::parseXhlFile</text>
</a>
</g>
</g>
<!-- Node15&#45;&gt;Node19 -->
<g id="edge22" class="edge"><title>Node15&#45;&gt;Node19</title>
<path fill="none" stroke="midnightblue" d="M668.88,-82.9808C693.517,-77.364 721.125,-71.07 744.301,-65.7863"/>
<polygon fill="midnightblue" stroke="midnightblue" points="745.303,-69.1477 754.275,-63.5124 743.747,-62.3228 745.303,-69.1477"/>
</g>
<!-- Node17 -->
<g id="node18" class="node"><title>Node17</title>
<g id="a_node18"><a xlink:href="class_f_list_widget.html#a74bf008958a87e9055b8ec6573d8e2e9" target="_top" xlink:title="FListWidget::clearTabLabels">
<polygon fill="white" stroke="black" points="917,-132.5 917,-151.5 1066,-151.5 1066,-132.5 917,-132.5"/>
<text text-anchor="middle" x="991.5" y="-139.5" font-family="Helvetica,sans-Serif" font-size="10.00">FListWidget::clearTabLabels</text>
</a>
</g>
</g>
<!-- Node16&#45;&gt;Node17 -->
<g id="edge20" class="edge"><title>Node16&#45;&gt;Node17</title>
<path fill="none" stroke="midnightblue" d="M870.228,-142C882.146,-142 894.59,-142 906.762,-142"/>
<polygon fill="midnightblue" stroke="midnightblue" points="906.905,-145.5 916.905,-142 906.905,-138.5 906.905,-145.5"/>
</g>
<!-- Node20 -->
<g id="node21" class="node"><title>Node20</title>
<g id="a_node21"><a xlink:href="classtools.html#a0aa994303a938a76300767d2251b9f85" target="_top" xlink:title="Détecte si un disque optique est monté. ">
<polygon fill="white" stroke="black" points="932.5,-0.5 932.5,-19.5 1050.5,-19.5 1050.5,-0.5 932.5,-0.5"/>
<text text-anchor="middle" x="991.5" y="-7.5" font-family="Helvetica,sans-Serif" font-size="10.00">tools::cdRomMounted</text>
</a>
</g>
</g>
<!-- Node19&#45;&gt;Node20 -->
<g id="edge23" class="edge"><title>Node19&#45;&gt;Node20</title>
<path fill="none" stroke="midnightblue" d="M839.77,-44.4527C868.905,-37.7931 907.972,-28.8637 939.032,-21.7642"/>
<polygon fill="midnightblue" stroke="midnightblue" points="939.843,-25.169 948.812,-19.5287 938.283,-18.345 939.843,-25.169"/>
</g>
<!-- Node21 -->
<g id="node22" class="node"><title>Node21</title>
<g id="a_node22"><a xlink:href="class_f_list_frame.html#a22a50157e8c6d287c2b2c08d2b7deee9" target="_top" xlink:title="Lancer un fil d&#39;exécution pour lire l&#39;entête d&#39;un fichier XHL (Année, Mois,...) et classer les fichie...">
<polygon fill="white" stroke="black" points="939.5,-39 939.5,-69 1043.5,-69 1043.5,-39 939.5,-39"/>
<text text-anchor="start" x="947.5" y="-57" font-family="Helvetica,sans-Serif" font-size="10.00">FListFrame::launch</text>
<text text-anchor="middle" x="991.5" y="-46" font-family="Helvetica,sans-Serif" font-size="10.00">_thread</text>
</a>
</g>
</g>
<!-- Node19&#45;&gt;Node21 -->
<g id="edge24" class="edge"><title>Node19&#45;&gt;Node21</title>
<path fill="none" stroke="midnightblue" d="M863.172,-47.573C884.543,-47.1139 908.205,-47.1442 929.274,-47.664"/>
<polygon fill="midnightblue" stroke="midnightblue" points="929.29,-51.1658 939.387,-47.9585 929.494,-44.1688 929.29,-51.1658"/>
</g>
<!-- Node21&#45;&gt;Node19 -->
<g id="edge25" class="edge"><title>Node21&#45;&gt;Node19</title>
<path fill="none" stroke="midnightblue" d="M939.387,-60.0415C919.115,-60.7277 895.389,-60.9154 873.226,-60.6048"/>
<polygon fill="midnightblue" stroke="midnightblue" points="873.232,-57.1044 863.172,-60.427 873.108,-64.1033 873.232,-57.1044"/>
</g>
</g>
</svg>
        <g id="navigator" transform="translate(0 0)" fill="#404254">
                <rect fill="#f2f5e9" fill-opacity="0.5" stroke="#606060" stroke-width=".5" x="0" y="0" width="60" height="60"/>
                <use id="zoomplus" xlink:href="#zoomPlus" x="17" y="9" onmousedown="handleZoom(evt,'in')"/>
                <use id="zoomminus" xlink:href="#zoomMin" x="42" y="9" onmousedown="handleZoom(evt,'out')"/>
                <use id="reset" xlink:href="#resetDef" x="30" y="36" onmousedown="handleReset()"/>
                <g id="arrowUp" xlink:href="#dirArrow" transform="translate(30 24)" onmousedown="handlePan(0,-1)">
                  <use xlink:href="#rim" fill="#404040">
                        <set attributeName="fill" to="#808080" begin="arrowUp.mouseover" end="arrowUp.mouseout"/>
                  </use>
                  <path fill="none" stroke="white" stroke-width="1.5" d="M0,-3.0v7 M-2.5,-0.5L0,-3.0L2.5,-0.5"/>
                </g>
                <g id="arrowRight" xlink:href="#dirArrow" transform="rotate(90) translate(36 -43)" onmousedown="handlePan(1,0)">
                  <use xlink:href="#rim" fill="#404040">
                        <set attributeName="fill" to="#808080" begin="arrowRight.mouseover" end="arrowRight.mouseout"/>
                  </use>
                  <path fill="none" stroke="white" stroke-width="1.5" d="M0,-3.0v7 M-2.5,-0.5L0,-3.0L2.5,-0.5"/>
                </g>
                <g id="arrowDown" xlink:href="#dirArrow" transform="rotate(180) translate(-30 -48)" onmousedown="handlePan(0,1)">
                  <use xlink:href="#rim" fill="#404040">
                        <set attributeName="fill" to="#808080" begin="arrowDown.mouseover" end="arrowDown.mouseout"/>
                  </use>
                  <path fill="none" stroke="white" stroke-width="1.5" d="M0,-3.0v7 M-2.5,-0.5L0,-3.0L2.5,-0.5"/>
                </g>
                <g id="arrowLeft" xlink:href="#dirArrow" transform="rotate(270) translate(-36 17)" onmousedown="handlePan(-1,0)">
                  <use xlink:href="#rim" fill="#404040">
                        <set attributeName="fill" to="#808080" begin="arrowLeft.mouseover" end="arrowLeft.mouseout"/>
                  </use>
                  <path fill="none" stroke="white" stroke-width="1.5" d="M0,-3.0v7 M-2.5,-0.5L0,-3.0L2.5,-0.5"/>
                </g>
        </g>
        <svg viewBox="0 0 15 15" width="100%" height="30px" preserveAspectRatio="xMaxYMin meet">
         <g id="arrow_out" transform="scale(0.3 0.3)">
          <a xlink:href="class_f_list_frame_a865246df8a4d4000ac3c818abc6d7f71_cgraph_org.svg" target="_base">
           <rect id="button" ry="5" rx="5" y="6" x="6" height="38" width="38"
                fill="#f2f5e9" fill-opacity="0.5" stroke="#606060" stroke-width="1.0"/>
           <path id="arrow"
             d="M 11.500037,31.436501 C 11.940474,20.09759 22.043105,11.32322 32.158766,21.979434 L 37.068811,17.246167 C 37.068811,17.246167 37.088388,32 37.088388,32 L 22.160133,31.978069 C 22.160133,31.978069 26.997745,27.140456 26.997745,27.140456 C 18.528582,18.264221 13.291696,25.230495 11.500037,31.436501 z"
             style="fill:#404040;"/>
          </a>
         </g>
        </svg>
</svg>
