<?xml version="1.0" encoding="UTF-8" standalone="no"?>
<!DOCTYPE svg PUBLIC "-//W3C//DTD SVG 1.1//EN"
 "http://www.w3.org/Graphics/SVG/1.1/DTD/svg11.dtd">
<!-- Generated by graphviz version 2.38.0 (20140413.2041)
 -->
<!-- Title: MainWindow::isDefaultSaveProjectChecked Pages: 1 -->
<svg width="352pt" height="127pt"
 viewBox="0.00 0.00 352.00 126.50" xmlns="http://www.w3.org/2000/svg" xmlns:xlink="http://www.w3.org/1999/xlink">
<g id="graph0" class="graph" transform="scale(1 1) rotate(0) translate(4 122.5)">
<title>MainWindow::isDefaultSaveProjectChecked</title>
<polygon fill="white" stroke="none" points="-4,4 -4,-122.5 348,-122.5 348,4 -4,4"/>
<!-- Node204 -->
<g id="node1" class="node"><title>Node204</title>
<polygon fill="#bfbfbf" stroke="black" points="0,-39 0,-69 146,-69 146,-39 0,-39"/>
<text text-anchor="start" x="8" y="-57" font-family="Helvetica,sans-Serif" font-size="10.00">MainWindow::isDefaultSave</text>
<text text-anchor="middle" x="73" y="-46" font-family="Helvetica,sans-Serif" font-size="10.00">ProjectChecked</text>
</g>
<!-- Node205 -->
<g id="node2" class="node"><title>Node205</title>
<g id="a_node2"><a xlink:href="class_main_window.html#a7ca647c33971b09cd6ef4af33937369e" target="_top" xlink:title="Envoie du texte formaté HTML dans l&#39;onglet Console. ">
<polygon fill="white" stroke="black" points="182,-88 182,-118 344,-118 344,-88 182,-88"/>
<text text-anchor="start" x="190" y="-106" font-family="Helvetica,sans-Serif" font-size="10.00">MainWindow::feedLHXConsole</text>
<text text-anchor="middle" x="263" y="-95" font-family="Helvetica,sans-Serif" font-size="10.00">WithHtml</text>
</a>
</g>
</g>
<!-- Node204&#45;&gt;Node205 -->
<g id="edge1" class="edge"><title>Node204&#45;&gt;Node205</title>
<path fill="none" stroke="midnightblue" d="M131.684,-69.0346C151.534,-74.2083 173.937,-80.0475 194.499,-85.4066"/>
<polygon fill="midnightblue" stroke="midnightblue" points="193.866,-88.8585 204.425,-87.9938 195.631,-82.0848 193.866,-88.8585"/>
</g>
<!-- Node206 -->
<g id="node3" class="node"><title>Node206</title>
<g id="a_node3"><a xlink:href="class_main_window.html#ad5413bb37042daa28f5fd7d72b4b616c" target="_top" xlink:title="Envoie du texte formaté HTML dans l&#39;onglet Console. ">
<polygon fill="white" stroke="black" points="188.5,-39 188.5,-69 337.5,-69 337.5,-39 188.5,-39"/>
<text text-anchor="start" x="196.5" y="-57" font-family="Helvetica,sans-Serif" font-size="10.00">MainWindow::feedRConsole</text>
<text text-anchor="middle" x="263" y="-46" font-family="Helvetica,sans-Serif" font-size="10.00">WithHtml</text>
</a>
</g>
</g>
<!-- Node204&#45;&gt;Node206 -->
<g id="edge2" class="edge"><title>Node204&#45;&gt;Node206</title>
<path fill="none" stroke="midnightblue" d="M146.148,-54C156.663,-54 167.564,-54 178.285,-54"/>
<polygon fill="midnightblue" stroke="midnightblue" points="178.49,-57.5001 188.49,-54 178.49,-50.5001 178.49,-57.5001"/>
</g>
<!-- Node207 -->
<g id="node4" class="node"><title>Node207</title>
<g id="a_node4"><a xlink:href="class_main_window.html#acb0d089a9bd777962ddd3e7d30e81c1a" target="_top" xlink:title="Sauvegarde du projet .alt selon un chemin à spécifier. ">
<polygon fill="white" stroke="black" points="188.5,-0.5 188.5,-19.5 337.5,-19.5 337.5,-0.5 188.5,-0.5"/>
<text text-anchor="middle" x="263" y="-7.5" font-family="Helvetica,sans-Serif" font-size="10.00">MainWindow::saveProjectAs</text>
</a>
</g>
</g>
<!-- Node204&#45;&gt;Node207 -->
<g id="edge3" class="edge"><title>Node204&#45;&gt;Node207</title>
<path fill="none" stroke="midnightblue" d="M138.173,-38.9808C162.064,-33.3892 188.823,-27.1265 211.336,-21.8574"/>
<polygon fill="midnightblue" stroke="midnightblue" points="212.417,-25.1992 221.356,-19.5124 210.822,-18.3834 212.417,-25.1992"/>
</g>
</g>
</svg>
