<?xml version="1.0" encoding="UTF-8" standalone="no"?>
<!DOCTYPE svg PUBLIC "-//W3C//DTD SVG 1.1//EN"
 "http://www.w3.org/Graphics/SVG/1.1/DTD/svg11.dtd">
<!-- Generated by graphviz version 2.38.0 (20140413.2041)
 -->
<!-- Title: tools::renommer Pages: 1 -->
<svg width="554pt" height="137pt"
 viewBox="0.00 0.00 554.00 137.00" xmlns="http://www.w3.org/2000/svg" xmlns:xlink="http://www.w3.org/1999/xlink">
<g id="graph0" class="graph" transform="scale(1 1) rotate(0) translate(4 133)">
<title>tools::renommer</title>
<polygon fill="white" stroke="none" points="-4,4 -4,-133 550,-133 550,4 -4,4"/>
<!-- Node219 -->
<g id="node1" class="node"><title>Node219</title>
<polygon fill="#bfbfbf" stroke="black" points="0,-55 0,-74 87,-74 87,-55 0,-55"/>
<text text-anchor="middle" x="43.5" y="-62" font-family="Helvetica,sans-Serif" font-size="10.00">tools::renommer</text>
</g>
<!-- Node220 -->
<g id="node2" class="node"><title>Node220</title>
<g id="a_node2"><a xlink:href="classcommon.html#a7900f8a5d7ebd42770ce8c366dd4b933" target="_top" xlink:title="Exporter les caractéristiques du contrôle dans le rapport : Siret, Budget, Employeur, Etablissement. ">
<polygon fill="white" stroke="black" points="123,-98.5 123,-128.5 278,-128.5 278,-98.5 123,-98.5"/>
<text text-anchor="start" x="131" y="-116.5" font-family="Helvetica,sans-Serif" font-size="10.00">common::exporter_identification</text>
<text text-anchor="middle" x="200.5" y="-105.5" font-family="Helvetica,sans-Serif" font-size="10.00">_controle</text>
</a>
</g>
</g>
<!-- Node219&#45;&gt;Node220 -->
<g id="edge1" class="edge"><title>Node219&#45;&gt;Node220</title>
<path fill="none" stroke="midnightblue" d="M83.9778,-77.1092C96.4564,-81.085 110.302,-85.4862 123,-89.5 132.158,-92.3948 141.937,-95.4726 151.336,-98.4245"/>
<polygon fill="midnightblue" stroke="midnightblue" points="84.9019,-73.7303 74.3113,-74.0273 82.7756,-80.3996 84.9019,-73.7303"/>
</g>
<!-- Node221 -->
<g id="node3" class="node"><title>Node221</title>
<g id="a_node3"><a xlink:href="classcode_page.html#a7f3fcb4b6f622b1c11a7b39e245b76b6" target="_top" xlink:title="codePage::substituer\l_valeurs_dans_script_R">
<polygon fill="white" stroke="black" points="139.5,-49.5 139.5,-79.5 261.5,-79.5 261.5,-49.5 139.5,-49.5"/>
<text text-anchor="start" x="147.5" y="-67.5" font-family="Helvetica,sans-Serif" font-size="10.00">codePage::substituer</text>
<text text-anchor="middle" x="200.5" y="-56.5" font-family="Helvetica,sans-Serif" font-size="10.00">_valeurs_dans_script_R</text>
</a>
</g>
</g>
<!-- Node219&#45;&gt;Node221 -->
<g id="edge2" class="edge"><title>Node219&#45;&gt;Node221</title>
<path fill="none" stroke="midnightblue" d="M97.3752,-64.5C110.924,-64.5 125.592,-64.5 139.472,-64.5"/>
<polygon fill="midnightblue" stroke="midnightblue" points="97.2648,-61.0001 87.2647,-64.5 97.2647,-68.0001 97.2648,-61.0001"/>
</g>
<!-- Node224 -->
<g id="node6" class="node"><title>Node224</title>
<g id="a_node6"><a xlink:href="classstandard_page.html#abb37a1fff677f91ad2418b07593aa40d" target="_top" xlink:title="standardPage::substituer\l_versant">
<polygon fill="white" stroke="black" points="138,-0.5 138,-30.5 263,-30.5 263,-0.5 138,-0.5"/>
<text text-anchor="start" x="146" y="-18.5" font-family="Helvetica,sans-Serif" font-size="10.00">standardPage::substituer</text>
<text text-anchor="middle" x="200.5" y="-7.5" font-family="Helvetica,sans-Serif" font-size="10.00">_versant</text>
</a>
</g>
</g>
<!-- Node219&#45;&gt;Node224 -->
<g id="edge5" class="edge"><title>Node219&#45;&gt;Node224</title>
<path fill="none" stroke="midnightblue" d="M84.4563,-51.8687C105.059,-45.3554 130.33,-37.3666 151.934,-30.537"/>
<polygon fill="midnightblue" stroke="midnightblue" points="83.2334,-48.5844 74.7535,-54.936 85.3434,-55.2589 83.2334,-48.5844"/>
</g>
<!-- Node222 -->
<g id="node4" class="node"><title>Node222</title>
<g id="a_node4"><a xlink:href="classcode_page.html#a927a6bef8cac0406a49225bc72894a1f" target="_top" xlink:title="codePage::codePage">
<polygon fill="white" stroke="black" points="314,-55 314,-74 424,-74 424,-55 314,-55"/>
<text text-anchor="middle" x="369" y="-62" font-family="Helvetica,sans-Serif" font-size="10.00">codePage::codePage</text>
</a>
</g>
</g>
<!-- Node221&#45;&gt;Node222 -->
<g id="edge3" class="edge"><title>Node221&#45;&gt;Node222</title>
<path fill="none" stroke="midnightblue" d="M271.735,-64.5C285.797,-64.5 300.366,-64.5 313.784,-64.5"/>
<polygon fill="midnightblue" stroke="midnightblue" points="271.61,-61.0001 261.61,-64.5 271.61,-68.0001 271.61,-61.0001"/>
</g>
<!-- Node223 -->
<g id="node5" class="node"><title>Node223</title>
<g id="a_node5"><a xlink:href="classoptions.html#a52a9fb1d5bdb6ed104e700390b8c0208" target="_top" xlink:title="Constructeur de l&#39;onglet correspondant à un pointeur parent vers une instance de la classe Altair...">
<polygon fill="white" stroke="black" points="460,-55 460,-74 546,-74 546,-55 460,-55"/>
<text text-anchor="middle" x="503" y="-62" font-family="Helvetica,sans-Serif" font-size="10.00">options::options</text>
</a>
</g>
</g>
<!-- Node222&#45;&gt;Node223 -->
<g id="edge4" class="edge"><title>Node222&#45;&gt;Node223</title>
<path fill="none" stroke="midnightblue" d="M434.254,-64.5C442.977,-64.5 451.74,-64.5 459.934,-64.5"/>
<polygon fill="midnightblue" stroke="midnightblue" points="434.07,-61.0001 424.07,-64.5 434.07,-68.0001 434.07,-61.0001"/>
</g>
</g>
</svg>
