<?xml version="1.0" encoding="UTF-8" standalone="no"?>
<!DOCTYPE svg PUBLIC "-//W3C//DTD SVG 1.1//EN"
 "http://www.w3.org/Graphics/SVG/1.1/DTD/svg11.dtd">
<!-- Generated by graphviz version 2.38.0 (20140413.2041)
 -->
<!-- Title: tools::remAccents Pages: 1 -->
<svg width="266pt" height="66pt"
 viewBox="0.00 0.00 266.00 66.00" xmlns="http://www.w3.org/2000/svg" xmlns:xlink="http://www.w3.org/1999/xlink">
<g id="graph0" class="graph" transform="scale(1 1) rotate(0) translate(4 62)">
<title>tools::remAccents</title>
<polygon fill="white" stroke="none" points="-4,4 -4,-62 262,-62 262,4 -4,4"/>
<!-- Node215 -->
<g id="node1" class="node"><title>Node215</title>
<polygon fill="#bfbfbf" stroke="black" points="0,-19.5 0,-38.5 96,-38.5 96,-19.5 0,-19.5"/>
<text text-anchor="middle" x="48" y="-26.5" font-family="Helvetica,sans-Serif" font-size="10.00">tools::remAccents</text>
</g>
<!-- Node216 -->
<g id="node2" class="node"><title>Node216</title>
<g id="a_node2"><a xlink:href="class_f_list_frame.html#adc46faa6ac7f4f664698f249293809a4" target="_top" xlink:title="Décode les champs principaux du fichier XHL: Année, Mois, Budget, ... ">
<polygon fill="white" stroke="black" points="132,-38.5 132,-57.5 258,-57.5 258,-38.5 132,-38.5"/>
<text text-anchor="middle" x="195" y="-45.5" font-family="Helvetica,sans-Serif" font-size="10.00">FListFrame::parseXhlFile</text>
</a>
</g>
</g>
<!-- Node215&#45;&gt;Node216 -->
<g id="edge1" class="edge"><title>Node215&#45;&gt;Node216</title>
<path fill="none" stroke="midnightblue" d="M106.182,-36.4928C114.61,-37.5972 123.328,-38.7396 131.851,-39.8564"/>
<polygon fill="midnightblue" stroke="midnightblue" points="106.447,-32.9977 96.0773,-35.1688 105.538,-39.9384 106.447,-32.9977"/>
</g>
<!-- Node217 -->
<g id="node3" class="node"><title>Node217</title>
<g id="a_node3"><a xlink:href="classtools.html#ac5f7b9c2e07af5dbb27169b256ac6300" target="_top" xlink:title="List un fichier entre deux lignes données et sur une largeur donnée. ">
<polygon fill="white" stroke="black" points="156,-0.5 156,-19.5 234,-19.5 234,-0.5 156,-0.5"/>
<text text-anchor="middle" x="195" y="-7.5" font-family="Helvetica,sans-Serif" font-size="10.00">tools::readFile</text>
</a>
</g>
</g>
<!-- Node215&#45;&gt;Node217 -->
<g id="edge2" class="edge"><title>Node215&#45;&gt;Node217</title>
<path fill="none" stroke="midnightblue" d="M106.267,-21.4961C122.918,-19.3142 140.692,-16.9852 155.857,-14.998"/>
<polygon fill="midnightblue" stroke="midnightblue" points="105.538,-18.0616 96.0773,-22.8312 106.447,-25.0023 105.538,-18.0616"/>
</g>
</g>
</svg>
