<?xml version="1.0" encoding="UTF-8" standalone="no"?>
<!DOCTYPE svg PUBLIC "-//W3C//DTD SVG 1.1//EN"
 "http://www.w3.org/Graphics/SVG/1.1/DTD/svg11.dtd">
<!-- Generated by graphviz version 2.38.0 (20140413.2041)
 -->
<!-- Title: Altair::runWorkerDistributed Pages: 1 -->
<svg width="1475pt" height="823pt"
 viewBox="0.00 0.00 1475.00 823.00" xmlns="http://www.w3.org/2000/svg" xmlns:xlink="http://www.w3.org/1999/xlink">
<g id="graph0" class="graph" transform="scale(1 1) rotate(0) translate(4 819)">
<title>Altair::runWorkerDistributed</title>
<polygon fill="white" stroke="none" points="-4,4 -4,-819 1471,-819 1471,4 -4,4"/>
<!-- Node924 -->
<g id="node1" class="node"><title>Node924</title>
<polygon fill="#bfbfbf" stroke="black" points="0,-675.5 0,-694.5 137,-694.5 137,-675.5 0,-675.5"/>
<text text-anchor="middle" x="68.5" y="-682.5" font-family="Helvetica,sans-Serif" font-size="10.00">Altair::runWorkerDistributed</text>
</g>
<!-- Node925 -->
<g id="node2" class="node"><title>Node925</title>
<g id="a_node2"><a xlink:href="classcommon.html#a3149ba29e04e6e5f7f85a2894434bf9e" target="_top" xlink:title="Exporter les caractéristiques du contrôle dans le rapport : Siret, Budget, Employeur, Etablissement. ">
<polygon fill="white" stroke="black" points="173,-752 173,-782 328,-782 328,-752 173,-752"/>
<text text-anchor="start" x="181" y="-770" font-family="Helvetica,sans-Serif" font-size="10.00">common::exporter_identification</text>
<text text-anchor="middle" x="250.5" y="-759" font-family="Helvetica,sans-Serif" font-size="10.00">_controle</text>
</a>
</g>
</g>
<!-- Node924&#45;&gt;Node925 -->
<g id="edge1" class="edge"><title>Node924&#45;&gt;Node925</title>
<path fill="none" stroke="midnightblue" d="M90.5006,-694.567C118.934,-707.52 170.331,-730.934 206.993,-747.635"/>
<polygon fill="midnightblue" stroke="midnightblue" points="205.89,-750.979 216.441,-751.94 208.792,-744.609 205.89,-750.979"/>
</g>
<!-- Node928 -->
<g id="node5" class="node"><title>Node928</title>
<g id="a_node5"><a xlink:href="class_altair.html#a08b5e402c9a694af09110afe33219080" target="_top" xlink:title="Construction de la ligne de commande pour des bases de paye dans un répertoire donné ...">
<polygon fill="white" stroke="black" points="205.5,-593.5 205.5,-612.5 295.5,-612.5 295.5,-593.5 205.5,-593.5"/>
<text text-anchor="middle" x="250.5" y="-600.5" font-family="Helvetica,sans-Serif" font-size="10.00">Altair::runWorker</text>
</a>
</g>
</g>
<!-- Node924&#45;&gt;Node928 -->
<g id="edge4" class="edge"><title>Node924&#45;&gt;Node928</title>
<path fill="none" stroke="midnightblue" d="M90.5006,-675.433C122.34,-660.929 182.971,-633.308 219.466,-616.682"/>
<polygon fill="midnightblue" stroke="midnightblue" points="220.984,-619.837 228.633,-612.506 218.082,-613.467 220.984,-619.837"/>
</g>
<!-- Node926 -->
<g id="node3" class="node"><title>Node926</title>
<g id="a_node3"><a xlink:href="class_hash.html#a9c6832c663082e153e74bf3fb0c5720a" target="_top" xlink:title="Hash::aplatir">
<polygon fill="white" stroke="black" points="409.5,-795.5 409.5,-814.5 481.5,-814.5 481.5,-795.5 409.5,-795.5"/>
<text text-anchor="middle" x="445.5" y="-802.5" font-family="Helvetica,sans-Serif" font-size="10.00">Hash::aplatir</text>
</a>
</g>
</g>
<!-- Node925&#45;&gt;Node926 -->
<g id="edge2" class="edge"><title>Node925&#45;&gt;Node926</title>
<path fill="none" stroke="midnightblue" d="M327.779,-782.019C352.046,-786.797 378.099,-791.926 399.421,-796.124"/>
<polygon fill="midnightblue" stroke="midnightblue" points="398.991,-799.607 409.479,-798.105 400.344,-792.739 398.991,-799.607"/>
</g>
<!-- Node927 -->
<g id="node4" class="node"><title>Node927</title>
<g id="a_node4"><a xlink:href="classtools.html#ab14f69ed6a8faa01674b93e798c612a4" target="_top" xlink:title="tools::substituer">
<polygon fill="white" stroke="black" points="402.5,-757.5 402.5,-776.5 488.5,-776.5 488.5,-757.5 402.5,-757.5"/>
<text text-anchor="middle" x="445.5" y="-764.5" font-family="Helvetica,sans-Serif" font-size="10.00">tools::substituer</text>
</a>
</g>
</g>
<!-- Node925&#45;&gt;Node927 -->
<g id="edge3" class="edge"><title>Node925&#45;&gt;Node927</title>
<path fill="none" stroke="midnightblue" d="M328.056,-767C349.655,-767 372.647,-767 392.446,-767"/>
<polygon fill="midnightblue" stroke="midnightblue" points="392.484,-770.5 402.484,-767 392.484,-763.5 392.484,-770.5"/>
</g>
<!-- Node929 -->
<g id="node6" class="node"><title>Node929</title>
<g id="a_node6"><a xlink:href="class_altair.html#a40c0d298ef581a802c2b063df08a17a0" target="_top" xlink:title="Génère la ligne de commande à partir des chemins des fichiers de paye. ">
<polygon fill="white" stroke="black" points="378,-632 378,-662 513,-662 513,-632 378,-632"/>
<text text-anchor="start" x="386" y="-650" font-family="Helvetica,sans-Serif" font-size="10.00">Altair::createCommandLine</text>
<text text-anchor="middle" x="445.5" y="-639" font-family="Helvetica,sans-Serif" font-size="10.00">String</text>
</a>
</g>
</g>
<!-- Node928&#45;&gt;Node929 -->
<g id="edge5" class="edge"><title>Node928&#45;&gt;Node929</title>
<path fill="none" stroke="midnightblue" d="M293.378,-612.547C315.302,-617.545 342.834,-623.822 368.371,-629.644"/>
<polygon fill="midnightblue" stroke="midnightblue" points="367.89,-633.124 378.418,-631.935 369.446,-626.299 367.89,-633.124"/>
</g>
<!-- Node934 -->
<g id="node11" class="node"><title>Node934</title>
<g id="a_node11"><a xlink:href="class_main_window.html#a7ca647c33971b09cd6ef4af33937369e" target="_top" xlink:title="Envoie du texte formaté HTML dans l&#39;onglet Console. ">
<polygon fill="white" stroke="black" points="369,-430 369,-460 522,-460 522,-430 369,-430"/>
<text text-anchor="start" x="377" y="-448" font-family="Helvetica,sans-Serif" font-size="10.00">MainWindow::feedLHXConsole</text>
<text text-anchor="middle" x="445.5" y="-437" font-family="Helvetica,sans-Serif" font-size="10.00">WithHtml</text>
</a>
</g>
</g>
<!-- Node928&#45;&gt;Node934 -->
<g id="edge10" class="edge"><title>Node928&#45;&gt;Node934</title>
<path fill="none" stroke="midnightblue" d="M257.61,-593.194C272.781,-569.594 314.542,-509.072 364,-475 369.911,-470.928 376.444,-467.327 383.157,-464.163"/>
<polygon fill="midnightblue" stroke="midnightblue" points="384.629,-467.34 392.381,-460.118 381.817,-460.929 384.629,-467.34"/>
</g>
<!-- Node935 -->
<g id="node12" class="node"><title>Node935</title>
<g id="a_node12"><a xlink:href="class_main_window.html#ad5413bb37042daa28f5fd7d72b4b616c" target="_top" xlink:title="Envoie du texte formaté HTML dans l&#39;onglet Console. ">
<polygon fill="white" stroke="black" points="375,-381 375,-411 516,-411 516,-381 375,-381"/>
<text text-anchor="start" x="383" y="-399" font-family="Helvetica,sans-Serif" font-size="10.00">MainWindow::feedRConsole</text>
<text text-anchor="middle" x="445.5" y="-388" font-family="Helvetica,sans-Serif" font-size="10.00">WithHtml</text>
</a>
</g>
</g>
<!-- Node928&#45;&gt;Node935 -->
<g id="edge11" class="edge"><title>Node928&#45;&gt;Node935</title>
<path fill="none" stroke="midnightblue" d="M254.662,-593.422C265.107,-563.273 301.452,-469.457 364,-421 366.332,-419.194 368.795,-417.517 371.356,-415.96"/>
<polygon fill="midnightblue" stroke="midnightblue" points="373.225,-418.929 380.382,-411.117 369.915,-412.761 373.225,-418.929"/>
</g>
<!-- Node936 -->
<g id="node13" class="node"><title>Node936</title>
<g id="a_node13"><a xlink:href="class_main_window.html#a29b1b37488fb3e9d9d716d33e26acb55" target="_top" xlink:title="Limite (si l&#39;option du dialogue de configuration est cochée) le volume de texte en sortie de l&#39;onglet...">
<polygon fill="white" stroke="black" points="364,-719.5 364,-738.5 527,-738.5 527,-719.5 364,-719.5"/>
<text text-anchor="middle" x="445.5" y="-726.5" font-family="Helvetica,sans-Serif" font-size="10.00">MainWindow::getConsoleCounter</text>
</a>
</g>
</g>
<!-- Node928&#45;&gt;Node936 -->
<g id="edge12" class="edge"><title>Node928&#45;&gt;Node936</title>
<path fill="none" stroke="midnightblue" d="M258.732,-612.754C275.013,-633.975 316.826,-684.469 364,-710 368.274,-712.313 372.825,-714.347 377.505,-716.134"/>
<polygon fill="midnightblue" stroke="midnightblue" points="376.65,-719.541 387.245,-719.469 378.917,-712.918 376.65,-719.541"/>
</g>
<!-- Node937 -->
<g id="node14" class="node"><title>Node937</title>
<g id="a_node14"><a xlink:href="classtools.html#a89d2cd8ffcaed8423439c16d1ee59ab0" target="_top" xlink:title="tools::path_access">
<polygon fill="white" stroke="black" points="585,-353.5 585,-372.5 684,-372.5 684,-353.5 585,-353.5"/>
<text text-anchor="middle" x="634.5" y="-360.5" font-family="Helvetica,sans-Serif" font-size="10.00">tools::path_access</text>
</a>
</g>
</g>
<!-- Node928&#45;&gt;Node937 -->
<g id="edge13" class="edge"><title>Node928&#45;&gt;Node937</title>
<path fill="none" stroke="midnightblue" d="M259.763,-593.494C277.063,-574.222 319.219,-530.475 364,-508 430.484,-474.633 470.383,-518.248 527,-470 559.163,-442.591 531.311,-409.955 563,-382 566.669,-378.764 570.834,-376.071 575.262,-373.832"/>
<polygon fill="midnightblue" stroke="midnightblue" points="576.811,-376.977 584.646,-369.845 574.073,-370.534 576.811,-376.977"/>
</g>
<!-- Node938 -->
<g id="node15" class="node"><title>Node938</title>
<g id="a_node15"><a xlink:href="class_altair.html#a19ef4b530e210642e2e71c94a2b14bef" target="_top" xlink:title="Lit le fichier rankFile pour l&#39;index de la barre progression, le lit dans &#160;&#160;fileRank &#160;&#160;et ajuste la b...">
<polygon fill="white" stroke="black" points="388.5,-681.5 388.5,-700.5 502.5,-700.5 502.5,-681.5 388.5,-681.5"/>
<text text-anchor="middle" x="445.5" y="-688.5" font-family="Helvetica,sans-Serif" font-size="10.00">Altair::readRankSignal</text>
</a>
</g>
</g>
<!-- Node928&#45;&gt;Node938 -->
<g id="edge14" class="edge"><title>Node928&#45;&gt;Node938</title>
<path fill="none" stroke="midnightblue" d="M264.27,-612.734C284.404,-627.628 325.235,-656.021 364,-672 370.155,-674.537 376.72,-676.778 383.346,-678.747"/>
<polygon fill="midnightblue" stroke="midnightblue" points="382.484,-682.14 393.055,-681.441 384.355,-675.395 382.484,-682.14"/>
</g>
<!-- Node939 -->
<g id="node16" class="node"><title>Node939</title>
<g id="a_node16"><a xlink:href="class_altair.html#a4995cdc9462838289b5b1df75edba552" target="_top" xlink:title="Ajouter du texte à l&#39;onglet des messages. ">
<polygon fill="white" stroke="black" points="1157,-460.5 1157,-479.5 1252,-479.5 1252,-460.5 1157,-460.5"/>
<text text-anchor="middle" x="1204.5" y="-467.5" font-family="Helvetica,sans-Serif" font-size="10.00">Altair::textAppend</text>
</a>
</g>
</g>
<!-- Node928&#45;&gt;Node939 -->
<g id="edge15" class="edge"><title>Node928&#45;&gt;Node939</title>
<path fill="none" stroke="midnightblue" d="M295.616,-603C366.735,-603 511.141,-603 633.5,-603 633.5,-603 633.5,-603 821.5,-603 939.823,-603 976.46,-612.11 1085,-565 1127.25,-546.661 1167.02,-509.116 1188.02,-487.115"/>
<polygon fill="midnightblue" stroke="midnightblue" points="1190.84,-489.214 1195.11,-479.517 1185.73,-484.437 1190.84,-489.214"/>
</g>
<!-- Node940 -->
<g id="node17" class="node"><title>Node940</title>
<g id="a_node17"><a xlink:href="class_altair.html#a2eb0a89c3223b2df1c01d2b3b7d1c0eb" target="_top" xlink:title="Rafraichir le projet .alt après avoir actualisé l&#39;interface. ">
<polygon fill="white" stroke="black" points="393,-517.5 393,-536.5 498,-536.5 498,-517.5 393,-517.5"/>
<text text-anchor="middle" x="445.5" y="-524.5" font-family="Helvetica,sans-Serif" font-size="10.00">Altair::updateProject</text>
</a>
</g>
</g>
<!-- Node928&#45;&gt;Node940 -->
<g id="edge16" class="edge"><title>Node928&#45;&gt;Node940</title>
<path fill="none" stroke="midnightblue" d="M275.944,-593.375C310.023,-579.955 371.957,-555.566 410.515,-540.383"/>
<polygon fill="midnightblue" stroke="midnightblue" points="412.233,-543.468 420.255,-536.547 409.668,-536.955 412.233,-543.468"/>
</g>
<!-- Node930 -->
<g id="node7" class="node"><title>Node930</title>
<g id="a_node7"><a xlink:href="class_f_abstract_widget.html#a5c45eef47bfac1603a3cce654c96c66b" target="_top" xlink:title="FAbstractWidget::command\lLineStringList">
<polygon fill="white" stroke="black" points="565,-632 565,-662 704,-662 704,-632 565,-632"/>
<text text-anchor="start" x="573" y="-650" font-family="Helvetica,sans-Serif" font-size="10.00">FAbstractWidget::command</text>
<text text-anchor="middle" x="634.5" y="-639" font-family="Helvetica,sans-Serif" font-size="10.00">LineStringList</text>
</a>
</g>
</g>
<!-- Node929&#45;&gt;Node930 -->
<g id="edge6" class="edge"><title>Node929&#45;&gt;Node930</title>
<path fill="none" stroke="midnightblue" d="M513.219,-647C526.724,-647 541.043,-647 554.912,-647"/>
<polygon fill="midnightblue" stroke="midnightblue" points="554.913,-650.5 564.913,-647 554.913,-643.5 554.913,-650.5"/>
</g>
<!-- Node933 -->
<g id="node10" class="node"><title>Node933</title>
<g id="a_node10"><a xlink:href="class_f_abstract_widget.html#ae6ba84e8ed8a54dc8121245f35f568fe" target="_top" xlink:title="Retourne la clé de hashage de Hash::wrapper correspondant au widget. ">
<polygon fill="white" stroke="black" points="1129.5,-589.5 1129.5,-608.5 1279.5,-608.5 1279.5,-589.5 1129.5,-589.5"/>
<text text-anchor="middle" x="1204.5" y="-596.5" font-family="Helvetica,sans-Serif" font-size="10.00">FAbstractWidget::getHashKey</text>
</a>
</g>
</g>
<!-- Node929&#45;&gt;Node933 -->
<g id="edge9" class="edge"><title>Node929&#45;&gt;Node933</title>
<path fill="none" stroke="midnightblue" d="M509.201,-662.088C625.383,-687.301 880.869,-729.83 1085,-672 1124,-660.953 1162.76,-633.043 1184.86,-615.11"/>
<polygon fill="midnightblue" stroke="midnightblue" points="1187.29,-617.643 1192.74,-608.559 1182.81,-612.261 1187.29,-617.643"/>
</g>
<!-- Node931 -->
<g id="node8" class="node"><title>Node931</title>
<g id="a_node8"><a xlink:href="class_f_abstract_widget.html#a6e974137b3ddc4347eef32a468fd2f9b" target="_top" xlink:title="FAbstractWidget::isAbstract\lDisabled">
<polygon fill="white" stroke="black" points="750.5,-632 750.5,-662 890.5,-662 890.5,-632 750.5,-632"/>
<text text-anchor="start" x="758.5" y="-650" font-family="Helvetica,sans-Serif" font-size="10.00">FAbstractWidget::isAbstract</text>
<text text-anchor="middle" x="820.5" y="-639" font-family="Helvetica,sans-Serif" font-size="10.00">Disabled</text>
</a>
</g>
</g>
<!-- Node930&#45;&gt;Node931 -->
<g id="edge7" class="edge"><title>Node930&#45;&gt;Node931</title>
<path fill="none" stroke="midnightblue" d="M704.015,-647C715.829,-647 728.197,-647 740.265,-647"/>
<polygon fill="midnightblue" stroke="midnightblue" points="740.314,-650.5 750.314,-647 740.314,-643.5 740.314,-650.5"/>
</g>
<!-- Node932 -->
<g id="node9" class="node"><title>Node932</title>
<g id="a_node9"><a xlink:href="class_f_abstract_widget.html#a6bec2d63718d591bf304509947161432" target="_top" xlink:title="FAbstractWidget::isAbstract\lEnabled">
<polygon fill="white" stroke="black" points="940,-632 940,-662 1080,-662 1080,-632 940,-632"/>
<text text-anchor="start" x="948" y="-650" font-family="Helvetica,sans-Serif" font-size="10.00">FAbstractWidget::isAbstract</text>
<text text-anchor="middle" x="1010" y="-639" font-family="Helvetica,sans-Serif" font-size="10.00">Enabled</text>
</a>
</g>
</g>
<!-- Node931&#45;&gt;Node932 -->
<g id="edge8" class="edge"><title>Node931&#45;&gt;Node932</title>
<path fill="none" stroke="midnightblue" d="M890.519,-647C903.208,-647 916.547,-647 929.514,-647"/>
<polygon fill="midnightblue" stroke="midnightblue" points="929.813,-650.5 939.813,-647 929.813,-643.5 929.813,-650.5"/>
</g>
<!-- Node940&#45;&gt;Node937 -->
<g id="edge27" class="edge"><title>Node940&#45;&gt;Node937</title>
<path fill="none" stroke="midnightblue" d="M498.307,-519.717C508.887,-516.139 519.165,-510.839 527,-503 566.663,-463.315 522.815,-421.156 563,-382 566.707,-378.388 571.024,-375.445 575.664,-373.049"/>
<polygon fill="midnightblue" stroke="midnightblue" points="577.096,-376.244 584.906,-369.085 574.336,-369.811 577.096,-376.244"/>
</g>
<!-- Node941 -->
<g id="node18" class="node"><title>Node941</title>
<g id="a_node18"><a xlink:href="class_altair.html#ad0436bfddbdcdd19cc80154e02b4323c" target="_top" xlink:title="Assigner le fichier courant. ">
<polygon fill="white" stroke="black" points="581,-517.5 581,-536.5 688,-536.5 688,-517.5 581,-517.5"/>
<text text-anchor="middle" x="634.5" y="-524.5" font-family="Helvetica,sans-Serif" font-size="10.00">Altair::setCurrentFile</text>
</a>
</g>
</g>
<!-- Node940&#45;&gt;Node941 -->
<g id="edge17" class="edge"><title>Node940&#45;&gt;Node941</title>
<path fill="none" stroke="midnightblue" d="M498.094,-527C520.506,-527 546.97,-527 570.529,-527"/>
<polygon fill="midnightblue" stroke="midnightblue" points="570.774,-530.5 580.774,-527 570.774,-523.5 570.774,-530.5"/>
</g>
<!-- Node943 -->
<g id="node20" class="node"><title>Node943</title>
<g id="a_node20"><a xlink:href="class_main_window.html#ab58113ae4ed9a73ec3e3e5f83c98dfcc" target="_top" xlink:title="Vérifie si par défaut le projet .alt doit être enregistré à chaque modification de l&#39;état de l&#39;interf...">
<polygon fill="white" stroke="black" points="564.5,-468 564.5,-498 704.5,-498 704.5,-468 564.5,-468"/>
<text text-anchor="start" x="572.5" y="-486" font-family="Helvetica,sans-Serif" font-size="10.00">MainWindow::isDefaultSave</text>
<text text-anchor="middle" x="634.5" y="-475" font-family="Helvetica,sans-Serif" font-size="10.00">ProjectChecked</text>
</a>
</g>
</g>
<!-- Node940&#45;&gt;Node943 -->
<g id="edge19" class="edge"><title>Node940&#45;&gt;Node943</title>
<path fill="none" stroke="midnightblue" d="M487.076,-517.453C508.318,-512.455 534.994,-506.178 559.738,-500.356"/>
<polygon fill="midnightblue" stroke="midnightblue" points="560.54,-503.763 569.472,-498.065 558.936,-496.949 560.54,-503.763"/>
</g>
<!-- Node944 -->
<g id="node21" class="node"><title>Node944</title>
<g id="a_node21"><a xlink:href="class_altair.html#a43120f9909d0284074119529a03df85b" target="_top" xlink:title="Ecrit le projet XML d&#39;extension .alt contenant les références des donnéees de paye. ">
<polygon fill="white" stroke="black" points="578,-555.5 578,-574.5 691,-574.5 691,-555.5 578,-555.5"/>
<text text-anchor="middle" x="634.5" y="-562.5" font-family="Helvetica,sans-Serif" font-size="10.00">Altair::writeProjectFile</text>
</a>
</g>
</g>
<!-- Node940&#45;&gt;Node944 -->
<g id="edge20" class="edge"><title>Node940&#45;&gt;Node944</title>
<path fill="none" stroke="midnightblue" d="M493.688,-536.589C518.92,-541.716 550.173,-548.067 576.727,-553.463"/>
<polygon fill="midnightblue" stroke="midnightblue" points="576.155,-556.918 586.651,-555.48 577.549,-550.059 576.155,-556.918"/>
</g>
<!-- Node949 -->
<g id="node26" class="node"><title>Node949</title>
<g id="a_node26"><a xlink:href="struct_abstract.html#af7b700041c9d75de3f642f15ece3e6ae" target="_top" xlink:title="Réinitialiser toutes les valeurs du de la table de hachage Hash::wrapper. ">
<polygon fill="white" stroke="black" points="594.5,-429.5 594.5,-448.5 674.5,-448.5 674.5,-429.5 594.5,-429.5"/>
<text text-anchor="middle" x="634.5" y="-436.5" font-family="Helvetica,sans-Serif" font-size="10.00">Abstract::initH</text>
</a>
</g>
</g>
<!-- Node940&#45;&gt;Node949 -->
<g id="edge26" class="edge"><title>Node940&#45;&gt;Node949</title>
<path fill="none" stroke="midnightblue" d="M495.402,-517.47C506.36,-513.995 517.532,-509.304 527,-503 548.032,-488.997 541.875,-472.863 563,-459 569.581,-454.681 577.1,-451.281 584.718,-448.609"/>
<polygon fill="midnightblue" stroke="midnightblue" points="585.856,-451.921 594.358,-445.599 583.769,-445.239 585.856,-451.921"/>
</g>
<!-- Node950 -->
<g id="node27" class="node"><title>Node950</title>
<g id="a_node27"><a xlink:href="class_altair.html#ac9d7d8e7cebf70212818f1a8ba7d7d78" target="_top" xlink:title="Rafraîchit le gestionnaire de projet à la droite de l&#39;interface. Fonction globale par défaut...">
<polygon fill="white" stroke="black" points="563,-391.5 563,-410.5 706,-410.5 706,-391.5 563,-391.5"/>
<text text-anchor="middle" x="634.5" y="-398.5" font-family="Helvetica,sans-Serif" font-size="10.00">Altair::refreshProjectManager</text>
</a>
</g>
</g>
<!-- Node940&#45;&gt;Node950 -->
<g id="edge28" class="edge"><title>Node940&#45;&gt;Node950</title>
<path fill="none" stroke="midnightblue" d="M498.05,-518.858C508.521,-515.324 518.818,-510.258 527,-503 557.079,-476.316 532.57,-446.283 563,-420 564.973,-418.296 567.083,-416.744 569.297,-415.329"/>
<polygon fill="midnightblue" stroke="midnightblue" points="571.106,-418.33 578.272,-410.527 567.804,-412.158 571.106,-418.33"/>
</g>
<!-- Node942 -->
<g id="node19" class="node"><title>Node942</title>
<g id="a_node19"><a xlink:href="class_main_window.html#affa76730fa370a3466b62a4caee721e3" target="_top" xlink:title="Actualise la liste des fichiers de projet .alt récents dans le menu Fichier. ">
<polygon fill="white" stroke="black" points="750.5,-468 750.5,-498 890.5,-498 890.5,-468 750.5,-468"/>
<text text-anchor="start" x="758.5" y="-486" font-family="Helvetica,sans-Serif" font-size="10.00">MainWindow::updateRecent</text>
<text text-anchor="middle" x="820.5" y="-475" font-family="Helvetica,sans-Serif" font-size="10.00">FileActions</text>
</a>
</g>
</g>
<!-- Node941&#45;&gt;Node942 -->
<g id="edge18" class="edge"><title>Node941&#45;&gt;Node942</title>
<path fill="none" stroke="midnightblue" d="M675.425,-517.453C696.234,-512.477 722.342,-506.233 746.598,-500.433"/>
<polygon fill="midnightblue" stroke="midnightblue" points="747.588,-503.795 756.499,-498.065 745.96,-496.987 747.588,-503.795"/>
</g>
<!-- Node945 -->
<g id="node22" class="node"><title>Node945</title>
<g id="a_node22"><a xlink:href="class_altair.html#a9df2266cd3e2a9905e74bb41c1f9415d" target="_top" xlink:title="Remplace un nom de projet vide par un nom par défaut. ">
<polygon fill="white" stroke="black" points="742,-429.5 742,-448.5 899,-448.5 899,-429.5 742,-429.5"/>
<text text-anchor="middle" x="820.5" y="-436.5" font-family="Helvetica,sans-Serif" font-size="10.00">Altair::checkEmptyProjectName</text>
</a>
</g>
</g>
<!-- Node944&#45;&gt;Node945 -->
<g id="edge21" class="edge"><title>Node944&#45;&gt;Node945</title>
<path fill="none" stroke="midnightblue" d="M691.146,-555.389C696.537,-552.928 701.619,-549.849 706,-546 737.437,-518.38 710.416,-486.451 742,-459 744.388,-456.925 746.964,-455.061 749.675,-453.386"/>
<polygon fill="midnightblue" stroke="midnightblue" points="751.488,-456.388 758.734,-448.658 748.249,-450.182 751.488,-456.388"/>
</g>
<!-- Node946 -->
<g id="node23" class="node"><title>Node946</title>
<g id="a_node23"><a xlink:href="class_altair.html#a2f8d129da914d8b9ab3cdaf195f92bd1" target="_top" xlink:title="Lance Altair::makeParserString sur le premier item courant de abstractWidgetList (celui des données d...">
<polygon fill="white" stroke="black" points="762.5,-555.5 762.5,-574.5 878.5,-574.5 878.5,-555.5 762.5,-555.5"/>
<text text-anchor="middle" x="820.5" y="-562.5" font-family="Helvetica,sans-Serif" font-size="10.00">Altair::makeDataString</text>
</a>
</g>
</g>
<!-- Node944&#45;&gt;Node946 -->
<g id="edge22" class="edge"><title>Node944&#45;&gt;Node946</title>
<path fill="none" stroke="midnightblue" d="M691.205,-565C710.479,-565 732.283,-565 752.376,-565"/>
<polygon fill="midnightblue" stroke="midnightblue" points="752.393,-568.5 762.393,-565 752.393,-561.5 752.393,-568.5"/>
</g>
<!-- Node948 -->
<g id="node25" class="node"><title>Node948</title>
<g id="a_node25"><a xlink:href="class_altair.html#adb7f94af778c4b6874abab74c8ef4016" target="_top" xlink:title="Lance Altair::makeParserString sur l&#39;ensemble de la liste des FWidgets sauf le premier (tous les widg...">
<polygon fill="white" stroke="black" points="756.5,-517.5 756.5,-536.5 884.5,-536.5 884.5,-517.5 756.5,-517.5"/>
<text text-anchor="middle" x="820.5" y="-524.5" font-family="Helvetica,sans-Serif" font-size="10.00">Altair::makeSystemString</text>
</a>
</g>
</g>
<!-- Node944&#45;&gt;Node948 -->
<g id="edge24" class="edge"><title>Node944&#45;&gt;Node948</title>
<path fill="none" stroke="midnightblue" d="M681.931,-555.411C706.649,-550.306 737.239,-543.989 763.292,-538.608"/>
<polygon fill="midnightblue" stroke="midnightblue" points="764.317,-541.97 773.403,-536.52 762.902,-535.115 764.317,-541.97"/>
</g>
<!-- Node947 -->
<g id="node24" class="node"><title>Node947</title>
<g id="a_node24"><a xlink:href="class_altair.html#af73cbf33a9e3ff76896a8099b4b154fe" target="_top" xlink:title="Crée la chaîne QString permettant d&#39;écrire un projet XML d&#39;extension .alt Parcourt l&#39;ensemble de la l...">
<polygon fill="white" stroke="black" points="948.5,-536.5 948.5,-555.5 1071.5,-555.5 1071.5,-536.5 948.5,-536.5"/>
<text text-anchor="middle" x="1010" y="-543.5" font-family="Helvetica,sans-Serif" font-size="10.00">Altair::makeParserString</text>
</a>
</g>
</g>
<!-- Node946&#45;&gt;Node947 -->
<g id="edge23" class="edge"><title>Node946&#45;&gt;Node947</title>
<path fill="none" stroke="midnightblue" d="M878.52,-559.222C897.328,-557.316 918.48,-555.173 938.19,-553.175"/>
<polygon fill="midnightblue" stroke="midnightblue" points="938.749,-556.637 948.345,-552.146 938.043,-549.672 938.749,-556.637"/>
</g>
<!-- Node948&#45;&gt;Node947 -->
<g id="edge25" class="edge"><title>Node948&#45;&gt;Node947</title>
<path fill="none" stroke="midnightblue" d="M884.718,-533.406C901.87,-535.144 920.553,-537.037 938.099,-538.815"/>
<polygon fill="midnightblue" stroke="midnightblue" points="937.976,-542.321 948.278,-539.847 938.682,-535.356 937.976,-542.321"/>
</g>
<!-- Node950&#45;&gt;Node939 -->
<g id="edge56" class="edge"><title>Node950&#45;&gt;Node939</title>
<path fill="none" stroke="midnightblue" d="M706.124,-404.349C759.278,-407.291 833.864,-412.32 899,-420 985.884,-430.244 1085.83,-447.765 1146.81,-459.11"/>
<polygon fill="midnightblue" stroke="midnightblue" points="1146.53,-462.616 1157,-461.014 1147.81,-455.736 1146.53,-462.616"/>
</g>
<!-- Node950&#45;&gt;Node945 -->
<g id="edge29" class="edge"><title>Node950&#45;&gt;Node945</title>
<path fill="none" stroke="midnightblue" d="M681.931,-410.589C706.649,-415.694 737.239,-422.011 763.292,-427.392"/>
<polygon fill="midnightblue" stroke="midnightblue" points="762.902,-430.885 773.403,-429.48 764.317,-424.03 762.902,-430.885"/>
</g>
<!-- Node951 -->
<g id="node28" class="node"><title>Node951</title>
<g id="a_node28"><a xlink:href="class_altair.html#a41b6c8a35ed8ba14c7c0ce2e6994655f" target="_top" xlink:title="Décode le projet représenté par un pointeur vers QFile ou similaire. ">
<polygon fill="white" stroke="black" points="762.5,-315.5 762.5,-334.5 878.5,-334.5 878.5,-315.5 762.5,-315.5"/>
<text text-anchor="middle" x="820.5" y="-322.5" font-family="Helvetica,sans-Serif" font-size="10.00">Altair::parseProjectFile</text>
</a>
</g>
</g>
<!-- Node950&#45;&gt;Node951 -->
<g id="edge30" class="edge"><title>Node950&#45;&gt;Node951</title>
<path fill="none" stroke="midnightblue" d="M676.583,-391.429C686.347,-388.744 696.643,-385.568 706,-382 737.368,-370.038 771.57,-352.143 794.14,-339.604"/>
<polygon fill="midnightblue" stroke="midnightblue" points="796.057,-342.541 803.059,-334.59 792.627,-336.439 796.057,-342.541"/>
</g>
<!-- Node962 -->
<g id="node39" class="node"><title>Node962</title>
<g id="a_node39"><a xlink:href="class_altair.html#abf7d1895e52f7b8d7d26e4b5a0e6146a" target="_top" xlink:title="Rafraîchit le gestionnaire de projet à la droite de l&#39;interface. ">
<polygon fill="white" stroke="black" points="938.5,-115 938.5,-145 1081.5,-145 1081.5,-115 938.5,-115"/>
<text text-anchor="start" x="946.5" y="-133" font-family="Helvetica,sans-Serif" font-size="10.00">Altair::refreshProjectManager</text>
<text text-anchor="middle" x="1010" y="-122" font-family="Helvetica,sans-Serif" font-size="10.00">Values</text>
</a>
</g>
</g>
<!-- Node950&#45;&gt;Node962 -->
<g id="edge55" class="edge"><title>Node950&#45;&gt;Node962</title>
<path fill="none" stroke="midnightblue" d="M690.245,-391.478C695.933,-389.006 701.33,-385.9 706,-382 734.686,-358.041 717.491,-334.218 742,-306 805.974,-232.348 907.919,-176.884 965.569,-149.34"/>
<polygon fill="midnightblue" stroke="midnightblue" points="967.218,-152.432 974.771,-145.001 964.233,-146.101 967.218,-152.432"/>
</g>
<!-- Node952 -->
<g id="node29" class="node"><title>Node952</title>
<g id="a_node29"><a xlink:href="class_altair.html#a8b7b1fa3e0b567dc1d4721bf88087a68" target="_top" xlink:title="Parcourt l&#39;ensemble des widgets fonctionnels Abstract::abstractWidgetList et actualise leur statut in...">
<polygon fill="white" stroke="black" points="943,-334.5 943,-353.5 1077,-353.5 1077,-334.5 943,-334.5"/>
<text text-anchor="middle" x="1010" y="-341.5" font-family="Helvetica,sans-Serif" font-size="10.00">Altair::assignWidgetValues</text>
</a>
</g>
</g>
<!-- Node951&#45;&gt;Node952 -->
<g id="edge31" class="edge"><title>Node951&#45;&gt;Node952</title>
<path fill="none" stroke="midnightblue" d="M878.52,-330.778C895.61,-332.51 914.635,-334.438 932.755,-336.274"/>
<polygon fill="midnightblue" stroke="midnightblue" points="932.409,-339.757 942.711,-337.283 933.115,-332.792 932.409,-339.757"/>
</g>
<!-- Node956 -->
<g id="node33" class="node"><title>Node956</title>
<g id="a_node33"><a xlink:href="class_hash.html#a2ac10203aa8b32a04d9088e08ddbaab4" target="_top" xlink:title="Hash::createReference">
<polygon fill="white" stroke="black" points="951,-296.5 951,-315.5 1069,-315.5 1069,-296.5 951,-296.5"/>
<text text-anchor="middle" x="1010" y="-303.5" font-family="Helvetica,sans-Serif" font-size="10.00">Hash::createReference</text>
</a>
</g>
</g>
<!-- Node951&#45;&gt;Node956 -->
<g id="edge37" class="edge"><title>Node951&#45;&gt;Node956</title>
<path fill="none" stroke="midnightblue" d="M878.52,-319.222C898.152,-317.233 920.336,-314.985 940.77,-312.914"/>
<polygon fill="midnightblue" stroke="midnightblue" points="941.36,-316.372 950.956,-311.882 940.654,-309.408 941.36,-316.372"/>
</g>
<!-- Node957 -->
<g id="node34" class="node"><title>Node957</title>
<g id="a_node34"><a xlink:href="class_altair.html#a3f6193de22ed2034c9b6dbe7a8ac4d97" target="_top" xlink:title="Lors du décodage du projet XML .alt, décoder le noed courant et renvoyer l&#39;empilement des valeurs en ...">
<polygon fill="white" stroke="black" points="964,-249.5 964,-268.5 1056,-268.5 1056,-249.5 964,-249.5"/>
<text text-anchor="middle" x="1010" y="-256.5" font-family="Helvetica,sans-Serif" font-size="10.00">Altair::parseEntry</text>
</a>
</g>
</g>
<!-- Node951&#45;&gt;Node957 -->
<g id="edge38" class="edge"><title>Node951&#45;&gt;Node957</title>
<path fill="none" stroke="midnightblue" d="M848.764,-315.403C881.351,-303.933 936.017,-284.69 972.296,-271.92"/>
<polygon fill="midnightblue" stroke="midnightblue" points="973.737,-275.123 982.007,-268.501 971.412,-268.52 973.737,-275.123"/>
</g>
<!-- Node951&#45;&gt;Node962 -->
<g id="edge44" class="edge"><title>Node951&#45;&gt;Node962</title>
<path fill="none" stroke="midnightblue" d="M830.798,-315.33C859.389,-285.595 946.535,-194.963 987.409,-152.455"/>
<polygon fill="midnightblue" stroke="midnightblue" points="990.07,-154.737 994.478,-145.103 985.024,-149.886 990.07,-154.737"/>
</g>
<!-- Node969 -->
<g id="node46" class="node"><title>Node969</title>
<g id="a_node46"><a xlink:href="class_altair.html#a20528df591deee5ad32f28996ba8dc35" target="_top" xlink:title="Raccourcit les chemins dans les onglets en se limitant au non de fichier et les présente &#160;en surligna...">
<polygon fill="white" stroke="black" points="935,-372.5 935,-391.5 1085,-391.5 1085,-372.5 935,-372.5"/>
<text text-anchor="middle" x="1010" y="-379.5" font-family="Helvetica,sans-Serif" font-size="10.00">Altair::refreshRowPresentation</text>
</a>
</g>
</g>
<!-- Node951&#45;&gt;Node969 -->
<g id="edge54" class="edge"><title>Node951&#45;&gt;Node969</title>
<path fill="none" stroke="midnightblue" d="M848.388,-334.608C871.278,-342.642 905.107,-354.171 935,-363 943.046,-365.376 951.633,-367.738 960.003,-369.948"/>
<polygon fill="midnightblue" stroke="midnightblue" points="959.125,-373.336 969.684,-372.464 960.885,-366.561 959.125,-373.336"/>
</g>
<!-- Node952&#45;&gt;Node933 -->
<g id="edge32" class="edge"><title>Node952&#45;&gt;Node933</title>
<path fill="none" stroke="midnightblue" d="M1071.67,-353.668C1076.56,-356.141 1081.1,-359.207 1085,-363 1126.73,-403.623 1095.1,-436.836 1121,-489 1138.82,-524.892 1168.75,-561.012 1187.24,-581.628"/>
<polygon fill="midnightblue" stroke="midnightblue" points="1184.84,-584.196 1194.17,-589.225 1190.01,-579.478 1184.84,-584.196"/>
</g>
<!-- Node952&#45;&gt;Node939 -->
<g id="edge36" class="edge"><title>Node952&#45;&gt;Node939</title>
<path fill="none" stroke="midnightblue" d="M1070.14,-353.62C1075.53,-356.088 1080.6,-359.165 1085,-363 1116.86,-390.765 1088.8,-423.635 1121,-451 1128.4,-457.287 1137.47,-461.595 1146.86,-464.526"/>
<polygon fill="midnightblue" stroke="midnightblue" points="1146.15,-467.956 1156.71,-467.107 1147.92,-461.185 1146.15,-467.956"/>
</g>
<!-- Node953 -->
<g id="node30" class="node"><title>Node953</title>
<g id="a_node30"><a xlink:href="struct_abstract.html#a634c4a8152edbeb8d96d2ca8f30e1025" target="_top" xlink:title="Récupère toutes les clés de hachage (de Hash::wrapper) des FWidgets qui sont dans le vecteur FAbstrac...">
<polygon fill="white" stroke="black" points="1153,-372.5 1153,-391.5 1256,-391.5 1256,-372.5 1153,-372.5"/>
<text text-anchor="middle" x="1204.5" y="-379.5" font-family="Helvetica,sans-Serif" font-size="10.00">Abstract::hashKeys</text>
</a>
</g>
</g>
<!-- Node952&#45;&gt;Node953 -->
<g id="edge33" class="edge"><title>Node952&#45;&gt;Node953</title>
<path fill="none" stroke="midnightblue" d="M1059.58,-353.589C1085.66,-358.739 1118.01,-365.123 1145.42,-370.534"/>
<polygon fill="midnightblue" stroke="midnightblue" points="1144.78,-373.977 1155.27,-372.48 1146.14,-367.109 1144.78,-373.977"/>
</g>
<!-- Node954 -->
<g id="node31" class="node"><title>Node954</title>
<g id="a_node31"><a xlink:href="class_f_abstract_widget.html#a88c229861e7973810c6ac979d5526c2d" target="_top" xlink:title="FAbstractWidget::setWidget\lFromXml">
<polygon fill="white" stroke="black" points="1134.5,-411 1134.5,-441 1274.5,-441 1274.5,-411 1134.5,-411"/>
<text text-anchor="start" x="1142.5" y="-429" font-family="Helvetica,sans-Serif" font-size="10.00">FAbstractWidget::setWidget</text>
<text text-anchor="middle" x="1204.5" y="-418" font-family="Helvetica,sans-Serif" font-size="10.00">FromXml</text>
</a>
</g>
</g>
<!-- Node952&#45;&gt;Node954 -->
<g id="edge34" class="edge"><title>Node952&#45;&gt;Node954</title>
<path fill="none" stroke="midnightblue" d="M1063.43,-353.514C1070.95,-355.99 1078.37,-359.098 1085,-363 1105.05,-374.799 1101.21,-388.774 1121,-401 1124.41,-403.108 1128.01,-405.048 1131.73,-406.833"/>
<polygon fill="midnightblue" stroke="midnightblue" points="1130.58,-410.153 1141.15,-410.956 1133.39,-403.74 1130.58,-410.153"/>
</g>
<!-- Node955 -->
<g id="node32" class="node"><title>Node955</title>
<g id="a_node32"><a xlink:href="class_altair.html#a78a2870bb9b316c5ad6bcbd64471eeb8" target="_top" xlink:title="Renvoie la taille des données exportées. ">
<polygon fill="white" stroke="black" points="1364,-334.5 1364,-353.5 1427,-353.5 1427,-334.5 1364,-334.5"/>
<text text-anchor="middle" x="1395.5" y="-341.5" font-family="Helvetica,sans-Serif" font-size="10.00">Altair::size</text>
</a>
</g>
</g>
<!-- Node952&#45;&gt;Node955 -->
<g id="edge35" class="edge"><title>Node952&#45;&gt;Node955</title>
<path fill="none" stroke="midnightblue" d="M1077.36,-344C1156.93,-344 1287.79,-344 1353.77,-344"/>
<polygon fill="midnightblue" stroke="midnightblue" points="1353.78,-347.5 1363.78,-344 1353.78,-340.5 1353.78,-347.5"/>
</g>
<!-- Node958 -->
<g id="node35" class="node"><title>Node958</title>
<g id="a_node35"><a xlink:href="class_f_list_frame.html#a7ecbe60018d55d1a1352c5fd24c5e72e" target="_top" xlink:title="FListFrame::setTabLabels">
<polygon fill="white" stroke="black" points="1139,-296.5 1139,-315.5 1270,-315.5 1270,-296.5 1139,-296.5"/>
<text text-anchor="middle" x="1204.5" y="-303.5" font-family="Helvetica,sans-Serif" font-size="10.00">FListFrame::setTabLabels</text>
</a>
</g>
</g>
<!-- Node957&#45;&gt;Node958 -->
<g id="edge39" class="edge"><title>Node957&#45;&gt;Node958</title>
<path fill="none" stroke="midnightblue" d="M1047.61,-268.544C1068.99,-274.058 1096.49,-281.058 1121,-287 1130.75,-289.363 1141.16,-291.817 1151.2,-294.144"/>
<polygon fill="midnightblue" stroke="midnightblue" points="1150.53,-297.583 1161.06,-296.422 1152.11,-290.762 1150.53,-297.583"/>
</g>
<!-- Node960 -->
<g id="node37" class="node"><title>Node960</title>
<g id="a_node37"><a xlink:href="namespace_xml_method.html#abe26f53c2028527b0ebea361faa85221" target="_top" xlink:title="Empile les données pour un noeud donné, pour une profondeur d&#39;enchassement donnée. ">
<polygon fill="white" stroke="black" points="1146,-202.5 1146,-221.5 1263,-221.5 1263,-202.5 1146,-202.5"/>
<text text-anchor="middle" x="1204.5" y="-209.5" font-family="Helvetica,sans-Serif" font-size="10.00">XmlMethod::stackData</text>
</a>
</g>
</g>
<!-- Node957&#45;&gt;Node960 -->
<g id="edge41" class="edge"><title>Node957&#45;&gt;Node960</title>
<path fill="none" stroke="midnightblue" d="M1047.61,-249.456C1068.99,-243.942 1096.49,-236.942 1121,-231 1130.75,-228.637 1141.16,-226.183 1151.2,-223.856"/>
<polygon fill="midnightblue" stroke="midnightblue" points="1152.11,-227.238 1161.06,-221.578 1150.53,-220.417 1152.11,-227.238"/>
</g>
<!-- Node961 -->
<g id="node38" class="node"><title>Node961</title>
<g id="a_node38"><a xlink:href="class_f_string_list.html#a71ec48a52b6ca4ffe89400d66f3ff634" target="_top" xlink:title="FStringList::toInt">
<polygon fill="white" stroke="black" points="1160,-240.5 1160,-259.5 1249,-259.5 1249,-240.5 1160,-240.5"/>
<text text-anchor="middle" x="1204.5" y="-247.5" font-family="Helvetica,sans-Serif" font-size="10.00">FStringList::toInt</text>
</a>
</g>
</g>
<!-- Node957&#45;&gt;Node961 -->
<g id="edge42" class="edge"><title>Node957&#45;&gt;Node961</title>
<path fill="none" stroke="midnightblue" d="M1056.13,-256.89C1084.17,-255.579 1120.35,-253.888 1149.84,-252.509"/>
<polygon fill="midnightblue" stroke="midnightblue" points="1150.15,-255.998 1159.97,-252.035 1149.82,-249.006 1150.15,-255.998"/>
</g>
<!-- Node959 -->
<g id="node36" class="node"><title>Node959</title>
<g id="a_node36"><a xlink:href="class_f_list_widget.html#aac6eaaeb9946354f743394b54c84a6a7" target="_top" xlink:title="FListWidget::setTabLabels">
<polygon fill="white" stroke="black" points="1328.5,-296.5 1328.5,-315.5 1462.5,-315.5 1462.5,-296.5 1328.5,-296.5"/>
<text text-anchor="middle" x="1395.5" y="-303.5" font-family="Helvetica,sans-Serif" font-size="10.00">FListWidget::setTabLabels</text>
</a>
</g>
</g>
<!-- Node958&#45;&gt;Node959 -->
<g id="edge40" class="edge"><title>Node958&#45;&gt;Node959</title>
<path fill="none" stroke="midnightblue" d="M1270.01,-306C1285.45,-306 1302.08,-306 1318.01,-306"/>
<polygon fill="midnightblue" stroke="midnightblue" points="1318.35,-309.5 1328.35,-306 1318.35,-302.5 1318.35,-309.5"/>
</g>
<!-- Node961&#45;&gt;Node961 -->
<g id="edge43" class="edge"><title>Node961&#45;&gt;Node961</title>
<path fill="none" stroke="midnightblue" d="M1175.22,-259.757C1160.97,-268.565 1170.73,-278 1204.5,-278 1228.24,-278 1240.12,-273.336 1240.12,-267.504"/>
<polygon fill="midnightblue" stroke="midnightblue" points="1242.83,-265.279 1233.78,-259.757 1237.41,-269.712 1242.83,-265.279"/>
</g>
<!-- Node963 -->
<g id="node40" class="node"><title>Node963</title>
<g id="a_node40"><a xlink:href="namespace_xml_method.html#a796c4f03d9e7a8057f0102b87eecbd3e" target="_top" xlink:title="XmlMethod::displayFirstLevelData">
<polygon fill="white" stroke="black" points="1121,-38.5 1121,-57.5 1288,-57.5 1288,-38.5 1121,-38.5"/>
<text text-anchor="middle" x="1204.5" y="-45.5" font-family="Helvetica,sans-Serif" font-size="10.00">XmlMethod::displayFirstLevelData</text>
</a>
</g>
</g>
<!-- Node962&#45;&gt;Node963 -->
<g id="edge45" class="edge"><title>Node962&#45;&gt;Node963</title>
<path fill="none" stroke="midnightblue" d="M1036.08,-114.898C1057.94,-102.202 1090.78,-84.2178 1121,-72 1131.8,-67.6329 1143.7,-63.6962 1155.01,-60.334"/>
<polygon fill="midnightblue" stroke="midnightblue" points="1156.11,-63.6583 1164.75,-57.5308 1154.18,-56.9309 1156.11,-63.6583"/>
</g>
<!-- Node964 -->
<g id="node41" class="node"><title>Node964</title>
<g id="a_node41"><a xlink:href="namespace_xml_method.html#aad1e553eb1ec6f1bb128cc6744cba9e3" target="_top" xlink:title="XmlMethod::displayTextData">
<polygon fill="white" stroke="black" points="1324,-76.5 1324,-95.5 1467,-95.5 1467,-76.5 1324,-76.5"/>
<text text-anchor="middle" x="1395.5" y="-83.5" font-family="Helvetica,sans-Serif" font-size="10.00">XmlMethod::displayTextData</text>
</a>
</g>
</g>
<!-- Node962&#45;&gt;Node964 -->
<g id="edge49" class="edge"><title>Node962&#45;&gt;Node964</title>
<path fill="none" stroke="midnightblue" d="M1069.48,-114.95C1086.04,-111.169 1104.14,-107.486 1121,-105 1185.36,-95.508 1258.97,-90.7355 1313.6,-88.3488"/>
<polygon fill="midnightblue" stroke="midnightblue" points="1314.07,-91.8322 1323.91,-87.9165 1313.78,-84.8383 1314.07,-91.8322"/>
</g>
<!-- Node965 -->
<g id="node42" class="node"><title>Node965</title>
<g id="a_node42"><a xlink:href="namespace_xml_method.html#ac0a708c4bc4c55df24e60816d69a90cf" target="_top" xlink:title="XmlMethod::displaySecond\lLevelData">
<polygon fill="white" stroke="black" points="1136.5,-115 1136.5,-145 1272.5,-145 1272.5,-115 1136.5,-115"/>
<text text-anchor="start" x="1144.5" y="-133" font-family="Helvetica,sans-Serif" font-size="10.00">XmlMethod::displaySecond</text>
<text text-anchor="middle" x="1204.5" y="-122" font-family="Helvetica,sans-Serif" font-size="10.00">LevelData</text>
</a>
</g>
</g>
<!-- Node962&#45;&gt;Node965 -->
<g id="edge47" class="edge"><title>Node962&#45;&gt;Node965</title>
<path fill="none" stroke="midnightblue" d="M1081.59,-130C1096.15,-130 1111.55,-130 1126.33,-130"/>
<polygon fill="midnightblue" stroke="midnightblue" points="1126.45,-133.5 1136.45,-130 1126.45,-126.5 1126.45,-133.5"/>
</g>
<!-- Node966 -->
<g id="node43" class="node"><title>Node966</title>
<g id="a_node43"><a xlink:href="class_f_list_frame.html#a58337134c45f052ad6bb45c014fd5c3f" target="_top" xlink:title="Récupère les titres d&#39;onglet. ">
<polygon fill="white" stroke="black" points="1139,-0.5 1139,-19.5 1270,-19.5 1270,-0.5 1139,-0.5"/>
<text text-anchor="middle" x="1204.5" y="-7.5" font-family="Helvetica,sans-Serif" font-size="10.00">FListFrame::getTabLabels</text>
</a>
</g>
</g>
<!-- Node962&#45;&gt;Node966 -->
<g id="edge50" class="edge"><title>Node962&#45;&gt;Node966</title>
<path fill="none" stroke="midnightblue" d="M1023.1,-114.701C1041.68,-92.2974 1079.48,-50.8594 1121,-29 1125.52,-26.6219 1130.33,-24.5393 1135.27,-22.7159"/>
<polygon fill="midnightblue" stroke="midnightblue" points="1136.5,-25.9944 1144.89,-19.5191 1134.29,-19.3516 1136.5,-25.9944"/>
</g>
<!-- Node968 -->
<g id="node45" class="node"><title>Node968</title>
<g id="a_node45"><a xlink:href="class_altair.html#adc79f280e4f580298a8dd80e2f7cf712" target="_top" xlink:title="Parcourt la table de chachage Hash::wrapper dans laquelle sont stockés à la clé &quot;XHL&quot; les chemins des...">
<polygon fill="white" stroke="black" points="1126,-164.5 1126,-183.5 1283,-183.5 1283,-164.5 1126,-164.5"/>
<text text-anchor="middle" x="1204.5" y="-171.5" font-family="Helvetica,sans-Serif" font-size="10.00">Altair::processSecondLevelData</text>
</a>
</g>
</g>
<!-- Node962&#45;&gt;Node968 -->
<g id="edge52" class="edge"><title>Node962&#45;&gt;Node968</title>
<path fill="none" stroke="midnightblue" d="M1076.71,-145.019C1101.28,-150.636 1128.82,-156.93 1151.94,-162.214"/>
<polygon fill="midnightblue" stroke="midnightblue" points="1151.35,-165.671 1161.88,-164.488 1152.91,-158.847 1151.35,-165.671"/>
</g>
<!-- Node963&#45;&gt;Node964 -->
<g id="edge46" class="edge"><title>Node963&#45;&gt;Node964</title>
<path fill="none" stroke="midnightblue" d="M1253.19,-57.589C1278.7,-62.7165 1310.28,-69.0672 1337.12,-74.4632"/>
<polygon fill="midnightblue" stroke="midnightblue" points="1336.66,-77.9401 1347.15,-76.4799 1338.04,-71.0774 1336.66,-77.9401"/>
</g>
<!-- Node965&#45;&gt;Node964 -->
<g id="edge48" class="edge"><title>Node965&#45;&gt;Node964</title>
<path fill="none" stroke="midnightblue" d="M1270.01,-114.981C1294.14,-109.364 1321.18,-103.07 1343.87,-97.7863"/>
<polygon fill="midnightblue" stroke="midnightblue" points="1344.69,-101.189 1353.64,-95.5124 1343.11,-94.3711 1344.69,-101.189"/>
</g>
<!-- Node967 -->
<g id="node44" class="node"><title>Node967</title>
<g id="a_node44"><a xlink:href="class_f_list_frame.html#a4bf0d0d8e56418df395b020d2e66db5f" target="_top" xlink:title="Récupère la taille courante (0&#45;based) du conteneur widgetContainer Cette taille doit en principe être...">
<polygon fill="white" stroke="black" points="1341,-0.5 1341,-19.5 1450,-19.5 1450,-0.5 1341,-0.5"/>
<text text-anchor="middle" x="1395.5" y="-7.5" font-family="Helvetica,sans-Serif" font-size="10.00">FListFrame::getRank</text>
</a>
</g>
</g>
<!-- Node966&#45;&gt;Node967 -->
<g id="edge51" class="edge"><title>Node966&#45;&gt;Node967</title>
<path fill="none" stroke="midnightblue" d="M1270.01,-10C1289.68,-10 1311.29,-10 1330.9,-10"/>
<polygon fill="midnightblue" stroke="midnightblue" points="1330.95,-13.5001 1340.95,-10 1330.95,-6.5001 1330.95,-13.5001"/>
</g>
<!-- Node968&#45;&gt;Node955 -->
<g id="edge53" class="edge"><title>Node968&#45;&gt;Node955</title>
<path fill="none" stroke="midnightblue" d="M1274.72,-183.652C1279.57,-186.156 1284.08,-189.232 1288,-193 1331.85,-235.132 1280.94,-282.066 1324,-325 1331.97,-332.949 1342.9,-337.669 1353.77,-340.444"/>
<polygon fill="midnightblue" stroke="midnightblue" points="1353.15,-343.89 1363.65,-342.483 1354.56,-337.034 1353.15,-343.89"/>
</g>
</g>
</svg>
