<?xml version="1.0" encoding="UTF-8" standalone="no"?>
<!DOCTYPE svg PUBLIC "-//W3C//DTD SVG 1.1//EN"
 "http://www.w3.org/Graphics/SVG/1.1/DTD/svg11.dtd">
<!-- Generated by graphviz version 2.38.0 (20140413.2041)
 -->
<!-- Title: standardPage Pages: 1 -->
<svg width="200pt" height="441pt"
 viewBox="0.00 0.00 199.50 441.00" xmlns="http://www.w3.org/2000/svg" xmlns:xlink="http://www.w3.org/1999/xlink">
<g id="graph0" class="graph" transform="scale(1 1) rotate(0) translate(4 437)">
<title>standardPage</title>
<polygon fill="white" stroke="none" points="-4,4 -4,-437 195.5,-437 195.5,4 -4,4"/>
<!-- Node0 -->
<g id="node1" class="node"><title>Node0</title>
<polygon fill="#bfbfbf" stroke="black" points="23.5,-0.5 23.5,-156.5 132.5,-156.5 132.5,-0.5 23.5,-0.5"/>
<text text-anchor="middle" x="78" y="-144.5" font-family="Helvetica,sans-Serif" font-size="10.00">standardPage</text>
<polyline fill="none" stroke="black" points="23.5,-137.5 132.5,-137.5 "/>
<text text-anchor="start" x="31.5" y="-125.5" font-family="Helvetica,sans-Serif" font-size="10.00">+ tableCheckBox</text>
<text text-anchor="start" x="31.5" y="-114.5" font-family="Helvetica,sans-Serif" font-size="10.00">+ FPHCheckBox</text>
<text text-anchor="start" x="31.5" y="-103.5" font-family="Helvetica,sans-Serif" font-size="10.00">+ exportWidget</text>
<text text-anchor="start" x="31.5" y="-92.5" font-family="Helvetica,sans-Serif" font-size="10.00">&#45; baseTypeWidget</text>
<text text-anchor="start" x="31.5" y="-81.5" font-family="Helvetica,sans-Serif" font-size="10.00">&#45; maxNLigneLineEdit</text>
<text text-anchor="start" x="31.5" y="-70.5" font-family="Helvetica,sans-Serif" font-size="10.00">&#45; baseTypeBox</text>
<text text-anchor="start" x="31.5" y="-59.5" font-family="Helvetica,sans-Serif" font-size="10.00">&#45; etabCheckBox</text>
<text text-anchor="start" x="31.5" y="-48.5" font-family="Helvetica,sans-Serif" font-size="10.00">&#45; rangCheckBox</text>
<text text-anchor="start" x="31.5" y="-37.5" font-family="Helvetica,sans-Serif" font-size="10.00">&#45; maxNLigneLabel</text>
<polyline fill="none" stroke="black" points="23.5,-30.5 132.5,-30.5 "/>
<text text-anchor="start" x="31.5" y="-18.5" font-family="Helvetica,sans-Serif" font-size="10.00">+ standardPage()</text>
<text text-anchor="start" x="31.5" y="-7.5" font-family="Helvetica,sans-Serif" font-size="10.00">&#45; substituer_versant()</text>
</g>
<!-- Node1 -->
<g id="node2" class="node"><title>Node1</title>
<polygon fill="white" stroke="#bfbfbf" points="0,-237.5 0,-294.5 52,-294.5 52,-237.5 0,-237.5"/>
<text text-anchor="middle" x="26" y="-282.5" font-family="Helvetica,sans-Serif" font-size="10.00">QDialog</text>
<polyline fill="none" stroke="#bfbfbf" points="0,-275.5 52,-275.5 "/>
<text text-anchor="middle" x="26" y="-263.5" font-family="Helvetica,sans-Serif" font-size="10.00"> </text>
<polyline fill="none" stroke="#bfbfbf" points="0,-256.5 52,-256.5 "/>
<text text-anchor="middle" x="26" y="-244.5" font-family="Helvetica,sans-Serif" font-size="10.00"> </text>
</g>
<!-- Node1&#45;&gt;Node0 -->
<g id="edge1" class="edge"><title>Node1&#45;&gt;Node0</title>
<path fill="none" stroke="midnightblue" d="M36.5293,-227.439C42.2258,-207.118 49.4792,-181.242 56.3218,-156.833"/>
<polygon fill="none" stroke="midnightblue" points="33.1141,-226.655 33.7849,-237.229 39.8543,-228.545 33.1141,-226.655"/>
</g>
<!-- Node2 -->
<g id="node3" class="node"><title>Node2</title>
<g id="a_node3"><a xlink:href="classcommon.html" target="_top" xlink:title="Classe dérivée de la classe tools ajoutant des fonctionnalités de communication de l&#39;interface vers l...">
<polygon fill="white" stroke="black" points="70.5,-193.5 70.5,-338.5 191.5,-338.5 191.5,-193.5 70.5,-193.5"/>
<text text-anchor="middle" x="131" y="-326.5" font-family="Helvetica,sans-Serif" font-size="10.00">common</text>
<polyline fill="none" stroke="black" points="70.5,-319.5 191.5,-319.5 "/>
<text text-anchor="start" x="78.5" y="-307.5" font-family="Helvetica,sans-Serif" font-size="10.00">+ execPath</text>
<text text-anchor="start" x="78.5" y="-296.5" font-family="Helvetica,sans-Serif" font-size="10.00">+ sharedir</text>
<text text-anchor="start" x="78.5" y="-285.5" font-family="Helvetica,sans-Serif" font-size="10.00">+ RAltairDirStr</text>
<text text-anchor="start" x="78.5" y="-274.5" font-family="Helvetica,sans-Serif" font-size="10.00">+ RAltairCommandStr</text>
<text text-anchor="start" x="78.5" y="-263.5" font-family="Helvetica,sans-Serif" font-size="10.00">+ altairCommandStr</text>
<polyline fill="none" stroke="black" points="70.5,-256.5 191.5,-256.5 "/>
<text text-anchor="start" x="78.5" y="-244.5" font-family="Helvetica,sans-Serif" font-size="10.00">+ common()</text>
<text text-anchor="start" x="78.5" y="-233.5" font-family="Helvetica,sans-Serif" font-size="10.00">+ exporter_identification</text>
<text text-anchor="start" x="78.5" y="-222.5" font-family="Helvetica,sans-Serif" font-size="10.00">_controle()</text>
<text text-anchor="start" x="78.5" y="-211.5" font-family="Helvetica,sans-Serif" font-size="10.00">+ exporter_identification</text>
<text text-anchor="start" x="78.5" y="-200.5" font-family="Helvetica,sans-Serif" font-size="10.00">_controle()</text>
</a>
</g>
</g>
<!-- Node2&#45;&gt;Node0 -->
<g id="edge2" class="edge"><title>Node2&#45;&gt;Node0</title>
<path fill="none" stroke="midnightblue" d="M107.744,-183.605C105.177,-174.621 102.569,-165.492 100.018,-156.563"/>
<polygon fill="none" stroke="midnightblue" points="104.396,-184.627 110.509,-193.281 111.127,-182.704 104.396,-184.627"/>
</g>
<!-- Node3 -->
<g id="node4" class="node"><title>Node3</title>
<polygon fill="white" stroke="#bfbfbf" points="112,-375.5 112,-432.5 150,-432.5 150,-375.5 112,-375.5"/>
<text text-anchor="middle" x="131" y="-420.5" font-family="Helvetica,sans-Serif" font-size="10.00">tools</text>
<polyline fill="none" stroke="#bfbfbf" points="112,-413.5 150,-413.5 "/>
<text text-anchor="middle" x="131" y="-401.5" font-family="Helvetica,sans-Serif" font-size="10.00"> </text>
<polyline fill="none" stroke="#bfbfbf" points="112,-394.5 150,-394.5 "/>
<text text-anchor="middle" x="131" y="-382.5" font-family="Helvetica,sans-Serif" font-size="10.00"> </text>
</g>
<!-- Node3&#45;&gt;Node2 -->
<g id="edge3" class="edge"><title>Node3&#45;&gt;Node2</title>
<path fill="none" stroke="midnightblue" d="M131,-365.356C131,-356.999 131,-347.872 131,-338.656"/>
<polygon fill="none" stroke="midnightblue" points="127.5,-365.478 131,-375.478 134.5,-365.478 127.5,-365.478"/>
</g>
</g>
</svg>
