<?xml version="1.0" encoding="UTF-8" standalone="no"?>
<!DOCTYPE svg PUBLIC "-//W3C//DTD SVG 1.1//EN"
 "http://www.w3.org/Graphics/SVG/1.1/DTD/svg11.dtd">
<!-- Generated by graphviz version 2.38.0 (20140413.2041)
 -->
<!-- Title: Altair::refreshProjectManager Pages: 1 -->
<!--zoomable 513 -->
<svg id="main" version="1.1" xmlns="http://www.w3.org/2000/svg" xmlns:xlink="http://www.w3.org/1999/xlink" xml:space="preserve" onload="init(evt)">
<style type="text/css"><![CDATA[
.edge:hover path { stroke: red; }
.edge:hover polygon { stroke: red; fill: red; }
]]></style>
<script type="text/javascript"><![CDATA[
var edges = document.getElementsByTagName('g');
if (edges && edges.length) {
  for (var i=0;i<edges.length;i++) {
    if (edges[i].id.substr(0,4)=='edge') {
      edges[i].setAttribute('class','edge');
    }
  }
}
]]></script>
        <defs>
                <circle id="rim" cx="0" cy="0" r="7"/>
                <circle id="rim2" cx="0" cy="0" r="3.5"/>
                <g id="zoomPlus">
                        <use xlink:href="#rim" fill="#404040">
                                <set attributeName="fill" to="#808080" begin="zoomplus.mouseover" end="zoomplus.mouseout"/>
                        </use>
                        <path d="M-4,0h8M0,-4v8" fill="none" stroke="white" stroke-width="1.5" pointer-events="none"/>
                </g>
                <g id="zoomMin">
                        <use xlink:href="#rim" fill="#404040">
                                <set attributeName="fill" to="#808080" begin="zoomminus.mouseover" end="zoomminus.mouseout"/>
                        </use>
                        <path d="M-4,0h8" fill="none" stroke="white" stroke-width="1.5" pointer-events="none"/>
                </g>
                <g id="dirArrow">
                        <path fill="none" stroke="white" stroke-width="1.5" d="M0,-3.0v7 M-2.5,-0.5L0,-3.0L2.5,-0.5"/>
                </g>
               <g id="resetDef">
                       <use xlink:href="#rim2" fill="#404040">
                               <set attributeName="fill" to="#808080" begin="reset.mouseover" end="reset.mouseout"/>
                       </use>
               </g>
        </defs>

<script type="text/javascript">
var viewWidth = 912;
var viewHeight = 513;
var sectionId = 'dynsection-51';
</script>
<script xlink:href="svgpan.js"/>
<svg id="graph" class="graph">
<g id="viewport">
<title>Altair::refreshProjectManager</title>
<polygon fill="white" stroke="none" points="-4,4 -4,-508.651 908,-508.651 908,4 -4,4"/>
<!-- Node692 -->
<g id="node1" class="node"><title>Node692</title>
<polygon fill="#bfbfbf" stroke="black" points="0,-145.5 0,-164.5 143,-164.5 143,-145.5 0,-145.5"/>
<text text-anchor="middle" x="71.5" y="-152.5" font-family="Helvetica,sans-Serif" font-size="10.00">Altair::refreshProjectManager</text>
</g>
<!-- Node693 -->
<g id="node2" class="node"><title>Node693</title>
<g id="a_node2"><a xlink:href="class_altair.html#a9df2266cd3e2a9905e74bb41c1f9415d" target="_top" xlink:title="Remplace un nom de projet vide par un nom par défaut. ">
<polygon fill="white" stroke="black" points="179,-202.5 179,-221.5 336,-221.5 336,-202.5 179,-202.5"/>
<text text-anchor="middle" x="257.5" y="-209.5" font-family="Helvetica,sans-Serif" font-size="10.00">Altair::checkEmptyProjectName</text>
</a>
</g>
</g>
<!-- Node692&#45;&gt;Node693 -->
<g id="edge1" class="edge"><title>Node692&#45;&gt;Node693</title>
<path fill="none" stroke="midnightblue" d="M103.297,-164.541C134.211,-174.117 181.998,-188.921 215.974,-199.446"/>
<polygon fill="midnightblue" stroke="midnightblue" points="215.014,-202.812 225.602,-202.428 217.086,-196.126 215.014,-202.812"/>
</g>
<!-- Node694 -->
<g id="node3" class="node"><title>Node694</title>
<g id="a_node3"><a xlink:href="class_altair.html#a41b6c8a35ed8ba14c7c0ce2e6994655f" target="_top" xlink:title="Décode le projet représenté par un pointeur vers QFile ou similaire. ">
<polygon fill="white" stroke="black" points="199.5,-126.5 199.5,-145.5 315.5,-145.5 315.5,-126.5 199.5,-126.5"/>
<text text-anchor="middle" x="257.5" y="-133.5" font-family="Helvetica,sans-Serif" font-size="10.00">Altair::parseProjectFile</text>
</a>
</g>
</g>
<!-- Node692&#45;&gt;Node694 -->
<g id="edge2" class="edge"><title>Node692&#45;&gt;Node694</title>
<path fill="none" stroke="midnightblue" d="M143.113,-147.708C158.264,-146.144 174.235,-144.495 189.254,-142.944"/>
<polygon fill="midnightblue" stroke="midnightblue" points="189.891,-146.397 199.479,-141.888 189.172,-139.434 189.891,-146.397"/>
</g>
<!-- Node700 -->
<g id="node9" class="node"><title>Node700</title>
<g id="a_node9"><a xlink:href="class_altair.html#a4995cdc9462838289b5b1df75edba552" target="_top" xlink:title="Ajouter du texte à l&#39;onglet des messages. ">
<polygon fill="white" stroke="black" points="594,-0.5 594,-19.5 689,-19.5 689,-0.5 594,-0.5"/>
<text text-anchor="middle" x="641.5" y="-7.5" font-family="Helvetica,sans-Serif" font-size="10.00">Altair::textAppend</text>
</a>
</g>
</g>
<!-- Node692&#45;&gt;Node700 -->
<g id="edge28" class="edge"><title>Node692&#45;&gt;Node700</title>
<path fill="none" stroke="midnightblue" d="M92.2825,-145.479C139.465,-123.218 262.819,-67.6403 372,-41 443.735,-23.4967 528.73,-15.7985 583.579,-12.4647"/>
<polygon fill="midnightblue" stroke="midnightblue" points="584.016,-15.9453 593.797,-11.873 583.612,-8.95702 584.016,-15.9453"/>
</g>
<!-- Node707 -->
<g id="node16" class="node"><title>Node707</title>
<g id="a_node16"><a xlink:href="class_altair.html#abf7d1895e52f7b8d7d26e4b5a0e6146a" target="_top" xlink:title="Rafraîchit le gestionnaire de projet à la droite de l&#39;interface. ">
<polygon fill="white" stroke="black" points="375.5,-367 375.5,-397 518.5,-397 518.5,-367 375.5,-367"/>
<text text-anchor="start" x="383.5" y="-385" font-family="Helvetica,sans-Serif" font-size="10.00">Altair::refreshProjectManager</text>
<text text-anchor="middle" x="447" y="-374" font-family="Helvetica,sans-Serif" font-size="10.00">Values</text>
</a>
</g>
</g>
<!-- Node692&#45;&gt;Node707 -->
<g id="edge27" class="edge"><title>Node692&#45;&gt;Node707</title>
<path fill="none" stroke="midnightblue" d="M143.256,-158.32C210.378,-162.678 305.395,-172.354 336,-193 343.78,-198.248 405.18,-308.169 432.717,-357.916"/>
<polygon fill="midnightblue" stroke="midnightblue" points="429.694,-359.682 437.595,-366.74 435.82,-356.295 429.694,-359.682"/>
</g>
<!-- Node695 -->
<g id="node4" class="node"><title>Node695</title>
<g id="a_node4"><a xlink:href="class_altair.html#a8b7b1fa3e0b567dc1d4721bf88087a68" target="_top" xlink:title="Parcourt l&#39;ensemble des widgets fonctionnels Abstract::abstractWidgetList et actualise leur statut in...">
<polygon fill="white" stroke="black" points="380,-126.5 380,-145.5 514,-145.5 514,-126.5 380,-126.5"/>
<text text-anchor="middle" x="447" y="-133.5" font-family="Helvetica,sans-Serif" font-size="10.00">Altair::assignWidgetValues</text>
</a>
</g>
</g>
<!-- Node694&#45;&gt;Node695 -->
<g id="edge3" class="edge"><title>Node694&#45;&gt;Node695</title>
<path fill="none" stroke="midnightblue" d="M315.52,-136C332.531,-136 351.459,-136 369.504,-136"/>
<polygon fill="midnightblue" stroke="midnightblue" points="369.711,-139.5 379.711,-136 369.711,-132.5 369.711,-139.5"/>
</g>
<!-- Node701 -->
<g id="node10" class="node"><title>Node701</title>
<g id="a_node10"><a xlink:href="class_hash.html#a2ac10203aa8b32a04d9088e08ddbaab4" target="_top" xlink:title="Hash::createReference">
<polygon fill="white" stroke="black" points="388,-50.5 388,-69.5 506,-69.5 506,-50.5 388,-50.5"/>
<text text-anchor="middle" x="447" y="-57.5" font-family="Helvetica,sans-Serif" font-size="10.00">Hash::createReference</text>
</a>
</g>
</g>
<!-- Node694&#45;&gt;Node701 -->
<g id="edge9" class="edge"><title>Node694&#45;&gt;Node701</title>
<path fill="none" stroke="midnightblue" d="M274.916,-126.344C296.548,-113.954 336.07,-92.4572 372,-79 378.51,-76.5619 385.455,-74.3258 392.385,-72.3112"/>
<polygon fill="midnightblue" stroke="midnightblue" points="393.77,-75.5596 402.475,-69.5202 391.904,-68.8129 393.77,-75.5596"/>
</g>
<!-- Node702 -->
<g id="node11" class="node"><title>Node702</title>
<g id="a_node11"><a xlink:href="class_altair.html#a3f6193de22ed2034c9b6dbe7a8ac4d97" target="_top" xlink:title="Lors du décodage du projet XML .alt, décoder le noed courant et renvoyer l&#39;empilement des valeurs en ...">
<polygon fill="white" stroke="black" points="401,-221.5 401,-240.5 493,-240.5 493,-221.5 401,-221.5"/>
<text text-anchor="middle" x="447" y="-228.5" font-family="Helvetica,sans-Serif" font-size="10.00">Altair::parseEntry</text>
</a>
</g>
</g>
<!-- Node694&#45;&gt;Node702 -->
<g id="edge10" class="edge"><title>Node694&#45;&gt;Node702</title>
<path fill="none" stroke="midnightblue" d="M296.725,-145.586C309.495,-149.375 323.62,-154.221 336,-160 369.127,-175.464 404.049,-199.523 425.434,-215.272"/>
<polygon fill="midnightblue" stroke="midnightblue" points="423.355,-218.088 433.462,-221.265 427.542,-212.478 423.355,-218.088"/>
</g>
<!-- Node694&#45;&gt;Node707 -->
<g id="edge16" class="edge"><title>Node694&#45;&gt;Node707</title>
<path fill="none" stroke="midnightblue" d="M311.913,-145.618C320.708,-149.046 329.168,-153.695 336,-160 367.66,-189.217 353.427,-211.128 372,-250 390.561,-288.847 415.682,-332.05 431.359,-358.113"/>
<polygon fill="midnightblue" stroke="midnightblue" points="428.505,-360.157 436.678,-366.9 434.494,-356.532 428.505,-360.157"/>
</g>
<!-- Node714 -->
<g id="node23" class="node"><title>Node714</title>
<g id="a_node23"><a xlink:href="class_altair.html#a20528df591deee5ad32f28996ba8dc35" target="_top" xlink:title="Raccourcit les chemins dans les onglets en se limitant au non de fichier et les présente &#160;en surligna...">
<polygon fill="white" stroke="black" points="372,-88.5 372,-107.5 522,-107.5 522,-88.5 372,-88.5"/>
<text text-anchor="middle" x="447" y="-95.5" font-family="Helvetica,sans-Serif" font-size="10.00">Altair::refreshRowPresentation</text>
</a>
</g>
</g>
<!-- Node694&#45;&gt;Node714 -->
<g id="edge26" class="edge"><title>Node694&#45;&gt;Node714</title>
<path fill="none" stroke="midnightblue" d="M305.814,-126.411C331.114,-121.284 362.45,-114.933 389.075,-109.537"/>
<polygon fill="midnightblue" stroke="midnightblue" points="389.921,-112.937 399.026,-107.52 388.53,-106.076 389.921,-112.937"/>
</g>
<!-- Node696 -->
<g id="node5" class="node"><title>Node696</title>
<g id="a_node5"><a xlink:href="class_f_abstract_widget.html#ae6ba84e8ed8a54dc8121245f35f568fe" target="_top" xlink:title="Retourne la clé de hashage de Hash::wrapper correspondant au widget. ">
<polygon fill="white" stroke="black" points="566.5,-38.5 566.5,-57.5 716.5,-57.5 716.5,-38.5 566.5,-38.5"/>
<text text-anchor="middle" x="641.5" y="-45.5" font-family="Helvetica,sans-Serif" font-size="10.00">FAbstractWidget::getHashKey</text>
</a>
</g>
</g>
<!-- Node695&#45;&gt;Node696 -->
<g id="edge4" class="edge"><title>Node695&#45;&gt;Node696</title>
<path fill="none" stroke="midnightblue" d="M503.229,-126.442C509.868,-123.982 516.304,-120.889 522,-117 544.615,-101.56 535.194,-82.1566 558,-67 561.121,-64.9255 564.44,-63.0758 567.884,-61.4266"/>
<polygon fill="midnightblue" stroke="midnightblue" points="569.373,-64.598 577.25,-57.513 566.674,-58.1392 569.373,-64.598"/>
</g>
<!-- Node697 -->
<g id="node6" class="node"><title>Node697</title>
<g id="a_node6"><a xlink:href="struct_abstract.html#a634c4a8152edbeb8d96d2ca8f30e1025" target="_top" xlink:title="Récupère toutes les clés de hachage (de Hash::wrapper) des FWidgets qui sont dans le vecteur FAbstrac...">
<polygon fill="white" stroke="black" points="590,-126.5 590,-145.5 693,-145.5 693,-126.5 590,-126.5"/>
<text text-anchor="middle" x="641.5" y="-133.5" font-family="Helvetica,sans-Serif" font-size="10.00">Abstract::hashKeys</text>
</a>
</g>
</g>
<!-- Node695&#45;&gt;Node697 -->
<g id="edge5" class="edge"><title>Node695&#45;&gt;Node697</title>
<path fill="none" stroke="midnightblue" d="M514.248,-136C535.557,-136 559.047,-136 579.927,-136"/>
<polygon fill="midnightblue" stroke="midnightblue" points="579.947,-139.5 589.946,-136 579.946,-132.5 579.947,-139.5"/>
</g>
<!-- Node698 -->
<g id="node7" class="node"><title>Node698</title>
<g id="a_node7"><a xlink:href="class_f_abstract_widget.html#a88c229861e7973810c6ac979d5526c2d" target="_top" xlink:title="FAbstractWidget::setWidget\lFromXml">
<polygon fill="white" stroke="black" points="571.5,-77 571.5,-107 711.5,-107 711.5,-77 571.5,-77"/>
<text text-anchor="start" x="579.5" y="-95" font-family="Helvetica,sans-Serif" font-size="10.00">FAbstractWidget::setWidget</text>
<text text-anchor="middle" x="641.5" y="-84" font-family="Helvetica,sans-Serif" font-size="10.00">FromXml</text>
</a>
</g>
</g>
<!-- Node695&#45;&gt;Node698 -->
<g id="edge6" class="edge"><title>Node695&#45;&gt;Node698</title>
<path fill="none" stroke="midnightblue" d="M489.77,-126.453C511.636,-121.455 539.097,-115.178 564.568,-109.356"/>
<polygon fill="midnightblue" stroke="midnightblue" points="565.62,-112.706 574.589,-107.065 564.061,-105.882 565.62,-112.706"/>
</g>
<!-- Node699 -->
<g id="node8" class="node"><title>Node699</title>
<g id="a_node8"><a xlink:href="class_altair.html#a78a2870bb9b316c5ad6bcbd64471eeb8" target="_top" xlink:title="Renvoie la taille des données exportées. ">
<polygon fill="white" stroke="black" points="801,-164.5 801,-183.5 864,-183.5 864,-164.5 801,-164.5"/>
<text text-anchor="middle" x="832.5" y="-171.5" font-family="Helvetica,sans-Serif" font-size="10.00">Altair::size</text>
</a>
</g>
</g>
<!-- Node695&#45;&gt;Node699 -->
<g id="edge7" class="edge"><title>Node695&#45;&gt;Node699</title>
<path fill="none" stroke="midnightblue" d="M496.852,-145.535C515.873,-148.96 537.894,-152.572 558,-155 640.177,-164.925 736.919,-170.134 790.514,-172.454"/>
<polygon fill="midnightblue" stroke="midnightblue" points="790.503,-175.956 800.641,-172.88 790.797,-168.962 790.503,-175.956"/>
</g>
<!-- Node695&#45;&gt;Node700 -->
<g id="edge8" class="edge"><title>Node695&#45;&gt;Node700</title>
<path fill="none" stroke="midnightblue" d="M507.142,-126.38C512.527,-123.912 517.6,-120.835 522,-117 553.855,-89.2347 525.8,-56.3654 558,-29 565.398,-22.7128 574.471,-18.4052 583.862,-15.4741"/>
<polygon fill="midnightblue" stroke="midnightblue" points="584.921,-18.8147 593.706,-12.8927 583.145,-12.0436 584.921,-18.8147"/>
</g>
<!-- Node703 -->
<g id="node12" class="node"><title>Node703</title>
<g id="a_node12"><a xlink:href="class_f_list_frame.html#a7ecbe60018d55d1a1352c5fd24c5e72e" target="_top" xlink:title="FListFrame::setTabLabels">
<polygon fill="white" stroke="black" points="576,-202.5 576,-221.5 707,-221.5 707,-202.5 576,-202.5"/>
<text text-anchor="middle" x="641.5" y="-209.5" font-family="Helvetica,sans-Serif" font-size="10.00">FListFrame::setTabLabels</text>
</a>
</g>
</g>
<!-- Node702&#45;&gt;Node703 -->
<g id="edge11" class="edge"><title>Node702&#45;&gt;Node703</title>
<path fill="none" stroke="midnightblue" d="M493.133,-226.545C514.816,-224.405 541.374,-221.784 565.943,-219.359"/>
<polygon fill="midnightblue" stroke="midnightblue" points="566.36,-222.835 575.967,-218.369 565.672,-215.869 566.36,-222.835"/>
</g>
<!-- Node705 -->
<g id="node14" class="node"><title>Node705</title>
<g id="a_node14"><a xlink:href="namespace_xml_method.html#abe26f53c2028527b0ebea361faa85221" target="_top" xlink:title="Empile les données pour un noeud donné, pour une profondeur d&#39;enchassement donnée. ">
<polygon fill="white" stroke="black" points="583,-296.5 583,-315.5 700,-315.5 700,-296.5 583,-296.5"/>
<text text-anchor="middle" x="641.5" y="-303.5" font-family="Helvetica,sans-Serif" font-size="10.00">XmlMethod::stackData</text>
</a>
</g>
</g>
<!-- Node702&#45;&gt;Node705 -->
<g id="edge13" class="edge"><title>Node702&#45;&gt;Node705</title>
<path fill="none" stroke="midnightblue" d="M463.841,-240.635C484.732,-252.969 522.956,-274.262 558,-287 565.108,-289.583 572.691,-291.896 580.271,-293.942"/>
<polygon fill="midnightblue" stroke="midnightblue" points="579.64,-297.393 590.195,-296.479 581.373,-290.611 579.64,-297.393"/>
</g>
<!-- Node706 -->
<g id="node15" class="node"><title>Node706</title>
<g id="a_node15"><a xlink:href="class_f_string_list.html#a71ec48a52b6ca4ffe89400d66f3ff634" target="_top" xlink:title="FStringList::toInt">
<polygon fill="white" stroke="black" points="597,-240.5 597,-259.5 686,-259.5 686,-240.5 597,-240.5"/>
<text text-anchor="middle" x="641.5" y="-247.5" font-family="Helvetica,sans-Serif" font-size="10.00">FStringList::toInt</text>
</a>
</g>
</g>
<!-- Node702&#45;&gt;Node706 -->
<g id="edge14" class="edge"><title>Node702&#45;&gt;Node706</title>
<path fill="none" stroke="midnightblue" d="M493.133,-235.455C521.165,-238.222 557.348,-241.793 586.845,-244.704"/>
<polygon fill="midnightblue" stroke="midnightblue" points="586.679,-248.205 596.975,-245.704 587.367,-241.239 586.679,-248.205"/>
</g>
<!-- Node704 -->
<g id="node13" class="node"><title>Node704</title>
<g id="a_node13"><a xlink:href="class_f_list_widget.html#aac6eaaeb9946354f743394b54c84a6a7" target="_top" xlink:title="FListWidget::setTabLabels">
<polygon fill="white" stroke="black" points="765.5,-202.5 765.5,-221.5 899.5,-221.5 899.5,-202.5 765.5,-202.5"/>
<text text-anchor="middle" x="832.5" y="-209.5" font-family="Helvetica,sans-Serif" font-size="10.00">FListWidget::setTabLabels</text>
</a>
</g>
</g>
<!-- Node703&#45;&gt;Node704 -->
<g id="edge12" class="edge"><title>Node703&#45;&gt;Node704</title>
<path fill="none" stroke="midnightblue" d="M707.014,-212C722.454,-212 739.084,-212 755.006,-212"/>
<polygon fill="midnightblue" stroke="midnightblue" points="755.347,-215.5 765.347,-212 755.347,-208.5 755.347,-215.5"/>
</g>
<!-- Node706&#45;&gt;Node706 -->
<g id="edge15" class="edge"><title>Node706&#45;&gt;Node706</title>
<path fill="none" stroke="midnightblue" d="M612.215,-259.757C597.969,-268.565 607.73,-278 641.5,-278 665.244,-278 677.119,-273.336 677.125,-267.504"/>
<polygon fill="midnightblue" stroke="midnightblue" points="679.827,-265.279 670.785,-259.757 674.409,-269.712 679.827,-265.279"/>
</g>
<!-- Node708 -->
<g id="node17" class="node"><title>Node708</title>
<g id="a_node17"><a xlink:href="class_f_list_frame.html#a58337134c45f052ad6bb45c014fd5c3f" target="_top" xlink:title="Récupère les titres d&#39;onglet. ">
<polygon fill="white" stroke="black" points="576,-372.5 576,-391.5 707,-391.5 707,-372.5 576,-372.5"/>
<text text-anchor="middle" x="641.5" y="-379.5" font-family="Helvetica,sans-Serif" font-size="10.00">FListFrame::getTabLabels</text>
</a>
</g>
</g>
<!-- Node707&#45;&gt;Node708 -->
<g id="edge17" class="edge"><title>Node707&#45;&gt;Node708</title>
<path fill="none" stroke="midnightblue" d="M518.587,-382C533.991,-382 550.341,-382 565.895,-382"/>
<polygon fill="midnightblue" stroke="midnightblue" points="565.984,-385.5 575.984,-382 565.984,-378.5 565.984,-385.5"/>
</g>
<!-- Node710 -->
<g id="node19" class="node"><title>Node710</title>
<g id="a_node19"><a xlink:href="class_altair.html#adc79f280e4f580298a8dd80e2f7cf712" target="_top" xlink:title="Parcourt la table de chachage Hash::wrapper dans laquelle sont stockés à la clé &quot;XHL&quot; les chemins des...">
<polygon fill="white" stroke="black" points="563,-334.5 563,-353.5 720,-353.5 720,-334.5 563,-334.5"/>
<text text-anchor="middle" x="641.5" y="-341.5" font-family="Helvetica,sans-Serif" font-size="10.00">Altair::processSecondLevelData</text>
</a>
</g>
</g>
<!-- Node707&#45;&gt;Node710 -->
<g id="edge19" class="edge"><title>Node707&#45;&gt;Node710</title>
<path fill="none" stroke="midnightblue" d="M518.587,-368.066C539.516,-363.934 562.192,-359.458 582.246,-355.5"/>
<polygon fill="midnightblue" stroke="midnightblue" points="583.032,-358.912 592.165,-353.541 581.676,-352.044 583.032,-358.912"/>
</g>
<!-- Node711 -->
<g id="node20" class="node"><title>Node711</title>
<g id="a_node20"><a xlink:href="namespace_xml_method.html#ac0a708c4bc4c55df24e60816d69a90cf" target="_top" xlink:title="XmlMethod::displaySecond\lLevelData">
<polygon fill="white" stroke="black" points="573.5,-449 573.5,-479 709.5,-479 709.5,-449 573.5,-449"/>
<text text-anchor="start" x="581.5" y="-467" font-family="Helvetica,sans-Serif" font-size="10.00">XmlMethod::displaySecond</text>
<text text-anchor="middle" x="641.5" y="-456" font-family="Helvetica,sans-Serif" font-size="10.00">LevelData</text>
</a>
</g>
</g>
<!-- Node707&#45;&gt;Node711 -->
<g id="edge21" class="edge"><title>Node707&#45;&gt;Node711</title>
<path fill="none" stroke="midnightblue" d="M474.027,-397.223C495.919,-409.601 528.312,-426.93 558,-439 563.823,-441.367 569.956,-443.631 576.14,-445.761"/>
<polygon fill="midnightblue" stroke="midnightblue" points="575.27,-449.16 585.864,-448.994 577.479,-442.518 575.27,-449.16"/>
</g>
<!-- Node712 -->
<g id="node21" class="node"><title>Node712</title>
<g id="a_node21"><a xlink:href="namespace_xml_method.html#aad1e553eb1ec6f1bb128cc6744cba9e3" target="_top" xlink:title="XmlMethod::displayTextData">
<polygon fill="white" stroke="black" points="761,-454.5 761,-473.5 904,-473.5 904,-454.5 761,-454.5"/>
<text text-anchor="middle" x="832.5" y="-461.5" font-family="Helvetica,sans-Serif" font-size="10.00">XmlMethod::displayTextData</text>
</a>
</g>
</g>
<!-- Node707&#45;&gt;Node712 -->
<g id="edge23" class="edge"><title>Node707&#45;&gt;Node712</title>
<path fill="none" stroke="midnightblue" d="M457.606,-397.044C474.423,-421.801 511.841,-470.253 558,-489 638.928,-521.868 744.086,-494.893 797.355,-476.892"/>
<polygon fill="midnightblue" stroke="midnightblue" points="798.692,-480.132 806.987,-473.541 796.392,-473.521 798.692,-480.132"/>
</g>
<!-- Node713 -->
<g id="node22" class="node"><title>Node713</title>
<g id="a_node22"><a xlink:href="namespace_xml_method.html#a796c4f03d9e7a8057f0102b87eecbd3e" target="_top" xlink:title="XmlMethod::displayFirstLevelData">
<polygon fill="white" stroke="black" points="558,-410.5 558,-429.5 725,-429.5 725,-410.5 558,-410.5"/>
<text text-anchor="middle" x="641.5" y="-417.5" font-family="Helvetica,sans-Serif" font-size="10.00">XmlMethod::displayFirstLevelData</text>
</a>
</g>
</g>
<!-- Node707&#45;&gt;Node713 -->
<g id="edge24" class="edge"><title>Node707&#45;&gt;Node713</title>
<path fill="none" stroke="midnightblue" d="M518.587,-395.934C539.516,-400.066 562.192,-404.542 582.246,-408.5"/>
<polygon fill="midnightblue" stroke="midnightblue" points="581.676,-411.956 592.165,-410.459 583.032,-405.088 581.676,-411.956"/>
</g>
<!-- Node709 -->
<g id="node18" class="node"><title>Node709</title>
<g id="a_node18"><a xlink:href="class_f_list_frame.html#a4bf0d0d8e56418df395b020d2e66db5f" target="_top" xlink:title="Récupère la taille courante (0&#45;based) du conteneur widgetContainer Cette taille doit en principe être...">
<polygon fill="white" stroke="black" points="778,-372.5 778,-391.5 887,-391.5 887,-372.5 778,-372.5"/>
<text text-anchor="middle" x="832.5" y="-379.5" font-family="Helvetica,sans-Serif" font-size="10.00">FListFrame::getRank</text>
</a>
</g>
</g>
<!-- Node708&#45;&gt;Node709 -->
<g id="edge18" class="edge"><title>Node708&#45;&gt;Node709</title>
<path fill="none" stroke="midnightblue" d="M707.014,-382C726.684,-382 748.288,-382 767.897,-382"/>
<polygon fill="midnightblue" stroke="midnightblue" points="767.948,-385.5 777.948,-382 767.948,-378.5 767.948,-385.5"/>
</g>
<!-- Node710&#45;&gt;Node699 -->
<g id="edge20" class="edge"><title>Node710&#45;&gt;Node699</title>
<path fill="none" stroke="midnightblue" d="M711.719,-334.348C716.567,-331.844 721.079,-328.768 725,-325 768.848,-282.868 717.937,-235.934 761,-193 768.973,-185.051 779.899,-180.331 790.769,-177.556"/>
<polygon fill="midnightblue" stroke="midnightblue" points="791.564,-180.966 800.65,-175.517 790.149,-174.11 791.564,-180.966"/>
</g>
<!-- Node711&#45;&gt;Node712 -->
<g id="edge22" class="edge"><title>Node711&#45;&gt;Node712</title>
<path fill="none" stroke="midnightblue" d="M709.666,-464C722.856,-464 736.823,-464 750.413,-464"/>
<polygon fill="midnightblue" stroke="midnightblue" points="750.712,-467.5 760.712,-464 750.712,-460.5 750.712,-467.5"/>
</g>
<!-- Node713&#45;&gt;Node712 -->
<g id="edge25" class="edge"><title>Node713&#45;&gt;Node712</title>
<path fill="none" stroke="midnightblue" d="M683.51,-429.547C711.992,-436.178 750.14,-445.059 780.571,-452.143"/>
<polygon fill="midnightblue" stroke="midnightblue" points="780.037,-455.613 790.57,-454.471 781.624,-448.795 780.037,-455.613"/>
</g>
</g>
</svg>
        <g id="navigator" transform="translate(0 0)" fill="#404254">
                <rect fill="#f2f5e9" fill-opacity="0.5" stroke="#606060" stroke-width=".5" x="0" y="0" width="60" height="60"/>
                <use id="zoomplus" xlink:href="#zoomPlus" x="17" y="9" onmousedown="handleZoom(evt,'in')"/>
                <use id="zoomminus" xlink:href="#zoomMin" x="42" y="9" onmousedown="handleZoom(evt,'out')"/>
                <use id="reset" xlink:href="#resetDef" x="30" y="36" onmousedown="handleReset()"/>
                <g id="arrowUp" xlink:href="#dirArrow" transform="translate(30 24)" onmousedown="handlePan(0,-1)">
                  <use xlink:href="#rim" fill="#404040">
                        <set attributeName="fill" to="#808080" begin="arrowUp.mouseover" end="arrowUp.mouseout"/>
                  </use>
                  <path fill="none" stroke="white" stroke-width="1.5" d="M0,-3.0v7 M-2.5,-0.5L0,-3.0L2.5,-0.5"/>
                </g>
                <g id="arrowRight" xlink:href="#dirArrow" transform="rotate(90) translate(36 -43)" onmousedown="handlePan(1,0)">
                  <use xlink:href="#rim" fill="#404040">
                        <set attributeName="fill" to="#808080" begin="arrowRight.mouseover" end="arrowRight.mouseout"/>
                  </use>
                  <path fill="none" stroke="white" stroke-width="1.5" d="M0,-3.0v7 M-2.5,-0.5L0,-3.0L2.5,-0.5"/>
                </g>
                <g id="arrowDown" xlink:href="#dirArrow" transform="rotate(180) translate(-30 -48)" onmousedown="handlePan(0,1)">
                  <use xlink:href="#rim" fill="#404040">
                        <set attributeName="fill" to="#808080" begin="arrowDown.mouseover" end="arrowDown.mouseout"/>
                  </use>
                  <path fill="none" stroke="white" stroke-width="1.5" d="M0,-3.0v7 M-2.5,-0.5L0,-3.0L2.5,-0.5"/>
                </g>
                <g id="arrowLeft" xlink:href="#dirArrow" transform="rotate(270) translate(-36 17)" onmousedown="handlePan(-1,0)">
                  <use xlink:href="#rim" fill="#404040">
                        <set attributeName="fill" to="#808080" begin="arrowLeft.mouseover" end="arrowLeft.mouseout"/>
                  </use>
                  <path fill="none" stroke="white" stroke-width="1.5" d="M0,-3.0v7 M-2.5,-0.5L0,-3.0L2.5,-0.5"/>
                </g>
        </g>
        <svg viewBox="0 0 15 15" width="100%" height="30px" preserveAspectRatio="xMaxYMin meet">
         <g id="arrow_out" transform="scale(0.3 0.3)">
          <a xlink:href="class_altair_ac9d7d8e7cebf70212818f1a8ba7d7d78_cgraph_org.svg" target="_base">
           <rect id="button" ry="5" rx="5" y="6" x="6" height="38" width="38"
                fill="#f2f5e9" fill-opacity="0.5" stroke="#606060" stroke-width="1.0"/>
           <path id="arrow"
             d="M 11.500037,31.436501 C 11.940474,20.09759 22.043105,11.32322 32.158766,21.979434 L 37.068811,17.246167 C 37.068811,17.246167 37.088388,32 37.088388,32 L 22.160133,31.978069 C 22.160133,31.978069 26.997745,27.140456 26.997745,27.140456 C 18.528582,18.264221 13.291696,25.230495 11.500037,31.436501 z"
             style="fill:#404040;"/>
          </a>
         </g>
        </svg>
</svg>
