<?xml version="1.0" encoding="UTF-8" standalone="no"?>
<!DOCTYPE svg PUBLIC "-//W3C//DTD SVG 1.1//EN"
 "http://www.w3.org/Graphics/SVG/1.1/DTD/svg11.dtd">
<!-- Generated by graphviz version 2.38.0 (20140413.2041)
 -->
<!-- Title: FListFrame::addStringListToListWidget Pages: 1 -->
<!--zoomable 122 -->
<svg id="main" version="1.1" xmlns="http://www.w3.org/2000/svg" xmlns:xlink="http://www.w3.org/1999/xlink" xml:space="preserve" onload="init(evt)">
<style type="text/css"><![CDATA[
.edge:hover path { stroke: red; }
.edge:hover polygon { stroke: red; fill: red; }
]]></style>
<script type="text/javascript"><![CDATA[
var edges = document.getElementsByTagName('g');
if (edges && edges.length) {
  for (var i=0;i<edges.length;i++) {
    if (edges[i].id.substr(0,4)=='edge') {
      edges[i].setAttribute('class','edge');
    }
  }
}
]]></script>
        <defs>
                <circle id="rim" cx="0" cy="0" r="7"/>
                <circle id="rim2" cx="0" cy="0" r="3.5"/>
                <g id="zoomPlus">
                        <use xlink:href="#rim" fill="#404040">
                                <set attributeName="fill" to="#808080" begin="zoomplus.mouseover" end="zoomplus.mouseout"/>
                        </use>
                        <path d="M-4,0h8M0,-4v8" fill="none" stroke="white" stroke-width="1.5" pointer-events="none"/>
                </g>
                <g id="zoomMin">
                        <use xlink:href="#rim" fill="#404040">
                                <set attributeName="fill" to="#808080" begin="zoomminus.mouseover" end="zoomminus.mouseout"/>
                        </use>
                        <path d="M-4,0h8" fill="none" stroke="white" stroke-width="1.5" pointer-events="none"/>
                </g>
                <g id="dirArrow">
                        <path fill="none" stroke="white" stroke-width="1.5" d="M0,-3.0v7 M-2.5,-0.5L0,-3.0L2.5,-0.5"/>
                </g>
               <g id="resetDef">
                       <use xlink:href="#rim2" fill="#404040">
                               <set attributeName="fill" to="#808080" begin="reset.mouseover" end="reset.mouseout"/>
                       </use>
               </g>
        </defs>

<script type="text/javascript">
var viewWidth = 508;
var viewHeight = 122;
var sectionId = 'dynsection-8';
</script>
<script xlink:href="svgpan.js"/>
<svg id="graph" class="graph">
<g id="viewport">
<title>FListFrame::addStringListToListWidget</title>
<polygon fill="white" stroke="none" points="-4,4 -4,-117.5 504,-117.5 504,4 -4,4"/>
<!-- Node162 -->
<g id="node1" class="node"><title>Node162</title>
<polygon fill="#bfbfbf" stroke="black" points="0,-44.5 0,-74.5 129,-74.5 129,-44.5 0,-44.5"/>
<text text-anchor="start" x="8" y="-62.5" font-family="Helvetica,sans-Serif" font-size="10.00">FListFrame::addStringList</text>
<text text-anchor="middle" x="64.5" y="-51.5" font-family="Helvetica,sans-Serif" font-size="10.00">ToListWidget</text>
</g>
<!-- Node163 -->
<g id="node2" class="node"><title>Node163</title>
<g id="a_node2"><a xlink:href="class_f_list_frame.html#a9353fe4926e97788a6462c3ee79f6a15" target="_top" xlink:title="FListFrame::clearTabLabels">
<polygon fill="white" stroke="black" points="175,-94 175,-113 313,-113 313,-94 175,-94"/>
<text text-anchor="middle" x="244" y="-101" font-family="Helvetica,sans-Serif" font-size="10.00">FListFrame::clearTabLabels</text>
</a>
</g>
</g>
<!-- Node162&#45;&gt;Node163 -->
<g id="edge1" class="edge"><title>Node162&#45;&gt;Node163</title>
<path fill="none" stroke="midnightblue" d="M126.089,-74.5192C148.544,-80.0856 173.683,-86.3171 194.879,-91.5713"/>
<polygon fill="midnightblue" stroke="midnightblue" points="194.078,-94.9786 204.626,-93.9876 195.762,-88.1843 194.078,-94.9786"/>
</g>
<!-- Node165 -->
<g id="node4" class="node"><title>Node165</title>
<g id="a_node4"><a xlink:href="class_f_list_frame.html#a0ebe3d7847101344e70c84aff2be39b0" target="_top" xlink:title="Accesseur en lecture du nombre d&#39;éléments (nombre d&#39;onglets) du vecteur widgetContainer. ">
<polygon fill="white" stroke="black" points="165,-44.5 165,-74.5 323,-74.5 323,-44.5 165,-44.5"/>
<text text-anchor="start" x="173" y="-62.5" font-family="Helvetica,sans-Serif" font-size="10.00">FListFrame::getWidgetContainer</text>
<text text-anchor="middle" x="244" y="-51.5" font-family="Helvetica,sans-Serif" font-size="10.00">Count</text>
</a>
</g>
</g>
<!-- Node162&#45;&gt;Node165 -->
<g id="edge3" class="edge"><title>Node162&#45;&gt;Node165</title>
<path fill="none" stroke="midnightblue" d="M129.08,-59.5C137.446,-59.5 146.136,-59.5 154.819,-59.5"/>
<polygon fill="midnightblue" stroke="midnightblue" points="154.99,-63.0001 164.99,-59.5 154.989,-56.0001 154.99,-63.0001"/>
</g>
<!-- Node166 -->
<g id="node5" class="node"><title>Node166</title>
<g id="a_node5"><a xlink:href="class_f_list_frame.html#a802475894ee1e30753faed81d9f9dc4b" target="_top" xlink:title="Appelle parseXhlFile(const QString&amp;) sur l&#39;ensemble de widgetContainer. ">
<polygon fill="white" stroke="black" points="181,-6 181,-25 307,-25 307,-6 181,-6"/>
<text text-anchor="middle" x="244" y="-13" font-family="Helvetica,sans-Serif" font-size="10.00">FListFrame::parseXhlFile</text>
</a>
</g>
</g>
<!-- Node162&#45;&gt;Node166 -->
<g id="edge4" class="edge"><title>Node162&#45;&gt;Node166</title>
<path fill="none" stroke="midnightblue" d="M124.937,-44.4916C138.123,-41.1826 152.033,-37.7084 165,-34.5 174.339,-32.1894 184.312,-29.7436 193.898,-27.4034"/>
<polygon fill="midnightblue" stroke="midnightblue" points="194.819,-30.7815 203.706,-25.013 193.162,-23.9806 194.819,-30.7815"/>
</g>
<!-- Node164 -->
<g id="node3" class="node"><title>Node164</title>
<g id="a_node3"><a xlink:href="class_f_list_widget.html#a74bf008958a87e9055b8ec6573d8e2e9" target="_top" xlink:title="FListWidget::clearTabLabels">
<polygon fill="white" stroke="black" points="359,-94 359,-113 500,-113 500,-94 359,-94"/>
<text text-anchor="middle" x="429.5" y="-101" font-family="Helvetica,sans-Serif" font-size="10.00">FListWidget::clearTabLabels</text>
</a>
</g>
</g>
<!-- Node163&#45;&gt;Node164 -->
<g id="edge2" class="edge"><title>Node163&#45;&gt;Node164</title>
<path fill="none" stroke="midnightblue" d="M313.068,-103.5C324.586,-103.5 336.638,-103.5 348.428,-103.5"/>
<polygon fill="midnightblue" stroke="midnightblue" points="348.702,-107 358.702,-103.5 348.702,-100 348.702,-107"/>
</g>
<!-- Node167 -->
<g id="node6" class="node"><title>Node167</title>
<g id="a_node6"><a xlink:href="classtools.html#a0aa994303a938a76300767d2251b9f85" target="_top" xlink:title="tools::cdRomMounted">
<polygon fill="white" stroke="black" points="373,-50 373,-69 486,-69 486,-50 373,-50"/>
<text text-anchor="middle" x="429.5" y="-57" font-family="Helvetica,sans-Serif" font-size="10.00">tools::cdRomMounted</text>
</a>
</g>
</g>
<!-- Node166&#45;&gt;Node167 -->
<g id="edge5" class="edge"><title>Node166&#45;&gt;Node167</title>
<path fill="none" stroke="midnightblue" d="M284.817,-25.0473C312.35,-31.6492 349.186,-40.4819 378.667,-47.551"/>
<polygon fill="midnightblue" stroke="midnightblue" points="378.22,-51.043 388.761,-49.9713 379.853,-44.236 378.22,-51.043"/>
</g>
<!-- Node168 -->
<g id="node7" class="node"><title>Node168</title>
<g id="a_node7"><a xlink:href="class_f_list_frame.html#a22a50157e8c6d287c2b2c08d2b7deee9" target="_top" xlink:title="Lancer un fil d&#39;exécution pour lire l&#39;entête d&#39;un fichier XHL (Année, Mois,...) et classer les fichie...">
<polygon fill="white" stroke="black" points="379,-0.5 379,-30.5 480,-30.5 480,-0.5 379,-0.5"/>
<text text-anchor="start" x="387" y="-18.5" font-family="Helvetica,sans-Serif" font-size="10.00">FListFrame::launch</text>
<text text-anchor="middle" x="429.5" y="-7.5" font-family="Helvetica,sans-Serif" font-size="10.00">_thread</text>
</a>
</g>
</g>
<!-- Node166&#45;&gt;Node168 -->
<g id="edge6" class="edge"><title>Node166&#45;&gt;Node168</title>
<path fill="none" stroke="midnightblue" d="M307.125,-9.073C327.046,-8.62404 349.055,-8.64311 368.8,-9.13021"/>
<polygon fill="midnightblue" stroke="midnightblue" points="368.796,-12.6315 378.895,-9.42759 369.003,-5.63457 368.796,-12.6315"/>
</g>
<!-- Node168&#45;&gt;Node166 -->
<g id="edge7" class="edge"><title>Node168&#45;&gt;Node166</title>
<path fill="none" stroke="midnightblue" d="M378.895,-21.5724C359.9,-22.2286 337.826,-22.4082 317.145,-22.1111"/>
<polygon fill="midnightblue" stroke="midnightblue" points="317.187,-18.6114 307.125,-21.927 317.059,-25.6102 317.187,-18.6114"/>
</g>
</g>
</svg>
        <g id="navigator" transform="translate(0 0)" fill="#404254">
                <rect fill="#f2f5e9" fill-opacity="0.5" stroke="#606060" stroke-width=".5" x="0" y="0" width="60" height="60"/>
                <use id="zoomplus" xlink:href="#zoomPlus" x="17" y="9" onmousedown="handleZoom(evt,'in')"/>
                <use id="zoomminus" xlink:href="#zoomMin" x="42" y="9" onmousedown="handleZoom(evt,'out')"/>
                <use id="reset" xlink:href="#resetDef" x="30" y="36" onmousedown="handleReset()"/>
                <g id="arrowUp" xlink:href="#dirArrow" transform="translate(30 24)" onmousedown="handlePan(0,-1)">
                  <use xlink:href="#rim" fill="#404040">
                        <set attributeName="fill" to="#808080" begin="arrowUp.mouseover" end="arrowUp.mouseout"/>
                  </use>
                  <path fill="none" stroke="white" stroke-width="1.5" d="M0,-3.0v7 M-2.5,-0.5L0,-3.0L2.5,-0.5"/>
                </g>
                <g id="arrowRight" xlink:href="#dirArrow" transform="rotate(90) translate(36 -43)" onmousedown="handlePan(1,0)">
                  <use xlink:href="#rim" fill="#404040">
                        <set attributeName="fill" to="#808080" begin="arrowRight.mouseover" end="arrowRight.mouseout"/>
                  </use>
                  <path fill="none" stroke="white" stroke-width="1.5" d="M0,-3.0v7 M-2.5,-0.5L0,-3.0L2.5,-0.5"/>
                </g>
                <g id="arrowDown" xlink:href="#dirArrow" transform="rotate(180) translate(-30 -48)" onmousedown="handlePan(0,1)">
                  <use xlink:href="#rim" fill="#404040">
                        <set attributeName="fill" to="#808080" begin="arrowDown.mouseover" end="arrowDown.mouseout"/>
                  </use>
                  <path fill="none" stroke="white" stroke-width="1.5" d="M0,-3.0v7 M-2.5,-0.5L0,-3.0L2.5,-0.5"/>
                </g>
                <g id="arrowLeft" xlink:href="#dirArrow" transform="rotate(270) translate(-36 17)" onmousedown="handlePan(-1,0)">
                  <use xlink:href="#rim" fill="#404040">
                        <set attributeName="fill" to="#808080" begin="arrowLeft.mouseover" end="arrowLeft.mouseout"/>
                  </use>
                  <path fill="none" stroke="white" stroke-width="1.5" d="M0,-3.0v7 M-2.5,-0.5L0,-3.0L2.5,-0.5"/>
                </g>
        </g>
        <svg viewBox="0 0 15 15" width="100%" height="30px" preserveAspectRatio="xMaxYMin meet">
         <g id="arrow_out" transform="scale(0.3 0.3)">
          <a xlink:href="class_f_list_frame_af8c91e66c02e4c6f1f0fb66097903b73_cgraph_org.svg" target="_base">
           <rect id="button" ry="5" rx="5" y="6" x="6" height="38" width="38"
                fill="#f2f5e9" fill-opacity="0.5" stroke="#606060" stroke-width="1.0"/>
           <path id="arrow"
             d="M 11.500037,31.436501 C 11.940474,20.09759 22.043105,11.32322 32.158766,21.979434 L 37.068811,17.246167 C 37.068811,17.246167 37.088388,32 37.088388,32 L 22.160133,31.978069 C 22.160133,31.978069 26.997745,27.140456 26.997745,27.140456 C 18.528582,18.264221 13.291696,25.230495 11.500037,31.436501 z"
             style="fill:#404040;"/>
          </a>
         </g>
        </svg>
</svg>
