<?xml version="1.0" encoding="UTF-8" standalone="no"?>
<!DOCTYPE svg PUBLIC "-//W3C//DTD SVG 1.1//EN"
 "http://www.w3.org/Graphics/SVG/1.1/DTD/svg11.dtd">
<!-- Generated by graphviz version 2.40.1 (20161225.0304)
 -->
<!-- Title: FLineFrame::FLineFrame Pages: 1 -->
<svg width="460pt" height="143pt"
 viewBox="0.00 0.00 460.00 142.50" xmlns="http://www.w3.org/2000/svg" xmlns:xlink="http://www.w3.org/1999/xlink">
<g id="graph0" class="graph" transform="scale(1 1) rotate(0) translate(4 138.5)">
<title>FLineFrame::FLineFrame</title>
<polygon fill="#ffffff" stroke="transparent" points="-4,4 -4,-138.5 456,-138.5 456,4 -4,4"/>
<!-- Node0 -->
<g id="node1" class="node">
<title>Node0</title>
<polygon fill="#bfbfbf" stroke="#000000" points="0,-38.5 0,-57.5 126,-57.5 126,-38.5 0,-38.5"/>
<text text-anchor="middle" x="63" y="-45.5" font-family="Helvetica,sans-Serif" font-size="10.00" fill="#000000">FLineFrame::FLineFrame</text>
</g>
<!-- Node1 -->
<g id="node2" class="node">
<title>Node1</title>
<g id="a_node2"><a xlink:href="class_f_line_edit.html#a7f13e341cfb5891bfaf1139663609eee" target="_top" xlink:title="FLineEdit::FLineEdit">
<polygon fill="#ffffff" stroke="#000000" points="162,-76.5 162,-95.5 267,-95.5 267,-76.5 162,-76.5"/>
<text text-anchor="middle" x="214.5" y="-83.5" font-family="Helvetica,sans-Serif" font-size="10.00" fill="#000000">FLineEdit::FLineEdit</text>
</a>
</g>
</g>
<!-- Node0&#45;&gt;Node1 -->
<g id="edge1" class="edge">
<title>Node0&#45;&gt;Node1</title>
<path fill="none" stroke="#191970" d="M101.2298,-57.589C121.1319,-62.5809 145.6567,-68.7324 166.7909,-74.0334"/>
<polygon fill="#191970" stroke="#191970" points="165.994,-77.4418 176.5451,-76.4799 167.6971,-70.6521 165.994,-77.4418"/>
</g>
<!-- Node4 -->
<g id="node5" class="node">
<title>Node4</title>
<g id="a_node5"><a xlink:href="classtools.html#a87e526e69a91b82f7db7a462a921847c" target="_top" xlink:title="Vérifie l&#39;existence d&#39;un dossier et l&#39;ouvre avec le gestionnaire de fichier du système d&#39;exploitation...">
<polygon fill="#ffffff" stroke="#000000" points="176,-38.5 176,-57.5 253,-57.5 253,-38.5 176,-38.5"/>
<text text-anchor="middle" x="214.5" y="-45.5" font-family="Helvetica,sans-Serif" font-size="10.00" fill="#000000">tools::openDir</text>
</a>
</g>
</g>
<!-- Node0&#45;&gt;Node4 -->
<g id="edge4" class="edge">
<title>Node0&#45;&gt;Node4</title>
<path fill="none" stroke="#191970" d="M126.3718,-48C139.4213,-48 152.9744,-48 165.4253,-48"/>
<polygon fill="#191970" stroke="#191970" points="165.5896,-51.5001 175.5895,-48 165.5895,-44.5001 165.5896,-51.5001"/>
</g>
<!-- Node5 -->
<g id="node6" class="node">
<title>Node5</title>
<g id="a_node6"><a xlink:href="classtools.html#ae23a9d29a31142e239d5d72e8201ebf4" target="_top" xlink:title="Sélectionne un répertoire et renvoie son chemin. ">
<polygon fill="#ffffff" stroke="#000000" points="162,-.5 162,-19.5 267,-19.5 267,-.5 162,-.5"/>
<text text-anchor="middle" x="214.5" y="-7.5" font-family="Helvetica,sans-Serif" font-size="10.00" fill="#000000">tools::openDirDialog</text>
</a>
</g>
</g>
<!-- Node0&#45;&gt;Node5 -->
<g id="edge5" class="edge">
<title>Node0&#45;&gt;Node5</title>
<path fill="none" stroke="#191970" d="M101.2298,-38.411C121.1319,-33.4191 145.6567,-27.2676 166.7909,-21.9666"/>
<polygon fill="#191970" stroke="#191970" points="167.6971,-25.3479 176.5451,-19.5201 165.994,-18.5582 167.6971,-25.3479"/>
</g>
<!-- Node2 -->
<g id="node3" class="node">
<title>Node2</title>
<g id="a_node3"><a xlink:href="class_f_abstract_widget.html#a88c229861e7973810c6ac979d5526c2d" target="_top" xlink:title="FAbstractWidget::setWidget\lFromXml">
<polygon fill="#ffffff" stroke="#000000" points="307.5,-104 307.5,-134 447.5,-134 447.5,-104 307.5,-104"/>
<text text-anchor="start" x="315.5" y="-122" font-family="Helvetica,sans-Serif" font-size="10.00" fill="#000000">FAbstractWidget::setWidget</text>
<text text-anchor="middle" x="377.5" y="-111" font-family="Helvetica,sans-Serif" font-size="10.00" fill="#000000">FromXml</text>
</a>
</g>
</g>
<!-- Node1&#45;&gt;Node2 -->
<g id="edge2" class="edge">
<title>Node1&#45;&gt;Node2</title>
<path fill="none" stroke="#191970" d="M261.6464,-95.545C272.9233,-97.828 285.2744,-100.3286 297.5774,-102.8194"/>
<polygon fill="#191970" stroke="#191970" points="296.9169,-106.2566 307.4126,-104.8105 298.3059,-99.3958 296.9169,-106.2566"/>
</g>
<!-- Node3 -->
<g id="node4" class="node">
<title>Node3</title>
<g id="a_node4"><a xlink:href="class_f_abstract_widget.html#a821c87067fa5f6b48267d6ffb20e5c97" target="_top" xlink:title="FAbstractWidget::setXmlFrom\lWidget">
<polygon fill="#ffffff" stroke="#000000" points="303,-55 303,-85 452,-85 452,-55 303,-55"/>
<text text-anchor="start" x="311" y="-73" font-family="Helvetica,sans-Serif" font-size="10.00" fill="#000000">FAbstractWidget::setXmlFrom</text>
<text text-anchor="middle" x="377.5" y="-62" font-family="Helvetica,sans-Serif" font-size="10.00" fill="#000000">Widget</text>
</a>
</g>
</g>
<!-- Node1&#45;&gt;Node3 -->
<g id="edge3" class="edge">
<title>Node1&#45;&gt;Node3</title>
<path fill="none" stroke="#191970" d="M267.4214,-80.8053C275.5728,-80.0051 284.1608,-79.1621 292.7969,-78.3144"/>
<polygon fill="#191970" stroke="#191970" points="293.3234,-81.7796 302.9336,-77.3194 292.6395,-74.8131 293.3234,-81.7796"/>
</g>
<!-- Node6 -->
<g id="node7" class="node">
<title>Node6</title>
<g id="a_node7"><a xlink:href="classtools.html#a507c567954c39f293c8ab884a0fbcc32" target="_top" xlink:title="Calcule le cumul de la taille des fichiers, éventuellement restreints à une extension donnée...">
<polygon fill="#ffffff" stroke="#000000" points="319.5,-.5 319.5,-19.5 435.5,-19.5 435.5,-.5 319.5,-.5"/>
<text text-anchor="middle" x="377.5" y="-7.5" font-family="Helvetica,sans-Serif" font-size="10.00" fill="#000000">tools::getDirectorySize</text>
</a>
</g>
</g>
<!-- Node5&#45;&gt;Node6 -->
<g id="edge6" class="edge">
<title>Node5&#45;&gt;Node6</title>
<path fill="none" stroke="#191970" d="M267.4214,-10C280.8111,-10 295.3792,-10 309.4029,-10"/>
<polygon fill="#191970" stroke="#191970" points="309.4935,-13.5001 319.4935,-10 309.4935,-6.5001 309.4935,-13.5001"/>
</g>
</g>
</svg>
