<?xml version="1.0" encoding="UTF-8" standalone="no"?>
<!DOCTYPE svg PUBLIC "-//W3C//DTD SVG 1.1//EN"
 "http://www.w3.org/Graphics/SVG/1.1/DTD/svg11.dtd">
<!-- Generated by graphviz version 2.38.0 (20140413.2041)
 -->
<!-- Title: FProgressBar Pages: 1 -->
<svg width="217pt" height="625pt"
 viewBox="0.00 0.00 216.50 625.00" xmlns="http://www.w3.org/2000/svg" xmlns:xlink="http://www.w3.org/1999/xlink">
<g id="graph0" class="graph" transform="scale(1 1) rotate(0) translate(4 621)">
<title>FProgressBar</title>
<polygon fill="white" stroke="none" points="-4,4 -4,-621 212.5,-621 212.5,4 -4,4"/>
<!-- Node2 -->
<g id="node1" class="node"><title>Node2</title>
<polygon fill="#bfbfbf" stroke="black" points="-1.42109e-14,-0.5 -1.42109e-14,-288.5 185,-288.5 185,-0.5 -1.42109e-14,-0.5"/>
<text text-anchor="middle" x="92.5" y="-276.5" font-family="Helvetica,sans-Serif" font-size="10.00">FProgressBar</text>
<polyline fill="none" stroke="black" points="-1.42109e-14,-269.5 185,-269.5 "/>
<text text-anchor="start" x="8" y="-257.5" font-family="Helvetica,sans-Serif" font-size="10.00">&#45; bar</text>
<text text-anchor="start" x="8" y="-246.5" font-family="Helvetica,sans-Serif" font-size="10.00">&#45; internalState</text>
<text text-anchor="start" x="8" y="-235.5" font-family="Helvetica,sans-Serif" font-size="10.00">&#45; killButton</text>
<text text-anchor="start" x="8" y="-224.5" font-family="Helvetica,sans-Serif" font-size="10.00">&#45; layout</text>
<text text-anchor="start" x="8" y="-213.5" font-family="Helvetica,sans-Serif" font-size="10.00">&#45; startshift</text>
<text text-anchor="start" x="8" y="-202.5" font-family="Helvetica,sans-Serif" font-size="10.00">&#45; timer</text>
<polyline fill="none" stroke="black" points="-1.42109e-14,-195.5 185,-195.5 "/>
<text text-anchor="start" x="8" y="-183.5" font-family="Helvetica,sans-Serif" font-size="10.00">+ FProgressBar()</text>
<text text-anchor="start" x="8" y="-172.5" font-family="Helvetica,sans-Serif" font-size="10.00">+ getLayout()</text>
<text text-anchor="start" x="8" y="-161.5" font-family="Helvetica,sans-Serif" font-size="10.00">+ maximum()</text>
<text text-anchor="start" x="8" y="-150.5" font-family="Helvetica,sans-Serif" font-size="10.00">+ setToolTip()</text>
<text text-anchor="start" x="8" y="-139.5" font-family="Helvetica,sans-Serif" font-size="10.00">+ value()</text>
<text text-anchor="start" x="8" y="-128.5" font-family="Helvetica,sans-Serif" font-size="10.00">+ showProgressBar()</text>
<text text-anchor="start" x="8" y="-117.5" font-family="Helvetica,sans-Serif" font-size="10.00">+ stop()</text>
<text text-anchor="start" x="8" y="-106.5" font-family="Helvetica,sans-Serif" font-size="10.00">&#45; computeLHXParsingProgressBar()</text>
<text text-anchor="start" x="8" y="-95.5" font-family="Helvetica,sans-Serif" font-size="10.00">&#45; computeLHXWritingProgressBar()</text>
<text text-anchor="start" x="8" y="-84.5" font-family="Helvetica,sans-Serif" font-size="10.00">&#45; computeRProgressBar()</text>
<text text-anchor="start" x="8" y="-73.5" font-family="Helvetica,sans-Serif" font-size="10.00">&#45; hide()</text>
<text text-anchor="start" x="8" y="-62.5" font-family="Helvetica,sans-Serif" font-size="10.00">&#45; setCount()</text>
<text text-anchor="start" x="8" y="-51.5" font-family="Helvetica,sans-Serif" font-size="10.00">&#45; setInterval()</text>
<text text-anchor="start" x="8" y="-40.5" font-family="Helvetica,sans-Serif" font-size="10.00">&#45; setRange()</text>
<text text-anchor="start" x="8" y="-29.5" font-family="Helvetica,sans-Serif" font-size="10.00">&#45; start()</text>
<text text-anchor="start" x="8" y="-18.5" font-family="Helvetica,sans-Serif" font-size="10.00">&#45; setValue()</text>
<text text-anchor="start" x="8" y="-7.5" font-family="Helvetica,sans-Serif" font-size="10.00">&#45; setValue()</text>
</g>
<!-- Node3 -->
<g id="node2" class="node"><title>Node3</title>
<polygon fill="white" stroke="#bfbfbf" points="32.5,-353 32.5,-410 90.5,-410 90.5,-353 32.5,-353"/>
<text text-anchor="middle" x="61.5" y="-398" font-family="Helvetica,sans-Serif" font-size="10.00">QWidget</text>
<polyline fill="none" stroke="#bfbfbf" points="32.5,-391 90.5,-391 "/>
<text text-anchor="middle" x="61.5" y="-379" font-family="Helvetica,sans-Serif" font-size="10.00"> </text>
<polyline fill="none" stroke="#bfbfbf" points="32.5,-372 90.5,-372 "/>
<text text-anchor="middle" x="61.5" y="-360" font-family="Helvetica,sans-Serif" font-size="10.00"> </text>
</g>
<!-- Node3&#45;&gt;Node2 -->
<g id="edge1" class="edge"><title>Node3&#45;&gt;Node2</title>
<path fill="none" stroke="midnightblue" d="M66.5024,-342.578C68.5252,-327.245 70.9979,-308.5 73.6054,-288.733"/>
<polygon fill="none" stroke="midnightblue" points="63.0158,-342.248 65.1778,-352.62 69.9557,-343.163 63.0158,-342.248"/>
</g>
<!-- Node4 -->
<g id="node3" class="node"><title>Node4</title>
<g id="a_node3"><a xlink:href="class_f_dialog.html" target="_top" xlink:title="{FDialog\n|+ fileRank\l+ outputType\l+ process\l|+ killProcess()\l+ textAppend()\l}">
<polygon fill="white" stroke="black" points="108.5,-336.5 108.5,-426.5 196.5,-426.5 196.5,-336.5 108.5,-336.5"/>
<text text-anchor="middle" x="152.5" y="-414.5" font-family="Helvetica,sans-Serif" font-size="10.00">FDialog</text>
<polyline fill="none" stroke="black" points="108.5,-407.5 196.5,-407.5 "/>
<text text-anchor="start" x="116.5" y="-395.5" font-family="Helvetica,sans-Serif" font-size="10.00">+ fileRank</text>
<text text-anchor="start" x="116.5" y="-384.5" font-family="Helvetica,sans-Serif" font-size="10.00">+ outputType</text>
<text text-anchor="start" x="116.5" y="-373.5" font-family="Helvetica,sans-Serif" font-size="10.00">+ process</text>
<polyline fill="none" stroke="black" points="108.5,-366.5 196.5,-366.5 "/>
<text text-anchor="start" x="116.5" y="-354.5" font-family="Helvetica,sans-Serif" font-size="10.00">+ killProcess()</text>
<text text-anchor="start" x="116.5" y="-343.5" font-family="Helvetica,sans-Serif" font-size="10.00">+ textAppend()</text>
</a>
</g>
</g>
<!-- Node4&#45;&gt;Node2 -->
<g id="edge2" class="edge"><title>Node4&#45;&gt;Node2</title>
<path fill="none" stroke="#404040" d="M141.214,-336.298C138.459,-325.508 135.354,-313.345 132.078,-300.515"/>
<polygon fill="none" stroke="#404040" points="131.996,-300.192 126.636,-295.368 129.027,-288.565 134.387,-293.389 131.996,-300.192"/>
<text text-anchor="middle" x="154" y="-310" font-family="Helvetica,sans-Serif" font-size="10.00"> &#45;parent</text>
</g>
<!-- Node5 -->
<g id="node4" class="node"><title>Node5</title>
<g id="a_node4"><a xlink:href="class_f_dialog_connections.html" target="_top" xlink:title="{FDialogConnections\n||}">
<polygon fill="white" stroke="black" points="96.5,-464.5 96.5,-521.5 208.5,-521.5 208.5,-464.5 96.5,-464.5"/>
<text text-anchor="middle" x="152.5" y="-509.5" font-family="Helvetica,sans-Serif" font-size="10.00">FDialogConnections</text>
<polyline fill="none" stroke="black" points="96.5,-502.5 208.5,-502.5 "/>
<text text-anchor="middle" x="152.5" y="-490.5" font-family="Helvetica,sans-Serif" font-size="10.00"> </text>
<polyline fill="none" stroke="black" points="96.5,-483.5 208.5,-483.5 "/>
<text text-anchor="middle" x="152.5" y="-471.5" font-family="Helvetica,sans-Serif" font-size="10.00"> </text>
</a>
</g>
</g>
<!-- Node5&#45;&gt;Node4 -->
<g id="edge3" class="edge"><title>Node5&#45;&gt;Node4</title>
<path fill="none" stroke="midnightblue" d="M152.5,-454.312C152.5,-445.43 152.5,-435.883 152.5,-426.742"/>
<polygon fill="none" stroke="midnightblue" points="149,-454.368 152.5,-464.369 156,-454.369 149,-454.368"/>
</g>
<!-- Node6 -->
<g id="node5" class="node"><title>Node6</title>
<polygon fill="white" stroke="#bfbfbf" points="125,-559.5 125,-616.5 180,-616.5 180,-559.5 125,-559.5"/>
<text text-anchor="middle" x="152.5" y="-604.5" font-family="Helvetica,sans-Serif" font-size="10.00">QDialog</text>
<polyline fill="none" stroke="#bfbfbf" points="125,-597.5 180,-597.5 "/>
<text text-anchor="middle" x="152.5" y="-585.5" font-family="Helvetica,sans-Serif" font-size="10.00"> </text>
<polyline fill="none" stroke="#bfbfbf" points="125,-578.5 180,-578.5 "/>
<text text-anchor="middle" x="152.5" y="-566.5" font-family="Helvetica,sans-Serif" font-size="10.00"> </text>
</g>
<!-- Node6&#45;&gt;Node5 -->
<g id="edge4" class="edge"><title>Node6&#45;&gt;Node5</title>
<path fill="none" stroke="midnightblue" d="M152.5,-549.235C152.5,-540.028 152.5,-530.346 152.5,-521.705"/>
<polygon fill="none" stroke="midnightblue" points="149,-549.349 152.5,-559.349 156,-549.349 149,-549.349"/>
</g>
</g>
</svg>
