<?xml version="1.0" encoding="UTF-8" standalone="no"?>
<!DOCTYPE svg PUBLIC "-//W3C//DTD SVG 1.1//EN"
 "http://www.w3.org/Graphics/SVG/1.1/DTD/svg11.dtd">
<!-- Generated by graphviz version 2.38.0 (20140413.2041)
 -->
<!-- Title: standardPage Pages: 1 -->
<!--zoomable 887 -->
<svg id="main" version="1.1" xmlns="http://www.w3.org/2000/svg" xmlns:xlink="http://www.w3.org/1999/xlink" xml:space="preserve" onload="init(evt)">
<style type="text/css"><![CDATA[
.edge:hover path { stroke: red; }
.edge:hover polygon { stroke: red; fill: red; }
]]></style>
<script type="text/javascript"><![CDATA[
var edges = document.getElementsByTagName('g');
if (edges && edges.length) {
  for (var i=0;i<edges.length;i++) {
    if (edges[i].id.substr(0,4)=='edge') {
      edges[i].setAttribute('class','edge');
    }
  }
}
]]></script>
        <defs>
                <circle id="rim" cx="0" cy="0" r="7"/>
                <circle id="rim2" cx="0" cy="0" r="3.5"/>
                <g id="zoomPlus">
                        <use xlink:href="#rim" fill="#404040">
                                <set attributeName="fill" to="#808080" begin="zoomplus.mouseover" end="zoomplus.mouseout"/>
                        </use>
                        <path d="M-4,0h8M0,-4v8" fill="none" stroke="white" stroke-width="1.5" pointer-events="none"/>
                </g>
                <g id="zoomMin">
                        <use xlink:href="#rim" fill="#404040">
                                <set attributeName="fill" to="#808080" begin="zoomminus.mouseover" end="zoomminus.mouseout"/>
                        </use>
                        <path d="M-4,0h8" fill="none" stroke="white" stroke-width="1.5" pointer-events="none"/>
                </g>
                <g id="dirArrow">
                        <path fill="none" stroke="white" stroke-width="1.5" d="M0,-3.0v7 M-2.5,-0.5L0,-3.0L2.5,-0.5"/>
                </g>
               <g id="resetDef">
                       <use xlink:href="#rim2" fill="#404040">
                               <set attributeName="fill" to="#808080" begin="reset.mouseover" end="reset.mouseout"/>
                       </use>
               </g>
        </defs>

<script type="text/javascript">
var viewWidth = 240;
var viewHeight = 887;
var sectionId = 'dynsection-0';
</script>
<script xlink:href="svgpan.js"/>
<svg id="graph" class="graph">
<g id="viewport">
<title>standardPage</title>
<polygon fill="white" stroke="none" points="-4,4 -4,-883 235.5,-883 235.5,4 -4,4"/>
<!-- Node0 -->
<g id="node1" class="node"><title>Node0</title>
<polygon fill="#bfbfbf" stroke="black" points="0,-0.5 0,-200.5 110,-200.5 110,-0.5 0,-0.5"/>
<text text-anchor="middle" x="55" y="-188.5" font-family="Helvetica,sans-Serif" font-size="10.00">standardPage</text>
<polyline fill="none" stroke="black" points="0,-181.5 110,-181.5 "/>
<text text-anchor="start" x="8" y="-169.5" font-family="Helvetica,sans-Serif" font-size="10.00">+ exportWidget</text>
<text text-anchor="start" x="8" y="-158.5" font-family="Helvetica,sans-Serif" font-size="10.00">+ FPHCheckBox</text>
<text text-anchor="start" x="8" y="-147.5" font-family="Helvetica,sans-Serif" font-size="10.00">+ tableCheckBox</text>
<text text-anchor="start" x="8" y="-136.5" font-family="Helvetica,sans-Serif" font-size="10.00">&#45; baseTypeBox</text>
<text text-anchor="start" x="8" y="-125.5" font-family="Helvetica,sans-Serif" font-size="10.00">&#45; baseTypeWidget</text>
<text text-anchor="start" x="8" y="-114.5" font-family="Helvetica,sans-Serif" font-size="10.00">&#45; etabCheckBox</text>
<text text-anchor="start" x="8" y="-103.5" font-family="Helvetica,sans-Serif" font-size="10.00">&#45; maxNLigneLabel</text>
<text text-anchor="start" x="8" y="-92.5" font-family="Helvetica,sans-Serif" font-size="10.00">&#45; maxNLigneLineEdit</text>
<text text-anchor="start" x="8" y="-81.5" font-family="Helvetica,sans-Serif" font-size="10.00">&#45; processTypeWidget</text>
<text text-anchor="start" x="8" y="-70.5" font-family="Helvetica,sans-Serif" font-size="10.00">&#45; rangCheckBox</text>
<text text-anchor="start" x="8" y="-59.5" font-family="Helvetica,sans-Serif" font-size="10.00">&#45; standardMsg</text>
<polyline fill="none" stroke="black" points="0,-52.5 110,-52.5 "/>
<text text-anchor="start" x="8" y="-40.5" font-family="Helvetica,sans-Serif" font-size="10.00">+ standardPage()</text>
<text text-anchor="start" x="8" y="-29.5" font-family="Helvetica,sans-Serif" font-size="10.00">+ standardPage()</text>
<text text-anchor="start" x="8" y="-18.5" font-family="Helvetica,sans-Serif" font-size="10.00">&#45; substituer_versant()</text>
<text text-anchor="start" x="8" y="-7.5" font-family="Helvetica,sans-Serif" font-size="10.00">&#45; substituer_versant()</text>
</g>
<!-- Node1 -->
<g id="node2" class="node"><title>Node1</title>
<polygon fill="white" stroke="#bfbfbf" points="2,-281.5 2,-338.5 54,-338.5 54,-281.5 2,-281.5"/>
<text text-anchor="middle" x="28" y="-326.5" font-family="Helvetica,sans-Serif" font-size="10.00">QDialog</text>
<polyline fill="none" stroke="#bfbfbf" points="2,-319.5 54,-319.5 "/>
<text text-anchor="middle" x="28" y="-307.5" font-family="Helvetica,sans-Serif" font-size="10.00"> </text>
<polyline fill="none" stroke="#bfbfbf" points="2,-300.5 54,-300.5 "/>
<text text-anchor="middle" x="28" y="-288.5" font-family="Helvetica,sans-Serif" font-size="10.00"> </text>
</g>
<!-- Node1&#45;&gt;Node0 -->
<g id="edge1" class="edge"><title>Node1&#45;&gt;Node0</title>
<path fill="none" stroke="midnightblue" d="M27.5622,-271.264C29.1625,-251.316 32.0175,-225.798 35.3555,-200.642"/>
<polygon fill="none" stroke="midnightblue" points="24.0564,-271.219 26.8254,-281.446 31.0381,-271.724 24.0564,-271.219"/>
</g>
<!-- Node1&#45;&gt;Node0 -->
<g id="edge4" class="edge"><title>Node1&#45;&gt;Node0</title>
<path fill="none" stroke="midnightblue" d="M38.2086,-271.54C41.8144,-251.551 45.6203,-225.914 48.8437,-200.642"/>
<polygon fill="none" stroke="midnightblue" points="34.7543,-270.971 36.3454,-281.446 41.6336,-272.265 34.7543,-270.971"/>
</g>
<!-- Node2 -->
<g id="node3" class="node"><title>Node2</title>
<g id="a_node3"><a xlink:href="classtools.html" target="_top" xlink:title="{tools\n|+ htmlLogPath\l+ systemPathPrefix\l+ tempdir\l+ userdatadir\l|+ tools()\l+ dump()\l+ getEmbeddedPath()\l+ readFile()\l+ readFile()\l+ readFile()\l+ readFile()\l+ renommer()\l+ substituer()\l+ cdRomMounted()\l+ copyDir()\l+ copyFile()\l+ ents()\l+ generateDatadirPath()\l+ generateDatadirPath()\l+ getDirectorySize()\l+ getFileSize()\l+ IOControl()\l+ openDir()\l+ openDirDialog()\l+ path_access()\l+ remAccents()\l+ unzip()\l+ unzipDir()\l+ zip()\l+ zipDir()\l}">
<polygon fill="white" stroke="black" points="65.5,-419.5 65.5,-784.5 186.5,-784.5 186.5,-419.5 65.5,-419.5"/>
<text text-anchor="middle" x="126" y="-772.5" font-family="Helvetica,sans-Serif" font-size="10.00">tools</text>
<polyline fill="none" stroke="black" points="65.5,-765.5 186.5,-765.5 "/>
<text text-anchor="start" x="73.5" y="-753.5" font-family="Helvetica,sans-Serif" font-size="10.00">+ htmlLogPath</text>
<text text-anchor="start" x="73.5" y="-742.5" font-family="Helvetica,sans-Serif" font-size="10.00">+ systemPathPrefix</text>
<text text-anchor="start" x="73.5" y="-731.5" font-family="Helvetica,sans-Serif" font-size="10.00">+ tempdir</text>
<text text-anchor="start" x="73.5" y="-720.5" font-family="Helvetica,sans-Serif" font-size="10.00">+ userdatadir</text>
<polyline fill="none" stroke="black" points="65.5,-713.5 186.5,-713.5 "/>
<text text-anchor="start" x="73.5" y="-701.5" font-family="Helvetica,sans-Serif" font-size="10.00">+ tools()</text>
<text text-anchor="start" x="73.5" y="-690.5" font-family="Helvetica,sans-Serif" font-size="10.00">+ dump()</text>
<text text-anchor="start" x="73.5" y="-679.5" font-family="Helvetica,sans-Serif" font-size="10.00">+ getEmbeddedPath()</text>
<text text-anchor="start" x="73.5" y="-668.5" font-family="Helvetica,sans-Serif" font-size="10.00">+ readFile()</text>
<text text-anchor="start" x="73.5" y="-657.5" font-family="Helvetica,sans-Serif" font-size="10.00">+ readFile()</text>
<text text-anchor="start" x="73.5" y="-646.5" font-family="Helvetica,sans-Serif" font-size="10.00">+ readFile()</text>
<text text-anchor="start" x="73.5" y="-635.5" font-family="Helvetica,sans-Serif" font-size="10.00">+ readFile()</text>
<text text-anchor="start" x="73.5" y="-624.5" font-family="Helvetica,sans-Serif" font-size="10.00">+ renommer()</text>
<text text-anchor="start" x="73.5" y="-613.5" font-family="Helvetica,sans-Serif" font-size="10.00">+ substituer()</text>
<text text-anchor="start" x="73.5" y="-602.5" font-family="Helvetica,sans-Serif" font-size="10.00">+ cdRomMounted()</text>
<text text-anchor="start" x="73.5" y="-591.5" font-family="Helvetica,sans-Serif" font-size="10.00">+ copyDir()</text>
<text text-anchor="start" x="73.5" y="-580.5" font-family="Helvetica,sans-Serif" font-size="10.00">+ copyFile()</text>
<text text-anchor="start" x="73.5" y="-569.5" font-family="Helvetica,sans-Serif" font-size="10.00">+ ents()</text>
<text text-anchor="start" x="73.5" y="-558.5" font-family="Helvetica,sans-Serif" font-size="10.00">+ generateDatadirPath()</text>
<text text-anchor="start" x="73.5" y="-547.5" font-family="Helvetica,sans-Serif" font-size="10.00">+ generateDatadirPath()</text>
<text text-anchor="start" x="73.5" y="-536.5" font-family="Helvetica,sans-Serif" font-size="10.00">+ getDirectorySize()</text>
<text text-anchor="start" x="73.5" y="-525.5" font-family="Helvetica,sans-Serif" font-size="10.00">+ getFileSize()</text>
<text text-anchor="start" x="73.5" y="-514.5" font-family="Helvetica,sans-Serif" font-size="10.00">+ IOControl()</text>
<text text-anchor="start" x="73.5" y="-503.5" font-family="Helvetica,sans-Serif" font-size="10.00">+ openDir()</text>
<text text-anchor="start" x="73.5" y="-492.5" font-family="Helvetica,sans-Serif" font-size="10.00">+ openDirDialog()</text>
<text text-anchor="start" x="73.5" y="-481.5" font-family="Helvetica,sans-Serif" font-size="10.00">+ path_access()</text>
<text text-anchor="start" x="73.5" y="-470.5" font-family="Helvetica,sans-Serif" font-size="10.00">+ remAccents()</text>
<text text-anchor="start" x="73.5" y="-459.5" font-family="Helvetica,sans-Serif" font-size="10.00">+ unzip()</text>
<text text-anchor="start" x="73.5" y="-448.5" font-family="Helvetica,sans-Serif" font-size="10.00">+ unzipDir()</text>
<text text-anchor="start" x="73.5" y="-437.5" font-family="Helvetica,sans-Serif" font-size="10.00">+ zip()</text>
<text text-anchor="start" x="73.5" y="-426.5" font-family="Helvetica,sans-Serif" font-size="10.00">+ zipDir()</text>
</a>
</g>
</g>
<!-- Node2&#45;&gt;Node0 -->
<g id="edge2" class="edge"><title>Node2&#45;&gt;Node0</title>
<path fill="none" stroke="midnightblue" d="M98.7462,-409.264C88.6332,-338.117 77.5752,-260.321 69.1071,-200.746"/>
<polygon fill="none" stroke="midnightblue" points="95.294,-409.848 100.167,-419.256 102.224,-408.863 95.294,-409.848"/>
</g>
<!-- Node4 -->
<g id="node5" class="node"><title>Node4</title>
<g id="a_node5"><a xlink:href="classcommon.html" target="_top" xlink:title="Classe dérivée de la classe tools ajoutant des fonctionnalités de communication de l&#39;interface vers l...">
<polygon fill="white" stroke="black" points="110.5,-237.5 110.5,-382.5 231.5,-382.5 231.5,-237.5 110.5,-237.5"/>
<text text-anchor="middle" x="171" y="-370.5" font-family="Helvetica,sans-Serif" font-size="10.00">common</text>
<polyline fill="none" stroke="black" points="110.5,-363.5 231.5,-363.5 "/>
<text text-anchor="start" x="118.5" y="-351.5" font-family="Helvetica,sans-Serif" font-size="10.00">+ altairCommandStr</text>
<text text-anchor="start" x="118.5" y="-340.5" font-family="Helvetica,sans-Serif" font-size="10.00">+ execPath</text>
<text text-anchor="start" x="118.5" y="-329.5" font-family="Helvetica,sans-Serif" font-size="10.00">+ RAltairCommandStr</text>
<text text-anchor="start" x="118.5" y="-318.5" font-family="Helvetica,sans-Serif" font-size="10.00">+ RAltairDirStr</text>
<text text-anchor="start" x="118.5" y="-307.5" font-family="Helvetica,sans-Serif" font-size="10.00">+ sharedir</text>
<polyline fill="none" stroke="black" points="110.5,-300.5 231.5,-300.5 "/>
<text text-anchor="start" x="118.5" y="-288.5" font-family="Helvetica,sans-Serif" font-size="10.00">+ common()</text>
<text text-anchor="start" x="118.5" y="-277.5" font-family="Helvetica,sans-Serif" font-size="10.00">+ exporter_identification</text>
<text text-anchor="start" x="118.5" y="-266.5" font-family="Helvetica,sans-Serif" font-size="10.00">_controle()</text>
<text text-anchor="start" x="118.5" y="-255.5" font-family="Helvetica,sans-Serif" font-size="10.00">+ exporter_identification</text>
<text text-anchor="start" x="118.5" y="-244.5" font-family="Helvetica,sans-Serif" font-size="10.00">_controle()</text>
</a>
</g>
</g>
<!-- Node2&#45;&gt;Node4 -->
<g id="edge6" class="edge"><title>Node2&#45;&gt;Node4</title>
<path fill="none" stroke="midnightblue" d="M155.746,-409.304C157.175,-400.097 158.56,-391.17 159.875,-382.697"/>
<polygon fill="none" stroke="midnightblue" points="152.255,-408.979 154.18,-419.398 159.172,-410.053 152.255,-408.979"/>
</g>
<!-- Node3 -->
<g id="node4" class="node"><title>Node3</title>
<g id="a_node4"><a xlink:href="classflags.html" target="_top" xlink:title="{flags\n||}">
<polygon fill="white" stroke="black" points="107,-821.5 107,-878.5 145,-878.5 145,-821.5 107,-821.5"/>
<text text-anchor="middle" x="126" y="-866.5" font-family="Helvetica,sans-Serif" font-size="10.00">flags</text>
<polyline fill="none" stroke="black" points="107,-859.5 145,-859.5 "/>
<text text-anchor="middle" x="126" y="-847.5" font-family="Helvetica,sans-Serif" font-size="10.00"> </text>
<polyline fill="none" stroke="black" points="107,-840.5 145,-840.5 "/>
<text text-anchor="middle" x="126" y="-828.5" font-family="Helvetica,sans-Serif" font-size="10.00"> </text>
</a>
</g>
</g>
<!-- Node3&#45;&gt;Node2 -->
<g id="edge3" class="edge"><title>Node3&#45;&gt;Node2</title>
<path fill="none" stroke="midnightblue" d="M126,-811.023C126,-803.073 126,-794.195 126,-784.708"/>
<polygon fill="none" stroke="midnightblue" points="122.5,-811.259 126,-821.259 129.5,-811.259 122.5,-811.259"/>
</g>
<!-- Node4&#45;&gt;Node0 -->
<g id="edge5" class="edge"><title>Node4&#45;&gt;Node0</title>
<path fill="none" stroke="midnightblue" d="M125.959,-228.431C120.734,-219.085 115.362,-209.475 110.023,-199.925"/>
<polygon fill="none" stroke="midnightblue" points="122.982,-230.279 130.917,-237.3 129.092,-226.863 122.982,-230.279"/>
</g>
</g>
</svg>
        <g id="navigator" transform="translate(0 0)" fill="#404254">
                <rect fill="#f2f5e9" fill-opacity="0.5" stroke="#606060" stroke-width=".5" x="0" y="0" width="60" height="60"/>
                <use id="zoomplus" xlink:href="#zoomPlus" x="17" y="9" onmousedown="handleZoom(evt,'in')"/>
                <use id="zoomminus" xlink:href="#zoomMin" x="42" y="9" onmousedown="handleZoom(evt,'out')"/>
                <use id="reset" xlink:href="#resetDef" x="30" y="36" onmousedown="handleReset()"/>
                <g id="arrowUp" xlink:href="#dirArrow" transform="translate(30 24)" onmousedown="handlePan(0,-1)">
                  <use xlink:href="#rim" fill="#404040">
                        <set attributeName="fill" to="#808080" begin="arrowUp.mouseover" end="arrowUp.mouseout"/>
                  </use>
                  <path fill="none" stroke="white" stroke-width="1.5" d="M0,-3.0v7 M-2.5,-0.5L0,-3.0L2.5,-0.5"/>
                </g>
                <g id="arrowRight" xlink:href="#dirArrow" transform="rotate(90) translate(36 -43)" onmousedown="handlePan(1,0)">
                  <use xlink:href="#rim" fill="#404040">
                        <set attributeName="fill" to="#808080" begin="arrowRight.mouseover" end="arrowRight.mouseout"/>
                  </use>
                  <path fill="none" stroke="white" stroke-width="1.5" d="M0,-3.0v7 M-2.5,-0.5L0,-3.0L2.5,-0.5"/>
                </g>
                <g id="arrowDown" xlink:href="#dirArrow" transform="rotate(180) translate(-30 -48)" onmousedown="handlePan(0,1)">
                  <use xlink:href="#rim" fill="#404040">
                        <set attributeName="fill" to="#808080" begin="arrowDown.mouseover" end="arrowDown.mouseout"/>
                  </use>
                  <path fill="none" stroke="white" stroke-width="1.5" d="M0,-3.0v7 M-2.5,-0.5L0,-3.0L2.5,-0.5"/>
                </g>
                <g id="arrowLeft" xlink:href="#dirArrow" transform="rotate(270) translate(-36 17)" onmousedown="handlePan(-1,0)">
                  <use xlink:href="#rim" fill="#404040">
                        <set attributeName="fill" to="#808080" begin="arrowLeft.mouseover" end="arrowLeft.mouseout"/>
                  </use>
                  <path fill="none" stroke="white" stroke-width="1.5" d="M0,-3.0v7 M-2.5,-0.5L0,-3.0L2.5,-0.5"/>
                </g>
        </g>
        <svg viewBox="0 0 15 15" width="100%" height="30px" preserveAspectRatio="xMaxYMin meet">
         <g id="arrow_out" transform="scale(0.3 0.3)">
          <a xlink:href="classstandard_page__inherit__graph_org.svg" target="_base">
           <rect id="button" ry="5" rx="5" y="6" x="6" height="38" width="38"
                fill="#f2f5e9" fill-opacity="0.5" stroke="#606060" stroke-width="1.0"/>
           <path id="arrow"
             d="M 11.500037,31.436501 C 11.940474,20.09759 22.043105,11.32322 32.158766,21.979434 L 37.068811,17.246167 C 37.068811,17.246167 37.088388,32 37.088388,32 L 22.160133,31.978069 C 22.160133,31.978069 26.997745,27.140456 26.997745,27.140456 C 18.528582,18.264221 13.291696,25.230495 11.500037,31.436501 z"
             style="fill:#404040;"/>
          </a>
         </g>
        </svg>
</svg>
