<?xml version="1.0" encoding="UTF-8" standalone="no"?>
<!DOCTYPE svg PUBLIC "-//W3C//DTD SVG 1.1//EN"
 "http://www.w3.org/Graphics/SVG/1.1/DTD/svg11.dtd">
<!-- Generated by graphviz version 2.38.0 (20140413.2041)
 -->
<!-- Title: MatriculeInput::checkDefaultFolder Pages: 1 -->
<svg width="323pt" height="116pt"
 viewBox="0.00 0.00 323.00 115.50" xmlns="http://www.w3.org/2000/svg" xmlns:xlink="http://www.w3.org/1999/xlink">
<g id="graph0" class="graph" transform="scale(1 1) rotate(0) translate(4 111.5)">
<title>MatriculeInput::checkDefaultFolder</title>
<polygon fill="white" stroke="none" points="-4,4 -4,-111.5 319,-111.5 319,4 -4,4"/>
<!-- Node10 -->
<g id="node1" class="node"><title>Node10</title>
<polygon fill="#bfbfbf" stroke="black" points="0,-33 0,-63 142,-63 142,-33 0,-33"/>
<text text-anchor="start" x="8" y="-51" font-family="Helvetica,sans-Serif" font-size="10.00">MatriculeInput::checkDefault</text>
<text text-anchor="middle" x="71" y="-40" font-family="Helvetica,sans-Serif" font-size="10.00">Folder</text>
</g>
<!-- Node11 -->
<g id="node2" class="node"><title>Node11</title>
<g id="a_node2"><a xlink:href="class_matricule_input.html#a570b775e6c896dba52da89945a7fd02c" target="_top" xlink:title="Connecteur qui rajoute une ligne de saisie de matricules au dialogue Exportation des bulletins ...">
<polygon fill="white" stroke="black" points="178,-77 178,-107 315,-107 315,-77 178,-77"/>
<text text-anchor="start" x="186" y="-95" font-family="Helvetica,sans-Serif" font-size="10.00">MatriculeInput::ajouterLigne</text>
<text text-anchor="middle" x="246.5" y="-84" font-family="Helvetica,sans-Serif" font-size="10.00">Matricules</text>
</a>
</g>
</g>
<!-- Node10&#45;&gt;Node11 -->
<g id="edge1" class="edge"><title>Node10&#45;&gt;Node11</title>
<path fill="none" stroke="midnightblue" d="M131.224,-63.0192C145.799,-66.7156 161.531,-70.7053 176.523,-74.5074"/>
<polygon fill="midnightblue" stroke="midnightblue" points="175.695,-77.9081 186.249,-76.9738 177.416,-71.1229 175.695,-77.9081"/>
</g>
<!-- Node12 -->
<g id="node3" class="node"><title>Node12</title>
<g id="a_node3"><a xlink:href="class_f_line_frame.html#a63a8e07ab4bbff07da779f45e86e1721" target="_top" xlink:title="Accesseur en lecture : retourne le texte de la ligne. ">
<polygon fill="white" stroke="black" points="193,-38.5 193,-57.5 300,-57.5 300,-38.5 193,-38.5"/>
<text text-anchor="middle" x="246.5" y="-45.5" font-family="Helvetica,sans-Serif" font-size="10.00">FLineFrame::getText</text>
</a>
</g>
</g>
<!-- Node10&#45;&gt;Node12 -->
<g id="edge2" class="edge"><title>Node10&#45;&gt;Node12</title>
<path fill="none" stroke="midnightblue" d="M142.069,-48C155.427,-48 169.333,-48 182.455,-48"/>
<polygon fill="midnightblue" stroke="midnightblue" points="182.786,-51.5001 192.786,-48 182.786,-44.5001 182.786,-51.5001"/>
</g>
<!-- Node13 -->
<g id="node4" class="node"><title>Node13</title>
<g id="a_node4"><a xlink:href="class_f_line_frame.html#a532228c9d7ad141dda66d081df38b48a" target="_top" xlink:title="Accesseur en écriture : édite le texte de la ligne. ">
<polygon fill="white" stroke="black" points="193,-0.5 193,-19.5 300,-19.5 300,-0.5 193,-0.5"/>
<text text-anchor="middle" x="246.5" y="-7.5" font-family="Helvetica,sans-Serif" font-size="10.00">FLineFrame::setText</text>
</a>
</g>
</g>
<!-- Node10&#45;&gt;Node13 -->
<g id="edge3" class="edge"><title>Node10&#45;&gt;Node13</title>
<path fill="none" stroke="midnightblue" d="M140.572,-32.9814C157.75,-29.219 175.924,-25.2386 192.233,-21.6666"/>
<polygon fill="midnightblue" stroke="midnightblue" points="193.101,-25.0594 202.121,-19.5009 191.603,-18.2215 193.101,-25.0594"/>
</g>
</g>
</svg>
