<?xml version="1.0" encoding="UTF-8" standalone="no"?>
<!DOCTYPE svg PUBLIC "-//W3C//DTD SVG 1.1//EN"
 "http://www.w3.org/Graphics/SVG/1.1/DTD/svg11.dtd">
<!-- Generated by graphviz version 2.38.0 (20140413.2041)
 -->
<!-- Title: FLineEdit Pages: 1 -->
<svg width="220pt" height="573pt"
 viewBox="0.00 0.00 219.50 573.00" xmlns="http://www.w3.org/2000/svg" xmlns:xlink="http://www.w3.org/1999/xlink">
<g id="graph0" class="graph" transform="scale(1 1) rotate(0) translate(4 569)">
<title>FLineEdit</title>
<polygon fill="white" stroke="none" points="-4,4 -4,-569 215.5,-569 215.5,4 -4,4"/>
<!-- Node5 -->
<g id="node1" class="node"><title>Node5</title>
<polygon fill="#bfbfbf" stroke="black" points="28.5,-0.5 28.5,-145.5 144.5,-145.5 144.5,-0.5 28.5,-0.5"/>
<text text-anchor="middle" x="86.5" y="-133.5" font-family="Helvetica,sans-Serif" font-size="10.00">FLineEdit</text>
<polyline fill="none" stroke="black" points="28.5,-126.5 144.5,-126.5 "/>
<text text-anchor="middle" x="86.5" y="-114.5" font-family="Helvetica,sans-Serif" font-size="10.00"> </text>
<polyline fill="none" stroke="black" points="28.5,-107.5 144.5,-107.5 "/>
<text text-anchor="start" x="36.5" y="-95.5" font-family="Helvetica,sans-Serif" font-size="10.00">+ FLineEdit()</text>
<text text-anchor="start" x="36.5" y="-84.5" font-family="Helvetica,sans-Serif" font-size="10.00">+ FLineEdit()</text>
<text text-anchor="start" x="36.5" y="-73.5" font-family="Helvetica,sans-Serif" font-size="10.00">+ FLineEdit()</text>
<text text-anchor="start" x="36.5" y="-62.5" font-family="Helvetica,sans-Serif" font-size="10.00">+ FLineEdit()</text>
<text text-anchor="start" x="36.5" y="-51.5" font-family="Helvetica,sans-Serif" font-size="10.00">+ FLineEdit()</text>
<text text-anchor="start" x="36.5" y="-40.5" font-family="Helvetica,sans-Serif" font-size="10.00">+ FLineEdit()</text>
<text text-anchor="start" x="36.5" y="-29.5" font-family="Helvetica,sans-Serif" font-size="10.00">+ isAbstractEnabled()</text>
<text text-anchor="start" x="36.5" y="-18.5" font-family="Helvetica,sans-Serif" font-size="10.00">+ setWidgetFromXml()</text>
<text text-anchor="start" x="36.5" y="-7.5" font-family="Helvetica,sans-Serif" font-size="10.00">+ setXmlFromWidget()</text>
</g>
<!-- Node6 -->
<g id="node2" class="node"><title>Node6</title>
<polygon fill="white" stroke="#bfbfbf" points="0,-298 0,-355 59,-355 59,-298 0,-298"/>
<text text-anchor="middle" x="29.5" y="-343" font-family="Helvetica,sans-Serif" font-size="10.00">QLineEdit</text>
<polyline fill="none" stroke="#bfbfbf" points="0,-336 59,-336 "/>
<text text-anchor="middle" x="29.5" y="-324" font-family="Helvetica,sans-Serif" font-size="10.00"> </text>
<polyline fill="none" stroke="#bfbfbf" points="0,-317 59,-317 "/>
<text text-anchor="middle" x="29.5" y="-305" font-family="Helvetica,sans-Serif" font-size="10.00"> </text>
</g>
<!-- Node6&#45;&gt;Node5 -->
<g id="edge1" class="edge"><title>Node6&#45;&gt;Node5</title>
<path fill="none" stroke="midnightblue" d="M38.0813,-287.637C46.5719,-250.174 59.78,-191.896 70.2576,-145.666"/>
<polygon fill="none" stroke="midnightblue" points="34.6148,-287.098 35.8178,-297.624 41.4416,-288.645 34.6148,-287.098"/>
</g>
<!-- Node7 -->
<g id="node3" class="node"><title>Node7</title>
<g id="a_node3"><a xlink:href="class_f_abstract_widget.html" target="_top" xlink:title="{FAbstractWidget\n|+ commandLineList\l+ commandLineType\l+ disabledObjects\l+ enabledObjects\l+ optionLabel\l+ status\l# componentList\l# description\l# hashKey\l# widgetDepth\l|+ commandLineStringList()\l+ getComponentList()\l+ getDepth()\l+ getDescription()\l+ getHashKey()\l+ isAbstractDisabled()\l+ isAbstractEnabled()\l+ setDisableObjects()\l+ setHashKey()\l+ setWidgetFromXml()\l+ setXmlFromWidget()\l# FCore()\l# FCore()\l}">
<polygon fill="white" stroke="black" points="77.5,-182.5 77.5,-470.5 211.5,-470.5 211.5,-182.5 77.5,-182.5"/>
<text text-anchor="middle" x="144.5" y="-458.5" font-family="Helvetica,sans-Serif" font-size="10.00">FAbstractWidget</text>
<polyline fill="none" stroke="black" points="77.5,-451.5 211.5,-451.5 "/>
<text text-anchor="start" x="85.5" y="-439.5" font-family="Helvetica,sans-Serif" font-size="10.00">+ commandLineList</text>
<text text-anchor="start" x="85.5" y="-428.5" font-family="Helvetica,sans-Serif" font-size="10.00">+ commandLineType</text>
<text text-anchor="start" x="85.5" y="-417.5" font-family="Helvetica,sans-Serif" font-size="10.00">+ disabledObjects</text>
<text text-anchor="start" x="85.5" y="-406.5" font-family="Helvetica,sans-Serif" font-size="10.00">+ enabledObjects</text>
<text text-anchor="start" x="85.5" y="-395.5" font-family="Helvetica,sans-Serif" font-size="10.00">+ optionLabel</text>
<text text-anchor="start" x="85.5" y="-384.5" font-family="Helvetica,sans-Serif" font-size="10.00">+ status</text>
<text text-anchor="start" x="85.5" y="-373.5" font-family="Helvetica,sans-Serif" font-size="10.00"># componentList</text>
<text text-anchor="start" x="85.5" y="-362.5" font-family="Helvetica,sans-Serif" font-size="10.00"># description</text>
<text text-anchor="start" x="85.5" y="-351.5" font-family="Helvetica,sans-Serif" font-size="10.00"># hashKey</text>
<text text-anchor="start" x="85.5" y="-340.5" font-family="Helvetica,sans-Serif" font-size="10.00"># widgetDepth</text>
<polyline fill="none" stroke="black" points="77.5,-333.5 211.5,-333.5 "/>
<text text-anchor="start" x="85.5" y="-321.5" font-family="Helvetica,sans-Serif" font-size="10.00">+ commandLineStringList()</text>
<text text-anchor="start" x="85.5" y="-310.5" font-family="Helvetica,sans-Serif" font-size="10.00">+ getComponentList()</text>
<text text-anchor="start" x="85.5" y="-299.5" font-family="Helvetica,sans-Serif" font-size="10.00">+ getDepth()</text>
<text text-anchor="start" x="85.5" y="-288.5" font-family="Helvetica,sans-Serif" font-size="10.00">+ getDescription()</text>
<text text-anchor="start" x="85.5" y="-277.5" font-family="Helvetica,sans-Serif" font-size="10.00">+ getHashKey()</text>
<text text-anchor="start" x="85.5" y="-266.5" font-family="Helvetica,sans-Serif" font-size="10.00">+ isAbstractDisabled()</text>
<text text-anchor="start" x="85.5" y="-255.5" font-family="Helvetica,sans-Serif" font-size="10.00">+ isAbstractEnabled()</text>
<text text-anchor="start" x="85.5" y="-244.5" font-family="Helvetica,sans-Serif" font-size="10.00">+ setDisableObjects()</text>
<text text-anchor="start" x="85.5" y="-233.5" font-family="Helvetica,sans-Serif" font-size="10.00">+ setHashKey()</text>
<text text-anchor="start" x="85.5" y="-222.5" font-family="Helvetica,sans-Serif" font-size="10.00">+ setWidgetFromXml()</text>
<text text-anchor="start" x="85.5" y="-211.5" font-family="Helvetica,sans-Serif" font-size="10.00">+ setXmlFromWidget()</text>
<text text-anchor="start" x="85.5" y="-200.5" font-family="Helvetica,sans-Serif" font-size="10.00"># FCore()</text>
<text text-anchor="start" x="85.5" y="-189.5" font-family="Helvetica,sans-Serif" font-size="10.00"># FCore()</text>
</a>
</g>
</g>
<!-- Node7&#45;&gt;Node5 -->
<g id="edge2" class="edge"><title>Node7&#45;&gt;Node5</title>
<path fill="none" stroke="midnightblue" d="M109.263,-172.704C107.113,-163.383 105.012,-154.271 103.008,-145.584"/>
<polygon fill="none" stroke="midnightblue" points="105.86,-173.526 111.518,-182.483 112.681,-171.953 105.86,-173.526"/>
</g>
<!-- Node8 -->
<g id="node4" class="node"><title>Node8</title>
<g id="a_node4"><a xlink:href="classflags.html" target="_top" xlink:title="{flags\n||}">
<polygon fill="white" stroke="black" points="125.5,-507.5 125.5,-564.5 163.5,-564.5 163.5,-507.5 125.5,-507.5"/>
<text text-anchor="middle" x="144.5" y="-552.5" font-family="Helvetica,sans-Serif" font-size="10.00">flags</text>
<polyline fill="none" stroke="black" points="125.5,-545.5 163.5,-545.5 "/>
<text text-anchor="middle" x="144.5" y="-533.5" font-family="Helvetica,sans-Serif" font-size="10.00"> </text>
<polyline fill="none" stroke="black" points="125.5,-526.5 163.5,-526.5 "/>
<text text-anchor="middle" x="144.5" y="-514.5" font-family="Helvetica,sans-Serif" font-size="10.00"> </text>
</a>
</g>
</g>
<!-- Node8&#45;&gt;Node7 -->
<g id="edge3" class="edge"><title>Node8&#45;&gt;Node7</title>
<path fill="none" stroke="midnightblue" d="M144.5,-497.377C144.5,-489.29 144.5,-480.284 144.5,-470.756"/>
<polygon fill="none" stroke="midnightblue" points="141,-497.446 144.5,-507.446 148,-497.446 141,-497.446"/>
</g>
</g>
</svg>
