<?xml version="1.0" encoding="UTF-8" standalone="no"?>
<!DOCTYPE svg PUBLIC "-//W3C//DTD SVG 1.1//EN"
 "http://www.w3.org/Graphics/SVG/1.1/DTD/svg11.dtd">
<!-- Generated by graphviz version 2.38.0 (20140413.2041)
 -->
<!-- Title: FListFrame::FListFrame Pages: 1 -->
<!--zoomable 436 -->
<svg id="main" version="1.1" xmlns="http://www.w3.org/2000/svg" xmlns:xlink="http://www.w3.org/1999/xlink" xml:space="preserve" onload="init(evt)">
<style type="text/css"><![CDATA[
.edge:hover path { stroke: red; }
.edge:hover polygon { stroke: red; fill: red; }
]]></style>
<script type="text/javascript"><![CDATA[
var edges = document.getElementsByTagName('g');
if (edges && edges.length) {
  for (var i=0;i<edges.length;i++) {
    if (edges[i].id.substr(0,4)=='edge') {
      edges[i].setAttribute('class','edge');
    }
  }
}
]]></script>
        <defs>
                <circle id="rim" cx="0" cy="0" r="7"/>
                <circle id="rim2" cx="0" cy="0" r="3.5"/>
                <g id="zoomPlus">
                        <use xlink:href="#rim" fill="#404040">
                                <set attributeName="fill" to="#808080" begin="zoomplus.mouseover" end="zoomplus.mouseout"/>
                        </use>
                        <path d="M-4,0h8M0,-4v8" fill="none" stroke="white" stroke-width="1.5" pointer-events="none"/>
                </g>
                <g id="zoomMin">
                        <use xlink:href="#rim" fill="#404040">
                                <set attributeName="fill" to="#808080" begin="zoomminus.mouseover" end="zoomminus.mouseout"/>
                        </use>
                        <path d="M-4,0h8" fill="none" stroke="white" stroke-width="1.5" pointer-events="none"/>
                </g>
                <g id="dirArrow">
                        <path fill="none" stroke="white" stroke-width="1.5" d="M0,-3.0v7 M-2.5,-0.5L0,-3.0L2.5,-0.5"/>
                </g>
               <g id="resetDef">
                       <use xlink:href="#rim2" fill="#404040">
                               <set attributeName="fill" to="#808080" begin="reset.mouseover" end="reset.mouseout"/>
                       </use>
               </g>
        </defs>

<script type="text/javascript">
var viewWidth = 1027;
var viewHeight = 436;
var sectionId = 'dynsection-2';
</script>
<script xlink:href="svgpan.js"/>
<svg id="graph" class="graph">
<g id="viewport">
<title>FListFrame::FListFrame</title>
<polygon fill="white" stroke="none" points="-4,4 -4,-432 1023,-432 1023,4 -4,4"/>
<!-- Node0 -->
<g id="node1" class="node"><title>Node0</title>
<polygon fill="#bfbfbf" stroke="black" points="0,-229.5 0,-248.5 122,-248.5 122,-229.5 0,-229.5"/>
<text text-anchor="middle" x="61" y="-236.5" font-family="Helvetica,sans-Serif" font-size="10.00">FListFrame::FListFrame</text>
</g>
<!-- Node1 -->
<g id="node2" class="node"><title>Node1</title>
<g id="a_node2"><a xlink:href="class_f_list_frame.html#a1fda46dc7cfe6a661d2e2d1c66638134" target="_top" xlink:title="FListFrame::deleteGroup">
<polygon fill="white" stroke="black" points="338.5,-202.5 338.5,-221.5 463.5,-221.5 463.5,-202.5 338.5,-202.5"/>
<text text-anchor="middle" x="401" y="-209.5" font-family="Helvetica,sans-Serif" font-size="10.00">FListFrame::deleteGroup</text>
</a>
</g>
</g>
<!-- Node0&#45;&gt;Node1 -->
<g id="edge1" class="edge"><title>Node0&#45;&gt;Node1</title>
<path fill="none" stroke="midnightblue" d="M79.3041,-248.599C119.295,-269.416 220.479,-314.191 296,-280 318.091,-269.999 312.181,-252.973 332,-239 339.7,-233.571 348.646,-229.022 357.471,-225.298"/>
<polygon fill="midnightblue" stroke="midnightblue" points="358.907,-228.494 366.933,-221.578 356.346,-221.979 358.907,-228.494"/>
</g>
<!-- Node3 -->
<g id="node4" class="node"><title>Node3</title>
<g id="a_node4"><a xlink:href="class_f_list_frame.html#aa993bd2e0b975a839c6f8b46dea4690c" target="_top" xlink:title="FListFrame::finalise">
<polygon fill="white" stroke="black" points="175.5,-327.5 175.5,-346.5 278.5,-346.5 278.5,-327.5 175.5,-327.5"/>
<text text-anchor="middle" x="227" y="-334.5" font-family="Helvetica,sans-Serif" font-size="10.00">FListFrame::finalise</text>
</a>
</g>
</g>
<!-- Node0&#45;&gt;Node3 -->
<g id="edge3" class="edge"><title>Node0&#45;&gt;Node3</title>
<path fill="none" stroke="midnightblue" d="M72.1645,-248.628C88.8943,-264.04 123.798,-294.404 158,-313 165.668,-317.169 174.203,-320.848 182.564,-323.993"/>
<polygon fill="midnightblue" stroke="midnightblue" points="181.642,-327.38 192.237,-327.439 183.991,-320.786 181.642,-327.38"/>
</g>
<!-- Node9 -->
<g id="node10" class="node"><title>Node9</title>
<g id="a_node10"><a xlink:href="struct_abstract.html#af7b700041c9d75de3f642f15ece3e6ae" target="_top" xlink:title="Réinitialiser toutes les valeurs du de la table de hachage Hash::wrapper. ">
<polygon fill="white" stroke="black" points="187,-251.5 187,-270.5 267,-270.5 267,-251.5 187,-251.5"/>
<text text-anchor="middle" x="227" y="-258.5" font-family="Helvetica,sans-Serif" font-size="10.00">Abstract::initH</text>
</a>
</g>
</g>
<!-- Node0&#45;&gt;Node9 -->
<g id="edge10" class="edge"><title>Node0&#45;&gt;Node9</title>
<path fill="none" stroke="midnightblue" d="M122.136,-247.067C140.003,-249.464 159.363,-252.061 176.473,-254.356"/>
<polygon fill="midnightblue" stroke="midnightblue" points="176.426,-257.881 186.803,-255.742 177.357,-250.943 176.426,-257.881"/>
</g>
<!-- Node10 -->
<g id="node11" class="node"><title>Node10</title>
<g id="a_node11"><a xlink:href="class_f_list_frame.html#a018583305b4464d69c66805aceb1a2ac" target="_top" xlink:title="Initialise le conteneur de composants widgetContainer à blanc. ">
<polygon fill="white" stroke="black" points="158,-202 158,-232 296,-232 296,-202 158,-202"/>
<text text-anchor="start" x="166" y="-220" font-family="Helvetica,sans-Serif" font-size="10.00">FListFrame::initializeWidget</text>
<text text-anchor="middle" x="227" y="-209" font-family="Helvetica,sans-Serif" font-size="10.00">Container</text>
</a>
</g>
</g>
<!-- Node0&#45;&gt;Node10 -->
<g id="edge11" class="edge"><title>Node0&#45;&gt;Node10</title>
<path fill="none" stroke="midnightblue" d="M122.136,-230.933C130.481,-229.814 139.152,-228.65 147.767,-227.495"/>
<polygon fill="midnightblue" stroke="midnightblue" points="148.386,-230.943 157.831,-226.145 147.455,-224.005 148.386,-230.943"/>
</g>
<!-- Node11 -->
<g id="node12" class="node"><title>Node11</title>
<g id="a_node12"><a xlink:href="class_f_list_frame.html#a3b18347a90f89b4423e8a543f0c1c47c" target="_top" xlink:title="FListFrame::on_deleteItem\l_clicked">
<polygon fill="white" stroke="black" points="160,-153 160,-183 294,-183 294,-153 160,-153"/>
<text text-anchor="start" x="168" y="-171" font-family="Helvetica,sans-Serif" font-size="10.00">FListFrame::on_deleteItem</text>
<text text-anchor="middle" x="227" y="-160" font-family="Helvetica,sans-Serif" font-size="10.00">_clicked</text>
</a>
</g>
</g>
<!-- Node0&#45;&gt;Node11 -->
<g id="edge12" class="edge"><title>Node0&#45;&gt;Node11</title>
<path fill="none" stroke="midnightblue" d="M80.1123,-229.348C99.1992,-219.363 130.279,-203.632 158,-192 162.387,-190.159 166.97,-188.336 171.593,-186.566"/>
<polygon fill="midnightblue" stroke="midnightblue" points="172.949,-189.796 181.093,-183.019 170.5,-183.238 172.949,-189.796"/>
</g>
<!-- Node12 -->
<g id="node13" class="node"><title>Node12</title>
<g id="a_node13"><a xlink:href="class_f_list_frame.html#ac14c494842340a0438766256c01f83bc" target="_top" xlink:title="FListFrame::on_importFrom\lMainTree_clicked">
<polygon fill="white" stroke="black" points="158.5,-104 158.5,-134 295.5,-134 295.5,-104 158.5,-104"/>
<text text-anchor="start" x="166.5" y="-122" font-family="Helvetica,sans-Serif" font-size="10.00">FListFrame::on_importFrom</text>
<text text-anchor="middle" x="227" y="-111" font-family="Helvetica,sans-Serif" font-size="10.00">MainTree_clicked</text>
</a>
</g>
</g>
<!-- Node0&#45;&gt;Node12 -->
<g id="edge15" class="edge"><title>Node0&#45;&gt;Node12</title>
<path fill="none" stroke="midnightblue" d="M69.1312,-229.42C83.7686,-210.379 119.116,-167.506 158,-143 160.565,-141.383 163.253,-139.858 166.019,-138.421"/>
<polygon fill="midnightblue" stroke="midnightblue" points="167.525,-141.58 175.056,-134.128 164.521,-135.257 167.525,-141.58"/>
</g>
<!-- Node2 -->
<g id="node3" class="node"><title>Node2</title>
<g id="a_node3"><a xlink:href="class_f_list_frame.html#a356ad4309df1e931fb3ee12ad88054fb" target="_top" xlink:title="Actualise currentWidget, row et currentIndex. ">
<polygon fill="white" stroke="black" points="506,-202.5 506,-221.5 648,-221.5 648,-202.5 506,-202.5"/>
<text text-anchor="middle" x="577" y="-209.5" font-family="Helvetica,sans-Serif" font-size="10.00">FListFrame::updateIndexInfo</text>
</a>
</g>
</g>
<!-- Node1&#45;&gt;Node2 -->
<g id="edge2" class="edge"><title>Node1&#45;&gt;Node2</title>
<path fill="none" stroke="midnightblue" d="M463.836,-212C474.125,-212 484.928,-212 495.598,-212"/>
<polygon fill="midnightblue" stroke="midnightblue" points="495.766,-215.5 505.766,-212 495.766,-208.5 495.766,-215.5"/>
</g>
<!-- Node3&#45;&gt;Node2 -->
<g id="edge6" class="edge"><title>Node3&#45;&gt;Node2</title>
<path fill="none" stroke="midnightblue" d="M247.481,-327.357C261.315,-320.281 280.168,-310.168 296,-300 312.828,-289.192 313.941,-281.595 332,-273 364.679,-257.446 457.348,-236.457 518.613,-223.595"/>
<polygon fill="midnightblue" stroke="midnightblue" points="519.462,-226.993 528.537,-221.525 518.033,-220.141 519.462,-226.993"/>
</g>
<!-- Node4 -->
<g id="node5" class="node"><title>Node4</title>
<g id="a_node5"><a xlink:href="class_f_list_frame.html#a5c6ce884a0169251e359364921d1f89c" target="_top" xlink:title="FListFrame::addNewTab">
<polygon fill="white" stroke="black" points="338.5,-282.5 338.5,-301.5 463.5,-301.5 463.5,-282.5 338.5,-282.5"/>
<text text-anchor="middle" x="401" y="-289.5" font-family="Helvetica,sans-Serif" font-size="10.00">FListFrame::addNewTab</text>
</a>
</g>
</g>
<!-- Node3&#45;&gt;Node4 -->
<g id="edge4" class="edge"><title>Node3&#45;&gt;Node4</title>
<path fill="none" stroke="midnightblue" d="M264.477,-327.457C290.473,-320.655 325.628,-311.458 353.618,-304.135"/>
<polygon fill="midnightblue" stroke="midnightblue" points="354.787,-307.447 363.576,-301.53 353.016,-300.675 354.787,-307.447"/>
</g>
<!-- Node6 -->
<g id="node7" class="node"><title>Node6</title>
<g id="a_node7"><a xlink:href="class_f_list_widget.html#aac6eaaeb9946354f743394b54c84a6a7" target="_top" xlink:title="FListWidget::setTabLabels">
<polygon fill="white" stroke="black" points="334,-408.5 334,-427.5 468,-427.5 468,-408.5 334,-408.5"/>
<text text-anchor="middle" x="401" y="-415.5" font-family="Helvetica,sans-Serif" font-size="10.00">FListWidget::setTabLabels</text>
</a>
</g>
</g>
<!-- Node3&#45;&gt;Node6 -->
<g id="edge7" class="edge"><title>Node3&#45;&gt;Node6</title>
<path fill="none" stroke="midnightblue" d="M241.503,-346.654C260.764,-360.041 297.611,-384.256 332,-399 337.485,-401.352 343.343,-403.496 349.235,-405.427"/>
<polygon fill="midnightblue" stroke="midnightblue" points="348.533,-408.873 359.12,-408.474 350.595,-402.184 348.533,-408.873"/>
</g>
<!-- Node7 -->
<g id="node8" class="node"><title>Node7</title>
<g id="a_node8"><a xlink:href="class_hash.html#a2ac10203aa8b32a04d9088e08ddbaab4" target="_top" xlink:title="Hash::createReference">
<polygon fill="white" stroke="black" points="342,-370.5 342,-389.5 460,-389.5 460,-370.5 342,-370.5"/>
<text text-anchor="middle" x="401" y="-377.5" font-family="Helvetica,sans-Serif" font-size="10.00">Hash::createReference</text>
</a>
</g>
</g>
<!-- Node3&#45;&gt;Node7 -->
<g id="edge8" class="edge"><title>Node3&#45;&gt;Node7</title>
<path fill="none" stroke="midnightblue" d="M266.172,-346.543C291.447,-352.862 324.802,-361.201 351.89,-367.972"/>
<polygon fill="midnightblue" stroke="midnightblue" points="351.384,-371.454 361.934,-370.484 353.082,-364.663 351.384,-371.454"/>
</g>
<!-- Node8 -->
<g id="node9" class="node"><title>Node8</title>
<g id="a_node9"><a xlink:href="class_f_list_frame.html#a560addf9867fbd5d05fbdb024e5b272c" target="_top" xlink:title="FListFrame::setStrikeOut\lFileNames">
<polygon fill="white" stroke="black" points="337.5,-321 337.5,-351 464.5,-351 464.5,-321 337.5,-321"/>
<text text-anchor="start" x="345.5" y="-339" font-family="Helvetica,sans-Serif" font-size="10.00">FListFrame::setStrikeOut</text>
<text text-anchor="middle" x="401" y="-328" font-family="Helvetica,sans-Serif" font-size="10.00">FileNames</text>
</a>
</g>
</g>
<!-- Node3&#45;&gt;Node8 -->
<g id="edge9" class="edge"><title>Node3&#45;&gt;Node8</title>
<path fill="none" stroke="midnightblue" d="M278.675,-336.705C293.939,-336.617 310.999,-336.517 327.394,-336.422"/>
<polygon fill="midnightblue" stroke="midnightblue" points="327.514,-339.922 337.494,-336.363 327.473,-332.922 327.514,-339.922"/>
</g>
<!-- Node5 -->
<g id="node6" class="node"><title>Node5</title>
<g id="a_node6"><a xlink:href="class_f_list_frame.html#a4bf0d0d8e56418df395b020d2e66db5f" target="_top" xlink:title="Récupère la taille courante (0&#45;based) du conteneur FListFrame::widgetContainer. ">
<polygon fill="white" stroke="black" points="522.5,-282.5 522.5,-301.5 631.5,-301.5 631.5,-282.5 522.5,-282.5"/>
<text text-anchor="middle" x="577" y="-289.5" font-family="Helvetica,sans-Serif" font-size="10.00">FListFrame::getRank</text>
</a>
</g>
</g>
<!-- Node4&#45;&gt;Node5 -->
<g id="edge5" class="edge"><title>Node4&#45;&gt;Node5</title>
<path fill="none" stroke="midnightblue" d="M463.836,-292C479.541,-292 496.443,-292 512.242,-292"/>
<polygon fill="midnightblue" stroke="midnightblue" points="512.441,-295.5 522.441,-292 512.441,-288.5 512.441,-295.5"/>
</g>
<!-- Node11&#45;&gt;Node1 -->
<g id="edge14" class="edge"><title>Node11&#45;&gt;Node1</title>
<path fill="none" stroke="midnightblue" d="M286.712,-183.019C308.373,-188.56 332.61,-194.761 353.091,-200"/>
<polygon fill="midnightblue" stroke="midnightblue" points="352.26,-203.4 362.815,-202.488 353.995,-196.618 352.26,-203.4"/>
</g>
<!-- Node11&#45;&gt;Node2 -->
<g id="edge13" class="edge"><title>Node11&#45;&gt;Node2</title>
<path fill="none" stroke="midnightblue" d="M294.154,-173.496C342.888,-177.87 410.715,-184.636 470,-193 485.414,-195.175 502.014,-197.944 517.399,-200.692"/>
<polygon fill="midnightblue" stroke="midnightblue" points="516.844,-204.149 527.308,-202.489 518.093,-197.261 516.844,-204.149"/>
</g>
<!-- Node13 -->
<g id="node14" class="node"><title>Node13</title>
<g id="a_node14"><a xlink:href="class_f_list_frame.html#a4228ed10f2d800b92ff34e2f25edcd8c" target="_top" xlink:title="Ajoute les fichiers d&#39;une portion d&#39;arborescence de fichiers au composant courant de l&#39;onglet central...">
<polygon fill="white" stroke="black" points="332,-104 332,-134 470,-134 470,-104 332,-104"/>
<text text-anchor="start" x="340" y="-122" font-family="Helvetica,sans-Serif" font-size="10.00">FListFrame::addParsedTree</text>
<text text-anchor="middle" x="401" y="-111" font-family="Helvetica,sans-Serif" font-size="10.00">ToListWidget</text>
</a>
</g>
</g>
<!-- Node12&#45;&gt;Node13 -->
<g id="edge16" class="edge"><title>Node12&#45;&gt;Node13</title>
<path fill="none" stroke="midnightblue" d="M295.979,-119C304.483,-119 313.233,-119 321.876,-119"/>
<polygon fill="midnightblue" stroke="midnightblue" points="321.952,-122.5 331.952,-119 321.952,-115.5 321.952,-122.5"/>
</g>
<!-- Node14 -->
<g id="node15" class="node"><title>Node14</title>
<g id="a_node15"><a xlink:href="class_f_list_frame.html#ae166a8e51ccbb22a5aa2f1d885507565" target="_top" xlink:title="FListFrame::parseTreeFor\lFilePaths">
<polygon fill="white" stroke="black" points="512,-132 512,-162 642,-162 642,-132 512,-132"/>
<text text-anchor="start" x="520" y="-150" font-family="Helvetica,sans-Serif" font-size="10.00">FListFrame::parseTreeFor</text>
<text text-anchor="middle" x="577" y="-139" font-family="Helvetica,sans-Serif" font-size="10.00">FilePaths</text>
</a>
</g>
</g>
<!-- Node13&#45;&gt;Node14 -->
<g id="edge17" class="edge"><title>Node13&#45;&gt;Node14</title>
<path fill="none" stroke="midnightblue" d="M470.27,-129.986C480.66,-131.658 491.424,-133.39 501.93,-135.081"/>
<polygon fill="midnightblue" stroke="midnightblue" points="501.475,-138.552 511.904,-136.686 502.587,-131.641 501.475,-138.552"/>
</g>
<!-- Node15 -->
<g id="node16" class="node"><title>Node15</title>
<g id="a_node16"><a xlink:href="class_f_list_frame.html#af8c91e66c02e4c6f1f0fb66097903b73" target="_top" xlink:title="FListFrame::addStringList\lToListWidget">
<polygon fill="white" stroke="black" points="512.5,-83 512.5,-113 641.5,-113 641.5,-83 512.5,-83"/>
<text text-anchor="start" x="520.5" y="-101" font-family="Helvetica,sans-Serif" font-size="10.00">FListFrame::addStringList</text>
<text text-anchor="middle" x="577" y="-90" font-family="Helvetica,sans-Serif" font-size="10.00">ToListWidget</text>
</a>
</g>
</g>
<!-- Node13&#45;&gt;Node15 -->
<g id="edge18" class="edge"><title>Node13&#45;&gt;Node15</title>
<path fill="none" stroke="midnightblue" d="M470.27,-110.761C480.804,-109.489 491.723,-108.171 502.368,-106.887"/>
<polygon fill="midnightblue" stroke="midnightblue" points="502.96,-110.341 512.468,-105.668 502.121,-103.391 502.96,-110.341"/>
</g>
<!-- Node16 -->
<g id="node17" class="node"><title>Node16</title>
<g id="a_node17"><a xlink:href="class_f_list_frame.html#a9353fe4926e97788a6462c3ee79f6a15" target="_top" xlink:title="FListFrame::clearTabLabels">
<polygon fill="white" stroke="black" points="694,-132.5 694,-151.5 832,-151.5 832,-132.5 694,-132.5"/>
<text text-anchor="middle" x="763" y="-139.5" font-family="Helvetica,sans-Serif" font-size="10.00">FListFrame::clearTabLabels</text>
</a>
</g>
</g>
<!-- Node15&#45;&gt;Node16 -->
<g id="edge19" class="edge"><title>Node15&#45;&gt;Node16</title>
<path fill="none" stroke="midnightblue" d="M640.808,-113.019C664.191,-118.611 690.38,-124.874 712.414,-130.143"/>
<polygon fill="midnightblue" stroke="midnightblue" points="711.681,-133.566 722.221,-132.488 713.309,-126.758 711.681,-133.566"/>
</g>
<!-- Node18 -->
<g id="node19" class="node"><title>Node18</title>
<g id="a_node19"><a xlink:href="class_f_list_frame.html#a0ebe3d7847101344e70c84aff2be39b0" target="_top" xlink:title="Accesseur en lecture du nombre d&#39;éléments (nombre d&#39;onglets) du vecteur widgetContainer. ">
<polygon fill="white" stroke="black" points="684,-83 684,-113 842,-113 842,-83 684,-83"/>
<text text-anchor="start" x="692" y="-101" font-family="Helvetica,sans-Serif" font-size="10.00">FListFrame::getWidgetContainer</text>
<text text-anchor="middle" x="763" y="-90" font-family="Helvetica,sans-Serif" font-size="10.00">Count</text>
</a>
</g>
</g>
<!-- Node15&#45;&gt;Node18 -->
<g id="edge21" class="edge"><title>Node15&#45;&gt;Node18</title>
<path fill="none" stroke="midnightblue" d="M641.58,-98C651.892,-98 662.732,-98 673.509,-98"/>
<polygon fill="midnightblue" stroke="midnightblue" points="673.801,-101.5 683.801,-98 673.801,-94.5001 673.801,-101.5"/>
</g>
<!-- Node19 -->
<g id="node20" class="node"><title>Node19</title>
<g id="a_node20"><a xlink:href="class_f_list_frame.html#a802475894ee1e30753faed81d9f9dc4b" target="_top" xlink:title="Appelle parseXhlFile(const QString&amp;) sur l&#39;ensemble de widgetContainer. ">
<polygon fill="white" stroke="black" points="700,-44.5 700,-63.5 826,-63.5 826,-44.5 700,-44.5"/>
<text text-anchor="middle" x="763" y="-51.5" font-family="Helvetica,sans-Serif" font-size="10.00">FListFrame::parseXhlFile</text>
</a>
</g>
</g>
<!-- Node15&#45;&gt;Node19 -->
<g id="edge22" class="edge"><title>Node15&#45;&gt;Node19</title>
<path fill="none" stroke="midnightblue" d="M640.808,-82.9808C664.191,-77.3892 690.38,-71.1265 712.414,-65.8574"/>
<polygon fill="midnightblue" stroke="midnightblue" points="713.309,-69.2423 722.221,-63.5124 711.681,-62.4342 713.309,-69.2423"/>
</g>
<!-- Node17 -->
<g id="node18" class="node"><title>Node17</title>
<g id="a_node18"><a xlink:href="class_f_list_widget.html#a74bf008958a87e9055b8ec6573d8e2e9" target="_top" xlink:title="FListWidget::clearTabLabels">
<polygon fill="white" stroke="black" points="878,-132.5 878,-151.5 1019,-151.5 1019,-132.5 878,-132.5"/>
<text text-anchor="middle" x="948.5" y="-139.5" font-family="Helvetica,sans-Serif" font-size="10.00">FListWidget::clearTabLabels</text>
</a>
</g>
</g>
<!-- Node16&#45;&gt;Node17 -->
<g id="edge20" class="edge"><title>Node16&#45;&gt;Node17</title>
<path fill="none" stroke="midnightblue" d="M832.068,-142C843.586,-142 855.638,-142 867.428,-142"/>
<polygon fill="midnightblue" stroke="midnightblue" points="867.702,-145.5 877.702,-142 867.702,-138.5 867.702,-145.5"/>
</g>
<!-- Node20 -->
<g id="node21" class="node"><title>Node20</title>
<g id="a_node21"><a xlink:href="classtools.html#a0aa994303a938a76300767d2251b9f85" target="_top" xlink:title="Détecte si un disque optique est monté. ">
<polygon fill="white" stroke="black" points="892,-0.5 892,-19.5 1005,-19.5 1005,-0.5 892,-0.5"/>
<text text-anchor="middle" x="948.5" y="-7.5" font-family="Helvetica,sans-Serif" font-size="10.00">tools::cdRomMounted</text>
</a>
</g>
</g>
<!-- Node19&#45;&gt;Node20 -->
<g id="edge23" class="edge"><title>Node19&#45;&gt;Node20</title>
<path fill="none" stroke="midnightblue" d="M803.817,-44.4527C831.35,-37.8508 868.186,-29.0181 897.667,-21.949"/>
<polygon fill="midnightblue" stroke="midnightblue" points="898.853,-25.264 907.761,-19.5287 897.22,-18.457 898.853,-25.264"/>
</g>
<!-- Node21 -->
<g id="node22" class="node"><title>Node21</title>
<g id="a_node22"><a xlink:href="class_f_list_frame.html#a22a50157e8c6d287c2b2c08d2b7deee9" target="_top" xlink:title="Lancer un fil d&#39;exécution pour lire l&#39;entête d&#39;un fichier XHL (Année, Mois,...) et classer les fichie...">
<polygon fill="white" stroke="black" points="898,-39 898,-69 999,-69 999,-39 898,-39"/>
<text text-anchor="start" x="906" y="-57" font-family="Helvetica,sans-Serif" font-size="10.00">FListFrame::launch</text>
<text text-anchor="middle" x="948.5" y="-46" font-family="Helvetica,sans-Serif" font-size="10.00">_thread</text>
</a>
</g>
</g>
<!-- Node19&#45;&gt;Node21 -->
<g id="edge24" class="edge"><title>Node19&#45;&gt;Node21</title>
<path fill="none" stroke="midnightblue" d="M826.125,-47.573C846.046,-47.124 868.055,-47.1431 887.8,-47.6302"/>
<polygon fill="midnightblue" stroke="midnightblue" points="887.796,-51.1315 897.895,-47.9276 888.003,-44.1346 887.796,-51.1315"/>
</g>
<!-- Node21&#45;&gt;Node19 -->
<g id="edge25" class="edge"><title>Node21&#45;&gt;Node19</title>
<path fill="none" stroke="midnightblue" d="M897.895,-60.0724C878.9,-60.7286 856.826,-60.9082 836.145,-60.6111"/>
<polygon fill="midnightblue" stroke="midnightblue" points="836.187,-57.1114 826.125,-60.427 836.059,-64.1102 836.187,-57.1114"/>
</g>
</g>
</svg>
        <g id="navigator" transform="translate(0 0)" fill="#404254">
                <rect fill="#f2f5e9" fill-opacity="0.5" stroke="#606060" stroke-width=".5" x="0" y="0" width="60" height="60"/>
                <use id="zoomplus" xlink:href="#zoomPlus" x="17" y="9" onmousedown="handleZoom(evt,'in')"/>
                <use id="zoomminus" xlink:href="#zoomMin" x="42" y="9" onmousedown="handleZoom(evt,'out')"/>
                <use id="reset" xlink:href="#resetDef" x="30" y="36" onmousedown="handleReset()"/>
                <g id="arrowUp" xlink:href="#dirArrow" transform="translate(30 24)" onmousedown="handlePan(0,-1)">
                  <use xlink:href="#rim" fill="#404040">
                        <set attributeName="fill" to="#808080" begin="arrowUp.mouseover" end="arrowUp.mouseout"/>
                  </use>
                  <path fill="none" stroke="white" stroke-width="1.5" d="M0,-3.0v7 M-2.5,-0.5L0,-3.0L2.5,-0.5"/>
                </g>
                <g id="arrowRight" xlink:href="#dirArrow" transform="rotate(90) translate(36 -43)" onmousedown="handlePan(1,0)">
                  <use xlink:href="#rim" fill="#404040">
                        <set attributeName="fill" to="#808080" begin="arrowRight.mouseover" end="arrowRight.mouseout"/>
                  </use>
                  <path fill="none" stroke="white" stroke-width="1.5" d="M0,-3.0v7 M-2.5,-0.5L0,-3.0L2.5,-0.5"/>
                </g>
                <g id="arrowDown" xlink:href="#dirArrow" transform="rotate(180) translate(-30 -48)" onmousedown="handlePan(0,1)">
                  <use xlink:href="#rim" fill="#404040">
                        <set attributeName="fill" to="#808080" begin="arrowDown.mouseover" end="arrowDown.mouseout"/>
                  </use>
                  <path fill="none" stroke="white" stroke-width="1.5" d="M0,-3.0v7 M-2.5,-0.5L0,-3.0L2.5,-0.5"/>
                </g>
                <g id="arrowLeft" xlink:href="#dirArrow" transform="rotate(270) translate(-36 17)" onmousedown="handlePan(-1,0)">
                  <use xlink:href="#rim" fill="#404040">
                        <set attributeName="fill" to="#808080" begin="arrowLeft.mouseover" end="arrowLeft.mouseout"/>
                  </use>
                  <path fill="none" stroke="white" stroke-width="1.5" d="M0,-3.0v7 M-2.5,-0.5L0,-3.0L2.5,-0.5"/>
                </g>
        </g>
        <svg viewBox="0 0 15 15" width="100%" height="30px" preserveAspectRatio="xMaxYMin meet">
         <g id="arrow_out" transform="scale(0.3 0.3)">
          <a xlink:href="class_f_list_frame_a865246df8a4d4000ac3c818abc6d7f71_cgraph_org.svg" target="_base">
           <rect id="button" ry="5" rx="5" y="6" x="6" height="38" width="38"
                fill="#f2f5e9" fill-opacity="0.5" stroke="#606060" stroke-width="1.0"/>
           <path id="arrow"
             d="M 11.500037,31.436501 C 11.940474,20.09759 22.043105,11.32322 32.158766,21.979434 L 37.068811,17.246167 C 37.068811,17.246167 37.088388,32 37.088388,32 L 22.160133,31.978069 C 22.160133,31.978069 26.997745,27.140456 26.997745,27.140456 C 18.528582,18.264221 13.291696,25.230495 11.500037,31.436501 z"
             style="fill:#404040;"/>
          </a>
         </g>
        </svg>
</svg>
