<?xml version="1.0" encoding="UTF-8" standalone="no"?>
<!DOCTYPE svg PUBLIC "-//W3C//DTD SVG 1.1//EN"
 "http://www.w3.org/Graphics/SVG/1.1/DTD/svg11.dtd">
<!-- Generated by graphviz version 2.38.0 (20140413.2041)
 -->
<!-- Title: FListFrame::getCurrentWidget Pages: 1 -->
<svg width="729pt" height="116pt"
 viewBox="0.00 0.00 729.00 115.50" xmlns="http://www.w3.org/2000/svg" xmlns:xlink="http://www.w3.org/1999/xlink">
<g id="graph0" class="graph" transform="scale(1 1) rotate(0) translate(4 111.5)">
<title>FListFrame::getCurrentWidget</title>
<polygon fill="white" stroke="none" points="-4,4 -4,-111.5 725,-111.5 725,4 -4,4"/>
<!-- Node139 -->
<g id="node1" class="node"><title>Node139</title>
<polygon fill="#bfbfbf" stroke="black" points="0,-50 0,-69 149,-69 149,-50 0,-50"/>
<text text-anchor="middle" x="74.5" y="-57" font-family="Helvetica,sans-Serif" font-size="10.00">FListFrame::getCurrentWidget</text>
</g>
<!-- Node140 -->
<g id="node2" class="node"><title>Node140</title>
<g id="a_node2"><a xlink:href="class_f_list_frame.html#a38151a18f0313c555c2cf71f19d54ab2" target="_top" xlink:title="Accesseur en lecture de /. ">
<polygon fill="white" stroke="black" points="185,-50 185,-69 323,-69 323,-50 185,-50"/>
<text text-anchor="middle" x="254" y="-57" font-family="Helvetica,sans-Serif" font-size="10.00">FListFrame::getCurrentRow</text>
</a>
</g>
</g>
<!-- Node139&#45;&gt;Node140 -->
<g id="edge1" class="edge"><title>Node139&#45;&gt;Node140</title>
<path fill="none" stroke="midnightblue" d="M159.267,-59.5C167.854,-59.5 176.504,-59.5 184.893,-59.5"/>
<polygon fill="midnightblue" stroke="midnightblue" points="159.234,-56.0001 149.234,-59.5 159.234,-63.0001 159.234,-56.0001"/>
</g>
<!-- Node141 -->
<g id="node3" class="node"><title>Node141</title>
<g id="a_node3"><a xlink:href="class_altair.html#a94c37375266a849cb43570457163db13" target="_top" xlink:title="Raffraîchit la valeur de row et currentIndex en fonction de l&#39;état de l&#39;onglet. ">
<polygon fill="white" stroke="black" points="359,-50 359,-69 474,-69 474,-50 359,-50"/>
<text text-anchor="middle" x="416.5" y="-57" font-family="Helvetica,sans-Serif" font-size="10.00">Altair::updateIndexInfo</text>
</a>
</g>
</g>
<!-- Node140&#45;&gt;Node141 -->
<g id="edge2" class="edge"><title>Node140&#45;&gt;Node141</title>
<path fill="none" stroke="midnightblue" d="M333.222,-59.5C341.907,-59.5 350.623,-59.5 358.963,-59.5"/>
<polygon fill="midnightblue" stroke="midnightblue" points="333.066,-56.0001 323.066,-59.5 333.066,-63.0001 333.066,-56.0001"/>
</g>
<!-- Node142 -->
<g id="node4" class="node"><title>Node142</title>
<g id="a_node4"><a xlink:href="class_altair.html#ab913abfdd0c6fbbceb9a051a4443d5fa" target="_top" xlink:title="Supprimer un onglet central. ">
<polygon fill="white" stroke="black" points="514.5,-88 514.5,-107 612.5,-107 612.5,-88 514.5,-88"/>
<text text-anchor="middle" x="563.5" y="-95" font-family="Helvetica,sans-Serif" font-size="10.00">Altair::deleteGroup</text>
</a>
</g>
</g>
<!-- Node141&#45;&gt;Node142 -->
<g id="edge3" class="edge"><title>Node141&#45;&gt;Node142</title>
<path fill="none" stroke="midnightblue" d="M463.993,-71.6843C484.124,-76.96 507.338,-83.0438 526.173,-87.9799"/>
<polygon fill="midnightblue" stroke="midnightblue" points="464.65,-68.2385 454.09,-69.089 462.876,-75.0098 464.65,-68.2385"/>
</g>
<!-- Node144 -->
<g id="node6" class="node"><title>Node144</title>
<g id="a_node6"><a xlink:href="class_altair.html#a1afa285a65e0bdff4c761ad05ec9f8df" target="_top" xlink:title="Fonction réimplémentée : fin du déplacement de la souris. ">
<polygon fill="white" stroke="black" points="519,-50 519,-69 608,-69 608,-50 519,-50"/>
<text text-anchor="middle" x="563.5" y="-57" font-family="Helvetica,sans-Serif" font-size="10.00">Altair::dropEvent</text>
</a>
</g>
</g>
<!-- Node141&#45;&gt;Node144 -->
<g id="edge5" class="edge"><title>Node141&#45;&gt;Node144</title>
<path fill="none" stroke="midnightblue" d="M484.531,-59.5C496.159,-59.5 507.976,-59.5 518.776,-59.5"/>
<polygon fill="midnightblue" stroke="midnightblue" points="484.392,-56.0001 474.392,-59.5 484.392,-63.0001 484.392,-56.0001"/>
</g>
<!-- Node145 -->
<g id="node7" class="node"><title>Node145</title>
<g id="a_node7"><a xlink:href="class_altair.html#a299584936cc20c9a1451977264eba1f5" target="_top" xlink:title="Ecrase un item d&#39;un onglet donné ">
<polygon fill="white" stroke="black" points="510,-0.5 510,-30.5 617,-30.5 617,-0.5 510,-0.5"/>
<text text-anchor="start" x="518" y="-18.5" font-family="Helvetica,sans-Serif" font-size="10.00">Altair::on_deleteItem</text>
<text text-anchor="middle" x="563.5" y="-7.5" font-family="Helvetica,sans-Serif" font-size="10.00">_clicked</text>
</a>
</g>
</g>
<!-- Node141&#45;&gt;Node145 -->
<g id="edge6" class="edge"><title>Node141&#45;&gt;Node145</title>
<path fill="none" stroke="midnightblue" d="M458.546,-47.0447C475.438,-41.9187 495.157,-35.9351 512.853,-30.5654"/>
<polygon fill="midnightblue" stroke="midnightblue" points="457.516,-43.6996 448.963,-49.9527 459.548,-50.398 457.516,-43.6996"/>
</g>
<!-- Node143 -->
<g id="node5" class="node"><title>Node143</title>
<g id="a_node5"><a xlink:href="class_altair.html#ae0975ced0a36e0ed889ae06043a4df66" target="_top" xlink:title="Constructeur. ">
<polygon fill="white" stroke="black" points="653,-47 653,-66 721,-66 721,-47 653,-47"/>
<text text-anchor="middle" x="687" y="-54" font-family="Helvetica,sans-Serif" font-size="10.00">Altair::Altair</text>
</a>
</g>
</g>
<!-- Node142&#45;&gt;Node143 -->
<g id="edge4" class="edge"><title>Node142&#45;&gt;Node143</title>
<path fill="none" stroke="midnightblue" d="M602.232,-84.7674C620.089,-78.7416 641.06,-71.665 657.552,-66.0997"/>
<polygon fill="midnightblue" stroke="midnightblue" points="601.036,-81.477 592.68,-87.9907 603.274,-88.1096 601.036,-81.477"/>
</g>
<!-- Node145&#45;&gt;Node143 -->
<g id="edge7" class="edge"><title>Node145&#45;&gt;Node143</title>
<path fill="none" stroke="midnightblue" d="M618.729,-33.7995C632.176,-38.3371 646.053,-43.0201 657.686,-46.9455"/>
<polygon fill="midnightblue" stroke="midnightblue" points="619.646,-30.4152 609.052,-30.5341 617.408,-37.0478 619.646,-30.4152"/>
</g>
</g>
</svg>
