<?xml version="1.0" encoding="UTF-8" standalone="no"?>
<!DOCTYPE svg PUBLIC "-//W3C//DTD SVG 1.1//EN"
 "http://www.w3.org/Graphics/SVG/1.1/DTD/svg11.dtd">
<!-- Generated by graphviz version 2.38.0 (20140413.2041)
 -->
<!-- Title: codePage Pages: 1 -->
<svg width="243pt" height="931pt"
 viewBox="0.00 0.00 243.00 931.00" xmlns="http://www.w3.org/2000/svg" xmlns:xlink="http://www.w3.org/1999/xlink">
<g id="graph0" class="graph" transform="scale(1 1) rotate(0) translate(4 927)">
<title>codePage</title>
<polygon fill="white" stroke="none" points="-4,4 -4,-927 239,-927 239,4 -4,4"/>
<!-- Node0 -->
<g id="node1" class="node"><title>Node0</title>
<polygon fill="#bfbfbf" stroke="black" points="0,-0.5 0,-310.5 117,-310.5 117,-0.5 0,-0.5"/>
<text text-anchor="middle" x="58.5" y="-298.5" font-family="Helvetica,sans-Serif" font-size="10.00">codePage</text>
<polyline fill="none" stroke="black" points="0,-291.5 117,-291.5 "/>
<text text-anchor="start" x="8" y="-279.5" font-family="Helvetica,sans-Serif" font-size="10.00">&#45; appliquerCodes</text>
<text text-anchor="start" x="8" y="-268.5" font-family="Helvetica,sans-Serif" font-size="10.00">&#45; baseBox</text>
<text text-anchor="start" x="8" y="-257.5" font-family="Helvetica,sans-Serif" font-size="10.00">&#45; init_label_text</text>
<text text-anchor="start" x="8" y="-246.5" font-family="Helvetica,sans-Serif" font-size="10.00">&#45; label</text>
<text text-anchor="start" x="8" y="-235.5" font-family="Helvetica,sans-Serif" font-size="10.00">&#45; listeCodes</text>
<text text-anchor="start" x="8" y="-224.5" font-family="Helvetica,sans-Serif" font-size="10.00">&#45; listeDialogueLabels</text>
<text text-anchor="start" x="8" y="-213.5" font-family="Helvetica,sans-Serif" font-size="10.00">&#45; listeLabels</text>
<text text-anchor="start" x="8" y="-202.5" font-family="Helvetica,sans-Serif" font-size="10.00">&#45; mainLayout</text>
<text text-anchor="start" x="8" y="-191.5" font-family="Helvetica,sans-Serif" font-size="10.00">&#45; prologue_codes_path</text>
<text text-anchor="start" x="8" y="-180.5" font-family="Helvetica,sans-Serif" font-size="10.00">&#45; variables</text>
<text text-anchor="start" x="8" y="-169.5" font-family="Helvetica,sans-Serif" font-size="10.00">&#45; vLayout</text>
<polyline fill="none" stroke="black" points="0,-162.5 117,-162.5 "/>
<text text-anchor="start" x="8" y="-150.5" font-family="Helvetica,sans-Serif" font-size="10.00">+ codePage()</text>
<text text-anchor="start" x="8" y="-139.5" font-family="Helvetica,sans-Serif" font-size="10.00">+ codePage()</text>
<text text-anchor="start" x="8" y="-128.5" font-family="Helvetica,sans-Serif" font-size="10.00">+ resetLabel()</text>
<text text-anchor="start" x="8" y="-117.5" font-family="Helvetica,sans-Serif" font-size="10.00">+ resetLabel()</text>
<text text-anchor="start" x="8" y="-106.5" font-family="Helvetica,sans-Serif" font-size="10.00">&#45; ajouterVariable()</text>
<text text-anchor="start" x="8" y="-95.5" font-family="Helvetica,sans-Serif" font-size="10.00">&#45; ajouterVariable()</text>
<text text-anchor="start" x="8" y="-84.5" font-family="Helvetica,sans-Serif" font-size="10.00">&#45; reinitialiser_prologue()</text>
<text text-anchor="start" x="8" y="-73.5" font-family="Helvetica,sans-Serif" font-size="10.00">&#45; reinitialiser_prologue()</text>
<text text-anchor="start" x="8" y="-62.5" font-family="Helvetica,sans-Serif" font-size="10.00">&#45; activer_fph()</text>
<text text-anchor="start" x="8" y="-51.5" font-family="Helvetica,sans-Serif" font-size="10.00">&#45; activer_fph()</text>
<text text-anchor="start" x="8" y="-40.5" font-family="Helvetica,sans-Serif" font-size="10.00">&#45; substituer_valeurs</text>
<text text-anchor="start" x="8" y="-29.5" font-family="Helvetica,sans-Serif" font-size="10.00">_dans_script_R()</text>
<text text-anchor="start" x="8" y="-18.5" font-family="Helvetica,sans-Serif" font-size="10.00">&#45; substituer_valeurs</text>
<text text-anchor="start" x="8" y="-7.5" font-family="Helvetica,sans-Serif" font-size="10.00">_dans_script_R()</text>
</g>
<!-- Node1 -->
<g id="node2" class="node"><title>Node1</title>
<polygon fill="white" stroke="#bfbfbf" points="5.5,-391.5 5.5,-448.5 57.5,-448.5 57.5,-391.5 5.5,-391.5"/>
<text text-anchor="middle" x="31.5" y="-436.5" font-family="Helvetica,sans-Serif" font-size="10.00">QDialog</text>
<polyline fill="none" stroke="#bfbfbf" points="5.5,-429.5 57.5,-429.5 "/>
<text text-anchor="middle" x="31.5" y="-417.5" font-family="Helvetica,sans-Serif" font-size="10.00"> </text>
<polyline fill="none" stroke="#bfbfbf" points="5.5,-410.5 57.5,-410.5 "/>
<text text-anchor="middle" x="31.5" y="-398.5" font-family="Helvetica,sans-Serif" font-size="10.00"> </text>
</g>
<!-- Node1&#45;&gt;Node0 -->
<g id="edge1" class="edge"><title>Node1&#45;&gt;Node0</title>
<path fill="none" stroke="midnightblue" d="M30.4745,-381.266C31.5105,-361.924 33.4963,-336.944 35.9819,-310.701"/>
<polygon fill="none" stroke="midnightblue" points="26.9714,-381.251 29.9995,-391.404 33.9638,-381.579 26.9714,-381.251"/>
</g>
<!-- Node1&#45;&gt;Node0 -->
<g id="edge5" class="edge"><title>Node1&#45;&gt;Node0</title>
<path fill="none" stroke="midnightblue" d="M40.2879,-381.266C43.2308,-361.924 46.3838,-336.944 49.2968,-310.701"/>
<polygon fill="none" stroke="midnightblue" points="36.7898,-380.979 38.6774,-391.404 43.7031,-382.077 36.7898,-380.979"/>
</g>
<!-- Node2 -->
<g id="node3" class="node"><title>Node2</title>
<g id="a_node3"><a xlink:href="classcommon.html" target="_top" xlink:title="Classe dérivée de la classe tools ajoutant des fonctionnalités de communication de l&#39;interface vers l...">
<polygon fill="white" stroke="black" points="114,-347.5 114,-492.5 235,-492.5 235,-347.5 114,-347.5"/>
<text text-anchor="middle" x="174.5" y="-480.5" font-family="Helvetica,sans-Serif" font-size="10.00">common</text>
<polyline fill="none" stroke="black" points="114,-473.5 235,-473.5 "/>
<text text-anchor="start" x="122" y="-461.5" font-family="Helvetica,sans-Serif" font-size="10.00">+ altairCommandStr</text>
<text text-anchor="start" x="122" y="-450.5" font-family="Helvetica,sans-Serif" font-size="10.00">+ execPath</text>
<text text-anchor="start" x="122" y="-439.5" font-family="Helvetica,sans-Serif" font-size="10.00">+ RAltairCommandStr</text>
<text text-anchor="start" x="122" y="-428.5" font-family="Helvetica,sans-Serif" font-size="10.00">+ RAltairDirStr</text>
<text text-anchor="start" x="122" y="-417.5" font-family="Helvetica,sans-Serif" font-size="10.00">+ sharedir</text>
<polyline fill="none" stroke="black" points="114,-410.5 235,-410.5 "/>
<text text-anchor="start" x="122" y="-398.5" font-family="Helvetica,sans-Serif" font-size="10.00">+ common()</text>
<text text-anchor="start" x="122" y="-387.5" font-family="Helvetica,sans-Serif" font-size="10.00">+ exporter_identification</text>
<text text-anchor="start" x="122" y="-376.5" font-family="Helvetica,sans-Serif" font-size="10.00">_controle()</text>
<text text-anchor="start" x="122" y="-365.5" font-family="Helvetica,sans-Serif" font-size="10.00">+ exporter_identification</text>
<text text-anchor="start" x="122" y="-354.5" font-family="Helvetica,sans-Serif" font-size="10.00">_controle()</text>
</a>
</g>
</g>
<!-- Node2&#45;&gt;Node0 -->
<g id="edge2" class="edge"><title>Node2&#45;&gt;Node0</title>
<path fill="none" stroke="midnightblue" d="M138.598,-337.756C131.738,-322.232 124.393,-305.611 117.036,-288.964"/>
<polygon fill="none" stroke="midnightblue" points="135.559,-339.539 142.802,-347.271 141.962,-336.709 135.559,-339.539"/>
</g>
<!-- Node3 -->
<g id="node4" class="node"><title>Node3</title>
<g id="a_node4"><a xlink:href="classtools.html" target="_top" xlink:title="{tools\n|+ htmlLogPath\l+ systemPathPrefix\l+ tempdir\l+ userdatadir\l|+ tools()\l+ dump()\l+ getEmbeddedPath()\l+ readFile()\l+ readFile()\l+ readFile()\l+ readFile()\l+ renommer()\l+ substituer()\l+ cdRomMounted()\l+ copyDir()\l+ copyFile()\l+ generateDatadirPath()\l+ generateDatadirPath()\l+ getDirectorySize()\l+ getFileSize()\l+ IOControl()\l+ openDir()\l+ openDirDialog()\let 6 de plus...\l}">
<polygon fill="white" stroke="black" points="69,-529.5 69,-828.5 190,-828.5 190,-529.5 69,-529.5"/>
<text text-anchor="middle" x="129.5" y="-816.5" font-family="Helvetica,sans-Serif" font-size="10.00">tools</text>
<polyline fill="none" stroke="black" points="69,-809.5 190,-809.5 "/>
<text text-anchor="start" x="77" y="-797.5" font-family="Helvetica,sans-Serif" font-size="10.00">+ htmlLogPath</text>
<text text-anchor="start" x="77" y="-786.5" font-family="Helvetica,sans-Serif" font-size="10.00">+ systemPathPrefix</text>
<text text-anchor="start" x="77" y="-775.5" font-family="Helvetica,sans-Serif" font-size="10.00">+ tempdir</text>
<text text-anchor="start" x="77" y="-764.5" font-family="Helvetica,sans-Serif" font-size="10.00">+ userdatadir</text>
<polyline fill="none" stroke="black" points="69,-757.5 190,-757.5 "/>
<text text-anchor="start" x="77" y="-745.5" font-family="Helvetica,sans-Serif" font-size="10.00">+ tools()</text>
<text text-anchor="start" x="77" y="-734.5" font-family="Helvetica,sans-Serif" font-size="10.00">+ dump()</text>
<text text-anchor="start" x="77" y="-723.5" font-family="Helvetica,sans-Serif" font-size="10.00">+ getEmbeddedPath()</text>
<text text-anchor="start" x="77" y="-712.5" font-family="Helvetica,sans-Serif" font-size="10.00">+ readFile()</text>
<text text-anchor="start" x="77" y="-701.5" font-family="Helvetica,sans-Serif" font-size="10.00">+ readFile()</text>
<text text-anchor="start" x="77" y="-690.5" font-family="Helvetica,sans-Serif" font-size="10.00">+ readFile()</text>
<text text-anchor="start" x="77" y="-679.5" font-family="Helvetica,sans-Serif" font-size="10.00">+ readFile()</text>
<text text-anchor="start" x="77" y="-668.5" font-family="Helvetica,sans-Serif" font-size="10.00">+ renommer()</text>
<text text-anchor="start" x="77" y="-657.5" font-family="Helvetica,sans-Serif" font-size="10.00">+ substituer()</text>
<text text-anchor="start" x="77" y="-646.5" font-family="Helvetica,sans-Serif" font-size="10.00">+ cdRomMounted()</text>
<text text-anchor="start" x="77" y="-635.5" font-family="Helvetica,sans-Serif" font-size="10.00">+ copyDir()</text>
<text text-anchor="start" x="77" y="-624.5" font-family="Helvetica,sans-Serif" font-size="10.00">+ copyFile()</text>
<text text-anchor="start" x="77" y="-613.5" font-family="Helvetica,sans-Serif" font-size="10.00">+ generateDatadirPath()</text>
<text text-anchor="start" x="77" y="-602.5" font-family="Helvetica,sans-Serif" font-size="10.00">+ generateDatadirPath()</text>
<text text-anchor="start" x="77" y="-591.5" font-family="Helvetica,sans-Serif" font-size="10.00">+ getDirectorySize()</text>
<text text-anchor="start" x="77" y="-580.5" font-family="Helvetica,sans-Serif" font-size="10.00">+ getFileSize()</text>
<text text-anchor="start" x="77" y="-569.5" font-family="Helvetica,sans-Serif" font-size="10.00">+ IOControl()</text>
<text text-anchor="start" x="77" y="-558.5" font-family="Helvetica,sans-Serif" font-size="10.00">+ openDir()</text>
<text text-anchor="start" x="77" y="-547.5" font-family="Helvetica,sans-Serif" font-size="10.00">+ openDirDialog()</text>
<text text-anchor="start" x="77" y="-536.5" font-family="Helvetica,sans-Serif" font-size="10.00">et 6 de plus...</text>
</a>
</g>
</g>
<!-- Node3&#45;&gt;Node0 -->
<g id="edge6" class="edge"><title>Node3&#45;&gt;Node0</title>
<path fill="none" stroke="midnightblue" d="M107.874,-519.158C98.8719,-453.034 88.4566,-376.534 79.5192,-310.888"/>
<polygon fill="none" stroke="midnightblue" points="104.432,-519.821 109.249,-529.257 111.368,-518.876 104.432,-519.821"/>
</g>
<!-- Node3&#45;&gt;Node2 -->
<g id="edge3" class="edge"><title>Node3&#45;&gt;Node2</title>
<path fill="none" stroke="midnightblue" d="M157.3,-519.229C158.905,-510.067 160.471,-501.122 161.964,-492.597"/>
<polygon fill="none" stroke="midnightblue" points="153.824,-518.792 155.546,-529.246 160.719,-520 153.824,-518.792"/>
</g>
<!-- Node4 -->
<g id="node5" class="node"><title>Node4</title>
<g id="a_node5"><a xlink:href="classflags.html" target="_top" xlink:title="{flags\n||}">
<polygon fill="white" stroke="black" points="110.5,-865.5 110.5,-922.5 148.5,-922.5 148.5,-865.5 110.5,-865.5"/>
<text text-anchor="middle" x="129.5" y="-910.5" font-family="Helvetica,sans-Serif" font-size="10.00">flags</text>
<polyline fill="none" stroke="black" points="110.5,-903.5 148.5,-903.5 "/>
<text text-anchor="middle" x="129.5" y="-891.5" font-family="Helvetica,sans-Serif" font-size="10.00"> </text>
<polyline fill="none" stroke="black" points="110.5,-884.5 148.5,-884.5 "/>
<text text-anchor="middle" x="129.5" y="-872.5" font-family="Helvetica,sans-Serif" font-size="10.00"> </text>
</a>
</g>
</g>
<!-- Node4&#45;&gt;Node3 -->
<g id="edge4" class="edge"><title>Node4&#45;&gt;Node3</title>
<path fill="none" stroke="midnightblue" d="M129.5,-854.923C129.5,-846.996 129.5,-838.193 129.5,-828.872"/>
<polygon fill="none" stroke="midnightblue" points="126,-855.154 129.5,-865.154 133,-855.154 126,-855.154"/>
</g>
</g>
</svg>
