<?xml version="1.0" encoding="UTF-8" standalone="no"?>
<!DOCTYPE svg PUBLIC "-//W3C//DTD SVG 1.1//EN"
 "http://www.w3.org/Graphics/SVG/1.1/DTD/svg11.dtd">
<!-- Generated by graphviz version 2.38.0 (20140413.2041)
 -->
<!-- Title: tools::path_access Pages: 1 -->
<!--zoomable 751 -->
<svg id="main" version="1.1" xmlns="http://www.w3.org/2000/svg" xmlns:xlink="http://www.w3.org/1999/xlink" xml:space="preserve" onload="init(evt)">
<style type="text/css"><![CDATA[
.edge:hover path { stroke: red; }
.edge:hover polygon { stroke: red; fill: red; }
]]></style>
<script type="text/javascript"><![CDATA[
var edges = document.getElementsByTagName('g');
if (edges && edges.length) {
  for (var i=0;i<edges.length;i++) {
    if (edges[i].id.substr(0,4)=='edge') {
      edges[i].setAttribute('class','edge');
    }
  }
}
]]></script>
        <defs>
                <circle id="rim" cx="0" cy="0" r="7"/>
                <circle id="rim2" cx="0" cy="0" r="3.5"/>
                <g id="zoomPlus">
                        <use xlink:href="#rim" fill="#404040">
                                <set attributeName="fill" to="#808080" begin="zoomplus.mouseover" end="zoomplus.mouseout"/>
                        </use>
                        <path d="M-4,0h8M0,-4v8" fill="none" stroke="white" stroke-width="1.5" pointer-events="none"/>
                </g>
                <g id="zoomMin">
                        <use xlink:href="#rim" fill="#404040">
                                <set attributeName="fill" to="#808080" begin="zoomminus.mouseover" end="zoomminus.mouseout"/>
                        </use>
                        <path d="M-4,0h8" fill="none" stroke="white" stroke-width="1.5" pointer-events="none"/>
                </g>
                <g id="dirArrow">
                        <path fill="none" stroke="white" stroke-width="1.5" d="M0,-3.0v7 M-2.5,-0.5L0,-3.0L2.5,-0.5"/>
                </g>
               <g id="resetDef">
                       <use xlink:href="#rim2" fill="#404040">
                               <set attributeName="fill" to="#808080" begin="reset.mouseover" end="reset.mouseout"/>
                       </use>
               </g>
        </defs>

<script type="text/javascript">
var viewWidth = 804;
var viewHeight = 751;
var sectionId = 'dynsection-17';
</script>
<script xlink:href="svgpan.js"/>
<svg id="graph" class="graph">
<g id="viewport">
<title>tools::path_access</title>
<polygon fill="white" stroke="none" points="-4,4 -4,-747.343 800,-747.343 800,4 -4,4"/>
<!-- Node87 -->
<g id="node1" class="node"><title>Node87</title>
<polygon fill="#bfbfbf" stroke="black" points="0,-452.5 0,-471.5 99,-471.5 99,-452.5 0,-452.5"/>
<text text-anchor="middle" x="49.5" y="-459.5" font-family="Helvetica,sans-Serif" font-size="10.00">tools::path_access</text>
</g>
<!-- Node88 -->
<g id="node2" class="node"><title>Node88</title>
<g id="a_node2"><a xlink:href="classcode_page.html#a927a6bef8cac0406a49225bc72894a1f" target="_top" xlink:title="Constructeur du dialogue &quot;Code de paye des tests&quot;. ">
<polygon fill="white" stroke="black" points="517.5,-556.5 517.5,-575.5 627.5,-575.5 627.5,-556.5 517.5,-556.5"/>
<text text-anchor="middle" x="572.5" y="-563.5" font-family="Helvetica,sans-Serif" font-size="10.00">codePage::codePage</text>
</a>
</g>
</g>
<!-- Node87&#45;&gt;Node88 -->
<g id="edge1" class="edge"><title>Node87&#45;&gt;Node88</title>
<path fill="none" stroke="midnightblue" d="M73.2728,-477.397C89.7132,-487.745 112.832,-500.769 135,-508 267.82,-551.325 433.451,-562.35 517.362,-565.113"/>
<polygon fill="midnightblue" stroke="midnightblue" points="74.7208,-474.165 64.4224,-471.677 70.9213,-480.044 74.7208,-474.165"/>
</g>
<!-- Node89 -->
<g id="node3" class="node"><title>Node89</title>
<g id="a_node3"><a xlink:href="class_main_window.html#a62cd8712fb41a754298f6f60eead2cb0" target="_top" xlink:title="Crée les actions correspondant aux entrées des menus et barre d&#39;outils. ">
<polygon fill="white" stroke="black" points="135,-682.5 135,-701.5 274,-701.5 274,-682.5 135,-682.5"/>
<text text-anchor="middle" x="204.5" y="-689.5" font-family="Helvetica,sans-Serif" font-size="10.00">MainWindow::createActions</text>
</a>
</g>
</g>
<!-- Node87&#45;&gt;Node89 -->
<g id="edge2" class="edge"><title>Node87&#45;&gt;Node89</title>
<path fill="none" stroke="midnightblue" d="M53.141,-481.723C59.5988,-522.301 79.8975,-615.705 135,-668 141.672,-674.332 150.109,-679.005 158.762,-682.449"/>
<polygon fill="midnightblue" stroke="midnightblue" points="56.5927,-481.138 51.6692,-471.757 49.6678,-482.161 56.5927,-481.138"/>
</g>
<!-- Node90 -->
<g id="node4" class="node"><title>Node90</title>
<g id="a_node4"><a xlink:href="classtools.html#a995219ca14bd1ddcb10cb2a3fffed5a5" target="_top" xlink:title="tools::dump">
<polygon fill="white" stroke="black" points="170.5,-606.5 170.5,-625.5 238.5,-625.5 238.5,-606.5 170.5,-606.5"/>
<text text-anchor="middle" x="204.5" y="-613.5" font-family="Helvetica,sans-Serif" font-size="10.00">tools::dump</text>
</a>
</g>
</g>
<!-- Node87&#45;&gt;Node90 -->
<g id="edge3" class="edge"><title>Node87&#45;&gt;Node90</title>
<path fill="none" stroke="midnightblue" d="M57.4715,-481.284C69.0219,-510.499 94.9076,-565.766 135,-596 145.188,-603.683 158.267,-608.421 170.261,-611.341"/>
<polygon fill="midnightblue" stroke="midnightblue" points="60.6892,-479.898 53.8649,-471.794 54.1458,-482.385 60.6892,-479.898"/>
</g>
<!-- Node91 -->
<g id="node5" class="node"><title>Node91</title>
<g id="a_node5"><a xlink:href="classcommon.html#a7900f8a5d7ebd42770ce8c366dd4b933" target="_top" xlink:title="Exporter les caractéristiques du contrôle dans le rapport : Siret, Budget, Employeur, Etablissement. ">
<polygon fill="white" stroke="black" points="310,-644 310,-674 465,-674 465,-644 310,-644"/>
<text text-anchor="start" x="318" y="-662" font-family="Helvetica,sans-Serif" font-size="10.00">common::exporter_identification</text>
<text text-anchor="middle" x="387.5" y="-651" font-family="Helvetica,sans-Serif" font-size="10.00">_controle</text>
</a>
</g>
</g>
<!-- Node87&#45;&gt;Node91 -->
<g id="edge9" class="edge"><title>Node87&#45;&gt;Node91</title>
<path fill="none" stroke="midnightblue" d="M53.695,-481.583C60.8636,-518.565 81.959,-598.26 135,-635 185.569,-670.028 256.215,-673.879 309.762,-670.2"/>
<polygon fill="midnightblue" stroke="midnightblue" points="57.1097,-480.796 51.8974,-471.572 50.2199,-482.033 57.1097,-480.796"/>
</g>
<!-- Node93 -->
<g id="node7" class="node"><title>Node93</title>
<g id="a_node7"><a xlink:href="classstandard_page.html#abb37a1fff677f91ad2418b07593aa40d" target="_top" xlink:title="Exporter le versant FPH ou FPT dans le script R pour générer les tests adéquats. ">
<polygon fill="white" stroke="black" points="325,-704 325,-734 450,-734 450,-704 325,-704"/>
<text text-anchor="start" x="333" y="-722" font-family="Helvetica,sans-Serif" font-size="10.00">standardPage::substituer</text>
<text text-anchor="middle" x="387.5" y="-711" font-family="Helvetica,sans-Serif" font-size="10.00">_versant</text>
</a>
</g>
</g>
<!-- Node87&#45;&gt;Node93 -->
<g id="edge28" class="edge"><title>Node87&#45;&gt;Node93</title>
<path fill="none" stroke="midnightblue" d="M50.2801,-481.688C50.9324,-530.193 60.1269,-655.519 135,-711 191.159,-752.614 275.361,-745.335 330.616,-734.025"/>
<polygon fill="midnightblue" stroke="midnightblue" points="53.7799,-481.572 50.2584,-471.579 46.7799,-481.587 53.7799,-481.572"/>
</g>
<!-- Node95 -->
<g id="node9" class="node"><title>Node95</title>
<g id="a_node9"><a xlink:href="class_altair.html#ab740db3e8d686d765dd8ad3e9f6aa19e" target="_top" xlink:title="Inititalise les variables utilisateur et de localisation ( userdatadir) ">
<polygon fill="white" stroke="black" points="164.5,-158.5 164.5,-177.5 244.5,-177.5 244.5,-158.5 164.5,-158.5"/>
<text text-anchor="middle" x="204.5" y="-165.5" font-family="Helvetica,sans-Serif" font-size="10.00">Altair::initialize</text>
</a>
</g>
</g>
<!-- Node87&#45;&gt;Node95 -->
<g id="edge10" class="edge"><title>Node87&#45;&gt;Node95</title>
<path fill="none" stroke="midnightblue" d="M53.8865,-442.119C61.9452,-399.199 85.4072,-296.012 135,-225 149.085,-204.832 172.098,-187.728 187.515,-177.662"/>
<polygon fill="midnightblue" stroke="midnightblue" points="50.4141,-441.654 52.0874,-452.116 57.3034,-442.894 50.4141,-441.654"/>
</g>
<!-- Node97 -->
<g id="node11" class="node"><title>Node97</title>
<g id="a_node11"><a xlink:href="class_matricule_input.html#a4f670aeeae85155afbe9011c741791be" target="_top" xlink:title="Constructeur de la classe MatriculeInput. ">
<polygon fill="white" stroke="black" points="142.5,-469 142.5,-499 266.5,-499 266.5,-469 142.5,-469"/>
<text text-anchor="start" x="150.5" y="-487" font-family="Helvetica,sans-Serif" font-size="10.00">MatriculeInput::Matricule</text>
<text text-anchor="middle" x="204.5" y="-476" font-family="Helvetica,sans-Serif" font-size="10.00">Input</text>
</a>
</g>
</g>
<!-- Node87&#45;&gt;Node97 -->
<g id="edge12" class="edge"><title>Node87&#45;&gt;Node97</title>
<path fill="none" stroke="midnightblue" d="M109.452,-470.477C120.196,-472.022 131.428,-473.637 142.237,-475.191"/>
<polygon fill="midnightblue" stroke="midnightblue" points="109.727,-466.98 99.3308,-469.021 108.731,-473.909 109.727,-466.98"/>
</g>
<!-- Node98 -->
<g id="node12" class="node"><title>Node98</title>
<g id="a_node12"><a xlink:href="class_f_list_frame.html#af0987edc2a94a5c2db18ab4ccec3f81c" target="_top" xlink:title="FListFrame::on_file\l_display">
<polygon fill="white" stroke="black" points="154,-33 154,-63 255,-63 255,-33 154,-33"/>
<text text-anchor="start" x="162" y="-51" font-family="Helvetica,sans-Serif" font-size="10.00">FListFrame::on_file</text>
<text text-anchor="middle" x="204.5" y="-40" font-family="Helvetica,sans-Serif" font-size="10.00">_display</text>
</a>
</g>
</g>
<!-- Node87&#45;&gt;Node98 -->
<g id="edge13" class="edge"><title>Node87&#45;&gt;Node98</title>
<path fill="none" stroke="midnightblue" d="M53.4964,-442.193C61.6494,-391.543 86.9111,-253.905 135,-149 150.097,-116.065 175.589,-82.065 190.853,-63.1174"/>
<polygon fill="midnightblue" stroke="midnightblue" points="49.989,-441.968 51.8999,-452.389 56.9048,-443.051 49.989,-441.968"/>
</g>
<!-- Node100 -->
<g id="node14" class="node"><title>Node100</title>
<g id="a_node14"><a xlink:href="class_altair.html#a16b8035c4383a789cd00b687fb105fe9" target="_top" xlink:title="Traitement de la fin de l&#39;exécution de lhx. ">
<polygon fill="white" stroke="black" points="680,-392.5 680,-411.5 796,-411.5 796,-392.5 680,-392.5"/>
<text text-anchor="middle" x="738" y="-399.5" font-family="Helvetica,sans-Serif" font-size="10.00">Altair::processFinished</text>
</a>
</g>
</g>
<!-- Node87&#45;&gt;Node100 -->
<g id="edge16" class="edge"><title>Node87&#45;&gt;Node100</title>
<path fill="none" stroke="midnightblue" d="M109.366,-458.93C238.216,-452.048 541.867,-434.898 644,-421 661.145,-418.667 679.871,-415.051 695.997,-411.598"/>
<polygon fill="midnightblue" stroke="midnightblue" points="109.09,-455.44 99.2898,-459.466 109.462,-462.43 109.09,-455.44"/>
</g>
<!-- Node101 -->
<g id="node15" class="node"><title>Node101</title>
<g id="a_node15"><a xlink:href="classprocess_page.html#ae3ff114e2d797548b9e4e24958446a9a" target="_top" xlink:title="Constructeur de l&#39;onglet Traitement. ">
<polygon fill="white" stroke="black" points="136,-354.5 136,-373.5 273,-373.5 273,-354.5 136,-354.5"/>
<text text-anchor="middle" x="204.5" y="-361.5" font-family="Helvetica,sans-Serif" font-size="10.00">processPage::processPage</text>
</a>
</g>
</g>
<!-- Node87&#45;&gt;Node101 -->
<g id="edge17" class="edge"><title>Node87&#45;&gt;Node101</title>
<path fill="none" stroke="midnightblue" d="M66.4307,-444.635C82.3958,-428.114 108.366,-403.538 135,-388 145.122,-382.095 156.93,-377.312 167.863,-373.617"/>
<polygon fill="midnightblue" stroke="midnightblue" points="63.77,-442.354 59.4379,-452.023 68.8539,-447.166 63.77,-442.354"/>
</g>
<!-- Node102 -->
<g id="node16" class="node"><title>Node102</title>
<g id="a_node16"><a xlink:href="classcode_page.html#a8524212298b5473047c5c4f0cadc86a6" target="_top" xlink:title="Réinitialise l&#39;exportation des codes d&#39;éléments de paye Ecrase prologue_codes.R ( prologue_codes_path...">
<polygon fill="white" stroke="black" points="148,-557 148,-587 261,-587 261,-557 148,-557"/>
<text text-anchor="start" x="156" y="-575" font-family="Helvetica,sans-Serif" font-size="10.00">codePage::reinitialiser</text>
<text text-anchor="middle" x="204.5" y="-564" font-family="Helvetica,sans-Serif" font-size="10.00">_prologue</text>
</a>
</g>
</g>
<!-- Node87&#45;&gt;Node102 -->
<g id="edge18" class="edge"><title>Node87&#45;&gt;Node102</title>
<path fill="none" stroke="midnightblue" d="M65.6616,-479.547C81.5559,-497.119 107.941,-524.061 135,-542 143.549,-547.667 153.344,-552.694 162.803,-556.935"/>
<polygon fill="midnightblue" stroke="midnightblue" points="68.0003,-476.909 58.7447,-471.753 62.7649,-481.556 68.0003,-476.909"/>
</g>
<!-- Node103 -->
<g id="node17" class="node"><title>Node103</title>
<g id="a_node17"><a xlink:href="class_altair.html#afd71c35a3a71291b0d4eece1058de4f0" target="_top" xlink:title="Lance l&#39;application Rstudio et les scripts R. ">
<polygon fill="white" stroke="black" points="528,-392.5 528,-411.5 617,-411.5 617,-392.5 528,-392.5"/>
<text text-anchor="middle" x="572.5" y="-399.5" font-family="Helvetica,sans-Serif" font-size="10.00">Altair::runRAltair</text>
</a>
</g>
</g>
<!-- Node87&#45;&gt;Node103 -->
<g id="edge21" class="edge"><title>Node87&#45;&gt;Node103</title>
<path fill="none" stroke="midnightblue" d="M77.3925,-447.691C93.6041,-439.797 114.937,-430.673 135,-426 275.627,-393.245 448.312,-395.92 527.739,-399.454"/>
<polygon fill="midnightblue" stroke="midnightblue" points="75.3854,-444.782 68.0175,-452.395 78.5251,-451.038 75.3854,-444.782"/>
</g>
<!-- Node104 -->
<g id="node18" class="node"><title>Node104</title>
<g id="a_node18"><a xlink:href="class_altair.html#a08b5e402c9a694af09110afe33219080" target="_top" xlink:title="Construction de la ligne de commande pour des bases de paye dans un répertoire donné ...">
<polygon fill="white" stroke="black" points="342.5,-354.5 342.5,-373.5 432.5,-373.5 432.5,-354.5 342.5,-354.5"/>
<text text-anchor="middle" x="387.5" y="-361.5" font-family="Helvetica,sans-Serif" font-size="10.00">Altair::runWorker</text>
</a>
</g>
</g>
<!-- Node87&#45;&gt;Node104 -->
<g id="edge23" class="edge"><title>Node87&#45;&gt;Node104</title>
<path fill="none" stroke="midnightblue" d="M57.6319,-443.024C69.1301,-415.525 94.645,-365.634 135,-345 170.088,-327.059 280.171,-343.741 342.441,-355.227"/>
<polygon fill="midnightblue" stroke="midnightblue" points="54.3624,-441.774 53.9097,-452.359 60.8646,-444.367 54.3624,-441.774"/>
</g>
<!-- Node107 -->
<g id="node21" class="node"><title>Node107</title>
<g id="a_node21"><a xlink:href="class_altair.html#a2eb0a89c3223b2df1c01d2b3b7d1c0eb" target="_top" xlink:title="Rafraichir le projet .alt après avoir actualisé l&#39;interface. ">
<polygon fill="white" stroke="black" points="152,-234.5 152,-253.5 257,-253.5 257,-234.5 152,-234.5"/>
<text text-anchor="middle" x="204.5" y="-241.5" font-family="Helvetica,sans-Serif" font-size="10.00">Altair::updateProject</text>
</a>
</g>
</g>
<!-- Node87&#45;&gt;Node107 -->
<g id="edge29" class="edge"><title>Node87&#45;&gt;Node107</title>
<path fill="none" stroke="midnightblue" d="M59.0228,-443.162C72.796,-413.704 101.784,-355.6 135,-312 152.568,-288.94 177.674,-265.993 192.108,-253.537"/>
<polygon fill="midnightblue" stroke="midnightblue" points="55.8109,-441.769 54.8035,-452.316 62.1682,-444.699 55.8109,-441.769"/>
</g>
<!-- Node90&#45;&gt;Node91 -->
<g id="edge4" class="edge"><title>Node90&#45;&gt;Node91</title>
<path fill="none" stroke="midnightblue" d="M248.528,-626.222C270.807,-631.515 298.44,-638.08 323.112,-643.941"/>
<polygon fill="midnightblue" stroke="midnightblue" points="249.236,-622.793 238.698,-623.887 247.618,-629.604 249.236,-622.793"/>
</g>
<!-- Node92 -->
<g id="node6" class="node"><title>Node92</title>
<g id="a_node6"><a xlink:href="classcode_page.html#a7f3fcb4b6f622b1c11a7b39e245b76b6" target="_top" xlink:title="codePage::substituer\l_valeurs_dans_script_R">
<polygon fill="white" stroke="black" points="326.5,-595 326.5,-625 448.5,-625 448.5,-595 326.5,-595"/>
<text text-anchor="start" x="334.5" y="-613" font-family="Helvetica,sans-Serif" font-size="10.00">codePage::substituer</text>
<text text-anchor="middle" x="387.5" y="-602" font-family="Helvetica,sans-Serif" font-size="10.00">_valeurs_dans_script_R</text>
</a>
</g>
</g>
<!-- Node90&#45;&gt;Node92 -->
<g id="edge5" class="edge"><title>Node90&#45;&gt;Node92</title>
<path fill="none" stroke="midnightblue" d="M248.927,-614.56C272.14,-613.791 301.079,-612.832 326.418,-611.992"/>
<polygon fill="midnightblue" stroke="midnightblue" points="248.577,-611.07 238.698,-614.9 248.809,-618.066 248.577,-611.07"/>
</g>
<!-- Node90&#45;&gt;Node93 -->
<g id="edge7" class="edge"><title>Node90&#45;&gt;Node93</title>
<path fill="none" stroke="midnightblue" d="M227.366,-631.591C248.113,-646.053 280.43,-667.731 310,-684 322.924,-691.111 337.558,-698.059 350.541,-703.865"/>
<polygon fill="midnightblue" stroke="midnightblue" points="229.156,-628.572 218.962,-625.686 225.131,-634.299 229.156,-628.572"/>
</g>
<!-- Node92&#45;&gt;Node88 -->
<g id="edge6" class="edge"><title>Node92&#45;&gt;Node88</title>
<path fill="none" stroke="midnightblue" d="M458.426,-593.187C483.257,-587.217 510.336,-580.706 531.768,-575.553"/>
<polygon fill="midnightblue" stroke="midnightblue" points="457.579,-589.791 448.675,-595.532 459.216,-596.597 457.579,-589.791"/>
</g>
<!-- Node94 -->
<g id="node8" class="node"><title>Node94</title>
<g id="a_node8"><a xlink:href="classstandard_page.html#a95b9887a321f29e844fd314048585cee" target="_top" xlink:title="Constructeur de l&#39;onglet &quot;Format des bases&quot;. ">
<polygon fill="white" stroke="black" points="501,-709.5 501,-728.5 644,-728.5 644,-709.5 501,-709.5"/>
<text text-anchor="middle" x="572.5" y="-716.5" font-family="Helvetica,sans-Serif" font-size="10.00">standardPage::standardPage</text>
</a>
</g>
</g>
<!-- Node93&#45;&gt;Node94 -->
<g id="edge8" class="edge"><title>Node93&#45;&gt;Node94</title>
<path fill="none" stroke="midnightblue" d="M460.283,-719C473.643,-719 487.593,-719 500.918,-719"/>
<polygon fill="midnightblue" stroke="midnightblue" points="460.2,-715.5 450.2,-719 460.2,-722.5 460.2,-715.5"/>
</g>
<!-- Node96 -->
<g id="node10" class="node"><title>Node96</title>
<g id="a_node10"><a xlink:href="class_altair.html#ae0975ced0a36e0ed889ae06043a4df66" target="_top" xlink:title="Constructeur. ">
<polygon fill="white" stroke="black" points="538.5,-76.5 538.5,-95.5 606.5,-95.5 606.5,-76.5 538.5,-76.5"/>
<text text-anchor="middle" x="572.5" y="-83.5" font-family="Helvetica,sans-Serif" font-size="10.00">Altair::Altair</text>
</a>
</g>
</g>
<!-- Node95&#45;&gt;Node96 -->
<g id="edge11" class="edge"><title>Node95&#45;&gt;Node96</title>
<path fill="none" stroke="midnightblue" d="M217.285,-150.005C234.358,-125.776 268.516,-83.7709 310,-67 390.182,-34.5848 495.389,-60.7519 544.307,-76.3989"/>
<polygon fill="midnightblue" stroke="midnightblue" points="214.348,-148.099 211.598,-158.331 220.128,-152.047 214.348,-148.099"/>
</g>
<!-- Node99 -->
<g id="node13" class="node"><title>Node99</title>
<g id="a_node13"><a xlink:href="class_f_list_frame.html#a404f9f839864aecceba585397c7c882f" target="_top" xlink:title="FListFrame::showContextMenu">
<polygon fill="white" stroke="black" points="310.5,-0.5 310.5,-19.5 464.5,-19.5 464.5,-0.5 310.5,-0.5"/>
<text text-anchor="middle" x="387.5" y="-7.5" font-family="Helvetica,sans-Serif" font-size="10.00">FListFrame::showContextMenu</text>
</a>
</g>
</g>
<!-- Node98&#45;&gt;Node99 -->
<g id="edge14" class="edge"><title>Node98&#45;&gt;Node99</title>
<path fill="none" stroke="midnightblue" d="M265.41,-35.4222C290.063,-30.2465 318.148,-24.3502 341.06,-19.54"/>
<polygon fill="midnightblue" stroke="midnightblue" points="264.506,-32.0357 255.438,-37.5157 265.944,-38.8863 264.506,-32.0357"/>
</g>
<!-- Node99&#45;&gt;Node96 -->
<g id="edge15" class="edge"><title>Node99&#45;&gt;Node96</title>
<path fill="none" stroke="midnightblue" d="M432.431,-22.5401C443.194,-25.9516 454.605,-29.8587 465,-34 497.113,-46.7931 532.943,-65.1898 553.782,-76.3258"/>
<polygon fill="midnightblue" stroke="midnightblue" points="433.365,-19.1652 422.777,-19.5539 431.296,-25.8526 433.365,-19.1652"/>
</g>
<!-- Node102&#45;&gt;Node88 -->
<g id="edge19" class="edge"><title>Node102&#45;&gt;Node88</title>
<path fill="none" stroke="midnightblue" d="M271.17,-570.923C341.547,-569.77 451.955,-567.96 517.482,-566.886"/>
<polygon fill="midnightblue" stroke="midnightblue" points="271.029,-567.425 261.088,-571.089 271.144,-574.424 271.029,-567.425"/>
</g>
<!-- Node102&#45;&gt;Node92 -->
<g id="edge20" class="edge"><title>Node102&#45;&gt;Node92</title>
<path fill="none" stroke="midnightblue" d="M271.11,-585.774C289.098,-589.551 308.509,-593.626 326.184,-597.337"/>
<polygon fill="midnightblue" stroke="midnightblue" points="271.789,-582.341 261.283,-583.711 270.35,-589.191 271.789,-582.341"/>
</g>
<!-- Node103&#45;&gt;Node100 -->
<g id="edge22" class="edge"><title>Node103&#45;&gt;Node100</title>
<path fill="none" stroke="midnightblue" d="M627.504,-402C644.284,-402 662.833,-402 679.821,-402"/>
<polygon fill="midnightblue" stroke="midnightblue" points="627.315,-398.5 617.315,-402 627.315,-405.5 627.315,-398.5"/>
</g>
<!-- Node105 -->
<g id="node19" class="node"><title>Node105</title>
<g id="a_node19"><a xlink:href="class_altair.html#a7d10f8ecf4097577885172afb6c2e9c6" target="_top" xlink:title="Lance l&#39;exécution de l&#39;application en ligne de commande lhx. ">
<polygon fill="white" stroke="black" points="708.5,-316.5 708.5,-335.5 767.5,-335.5 767.5,-316.5 708.5,-316.5"/>
<text text-anchor="middle" x="738" y="-323.5" font-family="Helvetica,sans-Serif" font-size="10.00">Altair::run</text>
</a>
</g>
</g>
<!-- Node104&#45;&gt;Node105 -->
<g id="edge24" class="edge"><title>Node104&#45;&gt;Node105</title>
<path fill="none" stroke="midnightblue" d="M442.702,-353.866C461.151,-350.678 481.927,-347.374 501,-345 575.442,-335.735 663.684,-330.024 708.218,-327.508"/>
<polygon fill="midnightblue" stroke="midnightblue" points="441.962,-350.442 432.718,-355.618 443.172,-357.336 441.962,-350.442"/>
</g>
<!-- Node106 -->
<g id="node20" class="node"><title>Node106</title>
<g id="a_node20"><a xlink:href="class_altair.html#ae04f2a5771d47bbe2e0cc3a11b72d6bf" target="_top" xlink:title="Parcourt le répertoire en cours du mode distributif, un à chaque appel Exporte l&#39;identification dans ...">
<polygon fill="white" stroke="black" points="504,-354.5 504,-373.5 641,-373.5 641,-354.5 504,-354.5"/>
<text text-anchor="middle" x="572.5" y="-361.5" font-family="Helvetica,sans-Serif" font-size="10.00">Altair::runWorkerDistributed</text>
</a>
</g>
</g>
<!-- Node104&#45;&gt;Node106 -->
<g id="edge25" class="edge"><title>Node104&#45;&gt;Node106</title>
<path fill="none" stroke="midnightblue" d="M442.818,-364C461.913,-364 483.612,-364 503.679,-364"/>
<polygon fill="midnightblue" stroke="midnightblue" points="442.799,-360.5 432.799,-364 442.799,-367.5 442.799,-360.5"/>
</g>
<!-- Node106&#45;&gt;Node100 -->
<g id="edge26" class="edge"><title>Node106&#45;&gt;Node100</title>
<path fill="none" stroke="midnightblue" d="M624.684,-375.896C647.666,-381.237 674.413,-387.454 696.039,-392.48"/>
<polygon fill="midnightblue" stroke="midnightblue" points="625.291,-372.444 614.758,-373.589 623.706,-379.262 625.291,-372.444"/>
</g>
<!-- Node106&#45;&gt;Node105 -->
<g id="edge27" class="edge"><title>Node106&#45;&gt;Node105</title>
<path fill="none" stroke="midnightblue" d="M624.653,-352.111C652.255,-345.696 685.296,-338.017 708.374,-332.653"/>
<polygon fill="midnightblue" stroke="midnightblue" points="623.706,-348.738 614.758,-354.411 625.291,-355.556 623.706,-348.738"/>
</g>
<!-- Node107&#45;&gt;Node96 -->
<g id="edge30" class="edge"><title>Node107&#45;&gt;Node96</title>
<path fill="none" stroke="midnightblue" d="M255.445,-232.034C330.172,-214.108 462.645,-182.236 465,-181 507.781,-158.549 547.181,-115.18 563.528,-95.787"/>
<polygon fill="midnightblue" stroke="midnightblue" points="254.211,-228.73 245.303,-234.466 255.844,-235.537 254.211,-228.73"/>
</g>
<!-- Node107&#45;&gt;Node104 -->
<g id="edge39" class="edge"><title>Node107&#45;&gt;Node104</title>
<path fill="none" stroke="midnightblue" d="M222.471,-260.852C250.717,-288.836 304.805,-342.122 310,-345 319.816,-350.438 331.192,-354.342 342.123,-357.136"/>
<polygon fill="midnightblue" stroke="midnightblue" points="224.817,-258.249 215.252,-253.693 219.888,-263.22 224.817,-258.249"/>
</g>
<!-- Node107&#45;&gt;Node105 -->
<g id="edge38" class="edge"><title>Node107&#45;&gt;Node105</title>
<path fill="none" stroke="midnightblue" d="M253.618,-256.013C271.278,-260.167 291.477,-264.622 310,-268 459.038,-295.179 639.469,-315.651 708.375,-323.02"/>
<polygon fill="midnightblue" stroke="midnightblue" points="254.085,-252.526 243.546,-253.612 252.462,-259.335 254.085,-252.526"/>
</g>
<!-- Node108 -->
<g id="node22" class="node"><title>Node108</title>
<g id="a_node22"><a xlink:href="class_altair.html#ab913abfdd0c6fbbceb9a051a4443d5fa" target="_top" xlink:title="Supprimer un onglet central. ">
<polygon fill="white" stroke="black" points="338.5,-76.5 338.5,-95.5 436.5,-95.5 436.5,-76.5 338.5,-76.5"/>
<text text-anchor="middle" x="387.5" y="-83.5" font-family="Helvetica,sans-Serif" font-size="10.00">Altair::deleteGroup</text>
</a>
</g>
</g>
<!-- Node107&#45;&gt;Node108 -->
<g id="edge31" class="edge"><title>Node107&#45;&gt;Node108</title>
<path fill="none" stroke="midnightblue" d="M229.067,-228.631C243.531,-218.255 261.595,-203.48 274,-187 297.936,-155.2 279.565,-130.649 310,-105 318.057,-98.2095 328.189,-93.785 338.417,-90.9175"/>
<polygon fill="midnightblue" stroke="midnightblue" points="226.831,-225.923 220.61,-234.499 230.821,-231.674 226.831,-225.923"/>
</g>
<!-- Node109 -->
<g id="node23" class="node"><title>Node109</title>
<g id="a_node23"><a xlink:href="class_altair.html#a1afa285a65e0bdff4c761ad05ec9f8df" target="_top" xlink:title="Fonction réimplémentée : fin du déplacement de la souris. ">
<polygon fill="white" stroke="black" points="343,-114.5 343,-133.5 432,-133.5 432,-114.5 343,-114.5"/>
<text text-anchor="middle" x="387.5" y="-121.5" font-family="Helvetica,sans-Serif" font-size="10.00">Altair::dropEvent</text>
</a>
</g>
</g>
<!-- Node107&#45;&gt;Node109 -->
<g id="edge33" class="edge"><title>Node107&#45;&gt;Node109</title>
<path fill="none" stroke="midnightblue" d="M226.579,-228.17C240.604,-217.236 259.114,-202.01 274,-187 291.792,-169.06 288.65,-156.512 310,-143 319.829,-136.779 331.565,-132.595 342.857,-129.78"/>
<polygon fill="midnightblue" stroke="midnightblue" points="224.292,-225.514 218.499,-234.384 228.56,-231.063 224.292,-225.514"/>
</g>
<!-- Node110 -->
<g id="node24" class="node"><title>Node110</title>
<g id="a_node24"><a xlink:href="class_altair.html#a299584936cc20c9a1451977264eba1f5" target="_top" xlink:title="Ecrase un item d&#39;un onglet donné ">
<polygon fill="white" stroke="black" points="334,-229 334,-259 441,-259 441,-229 334,-229"/>
<text text-anchor="start" x="342" y="-247" font-family="Helvetica,sans-Serif" font-size="10.00">Altair::on_deleteItem</text>
<text text-anchor="middle" x="387.5" y="-236" font-family="Helvetica,sans-Serif" font-size="10.00">_clicked</text>
</a>
</g>
</g>
<!-- Node107&#45;&gt;Node110 -->
<g id="edge34" class="edge"><title>Node107&#45;&gt;Node110</title>
<path fill="none" stroke="midnightblue" d="M267.45,-244C289.104,-244 313.188,-244 333.997,-244"/>
<polygon fill="midnightblue" stroke="midnightblue" points="267.367,-240.5 257.367,-244 267.367,-247.5 267.367,-240.5"/>
</g>
<!-- Node111 -->
<g id="node25" class="node"><title>Node111</title>
<g id="a_node25"><a xlink:href="classoptions.html#a52a9fb1d5bdb6ed104e700390b8c0208" target="_top" xlink:title="options::options">
<polygon fill="white" stroke="black" points="344.5,-316.5 344.5,-335.5 430.5,-335.5 430.5,-316.5 344.5,-316.5"/>
<text text-anchor="middle" x="387.5" y="-323.5" font-family="Helvetica,sans-Serif" font-size="10.00">options::options</text>
</a>
</g>
</g>
<!-- Node107&#45;&gt;Node111 -->
<g id="edge36" class="edge"><title>Node107&#45;&gt;Node111</title>
<path fill="none" stroke="midnightblue" d="M229.332,-259.06C250.069,-271.712 281.228,-289.654 310,-302 323.047,-307.599 337.842,-312.546 350.921,-316.472"/>
<polygon fill="midnightblue" stroke="midnightblue" points="230.932,-255.934 220.584,-253.658 227.254,-261.89 230.932,-255.934"/>
</g>
<!-- Node112 -->
<g id="node26" class="node"><title>Node112</title>
<g id="a_node26"><a xlink:href="class_altair.html#aab5da600c227ac7eb604fa24a9308d26" target="_top" xlink:title="Enregistre le projet .alt en actualisant projectName et l&#39;état de l&#39;interface &#160;. ">
<polygon fill="white" stroke="black" points="322,-152.5 322,-171.5 453,-171.5 453,-152.5 322,-152.5"/>
<text text-anchor="middle" x="387.5" y="-159.5" font-family="Helvetica,sans-Serif" font-size="10.00">Altair::requestSaveProject</text>
</a>
</g>
</g>
<!-- Node107&#45;&gt;Node112 -->
<g id="edge37" class="edge"><title>Node107&#45;&gt;Node112</title>
<path fill="none" stroke="midnightblue" d="M229.332,-228.94C250.069,-216.288 281.228,-198.346 310,-186 323.047,-180.401 337.842,-175.454 350.921,-171.528"/>
<polygon fill="midnightblue" stroke="midnightblue" points="227.254,-226.11 220.584,-234.342 230.932,-232.066 227.254,-226.11"/>
</g>
<!-- Node108&#45;&gt;Node96 -->
<g id="edge32" class="edge"><title>Node108&#45;&gt;Node96</title>
<path fill="none" stroke="midnightblue" d="M446.621,-86C476.936,-86 512.915,-86 538.45,-86"/>
<polygon fill="midnightblue" stroke="midnightblue" points="446.581,-82.5001 436.581,-86 446.581,-89.5001 446.581,-82.5001"/>
</g>
<!-- Node110&#45;&gt;Node96 -->
<g id="edge35" class="edge"><title>Node110&#45;&gt;Node96</title>
<path fill="none" stroke="midnightblue" d="M447.062,-224.648C453.365,-221.524 459.482,-217.983 465,-214 512.581,-179.651 551.669,-119.291 565.814,-95.7705"/>
<polygon fill="midnightblue" stroke="midnightblue" points="445.369,-221.574 437.744,-228.931 448.292,-227.935 445.369,-221.574"/>
</g>
</g>
</svg>
        <g id="navigator" transform="translate(0 0)" fill="#404254">
                <rect fill="#f2f5e9" fill-opacity="0.5" stroke="#606060" stroke-width=".5" x="0" y="0" width="60" height="60"/>
                <use id="zoomplus" xlink:href="#zoomPlus" x="17" y="9" onmousedown="handleZoom(evt,'in')"/>
                <use id="zoomminus" xlink:href="#zoomMin" x="42" y="9" onmousedown="handleZoom(evt,'out')"/>
                <use id="reset" xlink:href="#resetDef" x="30" y="36" onmousedown="handleReset()"/>
                <g id="arrowUp" xlink:href="#dirArrow" transform="translate(30 24)" onmousedown="handlePan(0,-1)">
                  <use xlink:href="#rim" fill="#404040">
                        <set attributeName="fill" to="#808080" begin="arrowUp.mouseover" end="arrowUp.mouseout"/>
                  </use>
                  <path fill="none" stroke="white" stroke-width="1.5" d="M0,-3.0v7 M-2.5,-0.5L0,-3.0L2.5,-0.5"/>
                </g>
                <g id="arrowRight" xlink:href="#dirArrow" transform="rotate(90) translate(36 -43)" onmousedown="handlePan(1,0)">
                  <use xlink:href="#rim" fill="#404040">
                        <set attributeName="fill" to="#808080" begin="arrowRight.mouseover" end="arrowRight.mouseout"/>
                  </use>
                  <path fill="none" stroke="white" stroke-width="1.5" d="M0,-3.0v7 M-2.5,-0.5L0,-3.0L2.5,-0.5"/>
                </g>
                <g id="arrowDown" xlink:href="#dirArrow" transform="rotate(180) translate(-30 -48)" onmousedown="handlePan(0,1)">
                  <use xlink:href="#rim" fill="#404040">
                        <set attributeName="fill" to="#808080" begin="arrowDown.mouseover" end="arrowDown.mouseout"/>
                  </use>
                  <path fill="none" stroke="white" stroke-width="1.5" d="M0,-3.0v7 M-2.5,-0.5L0,-3.0L2.5,-0.5"/>
                </g>
                <g id="arrowLeft" xlink:href="#dirArrow" transform="rotate(270) translate(-36 17)" onmousedown="handlePan(-1,0)">
                  <use xlink:href="#rim" fill="#404040">
                        <set attributeName="fill" to="#808080" begin="arrowLeft.mouseover" end="arrowLeft.mouseout"/>
                  </use>
                  <path fill="none" stroke="white" stroke-width="1.5" d="M0,-3.0v7 M-2.5,-0.5L0,-3.0L2.5,-0.5"/>
                </g>
        </g>
        <svg viewBox="0 0 15 15" width="100%" height="30px" preserveAspectRatio="xMaxYMin meet">
         <g id="arrow_out" transform="scale(0.3 0.3)">
          <a xlink:href="classtools_a89d2cd8ffcaed8423439c16d1ee59ab0_icgraph_org.svg" target="_base">
           <rect id="button" ry="5" rx="5" y="6" x="6" height="38" width="38"
                fill="#f2f5e9" fill-opacity="0.5" stroke="#606060" stroke-width="1.0"/>
           <path id="arrow"
             d="M 11.500037,31.436501 C 11.940474,20.09759 22.043105,11.32322 32.158766,21.979434 L 37.068811,17.246167 C 37.068811,17.246167 37.088388,32 37.088388,32 L 22.160133,31.978069 C 22.160133,31.978069 26.997745,27.140456 26.997745,27.140456 C 18.528582,18.264221 13.291696,25.230495 11.500037,31.436501 z"
             style="fill:#404040;"/>
          </a>
         </g>
        </svg>
</svg>
