<?xml version="1.0" encoding="UTF-8" standalone="no"?>
<!DOCTYPE svg PUBLIC "-//W3C//DTD SVG 1.1//EN"
 "http://www.w3.org/Graphics/SVG/1.1/DTD/svg11.dtd">
<!-- Generated by graphviz version 2.38.0 (20140413.2041)
 -->
<!-- Title: FAbstractWidget::getComponentList Pages: 1 -->
<svg width="696pt" height="78pt"
 viewBox="0.00 0.00 696.00 77.50" xmlns="http://www.w3.org/2000/svg" xmlns:xlink="http://www.w3.org/1999/xlink">
<g id="graph0" class="graph" transform="scale(1 1) rotate(0) translate(4 73.5)">
<title>FAbstractWidget::getComponentList</title>
<polygon fill="white" stroke="none" points="-4,4 -4,-73.5 692,-73.5 692,4 -4,4"/>
<!-- Node50 -->
<g id="node1" class="node"><title>Node50</title>
<polygon fill="#bfbfbf" stroke="black" points="0,-28 0,-47 176,-47 176,-28 0,-28"/>
<text text-anchor="middle" x="88" y="-35" font-family="Helvetica,sans-Serif" font-size="10.00">FAbstractWidget::getComponentList</text>
</g>
<!-- Node51 -->
<g id="node2" class="node"><title>Node51</title>
<g id="a_node2"><a xlink:href="class_f_abstract_connection.html#afbf1c1d7d9f7f8c39659cff4ce05f87f" target="_top" xlink:title="FAbstractConnection\l::meta_connect">
<polygon fill="white" stroke="black" points="212,-22.5 212,-52.5 321,-52.5 321,-22.5 212,-22.5"/>
<text text-anchor="start" x="220" y="-40.5" font-family="Helvetica,sans-Serif" font-size="10.00">FAbstractConnection</text>
<text text-anchor="middle" x="266.5" y="-29.5" font-family="Helvetica,sans-Serif" font-size="10.00">::meta_connect</text>
</a>
</g>
</g>
<!-- Node50&#45;&gt;Node51 -->
<g id="edge1" class="edge"><title>Node50&#45;&gt;Node51</title>
<path fill="none" stroke="midnightblue" d="M186.461,-37.5C195.158,-37.5 203.735,-37.5 211.848,-37.5"/>
<polygon fill="midnightblue" stroke="midnightblue" points="186.216,-34.0001 176.216,-37.5 186.216,-41.0001 186.216,-34.0001"/>
</g>
<!-- Node52 -->
<g id="node3" class="node"><title>Node52</title>
<g id="a_node3"><a xlink:href="class_f_abstract_widget.html#aa147737576be8ca1fcf75d06f362b2b2" target="_top" xlink:title="FAbstractWidget::FCore">
<polygon fill="white" stroke="black" points="367,-50 367,-69 490,-69 490,-50 367,-50"/>
<text text-anchor="middle" x="428.5" y="-57" font-family="Helvetica,sans-Serif" font-size="10.00">FAbstractWidget::FCore</text>
</a>
</g>
</g>
<!-- Node51&#45;&gt;Node52 -->
<g id="edge2" class="edge"><title>Node51&#45;&gt;Node52</title>
<path fill="none" stroke="midnightblue" d="M331.334,-46.2771C343.01,-47.8826 355.165,-49.5539 366.748,-51.1466"/>
<polygon fill="midnightblue" stroke="midnightblue" points="331.606,-42.7818 321.223,-44.8869 330.653,-49.7165 331.606,-42.7818"/>
</g>
<!-- Node53 -->
<g id="node4" class="node"><title>Node53</title>
<g id="a_node4"><a xlink:href="class_f_abstract_widget.html#ac95a769d8e274582de7bf014a3289a39" target="_top" xlink:title="FAbstractWidget::setDisable\lObjects">
<polygon fill="white" stroke="black" points="357,-0.5 357,-30.5 500,-30.5 500,-0.5 357,-0.5"/>
<text text-anchor="start" x="365" y="-18.5" font-family="Helvetica,sans-Serif" font-size="10.00">FAbstractWidget::setDisable</text>
<text text-anchor="middle" x="428.5" y="-7.5" font-family="Helvetica,sans-Serif" font-size="10.00">Objects</text>
</a>
</g>
</g>
<!-- Node51&#45;&gt;Node53 -->
<g id="edge3" class="edge"><title>Node51&#45;&gt;Node53</title>
<path fill="none" stroke="midnightblue" d="M331.318,-28.725C339.717,-27.5701 348.365,-26.3811 356.869,-25.2118"/>
<polygon fill="midnightblue" stroke="midnightblue" points="330.653,-25.2835 321.223,-30.1131 331.606,-32.2182 330.653,-25.2835"/>
</g>
<!-- Node54 -->
<g id="node5" class="node"><title>Node54</title>
<g id="a_node5"><a xlink:href="class_main_window.html#ab7fcfafb1f92c51e6452893672775d41" target="_top" xlink:title="Créer le dialogue de configuration de l&#39;interface graphique. ">
<polygon fill="white" stroke="black" points="536,-6 536,-25 688,-25 688,-6 536,-6"/>
<text text-anchor="middle" x="612" y="-13" font-family="Helvetica,sans-Serif" font-size="10.00">MainWindow::configureOptions</text>
</a>
</g>
</g>
<!-- Node53&#45;&gt;Node54 -->
<g id="edge4" class="edge"><title>Node53&#45;&gt;Node54</title>
<path fill="none" stroke="midnightblue" d="M510.388,-15.5C518.809,-15.5 527.345,-15.5 535.701,-15.5"/>
<polygon fill="midnightblue" stroke="midnightblue" points="510.192,-12.0001 500.192,-15.5 510.192,-19.0001 510.192,-12.0001"/>
</g>
</g>
</svg>
