<?xml version="1.0" encoding="UTF-8" standalone="no"?>
<!DOCTYPE svg PUBLIC "-//W3C//DTD SVG 1.1//EN"
 "http://www.w3.org/Graphics/SVG/1.1/DTD/svg11.dtd">
<!-- Generated by graphviz version 2.40.1 (20161225.0304)
 -->
<!-- Title: tools::unzip Pages: 1 -->
<svg width="426pt" height="47pt"
 viewBox="0.00 0.00 426.00 47.00" xmlns="http://www.w3.org/2000/svg" xmlns:xlink="http://www.w3.org/1999/xlink">
<g id="graph0" class="graph" transform="scale(1 1) rotate(0) translate(4 43)">
<title>tools::unzip</title>
<polygon fill="#ffffff" stroke="transparent" points="-4,4 -4,-43 422,-43 422,4 -4,4"/>
<!-- Node274 -->
<g id="node1" class="node">
<title>Node274</title>
<polygon fill="#bfbfbf" stroke="#000000" points="0,-.5 0,-19.5 67,-19.5 67,-.5 0,-.5"/>
<text text-anchor="middle" x="33.5" y="-7.5" font-family="Helvetica,sans-Serif" font-size="10.00" fill="#000000">tools::unzip</text>
</g>
<!-- Node275 -->
<g id="node2" class="node">
<title>Node275</title>
<g id="a_node2"><a xlink:href="classtools.html#ae1018e45c513785270b999cbcfa8beb6" target="_top" xlink:title="Procédure de contrôle des entrées&#45;sorties. ">
<polygon fill="#ffffff" stroke="#000000" points="103,-.5 103,-19.5 189,-19.5 189,-.5 103,-.5"/>
<text text-anchor="middle" x="146" y="-7.5" font-family="Helvetica,sans-Serif" font-size="10.00" fill="#000000">tools::IOControl</text>
</a>
</g>
</g>
<!-- Node274&#45;&gt;Node275 -->
<g id="edge1" class="edge">
<title>Node274&#45;&gt;Node275</title>
<path fill="none" stroke="#191970" d="M67.2537,-10C75.2549,-10 83.9833,-10 92.6211,-10"/>
<polygon fill="#191970" stroke="#191970" points="92.6705,-13.5001 102.6705,-10 92.6705,-6.5001 92.6705,-13.5001"/>
</g>
<!-- Node276 -->
<g id="node3" class="node">
<title>Node276</title>
<g id="a_node3"><a xlink:href="classtools.html#a37c9c486d90129b0d6a4ac93f29fd5bb" target="_top" xlink:title="Copie un répertoire de manière sécurisée. ">
<polygon fill="#ffffff" stroke="#000000" points="225,-19.5 225,-38.5 302,-38.5 302,-19.5 225,-19.5"/>
<text text-anchor="middle" x="263.5" y="-26.5" font-family="Helvetica,sans-Serif" font-size="10.00" fill="#000000">tools::copyDir</text>
</a>
</g>
</g>
<!-- Node275&#45;&gt;Node276 -->
<g id="edge2" class="edge">
<title>Node275&#45;&gt;Node276</title>
<path fill="none" stroke="#191970" d="M189.0855,-16.967C197.3739,-18.3073 206.1111,-19.7201 214.5688,-21.0877"/>
<polygon fill="#191970" stroke="#191970" points="214.2674,-24.5844 224.6979,-22.7256 215.3849,-17.6741 214.2674,-24.5844"/>
</g>
<!-- Node277 -->
<g id="node4" class="node">
<title>Node277</title>
<g id="a_node4"><a xlink:href="classtools.html#a0765c68c41d7c957f1fb0f0da8b4a9c9" target="_top" xlink:title="Copie un fichier de manière sécurisée. ">
<polygon fill="#ffffff" stroke="#000000" points="338,-.5 338,-19.5 418,-19.5 418,-.5 338,-.5"/>
<text text-anchor="middle" x="378" y="-7.5" font-family="Helvetica,sans-Serif" font-size="10.00" fill="#000000">tools::copyFile</text>
</a>
</g>
</g>
<!-- Node276&#45;&gt;Node277 -->
<g id="edge3" class="edge">
<title>Node276&#45;&gt;Node277</title>
<path fill="none" stroke="#191970" d="M302.2645,-22.5675C310.4715,-21.2056 319.2463,-19.7495 327.8073,-18.3289"/>
<polygon fill="#191970" stroke="#191970" points="328.42,-21.7752 337.7121,-16.6853 327.274,-14.8696 328.42,-21.7752"/>
</g>
<!-- Node277&#45;&gt;Node275 -->
<g id="edge4" class="edge">
<title>Node277&#45;&gt;Node275</title>
<path fill="none" stroke="#191970" d="M337.8525,-10C299.4822,-10 241.3948,-10 199.1896,-10"/>
<polygon fill="#191970" stroke="#191970" points="199.0937,-6.5001 189.0937,-10 199.0937,-13.5001 199.0937,-6.5001"/>
</g>
</g>
</svg>
