<?xml version="1.0" encoding="UTF-8" standalone="no"?>
<!DOCTYPE svg PUBLIC "-//W3C//DTD SVG 1.1//EN"
 "http://www.w3.org/Graphics/SVG/1.1/DTD/svg11.dtd">
<!-- Generated by graphviz version 2.38.0 (20140413.2041)
 -->
<!-- Title: common Pages: 1 -->
<svg width="164pt" height="812pt"
 viewBox="0.00 0.00 163.50 812.00" xmlns="http://www.w3.org/2000/svg" xmlns:xlink="http://www.w3.org/1999/xlink">
<g id="graph0" class="graph" transform="scale(1 1) rotate(0) translate(4 808)">
<title>common</title>
<polygon fill="white" stroke="none" points="-4,4 -4,-808 159.5,-808 159.5,4 -4,4"/>
<!-- Node8 -->
<g id="node1" class="node"><title>Node8</title>
<polygon fill="#bfbfbf" stroke="black" points="-7.10543e-15,-0.5 -7.10543e-15,-145.5 121,-145.5 121,-0.5 -7.10543e-15,-0.5"/>
<text text-anchor="middle" x="60.5" y="-133.5" font-family="Helvetica,sans-Serif" font-size="10.00">common</text>
<polyline fill="none" stroke="black" points="-7.10543e-15,-126.5 121,-126.5 "/>
<text text-anchor="start" x="8" y="-114.5" font-family="Helvetica,sans-Serif" font-size="10.00">+ altairCommandStr</text>
<text text-anchor="start" x="8" y="-103.5" font-family="Helvetica,sans-Serif" font-size="10.00">+ execPath</text>
<text text-anchor="start" x="8" y="-92.5" font-family="Helvetica,sans-Serif" font-size="10.00">+ RAltairCommandStr</text>
<text text-anchor="start" x="8" y="-81.5" font-family="Helvetica,sans-Serif" font-size="10.00">+ RAltairDirStr</text>
<text text-anchor="start" x="8" y="-70.5" font-family="Helvetica,sans-Serif" font-size="10.00">+ sharedir</text>
<polyline fill="none" stroke="black" points="-7.10543e-15,-63.5 121,-63.5 "/>
<text text-anchor="start" x="8" y="-51.5" font-family="Helvetica,sans-Serif" font-size="10.00">+ common()</text>
<text text-anchor="start" x="8" y="-40.5" font-family="Helvetica,sans-Serif" font-size="10.00">+ exporter_identification</text>
<text text-anchor="start" x="8" y="-29.5" font-family="Helvetica,sans-Serif" font-size="10.00">_controle()</text>
<text text-anchor="start" x="8" y="-18.5" font-family="Helvetica,sans-Serif" font-size="10.00">+ exporter_identification</text>
<text text-anchor="start" x="8" y="-7.5" font-family="Helvetica,sans-Serif" font-size="10.00">_controle()</text>
</g>
<!-- Node9 -->
<g id="node2" class="node"><title>Node9</title>
<g id="a_node2"><a xlink:href="classtools.html" target="_top" xlink:title="{tools\n|+ systemPathPrefix\l+ tempdir\l+ userdatadir\l|+ tools()\l+ dump()\l+ getEmbeddedPath()\l+ readFile()\l+ readFile()\l+ readFile()\l+ readFile()\l+ renommer()\l+ substituer()\l+ cdRomMounted()\l+ copyDir()\l+ copyFile()\l+ generateDatadirPath()\l+ generateDatadirPath()\l+ getDirectorySize()\l+ getFileSize()\l+ IOControl()\l+ openDir()\l+ openDirDialog()\let 6 de plus...\l}">
<polygon fill="white" stroke="black" points="-7.10543e-15,-183.5 -7.10543e-15,-471.5 121,-471.5 121,-183.5 -7.10543e-15,-183.5"/>
<text text-anchor="middle" x="60.5" y="-459.5" font-family="Helvetica,sans-Serif" font-size="10.00">tools</text>
<polyline fill="none" stroke="black" points="-7.10543e-15,-452.5 121,-452.5 "/>
<text text-anchor="start" x="8" y="-440.5" font-family="Helvetica,sans-Serif" font-size="10.00">+ systemPathPrefix</text>
<text text-anchor="start" x="8" y="-429.5" font-family="Helvetica,sans-Serif" font-size="10.00">+ tempdir</text>
<text text-anchor="start" x="8" y="-418.5" font-family="Helvetica,sans-Serif" font-size="10.00">+ userdatadir</text>
<polyline fill="none" stroke="black" points="-7.10543e-15,-411.5 121,-411.5 "/>
<text text-anchor="start" x="8" y="-399.5" font-family="Helvetica,sans-Serif" font-size="10.00">+ tools()</text>
<text text-anchor="start" x="8" y="-388.5" font-family="Helvetica,sans-Serif" font-size="10.00">+ dump()</text>
<text text-anchor="start" x="8" y="-377.5" font-family="Helvetica,sans-Serif" font-size="10.00">+ getEmbeddedPath()</text>
<text text-anchor="start" x="8" y="-366.5" font-family="Helvetica,sans-Serif" font-size="10.00">+ readFile()</text>
<text text-anchor="start" x="8" y="-355.5" font-family="Helvetica,sans-Serif" font-size="10.00">+ readFile()</text>
<text text-anchor="start" x="8" y="-344.5" font-family="Helvetica,sans-Serif" font-size="10.00">+ readFile()</text>
<text text-anchor="start" x="8" y="-333.5" font-family="Helvetica,sans-Serif" font-size="10.00">+ readFile()</text>
<text text-anchor="start" x="8" y="-322.5" font-family="Helvetica,sans-Serif" font-size="10.00">+ renommer()</text>
<text text-anchor="start" x="8" y="-311.5" font-family="Helvetica,sans-Serif" font-size="10.00">+ substituer()</text>
<text text-anchor="start" x="8" y="-300.5" font-family="Helvetica,sans-Serif" font-size="10.00">+ cdRomMounted()</text>
<text text-anchor="start" x="8" y="-289.5" font-family="Helvetica,sans-Serif" font-size="10.00">+ copyDir()</text>
<text text-anchor="start" x="8" y="-278.5" font-family="Helvetica,sans-Serif" font-size="10.00">+ copyFile()</text>
<text text-anchor="start" x="8" y="-267.5" font-family="Helvetica,sans-Serif" font-size="10.00">+ generateDatadirPath()</text>
<text text-anchor="start" x="8" y="-256.5" font-family="Helvetica,sans-Serif" font-size="10.00">+ generateDatadirPath()</text>
<text text-anchor="start" x="8" y="-245.5" font-family="Helvetica,sans-Serif" font-size="10.00">+ getDirectorySize()</text>
<text text-anchor="start" x="8" y="-234.5" font-family="Helvetica,sans-Serif" font-size="10.00">+ getFileSize()</text>
<text text-anchor="start" x="8" y="-223.5" font-family="Helvetica,sans-Serif" font-size="10.00">+ IOControl()</text>
<text text-anchor="start" x="8" y="-212.5" font-family="Helvetica,sans-Serif" font-size="10.00">+ openDir()</text>
<text text-anchor="start" x="8" y="-201.5" font-family="Helvetica,sans-Serif" font-size="10.00">+ openDirDialog()</text>
<text text-anchor="start" x="8" y="-190.5" font-family="Helvetica,sans-Serif" font-size="10.00">et 6 de plus...</text>
</a>
</g>
</g>
<!-- Node9&#45;&gt;Node8 -->
<g id="edge1" class="edge"><title>Node9&#45;&gt;Node8</title>
<path fill="none" stroke="midnightblue" d="M60.5,-173.268C60.5,-163.724 60.5,-154.396 60.5,-145.516"/>
<polygon fill="none" stroke="midnightblue" points="57.0001,-173.282 60.5,-183.282 64.0001,-173.282 57.0001,-173.282"/>
</g>
<!-- Node10 -->
<g id="node3" class="node"><title>Node10</title>
<g id="a_node3"><a xlink:href="classflags.html" target="_top" xlink:title="{flags\n||}">
<polygon fill="white" stroke="black" points="13.5,-585.5 13.5,-642.5 51.5,-642.5 51.5,-585.5 13.5,-585.5"/>
<text text-anchor="middle" x="32.5" y="-630.5" font-family="Helvetica,sans-Serif" font-size="10.00">flags</text>
<polyline fill="none" stroke="black" points="13.5,-623.5 51.5,-623.5 "/>
<text text-anchor="middle" x="32.5" y="-611.5" font-family="Helvetica,sans-Serif" font-size="10.00"> </text>
<polyline fill="none" stroke="black" points="13.5,-604.5 51.5,-604.5 "/>
<text text-anchor="middle" x="32.5" y="-592.5" font-family="Helvetica,sans-Serif" font-size="10.00"> </text>
</a>
</g>
</g>
<!-- Node10&#45;&gt;Node9 -->
<g id="edge2" class="edge"><title>Node10&#45;&gt;Node9</title>
<path fill="none" stroke="midnightblue" d="M36.2074,-575.33C38.8646,-548.331 42.6272,-510.101 46.3994,-471.772"/>
<polygon fill="none" stroke="midnightblue" points="32.7066,-575.168 35.2102,-585.462 39.6729,-575.853 32.7066,-575.168"/>
</g>
<!-- Node11 -->
<g id="node4" class="node"><title>Node11</title>
<g id="a_node4"><a xlink:href="class_f_string.html" target="_top" xlink:title="Chaîne de caractères fonctionnelle. ">
<polygon fill="white" stroke="black" points="69.5,-519.5 69.5,-708.5 155.5,-708.5 155.5,-519.5 69.5,-519.5"/>
<text text-anchor="middle" x="112.5" y="-696.5" font-family="Helvetica,sans-Serif" font-size="10.00">FString</text>
<polyline fill="none" stroke="black" points="69.5,-689.5 155.5,-689.5 "/>
<text text-anchor="start" x="77.5" y="-677.5" font-family="Helvetica,sans-Serif" font-size="10.00">&#45; p</text>
<text text-anchor="start" x="77.5" y="-666.5" font-family="Helvetica,sans-Serif" font-size="10.00">&#45; x</text>
<polyline fill="none" stroke="black" points="69.5,-659.5 155.5,-659.5 "/>
<text text-anchor="start" x="77.5" y="-647.5" font-family="Helvetica,sans-Serif" font-size="10.00">+ FString()</text>
<text text-anchor="start" x="77.5" y="-636.5" font-family="Helvetica,sans-Serif" font-size="10.00">+ FString()</text>
<text text-anchor="start" x="77.5" y="-625.5" font-family="Helvetica,sans-Serif" font-size="10.00">+ FString()</text>
<text text-anchor="start" x="77.5" y="-614.5" font-family="Helvetica,sans-Serif" font-size="10.00">+ FString()</text>
<text text-anchor="start" x="77.5" y="-603.5" font-family="Helvetica,sans-Serif" font-size="10.00">+ FString()</text>
<text text-anchor="start" x="77.5" y="-592.5" font-family="Helvetica,sans-Serif" font-size="10.00">+ fromBool()</text>
<text text-anchor="start" x="77.5" y="-581.5" font-family="Helvetica,sans-Serif" font-size="10.00">+ isBoolean()</text>
<text text-anchor="start" x="77.5" y="-570.5" font-family="Helvetica,sans-Serif" font-size="10.00">+ isFalse()</text>
<text text-anchor="start" x="77.5" y="-559.5" font-family="Helvetica,sans-Serif" font-size="10.00">+ isFilled()</text>
<text text-anchor="start" x="77.5" y="-548.5" font-family="Helvetica,sans-Serif" font-size="10.00">+ isMultimodal()</text>
<text text-anchor="start" x="77.5" y="-537.5" font-family="Helvetica,sans-Serif" font-size="10.00">et 15 de plus...</text>
<text text-anchor="start" x="77.5" y="-526.5" font-family="Helvetica,sans-Serif" font-size="10.00">&#45; testBool()</text>
</a>
</g>
</g>
<!-- Node11&#45;&gt;Node9 -->
<g id="edge3" class="edge"><title>Node11&#45;&gt;Node9</title>
<path fill="none" stroke="#404040" d="M95.4012,-519.45C93.2921,-507.911 91.0941,-495.885 88.8729,-483.732"/>
<polygon fill="none" stroke="#404040" points="88.8039,-483.355 83.7903,-478.172 86.6462,-471.55 91.6599,-476.733 88.8039,-483.355"/>
<text text-anchor="middle" x="122.5" y="-493" font-family="Helvetica,sans-Serif" font-size="10.00"> +htmlLogPath</text>
</g>
<!-- Node12 -->
<g id="node5" class="node"><title>Node12</title>
<polygon fill="white" stroke="#bfbfbf" points="87.5,-746.5 87.5,-803.5 137.5,-803.5 137.5,-746.5 87.5,-746.5"/>
<text text-anchor="middle" x="112.5" y="-791.5" font-family="Helvetica,sans-Serif" font-size="10.00">QString</text>
<polyline fill="none" stroke="#bfbfbf" points="87.5,-784.5 137.5,-784.5 "/>
<text text-anchor="middle" x="112.5" y="-772.5" font-family="Helvetica,sans-Serif" font-size="10.00"> </text>
<polyline fill="none" stroke="#bfbfbf" points="87.5,-765.5 137.5,-765.5 "/>
<text text-anchor="middle" x="112.5" y="-753.5" font-family="Helvetica,sans-Serif" font-size="10.00"> </text>
</g>
<!-- Node12&#45;&gt;Node11 -->
<g id="edge4" class="edge"><title>Node12&#45;&gt;Node11</title>
<path fill="none" stroke="midnightblue" d="M112.5,-736.078C112.5,-727.598 112.5,-718.241 112.5,-708.597"/>
<polygon fill="none" stroke="midnightblue" points="109,-736.304 112.5,-746.304 116,-736.304 109,-736.304"/>
</g>
</g>
</svg>
