<?xml version="1.0" encoding="UTF-8" standalone="no"?>
<!DOCTYPE svg PUBLIC "-//W3C//DTD SVG 1.1//EN"
 "http://www.w3.org/Graphics/SVG/1.1/DTD/svg11.dtd">
<!-- Generated by graphviz version 2.38.0 (20140413.2041)
 -->
<!-- Title: FListFrame::deleteGroup Pages: 1 -->
<svg width="326pt" height="104pt"
 viewBox="0.00 0.00 326.00 104.00" xmlns="http://www.w3.org/2000/svg" xmlns:xlink="http://www.w3.org/1999/xlink">
<g id="graph0" class="graph" transform="scale(1 1) rotate(0) translate(4 100)">
<title>FListFrame::deleteGroup</title>
<polygon fill="white" stroke="none" points="-4,4 -4,-100 322,-100 322,4 -4,4"/>
<!-- Node358 -->
<g id="node1" class="node"><title>Node358</title>
<polygon fill="#bfbfbf" stroke="black" points="0,-38.5 0,-57.5 132,-57.5 132,-38.5 0,-38.5"/>
<text text-anchor="middle" x="66" y="-45.5" font-family="Helvetica,sans-Serif" font-size="10.00">FListFrame::deleteGroup</text>
</g>
<!-- Node359 -->
<g id="node2" class="node"><title>Node359</title>
<g id="a_node2"><a xlink:href="class_f_list_widget.html#a81dae63e19cad64c637cfee609defa3f" target="_top" xlink:title="FListWidget::getTabLabels">
<polygon fill="white" stroke="black" points="173,-76.5 173,-95.5 313,-95.5 313,-76.5 173,-76.5"/>
<text text-anchor="middle" x="243" y="-83.5" font-family="Helvetica,sans-Serif" font-size="10.00">FListWidget::getTabLabels</text>
</a>
</g>
</g>
<!-- Node358&#45;&gt;Node359 -->
<g id="edge1" class="edge"><title>Node358&#45;&gt;Node359</title>
<path fill="none" stroke="midnightblue" d="M111.16,-57.589C134.565,-62.6713 163.505,-68.9554 188.212,-74.3203"/>
<polygon fill="midnightblue" stroke="midnightblue" points="187.643,-77.7782 198.158,-76.4799 189.128,-70.9376 187.643,-77.7782"/>
</g>
<!-- Node360 -->
<g id="node3" class="node"><title>Node360</title>
<g id="a_node3"><a xlink:href="class_f_list_widget.html#aac6eaaeb9946354f743394b54c84a6a7" target="_top" xlink:title="FListWidget::setTabLabels">
<polygon fill="white" stroke="black" points="173,-38.5 173,-57.5 313,-57.5 313,-38.5 173,-38.5"/>
<text text-anchor="middle" x="243" y="-45.5" font-family="Helvetica,sans-Serif" font-size="10.00">FListWidget::setTabLabels</text>
</a>
</g>
</g>
<!-- Node358&#45;&gt;Node360 -->
<g id="edge2" class="edge"><title>Node358&#45;&gt;Node360</title>
<path fill="none" stroke="midnightblue" d="M132.164,-48C142.149,-48 152.549,-48 162.797,-48"/>
<polygon fill="midnightblue" stroke="midnightblue" points="162.973,-51.5001 172.973,-48 162.973,-44.5001 162.973,-51.5001"/>
</g>
<!-- Node361 -->
<g id="node4" class="node"><title>Node361</title>
<g id="a_node4"><a xlink:href="class_f_list_frame.html#a356ad4309df1e931fb3ee12ad88054fb" target="_top" xlink:title="Actualise currentWidget, row et currentIndex. ">
<polygon fill="white" stroke="black" points="168,-0.5 168,-19.5 318,-19.5 318,-0.5 168,-0.5"/>
<text text-anchor="middle" x="243" y="-7.5" font-family="Helvetica,sans-Serif" font-size="10.00">FListFrame::updateIndexInfo</text>
</a>
</g>
</g>
<!-- Node358&#45;&gt;Node361 -->
<g id="edge3" class="edge"><title>Node358&#45;&gt;Node361</title>
<path fill="none" stroke="midnightblue" d="M111.16,-38.411C134.565,-33.3287 163.505,-27.0446 188.212,-21.6797"/>
<polygon fill="midnightblue" stroke="midnightblue" points="189.128,-25.0624 198.158,-19.5201 187.643,-18.2218 189.128,-25.0624"/>
</g>
</g>
</svg>
