<?xml version="1.0" encoding="UTF-8" standalone="no"?>
<!DOCTYPE svg PUBLIC "-//W3C//DTD SVG 1.1//EN"
 "http://www.w3.org/Graphics/SVG/1.1/DTD/svg11.dtd">
<!-- Generated by graphviz version 2.38.0 (20140413.2041)
 -->
<!-- Title: FAbstractWidget::commandLineStringList Pages: 1 -->
<svg width="499pt" height="39pt"
 viewBox="0.00 0.00 499.00 39.00" xmlns="http://www.w3.org/2000/svg" xmlns:xlink="http://www.w3.org/1999/xlink">
<g id="graph0" class="graph" transform="scale(1 1) rotate(0) translate(4 35)">
<title>FAbstractWidget::commandLineStringList</title>
<polygon fill="white" stroke="none" points="-4,4 -4,-35 495,-35 495,4 -4,4"/>
<!-- Node0 -->
<g id="node1" class="node"><title>Node0</title>
<polygon fill="#bfbfbf" stroke="black" points="0,-0.5 0,-30.5 139,-30.5 139,-0.5 0,-0.5"/>
<text text-anchor="start" x="8" y="-18.5" font-family="Helvetica,sans-Serif" font-size="10.00">FAbstractWidget::command</text>
<text text-anchor="middle" x="69.5" y="-7.5" font-family="Helvetica,sans-Serif" font-size="10.00">LineStringList</text>
</g>
<!-- Node1 -->
<g id="node2" class="node"><title>Node1</title>
<g id="a_node2"><a xlink:href="class_f_abstract_widget.html#a6e974137b3ddc4347eef32a468fd2f9b" target="_top" xlink:title="FAbstractWidget::isAbstract\lDisabled">
<polygon fill="white" stroke="black" points="175,-0.5 175,-30.5 315,-30.5 315,-0.5 175,-0.5"/>
<text text-anchor="start" x="183" y="-18.5" font-family="Helvetica,sans-Serif" font-size="10.00">FAbstractWidget::isAbstract</text>
<text text-anchor="middle" x="245" y="-7.5" font-family="Helvetica,sans-Serif" font-size="10.00">Disabled</text>
</a>
</g>
</g>
<!-- Node0&#45;&gt;Node1 -->
<g id="edge1" class="edge"><title>Node0&#45;&gt;Node1</title>
<path fill="none" stroke="midnightblue" d="M139.072,-15.5C147.514,-15.5 156.196,-15.5 164.779,-15.5"/>
<polygon fill="midnightblue" stroke="midnightblue" points="164.789,-19.0001 174.789,-15.5 164.789,-12.0001 164.789,-19.0001"/>
</g>
<!-- Node2 -->
<g id="node3" class="node"><title>Node2</title>
<g id="a_node3"><a xlink:href="class_f_abstract_widget.html#a6bec2d63718d591bf304509947161432" target="_top" xlink:title="FAbstractWidget::isAbstract\lEnabled">
<polygon fill="white" stroke="black" points="351,-0.5 351,-30.5 491,-30.5 491,-0.5 351,-0.5"/>
<text text-anchor="start" x="359" y="-18.5" font-family="Helvetica,sans-Serif" font-size="10.00">FAbstractWidget::isAbstract</text>
<text text-anchor="middle" x="421" y="-7.5" font-family="Helvetica,sans-Serif" font-size="10.00">Enabled</text>
</a>
</g>
</g>
<!-- Node1&#45;&gt;Node2 -->
<g id="edge2" class="edge"><title>Node1&#45;&gt;Node2</title>
<path fill="none" stroke="midnightblue" d="M315.019,-15.5C323.476,-15.5 332.169,-15.5 340.761,-15.5"/>
<polygon fill="midnightblue" stroke="midnightblue" points="340.78,-19.0001 350.779,-15.5 340.779,-12.0001 340.78,-19.0001"/>
</g>
</g>
</svg>
