<?xml version="1.0" encoding="UTF-8" standalone="no"?>
<!DOCTYPE svg PUBLIC "-//W3C//DTD SVG 1.1//EN"
 "http://www.w3.org/Graphics/SVG/1.1/DTD/svg11.dtd">
<!-- Generated by graphviz version 2.38.0 (20140413.2041)
 -->
<!-- Title: Altair::on_openProjectButton_clicked Pages: 1 -->
<svg width="1460pt" height="680pt"
 viewBox="0.00 0.00 1460.00 680.00" xmlns="http://www.w3.org/2000/svg" xmlns:xlink="http://www.w3.org/1999/xlink">
<g id="graph0" class="graph" transform="scale(1 1) rotate(0) translate(4 676)">
<title>Altair::on_openProjectButton_clicked</title>
<polygon fill="white" stroke="none" points="-4,4 -4,-676 1456,-676 1456,4 -4,4"/>
<!-- Node432 -->
<g id="node1" class="node"><title>Node432</title>
<polygon fill="#bfbfbf" stroke="black" points="0,-264 0,-294 141,-294 141,-264 0,-264"/>
<text text-anchor="start" x="8" y="-282" font-family="Helvetica,sans-Serif" font-size="10.00">Altair::on_openProjectButton</text>
<text text-anchor="middle" x="70.5" y="-271" font-family="Helvetica,sans-Serif" font-size="10.00">_clicked</text>
</g>
<!-- Node433 -->
<g id="node2" class="node"><title>Node433</title>
<g id="a_node2"><a xlink:href="class_altair.html#ab67e3285c4a6c8fb48d12381ea6ac6bd" target="_top" xlink:title="Ferme le projet et réinitialise l&#39;interface (gestionnaire de projet inclus) ">
<polygon fill="white" stroke="black" points="569,-528.5 569,-547.5 668,-547.5 668,-528.5 569,-528.5"/>
<text text-anchor="middle" x="618.5" y="-535.5" font-family="Helvetica,sans-Serif" font-size="10.00">Altair::closeProject</text>
</a>
</g>
</g>
<!-- Node432&#45;&gt;Node433 -->
<g id="edge1" class="edge"><title>Node432&#45;&gt;Node433</title>
<path fill="none" stroke="midnightblue" d="M103.215,-294.044C200.485,-340.185 493.699,-479.274 587.968,-523.991"/>
<polygon fill="midnightblue" stroke="midnightblue" points="586.676,-527.252 597.211,-528.376 589.676,-520.928 586.676,-527.252"/>
</g>
<!-- Node447 -->
<g id="node16" class="node"><title>Node447</title>
<g id="a_node16"><a xlink:href="class_altair.html#aa341707131924eff160bcab41422d1ec" target="_top" xlink:title="Code commun à différentes fonctions lancées pour l&#39;analyse des projets. ">
<polygon fill="white" stroke="black" points="177,-142.5 177,-161.5 353,-161.5 353,-142.5 177,-142.5"/>
<text text-anchor="middle" x="265" y="-149.5" font-family="Helvetica,sans-Serif" font-size="10.00">Altair::openProjectFileCommonCode</text>
</a>
</g>
</g>
<!-- Node432&#45;&gt;Node447 -->
<g id="edge20" class="edge"><title>Node432&#45;&gt;Node447</title>
<path fill="none" stroke="midnightblue" d="M94.3382,-263.933C131.246,-239.583 203.613,-191.84 240.77,-167.326"/>
<polygon fill="midnightblue" stroke="midnightblue" points="242.996,-170.051 249.415,-161.622 239.141,-164.208 242.996,-170.051"/>
</g>
<!-- Node434 -->
<g id="node3" class="node"><title>Node434</title>
<g id="a_node3"><a xlink:href="class_f_list_frame.html#a5c6ce884a0169251e359364921d1f89c" target="_top" xlink:title="FListFrame::addNewTab">
<polygon fill="white" stroke="black" points="742.5,-586.5 742.5,-605.5 867.5,-605.5 867.5,-586.5 742.5,-586.5"/>
<text text-anchor="middle" x="805" y="-593.5" font-family="Helvetica,sans-Serif" font-size="10.00">FListFrame::addNewTab</text>
</a>
</g>
</g>
<!-- Node433&#45;&gt;Node434 -->
<g id="edge2" class="edge"><title>Node433&#45;&gt;Node434</title>
<path fill="none" stroke="midnightblue" d="M649.313,-547.61C670.651,-554.466 700.071,-563.872 726,-572 738.041,-575.774 751.144,-579.827 763.114,-583.508"/>
<polygon fill="midnightblue" stroke="midnightblue" points="762.266,-586.909 772.853,-586.498 764.321,-580.218 762.266,-586.909"/>
</g>
<!-- Node435 -->
<g id="node4" class="node"><title>Node435</title>
<g id="a_node4"><a xlink:href="class_f_list_frame.html#a4bf0d0d8e56418df395b020d2e66db5f" target="_top" xlink:title="Récupère la taille courante (0&#45;based) du conteneur widgetContainer Cette taille doit en principe être...">
<polygon fill="white" stroke="black" points="1326,-593.5 1326,-612.5 1435,-612.5 1435,-593.5 1326,-593.5"/>
<text text-anchor="middle" x="1380.5" y="-600.5" font-family="Helvetica,sans-Serif" font-size="10.00">FListFrame::getRank</text>
</a>
</g>
</g>
<!-- Node433&#45;&gt;Node435 -->
<g id="edge17" class="edge"><title>Node433&#45;&gt;Node435</title>
<path fill="none" stroke="midnightblue" d="M668.198,-542.165C800.572,-553.486 1167,-584.826 1315.63,-597.537"/>
<polygon fill="midnightblue" stroke="midnightblue" points="1315.69,-601.055 1325.95,-598.42 1316.28,-594.08 1315.69,-601.055"/>
</g>
<!-- Node436 -->
<g id="node5" class="node"><title>Node436</title>
<g id="a_node5"><a xlink:href="class_altair.html#a5b3c33b6ae4f6b57b5593245751ef203" target="_top" xlink:title="Efface toutes les données du projet .alt et réinitialise l&#39;interface et les conteneurs de données int...">
<polygon fill="white" stroke="black" points="746,-508.5 746,-527.5 864,-527.5 864,-508.5 746,-508.5"/>
<text text-anchor="middle" x="805" y="-515.5" font-family="Helvetica,sans-Serif" font-size="10.00">Altair::clearProjectData</text>
</a>
</g>
</g>
<!-- Node433&#45;&gt;Node436 -->
<g id="edge4" class="edge"><title>Node433&#45;&gt;Node436</title>
<path fill="none" stroke="midnightblue" d="M668.458,-532.693C689.103,-530.455 713.489,-527.812 735.844,-525.388"/>
<polygon fill="midnightblue" stroke="midnightblue" points="736.388,-528.85 745.952,-524.292 735.633,-521.891 736.388,-528.85"/>
</g>
<!-- Node441 -->
<g id="node10" class="node"><title>Node441</title>
<g id="a_node10"><a xlink:href="class_altair.html#a78a2870bb9b316c5ad6bcbd64471eeb8" target="_top" xlink:title="Renvoie la taille des données exportées. ">
<polygon fill="white" stroke="black" points="1349,-334.5 1349,-353.5 1412,-353.5 1412,-334.5 1349,-334.5"/>
<text text-anchor="middle" x="1380.5" y="-341.5" font-family="Helvetica,sans-Serif" font-size="10.00">Altair::size</text>
</a>
</g>
</g>
<!-- Node433&#45;&gt;Node441 -->
<g id="edge19" class="edge"><title>Node433&#45;&gt;Node441</title>
<path fill="none" stroke="midnightblue" d="M637.62,-528.35C683.603,-504.214 809.05,-440.547 920,-404 1000.4,-377.515 1022.21,-375.077 1106,-363 1188.15,-351.159 1285.28,-346.633 1338.87,-344.952"/>
<polygon fill="midnightblue" stroke="midnightblue" points="1339.1,-348.446 1348.99,-344.652 1338.89,-341.45 1339.1,-348.446"/>
</g>
<!-- Node446 -->
<g id="node15" class="node"><title>Node446</title>
<g id="a_node15"><a xlink:href="class_f_list_frame.html#aa893c83c81b1780a7978433a107962f1" target="_top" xlink:title="Accesseur en lecture de widgetContainer. ">
<polygon fill="white" stroke="black" points="726,-624.5 726,-643.5 884,-643.5 884,-624.5 726,-624.5"/>
<text text-anchor="middle" x="805" y="-631.5" font-family="Helvetica,sans-Serif" font-size="10.00">FListFrame::getWidgetContainer</text>
</a>
</g>
</g>
<!-- Node433&#45;&gt;Node446 -->
<g id="edge18" class="edge"><title>Node433&#45;&gt;Node446</title>
<path fill="none" stroke="midnightblue" d="M629.807,-547.607C647.874,-563.923 687.055,-597.023 726,-615 731.269,-617.432 736.888,-619.576 742.604,-621.461"/>
<polygon fill="midnightblue" stroke="midnightblue" points="741.683,-624.839 752.268,-624.393 743.715,-618.141 741.683,-624.839"/>
</g>
<!-- Node434&#45;&gt;Node435 -->
<g id="edge3" class="edge"><title>Node434&#45;&gt;Node435</title>
<path fill="none" stroke="midnightblue" d="M867.647,-596.752C977.198,-598.09 1204.69,-600.866 1315.74,-602.222"/>
<polygon fill="midnightblue" stroke="midnightblue" points="1315.75,-605.722 1325.79,-602.344 1315.84,-598.723 1315.75,-605.722"/>
</g>
<!-- Node437 -->
<g id="node6" class="node"><title>Node437</title>
<g id="a_node6"><a xlink:href="class_f_list_frame.html#a018583305b4464d69c66805aceb1a2ac" target="_top" xlink:title="FListFrame::initializeWidget\lContainer">
<polygon fill="white" stroke="black" points="926,-470 926,-500 1064,-500 1064,-470 926,-470"/>
<text text-anchor="start" x="934" y="-488" font-family="Helvetica,sans-Serif" font-size="10.00">FListFrame::initializeWidget</text>
<text text-anchor="middle" x="995" y="-477" font-family="Helvetica,sans-Serif" font-size="10.00">Container</text>
</a>
</g>
</g>
<!-- Node436&#45;&gt;Node437 -->
<g id="edge5" class="edge"><title>Node436&#45;&gt;Node437</title>
<path fill="none" stroke="midnightblue" d="M860.125,-508.499C877.504,-505.449 897.114,-502.007 915.858,-498.716"/>
<polygon fill="midnightblue" stroke="midnightblue" points="916.618,-502.137 925.862,-496.96 915.408,-495.242 916.618,-502.137"/>
</g>
<!-- Node438 -->
<g id="node7" class="node"><title>Node438</title>
<g id="a_node7"><a xlink:href="class_altair.html#abf7d1895e52f7b8d7d26e4b5a0e6146a" target="_top" xlink:title="Rafraîchit le gestionnaire de projet à la droite de l&#39;interface. ">
<polygon fill="white" stroke="black" points="923.5,-414 923.5,-444 1066.5,-444 1066.5,-414 923.5,-414"/>
<text text-anchor="start" x="931.5" y="-432" font-family="Helvetica,sans-Serif" font-size="10.00">Altair::refreshProjectManager</text>
<text text-anchor="middle" x="995" y="-421" font-family="Helvetica,sans-Serif" font-size="10.00">Values</text>
</a>
</g>
</g>
<!-- Node436&#45;&gt;Node438 -->
<g id="edge6" class="edge"><title>Node436&#45;&gt;Node438</title>
<path fill="none" stroke="midnightblue" d="M823.962,-508.341C846.254,-496.474 885.543,-475.956 920,-460 928.724,-455.96 938.124,-451.845 947.2,-447.989"/>
<polygon fill="midnightblue" stroke="midnightblue" points="948.638,-451.181 956.499,-444.079 945.924,-444.729 948.638,-451.181"/>
</g>
<!-- Node445 -->
<g id="node14" class="node"><title>Node445</title>
<g id="a_node14"><a xlink:href="classcode_page.html#ad89c8fd4b641a2b884ac3980759fe329" target="_top" xlink:title="codePage::resetLabel">
<polygon fill="white" stroke="black" points="939.5,-519.5 939.5,-538.5 1050.5,-538.5 1050.5,-519.5 939.5,-519.5"/>
<text text-anchor="middle" x="995" y="-526.5" font-family="Helvetica,sans-Serif" font-size="10.00">codePage::resetLabel</text>
</a>
</g>
</g>
<!-- Node436&#45;&gt;Node445 -->
<g id="edge16" class="edge"><title>Node436&#45;&gt;Node445</title>
<path fill="none" stroke="midnightblue" d="M864.197,-521.405C884.771,-522.609 908.035,-523.97 929.127,-525.204"/>
<polygon fill="midnightblue" stroke="midnightblue" points="929.099,-528.708 939.286,-525.799 929.508,-521.72 929.099,-528.708"/>
</g>
<!-- Node439 -->
<g id="node8" class="node"><title>Node439</title>
<g id="a_node8"><a xlink:href="class_f_list_frame.html#a58337134c45f052ad6bb45c014fd5c3f" target="_top" xlink:title="Récupère les titres d&#39;onglet. ">
<polygon fill="white" stroke="black" points="1124,-536.5 1124,-555.5 1255,-555.5 1255,-536.5 1124,-536.5"/>
<text text-anchor="middle" x="1189.5" y="-543.5" font-family="Helvetica,sans-Serif" font-size="10.00">FListFrame::getTabLabels</text>
</a>
</g>
</g>
<!-- Node438&#45;&gt;Node439 -->
<g id="edge7" class="edge"><title>Node438&#45;&gt;Node439</title>
<path fill="none" stroke="midnightblue" d="M1044.83,-444.124C1053.82,-448.332 1062.67,-453.566 1070,-460 1093.94,-481.028 1080.9,-502.365 1106,-522 1111.45,-526.261 1117.63,-529.766 1124.09,-532.649"/>
<polygon fill="midnightblue" stroke="midnightblue" points="1123.14,-536.034 1133.73,-536.443 1125.7,-529.521 1123.14,-536.034"/>
</g>
<!-- Node440 -->
<g id="node9" class="node"><title>Node440</title>
<g id="a_node9"><a xlink:href="class_altair.html#adc79f280e4f580298a8dd80e2f7cf712" target="_top" xlink:title="Parcourt la table de chachage Hash::wrapper dans laquelle sont stockés à la clé &quot;XHL&quot; les chemins des...">
<polygon fill="white" stroke="black" points="1111,-372.5 1111,-391.5 1268,-391.5 1268,-372.5 1111,-372.5"/>
<text text-anchor="middle" x="1189.5" y="-379.5" font-family="Helvetica,sans-Serif" font-size="10.00">Altair::processSecondLevelData</text>
</a>
</g>
</g>
<!-- Node438&#45;&gt;Node440 -->
<g id="edge9" class="edge"><title>Node438&#45;&gt;Node440</title>
<path fill="none" stroke="midnightblue" d="M1054.17,-413.929C1070.88,-409.67 1089.15,-405.085 1106,-401 1115.75,-398.637 1126.16,-396.183 1136.2,-393.856"/>
<polygon fill="midnightblue" stroke="midnightblue" points="1137.11,-397.238 1146.06,-391.578 1135.53,-390.417 1137.11,-397.238"/>
</g>
<!-- Node442 -->
<g id="node11" class="node"><title>Node442</title>
<g id="a_node11"><a xlink:href="namespace_xml_method.html#ac0a708c4bc4c55df24e60816d69a90cf" target="_top" xlink:title="XmlMethod::displaySecond\lLevelData">
<polygon fill="white" stroke="black" points="1121.5,-411 1121.5,-441 1257.5,-441 1257.5,-411 1121.5,-411"/>
<text text-anchor="start" x="1129.5" y="-429" font-family="Helvetica,sans-Serif" font-size="10.00">XmlMethod::displaySecond</text>
<text text-anchor="middle" x="1189.5" y="-418" font-family="Helvetica,sans-Serif" font-size="10.00">LevelData</text>
</a>
</g>
</g>
<!-- Node438&#45;&gt;Node442 -->
<g id="edge11" class="edge"><title>Node438&#45;&gt;Node442</title>
<path fill="none" stroke="midnightblue" d="M1066.59,-427.9C1081.15,-427.673 1096.55,-427.433 1111.33,-427.203"/>
<polygon fill="midnightblue" stroke="midnightblue" points="1111.5,-430.701 1121.45,-427.045 1111.39,-423.701 1111.5,-430.701"/>
</g>
<!-- Node443 -->
<g id="node12" class="node"><title>Node443</title>
<g id="a_node12"><a xlink:href="namespace_xml_method.html#aad1e553eb1ec6f1bb128cc6744cba9e3" target="_top" xlink:title="XmlMethod::displayTextData">
<polygon fill="white" stroke="black" points="1309,-460.5 1309,-479.5 1452,-479.5 1452,-460.5 1309,-460.5"/>
<text text-anchor="middle" x="1380.5" y="-467.5" font-family="Helvetica,sans-Serif" font-size="10.00">XmlMethod::displayTextData</text>
</a>
</g>
</g>
<!-- Node438&#45;&gt;Node443 -->
<g id="edge13" class="edge"><title>Node438&#45;&gt;Node443</title>
<path fill="none" stroke="midnightblue" d="M1037.72,-444.066C1048.53,-448.614 1059.95,-454.01 1070,-460 1087.65,-470.518 1086.62,-482.167 1106,-489 1185.28,-516.96 1285.35,-497.297 1339.78,-482.413"/>
<polygon fill="midnightblue" stroke="midnightblue" points="1341.05,-485.693 1349.72,-479.609 1339.15,-478.956 1341.05,-485.693"/>
</g>
<!-- Node444 -->
<g id="node13" class="node"><title>Node444</title>
<g id="a_node13"><a xlink:href="namespace_xml_method.html#a796c4f03d9e7a8057f0102b87eecbd3e" target="_top" xlink:title="XmlMethod::displayFirstLevelData">
<polygon fill="white" stroke="black" points="1106,-460.5 1106,-479.5 1273,-479.5 1273,-460.5 1106,-460.5"/>
<text text-anchor="middle" x="1189.5" y="-467.5" font-family="Helvetica,sans-Serif" font-size="10.00">XmlMethod::displayFirstLevelData</text>
</a>
</g>
</g>
<!-- Node438&#45;&gt;Node444 -->
<g id="edge14" class="edge"><title>Node438&#45;&gt;Node444</title>
<path fill="none" stroke="midnightblue" d="M1066.59,-444.034C1088.72,-448.748 1112.8,-453.877 1133.67,-458.323"/>
<polygon fill="midnightblue" stroke="midnightblue" points="1133.13,-461.786 1143.64,-460.446 1134.59,-454.939 1133.13,-461.786"/>
</g>
<!-- Node439&#45;&gt;Node435 -->
<g id="edge8" class="edge"><title>Node439&#45;&gt;Node435</title>
<path fill="none" stroke="midnightblue" d="M1223.86,-555.561C1238.89,-559.907 1256.86,-565.151 1273,-570 1295.04,-576.621 1319.59,-584.211 1339.55,-590.442"/>
<polygon fill="midnightblue" stroke="midnightblue" points="1338.66,-593.828 1349.24,-593.472 1340.74,-587.147 1338.66,-593.828"/>
</g>
<!-- Node440&#45;&gt;Node441 -->
<g id="edge10" class="edge"><title>Node440&#45;&gt;Node441</title>
<path fill="none" stroke="midnightblue" d="M1238.19,-372.411C1269.3,-366.157 1309.46,-358.082 1339.01,-352.141"/>
<polygon fill="midnightblue" stroke="midnightblue" points="1339.88,-355.537 1348.99,-350.134 1338.5,-348.674 1339.88,-355.537"/>
</g>
<!-- Node442&#45;&gt;Node443 -->
<g id="edge12" class="edge"><title>Node442&#45;&gt;Node443</title>
<path fill="none" stroke="midnightblue" d="M1255.01,-441.019C1279.14,-446.636 1306.18,-452.93 1328.87,-458.214"/>
<polygon fill="midnightblue" stroke="midnightblue" points="1328.11,-461.629 1338.64,-460.488 1329.69,-454.811 1328.11,-461.629"/>
</g>
<!-- Node444&#45;&gt;Node443 -->
<g id="edge15" class="edge"><title>Node444&#45;&gt;Node443</title>
<path fill="none" stroke="midnightblue" d="M1273.12,-470C1281.6,-470 1290.2,-470 1298.66,-470"/>
<polygon fill="midnightblue" stroke="midnightblue" points="1298.88,-473.5 1308.88,-470 1298.88,-466.5 1298.88,-473.5"/>
</g>
<!-- Node447&#45;&gt;Node435 -->
<g id="edge47" class="edge"><title>Node447&#45;&gt;Node435</title>
<path fill="none" stroke="midnightblue" d="M267.538,-161.923C279.29,-233.813 361.425,-672 617.5,-672 617.5,-672 617.5,-672 996,-672 1122.38,-672 1268.53,-635.256 1338.3,-615.396"/>
<polygon fill="midnightblue" stroke="midnightblue" points="1339.39,-618.725 1348.03,-612.594 1337.45,-611.998 1339.39,-618.725"/>
</g>
<!-- Node448 -->
<g id="node17" class="node"><title>Node448</title>
<g id="a_node17"><a xlink:href="class_altair.html#a9df2266cd3e2a9905e74bb41c1f9415d" target="_top" xlink:title="Remplace un nom de projet vide par un nom par défaut. ">
<polygon fill="white" stroke="black" points="726.5,-50.5 726.5,-69.5 883.5,-69.5 883.5,-50.5 726.5,-50.5"/>
<text text-anchor="middle" x="805" y="-57.5" font-family="Helvetica,sans-Serif" font-size="10.00">Altair::checkEmptyProjectName</text>
</a>
</g>
</g>
<!-- Node447&#45;&gt;Node448 -->
<g id="edge21" class="edge"><title>Node447&#45;&gt;Node448</title>
<path fill="none" stroke="midnightblue" d="M287.335,-142.33C311.525,-131.726 352.368,-114.904 389,-105 499.251,-75.1928 631.031,-65.0309 716.052,-61.6228"/>
<polygon fill="midnightblue" stroke="midnightblue" points="716.324,-65.1151 726.184,-61.2398 716.059,-58.1201 716.324,-65.1151"/>
</g>
<!-- Node449 -->
<g id="node18" class="node"><title>Node449</title>
<g id="a_node18"><a xlink:href="class_altair.html#ad0436bfddbdcdd19cc80154e02b4323c" target="_top" xlink:title="Assigner le fichier courant. ">
<polygon fill="white" stroke="black" points="396.5,-9.5 396.5,-28.5 503.5,-28.5 503.5,-9.5 396.5,-9.5"/>
<text text-anchor="middle" x="450" y="-16.5" font-family="Helvetica,sans-Serif" font-size="10.00">Altair::setCurrentFile</text>
</a>
</g>
</g>
<!-- Node447&#45;&gt;Node449 -->
<g id="edge22" class="edge"><title>Node447&#45;&gt;Node449</title>
<path fill="none" stroke="midnightblue" d="M275.124,-142.458C294.571,-122.521 342.159,-75.831 389,-46 396.77,-41.0515 405.6,-36.5412 414.049,-32.6842"/>
<polygon fill="midnightblue" stroke="midnightblue" points="415.59,-35.8305 423.352,-28.6185 412.787,-29.4163 415.59,-35.8305"/>
</g>
<!-- Node451 -->
<g id="node20" class="node"><title>Node451</title>
<g id="a_node20"><a xlink:href="class_altair.html#acaa583766e1c062ea311847fcdd35374" target="_top" xlink:title="Efface les onglets, le gestionnaire de projet et lit le projet .alt en cours. ">
<polygon fill="white" stroke="black" points="389,-115 389,-145 511,-145 511,-115 389,-115"/>
<text text-anchor="start" x="397" y="-133" font-family="Helvetica,sans-Serif" font-size="10.00">Altair::clearInterfaceAnd</text>
<text text-anchor="middle" x="450" y="-122" font-family="Helvetica,sans-Serif" font-size="10.00">ParseProject</text>
</a>
</g>
</g>
<!-- Node447&#45;&gt;Node451 -->
<g id="edge24" class="edge"><title>Node447&#45;&gt;Node451</title>
<path fill="none" stroke="midnightblue" d="M345.202,-142.478C356.444,-141.127 367.937,-139.745 378.988,-138.417"/>
<polygon fill="midnightblue" stroke="midnightblue" points="379.481,-141.883 388.992,-137.214 378.646,-134.933 379.481,-141.883"/>
</g>
<!-- Node466 -->
<g id="node35" class="node"><title>Node466</title>
<g id="a_node35"><a xlink:href="class_hash.html#a2ac10203aa8b32a04d9088e08ddbaab4" target="_top" xlink:title="Hash::createReference">
<polygon fill="white" stroke="black" points="936,-126.5 936,-145.5 1054,-145.5 1054,-126.5 936,-126.5"/>
<text text-anchor="middle" x="995" y="-133.5" font-family="Helvetica,sans-Serif" font-size="10.00">Hash::createReference</text>
</a>
</g>
</g>
<!-- Node447&#45;&gt;Node466 -->
<g id="edge46" class="edge"><title>Node447&#45;&gt;Node466</title>
<path fill="none" stroke="midnightblue" d="M353.017,-153.522C365.103,-153.702 377.361,-153.869 389,-154 459.219,-154.793 476.777,-154.778 547,-155 610.555,-155.201 626.475,-156.983 690,-155 771.11,-152.468 864.215,-146.144 925.789,-141.484"/>
<polygon fill="midnightblue" stroke="midnightblue" points="926.067,-144.973 935.772,-140.723 925.534,-137.994 926.067,-144.973"/>
</g>
<!-- Node450 -->
<g id="node19" class="node"><title>Node450</title>
<g id="a_node19"><a xlink:href="class_main_window.html#affa76730fa370a3466b62a4caee721e3" target="_top" xlink:title="Actualise la liste des fichiers de projet .alt récents dans le menu Fichier. ">
<polygon fill="white" stroke="black" points="548.5,-1 548.5,-31 688.5,-31 688.5,-1 548.5,-1"/>
<text text-anchor="start" x="556.5" y="-19" font-family="Helvetica,sans-Serif" font-size="10.00">MainWindow::updateRecent</text>
<text text-anchor="middle" x="618.5" y="-8" font-family="Helvetica,sans-Serif" font-size="10.00">FileActions</text>
</a>
</g>
</g>
<!-- Node449&#45;&gt;Node450 -->
<g id="edge23" class="edge"><title>Node449&#45;&gt;Node450</title>
<path fill="none" stroke="midnightblue" d="M503.682,-18.0508C514.661,-17.853 526.464,-17.6403 538.164,-17.4295"/>
<polygon fill="midnightblue" stroke="midnightblue" points="538.46,-20.9248 548.396,-17.2451 538.334,-13.9259 538.46,-20.9248"/>
</g>
<!-- Node452 -->
<g id="node21" class="node"><title>Node452</title>
<g id="a_node21"><a xlink:href="class_main_window.html#a7bbefc0725287bac10300f9b32e54e4a" target="_top" xlink:title="Renvoie l&#39;éditeur du fichier de projet .alt. ">
<polygon fill="white" stroke="black" points="559.5,-126.5 559.5,-145.5 677.5,-145.5 677.5,-126.5 559.5,-126.5"/>
<text text-anchor="middle" x="618.5" y="-133.5" font-family="Helvetica,sans-Serif" font-size="10.00">MainWindow::getEditor</text>
</a>
</g>
</g>
<!-- Node451&#45;&gt;Node452 -->
<g id="edge25" class="edge"><title>Node451&#45;&gt;Node452</title>
<path fill="none" stroke="midnightblue" d="M511.11,-132.166C523.532,-132.614 536.7,-133.088 549.383,-133.545"/>
<polygon fill="midnightblue" stroke="midnightblue" points="549.308,-137.045 559.427,-133.907 549.56,-130.049 549.308,-137.045"/>
</g>
<!-- Node453 -->
<g id="node22" class="node"><title>Node453</title>
<g id="a_node22"><a xlink:href="class_altair.html#ac9d7d8e7cebf70212818f1a8ba7d7d78" target="_top" xlink:title="Rafraîchit le gestionnaire de projet à la droite de l&#39;interface. Fonction globale par défaut...">
<polygon fill="white" stroke="black" points="547,-88.5 547,-107.5 690,-107.5 690,-88.5 547,-88.5"/>
<text text-anchor="middle" x="618.5" y="-95.5" font-family="Helvetica,sans-Serif" font-size="10.00">Altair::refreshProjectManager</text>
</a>
</g>
</g>
<!-- Node451&#45;&gt;Node453 -->
<g id="edge26" class="edge"><title>Node451&#45;&gt;Node453</title>
<path fill="none" stroke="midnightblue" d="M511.11,-118.447C526.392,-115.51 542.805,-112.356 558.054,-109.425"/>
<polygon fill="midnightblue" stroke="midnightblue" points="558.723,-112.861 567.883,-107.536 557.402,-105.986 558.723,-112.861"/>
</g>
<!-- Node453&#45;&gt;Node438 -->
<g id="edge45" class="edge"><title>Node453&#45;&gt;Node438</title>
<path fill="none" stroke="midnightblue" d="M676.183,-107.57C681.247,-110.047 685.973,-113.141 690,-117 728.363,-153.761 695.12,-187.762 726,-231 786.476,-315.678 894.28,-379.113 953.045,-409.352"/>
<polygon fill="midnightblue" stroke="midnightblue" points="951.539,-412.513 962.04,-413.918 954.708,-406.271 951.539,-412.513"/>
</g>
<!-- Node453&#45;&gt;Node448 -->
<g id="edge27" class="edge"><title>Node453&#45;&gt;Node448</title>
<path fill="none" stroke="midnightblue" d="M666.057,-88.411C690.843,-83.3061 721.515,-76.9887 747.639,-71.6082"/>
<polygon fill="midnightblue" stroke="midnightblue" points="748.689,-74.9655 757.778,-69.5201 747.277,-68.1094 748.689,-74.9655"/>
</g>
<!-- Node454 -->
<g id="node23" class="node"><title>Node454</title>
<g id="a_node23"><a xlink:href="class_altair.html#a4995cdc9462838289b5b1df75edba552" target="_top" xlink:title="Ajouter du texte à l&#39;onglet des messages. ">
<polygon fill="white" stroke="black" points="1142,-0.5 1142,-19.5 1237,-19.5 1237,-0.5 1142,-0.5"/>
<text text-anchor="middle" x="1189.5" y="-7.5" font-family="Helvetica,sans-Serif" font-size="10.00">Altair::textAppend</text>
</a>
</g>
</g>
<!-- Node453&#45;&gt;Node454 -->
<g id="edge28" class="edge"><title>Node453&#45;&gt;Node454</title>
<path fill="none" stroke="midnightblue" d="M690.264,-95.8215C743.716,-93.4739 818.764,-88.6777 884,-79 890.304,-78.0649 1051.74,-41.2508 1136.93,-21.7889"/>
<polygon fill="midnightblue" stroke="midnightblue" points="1137.96,-25.1447 1146.93,-19.5051 1136.4,-18.3205 1137.96,-25.1447"/>
</g>
<!-- Node455 -->
<g id="node24" class="node"><title>Node455</title>
<g id="a_node24"><a xlink:href="class_altair.html#a41b6c8a35ed8ba14c7c0ce2e6994655f" target="_top" xlink:title="Décode le projet représenté par un pointeur vers QFile ou similaire. ">
<polygon fill="white" stroke="black" points="747,-202.5 747,-221.5 863,-221.5 863,-202.5 747,-202.5"/>
<text text-anchor="middle" x="805" y="-209.5" font-family="Helvetica,sans-Serif" font-size="10.00">Altair::parseProjectFile</text>
</a>
</g>
</g>
<!-- Node453&#45;&gt;Node455 -->
<g id="edge29" class="edge"><title>Node453&#45;&gt;Node455</title>
<path fill="none" stroke="midnightblue" d="M666.462,-107.606C674.544,-110.108 682.688,-113.202 690,-117 729.533,-137.531 767.67,-173.667 788.262,-194.962"/>
<polygon fill="midnightblue" stroke="midnightblue" points="785.837,-197.491 795.261,-202.333 790.913,-192.671 785.837,-197.491"/>
</g>
<!-- Node455&#45;&gt;Node438 -->
<g id="edge44" class="edge"><title>Node455&#45;&gt;Node438</title>
<path fill="none" stroke="midnightblue" d="M814.321,-221.604C842.275,-253.871 933.342,-358.985 974.037,-405.958"/>
<polygon fill="midnightblue" stroke="midnightblue" points="971.605,-408.496 980.798,-413.762 976.896,-403.912 971.605,-408.496"/>
</g>
<!-- Node456 -->
<g id="node25" class="node"><title>Node456</title>
<g id="a_node25"><a xlink:href="class_altair.html#a3f6193de22ed2034c9b6dbe7a8ac4d97" target="_top" xlink:title="Lors du décodage du projet XML .alt, décoder le noed courant et renvoyer l&#39;empilement des valeurs en ...">
<polygon fill="white" stroke="black" points="949,-240.5 949,-259.5 1041,-259.5 1041,-240.5 949,-240.5"/>
<text text-anchor="middle" x="995" y="-247.5" font-family="Helvetica,sans-Serif" font-size="10.00">Altair::parseEntry</text>
</a>
</g>
</g>
<!-- Node455&#45;&gt;Node456 -->
<g id="edge30" class="edge"><title>Node455&#45;&gt;Node456</title>
<path fill="none" stroke="midnightblue" d="M853.44,-221.589C879.386,-226.833 911.664,-233.358 938.743,-238.831"/>
<polygon fill="midnightblue" stroke="midnightblue" points="938.347,-242.322 948.842,-240.872 939.734,-235.46 938.347,-242.322"/>
</g>
<!-- Node461 -->
<g id="node30" class="node"><title>Node461</title>
<g id="a_node30"><a xlink:href="class_altair.html#a8b7b1fa3e0b567dc1d4721bf88087a68" target="_top" xlink:title="Parcourt l&#39;ensemble des widgets fonctionnels Abstract::abstractWidgetList et actualise leur statut in...">
<polygon fill="white" stroke="black" points="928,-164.5 928,-183.5 1062,-183.5 1062,-164.5 928,-164.5"/>
<text text-anchor="middle" x="995" y="-171.5" font-family="Helvetica,sans-Serif" font-size="10.00">Altair::assignWidgetValues</text>
</a>
</g>
</g>
<!-- Node455&#45;&gt;Node461 -->
<g id="edge36" class="edge"><title>Node455&#45;&gt;Node461</title>
<path fill="none" stroke="midnightblue" d="M853.44,-202.411C878.808,-197.284 910.227,-190.933 936.923,-185.537"/>
<polygon fill="midnightblue" stroke="midnightblue" points="937.792,-188.932 946.901,-183.52 936.406,-182.071 937.792,-188.932"/>
</g>
<!-- Node465 -->
<g id="node34" class="node"><title>Node465</title>
<g id="a_node34"><a xlink:href="class_altair.html#a20528df591deee5ad32f28996ba8dc35" target="_top" xlink:title="Raccourcit les chemins dans les onglets en se limitant au non de fichier et les présente &#160;en surligna...">
<polygon fill="white" stroke="black" points="920,-202.5 920,-221.5 1070,-221.5 1070,-202.5 920,-202.5"/>
<text text-anchor="middle" x="995" y="-209.5" font-family="Helvetica,sans-Serif" font-size="10.00">Altair::refreshRowPresentation</text>
</a>
</g>
</g>
<!-- Node455&#45;&gt;Node465 -->
<g id="edge42" class="edge"><title>Node455&#45;&gt;Node465</title>
<path fill="none" stroke="midnightblue" d="M863.172,-212C877.794,-212 893.828,-212 909.505,-212"/>
<polygon fill="midnightblue" stroke="midnightblue" points="909.738,-215.5 919.738,-212 909.738,-208.5 909.738,-215.5"/>
</g>
<!-- Node455&#45;&gt;Node466 -->
<g id="edge43" class="edge"><title>Node455&#45;&gt;Node466</title>
<path fill="none" stroke="midnightblue" d="M849.114,-202.442C860.87,-198.862 873.304,-194.127 884,-188 902.834,-177.211 900.917,-165.342 920,-155 924.224,-152.711 928.733,-150.689 933.364,-148.905"/>
<polygon fill="midnightblue" stroke="midnightblue" points="934.684,-152.152 942.985,-145.567 932.39,-145.539 934.684,-152.152"/>
</g>
<!-- Node457 -->
<g id="node26" class="node"><title>Node457</title>
<g id="a_node26"><a xlink:href="class_f_string_list.html#a71ec48a52b6ca4ffe89400d66f3ff634" target="_top" xlink:title="FStringList::toInt">
<polygon fill="white" stroke="black" points="1145,-278.5 1145,-297.5 1234,-297.5 1234,-278.5 1145,-278.5"/>
<text text-anchor="middle" x="1189.5" y="-285.5" font-family="Helvetica,sans-Serif" font-size="10.00">FStringList::toInt</text>
</a>
</g>
</g>
<!-- Node456&#45;&gt;Node457 -->
<g id="edge31" class="edge"><title>Node456&#45;&gt;Node457</title>
<path fill="none" stroke="midnightblue" d="M1041.13,-258.909C1069.17,-264.443 1105.35,-271.586 1134.84,-277.408"/>
<polygon fill="midnightblue" stroke="midnightblue" points="1134.49,-280.905 1144.97,-279.408 1135.84,-274.038 1134.49,-280.905"/>
</g>
<!-- Node458 -->
<g id="node27" class="node"><title>Node458</title>
<g id="a_node27"><a xlink:href="namespace_xml_method.html#abe26f53c2028527b0ebea361faa85221" target="_top" xlink:title="Empile les données pour un noeud donné, pour une profondeur d&#39;enchâssement donnée. ">
<polygon fill="white" stroke="black" points="1131,-240.5 1131,-259.5 1248,-259.5 1248,-240.5 1131,-240.5"/>
<text text-anchor="middle" x="1189.5" y="-247.5" font-family="Helvetica,sans-Serif" font-size="10.00">XmlMethod::stackData</text>
</a>
</g>
</g>
<!-- Node456&#45;&gt;Node458 -->
<g id="edge33" class="edge"><title>Node456&#45;&gt;Node458</title>
<path fill="none" stroke="midnightblue" d="M1041.13,-250C1064.78,-250 1094.22,-250 1120.55,-250"/>
<polygon fill="midnightblue" stroke="midnightblue" points="1120.86,-253.5 1130.86,-250 1120.86,-246.5 1120.86,-253.5"/>
</g>
<!-- Node459 -->
<g id="node28" class="node"><title>Node459</title>
<g id="a_node28"><a xlink:href="class_f_list_frame.html#a7ecbe60018d55d1a1352c5fd24c5e72e" target="_top" xlink:title="FListFrame::setTabLabels">
<polygon fill="white" stroke="black" points="1124,-164.5 1124,-183.5 1255,-183.5 1255,-164.5 1124,-164.5"/>
<text text-anchor="middle" x="1189.5" y="-171.5" font-family="Helvetica,sans-Serif" font-size="10.00">FListFrame::setTabLabels</text>
</a>
</g>
</g>
<!-- Node456&#45;&gt;Node459 -->
<g id="edge34" class="edge"><title>Node456&#45;&gt;Node459</title>
<path fill="none" stroke="midnightblue" d="M1039.09,-240.462C1049.34,-237.776 1060.16,-234.591 1070,-231 1102.8,-219.034 1138.7,-201.023 1162.29,-188.46"/>
<polygon fill="midnightblue" stroke="midnightblue" points="1164.16,-191.431 1171.3,-183.607 1160.84,-185.268 1164.16,-191.431"/>
</g>
<!-- Node457&#45;&gt;Node457 -->
<g id="edge32" class="edge"><title>Node457&#45;&gt;Node457</title>
<path fill="none" stroke="midnightblue" d="M1160.22,-297.757C1145.97,-306.565 1155.73,-316 1189.5,-316 1213.24,-316 1225.12,-311.336 1225.12,-305.504"/>
<polygon fill="midnightblue" stroke="midnightblue" points="1227.83,-303.279 1218.78,-297.757 1222.41,-307.712 1227.83,-303.279"/>
</g>
<!-- Node460 -->
<g id="node29" class="node"><title>Node460</title>
<g id="a_node29"><a xlink:href="class_f_list_widget.html#aac6eaaeb9946354f743394b54c84a6a7" target="_top" xlink:title="FListWidget::setTabLabels">
<polygon fill="white" stroke="black" points="1313.5,-164.5 1313.5,-183.5 1447.5,-183.5 1447.5,-164.5 1313.5,-164.5"/>
<text text-anchor="middle" x="1380.5" y="-171.5" font-family="Helvetica,sans-Serif" font-size="10.00">FListWidget::setTabLabels</text>
</a>
</g>
</g>
<!-- Node459&#45;&gt;Node460 -->
<g id="edge35" class="edge"><title>Node459&#45;&gt;Node460</title>
<path fill="none" stroke="midnightblue" d="M1255.01,-174C1270.45,-174 1287.08,-174 1303.01,-174"/>
<polygon fill="midnightblue" stroke="midnightblue" points="1303.35,-177.5 1313.35,-174 1303.35,-170.5 1303.35,-177.5"/>
</g>
<!-- Node461&#45;&gt;Node441 -->
<g id="edge40" class="edge"><title>Node461&#45;&gt;Node441</title>
<path fill="none" stroke="midnightblue" d="M1051.21,-183.518C1126.39,-196.758 1253.84,-220.309 1273,-231 1315.14,-254.516 1350.42,-300.399 1367.83,-325.869"/>
<polygon fill="midnightblue" stroke="midnightblue" points="1364.96,-327.869 1373.42,-334.25 1370.78,-323.987 1364.96,-327.869"/>
</g>
<!-- Node461&#45;&gt;Node454 -->
<g id="edge41" class="edge"><title>Node461&#45;&gt;Node454</title>
<path fill="none" stroke="midnightblue" d="M1056.67,-164.332C1061.56,-161.859 1066.1,-158.793 1070,-155 1111.73,-114.377 1063.76,-69.0992 1106,-29 1113.27,-22.0934 1122.53,-17.519 1132.2,-14.5241"/>
<polygon fill="midnightblue" stroke="midnightblue" points="1133.13,-17.8994 1141.95,-12.0278 1131.4,-11.1183 1133.13,-17.8994"/>
</g>
<!-- Node462 -->
<g id="node31" class="node"><title>Node462</title>
<g id="a_node31"><a xlink:href="class_f_abstract_widget.html#ae6ba84e8ed8a54dc8121245f35f568fe" target="_top" xlink:title="Retourne la clé de hashage de Hash::wrapper correspondant au composant. ">
<polygon fill="white" stroke="black" points="1114.5,-38.5 1114.5,-57.5 1264.5,-57.5 1264.5,-38.5 1114.5,-38.5"/>
<text text-anchor="middle" x="1189.5" y="-45.5" font-family="Helvetica,sans-Serif" font-size="10.00">FAbstractWidget::getHashKey</text>
</a>
</g>
</g>
<!-- Node461&#45;&gt;Node462 -->
<g id="edge37" class="edge"><title>Node461&#45;&gt;Node462</title>
<path fill="none" stroke="midnightblue" d="M1055.14,-164.38C1060.53,-161.912 1065.6,-158.835 1070,-155 1101.86,-127.235 1073.8,-94.3654 1106,-67 1107.82,-65.4533 1109.74,-64.0264 1111.74,-62.7103"/>
<polygon fill="midnightblue" stroke="midnightblue" points="1113.91,-65.5126 1120.98,-57.622 1110.53,-59.3813 1113.91,-65.5126"/>
</g>
<!-- Node463 -->
<g id="node32" class="node"><title>Node463</title>
<g id="a_node32"><a xlink:href="struct_abstract.html#a634c4a8152edbeb8d96d2ca8f30e1025" target="_top" xlink:title="Récupère toutes les clés de hachage (de Hash::wrapper) des FWidgets qui sont dans le vecteur FAbstrac...">
<polygon fill="white" stroke="black" points="1138,-126.5 1138,-145.5 1241,-145.5 1241,-126.5 1138,-126.5"/>
<text text-anchor="middle" x="1189.5" y="-133.5" font-family="Helvetica,sans-Serif" font-size="10.00">Abstract::hashKeys</text>
</a>
</g>
</g>
<!-- Node461&#45;&gt;Node463 -->
<g id="edge38" class="edge"><title>Node461&#45;&gt;Node463</title>
<path fill="none" stroke="midnightblue" d="M1044.58,-164.411C1070.66,-159.261 1103.01,-152.877 1130.42,-147.466"/>
<polygon fill="midnightblue" stroke="midnightblue" points="1131.14,-150.891 1140.27,-145.52 1129.78,-144.023 1131.14,-150.891"/>
</g>
<!-- Node464 -->
<g id="node33" class="node"><title>Node464</title>
<g id="a_node33"><a xlink:href="class_f_abstract_widget.html#a88c229861e7973810c6ac979d5526c2d" target="_top" xlink:title="FAbstractWidget::setWidget\lFromXml">
<polygon fill="white" stroke="black" points="1119.5,-77 1119.5,-107 1259.5,-107 1259.5,-77 1119.5,-77"/>
<text text-anchor="start" x="1127.5" y="-95" font-family="Helvetica,sans-Serif" font-size="10.00">FAbstractWidget::setWidget</text>
<text text-anchor="middle" x="1189.5" y="-84" font-family="Helvetica,sans-Serif" font-size="10.00">FromXml</text>
</a>
</g>
</g>
<!-- Node461&#45;&gt;Node464 -->
<g id="edge39" class="edge"><title>Node461&#45;&gt;Node464</title>
<path fill="none" stroke="midnightblue" d="M1048.43,-164.486C1055.95,-162.01 1063.37,-158.902 1070,-155 1090.05,-143.201 1086.21,-129.226 1106,-117 1109.41,-114.892 1113.01,-112.952 1116.73,-111.167"/>
<polygon fill="midnightblue" stroke="midnightblue" points="1118.39,-114.26 1126.15,-107.044 1115.58,-107.847 1118.39,-114.26"/>
</g>
</g>
</svg>
