<?xml version="1.0" encoding="UTF-8" standalone="no"?>
<!DOCTYPE svg PUBLIC "-//W3C//DTD SVG 1.1//EN"
 "http://www.w3.org/Graphics/SVG/1.1/DTD/svg11.dtd">
<!-- Generated by graphviz version 2.38.0 (20140413.2041)
 -->
<!-- Title: MainWindow::configureOptions Pages: 1 -->
<svg width="725pt" height="39pt"
 viewBox="0.00 0.00 725.00 39.00" xmlns="http://www.w3.org/2000/svg" xmlns:xlink="http://www.w3.org/1999/xlink">
<g id="graph0" class="graph" transform="scale(1 1) rotate(0) translate(4 35)">
<title>MainWindow::configureOptions</title>
<polygon fill="white" stroke="none" points="-4,4 -4,-35 721,-35 721,4 -4,4"/>
<!-- Node19 -->
<g id="node1" class="node"><title>Node19</title>
<polygon fill="#bfbfbf" stroke="black" points="0,-6 0,-25 162,-25 162,-6 0,-6"/>
<text text-anchor="middle" x="81" y="-13" font-family="Helvetica,sans-Serif" font-size="10.00">MainWindow::configureOptions</text>
</g>
<!-- Node20 -->
<g id="node2" class="node"><title>Node20</title>
<g id="a_node2"><a xlink:href="class_f_abstract_widget.html#ac95a769d8e274582de7bf014a3289a39" target="_top" xlink:title="FAbstractWidget::setDisable\lObjects">
<polygon fill="white" stroke="black" points="198,-0.5 198,-30.5 345,-30.5 345,-0.5 198,-0.5"/>
<text text-anchor="start" x="206" y="-18.5" font-family="Helvetica,sans-Serif" font-size="10.00">FAbstractWidget::setDisable</text>
<text text-anchor="middle" x="271.5" y="-7.5" font-family="Helvetica,sans-Serif" font-size="10.00">Objects</text>
</a>
</g>
</g>
<!-- Node19&#45;&gt;Node20 -->
<g id="edge1" class="edge"><title>Node19&#45;&gt;Node20</title>
<path fill="none" stroke="midnightblue" d="M162.214,-15.5C170.621,-15.5 179.179,-15.5 187.615,-15.5"/>
<polygon fill="midnightblue" stroke="midnightblue" points="187.824,-19.0001 197.824,-15.5 187.824,-12.0001 187.824,-19.0001"/>
</g>
<!-- Node21 -->
<g id="node3" class="node"><title>Node21</title>
<g id="a_node3"><a xlink:href="class_f_abstract_connection.html#afbf1c1d7d9f7f8c39659cff4ce05f87f" target="_top" xlink:title="FAbstractConnection\l::meta_connect">
<polygon fill="white" stroke="black" points="381,-0.5 381,-30.5 496,-30.5 496,-0.5 381,-0.5"/>
<text text-anchor="start" x="389" y="-18.5" font-family="Helvetica,sans-Serif" font-size="10.00">FAbstractConnection</text>
<text text-anchor="middle" x="438.5" y="-7.5" font-family="Helvetica,sans-Serif" font-size="10.00">::meta_connect</text>
</a>
</g>
</g>
<!-- Node20&#45;&gt;Node21 -->
<g id="edge2" class="edge"><title>Node20&#45;&gt;Node21</title>
<path fill="none" stroke="midnightblue" d="M345.352,-15.5C353.822,-15.5 362.429,-15.5 370.81,-15.5"/>
<polygon fill="midnightblue" stroke="midnightblue" points="370.897,-19.0001 380.897,-15.5 370.897,-12.0001 370.897,-19.0001"/>
</g>
<!-- Node22 -->
<g id="node4" class="node"><title>Node22</title>
<g id="a_node4"><a xlink:href="class_f_abstract_widget.html#a0275be1c2f0cc30e047cd75d207b59e0" target="_top" xlink:title="FAbstractWidget::getComponentList">
<polygon fill="white" stroke="black" points="532,-6 532,-25 717,-25 717,-6 532,-6"/>
<text text-anchor="middle" x="624.5" y="-13" font-family="Helvetica,sans-Serif" font-size="10.00">FAbstractWidget::getComponentList</text>
</a>
</g>
</g>
<!-- Node21&#45;&gt;Node22 -->
<g id="edge3" class="edge"><title>Node21&#45;&gt;Node22</title>
<path fill="none" stroke="midnightblue" d="M496.207,-15.5C504.328,-15.5 512.881,-15.5 521.554,-15.5"/>
<polygon fill="midnightblue" stroke="midnightblue" points="521.771,-19.0001 531.771,-15.5 521.771,-12.0001 521.771,-19.0001"/>
</g>
</g>
</svg>
