<?xml version="1.0" encoding="UTF-8" standalone="no"?>
<!DOCTYPE svg PUBLIC "-//W3C//DTD SVG 1.1//EN"
 "http://www.w3.org/Graphics/SVG/1.1/DTD/svg11.dtd">
<!-- Generated by graphviz version 2.38.0 (20140413.2041)
 -->
<!-- Title: tools::copyDir Pages: 1 -->
<svg width="323pt" height="47pt"
 viewBox="0.00 0.00 323.00 47.00" xmlns="http://www.w3.org/2000/svg" xmlns:xlink="http://www.w3.org/1999/xlink">
<g id="graph0" class="graph" transform="scale(1 1) rotate(0) translate(4 43)">
<title>tools::copyDir</title>
<polygon fill="white" stroke="none" points="-4,4 -4,-43 319,-43 319,4 -4,4"/>
<!-- Node13 -->
<g id="node1" class="node"><title>Node13</title>
<polygon fill="#bfbfbf" stroke="black" points="0,-0.5 0,-19.5 77,-19.5 77,-0.5 0,-0.5"/>
<text text-anchor="middle" x="38.5" y="-7.5" font-family="Helvetica,sans-Serif" font-size="10.00">tools::copyDir</text>
</g>
<!-- Node14 -->
<g id="node2" class="node"><title>Node14</title>
<g id="a_node2"><a xlink:href="classtools.html#a0765c68c41d7c957f1fb0f0da8b4a9c9" target="_top" xlink:title="tools::copyFile">
<polygon fill="white" stroke="black" points="113,-19.5 113,-38.5 193,-38.5 193,-19.5 113,-19.5"/>
<text text-anchor="middle" x="153" y="-26.5" font-family="Helvetica,sans-Serif" font-size="10.00">tools::copyFile</text>
</a>
</g>
</g>
<!-- Node13&#45;&gt;Node14 -->
<g id="edge1" class="edge"><title>Node13&#45;&gt;Node14</title>
<path fill="none" stroke="midnightblue" d="M77.2738,-16.3796C85.5322,-17.7743 94.3883,-19.27 103.013,-20.7266"/>
<polygon fill="midnightblue" stroke="midnightblue" points="102.538,-24.1959 112.981,-22.4101 103.704,-17.2936 102.538,-24.1959"/>
</g>
<!-- Node15 -->
<g id="node3" class="node"><title>Node15</title>
<g id="a_node3"><a xlink:href="classtools.html#ae1018e45c513785270b999cbcfa8beb6" target="_top" xlink:title="tools::IOControl">
<polygon fill="white" stroke="black" points="229,-0.5 229,-19.5 315,-19.5 315,-0.5 229,-0.5"/>
<text text-anchor="middle" x="272" y="-7.5" font-family="Helvetica,sans-Serif" font-size="10.00">tools::IOControl</text>
</a>
</g>
</g>
<!-- Node14&#45;&gt;Node15 -->
<g id="edge2" class="edge"><title>Node14&#45;&gt;Node15</title>
<path fill="none" stroke="midnightblue" d="M193.285,-22.6204C201.492,-21.2877 210.266,-19.8627 218.856,-18.4678"/>
<polygon fill="midnightblue" stroke="midnightblue" points="219.5,-21.9092 228.809,-16.8515 218.378,-14.9997 219.5,-21.9092"/>
</g>
<!-- Node15&#45;&gt;Node13 -->
<g id="edge3" class="edge"><title>Node15&#45;&gt;Node13</title>
<path fill="none" stroke="midnightblue" d="M228.994,-10C189.091,-10 129.152,-10 87.4075,-10"/>
<polygon fill="midnightblue" stroke="midnightblue" points="87.2097,-6.5001 77.2097,-10 87.2097,-13.5001 87.2097,-6.5001"/>
</g>
</g>
</svg>
