<?xml version="1.0" encoding="UTF-8" standalone="no"?>
<!DOCTYPE svg PUBLIC "-//W3C//DTD SVG 1.1//EN"
 "http://www.w3.org/Graphics/SVG/1.1/DTD/svg11.dtd">
<!-- Generated by graphviz version 2.38.0 (20140413.2041)
 -->
<!-- Title: tools::dump Pages: 1 -->
<svg width="558pt" height="176pt"
 viewBox="0.00 0.00 558.00 176.00" xmlns="http://www.w3.org/2000/svg" xmlns:xlink="http://www.w3.org/1999/xlink">
<g id="graph0" class="graph" transform="scale(1 1) rotate(0) translate(4 172)">
<title>tools::dump</title>
<polygon fill="white" stroke="none" points="-4,4 -4,-172 554,-172 554,4 -4,4"/>
<!-- Node80 -->
<g id="node1" class="node"><title>Node80</title>
<polygon fill="#bfbfbf" stroke="black" points="0,-77 0,-96 69,-96 69,-77 0,-77"/>
<text text-anchor="middle" x="34.5" y="-84" font-family="Helvetica,sans-Serif" font-size="10.00">tools::dump</text>
</g>
<!-- Node81 -->
<g id="node2" class="node"><title>Node81</title>
<g id="a_node2"><a xlink:href="classcommon.html#a7900f8a5d7ebd42770ce8c366dd4b933" target="_top" xlink:title="Exporter les caractéristiques du contrôle dans le rapport : Siret, Budget, Employeur, Etablissement. ">
<polygon fill="white" stroke="black" points="105,-137.5 105,-167.5 271,-167.5 271,-137.5 105,-137.5"/>
<text text-anchor="start" x="113" y="-155.5" font-family="Helvetica,sans-Serif" font-size="10.00">common::exporter_identification</text>
<text text-anchor="middle" x="188" y="-144.5" font-family="Helvetica,sans-Serif" font-size="10.00">_controle</text>
</a>
</g>
</g>
<!-- Node80&#45;&gt;Node81 -->
<g id="edge1" class="edge"><title>Node80&#45;&gt;Node81</title>
<path fill="none" stroke="midnightblue" d="M57.8234,-101.51C71.1097,-109.969 88.5384,-120.258 105,-127.5 113.31,-131.156 122.316,-134.489 131.213,-137.445"/>
<polygon fill="midnightblue" stroke="midnightblue" points="59.6425,-98.5183 49.3497,-96.0063 55.8295,-104.389 59.6425,-98.5183"/>
</g>
<!-- Node82 -->
<g id="node3" class="node"><title>Node82</title>
<g id="a_node3"><a xlink:href="classtools.html#ac5f7b9c2e07af5dbb27169b256ac6300" target="_top" xlink:title="List un fichier entre deux lignes données et sur une largeur donnée. ">
<polygon fill="white" stroke="black" points="147,-99 147,-118 229,-118 229,-99 147,-99"/>
<text text-anchor="middle" x="188" y="-106" font-family="Helvetica,sans-Serif" font-size="10.00">tools::readFile</text>
</a>
</g>
</g>
<!-- Node80&#45;&gt;Node82 -->
<g id="edge2" class="edge"><title>Node80&#45;&gt;Node82</title>
<path fill="none" stroke="midnightblue" d="M79.2045,-92.8465C100.497,-95.9385 125.932,-99.632 146.746,-102.655"/>
<polygon fill="midnightblue" stroke="midnightblue" points="79.522,-89.356 69.1228,-91.3825 78.516,-96.2833 79.522,-89.356"/>
</g>
<!-- Node83 -->
<g id="node4" class="node"><title>Node83</title>
<g id="a_node4"><a xlink:href="classcode_page.html#a7f3fcb4b6f622b1c11a7b39e245b76b6" target="_top" xlink:title="codePage::substituer\l_valeurs_dans_script_R">
<polygon fill="white" stroke="black" points="122.5,-49.5 122.5,-79.5 253.5,-79.5 253.5,-49.5 122.5,-49.5"/>
<text text-anchor="start" x="130.5" y="-67.5" font-family="Helvetica,sans-Serif" font-size="10.00">codePage::substituer</text>
<text text-anchor="middle" x="188" y="-56.5" font-family="Helvetica,sans-Serif" font-size="10.00">_valeurs_dans_script_R</text>
</a>
</g>
</g>
<!-- Node80&#45;&gt;Node83 -->
<g id="edge3" class="edge"><title>Node80&#45;&gt;Node83</title>
<path fill="none" stroke="midnightblue" d="M79.0853,-80.1708C92.5886,-78.2099 107.767,-76.0058 122.38,-73.8838"/>
<polygon fill="midnightblue" stroke="midnightblue" points="78.516,-76.7167 69.1228,-81.6175 79.522,-83.644 78.516,-76.7167"/>
</g>
<!-- Node86 -->
<g id="node7" class="node"><title>Node86</title>
<g id="a_node7"><a xlink:href="classstandard_page.html#abb37a1fff677f91ad2418b07593aa40d" target="_top" xlink:title="standardPage::substituer\l_versant">
<polygon fill="white" stroke="black" points="122,-0.5 122,-30.5 254,-30.5 254,-0.5 122,-0.5"/>
<text text-anchor="start" x="130" y="-18.5" font-family="Helvetica,sans-Serif" font-size="10.00">standardPage::substituer</text>
<text text-anchor="middle" x="188" y="-7.5" font-family="Helvetica,sans-Serif" font-size="10.00">_versant</text>
</a>
</g>
</g>
<!-- Node80&#45;&gt;Node86 -->
<g id="edge6" class="edge"><title>Node80&#45;&gt;Node86</title>
<path fill="none" stroke="midnightblue" d="M55.699,-70.8625C69.0958,-61.0768 87.3906,-48.7966 105,-40.5 112.809,-36.8209 121.288,-33.5256 129.734,-30.6291"/>
<polygon fill="midnightblue" stroke="midnightblue" points="53.5777,-68.0784 47.6591,-76.8659 57.7659,-73.6872 53.5777,-68.0784"/>
</g>
<!-- Node84 -->
<g id="node5" class="node"><title>Node84</title>
<g id="a_node5"><a xlink:href="classcode_page.html#a927a6bef8cac0406a49225bc72894a1f" target="_top" xlink:title="codePage::codePage">
<polygon fill="white" stroke="black" points="307,-55 307,-74 424,-74 424,-55 307,-55"/>
<text text-anchor="middle" x="365.5" y="-62" font-family="Helvetica,sans-Serif" font-size="10.00">codePage::codePage</text>
</a>
</g>
</g>
<!-- Node83&#45;&gt;Node84 -->
<g id="edge4" class="edge"><title>Node83&#45;&gt;Node84</title>
<path fill="none" stroke="midnightblue" d="M264.16,-64.5C278.459,-64.5 293.214,-64.5 306.862,-64.5"/>
<polygon fill="midnightblue" stroke="midnightblue" points="263.851,-61.0001 253.851,-64.5 263.851,-68.0001 263.851,-61.0001"/>
</g>
<!-- Node85 -->
<g id="node6" class="node"><title>Node85</title>
<g id="a_node6"><a xlink:href="classoptions.html#a52a9fb1d5bdb6ed104e700390b8c0208" target="_top" xlink:title="Constructeur de l&#39;onglet correspondant à un pointeur parent vers une instance de la classe Altair...">
<polygon fill="white" stroke="black" points="460,-55 460,-74 550,-74 550,-55 460,-55"/>
<text text-anchor="middle" x="505" y="-62" font-family="Helvetica,sans-Serif" font-size="10.00">options::options</text>
</a>
</g>
</g>
<!-- Node84&#45;&gt;Node85 -->
<g id="edge5" class="edge"><title>Node84&#45;&gt;Node85</title>
<path fill="none" stroke="midnightblue" d="M434.151,-64.5C442.823,-64.5 451.518,-64.5 459.684,-64.5"/>
<polygon fill="midnightblue" stroke="midnightblue" points="434.016,-61.0001 424.016,-64.5 434.016,-68.0001 434.016,-61.0001"/>
</g>
</g>
</svg>
