<?xml version="1.0" encoding="UTF-8" standalone="no"?>
<!DOCTYPE svg PUBLIC "-//W3C//DTD SVG 1.1//EN"
 "http://www.w3.org/Graphics/SVG/1.1/DTD/svg11.dtd">
<!-- Generated by graphviz version 2.38.0 (20140413.2041)
 -->
<!-- Title: FStringList::setTags Pages: 1 -->
<svg width="283pt" height="142pt"
 viewBox="0.00 0.00 283.00 142.00" xmlns="http://www.w3.org/2000/svg" xmlns:xlink="http://www.w3.org/1999/xlink">
<g id="graph0" class="graph" transform="scale(1 1) rotate(0) translate(4 138)">
<title>FStringList::setTags</title>
<polygon fill="white" stroke="none" points="-4,4 -4,-138 279,-138 279,4 -4,4"/>
<!-- Node40 -->
<g id="node1" class="node"><title>Node40</title>
<polygon fill="#bfbfbf" stroke="black" points="0,-57.5 0,-76.5 105,-76.5 105,-57.5 0,-57.5"/>
<text text-anchor="middle" x="52.5" y="-64.5" font-family="Helvetica,sans-Serif" font-size="10.00">FStringList::setTags</text>
</g>
<!-- Node41 -->
<g id="node2" class="node"><title>Node41</title>
<g id="a_node2"><a xlink:href="class_f_string_list.html#a90f0a954b0d4bf1269a8a3e3f750b44f" target="_top" xlink:title="FStringList::hasNoString">
<polygon fill="white" stroke="black" points="146,-114.5 146,-133.5 270,-133.5 270,-114.5 146,-114.5"/>
<text text-anchor="middle" x="208" y="-121.5" font-family="Helvetica,sans-Serif" font-size="10.00">FStringList::hasNoString</text>
</a>
</g>
</g>
<!-- Node40&#45;&gt;Node41 -->
<g id="edge1" class="edge"><title>Node40&#45;&gt;Node41</title>
<path fill="none" stroke="midnightblue" d="M73.36,-76.5036C90.9044,-84.6861 117.31,-96.4862 141,-105 147.408,-107.303 154.242,-109.524 160.992,-111.585"/>
<polygon fill="midnightblue" stroke="midnightblue" points="160.181,-114.995 170.764,-114.481 162.17,-108.284 160.181,-114.995"/>
</g>
<!-- Node42 -->
<g id="node3" class="node"><title>Node42</title>
<g id="a_node3"><a xlink:href="class_f_string_list.html#aea8566ab3af01a2cbac69564aa724002" target="_top" xlink:title="FStringList::join">
<polygon fill="white" stroke="black" points="165.5,-76.5 165.5,-95.5 250.5,-95.5 250.5,-76.5 165.5,-76.5"/>
<text text-anchor="middle" x="208" y="-83.5" font-family="Helvetica,sans-Serif" font-size="10.00">FStringList::join</text>
</a>
</g>
</g>
<!-- Node40&#45;&gt;Node42 -->
<g id="edge2" class="edge"><title>Node40&#45;&gt;Node42</title>
<path fill="none" stroke="midnightblue" d="M105.04,-73.3796C121.044,-75.3605 138.693,-77.5451 154.746,-79.532"/>
<polygon fill="midnightblue" stroke="midnightblue" points="154.676,-83.05 165.03,-80.805 155.536,-76.103 154.676,-83.05"/>
</g>
<!-- Node43 -->
<g id="node4" class="node"><title>Node43</title>
<g id="a_node4"><a xlink:href="fstring_8cpp.html#a85a4caf00d38b82eda6a088dfcf36690" target="_top" xlink:title="setDistributedTags">
<polygon fill="white" stroke="black" points="158.5,-38.5 158.5,-57.5 257.5,-57.5 257.5,-38.5 158.5,-38.5"/>
<text text-anchor="middle" x="208" y="-45.5" font-family="Helvetica,sans-Serif" font-size="10.00">setDistributedTags</text>
</a>
</g>
</g>
<!-- Node40&#45;&gt;Node43 -->
<g id="edge3" class="edge"><title>Node40&#45;&gt;Node43</title>
<path fill="none" stroke="midnightblue" d="M105.04,-60.6204C118.917,-58.9028 134.031,-57.032 148.268,-55.2697"/>
<polygon fill="midnightblue" stroke="midnightblue" points="148.955,-58.7115 158.45,-54.0095 148.096,-51.7645 148.955,-58.7115"/>
</g>
<!-- Node44 -->
<g id="node5" class="node"><title>Node44</title>
<g id="a_node5"><a xlink:href="class_f_string_list.html#a13ae40e837189c05782253c65bef764d" target="_top" xlink:title="FStringList::setEmptyTags">
<polygon fill="white" stroke="black" points="141,-0.5 141,-19.5 275,-19.5 275,-0.5 141,-0.5"/>
<text text-anchor="middle" x="208" y="-7.5" font-family="Helvetica,sans-Serif" font-size="10.00">FStringList::setEmptyTags</text>
</a>
</g>
</g>
<!-- Node40&#45;&gt;Node44 -->
<g id="edge4" class="edge"><title>Node40&#45;&gt;Node44</title>
<path fill="none" stroke="midnightblue" d="M73.36,-57.4964C90.9044,-49.3139 117.31,-37.5138 141,-29 147.408,-26.697 154.242,-24.476 160.992,-22.4149"/>
<polygon fill="midnightblue" stroke="midnightblue" points="162.17,-25.7163 170.764,-19.5189 160.181,-19.0049 162.17,-25.7163"/>
</g>
</g>
</svg>
