<?xml version="1.0" encoding="UTF-8" standalone="no"?>
<!DOCTYPE svg PUBLIC "-//W3C//DTD SVG 1.1//EN"
 "http://www.w3.org/Graphics/SVG/1.1/DTD/svg11.dtd">
<!-- Generated by graphviz version 2.38.0 (20140413.2041)
 -->
<!-- Title: Altair::createCommandLineString Pages: 1 -->
<svg width="329pt" height="78pt"
 viewBox="0.00 0.00 329.00 77.50" xmlns="http://www.w3.org/2000/svg" xmlns:xlink="http://www.w3.org/1999/xlink">
<g id="graph0" class="graph" transform="scale(1 1) rotate(0) translate(4 73.5)">
<title>Altair::createCommandLineString</title>
<polygon fill="white" stroke="none" points="-4,4 -4,-73.5 325,-73.5 325,4 -4,4"/>
<!-- Node863 -->
<g id="node1" class="node"><title>Node863</title>
<polygon fill="#bfbfbf" stroke="black" points="0,-17 0,-47 135,-47 135,-17 0,-17"/>
<text text-anchor="start" x="8" y="-35" font-family="Helvetica,sans-Serif" font-size="10.00">Altair::createCommandLine</text>
<text text-anchor="middle" x="67.5" y="-24" font-family="Helvetica,sans-Serif" font-size="10.00">String</text>
</g>
<!-- Node864 -->
<g id="node2" class="node"><title>Node864</title>
<g id="a_node2"><a xlink:href="class_f_abstract_widget.html#a5c45eef47bfac1603a3cce654c96c66b" target="_top" xlink:title="FAbstractWidget::command\lLineStringList">
<polygon fill="white" stroke="black" points="176.5,-39 176.5,-69 315.5,-69 315.5,-39 176.5,-39"/>
<text text-anchor="start" x="184.5" y="-57" font-family="Helvetica,sans-Serif" font-size="10.00">FAbstractWidget::command</text>
<text text-anchor="middle" x="246" y="-46" font-family="Helvetica,sans-Serif" font-size="10.00">LineStringList</text>
</a>
</g>
</g>
<!-- Node863&#45;&gt;Node864 -->
<g id="edge1" class="edge"><title>Node863&#45;&gt;Node864</title>
<path fill="none" stroke="midnightblue" d="M135.227,-40.3173C145.436,-41.5898 156.054,-42.9133 166.489,-44.2139"/>
<polygon fill="midnightblue" stroke="midnightblue" points="166.061,-47.6876 176.417,-45.4514 166.927,-40.7413 166.061,-47.6876"/>
</g>
<!-- Node865 -->
<g id="node3" class="node"><title>Node865</title>
<g id="a_node3"><a xlink:href="class_f_abstract_widget.html#ae6ba84e8ed8a54dc8121245f35f568fe" target="_top" xlink:title="Retourne la clé de hashage de Hash::wrapper correspondant au composant. ">
<polygon fill="white" stroke="black" points="171,-0.5 171,-19.5 321,-19.5 321,-0.5 171,-0.5"/>
<text text-anchor="middle" x="246" y="-7.5" font-family="Helvetica,sans-Serif" font-size="10.00">FAbstractWidget::getHashKey</text>
</a>
</g>
</g>
<!-- Node863&#45;&gt;Node865 -->
<g id="edge2" class="edge"><title>Node863&#45;&gt;Node865</title>
<path fill="none" stroke="midnightblue" d="M135.227,-23.6827C143.577,-22.642 152.2,-21.5671 160.773,-20.4986"/>
<polygon fill="midnightblue" stroke="midnightblue" points="161.303,-23.9596 170.793,-19.2495 160.437,-17.0134 161.303,-23.9596"/>
</g>
</g>
</svg>
