<?xml version="1.0" encoding="UTF-8" standalone="no"?>
<!DOCTYPE svg PUBLIC "-//W3C//DTD SVG 1.1//EN"
 "http://www.w3.org/Graphics/SVG/1.1/DTD/svg11.dtd">
<!-- Generated by graphviz version 2.38.0 (20140413.2041)
 -->
<!-- Title: FListFrame::appRepaint Pages: 1 -->
<svg width="635pt" height="39pt"
 viewBox="0.00 0.00 635.00 39.00" xmlns="http://www.w3.org/2000/svg" xmlns:xlink="http://www.w3.org/1999/xlink">
<g id="graph0" class="graph" transform="scale(1 1) rotate(0) translate(4 35)">
<title>FListFrame::appRepaint</title>
<polygon fill="white" stroke="none" points="-4,4 -4,-35 631,-35 631,4 -4,4"/>
<!-- Node173 -->
<g id="node1" class="node"><title>Node173</title>
<polygon fill="#bfbfbf" stroke="black" points="0,-6 0,-25 122,-25 122,-6 0,-6"/>
<text text-anchor="middle" x="61" y="-13" font-family="Helvetica,sans-Serif" font-size="10.00">FListFrame::appRepaint</text>
</g>
<!-- Node174 -->
<g id="node2" class="node"><title>Node174</title>
<g id="a_node2"><a xlink:href="class_f_list_frame.html#ac14c494842340a0438766256c01f83bc" target="_top" xlink:title="FListFrame::on_importFrom\lMainTree_clicked">
<polygon fill="white" stroke="black" points="158,-0.5 158,-30.5 295,-30.5 295,-0.5 158,-0.5"/>
<text text-anchor="start" x="166" y="-18.5" font-family="Helvetica,sans-Serif" font-size="10.00">FListFrame::on_importFrom</text>
<text text-anchor="middle" x="226.5" y="-7.5" font-family="Helvetica,sans-Serif" font-size="10.00">MainTree_clicked</text>
</a>
</g>
</g>
<!-- Node173&#45;&gt;Node174 -->
<g id="edge1" class="edge"><title>Node173&#45;&gt;Node174</title>
<path fill="none" stroke="midnightblue" d="M132.564,-15.5C140.968,-15.5 149.533,-15.5 157.895,-15.5"/>
<polygon fill="midnightblue" stroke="midnightblue" points="132.417,-12.0001 122.417,-15.5 132.417,-19.0001 132.417,-12.0001"/>
</g>
<!-- Node175 -->
<g id="node3" class="node"><title>Node175</title>
<g id="a_node3"><a xlink:href="class_f_list_frame.html#a865246df8a4d4000ac3c818abc6d7f71" target="_top" xlink:title="FListFrame::FListFrame">
<polygon fill="white" stroke="black" points="331,-6 331,-25 453,-25 453,-6 331,-6"/>
<text text-anchor="middle" x="392" y="-13" font-family="Helvetica,sans-Serif" font-size="10.00">FListFrame::FListFrame</text>
</a>
</g>
</g>
<!-- Node174&#45;&gt;Node175 -->
<g id="edge2" class="edge"><title>Node174&#45;&gt;Node175</title>
<path fill="none" stroke="midnightblue" d="M305.688,-15.5C314.148,-15.5 322.658,-15.5 330.857,-15.5"/>
<polygon fill="midnightblue" stroke="midnightblue" points="305.418,-12.0001 295.418,-15.5 305.418,-19.0001 305.418,-12.0001"/>
</g>
<!-- Node176 -->
<g id="node4" class="node"><title>Node176</title>
<g id="a_node4"><a xlink:href="class_f_list_frame.html#a2e360c50e0fcfb3d1ee658006ef9a678" target="_top" xlink:title="Accesseur en lecture de. ">
<polygon fill="white" stroke="black" points="489,-6 489,-25 627,-25 627,-6 489,-6"/>
<text text-anchor="middle" x="558" y="-13" font-family="Helvetica,sans-Serif" font-size="10.00">FListFrame::getSlotListSize</text>
</a>
</g>
</g>
<!-- Node175&#45;&gt;Node176 -->
<g id="edge3" class="edge"><title>Node175&#45;&gt;Node176</title>
<path fill="none" stroke="midnightblue" d="M463.338,-15.5C471.79,-15.5 480.411,-15.5 488.831,-15.5"/>
<polygon fill="midnightblue" stroke="midnightblue" points="463.136,-12.0001 453.136,-15.5 463.136,-19.0001 463.136,-12.0001"/>
</g>
</g>
</svg>
