<?xml version="1.0" encoding="UTF-8" standalone="no"?>
<!DOCTYPE svg PUBLIC "-//W3C//DTD SVG 1.1//EN"
 "http://www.w3.org/Graphics/SVG/1.1/DTD/svg11.dtd">
<!-- Generated by graphviz version 2.38.0 (20140413.2041)
 -->
<!-- Title: options Pages: 1 -->
<!--zoomable 713 -->
<svg id="main" version="1.1" xmlns="http://www.w3.org/2000/svg" xmlns:xlink="http://www.w3.org/1999/xlink" xml:space="preserve" onload="init(evt)">
<style type="text/css"><![CDATA[
.edge:hover path { stroke: red; }
.edge:hover polygon { stroke: red; fill: red; }
]]></style>
<script type="text/javascript"><![CDATA[
var edges = document.getElementsByTagName('g');
if (edges && edges.length) {
  for (var i=0;i<edges.length;i++) {
    if (edges[i].id.substr(0,4)=='edge') {
      edges[i].setAttribute('class','edge');
    }
  }
}
]]></script>
        <defs>
                <circle id="rim" cx="0" cy="0" r="7"/>
                <circle id="rim2" cx="0" cy="0" r="3.5"/>
                <g id="zoomPlus">
                        <use xlink:href="#rim" fill="#404040">
                                <set attributeName="fill" to="#808080" begin="zoomplus.mouseover" end="zoomplus.mouseout"/>
                        </use>
                        <path d="M-4,0h8M0,-4v8" fill="none" stroke="white" stroke-width="1.5" pointer-events="none"/>
                </g>
                <g id="zoomMin">
                        <use xlink:href="#rim" fill="#404040">
                                <set attributeName="fill" to="#808080" begin="zoomminus.mouseover" end="zoomminus.mouseout"/>
                        </use>
                        <path d="M-4,0h8" fill="none" stroke="white" stroke-width="1.5" pointer-events="none"/>
                </g>
                <g id="dirArrow">
                        <path fill="none" stroke="white" stroke-width="1.5" d="M0,-3.0v7 M-2.5,-0.5L0,-3.0L2.5,-0.5"/>
                </g>
               <g id="resetDef">
                       <use xlink:href="#rim2" fill="#404040">
                               <set attributeName="fill" to="#808080" begin="reset.mouseover" end="reset.mouseout"/>
                       </use>
               </g>
        </defs>

<script type="text/javascript">
var viewWidth = 468;
var viewHeight = 713;
var sectionId = 'dynsection-1';
</script>
<script xlink:href="svgpan.js"/>
<svg id="graph" class="graph">
<g id="viewport">
<title>options</title>
<polygon fill="white" stroke="none" points="-4,4 -4,-709 464.005,-709 464.005,4 -4,4"/>
<!-- Node4 -->
<g id="node1" class="node"><title>Node4</title>
<polygon fill="#bfbfbf" stroke="black" points="170.179,-0.5 170.179,-145.5 280.179,-145.5 280.179,-0.5 170.179,-0.5"/>
<text text-anchor="middle" x="225.179" y="-133.5" font-family="Helvetica,sans-Serif" font-size="10.00">options</text>
<polyline fill="none" stroke="black" points="170.179,-126.5 280.179,-126.5 "/>
<text text-anchor="start" x="178.179" y="-114.5" font-family="Helvetica,sans-Serif" font-size="10.00">+ optionWidget</text>
<text text-anchor="start" x="178.179" y="-103.5" font-family="Helvetica,sans-Serif" font-size="10.00">+ RefreshFlag</text>
<text text-anchor="start" x="178.179" y="-92.5" font-family="Helvetica,sans-Serif" font-size="10.00">&#45; closeButton</text>
<text text-anchor="start" x="178.179" y="-81.5" font-family="Helvetica,sans-Serif" font-size="10.00">&#45; pagesWidget</text>
<polyline fill="none" stroke="black" points="170.179,-74.5 280.179,-74.5 "/>
<text text-anchor="start" x="178.179" y="-62.5" font-family="Helvetica,sans-Serif" font-size="10.00">+ options()</text>
<text text-anchor="start" x="178.179" y="-51.5" font-family="Helvetica,sans-Serif" font-size="10.00">+ clearOptionData()</text>
<text text-anchor="start" x="178.179" y="-40.5" font-family="Helvetica,sans-Serif" font-size="10.00">&#45; createIcons()</text>
<text text-anchor="start" x="178.179" y="-29.5" font-family="Helvetica,sans-Serif" font-size="10.00">&#45; createIcon()</text>
<text text-anchor="start" x="178.179" y="-18.5" font-family="Helvetica,sans-Serif" font-size="10.00">&#45; changePage()</text>
<text text-anchor="start" x="178.179" y="-7.5" font-family="Helvetica,sans-Serif" font-size="10.00">&#45; enchainerRapports()</text>
</g>
<!-- Node5 -->
<g id="node2" class="node"><title>Node5</title>
<polygon fill="white" stroke="#bfbfbf" points="103.179,-508.5 103.179,-565.5 155.179,-565.5 155.179,-508.5 103.179,-508.5"/>
<text text-anchor="middle" x="129.179" y="-553.5" font-family="Helvetica,sans-Serif" font-size="10.00">QDialog</text>
<polyline fill="none" stroke="#bfbfbf" points="103.179,-546.5 155.179,-546.5 "/>
<text text-anchor="middle" x="129.179" y="-534.5" font-family="Helvetica,sans-Serif" font-size="10.00"> </text>
<polyline fill="none" stroke="#bfbfbf" points="103.179,-527.5 155.179,-527.5 "/>
<text text-anchor="middle" x="129.179" y="-515.5" font-family="Helvetica,sans-Serif" font-size="10.00"> </text>
</g>
<!-- Node5&#45;&gt;Node4 -->
<g id="edge1" class="edge"><title>Node5&#45;&gt;Node4</title>
<path fill="none" stroke="midnightblue" d="M95.3733,-509.291C73.0135,-489.339 45.6095,-459.921 33.1792,-427 -3.55796,-329.705 -17.4074,-283.868 33.1792,-193 62.0783,-141.089 124.015,-108.943 169.766,-91.3486"/>
<polygon fill="none" stroke="midnightblue" points="93.1925,-512.033 103.039,-515.944 97.7806,-506.746 93.1925,-512.033"/>
</g>
<!-- Node8 -->
<g id="node5" class="node"><title>Node8</title>
<g id="a_node5"><a xlink:href="classprocess_page.html" target="_top" xlink:title="Classe de l&#39;onglet Traitement du dialgue d&#39;options. ">
<polygon fill="white" stroke="black" points="42.1792,-237.5 42.1792,-382.5 152.179,-382.5 152.179,-237.5 42.1792,-237.5"/>
<text text-anchor="middle" x="97.1792" y="-370.5" font-family="Helvetica,sans-Serif" font-size="10.00">processPage</text>
<polyline fill="none" stroke="black" points="42.1792,-363.5 152.179,-363.5 "/>
<text text-anchor="start" x="50.1792" y="-351.5" font-family="Helvetica,sans-Serif" font-size="10.00">+ logFrame</text>
<text text-anchor="start" x="50.1792" y="-340.5" font-family="Helvetica,sans-Serif" font-size="10.00">+ rapportEntier</text>
<text text-anchor="start" x="50.1792" y="-329.5" font-family="Helvetica,sans-Serif" font-size="10.00">+ enchainerRapports</text>
<text text-anchor="start" x="50.1792" y="-318.5" font-family="Helvetica,sans-Serif" font-size="10.00">&#45; processTypeWidget</text>
<text text-anchor="start" x="50.1792" y="-307.5" font-family="Helvetica,sans-Serif" font-size="10.00">&#45; memoryUseWidget</text>
<text text-anchor="start" x="50.1792" y="-296.5" font-family="Helvetica,sans-Serif" font-size="10.00">&#45; rapportTypeWidget</text>
<text text-anchor="start" x="50.1792" y="-285.5" font-family="Helvetica,sans-Serif" font-size="10.00">&#45; processTypeBox</text>
<text text-anchor="start" x="50.1792" y="-274.5" font-family="Helvetica,sans-Serif" font-size="10.00">&#45; logCheckBox</text>
<text text-anchor="start" x="50.1792" y="-263.5" font-family="Helvetica,sans-Serif" font-size="10.00">&#45; consoleCheckBox</text>
<polyline fill="none" stroke="black" points="42.1792,-256.5 152.179,-256.5 "/>
<text text-anchor="start" x="50.1792" y="-244.5" font-family="Helvetica,sans-Serif" font-size="10.00">+ processPage()</text>
</a>
</g>
</g>
<!-- Node5&#45;&gt;Node8 -->
<g id="edge5" class="edge"><title>Node5&#45;&gt;Node8</title>
<path fill="none" stroke="midnightblue" d="M123.821,-498.327C119.35,-466.887 112.85,-421.183 107.389,-382.791"/>
<polygon fill="none" stroke="midnightblue" points="120.382,-499.003 125.255,-508.411 127.312,-498.017 120.382,-499.003"/>
</g>
<!-- Node9 -->
<g id="node6" class="node"><title>Node9</title>
<g id="a_node6"><a xlink:href="classstandard_page.html" target="_top" xlink:title="Classe de l&#39;onglet &quot;Format des bases&quot; du dialogue d&#39;options. ">
<polygon fill="white" stroke="black" points="170.679,-232 170.679,-388 279.679,-388 279.679,-232 170.679,-232"/>
<text text-anchor="middle" x="225.179" y="-376" font-family="Helvetica,sans-Serif" font-size="10.00">standardPage</text>
<polyline fill="none" stroke="black" points="170.679,-369 279.679,-369 "/>
<text text-anchor="start" x="178.679" y="-357" font-family="Helvetica,sans-Serif" font-size="10.00">+ tableCheckBox</text>
<text text-anchor="start" x="178.679" y="-346" font-family="Helvetica,sans-Serif" font-size="10.00">+ FPHCheckBox</text>
<text text-anchor="start" x="178.679" y="-335" font-family="Helvetica,sans-Serif" font-size="10.00">+ exportWidget</text>
<text text-anchor="start" x="178.679" y="-324" font-family="Helvetica,sans-Serif" font-size="10.00">&#45; baseTypeWidget</text>
<text text-anchor="start" x="178.679" y="-313" font-family="Helvetica,sans-Serif" font-size="10.00">&#45; maxNLigneLineEdit</text>
<text text-anchor="start" x="178.679" y="-302" font-family="Helvetica,sans-Serif" font-size="10.00">&#45; baseTypeBox</text>
<text text-anchor="start" x="178.679" y="-291" font-family="Helvetica,sans-Serif" font-size="10.00">&#45; etabCheckBox</text>
<text text-anchor="start" x="178.679" y="-280" font-family="Helvetica,sans-Serif" font-size="10.00">&#45; rangCheckBox</text>
<text text-anchor="start" x="178.679" y="-269" font-family="Helvetica,sans-Serif" font-size="10.00">&#45; maxNLigneLabel</text>
<polyline fill="none" stroke="black" points="170.679,-262 279.679,-262 "/>
<text text-anchor="start" x="178.679" y="-250" font-family="Helvetica,sans-Serif" font-size="10.00">+ standardPage()</text>
<text text-anchor="start" x="178.679" y="-239" font-family="Helvetica,sans-Serif" font-size="10.00">&#45; substituer_versant()</text>
</a>
</g>
</g>
<!-- Node5&#45;&gt;Node9 -->
<g id="edge8" class="edge"><title>Node5&#45;&gt;Node9</title>
<path fill="none" stroke="midnightblue" d="M144.898,-499.159C157.707,-469.138 176.231,-425.722 192.259,-388.157"/>
<polygon fill="none" stroke="midnightblue" points="141.656,-497.839 140.951,-508.411 148.094,-500.586 141.656,-497.839"/>
</g>
<!-- Node10 -->
<g id="node7" class="node"><title>Node10</title>
<g id="a_node7"><a xlink:href="classcode_page.html" target="_top" xlink:title="Classe de l&#39;onglet Codes permettant d&#39;exporter des codes de paye manuellement spécifiés vers les scri...">
<polygon fill="white" stroke="black" points="297.679,-193.5 297.679,-426.5 414.679,-426.5 414.679,-193.5 297.679,-193.5"/>
<text text-anchor="middle" x="356.179" y="-414.5" font-family="Helvetica,sans-Serif" font-size="10.00">codePage</text>
<polyline fill="none" stroke="black" points="297.679,-407.5 414.679,-407.5 "/>
<text text-anchor="start" x="305.679" y="-395.5" font-family="Helvetica,sans-Serif" font-size="10.00">&#45; prologue_codes_path</text>
<text text-anchor="start" x="305.679" y="-384.5" font-family="Helvetica,sans-Serif" font-size="10.00">&#45; variables</text>
<text text-anchor="start" x="305.679" y="-373.5" font-family="Helvetica,sans-Serif" font-size="10.00">&#45; listeCodes</text>
<text text-anchor="start" x="305.679" y="-362.5" font-family="Helvetica,sans-Serif" font-size="10.00">&#45; listeLabels</text>
<text text-anchor="start" x="305.679" y="-351.5" font-family="Helvetica,sans-Serif" font-size="10.00">&#45; listeDialogueLabels</text>
<text text-anchor="start" x="305.679" y="-340.5" font-family="Helvetica,sans-Serif" font-size="10.00">&#45; label</text>
<text text-anchor="start" x="305.679" y="-329.5" font-family="Helvetica,sans-Serif" font-size="10.00">&#45; init_label_text</text>
<text text-anchor="start" x="305.679" y="-318.5" font-family="Helvetica,sans-Serif" font-size="10.00">&#45; appliquerCodes</text>
<text text-anchor="start" x="305.679" y="-307.5" font-family="Helvetica,sans-Serif" font-size="10.00">&#45; vLayout</text>
<text text-anchor="start" x="305.679" y="-296.5" font-family="Helvetica,sans-Serif" font-size="10.00">&#45; mainLayout</text>
<text text-anchor="start" x="305.679" y="-285.5" font-family="Helvetica,sans-Serif" font-size="10.00">&#45; baseBox</text>
<polyline fill="none" stroke="black" points="297.679,-278.5 414.679,-278.5 "/>
<text text-anchor="start" x="305.679" y="-266.5" font-family="Helvetica,sans-Serif" font-size="10.00">+ codePage()</text>
<text text-anchor="start" x="305.679" y="-255.5" font-family="Helvetica,sans-Serif" font-size="10.00">+ resetLabel()</text>
<text text-anchor="start" x="305.679" y="-244.5" font-family="Helvetica,sans-Serif" font-size="10.00">&#45; ajouterVariable()</text>
<text text-anchor="start" x="305.679" y="-233.5" font-family="Helvetica,sans-Serif" font-size="10.00">&#45; reinitialiser_prologue()</text>
<text text-anchor="start" x="305.679" y="-222.5" font-family="Helvetica,sans-Serif" font-size="10.00">&#45; substituer_valeurs</text>
<text text-anchor="start" x="305.679" y="-211.5" font-family="Helvetica,sans-Serif" font-size="10.00">_dans_script_R()</text>
<text text-anchor="start" x="305.679" y="-200.5" font-family="Helvetica,sans-Serif" font-size="10.00">&#45; activer_fph()</text>
</a>
</g>
</g>
<!-- Node5&#45;&gt;Node10 -->
<g id="edge11" class="edge"><title>Node5&#45;&gt;Node10</title>
<path fill="none" stroke="midnightblue" d="M162.273,-501.094C175.461,-488.396 191.274,-474.58 207.179,-464 240.133,-442.081 258.807,-453.527 288.179,-427 291.384,-424.105 294.481,-421.023 297.469,-417.796"/>
<polygon fill="none" stroke="midnightblue" points="159.51,-498.902 154.83,-508.408 164.416,-503.895 159.51,-498.902"/>
</g>
<!-- Node6 -->
<g id="node3" class="node"><title>Node6</title>
<g id="a_node3"><a xlink:href="classcommon.html" target="_top" xlink:title="Classe dérivée de la classe tools ajoutant des fonctionnalités de communication de l&#39;interface vers l...">
<polygon fill="white" stroke="black" points="216.679,-464.5 216.679,-609.5 337.679,-609.5 337.679,-464.5 216.679,-464.5"/>
<text text-anchor="middle" x="277.179" y="-597.5" font-family="Helvetica,sans-Serif" font-size="10.00">common</text>
<polyline fill="none" stroke="black" points="216.679,-590.5 337.679,-590.5 "/>
<text text-anchor="start" x="224.679" y="-578.5" font-family="Helvetica,sans-Serif" font-size="10.00">+ execPath</text>
<text text-anchor="start" x="224.679" y="-567.5" font-family="Helvetica,sans-Serif" font-size="10.00">+ sharedir</text>
<text text-anchor="start" x="224.679" y="-556.5" font-family="Helvetica,sans-Serif" font-size="10.00">+ RAltairDirStr</text>
<text text-anchor="start" x="224.679" y="-545.5" font-family="Helvetica,sans-Serif" font-size="10.00">+ RAltairCommandStr</text>
<text text-anchor="start" x="224.679" y="-534.5" font-family="Helvetica,sans-Serif" font-size="10.00">+ altairCommandStr</text>
<polyline fill="none" stroke="black" points="216.679,-527.5 337.679,-527.5 "/>
<text text-anchor="start" x="224.679" y="-515.5" font-family="Helvetica,sans-Serif" font-size="10.00">+ common()</text>
<text text-anchor="start" x="224.679" y="-504.5" font-family="Helvetica,sans-Serif" font-size="10.00">+ exporter_identification</text>
<text text-anchor="start" x="224.679" y="-493.5" font-family="Helvetica,sans-Serif" font-size="10.00">_controle()</text>
<text text-anchor="start" x="224.679" y="-482.5" font-family="Helvetica,sans-Serif" font-size="10.00">+ exporter_identification</text>
<text text-anchor="start" x="224.679" y="-471.5" font-family="Helvetica,sans-Serif" font-size="10.00">_controle()</text>
</a>
</g>
</g>
<!-- Node6&#45;&gt;Node4 -->
<g id="edge2" class="edge"><title>Node6&#45;&gt;Node4</title>
<path fill="none" stroke="midnightblue" d="M346.321,-502.884C375.684,-484.876 406.856,-459.557 423.179,-427 469.791,-334.031 474.386,-283.52 423.179,-193 392.867,-139.417 327.719,-107.308 280.409,-90.185"/>
<polygon fill="none" stroke="midnightblue" points="344.508,-499.889 337.695,-508.002 348.081,-505.909 344.508,-499.889"/>
</g>
<!-- Node6&#45;&gt;Node8 -->
<g id="edge6" class="edge"><title>Node6&#45;&gt;Node8</title>
<path fill="none" stroke="midnightblue" d="M209.017,-478.657C192.312,-462.863 175.217,-445.075 161.179,-427 150.598,-413.376 140.724,-397.778 132.05,-382.533"/>
<polygon fill="none" stroke="midnightblue" points="206.949,-481.514 216.653,-485.768 211.72,-476.392 206.949,-481.514"/>
</g>
<!-- Node6&#45;&gt;Node9 -->
<g id="edge9" class="edge"><title>Node6&#45;&gt;Node9</title>
<path fill="none" stroke="midnightblue" d="M258.382,-454.666C253.37,-432.977 247.969,-409.611 243.011,-388.155"/>
<polygon fill="none" stroke="midnightblue" points="254.993,-455.544 260.655,-464.499 261.813,-453.968 254.993,-455.544"/>
</g>
<!-- Node6&#45;&gt;Node10 -->
<g id="edge12" class="edge"><title>Node6&#45;&gt;Node10</title>
<path fill="none" stroke="midnightblue" d="M305.616,-455.01C308.855,-445.785 312.201,-436.254 315.559,-426.691"/>
<polygon fill="none" stroke="midnightblue" points="302.294,-453.905 302.284,-464.499 308.899,-456.224 302.294,-453.905"/>
</g>
<!-- Node7 -->
<g id="node4" class="node"><title>Node7</title>
<polygon fill="white" stroke="#bfbfbf" points="258.179,-647.5 258.179,-704.5 296.179,-704.5 296.179,-647.5 258.179,-647.5"/>
<text text-anchor="middle" x="277.179" y="-692.5" font-family="Helvetica,sans-Serif" font-size="10.00">tools</text>
<polyline fill="none" stroke="#bfbfbf" points="258.179,-685.5 296.179,-685.5 "/>
<text text-anchor="middle" x="277.179" y="-673.5" font-family="Helvetica,sans-Serif" font-size="10.00"> </text>
<polyline fill="none" stroke="#bfbfbf" points="258.179,-666.5 296.179,-666.5 "/>
<text text-anchor="middle" x="277.179" y="-654.5" font-family="Helvetica,sans-Serif" font-size="10.00"> </text>
</g>
<!-- Node7&#45;&gt;Node6 -->
<g id="edge3" class="edge"><title>Node7&#45;&gt;Node6</title>
<path fill="none" stroke="midnightblue" d="M277.179,-637.21C277.179,-628.584 277.179,-619.139 277.179,-609.613"/>
<polygon fill="none" stroke="midnightblue" points="273.679,-637.276 277.179,-647.276 280.679,-637.276 273.679,-637.276"/>
</g>
<!-- Node8&#45;&gt;Node4 -->
<g id="edge4" class="edge"><title>Node8&#45;&gt;Node4</title>
<path fill="none" stroke="#404040" d="M124.652,-237.451C134.768,-213.556 147.004,-187.135 160.179,-164 161.702,-161.325 163.288,-158.634 164.923,-155.939"/>
<polygon fill="none" stroke="#404040" points="165.065,-155.714 164.867,-148.505 171.445,-145.55 171.643,-152.759 165.065,-155.714"/>
<text text-anchor="middle" x="190.679" y="-167" font-family="Helvetica,sans-Serif" font-size="10.00"> +processTab</text>
</g>
<!-- Node9&#45;&gt;Node4 -->
<g id="edge7" class="edge"><title>Node9&#45;&gt;Node4</title>
<path fill="none" stroke="#404040" d="M225.179,-231.727C225.179,-208.037 225.179,-181.867 225.179,-157.766"/>
<polygon fill="none" stroke="#404040" points="225.179,-157.749 221.179,-151.749 225.179,-145.749 229.179,-151.749 225.179,-157.749"/>
<text text-anchor="middle" x="257.179" y="-167" font-family="Helvetica,sans-Serif" font-size="10.00"> +standardTab</text>
</g>
<!-- Node10&#45;&gt;Node4 -->
<g id="edge10" class="edge"><title>Node10&#45;&gt;Node4</title>
<path fill="none" stroke="#404040" d="M308.945,-193.38C303.925,-183.288 298.646,-173.363 293.179,-164 291.204,-160.618 289.123,-157.214 286.964,-153.814"/>
<polygon fill="none" stroke="#404040" points="286.873,-153.675 280.235,-150.858 280.282,-143.647 286.92,-146.464 286.873,-153.675"/>
<text text-anchor="middle" x="321.679" y="-167" font-family="Helvetica,sans-Serif" font-size="10.00"> +codeTab</text>
</g>
</g>
</svg>
        <g id="navigator" transform="translate(0 0)" fill="#404254">
                <rect fill="#f2f5e9" fill-opacity="0.5" stroke="#606060" stroke-width=".5" x="0" y="0" width="60" height="60"/>
                <use id="zoomplus" xlink:href="#zoomPlus" x="17" y="9" onmousedown="handleZoom(evt,'in')"/>
                <use id="zoomminus" xlink:href="#zoomMin" x="42" y="9" onmousedown="handleZoom(evt,'out')"/>
                <use id="reset" xlink:href="#resetDef" x="30" y="36" onmousedown="handleReset()"/>
                <g id="arrowUp" xlink:href="#dirArrow" transform="translate(30 24)" onmousedown="handlePan(0,-1)">
                  <use xlink:href="#rim" fill="#404040">
                        <set attributeName="fill" to="#808080" begin="arrowUp.mouseover" end="arrowUp.mouseout"/>
                  </use>
                  <path fill="none" stroke="white" stroke-width="1.5" d="M0,-3.0v7 M-2.5,-0.5L0,-3.0L2.5,-0.5"/>
                </g>
                <g id="arrowRight" xlink:href="#dirArrow" transform="rotate(90) translate(36 -43)" onmousedown="handlePan(1,0)">
                  <use xlink:href="#rim" fill="#404040">
                        <set attributeName="fill" to="#808080" begin="arrowRight.mouseover" end="arrowRight.mouseout"/>
                  </use>
                  <path fill="none" stroke="white" stroke-width="1.5" d="M0,-3.0v7 M-2.5,-0.5L0,-3.0L2.5,-0.5"/>
                </g>
                <g id="arrowDown" xlink:href="#dirArrow" transform="rotate(180) translate(-30 -48)" onmousedown="handlePan(0,1)">
                  <use xlink:href="#rim" fill="#404040">
                        <set attributeName="fill" to="#808080" begin="arrowDown.mouseover" end="arrowDown.mouseout"/>
                  </use>
                  <path fill="none" stroke="white" stroke-width="1.5" d="M0,-3.0v7 M-2.5,-0.5L0,-3.0L2.5,-0.5"/>
                </g>
                <g id="arrowLeft" xlink:href="#dirArrow" transform="rotate(270) translate(-36 17)" onmousedown="handlePan(-1,0)">
                  <use xlink:href="#rim" fill="#404040">
                        <set attributeName="fill" to="#808080" begin="arrowLeft.mouseover" end="arrowLeft.mouseout"/>
                  </use>
                  <path fill="none" stroke="white" stroke-width="1.5" d="M0,-3.0v7 M-2.5,-0.5L0,-3.0L2.5,-0.5"/>
                </g>
        </g>
        <svg viewBox="0 0 15 15" width="100%" height="30px" preserveAspectRatio="xMaxYMin meet">
         <g id="arrow_out" transform="scale(0.3 0.3)">
          <a xlink:href="classoptions__coll__graph_org.svg" target="_base">
           <rect id="button" ry="5" rx="5" y="6" x="6" height="38" width="38"
                fill="#f2f5e9" fill-opacity="0.5" stroke="#606060" stroke-width="1.0"/>
           <path id="arrow"
             d="M 11.500037,31.436501 C 11.940474,20.09759 22.043105,11.32322 32.158766,21.979434 L 37.068811,17.246167 C 37.068811,17.246167 37.088388,32 37.088388,32 L 22.160133,31.978069 C 22.160133,31.978069 26.997745,27.140456 26.997745,27.140456 C 18.528582,18.264221 13.291696,25.230495 11.500037,31.436501 z"
             style="fill:#404040;"/>
          </a>
         </g>
        </svg>
</svg>
