<?xml version="1.0" encoding="UTF-8" standalone="no"?>
<!DOCTYPE svg PUBLIC "-//W3C//DTD SVG 1.1//EN"
 "http://www.w3.org/Graphics/SVG/1.1/DTD/svg11.dtd">
<!-- Generated by graphviz version 2.38.0 (20140413.2041)
 -->
<!-- Title: FListFrame::parseXhlFile Pages: 1 -->
<svg width="294pt" height="78pt"
 viewBox="0.00 0.00 294.00 77.50" xmlns="http://www.w3.org/2000/svg" xmlns:xlink="http://www.w3.org/1999/xlink">
<g id="graph0" class="graph" transform="scale(1 1) rotate(0) translate(4 73.5)">
<title>FListFrame::parseXhlFile</title>
<polygon fill="white" stroke="none" points="-4,4 -4,-73.5 290,-73.5 290,4 -4,4"/>
<!-- Node1164 -->
<g id="node1" class="node"><title>Node1164</title>
<polygon fill="#bfbfbf" stroke="black" points="0,-6 0,-25 132,-25 132,-6 0,-6"/>
<text text-anchor="middle" x="66" y="-13" font-family="Helvetica,sans-Serif" font-size="10.00">FListFrame::parseXhlFile</text>
</g>
<!-- Node1165 -->
<g id="node2" class="node"><title>Node1165</title>
<g id="a_node2"><a xlink:href="classtools.html#a0aa994303a938a76300767d2251b9f85" target="_top" xlink:title="Détecte si un disque optique est monté. ">
<polygon fill="white" stroke="black" points="168,-50 168,-69 286,-69 286,-50 168,-50"/>
<text text-anchor="middle" x="227" y="-57" font-family="Helvetica,sans-Serif" font-size="10.00">tools::cdRomMounted</text>
</a>
</g>
</g>
<!-- Node1164&#45;&gt;Node1165 -->
<g id="edge1" class="edge"><title>Node1164&#45;&gt;Node1165</title>
<path fill="none" stroke="midnightblue" d="M101.501,-25.0473C125.045,-31.5627 156.441,-40.2508 181.813,-47.2722"/>
<polygon fill="midnightblue" stroke="midnightblue" points="180.995,-50.6774 191.567,-49.9713 182.862,-43.9309 180.995,-50.6774"/>
</g>
<!-- Node1166 -->
<g id="node3" class="node"><title>Node1166</title>
<g id="a_node3"><a xlink:href="class_f_list_frame.html#a22a50157e8c6d287c2b2c08d2b7deee9" target="_top" xlink:title="Lancer un fil d&#39;exécution pour lire l&#39;entête d&#39;un fichier XHL (Année, Mois,...) et classer les fichie...">
<polygon fill="white" stroke="black" points="175,-0.5 175,-30.5 279,-30.5 279,-0.5 175,-0.5"/>
<text text-anchor="start" x="183" y="-18.5" font-family="Helvetica,sans-Serif" font-size="10.00">FListFrame::launch</text>
<text text-anchor="middle" x="227" y="-7.5" font-family="Helvetica,sans-Serif" font-size="10.00">_thread</text>
</a>
</g>
</g>
<!-- Node1164&#45;&gt;Node1166 -->
<g id="edge2" class="edge"><title>Node1164&#45;&gt;Node1166</title>
<path fill="none" stroke="midnightblue" d="M132.13,-8.84898C142.919,-8.69888 154.072,-8.7195 164.761,-8.91082"/>
<polygon fill="midnightblue" stroke="midnightblue" points="164.759,-12.4117 174.838,-9.14657 164.923,-5.41357 164.759,-12.4117"/>
</g>
<!-- Node1166&#45;&gt;Node1164 -->
<g id="edge3" class="edge"><title>Node1166&#45;&gt;Node1164</title>
<path fill="none" stroke="midnightblue" d="M174.838,-21.8534C164.426,-22.157 153.268,-22.2863 142.22,-22.2413"/>
<polygon fill="midnightblue" stroke="midnightblue" points="142.161,-18.7407 132.13,-22.151 142.098,-25.7404 142.161,-18.7407"/>
</g>
</g>
</svg>
