<?xml version="1.0" encoding="UTF-8" standalone="no"?>
<!DOCTYPE svg PUBLIC "-//W3C//DTD SVG 1.1//EN"
 "http://www.w3.org/Graphics/SVG/1.1/DTD/svg11.dtd">
<!-- Generated by graphviz version 2.38.0 (20140413.2041)
 -->
<!-- Title: FListFrame::hideProgressBar Pages: 1 -->
<svg width="449pt" height="28pt"
 viewBox="0.00 0.00 449.00 28.00" xmlns="http://www.w3.org/2000/svg" xmlns:xlink="http://www.w3.org/1999/xlink">
<g id="graph0" class="graph" transform="scale(1 1) rotate(0) translate(4 24)">
<title>FListFrame::hideProgressBar</title>
<polygon fill="white" stroke="none" points="-4,4 -4,-24 445,-24 445,4 -4,4"/>
<!-- Node235 -->
<g id="node1" class="node"><title>Node235</title>
<polygon fill="#bfbfbf" stroke="black" points="0,-0.5 0,-19.5 144,-19.5 144,-0.5 0,-0.5"/>
<text text-anchor="middle" x="72" y="-7.5" font-family="Helvetica,sans-Serif" font-size="10.00">FListFrame::hideProgressBar</text>
</g>
<!-- Node236 -->
<g id="node2" class="node"><title>Node236</title>
<g id="a_node2"><a xlink:href="class_f_list_frame.html#aa993bd2e0b975a839c6f8b46dea4690c" target="_top" xlink:title="FListFrame::finalise">
<polygon fill="white" stroke="black" points="180,-0.5 180,-19.5 283,-19.5 283,-0.5 180,-0.5"/>
<text text-anchor="middle" x="231.5" y="-7.5" font-family="Helvetica,sans-Serif" font-size="10.00">FListFrame::finalise</text>
</a>
</g>
</g>
<!-- Node235&#45;&gt;Node236 -->
<g id="edge1" class="edge"><title>Node235&#45;&gt;Node236</title>
<path fill="none" stroke="midnightblue" d="M154.432,-10C163.003,-10 171.53,-10 179.609,-10"/>
<polygon fill="midnightblue" stroke="midnightblue" points="154.377,-6.5001 144.377,-10 154.377,-13.5001 154.377,-6.5001"/>
</g>
<!-- Node237 -->
<g id="node3" class="node"><title>Node237</title>
<g id="a_node3"><a xlink:href="class_f_list_frame.html#a865246df8a4d4000ac3c818abc6d7f71" target="_top" xlink:title="FListFrame::FListFrame">
<polygon fill="white" stroke="black" points="319,-0.5 319,-19.5 441,-19.5 441,-0.5 319,-0.5"/>
<text text-anchor="middle" x="380" y="-7.5" font-family="Helvetica,sans-Serif" font-size="10.00">FListFrame::FListFrame</text>
</a>
</g>
</g>
<!-- Node236&#45;&gt;Node237 -->
<g id="edge2" class="edge"><title>Node236&#45;&gt;Node237</title>
<path fill="none" stroke="midnightblue" d="M293.462,-10C301.887,-10 310.535,-10 318.943,-10"/>
<polygon fill="midnightblue" stroke="midnightblue" points="293.327,-6.5001 283.327,-10 293.327,-13.5001 293.327,-6.5001"/>
</g>
</g>
</svg>
