<?xml version="1.0" encoding="UTF-8" standalone="no"?>
<!DOCTYPE svg PUBLIC "-//W3C//DTD SVG 1.1//EN"
 "http://www.w3.org/Graphics/SVG/1.1/DTD/svg11.dtd">
<!-- Generated by graphviz version 2.38.0 (20140413.2041)
 -->
<!-- Title: FProgressBar::value Pages: 1 -->
<svg width="323pt" height="88pt"
 viewBox="0.00 0.00 323.00 88.00" xmlns="http://www.w3.org/2000/svg" xmlns:xlink="http://www.w3.org/1999/xlink">
<g id="graph0" class="graph" transform="scale(1 1) rotate(0) translate(4 84)">
<title>FProgressBar::value</title>
<polygon fill="white" stroke="none" points="-4,4 -4,-84 319,-84 319,4 -4,4"/>
<!-- Node69 -->
<g id="node1" class="node"><title>Node69</title>
<polygon fill="#bfbfbf" stroke="black" points="0,-30 0,-49 106,-49 106,-30 0,-30"/>
<text text-anchor="middle" x="53" y="-37" font-family="Helvetica,sans-Serif" font-size="10.00">FProgressBar::value</text>
</g>
<!-- Node69&#45;&gt;Node69 -->
<g id="edge3" class="edge"><title>Node69&#45;&gt;Node69</title>
<path fill="none" stroke="midnightblue" d="M20.4401,-57.7746C21.3684,-63.241 32.2217,-67.5 53,-67.5 83.9258,-67.5 92.8653,-58.0653 79.8185,-49.2571"/>
<polygon fill="midnightblue" stroke="midnightblue" points="23.4943,-59.5054 26.1815,-49.2571 17.6898,-55.5928 23.4943,-59.5054"/>
</g>
<!-- Node70 -->
<g id="node2" class="node"><title>Node70</title>
<g id="a_node2"><a xlink:href="class_f_progress_bar.html#a0364279e74c7261bd6341ab9604b4ec1" target="_top" xlink:title="FProgressBar::computeLHXParsing\lProgressBar">
<polygon fill="white" stroke="black" points="142,-49.5 142,-79.5 315,-79.5 315,-49.5 142,-49.5"/>
<text text-anchor="start" x="150" y="-67.5" font-family="Helvetica,sans-Serif" font-size="10.00">FProgressBar::computeLHXParsing</text>
<text text-anchor="middle" x="228.5" y="-56.5" font-family="Helvetica,sans-Serif" font-size="10.00">ProgressBar</text>
</a>
</g>
</g>
<!-- Node69&#45;&gt;Node70 -->
<g id="edge1" class="edge"><title>Node69&#45;&gt;Node70</title>
<path fill="none" stroke="midnightblue" d="M116.048,-48.4407C124.395,-49.6434 133.075,-50.894 141.741,-52.1428"/>
<polygon fill="midnightblue" stroke="midnightblue" points="116.453,-44.9629 106.056,-47.0008 115.454,-51.8913 116.453,-44.9629"/>
</g>
<!-- Node71 -->
<g id="node3" class="node"><title>Node71</title>
<g id="a_node3"><a xlink:href="class_f_progress_bar.html#a8567ccfc4904fb5f13536fd1fa7cbd21" target="_top" xlink:title="FProgressBar::computeLHXWriting\lProgressBar">
<polygon fill="white" stroke="black" points="143.5,-0.5 143.5,-30.5 313.5,-30.5 313.5,-0.5 143.5,-0.5"/>
<text text-anchor="start" x="151.5" y="-18.5" font-family="Helvetica,sans-Serif" font-size="10.00">FProgressBar::computeLHXWriting</text>
<text text-anchor="middle" x="228.5" y="-7.5" font-family="Helvetica,sans-Serif" font-size="10.00">ProgressBar</text>
</a>
</g>
</g>
<!-- Node69&#45;&gt;Node71 -->
<g id="edge2" class="edge"><title>Node69&#45;&gt;Node71</title>
<path fill="none" stroke="midnightblue" d="M116.212,-30.8944C125.028,-29.6748 134.213,-28.4043 143.359,-27.1391"/>
<polygon fill="midnightblue" stroke="midnightblue" points="115.482,-27.4619 106.056,-32.2992 116.441,-34.3959 115.482,-27.4619"/>
</g>
</g>
</svg>
