<?xml version="1.0" encoding="UTF-8" standalone="no"?>
<!DOCTYPE svg PUBLIC "-//W3C//DTD SVG 1.1//EN"
 "http://www.w3.org/Graphics/SVG/1.1/DTD/svg11.dtd">
<!-- Generated by graphviz version 2.38.0 (20140413.2041)
 -->
<!-- Title: Altair::parseEntry Pages: 1 -->
<svg width="437pt" height="122pt"
 viewBox="0.00 0.00 437.00 122.00" xmlns="http://www.w3.org/2000/svg" xmlns:xlink="http://www.w3.org/1999/xlink">
<g id="graph0" class="graph" transform="scale(1 1) rotate(0) translate(4 118)">
<title>Altair::parseEntry</title>
<polygon fill="white" stroke="none" points="-4,4 -4,-118 433,-118 433,4 -4,4"/>
<!-- Node535 -->
<g id="node1" class="node"><title>Node535</title>
<polygon fill="#bfbfbf" stroke="black" points="0,-56.5 0,-75.5 92,-75.5 92,-56.5 0,-56.5"/>
<text text-anchor="middle" x="46" y="-63.5" font-family="Helvetica,sans-Serif" font-size="10.00">Altair::parseEntry</text>
</g>
<!-- Node536 -->
<g id="node2" class="node"><title>Node536</title>
<g id="a_node2"><a xlink:href="class_f_list_frame.html#a7ecbe60018d55d1a1352c5fd24c5e72e" target="_top" xlink:title="FListFrame::setTabLabels">
<polygon fill="white" stroke="black" points="128,-94.5 128,-113.5 259,-113.5 259,-94.5 128,-94.5"/>
<text text-anchor="middle" x="193.5" y="-101.5" font-family="Helvetica,sans-Serif" font-size="10.00">FListFrame::setTabLabels</text>
</a>
</g>
</g>
<!-- Node535&#45;&gt;Node536 -->
<g id="edge1" class="edge"><title>Node535&#45;&gt;Node536</title>
<path fill="none" stroke="midnightblue" d="M83.7158,-75.589C102.657,-80.5358 125.957,-86.6211 146.129,-91.8892"/>
<polygon fill="midnightblue" stroke="midnightblue" points="145.488,-95.3394 156.048,-94.4799 147.257,-88.5665 145.488,-95.3394"/>
</g>
<!-- Node538 -->
<g id="node4" class="node"><title>Node538</title>
<g id="a_node4"><a xlink:href="namespace_xml_method.html#abe26f53c2028527b0ebea361faa85221" target="_top" xlink:title="Empile les données pour un noeud donné, pour une profondeur d&#39;enchassement donnée. ">
<polygon fill="white" stroke="black" points="135,-56.5 135,-75.5 252,-75.5 252,-56.5 135,-56.5"/>
<text text-anchor="middle" x="193.5" y="-63.5" font-family="Helvetica,sans-Serif" font-size="10.00">XmlMethod::stackData</text>
</a>
</g>
</g>
<!-- Node535&#45;&gt;Node538 -->
<g id="edge3" class="edge"><title>Node535&#45;&gt;Node538</title>
<path fill="none" stroke="midnightblue" d="M92.2395,-66C102.586,-66 113.804,-66 124.863,-66"/>
<polygon fill="midnightblue" stroke="midnightblue" points="124.946,-69.5001 134.946,-66 124.946,-62.5001 124.946,-69.5001"/>
</g>
<!-- Node539 -->
<g id="node5" class="node"><title>Node539</title>
<g id="a_node5"><a xlink:href="class_f_string_list.html#a71ec48a52b6ca4ffe89400d66f3ff634" target="_top" xlink:title="FStringList::toInt">
<polygon fill="white" stroke="black" points="149,-0.5 149,-19.5 238,-19.5 238,-0.5 149,-0.5"/>
<text text-anchor="middle" x="193.5" y="-7.5" font-family="Helvetica,sans-Serif" font-size="10.00">FStringList::toInt</text>
</a>
</g>
</g>
<!-- Node535&#45;&gt;Node539 -->
<g id="edge4" class="edge"><title>Node535&#45;&gt;Node539</title>
<path fill="none" stroke="midnightblue" d="M72.0123,-56.3733C95.7878,-47.2226 131.742,-33.3844 158.189,-23.2057"/>
<polygon fill="midnightblue" stroke="midnightblue" points="159.739,-26.3595 167.814,-19.5011 157.224,-19.8267 159.739,-26.3595"/>
</g>
<!-- Node537 -->
<g id="node3" class="node"><title>Node537</title>
<g id="a_node3"><a xlink:href="class_f_list_widget.html#aac6eaaeb9946354f743394b54c84a6a7" target="_top" xlink:title="FListWidget::setTabLabels">
<polygon fill="white" stroke="black" points="295,-94.5 295,-113.5 429,-113.5 429,-94.5 295,-94.5"/>
<text text-anchor="middle" x="362" y="-101.5" font-family="Helvetica,sans-Serif" font-size="10.00">FListWidget::setTabLabels</text>
</a>
</g>
</g>
<!-- Node536&#45;&gt;Node537 -->
<g id="edge2" class="edge"><title>Node536&#45;&gt;Node537</title>
<path fill="none" stroke="midnightblue" d="M259.35,-104C267.659,-104 276.226,-104 284.696,-104"/>
<polygon fill="midnightblue" stroke="midnightblue" points="284.956,-107.5 294.956,-104 284.956,-100.5 284.956,-107.5"/>
</g>
<!-- Node539&#45;&gt;Node539 -->
<g id="edge5" class="edge"><title>Node539&#45;&gt;Node539</title>
<path fill="none" stroke="midnightblue" d="M170.997,-19.7571C160.05,-28.5653 167.551,-38 193.5,-38 210.529,-38 219.613,-33.9368 220.753,-28.6539"/>
<polygon fill="midnightblue" stroke="midnightblue" points="223.8,-26.9303 216.003,-19.7571 217.625,-30.227 223.8,-26.9303"/>
</g>
</g>
</svg>
