<?xml version="1.0" encoding="UTF-8" standalone="no"?>
<!DOCTYPE svg PUBLIC "-//W3C//DTD SVG 1.1//EN"
 "http://www.w3.org/Graphics/SVG/1.1/DTD/svg11.dtd">
<!-- Generated by graphviz version 2.38.0 (20140413.2041)
 -->
<!-- Title: FListFrame::is_ntabs_changed Pages: 1 -->
<svg width="1165pt" height="438pt"
 viewBox="0.00 0.00 1165.00 438.00" xmlns="http://www.w3.org/2000/svg" xmlns:xlink="http://www.w3.org/1999/xlink">
<g id="graph0" class="graph" transform="scale(1 1) rotate(0) translate(4 434)">
<title>FListFrame::is_ntabs_changed</title>
<polygon fill="white" stroke="none" points="-4,4 -4,-434 1161,-434 1161,4 -4,4"/>
<!-- Node261 -->
<g id="node1" class="node"><title>Node261</title>
<polygon fill="#bfbfbf" stroke="black" points="0,-329 0,-359 109,-359 109,-329 0,-329"/>
<text text-anchor="start" x="8" y="-347" font-family="Helvetica,sans-Serif" font-size="10.00">FListFrame::is_ntabs</text>
<text text-anchor="middle" x="54.5" y="-336" font-family="Helvetica,sans-Serif" font-size="10.00">_changed</text>
</g>
<!-- Node262 -->
<g id="node2" class="node"><title>Node262</title>
<g id="a_node2"><a xlink:href="class_f_list_frame.html#a868a44b7df707f05fef3503d1472ed1d" target="_top" xlink:title="FListFrame::deleteGroup">
<polygon fill="white" stroke="black" points="149.5,-410.5 149.5,-429.5 274.5,-429.5 274.5,-410.5 149.5,-410.5"/>
<text text-anchor="middle" x="212" y="-417.5" font-family="Helvetica,sans-Serif" font-size="10.00">FListFrame::deleteGroup</text>
</a>
</g>
</g>
<!-- Node261&#45;&gt;Node262 -->
<g id="edge1" class="edge"><title>Node261&#45;&gt;Node262</title>
<path fill="none" stroke="midnightblue" d="M83.8957,-365.067C100.925,-376.925 123.407,-391.261 145,-401 153.152,-404.677 162.192,-407.83 170.901,-410.451"/>
<polygon fill="midnightblue" stroke="midnightblue" points="85.7029,-362.058 75.5209,-359.129 81.6543,-367.768 85.7029,-362.058"/>
</g>
<!-- Node263 -->
<g id="node3" class="node"><title>Node263</title>
<g id="a_node3"><a xlink:href="class_f_list_frame.html#aa993bd2e0b975a839c6f8b46dea4690c" target="_top" xlink:title="FListFrame::finalise">
<polygon fill="white" stroke="black" points="160.5,-372.5 160.5,-391.5 263.5,-391.5 263.5,-372.5 160.5,-372.5"/>
<text text-anchor="middle" x="212" y="-379.5" font-family="Helvetica,sans-Serif" font-size="10.00">FListFrame::finalise</text>
</a>
</g>
</g>
<!-- Node261&#45;&gt;Node263 -->
<g id="edge2" class="edge"><title>Node261&#45;&gt;Node263</title>
<path fill="none" stroke="midnightblue" d="M118.894,-359.492C136.922,-363.897 156.017,-368.564 172.118,-372.498"/>
<polygon fill="midnightblue" stroke="midnightblue" points="119.559,-356.051 109.014,-357.077 117.898,-362.851 119.559,-356.051"/>
</g>
<!-- Node265 -->
<g id="node5" class="node"><title>Node265</title>
<g id="a_node5"><a xlink:href="class_f_list_frame.html#afd74f30555efed8e42ce6e08a008aea4" target="_top" xlink:title="FListFrame::list_connect">
<polygon fill="white" stroke="black" points="149.5,-334.5 149.5,-353.5 274.5,-353.5 274.5,-334.5 149.5,-334.5"/>
<text text-anchor="middle" x="212" y="-341.5" font-family="Helvetica,sans-Serif" font-size="10.00">FListFrame::list_connect</text>
</a>
</g>
</g>
<!-- Node261&#45;&gt;Node265 -->
<g id="edge4" class="edge"><title>Node261&#45;&gt;Node265</title>
<path fill="none" stroke="midnightblue" d="M119.242,-344C129.195,-344 139.464,-344 149.368,-344"/>
<polygon fill="midnightblue" stroke="midnightblue" points="119.014,-340.5 109.014,-344 119.014,-347.5 119.014,-340.5"/>
</g>
<!-- Node266 -->
<g id="node6" class="node"><title>Node266</title>
<g id="a_node6"><a xlink:href="class_f_list_frame.html#a3b18347a90f89b4423e8a543f0c1c47c" target="_top" xlink:title="FListFrame::on_deleteItem\l_clicked">
<polygon fill="white" stroke="black" points="145,-285 145,-315 279,-315 279,-285 145,-285"/>
<text text-anchor="start" x="153" y="-303" font-family="Helvetica,sans-Serif" font-size="10.00">FListFrame::on_deleteItem</text>
<text text-anchor="middle" x="212" y="-292" font-family="Helvetica,sans-Serif" font-size="10.00">_clicked</text>
</a>
</g>
</g>
<!-- Node261&#45;&gt;Node266 -->
<g id="edge5" class="edge"><title>Node261&#45;&gt;Node266</title>
<path fill="none" stroke="midnightblue" d="M118.448,-326.188C131.536,-322.485 145.205,-318.617 157.896,-315.026"/>
<polygon fill="midnightblue" stroke="midnightblue" points="117.249,-322.89 108.579,-328.981 119.155,-329.626 117.249,-322.89"/>
</g>
<!-- Node267 -->
<g id="node7" class="node"><title>Node267</title>
<g id="a_node7"><a xlink:href="class_altair.html#a41b6c8a35ed8ba14c7c0ce2e6994655f" target="_top" xlink:title="Décode le projet représenté par un pointeur vers QFile ou similaire. ">
<polygon fill="white" stroke="black" points="154,-246.5 154,-265.5 270,-265.5 270,-246.5 154,-246.5"/>
<text text-anchor="middle" x="212" y="-253.5" font-family="Helvetica,sans-Serif" font-size="10.00">Altair::parseProjectFile</text>
</a>
</g>
</g>
<!-- Node261&#45;&gt;Node267 -->
<g id="edge7" class="edge"><title>Node261&#45;&gt;Node267</title>
<path fill="none" stroke="midnightblue" d="M79.5946,-321.895C96.7551,-307.145 120.952,-288.276 145,-276 153.211,-271.809 162.454,-268.329 171.365,-265.513"/>
<polygon fill="midnightblue" stroke="midnightblue" points="76.9787,-319.534 71.7671,-328.758 81.5936,-324.797 76.9787,-319.534"/>
</g>
<!-- Node264 -->
<g id="node4" class="node"><title>Node264</title>
<g id="a_node4"><a xlink:href="class_f_list_frame.html#a865246df8a4d4000ac3c818abc6d7f71" target="_top" xlink:title="FListFrame::FListFrame">
<polygon fill="white" stroke="black" points="325.5,-331.5 325.5,-350.5 447.5,-350.5 447.5,-331.5 325.5,-331.5"/>
<text text-anchor="middle" x="386.5" y="-338.5" font-family="Helvetica,sans-Serif" font-size="10.00">FListFrame::FListFrame</text>
</a>
</g>
</g>
<!-- Node263&#45;&gt;Node264 -->
<g id="edge3" class="edge"><title>Node263&#45;&gt;Node264</title>
<path fill="none" stroke="midnightblue" d="M262.769,-370.171C289.009,-363.934 320.772,-356.385 345.41,-350.529"/>
<polygon fill="midnightblue" stroke="midnightblue" points="261.928,-366.773 253.009,-372.491 263.547,-373.583 261.928,-366.773"/>
</g>
<!-- Node266&#45;&gt;Node264 -->
<g id="edge6" class="edge"><title>Node266&#45;&gt;Node264</title>
<path fill="none" stroke="midnightblue" d="M286.109,-317.377C306.39,-322.197 327.663,-327.253 345.301,-331.446"/>
<polygon fill="midnightblue" stroke="midnightblue" points="286.791,-313.941 276.253,-315.034 285.173,-320.752 286.791,-313.941"/>
</g>
<!-- Node268 -->
<g id="node8" class="node"><title>Node268</title>
<g id="a_node8"><a xlink:href="class_altair.html#ac9d7d8e7cebf70212818f1a8ba7d7d78" target="_top" xlink:title="Rafraîchit le gestionnaire de projet à la droite de l&#39;interface. Fonction globale par défaut...">
<polygon fill="white" stroke="black" points="315,-246.5 315,-265.5 458,-265.5 458,-246.5 315,-246.5"/>
<text text-anchor="middle" x="386.5" y="-253.5" font-family="Helvetica,sans-Serif" font-size="10.00">Altair::refreshProjectManager</text>
</a>
</g>
</g>
<!-- Node267&#45;&gt;Node268 -->
<g id="edge8" class="edge"><title>Node267&#45;&gt;Node268</title>
<path fill="none" stroke="midnightblue" d="M280.603,-256C291.831,-256 303.501,-256 314.803,-256"/>
<polygon fill="midnightblue" stroke="midnightblue" points="280.44,-252.5 270.44,-256 280.44,-259.5 280.44,-252.5"/>
</g>
<!-- Node269 -->
<g id="node9" class="node"><title>Node269</title>
<g id="a_node9"><a xlink:href="class_altair.html#acaa583766e1c062ea311847fcdd35374" target="_top" xlink:title="Efface les onglets, le gestionnaire de projet et lit le projet .alt en cours. ">
<polygon fill="white" stroke="black" points="494,-292 494,-322 616,-322 616,-292 494,-292"/>
<text text-anchor="start" x="502" y="-310" font-family="Helvetica,sans-Serif" font-size="10.00">Altair::clearInterfaceAnd</text>
<text text-anchor="middle" x="555" y="-299" font-family="Helvetica,sans-Serif" font-size="10.00">ParseProject</text>
</a>
</g>
</g>
<!-- Node268&#45;&gt;Node269 -->
<g id="edge9" class="edge"><title>Node268&#45;&gt;Node269</title>
<path fill="none" stroke="midnightblue" d="M428.632,-268.599C451.682,-275.659 480.58,-284.511 504.82,-291.936"/>
<polygon fill="midnightblue" stroke="midnightblue" points="429.404,-265.175 418.817,-265.593 427.354,-271.868 429.404,-265.175"/>
</g>
<!-- Node273 -->
<g id="node13" class="node"><title>Node273</title>
<g id="a_node13"><a xlink:href="class_altair.html#a2eb0a89c3223b2df1c01d2b3b7d1c0eb" target="_top" xlink:title="Rafraichir le projet .alt après avoir actualisé l&#39;interface. ">
<polygon fill="white" stroke="black" points="502.5,-196.5 502.5,-215.5 607.5,-215.5 607.5,-196.5 502.5,-196.5"/>
<text text-anchor="middle" x="555" y="-203.5" font-family="Helvetica,sans-Serif" font-size="10.00">Altair::updateProject</text>
</a>
</g>
</g>
<!-- Node268&#45;&gt;Node273 -->
<g id="edge13" class="edge"><title>Node268&#45;&gt;Node273</title>
<path fill="none" stroke="midnightblue" d="M428.996,-243.539C457.822,-234.882 495.661,-223.519 522.126,-215.572"/>
<polygon fill="midnightblue" stroke="midnightblue" points="427.78,-240.249 419.209,-246.478 429.793,-246.954 427.78,-240.249"/>
</g>
<!-- Node270 -->
<g id="node10" class="node"><title>Node270</title>
<g id="a_node10"><a xlink:href="class_altair.html#aa341707131924eff160bcab41422d1ec" target="_top" xlink:title="Code commun à différentes fonctions lancées pour l&#39;analyse des projets. ">
<polygon fill="white" stroke="black" points="652,-354.5 652,-373.5 828,-373.5 828,-354.5 652,-354.5"/>
<text text-anchor="middle" x="740" y="-361.5" font-family="Helvetica,sans-Serif" font-size="10.00">Altair::openProjectFileCommonCode</text>
</a>
</g>
</g>
<!-- Node269&#45;&gt;Node270 -->
<g id="edge10" class="edge"><title>Node269&#45;&gt;Node270</title>
<path fill="none" stroke="midnightblue" d="M607.56,-325.38C621.891,-330.309 637.5,-335.513 652,-340 668.465,-345.096 686.843,-350.243 702.45,-354.457"/>
<polygon fill="midnightblue" stroke="midnightblue" points="608.467,-321.99 597.872,-322.023 606.175,-328.605 608.467,-321.99"/>
</g>
<!-- Node271 -->
<g id="node11" class="node"><title>Node271</title>
<g id="a_node11"><a xlink:href="class_altair.html#ab98d384297c6b94ff65a683eb5f99633" target="_top" xlink:title="Ouvre le projet, le décode en appelant parseProjectFile et actualise l&#39;interface &#160;en conséquence...">
<polygon fill="white" stroke="black" points="864,-374 864,-404 1005,-404 1005,-374 864,-374"/>
<text text-anchor="start" x="872" y="-392" font-family="Helvetica,sans-Serif" font-size="10.00">Altair::on_openProjectButton</text>
<text text-anchor="middle" x="934.5" y="-381" font-family="Helvetica,sans-Serif" font-size="10.00">_clicked</text>
</a>
</g>
</g>
<!-- Node270&#45;&gt;Node271 -->
<g id="edge11" class="edge"><title>Node270&#45;&gt;Node271</title>
<path fill="none" stroke="midnightblue" d="M824.329,-374.822C837.517,-376.535 851.035,-378.29 863.868,-379.957"/>
<polygon fill="midnightblue" stroke="midnightblue" points="824.693,-371.34 814.325,-373.523 823.791,-378.282 824.693,-371.34"/>
</g>
<!-- Node272 -->
<g id="node12" class="node"><title>Node272</title>
<g id="a_node12"><a xlink:href="class_altair.html#a84cf34107cd413ab33800b583bdef59e" target="_top" xlink:title="Ouvre le projet .alt et décode le projet pour actualiser l&#39;interface. ">
<polygon fill="white" stroke="black" points="878,-335.5 878,-354.5 991,-354.5 991,-335.5 878,-335.5"/>
<text text-anchor="middle" x="934.5" y="-342.5" font-family="Helvetica,sans-Serif" font-size="10.00">Altair::openProjectFile</text>
</a>
</g>
</g>
<!-- Node270&#45;&gt;Node272 -->
<g id="edge12" class="edge"><title>Node270&#45;&gt;Node272</title>
<path fill="none" stroke="midnightblue" d="M838.572,-354.369C852.1,-353.034 865.593,-351.702 877.982,-350.48"/>
<polygon fill="midnightblue" stroke="midnightblue" points="837.846,-350.924 828.238,-355.389 838.534,-357.89 837.846,-350.924"/>
</g>
<!-- Node274 -->
<g id="node14" class="node"><title>Node274</title>
<g id="a_node14"><a xlink:href="class_altair.html#ae0975ced0a36e0ed889ae06043a4df66" target="_top" xlink:title="Constructeur. ">
<polygon fill="white" stroke="black" points="900.5,-278.5 900.5,-297.5 968.5,-297.5 968.5,-278.5 900.5,-278.5"/>
<text text-anchor="middle" x="934.5" y="-285.5" font-family="Helvetica,sans-Serif" font-size="10.00">Altair::Altair</text>
</a>
</g>
</g>
<!-- Node273&#45;&gt;Node274 -->
<g id="edge14" class="edge"><title>Node273&#45;&gt;Node274</title>
<path fill="none" stroke="midnightblue" d="M569.906,-223.702C591.219,-250.263 631.627,-298.257 652,-307 739.1,-344.379 855.357,-314.397 906.931,-297.528"/>
<polygon fill="midnightblue" stroke="midnightblue" points="572.43,-221.253 563.467,-215.604 566.951,-225.61 572.43,-221.253"/>
</g>
<!-- Node275 -->
<g id="node15" class="node"><title>Node275</title>
<g id="a_node15"><a xlink:href="class_altair.html#ab913abfdd0c6fbbceb9a051a4443d5fa" target="_top" xlink:title="Supprimer un onglet central. ">
<polygon fill="white" stroke="black" points="691,-278.5 691,-297.5 789,-297.5 789,-278.5 691,-278.5"/>
<text text-anchor="middle" x="740" y="-285.5" font-family="Helvetica,sans-Serif" font-size="10.00">Altair::deleteGroup</text>
</a>
</g>
</g>
<!-- Node273&#45;&gt;Node275 -->
<g id="edge15" class="edge"><title>Node273&#45;&gt;Node275</title>
<path fill="none" stroke="midnightblue" d="M575.596,-221.982C594.183,-236.354 623.443,-256.997 652,-269 664.115,-274.092 677.776,-277.897 690.621,-280.709"/>
<polygon fill="midnightblue" stroke="midnightblue" points="577.632,-219.13 567.613,-215.685 573.296,-224.626 577.632,-219.13"/>
</g>
<!-- Node276 -->
<g id="node16" class="node"><title>Node276</title>
<g id="a_node16"><a xlink:href="class_altair.html#a1afa285a65e0bdff4c761ad05ec9f8df" target="_top" xlink:title="Fonction réimplémentée : fin du déplacement de la souris. ">
<polygon fill="white" stroke="black" points="695.5,-240.5 695.5,-259.5 784.5,-259.5 784.5,-240.5 695.5,-240.5"/>
<text text-anchor="middle" x="740" y="-247.5" font-family="Helvetica,sans-Serif" font-size="10.00">Altair::dropEvent</text>
</a>
</g>
</g>
<!-- Node273&#45;&gt;Node276 -->
<g id="edge17" class="edge"><title>Node273&#45;&gt;Node276</title>
<path fill="none" stroke="midnightblue" d="M601.596,-218.269C617.51,-222.447 635.512,-227.054 652,-231 665.983,-234.346 681.288,-237.769 695.11,-240.77"/>
<polygon fill="midnightblue" stroke="midnightblue" points="602.038,-214.767 591.476,-215.598 600.252,-221.535 602.038,-214.767"/>
</g>
<!-- Node277 -->
<g id="node17" class="node"><title>Node277</title>
<g id="a_node17"><a xlink:href="class_altair.html#a299584936cc20c9a1451977264eba1f5" target="_top" xlink:title="Ecrase un item d&#39;un onglet donné ">
<polygon fill="white" stroke="black" points="686.5,-191 686.5,-221 793.5,-221 793.5,-191 686.5,-191"/>
<text text-anchor="start" x="694.5" y="-209" font-family="Helvetica,sans-Serif" font-size="10.00">Altair::on_deleteItem</text>
<text text-anchor="middle" x="740" y="-198" font-family="Helvetica,sans-Serif" font-size="10.00">_clicked</text>
</a>
</g>
</g>
<!-- Node273&#45;&gt;Node277 -->
<g id="edge18" class="edge"><title>Node273&#45;&gt;Node277</title>
<path fill="none" stroke="midnightblue" d="M618.245,-206C640.366,-206 665.037,-206 686.284,-206"/>
<polygon fill="midnightblue" stroke="midnightblue" points="617.951,-202.5 607.951,-206 617.951,-209.5 617.951,-202.5"/>
</g>
<!-- Node278 -->
<g id="node18" class="node"><title>Node278</title>
<g id="a_node18"><a xlink:href="classoptions.html#a52a9fb1d5bdb6ed104e700390b8c0208" target="_top" xlink:title="options::options">
<polygon fill="white" stroke="black" points="697,-152.5 697,-171.5 783,-171.5 783,-152.5 697,-152.5"/>
<text text-anchor="middle" x="740" y="-159.5" font-family="Helvetica,sans-Serif" font-size="10.00">options::options</text>
</a>
</g>
</g>
<!-- Node273&#45;&gt;Node278 -->
<g id="edge20" class="edge"><title>Node273&#45;&gt;Node278</title>
<path fill="none" stroke="midnightblue" d="M601.596,-193.731C617.51,-189.553 635.512,-184.946 652,-181 666.585,-177.51 682.607,-173.937 696.885,-170.845"/>
<polygon fill="midnightblue" stroke="midnightblue" points="600.252,-190.465 591.476,-196.402 602.038,-197.233 600.252,-190.465"/>
</g>
<!-- Node279 -->
<g id="node19" class="node"><title>Node279</title>
<g id="a_node19"><a xlink:href="class_altair.html#aab5da600c227ac7eb604fa24a9308d26" target="_top" xlink:title="Enregistre le projet .alt en actualisant projectName et l&#39;état de l&#39;interface &#160;. ">
<polygon fill="white" stroke="black" points="674.5,-114.5 674.5,-133.5 805.5,-133.5 805.5,-114.5 674.5,-114.5"/>
<text text-anchor="middle" x="740" y="-121.5" font-family="Helvetica,sans-Serif" font-size="10.00">Altair::requestSaveProject</text>
</a>
</g>
</g>
<!-- Node273&#45;&gt;Node279 -->
<g id="edge21" class="edge"><title>Node273&#45;&gt;Node279</title>
<path fill="none" stroke="midnightblue" d="M575.596,-190.018C594.183,-175.646 623.443,-155.003 652,-143 661.122,-139.166 671.12,-136.062 680.986,-133.562"/>
<polygon fill="midnightblue" stroke="midnightblue" points="573.296,-187.374 567.613,-196.315 577.632,-192.87 573.296,-187.374"/>
</g>
<!-- Node280 -->
<g id="node20" class="node"><title>Node280</title>
<g id="a_node20"><a xlink:href="class_altair.html#a7d10f8ecf4097577885172afb6c2e9c6" target="_top" xlink:title="Lance l&#39;exécution de l&#39;application en ligne de commande lhx. ">
<polygon fill="white" stroke="black" points="1069.5,-38.5 1069.5,-57.5 1128.5,-57.5 1128.5,-38.5 1069.5,-38.5"/>
<text text-anchor="middle" x="1099" y="-45.5" font-family="Helvetica,sans-Serif" font-size="10.00">Altair::run</text>
</a>
</g>
</g>
<!-- Node273&#45;&gt;Node280 -->
<g id="edge22" class="edge"><title>Node273&#45;&gt;Node280</title>
<path fill="none" stroke="midnightblue" d="M567.418,-187.738C583.24,-164.19 614.199,-124.011 652,-105 722.598,-69.4935 926.698,-72.6606 1005,-62 1026.52,-59.0705 1050.78,-55.4061 1069.13,-52.5612"/>
<polygon fill="midnightblue" stroke="midnightblue" points="564.285,-186.135 561.762,-196.425 570.151,-189.955 564.285,-186.135"/>
</g>
<!-- Node281 -->
<g id="node21" class="node"><title>Node281</title>
<g id="a_node21"><a xlink:href="class_altair.html#a08b5e402c9a694af09110afe33219080" target="_top" xlink:title="Construction de la ligne de commande pour des bases de paye dans un répertoire donné ...">
<polygon fill="white" stroke="black" points="695,-38.5 695,-57.5 785,-57.5 785,-38.5 695,-38.5"/>
<text text-anchor="middle" x="740" y="-45.5" font-family="Helvetica,sans-Serif" font-size="10.00">Altair::runWorker</text>
</a>
</g>
</g>
<!-- Node273&#45;&gt;Node281 -->
<g id="edge23" class="edge"><title>Node273&#45;&gt;Node281</title>
<path fill="none" stroke="midnightblue" d="M564.402,-187.017C578.322,-157.794 608.96,-102.027 652,-72 664.593,-63.2143 680.294,-57.6381 694.878,-54.1016"/>
<polygon fill="midnightblue" stroke="midnightblue" points="561.195,-185.615 560.183,-196.161 567.551,-188.547 561.195,-185.615"/>
</g>
<!-- Node275&#45;&gt;Node274 -->
<g id="edge16" class="edge"><title>Node275&#45;&gt;Node274</title>
<path fill="none" stroke="midnightblue" d="M799.094,-288C832.175,-288 872.432,-288 900.215,-288"/>
<polygon fill="midnightblue" stroke="midnightblue" points="799.079,-284.5 789.079,-288 799.079,-291.5 799.079,-284.5"/>
</g>
<!-- Node277&#45;&gt;Node274 -->
<g id="edge19" class="edge"><title>Node277&#45;&gt;Node274</title>
<path fill="none" stroke="midnightblue" d="M803.388,-222.155C811.759,-224.836 820.157,-227.798 828,-231 861.537,-244.691 898.223,-266.103 918.284,-278.416"/>
<polygon fill="midnightblue" stroke="midnightblue" points="804.196,-218.742 793.609,-219.139 802.133,-225.431 804.196,-218.742"/>
</g>
<!-- Node281&#45;&gt;Node280 -->
<g id="edge24" class="edge"><title>Node281&#45;&gt;Node280</title>
<path fill="none" stroke="midnightblue" d="M795.571,-48C872.494,-48 1010.04,-48 1069.42,-48"/>
<polygon fill="midnightblue" stroke="midnightblue" points="795.133,-44.5001 785.133,-48 795.133,-51.5001 795.133,-44.5001"/>
</g>
<!-- Node282 -->
<g id="node22" class="node"><title>Node282</title>
<g id="a_node22"><a xlink:href="class_altair.html#ae04f2a5771d47bbe2e0cc3a11b72d6bf" target="_top" xlink:title="Parcourt le répertoire en cours du mode distributif, un à chaque appel Exporte l&#39;identification dans ...">
<polygon fill="white" stroke="black" points="866,-0.5 866,-19.5 1003,-19.5 1003,-0.5 866,-0.5"/>
<text text-anchor="middle" x="934.5" y="-7.5" font-family="Helvetica,sans-Serif" font-size="10.00">Altair::runWorkerDistributed</text>
</a>
</g>
</g>
<!-- Node281&#45;&gt;Node282 -->
<g id="edge25" class="edge"><title>Node281&#45;&gt;Node282</title>
<path fill="none" stroke="midnightblue" d="M795.281,-37.2849C823.544,-31.7057 857.811,-24.9413 885.154,-19.5436"/>
<polygon fill="midnightblue" stroke="midnightblue" points="794.296,-33.9116 785.163,-39.282 795.652,-40.779 794.296,-33.9116"/>
</g>
<!-- Node282&#45;&gt;Node280 -->
<g id="edge27" class="edge"><title>Node282&#45;&gt;Node280</title>
<path fill="none" stroke="midnightblue" d="M986.307,-21.8811C1013.65,-28.2745 1046.36,-35.9253 1069.3,-41.2884"/>
<polygon fill="midnightblue" stroke="midnightblue" points="987.04,-18.4581 976.506,-19.589 985.446,-25.2742 987.04,-18.4581"/>
</g>
<!-- Node283 -->
<g id="node23" class="node"><title>Node283</title>
<g id="a_node23"><a xlink:href="class_altair.html#a16b8035c4383a789cd00b687fb105fe9" target="_top" xlink:title="Traitement de la fin de l&#39;exécution de lhx. ">
<polygon fill="white" stroke="black" points="1041,-0.5 1041,-19.5 1157,-19.5 1157,-0.5 1041,-0.5"/>
<text text-anchor="middle" x="1099" y="-7.5" font-family="Helvetica,sans-Serif" font-size="10.00">Altair::processFinished</text>
</a>
</g>
</g>
<!-- Node282&#45;&gt;Node283 -->
<g id="edge26" class="edge"><title>Node282&#45;&gt;Node283</title>
<path fill="none" stroke="midnightblue" d="M1013.08,-10C1022.41,-10 1031.81,-10 1040.78,-10"/>
<polygon fill="midnightblue" stroke="midnightblue" points="1013,-6.5001 1003,-10 1013,-13.5001 1013,-6.5001"/>
</g>
</g>
</svg>
