<?xml version="1.0" encoding="UTF-8" standalone="no"?>
<!DOCTYPE svg PUBLIC "-//W3C//DTD SVG 1.1//EN"
 "http://www.w3.org/Graphics/SVG/1.1/DTD/svg11.dtd">
<!-- Generated by graphviz version 2.38.0 (20140413.2041)
 -->
<!-- Title: tools::openDir Pages: 1 -->
<svg width="260pt" height="104pt"
 viewBox="0.00 0.00 260.00 104.00" xmlns="http://www.w3.org/2000/svg" xmlns:xlink="http://www.w3.org/1999/xlink">
<g id="graph0" class="graph" transform="scale(1 1) rotate(0) translate(4 100)">
<title>tools::openDir</title>
<polygon fill="white" stroke="none" points="-4,4 -4,-100 256,-100 256,4 -4,4"/>
<!-- Node124 -->
<g id="node1" class="node"><title>Node124</title>
<polygon fill="#bfbfbf" stroke="black" points="0,-38.5 0,-57.5 77,-57.5 77,-38.5 0,-38.5"/>
<text text-anchor="middle" x="38.5" y="-45.5" font-family="Helvetica,sans-Serif" font-size="10.00">tools::openDir</text>
</g>
<!-- Node125 -->
<g id="node2" class="node"><title>Node125</title>
<g id="a_node2"><a xlink:href="class_main_window.html#a62cd8712fb41a754298f6f60eead2cb0" target="_top" xlink:title="Crée les actions correspondant aux entrées des menus et barre d&#39;outils. ">
<polygon fill="white" stroke="black" points="113,-76.5 113,-95.5 252,-95.5 252,-76.5 113,-76.5"/>
<text text-anchor="middle" x="182.5" y="-83.5" font-family="Helvetica,sans-Serif" font-size="10.00">MainWindow::createActions</text>
</a>
</g>
</g>
<!-- Node124&#45;&gt;Node125 -->
<g id="edge1" class="edge"><title>Node124&#45;&gt;Node125</title>
<path fill="none" stroke="midnightblue" d="M84.9929,-60.1742C104.628,-65.4287 127.266,-71.4866 145.679,-76.4141"/>
<polygon fill="midnightblue" stroke="midnightblue" points="85.8975,-56.7931 75.3326,-57.589 84.0879,-63.5552 85.8975,-56.7931"/>
</g>
<!-- Node126 -->
<g id="node3" class="node"><title>Node126</title>
<g id="a_node3"><a xlink:href="class_f_line_frame.html#aa9a7fa64c39944439b905d70fd740e3b" target="_top" xlink:title="FLineFrame::FLineFrame">
<polygon fill="white" stroke="black" points="119.5,-38.5 119.5,-57.5 245.5,-57.5 245.5,-38.5 119.5,-38.5"/>
<text text-anchor="middle" x="182.5" y="-45.5" font-family="Helvetica,sans-Serif" font-size="10.00">FLineFrame::FLineFrame</text>
</a>
</g>
</g>
<!-- Node124&#45;&gt;Node126 -->
<g id="edge2" class="edge"><title>Node124&#45;&gt;Node126</title>
<path fill="none" stroke="midnightblue" d="M87.2396,-48C97.5833,-48 108.667,-48 119.47,-48"/>
<polygon fill="midnightblue" stroke="midnightblue" points="87.1806,-44.5001 77.1806,-48 87.1805,-51.5001 87.1806,-44.5001"/>
</g>
<!-- Node127 -->
<g id="node4" class="node"><title>Node127</title>
<g id="a_node4"><a xlink:href="classtools.html#ac5f7b9c2e07af5dbb27169b256ac6300" target="_top" xlink:title="tools::readFile">
<polygon fill="white" stroke="black" points="143.5,-0.5 143.5,-19.5 221.5,-19.5 221.5,-0.5 143.5,-0.5"/>
<text text-anchor="middle" x="182.5" y="-7.5" font-family="Helvetica,sans-Serif" font-size="10.00">tools::readFile</text>
</a>
</g>
</g>
<!-- Node124&#45;&gt;Node127 -->
<g id="edge3" class="edge"><title>Node124&#45;&gt;Node127</title>
<path fill="none" stroke="midnightblue" d="M84.9929,-35.8258C104.628,-30.5713 127.266,-24.5134 145.679,-19.5859"/>
<polygon fill="midnightblue" stroke="midnightblue" points="84.0879,-32.4448 75.3326,-38.411 85.8975,-39.2069 84.0879,-32.4448"/>
</g>
</g>
</svg>
