<?xml version="1.0" encoding="UTF-8" standalone="no"?>
<!DOCTYPE svg PUBLIC "-//W3C//DTD SVG 1.1//EN"
 "http://www.w3.org/Graphics/SVG/1.1/DTD/svg11.dtd">
<!-- Generated by graphviz version 2.38.0 (20140413.2041)
 -->
<!-- Title: FListFrame::clearTabLabels Pages: 1 -->
<svg width="828pt" height="94pt"
 viewBox="0.00 0.00 828.00 94.00" xmlns="http://www.w3.org/2000/svg" xmlns:xlink="http://www.w3.org/1999/xlink">
<g id="graph0" class="graph" transform="scale(1 1) rotate(0) translate(4 90)">
<title>FListFrame::clearTabLabels</title>
<polygon fill="white" stroke="none" points="-4,4 -4,-90 824,-90 824,4 -4,4"/>
<!-- Node73 -->
<g id="node1" class="node"><title>Node73</title>
<polygon fill="#bfbfbf" stroke="black" points="0,-22.5 0,-41.5 138,-41.5 138,-22.5 0,-22.5"/>
<text text-anchor="middle" x="69" y="-29.5" font-family="Helvetica,sans-Serif" font-size="10.00">FListFrame::clearTabLabels</text>
</g>
<!-- Node74 -->
<g id="node2" class="node"><title>Node74</title>
<g id="a_node2"><a xlink:href="class_f_list_frame.html#af8c91e66c02e4c6f1f0fb66097903b73" target="_top" xlink:title="FListFrame::addStringList\lToListWidget">
<polygon fill="white" stroke="black" points="180,-39 180,-69 309,-69 309,-39 180,-39"/>
<text text-anchor="start" x="188" y="-57" font-family="Helvetica,sans-Serif" font-size="10.00">FListFrame::addStringList</text>
<text text-anchor="middle" x="244.5" y="-46" font-family="Helvetica,sans-Serif" font-size="10.00">ToListWidget</text>
</a>
</g>
</g>
<!-- Node73&#45;&gt;Node74 -->
<g id="edge1" class="edge"><title>Node73&#45;&gt;Node74</title>
<path fill="none" stroke="midnightblue" d="M148.17,-41.9121C158.778,-43.2572 169.559,-44.6242 179.87,-45.9316"/>
<polygon fill="midnightblue" stroke="midnightblue" points="148.435,-38.4177 138.074,-40.6318 147.554,-45.3621 148.435,-38.4177"/>
</g>
<!-- Node79 -->
<g id="node7" class="node"><title>Node79</title>
<g id="a_node7"><a xlink:href="class_f_list_frame.html#a8859291101ef64727925cbe283bb86d6" target="_top" xlink:title="Efface tous les onglets et, selon la valeur des paramètres, insère un onglet vierge (ou pas) et effac...">
<polygon fill="white" stroke="black" points="174,-0.5 174,-19.5 315,-19.5 315,-0.5 174,-0.5"/>
<text text-anchor="middle" x="244.5" y="-7.5" font-family="Helvetica,sans-Serif" font-size="10.00">FListFrame::deleteAllGroups</text>
</a>
</g>
</g>
<!-- Node73&#45;&gt;Node79 -->
<g id="edge6" class="edge"><title>Node73&#45;&gt;Node79</title>
<path fill="none" stroke="midnightblue" d="M148.1,-22.0968C156.704,-21.0059 165.422,-19.9004 173.911,-18.824"/>
<polygon fill="midnightblue" stroke="midnightblue" points="147.554,-18.6379 138.074,-23.3682 148.435,-25.5823 147.554,-18.6379"/>
</g>
<!-- Node75 -->
<g id="node3" class="node"><title>Node75</title>
<g id="a_node3"><a xlink:href="class_f_list_frame.html#a4228ed10f2d800b92ff34e2f25edcd8c" target="_top" xlink:title="FListFrame::addParsedTree\lToListWidget">
<polygon fill="white" stroke="black" points="351,-39 351,-69 489,-69 489,-39 351,-39"/>
<text text-anchor="start" x="359" y="-57" font-family="Helvetica,sans-Serif" font-size="10.00">FListFrame::addParsedTree</text>
<text text-anchor="middle" x="420" y="-46" font-family="Helvetica,sans-Serif" font-size="10.00">ToListWidget</text>
</a>
</g>
</g>
<!-- Node74&#45;&gt;Node75 -->
<g id="edge2" class="edge"><title>Node74&#45;&gt;Node75</title>
<path fill="none" stroke="midnightblue" d="M319.404,-54C329.795,-54 340.437,-54 350.716,-54"/>
<polygon fill="midnightblue" stroke="midnightblue" points="319.12,-50.5001 309.12,-54 319.12,-57.5001 319.12,-50.5001"/>
</g>
<!-- Node76 -->
<g id="node4" class="node"><title>Node76</title>
<g id="a_node4"><a xlink:href="class_altair.html#a1afa285a65e0bdff4c761ad05ec9f8df" target="_top" xlink:title="Fonction réimplémentée : fin du déplacement de la souris. ">
<polygon fill="white" stroke="black" points="549,-66.5 549,-85.5 638,-85.5 638,-66.5 549,-66.5"/>
<text text-anchor="middle" x="593.5" y="-73.5" font-family="Helvetica,sans-Serif" font-size="10.00">Altair::dropEvent</text>
</a>
</g>
</g>
<!-- Node75&#45;&gt;Node76 -->
<g id="edge3" class="edge"><title>Node75&#45;&gt;Node76</title>
<path fill="none" stroke="midnightblue" d="M499.246,-64.0374C516.296,-66.2245 533.744,-68.4628 548.867,-70.4028"/>
<polygon fill="midnightblue" stroke="midnightblue" points="499.638,-60.5591 489.274,-62.7582 498.747,-67.5022 499.638,-60.5591"/>
</g>
<!-- Node77 -->
<g id="node5" class="node"><title>Node77</title>
<g id="a_node5"><a xlink:href="class_f_list_frame.html#ac14c494842340a0438766256c01f83bc" target="_top" xlink:title="FListFrame::on_importFrom\lMainTree_clicked">
<polygon fill="white" stroke="black" points="525,-17 525,-47 662,-47 662,-17 525,-17"/>
<text text-anchor="start" x="533" y="-35" font-family="Helvetica,sans-Serif" font-size="10.00">FListFrame::on_importFrom</text>
<text text-anchor="middle" x="593.5" y="-24" font-family="Helvetica,sans-Serif" font-size="10.00">MainTree_clicked</text>
</a>
</g>
</g>
<!-- Node75&#45;&gt;Node77 -->
<g id="edge4" class="edge"><title>Node75&#45;&gt;Node77</title>
<path fill="none" stroke="midnightblue" d="M499.213,-43.9669C507.735,-42.8736 516.358,-41.7675 524.741,-40.6921"/>
<polygon fill="midnightblue" stroke="midnightblue" points="498.747,-40.4978 489.274,-45.2418 499.638,-47.4409 498.747,-40.4978"/>
</g>
<!-- Node78 -->
<g id="node6" class="node"><title>Node78</title>
<g id="a_node6"><a xlink:href="class_f_list_frame.html#a865246df8a4d4000ac3c818abc6d7f71" target="_top" xlink:title="FListFrame::FListFrame">
<polygon fill="white" stroke="black" points="698,-22.5 698,-41.5 820,-41.5 820,-22.5 698,-22.5"/>
<text text-anchor="middle" x="759" y="-29.5" font-family="Helvetica,sans-Serif" font-size="10.00">FListFrame::FListFrame</text>
</a>
</g>
</g>
<!-- Node77&#45;&gt;Node78 -->
<g id="edge5" class="edge"><title>Node77&#45;&gt;Node78</title>
<path fill="none" stroke="midnightblue" d="M672.688,-32C681.148,-32 689.658,-32 697.857,-32"/>
<polygon fill="midnightblue" stroke="midnightblue" points="672.418,-28.5001 662.418,-32 672.418,-35.5001 672.418,-28.5001"/>
</g>
</g>
</svg>
