<?xml version="1.0" encoding="UTF-8" standalone="no"?>
<!DOCTYPE svg PUBLIC "-//W3C//DTD SVG 1.1//EN"
 "http://www.w3.org/Graphics/SVG/1.1/DTD/svg11.dtd">
<!-- Generated by graphviz version 2.38.0 (20140413.2041)
 -->
<!-- Title: common::common Pages: 1 -->
<svg width="435pt" height="129pt"
 viewBox="0.00 0.00 435.00 129.00" xmlns="http://www.w3.org/2000/svg" xmlns:xlink="http://www.w3.org/1999/xlink">
<g id="graph0" class="graph" transform="scale(1 1) rotate(0) translate(4 125)">
<title>common::common</title>
<polygon fill="white" stroke="none" points="-4,4 -4,-125 431,-125 431,4 -4,4"/>
<!-- Node0 -->
<g id="node1" class="node"><title>Node0</title>
<polygon fill="#bfbfbf" stroke="black" points="0,-38.5 0,-57.5 101,-57.5 101,-38.5 0,-38.5"/>
<text text-anchor="middle" x="50.5" y="-45.5" font-family="Helvetica,sans-Serif" font-size="10.00">common::common</text>
</g>
<!-- Node1 -->
<g id="node2" class="node"><title>Node1</title>
<g id="a_node2"><a xlink:href="classcommon.html#a3149ba29e04e6e5f7f85a2894434bf9e" target="_top" xlink:title="Exporter les caractéristiques du contrôle dans le rapport : Siret, Budget, Employeur, Etablissement. ">
<polygon fill="white" stroke="black" points="137,-77 137,-107 303,-107 303,-77 137,-77"/>
<text text-anchor="start" x="145" y="-95" font-family="Helvetica,sans-Serif" font-size="10.00">common::exporter_identification</text>
<text text-anchor="middle" x="220" y="-84" font-family="Helvetica,sans-Serif" font-size="10.00">_controle</text>
</a>
</g>
</g>
<!-- Node0&#45;&gt;Node1 -->
<g id="edge1" class="edge"><title>Node0&#45;&gt;Node1</title>
<path fill="none" stroke="midnightblue" d="M87.845,-57.5473C106.535,-62.457 129.922,-68.6004 151.751,-74.3347"/>
<polygon fill="midnightblue" stroke="midnightblue" points="151.088,-77.779 161.649,-76.9346 152.866,-71.0087 151.088,-77.779"/>
</g>
<!-- Node4 -->
<g id="node5" class="node"><title>Node4</title>
<g id="a_node5"><a xlink:href="classtools.html#acba8057b8c8527f6a2df7a372e944abb" target="_top" xlink:title="Crée le chemin vers le dossier local de paramétrage. ">
<polygon fill="white" stroke="black" points="148.5,-38.5 148.5,-57.5 291.5,-57.5 291.5,-38.5 148.5,-38.5"/>
<text text-anchor="middle" x="220" y="-45.5" font-family="Helvetica,sans-Serif" font-size="10.00">tools::generateDatadirPath</text>
</a>
</g>
</g>
<!-- Node0&#45;&gt;Node4 -->
<g id="edge4" class="edge"><title>Node0&#45;&gt;Node4</title>
<path fill="none" stroke="midnightblue" d="M101.302,-48C112.944,-48 125.64,-48 138.245,-48"/>
<polygon fill="midnightblue" stroke="midnightblue" points="138.313,-51.5001 148.313,-48 138.313,-44.5001 138.313,-51.5001"/>
</g>
<!-- Node5 -->
<g id="node6" class="node"><title>Node5</title>
<g id="a_node6"><a xlink:href="classtools.html#a89d2cd8ffcaed8423439c16d1ee59ab0" target="_top" xlink:title="Renvoie le chemin d&#39;un fichier ou d&#39;un répertoire du répertoire racine de la distribution (adjacent a...">
<polygon fill="white" stroke="black" points="168,-0.5 168,-19.5 272,-19.5 272,-0.5 168,-0.5"/>
<text text-anchor="middle" x="220" y="-7.5" font-family="Helvetica,sans-Serif" font-size="10.00">tools::path_access</text>
</a>
</g>
</g>
<!-- Node0&#45;&gt;Node5 -->
<g id="edge5" class="edge"><title>Node0&#45;&gt;Node5</title>
<path fill="none" stroke="midnightblue" d="M93.7673,-38.411C116.07,-33.3513 143.623,-27.1004 167.202,-21.7512"/>
<polygon fill="midnightblue" stroke="midnightblue" points="168.059,-25.1458 177.037,-19.5201 166.51,-18.3193 168.059,-25.1458"/>
</g>
<!-- Node2 -->
<g id="node3" class="node"><title>Node2</title>
<g id="a_node3"><a xlink:href="class_hash.html#a9c6832c663082e153e74bf3fb0c5720a" target="_top" xlink:title="Hash::aplatir">
<polygon fill="white" stroke="black" points="345.5,-101.5 345.5,-120.5 420.5,-120.5 420.5,-101.5 345.5,-101.5"/>
<text text-anchor="middle" x="383" y="-108.5" font-family="Helvetica,sans-Serif" font-size="10.00">Hash::aplatir</text>
</a>
</g>
</g>
<!-- Node1&#45;&gt;Node2 -->
<g id="edge2" class="edge"><title>Node1&#45;&gt;Node2</title>
<path fill="none" stroke="midnightblue" d="M303.387,-101.723C314.296,-103.01 325.16,-104.292 335.175,-105.474"/>
<polygon fill="midnightblue" stroke="midnightblue" points="334.93,-108.969 345.271,-106.666 335.751,-102.018 334.93,-108.969"/>
</g>
<!-- Node3 -->
<g id="node4" class="node"><title>Node3</title>
<g id="a_node4"><a xlink:href="classtools.html#a7cba03deaa6e1311c2d0e5fb9fdcfa5c" target="_top" xlink:title="Remplace des chaînes de caractères, lorsqu&#39;elles correspondent à une expression rationnelle, dans une chaîne de caractères donnée par une chaîne de caractères donnée. ">
<polygon fill="white" stroke="black" points="339,-63.5 339,-82.5 427,-82.5 427,-63.5 339,-63.5"/>
<text text-anchor="middle" x="383" y="-70.5" font-family="Helvetica,sans-Serif" font-size="10.00">tools::substituer</text>
</a>
</g>
</g>
<!-- Node1&#45;&gt;Node3 -->
<g id="edge3" class="edge"><title>Node1&#45;&gt;Node3</title>
<path fill="none" stroke="midnightblue" d="M303.387,-82.2774C311.981,-81.2631 320.548,-80.2521 328.693,-79.2909"/>
<polygon fill="midnightblue" stroke="midnightblue" points="329.235,-82.7513 338.756,-78.1034 328.414,-75.7996 329.235,-82.7513"/>
</g>
</g>
</svg>
