<?xml version="1.0" encoding="UTF-8" standalone="no"?>
<!DOCTYPE svg PUBLIC "-//W3C//DTD SVG 1.1//EN"
 "http://www.w3.org/Graphics/SVG/1.1/DTD/svg11.dtd">
<!-- Generated by graphviz version 2.38.0 (20140413.2041)
 -->
<!-- Title: standardPage Pages: 1 -->
<!--zoomable 801 -->
<svg id="main" version="1.1" xmlns="http://www.w3.org/2000/svg" xmlns:xlink="http://www.w3.org/1999/xlink" xml:space="preserve" onload="init(evt)">
<style type="text/css"><![CDATA[
.edge:hover path { stroke: red; }
.edge:hover polygon { stroke: red; fill: red; }
]]></style>
<script type="text/javascript"><![CDATA[
var edges = document.getElementsByTagName('g');
if (edges && edges.length) {
  for (var i=0;i<edges.length;i++) {
    if (edges[i].id.substr(0,4)=='edge') {
      edges[i].setAttribute('class','edge');
    }
  }
}
]]></script>
        <defs>
                <circle id="rim" cx="0" cy="0" r="7"/>
                <circle id="rim2" cx="0" cy="0" r="3.5"/>
                <g id="zoomPlus">
                        <use xlink:href="#rim" fill="#404040">
                                <set attributeName="fill" to="#808080" begin="zoomplus.mouseover" end="zoomplus.mouseout"/>
                        </use>
                        <path d="M-4,0h8M0,-4v8" fill="none" stroke="white" stroke-width="1.5" pointer-events="none"/>
                </g>
                <g id="zoomMin">
                        <use xlink:href="#rim" fill="#404040">
                                <set attributeName="fill" to="#808080" begin="zoomminus.mouseover" end="zoomminus.mouseout"/>
                        </use>
                        <path d="M-4,0h8" fill="none" stroke="white" stroke-width="1.5" pointer-events="none"/>
                </g>
                <g id="dirArrow">
                        <path fill="none" stroke="white" stroke-width="1.5" d="M0,-3.0v7 M-2.5,-0.5L0,-3.0L2.5,-0.5"/>
                </g>
               <g id="resetDef">
                       <use xlink:href="#rim2" fill="#404040">
                               <set attributeName="fill" to="#808080" begin="reset.mouseover" end="reset.mouseout"/>
                       </use>
               </g>
        </defs>

<script type="text/javascript">
var viewWidth = 777;
var viewHeight = 801;
var sectionId = 'dynsection-1';
</script>
<script xlink:href="svgpan.js"/>
<svg id="graph" class="graph">
<g id="viewport">
<title>standardPage</title>
<polygon fill="white" stroke="none" points="-4,4 -4,-797 773,-797 773,4 -4,4"/>
<!-- Node5 -->
<g id="node1" class="node"><title>Node5</title>
<polygon fill="#bfbfbf" stroke="black" points="171.5,-0.5 171.5,-101.5 280.5,-101.5 280.5,-0.5 171.5,-0.5"/>
<text text-anchor="middle" x="226" y="-89.5" font-family="Helvetica,sans-Serif" font-size="10.00">standardPage</text>
<polyline fill="none" stroke="black" points="171.5,-82.5 280.5,-82.5 "/>
<text text-anchor="start" x="179.5" y="-70.5" font-family="Helvetica,sans-Serif" font-size="10.00">&#45; baseTypeBox</text>
<text text-anchor="start" x="179.5" y="-59.5" font-family="Helvetica,sans-Serif" font-size="10.00">&#45; maxNLigneLabel</text>
<polyline fill="none" stroke="black" points="171.5,-52.5 280.5,-52.5 "/>
<text text-anchor="start" x="179.5" y="-40.5" font-family="Helvetica,sans-Serif" font-size="10.00">+ standardPage()</text>
<text text-anchor="start" x="179.5" y="-29.5" font-family="Helvetica,sans-Serif" font-size="10.00">+ standardPage()</text>
<text text-anchor="start" x="179.5" y="-18.5" font-family="Helvetica,sans-Serif" font-size="10.00">&#45; substituer_versant()</text>
<text text-anchor="start" x="179.5" y="-7.5" font-family="Helvetica,sans-Serif" font-size="10.00">&#45; substituer_versant()</text>
</g>
<!-- Node6 -->
<g id="node2" class="node"><title>Node6</title>
<polygon fill="white" stroke="#bfbfbf" points="0,-248.5 0,-305.5 52,-305.5 52,-248.5 0,-248.5"/>
<text text-anchor="middle" x="26" y="-293.5" font-family="Helvetica,sans-Serif" font-size="10.00">QDialog</text>
<polyline fill="none" stroke="#bfbfbf" points="0,-286.5 52,-286.5 "/>
<text text-anchor="middle" x="26" y="-274.5" font-family="Helvetica,sans-Serif" font-size="10.00"> </text>
<polyline fill="none" stroke="#bfbfbf" points="0,-267.5 52,-267.5 "/>
<text text-anchor="middle" x="26" y="-255.5" font-family="Helvetica,sans-Serif" font-size="10.00"> </text>
</g>
<!-- Node6&#45;&gt;Node5 -->
<g id="edge1" class="edge"><title>Node6&#45;&gt;Node5</title>
<path fill="none" stroke="midnightblue" d="M19.5656,-238.244C19.9496,-203.69 28.5931,-153.052 57,-120 85.7227,-86.5808 133.725,-69.1629 171.343,-60.3647"/>
<polygon fill="none" stroke="midnightblue" points="16.068,-238.461 19.6988,-248.415 23.0674,-238.37 16.068,-238.461"/>
</g>
<!-- Node6&#45;&gt;Node5 -->
<g id="edge5" class="edge"><title>Node6&#45;&gt;Node5</title>
<path fill="none" stroke="midnightblue" d="M33.5022,-238.244C37.9496,-203.69 46.5931,-153.052 75,-120 99.7881,-91.1588 138.935,-74.2352 171.229,-64.4846"/>
<polygon fill="none" stroke="midnightblue" points="29.9984,-238.06 32.2395,-248.415 36.945,-238.922 29.9984,-238.06"/>
</g>
<!-- Node7 -->
<g id="node3" class="node"><title>Node7</title>
<g id="a_node3"><a xlink:href="classcommon.html" target="_top" xlink:title="Classe dérivée de la classe tools ajoutant des fonctionnalités de communication de l&#39;interface vers l...">
<polygon fill="white" stroke="black" points="108.5,-204.5 108.5,-349.5 229.5,-349.5 229.5,-204.5 108.5,-204.5"/>
<text text-anchor="middle" x="169" y="-337.5" font-family="Helvetica,sans-Serif" font-size="10.00">common</text>
<polyline fill="none" stroke="black" points="108.5,-330.5 229.5,-330.5 "/>
<text text-anchor="start" x="116.5" y="-318.5" font-family="Helvetica,sans-Serif" font-size="10.00">+ altairCommandStr</text>
<text text-anchor="start" x="116.5" y="-307.5" font-family="Helvetica,sans-Serif" font-size="10.00">+ execPath</text>
<text text-anchor="start" x="116.5" y="-296.5" font-family="Helvetica,sans-Serif" font-size="10.00">+ RAltairCommandStr</text>
<text text-anchor="start" x="116.5" y="-285.5" font-family="Helvetica,sans-Serif" font-size="10.00">+ RAltairDirStr</text>
<text text-anchor="start" x="116.5" y="-274.5" font-family="Helvetica,sans-Serif" font-size="10.00">+ sharedir</text>
<polyline fill="none" stroke="black" points="108.5,-267.5 229.5,-267.5 "/>
<text text-anchor="start" x="116.5" y="-255.5" font-family="Helvetica,sans-Serif" font-size="10.00">+ common()</text>
<text text-anchor="start" x="116.5" y="-244.5" font-family="Helvetica,sans-Serif" font-size="10.00">+ exporter_identification</text>
<text text-anchor="start" x="116.5" y="-233.5" font-family="Helvetica,sans-Serif" font-size="10.00">_controle()</text>
<text text-anchor="start" x="116.5" y="-222.5" font-family="Helvetica,sans-Serif" font-size="10.00">+ exporter_identification</text>
<text text-anchor="start" x="116.5" y="-211.5" font-family="Helvetica,sans-Serif" font-size="10.00">_controle()</text>
</a>
</g>
</g>
<!-- Node7&#45;&gt;Node5 -->
<g id="edge2" class="edge"><title>Node7&#45;&gt;Node5</title>
<path fill="none" stroke="midnightblue" d="M189.797,-194.272C197.681,-163.288 206.416,-128.962 213.33,-101.791"/>
<polygon fill="none" stroke="midnightblue" points="186.345,-193.646 187.27,-204.201 193.128,-195.373 186.345,-193.646"/>
</g>
<!-- Node8 -->
<g id="node4" class="node"><title>Node8</title>
<g id="a_node4"><a xlink:href="classtools.html" target="_top" xlink:title="{tools\n|+ systemPathPrefix\l+ userdatadir\l|+ tools()\l+ dump()\l+ getEmbeddedPath()\l+ readFile()\l+ readFile()\l+ readFile()\l+ readFile()\l+ renommer()\l+ substituer()\l+ cdRomMounted()\l+ copyDir()\l+ copyFile()\l+ generateDatadirPath()\l+ generateDatadirPath()\l+ getDirectorySize()\l+ getFileSize()\l+ IOControl()\l+ openDir()\l+ openDirDialog()\let 6 de plus...\l}">
<polygon fill="white" stroke="black" points="108.5,-415 108.5,-692 229.5,-692 229.5,-415 108.5,-415"/>
<text text-anchor="middle" x="169" y="-680" font-family="Helvetica,sans-Serif" font-size="10.00">tools</text>
<polyline fill="none" stroke="black" points="108.5,-673 229.5,-673 "/>
<text text-anchor="start" x="116.5" y="-661" font-family="Helvetica,sans-Serif" font-size="10.00">+ systemPathPrefix</text>
<text text-anchor="start" x="116.5" y="-650" font-family="Helvetica,sans-Serif" font-size="10.00">+ userdatadir</text>
<polyline fill="none" stroke="black" points="108.5,-643 229.5,-643 "/>
<text text-anchor="start" x="116.5" y="-631" font-family="Helvetica,sans-Serif" font-size="10.00">+ tools()</text>
<text text-anchor="start" x="116.5" y="-620" font-family="Helvetica,sans-Serif" font-size="10.00">+ dump()</text>
<text text-anchor="start" x="116.5" y="-609" font-family="Helvetica,sans-Serif" font-size="10.00">+ getEmbeddedPath()</text>
<text text-anchor="start" x="116.5" y="-598" font-family="Helvetica,sans-Serif" font-size="10.00">+ readFile()</text>
<text text-anchor="start" x="116.5" y="-587" font-family="Helvetica,sans-Serif" font-size="10.00">+ readFile()</text>
<text text-anchor="start" x="116.5" y="-576" font-family="Helvetica,sans-Serif" font-size="10.00">+ readFile()</text>
<text text-anchor="start" x="116.5" y="-565" font-family="Helvetica,sans-Serif" font-size="10.00">+ readFile()</text>
<text text-anchor="start" x="116.5" y="-554" font-family="Helvetica,sans-Serif" font-size="10.00">+ renommer()</text>
<text text-anchor="start" x="116.5" y="-543" font-family="Helvetica,sans-Serif" font-size="10.00">+ substituer()</text>
<text text-anchor="start" x="116.5" y="-532" font-family="Helvetica,sans-Serif" font-size="10.00">+ cdRomMounted()</text>
<text text-anchor="start" x="116.5" y="-521" font-family="Helvetica,sans-Serif" font-size="10.00">+ copyDir()</text>
<text text-anchor="start" x="116.5" y="-510" font-family="Helvetica,sans-Serif" font-size="10.00">+ copyFile()</text>
<text text-anchor="start" x="116.5" y="-499" font-family="Helvetica,sans-Serif" font-size="10.00">+ generateDatadirPath()</text>
<text text-anchor="start" x="116.5" y="-488" font-family="Helvetica,sans-Serif" font-size="10.00">+ generateDatadirPath()</text>
<text text-anchor="start" x="116.5" y="-477" font-family="Helvetica,sans-Serif" font-size="10.00">+ getDirectorySize()</text>
<text text-anchor="start" x="116.5" y="-466" font-family="Helvetica,sans-Serif" font-size="10.00">+ getFileSize()</text>
<text text-anchor="start" x="116.5" y="-455" font-family="Helvetica,sans-Serif" font-size="10.00">+ IOControl()</text>
<text text-anchor="start" x="116.5" y="-444" font-family="Helvetica,sans-Serif" font-size="10.00">+ openDir()</text>
<text text-anchor="start" x="116.5" y="-433" font-family="Helvetica,sans-Serif" font-size="10.00">+ openDirDialog()</text>
<text text-anchor="start" x="116.5" y="-422" font-family="Helvetica,sans-Serif" font-size="10.00">et 6 de plus...</text>
</a>
</g>
</g>
<!-- Node8&#45;&gt;Node5 -->
<g id="edge6" class="edge"><title>Node8&#45;&gt;Node5</title>
<path fill="none" stroke="midnightblue" d="M105.146,-409.986C82.7013,-339.48 69.574,-254.23 99,-182 113.761,-145.767 144.019,-114.134 171.298,-91.1462"/>
<polygon fill="none" stroke="midnightblue" points="101.933,-411.42 108.371,-419.834 108.585,-409.241 101.933,-411.42"/>
</g>
<!-- Node8&#45;&gt;Node7 -->
<g id="edge3" class="edge"><title>Node8&#45;&gt;Node7</title>
<path fill="none" stroke="midnightblue" d="M169,-404.79C169,-385.588 169,-366.661 169,-349.523"/>
<polygon fill="none" stroke="midnightblue" points="165.5,-404.848 169,-414.848 172.5,-404.848 165.5,-404.848"/>
</g>
<!-- Node9 -->
<g id="node5" class="node"><title>Node9</title>
<g id="a_node5"><a xlink:href="classflags.html" target="_top" xlink:title="{flags\n||}">
<polygon fill="white" stroke="black" points="354,-735.5 354,-792.5 392,-792.5 392,-735.5 354,-735.5"/>
<text text-anchor="middle" x="373" y="-780.5" font-family="Helvetica,sans-Serif" font-size="10.00">flags</text>
<polyline fill="none" stroke="black" points="354,-773.5 392,-773.5 "/>
<text text-anchor="middle" x="373" y="-761.5" font-family="Helvetica,sans-Serif" font-size="10.00"> </text>
<polyline fill="none" stroke="black" points="354,-754.5 392,-754.5 "/>
<text text-anchor="middle" x="373" y="-742.5" font-family="Helvetica,sans-Serif" font-size="10.00"> </text>
</a>
</g>
</g>
<!-- Node9&#45;&gt;Node8 -->
<g id="edge4" class="edge"><title>Node9&#45;&gt;Node8</title>
<path fill="none" stroke="midnightblue" d="M344.442,-751.918C319.214,-741.062 282.563,-722.576 257,-698 247.204,-688.582 238.063,-677.85 229.662,-666.594"/>
<polygon fill="none" stroke="midnightblue" points="343.256,-755.215 353.832,-755.834 345.95,-748.755 343.256,-755.215"/>
</g>
<!-- Node12 -->
<g id="node8" class="node"><title>Node12</title>
<g id="a_node8"><a xlink:href="class_f_abstract_widget.html" target="_top" xlink:title="{FAbstractWidget\n|+ commandLineList\l+ commandLineType\l+ disabledObjects\l+ enabledObjects\l+ optionLabel\l+ status\l# componentList\l# description\l# hashKey\l# widgetDepth\l|+ commandLineStringList()\l+ getComponentList()\l+ getDepth()\l+ getDescription()\l+ getHashKey()\l+ isAbstractDisabled()\l+ isAbstractEnabled()\l+ setDisableObjects()\l+ setHashKey()\l+ setWidgetFromXml()\l+ setXmlFromWidget()\l# FCore()\l# FCore()\l}">
<polygon fill="white" stroke="black" points="434,-409.5 434,-697.5 568,-697.5 568,-409.5 434,-409.5"/>
<text text-anchor="middle" x="501" y="-685.5" font-family="Helvetica,sans-Serif" font-size="10.00">FAbstractWidget</text>
<polyline fill="none" stroke="black" points="434,-678.5 568,-678.5 "/>
<text text-anchor="start" x="442" y="-666.5" font-family="Helvetica,sans-Serif" font-size="10.00">+ commandLineList</text>
<text text-anchor="start" x="442" y="-655.5" font-family="Helvetica,sans-Serif" font-size="10.00">+ commandLineType</text>
<text text-anchor="start" x="442" y="-644.5" font-family="Helvetica,sans-Serif" font-size="10.00">+ disabledObjects</text>
<text text-anchor="start" x="442" y="-633.5" font-family="Helvetica,sans-Serif" font-size="10.00">+ enabledObjects</text>
<text text-anchor="start" x="442" y="-622.5" font-family="Helvetica,sans-Serif" font-size="10.00">+ optionLabel</text>
<text text-anchor="start" x="442" y="-611.5" font-family="Helvetica,sans-Serif" font-size="10.00">+ status</text>
<text text-anchor="start" x="442" y="-600.5" font-family="Helvetica,sans-Serif" font-size="10.00"># componentList</text>
<text text-anchor="start" x="442" y="-589.5" font-family="Helvetica,sans-Serif" font-size="10.00"># description</text>
<text text-anchor="start" x="442" y="-578.5" font-family="Helvetica,sans-Serif" font-size="10.00"># hashKey</text>
<text text-anchor="start" x="442" y="-567.5" font-family="Helvetica,sans-Serif" font-size="10.00"># widgetDepth</text>
<polyline fill="none" stroke="black" points="434,-560.5 568,-560.5 "/>
<text text-anchor="start" x="442" y="-548.5" font-family="Helvetica,sans-Serif" font-size="10.00">+ commandLineStringList()</text>
<text text-anchor="start" x="442" y="-537.5" font-family="Helvetica,sans-Serif" font-size="10.00">+ getComponentList()</text>
<text text-anchor="start" x="442" y="-526.5" font-family="Helvetica,sans-Serif" font-size="10.00">+ getDepth()</text>
<text text-anchor="start" x="442" y="-515.5" font-family="Helvetica,sans-Serif" font-size="10.00">+ getDescription()</text>
<text text-anchor="start" x="442" y="-504.5" font-family="Helvetica,sans-Serif" font-size="10.00">+ getHashKey()</text>
<text text-anchor="start" x="442" y="-493.5" font-family="Helvetica,sans-Serif" font-size="10.00">+ isAbstractDisabled()</text>
<text text-anchor="start" x="442" y="-482.5" font-family="Helvetica,sans-Serif" font-size="10.00">+ isAbstractEnabled()</text>
<text text-anchor="start" x="442" y="-471.5" font-family="Helvetica,sans-Serif" font-size="10.00">+ setDisableObjects()</text>
<text text-anchor="start" x="442" y="-460.5" font-family="Helvetica,sans-Serif" font-size="10.00">+ setHashKey()</text>
<text text-anchor="start" x="442" y="-449.5" font-family="Helvetica,sans-Serif" font-size="10.00">+ setWidgetFromXml()</text>
<text text-anchor="start" x="442" y="-438.5" font-family="Helvetica,sans-Serif" font-size="10.00">+ setXmlFromWidget()</text>
<text text-anchor="start" x="442" y="-427.5" font-family="Helvetica,sans-Serif" font-size="10.00"># FCore()</text>
<text text-anchor="start" x="442" y="-416.5" font-family="Helvetica,sans-Serif" font-size="10.00"># FCore()</text>
</a>
</g>
</g>
<!-- Node9&#45;&gt;Node12 -->
<g id="edge10" class="edge"><title>Node9&#45;&gt;Node12</title>
<path fill="none" stroke="midnightblue" d="M398.508,-732.735C407.03,-722.054 416.308,-709.768 424,-698 427.326,-692.912 430.636,-687.666 433.91,-682.325"/>
<polygon fill="none" stroke="midnightblue" points="395.749,-730.58 392.178,-740.555 401.19,-734.985 395.749,-730.58"/>
</g>
<!-- Node10 -->
<g id="node6" class="node"><title>Node10</title>
<g id="a_node6"><a xlink:href="class_f_combo_box.html" target="_top" xlink:title="{FComboBox\n|+ comboBoxTranslationHash\l|+ FComboBox()\l+ FComboBox()\l+ FComboBox()\l+ FComboBox()\l+ FComboBox()\l+ isAbstractEnabled()\l+ setWidgetFromXml()\l+ setXmlFromWidget()\l&#45; fromCurrentIndex()\l}">
<polygon fill="white" stroke="black" points="352.5,-204.5 352.5,-349.5 495.5,-349.5 495.5,-204.5 352.5,-204.5"/>
<text text-anchor="middle" x="424" y="-337.5" font-family="Helvetica,sans-Serif" font-size="10.00">FComboBox</text>
<polyline fill="none" stroke="black" points="352.5,-330.5 495.5,-330.5 "/>
<text text-anchor="start" x="360.5" y="-318.5" font-family="Helvetica,sans-Serif" font-size="10.00">+ comboBoxTranslationHash</text>
<polyline fill="none" stroke="black" points="352.5,-311.5 495.5,-311.5 "/>
<text text-anchor="start" x="360.5" y="-299.5" font-family="Helvetica,sans-Serif" font-size="10.00">+ FComboBox()</text>
<text text-anchor="start" x="360.5" y="-288.5" font-family="Helvetica,sans-Serif" font-size="10.00">+ FComboBox()</text>
<text text-anchor="start" x="360.5" y="-277.5" font-family="Helvetica,sans-Serif" font-size="10.00">+ FComboBox()</text>
<text text-anchor="start" x="360.5" y="-266.5" font-family="Helvetica,sans-Serif" font-size="10.00">+ FComboBox()</text>
<text text-anchor="start" x="360.5" y="-255.5" font-family="Helvetica,sans-Serif" font-size="10.00">+ FComboBox()</text>
<text text-anchor="start" x="360.5" y="-244.5" font-family="Helvetica,sans-Serif" font-size="10.00">+ isAbstractEnabled()</text>
<text text-anchor="start" x="360.5" y="-233.5" font-family="Helvetica,sans-Serif" font-size="10.00">+ setWidgetFromXml()</text>
<text text-anchor="start" x="360.5" y="-222.5" font-family="Helvetica,sans-Serif" font-size="10.00">+ setXmlFromWidget()</text>
<text text-anchor="start" x="360.5" y="-211.5" font-family="Helvetica,sans-Serif" font-size="10.00">&#45; fromCurrentIndex()</text>
</a>
</g>
</g>
<!-- Node10&#45;&gt;Node5 -->
<g id="edge7" class="edge"><title>Node10&#45;&gt;Node5</title>
<path fill="none" stroke="#404040" d="M387.423,-204.406C370.971,-176.221 349.867,-144.749 326,-120 315.535,-109.149 303.074,-99.0348 290.559,-90.0986"/>
<polygon fill="none" stroke="#404040" points="290.426,-90.0067 283.215,-89.8923 280.548,-83.1927 287.758,-83.3071 290.426,-90.0067"/>
<text text-anchor="middle" x="408" y="-150.5" font-family="Helvetica,sans-Serif" font-size="10.00"> &#45;processTypeWidget</text>
<text text-anchor="middle" x="408" y="-139.5" font-family="Helvetica,sans-Serif" font-size="10.00">+exportWidget</text>
<text text-anchor="middle" x="408" y="-128.5" font-family="Helvetica,sans-Serif" font-size="10.00">&#45;baseTypeWidget</text>
</g>
<!-- Node11 -->
<g id="node7" class="node"><title>Node11</title>
<polygon fill="white" stroke="#bfbfbf" points="342.5,-525 342.5,-582 415.5,-582 415.5,-525 342.5,-525"/>
<text text-anchor="middle" x="379" y="-570" font-family="Helvetica,sans-Serif" font-size="10.00">QComboBox</text>
<polyline fill="none" stroke="#bfbfbf" points="342.5,-563 415.5,-563 "/>
<text text-anchor="middle" x="379" y="-551" font-family="Helvetica,sans-Serif" font-size="10.00"> </text>
<polyline fill="none" stroke="#bfbfbf" points="342.5,-544 415.5,-544 "/>
<text text-anchor="middle" x="379" y="-532" font-family="Helvetica,sans-Serif" font-size="10.00"> </text>
</g>
<!-- Node11&#45;&gt;Node10 -->
<g id="edge8" class="edge"><title>Node11&#45;&gt;Node10</title>
<path fill="none" stroke="midnightblue" d="M385.144,-515.019C392.098,-472.6 403.587,-402.522 412.272,-349.541"/>
<polygon fill="none" stroke="midnightblue" points="381.685,-514.489 383.521,-524.923 388.593,-515.621 381.685,-514.489"/>
</g>
<!-- Node12&#45;&gt;Node10 -->
<g id="edge9" class="edge"><title>Node12&#45;&gt;Node10</title>
<path fill="none" stroke="midnightblue" d="M458.097,-399.552C453.229,-382.199 448.457,-365.186 444.096,-349.641"/>
<polygon fill="none" stroke="midnightblue" points="454.738,-400.537 460.809,-409.22 461.478,-398.647 454.738,-400.537"/>
</g>
<!-- Node15 -->
<g id="node11" class="node"><title>Node15</title>
<g id="a_node11"><a xlink:href="class_f_line_edit.html" target="_top" xlink:title="{FLineEdit\n||+ FLineEdit()\l+ FLineEdit()\l+ FLineEdit()\l+ FLineEdit()\l+ FLineEdit()\l+ FLineEdit()\l+ isAbstractEnabled()\l+ setWidgetFromXml()\l+ setXmlFromWidget()\l}">
<polygon fill="white" stroke="black" points="653,-204.5 653,-349.5 769,-349.5 769,-204.5 653,-204.5"/>
<text text-anchor="middle" x="711" y="-337.5" font-family="Helvetica,sans-Serif" font-size="10.00">FLineEdit</text>
<polyline fill="none" stroke="black" points="653,-330.5 769,-330.5 "/>
<text text-anchor="middle" x="711" y="-318.5" font-family="Helvetica,sans-Serif" font-size="10.00"> </text>
<polyline fill="none" stroke="black" points="653,-311.5 769,-311.5 "/>
<text text-anchor="start" x="661" y="-299.5" font-family="Helvetica,sans-Serif" font-size="10.00">+ FLineEdit()</text>
<text text-anchor="start" x="661" y="-288.5" font-family="Helvetica,sans-Serif" font-size="10.00">+ FLineEdit()</text>
<text text-anchor="start" x="661" y="-277.5" font-family="Helvetica,sans-Serif" font-size="10.00">+ FLineEdit()</text>
<text text-anchor="start" x="661" y="-266.5" font-family="Helvetica,sans-Serif" font-size="10.00">+ FLineEdit()</text>
<text text-anchor="start" x="661" y="-255.5" font-family="Helvetica,sans-Serif" font-size="10.00">+ FLineEdit()</text>
<text text-anchor="start" x="661" y="-244.5" font-family="Helvetica,sans-Serif" font-size="10.00">+ FLineEdit()</text>
<text text-anchor="start" x="661" y="-233.5" font-family="Helvetica,sans-Serif" font-size="10.00">+ isAbstractEnabled()</text>
<text text-anchor="start" x="661" y="-222.5" font-family="Helvetica,sans-Serif" font-size="10.00">+ setWidgetFromXml()</text>
<text text-anchor="start" x="661" y="-211.5" font-family="Helvetica,sans-Serif" font-size="10.00">+ setXmlFromWidget()</text>
</a>
</g>
</g>
<!-- Node12&#45;&gt;Node15 -->
<g id="edge15" class="edge"><title>Node12&#45;&gt;Node15</title>
<path fill="none" stroke="midnightblue" d="M575.01,-411.073C575.669,-410.375 576.332,-409.684 577,-409 600.493,-384.939 617.89,-394.369 643,-372 650.52,-365.301 657.696,-357.633 664.376,-349.63"/>
<polygon fill="none" stroke="midnightblue" points="572.166,-409.003 568.115,-418.793 577.387,-413.665 572.166,-409.003"/>
</g>
<!-- Node17 -->
<g id="node13" class="node"><title>Node17</title>
<g id="a_node13"><a xlink:href="class_f_check_box.html" target="_top" xlink:title="{FCheckBox\n||+ FCheckBox()\l+ FCheckBox()\l+ FCheckBox()\l+ FCheckBox()\l+ FCheckBox()\l+ FCheckBox()\l+ isAbstractEnabled()\l+ setWidgetFromXml()\l+ setXmlFromWidget()\l&#45; uncheckDisabledBox()\l}">
<polygon fill="white" stroke="black" points="513.5,-199 513.5,-355 634.5,-355 634.5,-199 513.5,-199"/>
<text text-anchor="middle" x="574" y="-343" font-family="Helvetica,sans-Serif" font-size="10.00">FCheckBox</text>
<polyline fill="none" stroke="black" points="513.5,-336 634.5,-336 "/>
<text text-anchor="middle" x="574" y="-324" font-family="Helvetica,sans-Serif" font-size="10.00"> </text>
<polyline fill="none" stroke="black" points="513.5,-317 634.5,-317 "/>
<text text-anchor="start" x="521.5" y="-305" font-family="Helvetica,sans-Serif" font-size="10.00">+ FCheckBox()</text>
<text text-anchor="start" x="521.5" y="-294" font-family="Helvetica,sans-Serif" font-size="10.00">+ FCheckBox()</text>
<text text-anchor="start" x="521.5" y="-283" font-family="Helvetica,sans-Serif" font-size="10.00">+ FCheckBox()</text>
<text text-anchor="start" x="521.5" y="-272" font-family="Helvetica,sans-Serif" font-size="10.00">+ FCheckBox()</text>
<text text-anchor="start" x="521.5" y="-261" font-family="Helvetica,sans-Serif" font-size="10.00">+ FCheckBox()</text>
<text text-anchor="start" x="521.5" y="-250" font-family="Helvetica,sans-Serif" font-size="10.00">+ FCheckBox()</text>
<text text-anchor="start" x="521.5" y="-239" font-family="Helvetica,sans-Serif" font-size="10.00">+ isAbstractEnabled()</text>
<text text-anchor="start" x="521.5" y="-228" font-family="Helvetica,sans-Serif" font-size="10.00">+ setWidgetFromXml()</text>
<text text-anchor="start" x="521.5" y="-217" font-family="Helvetica,sans-Serif" font-size="10.00">+ setXmlFromWidget()</text>
<text text-anchor="start" x="521.5" y="-206" font-family="Helvetica,sans-Serif" font-size="10.00">&#45; uncheckDisabledBox()</text>
</a>
</g>
</g>
<!-- Node12&#45;&gt;Node17 -->
<g id="edge18" class="edge"><title>Node12&#45;&gt;Node17</title>
<path fill="none" stroke="midnightblue" d="M541.763,-399.222C545.797,-384.052 549.76,-369.148 553.453,-355.263"/>
<polygon fill="none" stroke="midnightblue" points="538.291,-398.657 539.104,-409.22 545.056,-400.456 538.291,-398.657"/>
</g>
<!-- Node13 -->
<g id="node9" class="node"><title>Node13</title>
<g id="a_node9"><a xlink:href="class_f_string.html" target="_top" xlink:title="Chaîne de caractères fonctionnelle. ">
<polygon fill="white" stroke="black" points="248,-182.5 248,-371.5 334,-371.5 334,-182.5 248,-182.5"/>
<text text-anchor="middle" x="291" y="-359.5" font-family="Helvetica,sans-Serif" font-size="10.00">FString</text>
<polyline fill="none" stroke="black" points="248,-352.5 334,-352.5 "/>
<text text-anchor="start" x="256" y="-340.5" font-family="Helvetica,sans-Serif" font-size="10.00">&#45; p</text>
<text text-anchor="start" x="256" y="-329.5" font-family="Helvetica,sans-Serif" font-size="10.00">&#45; x</text>
<polyline fill="none" stroke="black" points="248,-322.5 334,-322.5 "/>
<text text-anchor="start" x="256" y="-310.5" font-family="Helvetica,sans-Serif" font-size="10.00">+ FString()</text>
<text text-anchor="start" x="256" y="-299.5" font-family="Helvetica,sans-Serif" font-size="10.00">+ FString()</text>
<text text-anchor="start" x="256" y="-288.5" font-family="Helvetica,sans-Serif" font-size="10.00">+ FString()</text>
<text text-anchor="start" x="256" y="-277.5" font-family="Helvetica,sans-Serif" font-size="10.00">+ FString()</text>
<text text-anchor="start" x="256" y="-266.5" font-family="Helvetica,sans-Serif" font-size="10.00">+ FString()</text>
<text text-anchor="start" x="256" y="-255.5" font-family="Helvetica,sans-Serif" font-size="10.00">+ fromBool()</text>
<text text-anchor="start" x="256" y="-244.5" font-family="Helvetica,sans-Serif" font-size="10.00">+ isBoolean()</text>
<text text-anchor="start" x="256" y="-233.5" font-family="Helvetica,sans-Serif" font-size="10.00">+ isFalse()</text>
<text text-anchor="start" x="256" y="-222.5" font-family="Helvetica,sans-Serif" font-size="10.00">+ isFilled()</text>
<text text-anchor="start" x="256" y="-211.5" font-family="Helvetica,sans-Serif" font-size="10.00">+ isMultimodal()</text>
<text text-anchor="start" x="256" y="-200.5" font-family="Helvetica,sans-Serif" font-size="10.00">et 15 de plus...</text>
<text text-anchor="start" x="256" y="-189.5" font-family="Helvetica,sans-Serif" font-size="10.00">&#45; testBool()</text>
</a>
</g>
</g>
<!-- Node13&#45;&gt;Node5 -->
<g id="edge11" class="edge"><title>Node13&#45;&gt;Node5</title>
<path fill="none" stroke="#404040" d="M263.811,-182.302C257.062,-159.043 249.999,-134.703 243.828,-113.439"/>
<polygon fill="none" stroke="#404040" points="243.748,-113.164 238.235,-108.516 240.404,-101.639 245.918,-106.287 243.748,-113.164"/>
<text text-anchor="middle" x="290.5" y="-139.5" font-family="Helvetica,sans-Serif" font-size="10.00"> &#45;standardMsg</text>
</g>
<!-- Node14 -->
<g id="node10" class="node"><title>Node14</title>
<polygon fill="white" stroke="#bfbfbf" points="266,-525 266,-582 316,-582 316,-525 266,-525"/>
<text text-anchor="middle" x="291" y="-570" font-family="Helvetica,sans-Serif" font-size="10.00">QString</text>
<polyline fill="none" stroke="#bfbfbf" points="266,-563 316,-563 "/>
<text text-anchor="middle" x="291" y="-551" font-family="Helvetica,sans-Serif" font-size="10.00"> </text>
<polyline fill="none" stroke="#bfbfbf" points="266,-544 316,-544 "/>
<text text-anchor="middle" x="291" y="-532" font-family="Helvetica,sans-Serif" font-size="10.00"> </text>
</g>
<!-- Node14&#45;&gt;Node13 -->
<g id="edge12" class="edge"><title>Node14&#45;&gt;Node13</title>
<path fill="none" stroke="midnightblue" d="M291,-514.667C291,-477.915 291,-420.642 291,-371.644"/>
<polygon fill="none" stroke="midnightblue" points="287.5,-514.923 291,-524.923 294.5,-514.923 287.5,-514.923"/>
</g>
<!-- Node15&#45;&gt;Node5 -->
<g id="edge13" class="edge"><title>Node15&#45;&gt;Node5</title>
<path fill="none" stroke="#404040" d="M671.039,-204.2C649.908,-173.12 621.041,-139.465 586,-120 493.168,-68.4339 368.303,-55.2053 292.671,-52.2416"/>
<polygon fill="none" stroke="#404040" points="292.505,-52.2361 286.375,-56.0345 280.512,-51.8372 286.641,-48.0389 292.505,-52.2361"/>
<text text-anchor="middle" x="681.5" y="-139.5" font-family="Helvetica,sans-Serif" font-size="10.00"> &#45;maxNLigneLineEdit</text>
</g>
<!-- Node16 -->
<g id="node12" class="node"><title>Node16</title>
<polygon fill="white" stroke="#bfbfbf" points="681.5,-525 681.5,-582 740.5,-582 740.5,-525 681.5,-525"/>
<text text-anchor="middle" x="711" y="-570" font-family="Helvetica,sans-Serif" font-size="10.00">QLineEdit</text>
<polyline fill="none" stroke="#bfbfbf" points="681.5,-563 740.5,-563 "/>
<text text-anchor="middle" x="711" y="-551" font-family="Helvetica,sans-Serif" font-size="10.00"> </text>
<polyline fill="none" stroke="#bfbfbf" points="681.5,-544 740.5,-544 "/>
<text text-anchor="middle" x="711" y="-532" font-family="Helvetica,sans-Serif" font-size="10.00"> </text>
</g>
<!-- Node16&#45;&gt;Node15 -->
<g id="edge14" class="edge"><title>Node16&#45;&gt;Node15</title>
<path fill="none" stroke="midnightblue" d="M711,-514.75C711,-472.304 711,-402.41 711,-349.541"/>
<polygon fill="none" stroke="midnightblue" points="707.5,-514.923 711,-524.923 714.5,-514.923 707.5,-514.923"/>
</g>
<!-- Node17&#45;&gt;Node5 -->
<g id="edge16" class="edge"><title>Node17&#45;&gt;Node5</title>
<path fill="none" stroke="#404040" d="M531.668,-198.723C512.747,-170.396 488.1,-140.328 459,-120 409.374,-85.3338 342.074,-68.161 292.562,-59.7647"/>
<polygon fill="none" stroke="#404040" points="292.546,-59.7623 285.988,-62.7617 280.697,-57.862 287.255,-54.8626 292.546,-59.7623"/>
<text text-anchor="middle" x="544" y="-156" font-family="Helvetica,sans-Serif" font-size="10.00"> +tableCheckBox</text>
<text text-anchor="middle" x="544" y="-145" font-family="Helvetica,sans-Serif" font-size="10.00">&#45;etabCheckBox</text>
<text text-anchor="middle" x="544" y="-134" font-family="Helvetica,sans-Serif" font-size="10.00">&#45;rangCheckBox</text>
<text text-anchor="middle" x="544" y="-123" font-family="Helvetica,sans-Serif" font-size="10.00">+FPHCheckBox</text>
</g>
<!-- Node18 -->
<g id="node14" class="node"><title>Node18</title>
<polygon fill="white" stroke="#bfbfbf" points="586,-525 586,-582 656,-582 656,-525 586,-525"/>
<text text-anchor="middle" x="621" y="-570" font-family="Helvetica,sans-Serif" font-size="10.00">QCheckBox</text>
<polyline fill="none" stroke="#bfbfbf" points="586,-563 656,-563 "/>
<text text-anchor="middle" x="621" y="-551" font-family="Helvetica,sans-Serif" font-size="10.00"> </text>
<polyline fill="none" stroke="#bfbfbf" points="586,-544 656,-544 "/>
<text text-anchor="middle" x="621" y="-532" font-family="Helvetica,sans-Serif" font-size="10.00"> </text>
</g>
<!-- Node18&#45;&gt;Node17 -->
<g id="edge17" class="edge"><title>Node18&#45;&gt;Node17</title>
<path fill="none" stroke="midnightblue" d="M614.55,-514.832C607.534,-473.855 596.127,-407.23 587.195,-355.067"/>
<polygon fill="none" stroke="midnightblue" points="611.141,-515.657 616.278,-524.923 618.04,-514.476 611.141,-515.657"/>
</g>
</g>
</svg>
        <g id="navigator" transform="translate(0 0)" fill="#404254">
                <rect fill="#f2f5e9" fill-opacity="0.5" stroke="#606060" stroke-width=".5" x="0" y="0" width="60" height="60"/>
                <use id="zoomplus" xlink:href="#zoomPlus" x="17" y="9" onmousedown="handleZoom(evt,'in')"/>
                <use id="zoomminus" xlink:href="#zoomMin" x="42" y="9" onmousedown="handleZoom(evt,'out')"/>
                <use id="reset" xlink:href="#resetDef" x="30" y="36" onmousedown="handleReset()"/>
                <g id="arrowUp" xlink:href="#dirArrow" transform="translate(30 24)" onmousedown="handlePan(0,-1)">
                  <use xlink:href="#rim" fill="#404040">
                        <set attributeName="fill" to="#808080" begin="arrowUp.mouseover" end="arrowUp.mouseout"/>
                  </use>
                  <path fill="none" stroke="white" stroke-width="1.5" d="M0,-3.0v7 M-2.5,-0.5L0,-3.0L2.5,-0.5"/>
                </g>
                <g id="arrowRight" xlink:href="#dirArrow" transform="rotate(90) translate(36 -43)" onmousedown="handlePan(1,0)">
                  <use xlink:href="#rim" fill="#404040">
                        <set attributeName="fill" to="#808080" begin="arrowRight.mouseover" end="arrowRight.mouseout"/>
                  </use>
                  <path fill="none" stroke="white" stroke-width="1.5" d="M0,-3.0v7 M-2.5,-0.5L0,-3.0L2.5,-0.5"/>
                </g>
                <g id="arrowDown" xlink:href="#dirArrow" transform="rotate(180) translate(-30 -48)" onmousedown="handlePan(0,1)">
                  <use xlink:href="#rim" fill="#404040">
                        <set attributeName="fill" to="#808080" begin="arrowDown.mouseover" end="arrowDown.mouseout"/>
                  </use>
                  <path fill="none" stroke="white" stroke-width="1.5" d="M0,-3.0v7 M-2.5,-0.5L0,-3.0L2.5,-0.5"/>
                </g>
                <g id="arrowLeft" xlink:href="#dirArrow" transform="rotate(270) translate(-36 17)" onmousedown="handlePan(-1,0)">
                  <use xlink:href="#rim" fill="#404040">
                        <set attributeName="fill" to="#808080" begin="arrowLeft.mouseover" end="arrowLeft.mouseout"/>
                  </use>
                  <path fill="none" stroke="white" stroke-width="1.5" d="M0,-3.0v7 M-2.5,-0.5L0,-3.0L2.5,-0.5"/>
                </g>
        </g>
        <svg viewBox="0 0 15 15" width="100%" height="30px" preserveAspectRatio="xMaxYMin meet">
         <g id="arrow_out" transform="scale(0.3 0.3)">
          <a xlink:href="classstandard_page__coll__graph_org.svg" target="_base">
           <rect id="button" ry="5" rx="5" y="6" x="6" height="38" width="38"
                fill="#f2f5e9" fill-opacity="0.5" stroke="#606060" stroke-width="1.0"/>
           <path id="arrow"
             d="M 11.500037,31.436501 C 11.940474,20.09759 22.043105,11.32322 32.158766,21.979434 L 37.068811,17.246167 C 37.068811,17.246167 37.088388,32 37.088388,32 L 22.160133,31.978069 C 22.160133,31.978069 26.997745,27.140456 26.997745,27.140456 C 18.528582,18.264221 13.291696,25.230495 11.500037,31.436501 z"
             style="fill:#404040;"/>
          </a>
         </g>
        </svg>
</svg>
