<?xml version="1.0" encoding="UTF-8" standalone="no"?>
<!DOCTYPE svg PUBLIC "-//W3C//DTD SVG 1.1//EN"
 "http://www.w3.org/Graphics/SVG/1.1/DTD/svg11.dtd">
<!-- Generated by graphviz version 2.38.0 (20140413.2041)
 -->
<!-- Title: FListFrame::parsed Pages: 1 -->
<!--zoomable 94 -->
<svg id="main" version="1.1" xmlns="http://www.w3.org/2000/svg" xmlns:xlink="http://www.w3.org/1999/xlink" xml:space="preserve" onload="init(evt)">
<style type="text/css"><![CDATA[
.edge:hover path { stroke: red; }
.edge:hover polygon { stroke: red; fill: red; }
]]></style>
<script type="text/javascript"><![CDATA[
var edges = document.getElementsByTagName('g');
if (edges && edges.length) {
  for (var i=0;i<edges.length;i++) {
    if (edges[i].id.substr(0,4)=='edge') {
      edges[i].setAttribute('class','edge');
    }
  }
}
]]></script>
        <defs>
                <circle id="rim" cx="0" cy="0" r="7"/>
                <circle id="rim2" cx="0" cy="0" r="3.5"/>
                <g id="zoomPlus">
                        <use xlink:href="#rim" fill="#404040">
                                <set attributeName="fill" to="#808080" begin="zoomplus.mouseover" end="zoomplus.mouseout"/>
                        </use>
                        <path d="M-4,0h8M0,-4v8" fill="none" stroke="white" stroke-width="1.5" pointer-events="none"/>
                </g>
                <g id="zoomMin">
                        <use xlink:href="#rim" fill="#404040">
                                <set attributeName="fill" to="#808080" begin="zoomminus.mouseover" end="zoomminus.mouseout"/>
                        </use>
                        <path d="M-4,0h8" fill="none" stroke="white" stroke-width="1.5" pointer-events="none"/>
                </g>
                <g id="dirArrow">
                        <path fill="none" stroke="white" stroke-width="1.5" d="M0,-3.0v7 M-2.5,-0.5L0,-3.0L2.5,-0.5"/>
                </g>
               <g id="resetDef">
                       <use xlink:href="#rim2" fill="#404040">
                               <set attributeName="fill" to="#808080" begin="reset.mouseover" end="reset.mouseout"/>
                       </use>
               </g>
        </defs>

<script type="text/javascript">
var viewWidth = 1103;
var viewHeight = 94;
var sectionId = 'dynsection-45';
</script>
<script xlink:href="svgpan.js"/>
<svg id="graph" class="graph">
<g id="viewport">
<title>FListFrame::parsed</title>
<polygon fill="white" stroke="none" points="-4,4 -4,-90 1099,-90 1099,4 -4,4"/>
<!-- Node328 -->
<g id="node1" class="node"><title>Node328</title>
<polygon fill="#bfbfbf" stroke="black" points="0,-22.5 0,-41.5 101,-41.5 101,-22.5 0,-22.5"/>
<text text-anchor="middle" x="50.5" y="-29.5" font-family="Helvetica,sans-Serif" font-size="10.00">FListFrame::parsed</text>
</g>
<!-- Node329 -->
<g id="node2" class="node"><title>Node329</title>
<g id="a_node2"><a xlink:href="class_f_list_frame.html#a22a50157e8c6d287c2b2c08d2b7deee9" target="_top" xlink:title="Lancer un fil d&#39;exécution pour lire l&#39;entête d&#39;un fichier XHL (Année, Mois,...) et classer les fichie...">
<polygon fill="white" stroke="black" points="149.5,-39 149.5,-69 250.5,-69 250.5,-39 149.5,-39"/>
<text text-anchor="start" x="157.5" y="-57" font-family="Helvetica,sans-Serif" font-size="10.00">FListFrame::launch</text>
<text text-anchor="middle" x="200" y="-46" font-family="Helvetica,sans-Serif" font-size="10.00">_thread</text>
</a>
</g>
</g>
<!-- Node328&#45;&gt;Node329 -->
<g id="edge1" class="edge"><title>Node328&#45;&gt;Node329</title>
<path fill="none" stroke="midnightblue" d="M111.062,-40.8839C123.771,-42.7794 137.064,-44.7621 149.354,-46.5952"/>
<polygon fill="midnightblue" stroke="midnightblue" points="111.433,-37.4005 101.026,-39.3869 110.4,-44.3239 111.433,-37.4005"/>
</g>
<!-- Node336 -->
<g id="node9" class="node"><title>Node336</title>
<g id="a_node9"><a xlink:href="class_f_list_frame.html#adc46faa6ac7f4f664698f249293809a4" target="_top" xlink:title="Décode les champs principaux du fichier XHL: Année, Mois, Budget, ... ">
<polygon fill="white" stroke="black" points="137,-0.5 137,-19.5 263,-19.5 263,-0.5 137,-0.5"/>
<text text-anchor="middle" x="200" y="-7.5" font-family="Helvetica,sans-Serif" font-size="10.00">FListFrame::parseXhlFile</text>
</a>
</g>
</g>
<!-- Node328&#45;&gt;Node336 -->
<g id="edge9" class="edge"><title>Node328&#45;&gt;Node336</title>
<path fill="none" stroke="midnightblue" d="M111.158,-23.1019C119.594,-21.8436 128.285,-20.5473 136.768,-19.282"/>
<polygon fill="midnightblue" stroke="midnightblue" points="110.4,-19.6761 101.026,-24.6131 111.433,-26.5995 110.4,-19.6761"/>
</g>
<!-- Node330 -->
<g id="node3" class="node"><title>Node330</title>
<g id="a_node3"><a xlink:href="class_f_list_frame.html#a802475894ee1e30753faed81d9f9dc4b" target="_top" xlink:title="Appelle parseXhlFile(const QString&amp;) sur l&#39;ensemble de widgetContainer. ">
<polygon fill="white" stroke="black" points="299,-44.5 299,-63.5 425,-63.5 425,-44.5 299,-44.5"/>
<text text-anchor="middle" x="362" y="-51.5" font-family="Helvetica,sans-Serif" font-size="10.00">FListFrame::parseXhlFile</text>
</a>
</g>
</g>
<!-- Node329&#45;&gt;Node330 -->
<g id="edge2" class="edge"><title>Node329&#45;&gt;Node330</title>
<path fill="none" stroke="midnightblue" d="M260.959,-47.4419C273.341,-47.2002 286.407,-47.1868 298.864,-47.4019"/>
<polygon fill="midnightblue" stroke="midnightblue" points="260.657,-43.9483 250.748,-47.6987 260.833,-50.9461 260.657,-43.9483"/>
</g>
<!-- Node330&#45;&gt;Node329 -->
<g id="edge3" class="edge"><title>Node330&#45;&gt;Node329</title>
<path fill="none" stroke="midnightblue" d="M288.666,-60.7224C275.847,-60.815 262.764,-60.6747 250.748,-60.3013"/>
<polygon fill="midnightblue" stroke="midnightblue" points="288.908,-64.2198 298.864,-60.5981 288.822,-57.2203 288.908,-64.2198"/>
</g>
<!-- Node331 -->
<g id="node4" class="node"><title>Node331</title>
<g id="a_node4"><a xlink:href="class_f_list_frame.html#af8c91e66c02e4c6f1f0fb66097903b73" target="_top" xlink:title="FListFrame::addStringList\lToListWidget">
<polygon fill="white" stroke="black" points="461,-39 461,-69 590,-69 590,-39 461,-39"/>
<text text-anchor="start" x="469" y="-57" font-family="Helvetica,sans-Serif" font-size="10.00">FListFrame::addStringList</text>
<text text-anchor="middle" x="525.5" y="-46" font-family="Helvetica,sans-Serif" font-size="10.00">ToListWidget</text>
</a>
</g>
</g>
<!-- Node330&#45;&gt;Node331 -->
<g id="edge4" class="edge"><title>Node330&#45;&gt;Node331</title>
<path fill="none" stroke="midnightblue" d="M435.633,-54C444.058,-54 452.602,-54 460.893,-54"/>
<polygon fill="midnightblue" stroke="midnightblue" points="435.44,-50.5001 425.44,-54 435.44,-57.5001 435.44,-50.5001"/>
</g>
<!-- Node332 -->
<g id="node5" class="node"><title>Node332</title>
<g id="a_node5"><a xlink:href="class_f_list_frame.html#a4228ed10f2d800b92ff34e2f25edcd8c" target="_top" xlink:title="FListFrame::addParsedTree\lToListWidget">
<polygon fill="white" stroke="black" points="626,-39 626,-69 764,-69 764,-39 626,-39"/>
<text text-anchor="start" x="634" y="-57" font-family="Helvetica,sans-Serif" font-size="10.00">FListFrame::addParsedTree</text>
<text text-anchor="middle" x="695" y="-46" font-family="Helvetica,sans-Serif" font-size="10.00">ToListWidget</text>
</a>
</g>
</g>
<!-- Node331&#45;&gt;Node332 -->
<g id="edge5" class="edge"><title>Node331&#45;&gt;Node332</title>
<path fill="none" stroke="midnightblue" d="M600.518,-54C608.966,-54 617.549,-54 625.915,-54"/>
<polygon fill="midnightblue" stroke="midnightblue" points="600.302,-50.5001 590.302,-54 600.302,-57.5001 600.302,-50.5001"/>
</g>
<!-- Node333 -->
<g id="node6" class="node"><title>Node333</title>
<g id="a_node6"><a xlink:href="class_altair.html#a1afa285a65e0bdff4c761ad05ec9f8df" target="_top" xlink:title="Fonction réimplémentée : fin du déplacement de la souris. ">
<polygon fill="white" stroke="black" points="824,-66.5 824,-85.5 913,-85.5 913,-66.5 824,-66.5"/>
<text text-anchor="middle" x="868.5" y="-73.5" font-family="Helvetica,sans-Serif" font-size="10.00">Altair::dropEvent</text>
</a>
</g>
</g>
<!-- Node332&#45;&gt;Node333 -->
<g id="edge6" class="edge"><title>Node332&#45;&gt;Node333</title>
<path fill="none" stroke="midnightblue" d="M774.246,-64.0374C791.296,-66.2245 808.744,-68.4628 823.867,-70.4028"/>
<polygon fill="midnightblue" stroke="midnightblue" points="774.638,-60.5591 764.274,-62.7582 773.747,-67.5022 774.638,-60.5591"/>
</g>
<!-- Node334 -->
<g id="node7" class="node"><title>Node334</title>
<g id="a_node7"><a xlink:href="class_f_list_frame.html#ac14c494842340a0438766256c01f83bc" target="_top" xlink:title="FListFrame::on_importFrom\lMainTree_clicked">
<polygon fill="white" stroke="black" points="800,-17 800,-47 937,-47 937,-17 800,-17"/>
<text text-anchor="start" x="808" y="-35" font-family="Helvetica,sans-Serif" font-size="10.00">FListFrame::on_importFrom</text>
<text text-anchor="middle" x="868.5" y="-24" font-family="Helvetica,sans-Serif" font-size="10.00">MainTree_clicked</text>
</a>
</g>
</g>
<!-- Node332&#45;&gt;Node334 -->
<g id="edge7" class="edge"><title>Node332&#45;&gt;Node334</title>
<path fill="none" stroke="midnightblue" d="M774.213,-43.9669C782.735,-42.8736 791.358,-41.7675 799.741,-40.6921"/>
<polygon fill="midnightblue" stroke="midnightblue" points="773.747,-40.4978 764.274,-45.2418 774.638,-47.4409 773.747,-40.4978"/>
</g>
<!-- Node335 -->
<g id="node8" class="node"><title>Node335</title>
<g id="a_node8"><a xlink:href="class_f_list_frame.html#a865246df8a4d4000ac3c818abc6d7f71" target="_top" xlink:title="FListFrame::FListFrame">
<polygon fill="white" stroke="black" points="973,-22.5 973,-41.5 1095,-41.5 1095,-22.5 973,-22.5"/>
<text text-anchor="middle" x="1034" y="-29.5" font-family="Helvetica,sans-Serif" font-size="10.00">FListFrame::FListFrame</text>
</a>
</g>
</g>
<!-- Node334&#45;&gt;Node335 -->
<g id="edge8" class="edge"><title>Node334&#45;&gt;Node335</title>
<path fill="none" stroke="midnightblue" d="M947.688,-32C956.148,-32 964.658,-32 972.857,-32"/>
<polygon fill="midnightblue" stroke="midnightblue" points="947.418,-28.5001 937.418,-32 947.418,-35.5001 947.418,-28.5001"/>
</g>
</g>
</svg>
        <g id="navigator" transform="translate(0 0)" fill="#404254">
                <rect fill="#f2f5e9" fill-opacity="0.5" stroke="#606060" stroke-width=".5" x="0" y="0" width="60" height="60"/>
                <use id="zoomplus" xlink:href="#zoomPlus" x="17" y="9" onmousedown="handleZoom(evt,'in')"/>
                <use id="zoomminus" xlink:href="#zoomMin" x="42" y="9" onmousedown="handleZoom(evt,'out')"/>
                <use id="reset" xlink:href="#resetDef" x="30" y="36" onmousedown="handleReset()"/>
                <g id="arrowUp" xlink:href="#dirArrow" transform="translate(30 24)" onmousedown="handlePan(0,-1)">
                  <use xlink:href="#rim" fill="#404040">
                        <set attributeName="fill" to="#808080" begin="arrowUp.mouseover" end="arrowUp.mouseout"/>
                  </use>
                  <path fill="none" stroke="white" stroke-width="1.5" d="M0,-3.0v7 M-2.5,-0.5L0,-3.0L2.5,-0.5"/>
                </g>
                <g id="arrowRight" xlink:href="#dirArrow" transform="rotate(90) translate(36 -43)" onmousedown="handlePan(1,0)">
                  <use xlink:href="#rim" fill="#404040">
                        <set attributeName="fill" to="#808080" begin="arrowRight.mouseover" end="arrowRight.mouseout"/>
                  </use>
                  <path fill="none" stroke="white" stroke-width="1.5" d="M0,-3.0v7 M-2.5,-0.5L0,-3.0L2.5,-0.5"/>
                </g>
                <g id="arrowDown" xlink:href="#dirArrow" transform="rotate(180) translate(-30 -48)" onmousedown="handlePan(0,1)">
                  <use xlink:href="#rim" fill="#404040">
                        <set attributeName="fill" to="#808080" begin="arrowDown.mouseover" end="arrowDown.mouseout"/>
                  </use>
                  <path fill="none" stroke="white" stroke-width="1.5" d="M0,-3.0v7 M-2.5,-0.5L0,-3.0L2.5,-0.5"/>
                </g>
                <g id="arrowLeft" xlink:href="#dirArrow" transform="rotate(270) translate(-36 17)" onmousedown="handlePan(-1,0)">
                  <use xlink:href="#rim" fill="#404040">
                        <set attributeName="fill" to="#808080" begin="arrowLeft.mouseover" end="arrowLeft.mouseout"/>
                  </use>
                  <path fill="none" stroke="white" stroke-width="1.5" d="M0,-3.0v7 M-2.5,-0.5L0,-3.0L2.5,-0.5"/>
                </g>
        </g>
        <svg viewBox="0 0 15 15" width="100%" height="30px" preserveAspectRatio="xMaxYMin meet">
         <g id="arrow_out" transform="scale(0.3 0.3)">
          <a xlink:href="class_f_list_frame_aff181aa464a00ecdfec42bdc7e31bc8d_icgraph_org.svg" target="_base">
           <rect id="button" ry="5" rx="5" y="6" x="6" height="38" width="38"
                fill="#f2f5e9" fill-opacity="0.5" stroke="#606060" stroke-width="1.0"/>
           <path id="arrow"
             d="M 11.500037,31.436501 C 11.940474,20.09759 22.043105,11.32322 32.158766,21.979434 L 37.068811,17.246167 C 37.068811,17.246167 37.088388,32 37.088388,32 L 22.160133,31.978069 C 22.160133,31.978069 26.997745,27.140456 26.997745,27.140456 C 18.528582,18.264221 13.291696,25.230495 11.500037,31.436501 z"
             style="fill:#404040;"/>
          </a>
         </g>
        </svg>
</svg>
