<?xml version="1.0" encoding="UTF-8" standalone="no"?>
<!DOCTYPE svg PUBLIC "-//W3C//DTD SVG 1.1//EN"
 "http://www.w3.org/Graphics/SVG/1.1/DTD/svg11.dtd">
<!-- Generated by graphviz version 2.38.0 (20140413.2041)
 -->
<!-- Title: tools::generateDatadirPath Pages: 1 -->
<svg width="318pt" height="116pt"
 viewBox="0.00 0.00 318.00 116.00" xmlns="http://www.w3.org/2000/svg" xmlns:xlink="http://www.w3.org/1999/xlink">
<g id="graph0" class="graph" transform="scale(1 1) rotate(0) translate(4 112)">
<title>tools::generateDatadirPath</title>
<polygon fill="white" stroke="none" points="-4,4 -4,-112 314,-112 314,4 -4,4"/>
<!-- Node88 -->
<g id="node1" class="node"><title>Node88</title>
<polygon fill="#bfbfbf" stroke="black" points="0,-44.5 0,-63.5 133,-63.5 133,-44.5 0,-44.5"/>
<text text-anchor="middle" x="66.5" y="-51.5" font-family="Helvetica,sans-Serif" font-size="10.00">tools::generateDatadirPath</text>
</g>
<!-- Node89 -->
<g id="node2" class="node"><title>Node89</title>
<g id="a_node2"><a xlink:href="classcommon.html#a72a97430e48d45c877b5612d44a79edb" target="_top" xlink:title="common::common">
<polygon fill="white" stroke="black" points="190.5,-88.5 190.5,-107.5 288.5,-107.5 288.5,-88.5 190.5,-88.5"/>
<text text-anchor="middle" x="239.5" y="-95.5" font-family="Helvetica,sans-Serif" font-size="10.00">common::common</text>
</a>
</g>
</g>
<!-- Node88&#45;&gt;Node89 -->
<g id="edge1" class="edge"><title>Node88&#45;&gt;Node89</title>
<path fill="none" stroke="midnightblue" d="M114.376,-66.0617C141.801,-73.1185 175.939,-81.9024 201.468,-88.4713"/>
<polygon fill="midnightblue" stroke="midnightblue" points="115.161,-62.6498 104.604,-63.5473 113.417,-69.4289 115.161,-62.6498"/>
</g>
<!-- Node90 -->
<g id="node3" class="node"><title>Node90</title>
<g id="a_node3"><a xlink:href="class_main_window.html#a476c51130bcd450b8d47b2aef944eb15" target="_top" xlink:title="Afficher le log dans le navigateur internet par défaut. ">
<polygon fill="white" stroke="black" points="169,-39 169,-69 310,-69 310,-39 169,-39"/>
<text text-anchor="start" x="177" y="-57" font-family="Helvetica,sans-Serif" font-size="10.00">MainWindow::on_displayLog</text>
<text text-anchor="middle" x="239.5" y="-46" font-family="Helvetica,sans-Serif" font-size="10.00">Button_clicked</text>
</a>
</g>
</g>
<!-- Node88&#45;&gt;Node90 -->
<g id="edge2" class="edge"><title>Node88&#45;&gt;Node90</title>
<path fill="none" stroke="midnightblue" d="M143.361,-54C151.823,-54 160.413,-54 168.794,-54"/>
<polygon fill="midnightblue" stroke="midnightblue" points="143.124,-50.5001 133.124,-54 143.124,-57.5001 143.124,-50.5001"/>
</g>
<!-- Node91 -->
<g id="node4" class="node"><title>Node91</title>
<g id="a_node4"><a xlink:href="classprocess_page.html#ae3ff114e2d797548b9e4e24958446a9a" target="_top" xlink:title="processPage::processPage">
<polygon fill="white" stroke="black" points="171,-0.5 171,-19.5 308,-19.5 308,-0.5 171,-0.5"/>
<text text-anchor="middle" x="239.5" y="-7.5" font-family="Helvetica,sans-Serif" font-size="10.00">processPage::processPage</text>
</a>
</g>
</g>
<!-- Node88&#45;&gt;Node91 -->
<g id="edge3" class="edge"><title>Node88&#45;&gt;Node91</title>
<path fill="none" stroke="midnightblue" d="M114.376,-41.9383C141.801,-34.8815 175.939,-26.0976 201.468,-19.5287"/>
<polygon fill="midnightblue" stroke="midnightblue" points="113.417,-38.5711 104.604,-44.4527 115.161,-45.3502 113.417,-38.5711"/>
</g>
</g>
</svg>
