<?xml version="1.0" encoding="UTF-8" standalone="no"?>
<!DOCTYPE svg PUBLIC "-//W3C//DTD SVG 1.1//EN"
 "http://www.w3.org/Graphics/SVG/1.1/DTD/svg11.dtd">
<!-- Generated by graphviz version 2.38.0 (20140413.2041)
 -->
<!-- Title: codePage::codePage Pages: 1 -->
<!--zoomable 387 -->
<svg id="main" version="1.1" xmlns="http://www.w3.org/2000/svg" xmlns:xlink="http://www.w3.org/1999/xlink" xml:space="preserve" onload="init(evt)">
<style type="text/css"><![CDATA[
.edge:hover path { stroke: red; }
.edge:hover polygon { stroke: red; fill: red; }
]]></style>
<script type="text/javascript"><![CDATA[
var edges = document.getElementsByTagName('g');
if (edges && edges.length) {
  for (var i=0;i<edges.length;i++) {
    if (edges[i].id.substr(0,4)=='edge') {
      edges[i].setAttribute('class','edge');
    }
  }
}
]]></script>
        <defs>
                <circle id="rim" cx="0" cy="0" r="7"/>
                <circle id="rim2" cx="0" cy="0" r="3.5"/>
                <g id="zoomPlus">
                        <use xlink:href="#rim" fill="#404040">
                                <set attributeName="fill" to="#808080" begin="zoomplus.mouseover" end="zoomplus.mouseout"/>
                        </use>
                        <path d="M-4,0h8M0,-4v8" fill="none" stroke="white" stroke-width="1.5" pointer-events="none"/>
                </g>
                <g id="zoomMin">
                        <use xlink:href="#rim" fill="#404040">
                                <set attributeName="fill" to="#808080" begin="zoomminus.mouseover" end="zoomminus.mouseout"/>
                        </use>
                        <path d="M-4,0h8" fill="none" stroke="white" stroke-width="1.5" pointer-events="none"/>
                </g>
                <g id="dirArrow">
                        <path fill="none" stroke="white" stroke-width="1.5" d="M0,-3.0v7 M-2.5,-0.5L0,-3.0L2.5,-0.5"/>
                </g>
               <g id="resetDef">
                       <use xlink:href="#rim2" fill="#404040">
                               <set attributeName="fill" to="#808080" begin="reset.mouseover" end="reset.mouseout"/>
                       </use>
               </g>
        </defs>

<script type="text/javascript">
var viewWidth = 643;
var viewHeight = 387;
var sectionId = 'dynsection-2';
</script>
<script xlink:href="svgpan.js"/>
<svg id="graph" class="graph">
<g id="viewport">
<title>codePage::codePage</title>
<polygon fill="white" stroke="none" points="-4,4 -4,-383.194 639,-383.194 639,4 -4,4"/>
<!-- Node0 -->
<g id="node1" class="node"><title>Node0</title>
<polygon fill="#bfbfbf" stroke="black" points="0,-300.694 0,-319.694 117,-319.694 117,-300.694 0,-300.694"/>
<text text-anchor="middle" x="58.5" y="-307.694" font-family="Helvetica,sans-Serif" font-size="10.00">codePage::codePage</text>
</g>
<!-- Node1 -->
<g id="node2" class="node"><title>Node1</title>
<g id="a_node2"><a xlink:href="classcode_page.html#a6896b21cac9b9ab917b333a01530fce9" target="_top" xlink:title="codePage::ajouterVariable">
<polygon fill="white" stroke="black" points="153,-359.694 153,-378.694 293,-378.694 293,-359.694 153,-359.694"/>
<text text-anchor="middle" x="223" y="-366.694" font-family="Helvetica,sans-Serif" font-size="10.00">codePage::ajouterVariable</text>
</a>
</g>
</g>
<!-- Node0&#45;&gt;Node1 -->
<g id="edge1" class="edge"><title>Node0&#45;&gt;Node1</title>
<path fill="none" stroke="midnightblue" d="M84.443,-319.712C103.245,-326.842 129.687,-336.777 153,-345.194 163.216,-348.882 174.317,-352.788 184.57,-356.353"/>
<polygon fill="midnightblue" stroke="midnightblue" points="183.487,-359.682 194.082,-359.65 185.779,-353.068 183.487,-359.682"/>
</g>
<!-- Node2 -->
<g id="node3" class="node"><title>Node2</title>
<g id="a_node3"><a xlink:href="classtools.html#a89d2cd8ffcaed8423439c16d1ee59ab0" target="_top" xlink:title="Renvoie le chemin d&#39;un fichier ou d&#39;un répertoire du répertoire racine de la distribution (adjacent a...">
<polygon fill="white" stroke="black" points="531,-277.694 531,-296.694 635,-296.694 635,-277.694 531,-277.694"/>
<text text-anchor="middle" x="583" y="-284.694" font-family="Helvetica,sans-Serif" font-size="10.00">tools::path_access</text>
</a>
</g>
</g>
<!-- Node0&#45;&gt;Node2 -->
<g id="edge2" class="edge"><title>Node0&#45;&gt;Node2</title>
<path fill="none" stroke="midnightblue" d="M117.286,-315.811C201.044,-322.745 360.843,-331.425 495,-312.194 512.1,-309.742 530.555,-304.787 546.049,-299.93"/>
<polygon fill="midnightblue" stroke="midnightblue" points="547.327,-303.195 555.759,-296.779 545.167,-296.536 547.327,-303.195"/>
</g>
<!-- Node3 -->
<g id="node4" class="node"><title>Node3</title>
<g id="a_node4"><a xlink:href="classcode_page.html#a8524212298b5473047c5c4f0cadc86a6" target="_top" xlink:title="codePage::reinitialiser\l_prologue">
<polygon fill="white" stroke="black" points="352,-272.194 352,-302.194 472,-302.194 472,-272.194 352,-272.194"/>
<text text-anchor="start" x="360" y="-290.194" font-family="Helvetica,sans-Serif" font-size="10.00">codePage::reinitialiser</text>
<text text-anchor="middle" x="412" y="-279.194" font-family="Helvetica,sans-Serif" font-size="10.00">_prologue</text>
</a>
</g>
</g>
<!-- Node0&#45;&gt;Node3 -->
<g id="edge3" class="edge"><title>Node0&#45;&gt;Node3</title>
<path fill="none" stroke="midnightblue" d="M117.149,-306.421C178.62,-302.399 275.967,-296.029 341.6,-291.735"/>
<polygon fill="midnightblue" stroke="midnightblue" points="342.101,-295.209 351.851,-291.064 341.644,-288.224 342.101,-295.209"/>
</g>
<!-- Node4 -->
<g id="node5" class="node"><title>Node4</title>
<g id="a_node5"><a xlink:href="classcode_page.html#a7f3fcb4b6f622b1c11a7b39e245b76b6" target="_top" xlink:title="codePage::substituer\l_valeurs_dans_script_R">
<polygon fill="white" stroke="black" points="157.5,-152.194 157.5,-182.194 288.5,-182.194 288.5,-152.194 157.5,-152.194"/>
<text text-anchor="start" x="165.5" y="-170.194" font-family="Helvetica,sans-Serif" font-size="10.00">codePage::substituer</text>
<text text-anchor="middle" x="223" y="-159.194" font-family="Helvetica,sans-Serif" font-size="10.00">_valeurs_dans_script_R</text>
</a>
</g>
</g>
<!-- Node0&#45;&gt;Node4 -->
<g id="edge5" class="edge"><title>Node0&#45;&gt;Node4</title>
<path fill="none" stroke="midnightblue" d="M70.4144,-300.589C96.1497,-277.942 161.159,-220.734 197.12,-189.088"/>
<polygon fill="midnightblue" stroke="midnightblue" points="199.556,-191.607 204.751,-182.373 194.932,-186.352 199.556,-191.607"/>
</g>
<!-- Node3&#45;&gt;Node2 -->
<g id="edge4" class="edge"><title>Node3&#45;&gt;Node2</title>
<path fill="none" stroke="midnightblue" d="M472.108,-287.194C487.802,-287.194 504.785,-287.194 520.599,-287.194"/>
<polygon fill="midnightblue" stroke="midnightblue" points="520.796,-290.694 530.796,-287.194 520.796,-283.694 520.796,-290.694"/>
</g>
<!-- Node4&#45;&gt;Node3 -->
<g id="edge6" class="edge"><title>Node4&#45;&gt;Node3</title>
<path fill="none" stroke="midnightblue" d="M236.701,-182.268C255.039,-203.116 290.933,-240.615 329,-262.194 333.228,-264.59 337.712,-266.782 342.317,-268.783"/>
<polygon fill="midnightblue" stroke="midnightblue" points="341.314,-272.152 351.898,-272.625 343.92,-265.654 341.314,-272.152"/>
</g>
<!-- Node5 -->
<g id="node6" class="node"><title>Node5</title>
<g id="a_node6"><a xlink:href="classtools.html#af43fc30ac740fa0fa1d773afb2538c8c" target="_top" xlink:title="Liste un fichier entre deux lignes données et sur une largeur donnée. ">
<polygon fill="white" stroke="black" points="371,-157.694 371,-176.694 453,-176.694 453,-157.694 371,-157.694"/>
<text text-anchor="middle" x="412" y="-164.694" font-family="Helvetica,sans-Serif" font-size="10.00">tools::readFile</text>
</a>
</g>
</g>
<!-- Node4&#45;&gt;Node5 -->
<g id="edge7" class="edge"><title>Node4&#45;&gt;Node5</title>
<path fill="none" stroke="midnightblue" d="M288.617,-167.194C312.221,-167.194 338.548,-167.194 360.719,-167.194"/>
<polygon fill="midnightblue" stroke="midnightblue" points="360.913,-170.694 370.913,-167.194 360.913,-163.694 360.913,-170.694"/>
</g>
<!-- Node6 -->
<g id="node7" class="node"><title>Node6</title>
<g id="a_node7"><a xlink:href="classcommon.html#a3149ba29e04e6e5f7f85a2894434bf9e" target="_top" xlink:title="Exporter les caractéristiques du contrôle dans le rapport : Siret, Budget, Employeur, Etablissement. ">
<polygon fill="white" stroke="black" points="329,-70.1936 329,-100.194 495,-100.194 495,-70.1936 329,-70.1936"/>
<text text-anchor="start" x="337" y="-88.1936" font-family="Helvetica,sans-Serif" font-size="10.00">common::exporter_identification</text>
<text text-anchor="middle" x="412" y="-77.1936" font-family="Helvetica,sans-Serif" font-size="10.00">_controle</text>
</a>
</g>
</g>
<!-- Node4&#45;&gt;Node6 -->
<g id="edge8" class="edge"><title>Node4&#45;&gt;Node6</title>
<path fill="none" stroke="midnightblue" d="M248.338,-152.151C269.186,-139.717 300.302,-122.213 329,-110.194 334.676,-107.817 340.657,-105.555 346.696,-103.434"/>
<polygon fill="midnightblue" stroke="midnightblue" points="347.849,-106.739 356.201,-100.22 345.606,-100.108 347.849,-106.739"/>
</g>
<!-- Node8 -->
<g id="node9" class="node"><title>Node8</title>
<g id="a_node9"><a xlink:href="classtools.html#a7cba03deaa6e1311c2d0e5fb9fdcfa5c" target="_top" xlink:title="Remplace des chaînes de caractères, lorsqu&#39;elles correspondent à une expression rationnelle, dans une chaîne de caractères donnée par une chaîne de caractères donnée. ">
<polygon fill="white" stroke="black" points="539,-15.6936 539,-34.6936 627,-34.6936 627,-15.6936 539,-15.6936"/>
<text text-anchor="middle" x="583" y="-22.6936" font-family="Helvetica,sans-Serif" font-size="10.00">tools::substituer</text>
</a>
</g>
</g>
<!-- Node4&#45;&gt;Node8 -->
<g id="edge14" class="edge"><title>Node4&#45;&gt;Node8</title>
<path fill="none" stroke="midnightblue" d="M229.471,-152.075C241.685,-120.892 274.466,-50.034 329,-22.1936 396.121,12.0728 486.905,-0.93652 539.491,-13.2462"/>
<polygon fill="midnightblue" stroke="midnightblue" points="538.936,-16.7134 549.481,-15.6846 540.596,-9.91302 538.936,-16.7134"/>
</g>
<!-- Node9 -->
<g id="node10" class="node"><title>Node9</title>
<g id="a_node10"><a xlink:href="classtools.html#a888a6211f6956005dba0132e1ee5fd92" target="_top" xlink:title="Renomme un fichier. ">
<polygon fill="white" stroke="black" points="366,-31.6936 366,-50.6936 458,-50.6936 458,-31.6936 366,-31.6936"/>
<text text-anchor="middle" x="412" y="-38.6936" font-family="Helvetica,sans-Serif" font-size="10.00">tools::renommer</text>
</a>
</g>
</g>
<!-- Node4&#45;&gt;Node9 -->
<g id="edge11" class="edge"><title>Node4&#45;&gt;Node9</title>
<path fill="none" stroke="midnightblue" d="M234.334,-152.123C251.264,-128.65 287.235,-83.6246 329,-60.1936 337.324,-55.5238 346.738,-52.0001 356.144,-49.3416"/>
<polygon fill="midnightblue" stroke="midnightblue" points="357.062,-52.7197 365.897,-46.8726 355.344,-45.9338 357.062,-52.7197"/>
</g>
<!-- Node10 -->
<g id="node11" class="node"><title>Node10</title>
<g id="a_node11"><a xlink:href="classtools.html#a995219ca14bd1ddcb10cb2a3fffed5a5" target="_top" xlink:title="Créer un fichier temporaire temp dans le répertoire racine et le remplit avec une chaîone de caractèr...">
<polygon fill="white" stroke="black" points="377.5,-119.694 377.5,-138.694 446.5,-138.694 446.5,-119.694 377.5,-119.694"/>
<text text-anchor="middle" x="412" y="-126.694" font-family="Helvetica,sans-Serif" font-size="10.00">tools::dump</text>
</a>
</g>
</g>
<!-- Node4&#45;&gt;Node10 -->
<g id="edge12" class="edge"><title>Node4&#45;&gt;Node10</title>
<path fill="none" stroke="midnightblue" d="M288.617,-154.063C314.642,-148.774 343.977,-142.813 367.402,-138.053"/>
<polygon fill="midnightblue" stroke="midnightblue" points="368.28,-141.446 377.383,-136.025 366.886,-134.586 368.28,-141.446"/>
</g>
<!-- Node11 -->
<g id="node12" class="node"><title>Node11</title>
<g id="a_node12"><a xlink:href="options_8cpp.html#aa5399073540b3e6a7a9d60a70ef4dd88" target="_top" xlink:title="regexp">
<polygon fill="white" stroke="black" points="387,-233.694 387,-252.694 437,-252.694 437,-233.694 387,-233.694"/>
<text text-anchor="middle" x="412" y="-240.694" font-family="Helvetica,sans-Serif" font-size="10.00">regexp</text>
</a>
</g>
</g>
<!-- Node4&#45;&gt;Node11 -->
<g id="edge15" class="edge"><title>Node4&#45;&gt;Node11</title>
<path fill="none" stroke="midnightblue" d="M247.312,-182.236C268.032,-195.015 299.521,-213.013 329,-224.194 344.32,-230.004 361.951,-234.37 376.929,-237.441"/>
<polygon fill="midnightblue" stroke="midnightblue" points="376.329,-240.89 386.813,-239.363 377.665,-234.019 376.329,-240.89"/>
</g>
<!-- Node12 -->
<g id="node13" class="node"><title>Node12</title>
<g id="a_node13"><a xlink:href="options_8cpp.html#aed1be66fe9ab34423b676aa409402c42" target="_top" xlink:title="rempl_str">
<polygon fill="white" stroke="black" points="381.5,-195.694 381.5,-214.694 442.5,-214.694 442.5,-195.694 381.5,-195.694"/>
<text text-anchor="middle" x="412" y="-202.694" font-family="Helvetica,sans-Serif" font-size="10.00">rempl_str</text>
</a>
</g>
</g>
<!-- Node4&#45;&gt;Node12 -->
<g id="edge16" class="edge"><title>Node4&#45;&gt;Node12</title>
<path fill="none" stroke="midnightblue" d="M288.617,-180.324C316.144,-185.918 347.375,-192.264 371.398,-197.146"/>
<polygon fill="midnightblue" stroke="midnightblue" points="370.723,-200.58 381.22,-199.142 372.117,-193.721 370.723,-200.58"/>
</g>
<!-- Node7 -->
<g id="node8" class="node"><title>Node7</title>
<g id="a_node8"><a xlink:href="class_hash.html#a9c6832c663082e153e74bf3fb0c5720a" target="_top" xlink:title="Hash::aplatir">
<polygon fill="white" stroke="black" points="545.5,-75.6936 545.5,-94.6936 620.5,-94.6936 620.5,-75.6936 545.5,-75.6936"/>
<text text-anchor="middle" x="583" y="-82.6936" font-family="Helvetica,sans-Serif" font-size="10.00">Hash::aplatir</text>
</a>
</g>
</g>
<!-- Node6&#45;&gt;Node7 -->
<g id="edge9" class="edge"><title>Node6&#45;&gt;Node7</title>
<path fill="none" stroke="midnightblue" d="M495.025,-85.1936C508.822,-85.1936 522.708,-85.1936 535.208,-85.1936"/>
<polygon fill="midnightblue" stroke="midnightblue" points="535.351,-88.6937 545.351,-85.1936 535.351,-81.6937 535.351,-88.6937"/>
</g>
<!-- Node6&#45;&gt;Node8 -->
<g id="edge10" class="edge"><title>Node6&#45;&gt;Node8</title>
<path fill="none" stroke="midnightblue" d="M464.838,-70.1329C474.895,-67.0018 485.316,-63.6106 495,-60.1936 513.436,-53.6887 533.718,-45.5857 550.058,-38.8149"/>
<polygon fill="midnightblue" stroke="midnightblue" points="551.794,-41.8829 559.671,-34.7975 549.095,-35.4242 551.794,-41.8829"/>
</g>
<!-- Node10&#45;&gt;Node2 -->
<g id="edge13" class="edge"><title>Node10&#45;&gt;Node2</title>
<path fill="none" stroke="midnightblue" d="M446.557,-131.075C462.443,-133.361 480.962,-138.18 495,-148.194 537.916,-178.807 564.265,-237.856 575.561,-268.189"/>
<polygon fill="midnightblue" stroke="midnightblue" points="572.272,-269.387 578.931,-277.627 578.864,-267.032 572.272,-269.387"/>
</g>
</g>
</svg>
        <g id="navigator" transform="translate(0 0)" fill="#404254">
                <rect fill="#f2f5e9" fill-opacity="0.5" stroke="#606060" stroke-width=".5" x="0" y="0" width="60" height="60"/>
                <use id="zoomplus" xlink:href="#zoomPlus" x="17" y="9" onmousedown="handleZoom(evt,'in')"/>
                <use id="zoomminus" xlink:href="#zoomMin" x="42" y="9" onmousedown="handleZoom(evt,'out')"/>
                <use id="reset" xlink:href="#resetDef" x="30" y="36" onmousedown="handleReset()"/>
                <g id="arrowUp" xlink:href="#dirArrow" transform="translate(30 24)" onmousedown="handlePan(0,-1)">
                  <use xlink:href="#rim" fill="#404040">
                        <set attributeName="fill" to="#808080" begin="arrowUp.mouseover" end="arrowUp.mouseout"/>
                  </use>
                  <path fill="none" stroke="white" stroke-width="1.5" d="M0,-3.0v7 M-2.5,-0.5L0,-3.0L2.5,-0.5"/>
                </g>
                <g id="arrowRight" xlink:href="#dirArrow" transform="rotate(90) translate(36 -43)" onmousedown="handlePan(1,0)">
                  <use xlink:href="#rim" fill="#404040">
                        <set attributeName="fill" to="#808080" begin="arrowRight.mouseover" end="arrowRight.mouseout"/>
                  </use>
                  <path fill="none" stroke="white" stroke-width="1.5" d="M0,-3.0v7 M-2.5,-0.5L0,-3.0L2.5,-0.5"/>
                </g>
                <g id="arrowDown" xlink:href="#dirArrow" transform="rotate(180) translate(-30 -48)" onmousedown="handlePan(0,1)">
                  <use xlink:href="#rim" fill="#404040">
                        <set attributeName="fill" to="#808080" begin="arrowDown.mouseover" end="arrowDown.mouseout"/>
                  </use>
                  <path fill="none" stroke="white" stroke-width="1.5" d="M0,-3.0v7 M-2.5,-0.5L0,-3.0L2.5,-0.5"/>
                </g>
                <g id="arrowLeft" xlink:href="#dirArrow" transform="rotate(270) translate(-36 17)" onmousedown="handlePan(-1,0)">
                  <use xlink:href="#rim" fill="#404040">
                        <set attributeName="fill" to="#808080" begin="arrowLeft.mouseover" end="arrowLeft.mouseout"/>
                  </use>
                  <path fill="none" stroke="white" stroke-width="1.5" d="M0,-3.0v7 M-2.5,-0.5L0,-3.0L2.5,-0.5"/>
                </g>
        </g>
        <svg viewBox="0 0 15 15" width="100%" height="30px" preserveAspectRatio="xMaxYMin meet">
         <g id="arrow_out" transform="scale(0.3 0.3)">
          <a xlink:href="classcode_page_a927a6bef8cac0406a49225bc72894a1f_cgraph_org.svg" target="_base">
           <rect id="button" ry="5" rx="5" y="6" x="6" height="38" width="38"
                fill="#f2f5e9" fill-opacity="0.5" stroke="#606060" stroke-width="1.0"/>
           <path id="arrow"
             d="M 11.500037,31.436501 C 11.940474,20.09759 22.043105,11.32322 32.158766,21.979434 L 37.068811,17.246167 C 37.068811,17.246167 37.088388,32 37.088388,32 L 22.160133,31.978069 C 22.160133,31.978069 26.997745,27.140456 26.997745,27.140456 C 18.528582,18.264221 13.291696,25.230495 11.500037,31.436501 z"
             style="fill:#404040;"/>
          </a>
         </g>
        </svg>
</svg>
