<?xml version="1.0" encoding="UTF-8" standalone="no"?>
<!DOCTYPE svg PUBLIC "-//W3C//DTD SVG 1.1//EN"
 "http://www.w3.org/Graphics/SVG/1.1/DTD/svg11.dtd">
<!-- Generated by graphviz version 2.40.1 (20161225.0304)
 -->
<!-- Title: tools::getDirectorySize Pages: 1 -->
<svg width="438pt" height="85pt"
 viewBox="0.00 0.00 438.00 85.00" xmlns="http://www.w3.org/2000/svg" xmlns:xlink="http://www.w3.org/1999/xlink">
<g id="graph0" class="graph" transform="scale(1 1) rotate(0) translate(4 81)">
<title>tools::getDirectorySize</title>
<polygon fill="#ffffff" stroke="transparent" points="-4,4 -4,-81 434,-81 434,4 -4,4"/>
<!-- Node97 -->
<g id="node1" class="node">
<title>Node97</title>
<polygon fill="#bfbfbf" stroke="#000000" points="0,-19.5 0,-38.5 116,-38.5 116,-19.5 0,-19.5"/>
<text text-anchor="middle" x="58" y="-26.5" font-family="Helvetica,sans-Serif" font-size="10.00" fill="#000000">tools::getDirectorySize</text>
</g>
<!-- Node98 -->
<g id="node2" class="node">
<title>Node98</title>
<g id="a_node2"><a xlink:href="classtools.html#ae23a9d29a31142e239d5d72e8201ebf4" target="_top" xlink:title="Sélectionne un répertoire et renvoie son chemin. ">
<polygon fill="#ffffff" stroke="#000000" points="157.5,-38.5 157.5,-57.5 262.5,-57.5 262.5,-38.5 157.5,-38.5"/>
<text text-anchor="middle" x="210" y="-45.5" font-family="Helvetica,sans-Serif" font-size="10.00" fill="#000000">tools::openDirDialog</text>
</a>
</g>
</g>
<!-- Node97&#45;&gt;Node98 -->
<g id="edge1" class="edge">
<title>Node97&#45;&gt;Node98</title>
<path fill="none" stroke="#191970" d="M126.4962,-37.562C136.7493,-38.8437 147.1864,-40.1483 157.0512,-41.3814"/>
<polygon fill="#191970" stroke="#191970" points="126.6894,-34.059 116.3325,-36.2916 125.8211,-41.005 126.6894,-34.059"/>
</g>
<!-- Node101 -->
<g id="node5" class="node">
<title>Node101</title>
<g id="a_node5"><a xlink:href="class_altair.html#a16b8035c4383a789cd00b687fb105fe9" target="_top" xlink:title="Traitement de la fin de l&#39;exécution de lhx. ">
<polygon fill="#ffffff" stroke="#000000" points="152,-.5 152,-19.5 268,-19.5 268,-.5 152,-.5"/>
<text text-anchor="middle" x="210" y="-7.5" font-family="Helvetica,sans-Serif" font-size="10.00" fill="#000000">Altair::processFinished</text>
</a>
</g>
</g>
<!-- Node97&#45;&gt;Node101 -->
<g id="edge4" class="edge">
<title>Node97&#45;&gt;Node101</title>
<path fill="none" stroke="#191970" d="M126.264,-20.467C134.7979,-19.4003 143.4632,-18.3171 151.8236,-17.272"/>
<polygon fill="#191970" stroke="#191970" points="125.8211,-16.995 116.3325,-21.7084 126.6894,-23.941 125.8211,-16.995"/>
</g>
<!-- Node99 -->
<g id="node3" class="node">
<title>Node99</title>
<g id="a_node3"><a xlink:href="class_f_line_frame.html#a3ec64f9f592820ec86024f7cdf88a578" target="_top" xlink:title="FLineFrame::FLineFrame">
<polygon fill="#ffffff" stroke="#000000" points="304,-57.5 304,-76.5 430,-76.5 430,-57.5 304,-57.5"/>
<text text-anchor="middle" x="367" y="-64.5" font-family="Helvetica,sans-Serif" font-size="10.00" fill="#000000">FLineFrame::FLineFrame</text>
</a>
</g>
</g>
<!-- Node98&#45;&gt;Node99 -->
<g id="edge2" class="edge">
<title>Node98&#45;&gt;Node99</title>
<path fill="none" stroke="#191970" d="M272.7812,-55.5977C282.9975,-56.8341 293.5841,-58.1153 303.8101,-59.3528"/>
<polygon fill="#191970" stroke="#191970" points="273.0636,-52.1064 262.7155,-54.3796 272.2225,-59.0557 273.0636,-52.1064"/>
</g>
<!-- Node100 -->
<g id="node4" class="node">
<title>Node100</title>
<g id="a_node4"><a xlink:href="classtools.html#ac5f7b9c2e07af5dbb27169b256ac6300" target="_top" xlink:title="List un fichier entre deux lignes données et sur une largeur donnée. ">
<polygon fill="#ffffff" stroke="#000000" points="328,-19.5 328,-38.5 406,-38.5 406,-19.5 328,-19.5"/>
<text text-anchor="middle" x="367" y="-26.5" font-family="Helvetica,sans-Serif" font-size="10.00" fill="#000000">tools::readFile</text>
</a>
</g>
</g>
<!-- Node98&#45;&gt;Node100 -->
<g id="edge3" class="edge">
<title>Node98&#45;&gt;Node100</title>
<path fill="none" stroke="#191970" d="M272.833,-40.396C291.3177,-38.159 311.0106,-35.7758 327.5833,-33.7702"/>
<polygon fill="#191970" stroke="#191970" points="272.2225,-36.9443 262.7155,-41.6204 273.0636,-43.8936 272.2225,-36.9443"/>
</g>
</g>
</svg>
