<?xml version="1.0" encoding="UTF-8" standalone="no"?>
<!DOCTYPE svg PUBLIC "-//W3C//DTD SVG 1.1//EN"
 "http://www.w3.org/Graphics/SVG/1.1/DTD/svg11.dtd">
<!-- Generated by graphviz version 2.38.0 (20140413.2041)
 -->
<!-- Title: tools::unzip Pages: 1 -->
<svg width="379pt" height="75pt"
 viewBox="0.00 0.00 379.00 75.00" xmlns="http://www.w3.org/2000/svg" xmlns:xlink="http://www.w3.org/1999/xlink">
<g id="graph0" class="graph" transform="scale(1 1) rotate(0) translate(4 71)">
<title>tools::unzip</title>
<polygon fill="white" stroke="none" points="-4,4 -4,-71 375,-71 375,4 -4,4"/>
<!-- Node274 -->
<g id="node1" class="node"><title>Node274</title>
<polygon fill="#bfbfbf" stroke="black" points="0,-28.5 0,-47.5 68,-47.5 68,-28.5 0,-28.5"/>
<text text-anchor="middle" x="34" y="-35.5" font-family="Helvetica,sans-Serif" font-size="10.00">tools::unzip</text>
</g>
<!-- Node275 -->
<g id="node2" class="node"><title>Node275</title>
<g id="a_node2"><a xlink:href="classtools.html#ac5f7b9c2e07af5dbb27169b256ac6300" target="_top" xlink:title="List un fichier entre deux lignes données et sur une largeur donnée. ">
<polygon fill="white" stroke="black" points="255.5,-47.5 255.5,-66.5 337.5,-66.5 337.5,-47.5 255.5,-47.5"/>
<text text-anchor="middle" x="296.5" y="-54.5" font-family="Helvetica,sans-Serif" font-size="10.00">tools::readFile</text>
</a>
</g>
</g>
<!-- Node274&#45;&gt;Node275 -->
<g id="edge1" class="edge"><title>Node274&#45;&gt;Node275</title>
<path fill="none" stroke="midnightblue" d="M72.5814,-50.3122C82.6727,-53.0758 93.657,-55.602 104,-57 155.891,-64.0139 216.417,-62.3974 255.312,-60.1151"/>
<polygon fill="midnightblue" stroke="midnightblue" points="73.4231,-46.9124 62.8447,-47.5026 71.4823,-53.638 73.4231,-46.9124"/>
</g>
<!-- Node276 -->
<g id="node3" class="node"><title>Node276</title>
<g id="a_node3"><a xlink:href="class_main_window.html#ae11018a1c92bd7f20ff54a3f78eacb51" target="_top" xlink:title="Désarchiver le projet. ">
<polygon fill="white" stroke="black" points="222,-0.5 222,-19.5 371,-19.5 371,-0.5 222,-0.5"/>
<text text-anchor="middle" x="296.5" y="-7.5" font-family="Helvetica,sans-Serif" font-size="10.00">MainWindow::restoreProject</text>
</a>
</g>
</g>
<!-- Node274&#45;&gt;Node276 -->
<g id="edge2" class="edge"><title>Node274&#45;&gt;Node276</title>
<path fill="none" stroke="midnightblue" d="M74.0204,-25.6375C83.7234,-23.0132 94.1644,-20.5654 104,-19 142.622,-12.8531 186.133,-10.4529 221.908,-9.65491"/>
<polygon fill="midnightblue" stroke="midnightblue" points="72.9019,-22.3164 64.2323,-28.4064 74.8075,-29.0521 72.9019,-22.3164"/>
</g>
<!-- Node277 -->
<g id="node4" class="node"><title>Node277</title>
<g id="a_node4"><a xlink:href="classtools.html#ae821185bfd6650842559ef2f9d92f1ac" target="_top" xlink:title="Décompresse l&#39;intégralité d&#39;un répertoire au format zip, et copie le dossier décompressé dans un chem...">
<polygon fill="white" stroke="black" points="104,-28.5 104,-47.5 186,-47.5 186,-28.5 104,-28.5"/>
<text text-anchor="middle" x="145" y="-35.5" font-family="Helvetica,sans-Serif" font-size="10.00">tools::unzipDir</text>
</a>
</g>
</g>
<!-- Node274&#45;&gt;Node277 -->
<g id="edge3" class="edge"><title>Node274&#45;&gt;Node277</title>
<path fill="none" stroke="midnightblue" d="M78.5309,-38C86.8077,-38 95.4367,-38 103.611,-38"/>
<polygon fill="midnightblue" stroke="midnightblue" points="78.2959,-34.5001 68.2959,-38 78.2958,-41.5001 78.2959,-34.5001"/>
</g>
<!-- Node277&#45;&gt;Node275 -->
<g id="edge4" class="edge"><title>Node277&#45;&gt;Node275</title>
<path fill="none" stroke="midnightblue" d="M196.173,-44.3765C215.427,-46.8235 237.13,-49.5817 255.326,-51.8943"/>
<polygon fill="midnightblue" stroke="midnightblue" points="196.425,-40.8804 186.063,-43.0917 195.542,-47.8246 196.425,-40.8804"/>
</g>
<!-- Node277&#45;&gt;Node276 -->
<g id="edge5" class="edge"><title>Node277&#45;&gt;Node276</title>
<path fill="none" stroke="midnightblue" d="M196.061,-28.624C211.682,-25.6984 228.922,-22.4694 244.599,-19.5333"/>
<polygon fill="midnightblue" stroke="midnightblue" points="195.248,-25.2153 186.063,-30.4965 196.537,-32.0957 195.248,-25.2153"/>
</g>
</g>
</svg>
