<?xml version="1.0" encoding="UTF-8" standalone="no"?>
<!DOCTYPE svg PUBLIC "-//W3C//DTD SVG 1.1//EN"
 "http://www.w3.org/Graphics/SVG/1.1/DTD/svg11.dtd">
<!-- Generated by graphviz version 2.38.0 (20140413.2041)
 -->
<!-- Title: FListWidget::FListWidget Pages: 1 -->
<svg width="295pt" height="104pt"
 viewBox="0.00 0.00 295.00 104.00" xmlns="http://www.w3.org/2000/svg" xmlns:xlink="http://www.w3.org/1999/xlink">
<g id="graph0" class="graph" transform="scale(1 1) rotate(0) translate(4 100)">
<title>FListWidget::FListWidget</title>
<polygon fill="white" stroke="none" points="-4,4 -4,-100 291,-100 291,4 -4,4"/>
<!-- Node0 -->
<g id="node1" class="node"><title>Node0</title>
<polygon fill="#bfbfbf" stroke="black" points="0,-38.5 0,-57.5 128,-57.5 128,-38.5 0,-38.5"/>
<text text-anchor="middle" x="64" y="-45.5" font-family="Helvetica,sans-Serif" font-size="10.00">FListWidget::FListWidget</text>
</g>
<!-- Node1 -->
<g id="node2" class="node"><title>Node1</title>
<g id="a_node2"><a xlink:href="templates_8h.html#af9e9a83f3128fefbef4968186ae6aa6b" target="_top" xlink:title="Crée une table de hachage entre deux listes de même longueur. ">
<polygon fill="white" stroke="black" points="192,-76.5 192,-95.5 259,-95.5 259,-76.5 192,-76.5"/>
<text text-anchor="middle" x="225.5" y="-83.5" font-family="Helvetica,sans-Serif" font-size="10.00">createHash</text>
</a>
</g>
</g>
<!-- Node0&#45;&gt;Node1 -->
<g id="edge1" class="edge"><title>Node0&#45;&gt;Node1</title>
<path fill="none" stroke="midnightblue" d="M105.249,-57.589C128.666,-63.1681 158.163,-70.1956 181.962,-75.8654"/>
<polygon fill="midnightblue" stroke="midnightblue" points="181.239,-79.2911 191.778,-78.2041 182.861,-72.4817 181.239,-79.2911"/>
</g>
<!-- Node2 -->
<g id="node3" class="node"><title>Node2</title>
<g id="a_node3"><a xlink:href="class_f_abstract_widget.html#a3b32ec392e44038aa0711ada82441d05" target="_top" xlink:title="FAbstractWidget::FCore">
<polygon fill="white" stroke="black" points="164,-38.5 164,-57.5 287,-57.5 287,-38.5 164,-38.5"/>
<text text-anchor="middle" x="225.5" y="-45.5" font-family="Helvetica,sans-Serif" font-size="10.00">FAbstractWidget::FCore</text>
</a>
</g>
</g>
<!-- Node0&#45;&gt;Node2 -->
<g id="edge2" class="edge"><title>Node0&#45;&gt;Node2</title>
<path fill="none" stroke="midnightblue" d="M128.039,-48C136.396,-48 145.01,-48 153.49,-48"/>
<polygon fill="midnightblue" stroke="midnightblue" points="153.741,-51.5001 163.741,-48 153.741,-44.5001 153.741,-51.5001"/>
</g>
<!-- Node3 -->
<g id="node4" class="node"><title>Node3</title>
<g id="a_node4"><a xlink:href="struct_abstract.html#af7b700041c9d75de3f642f15ece3e6ae" target="_top" xlink:title="Réinitialiser toutes les valeurs du de la table de hachage Hash::wrapper. ">
<polygon fill="white" stroke="black" points="185.5,-0.5 185.5,-19.5 265.5,-19.5 265.5,-0.5 185.5,-0.5"/>
<text text-anchor="middle" x="225.5" y="-7.5" font-family="Helvetica,sans-Serif" font-size="10.00">Abstract::initH</text>
</a>
</g>
</g>
<!-- Node0&#45;&gt;Node3 -->
<g id="edge3" class="edge"><title>Node0&#45;&gt;Node3</title>
<path fill="none" stroke="midnightblue" d="M105.249,-38.411C126.536,-33.3393 152.848,-27.0707 175.336,-21.7131"/>
<polygon fill="midnightblue" stroke="midnightblue" points="176.45,-25.0456 185.367,-19.3232 174.828,-18.2362 176.45,-25.0456"/>
</g>
</g>
</svg>
