<?xml version="1.0" encoding="UTF-8" standalone="no"?>
<!DOCTYPE svg PUBLIC "-//W3C//DTD SVG 1.1//EN"
 "http://www.w3.org/Graphics/SVG/1.1/DTD/svg11.dtd">
<!-- Generated by graphviz version 2.38.0 (20140413.2041)
 -->
<!-- Title: FListFrame::on_deleteItem_clicked Pages: 1 -->
<svg width="503pt" height="53pt"
 viewBox="0.00 0.00 503.00 52.50" xmlns="http://www.w3.org/2000/svg" xmlns:xlink="http://www.w3.org/1999/xlink">
<g id="graph0" class="graph" transform="scale(1 1) rotate(0) translate(4 48.5)">
<title>FListFrame::on_deleteItem_clicked</title>
<polygon fill="white" stroke="none" points="-4,4 -4,-48.5 499,-48.5 499,4 -4,4"/>
<!-- Node967 -->
<g id="node1" class="node"><title>Node967</title>
<polygon fill="#bfbfbf" stroke="black" points="0,-0.5 0,-30.5 141,-30.5 141,-0.5 0,-0.5"/>
<text text-anchor="start" x="8" y="-18.5" font-family="Helvetica,sans-Serif" font-size="10.00">FListFrame::on_deleteItem</text>
<text text-anchor="middle" x="70.5" y="-7.5" font-family="Helvetica,sans-Serif" font-size="10.00">_clicked</text>
</g>
<!-- Node968 -->
<g id="node2" class="node"><title>Node968</title>
<g id="a_node2"><a xlink:href="class_f_list_frame.html#a1fda46dc7cfe6a661d2e2d1c66638134" target="_top" xlink:title="FListFrame::deleteGroup">
<polygon fill="white" stroke="black" points="177,-25 177,-44 309,-44 309,-25 177,-25"/>
<text text-anchor="middle" x="243" y="-32" font-family="Helvetica,sans-Serif" font-size="10.00">FListFrame::deleteGroup</text>
</a>
</g>
</g>
<!-- Node967&#45;&gt;Node968 -->
<g id="edge1" class="edge"><title>Node967&#45;&gt;Node968</title>
<path fill="none" stroke="midnightblue" d="M141.341,-23.2828C149.71,-24.2154 158.283,-25.1709 166.725,-26.1116"/>
<polygon fill="midnightblue" stroke="midnightblue" points="166.607,-29.62 176.933,-27.2492 167.382,-22.6631 166.607,-29.62"/>
</g>
<!-- Node969 -->
<g id="node3" class="node"><title>Node969</title>
<g id="a_node3"><a xlink:href="class_f_list_frame.html#a356ad4309df1e931fb3ee12ad88054fb" target="_top" xlink:title="Actualise currentWidget, row et currentIndex. ">
<polygon fill="white" stroke="black" points="345,-6 345,-25 495,-25 495,-6 345,-6"/>
<text text-anchor="middle" x="420" y="-13" font-family="Helvetica,sans-Serif" font-size="10.00">FListFrame::updateIndexInfo</text>
</a>
</g>
</g>
<!-- Node967&#45;&gt;Node969 -->
<g id="edge3" class="edge"><title>Node967&#45;&gt;Node969</title>
<path fill="none" stroke="midnightblue" d="M141.404,-15.5C197.142,-15.5 275.401,-15.5 334.624,-15.5"/>
<polygon fill="midnightblue" stroke="midnightblue" points="334.704,-19.0001 344.704,-15.5 334.704,-12.0001 334.704,-19.0001"/>
</g>
<!-- Node968&#45;&gt;Node969 -->
<g id="edge2" class="edge"><title>Node968&#45;&gt;Node969</title>
<path fill="none" stroke="midnightblue" d="M309.164,-27.4251C317.545,-26.5151 326.22,-25.5733 334.851,-24.6362"/>
<polygon fill="midnightblue" stroke="midnightblue" points="335.379,-28.0995 344.943,-23.5405 334.623,-21.1404 335.379,-28.0995"/>
</g>
</g>
</svg>
