<?xml version="1.0" encoding="UTF-8" standalone="no"?>
<!DOCTYPE svg PUBLIC "-//W3C//DTD SVG 1.1//EN"
 "http://www.w3.org/Graphics/SVG/1.1/DTD/svg11.dtd">
<!-- Generated by graphviz version 2.38.0 (20140413.2041)
 -->
<!-- Title: MainWindow::resetExtractionBulletins Pages: 1 -->
<svg width="456pt" height="39pt"
 viewBox="0.00 0.00 456.00 39.00" xmlns="http://www.w3.org/2000/svg" xmlns:xlink="http://www.w3.org/1999/xlink">
<g id="graph0" class="graph" transform="scale(1 1) rotate(0) translate(4 35)">
<title>MainWindow::resetExtractionBulletins</title>
<polygon fill="white" stroke="none" points="-4,4 -4,-35 452,-35 452,4 -4,4"/>
<!-- Node273 -->
<g id="node1" class="node"><title>Node273</title>
<polygon fill="#bfbfbf" stroke="black" points="0,-0.5 0,-30.5 153,-30.5 153,-0.5 0,-0.5"/>
<text text-anchor="start" x="8" y="-18.5" font-family="Helvetica,sans-Serif" font-size="10.00">MainWindow::resetExtraction</text>
<text text-anchor="middle" x="76.5" y="-7.5" font-family="Helvetica,sans-Serif" font-size="10.00">Bulletins</text>
</g>
<!-- Node274 -->
<g id="node2" class="node"><title>Node274</title>
<g id="a_node2"><a xlink:href="class_matricule_input.html#a1b9d9f0c939a200f2643958749f7ec42" target="_top" xlink:title="Réinitialisation de tous les champs. ">
<polygon fill="white" stroke="black" points="189,-6 189,-25 299,-25 299,-6 189,-6"/>
<text text-anchor="middle" x="244" y="-13" font-family="Helvetica,sans-Serif" font-size="10.00">MatriculeInput::clear</text>
</a>
</g>
</g>
<!-- Node273&#45;&gt;Node274 -->
<g id="edge1" class="edge"><title>Node273&#45;&gt;Node274</title>
<path fill="none" stroke="midnightblue" d="M153.469,-15.5C161.833,-15.5 170.291,-15.5 178.497,-15.5"/>
<polygon fill="midnightblue" stroke="midnightblue" points="178.73,-19.0001 188.73,-15.5 178.73,-12.0001 178.73,-19.0001"/>
</g>
<!-- Node275 -->
<g id="node3" class="node"><title>Node275</title>
<g id="a_node3"><a xlink:href="class_f_line_frame.html#a532228c9d7ad141dda66d081df38b48a" target="_top" xlink:title="Accesseur en écriture : édite le texte de la ligne. ">
<polygon fill="white" stroke="black" points="335,-6 335,-25 448,-25 448,-6 335,-6"/>
<text text-anchor="middle" x="391.5" y="-13" font-family="Helvetica,sans-Serif" font-size="10.00">FLineFrame::setText</text>
</a>
</g>
</g>
<!-- Node274&#45;&gt;Node275 -->
<g id="edge2" class="edge"><title>Node274&#45;&gt;Node275</title>
<path fill="none" stroke="midnightblue" d="M299.179,-15.5C307.45,-15.5 316.065,-15.5 324.555,-15.5"/>
<polygon fill="midnightblue" stroke="midnightblue" points="324.818,-19.0001 334.818,-15.5 324.818,-12.0001 324.818,-19.0001"/>
</g>
</g>
</svg>
