<?xml version="1.0" encoding="UTF-8" standalone="no"?>
<!DOCTYPE svg PUBLIC "-//W3C//DTD SVG 1.1//EN"
 "http://www.w3.org/Graphics/SVG/1.1/DTD/svg11.dtd">
<!-- Generated by graphviz version 2.38.0 (20140413.2041)
 -->
<!-- Title: tools::readFile Pages: 1 -->
<svg width="456pt" height="176pt"
 viewBox="0.00 0.00 456.00 176.00" xmlns="http://www.w3.org/2000/svg" xmlns:xlink="http://www.w3.org/1999/xlink">
<g id="graph0" class="graph" transform="scale(1 1) rotate(0) translate(4 172)">
<title>tools::readFile</title>
<polygon fill="white" stroke="none" points="-4,4 -4,-172 452,-172 452,4 -4,4"/>
<!-- Node114 -->
<g id="node1" class="node"><title>Node114</title>
<polygon fill="#bfbfbf" stroke="black" points="0,-77 0,-96 78,-96 78,-77 0,-77"/>
<text text-anchor="middle" x="39" y="-84" font-family="Helvetica,sans-Serif" font-size="10.00">tools::readFile</text>
</g>
<!-- Node115 -->
<g id="node2" class="node"><title>Node115</title>
<g id="a_node2"><a xlink:href="classcommon.html#a7900f8a5d7ebd42770ce8c366dd4b933" target="_top" xlink:title="Exporter les caractéristiques du contrôle dans le rapport : Siret, Budget, Employeur, Etablissement. ">
<polygon fill="white" stroke="black" points="114,-137.5 114,-167.5 269,-167.5 269,-137.5 114,-137.5"/>
<text text-anchor="start" x="122" y="-155.5" font-family="Helvetica,sans-Serif" font-size="10.00">common::exporter_identification</text>
<text text-anchor="middle" x="191.5" y="-144.5" font-family="Helvetica,sans-Serif" font-size="10.00">_controle</text>
</a>
</g>
</g>
<!-- Node114&#45;&gt;Node115 -->
<g id="edge1" class="edge"><title>Node114&#45;&gt;Node115</title>
<path fill="none" stroke="midnightblue" d="M63.8119,-101.213C78.037,-109.614 96.6589,-119.944 114,-127.5 122.198,-131.072 131.078,-134.42 139.787,-137.434"/>
<polygon fill="midnightblue" stroke="midnightblue" points="65.5322,-98.1639 55.1565,-96.02 61.9306,-104.166 65.5322,-98.1639"/>
</g>
<!-- Node116 -->
<g id="node3" class="node"><title>Node116</title>
<g id="a_node3"><a xlink:href="classtools.html#a13fc801ee004227bea7e8d1602b04d26" target="_top" xlink:title="tools::readFile">
<polygon fill="white" stroke="black" points="152.5,-99 152.5,-118 230.5,-118 230.5,-99 152.5,-99"/>
<text text-anchor="middle" x="191.5" y="-106" font-family="Helvetica,sans-Serif" font-size="10.00">tools::readFile</text>
</a>
</g>
</g>
<!-- Node114&#45;&gt;Node116 -->
<g id="edge2" class="edge"><title>Node114&#45;&gt;Node116</title>
<path fill="none" stroke="midnightblue" d="M88.2767,-93.5571C109.048,-96.5935 132.98,-100.092 152.464,-102.94"/>
<polygon fill="midnightblue" stroke="midnightblue" points="88.768,-90.0918 78.3669,-92.1085 87.7555,-97.0182 88.768,-90.0918"/>
</g>
<!-- Node117 -->
<g id="node4" class="node"><title>Node117</title>
<g id="a_node4"><a xlink:href="classcode_page.html#a7f3fcb4b6f622b1c11a7b39e245b76b6" target="_top" xlink:title="codePage::substituer\l_valeurs_dans_script_R">
<polygon fill="white" stroke="black" points="130.5,-49.5 130.5,-79.5 252.5,-79.5 252.5,-49.5 130.5,-49.5"/>
<text text-anchor="start" x="138.5" y="-67.5" font-family="Helvetica,sans-Serif" font-size="10.00">codePage::substituer</text>
<text text-anchor="middle" x="191.5" y="-56.5" font-family="Helvetica,sans-Serif" font-size="10.00">_valeurs_dans_script_R</text>
</a>
</g>
</g>
<!-- Node114&#45;&gt;Node117 -->
<g id="edge3" class="edge"><title>Node114&#45;&gt;Node117</title>
<path fill="none" stroke="midnightblue" d="M88.2941,-79.4404C101.652,-77.4877 116.317,-75.3441 130.264,-73.3053"/>
<polygon fill="midnightblue" stroke="midnightblue" points="87.7555,-75.9818 78.3669,-80.8915 88.768,-82.9082 87.7555,-75.9818"/>
</g>
<!-- Node119 -->
<g id="node6" class="node"><title>Node119</title>
<g id="a_node6"><a xlink:href="classstandard_page.html#abb37a1fff677f91ad2418b07593aa40d" target="_top" xlink:title="Exporter le versant FPH ou FPT dans le script R pour générer les tests adéquats. ">
<polygon fill="white" stroke="black" points="129,-0.5 129,-30.5 254,-30.5 254,-0.5 129,-0.5"/>
<text text-anchor="start" x="137" y="-18.5" font-family="Helvetica,sans-Serif" font-size="10.00">standardPage::substituer</text>
<text text-anchor="middle" x="191.5" y="-7.5" font-family="Helvetica,sans-Serif" font-size="10.00">_versant</text>
</a>
</g>
</g>
<!-- Node114&#45;&gt;Node119 -->
<g id="edge5" class="edge"><title>Node114&#45;&gt;Node119</title>
<path fill="none" stroke="midnightblue" d="M61.9744,-70.886C76.2961,-61.2102 95.6657,-49.0422 114,-40.5 121.852,-36.8414 130.388,-33.4886 138.816,-30.508"/>
<polygon fill="midnightblue" stroke="midnightblue" points="59.6053,-68.2677 53.3535,-76.8214 63.5749,-74.0333 59.6053,-68.2677"/>
</g>
<!-- Node118 -->
<g id="node5" class="node"><title>Node118</title>
<g id="a_node5"><a xlink:href="classcode_page.html#a927a6bef8cac0406a49225bc72894a1f" target="_top" xlink:title="Constructeur du dialogue &quot;Code de paye des tests&quot;. ">
<polygon fill="white" stroke="black" points="321.5,-55 321.5,-74 431.5,-74 431.5,-55 321.5,-55"/>
<text text-anchor="middle" x="376.5" y="-62" font-family="Helvetica,sans-Serif" font-size="10.00">codePage::codePage</text>
</a>
</g>
</g>
<!-- Node117&#45;&gt;Node118 -->
<g id="edge4" class="edge"><title>Node117&#45;&gt;Node118</title>
<path fill="none" stroke="midnightblue" d="M262.72,-64.5C282.207,-64.5 303.056,-64.5 321.462,-64.5"/>
<polygon fill="midnightblue" stroke="midnightblue" points="262.675,-61.0001 252.675,-64.5 262.674,-68.0001 262.675,-61.0001"/>
</g>
<!-- Node120 -->
<g id="node7" class="node"><title>Node120</title>
<g id="a_node7"><a xlink:href="classstandard_page.html#a95b9887a321f29e844fd314048585cee" target="_top" xlink:title="Constructeur de l&#39;onglet &quot;Format des bases&quot;. ">
<polygon fill="white" stroke="black" points="305,-6 305,-25 448,-25 448,-6 305,-6"/>
<text text-anchor="middle" x="376.5" y="-13" font-family="Helvetica,sans-Serif" font-size="10.00">standardPage::standardPage</text>
</a>
</g>
</g>
<!-- Node119&#45;&gt;Node120 -->
<g id="edge6" class="edge"><title>Node119&#45;&gt;Node120</title>
<path fill="none" stroke="midnightblue" d="M264.283,-15.5C277.643,-15.5 291.593,-15.5 304.918,-15.5"/>
<polygon fill="midnightblue" stroke="midnightblue" points="264.2,-12.0001 254.2,-15.5 264.2,-19.0001 264.2,-12.0001"/>
</g>
</g>
</svg>
