<?xml version="1.0" encoding="UTF-8" standalone="no"?>
<!DOCTYPE svg PUBLIC "-//W3C//DTD SVG 1.1//EN"
 "http://www.w3.org/Graphics/SVG/1.1/DTD/svg11.dtd">
<!-- Generated by graphviz version 2.38.0 (20140413.2041)
 -->
<!-- Title: Altair::parseEntry Pages: 1 -->
<!--zoomable 394 -->
<svg id="main" version="1.1" xmlns="http://www.w3.org/2000/svg" xmlns:xlink="http://www.w3.org/1999/xlink" xml:space="preserve" onload="init(evt)">
<style type="text/css"><![CDATA[
.edge:hover path { stroke: red; }
.edge:hover polygon { stroke: red; fill: red; }
]]></style>
<script type="text/javascript"><![CDATA[
var edges = document.getElementsByTagName('g');
if (edges && edges.length) {
  for (var i=0;i<edges.length;i++) {
    if (edges[i].id.substr(0,4)=='edge') {
      edges[i].setAttribute('class','edge');
    }
  }
}
]]></script>
        <defs>
                <circle id="rim" cx="0" cy="0" r="7"/>
                <circle id="rim2" cx="0" cy="0" r="3.5"/>
                <g id="zoomPlus">
                        <use xlink:href="#rim" fill="#404040">
                                <set attributeName="fill" to="#808080" begin="zoomplus.mouseover" end="zoomplus.mouseout"/>
                        </use>
                        <path d="M-4,0h8M0,-4v8" fill="none" stroke="white" stroke-width="1.5" pointer-events="none"/>
                </g>
                <g id="zoomMin">
                        <use xlink:href="#rim" fill="#404040">
                                <set attributeName="fill" to="#808080" begin="zoomminus.mouseover" end="zoomminus.mouseout"/>
                        </use>
                        <path d="M-4,0h8" fill="none" stroke="white" stroke-width="1.5" pointer-events="none"/>
                </g>
                <g id="dirArrow">
                        <path fill="none" stroke="white" stroke-width="1.5" d="M0,-3.0v7 M-2.5,-0.5L0,-3.0L2.5,-0.5"/>
                </g>
               <g id="resetDef">
                       <use xlink:href="#rim2" fill="#404040">
                               <set attributeName="fill" to="#808080" begin="reset.mouseover" end="reset.mouseout"/>
                       </use>
               </g>
        </defs>

<script type="text/javascript">
var viewWidth = 1130;
var viewHeight = 394;
var sectionId = 'dynsection-39';
</script>
<script xlink:href="svgpan.js"/>
<svg id="graph" class="graph">
<g id="viewport">
<title>Altair::parseEntry</title>
<polygon fill="white" stroke="none" points="-4,4 -4,-389.5 1126,-389.5 1126,4 -4,4"/>
<!-- Node540 -->
<g id="node1" class="node"><title>Node540</title>
<polygon fill="#bfbfbf" stroke="black" points="0,-208.5 0,-227.5 92,-227.5 92,-208.5 0,-208.5"/>
<text text-anchor="middle" x="46" y="-215.5" font-family="Helvetica,sans-Serif" font-size="10.00">Altair::parseEntry</text>
</g>
<!-- Node541 -->
<g id="node2" class="node"><title>Node541</title>
<g id="a_node2"><a xlink:href="class_altair.html#a41b6c8a35ed8ba14c7c0ce2e6994655f" target="_top" xlink:title="Décode le projet représenté par un pointeur vers QFile ou similaire. ">
<polygon fill="white" stroke="black" points="128,-208.5 128,-227.5 244,-227.5 244,-208.5 128,-208.5"/>
<text text-anchor="middle" x="186" y="-215.5" font-family="Helvetica,sans-Serif" font-size="10.00">Altair::parseProjectFile</text>
</a>
</g>
</g>
<!-- Node540&#45;&gt;Node541 -->
<g id="edge1" class="edge"><title>Node540&#45;&gt;Node541</title>
<path fill="none" stroke="midnightblue" d="M102.212,-218C110.574,-218 119.218,-218 127.625,-218"/>
<polygon fill="midnightblue" stroke="midnightblue" points="102.186,-214.5 92.1864,-218 102.186,-221.5 102.186,-214.5"/>
</g>
<!-- Node542 -->
<g id="node3" class="node"><title>Node542</title>
<g id="a_node3"><a xlink:href="class_altair.html#ac9d7d8e7cebf70212818f1a8ba7d7d78" target="_top" xlink:title="Rafraîchit le gestionnaire de projet à la droite de l&#39;interface. Fonction globale par défaut...">
<polygon fill="white" stroke="black" points="280,-208.5 280,-227.5 423,-227.5 423,-208.5 280,-208.5"/>
<text text-anchor="middle" x="351.5" y="-215.5" font-family="Helvetica,sans-Serif" font-size="10.00">Altair::refreshProjectManager</text>
</a>
</g>
</g>
<!-- Node541&#45;&gt;Node542 -->
<g id="edge2" class="edge"><title>Node541&#45;&gt;Node542</title>
<path fill="none" stroke="midnightblue" d="M254.321,-218C262.737,-218 271.365,-218 279.83,-218"/>
<polygon fill="midnightblue" stroke="midnightblue" points="254.184,-214.5 244.184,-218 254.184,-221.5 254.184,-214.5"/>
</g>
<!-- Node543 -->
<g id="node4" class="node"><title>Node543</title>
<g id="a_node4"><a xlink:href="class_altair.html#acaa583766e1c062ea311847fcdd35374" target="_top" xlink:title="Efface les onglets, le gestionnaire de projet et lit le projet .alt en cours. ">
<polygon fill="white" stroke="black" points="459,-254 459,-284 581,-284 581,-254 459,-254"/>
<text text-anchor="start" x="467" y="-272" font-family="Helvetica,sans-Serif" font-size="10.00">Altair::clearInterfaceAnd</text>
<text text-anchor="middle" x="520" y="-261" font-family="Helvetica,sans-Serif" font-size="10.00">ParseProject</text>
</a>
</g>
</g>
<!-- Node542&#45;&gt;Node543 -->
<g id="edge3" class="edge"><title>Node542&#45;&gt;Node543</title>
<path fill="none" stroke="midnightblue" d="M393.632,-230.599C416.682,-237.659 445.58,-246.511 469.82,-253.936"/>
<polygon fill="midnightblue" stroke="midnightblue" points="394.404,-227.175 383.817,-227.593 392.354,-233.868 394.404,-227.175"/>
</g>
<!-- Node547 -->
<g id="node8" class="node"><title>Node547</title>
<g id="a_node8"><a xlink:href="class_altair.html#a2eb0a89c3223b2df1c01d2b3b7d1c0eb" target="_top" xlink:title="Rafraichir le projet .alt après avoir actualisé l&#39;interface. ">
<polygon fill="white" stroke="black" points="467.5,-158.5 467.5,-177.5 572.5,-177.5 572.5,-158.5 467.5,-158.5"/>
<text text-anchor="middle" x="520" y="-165.5" font-family="Helvetica,sans-Serif" font-size="10.00">Altair::updateProject</text>
</a>
</g>
</g>
<!-- Node542&#45;&gt;Node547 -->
<g id="edge7" class="edge"><title>Node542&#45;&gt;Node547</title>
<path fill="none" stroke="midnightblue" d="M393.996,-205.539C422.822,-196.882 460.661,-185.519 487.126,-177.572"/>
<polygon fill="midnightblue" stroke="midnightblue" points="392.78,-202.249 384.209,-208.478 394.793,-208.954 392.78,-202.249"/>
</g>
<!-- Node544 -->
<g id="node5" class="node"><title>Node544</title>
<g id="a_node5"><a xlink:href="class_altair.html#aa341707131924eff160bcab41422d1ec" target="_top" xlink:title="Code commun à différentes fonctions lancées pour l&#39;analyse des projets. ">
<polygon fill="white" stroke="black" points="617,-316.5 617,-335.5 793,-335.5 793,-316.5 617,-316.5"/>
<text text-anchor="middle" x="705" y="-323.5" font-family="Helvetica,sans-Serif" font-size="10.00">Altair::openProjectFileCommonCode</text>
</a>
</g>
</g>
<!-- Node543&#45;&gt;Node544 -->
<g id="edge4" class="edge"><title>Node543&#45;&gt;Node544</title>
<path fill="none" stroke="midnightblue" d="M572.56,-287.38C586.891,-292.309 602.5,-297.513 617,-302 633.465,-307.096 651.843,-312.243 667.45,-316.457"/>
<polygon fill="midnightblue" stroke="midnightblue" points="573.467,-283.99 562.872,-284.023 571.175,-290.605 573.467,-283.99"/>
</g>
<!-- Node545 -->
<g id="node6" class="node"><title>Node545</title>
<g id="a_node6"><a xlink:href="class_altair.html#ab98d384297c6b94ff65a683eb5f99633" target="_top" xlink:title="Ouvre le projet, le décode en appelant parseProjectFile et actualise l&#39;interface &#160;en conséquence...">
<polygon fill="white" stroke="black" points="829,-355 829,-385 970,-385 970,-355 829,-355"/>
<text text-anchor="start" x="837" y="-373" font-family="Helvetica,sans-Serif" font-size="10.00">Altair::on_openProjectButton</text>
<text text-anchor="middle" x="899.5" y="-362" font-family="Helvetica,sans-Serif" font-size="10.00">_clicked</text>
</a>
</g>
</g>
<!-- Node544&#45;&gt;Node545 -->
<g id="edge5" class="edge"><title>Node544&#45;&gt;Node545</title>
<path fill="none" stroke="midnightblue" d="M757.683,-337.813C780.711,-343.077 808.109,-349.339 832.589,-354.935"/>
<polygon fill="midnightblue" stroke="midnightblue" points="758.298,-334.364 747.77,-335.547 756.738,-341.188 758.298,-334.364"/>
</g>
<!-- Node546 -->
<g id="node7" class="node"><title>Node546</title>
<g id="a_node7"><a xlink:href="class_altair.html#a84cf34107cd413ab33800b583bdef59e" target="_top" xlink:title="Ouvre le projet .alt et décode le projet pour actualiser l&#39;interface. ">
<polygon fill="white" stroke="black" points="843,-316.5 843,-335.5 956,-335.5 956,-316.5 843,-316.5"/>
<text text-anchor="middle" x="899.5" y="-323.5" font-family="Helvetica,sans-Serif" font-size="10.00">Altair::openProjectFile</text>
</a>
</g>
</g>
<!-- Node544&#45;&gt;Node546 -->
<g id="edge6" class="edge"><title>Node544&#45;&gt;Node546</title>
<path fill="none" stroke="midnightblue" d="M803.572,-326C817.1,-326 830.593,-326 842.982,-326"/>
<polygon fill="midnightblue" stroke="midnightblue" points="803.238,-322.5 793.238,-326 803.238,-329.5 803.238,-322.5"/>
</g>
<!-- Node548 -->
<g id="node9" class="node"><title>Node548</title>
<g id="a_node9"><a xlink:href="class_altair.html#ae0975ced0a36e0ed889ae06043a4df66" target="_top" xlink:title="Constructeur. ">
<polygon fill="white" stroke="black" points="865.5,-202.5 865.5,-221.5 933.5,-221.5 933.5,-202.5 865.5,-202.5"/>
<text text-anchor="middle" x="899.5" y="-209.5" font-family="Helvetica,sans-Serif" font-size="10.00">Altair::Altair</text>
</a>
</g>
</g>
<!-- Node547&#45;&gt;Node548 -->
<g id="edge8" class="edge"><title>Node547&#45;&gt;Node548</title>
<path fill="none" stroke="midnightblue" d="M539.123,-184.627C557.279,-200.063 586.797,-221.975 617,-231 703.824,-256.945 812.169,-235.469 865.587,-221.561"/>
<polygon fill="midnightblue" stroke="midnightblue" points="540.997,-181.615 531.17,-177.655 536.382,-186.879 540.997,-181.615"/>
</g>
<!-- Node549 -->
<g id="node10" class="node"><title>Node549</title>
<g id="a_node10"><a xlink:href="class_altair.html#ab913abfdd0c6fbbceb9a051a4443d5fa" target="_top" xlink:title="Supprimer un onglet central. ">
<polygon fill="white" stroke="black" points="656,-202.5 656,-221.5 754,-221.5 754,-202.5 656,-202.5"/>
<text text-anchor="middle" x="705" y="-209.5" font-family="Helvetica,sans-Serif" font-size="10.00">Altair::deleteGroup</text>
</a>
</g>
</g>
<!-- Node547&#45;&gt;Node549 -->
<g id="edge9" class="edge"><title>Node547&#45;&gt;Node549</title>
<path fill="none" stroke="midnightblue" d="M568.244,-180.001C583.761,-183.892 601.104,-188.186 617,-192 631.618,-195.507 647.649,-199.228 661.924,-202.497"/>
<polygon fill="midnightblue" stroke="midnightblue" points="568.895,-176.556 558.344,-177.511 567.188,-183.344 568.895,-176.556"/>
</g>
<!-- Node550 -->
<g id="node11" class="node"><title>Node550</title>
<g id="a_node11"><a xlink:href="class_altair.html#a299584936cc20c9a1451977264eba1f5" target="_top" xlink:title="Ecrase un item d&#39;un onglet donné ">
<polygon fill="white" stroke="black" points="651.5,-153 651.5,-183 758.5,-183 758.5,-153 651.5,-153"/>
<text text-anchor="start" x="659.5" y="-171" font-family="Helvetica,sans-Serif" font-size="10.00">Altair::on_deleteItem</text>
<text text-anchor="middle" x="705" y="-160" font-family="Helvetica,sans-Serif" font-size="10.00">_clicked</text>
</a>
</g>
</g>
<!-- Node547&#45;&gt;Node550 -->
<g id="edge11" class="edge"><title>Node547&#45;&gt;Node550</title>
<path fill="none" stroke="midnightblue" d="M583.245,-168C605.366,-168 630.037,-168 651.284,-168"/>
<polygon fill="midnightblue" stroke="midnightblue" points="582.951,-164.5 572.951,-168 582.951,-171.5 582.951,-164.5"/>
</g>
<!-- Node551 -->
<g id="node12" class="node"><title>Node551</title>
<g id="a_node12"><a xlink:href="class_altair.html#aab5da600c227ac7eb604fa24a9308d26" target="_top" xlink:title="Enregistre le projet .alt en actualisant projectName et l&#39;état de l&#39;interface &#160;. ">
<polygon fill="white" stroke="black" points="639.5,-114.5 639.5,-133.5 770.5,-133.5 770.5,-114.5 639.5,-114.5"/>
<text text-anchor="middle" x="705" y="-121.5" font-family="Helvetica,sans-Serif" font-size="10.00">Altair::requestSaveProject</text>
</a>
</g>
</g>
<!-- Node547&#45;&gt;Node551 -->
<g id="edge13" class="edge"><title>Node547&#45;&gt;Node551</title>
<path fill="none" stroke="midnightblue" d="M566.596,-155.731C582.51,-151.553 600.512,-146.946 617,-143 630.532,-139.762 645.302,-136.452 658.768,-133.521"/>
<polygon fill="midnightblue" stroke="midnightblue" points="565.252,-152.465 556.476,-158.402 567.038,-159.233 565.252,-152.465"/>
</g>
<!-- Node552 -->
<g id="node13" class="node"><title>Node552</title>
<g id="a_node13"><a xlink:href="class_altair.html#a1afa285a65e0bdff4c761ad05ec9f8df" target="_top" xlink:title="Fonction réimplémentée : fin du déplacement de la souris. ">
<polygon fill="white" stroke="black" points="660.5,-76.5 660.5,-95.5 749.5,-95.5 749.5,-76.5 660.5,-76.5"/>
<text text-anchor="middle" x="705" y="-83.5" font-family="Helvetica,sans-Serif" font-size="10.00">Altair::dropEvent</text>
</a>
</g>
</g>
<!-- Node547&#45;&gt;Node552 -->
<g id="edge14" class="edge"><title>Node547&#45;&gt;Node552</title>
<path fill="none" stroke="midnightblue" d="M540.596,-152.018C559.183,-137.646 588.443,-117.003 617,-105 630.54,-99.3092 646.011,-95.2255 660.116,-92.3399"/>
<polygon fill="midnightblue" stroke="midnightblue" points="538.296,-149.374 532.613,-158.315 542.632,-154.87 538.296,-149.374"/>
</g>
<!-- Node553 -->
<g id="node14" class="node"><title>Node553</title>
<g id="a_node14"><a xlink:href="classoptions.html#a52a9fb1d5bdb6ed104e700390b8c0208" target="_top" xlink:title="Constructeur de l&#39;onglet correspondant à un pointeur parent vers une instance de la classe Altair...">
<polygon fill="white" stroke="black" points="662,-38.5 662,-57.5 748,-57.5 748,-38.5 662,-38.5"/>
<text text-anchor="middle" x="705" y="-45.5" font-family="Helvetica,sans-Serif" font-size="10.00">options::options</text>
</a>
</g>
</g>
<!-- Node547&#45;&gt;Node553 -->
<g id="edge15" class="edge"><title>Node547&#45;&gt;Node553</title>
<path fill="none" stroke="midnightblue" d="M532.943,-149.918C549.145,-126.902 580.318,-87.6582 617,-67 630.606,-59.3378 647.017,-54.7641 661.904,-52.0346"/>
<polygon fill="midnightblue" stroke="midnightblue" points="529.886,-148.187 527.123,-158.416 535.662,-152.143 529.886,-148.187"/>
</g>
<!-- Node554 -->
<g id="node15" class="node"><title>Node554</title>
<g id="a_node15"><a xlink:href="class_altair.html#a08b5e402c9a694af09110afe33219080" target="_top" xlink:title="Construction de la ligne de commande pour des bases de paye dans un répertoire donné ...">
<polygon fill="white" stroke="black" points="660,-0.5 660,-19.5 750,-19.5 750,-0.5 660,-0.5"/>
<text text-anchor="middle" x="705" y="-7.5" font-family="Helvetica,sans-Serif" font-size="10.00">Altair::runWorker</text>
</a>
</g>
</g>
<!-- Node547&#45;&gt;Node554 -->
<g id="edge16" class="edge"><title>Node547&#45;&gt;Node554</title>
<path fill="none" stroke="midnightblue" d="M528.622,-148.911C541.815,-118.459 571.896,-59.2451 617,-29 629.584,-20.5618 645.282,-15.7998 659.867,-13.1359"/>
<polygon fill="midnightblue" stroke="midnightblue" points="525.288,-147.812 524.663,-158.388 531.747,-150.51 525.288,-147.812"/>
</g>
<!-- Node556 -->
<g id="node17" class="node"><title>Node556</title>
<g id="a_node17"><a xlink:href="class_altair.html#a7d10f8ecf4097577885172afb6c2e9c6" target="_top" xlink:title="Lance l&#39;exécution de l&#39;application en ligne de commande lhx. ">
<polygon fill="white" stroke="black" points="1034.5,-38.5 1034.5,-57.5 1093.5,-57.5 1093.5,-38.5 1034.5,-38.5"/>
<text text-anchor="middle" x="1064" y="-45.5" font-family="Helvetica,sans-Serif" font-size="10.00">Altair::run</text>
</a>
</g>
</g>
<!-- Node547&#45;&gt;Node556 -->
<g id="edge21" class="edge"><title>Node547&#45;&gt;Node556</title>
<path fill="none" stroke="midnightblue" d="M534.413,-185.472C551.174,-205.712 581.951,-237.949 617,-251 764.263,-305.834 840.892,-320.578 970,-231 1032.66,-187.525 1055.55,-88.8559 1061.37,-57.6503"/>
<polygon fill="midnightblue" stroke="midnightblue" points="537.104,-183.233 528.117,-177.622 531.644,-187.613 537.104,-183.233"/>
</g>
<!-- Node549&#45;&gt;Node548 -->
<g id="edge10" class="edge"><title>Node549&#45;&gt;Node548</title>
<path fill="none" stroke="midnightblue" d="M764.094,-212C797.175,-212 837.432,-212 865.215,-212"/>
<polygon fill="midnightblue" stroke="midnightblue" points="764.079,-208.5 754.079,-212 764.079,-215.5 764.079,-208.5"/>
</g>
<!-- Node550&#45;&gt;Node548 -->
<g id="edge12" class="edge"><title>Node550&#45;&gt;Node548</title>
<path fill="none" stroke="midnightblue" d="M768.407,-182.264C800.665,-189.638 838.734,-198.339 865.326,-204.417"/>
<polygon fill="midnightblue" stroke="midnightblue" points="769.13,-178.84 758.601,-180.023 767.57,-185.664 769.13,-178.84"/>
</g>
<!-- Node555 -->
<g id="node16" class="node"><title>Node555</title>
<g id="a_node16"><a xlink:href="class_altair.html#ae04f2a5771d47bbe2e0cc3a11b72d6bf" target="_top" xlink:title="Parcourt le répertoire en cours du mode distributif, un à chaque appel Exporte l&#39;identification dans ...">
<polygon fill="white" stroke="black" points="831,-0.5 831,-19.5 968,-19.5 968,-0.5 831,-0.5"/>
<text text-anchor="middle" x="899.5" y="-7.5" font-family="Helvetica,sans-Serif" font-size="10.00">Altair::runWorkerDistributed</text>
</a>
</g>
</g>
<!-- Node554&#45;&gt;Node555 -->
<g id="edge17" class="edge"><title>Node554&#45;&gt;Node555</title>
<path fill="none" stroke="midnightblue" d="M760.271,-10C782.166,-10 807.665,-10 830.758,-10"/>
<polygon fill="midnightblue" stroke="midnightblue" points="760.163,-6.5001 750.163,-10 760.163,-13.5001 760.163,-6.5001"/>
</g>
<!-- Node554&#45;&gt;Node556 -->
<g id="edge20" class="edge"><title>Node554&#45;&gt;Node556</title>
<path fill="none" stroke="midnightblue" d="M759.922,-19.1922C781.372,-22.623 806.306,-26.3294 829,-29 902.875,-37.6935 990.342,-43.648 1034.48,-46.3506"/>
<polygon fill="midnightblue" stroke="midnightblue" points="760.446,-15.7316 750.015,-17.5881 759.327,-22.6416 760.446,-15.7316"/>
</g>
<!-- Node555&#45;&gt;Node556 -->
<g id="edge18" class="edge"><title>Node555&#45;&gt;Node556</title>
<path fill="none" stroke="midnightblue" d="M951.307,-21.8811C978.648,-28.2745 1011.36,-35.9253 1034.3,-41.2884"/>
<polygon fill="midnightblue" stroke="midnightblue" points="952.04,-18.4581 941.506,-19.589 950.446,-25.2742 952.04,-18.4581"/>
</g>
<!-- Node557 -->
<g id="node18" class="node"><title>Node557</title>
<g id="a_node18"><a xlink:href="class_altair.html#a16b8035c4383a789cd00b687fb105fe9" target="_top" xlink:title="Traitement de la fin de l&#39;exécution de lhx. ">
<polygon fill="white" stroke="black" points="1006,-0.5 1006,-19.5 1122,-19.5 1122,-0.5 1006,-0.5"/>
<text text-anchor="middle" x="1064" y="-7.5" font-family="Helvetica,sans-Serif" font-size="10.00">Altair::processFinished</text>
</a>
</g>
</g>
<!-- Node555&#45;&gt;Node557 -->
<g id="edge19" class="edge"><title>Node555&#45;&gt;Node557</title>
<path fill="none" stroke="midnightblue" d="M978.081,-10C987.414,-10 996.812,-10 1005.78,-10"/>
<polygon fill="midnightblue" stroke="midnightblue" points="978.003,-6.5001 968.003,-10 978.003,-13.5001 978.003,-6.5001"/>
</g>
</g>
</svg>
        <g id="navigator" transform="translate(0 0)" fill="#404254">
                <rect fill="#f2f5e9" fill-opacity="0.5" stroke="#606060" stroke-width=".5" x="0" y="0" width="60" height="60"/>
                <use id="zoomplus" xlink:href="#zoomPlus" x="17" y="9" onmousedown="handleZoom(evt,'in')"/>
                <use id="zoomminus" xlink:href="#zoomMin" x="42" y="9" onmousedown="handleZoom(evt,'out')"/>
                <use id="reset" xlink:href="#resetDef" x="30" y="36" onmousedown="handleReset()"/>
                <g id="arrowUp" xlink:href="#dirArrow" transform="translate(30 24)" onmousedown="handlePan(0,-1)">
                  <use xlink:href="#rim" fill="#404040">
                        <set attributeName="fill" to="#808080" begin="arrowUp.mouseover" end="arrowUp.mouseout"/>
                  </use>
                  <path fill="none" stroke="white" stroke-width="1.5" d="M0,-3.0v7 M-2.5,-0.5L0,-3.0L2.5,-0.5"/>
                </g>
                <g id="arrowRight" xlink:href="#dirArrow" transform="rotate(90) translate(36 -43)" onmousedown="handlePan(1,0)">
                  <use xlink:href="#rim" fill="#404040">
                        <set attributeName="fill" to="#808080" begin="arrowRight.mouseover" end="arrowRight.mouseout"/>
                  </use>
                  <path fill="none" stroke="white" stroke-width="1.5" d="M0,-3.0v7 M-2.5,-0.5L0,-3.0L2.5,-0.5"/>
                </g>
                <g id="arrowDown" xlink:href="#dirArrow" transform="rotate(180) translate(-30 -48)" onmousedown="handlePan(0,1)">
                  <use xlink:href="#rim" fill="#404040">
                        <set attributeName="fill" to="#808080" begin="arrowDown.mouseover" end="arrowDown.mouseout"/>
                  </use>
                  <path fill="none" stroke="white" stroke-width="1.5" d="M0,-3.0v7 M-2.5,-0.5L0,-3.0L2.5,-0.5"/>
                </g>
                <g id="arrowLeft" xlink:href="#dirArrow" transform="rotate(270) translate(-36 17)" onmousedown="handlePan(-1,0)">
                  <use xlink:href="#rim" fill="#404040">
                        <set attributeName="fill" to="#808080" begin="arrowLeft.mouseover" end="arrowLeft.mouseout"/>
                  </use>
                  <path fill="none" stroke="white" stroke-width="1.5" d="M0,-3.0v7 M-2.5,-0.5L0,-3.0L2.5,-0.5"/>
                </g>
        </g>
        <svg viewBox="0 0 15 15" width="100%" height="30px" preserveAspectRatio="xMaxYMin meet">
         <g id="arrow_out" transform="scale(0.3 0.3)">
          <a xlink:href="class_altair_a3f6193de22ed2034c9b6dbe7a8ac4d97_icgraph_org.svg" target="_base">
           <rect id="button" ry="5" rx="5" y="6" x="6" height="38" width="38"
                fill="#f2f5e9" fill-opacity="0.5" stroke="#606060" stroke-width="1.0"/>
           <path id="arrow"
             d="M 11.500037,31.436501 C 11.940474,20.09759 22.043105,11.32322 32.158766,21.979434 L 37.068811,17.246167 C 37.068811,17.246167 37.088388,32 37.088388,32 L 22.160133,31.978069 C 22.160133,31.978069 26.997745,27.140456 26.997745,27.140456 C 18.528582,18.264221 13.291696,25.230495 11.500037,31.436501 z"
             style="fill:#404040;"/>
          </a>
         </g>
        </svg>
</svg>
