<?xml version="1.0" encoding="UTF-8" standalone="no"?>
<!DOCTYPE svg PUBLIC "-//W3C//DTD SVG 1.1//EN"
 "http://www.w3.org/Graphics/SVG/1.1/DTD/svg11.dtd">
<!-- Generated by graphviz version 2.38.0 (20140413.2041)
 -->
<!-- Title: options Pages: 1 -->
<svg width="200pt" height="777pt"
 viewBox="0.00 0.00 199.50 777.00" xmlns="http://www.w3.org/2000/svg" xmlns:xlink="http://www.w3.org/1999/xlink">
<g id="graph0" class="graph" transform="scale(1 1) rotate(0) translate(4 773)">
<title>options</title>
<polygon fill="white" stroke="none" points="-4,4 -4,-773 195.5,-773 195.5,4 -4,4"/>
<!-- Node0 -->
<g id="node1" class="node"><title>Node0</title>
<polygon fill="#bfbfbf" stroke="black" points="23,-0.5 23,-178.5 133,-178.5 133,-0.5 23,-0.5"/>
<text text-anchor="middle" x="78" y="-166.5" font-family="Helvetica,sans-Serif" font-size="10.00">options</text>
<polyline fill="none" stroke="black" points="23,-159.5 133,-159.5 "/>
<text text-anchor="start" x="31" y="-147.5" font-family="Helvetica,sans-Serif" font-size="10.00">+ codeTab</text>
<text text-anchor="start" x="31" y="-136.5" font-family="Helvetica,sans-Serif" font-size="10.00">+ optionWidget</text>
<text text-anchor="start" x="31" y="-125.5" font-family="Helvetica,sans-Serif" font-size="10.00">+ processTab</text>
<text text-anchor="start" x="31" y="-114.5" font-family="Helvetica,sans-Serif" font-size="10.00">+ standardTab</text>
<text text-anchor="start" x="31" y="-103.5" font-family="Helvetica,sans-Serif" font-size="10.00">+ RefreshFlag</text>
<text text-anchor="start" x="31" y="-92.5" font-family="Helvetica,sans-Serif" font-size="10.00">&#45; closeButton</text>
<text text-anchor="start" x="31" y="-81.5" font-family="Helvetica,sans-Serif" font-size="10.00">&#45; pagesWidget</text>
<polyline fill="none" stroke="black" points="23,-74.5 133,-74.5 "/>
<text text-anchor="start" x="31" y="-62.5" font-family="Helvetica,sans-Serif" font-size="10.00">+ options()</text>
<text text-anchor="start" x="31" y="-51.5" font-family="Helvetica,sans-Serif" font-size="10.00">+ clearOptionData()</text>
<text text-anchor="start" x="31" y="-40.5" font-family="Helvetica,sans-Serif" font-size="10.00">&#45; createIcon()</text>
<text text-anchor="start" x="31" y="-29.5" font-family="Helvetica,sans-Serif" font-size="10.00">&#45; createIcons()</text>
<text text-anchor="start" x="31" y="-18.5" font-family="Helvetica,sans-Serif" font-size="10.00">&#45; changePage()</text>
<text text-anchor="start" x="31" y="-7.5" font-family="Helvetica,sans-Serif" font-size="10.00">&#45; enchainerRapports()</text>
</g>
<!-- Node1 -->
<g id="node2" class="node"><title>Node1</title>
<polygon fill="white" stroke="#bfbfbf" points="0,-259.5 0,-316.5 52,-316.5 52,-259.5 0,-259.5"/>
<text text-anchor="middle" x="26" y="-304.5" font-family="Helvetica,sans-Serif" font-size="10.00">QDialog</text>
<polyline fill="none" stroke="#bfbfbf" points="0,-297.5 52,-297.5 "/>
<text text-anchor="middle" x="26" y="-285.5" font-family="Helvetica,sans-Serif" font-size="10.00"> </text>
<polyline fill="none" stroke="#bfbfbf" points="0,-278.5 52,-278.5 "/>
<text text-anchor="middle" x="26" y="-266.5" font-family="Helvetica,sans-Serif" font-size="10.00"> </text>
</g>
<!-- Node1&#45;&gt;Node0 -->
<g id="edge1" class="edge"><title>Node1&#45;&gt;Node0</title>
<path fill="none" stroke="midnightblue" d="M35.9124,-249.543C41.2564,-229.348 48.0942,-203.509 54.6974,-178.557"/>
<polygon fill="none" stroke="midnightblue" points="32.5148,-248.7 33.34,-259.263 39.2819,-250.491 32.5148,-248.7"/>
</g>
<!-- Node2 -->
<g id="node3" class="node"><title>Node2</title>
<g id="a_node3"><a xlink:href="classcommon.html" target="_top" xlink:title="Classe dérivée de la classe tools ajoutant des fonctionnalités de communication de l&#39;interface vers l...">
<polygon fill="white" stroke="black" points="70.5,-215.5 70.5,-360.5 191.5,-360.5 191.5,-215.5 70.5,-215.5"/>
<text text-anchor="middle" x="131" y="-348.5" font-family="Helvetica,sans-Serif" font-size="10.00">common</text>
<polyline fill="none" stroke="black" points="70.5,-341.5 191.5,-341.5 "/>
<text text-anchor="start" x="78.5" y="-329.5" font-family="Helvetica,sans-Serif" font-size="10.00">+ altairCommandStr</text>
<text text-anchor="start" x="78.5" y="-318.5" font-family="Helvetica,sans-Serif" font-size="10.00">+ execPath</text>
<text text-anchor="start" x="78.5" y="-307.5" font-family="Helvetica,sans-Serif" font-size="10.00">+ RAltairCommandStr</text>
<text text-anchor="start" x="78.5" y="-296.5" font-family="Helvetica,sans-Serif" font-size="10.00">+ RAltairDirStr</text>
<text text-anchor="start" x="78.5" y="-285.5" font-family="Helvetica,sans-Serif" font-size="10.00">+ sharedir</text>
<polyline fill="none" stroke="black" points="70.5,-278.5 191.5,-278.5 "/>
<text text-anchor="start" x="78.5" y="-266.5" font-family="Helvetica,sans-Serif" font-size="10.00">+ common()</text>
<text text-anchor="start" x="78.5" y="-255.5" font-family="Helvetica,sans-Serif" font-size="10.00">+ exporter_identification</text>
<text text-anchor="start" x="78.5" y="-244.5" font-family="Helvetica,sans-Serif" font-size="10.00">_controle()</text>
<text text-anchor="start" x="78.5" y="-233.5" font-family="Helvetica,sans-Serif" font-size="10.00">+ exporter_identification</text>
<text text-anchor="start" x="78.5" y="-222.5" font-family="Helvetica,sans-Serif" font-size="10.00">_controle()</text>
</a>
</g>
</g>
<!-- Node2&#45;&gt;Node0 -->
<g id="edge2" class="edge"><title>Node2&#45;&gt;Node0</title>
<path fill="none" stroke="midnightblue" d="M108.992,-205.403C106.623,-196.621 104.205,-187.657 101.817,-178.801"/>
<polygon fill="none" stroke="midnightblue" points="105.657,-206.481 111.641,-215.225 112.416,-204.658 105.657,-206.481"/>
</g>
<!-- Node3 -->
<g id="node4" class="node"><title>Node3</title>
<g id="a_node4"><a xlink:href="classtools.html" target="_top" xlink:title="{tools\n|+ systemPathPrefix\l+ userdatadir\l|+ tools()\l+ dump()\l+ getEmbeddedPath()\l+ readFile()\l+ readFile()\l+ readFile()\l+ readFile()\l+ renommer()\l+ substituer()\l+ cdRomMounted()\l+ copyDir()\l+ copyFile()\l+ generateDatadirPath()\l+ generateDatadirPath()\l+ getDirectorySize()\l+ getFileSize()\l+ IOControl()\l+ openDir()\l+ openDirDialog()\let 6 de plus...\l}">
<polygon fill="white" stroke="black" points="70.5,-397.5 70.5,-674.5 191.5,-674.5 191.5,-397.5 70.5,-397.5"/>
<text text-anchor="middle" x="131" y="-662.5" font-family="Helvetica,sans-Serif" font-size="10.00">tools</text>
<polyline fill="none" stroke="black" points="70.5,-655.5 191.5,-655.5 "/>
<text text-anchor="start" x="78.5" y="-643.5" font-family="Helvetica,sans-Serif" font-size="10.00">+ systemPathPrefix</text>
<text text-anchor="start" x="78.5" y="-632.5" font-family="Helvetica,sans-Serif" font-size="10.00">+ userdatadir</text>
<polyline fill="none" stroke="black" points="70.5,-625.5 191.5,-625.5 "/>
<text text-anchor="start" x="78.5" y="-613.5" font-family="Helvetica,sans-Serif" font-size="10.00">+ tools()</text>
<text text-anchor="start" x="78.5" y="-602.5" font-family="Helvetica,sans-Serif" font-size="10.00">+ dump()</text>
<text text-anchor="start" x="78.5" y="-591.5" font-family="Helvetica,sans-Serif" font-size="10.00">+ getEmbeddedPath()</text>
<text text-anchor="start" x="78.5" y="-580.5" font-family="Helvetica,sans-Serif" font-size="10.00">+ readFile()</text>
<text text-anchor="start" x="78.5" y="-569.5" font-family="Helvetica,sans-Serif" font-size="10.00">+ readFile()</text>
<text text-anchor="start" x="78.5" y="-558.5" font-family="Helvetica,sans-Serif" font-size="10.00">+ readFile()</text>
<text text-anchor="start" x="78.5" y="-547.5" font-family="Helvetica,sans-Serif" font-size="10.00">+ readFile()</text>
<text text-anchor="start" x="78.5" y="-536.5" font-family="Helvetica,sans-Serif" font-size="10.00">+ renommer()</text>
<text text-anchor="start" x="78.5" y="-525.5" font-family="Helvetica,sans-Serif" font-size="10.00">+ substituer()</text>
<text text-anchor="start" x="78.5" y="-514.5" font-family="Helvetica,sans-Serif" font-size="10.00">+ cdRomMounted()</text>
<text text-anchor="start" x="78.5" y="-503.5" font-family="Helvetica,sans-Serif" font-size="10.00">+ copyDir()</text>
<text text-anchor="start" x="78.5" y="-492.5" font-family="Helvetica,sans-Serif" font-size="10.00">+ copyFile()</text>
<text text-anchor="start" x="78.5" y="-481.5" font-family="Helvetica,sans-Serif" font-size="10.00">+ generateDatadirPath()</text>
<text text-anchor="start" x="78.5" y="-470.5" font-family="Helvetica,sans-Serif" font-size="10.00">+ generateDatadirPath()</text>
<text text-anchor="start" x="78.5" y="-459.5" font-family="Helvetica,sans-Serif" font-size="10.00">+ getDirectorySize()</text>
<text text-anchor="start" x="78.5" y="-448.5" font-family="Helvetica,sans-Serif" font-size="10.00">+ getFileSize()</text>
<text text-anchor="start" x="78.5" y="-437.5" font-family="Helvetica,sans-Serif" font-size="10.00">+ IOControl()</text>
<text text-anchor="start" x="78.5" y="-426.5" font-family="Helvetica,sans-Serif" font-size="10.00">+ openDir()</text>
<text text-anchor="start" x="78.5" y="-415.5" font-family="Helvetica,sans-Serif" font-size="10.00">+ openDirDialog()</text>
<text text-anchor="start" x="78.5" y="-404.5" font-family="Helvetica,sans-Serif" font-size="10.00">et 6 de plus...</text>
</a>
</g>
</g>
<!-- Node3&#45;&gt;Node2 -->
<g id="edge3" class="edge"><title>Node3&#45;&gt;Node2</title>
<path fill="none" stroke="midnightblue" d="M131,-387.251C131,-378.089 131,-369.118 131,-360.553"/>
<polygon fill="none" stroke="midnightblue" points="127.5,-387.257 131,-397.257 134.5,-387.257 127.5,-387.257"/>
</g>
<!-- Node4 -->
<g id="node5" class="node"><title>Node4</title>
<g id="a_node5"><a xlink:href="classflags.html" target="_top" xlink:title="{flags\n||}">
<polygon fill="white" stroke="black" points="112,-711.5 112,-768.5 150,-768.5 150,-711.5 112,-711.5"/>
<text text-anchor="middle" x="131" y="-756.5" font-family="Helvetica,sans-Serif" font-size="10.00">flags</text>
<polyline fill="none" stroke="black" points="112,-749.5 150,-749.5 "/>
<text text-anchor="middle" x="131" y="-737.5" font-family="Helvetica,sans-Serif" font-size="10.00"> </text>
<polyline fill="none" stroke="black" points="112,-730.5 150,-730.5 "/>
<text text-anchor="middle" x="131" y="-718.5" font-family="Helvetica,sans-Serif" font-size="10.00"> </text>
</a>
</g>
</g>
<!-- Node4&#45;&gt;Node3 -->
<g id="edge4" class="edge"><title>Node4&#45;&gt;Node3</title>
<path fill="none" stroke="midnightblue" d="M131,-701.265C131,-693.182 131,-684.193 131,-674.704"/>
<polygon fill="none" stroke="midnightblue" points="127.5,-701.336 131,-711.336 134.5,-701.336 127.5,-701.336"/>
</g>
</g>
</svg>
