<?xml version="1.0" encoding="UTF-8" standalone="no"?>
<!DOCTYPE svg PUBLIC "-//W3C//DTD SVG 1.1//EN"
 "http://www.w3.org/Graphics/SVG/1.1/DTD/svg11.dtd">
<!-- Generated by graphviz version 2.38.0 (20140413.2041)
 -->
<!-- Title: Altair::runWorker Pages: 1 -->
<!--zoomable 670 -->
<svg id="main" version="1.1" xmlns="http://www.w3.org/2000/svg" xmlns:xlink="http://www.w3.org/1999/xlink" xml:space="preserve" onload="init(evt)">
<style type="text/css"><![CDATA[
.edge:hover path { stroke: red; }
.edge:hover polygon { stroke: red; fill: red; }
]]></style>
<script type="text/javascript"><![CDATA[
var edges = document.getElementsByTagName('g');
if (edges && edges.length) {
  for (var i=0;i<edges.length;i++) {
    if (edges[i].id.substr(0,4)=='edge') {
      edges[i].setAttribute('class','edge');
    }
  }
}
]]></script>
        <defs>
                <circle id="rim" cx="0" cy="0" r="7"/>
                <circle id="rim2" cx="0" cy="0" r="3.5"/>
                <g id="zoomPlus">
                        <use xlink:href="#rim" fill="#404040">
                                <set attributeName="fill" to="#808080" begin="zoomplus.mouseover" end="zoomplus.mouseout"/>
                        </use>
                        <path d="M-4,0h8M0,-4v8" fill="none" stroke="white" stroke-width="1.5" pointer-events="none"/>
                </g>
                <g id="zoomMin">
                        <use xlink:href="#rim" fill="#404040">
                                <set attributeName="fill" to="#808080" begin="zoomminus.mouseover" end="zoomminus.mouseout"/>
                        </use>
                        <path d="M-4,0h8" fill="none" stroke="white" stroke-width="1.5" pointer-events="none"/>
                </g>
                <g id="dirArrow">
                        <path fill="none" stroke="white" stroke-width="1.5" d="M0,-3.0v7 M-2.5,-0.5L0,-3.0L2.5,-0.5"/>
                </g>
               <g id="resetDef">
                       <use xlink:href="#rim2" fill="#404040">
                               <set attributeName="fill" to="#808080" begin="reset.mouseover" end="reset.mouseout"/>
                       </use>
               </g>
        </defs>

<script type="text/javascript">
var viewWidth = 1237;
var viewHeight = 670;
var sectionId = 'dynsection-62';
</script>
<script xlink:href="svgpan.js"/>
<svg id="graph" class="graph">
<g id="viewport">
<title>Altair::runWorker</title>
<polygon fill="white" stroke="none" points="-4,4 -4,-666 1233,-666 1233,4 -4,4"/>
<!-- Node878 -->
<g id="node1" class="node"><title>Node878</title>
<polygon fill="#bfbfbf" stroke="black" points="0,-153.5 0,-172.5 90,-172.5 90,-153.5 0,-153.5"/>
<text text-anchor="middle" x="45" y="-160.5" font-family="Helvetica,sans-Serif" font-size="10.00">Altair::runWorker</text>
</g>
<!-- Node879 -->
<g id="node2" class="node"><title>Node879</title>
<g id="a_node2"><a xlink:href="class_altair.html#a40c0d298ef581a802c2b063df08a17a0" target="_top" xlink:title="Génère la ligne de commande à partir des chemins des fichiers de paye. ">
<polygon fill="white" stroke="black" points="140,-505 140,-535 275,-535 275,-505 140,-505"/>
<text text-anchor="start" x="148" y="-523" font-family="Helvetica,sans-Serif" font-size="10.00">Altair::createCommandLine</text>
<text text-anchor="middle" x="207.5" y="-512" font-family="Helvetica,sans-Serif" font-size="10.00">String</text>
</a>
</g>
</g>
<!-- Node878&#45;&gt;Node879 -->
<g id="edge1" class="edge"><title>Node878&#45;&gt;Node879</title>
<path fill="none" stroke="midnightblue" d="M47.2806,-172.958C52.339,-209.707 73.2899,-340.368 126,-433 140.209,-457.971 162.863,-481.582 180.525,-497.889"/>
<polygon fill="midnightblue" stroke="midnightblue" points="178.469,-500.748 188.24,-504.846 183.157,-495.55 178.469,-500.748"/>
</g>
<!-- Node884 -->
<g id="node7" class="node"><title>Node884</title>
<g id="a_node7"><a xlink:href="class_main_window.html#a7ca647c33971b09cd6ef4af33937369e" target="_top" xlink:title="Envoie du texte formaté HTML dans l&#39;onglet Console. ">
<polygon fill="white" stroke="black" points="131,-126 131,-156 284,-156 284,-126 131,-126"/>
<text text-anchor="start" x="139" y="-144" font-family="Helvetica,sans-Serif" font-size="10.00">MainWindow::feedLHXConsole</text>
<text text-anchor="middle" x="207.5" y="-133" font-family="Helvetica,sans-Serif" font-size="10.00">WithHtml</text>
</a>
</g>
</g>
<!-- Node878&#45;&gt;Node884 -->
<g id="edge6" class="edge"><title>Node878&#45;&gt;Node884</title>
<path fill="none" stroke="midnightblue" d="M90.2822,-156.93C99.8451,-155.619 110.267,-154.191 120.815,-152.745"/>
<polygon fill="midnightblue" stroke="midnightblue" points="121.51,-156.182 130.942,-151.357 120.56,-149.247 121.51,-156.182"/>
</g>
<!-- Node885 -->
<g id="node8" class="node"><title>Node885</title>
<g id="a_node8"><a xlink:href="class_main_window.html#ad5413bb37042daa28f5fd7d72b4b616c" target="_top" xlink:title="Envoie du texte formaté HTML dans l&#39;onglet Console. ">
<polygon fill="white" stroke="black" points="137,-77 137,-107 278,-107 278,-77 137,-77"/>
<text text-anchor="start" x="145" y="-95" font-family="Helvetica,sans-Serif" font-size="10.00">MainWindow::feedRConsole</text>
<text text-anchor="middle" x="207.5" y="-84" font-family="Helvetica,sans-Serif" font-size="10.00">WithHtml</text>
</a>
</g>
</g>
<!-- Node878&#45;&gt;Node885 -->
<g id="edge7" class="edge"><title>Node878&#45;&gt;Node885</title>
<path fill="none" stroke="midnightblue" d="M59.9008,-153.426C75.4399,-143.065 101.629,-126.606 126,-116 130.446,-114.065 135.096,-112.228 139.82,-110.496"/>
<polygon fill="midnightblue" stroke="midnightblue" points="141.294,-113.689 149.583,-107.09 138.988,-107.079 141.294,-113.689"/>
</g>
<!-- Node886 -->
<g id="node9" class="node"><title>Node886</title>
<g id="a_node9"><a xlink:href="class_main_window.html#a29b1b37488fb3e9d9d716d33e26acb55" target="_top" xlink:title="Limite (si l&#39;option du dialogue de configuration est cochée) le volume de texte en sortie de l&#39;onglet...">
<polygon fill="white" stroke="black" points="126,-38.5 126,-57.5 289,-57.5 289,-38.5 126,-38.5"/>
<text text-anchor="middle" x="207.5" y="-45.5" font-family="Helvetica,sans-Serif" font-size="10.00">MainWindow::getConsoleCounter</text>
</a>
</g>
</g>
<!-- Node878&#45;&gt;Node886 -->
<g id="edge8" class="edge"><title>Node878&#45;&gt;Node886</title>
<path fill="none" stroke="midnightblue" d="M51.164,-153.338C62.1536,-133.758 89.836,-89.3679 126,-67 129.406,-64.8933 133.026,-63.0201 136.771,-61.3545"/>
<polygon fill="midnightblue" stroke="midnightblue" points="138.257,-64.5316 146.294,-57.6273 135.706,-58.0131 138.257,-64.5316"/>
</g>
<!-- Node887 -->
<g id="node10" class="node"><title>Node887</title>
<g id="a_node10"><a xlink:href="classtools.html#a89d2cd8ffcaed8423439c16d1ee59ab0" target="_top" xlink:title="tools::path_access">
<polygon fill="white" stroke="black" points="347,-99.5 347,-118.5 446,-118.5 446,-99.5 347,-99.5"/>
<text text-anchor="middle" x="396.5" y="-106.5" font-family="Helvetica,sans-Serif" font-size="10.00">tools::path_access</text>
</a>
</g>
</g>
<!-- Node878&#45;&gt;Node887 -->
<g id="edge9" class="edge"><title>Node878&#45;&gt;Node887</title>
<path fill="none" stroke="midnightblue" d="M85.2943,-172.535C134.932,-182.56 221.956,-193.31 289,-165 310.137,-156.075 305.218,-139.622 325,-128 328.854,-125.736 332.985,-123.734 337.242,-121.967"/>
<polygon fill="midnightblue" stroke="midnightblue" points="338.545,-125.217 346.706,-118.46 336.113,-118.653 338.545,-125.217"/>
</g>
<!-- Node888 -->
<g id="node11" class="node"><title>Node888</title>
<g id="a_node11"><a xlink:href="class_altair.html#a19ef4b530e210642e2e71c94a2b14bef" target="_top" xlink:title="Lit le fichier rankFile pour l&#39;index de la barre progression, le lit dans &#160;&#160;fileRank &#160;&#160;et ajuste la b...">
<polygon fill="white" stroke="black" points="150.5,-0.5 150.5,-19.5 264.5,-19.5 264.5,-0.5 150.5,-0.5"/>
<text text-anchor="middle" x="207.5" y="-7.5" font-family="Helvetica,sans-Serif" font-size="10.00">Altair::readRankSignal</text>
</a>
</g>
</g>
<!-- Node878&#45;&gt;Node888 -->
<g id="edge10" class="edge"><title>Node878&#45;&gt;Node888</title>
<path fill="none" stroke="midnightblue" d="M48.8101,-153.436C56.6092,-128.651 80.972,-61.9811 126,-29 130.489,-25.712 135.463,-22.984 140.674,-20.7219"/>
<polygon fill="midnightblue" stroke="midnightblue" points="142.116,-23.9192 150.252,-17.1329 139.66,-17.3642 142.116,-23.9192"/>
</g>
<!-- Node889 -->
<g id="node12" class="node"><title>Node889</title>
<g id="a_node12"><a xlink:href="class_altair.html#a4995cdc9462838289b5b1df75edba552" target="_top" xlink:title="Ajouter du texte à l&#39;onglet des messages. ">
<polygon fill="white" stroke="black" points="919,-346.5 919,-365.5 1014,-365.5 1014,-346.5 919,-346.5"/>
<text text-anchor="middle" x="966.5" y="-353.5" font-family="Helvetica,sans-Serif" font-size="10.00">Altair::textAppend</text>
</a>
</g>
</g>
<!-- Node878&#45;&gt;Node889 -->
<g id="edge11" class="edge"><title>Node878&#45;&gt;Node889</title>
<path fill="none" stroke="midnightblue" d="M52.271,-172.723C83.2749,-219.484 225.518,-419 395.5,-419 395.5,-419 395.5,-419 583.5,-419 700.915,-419 737.746,-443.011 847,-400 866.117,-392.474 864.316,-379.546 883,-371 891.08,-367.304 899.996,-364.518 908.891,-362.418"/>
<polygon fill="midnightblue" stroke="midnightblue" points="909.808,-365.802 918.878,-360.327 908.373,-358.951 909.808,-365.802"/>
</g>
<!-- Node890 -->
<g id="node13" class="node"><title>Node890</title>
<g id="a_node13"><a xlink:href="class_altair.html#a2eb0a89c3223b2df1c01d2b3b7d1c0eb" target="_top" xlink:title="Rafraichir le projet .alt après avoir actualisé l&#39;interface. ">
<polygon fill="white" stroke="black" points="155,-213.5 155,-232.5 260,-232.5 260,-213.5 155,-213.5"/>
<text text-anchor="middle" x="207.5" y="-220.5" font-family="Helvetica,sans-Serif" font-size="10.00">Altair::updateProject</text>
</a>
</g>
</g>
<!-- Node878&#45;&gt;Node890 -->
<g id="edge12" class="edge"><title>Node878&#45;&gt;Node890</title>
<path fill="none" stroke="midnightblue" d="M65.4218,-172.618C81.4373,-180.334 104.875,-191.138 126,-199 137.205,-203.17 149.49,-207.131 161.013,-210.589"/>
<polygon fill="midnightblue" stroke="midnightblue" points="160.316,-214.032 170.897,-213.49 162.288,-207.315 160.316,-214.032"/>
</g>
<!-- Node880 -->
<g id="node3" class="node"><title>Node880</title>
<g id="a_node3"><a xlink:href="class_f_abstract_widget.html#a5c45eef47bfac1603a3cce654c96c66b" target="_top" xlink:title="FAbstractWidget::command\lLineStringList">
<polygon fill="white" stroke="black" points="327,-568 327,-598 466,-598 466,-568 327,-568"/>
<text text-anchor="start" x="335" y="-586" font-family="Helvetica,sans-Serif" font-size="10.00">FAbstractWidget::command</text>
<text text-anchor="middle" x="396.5" y="-575" font-family="Helvetica,sans-Serif" font-size="10.00">LineStringList</text>
</a>
</g>
</g>
<!-- Node879&#45;&gt;Node880 -->
<g id="edge2" class="edge"><title>Node879&#45;&gt;Node880</title>
<path fill="none" stroke="midnightblue" d="M253.291,-535.09C279.678,-543.98 313.246,-555.289 341.141,-564.687"/>
<polygon fill="midnightblue" stroke="midnightblue" points="340.157,-568.048 350.751,-567.924 342.391,-561.414 340.157,-568.048"/>
</g>
<!-- Node883 -->
<g id="node6" class="node"><title>Node883</title>
<g id="a_node6"><a xlink:href="class_f_abstract_widget.html#ae6ba84e8ed8a54dc8121245f35f568fe" target="_top" xlink:title="Retourne la clé de hashage de Hash::wrapper correspondant au widget. ">
<polygon fill="white" stroke="black" points="891.5,-510.5 891.5,-529.5 1041.5,-529.5 1041.5,-510.5 891.5,-510.5"/>
<text text-anchor="middle" x="966.5" y="-517.5" font-family="Helvetica,sans-Serif" font-size="10.00">FAbstractWidget::getHashKey</text>
</a>
</g>
</g>
<!-- Node879&#45;&gt;Node883 -->
<g id="edge5" class="edge"><title>Node879&#45;&gt;Node883</title>
<path fill="none" stroke="midnightblue" d="M275.015,-520C412.826,-520 729.32,-520 881.185,-520"/>
<polygon fill="midnightblue" stroke="midnightblue" points="881.388,-523.5 891.388,-520 881.388,-516.5 881.388,-523.5"/>
</g>
<!-- Node881 -->
<g id="node4" class="node"><title>Node881</title>
<g id="a_node4"><a xlink:href="class_f_abstract_widget.html#a6e974137b3ddc4347eef32a468fd2f9b" target="_top" xlink:title="FAbstractWidget::isAbstract\lDisabled">
<polygon fill="white" stroke="black" points="512.5,-577 512.5,-607 652.5,-607 652.5,-577 512.5,-577"/>
<text text-anchor="start" x="520.5" y="-595" font-family="Helvetica,sans-Serif" font-size="10.00">FAbstractWidget::isAbstract</text>
<text text-anchor="middle" x="582.5" y="-584" font-family="Helvetica,sans-Serif" font-size="10.00">Disabled</text>
</a>
</g>
</g>
<!-- Node880&#45;&gt;Node881 -->
<g id="edge3" class="edge"><title>Node880&#45;&gt;Node881</title>
<path fill="none" stroke="midnightblue" d="M466.015,-586.351C477.829,-586.929 490.197,-587.534 502.265,-588.124"/>
<polygon fill="midnightblue" stroke="midnightblue" points="502.155,-591.623 512.314,-588.616 502.497,-584.631 502.155,-591.623"/>
</g>
<!-- Node882 -->
<g id="node5" class="node"><title>Node882</title>
<g id="a_node5"><a xlink:href="class_f_abstract_widget.html#a6bec2d63718d591bf304509947161432" target="_top" xlink:title="FAbstractWidget::isAbstract\lEnabled">
<polygon fill="white" stroke="black" points="702,-587 702,-617 842,-617 842,-587 702,-587"/>
<text text-anchor="start" x="710" y="-605" font-family="Helvetica,sans-Serif" font-size="10.00">FAbstractWidget::isAbstract</text>
<text text-anchor="middle" x="772" y="-594" font-family="Helvetica,sans-Serif" font-size="10.00">Enabled</text>
</a>
</g>
</g>
<!-- Node881&#45;&gt;Node882 -->
<g id="edge4" class="edge"><title>Node881&#45;&gt;Node882</title>
<path fill="none" stroke="midnightblue" d="M652.519,-595.681C665.208,-596.358 678.547,-597.069 691.514,-597.761"/>
<polygon fill="midnightblue" stroke="midnightblue" points="691.641,-601.272 701.813,-598.31 692.014,-594.282 691.641,-601.272"/>
</g>
<!-- Node890&#45;&gt;Node887 -->
<g id="edge23" class="edge"><title>Node890&#45;&gt;Node887</title>
<path fill="none" stroke="midnightblue" d="M260.148,-214.344C270.494,-210.839 280.716,-205.916 289,-199 316.159,-176.326 297.543,-150.312 325,-128 328.738,-124.962 332.92,-122.408 337.332,-120.26"/>
<polygon fill="midnightblue" stroke="midnightblue" points="338.745,-123.463 346.64,-116.397 336.062,-116.997 338.745,-123.463"/>
</g>
<!-- Node891 -->
<g id="node14" class="node"><title>Node891</title>
<g id="a_node14"><a xlink:href="class_altair.html#ad0436bfddbdcdd19cc80154e02b4323c" target="_top" xlink:title="Assigner le fichier courant. ">
<polygon fill="white" stroke="black" points="343,-137.5 343,-156.5 450,-156.5 450,-137.5 343,-137.5"/>
<text text-anchor="middle" x="396.5" y="-144.5" font-family="Helvetica,sans-Serif" font-size="10.00">Altair::setCurrentFile</text>
</a>
</g>
</g>
<!-- Node890&#45;&gt;Node891 -->
<g id="edge13" class="edge"><title>Node890&#45;&gt;Node891</title>
<path fill="none" stroke="midnightblue" d="M253.416,-213.49C265.426,-209.925 278.09,-205.187 289,-199 307.881,-188.293 305.979,-176.455 325,-166 329.155,-163.716 333.602,-161.694 338.165,-159.905"/>
<polygon fill="midnightblue" stroke="midnightblue" points="339.38,-163.188 347.641,-156.555 337.046,-156.589 339.38,-163.188"/>
</g>
<!-- Node893 -->
<g id="node16" class="node"><title>Node893</title>
<g id="a_node16"><a xlink:href="class_main_window.html#ab58113ae4ed9a73ec3e3e5f83c98dfcc" target="_top" xlink:title="Vérifie si par défaut le projet .alt doit être enregistré à chaque modification de l&#39;état de l&#39;interf...">
<polygon fill="white" stroke="black" points="326.5,-252 326.5,-282 466.5,-282 466.5,-252 326.5,-252"/>
<text text-anchor="start" x="334.5" y="-270" font-family="Helvetica,sans-Serif" font-size="10.00">MainWindow::isDefaultSave</text>
<text text-anchor="middle" x="396.5" y="-259" font-family="Helvetica,sans-Serif" font-size="10.00">ProjectChecked</text>
</a>
</g>
</g>
<!-- Node890&#45;&gt;Node893 -->
<g id="edge15" class="edge"><title>Node890&#45;&gt;Node893</title>
<path fill="none" stroke="midnightblue" d="M249.076,-232.547C270.318,-237.545 296.994,-243.822 321.738,-249.644"/>
<polygon fill="midnightblue" stroke="midnightblue" points="320.936,-253.051 331.472,-251.935 322.54,-246.237 320.936,-253.051"/>
</g>
<!-- Node894 -->
<g id="node17" class="node"><title>Node894</title>
<g id="a_node17"><a xlink:href="class_altair.html#a43120f9909d0284074119529a03df85b" target="_top" xlink:title="Ecrit le projet XML d&#39;extension .alt contenant les références des donnéees de paye. ">
<polygon fill="white" stroke="black" points="340,-175.5 340,-194.5 453,-194.5 453,-175.5 340,-175.5"/>
<text text-anchor="middle" x="396.5" y="-182.5" font-family="Helvetica,sans-Serif" font-size="10.00">Altair::writeProjectFile</text>
</a>
</g>
</g>
<!-- Node890&#45;&gt;Node894 -->
<g id="edge16" class="edge"><title>Node890&#45;&gt;Node894</title>
<path fill="none" stroke="midnightblue" d="M255.688,-213.411C280.92,-208.284 312.173,-201.933 338.727,-196.537"/>
<polygon fill="midnightblue" stroke="midnightblue" points="339.549,-199.941 348.651,-194.52 338.155,-193.082 339.549,-199.941"/>
</g>
<!-- Node899 -->
<g id="node22" class="node"><title>Node899</title>
<g id="a_node22"><a xlink:href="struct_abstract.html#af7b700041c9d75de3f642f15ece3e6ae" target="_top" xlink:title="Réinitialiser toutes les valeurs du de la table de hachage Hash::wrapper. ">
<polygon fill="white" stroke="black" points="356.5,-213.5 356.5,-232.5 436.5,-232.5 436.5,-213.5 356.5,-213.5"/>
<text text-anchor="middle" x="396.5" y="-220.5" font-family="Helvetica,sans-Serif" font-size="10.00">Abstract::initH</text>
</a>
</g>
</g>
<!-- Node890&#45;&gt;Node899 -->
<g id="edge22" class="edge"><title>Node890&#45;&gt;Node899</title>
<path fill="none" stroke="midnightblue" d="M260.094,-223C286.912,-223 319.529,-223 346.031,-223"/>
<polygon fill="midnightblue" stroke="midnightblue" points="346.234,-226.5 356.234,-223 346.234,-219.5 346.234,-226.5"/>
</g>
<!-- Node900 -->
<g id="node23" class="node"><title>Node900</title>
<g id="a_node23"><a xlink:href="class_altair.html#ac9d7d8e7cebf70212818f1a8ba7d7d78" target="_top" xlink:title="Rafraîchit le gestionnaire de projet à la droite de l&#39;interface. Fonction globale par défaut...">
<polygon fill="white" stroke="black" points="325,-301.5 325,-320.5 468,-320.5 468,-301.5 325,-301.5"/>
<text text-anchor="middle" x="396.5" y="-308.5" font-family="Helvetica,sans-Serif" font-size="10.00">Altair::refreshProjectManager</text>
</a>
</g>
</g>
<!-- Node890&#45;&gt;Node900 -->
<g id="edge24" class="edge"><title>Node890&#45;&gt;Node900</title>
<path fill="none" stroke="midnightblue" d="M222.245,-232.577C243.444,-246.981 285.782,-274.308 325,-291 331.371,-293.711 338.219,-296.174 345.054,-298.371"/>
<polygon fill="midnightblue" stroke="midnightblue" points="344.415,-301.835 355.001,-301.397 346.453,-295.138 344.415,-301.835"/>
</g>
<!-- Node892 -->
<g id="node15" class="node"><title>Node892</title>
<g id="a_node15"><a xlink:href="class_main_window.html#affa76730fa370a3466b62a4caee721e3" target="_top" xlink:title="Actualise la liste des fichiers de projet .alt récents dans le menu Fichier. ">
<polygon fill="white" stroke="black" points="512.5,-94 512.5,-124 652.5,-124 652.5,-94 512.5,-94"/>
<text text-anchor="start" x="520.5" y="-112" font-family="Helvetica,sans-Serif" font-size="10.00">MainWindow::updateRecent</text>
<text text-anchor="middle" x="582.5" y="-101" font-family="Helvetica,sans-Serif" font-size="10.00">FileActions</text>
</a>
</g>
</g>
<!-- Node891&#45;&gt;Node892 -->
<g id="edge14" class="edge"><title>Node891&#45;&gt;Node892</title>
<path fill="none" stroke="midnightblue" d="M443.931,-137.411C461.691,-133.743 482.481,-129.45 502.442,-125.327"/>
<polygon fill="midnightblue" stroke="midnightblue" points="503.384,-128.707 512.47,-123.256 501.969,-121.851 503.384,-128.707"/>
</g>
<!-- Node895 -->
<g id="node18" class="node"><title>Node895</title>
<g id="a_node18"><a xlink:href="class_altair.html#a9df2266cd3e2a9905e74bb41c1f9415d" target="_top" xlink:title="Remplace un nom de projet vide par un nom par défaut. ">
<polygon fill="white" stroke="black" points="504,-219.5 504,-238.5 661,-238.5 661,-219.5 504,-219.5"/>
<text text-anchor="middle" x="582.5" y="-226.5" font-family="Helvetica,sans-Serif" font-size="10.00">Altair::checkEmptyProjectName</text>
</a>
</g>
</g>
<!-- Node894&#45;&gt;Node895 -->
<g id="edge17" class="edge"><title>Node894&#45;&gt;Node895</title>
<path fill="none" stroke="midnightblue" d="M437.425,-194.547C465.154,-201.178 502.292,-210.059 531.918,-217.143"/>
<polygon fill="midnightblue" stroke="midnightblue" points="531.113,-220.55 541.653,-219.471 532.741,-213.741 531.113,-220.55"/>
</g>
<!-- Node896 -->
<g id="node19" class="node"><title>Node896</title>
<g id="a_node19"><a xlink:href="class_altair.html#a2f8d129da914d8b9ab3cdaf195f92bd1" target="_top" xlink:title="Lance Altair::makeParserString sur le premier item courant de abstractWidgetList (celui des données d...">
<polygon fill="white" stroke="black" points="524.5,-143.5 524.5,-162.5 640.5,-162.5 640.5,-143.5 524.5,-143.5"/>
<text text-anchor="middle" x="582.5" y="-150.5" font-family="Helvetica,sans-Serif" font-size="10.00">Altair::makeDataString</text>
</a>
</g>
</g>
<!-- Node894&#45;&gt;Node896 -->
<g id="edge18" class="edge"><title>Node894&#45;&gt;Node896</title>
<path fill="none" stroke="midnightblue" d="M452.208,-175.486C472.418,-171.971 495.518,-167.953 516.549,-164.296"/>
<polygon fill="midnightblue" stroke="midnightblue" points="517.433,-167.695 526.685,-162.533 516.233,-160.798 517.433,-167.695"/>
</g>
<!-- Node898 -->
<g id="node21" class="node"><title>Node898</title>
<g id="a_node21"><a xlink:href="class_altair.html#adb7f94af778c4b6874abab74c8ef4016" target="_top" xlink:title="Lance Altair::makeParserString sur l&#39;ensemble de la liste des FWidgets sauf le premier (tous les widg...">
<polygon fill="white" stroke="black" points="518.5,-181.5 518.5,-200.5 646.5,-200.5 646.5,-181.5 518.5,-181.5"/>
<text text-anchor="middle" x="582.5" y="-188.5" font-family="Helvetica,sans-Serif" font-size="10.00">Altair::makeSystemString</text>
</a>
</g>
</g>
<!-- Node894&#45;&gt;Node898 -->
<g id="edge20" class="edge"><title>Node894&#45;&gt;Node898</title>
<path fill="none" stroke="midnightblue" d="M453.205,-186.816C470.519,-187.381 489.875,-188.012 508.198,-188.61"/>
<polygon fill="midnightblue" stroke="midnightblue" points="508.143,-192.11 518.252,-188.938 508.371,-185.113 508.143,-192.11"/>
</g>
<!-- Node897 -->
<g id="node20" class="node"><title>Node897</title>
<g id="a_node20"><a xlink:href="class_altair.html#af73cbf33a9e3ff76896a8099b4b154fe" target="_top" xlink:title="Crée la chaîne QString permettant d&#39;écrire un projet XML d&#39;extension .alt Parcourt l&#39;ensemble de la l...">
<polygon fill="white" stroke="black" points="710.5,-162.5 710.5,-181.5 833.5,-181.5 833.5,-162.5 710.5,-162.5"/>
<text text-anchor="middle" x="772" y="-169.5" font-family="Helvetica,sans-Serif" font-size="10.00">Altair::makeParserString</text>
</a>
</g>
</g>
<!-- Node896&#45;&gt;Node897 -->
<g id="edge19" class="edge"><title>Node896&#45;&gt;Node897</title>
<path fill="none" stroke="midnightblue" d="M640.52,-158.778C659.328,-160.684 680.48,-162.827 700.19,-164.825"/>
<polygon fill="midnightblue" stroke="midnightblue" points="700.043,-168.328 710.345,-165.854 700.749,-161.363 700.043,-168.328"/>
</g>
<!-- Node898&#45;&gt;Node897 -->
<g id="edge21" class="edge"><title>Node898&#45;&gt;Node897</title>
<path fill="none" stroke="midnightblue" d="M646.718,-184.594C663.87,-182.856 682.553,-180.963 700.099,-179.185"/>
<polygon fill="midnightblue" stroke="midnightblue" points="700.682,-182.644 710.278,-178.153 699.976,-175.679 700.682,-182.644"/>
</g>
<!-- Node900&#45;&gt;Node889 -->
<g id="edge52" class="edge"><title>Node900&#45;&gt;Node889</title>
<path fill="none" stroke="midnightblue" d="M468.317,-306.186C557.514,-301.686 715.077,-298.94 847,-324 863.712,-327.175 866.682,-332.194 883,-337 891.502,-339.504 900.577,-341.883 909.482,-344.057"/>
<polygon fill="midnightblue" stroke="midnightblue" points="908.887,-347.513 919.426,-346.419 910.506,-340.702 908.887,-347.513"/>
</g>
<!-- Node900&#45;&gt;Node895 -->
<g id="edge25" class="edge"><title>Node900&#45;&gt;Node895</title>
<path fill="none" stroke="midnightblue" d="M444.488,-301.489C452.652,-298.785 460.817,-295.349 468,-291 487.901,-278.951 484.244,-265.286 504,-253 511.135,-248.562 519.154,-244.89 527.256,-241.867"/>
<polygon fill="midnightblue" stroke="midnightblue" points="528.434,-245.163 536.758,-238.609 526.164,-238.541 528.434,-245.163"/>
</g>
<!-- Node901 -->
<g id="node24" class="node"><title>Node901</title>
<g id="a_node24"><a xlink:href="class_altair.html#a41b6c8a35ed8ba14c7c0ce2e6994655f" target="_top" xlink:title="Décode le projet représenté par un pointeur vers QFile ou similaire. ">
<polygon fill="white" stroke="black" points="524.5,-352.5 524.5,-371.5 640.5,-371.5 640.5,-352.5 524.5,-352.5"/>
<text text-anchor="middle" x="582.5" y="-359.5" font-family="Helvetica,sans-Serif" font-size="10.00">Altair::parseProjectFile</text>
</a>
</g>
</g>
<!-- Node900&#45;&gt;Node901 -->
<g id="edge26" class="edge"><title>Node900&#45;&gt;Node901</title>
<path fill="none" stroke="midnightblue" d="M432.109,-320.593C461.921,-328.856 505.12,-340.83 537.404,-349.778"/>
<polygon fill="midnightblue" stroke="midnightblue" points="536.475,-353.152 547.046,-352.45 538.344,-346.406 536.475,-353.152"/>
</g>
<!-- Node912 -->
<g id="node35" class="node"><title>Node912</title>
<g id="a_node35"><a xlink:href="class_altair.html#abf7d1895e52f7b8d7d26e4b5a0e6146a" target="_top" xlink:title="Rafraîchit le gestionnaire de projet à la droite de l&#39;interface. ">
<polygon fill="white" stroke="black" points="700.5,-246 700.5,-276 843.5,-276 843.5,-246 700.5,-246"/>
<text text-anchor="start" x="708.5" y="-264" font-family="Helvetica,sans-Serif" font-size="10.00">Altair::refreshProjectManager</text>
<text text-anchor="middle" x="772" y="-253" font-family="Helvetica,sans-Serif" font-size="10.00">Values</text>
</a>
</g>
</g>
<!-- Node900&#45;&gt;Node912 -->
<g id="edge51" class="edge"><title>Node900&#45;&gt;Node912</title>
<path fill="none" stroke="midnightblue" d="M444.031,-301.491C462.63,-297.893 484.279,-293.956 504,-291 566.298,-281.664 637.17,-273.829 690.233,-268.51"/>
<polygon fill="midnightblue" stroke="midnightblue" points="690.659,-271.985 700.264,-267.513 689.967,-265.019 690.659,-271.985"/>
</g>
<!-- Node902 -->
<g id="node25" class="node"><title>Node902</title>
<g id="a_node25"><a xlink:href="class_altair.html#a8b7b1fa3e0b567dc1d4721bf88087a68" target="_top" xlink:title="Parcourt l&#39;ensemble des widgets fonctionnels Abstract::abstractWidgetList et actualise leur statut in...">
<polygon fill="white" stroke="black" points="705,-447.5 705,-466.5 839,-466.5 839,-447.5 705,-447.5"/>
<text text-anchor="middle" x="772" y="-454.5" font-family="Helvetica,sans-Serif" font-size="10.00">Altair::assignWidgetValues</text>
</a>
</g>
</g>
<!-- Node901&#45;&gt;Node902 -->
<g id="edge27" class="edge"><title>Node901&#45;&gt;Node902</title>
<path fill="none" stroke="midnightblue" d="M602.51,-371.632C635.726,-388.461 704.46,-423.287 743.087,-442.857"/>
<polygon fill="midnightblue" stroke="midnightblue" points="741.716,-446.086 752.218,-447.484 744.88,-439.842 741.716,-446.086"/>
</g>
<!-- Node906 -->
<g id="node29" class="node"><title>Node906</title>
<g id="a_node29"><a xlink:href="class_hash.html#a2ac10203aa8b32a04d9088e08ddbaab4" target="_top" xlink:title="Hash::createReference">
<polygon fill="white" stroke="black" points="713,-371.5 713,-390.5 831,-390.5 831,-371.5 713,-371.5"/>
<text text-anchor="middle" x="772" y="-378.5" font-family="Helvetica,sans-Serif" font-size="10.00">Hash::createReference</text>
</a>
</g>
</g>
<!-- Node901&#45;&gt;Node906 -->
<g id="edge33" class="edge"><title>Node901&#45;&gt;Node906</title>
<path fill="none" stroke="midnightblue" d="M640.52,-367.778C660.152,-369.767 682.336,-372.015 702.77,-374.086"/>
<polygon fill="midnightblue" stroke="midnightblue" points="702.654,-377.592 712.956,-375.118 703.36,-370.628 702.654,-377.592"/>
</g>
<!-- Node907 -->
<g id="node30" class="node"><title>Node907</title>
<g id="a_node30"><a xlink:href="class_altair.html#a3f6193de22ed2034c9b6dbe7a8ac4d97" target="_top" xlink:title="Lors du décodage du projet XML .alt, décoder le noed courant et renvoyer l&#39;empilement des valeurs en ...">
<polygon fill="white" stroke="black" points="726,-548.5 726,-567.5 818,-567.5 818,-548.5 726,-548.5"/>
<text text-anchor="middle" x="772" y="-555.5" font-family="Helvetica,sans-Serif" font-size="10.00">Altair::parseEntry</text>
</a>
</g>
</g>
<!-- Node901&#45;&gt;Node907 -->
<g id="edge34" class="edge"><title>Node901&#45;&gt;Node907</title>
<path fill="none" stroke="midnightblue" d="M592.798,-371.72C622.663,-402.938 716.417,-500.942 754.587,-540.843"/>
<polygon fill="midnightblue" stroke="midnightblue" points="752.204,-543.415 761.646,-548.222 757.262,-538.576 752.204,-543.415"/>
</g>
<!-- Node901&#45;&gt;Node912 -->
<g id="edge40" class="edge"><title>Node901&#45;&gt;Node912</title>
<path fill="none" stroke="midnightblue" d="M601.14,-352.498C631.417,-336.188 693.89,-302.536 734.048,-280.905"/>
<polygon fill="midnightblue" stroke="midnightblue" points="735.856,-283.906 743.001,-276.082 732.537,-277.743 735.856,-283.906"/>
</g>
<!-- Node919 -->
<g id="node42" class="node"><title>Node919</title>
<g id="a_node42"><a xlink:href="class_altair.html#a20528df591deee5ad32f28996ba8dc35" target="_top" xlink:title="Raccourcit les chemins dans les onglets en se limitant au non de fichier et les présente &#160;en surligna...">
<polygon fill="white" stroke="black" points="697,-333.5 697,-352.5 847,-352.5 847,-333.5 697,-333.5"/>
<text text-anchor="middle" x="772" y="-340.5" font-family="Helvetica,sans-Serif" font-size="10.00">Altair::refreshRowPresentation</text>
</a>
</g>
</g>
<!-- Node901&#45;&gt;Node919 -->
<g id="edge50" class="edge"><title>Node901&#45;&gt;Node919</title>
<path fill="none" stroke="midnightblue" d="M640.52,-356.222C655.103,-354.744 671.094,-353.124 686.73,-351.539"/>
<polygon fill="midnightblue" stroke="midnightblue" points="687.339,-354.996 696.936,-350.505 686.634,-348.031 687.339,-354.996"/>
</g>
<!-- Node902&#45;&gt;Node883 -->
<g id="edge28" class="edge"><title>Node902&#45;&gt;Node883</title>
<path fill="none" stroke="midnightblue" d="M794.146,-466.593C816.038,-476.253 851.398,-491.105 883,-501 891.166,-503.557 899.885,-505.933 908.482,-508.079"/>
<polygon fill="midnightblue" stroke="midnightblue" points="907.937,-511.548 918.479,-510.49 909.578,-504.743 907.937,-511.548"/>
</g>
<!-- Node902&#45;&gt;Node889 -->
<g id="edge32" class="edge"><title>Node902&#45;&gt;Node889</title>
<path fill="none" stroke="midnightblue" d="M818.357,-447.499C828.414,-444.022 838.575,-439.324 847,-433 869.774,-415.906 859.968,-396.744 883,-380 890.791,-374.336 899.9,-370.003 909.167,-366.689"/>
<polygon fill="midnightblue" stroke="midnightblue" points="910.377,-369.976 918.832,-363.591 908.241,-363.31 910.377,-369.976"/>
</g>
<!-- Node903 -->
<g id="node26" class="node"><title>Node903</title>
<g id="a_node26"><a xlink:href="struct_abstract.html#a634c4a8152edbeb8d96d2ca8f30e1025" target="_top" xlink:title="Récupère toutes les clés de hachage (de Hash::wrapper) des FWidgets qui sont dans le vecteur FAbstrac...">
<polygon fill="white" stroke="black" points="915,-472.5 915,-491.5 1018,-491.5 1018,-472.5 915,-472.5"/>
<text text-anchor="middle" x="966.5" y="-479.5" font-family="Helvetica,sans-Serif" font-size="10.00">Abstract::hashKeys</text>
</a>
</g>
</g>
<!-- Node902&#45;&gt;Node903 -->
<g id="edge29" class="edge"><title>Node902&#45;&gt;Node903</title>
<path fill="none" stroke="midnightblue" d="M839.248,-465.604C860.557,-468.371 884.047,-471.422 904.927,-474.133"/>
<polygon fill="midnightblue" stroke="midnightblue" points="904.579,-477.617 914.946,-475.435 905.481,-470.676 904.579,-477.617"/>
</g>
<!-- Node904 -->
<g id="node27" class="node"><title>Node904</title>
<g id="a_node27"><a xlink:href="class_f_abstract_widget.html#a88c229861e7973810c6ac979d5526c2d" target="_top" xlink:title="FAbstractWidget::setWidget\lFromXml">
<polygon fill="white" stroke="black" points="896.5,-423 896.5,-453 1036.5,-453 1036.5,-423 896.5,-423"/>
<text text-anchor="start" x="904.5" y="-441" font-family="Helvetica,sans-Serif" font-size="10.00">FAbstractWidget::setWidget</text>
<text text-anchor="middle" x="966.5" y="-430" font-family="Helvetica,sans-Serif" font-size="10.00">FromXml</text>
</a>
</g>
</g>
<!-- Node902&#45;&gt;Node904 -->
<g id="edge30" class="edge"><title>Node902&#45;&gt;Node904</title>
<path fill="none" stroke="midnightblue" d="M839.248,-450.461C854.325,-448.973 870.493,-447.377 886.057,-445.841"/>
<polygon fill="midnightblue" stroke="midnightblue" points="886.572,-449.307 896.179,-444.842 885.884,-442.341 886.572,-449.307"/>
</g>
<!-- Node905 -->
<g id="node28" class="node"><title>Node905</title>
<g id="a_node28"><a xlink:href="class_altair.html#a78a2870bb9b316c5ad6bcbd64471eeb8" target="_top" xlink:title="Renvoie la taille des données exportées. ">
<polygon fill="white" stroke="black" points="1126,-346.5 1126,-365.5 1189,-365.5 1189,-346.5 1126,-346.5"/>
<text text-anchor="middle" x="1157.5" y="-353.5" font-family="Helvetica,sans-Serif" font-size="10.00">Altair::size</text>
</a>
</g>
</g>
<!-- Node902&#45;&gt;Node905 -->
<g id="edge31" class="edge"><title>Node902&#45;&gt;Node905</title>
<path fill="none" stroke="midnightblue" d="M806.599,-447.444C819.421,-443.451 834.06,-438.465 847,-433 863.666,-425.961 865.988,-420.158 883,-414 925.457,-398.632 1050.65,-374.968 1115.91,-363.183"/>
<polygon fill="midnightblue" stroke="midnightblue" points="1116.62,-366.611 1125.84,-361.397 1115.38,-359.721 1116.62,-366.611"/>
</g>
<!-- Node908 -->
<g id="node31" class="node"><title>Node908</title>
<g id="a_node31"><a xlink:href="class_f_list_frame.html#a7ecbe60018d55d1a1352c5fd24c5e72e" target="_top" xlink:title="FListFrame::setTabLabels">
<polygon fill="white" stroke="black" points="901,-642.5 901,-661.5 1032,-661.5 1032,-642.5 901,-642.5"/>
<text text-anchor="middle" x="966.5" y="-649.5" font-family="Helvetica,sans-Serif" font-size="10.00">FListFrame::setTabLabels</text>
</a>
</g>
</g>
<!-- Node907&#45;&gt;Node908 -->
<g id="edge35" class="edge"><title>Node907&#45;&gt;Node908</title>
<path fill="none" stroke="midnightblue" d="M818.004,-564.608C828.185,-567.559 838.49,-571.826 847,-578 870.648,-595.155 859.034,-616.292 883,-633 885.86,-634.994 888.898,-636.781 892.057,-638.383"/>
<polygon fill="midnightblue" stroke="midnightblue" points="890.668,-641.596 901.23,-642.425 893.491,-635.19 890.668,-641.596"/>
</g>
<!-- Node910 -->
<g id="node33" class="node"><title>Node910</title>
<g id="a_node33"><a xlink:href="namespace_xml_method.html#abe26f53c2028527b0ebea361faa85221" target="_top" xlink:title="Empile les données pour un noeud donné, pour une profondeur d&#39;enchassement donnée. ">
<polygon fill="white" stroke="black" points="908,-548.5 908,-567.5 1025,-567.5 1025,-548.5 908,-548.5"/>
<text text-anchor="middle" x="966.5" y="-555.5" font-family="Helvetica,sans-Serif" font-size="10.00">XmlMethod::stackData</text>
</a>
</g>
</g>
<!-- Node907&#45;&gt;Node910 -->
<g id="edge37" class="edge"><title>Node907&#45;&gt;Node910</title>
<path fill="none" stroke="midnightblue" d="M818.133,-558C841.776,-558 871.216,-558 897.553,-558"/>
<polygon fill="midnightblue" stroke="midnightblue" points="897.857,-561.5 907.857,-558 897.857,-554.5 897.857,-561.5"/>
</g>
<!-- Node911 -->
<g id="node34" class="node"><title>Node911</title>
<g id="a_node34"><a xlink:href="class_f_string_list.html#a71ec48a52b6ca4ffe89400d66f3ff634" target="_top" xlink:title="FStringList::toInt">
<polygon fill="white" stroke="black" points="922,-586.5 922,-605.5 1011,-605.5 1011,-586.5 922,-586.5"/>
<text text-anchor="middle" x="966.5" y="-593.5" font-family="Helvetica,sans-Serif" font-size="10.00">FStringList::toInt</text>
</a>
</g>
</g>
<!-- Node907&#45;&gt;Node911 -->
<g id="edge38" class="edge"><title>Node907&#45;&gt;Node911</title>
<path fill="none" stroke="midnightblue" d="M818.133,-566.909C846.165,-572.443 882.348,-579.586 911.845,-585.408"/>
<polygon fill="midnightblue" stroke="midnightblue" points="911.486,-588.905 921.975,-587.408 912.842,-582.038 911.486,-588.905"/>
</g>
<!-- Node909 -->
<g id="node32" class="node"><title>Node909</title>
<g id="a_node32"><a xlink:href="class_f_list_widget.html#aac6eaaeb9946354f743394b54c84a6a7" target="_top" xlink:title="FListWidget::setTabLabels">
<polygon fill="white" stroke="black" points="1090.5,-642.5 1090.5,-661.5 1224.5,-661.5 1224.5,-642.5 1090.5,-642.5"/>
<text text-anchor="middle" x="1157.5" y="-649.5" font-family="Helvetica,sans-Serif" font-size="10.00">FListWidget::setTabLabels</text>
</a>
</g>
</g>
<!-- Node908&#45;&gt;Node909 -->
<g id="edge36" class="edge"><title>Node908&#45;&gt;Node909</title>
<path fill="none" stroke="midnightblue" d="M1032.01,-652C1047.45,-652 1064.08,-652 1080.01,-652"/>
<polygon fill="midnightblue" stroke="midnightblue" points="1080.35,-655.5 1090.35,-652 1080.35,-648.5 1080.35,-655.5"/>
</g>
<!-- Node911&#45;&gt;Node911 -->
<g id="edge39" class="edge"><title>Node911&#45;&gt;Node911</title>
<path fill="none" stroke="midnightblue" d="M937.215,-605.757C922.969,-614.565 932.73,-624 966.5,-624 990.244,-624 1002.12,-619.336 1002.12,-613.504"/>
<polygon fill="midnightblue" stroke="midnightblue" points="1004.83,-611.279 995.785,-605.757 999.409,-615.712 1004.83,-611.279"/>
</g>
<!-- Node913 -->
<g id="node36" class="node"><title>Node913</title>
<g id="a_node36"><a xlink:href="namespace_xml_method.html#a796c4f03d9e7a8057f0102b87eecbd3e" target="_top" xlink:title="XmlMethod::displayFirstLevelData">
<polygon fill="white" stroke="black" points="883,-144.5 883,-163.5 1050,-163.5 1050,-144.5 883,-144.5"/>
<text text-anchor="middle" x="966.5" y="-151.5" font-family="Helvetica,sans-Serif" font-size="10.00">XmlMethod::displayFirstLevelData</text>
</a>
</g>
</g>
<!-- Node912&#45;&gt;Node913 -->
<g id="edge41" class="edge"><title>Node912&#45;&gt;Node913</title>
<path fill="none" stroke="midnightblue" d="M789.233,-245.69C809.635,-227.209 846.43,-196.336 883,-178 892.001,-173.487 901.991,-169.686 911.822,-166.534"/>
<polygon fill="midnightblue" stroke="midnightblue" points="912.996,-169.836 921.559,-163.597 910.974,-163.134 912.996,-169.836"/>
</g>
<!-- Node914 -->
<g id="node37" class="node"><title>Node914</title>
<g id="a_node37"><a xlink:href="namespace_xml_method.html#aad1e553eb1ec6f1bb128cc6744cba9e3" target="_top" xlink:title="XmlMethod::displayTextData">
<polygon fill="white" stroke="black" points="1086,-182.5 1086,-201.5 1229,-201.5 1229,-182.5 1086,-182.5"/>
<text text-anchor="middle" x="1157.5" y="-189.5" font-family="Helvetica,sans-Serif" font-size="10.00">XmlMethod::displayTextData</text>
</a>
</g>
</g>
<!-- Node912&#45;&gt;Node914 -->
<g id="edge45" class="edge"><title>Node912&#45;&gt;Node914</title>
<path fill="none" stroke="midnightblue" d="M799.144,-245.881C820.841,-234.141 852.903,-218.621 883,-211 946.419,-194.942 1020.58,-190.65 1075.66,-190.119"/>
<polygon fill="midnightblue" stroke="midnightblue" points="1075.74,-193.618 1085.72,-190.061 1075.7,-186.619 1075.74,-193.618"/>
</g>
<!-- Node915 -->
<g id="node38" class="node"><title>Node915</title>
<g id="a_node38"><a xlink:href="namespace_xml_method.html#ac0a708c4bc4c55df24e60816d69a90cf" target="_top" xlink:title="XmlMethod::displaySecond\lLevelData">
<polygon fill="white" stroke="black" points="898.5,-221 898.5,-251 1034.5,-251 1034.5,-221 898.5,-221"/>
<text text-anchor="start" x="906.5" y="-239" font-family="Helvetica,sans-Serif" font-size="10.00">XmlMethod::displaySecond</text>
<text text-anchor="middle" x="966.5" y="-228" font-family="Helvetica,sans-Serif" font-size="10.00">LevelData</text>
</a>
</g>
</g>
<!-- Node912&#45;&gt;Node915 -->
<g id="edge43" class="edge"><title>Node912&#45;&gt;Node915</title>
<path fill="none" stroke="midnightblue" d="M843.587,-251.833C858.147,-249.942 873.552,-247.941 888.331,-246.022"/>
<polygon fill="midnightblue" stroke="midnightblue" points="888.979,-249.467 898.445,-244.708 888.078,-242.526 888.979,-249.467"/>
</g>
<!-- Node916 -->
<g id="node39" class="node"><title>Node916</title>
<g id="a_node39"><a xlink:href="class_f_list_frame.html#a58337134c45f052ad6bb45c014fd5c3f" target="_top" xlink:title="Récupère les titres d&#39;onglet. ">
<polygon fill="white" stroke="black" points="901,-270.5 901,-289.5 1032,-289.5 1032,-270.5 901,-270.5"/>
<text text-anchor="middle" x="966.5" y="-277.5" font-family="Helvetica,sans-Serif" font-size="10.00">FListFrame::getTabLabels</text>
</a>
</g>
</g>
<!-- Node912&#45;&gt;Node916 -->
<g id="edge46" class="edge"><title>Node912&#45;&gt;Node916</title>
<path fill="none" stroke="midnightblue" d="M843.587,-267.967C858.991,-269.487 875.341,-271.101 890.895,-272.636"/>
<polygon fill="midnightblue" stroke="midnightblue" points="890.689,-276.133 900.984,-273.632 891.376,-269.167 890.689,-276.133"/>
</g>
<!-- Node918 -->
<g id="node41" class="node"><title>Node918</title>
<g id="a_node41"><a xlink:href="class_altair.html#adc79f280e4f580298a8dd80e2f7cf712" target="_top" xlink:title="Parcourt la table de chachage Hash::wrapper dans laquelle sont stockés à la clé &quot;XHL&quot; les chemins des...">
<polygon fill="white" stroke="black" points="888,-308.5 888,-327.5 1045,-327.5 1045,-308.5 888,-308.5"/>
<text text-anchor="middle" x="966.5" y="-315.5" font-family="Helvetica,sans-Serif" font-size="10.00">Altair::processSecondLevelData</text>
</a>
</g>
</g>
<!-- Node912&#45;&gt;Node918 -->
<g id="edge48" class="edge"><title>Node912&#45;&gt;Node918</title>
<path fill="none" stroke="midnightblue" d="M813.16,-276.023C833.855,-283.471 859.598,-292.284 883,-299 891.715,-301.501 901.02,-303.9 910.125,-306.101"/>
<polygon fill="midnightblue" stroke="midnightblue" points="909.353,-309.515 919.889,-308.407 910.961,-302.702 909.353,-309.515"/>
</g>
<!-- Node913&#45;&gt;Node914 -->
<g id="edge42" class="edge"><title>Node913&#45;&gt;Node914</title>
<path fill="none" stroke="midnightblue" d="M1015.19,-163.589C1040.7,-168.716 1072.28,-175.067 1099.12,-180.463"/>
<polygon fill="midnightblue" stroke="midnightblue" points="1098.66,-183.94 1109.15,-182.48 1100.04,-177.077 1098.66,-183.94"/>
</g>
<!-- Node915&#45;&gt;Node914 -->
<g id="edge44" class="edge"><title>Node915&#45;&gt;Node914</title>
<path fill="none" stroke="midnightblue" d="M1032.01,-220.981C1056.14,-215.364 1083.18,-209.07 1105.87,-203.786"/>
<polygon fill="midnightblue" stroke="midnightblue" points="1106.69,-207.189 1115.64,-201.512 1105.11,-200.371 1106.69,-207.189"/>
</g>
<!-- Node917 -->
<g id="node40" class="node"><title>Node917</title>
<g id="a_node40"><a xlink:href="class_f_list_frame.html#a4bf0d0d8e56418df395b020d2e66db5f" target="_top" xlink:title="Récupère la taille courante (0&#45;based) du conteneur widgetContainer Cette taille doit en principe être...">
<polygon fill="white" stroke="black" points="1103,-270.5 1103,-289.5 1212,-289.5 1212,-270.5 1103,-270.5"/>
<text text-anchor="middle" x="1157.5" y="-277.5" font-family="Helvetica,sans-Serif" font-size="10.00">FListFrame::getRank</text>
</a>
</g>
</g>
<!-- Node916&#45;&gt;Node917 -->
<g id="edge47" class="edge"><title>Node916&#45;&gt;Node917</title>
<path fill="none" stroke="midnightblue" d="M1032.01,-280C1051.68,-280 1073.29,-280 1092.9,-280"/>
<polygon fill="midnightblue" stroke="midnightblue" points="1092.95,-283.5 1102.95,-280 1092.95,-276.5 1092.95,-283.5"/>
</g>
<!-- Node918&#45;&gt;Node905 -->
<g id="edge49" class="edge"><title>Node918&#45;&gt;Node905</title>
<path fill="none" stroke="midnightblue" d="M1015.19,-327.589C1046.3,-333.843 1086.46,-341.918 1116.01,-347.859"/>
<polygon fill="midnightblue" stroke="midnightblue" points="1115.5,-351.326 1125.99,-349.866 1116.88,-344.463 1115.5,-351.326"/>
</g>
</g>
</svg>
        <g id="navigator" transform="translate(0 0)" fill="#404254">
                <rect fill="#f2f5e9" fill-opacity="0.5" stroke="#606060" stroke-width=".5" x="0" y="0" width="60" height="60"/>
                <use id="zoomplus" xlink:href="#zoomPlus" x="17" y="9" onmousedown="handleZoom(evt,'in')"/>
                <use id="zoomminus" xlink:href="#zoomMin" x="42" y="9" onmousedown="handleZoom(evt,'out')"/>
                <use id="reset" xlink:href="#resetDef" x="30" y="36" onmousedown="handleReset()"/>
                <g id="arrowUp" xlink:href="#dirArrow" transform="translate(30 24)" onmousedown="handlePan(0,-1)">
                  <use xlink:href="#rim" fill="#404040">
                        <set attributeName="fill" to="#808080" begin="arrowUp.mouseover" end="arrowUp.mouseout"/>
                  </use>
                  <path fill="none" stroke="white" stroke-width="1.5" d="M0,-3.0v7 M-2.5,-0.5L0,-3.0L2.5,-0.5"/>
                </g>
                <g id="arrowRight" xlink:href="#dirArrow" transform="rotate(90) translate(36 -43)" onmousedown="handlePan(1,0)">
                  <use xlink:href="#rim" fill="#404040">
                        <set attributeName="fill" to="#808080" begin="arrowRight.mouseover" end="arrowRight.mouseout"/>
                  </use>
                  <path fill="none" stroke="white" stroke-width="1.5" d="M0,-3.0v7 M-2.5,-0.5L0,-3.0L2.5,-0.5"/>
                </g>
                <g id="arrowDown" xlink:href="#dirArrow" transform="rotate(180) translate(-30 -48)" onmousedown="handlePan(0,1)">
                  <use xlink:href="#rim" fill="#404040">
                        <set attributeName="fill" to="#808080" begin="arrowDown.mouseover" end="arrowDown.mouseout"/>
                  </use>
                  <path fill="none" stroke="white" stroke-width="1.5" d="M0,-3.0v7 M-2.5,-0.5L0,-3.0L2.5,-0.5"/>
                </g>
                <g id="arrowLeft" xlink:href="#dirArrow" transform="rotate(270) translate(-36 17)" onmousedown="handlePan(-1,0)">
                  <use xlink:href="#rim" fill="#404040">
                        <set attributeName="fill" to="#808080" begin="arrowLeft.mouseover" end="arrowLeft.mouseout"/>
                  </use>
                  <path fill="none" stroke="white" stroke-width="1.5" d="M0,-3.0v7 M-2.5,-0.5L0,-3.0L2.5,-0.5"/>
                </g>
        </g>
        <svg viewBox="0 0 15 15" width="100%" height="30px" preserveAspectRatio="xMaxYMin meet">
         <g id="arrow_out" transform="scale(0.3 0.3)">
          <a xlink:href="class_altair_a08b5e402c9a694af09110afe33219080_cgraph_org.svg" target="_base">
           <rect id="button" ry="5" rx="5" y="6" x="6" height="38" width="38"
                fill="#f2f5e9" fill-opacity="0.5" stroke="#606060" stroke-width="1.0"/>
           <path id="arrow"
             d="M 11.500037,31.436501 C 11.940474,20.09759 22.043105,11.32322 32.158766,21.979434 L 37.068811,17.246167 C 37.068811,17.246167 37.088388,32 37.088388,32 L 22.160133,31.978069 C 22.160133,31.978069 26.997745,27.140456 26.997745,27.140456 C 18.528582,18.264221 13.291696,25.230495 11.500037,31.436501 z"
             style="fill:#404040;"/>
          </a>
         </g>
        </svg>
</svg>
