<?xml version="1.0" encoding="UTF-8" standalone="no"?>
<!DOCTYPE svg PUBLIC "-//W3C//DTD SVG 1.1//EN"
 "http://www.w3.org/Graphics/SVG/1.1/DTD/svg11.dtd">
<!-- Generated by graphviz version 2.38.0 (20140413.2041)
 -->
<!-- Title: FListFrame::getCurrentRow Pages: 1 -->
<svg width="544pt" height="116pt"
 viewBox="0.00 0.00 544.00 115.50" xmlns="http://www.w3.org/2000/svg" xmlns:xlink="http://www.w3.org/1999/xlink">
<g id="graph0" class="graph" transform="scale(1 1) rotate(0) translate(4 111.5)">
<title>FListFrame::getCurrentRow</title>
<polygon fill="white" stroke="none" points="-4,4 -4,-111.5 540,-111.5 540,4 -4,4"/>
<!-- Node131 -->
<g id="node1" class="node"><title>Node131</title>
<polygon fill="#bfbfbf" stroke="black" points="0,-50 0,-69 138,-69 138,-50 0,-50"/>
<text text-anchor="middle" x="69" y="-57" font-family="Helvetica,sans-Serif" font-size="10.00">FListFrame::getCurrentRow</text>
</g>
<!-- Node132 -->
<g id="node2" class="node"><title>Node132</title>
<g id="a_node2"><a xlink:href="class_altair.html#a94c37375266a849cb43570457163db13" target="_top" xlink:title="Raffraîchit la valeur de row et currentIndex en fonction de l&#39;état de l&#39;onglet. ">
<polygon fill="white" stroke="black" points="174,-50 174,-69 289,-69 289,-50 174,-50"/>
<text text-anchor="middle" x="231.5" y="-57" font-family="Helvetica,sans-Serif" font-size="10.00">Altair::updateIndexInfo</text>
</a>
</g>
</g>
<!-- Node131&#45;&gt;Node132 -->
<g id="edge1" class="edge"><title>Node131&#45;&gt;Node132</title>
<path fill="none" stroke="midnightblue" d="M148.222,-59.5C156.907,-59.5 165.623,-59.5 173.963,-59.5"/>
<polygon fill="midnightblue" stroke="midnightblue" points="148.066,-56.0001 138.066,-59.5 148.066,-63.0001 148.066,-56.0001"/>
</g>
<!-- Node133 -->
<g id="node3" class="node"><title>Node133</title>
<g id="a_node3"><a xlink:href="class_altair.html#ab913abfdd0c6fbbceb9a051a4443d5fa" target="_top" xlink:title="Supprimer un onglet central. ">
<polygon fill="white" stroke="black" points="329.5,-88 329.5,-107 427.5,-107 427.5,-88 329.5,-88"/>
<text text-anchor="middle" x="378.5" y="-95" font-family="Helvetica,sans-Serif" font-size="10.00">Altair::deleteGroup</text>
</a>
</g>
</g>
<!-- Node132&#45;&gt;Node133 -->
<g id="edge2" class="edge"><title>Node132&#45;&gt;Node133</title>
<path fill="none" stroke="midnightblue" d="M278.993,-71.6843C299.124,-76.96 322.338,-83.0438 341.173,-87.9799"/>
<polygon fill="midnightblue" stroke="midnightblue" points="279.65,-68.2385 269.09,-69.089 277.876,-75.0098 279.65,-68.2385"/>
</g>
<!-- Node135 -->
<g id="node5" class="node"><title>Node135</title>
<g id="a_node5"><a xlink:href="class_altair.html#a1afa285a65e0bdff4c761ad05ec9f8df" target="_top" xlink:title="Fonction réimplémentée : fin du déplacement de la souris. ">
<polygon fill="white" stroke="black" points="334,-50 334,-69 423,-69 423,-50 334,-50"/>
<text text-anchor="middle" x="378.5" y="-57" font-family="Helvetica,sans-Serif" font-size="10.00">Altair::dropEvent</text>
</a>
</g>
</g>
<!-- Node132&#45;&gt;Node135 -->
<g id="edge4" class="edge"><title>Node132&#45;&gt;Node135</title>
<path fill="none" stroke="midnightblue" d="M299.531,-59.5C311.159,-59.5 322.976,-59.5 333.776,-59.5"/>
<polygon fill="midnightblue" stroke="midnightblue" points="299.392,-56.0001 289.392,-59.5 299.392,-63.0001 299.392,-56.0001"/>
</g>
<!-- Node136 -->
<g id="node6" class="node"><title>Node136</title>
<g id="a_node6"><a xlink:href="class_altair.html#a299584936cc20c9a1451977264eba1f5" target="_top" xlink:title="Ecrase un item d&#39;un onglet donné ">
<polygon fill="white" stroke="black" points="325,-0.5 325,-30.5 432,-30.5 432,-0.5 325,-0.5"/>
<text text-anchor="start" x="333" y="-18.5" font-family="Helvetica,sans-Serif" font-size="10.00">Altair::on_deleteItem</text>
<text text-anchor="middle" x="378.5" y="-7.5" font-family="Helvetica,sans-Serif" font-size="10.00">_clicked</text>
</a>
</g>
</g>
<!-- Node132&#45;&gt;Node136 -->
<g id="edge5" class="edge"><title>Node132&#45;&gt;Node136</title>
<path fill="none" stroke="midnightblue" d="M273.546,-47.0447C290.438,-41.9187 310.157,-35.9351 327.853,-30.5654"/>
<polygon fill="midnightblue" stroke="midnightblue" points="272.516,-43.6996 263.963,-49.9527 274.548,-50.398 272.516,-43.6996"/>
</g>
<!-- Node134 -->
<g id="node4" class="node"><title>Node134</title>
<g id="a_node4"><a xlink:href="class_altair.html#ae0975ced0a36e0ed889ae06043a4df66" target="_top" xlink:title="Constructeur. ">
<polygon fill="white" stroke="black" points="468,-47 468,-66 536,-66 536,-47 468,-47"/>
<text text-anchor="middle" x="502" y="-54" font-family="Helvetica,sans-Serif" font-size="10.00">Altair::Altair</text>
</a>
</g>
</g>
<!-- Node133&#45;&gt;Node134 -->
<g id="edge3" class="edge"><title>Node133&#45;&gt;Node134</title>
<path fill="none" stroke="midnightblue" d="M417.232,-84.7674C435.089,-78.7416 456.06,-71.665 472.552,-66.0997"/>
<polygon fill="midnightblue" stroke="midnightblue" points="416.036,-81.477 407.68,-87.9907 418.274,-88.1096 416.036,-81.477"/>
</g>
<!-- Node136&#45;&gt;Node134 -->
<g id="edge6" class="edge"><title>Node136&#45;&gt;Node134</title>
<path fill="none" stroke="midnightblue" d="M433.729,-33.7995C447.176,-38.3371 461.053,-43.0201 472.686,-46.9455"/>
<polygon fill="midnightblue" stroke="midnightblue" points="434.646,-30.4152 424.052,-30.5341 432.408,-37.0478 434.646,-30.4152"/>
</g>
</g>
</svg>
