<?xml version="1.0" encoding="UTF-8" standalone="no"?>
<!DOCTYPE svg PUBLIC "-//W3C//DTD SVG 1.1//EN"
 "http://www.w3.org/Graphics/SVG/1.1/DTD/svg11.dtd">
<!-- Generated by graphviz version 2.38.0 (20140413.2041)
 -->
<!-- Title: MainWindow::restoreProject Pages: 1 -->
<svg width="635pt" height="104pt"
 viewBox="0.00 0.00 635.00 104.00" xmlns="http://www.w3.org/2000/svg" xmlns:xlink="http://www.w3.org/1999/xlink">
<g id="graph0" class="graph" transform="scale(1 1) rotate(0) translate(4 100)">
<title>MainWindow::restoreProject</title>
<polygon fill="white" stroke="none" points="-4,4 -4,-100 631,-100 631,4 -4,4"/>
<!-- Node279 -->
<g id="node1" class="node"><title>Node279</title>
<polygon fill="#bfbfbf" stroke="black" points="0,-38.5 0,-57.5 149,-57.5 149,-38.5 0,-38.5"/>
<text text-anchor="middle" x="74.5" y="-45.5" font-family="Helvetica,sans-Serif" font-size="10.00">MainWindow::restoreProject</text>
</g>
<!-- Node280 -->
<g id="node2" class="node"><title>Node280</title>
<g id="a_node2"><a xlink:href="classtools.html#a0765c68c41d7c957f1fb0f0da8b4a9c9" target="_top" xlink:title="Copie un fichier de manière sécurisée. ">
<polygon fill="white" stroke="black" points="303,-76.5 303,-95.5 386,-95.5 386,-76.5 303,-76.5"/>
<text text-anchor="middle" x="344.5" y="-83.5" font-family="Helvetica,sans-Serif" font-size="10.00">tools::copyFile</text>
</a>
</g>
</g>
<!-- Node279&#45;&gt;Node280 -->
<g id="edge1" class="edge"><title>Node279&#45;&gt;Node280</title>
<path fill="none" stroke="midnightblue" d="M142.782,-57.54C189.335,-64.1408 250.313,-72.7869 292.789,-78.8096"/>
<polygon fill="midnightblue" stroke="midnightblue" points="292.507,-82.3046 302.9,-80.2432 293.49,-75.3739 292.507,-82.3046"/>
</g>
<!-- Node283 -->
<g id="node5" class="node"><title>Node283</title>
<g id="a_node5"><a xlink:href="classtools.html#a22819e1b381949304b8fde11a91a7de3" target="_top" xlink:title="Décompresser un fichier au format zip. ">
<polygon fill="white" stroke="black" points="310.5,-38.5 310.5,-57.5 378.5,-57.5 378.5,-38.5 310.5,-38.5"/>
<text text-anchor="middle" x="344.5" y="-45.5" font-family="Helvetica,sans-Serif" font-size="10.00">tools::unzip</text>
</a>
</g>
</g>
<!-- Node279&#45;&gt;Node283 -->
<g id="edge5" class="edge"><title>Node279&#45;&gt;Node283</title>
<path fill="none" stroke="midnightblue" d="M149.087,-48C197.553,-48 259.356,-48 300.115,-48"/>
<polygon fill="midnightblue" stroke="midnightblue" points="300.258,-51.5001 310.258,-48 300.258,-44.5001 300.258,-51.5001"/>
</g>
<!-- Node284 -->
<g id="node6" class="node"><title>Node284</title>
<g id="a_node6"><a xlink:href="classtools.html#ae821185bfd6650842559ef2f9d92f1ac" target="_top" xlink:title="Décompresse l&#39;intégralité d&#39;un répertoire au format zip, et copie le dossier décompressé dans un chem...">
<polygon fill="white" stroke="black" points="185,-0.5 185,-19.5 267,-19.5 267,-0.5 185,-0.5"/>
<text text-anchor="middle" x="226" y="-7.5" font-family="Helvetica,sans-Serif" font-size="10.00">tools::unzipDir</text>
</a>
</g>
</g>
<!-- Node279&#45;&gt;Node284 -->
<g id="edge7" class="edge"><title>Node279&#45;&gt;Node284</title>
<path fill="none" stroke="midnightblue" d="M113.225,-38.411C132.776,-33.4417 156.847,-27.3233 177.637,-22.0387"/>
<polygon fill="midnightblue" stroke="midnightblue" points="178.717,-25.3757 187.546,-19.5201 176.992,-18.5915 178.717,-25.3757"/>
</g>
<!-- Node281 -->
<g id="node3" class="node"><title>Node281</title>
<g id="a_node3"><a xlink:href="classtools.html#ae1018e45c513785270b999cbcfa8beb6" target="_top" xlink:title="Procédure de contrôle des entrées&#45;sorties. ">
<polygon fill="white" stroke="black" points="422,-38.5 422,-57.5 511,-57.5 511,-38.5 422,-38.5"/>
<text text-anchor="middle" x="466.5" y="-45.5" font-family="Helvetica,sans-Serif" font-size="10.00">tools::IOControl</text>
</a>
</g>
</g>
<!-- Node280&#45;&gt;Node281 -->
<g id="edge2" class="edge"><title>Node280&#45;&gt;Node281</title>
<path fill="none" stroke="midnightblue" d="M375.781,-76.411C390.846,-71.6406 409.254,-65.8112 425.467,-60.6771"/>
<polygon fill="midnightblue" stroke="midnightblue" points="426.752,-63.9416 435.229,-57.5859 424.639,-57.2682 426.752,-63.9416"/>
</g>
<!-- Node282 -->
<g id="node4" class="node"><title>Node282</title>
<g id="a_node4"><a xlink:href="classtools.html#a37c9c486d90129b0d6a4ac93f29fd5bb" target="_top" xlink:title="Copie un répertoire de manière sécurisée. ">
<polygon fill="white" stroke="black" points="547,-57.5 547,-76.5 627,-76.5 627,-57.5 547,-57.5"/>
<text text-anchor="middle" x="587" y="-64.5" font-family="Helvetica,sans-Serif" font-size="10.00">tools::copyDir</text>
</a>
</g>
</g>
<!-- Node281&#45;&gt;Node282 -->
<g id="edge3" class="edge"><title>Node281&#45;&gt;Node282</title>
<path fill="none" stroke="midnightblue" d="M511.288,-55.0209C519.538,-56.3436 528.217,-57.7353 536.624,-59.0832"/>
<polygon fill="midnightblue" stroke="midnightblue" points="536.268,-62.5706 546.696,-60.698 537.376,-55.6589 536.268,-62.5706"/>
</g>
<!-- Node282&#45;&gt;Node280 -->
<g id="edge4" class="edge"><title>Node282&#45;&gt;Node280</title>
<path fill="none" stroke="midnightblue" d="M546.905,-70.0886C505.841,-73.3327 441.101,-78.4473 396.149,-81.9986"/>
<polygon fill="midnightblue" stroke="midnightblue" points="395.719,-78.5216 386.026,-82.7984 396.27,-85.4999 395.719,-78.5216"/>
</g>
<!-- Node283&#45;&gt;Node281 -->
<g id="edge6" class="edge"><title>Node283&#45;&gt;Node281</title>
<path fill="none" stroke="midnightblue" d="M378.608,-48C388.806,-48 400.311,-48 411.531,-48"/>
<polygon fill="midnightblue" stroke="midnightblue" points="411.71,-51.5001 421.71,-48 411.71,-44.5001 411.71,-51.5001"/>
</g>
<!-- Node284&#45;&gt;Node283 -->
<g id="edge8" class="edge"><title>Node284&#45;&gt;Node283</title>
<path fill="none" stroke="midnightblue" d="M256.398,-19.589C270.885,-24.3144 288.558,-30.0789 304.189,-35.1774"/>
<polygon fill="midnightblue" stroke="midnightblue" points="303.519,-38.6405 314.112,-38.4141 305.69,-31.9855 303.519,-38.6405"/>
</g>
</g>
</svg>
