<?xml version="1.0" encoding="UTF-8" standalone="no"?>
<!DOCTYPE svg PUBLIC "-//W3C//DTD SVG 1.1//EN"
 "http://www.w3.org/Graphics/SVG/1.1/DTD/svg11.dtd">
<!-- Generated by graphviz version 2.38.0 (20140413.2041)
 -->
<!-- Title: FListFrame::launch_thread Pages: 1 -->
<svg width="434pt" height="39pt"
 viewBox="0.00 0.00 434.00 39.00" xmlns="http://www.w3.org/2000/svg" xmlns:xlink="http://www.w3.org/1999/xlink">
<g id="graph0" class="graph" transform="scale(1 1) rotate(0) translate(4 35)">
<title>FListFrame::launch_thread</title>
<polygon fill="white" stroke="none" points="-4,4 -4,-35 430,-35 430,4 -4,4"/>
<!-- Node918 -->
<g id="node1" class="node"><title>Node918</title>
<polygon fill="#bfbfbf" stroke="black" points="0,-0.5 0,-30.5 104,-30.5 104,-0.5 0,-0.5"/>
<text text-anchor="start" x="8" y="-18.5" font-family="Helvetica,sans-Serif" font-size="10.00">FListFrame::launch</text>
<text text-anchor="middle" x="52" y="-7.5" font-family="Helvetica,sans-Serif" font-size="10.00">_thread</text>
</g>
<!-- Node919 -->
<g id="node2" class="node"><title>Node919</title>
<g id="a_node2"><a xlink:href="class_f_list_frame.html#a802475894ee1e30753faed81d9f9dc4b" target="_top" xlink:title="Appelle parseXhlFile(const QString&amp;) sur l&#39;ensemble de widgetContainer. ">
<polygon fill="white" stroke="black" points="140,-6 140,-25 272,-25 272,-6 140,-6"/>
<text text-anchor="middle" x="206" y="-13" font-family="Helvetica,sans-Serif" font-size="10.00">FListFrame::parseXhlFile</text>
</a>
</g>
</g>
<!-- Node918&#45;&gt;Node919 -->
<g id="edge1" class="edge"><title>Node918&#45;&gt;Node919</title>
<path fill="none" stroke="midnightblue" d="M104.037,-9.08464C112.281,-8.85591 120.967,-8.74444 129.641,-8.75021"/>
<polygon fill="midnightblue" stroke="midnightblue" points="129.771,-12.251 139.792,-8.81085 129.813,-5.25108 129.771,-12.251"/>
</g>
<!-- Node919&#45;&gt;Node918 -->
<g id="edge3" class="edge"><title>Node919&#45;&gt;Node918</title>
<path fill="none" stroke="midnightblue" d="M139.792,-22.1891C131.289,-22.2856 122.602,-22.2674 114.168,-22.1344"/>
<polygon fill="midnightblue" stroke="midnightblue" points="114.11,-18.6324 104.037,-21.9154 113.959,-25.6308 114.11,-18.6324"/>
</g>
<!-- Node920 -->
<g id="node3" class="node"><title>Node920</title>
<g id="a_node3"><a xlink:href="classtools.html#a0aa994303a938a76300767d2251b9f85" target="_top" xlink:title="Détecte si un disque optique est monté. ">
<polygon fill="white" stroke="black" points="308,-6 308,-25 426,-25 426,-6 308,-6"/>
<text text-anchor="middle" x="367" y="-13" font-family="Helvetica,sans-Serif" font-size="10.00">tools::cdRomMounted</text>
</a>
</g>
</g>
<!-- Node919&#45;&gt;Node920 -->
<g id="edge2" class="edge"><title>Node919&#45;&gt;Node920</title>
<path fill="none" stroke="midnightblue" d="M272.13,-15.5C280.544,-15.5 289.18,-15.5 297.645,-15.5"/>
<polygon fill="midnightblue" stroke="midnightblue" points="297.857,-19.0001 307.857,-15.5 297.857,-12.0001 297.857,-19.0001"/>
</g>
</g>
</svg>
