<?xml version="1.0" encoding="UTF-8" standalone="no"?>
<!DOCTYPE svg PUBLIC "-//W3C//DTD SVG 1.1//EN"
 "http://www.w3.org/Graphics/SVG/1.1/DTD/svg11.dtd">
<!-- Generated by graphviz version 2.38.0 (20140413.2041)
 -->
<!-- Title: FListFrame::initializeWidgetContainer Pages: 1 -->
<svg width="857pt" height="127pt"
 viewBox="0.00 0.00 857.00 126.50" xmlns="http://www.w3.org/2000/svg" xmlns:xlink="http://www.w3.org/1999/xlink">
<g id="graph0" class="graph" transform="scale(1 1) rotate(0) translate(4 122.5)">
<title>FListFrame::initializeWidgetContainer</title>
<polygon fill="white" stroke="none" points="-4,4 -4,-122.5 853,-122.5 853,4 -4,4"/>
<!-- Node860 -->
<g id="node1" class="node"><title>Node860</title>
<polygon fill="#bfbfbf" stroke="black" points="0,-24.5 0,-54.5 138,-54.5 138,-24.5 0,-24.5"/>
<text text-anchor="start" x="8" y="-42.5" font-family="Helvetica,sans-Serif" font-size="10.00">FListFrame::initializeWidget</text>
<text text-anchor="middle" x="69" y="-31.5" font-family="Helvetica,sans-Serif" font-size="10.00">Container</text>
</g>
<!-- Node861 -->
<g id="node2" class="node"><title>Node861</title>
<g id="a_node2"><a xlink:href="class_f_list_frame.html#a4228ed10f2d800b92ff34e2f25edcd8c" target="_top" xlink:title="Ajoute les fichiers d&#39;une portion d&#39;arborescence de fichiers au composant courant de l&#39;onglet central...">
<polygon fill="white" stroke="black" points="174,-24.5 174,-54.5 312,-54.5 312,-24.5 174,-24.5"/>
<text text-anchor="start" x="182" y="-42.5" font-family="Helvetica,sans-Serif" font-size="10.00">FListFrame::addParsedTree</text>
<text text-anchor="middle" x="243" y="-31.5" font-family="Helvetica,sans-Serif" font-size="10.00">ToListWidget</text>
</a>
</g>
</g>
<!-- Node860&#45;&gt;Node861 -->
<g id="edge1" class="edge"><title>Node860&#45;&gt;Node861</title>
<path fill="none" stroke="midnightblue" d="M138.473,-39.5C146.732,-39.5 155.216,-39.5 163.602,-39.5"/>
<polygon fill="midnightblue" stroke="midnightblue" points="163.762,-43.0001 173.762,-39.5 163.762,-36.0001 163.762,-43.0001"/>
</g>
<!-- Node862 -->
<g id="node3" class="node"><title>Node862</title>
<g id="a_node3"><a xlink:href="class_f_list_frame.html#af8c91e66c02e4c6f1f0fb66097903b73" target="_top" xlink:title="FListFrame::addStringList\lToListWidget">
<polygon fill="white" stroke="black" points="348.5,-49.5 348.5,-79.5 477.5,-79.5 477.5,-49.5 348.5,-49.5"/>
<text text-anchor="start" x="356.5" y="-67.5" font-family="Helvetica,sans-Serif" font-size="10.00">FListFrame::addStringList</text>
<text text-anchor="middle" x="413" y="-56.5" font-family="Helvetica,sans-Serif" font-size="10.00">ToListWidget</text>
</a>
</g>
</g>
<!-- Node861&#45;&gt;Node862 -->
<g id="edge2" class="edge"><title>Node861&#45;&gt;Node862</title>
<path fill="none" stroke="midnightblue" d="M312.332,-49.6685C320.885,-50.9413 329.664,-52.2476 338.295,-53.5319"/>
<polygon fill="midnightblue" stroke="midnightblue" points="337.93,-57.0162 348.337,-55.0263 338.961,-50.0924 337.93,-57.0162"/>
</g>
<!-- Node869 -->
<g id="node10" class="node"><title>Node869</title>
<g id="a_node10"><a xlink:href="class_f_list_frame.html#ae166a8e51ccbb22a5aa2f1d885507565" target="_top" xlink:title="FListFrame::parseTreeFor\lFilePaths">
<polygon fill="white" stroke="black" points="348,-0.5 348,-30.5 478,-30.5 478,-0.5 348,-0.5"/>
<text text-anchor="start" x="356" y="-18.5" font-family="Helvetica,sans-Serif" font-size="10.00">FListFrame::parseTreeFor</text>
<text text-anchor="middle" x="413" y="-7.5" font-family="Helvetica,sans-Serif" font-size="10.00">FilePaths</text>
</a>
</g>
</g>
<!-- Node861&#45;&gt;Node869 -->
<g id="edge10" class="edge"><title>Node861&#45;&gt;Node869</title>
<path fill="none" stroke="midnightblue" d="M312.332,-29.7383C320.663,-28.5481 329.208,-27.3274 337.622,-26.1254"/>
<polygon fill="midnightblue" stroke="midnightblue" points="338.393,-29.5509 347.797,-24.6718 337.403,-22.6213 338.393,-29.5509"/>
</g>
<!-- Node863 -->
<g id="node4" class="node"><title>Node863</title>
<g id="a_node4"><a xlink:href="class_f_list_frame.html#a9353fe4926e97788a6462c3ee79f6a15" target="_top" xlink:title="FListFrame::clearTabLabels">
<polygon fill="white" stroke="black" points="524,-99 524,-118 662,-118 662,-99 524,-99"/>
<text text-anchor="middle" x="593" y="-106" font-family="Helvetica,sans-Serif" font-size="10.00">FListFrame::clearTabLabels</text>
</a>
</g>
</g>
<!-- Node862&#45;&gt;Node863 -->
<g id="edge3" class="edge"><title>Node862&#45;&gt;Node863</title>
<path fill="none" stroke="midnightblue" d="M474.003,-79.5634C487.177,-82.8532 501.056,-86.3056 514,-89.5 523.34,-91.805 533.314,-94.2483 542.901,-96.5878"/>
<polygon fill="midnightblue" stroke="midnightblue" points="542.164,-100.011 552.708,-98.9779 543.821,-93.2096 542.164,-100.011"/>
</g>
<!-- Node865 -->
<g id="node6" class="node"><title>Node865</title>
<g id="a_node6"><a xlink:href="class_f_list_frame.html#a0ebe3d7847101344e70c84aff2be39b0" target="_top" xlink:title="Accesseur en lecture du nombre d&#39;éléments (nombre d&#39;onglets) du vecteur widgetContainer. ">
<polygon fill="white" stroke="black" points="514,-49.5 514,-79.5 672,-79.5 672,-49.5 514,-49.5"/>
<text text-anchor="start" x="522" y="-67.5" font-family="Helvetica,sans-Serif" font-size="10.00">FListFrame::getWidgetContainer</text>
<text text-anchor="middle" x="593" y="-56.5" font-family="Helvetica,sans-Serif" font-size="10.00">Count</text>
</a>
</g>
</g>
<!-- Node862&#45;&gt;Node865 -->
<g id="edge5" class="edge"><title>Node862&#45;&gt;Node865</title>
<path fill="none" stroke="midnightblue" d="M477.508,-64.5C486.068,-64.5 494.972,-64.5 503.864,-64.5"/>
<polygon fill="midnightblue" stroke="midnightblue" points="503.879,-68.0001 513.879,-64.5 503.879,-61.0001 503.879,-68.0001"/>
</g>
<!-- Node866 -->
<g id="node7" class="node"><title>Node866</title>
<g id="a_node7"><a xlink:href="class_f_list_frame.html#a802475894ee1e30753faed81d9f9dc4b" target="_top" xlink:title="Appelle parseXhlFile(const QString&amp;) sur l&#39;ensemble de widgetContainer. ">
<polygon fill="white" stroke="black" points="530,-11 530,-30 656,-30 656,-11 530,-11"/>
<text text-anchor="middle" x="593" y="-18" font-family="Helvetica,sans-Serif" font-size="10.00">FListFrame::parseXhlFile</text>
</a>
</g>
</g>
<!-- Node862&#45;&gt;Node866 -->
<g id="edge6" class="edge"><title>Node862&#45;&gt;Node866</title>
<path fill="none" stroke="midnightblue" d="M474.003,-49.4366C487.177,-46.1468 501.056,-42.6944 514,-39.5 523.34,-37.195 533.314,-34.7517 542.901,-32.4122"/>
<polygon fill="midnightblue" stroke="midnightblue" points="543.821,-35.7904 552.708,-30.0221 542.164,-28.9894 543.821,-35.7904"/>
</g>
<!-- Node864 -->
<g id="node5" class="node"><title>Node864</title>
<g id="a_node5"><a xlink:href="class_f_list_widget.html#a74bf008958a87e9055b8ec6573d8e2e9" target="_top" xlink:title="FListWidget::clearTabLabels">
<polygon fill="white" stroke="black" points="708,-99 708,-118 849,-118 849,-99 708,-99"/>
<text text-anchor="middle" x="778.5" y="-106" font-family="Helvetica,sans-Serif" font-size="10.00">FListWidget::clearTabLabels</text>
</a>
</g>
</g>
<!-- Node863&#45;&gt;Node864 -->
<g id="edge4" class="edge"><title>Node863&#45;&gt;Node864</title>
<path fill="none" stroke="midnightblue" d="M662.068,-108.5C673.586,-108.5 685.638,-108.5 697.428,-108.5"/>
<polygon fill="midnightblue" stroke="midnightblue" points="697.702,-112 707.702,-108.5 697.702,-105 697.702,-112"/>
</g>
<!-- Node867 -->
<g id="node8" class="node"><title>Node867</title>
<g id="a_node8"><a xlink:href="classtools.html#a0aa994303a938a76300767d2251b9f85" target="_top" xlink:title="Détecte si un disque optique est monté. ">
<polygon fill="white" stroke="black" points="722,-55 722,-74 835,-74 835,-55 722,-55"/>
<text text-anchor="middle" x="778.5" y="-62" font-family="Helvetica,sans-Serif" font-size="10.00">tools::cdRomMounted</text>
</a>
</g>
</g>
<!-- Node866&#45;&gt;Node867 -->
<g id="edge7" class="edge"><title>Node866&#45;&gt;Node867</title>
<path fill="none" stroke="midnightblue" d="M633.817,-30.0473C661.35,-36.6492 698.186,-45.4819 727.667,-52.551"/>
<polygon fill="midnightblue" stroke="midnightblue" points="727.22,-56.043 737.761,-54.9713 728.853,-49.236 727.22,-56.043"/>
</g>
<!-- Node868 -->
<g id="node9" class="node"><title>Node868</title>
<g id="a_node9"><a xlink:href="class_f_list_frame.html#a22a50157e8c6d287c2b2c08d2b7deee9" target="_top" xlink:title="Lancer un fil d&#39;exécution pour lire l&#39;entête d&#39;un fichier XHL (Année, Mois,...) et classer les fichie...">
<polygon fill="white" stroke="black" points="728,-5.5 728,-35.5 829,-35.5 829,-5.5 728,-5.5"/>
<text text-anchor="start" x="736" y="-23.5" font-family="Helvetica,sans-Serif" font-size="10.00">FListFrame::launch</text>
<text text-anchor="middle" x="778.5" y="-12.5" font-family="Helvetica,sans-Serif" font-size="10.00">_thread</text>
</a>
</g>
</g>
<!-- Node866&#45;&gt;Node868 -->
<g id="edge8" class="edge"><title>Node866&#45;&gt;Node868</title>
<path fill="none" stroke="midnightblue" d="M656.125,-14.073C676.046,-13.624 698.055,-13.6431 717.8,-14.1302"/>
<polygon fill="midnightblue" stroke="midnightblue" points="717.796,-17.6315 727.895,-14.4276 718.003,-10.6346 717.796,-17.6315"/>
</g>
<!-- Node868&#45;&gt;Node866 -->
<g id="edge9" class="edge"><title>Node868&#45;&gt;Node866</title>
<path fill="none" stroke="midnightblue" d="M727.895,-26.5724C708.9,-27.2286 686.826,-27.4082 666.145,-27.1111"/>
<polygon fill="midnightblue" stroke="midnightblue" points="666.187,-23.6114 656.125,-26.927 666.059,-30.6102 666.187,-23.6114"/>
</g>
</g>
</svg>
