<?xml version="1.0" encoding="UTF-8" standalone="no"?>
<!DOCTYPE svg PUBLIC "-//W3C//DTD SVG 1.1//EN"
 "http://www.w3.org/Graphics/SVG/1.1/DTD/svg11.dtd">
<!-- Generated by graphviz version 2.38.0 (20140413.2041)
 -->
<!-- Title: FListFrame::parseTreeForFilePaths Pages: 1 -->
<svg width="643pt" height="78pt"
 viewBox="0.00 0.00 643.00 77.50" xmlns="http://www.w3.org/2000/svg" xmlns:xlink="http://www.w3.org/1999/xlink">
<g id="graph0" class="graph" transform="scale(1 1) rotate(0) translate(4 73.5)">
<title>FListFrame::parseTreeForFilePaths</title>
<polygon fill="white" stroke="none" points="-4,4 -4,-73.5 639,-73.5 639,4 -4,4"/>
<!-- Node338 -->
<g id="node1" class="node"><title>Node338</title>
<polygon fill="#bfbfbf" stroke="black" points="0,-22.5 0,-52.5 130,-52.5 130,-22.5 0,-22.5"/>
<text text-anchor="start" x="8" y="-40.5" font-family="Helvetica,sans-Serif" font-size="10.00">FListFrame::parseTreeFor</text>
<text text-anchor="middle" x="65" y="-29.5" font-family="Helvetica,sans-Serif" font-size="10.00">FilePaths</text>
</g>
<!-- Node339 -->
<g id="node2" class="node"><title>Node339</title>
<g id="a_node2"><a xlink:href="class_f_list_frame.html#a4228ed10f2d800b92ff34e2f25edcd8c" target="_top" xlink:title="FListFrame::addParsedTree\lToListWidget">
<polygon fill="white" stroke="black" points="166,-22.5 166,-52.5 304,-52.5 304,-22.5 166,-22.5"/>
<text text-anchor="start" x="174" y="-40.5" font-family="Helvetica,sans-Serif" font-size="10.00">FListFrame::addParsedTree</text>
<text text-anchor="middle" x="235" y="-29.5" font-family="Helvetica,sans-Serif" font-size="10.00">ToListWidget</text>
</a>
</g>
</g>
<!-- Node338&#45;&gt;Node339 -->
<g id="edge1" class="edge"><title>Node338&#45;&gt;Node339</title>
<path fill="none" stroke="midnightblue" d="M140.611,-37.5C148.993,-37.5 157.502,-37.5 165.797,-37.5"/>
<polygon fill="midnightblue" stroke="midnightblue" points="140.473,-34.0001 130.473,-37.5 140.473,-41.0001 140.473,-34.0001"/>
</g>
<!-- Node340 -->
<g id="node3" class="node"><title>Node340</title>
<g id="a_node3"><a xlink:href="class_altair.html#a1afa285a65e0bdff4c761ad05ec9f8df" target="_top" xlink:title="Fonction réimplémentée : fin du déplacement de la souris. ">
<polygon fill="white" stroke="black" points="364,-50 364,-69 453,-69 453,-50 364,-50"/>
<text text-anchor="middle" x="408.5" y="-57" font-family="Helvetica,sans-Serif" font-size="10.00">Altair::dropEvent</text>
</a>
</g>
</g>
<!-- Node339&#45;&gt;Node340 -->
<g id="edge2" class="edge"><title>Node339&#45;&gt;Node340</title>
<path fill="none" stroke="midnightblue" d="M314.246,-47.5374C331.296,-49.7245 348.744,-51.9628 363.867,-53.9028"/>
<polygon fill="midnightblue" stroke="midnightblue" points="314.638,-44.0591 304.274,-46.2582 313.747,-51.0022 314.638,-44.0591"/>
</g>
<!-- Node341 -->
<g id="node4" class="node"><title>Node341</title>
<g id="a_node4"><a xlink:href="class_f_list_frame.html#ac14c494842340a0438766256c01f83bc" target="_top" xlink:title="FListFrame::on_importFrom\lMainTree_clicked">
<polygon fill="white" stroke="black" points="340,-0.5 340,-30.5 477,-30.5 477,-0.5 340,-0.5"/>
<text text-anchor="start" x="348" y="-18.5" font-family="Helvetica,sans-Serif" font-size="10.00">FListFrame::on_importFrom</text>
<text text-anchor="middle" x="408.5" y="-7.5" font-family="Helvetica,sans-Serif" font-size="10.00">MainTree_clicked</text>
</a>
</g>
</g>
<!-- Node339&#45;&gt;Node341 -->
<g id="edge3" class="edge"><title>Node339&#45;&gt;Node341</title>
<path fill="none" stroke="midnightblue" d="M314.213,-27.4669C322.735,-26.3736 331.358,-25.2675 339.741,-24.1921"/>
<polygon fill="midnightblue" stroke="midnightblue" points="313.747,-23.9978 304.274,-28.7418 314.638,-30.9409 313.747,-23.9978"/>
</g>
<!-- Node342 -->
<g id="node5" class="node"><title>Node342</title>
<g id="a_node5"><a xlink:href="class_f_list_frame.html#a865246df8a4d4000ac3c818abc6d7f71" target="_top" xlink:title="FListFrame::FListFrame">
<polygon fill="white" stroke="black" points="513,-6 513,-25 635,-25 635,-6 513,-6"/>
<text text-anchor="middle" x="574" y="-13" font-family="Helvetica,sans-Serif" font-size="10.00">FListFrame::FListFrame</text>
</a>
</g>
</g>
<!-- Node341&#45;&gt;Node342 -->
<g id="edge4" class="edge"><title>Node341&#45;&gt;Node342</title>
<path fill="none" stroke="midnightblue" d="M487.688,-15.5C496.148,-15.5 504.658,-15.5 512.857,-15.5"/>
<polygon fill="midnightblue" stroke="midnightblue" points="487.418,-12.0001 477.418,-15.5 487.418,-19.0001 487.418,-12.0001"/>
</g>
</g>
</svg>
