<?xml version="1.0" encoding="UTF-8" standalone="no"?>
<!DOCTYPE svg PUBLIC "-//W3C//DTD SVG 1.1//EN"
 "http://www.w3.org/Graphics/SVG/1.1/DTD/svg11.dtd">
<!-- Generated by graphviz version 2.38.0 (20140413.2041)
 -->
<!-- Title: Altair::writeProjectFile Pages: 1 -->
<svg width="473pt" height="104pt"
 viewBox="0.00 0.00 473.00 104.00" xmlns="http://www.w3.org/2000/svg" xmlns:xlink="http://www.w3.org/1999/xlink">
<g id="graph0" class="graph" transform="scale(1 1) rotate(0) translate(4 100)">
<title>Altair::writeProjectFile</title>
<polygon fill="white" stroke="none" points="-4,4 -4,-100 469,-100 469,4 -4,4"/>
<!-- Node1100 -->
<g id="node1" class="node"><title>Node1100</title>
<polygon fill="#bfbfbf" stroke="black" points="0,-38.5 0,-57.5 113,-57.5 113,-38.5 0,-38.5"/>
<text text-anchor="middle" x="56.5" y="-45.5" font-family="Helvetica,sans-Serif" font-size="10.00">Altair::writeProjectFile</text>
</g>
<!-- Node1101 -->
<g id="node2" class="node"><title>Node1101</title>
<g id="a_node2"><a xlink:href="class_altair.html#a9df2266cd3e2a9905e74bb41c1f9415d" target="_top" xlink:title="Remplace un nom de projet vide par un nom par défaut. ">
<polygon fill="white" stroke="black" points="149,-76.5 149,-95.5 306,-95.5 306,-76.5 149,-76.5"/>
<text text-anchor="middle" x="227.5" y="-83.5" font-family="Helvetica,sans-Serif" font-size="10.00">Altair::checkEmptyProjectName</text>
</a>
</g>
</g>
<!-- Node1100&#45;&gt;Node1101 -->
<g id="edge1" class="edge"><title>Node1100&#45;&gt;Node1101</title>
<path fill="none" stroke="midnightblue" d="M100.146,-57.589C122.648,-62.6487 150.448,-68.8996 174.238,-74.2488"/>
<polygon fill="midnightblue" stroke="midnightblue" points="173.637,-77.7009 184.161,-76.4799 175.172,-70.8714 173.637,-77.7009"/>
</g>
<!-- Node1102 -->
<g id="node3" class="node"><title>Node1102</title>
<g id="a_node3"><a xlink:href="class_altair.html#a2f8d129da914d8b9ab3cdaf195f92bd1" target="_top" xlink:title="Lance Altair::makeParserString sur le premier item courant de abstractWidgetList (celui des données d...">
<polygon fill="white" stroke="black" points="169.5,-38.5 169.5,-57.5 285.5,-57.5 285.5,-38.5 169.5,-38.5"/>
<text text-anchor="middle" x="227.5" y="-45.5" font-family="Helvetica,sans-Serif" font-size="10.00">Altair::makeDataString</text>
</a>
</g>
</g>
<!-- Node1100&#45;&gt;Node1102 -->
<g id="edge2" class="edge"><title>Node1100&#45;&gt;Node1102</title>
<path fill="none" stroke="midnightblue" d="M113.305,-48C127.913,-48 143.819,-48 158.967,-48"/>
<polygon fill="midnightblue" stroke="midnightblue" points="159.307,-51.5001 169.307,-48 159.307,-44.5001 159.307,-51.5001"/>
</g>
<!-- Node1104 -->
<g id="node5" class="node"><title>Node1104</title>
<g id="a_node5"><a xlink:href="class_altair.html#adb7f94af778c4b6874abab74c8ef4016" target="_top" xlink:title="Lance Altair::makeParserString sur l&#39;ensemble de la liste des FWidgets sauf le premier (tous les widg...">
<polygon fill="white" stroke="black" points="163.5,-0.5 163.5,-19.5 291.5,-19.5 291.5,-0.5 163.5,-0.5"/>
<text text-anchor="middle" x="227.5" y="-7.5" font-family="Helvetica,sans-Serif" font-size="10.00">Altair::makeSystemString</text>
</a>
</g>
</g>
<!-- Node1100&#45;&gt;Node1104 -->
<g id="edge4" class="edge"><title>Node1100&#45;&gt;Node1104</title>
<path fill="none" stroke="midnightblue" d="M100.146,-38.411C122.648,-33.3513 150.448,-27.1004 174.238,-21.7512"/>
<polygon fill="midnightblue" stroke="midnightblue" points="175.172,-25.1286 184.161,-19.5201 173.637,-18.2991 175.172,-25.1286"/>
</g>
<!-- Node1103 -->
<g id="node4" class="node"><title>Node1103</title>
<g id="a_node4"><a xlink:href="class_altair.html#af73cbf33a9e3ff76896a8099b4b154fe" target="_top" xlink:title="Crée la chaîne QString permettant d&#39;écrire un projet XML d&#39;extension .alt Parcourt l&#39;ensemble de la l...">
<polygon fill="white" stroke="black" points="342,-19.5 342,-38.5 465,-38.5 465,-19.5 342,-19.5"/>
<text text-anchor="middle" x="403.5" y="-26.5" font-family="Helvetica,sans-Serif" font-size="10.00">Altair::makeParserString</text>
</a>
</g>
</g>
<!-- Node1102&#45;&gt;Node1103 -->
<g id="edge3" class="edge"><title>Node1102&#45;&gt;Node1103</title>
<path fill="none" stroke="midnightblue" d="M285.956,-41.726C300.514,-40.1364 316.324,-38.41 331.465,-36.7566"/>
<polygon fill="midnightblue" stroke="midnightblue" points="332.257,-40.1911 341.818,-35.6262 331.497,-33.2325 332.257,-40.1911"/>
</g>
<!-- Node1104&#45;&gt;Node1103 -->
<g id="edge5" class="edge"><title>Node1104&#45;&gt;Node1103</title>
<path fill="none" stroke="midnightblue" d="M291.81,-16.9132C304.819,-18.3337 318.592,-19.8377 331.841,-21.2844"/>
<polygon fill="midnightblue" stroke="midnightblue" points="331.528,-24.771 341.849,-22.3772 332.288,-17.8123 331.528,-24.771"/>
</g>
</g>
</svg>
