<?xml version="1.0" encoding="UTF-8" standalone="no"?>
<!DOCTYPE svg PUBLIC "-//W3C//DTD SVG 1.1//EN"
 "http://www.w3.org/Graphics/SVG/1.1/DTD/svg11.dtd">
<!-- Generated by graphviz version 2.38.0 (20140413.2041)
 -->
<!-- Title: Altair::parseProjectFile Pages: 1 -->
<!--zoomable 526 -->
<svg id="main" version="1.1" xmlns="http://www.w3.org/2000/svg" xmlns:xlink="http://www.w3.org/1999/xlink" xml:space="preserve" onload="init(evt)">
<style type="text/css"><![CDATA[
.edge:hover path { stroke: red; }
.edge:hover polygon { stroke: red; fill: red; }
]]></style>
<script type="text/javascript"><![CDATA[
var edges = document.getElementsByTagName('g');
if (edges && edges.length) {
  for (var i=0;i<edges.length;i++) {
    if (edges[i].id.substr(0,4)=='edge') {
      edges[i].setAttribute('class','edge');
    }
  }
}
]]></script>
        <defs>
                <circle id="rim" cx="0" cy="0" r="7"/>
                <circle id="rim2" cx="0" cy="0" r="3.5"/>
                <g id="zoomPlus">
                        <use xlink:href="#rim" fill="#404040">
                                <set attributeName="fill" to="#808080" begin="zoomplus.mouseover" end="zoomplus.mouseout"/>
                        </use>
                        <path d="M-4,0h8M0,-4v8" fill="none" stroke="white" stroke-width="1.5" pointer-events="none"/>
                </g>
                <g id="zoomMin">
                        <use xlink:href="#rim" fill="#404040">
                                <set attributeName="fill" to="#808080" begin="zoomminus.mouseover" end="zoomminus.mouseout"/>
                        </use>
                        <path d="M-4,0h8" fill="none" stroke="white" stroke-width="1.5" pointer-events="none"/>
                </g>
                <g id="dirArrow">
                        <path fill="none" stroke="white" stroke-width="1.5" d="M0,-3.0v7 M-2.5,-0.5L0,-3.0L2.5,-0.5"/>
                </g>
               <g id="resetDef">
                       <use xlink:href="#rim2" fill="#404040">
                               <set attributeName="fill" to="#808080" begin="reset.mouseover" end="reset.mouseout"/>
                       </use>
               </g>
        </defs>

<script type="text/javascript">
var viewWidth = 692;
var viewHeight = 526;
var sectionId = 'dynsection-40';
</script>
<script xlink:href="svgpan.js"/>
<svg id="graph" class="graph">
<g id="viewport">
<title>Altair::parseProjectFile</title>
<polygon fill="white" stroke="none" points="-4,4 -4,-522 688,-522 688,4 -4,4"/>
<!-- Node558 -->
<g id="node1" class="node"><title>Node558</title>
<polygon fill="#bfbfbf" stroke="black" points="0,-154.5 0,-173.5 116,-173.5 116,-154.5 0,-154.5"/>
<text text-anchor="middle" x="58" y="-161.5" font-family="Helvetica,sans-Serif" font-size="10.00">Altair::parseProjectFile</text>
</g>
<!-- Node559 -->
<g id="node2" class="node"><title>Node559</title>
<g id="a_node2"><a xlink:href="class_altair.html#a8b7b1fa3e0b567dc1d4721bf88087a68" target="_top" xlink:title="Parcourt l&#39;ensemble des widgets fonctionnels Abstract::abstractWidgetList et actualise leur statut in...">
<polygon fill="white" stroke="black" points="160,-394.5 160,-413.5 294,-413.5 294,-394.5 160,-394.5"/>
<text text-anchor="middle" x="227" y="-401.5" font-family="Helvetica,sans-Serif" font-size="10.00">Altair::assignWidgetValues</text>
</a>
</g>
</g>
<!-- Node558&#45;&gt;Node559 -->
<g id="edge1" class="edge"><title>Node558&#45;&gt;Node559</title>
<path fill="none" stroke="midnightblue" d="M65.7534,-173.706C91.0392,-210.044 180.359,-338.408 213.502,-386.038"/>
<polygon fill="midnightblue" stroke="midnightblue" points="210.761,-388.227 219.345,-394.437 216.507,-384.229 210.761,-388.227"/>
</g>
<!-- Node565 -->
<g id="node8" class="node"><title>Node565</title>
<g id="a_node8"><a xlink:href="class_hash.html#a2ac10203aa8b32a04d9088e08ddbaab4" target="_top" xlink:title="Hash::createReference">
<polygon fill="white" stroke="black" points="168,-154.5 168,-173.5 286,-173.5 286,-154.5 168,-154.5"/>
<text text-anchor="middle" x="227" y="-161.5" font-family="Helvetica,sans-Serif" font-size="10.00">Hash::createReference</text>
</a>
</g>
</g>
<!-- Node558&#45;&gt;Node565 -->
<g id="edge7" class="edge"><title>Node558&#45;&gt;Node565</title>
<path fill="none" stroke="midnightblue" d="M116.005,-164C129.332,-164 143.664,-164 157.436,-164"/>
<polygon fill="midnightblue" stroke="midnightblue" points="157.832,-167.5 167.832,-164 157.832,-160.5 157.832,-167.5"/>
</g>
<!-- Node566 -->
<g id="node9" class="node"><title>Node566</title>
<g id="a_node9"><a xlink:href="class_altair.html#a3f6193de22ed2034c9b6dbe7a8ac4d97" target="_top" xlink:title="Lors du décodage du projet XML .alt, décoder le noed courant et renvoyer l&#39;empilement des valeurs en ...">
<polygon fill="white" stroke="black" points="181,-94.5 181,-113.5 273,-113.5 273,-94.5 181,-94.5"/>
<text text-anchor="middle" x="227" y="-101.5" font-family="Helvetica,sans-Serif" font-size="10.00">Altair::parseEntry</text>
</a>
</g>
</g>
<!-- Node558&#45;&gt;Node566 -->
<g id="edge8" class="edge"><title>Node558&#45;&gt;Node566</title>
<path fill="none" stroke="midnightblue" d="M85.4616,-154.493C113.595,-144.385 158.277,-128.332 189.691,-117.045"/>
<polygon fill="midnightblue" stroke="midnightblue" points="191.159,-120.237 199.386,-113.562 188.792,-113.649 191.159,-120.237"/>
</g>
<!-- Node571 -->
<g id="node14" class="node"><title>Node571</title>
<g id="a_node14"><a xlink:href="class_altair.html#abf7d1895e52f7b8d7d26e4b5a0e6146a" target="_top" xlink:title="Rafraîchit le gestionnaire de projet à la droite de l&#39;interface. ">
<polygon fill="white" stroke="black" points="155.5,-204 155.5,-234 298.5,-234 298.5,-204 155.5,-204"/>
<text text-anchor="start" x="163.5" y="-222" font-family="Helvetica,sans-Serif" font-size="10.00">Altair::refreshProjectManager</text>
<text text-anchor="middle" x="227" y="-211" font-family="Helvetica,sans-Serif" font-size="10.00">Values</text>
</a>
</g>
</g>
<!-- Node558&#45;&gt;Node571 -->
<g id="edge14" class="edge"><title>Node558&#45;&gt;Node571</title>
<path fill="none" stroke="midnightblue" d="M88.0892,-173.58C110.827,-181.069 143.099,-191.697 170.708,-200.79"/>
<polygon fill="midnightblue" stroke="midnightblue" points="169.663,-204.131 180.256,-203.935 171.853,-197.482 169.663,-204.131"/>
</g>
<!-- Node578 -->
<g id="node21" class="node"><title>Node578</title>
<g id="a_node21"><a xlink:href="class_altair.html#a20528df591deee5ad32f28996ba8dc35" target="_top" xlink:title="Raccourcit les chemins dans les onglets en se limitant au non de fichier et les présente &#160;en surligna...">
<polygon fill="white" stroke="black" points="152,-56.5 152,-75.5 302,-75.5 302,-56.5 152,-56.5"/>
<text text-anchor="middle" x="227" y="-63.5" font-family="Helvetica,sans-Serif" font-size="10.00">Altair::refreshRowPresentation</text>
</a>
</g>
</g>
<!-- Node558&#45;&gt;Node578 -->
<g id="edge24" class="edge"><title>Node558&#45;&gt;Node578</title>
<path fill="none" stroke="midnightblue" d="M67.4698,-154.382C82.6981,-137.696 116.444,-103.41 152,-85 156.522,-82.6587 161.352,-80.5924 166.296,-78.7711"/>
<polygon fill="midnightblue" stroke="midnightblue" points="167.518,-82.053 175.892,-75.563 165.298,-75.4142 167.518,-82.053"/>
</g>
<!-- Node560 -->
<g id="node3" class="node"><title>Node560</title>
<g id="a_node3"><a xlink:href="class_f_abstract_widget.html#ae6ba84e8ed8a54dc8121245f35f568fe" target="_top" xlink:title="Retourne la clé de hashage de Hash::wrapper correspondant au widget. ">
<polygon fill="white" stroke="black" points="346.5,-498.5 346.5,-517.5 496.5,-517.5 496.5,-498.5 346.5,-498.5"/>
<text text-anchor="middle" x="421.5" y="-505.5" font-family="Helvetica,sans-Serif" font-size="10.00">FAbstractWidget::getHashKey</text>
</a>
</g>
</g>
<!-- Node559&#45;&gt;Node560 -->
<g id="edge2" class="edge"><title>Node559&#45;&gt;Node560</title>
<path fill="none" stroke="midnightblue" d="M237.335,-413.564C255.184,-431.274 296.117,-469.174 338,-489 343.065,-491.398 348.451,-493.502 353.95,-495.348"/>
<polygon fill="midnightblue" stroke="midnightblue" points="353.339,-498.822 363.926,-498.399 355.387,-492.128 353.339,-498.822"/>
</g>
<!-- Node561 -->
<g id="node4" class="node"><title>Node561</title>
<g id="a_node4"><a xlink:href="struct_abstract.html#a634c4a8152edbeb8d96d2ca8f30e1025" target="_top" xlink:title="Récupère toutes les clés de hachage (de Hash::wrapper) des FWidgets qui sont dans le vecteur FAbstrac...">
<polygon fill="white" stroke="black" points="370,-460.5 370,-479.5 473,-479.5 473,-460.5 370,-460.5"/>
<text text-anchor="middle" x="421.5" y="-467.5" font-family="Helvetica,sans-Serif" font-size="10.00">Abstract::hashKeys</text>
</a>
</g>
</g>
<!-- Node559&#45;&gt;Node561 -->
<g id="edge3" class="edge"><title>Node559&#45;&gt;Node561</title>
<path fill="none" stroke="midnightblue" d="M247.467,-413.569C269.142,-423.926 305.421,-440.381 338,-451 345.935,-453.586 354.408,-455.96 362.791,-458.088"/>
<polygon fill="midnightblue" stroke="midnightblue" points="362.008,-461.5 372.553,-460.472 363.669,-454.699 362.008,-461.5"/>
</g>
<!-- Node562 -->
<g id="node5" class="node"><title>Node562</title>
<g id="a_node5"><a xlink:href="class_f_abstract_widget.html#a88c229861e7973810c6ac979d5526c2d" target="_top" xlink:title="FAbstractWidget::setWidget\lFromXml">
<polygon fill="white" stroke="black" points="351.5,-411 351.5,-441 491.5,-441 491.5,-411 351.5,-411"/>
<text text-anchor="start" x="359.5" y="-429" font-family="Helvetica,sans-Serif" font-size="10.00">FAbstractWidget::setWidget</text>
<text text-anchor="middle" x="421.5" y="-418" font-family="Helvetica,sans-Serif" font-size="10.00">FromXml</text>
</a>
</g>
</g>
<!-- Node559&#45;&gt;Node562 -->
<g id="edge4" class="edge"><title>Node559&#45;&gt;Node562</title>
<path fill="none" stroke="midnightblue" d="M294.248,-411.571C309.325,-413.294 325.493,-415.142 341.057,-416.921"/>
<polygon fill="midnightblue" stroke="midnightblue" points="340.847,-420.419 351.179,-418.078 341.642,-413.465 340.847,-420.419"/>
</g>
<!-- Node563 -->
<g id="node6" class="node"><title>Node563</title>
<g id="a_node6"><a xlink:href="class_altair.html#a78a2870bb9b316c5ad6bcbd64471eeb8" target="_top" xlink:title="Renvoie la taille des données exportées. ">
<polygon fill="white" stroke="black" points="581,-334.5 581,-353.5 644,-353.5 644,-334.5 581,-334.5"/>
<text text-anchor="middle" x="612.5" y="-341.5" font-family="Helvetica,sans-Serif" font-size="10.00">Altair::size</text>
</a>
</g>
</g>
<!-- Node559&#45;&gt;Node563 -->
<g id="edge5" class="edge"><title>Node559&#45;&gt;Node563</title>
<path fill="none" stroke="midnightblue" d="M294.128,-394.773C350.3,-386.801 433.03,-374.743 505,-363 526.783,-359.446 551.009,-355.151 570.845,-351.544"/>
<polygon fill="midnightblue" stroke="midnightblue" points="571.574,-354.969 580.782,-349.729 570.316,-348.083 571.574,-354.969"/>
</g>
<!-- Node564 -->
<g id="node7" class="node"><title>Node564</title>
<g id="a_node7"><a xlink:href="class_altair.html#a4995cdc9462838289b5b1df75edba552" target="_top" xlink:title="Ajouter du texte à l&#39;onglet des messages. ">
<polygon fill="white" stroke="black" points="374,-334.5 374,-353.5 469,-353.5 469,-334.5 374,-334.5"/>
<text text-anchor="middle" x="421.5" y="-341.5" font-family="Helvetica,sans-Serif" font-size="10.00">Altair::textAppend</text>
</a>
</g>
</g>
<!-- Node559&#45;&gt;Node564 -->
<g id="edge6" class="edge"><title>Node559&#45;&gt;Node564</title>
<path fill="none" stroke="midnightblue" d="M256.407,-394.416C278.57,-387.009 310.162,-376.602 338,-368 350.595,-364.108 364.326,-360.043 376.907,-356.388"/>
<polygon fill="midnightblue" stroke="midnightblue" points="378.072,-359.695 386.707,-353.557 376.129,-352.97 378.072,-359.695"/>
</g>
<!-- Node567 -->
<g id="node10" class="node"><title>Node567</title>
<g id="a_node10"><a xlink:href="class_f_list_frame.html#a7ecbe60018d55d1a1352c5fd24c5e72e" target="_top" xlink:title="FListFrame::setTabLabels">
<polygon fill="white" stroke="black" points="356,-94.5 356,-113.5 487,-113.5 487,-94.5 356,-94.5"/>
<text text-anchor="middle" x="421.5" y="-101.5" font-family="Helvetica,sans-Serif" font-size="10.00">FListFrame::setTabLabels</text>
</a>
</g>
</g>
<!-- Node566&#45;&gt;Node567 -->
<g id="edge9" class="edge"><title>Node566&#45;&gt;Node567</title>
<path fill="none" stroke="midnightblue" d="M273.133,-104C294.816,-104 321.374,-104 345.943,-104"/>
<polygon fill="midnightblue" stroke="midnightblue" points="345.967,-107.5 355.967,-104 345.967,-100.5 345.967,-107.5"/>
</g>
<!-- Node569 -->
<g id="node12" class="node"><title>Node569</title>
<g id="a_node12"><a xlink:href="namespace_xml_method.html#abe26f53c2028527b0ebea361faa85221" target="_top" xlink:title="Empile les données pour un noeud donné, pour une profondeur d&#39;enchassement donnée. ">
<polygon fill="white" stroke="black" points="363,-56.5 363,-75.5 480,-75.5 480,-56.5 363,-56.5"/>
<text text-anchor="middle" x="421.5" y="-63.5" font-family="Helvetica,sans-Serif" font-size="10.00">XmlMethod::stackData</text>
</a>
</g>
</g>
<!-- Node566&#45;&gt;Node569 -->
<g id="edge11" class="edge"><title>Node566&#45;&gt;Node569</title>
<path fill="none" stroke="midnightblue" d="M273.133,-95.0907C299.774,-89.8317 333.775,-83.1197 362.404,-77.4683"/>
<polygon fill="midnightblue" stroke="midnightblue" points="363.152,-80.8882 372.285,-75.5178 361.797,-74.0208 363.152,-80.8882"/>
</g>
<!-- Node570 -->
<g id="node13" class="node"><title>Node570</title>
<g id="a_node13"><a xlink:href="class_f_string_list.html#a71ec48a52b6ca4ffe89400d66f3ff634" target="_top" xlink:title="FStringList::toInt">
<polygon fill="white" stroke="black" points="377,-0.5 377,-19.5 466,-19.5 466,-0.5 377,-0.5"/>
<text text-anchor="middle" x="421.5" y="-7.5" font-family="Helvetica,sans-Serif" font-size="10.00">FStringList::toInt</text>
</a>
</g>
</g>
<!-- Node566&#45;&gt;Node570 -->
<g id="edge12" class="edge"><title>Node566&#45;&gt;Node570</title>
<path fill="none" stroke="midnightblue" d="M273.033,-96.7198C282.996,-93.9623 293.198,-90.1796 302,-85 322.051,-73.2015 319.025,-60.4607 338,-47 351.548,-37.3889 367.992,-29.4014 382.623,-23.3375"/>
<polygon fill="midnightblue" stroke="midnightblue" points="383.932,-26.5839 391.928,-19.6327 381.342,-20.0805 383.932,-26.5839"/>
</g>
<!-- Node568 -->
<g id="node11" class="node"><title>Node568</title>
<g id="a_node11"><a xlink:href="class_f_list_widget.html#aac6eaaeb9946354f743394b54c84a6a7" target="_top" xlink:title="FListWidget::setTabLabels">
<polygon fill="white" stroke="black" points="545.5,-94.5 545.5,-113.5 679.5,-113.5 679.5,-94.5 545.5,-94.5"/>
<text text-anchor="middle" x="612.5" y="-101.5" font-family="Helvetica,sans-Serif" font-size="10.00">FListWidget::setTabLabels</text>
</a>
</g>
</g>
<!-- Node567&#45;&gt;Node568 -->
<g id="edge10" class="edge"><title>Node567&#45;&gt;Node568</title>
<path fill="none" stroke="midnightblue" d="M487.014,-104C502.454,-104 519.084,-104 535.006,-104"/>
<polygon fill="midnightblue" stroke="midnightblue" points="535.347,-107.5 545.347,-104 535.347,-100.5 535.347,-107.5"/>
</g>
<!-- Node570&#45;&gt;Node570 -->
<g id="edge13" class="edge"><title>Node570&#45;&gt;Node570</title>
<path fill="none" stroke="midnightblue" d="M392.215,-19.7571C377.969,-28.5653 387.73,-38 421.5,-38 445.244,-38 457.119,-33.3356 457.125,-27.5043"/>
<polygon fill="midnightblue" stroke="midnightblue" points="459.827,-25.279 450.785,-19.7571 454.409,-29.7125 459.827,-25.279"/>
</g>
<!-- Node572 -->
<g id="node15" class="node"><title>Node572</title>
<g id="a_node15"><a xlink:href="class_f_list_frame.html#a58337134c45f052ad6bb45c014fd5c3f" target="_top" xlink:title="Récupère les titres d&#39;onglet. ">
<polygon fill="white" stroke="black" points="356,-258.5 356,-277.5 487,-277.5 487,-258.5 356,-258.5"/>
<text text-anchor="middle" x="421.5" y="-265.5" font-family="Helvetica,sans-Serif" font-size="10.00">FListFrame::getTabLabels</text>
</a>
</g>
</g>
<!-- Node571&#45;&gt;Node572 -->
<g id="edge15" class="edge"><title>Node571&#45;&gt;Node572</title>
<path fill="none" stroke="midnightblue" d="M287.065,-234.035C314.676,-241.063 347.113,-249.32 373.091,-255.932"/>
<polygon fill="midnightblue" stroke="midnightblue" points="372.514,-259.397 383.069,-258.472 374.241,-252.613 372.514,-259.397"/>
</g>
<!-- Node574 -->
<g id="node17" class="node"><title>Node574</title>
<g id="a_node17"><a xlink:href="class_altair.html#adc79f280e4f580298a8dd80e2f7cf712" target="_top" xlink:title="Parcourt la table de chachage Hash::wrapper dans laquelle sont stockés à la clé &quot;XHL&quot; les chemins des...">
<polygon fill="white" stroke="black" points="343,-296.5 343,-315.5 500,-315.5 500,-296.5 343,-296.5"/>
<text text-anchor="middle" x="421.5" y="-303.5" font-family="Helvetica,sans-Serif" font-size="10.00">Altair::processSecondLevelData</text>
</a>
</g>
</g>
<!-- Node571&#45;&gt;Node574 -->
<g id="edge17" class="edge"><title>Node571&#45;&gt;Node574</title>
<path fill="none" stroke="midnightblue" d="M247.995,-234.178C269.246,-249.614 304.36,-273.171 338,-287 344.211,-289.553 350.832,-291.8 357.52,-293.769"/>
<polygon fill="midnightblue" stroke="midnightblue" points="356.757,-297.189 367.326,-296.458 358.608,-290.438 356.757,-297.189"/>
</g>
<!-- Node575 -->
<g id="node18" class="node"><title>Node575</title>
<g id="a_node18"><a xlink:href="namespace_xml_method.html#ac0a708c4bc4c55df24e60816d69a90cf" target="_top" xlink:title="XmlMethod::displaySecond\lLevelData">
<polygon fill="white" stroke="black" points="353.5,-171 353.5,-201 489.5,-201 489.5,-171 353.5,-171"/>
<text text-anchor="start" x="361.5" y="-189" font-family="Helvetica,sans-Serif" font-size="10.00">XmlMethod::displaySecond</text>
<text text-anchor="middle" x="421.5" y="-178" font-family="Helvetica,sans-Serif" font-size="10.00">LevelData</text>
</a>
</g>
</g>
<!-- Node571&#45;&gt;Node575 -->
<g id="edge19" class="edge"><title>Node571&#45;&gt;Node575</title>
<path fill="none" stroke="midnightblue" d="M298.587,-206.899C313.147,-204.403 328.552,-201.763 343.331,-199.229"/>
<polygon fill="midnightblue" stroke="midnightblue" points="344.18,-202.635 353.445,-197.495 342.998,-195.735 344.18,-202.635"/>
</g>
<!-- Node576 -->
<g id="node19" class="node"><title>Node576</title>
<g id="a_node19"><a xlink:href="namespace_xml_method.html#aad1e553eb1ec6f1bb128cc6744cba9e3" target="_top" xlink:title="XmlMethod::displayTextData">
<polygon fill="white" stroke="black" points="541,-176.5 541,-195.5 684,-195.5 684,-176.5 541,-176.5"/>
<text text-anchor="middle" x="612.5" y="-183.5" font-family="Helvetica,sans-Serif" font-size="10.00">XmlMethod::displayTextData</text>
</a>
</g>
</g>
<!-- Node571&#45;&gt;Node576 -->
<g id="edge21" class="edge"><title>Node571&#45;&gt;Node576</title>
<path fill="none" stroke="midnightblue" d="M298.61,-220.868C354.773,-221.415 435.23,-220.102 505,-211 526.329,-208.218 549.631,-203.004 568.985,-198.055"/>
<polygon fill="midnightblue" stroke="midnightblue" points="569.929,-201.426 578.715,-195.505 568.154,-194.654 569.929,-201.426"/>
</g>
<!-- Node577 -->
<g id="node20" class="node"><title>Node577</title>
<g id="a_node20"><a xlink:href="namespace_xml_method.html#a796c4f03d9e7a8057f0102b87eecbd3e" target="_top" xlink:title="XmlMethod::displayFirstLevelData">
<polygon fill="white" stroke="black" points="338,-132.5 338,-151.5 505,-151.5 505,-132.5 338,-132.5"/>
<text text-anchor="middle" x="421.5" y="-139.5" font-family="Helvetica,sans-Serif" font-size="10.00">XmlMethod::displayFirstLevelData</text>
</a>
</g>
</g>
<!-- Node571&#45;&gt;Node577 -->
<g id="edge22" class="edge"><title>Node571&#45;&gt;Node577</title>
<path fill="none" stroke="midnightblue" d="M260.319,-203.927C273.375,-197.671 288.515,-190.2 302,-183 318.34,-174.276 320.818,-168.921 338,-162 345.305,-159.057 353.155,-156.472 361.004,-154.222"/>
<polygon fill="midnightblue" stroke="midnightblue" points="362.162,-157.535 370.905,-151.551 360.339,-150.777 362.162,-157.535"/>
</g>
<!-- Node573 -->
<g id="node16" class="node"><title>Node573</title>
<g id="a_node16"><a xlink:href="class_f_list_frame.html#a4bf0d0d8e56418df395b020d2e66db5f" target="_top" xlink:title="Récupère la taille courante (0&#45;based) du conteneur widgetContainer Cette taille doit en principe être...">
<polygon fill="white" stroke="black" points="558,-258.5 558,-277.5 667,-277.5 667,-258.5 558,-258.5"/>
<text text-anchor="middle" x="612.5" y="-265.5" font-family="Helvetica,sans-Serif" font-size="10.00">FListFrame::getRank</text>
</a>
</g>
</g>
<!-- Node572&#45;&gt;Node573 -->
<g id="edge16" class="edge"><title>Node572&#45;&gt;Node573</title>
<path fill="none" stroke="midnightblue" d="M487.014,-268C506.684,-268 528.288,-268 547.897,-268"/>
<polygon fill="midnightblue" stroke="midnightblue" points="547.948,-271.5 557.948,-268 547.948,-264.5 547.948,-271.5"/>
</g>
<!-- Node574&#45;&gt;Node563 -->
<g id="edge18" class="edge"><title>Node574&#45;&gt;Node563</title>
<path fill="none" stroke="midnightblue" d="M470.193,-315.589C501.3,-321.843 541.46,-329.918 571.011,-335.859"/>
<polygon fill="midnightblue" stroke="midnightblue" points="570.496,-339.326 580.99,-337.866 571.876,-332.463 570.496,-339.326"/>
</g>
<!-- Node575&#45;&gt;Node576 -->
<g id="edge20" class="edge"><title>Node575&#45;&gt;Node576</title>
<path fill="none" stroke="midnightblue" d="M489.666,-186C502.856,-186 516.823,-186 530.413,-186"/>
<polygon fill="midnightblue" stroke="midnightblue" points="530.712,-189.5 540.712,-186 530.712,-182.5 530.712,-189.5"/>
</g>
<!-- Node577&#45;&gt;Node576 -->
<g id="edge23" class="edge"><title>Node577&#45;&gt;Node576</title>
<path fill="none" stroke="midnightblue" d="M463.51,-151.547C491.992,-158.178 530.14,-167.059 560.571,-174.143"/>
<polygon fill="midnightblue" stroke="midnightblue" points="560.037,-177.613 570.57,-176.471 561.624,-170.795 560.037,-177.613"/>
</g>
</g>
</svg>
        <g id="navigator" transform="translate(0 0)" fill="#404254">
                <rect fill="#f2f5e9" fill-opacity="0.5" stroke="#606060" stroke-width=".5" x="0" y="0" width="60" height="60"/>
                <use id="zoomplus" xlink:href="#zoomPlus" x="17" y="9" onmousedown="handleZoom(evt,'in')"/>
                <use id="zoomminus" xlink:href="#zoomMin" x="42" y="9" onmousedown="handleZoom(evt,'out')"/>
                <use id="reset" xlink:href="#resetDef" x="30" y="36" onmousedown="handleReset()"/>
                <g id="arrowUp" xlink:href="#dirArrow" transform="translate(30 24)" onmousedown="handlePan(0,-1)">
                  <use xlink:href="#rim" fill="#404040">
                        <set attributeName="fill" to="#808080" begin="arrowUp.mouseover" end="arrowUp.mouseout"/>
                  </use>
                  <path fill="none" stroke="white" stroke-width="1.5" d="M0,-3.0v7 M-2.5,-0.5L0,-3.0L2.5,-0.5"/>
                </g>
                <g id="arrowRight" xlink:href="#dirArrow" transform="rotate(90) translate(36 -43)" onmousedown="handlePan(1,0)">
                  <use xlink:href="#rim" fill="#404040">
                        <set attributeName="fill" to="#808080" begin="arrowRight.mouseover" end="arrowRight.mouseout"/>
                  </use>
                  <path fill="none" stroke="white" stroke-width="1.5" d="M0,-3.0v7 M-2.5,-0.5L0,-3.0L2.5,-0.5"/>
                </g>
                <g id="arrowDown" xlink:href="#dirArrow" transform="rotate(180) translate(-30 -48)" onmousedown="handlePan(0,1)">
                  <use xlink:href="#rim" fill="#404040">
                        <set attributeName="fill" to="#808080" begin="arrowDown.mouseover" end="arrowDown.mouseout"/>
                  </use>
                  <path fill="none" stroke="white" stroke-width="1.5" d="M0,-3.0v7 M-2.5,-0.5L0,-3.0L2.5,-0.5"/>
                </g>
                <g id="arrowLeft" xlink:href="#dirArrow" transform="rotate(270) translate(-36 17)" onmousedown="handlePan(-1,0)">
                  <use xlink:href="#rim" fill="#404040">
                        <set attributeName="fill" to="#808080" begin="arrowLeft.mouseover" end="arrowLeft.mouseout"/>
                  </use>
                  <path fill="none" stroke="white" stroke-width="1.5" d="M0,-3.0v7 M-2.5,-0.5L0,-3.0L2.5,-0.5"/>
                </g>
        </g>
        <svg viewBox="0 0 15 15" width="100%" height="30px" preserveAspectRatio="xMaxYMin meet">
         <g id="arrow_out" transform="scale(0.3 0.3)">
          <a xlink:href="class_altair_a41b6c8a35ed8ba14c7c0ce2e6994655f_cgraph_org.svg" target="_base">
           <rect id="button" ry="5" rx="5" y="6" x="6" height="38" width="38"
                fill="#f2f5e9" fill-opacity="0.5" stroke="#606060" stroke-width="1.0"/>
           <path id="arrow"
             d="M 11.500037,31.436501 C 11.940474,20.09759 22.043105,11.32322 32.158766,21.979434 L 37.068811,17.246167 C 37.068811,17.246167 37.088388,32 37.088388,32 L 22.160133,31.978069 C 22.160133,31.978069 26.997745,27.140456 26.997745,27.140456 C 18.528582,18.264221 13.291696,25.230495 11.500037,31.436501 z"
             style="fill:#404040;"/>
          </a>
         </g>
        </svg>
</svg>
