<?xml version="1.0" encoding="UTF-8" standalone="no"?>
<!DOCTYPE svg PUBLIC "-//W3C//DTD SVG 1.1//EN"
 "http://www.w3.org/Graphics/SVG/1.1/DTD/svg11.dtd">
<!-- Generated by graphviz version 2.40.1 (20161225.0304)
 -->
<!-- Title: tools::copyFile Pages: 1 -->
<svg width="323pt" height="47pt"
 viewBox="0.00 0.00 323.00 47.00" xmlns="http://www.w3.org/2000/svg" xmlns:xlink="http://www.w3.org/1999/xlink">
<g id="graph0" class="graph" transform="scale(1 1) rotate(0) translate(4 43)">
<title>tools::copyFile</title>
<polygon fill="#ffffff" stroke="transparent" points="-4,4 -4,-43 319,-43 319,4 -4,4"/>
<!-- Node65 -->
<g id="node1" class="node">
<title>Node65</title>
<polygon fill="#bfbfbf" stroke="#000000" points="0,-.5 0,-19.5 80,-19.5 80,-.5 0,-.5"/>
<text text-anchor="middle" x="40" y="-7.5" font-family="Helvetica,sans-Serif" font-size="10.00" fill="#000000">tools::copyFile</text>
</g>
<!-- Node66 -->
<g id="node2" class="node">
<title>Node66</title>
<g id="a_node2"><a xlink:href="classtools.html#ae1018e45c513785270b999cbcfa8beb6" target="_top" xlink:title="Procédure de contrôle des entrées&#45;sorties. ">
<polygon fill="#ffffff" stroke="#000000" points="116,-19.5 116,-38.5 202,-38.5 202,-19.5 116,-19.5"/>
<text text-anchor="middle" x="159" y="-26.5" font-family="Helvetica,sans-Serif" font-size="10.00" fill="#000000">tools::IOControl</text>
</a>
</g>
</g>
<!-- Node65&#45;&gt;Node66 -->
<g id="edge1" class="edge">
<title>Node65&#45;&gt;Node66</title>
<path fill="none" stroke="#191970" d="M80.288,-16.4325C88.5268,-17.748 97.3161,-19.1513 105.9239,-20.5257"/>
<polygon fill="#191970" stroke="#191970" points="105.4748,-23.9982 115.9016,-22.1187 106.5785,-17.0858 105.4748,-23.9982"/>
</g>
<!-- Node67 -->
<g id="node3" class="node">
<title>Node67</title>
<g id="a_node3"><a xlink:href="classtools.html#a37c9c486d90129b0d6a4ac93f29fd5bb" target="_top" xlink:title="Copie un répertoire de manière sécurisée. ">
<polygon fill="#ffffff" stroke="#000000" points="238,-.5 238,-19.5 315,-19.5 315,-.5 238,-.5"/>
<text text-anchor="middle" x="276.5" y="-7.5" font-family="Helvetica,sans-Serif" font-size="10.00" fill="#000000">tools::copyDir</text>
</a>
</g>
</g>
<!-- Node66&#45;&gt;Node67 -->
<g id="edge2" class="edge">
<title>Node66&#45;&gt;Node67</title>
<path fill="none" stroke="#191970" d="M202.0855,-22.033C210.3739,-20.6927 219.1111,-19.2799 227.5688,-17.9123"/>
<polygon fill="#191970" stroke="#191970" points="228.3849,-21.3259 237.6979,-16.2744 227.2674,-14.4156 228.3849,-21.3259"/>
</g>
<!-- Node67&#45;&gt;Node65 -->
<g id="edge3" class="edge">
<title>Node67&#45;&gt;Node65</title>
<path fill="none" stroke="#191970" d="M237.7571,-10C197.5204,-10 134.4028,-10 90.33,-10"/>
<polygon fill="#191970" stroke="#191970" points="90.119,-6.5001 80.119,-10 90.119,-13.5001 90.119,-6.5001"/>
</g>
</g>
</svg>
