<?xml version="1.0" encoding="UTF-8" standalone="no"?>
<!DOCTYPE svg PUBLIC "-//W3C//DTD SVG 1.1//EN"
 "http://www.w3.org/Graphics/SVG/1.1/DTD/svg11.dtd">
<!-- Generated by graphviz version 2.38.0 (20140413.2041)
 -->
<!-- Title: Altair::updateIndexInfo Pages: 1 -->
<!--zoomable 47 -->
<svg id="main" version="1.1" xmlns="http://www.w3.org/2000/svg" xmlns:xlink="http://www.w3.org/1999/xlink" xml:space="preserve" onload="init(evt)">
<style type="text/css"><![CDATA[
.edge:hover path { stroke: red; }
.edge:hover polygon { stroke: red; fill: red; }
]]></style>
<script type="text/javascript"><![CDATA[
var edges = document.getElementsByTagName('g');
if (edges && edges.length) {
  for (var i=0;i<edges.length;i++) {
    if (edges[i].id.substr(0,4)=='edge') {
      edges[i].setAttribute('class','edge');
    }
  }
}
]]></script>
        <defs>
                <circle id="rim" cx="0" cy="0" r="7"/>
                <circle id="rim2" cx="0" cy="0" r="3.5"/>
                <g id="zoomPlus">
                        <use xlink:href="#rim" fill="#404040">
                                <set attributeName="fill" to="#808080" begin="zoomplus.mouseover" end="zoomplus.mouseout"/>
                        </use>
                        <path d="M-4,0h8M0,-4v8" fill="none" stroke="white" stroke-width="1.5" pointer-events="none"/>
                </g>
                <g id="zoomMin">
                        <use xlink:href="#rim" fill="#404040">
                                <set attributeName="fill" to="#808080" begin="zoomminus.mouseover" end="zoomminus.mouseout"/>
                        </use>
                        <path d="M-4,0h8" fill="none" stroke="white" stroke-width="1.5" pointer-events="none"/>
                </g>
                <g id="dirArrow">
                        <path fill="none" stroke="white" stroke-width="1.5" d="M0,-3.0v7 M-2.5,-0.5L0,-3.0L2.5,-0.5"/>
                </g>
               <g id="resetDef">
                       <use xlink:href="#rim2" fill="#404040">
                               <set attributeName="fill" to="#808080" begin="reset.mouseover" end="reset.mouseout"/>
                       </use>
               </g>
        </defs>

<script type="text/javascript">
var viewWidth = 690;
var viewHeight = 47;
var sectionId = 'dynsection-89';
</script>
<script xlink:href="svgpan.js"/>
<svg id="graph" class="graph">
<g id="viewport">
<title>Altair::updateIndexInfo</title>
<polygon fill="white" stroke="none" points="-4,4 -4,-43 686,-43 686,4 -4,4"/>
<!-- Node4991 -->
<g id="node1" class="node"><title>Node4991</title>
<polygon fill="#bfbfbf" stroke="black" points="0,-19.5 0,-38.5 122,-38.5 122,-19.5 0,-19.5"/>
<text text-anchor="middle" x="61" y="-26.5" font-family="Helvetica,sans-Serif" font-size="10.00">Altair::updateIndexInfo</text>
</g>
<!-- Node4992 -->
<g id="node2" class="node"><title>Node4992</title>
<g id="a_node2"><a xlink:href="class_f_list_frame.html#a0037e19af552e7ccca67e2a01b700389" target="_top" xlink:title="Accesseur en lecture du rang (index) de l&#39;onglet courant (0&#45;based). ">
<polygon fill="white" stroke="black" points="532,-19.5 532,-38.5 682,-38.5 682,-19.5 532,-19.5"/>
<text text-anchor="middle" x="607" y="-26.5" font-family="Helvetica,sans-Serif" font-size="10.00">FListFrame::getCurrentIndex</text>
</a>
</g>
</g>
<!-- Node4991&#45;&gt;Node4992 -->
<g id="edge1" class="edge"><title>Node4991&#45;&gt;Node4992</title>
<path fill="none" stroke="midnightblue" d="M122.035,-29C219.169,-29 411.057,-29 521.8,-29"/>
<polygon fill="midnightblue" stroke="midnightblue" points="521.929,-32.5001 531.929,-29 521.929,-25.5001 521.929,-32.5001"/>
</g>
<!-- Node4993 -->
<g id="node3" class="node"><title>Node4993</title>
<g id="a_node3"><a xlink:href="class_f_list_frame.html#a38151a18f0313c555c2cf71f19d54ab2" target="_top" xlink:title="Accesseur en lecture de la ligne courante. ">
<polygon fill="white" stroke="black" points="158,-0.5 158,-19.5 303,-19.5 303,-0.5 158,-0.5"/>
<text text-anchor="middle" x="230.5" y="-7.5" font-family="Helvetica,sans-Serif" font-size="10.00">FListFrame::getCurrentRow</text>
</a>
</g>
</g>
<!-- Node4991&#45;&gt;Node4993 -->
<g id="edge2" class="edge"><title>Node4991&#45;&gt;Node4993</title>
<path fill="none" stroke="midnightblue" d="M122.471,-22.1406C130.756,-21.2008 139.37,-20.2237 147.954,-19.25"/>
<polygon fill="midnightblue" stroke="midnightblue" points="148.452,-22.716 157.994,-18.1111 147.663,-15.7606 148.452,-22.716"/>
</g>
<!-- Node4994 -->
<g id="node4" class="node"><title>Node4994</title>
<g id="a_node4"><a xlink:href="class_f_list_frame.html#a73aaa61fe9f56248049e96722c17b164" target="_top" xlink:title="Accesseur en lecture du composant (widget) courant dans le conteneur widgetContainer. ">
<polygon fill="white" stroke="black" points="339,-0.5 339,-19.5 496,-19.5 496,-0.5 339,-0.5"/>
<text text-anchor="middle" x="417.5" y="-7.5" font-family="Helvetica,sans-Serif" font-size="10.00">FListFrame::getCurrentWidget</text>
</a>
</g>
</g>
<!-- Node4993&#45;&gt;Node4994 -->
<g id="edge3" class="edge"><title>Node4993&#45;&gt;Node4994</title>
<path fill="none" stroke="midnightblue" d="M303.026,-10C311.43,-10 320.078,-10 328.672,-10"/>
<polygon fill="midnightblue" stroke="midnightblue" points="328.719,-13.5001 338.719,-10 328.719,-6.5001 328.719,-13.5001"/>
</g>
<!-- Node4994&#45;&gt;Node4992 -->
<g id="edge4" class="edge"><title>Node4994&#45;&gt;Node4992</title>
<path fill="none" stroke="midnightblue" d="M496.117,-17.8652C504.589,-18.7237 513.243,-19.6006 521.789,-20.4666"/>
<polygon fill="midnightblue" stroke="midnightblue" points="521.454,-23.9505 531.756,-21.4766 522.16,-16.9861 521.454,-23.9505"/>
</g>
</g>
</svg>
        <g id="navigator" transform="translate(0 0)" fill="#404254">
                <rect fill="#f2f5e9" fill-opacity="0.5" stroke="#606060" stroke-width=".5" x="0" y="0" width="60" height="60"/>
                <use id="zoomplus" xlink:href="#zoomPlus" x="17" y="9" onmousedown="handleZoom(evt,'in')"/>
                <use id="zoomminus" xlink:href="#zoomMin" x="42" y="9" onmousedown="handleZoom(evt,'out')"/>
                <use id="reset" xlink:href="#resetDef" x="30" y="36" onmousedown="handleReset()"/>
                <g id="arrowUp" xlink:href="#dirArrow" transform="translate(30 24)" onmousedown="handlePan(0,-1)">
                  <use xlink:href="#rim" fill="#404040">
                        <set attributeName="fill" to="#808080" begin="arrowUp.mouseover" end="arrowUp.mouseout"/>
                  </use>
                  <path fill="none" stroke="white" stroke-width="1.5" d="M0,-3.0v7 M-2.5,-0.5L0,-3.0L2.5,-0.5"/>
                </g>
                <g id="arrowRight" xlink:href="#dirArrow" transform="rotate(90) translate(36 -43)" onmousedown="handlePan(1,0)">
                  <use xlink:href="#rim" fill="#404040">
                        <set attributeName="fill" to="#808080" begin="arrowRight.mouseover" end="arrowRight.mouseout"/>
                  </use>
                  <path fill="none" stroke="white" stroke-width="1.5" d="M0,-3.0v7 M-2.5,-0.5L0,-3.0L2.5,-0.5"/>
                </g>
                <g id="arrowDown" xlink:href="#dirArrow" transform="rotate(180) translate(-30 -48)" onmousedown="handlePan(0,1)">
                  <use xlink:href="#rim" fill="#404040">
                        <set attributeName="fill" to="#808080" begin="arrowDown.mouseover" end="arrowDown.mouseout"/>
                  </use>
                  <path fill="none" stroke="white" stroke-width="1.5" d="M0,-3.0v7 M-2.5,-0.5L0,-3.0L2.5,-0.5"/>
                </g>
                <g id="arrowLeft" xlink:href="#dirArrow" transform="rotate(270) translate(-36 17)" onmousedown="handlePan(-1,0)">
                  <use xlink:href="#rim" fill="#404040">
                        <set attributeName="fill" to="#808080" begin="arrowLeft.mouseover" end="arrowLeft.mouseout"/>
                  </use>
                  <path fill="none" stroke="white" stroke-width="1.5" d="M0,-3.0v7 M-2.5,-0.5L0,-3.0L2.5,-0.5"/>
                </g>
        </g>
        <svg viewBox="0 0 15 15" width="100%" height="30px" preserveAspectRatio="xMaxYMin meet">
         <g id="arrow_out" transform="scale(0.3 0.3)">
          <a xlink:href="class_altair_a94c37375266a849cb43570457163db13_cgraph_org.svg" target="_base">
           <rect id="button" ry="5" rx="5" y="6" x="6" height="38" width="38"
                fill="#f2f5e9" fill-opacity="0.5" stroke="#606060" stroke-width="1.0"/>
           <path id="arrow"
             d="M 11.500037,31.436501 C 11.940474,20.09759 22.043105,11.32322 32.158766,21.979434 L 37.068811,17.246167 C 37.068811,17.246167 37.088388,32 37.088388,32 L 22.160133,31.978069 C 22.160133,31.978069 26.997745,27.140456 26.997745,27.140456 C 18.528582,18.264221 13.291696,25.230495 11.500037,31.436501 z"
             style="fill:#404040;"/>
          </a>
         </g>
        </svg>
</svg>
