<?xml version="1.0" encoding="UTF-8" standalone="no"?>
<!DOCTYPE svg PUBLIC "-//W3C//DTD SVG 1.1//EN"
 "http://www.w3.org/Graphics/SVG/1.1/DTD/svg11.dtd">
<!-- Generated by graphviz version 2.38.0 (20140413.2041)
 -->
<!-- Title: tools::generateDatadirPath Pages: 1 -->
<svg width="318pt" height="78pt"
 viewBox="0.00 0.00 318.00 77.50" xmlns="http://www.w3.org/2000/svg" xmlns:xlink="http://www.w3.org/1999/xlink">
<g id="graph0" class="graph" transform="scale(1 1) rotate(0) translate(4 73.5)">
<title>tools::generateDatadirPath</title>
<polygon fill="white" stroke="none" points="-4,4 -4,-73.5 314,-73.5 314,4 -4,4"/>
<!-- Node50 -->
<g id="node1" class="node"><title>Node50</title>
<polygon fill="#bfbfbf" stroke="black" points="0,-22.5 0,-41.5 133,-41.5 133,-22.5 0,-22.5"/>
<text text-anchor="middle" x="66.5" y="-29.5" font-family="Helvetica,sans-Serif" font-size="10.00">tools::generateDatadirPath</text>
</g>
<!-- Node51 -->
<g id="node2" class="node"><title>Node51</title>
<g id="a_node2"><a xlink:href="class_main_window.html#a476c51130bcd450b8d47b2aef944eb15" target="_top" xlink:title="Afficher le log dans le navigateur internet par défaut. ">
<polygon fill="white" stroke="black" points="169,-39 169,-69 310,-69 310,-39 169,-39"/>
<text text-anchor="start" x="177" y="-57" font-family="Helvetica,sans-Serif" font-size="10.00">MainWindow::on_displayLog</text>
<text text-anchor="middle" x="239.5" y="-46" font-family="Helvetica,sans-Serif" font-size="10.00">Button_clicked</text>
</a>
</g>
</g>
<!-- Node50&#45;&gt;Node51 -->
<g id="edge1" class="edge"><title>Node50&#45;&gt;Node51</title>
<path fill="none" stroke="midnightblue" d="M143.082,-41.7239C151.634,-42.8243 160.321,-43.9419 168.794,-45.0319"/>
<polygon fill="midnightblue" stroke="midnightblue" points="143.489,-38.2476 133.124,-40.4429 142.596,-45.1904 143.489,-38.2476"/>
</g>
<!-- Node52 -->
<g id="node3" class="node"><title>Node52</title>
<g id="a_node3"><a xlink:href="classprocess_page.html#ae3ff114e2d797548b9e4e24958446a9a" target="_top" xlink:title="Constructeur de l&#39;onglet Traitement. ">
<polygon fill="white" stroke="black" points="171,-0.5 171,-19.5 308,-19.5 308,-0.5 171,-0.5"/>
<text text-anchor="middle" x="239.5" y="-7.5" font-family="Helvetica,sans-Serif" font-size="10.00">processPage::processPage</text>
</a>
</g>
</g>
<!-- Node50&#45;&gt;Node52 -->
<g id="edge2" class="edge"><title>Node50&#45;&gt;Node52</title>
<path fill="none" stroke="midnightblue" d="M143.059,-22.2789C152.291,-21.0913 161.679,-19.8834 170.786,-18.7118"/>
<polygon fill="midnightblue" stroke="midnightblue" points="142.596,-18.8096 133.124,-23.5571 143.489,-25.7524 142.596,-18.8096"/>
</g>
</g>
</svg>
