<?xml version="1.0" encoding="UTF-8" standalone="no"?>
<!DOCTYPE svg PUBLIC "-//W3C//DTD SVG 1.1//EN"
 "http://www.w3.org/Graphics/SVG/1.1/DTD/svg11.dtd">
<!-- Generated by graphviz version 2.38.0 (20140413.2041)
 -->
<!-- Title: FLineFrame::setText Pages: 1 -->
<svg width="474pt" height="83pt"
 viewBox="0.00 0.00 474.00 83.00" xmlns="http://www.w3.org/2000/svg" xmlns:xlink="http://www.w3.org/1999/xlink">
<g id="graph0" class="graph" transform="scale(1 1) rotate(0) translate(4 79)">
<title>FLineFrame::setText</title>
<polygon fill="white" stroke="none" points="-4,4 -4,-79 470,-79 470,4 -4,4"/>
<!-- Node20 -->
<g id="node1" class="node"><title>Node20</title>
<polygon fill="#bfbfbf" stroke="black" points="0,-28 0,-47 107,-47 107,-28 0,-28"/>
<text text-anchor="middle" x="53.5" y="-35" font-family="Helvetica,sans-Serif" font-size="10.00">FLineFrame::setText</text>
</g>
<!-- Node21 -->
<g id="node2" class="node"><title>Node21</title>
<g id="a_node2"><a xlink:href="class_matricule_input.html#a531419ed5d9ad186758b0ed44621a4e0" target="_top" xlink:title="Vérifie qu&#39;à l&#39;ouverture du dialogue, le répertoire par défaut dirpath est bien renseigné. ">
<polygon fill="white" stroke="black" points="143,-44.5 143,-74.5 285,-74.5 285,-44.5 143,-44.5"/>
<text text-anchor="start" x="151" y="-62.5" font-family="Helvetica,sans-Serif" font-size="10.00">MatriculeInput::checkDefault</text>
<text text-anchor="middle" x="214" y="-51.5" font-family="Helvetica,sans-Serif" font-size="10.00">Folder</text>
</a>
</g>
</g>
<!-- Node20&#45;&gt;Node21 -->
<g id="edge1" class="edge"><title>Node20&#45;&gt;Node21</title>
<path fill="none" stroke="midnightblue" d="M117.377,-46.2275C125.784,-47.3943 134.447,-48.5967 142.966,-49.7792"/>
<polygon fill="midnightblue" stroke="midnightblue" points="117.664,-42.7338 107.278,-44.8257 116.702,-49.6674 117.664,-42.7338"/>
</g>
<!-- Node22 -->
<g id="node3" class="node"><title>Node22</title>
<g id="a_node3"><a xlink:href="class_matricule_input.html#a1b9d9f0c939a200f2643958749f7ec42" target="_top" xlink:title="Réinitialisation de tous les champs. ">
<polygon fill="white" stroke="black" points="161.5,-6 161.5,-25 266.5,-25 266.5,-6 161.5,-6"/>
<text text-anchor="middle" x="214" y="-13" font-family="Helvetica,sans-Serif" font-size="10.00">MatriculeInput::clear</text>
</a>
</g>
</g>
<!-- Node20&#45;&gt;Node22 -->
<g id="edge2" class="edge"><title>Node20&#45;&gt;Node22</title>
<path fill="none" stroke="midnightblue" d="M117.231,-28.7928C131.826,-26.7671 147.202,-24.6328 161.261,-22.6815"/>
<polygon fill="midnightblue" stroke="midnightblue" points="116.702,-25.3326 107.278,-30.1743 117.664,-32.2662 116.702,-25.3326"/>
</g>
<!-- Node23 -->
<g id="node4" class="node"><title>Node23</title>
<g id="a_node4"><a xlink:href="class_main_window.html#a7f2aaeb01d8c0cdbe5d608ef8e866bb7" target="_top" xlink:title="Réinitialise le dialogue d&#39;extraction des matricules. ">
<polygon fill="white" stroke="black" points="321,-0.5 321,-30.5 466,-30.5 466,-0.5 321,-0.5"/>
<text text-anchor="start" x="329" y="-18.5" font-family="Helvetica,sans-Serif" font-size="10.00">MainWindow::resetExtraction</text>
<text text-anchor="middle" x="393.5" y="-7.5" font-family="Helvetica,sans-Serif" font-size="10.00">Bulletins</text>
</a>
</g>
</g>
<!-- Node22&#45;&gt;Node23 -->
<g id="edge3" class="edge"><title>Node22&#45;&gt;Node23</title>
<path fill="none" stroke="midnightblue" d="M276.935,-15.5C291.107,-15.5 306.286,-15.5 320.829,-15.5"/>
<polygon fill="midnightblue" stroke="midnightblue" points="276.818,-12.0001 266.818,-15.5 276.817,-19.0001 276.818,-12.0001"/>
</g>
</g>
</svg>
