<?xml version="1.0" encoding="UTF-8" standalone="no"?>
<!DOCTYPE svg PUBLIC "-//W3C//DTD SVG 1.1//EN"
 "http://www.w3.org/Graphics/SVG/1.1/DTD/svg11.dtd">
<!-- Generated by graphviz version 2.38.0 (20140413.2041)
 -->
<!-- Title: Altair::refreshRowPresentation Pages: 1 -->
<svg width="1188pt" height="460pt"
 viewBox="0.00 0.00 1188.00 460.00" xmlns="http://www.w3.org/2000/svg" xmlns:xlink="http://www.w3.org/1999/xlink">
<g id="graph0" class="graph" transform="scale(1 1) rotate(0) translate(4 456)">
<title>Altair::refreshRowPresentation</title>
<polygon fill="white" stroke="none" points="-4,4 -4,-456 1184,-456 1184,4 -4,4"/>
<!-- Node766 -->
<g id="node1" class="node"><title>Node766</title>
<polygon fill="#bfbfbf" stroke="black" points="0,-382.5 0,-401.5 150,-401.5 150,-382.5 0,-382.5"/>
<text text-anchor="middle" x="75" y="-389.5" font-family="Helvetica,sans-Serif" font-size="10.00">Altair::refreshRowPresentation</text>
</g>
<!-- Node767 -->
<g id="node2" class="node"><title>Node767</title>
<g id="a_node2"><a xlink:href="class_altair.html#ae0975ced0a36e0ed889ae06043a4df66" target="_top" xlink:title="Constructeur. ">
<polygon fill="white" stroke="black" points="923.5,-385.5 923.5,-404.5 991.5,-404.5 991.5,-385.5 923.5,-385.5"/>
<text text-anchor="middle" x="957.5" y="-392.5" font-family="Helvetica,sans-Serif" font-size="10.00">Altair::Altair</text>
</a>
</g>
</g>
<!-- Node766&#45;&gt;Node767 -->
<g id="edge1" class="edge"><title>Node766&#45;&gt;Node767</title>
<path fill="none" stroke="midnightblue" d="M117.141,-404.315C179.534,-421.873 302.094,-452 408.5,-452 408.5,-452 408.5,-452 579,-452 700.622,-452 731.347,-443.798 851,-422 875.738,-417.493 903.248,-410.382 923.972,-404.588"/>
<polygon fill="midnightblue" stroke="midnightblue" points="117.87,-400.884 107.293,-401.507 115.95,-407.615 117.87,-400.884"/>
</g>
<!-- Node768 -->
<g id="node3" class="node"><title>Node768</title>
<g id="a_node3"><a xlink:href="class_altair.html#a41b6c8a35ed8ba14c7c0ce2e6994655f" target="_top" xlink:title="Décode le projet représenté par un pointeur vers QFile ou similaire. ">
<polygon fill="white" stroke="black" points="186,-322.5 186,-341.5 302,-341.5 302,-322.5 186,-322.5"/>
<text text-anchor="middle" x="244" y="-329.5" font-family="Helvetica,sans-Serif" font-size="10.00">Altair::parseProjectFile</text>
</a>
</g>
</g>
<!-- Node766&#45;&gt;Node768 -->
<g id="edge2" class="edge"><title>Node766&#45;&gt;Node768</title>
<path fill="none" stroke="midnightblue" d="M112.14,-379.016C143.506,-367.746 188.193,-351.691 216.386,-341.562"/>
<polygon fill="midnightblue" stroke="midnightblue" points="110.689,-375.818 102.462,-382.493 113.056,-382.405 110.689,-375.818"/>
</g>
<!-- Node769 -->
<g id="node4" class="node"><title>Node769</title>
<g id="a_node4"><a xlink:href="class_altair.html#ac9d7d8e7cebf70212818f1a8ba7d7d78" target="_top" xlink:title="Rafraîchit le gestionnaire de projet à la droite de l&#39;interface. Fonction globale par défaut...">
<polygon fill="white" stroke="black" points="338,-259.5 338,-278.5 481,-278.5 481,-259.5 338,-259.5"/>
<text text-anchor="middle" x="409.5" y="-266.5" font-family="Helvetica,sans-Serif" font-size="10.00">Altair::refreshProjectManager</text>
</a>
</g>
</g>
<!-- Node768&#45;&gt;Node769 -->
<g id="edge3" class="edge"><title>Node768&#45;&gt;Node769</title>
<path fill="none" stroke="midnightblue" d="M279.435,-318.732C310.652,-306.703 355.907,-289.265 383.703,-278.555"/>
<polygon fill="midnightblue" stroke="midnightblue" points="277.905,-315.57 269.832,-322.432 280.422,-322.102 277.905,-315.57"/>
</g>
<!-- Node770 -->
<g id="node5" class="node"><title>Node770</title>
<g id="a_node5"><a xlink:href="class_altair.html#acaa583766e1c062ea311847fcdd35374" target="_top" xlink:title="Efface les onglets, le gestionnaire de projet et lit le projet .alt en cours. ">
<polygon fill="white" stroke="black" points="517,-134 517,-164 639,-164 639,-134 517,-134"/>
<text text-anchor="start" x="525" y="-152" font-family="Helvetica,sans-Serif" font-size="10.00">Altair::clearInterfaceAnd</text>
<text text-anchor="middle" x="578" y="-141" font-family="Helvetica,sans-Serif" font-size="10.00">ParseProject</text>
</a>
</g>
</g>
<!-- Node769&#45;&gt;Node770 -->
<g id="edge4" class="edge"><title>Node769&#45;&gt;Node770</title>
<path fill="none" stroke="midnightblue" d="M432.139,-253.404C464.34,-230.197 524.471,-186.858 556.187,-164"/>
<polygon fill="midnightblue" stroke="midnightblue" points="429.91,-250.696 423.844,-259.383 434.003,-256.375 429.91,-250.696"/>
</g>
<!-- Node774 -->
<g id="node9" class="node"><title>Node774</title>
<g id="a_node9"><a xlink:href="class_altair.html#a2eb0a89c3223b2df1c01d2b3b7d1c0eb" target="_top" xlink:title="Rafraichir le projet .alt après avoir actualisé l&#39;interface. ">
<polygon fill="white" stroke="black" points="525.5,-259.5 525.5,-278.5 630.5,-278.5 630.5,-259.5 525.5,-259.5"/>
<text text-anchor="middle" x="578" y="-266.5" font-family="Helvetica,sans-Serif" font-size="10.00">Altair::updateProject</text>
</a>
</g>
</g>
<!-- Node769&#45;&gt;Node774 -->
<g id="edge8" class="edge"><title>Node769&#45;&gt;Node774</title>
<path fill="none" stroke="midnightblue" d="M491.294,-269C502.926,-269 514.622,-269 525.473,-269"/>
<polygon fill="midnightblue" stroke="midnightblue" points="491.111,-265.5 481.111,-269 491.111,-272.5 491.111,-265.5"/>
</g>
<!-- Node771 -->
<g id="node6" class="node"><title>Node771</title>
<g id="a_node6"><a xlink:href="class_altair.html#aa341707131924eff160bcab41422d1ec" target="_top" xlink:title="Code commun à différentes fonctions lancées pour l&#39;analyse des projets. ">
<polygon fill="white" stroke="black" points="675,-44.5 675,-63.5 851,-63.5 851,-44.5 675,-44.5"/>
<text text-anchor="middle" x="763" y="-51.5" font-family="Helvetica,sans-Serif" font-size="10.00">Altair::openProjectFileCommonCode</text>
</a>
</g>
</g>
<!-- Node770&#45;&gt;Node771 -->
<g id="edge5" class="edge"><title>Node770&#45;&gt;Node771</title>
<path fill="none" stroke="midnightblue" d="M616.887,-129.332C655.535,-109.269 713.9,-78.9701 743.451,-63.6295"/>
<polygon fill="midnightblue" stroke="midnightblue" points="615.26,-126.233 607.997,-133.947 618.485,-132.446 615.26,-126.233"/>
</g>
<!-- Node772 -->
<g id="node7" class="node"><title>Node772</title>
<g id="a_node7"><a xlink:href="class_altair.html#ab98d384297c6b94ff65a683eb5f99633" target="_top" xlink:title="Ouvre le projet, le décode en appelant parseProjectFile et actualise l&#39;interface &#160;en conséquence...">
<polygon fill="white" stroke="black" points="887,-39 887,-69 1028,-69 1028,-39 887,-39"/>
<text text-anchor="start" x="895" y="-57" font-family="Helvetica,sans-Serif" font-size="10.00">Altair::on_openProjectButton</text>
<text text-anchor="middle" x="957.5" y="-46" font-family="Helvetica,sans-Serif" font-size="10.00">_clicked</text>
</a>
</g>
</g>
<!-- Node771&#45;&gt;Node772 -->
<g id="edge6" class="edge"><title>Node771&#45;&gt;Node772</title>
<path fill="none" stroke="midnightblue" d="M861.338,-54C869.951,-54 878.553,-54 886.867,-54"/>
<polygon fill="midnightblue" stroke="midnightblue" points="861.238,-50.5001 851.238,-54 861.238,-57.5001 861.238,-50.5001"/>
</g>
<!-- Node773 -->
<g id="node8" class="node"><title>Node773</title>
<g id="a_node8"><a xlink:href="class_altair.html#a84cf34107cd413ab33800b583bdef59e" target="_top" xlink:title="Ouvre le projet .alt et décode le projet pour actualiser l&#39;interface. ">
<polygon fill="white" stroke="black" points="901,-0.5 901,-19.5 1014,-19.5 1014,-0.5 901,-0.5"/>
<text text-anchor="middle" x="957.5" y="-7.5" font-family="Helvetica,sans-Serif" font-size="10.00">Altair::openProjectFile</text>
</a>
</g>
</g>
<!-- Node771&#45;&gt;Node773 -->
<g id="edge7" class="edge"><title>Node771&#45;&gt;Node773</title>
<path fill="none" stroke="midnightblue" d="M815.555,-42.2159C846.63,-35.1131 885.695,-26.184 914.812,-19.5287"/>
<polygon fill="midnightblue" stroke="midnightblue" points="814.738,-38.8123 805.77,-44.4527 816.298,-45.6363 814.738,-38.8123"/>
</g>
<!-- Node774&#45;&gt;Node767 -->
<g id="edge9" class="edge"><title>Node774&#45;&gt;Node767</title>
<path fill="none" stroke="midnightblue" d="M586.864,-288.219C600.072,-317.594 629.786,-372.607 675,-395 756.458,-435.344 868.149,-417.063 923.14,-404.049"/>
<polygon fill="midnightblue" stroke="midnightblue" points="589.918,-286.463 582.746,-278.665 583.489,-289.233 589.918,-286.463"/>
</g>
<!-- Node775 -->
<g id="node10" class="node"><title>Node775</title>
<g id="a_node10"><a xlink:href="class_altair.html#ab913abfdd0c6fbbceb9a051a4443d5fa" target="_top" xlink:title="Supprimer un onglet central. ">
<polygon fill="white" stroke="black" points="714,-366.5 714,-385.5 812,-385.5 812,-366.5 714,-366.5"/>
<text text-anchor="middle" x="763" y="-373.5" font-family="Helvetica,sans-Serif" font-size="10.00">Altair::deleteGroup</text>
</a>
</g>
</g>
<!-- Node774&#45;&gt;Node775 -->
<g id="edge10" class="edge"><title>Node774&#45;&gt;Node775</title>
<path fill="none" stroke="midnightblue" d="M593.089,-286.264C610.305,-306.176 641.328,-338.422 675,-356 686.953,-362.24 700.829,-366.548 713.942,-369.517"/>
<polygon fill="midnightblue" stroke="midnightblue" points="595.714,-283.947 586.589,-278.564 590.365,-288.463 595.714,-283.947"/>
</g>
<!-- Node776 -->
<g id="node11" class="node"><title>Node776</title>
<g id="a_node11"><a xlink:href="class_altair.html#a299584936cc20c9a1451977264eba1f5" target="_top" xlink:title="Ecrase un item d&#39;un onglet donné ">
<polygon fill="white" stroke="black" points="709.5,-317 709.5,-347 816.5,-347 816.5,-317 709.5,-317"/>
<text text-anchor="start" x="717.5" y="-335" font-family="Helvetica,sans-Serif" font-size="10.00">Altair::on_deleteItem</text>
<text text-anchor="middle" x="763" y="-324" font-family="Helvetica,sans-Serif" font-size="10.00">_clicked</text>
</a>
</g>
</g>
<!-- Node774&#45;&gt;Node776 -->
<g id="edge12" class="edge"><title>Node774&#45;&gt;Node776</title>
<path fill="none" stroke="midnightblue" d="M610.713,-282.451C629.283,-290.101 653.283,-299.601 675,-307 686.008,-310.75 697.922,-314.422 709.297,-317.746"/>
<polygon fill="midnightblue" stroke="midnightblue" points="611.849,-279.133 601.272,-278.529 609.163,-285.598 611.849,-279.133"/>
</g>
<!-- Node777 -->
<g id="node12" class="node"><title>Node777</title>
<g id="a_node12"><a xlink:href="class_altair.html#aab5da600c227ac7eb604fa24a9308d26" target="_top" xlink:title="Enregistre le projet .alt en actualisant projectName et l&#39;état de l&#39;interface &#160;. ">
<polygon fill="white" stroke="black" points="697.5,-278.5 697.5,-297.5 828.5,-297.5 828.5,-278.5 697.5,-278.5"/>
<text text-anchor="middle" x="763" y="-285.5" font-family="Helvetica,sans-Serif" font-size="10.00">Altair::requestSaveProject</text>
</a>
</g>
</g>
<!-- Node774&#45;&gt;Node777 -->
<g id="edge14" class="edge"><title>Node774&#45;&gt;Node777</title>
<path fill="none" stroke="midnightblue" d="M641.084,-275.446C659.162,-277.323 678.954,-279.378 697.195,-281.272"/>
<polygon fill="midnightblue" stroke="midnightblue" points="641.259,-271.945 630.951,-274.394 640.536,-278.908 641.259,-271.945"/>
</g>
<!-- Node778 -->
<g id="node13" class="node"><title>Node778</title>
<g id="a_node13"><a xlink:href="class_altair.html#a1afa285a65e0bdff4c761ad05ec9f8df" target="_top" xlink:title="Fonction réimplémentée : fin du déplacement de la souris. ">
<polygon fill="white" stroke="black" points="718.5,-240.5 718.5,-259.5 807.5,-259.5 807.5,-240.5 718.5,-240.5"/>
<text text-anchor="middle" x="763" y="-247.5" font-family="Helvetica,sans-Serif" font-size="10.00">Altair::dropEvent</text>
</a>
</g>
</g>
<!-- Node774&#45;&gt;Node778 -->
<g id="edge15" class="edge"><title>Node774&#45;&gt;Node778</title>
<path fill="none" stroke="midnightblue" d="M641.208,-262.541C666.541,-259.911 695.223,-256.933 718.28,-254.539"/>
<polygon fill="midnightblue" stroke="midnightblue" points="640.536,-259.092 630.951,-263.606 641.259,-266.055 640.536,-259.092"/>
</g>
<!-- Node779 -->
<g id="node14" class="node"><title>Node779</title>
<g id="a_node14"><a xlink:href="classoptions.html#a52a9fb1d5bdb6ed104e700390b8c0208" target="_top" xlink:title="Constructeur de l&#39;onglet correspondant à un pointeur parent vers une instance de la classe Altair...">
<polygon fill="white" stroke="black" points="720,-202.5 720,-221.5 806,-221.5 806,-202.5 720,-202.5"/>
<text text-anchor="middle" x="763" y="-209.5" font-family="Helvetica,sans-Serif" font-size="10.00">options::options</text>
</a>
</g>
</g>
<!-- Node774&#45;&gt;Node779 -->
<g id="edge16" class="edge"><title>Node774&#45;&gt;Node779</title>
<path fill="none" stroke="midnightblue" d="M609.809,-255.328C628.419,-247.443 652.764,-237.78 675,-231 689.344,-226.626 705.309,-222.839 719.607,-219.822"/>
<polygon fill="midnightblue" stroke="midnightblue" points="608.183,-252.217 600.377,-259.38 610.946,-258.649 608.183,-252.217"/>
</g>
<!-- Node780 -->
<g id="node15" class="node"><title>Node780</title>
<g id="a_node15"><a xlink:href="class_altair.html#a08b5e402c9a694af09110afe33219080" target="_top" xlink:title="Construction de la ligne de commande pour des bases de paye dans un répertoire donné ...">
<polygon fill="white" stroke="black" points="718,-126.5 718,-145.5 808,-145.5 808,-126.5 718,-126.5"/>
<text text-anchor="middle" x="763" y="-133.5" font-family="Helvetica,sans-Serif" font-size="10.00">Altair::runWorker</text>
</a>
</g>
</g>
<!-- Node774&#45;&gt;Node780 -->
<g id="edge17" class="edge"><title>Node774&#45;&gt;Node780</title>
<path fill="none" stroke="midnightblue" d="M590.09,-250.848C605.908,-226.502 637.253,-183.61 675,-160 687.885,-151.94 703.497,-146.543 717.918,-142.947"/>
<polygon fill="midnightblue" stroke="midnightblue" points="587.022,-249.152 584.633,-259.474 592.937,-252.894 587.022,-249.152"/>
</g>
<!-- Node782 -->
<g id="node17" class="node"><title>Node782</title>
<g id="a_node17"><a xlink:href="class_altair.html#a7d10f8ecf4097577885172afb6c2e9c6" target="_top" xlink:title="Lance l&#39;exécution de l&#39;application en ligne de commande lhx. ">
<polygon fill="white" stroke="black" points="1092.5,-126.5 1092.5,-145.5 1151.5,-145.5 1151.5,-126.5 1092.5,-126.5"/>
<text text-anchor="middle" x="1122" y="-133.5" font-family="Helvetica,sans-Serif" font-size="10.00">Altair::run</text>
</a>
</g>
</g>
<!-- Node774&#45;&gt;Node782 -->
<g id="edge22" class="edge"><title>Node774&#45;&gt;Node782</title>
<path fill="none" stroke="midnightblue" d="M594.852,-251.778C612.516,-233.809 642.848,-206.421 675,-193 820.852,-132.119 871.396,-171.321 1028,-150 1049.52,-147.07 1073.78,-143.406 1092.13,-140.561"/>
<polygon fill="midnightblue" stroke="midnightblue" points="592.051,-249.643 587.666,-259.288 597.109,-254.482 592.051,-249.643"/>
</g>
<!-- Node775&#45;&gt;Node767 -->
<g id="edge11" class="edge"><title>Node775&#45;&gt;Node767</title>
<path fill="none" stroke="midnightblue" d="M822.094,-381.734C855.175,-384.999 895.432,-388.972 923.215,-391.715"/>
<polygon fill="midnightblue" stroke="midnightblue" points="822.375,-378.245 812.079,-380.745 821.687,-385.211 822.375,-378.245"/>
</g>
<!-- Node776&#45;&gt;Node767 -->
<g id="edge13" class="edge"><title>Node776&#45;&gt;Node767</title>
<path fill="none" stroke="midnightblue" d="M826.319,-349.368C834.643,-351.846 843.047,-354.428 851,-357 878.785,-365.985 910.23,-377.487 931.507,-385.472"/>
<polygon fill="midnightblue" stroke="midnightblue" points="827.197,-345.978 816.616,-346.515 825.223,-352.694 827.197,-345.978"/>
</g>
<!-- Node781 -->
<g id="node16" class="node"><title>Node781</title>
<g id="a_node16"><a xlink:href="class_altair.html#ae04f2a5771d47bbe2e0cc3a11b72d6bf" target="_top" xlink:title="Parcourt le répertoire en cours du mode distributif, un à chaque appel Exporte l&#39;identification dans ...">
<polygon fill="white" stroke="black" points="889,-88.5 889,-107.5 1026,-107.5 1026,-88.5 889,-88.5"/>
<text text-anchor="middle" x="957.5" y="-95.5" font-family="Helvetica,sans-Serif" font-size="10.00">Altair::runWorkerDistributed</text>
</a>
</g>
</g>
<!-- Node780&#45;&gt;Node781 -->
<g id="edge18" class="edge"><title>Node780&#45;&gt;Node781</title>
<path fill="none" stroke="midnightblue" d="M818.281,-125.285C846.544,-119.706 880.811,-112.941 908.154,-107.544"/>
<polygon fill="midnightblue" stroke="midnightblue" points="817.296,-121.912 808.163,-127.282 818.652,-128.779 817.296,-121.912"/>
</g>
<!-- Node780&#45;&gt;Node782 -->
<g id="edge21" class="edge"><title>Node780&#45;&gt;Node782</title>
<path fill="none" stroke="midnightblue" d="M818.571,-136C895.494,-136 1033.04,-136 1092.42,-136"/>
<polygon fill="midnightblue" stroke="midnightblue" points="818.133,-132.5 808.133,-136 818.133,-139.5 818.133,-132.5"/>
</g>
<!-- Node781&#45;&gt;Node782 -->
<g id="edge19" class="edge"><title>Node781&#45;&gt;Node782</title>
<path fill="none" stroke="midnightblue" d="M1009.31,-109.881C1036.65,-116.275 1069.36,-123.925 1092.3,-129.288"/>
<polygon fill="midnightblue" stroke="midnightblue" points="1010.04,-106.458 999.506,-107.589 1008.45,-113.274 1010.04,-106.458"/>
</g>
<!-- Node783 -->
<g id="node18" class="node"><title>Node783</title>
<g id="a_node18"><a xlink:href="class_altair.html#a16b8035c4383a789cd00b687fb105fe9" target="_top" xlink:title="Traitement de la fin de l&#39;exécution de lhx. ">
<polygon fill="white" stroke="black" points="1064,-88.5 1064,-107.5 1180,-107.5 1180,-88.5 1064,-88.5"/>
<text text-anchor="middle" x="1122" y="-95.5" font-family="Helvetica,sans-Serif" font-size="10.00">Altair::processFinished</text>
</a>
</g>
</g>
<!-- Node781&#45;&gt;Node783 -->
<g id="edge20" class="edge"><title>Node781&#45;&gt;Node783</title>
<path fill="none" stroke="midnightblue" d="M1036.08,-98C1045.41,-98 1054.81,-98 1063.78,-98"/>
<polygon fill="midnightblue" stroke="midnightblue" points="1036,-94.5001 1026,-98 1036,-101.5 1036,-94.5001"/>
</g>
</g>
</svg>
