<?xml version="1.0" encoding="UTF-8" standalone="no"?>
<!DOCTYPE svg PUBLIC "-//W3C//DTD SVG 1.1//EN"
 "http://www.w3.org/Graphics/SVG/1.1/DTD/svg11.dtd">
<!-- Generated by graphviz version 2.38.0 (20140413.2041)
 -->
<!-- Title: FAbstractWidget::isAbstractEnabled Pages: 1 -->
<svg width="1121pt" height="66pt"
 viewBox="0.00 0.00 1121.00 66.00" xmlns="http://www.w3.org/2000/svg" xmlns:xlink="http://www.w3.org/1999/xlink">
<g id="graph0" class="graph" transform="scale(1 1) rotate(0) translate(4 62)">
<title>FAbstractWidget::isAbstractEnabled</title>
<polygon fill="white" stroke="none" points="-4,4 -4,-62 1117,-62 1117,4 -4,4"/>
<!-- Node64 -->
<g id="node1" class="node"><title>Node64</title>
<polygon fill="#bfbfbf" stroke="black" points="0,-14 0,-44 140,-44 140,-14 0,-14"/>
<text text-anchor="start" x="8" y="-32" font-family="Helvetica,sans-Serif" font-size="10.00">FAbstractWidget::isAbstract</text>
<text text-anchor="middle" x="70" y="-21" font-family="Helvetica,sans-Serif" font-size="10.00">Enabled</text>
</g>
<!-- Node65 -->
<g id="node2" class="node"><title>Node65</title>
<g id="a_node2"><a xlink:href="class_f_abstract_widget.html#a6e974137b3ddc4347eef32a468fd2f9b" target="_top" xlink:title="FAbstractWidget::isAbstract\lDisabled">
<polygon fill="white" stroke="black" points="176,-14 176,-44 316,-44 316,-14 176,-14"/>
<text text-anchor="start" x="184" y="-32" font-family="Helvetica,sans-Serif" font-size="10.00">FAbstractWidget::isAbstract</text>
<text text-anchor="middle" x="246" y="-21" font-family="Helvetica,sans-Serif" font-size="10.00">Disabled</text>
</a>
</g>
</g>
<!-- Node64&#45;&gt;Node65 -->
<g id="edge1" class="edge"><title>Node64&#45;&gt;Node65</title>
<path fill="none" stroke="midnightblue" d="M150.035,-29C158.625,-29 167.319,-29 175.779,-29"/>
<polygon fill="midnightblue" stroke="midnightblue" points="150.019,-25.5001 140.019,-29 150.019,-32.5001 150.019,-25.5001"/>
</g>
<!-- Node66 -->
<g id="node3" class="node"><title>Node66</title>
<g id="a_node3"><a xlink:href="class_f_abstract_widget.html#a5c45eef47bfac1603a3cce654c96c66b" target="_top" xlink:title="FAbstractWidget::command\lLineStringList">
<polygon fill="white" stroke="black" points="352,-14 352,-44 491,-44 491,-14 352,-14"/>
<text text-anchor="start" x="360" y="-32" font-family="Helvetica,sans-Serif" font-size="10.00">FAbstractWidget::command</text>
<text text-anchor="middle" x="421.5" y="-21" font-family="Helvetica,sans-Serif" font-size="10.00">LineStringList</text>
</a>
</g>
</g>
<!-- Node65&#45;&gt;Node66 -->
<g id="edge2" class="edge"><title>Node65&#45;&gt;Node66</title>
<path fill="none" stroke="midnightblue" d="M326.125,-29C334.747,-29 343.47,-29 351.951,-29"/>
<polygon fill="midnightblue" stroke="midnightblue" points="326.07,-25.5001 316.07,-29 326.07,-32.5001 326.07,-25.5001"/>
</g>
<!-- Node67 -->
<g id="node4" class="node"><title>Node67</title>
<g id="a_node4"><a xlink:href="class_altair.html#a40c0d298ef581a802c2b063df08a17a0" target="_top" xlink:title="Génère la ligne de commande à partir des chemins des fichiers de paye. ">
<polygon fill="white" stroke="black" points="527,-14 527,-44 662,-44 662,-14 527,-14"/>
<text text-anchor="start" x="535" y="-32" font-family="Helvetica,sans-Serif" font-size="10.00">Altair::createCommandLine</text>
<text text-anchor="middle" x="594.5" y="-21" font-family="Helvetica,sans-Serif" font-size="10.00">String</text>
</a>
</g>
</g>
<!-- Node66&#45;&gt;Node67 -->
<g id="edge3" class="edge"><title>Node66&#45;&gt;Node67</title>
<path fill="none" stroke="midnightblue" d="M501.109,-29C509.718,-29 518.42,-29 526.865,-29"/>
<polygon fill="midnightblue" stroke="midnightblue" points="501.067,-25.5001 491.067,-29 501.067,-32.5001 501.067,-25.5001"/>
</g>
<!-- Node68 -->
<g id="node5" class="node"><title>Node68</title>
<g id="a_node5"><a xlink:href="class_altair.html#a08b5e402c9a694af09110afe33219080" target="_top" xlink:title="Construction de la ligne de commande pour des bases de paye dans un répertoire donné ...">
<polygon fill="white" stroke="black" points="698,-19.5 698,-38.5 788,-38.5 788,-19.5 698,-19.5"/>
<text text-anchor="middle" x="743" y="-26.5" font-family="Helvetica,sans-Serif" font-size="10.00">Altair::runWorker</text>
</a>
</g>
</g>
<!-- Node67&#45;&gt;Node68 -->
<g id="edge4" class="edge"><title>Node67&#45;&gt;Node68</title>
<path fill="none" stroke="midnightblue" d="M672.533,-29C681.231,-29 689.858,-29 697.921,-29"/>
<polygon fill="midnightblue" stroke="midnightblue" points="672.319,-25.5001 662.319,-29 672.319,-32.5001 672.319,-25.5001"/>
</g>
<!-- Node69 -->
<g id="node6" class="node"><title>Node69</title>
<g id="a_node6"><a xlink:href="class_altair.html#a7d10f8ecf4097577885172afb6c2e9c6" target="_top" xlink:title="Lance l&#39;exécution de l&#39;application en ligne de commande lhx. ">
<polygon fill="white" stroke="black" points="1025.5,-38.5 1025.5,-57.5 1084.5,-57.5 1084.5,-38.5 1025.5,-38.5"/>
<text text-anchor="middle" x="1055" y="-45.5" font-family="Helvetica,sans-Serif" font-size="10.00">Altair::run</text>
</a>
</g>
</g>
<!-- Node68&#45;&gt;Node69 -->
<g id="edge5" class="edge"><title>Node68&#45;&gt;Node69</title>
<path fill="none" stroke="midnightblue" d="M798.317,-32.3291C864.467,-36.3834 973.743,-43.081 1025.34,-46.2432"/>
<polygon fill="midnightblue" stroke="midnightblue" points="798.282,-28.8205 788.086,-31.7021 797.853,-35.8074 798.282,-28.8205"/>
</g>
<!-- Node70 -->
<g id="node7" class="node"><title>Node70</title>
<g id="a_node7"><a xlink:href="class_altair.html#ae04f2a5771d47bbe2e0cc3a11b72d6bf" target="_top" xlink:title="Parcourt le répertoire en cours du mode distributif, un à chaque appel Exporte l&#39;identification dans ...">
<polygon fill="white" stroke="black" points="824,-0.5 824,-19.5 961,-19.5 961,-0.5 824,-0.5"/>
<text text-anchor="middle" x="892.5" y="-7.5" font-family="Helvetica,sans-Serif" font-size="10.00">Altair::runWorkerDistributed</text>
</a>
</g>
</g>
<!-- Node68&#45;&gt;Node70 -->
<g id="edge6" class="edge"><title>Node68&#45;&gt;Node70</title>
<path fill="none" stroke="midnightblue" d="M798.209,-22.0171C806.542,-20.9438 815.233,-19.8242 823.814,-18.7189"/>
<polygon fill="midnightblue" stroke="midnightblue" points="797.726,-18.5504 788.255,-23.2994 798.62,-25.493 797.726,-18.5504"/>
</g>
<!-- Node70&#45;&gt;Node69 -->
<g id="edge8" class="edge"><title>Node70&#45;&gt;Node69</title>
<path fill="none" stroke="midnightblue" d="M943.97,-21.9494C970.719,-28.2823 1002.61,-35.833 1025.16,-41.1707"/>
<polygon fill="midnightblue" stroke="midnightblue" points="944.538,-18.4871 934.001,-19.589 942.926,-25.2988 944.538,-18.4871"/>
</g>
<!-- Node71 -->
<g id="node8" class="node"><title>Node71</title>
<g id="a_node8"><a xlink:href="class_altair.html#a16b8035c4383a789cd00b687fb105fe9" target="_top" xlink:title="Traitement de la fin de l&#39;exécution de lhx. ">
<polygon fill="white" stroke="black" points="997,-0.5 997,-19.5 1113,-19.5 1113,-0.5 997,-0.5"/>
<text text-anchor="middle" x="1055" y="-7.5" font-family="Helvetica,sans-Serif" font-size="10.00">Altair::processFinished</text>
</a>
</g>
</g>
<!-- Node70&#45;&gt;Node71 -->
<g id="edge7" class="edge"><title>Node70&#45;&gt;Node71</title>
<path fill="none" stroke="midnightblue" d="M971.215,-10C979.867,-10 988.558,-10 996.885,-10"/>
<polygon fill="midnightblue" stroke="midnightblue" points="971.101,-6.5001 961.101,-10 971.101,-13.5001 971.101,-6.5001"/>
</g>
</g>
</svg>
