<?xml version="1.0" encoding="UTF-8" standalone="no"?>
<!DOCTYPE svg PUBLIC "-//W3C//DTD SVG 1.1//EN"
 "http://www.w3.org/Graphics/SVG/1.1/DTD/svg11.dtd">
<!-- Generated by graphviz version 2.38.0 (20140413.2041)
 -->
<!-- Title: Altair::makeParserString Pages: 1 -->
<svg width="317pt" height="154pt"
 viewBox="0.00 0.00 317.00 154.00" xmlns="http://www.w3.org/2000/svg" xmlns:xlink="http://www.w3.org/1999/xlink">
<g id="graph0" class="graph" transform="scale(1 1) rotate(0) translate(4 150)">
<title>Altair::makeParserString</title>
<polygon fill="white" stroke="none" points="-4,4 -4,-150 313,-150 313,4 -4,4"/>
<!-- Node1709 -->
<g id="node1" class="node"><title>Node1709</title>
<polygon fill="#bfbfbf" stroke="black" points="0,-66.5 0,-85.5 123,-85.5 123,-66.5 0,-66.5"/>
<text text-anchor="middle" x="61.5" y="-73.5" font-family="Helvetica,sans-Serif" font-size="10.00">Altair::makeParserString</text>
</g>
<!-- Node1710 -->
<g id="node2" class="node"><title>Node1710</title>
<g id="a_node2"><a xlink:href="class_f_abstract_widget.html#a79fefba42897657d8a76d0298e524303" target="_top" xlink:title="Accesseur en lecture de la profondeur du composant. ">
<polygon fill="white" stroke="black" points="166,-126.5 166,-145.5 302,-145.5 302,-126.5 166,-126.5"/>
<text text-anchor="middle" x="234" y="-133.5" font-family="Helvetica,sans-Serif" font-size="10.00">FAbstractWidget::getDepth</text>
</a>
</g>
</g>
<!-- Node1709&#45;&gt;Node1710 -->
<g id="edge1" class="edge"><title>Node1709&#45;&gt;Node1710</title>
<path fill="none" stroke="midnightblue" d="M82.4888,-85.5395C101.769,-94.4891 131.932,-107.833 159,-117 166.163,-119.426 173.806,-121.714 181.36,-123.804"/>
<polygon fill="midnightblue" stroke="midnightblue" points="180.626,-127.231 191.191,-126.435 182.435,-120.469 180.626,-127.231"/>
</g>
<!-- Node1711 -->
<g id="node3" class="node"><title>Node1711</title>
<g id="a_node3"><a xlink:href="class_f_abstract_widget.html#ae6ba84e8ed8a54dc8121245f35f568fe" target="_top" xlink:title="Retourne la clé de hashage de Hash::wrapper correspondant au composant. ">
<polygon fill="white" stroke="black" points="159,-88.5 159,-107.5 309,-107.5 309,-88.5 159,-88.5"/>
<text text-anchor="middle" x="234" y="-95.5" font-family="Helvetica,sans-Serif" font-size="10.00">FAbstractWidget::getHashKey</text>
</a>
</g>
</g>
<!-- Node1709&#45;&gt;Node1711 -->
<g id="edge2" class="edge"><title>Node1709&#45;&gt;Node1711</title>
<path fill="none" stroke="midnightblue" d="M123.092,-83.8183C131.576,-84.9131 140.417,-86.0538 149.237,-87.1918"/>
<polygon fill="midnightblue" stroke="midnightblue" points="148.8,-90.6644 159.165,-88.4729 149.695,-83.7219 148.8,-90.6644"/>
</g>
<!-- Node1712 -->
<g id="node4" class="node"><title>Node1712</title>
<g id="a_node4"><a xlink:href="class_f_abstract_widget.html#a821c87067fa5f6b48267d6ffb20e5c97" target="_top" xlink:title="FAbstractWidget::setXmlFrom\lWidget">
<polygon fill="white" stroke="black" points="159.5,-39 159.5,-69 308.5,-69 308.5,-39 159.5,-39"/>
<text text-anchor="start" x="167.5" y="-57" font-family="Helvetica,sans-Serif" font-size="10.00">FAbstractWidget::setXmlFrom</text>
<text text-anchor="middle" x="234" y="-46" font-family="Helvetica,sans-Serif" font-size="10.00">Widget</text>
</a>
</g>
</g>
<!-- Node1709&#45;&gt;Node1712 -->
<g id="edge3" class="edge"><title>Node1709&#45;&gt;Node1712</title>
<path fill="none" stroke="midnightblue" d="M123.092,-68.1817C131.646,-67.078 140.562,-65.9275 149.454,-64.7802"/>
<polygon fill="midnightblue" stroke="midnightblue" points="149.992,-68.2399 159.461,-63.4889 149.096,-61.2974 149.992,-68.2399"/>
</g>
<!-- Node1713 -->
<g id="node5" class="node"><title>Node1713</title>
<g id="a_node5"><a xlink:href="class_f_string.html#a65d0e6d0c4e30acc4fd7f5e3017f0c3c" target="_top" xlink:title="Accesseur de la partie QString p. ">
<polygon fill="white" stroke="black" points="186.5,-0.5 186.5,-19.5 281.5,-19.5 281.5,-0.5 186.5,-0.5"/>
<text text-anchor="middle" x="234" y="-7.5" font-family="Helvetica,sans-Serif" font-size="10.00">FString::toQString</text>
</a>
</g>
</g>
<!-- Node1709&#45;&gt;Node1713 -->
<g id="edge4" class="edge"><title>Node1709&#45;&gt;Node1713</title>
<path fill="none" stroke="midnightblue" d="M80.2201,-66.3549C99.2637,-56.2764 130.628,-40.4981 159,-30 166.542,-27.2092 174.647,-24.6216 182.629,-22.2967"/>
<polygon fill="midnightblue" stroke="midnightblue" points="183.575,-25.6665 192.257,-19.5951 181.684,-18.9267 183.575,-25.6665"/>
</g>
</g>
</svg>
