<?xml version="1.0" encoding="UTF-8" standalone="no"?>
<!DOCTYPE svg PUBLIC "-//W3C//DTD SVG 1.1//EN"
 "http://www.w3.org/Graphics/SVG/1.1/DTD/svg11.dtd">
<!-- Generated by graphviz version 2.38.0 (20140413.2041)
 -->
<!-- Title: options Pages: 1 -->
<!--zoomable 777 -->
<svg id="main" version="1.1" xmlns="http://www.w3.org/2000/svg" xmlns:xlink="http://www.w3.org/1999/xlink" xml:space="preserve" onload="init(evt)">
<style type="text/css"><![CDATA[
.edge:hover path { stroke: red; }
.edge:hover polygon { stroke: red; fill: red; }
]]></style>
<script type="text/javascript"><![CDATA[
var edges = document.getElementsByTagName('g');
if (edges && edges.length) {
  for (var i=0;i<edges.length;i++) {
    if (edges[i].id.substr(0,4)=='edge') {
      edges[i].setAttribute('class','edge');
    }
  }
}
]]></script>
        <defs>
                <circle id="rim" cx="0" cy="0" r="7"/>
                <circle id="rim2" cx="0" cy="0" r="3.5"/>
                <g id="zoomPlus">
                        <use xlink:href="#rim" fill="#404040">
                                <set attributeName="fill" to="#808080" begin="zoomplus.mouseover" end="zoomplus.mouseout"/>
                        </use>
                        <path d="M-4,0h8M0,-4v8" fill="none" stroke="white" stroke-width="1.5" pointer-events="none"/>
                </g>
                <g id="zoomMin">
                        <use xlink:href="#rim" fill="#404040">
                                <set attributeName="fill" to="#808080" begin="zoomminus.mouseover" end="zoomminus.mouseout"/>
                        </use>
                        <path d="M-4,0h8" fill="none" stroke="white" stroke-width="1.5" pointer-events="none"/>
                </g>
                <g id="dirArrow">
                        <path fill="none" stroke="white" stroke-width="1.5" d="M0,-3.0v7 M-2.5,-0.5L0,-3.0L2.5,-0.5"/>
                </g>
               <g id="resetDef">
                       <use xlink:href="#rim2" fill="#404040">
                               <set attributeName="fill" to="#808080" begin="reset.mouseover" end="reset.mouseout"/>
                       </use>
               </g>
        </defs>

<script type="text/javascript">
var viewWidth = 213;
var viewHeight = 777;
var sectionId = 'dynsection-0';
</script>
<script xlink:href="svgpan.js"/>
<svg id="graph" class="graph">
<g id="viewport">
<title>options</title>
<polygon fill="white" stroke="none" points="-4,4 -4,-773 209,-773 209,4 -4,4"/>
<!-- Node0 -->
<g id="node1" class="node"><title>Node0</title>
<polygon fill="#bfbfbf" stroke="black" points="22,-0.5 22,-178.5 143,-178.5 143,-0.5 22,-0.5"/>
<text text-anchor="middle" x="82.5" y="-166.5" font-family="Helvetica,sans-Serif" font-size="10.00">options</text>
<polyline fill="none" stroke="black" points="22,-159.5 143,-159.5 "/>
<text text-anchor="start" x="30" y="-147.5" font-family="Helvetica,sans-Serif" font-size="10.00">+ codeTab</text>
<text text-anchor="start" x="30" y="-136.5" font-family="Helvetica,sans-Serif" font-size="10.00">+ optionWidget</text>
<text text-anchor="start" x="30" y="-125.5" font-family="Helvetica,sans-Serif" font-size="10.00">+ processTab</text>
<text text-anchor="start" x="30" y="-114.5" font-family="Helvetica,sans-Serif" font-size="10.00">+ standardTab</text>
<text text-anchor="start" x="30" y="-103.5" font-family="Helvetica,sans-Serif" font-size="10.00">+ RefreshFlag</text>
<text text-anchor="start" x="30" y="-92.5" font-family="Helvetica,sans-Serif" font-size="10.00">&#45; closeButton</text>
<text text-anchor="start" x="30" y="-81.5" font-family="Helvetica,sans-Serif" font-size="10.00">&#45; pagesWidget</text>
<polyline fill="none" stroke="black" points="22,-74.5 143,-74.5 "/>
<text text-anchor="start" x="30" y="-62.5" font-family="Helvetica,sans-Serif" font-size="10.00">+ options()</text>
<text text-anchor="start" x="30" y="-51.5" font-family="Helvetica,sans-Serif" font-size="10.00">+ clearOptionData()</text>
<text text-anchor="start" x="30" y="-40.5" font-family="Helvetica,sans-Serif" font-size="10.00">&#45; createIcon()</text>
<text text-anchor="start" x="30" y="-29.5" font-family="Helvetica,sans-Serif" font-size="10.00">&#45; createIcons()</text>
<text text-anchor="start" x="30" y="-18.5" font-family="Helvetica,sans-Serif" font-size="10.00">&#45; changePage()</text>
<text text-anchor="start" x="30" y="-7.5" font-family="Helvetica,sans-Serif" font-size="10.00">&#45; enchainerRapports()</text>
</g>
<!-- Node1 -->
<g id="node2" class="node"><title>Node1</title>
<polygon fill="white" stroke="#bfbfbf" points="0,-259.5 0,-316.5 55,-316.5 55,-259.5 0,-259.5"/>
<text text-anchor="middle" x="27.5" y="-304.5" font-family="Helvetica,sans-Serif" font-size="10.00">QDialog</text>
<polyline fill="none" stroke="#bfbfbf" points="0,-297.5 55,-297.5 "/>
<text text-anchor="middle" x="27.5" y="-285.5" font-family="Helvetica,sans-Serif" font-size="10.00"> </text>
<polyline fill="none" stroke="#bfbfbf" points="0,-278.5 55,-278.5 "/>
<text text-anchor="middle" x="27.5" y="-266.5" font-family="Helvetica,sans-Serif" font-size="10.00"> </text>
</g>
<!-- Node1&#45;&gt;Node0 -->
<g id="edge1" class="edge"><title>Node1&#45;&gt;Node0</title>
<path fill="none" stroke="midnightblue" d="M37.9843,-249.543C43.6366,-229.348 50.8689,-203.509 57.853,-178.557"/>
<polygon fill="none" stroke="midnightblue" points="34.5885,-248.69 35.2635,-259.263 41.3294,-250.577 34.5885,-248.69"/>
</g>
<!-- Node2 -->
<g id="node3" class="node"><title>Node2</title>
<g id="a_node3"><a xlink:href="classcommon.html" target="_top" xlink:title="Classe dérivée de la classe tools ajoutant des fonctionnalités de communication de l&#39;interface vers l...">
<polygon fill="white" stroke="black" points="73,-215.5 73,-360.5 204,-360.5 204,-215.5 73,-215.5"/>
<text text-anchor="middle" x="138.5" y="-348.5" font-family="Helvetica,sans-Serif" font-size="10.00">common</text>
<polyline fill="none" stroke="black" points="73,-341.5 204,-341.5 "/>
<text text-anchor="start" x="81" y="-329.5" font-family="Helvetica,sans-Serif" font-size="10.00">+ altairCommandStr</text>
<text text-anchor="start" x="81" y="-318.5" font-family="Helvetica,sans-Serif" font-size="10.00">+ execPath</text>
<text text-anchor="start" x="81" y="-307.5" font-family="Helvetica,sans-Serif" font-size="10.00">+ RAltairCommandStr</text>
<text text-anchor="start" x="81" y="-296.5" font-family="Helvetica,sans-Serif" font-size="10.00">+ RAltairDirStr</text>
<text text-anchor="start" x="81" y="-285.5" font-family="Helvetica,sans-Serif" font-size="10.00">+ sharedir</text>
<polyline fill="none" stroke="black" points="73,-278.5 204,-278.5 "/>
<text text-anchor="start" x="81" y="-266.5" font-family="Helvetica,sans-Serif" font-size="10.00">+ common()</text>
<text text-anchor="start" x="81" y="-255.5" font-family="Helvetica,sans-Serif" font-size="10.00">+ exporter_identification</text>
<text text-anchor="start" x="81" y="-244.5" font-family="Helvetica,sans-Serif" font-size="10.00">_controle()</text>
<text text-anchor="start" x="81" y="-233.5" font-family="Helvetica,sans-Serif" font-size="10.00">+ exporter_identification</text>
<text text-anchor="start" x="81" y="-222.5" font-family="Helvetica,sans-Serif" font-size="10.00">_controle()</text>
</a>
</g>
</g>
<!-- Node2&#45;&gt;Node0 -->
<g id="edge2" class="edge"><title>Node2&#45;&gt;Node0</title>
<path fill="none" stroke="midnightblue" d="M115.246,-205.403C112.743,-196.621 110.188,-187.657 107.665,-178.801"/>
<polygon fill="none" stroke="midnightblue" points="111.938,-206.567 118.045,-215.225 118.67,-204.649 111.938,-206.567"/>
</g>
<!-- Node3 -->
<g id="node4" class="node"><title>Node3</title>
<g id="a_node4"><a xlink:href="classtools.html" target="_top" xlink:title="{tools\n|+ systemPathPrefix\l+ userdatadir\l|+ tools()\l+ dump()\l+ getEmbeddedPath()\l+ readFile()\l+ readFile()\l+ readFile()\l+ readFile()\l+ renommer()\l+ substituer()\l+ cdRomMounted()\l+ copyDir()\l+ copyFile()\l+ generateDatadirPath()\l+ generateDatadirPath()\l+ getDirectorySize()\l+ getFileSize()\l+ IOControl()\l+ openDir()\l+ openDirDialog()\let 6 de plus...\l}">
<polygon fill="white" stroke="black" points="72,-397.5 72,-674.5 205,-674.5 205,-397.5 72,-397.5"/>
<text text-anchor="middle" x="138.5" y="-662.5" font-family="Helvetica,sans-Serif" font-size="10.00">tools</text>
<polyline fill="none" stroke="black" points="72,-655.5 205,-655.5 "/>
<text text-anchor="start" x="80" y="-643.5" font-family="Helvetica,sans-Serif" font-size="10.00">+ systemPathPrefix</text>
<text text-anchor="start" x="80" y="-632.5" font-family="Helvetica,sans-Serif" font-size="10.00">+ userdatadir</text>
<polyline fill="none" stroke="black" points="72,-625.5 205,-625.5 "/>
<text text-anchor="start" x="80" y="-613.5" font-family="Helvetica,sans-Serif" font-size="10.00">+ tools()</text>
<text text-anchor="start" x="80" y="-602.5" font-family="Helvetica,sans-Serif" font-size="10.00">+ dump()</text>
<text text-anchor="start" x="80" y="-591.5" font-family="Helvetica,sans-Serif" font-size="10.00">+ getEmbeddedPath()</text>
<text text-anchor="start" x="80" y="-580.5" font-family="Helvetica,sans-Serif" font-size="10.00">+ readFile()</text>
<text text-anchor="start" x="80" y="-569.5" font-family="Helvetica,sans-Serif" font-size="10.00">+ readFile()</text>
<text text-anchor="start" x="80" y="-558.5" font-family="Helvetica,sans-Serif" font-size="10.00">+ readFile()</text>
<text text-anchor="start" x="80" y="-547.5" font-family="Helvetica,sans-Serif" font-size="10.00">+ readFile()</text>
<text text-anchor="start" x="80" y="-536.5" font-family="Helvetica,sans-Serif" font-size="10.00">+ renommer()</text>
<text text-anchor="start" x="80" y="-525.5" font-family="Helvetica,sans-Serif" font-size="10.00">+ substituer()</text>
<text text-anchor="start" x="80" y="-514.5" font-family="Helvetica,sans-Serif" font-size="10.00">+ cdRomMounted()</text>
<text text-anchor="start" x="80" y="-503.5" font-family="Helvetica,sans-Serif" font-size="10.00">+ copyDir()</text>
<text text-anchor="start" x="80" y="-492.5" font-family="Helvetica,sans-Serif" font-size="10.00">+ copyFile()</text>
<text text-anchor="start" x="80" y="-481.5" font-family="Helvetica,sans-Serif" font-size="10.00">+ generateDatadirPath()</text>
<text text-anchor="start" x="80" y="-470.5" font-family="Helvetica,sans-Serif" font-size="10.00">+ generateDatadirPath()</text>
<text text-anchor="start" x="80" y="-459.5" font-family="Helvetica,sans-Serif" font-size="10.00">+ getDirectorySize()</text>
<text text-anchor="start" x="80" y="-448.5" font-family="Helvetica,sans-Serif" font-size="10.00">+ getFileSize()</text>
<text text-anchor="start" x="80" y="-437.5" font-family="Helvetica,sans-Serif" font-size="10.00">+ IOControl()</text>
<text text-anchor="start" x="80" y="-426.5" font-family="Helvetica,sans-Serif" font-size="10.00">+ openDir()</text>
<text text-anchor="start" x="80" y="-415.5" font-family="Helvetica,sans-Serif" font-size="10.00">+ openDirDialog()</text>
<text text-anchor="start" x="80" y="-404.5" font-family="Helvetica,sans-Serif" font-size="10.00">et 6 de plus...</text>
</a>
</g>
</g>
<!-- Node3&#45;&gt;Node2 -->
<g id="edge3" class="edge"><title>Node3&#45;&gt;Node2</title>
<path fill="none" stroke="midnightblue" d="M138.5,-387.251C138.5,-378.089 138.5,-369.118 138.5,-360.553"/>
<polygon fill="none" stroke="midnightblue" points="135,-387.257 138.5,-397.257 142,-387.257 135,-387.257"/>
</g>
<!-- Node4 -->
<g id="node5" class="node"><title>Node4</title>
<g id="a_node5"><a xlink:href="classflags.html" target="_top" xlink:title="{flags\n||}">
<polygon fill="white" stroke="black" points="119,-711.5 119,-768.5 158,-768.5 158,-711.5 119,-711.5"/>
<text text-anchor="middle" x="138.5" y="-756.5" font-family="Helvetica,sans-Serif" font-size="10.00">flags</text>
<polyline fill="none" stroke="black" points="119,-749.5 158,-749.5 "/>
<text text-anchor="middle" x="138.5" y="-737.5" font-family="Helvetica,sans-Serif" font-size="10.00"> </text>
<polyline fill="none" stroke="black" points="119,-730.5 158,-730.5 "/>
<text text-anchor="middle" x="138.5" y="-718.5" font-family="Helvetica,sans-Serif" font-size="10.00"> </text>
</a>
</g>
</g>
<!-- Node4&#45;&gt;Node3 -->
<g id="edge4" class="edge"><title>Node4&#45;&gt;Node3</title>
<path fill="none" stroke="midnightblue" d="M138.5,-701.265C138.5,-693.182 138.5,-684.193 138.5,-674.704"/>
<polygon fill="none" stroke="midnightblue" points="135,-701.336 138.5,-711.336 142,-701.336 135,-701.336"/>
</g>
</g>
</svg>
        <g id="navigator" transform="translate(0 0)" fill="#404254">
                <rect fill="#f2f5e9" fill-opacity="0.5" stroke="#606060" stroke-width=".5" x="0" y="0" width="60" height="60"/>
                <use id="zoomplus" xlink:href="#zoomPlus" x="17" y="9" onmousedown="handleZoom(evt,'in')"/>
                <use id="zoomminus" xlink:href="#zoomMin" x="42" y="9" onmousedown="handleZoom(evt,'out')"/>
                <use id="reset" xlink:href="#resetDef" x="30" y="36" onmousedown="handleReset()"/>
                <g id="arrowUp" xlink:href="#dirArrow" transform="translate(30 24)" onmousedown="handlePan(0,-1)">
                  <use xlink:href="#rim" fill="#404040">
                        <set attributeName="fill" to="#808080" begin="arrowUp.mouseover" end="arrowUp.mouseout"/>
                  </use>
                  <path fill="none" stroke="white" stroke-width="1.5" d="M0,-3.0v7 M-2.5,-0.5L0,-3.0L2.5,-0.5"/>
                </g>
                <g id="arrowRight" xlink:href="#dirArrow" transform="rotate(90) translate(36 -43)" onmousedown="handlePan(1,0)">
                  <use xlink:href="#rim" fill="#404040">
                        <set attributeName="fill" to="#808080" begin="arrowRight.mouseover" end="arrowRight.mouseout"/>
                  </use>
                  <path fill="none" stroke="white" stroke-width="1.5" d="M0,-3.0v7 M-2.5,-0.5L0,-3.0L2.5,-0.5"/>
                </g>
                <g id="arrowDown" xlink:href="#dirArrow" transform="rotate(180) translate(-30 -48)" onmousedown="handlePan(0,1)">
                  <use xlink:href="#rim" fill="#404040">
                        <set attributeName="fill" to="#808080" begin="arrowDown.mouseover" end="arrowDown.mouseout"/>
                  </use>
                  <path fill="none" stroke="white" stroke-width="1.5" d="M0,-3.0v7 M-2.5,-0.5L0,-3.0L2.5,-0.5"/>
                </g>
                <g id="arrowLeft" xlink:href="#dirArrow" transform="rotate(270) translate(-36 17)" onmousedown="handlePan(-1,0)">
                  <use xlink:href="#rim" fill="#404040">
                        <set attributeName="fill" to="#808080" begin="arrowLeft.mouseover" end="arrowLeft.mouseout"/>
                  </use>
                  <path fill="none" stroke="white" stroke-width="1.5" d="M0,-3.0v7 M-2.5,-0.5L0,-3.0L2.5,-0.5"/>
                </g>
        </g>
        <svg viewBox="0 0 15 15" width="100%" height="30px" preserveAspectRatio="xMaxYMin meet">
         <g id="arrow_out" transform="scale(0.3 0.3)">
          <a xlink:href="classoptions__inherit__graph_org.svg" target="_base">
           <rect id="button" ry="5" rx="5" y="6" x="6" height="38" width="38"
                fill="#f2f5e9" fill-opacity="0.5" stroke="#606060" stroke-width="1.0"/>
           <path id="arrow"
             d="M 11.500037,31.436501 C 11.940474,20.09759 22.043105,11.32322 32.158766,21.979434 L 37.068811,17.246167 C 37.068811,17.246167 37.088388,32 37.088388,32 L 22.160133,31.978069 C 22.160133,31.978069 26.997745,27.140456 26.997745,27.140456 C 18.528582,18.264221 13.291696,25.230495 11.500037,31.436501 z"
             style="fill:#404040;"/>
          </a>
         </g>
        </svg>
</svg>
