<?xml version="1.0" encoding="UTF-8" standalone="no"?>
<!DOCTYPE svg PUBLIC "-//W3C//DTD SVG 1.1//EN"
 "http://www.w3.org/Graphics/SVG/1.1/DTD/svg11.dtd">
<!-- Generated by graphviz version 2.38.0 (20140413.2041)
 -->
<!-- Title: FComboBox Pages: 1 -->
<svg width="234pt" height="606pt"
 viewBox="0.00 0.00 233.50 606.00" xmlns="http://www.w3.org/2000/svg" xmlns:xlink="http://www.w3.org/1999/xlink">
<g id="graph0" class="graph" transform="scale(1 1) rotate(0) translate(4 602)">
<title>FComboBox</title>
<polygon fill="white" stroke="none" points="-4,4 -4,-602 229.5,-602 229.5,4 -4,4"/>
<!-- Node0 -->
<g id="node1" class="node"><title>Node0</title>
<polygon fill="#bfbfbf" stroke="black" points="26,-0.5 26,-167.5 169,-167.5 169,-0.5 26,-0.5"/>
<text text-anchor="middle" x="97.5" y="-155.5" font-family="Helvetica,sans-Serif" font-size="10.00">FComboBox</text>
<polyline fill="none" stroke="black" points="26,-148.5 169,-148.5 "/>
<text text-anchor="start" x="34" y="-136.5" font-family="Helvetica,sans-Serif" font-size="10.00">+ comboBoxTranslationHash</text>
<text text-anchor="start" x="34" y="-125.5" font-family="Helvetica,sans-Serif" font-size="10.00">+ signalList</text>
<polyline fill="none" stroke="black" points="26,-118.5 169,-118.5 "/>
<text text-anchor="start" x="34" y="-106.5" font-family="Helvetica,sans-Serif" font-size="10.00">+ FComboBox()</text>
<text text-anchor="start" x="34" y="-95.5" font-family="Helvetica,sans-Serif" font-size="10.00">+ FComboBox()</text>
<text text-anchor="start" x="34" y="-84.5" font-family="Helvetica,sans-Serif" font-size="10.00">+ FComboBox()</text>
<text text-anchor="start" x="34" y="-73.5" font-family="Helvetica,sans-Serif" font-size="10.00">+ FComboBox()</text>
<text text-anchor="start" x="34" y="-62.5" font-family="Helvetica,sans-Serif" font-size="10.00">+ FComboBox()</text>
<text text-anchor="start" x="34" y="-51.5" font-family="Helvetica,sans-Serif" font-size="10.00">+ isAbstractEnabled()</text>
<text text-anchor="start" x="34" y="-40.5" font-family="Helvetica,sans-Serif" font-size="10.00">+ refreshWidgetDisplay()</text>
<text text-anchor="start" x="34" y="-29.5" font-family="Helvetica,sans-Serif" font-size="10.00">+ setWidgetFromXml()</text>
<text text-anchor="start" x="34" y="-18.5" font-family="Helvetica,sans-Serif" font-size="10.00">+ setXmlFromWidget()</text>
<text text-anchor="start" x="34" y="-7.5" font-family="Helvetica,sans-Serif" font-size="10.00">&#45; fromCurrentIndex()</text>
</g>
<!-- Node1 -->
<g id="node2" class="node"><title>Node1</title>
<polygon fill="white" stroke="#bfbfbf" points="0,-325.5 0,-382.5 73,-382.5 73,-325.5 0,-325.5"/>
<text text-anchor="middle" x="36.5" y="-370.5" font-family="Helvetica,sans-Serif" font-size="10.00">QComboBox</text>
<polyline fill="none" stroke="#bfbfbf" points="0,-363.5 73,-363.5 "/>
<text text-anchor="middle" x="36.5" y="-351.5" font-family="Helvetica,sans-Serif" font-size="10.00"> </text>
<polyline fill="none" stroke="#bfbfbf" points="0,-344.5 73,-344.5 "/>
<text text-anchor="middle" x="36.5" y="-332.5" font-family="Helvetica,sans-Serif" font-size="10.00"> </text>
</g>
<!-- Node1&#45;&gt;Node0 -->
<g id="edge1" class="edge"><title>Node1&#45;&gt;Node0</title>
<path fill="none" stroke="midnightblue" d="M45.1096,-315.174C53.7971,-277.006 67.493,-216.834 78.7028,-167.584"/>
<polygon fill="none" stroke="midnightblue" points="41.605,-314.801 42.7983,-325.329 48.4305,-316.355 41.605,-314.801"/>
</g>
<!-- Node2 -->
<g id="node3" class="node"><title>Node2</title>
<g id="a_node3"><a xlink:href="class_f_abstract_widget.html" target="_top" xlink:title="{FAbstractWidget\n|+ commandLineList\l+ commandLineType\l+ disabledObjects\l+ enabledObjects\l+ optionLabel\l+ status\l# componentList\l# description\l# hashKey\l# widgetDepth\l|+ commandLineStringList()\l+ getComponentList()\l+ getDepth()\l+ getDescription()\l+ getHashKey()\l+ isAbstractDisabled()\l+ isAbstractEnabled()\l+ refreshWidgetDisplay()\l+ setDisableObjects()\l+ setHashKey()\l+ setWidgetFromXml()\l+ setXmlFromWidget()\l# FCore()\l# FCore()\l}">
<polygon fill="white" stroke="black" points="91.5,-204.5 91.5,-503.5 225.5,-503.5 225.5,-204.5 91.5,-204.5"/>
<text text-anchor="middle" x="158.5" y="-491.5" font-family="Helvetica,sans-Serif" font-size="10.00">FAbstractWidget</text>
<polyline fill="none" stroke="black" points="91.5,-484.5 225.5,-484.5 "/>
<text text-anchor="start" x="99.5" y="-472.5" font-family="Helvetica,sans-Serif" font-size="10.00">+ commandLineList</text>
<text text-anchor="start" x="99.5" y="-461.5" font-family="Helvetica,sans-Serif" font-size="10.00">+ commandLineType</text>
<text text-anchor="start" x="99.5" y="-450.5" font-family="Helvetica,sans-Serif" font-size="10.00">+ disabledObjects</text>
<text text-anchor="start" x="99.5" y="-439.5" font-family="Helvetica,sans-Serif" font-size="10.00">+ enabledObjects</text>
<text text-anchor="start" x="99.5" y="-428.5" font-family="Helvetica,sans-Serif" font-size="10.00">+ optionLabel</text>
<text text-anchor="start" x="99.5" y="-417.5" font-family="Helvetica,sans-Serif" font-size="10.00">+ status</text>
<text text-anchor="start" x="99.5" y="-406.5" font-family="Helvetica,sans-Serif" font-size="10.00"># componentList</text>
<text text-anchor="start" x="99.5" y="-395.5" font-family="Helvetica,sans-Serif" font-size="10.00"># description</text>
<text text-anchor="start" x="99.5" y="-384.5" font-family="Helvetica,sans-Serif" font-size="10.00"># hashKey</text>
<text text-anchor="start" x="99.5" y="-373.5" font-family="Helvetica,sans-Serif" font-size="10.00"># widgetDepth</text>
<polyline fill="none" stroke="black" points="91.5,-366.5 225.5,-366.5 "/>
<text text-anchor="start" x="99.5" y="-354.5" font-family="Helvetica,sans-Serif" font-size="10.00">+ commandLineStringList()</text>
<text text-anchor="start" x="99.5" y="-343.5" font-family="Helvetica,sans-Serif" font-size="10.00">+ getComponentList()</text>
<text text-anchor="start" x="99.5" y="-332.5" font-family="Helvetica,sans-Serif" font-size="10.00">+ getDepth()</text>
<text text-anchor="start" x="99.5" y="-321.5" font-family="Helvetica,sans-Serif" font-size="10.00">+ getDescription()</text>
<text text-anchor="start" x="99.5" y="-310.5" font-family="Helvetica,sans-Serif" font-size="10.00">+ getHashKey()</text>
<text text-anchor="start" x="99.5" y="-299.5" font-family="Helvetica,sans-Serif" font-size="10.00">+ isAbstractDisabled()</text>
<text text-anchor="start" x="99.5" y="-288.5" font-family="Helvetica,sans-Serif" font-size="10.00">+ isAbstractEnabled()</text>
<text text-anchor="start" x="99.5" y="-277.5" font-family="Helvetica,sans-Serif" font-size="10.00">+ refreshWidgetDisplay()</text>
<text text-anchor="start" x="99.5" y="-266.5" font-family="Helvetica,sans-Serif" font-size="10.00">+ setDisableObjects()</text>
<text text-anchor="start" x="99.5" y="-255.5" font-family="Helvetica,sans-Serif" font-size="10.00">+ setHashKey()</text>
<text text-anchor="start" x="99.5" y="-244.5" font-family="Helvetica,sans-Serif" font-size="10.00">+ setWidgetFromXml()</text>
<text text-anchor="start" x="99.5" y="-233.5" font-family="Helvetica,sans-Serif" font-size="10.00">+ setXmlFromWidget()</text>
<text text-anchor="start" x="99.5" y="-222.5" font-family="Helvetica,sans-Serif" font-size="10.00"># FCore()</text>
<text text-anchor="start" x="99.5" y="-211.5" font-family="Helvetica,sans-Serif" font-size="10.00"># FCore()</text>
</a>
</g>
</g>
<!-- Node2&#45;&gt;Node0 -->
<g id="edge2" class="edge"><title>Node2&#45;&gt;Node0</title>
<path fill="none" stroke="midnightblue" d="M122.432,-194.536C120.353,-185.403 118.31,-176.426 116.343,-167.784"/>
<polygon fill="none" stroke="midnightblue" points="119.067,-195.526 124.7,-204.5 125.893,-193.972 119.067,-195.526"/>
</g>
<!-- Node3 -->
<g id="node4" class="node"><title>Node3</title>
<g id="a_node4"><a xlink:href="classflags.html" target="_top" xlink:title="{flags\n||}">
<polygon fill="white" stroke="black" points="139.5,-540.5 139.5,-597.5 177.5,-597.5 177.5,-540.5 139.5,-540.5"/>
<text text-anchor="middle" x="158.5" y="-585.5" font-family="Helvetica,sans-Serif" font-size="10.00">flags</text>
<polyline fill="none" stroke="black" points="139.5,-578.5 177.5,-578.5 "/>
<text text-anchor="middle" x="158.5" y="-566.5" font-family="Helvetica,sans-Serif" font-size="10.00"> </text>
<polyline fill="none" stroke="black" points="139.5,-559.5 177.5,-559.5 "/>
<text text-anchor="middle" x="158.5" y="-547.5" font-family="Helvetica,sans-Serif" font-size="10.00"> </text>
</a>
</g>
</g>
<!-- Node3&#45;&gt;Node2 -->
<g id="edge3" class="edge"><title>Node3&#45;&gt;Node2</title>
<path fill="none" stroke="midnightblue" d="M158.5,-529.923C158.5,-521.996 158.5,-513.193 158.5,-503.872"/>
<polygon fill="none" stroke="midnightblue" points="155,-530.154 158.5,-540.154 162,-530.154 155,-530.154"/>
</g>
</g>
</svg>
