<?xml version="1.0" encoding="UTF-8" standalone="no"?>
<!DOCTYPE svg PUBLIC "-//W3C//DTD SVG 1.1//EN"
 "http://www.w3.org/Graphics/SVG/1.1/DTD/svg11.dtd">
<!-- Generated by graphviz version 2.38.0 (20140413.2041)
 -->
<!-- Title: MainWindow::isDefaultSaveProjectChecked Pages: 1 -->
<!--zoomable 332 -->
<svg id="main" version="1.1" xmlns="http://www.w3.org/2000/svg" xmlns:xlink="http://www.w3.org/1999/xlink" xml:space="preserve" onload="init(evt)">
<style type="text/css"><![CDATA[
.edge:hover path { stroke: red; }
.edge:hover polygon { stroke: red; fill: red; }
]]></style>
<script type="text/javascript"><![CDATA[
var edges = document.getElementsByTagName('g');
if (edges && edges.length) {
  for (var i=0;i<edges.length;i++) {
    if (edges[i].id.substr(0,4)=='edge') {
      edges[i].setAttribute('class','edge');
    }
  }
}
]]></script>
        <defs>
                <circle id="rim" cx="0" cy="0" r="7"/>
                <circle id="rim2" cx="0" cy="0" r="3.5"/>
                <g id="zoomPlus">
                        <use xlink:href="#rim" fill="#404040">
                                <set attributeName="fill" to="#808080" begin="zoomplus.mouseover" end="zoomplus.mouseout"/>
                        </use>
                        <path d="M-4,0h8M0,-4v8" fill="none" stroke="white" stroke-width="1.5" pointer-events="none"/>
                </g>
                <g id="zoomMin">
                        <use xlink:href="#rim" fill="#404040">
                                <set attributeName="fill" to="#808080" begin="zoomminus.mouseover" end="zoomminus.mouseout"/>
                        </use>
                        <path d="M-4,0h8" fill="none" stroke="white" stroke-width="1.5" pointer-events="none"/>
                </g>
                <g id="dirArrow">
                        <path fill="none" stroke="white" stroke-width="1.5" d="M0,-3.0v7 M-2.5,-0.5L0,-3.0L2.5,-0.5"/>
                </g>
               <g id="resetDef">
                       <use xlink:href="#rim2" fill="#404040">
                               <set attributeName="fill" to="#808080" begin="reset.mouseover" end="reset.mouseout"/>
                       </use>
               </g>
        </defs>

<script type="text/javascript">
var viewWidth = 781;
var viewHeight = 332;
var sectionId = 'dynsection-13';
</script>
<script xlink:href="svgpan.js"/>
<svg id="graph" class="graph">
<g id="viewport">
<title>MainWindow::isDefaultSaveProjectChecked</title>
<polygon fill="white" stroke="none" points="-4,4 -4,-328.451 777,-328.451 777,4 -4,4"/>
<!-- Node69 -->
<g id="node1" class="node"><title>Node69</title>
<polygon fill="#bfbfbf" stroke="black" points="0,-169 0,-199 140,-199 140,-169 0,-169"/>
<text text-anchor="start" x="8" y="-187" font-family="Helvetica,sans-Serif" font-size="10.00">MainWindow::isDefaultSave</text>
<text text-anchor="middle" x="70" y="-176" font-family="Helvetica,sans-Serif" font-size="10.00">ProjectChecked</text>
</g>
<!-- Node70 -->
<g id="node2" class="node"><title>Node70</title>
<g id="a_node2"><a xlink:href="class_altair.html#a2eb0a89c3223b2df1c01d2b3b7d1c0eb" target="_top" xlink:title="Rafraichir le projet .alt après avoir actualisé l&#39;interface. ">
<polygon fill="white" stroke="black" points="176,-174.5 176,-193.5 281,-193.5 281,-174.5 176,-174.5"/>
<text text-anchor="middle" x="228.5" y="-181.5" font-family="Helvetica,sans-Serif" font-size="10.00">Altair::updateProject</text>
</a>
</g>
</g>
<!-- Node69&#45;&gt;Node70 -->
<g id="edge1" class="edge"><title>Node69&#45;&gt;Node70</title>
<path fill="none" stroke="midnightblue" d="M150.229,-184C158.874,-184 167.503,-184 175.693,-184"/>
<polygon fill="midnightblue" stroke="midnightblue" points="150.099,-180.5 140.099,-184 150.099,-187.5 150.099,-180.5"/>
</g>
<!-- Node71 -->
<g id="node3" class="node"><title>Node71</title>
<g id="a_node3"><a xlink:href="class_altair.html#ae0975ced0a36e0ed889ae06043a4df66" target="_top" xlink:title="Constructeur. ">
<polygon fill="white" stroke="black" points="518.5,-278.5 518.5,-297.5 586.5,-297.5 586.5,-278.5 518.5,-278.5"/>
<text text-anchor="middle" x="552.5" y="-285.5" font-family="Helvetica,sans-Serif" font-size="10.00">Altair::Altair</text>
</a>
</g>
</g>
<!-- Node70&#45;&gt;Node71 -->
<g id="edge2" class="edge"><title>Node70&#45;&gt;Node71</title>
<path fill="none" stroke="midnightblue" d="M236.471,-203.136C248.102,-231.854 274.477,-285.065 317,-307 386.878,-343.046 484.26,-314.139 528.271,-297.58"/>
<polygon fill="midnightblue" stroke="midnightblue" points="239.719,-201.833 232.85,-193.768 233.19,-204.357 239.719,-201.833"/>
</g>
<!-- Node72 -->
<g id="node4" class="node"><title>Node72</title>
<g id="a_node4"><a xlink:href="class_altair.html#ab913abfdd0c6fbbceb9a051a4443d5fa" target="_top" xlink:title="Supprimer un onglet central. ">
<polygon fill="white" stroke="black" points="333.5,-278.5 333.5,-297.5 431.5,-297.5 431.5,-278.5 333.5,-278.5"/>
<text text-anchor="middle" x="382.5" y="-285.5" font-family="Helvetica,sans-Serif" font-size="10.00">Altair::deleteGroup</text>
</a>
</g>
</g>
<!-- Node70&#45;&gt;Node72 -->
<g id="edge3" class="edge"><title>Node70&#45;&gt;Node72</title>
<path fill="none" stroke="midnightblue" d="M243.189,-201.683C258.987,-220.926 286.711,-251.306 317,-269 323.552,-272.827 330.935,-275.936 338.304,-278.444"/>
<polygon fill="midnightblue" stroke="midnightblue" points="245.787,-199.327 236.803,-193.711 240.323,-203.704 245.787,-199.327"/>
</g>
<!-- Node73 -->
<g id="node5" class="node"><title>Node73</title>
<g id="a_node5"><a xlink:href="class_altair.html#a1afa285a65e0bdff4c761ad05ec9f8df" target="_top" xlink:title="Fonction réimplémentée : fin du déplacement de la souris. ">
<polygon fill="white" stroke="black" points="338,-240.5 338,-259.5 427,-259.5 427,-240.5 338,-240.5"/>
<text text-anchor="middle" x="382.5" y="-247.5" font-family="Helvetica,sans-Serif" font-size="10.00">Altair::dropEvent</text>
</a>
</g>
</g>
<!-- Node70&#45;&gt;Node73 -->
<g id="edge5" class="edge"><title>Node70&#45;&gt;Node73</title>
<path fill="none" stroke="midnightblue" d="M253.963,-198.908C271.152,-208.938 294.928,-221.935 317,-231 325.639,-234.548 335.177,-237.734 344.209,-240.438"/>
<polygon fill="midnightblue" stroke="midnightblue" points="255.532,-195.769 245.144,-193.685 251.965,-201.792 255.532,-195.769"/>
</g>
<!-- Node74 -->
<g id="node6" class="node"><title>Node74</title>
<g id="a_node6"><a xlink:href="class_altair.html#a299584936cc20c9a1451977264eba1f5" target="_top" xlink:title="Ecrase un item d&#39;un onglet donné ">
<polygon fill="white" stroke="black" points="329,-191 329,-221 436,-221 436,-191 329,-191"/>
<text text-anchor="start" x="337" y="-209" font-family="Helvetica,sans-Serif" font-size="10.00">Altair::on_deleteItem</text>
<text text-anchor="middle" x="382.5" y="-198" font-family="Helvetica,sans-Serif" font-size="10.00">_clicked</text>
</a>
</g>
</g>
<!-- Node70&#45;&gt;Node74 -->
<g id="edge6" class="edge"><title>Node70&#45;&gt;Node74</title>
<path fill="none" stroke="midnightblue" d="M291.61,-192.99C303.96,-194.777 316.817,-196.638 328.816,-198.375"/>
<polygon fill="midnightblue" stroke="midnightblue" points="291.783,-189.478 281.385,-191.51 290.78,-196.406 291.783,-189.478"/>
</g>
<!-- Node75 -->
<g id="node7" class="node"><title>Node75</title>
<g id="a_node7"><a xlink:href="classoptions.html#a52a9fb1d5bdb6ed104e700390b8c0208" target="_top" xlink:title="options::options">
<polygon fill="white" stroke="black" points="339.5,-152.5 339.5,-171.5 425.5,-171.5 425.5,-152.5 339.5,-152.5"/>
<text text-anchor="middle" x="382.5" y="-159.5" font-family="Helvetica,sans-Serif" font-size="10.00">options::options</text>
</a>
</g>
</g>
<!-- Node70&#45;&gt;Node75 -->
<g id="edge8" class="edge"><title>Node70&#45;&gt;Node75</title>
<path fill="none" stroke="midnightblue" d="M291.31,-175.054C307.48,-172.713 324.538,-170.245 339.415,-168.091"/>
<polygon fill="midnightblue" stroke="midnightblue" points="290.78,-171.594 281.385,-176.49 291.783,-178.522 290.78,-171.594"/>
</g>
<!-- Node76 -->
<g id="node8" class="node"><title>Node76</title>
<g id="a_node8"><a xlink:href="class_altair.html#aab5da600c227ac7eb604fa24a9308d26" target="_top" xlink:title="Enregistre le projet .alt en actualisant projectName et l&#39;état de l&#39;interface &#160;. ">
<polygon fill="white" stroke="black" points="317,-114.5 317,-133.5 448,-133.5 448,-114.5 317,-114.5"/>
<text text-anchor="middle" x="382.5" y="-121.5" font-family="Helvetica,sans-Serif" font-size="10.00">Altair::requestSaveProject</text>
</a>
</g>
</g>
<!-- Node70&#45;&gt;Node76 -->
<g id="edge9" class="edge"><title>Node70&#45;&gt;Node76</title>
<path fill="none" stroke="midnightblue" d="M257.246,-169.677C274.223,-161.248 296.544,-150.754 317,-143 326.06,-139.566 336.025,-136.361 345.356,-133.598"/>
<polygon fill="midnightblue" stroke="midnightblue" points="255.283,-166.746 247.921,-174.366 258.428,-173 255.283,-166.746"/>
</g>
<!-- Node77 -->
<g id="node9" class="node"><title>Node77</title>
<g id="a_node9"><a xlink:href="class_altair.html#a7d10f8ecf4097577885172afb6c2e9c6" target="_top" xlink:title="Lance l&#39;exécution de l&#39;application en ligne de commande lhx. ">
<polygon fill="white" stroke="black" points="685.5,-38.5 685.5,-57.5 744.5,-57.5 744.5,-38.5 685.5,-38.5"/>
<text text-anchor="middle" x="715" y="-45.5" font-family="Helvetica,sans-Serif" font-size="10.00">Altair::run</text>
</a>
</g>
</g>
<!-- Node70&#45;&gt;Node77 -->
<g id="edge10" class="edge"><title>Node70&#45;&gt;Node77</title>
<path fill="none" stroke="midnightblue" d="M243.28,-166.494C258.982,-147.907 286.454,-119.286 317,-105 440.606,-47.1926 485.975,-81.7122 621,-62 642.488,-58.863 666.751,-55.2067 685.105,-52.4175"/>
<polygon fill="midnightblue" stroke="midnightblue" points="240.562,-164.288 236.925,-174.24 245.974,-168.728 240.562,-164.288"/>
</g>
<!-- Node78 -->
<g id="node10" class="node"><title>Node78</title>
<g id="a_node10"><a xlink:href="class_altair.html#a08b5e402c9a694af09110afe33219080" target="_top" xlink:title="Construction de la ligne de commande pour des bases de paye dans un répertoire donné ...">
<polygon fill="white" stroke="black" points="337.5,-38.5 337.5,-57.5 427.5,-57.5 427.5,-38.5 337.5,-38.5"/>
<text text-anchor="middle" x="382.5" y="-45.5" font-family="Helvetica,sans-Serif" font-size="10.00">Altair::runWorker</text>
</a>
</g>
</g>
<!-- Node70&#45;&gt;Node78 -->
<g id="edge11" class="edge"><title>Node70&#45;&gt;Node78</title>
<path fill="none" stroke="midnightblue" d="M239.581,-165.447C253.811,-140.862 282.001,-97.6203 317,-72 325.388,-65.86 335.524,-61.1214 345.251,-57.5409"/>
<polygon fill="midnightblue" stroke="midnightblue" points="236.368,-164.02 234.513,-174.451 242.468,-167.454 236.368,-164.02"/>
</g>
<!-- Node72&#45;&gt;Node71 -->
<g id="edge4" class="edge"><title>Node72&#45;&gt;Node71</title>
<path fill="none" stroke="midnightblue" d="M441.97,-288C467.505,-288 496.518,-288 518.266,-288"/>
<polygon fill="midnightblue" stroke="midnightblue" points="441.642,-284.5 431.642,-288 441.642,-291.5 441.642,-284.5"/>
</g>
<!-- Node74&#45;&gt;Node71 -->
<g id="edge7" class="edge"><title>Node74&#45;&gt;Node71</title>
<path fill="none" stroke="midnightblue" d="M434.341,-224.967C438.994,-226.924 443.606,-228.95 448,-231 479.974,-245.919 515.704,-266.522 535.71,-278.435"/>
<polygon fill="midnightblue" stroke="midnightblue" points="435.372,-221.607 424.791,-221.058 432.721,-228.085 435.372,-221.607"/>
</g>
<!-- Node78&#45;&gt;Node77 -->
<g id="edge12" class="edge"><title>Node78&#45;&gt;Node77</title>
<path fill="none" stroke="midnightblue" d="M437.795,-48C508.596,-48 629.903,-48 685.115,-48"/>
<polygon fill="midnightblue" stroke="midnightblue" points="437.73,-44.5001 427.73,-48 437.73,-51.5001 437.73,-44.5001"/>
</g>
<!-- Node79 -->
<g id="node11" class="node"><title>Node79</title>
<g id="a_node11"><a xlink:href="class_altair.html#ae04f2a5771d47bbe2e0cc3a11b72d6bf" target="_top" xlink:title="Parcourt le répertoire en cours du mode distributif, un à chaque appel Exporte l&#39;identification dans ...">
<polygon fill="white" stroke="black" points="484,-0.5 484,-19.5 621,-19.5 621,-0.5 484,-0.5"/>
<text text-anchor="middle" x="552.5" y="-7.5" font-family="Helvetica,sans-Serif" font-size="10.00">Altair::runWorkerDistributed</text>
</a>
</g>
</g>
<!-- Node78&#45;&gt;Node79 -->
<g id="edge13" class="edge"><title>Node78&#45;&gt;Node79</title>
<path fill="none" stroke="midnightblue" d="M435.776,-36.1757C459.461,-30.8184 487.09,-24.5689 509.411,-19.5201"/>
<polygon fill="midnightblue" stroke="midnightblue" points="434.875,-32.791 425.893,-38.411 436.419,-39.6185 434.875,-32.791"/>
</g>
<!-- Node79&#45;&gt;Node77 -->
<g id="edge15" class="edge"><title>Node79&#45;&gt;Node77</title>
<path fill="none" stroke="midnightblue" d="M603.97,-21.9494C630.719,-28.2823 662.61,-35.833 685.155,-41.1707"/>
<polygon fill="midnightblue" stroke="midnightblue" points="604.538,-18.4871 594.001,-19.589 602.926,-25.2988 604.538,-18.4871"/>
</g>
<!-- Node80 -->
<g id="node12" class="node"><title>Node80</title>
<g id="a_node12"><a xlink:href="class_altair.html#a16b8035c4383a789cd00b687fb105fe9" target="_top" xlink:title="Traitement de la fin de l&#39;exécution de lhx. ">
<polygon fill="white" stroke="black" points="657,-0.5 657,-19.5 773,-19.5 773,-0.5 657,-0.5"/>
<text text-anchor="middle" x="715" y="-7.5" font-family="Helvetica,sans-Serif" font-size="10.00">Altair::processFinished</text>
</a>
</g>
</g>
<!-- Node79&#45;&gt;Node80 -->
<g id="edge14" class="edge"><title>Node79&#45;&gt;Node80</title>
<path fill="none" stroke="midnightblue" d="M631.215,-10C639.867,-10 648.558,-10 656.885,-10"/>
<polygon fill="midnightblue" stroke="midnightblue" points="631.101,-6.5001 621.101,-10 631.101,-13.5001 631.101,-6.5001"/>
</g>
</g>
</svg>
        <g id="navigator" transform="translate(0 0)" fill="#404254">
                <rect fill="#f2f5e9" fill-opacity="0.5" stroke="#606060" stroke-width=".5" x="0" y="0" width="60" height="60"/>
                <use id="zoomplus" xlink:href="#zoomPlus" x="17" y="9" onmousedown="handleZoom(evt,'in')"/>
                <use id="zoomminus" xlink:href="#zoomMin" x="42" y="9" onmousedown="handleZoom(evt,'out')"/>
                <use id="reset" xlink:href="#resetDef" x="30" y="36" onmousedown="handleReset()"/>
                <g id="arrowUp" xlink:href="#dirArrow" transform="translate(30 24)" onmousedown="handlePan(0,-1)">
                  <use xlink:href="#rim" fill="#404040">
                        <set attributeName="fill" to="#808080" begin="arrowUp.mouseover" end="arrowUp.mouseout"/>
                  </use>
                  <path fill="none" stroke="white" stroke-width="1.5" d="M0,-3.0v7 M-2.5,-0.5L0,-3.0L2.5,-0.5"/>
                </g>
                <g id="arrowRight" xlink:href="#dirArrow" transform="rotate(90) translate(36 -43)" onmousedown="handlePan(1,0)">
                  <use xlink:href="#rim" fill="#404040">
                        <set attributeName="fill" to="#808080" begin="arrowRight.mouseover" end="arrowRight.mouseout"/>
                  </use>
                  <path fill="none" stroke="white" stroke-width="1.5" d="M0,-3.0v7 M-2.5,-0.5L0,-3.0L2.5,-0.5"/>
                </g>
                <g id="arrowDown" xlink:href="#dirArrow" transform="rotate(180) translate(-30 -48)" onmousedown="handlePan(0,1)">
                  <use xlink:href="#rim" fill="#404040">
                        <set attributeName="fill" to="#808080" begin="arrowDown.mouseover" end="arrowDown.mouseout"/>
                  </use>
                  <path fill="none" stroke="white" stroke-width="1.5" d="M0,-3.0v7 M-2.5,-0.5L0,-3.0L2.5,-0.5"/>
                </g>
                <g id="arrowLeft" xlink:href="#dirArrow" transform="rotate(270) translate(-36 17)" onmousedown="handlePan(-1,0)">
                  <use xlink:href="#rim" fill="#404040">
                        <set attributeName="fill" to="#808080" begin="arrowLeft.mouseover" end="arrowLeft.mouseout"/>
                  </use>
                  <path fill="none" stroke="white" stroke-width="1.5" d="M0,-3.0v7 M-2.5,-0.5L0,-3.0L2.5,-0.5"/>
                </g>
        </g>
        <svg viewBox="0 0 15 15" width="100%" height="30px" preserveAspectRatio="xMaxYMin meet">
         <g id="arrow_out" transform="scale(0.3 0.3)">
          <a xlink:href="class_main_window_ab58113ae4ed9a73ec3e3e5f83c98dfcc_icgraph_org.svg" target="_base">
           <rect id="button" ry="5" rx="5" y="6" x="6" height="38" width="38"
                fill="#f2f5e9" fill-opacity="0.5" stroke="#606060" stroke-width="1.0"/>
           <path id="arrow"
             d="M 11.500037,31.436501 C 11.940474,20.09759 22.043105,11.32322 32.158766,21.979434 L 37.068811,17.246167 C 37.068811,17.246167 37.088388,32 37.088388,32 L 22.160133,31.978069 C 22.160133,31.978069 26.997745,27.140456 26.997745,27.140456 C 18.528582,18.264221 13.291696,25.230495 11.500037,31.436501 z"
             style="fill:#404040;"/>
          </a>
         </g>
        </svg>
</svg>
