<?xml version="1.0" encoding="UTF-8" standalone="no"?>
<!DOCTYPE svg PUBLIC "-//W3C//DTD SVG 1.1//EN"
 "http://www.w3.org/Graphics/SVG/1.1/DTD/svg11.dtd">
<!-- Generated by graphviz version 2.38.0 (20140413.2041)
 -->
<!-- Title: codePage::ajouterVariable Pages: 1 -->
<svg width="411pt" height="66pt"
 viewBox="0.00 0.00 411.00 66.00" xmlns="http://www.w3.org/2000/svg" xmlns:xlink="http://www.w3.org/1999/xlink">
<g id="graph0" class="graph" transform="scale(1 1) rotate(0) translate(4 62)">
<title>codePage::ajouterVariable</title>
<polygon fill="white" stroke="none" points="-4,4 -4,-62 407,-62 407,4 -4,4"/>
<!-- Node14 -->
<g id="node1" class="node"><title>Node14</title>
<polygon fill="#bfbfbf" stroke="black" points="0,-19.5 0,-38.5 131,-38.5 131,-19.5 0,-19.5"/>
<text text-anchor="middle" x="65.5" y="-26.5" font-family="Helvetica,sans-Serif" font-size="10.00">codePage::ajouterVariable</text>
</g>
<!-- Node15 -->
<g id="node2" class="node"><title>Node15</title>
<g id="a_node2"><a xlink:href="classcode_page.html#a927a6bef8cac0406a49225bc72894a1f" target="_top" xlink:title="Constructeur de l&#39;onglet &quot;Code de paye des tests&quot;. ">
<polygon fill="white" stroke="black" points="169,-38.5 169,-57.5 279,-57.5 279,-38.5 169,-38.5"/>
<text text-anchor="middle" x="224" y="-45.5" font-family="Helvetica,sans-Serif" font-size="10.00">codePage::codePage</text>
</a>
</g>
</g>
<!-- Node14&#45;&gt;Node15 -->
<g id="edge1" class="edge"><title>Node14&#45;&gt;Node15</title>
<path fill="none" stroke="midnightblue" d="M141.065,-38.0526C150.334,-39.178 159.673,-40.3118 168.559,-41.3906"/>
<polygon fill="midnightblue" stroke="midnightblue" points="141.407,-34.5685 131.058,-36.8377 140.563,-41.5175 141.407,-34.5685"/>
</g>
<!-- Node17 -->
<g id="node4" class="node"><title>Node17</title>
<g id="a_node4"><a xlink:href="classcode_page.html#a3b8692dcc8d9bd11272f65d00f8f10ab" target="_top" xlink:title="Active les contrôles réglementaires sur la fonction publique hospitalière (FPH) même s&#39;ils n&#39;ont pas ...">
<polygon fill="white" stroke="black" points="167,-0.5 167,-19.5 281,-19.5 281,-0.5 167,-0.5"/>
<text text-anchor="middle" x="224" y="-7.5" font-family="Helvetica,sans-Serif" font-size="10.00">codePage::activer_fph</text>
</a>
</g>
</g>
<!-- Node14&#45;&gt;Node17 -->
<g id="edge3" class="edge"><title>Node14&#45;&gt;Node17</title>
<path fill="none" stroke="midnightblue" d="M141.081,-19.9455C149.663,-18.9036 158.304,-17.8545 166.59,-16.8485"/>
<polygon fill="midnightblue" stroke="midnightblue" points="140.563,-16.4825 131.058,-21.1623 141.407,-23.4315 140.563,-16.4825"/>
</g>
<!-- Node16 -->
<g id="node3" class="node"><title>Node16</title>
<g id="a_node3"><a xlink:href="classoptions.html#a52a9fb1d5bdb6ed104e700390b8c0208" target="_top" xlink:title="Constructeur de l&#39;onglet correspondant à un pointeur parent vers une instance de la classe Altair...">
<polygon fill="white" stroke="black" points="317,-19.5 317,-38.5 403,-38.5 403,-19.5 317,-19.5"/>
<text text-anchor="middle" x="360" y="-26.5" font-family="Helvetica,sans-Serif" font-size="10.00">options::options</text>
</a>
</g>
</g>
<!-- Node15&#45;&gt;Node16 -->
<g id="edge2" class="edge"><title>Node15&#45;&gt;Node16</title>
<path fill="none" stroke="midnightblue" d="M289.17,-38.9013C298.492,-37.5795 307.888,-36.2472 316.633,-35.0072"/>
<polygon fill="midnightblue" stroke="midnightblue" points="288.526,-35.4574 279.117,-40.3267 289.509,-42.3881 288.526,-35.4574"/>
</g>
<!-- Node17&#45;&gt;Node16 -->
<g id="edge4" class="edge"><title>Node17&#45;&gt;Node16</title>
<path fill="none" stroke="midnightblue" d="M291.174,-19.3829C299.834,-20.6108 308.512,-21.8413 316.63,-22.9924"/>
<polygon fill="midnightblue" stroke="midnightblue" points="291.444,-15.8862 281.052,-17.9476 290.461,-22.8169 291.444,-15.8862"/>
</g>
</g>
</svg>
