<?xml version="1.0" encoding="UTF-8" standalone="no"?>
<!DOCTYPE svg PUBLIC "-//W3C//DTD SVG 1.1//EN"
 "http://www.w3.org/Graphics/SVG/1.1/DTD/svg11.dtd">
<!-- Generated by graphviz version 2.38.0 (20140413.2041)
 -->
<!-- Title: FLineFrame Pages: 1 -->
<svg width="220pt" height="788pt"
 viewBox="0.00 0.00 219.50 788.00" xmlns="http://www.w3.org/2000/svg" xmlns:xlink="http://www.w3.org/1999/xlink">
<g id="graph0" class="graph" transform="scale(1 1) rotate(0) translate(4 784)">
<title>FLineFrame</title>
<polygon fill="white" stroke="none" points="-4,4 -4,-784 215.5,-784 215.5,4 -4,4"/>
<!-- Node0 -->
<g id="node1" class="node"><title>Node0</title>
<polygon fill="#bfbfbf" stroke="black" points="31,-0.5 31,-178.5 142,-178.5 142,-0.5 31,-0.5"/>
<text text-anchor="middle" x="86.5" y="-166.5" font-family="Helvetica,sans-Serif" font-size="10.00">FLineFrame</text>
<polyline fill="none" stroke="black" points="31,-159.5 142,-159.5 "/>
<text text-anchor="start" x="39" y="-147.5" font-family="Helvetica,sans-Serif" font-size="10.00">&#45; componentList</text>
<text text-anchor="start" x="39" y="-136.5" font-family="Helvetica,sans-Serif" font-size="10.00">&#45; frameLayout</text>
<text text-anchor="start" x="39" y="-125.5" font-family="Helvetica,sans-Serif" font-size="10.00">&#45; label</text>
<text text-anchor="start" x="39" y="-114.5" font-family="Helvetica,sans-Serif" font-size="10.00">&#45; lineEdit</text>
<text text-anchor="start" x="39" y="-103.5" font-family="Helvetica,sans-Serif" font-size="10.00">&#45; oButton</text>
<text text-anchor="start" x="39" y="-92.5" font-family="Helvetica,sans-Serif" font-size="10.00">&#45; pathCategory</text>
<text text-anchor="start" x="39" y="-81.5" font-family="Helvetica,sans-Serif" font-size="10.00">&#45; sButton</text>
<polyline fill="none" stroke="black" points="31,-74.5 142,-74.5 "/>
<text text-anchor="start" x="39" y="-62.5" font-family="Helvetica,sans-Serif" font-size="10.00">+ FLineFrame()</text>
<text text-anchor="start" x="39" y="-51.5" font-family="Helvetica,sans-Serif" font-size="10.00">+ getComponentList()</text>
<text text-anchor="start" x="39" y="-40.5" font-family="Helvetica,sans-Serif" font-size="10.00">+ getLayout()</text>
<text text-anchor="start" x="39" y="-29.5" font-family="Helvetica,sans-Serif" font-size="10.00">+ getText()</text>
<text text-anchor="start" x="39" y="-18.5" font-family="Helvetica,sans-Serif" font-size="10.00">+ setPathCategory()</text>
<text text-anchor="start" x="39" y="-7.5" font-family="Helvetica,sans-Serif" font-size="10.00">+ setText()</text>
</g>
<!-- Node1 -->
<g id="node2" class="node"><title>Node1</title>
<g id="a_node2"><a xlink:href="class_f_line_edit.html" target="_top" xlink:title="{FLineEdit\n||+ FLineEdit()\l+ FLineEdit()\l+ FLineEdit()\l+ FLineEdit()\l+ FLineEdit()\l+ FLineEdit()\l+ isAbstractEnabled()\l+ setWidgetFromXml()\l+ setXmlFromWidget()\l}">
<polygon fill="white" stroke="black" points="28.5,-215.5 28.5,-360.5 144.5,-360.5 144.5,-215.5 28.5,-215.5"/>
<text text-anchor="middle" x="86.5" y="-348.5" font-family="Helvetica,sans-Serif" font-size="10.00">FLineEdit</text>
<polyline fill="none" stroke="black" points="28.5,-341.5 144.5,-341.5 "/>
<text text-anchor="middle" x="86.5" y="-329.5" font-family="Helvetica,sans-Serif" font-size="10.00"> </text>
<polyline fill="none" stroke="black" points="28.5,-322.5 144.5,-322.5 "/>
<text text-anchor="start" x="36.5" y="-310.5" font-family="Helvetica,sans-Serif" font-size="10.00">+ FLineEdit()</text>
<text text-anchor="start" x="36.5" y="-299.5" font-family="Helvetica,sans-Serif" font-size="10.00">+ FLineEdit()</text>
<text text-anchor="start" x="36.5" y="-288.5" font-family="Helvetica,sans-Serif" font-size="10.00">+ FLineEdit()</text>
<text text-anchor="start" x="36.5" y="-277.5" font-family="Helvetica,sans-Serif" font-size="10.00">+ FLineEdit()</text>
<text text-anchor="start" x="36.5" y="-266.5" font-family="Helvetica,sans-Serif" font-size="10.00">+ FLineEdit()</text>
<text text-anchor="start" x="36.5" y="-255.5" font-family="Helvetica,sans-Serif" font-size="10.00">+ FLineEdit()</text>
<text text-anchor="start" x="36.5" y="-244.5" font-family="Helvetica,sans-Serif" font-size="10.00">+ isAbstractEnabled()</text>
<text text-anchor="start" x="36.5" y="-233.5" font-family="Helvetica,sans-Serif" font-size="10.00">+ setWidgetFromXml()</text>
<text text-anchor="start" x="36.5" y="-222.5" font-family="Helvetica,sans-Serif" font-size="10.00">+ setXmlFromWidget()</text>
</a>
</g>
</g>
<!-- Node1&#45;&gt;Node0 -->
<g id="edge1" class="edge"><title>Node1&#45;&gt;Node0</title>
<path fill="none" stroke="midnightblue" d="M86.5,-205.12C86.5,-196.429 86.5,-187.561 86.5,-178.801"/>
<polygon fill="none" stroke="midnightblue" points="83.0001,-205.225 86.5,-215.225 90.0001,-205.225 83.0001,-205.225"/>
</g>
<!-- Node2 -->
<g id="node3" class="node"><title>Node2</title>
<polygon fill="white" stroke="#bfbfbf" points="0,-513 0,-570 59,-570 59,-513 0,-513"/>
<text text-anchor="middle" x="29.5" y="-558" font-family="Helvetica,sans-Serif" font-size="10.00">QLineEdit</text>
<polyline fill="none" stroke="#bfbfbf" points="0,-551 59,-551 "/>
<text text-anchor="middle" x="29.5" y="-539" font-family="Helvetica,sans-Serif" font-size="10.00"> </text>
<polyline fill="none" stroke="#bfbfbf" points="0,-532 59,-532 "/>
<text text-anchor="middle" x="29.5" y="-520" font-family="Helvetica,sans-Serif" font-size="10.00"> </text>
</g>
<!-- Node2&#45;&gt;Node1 -->
<g id="edge2" class="edge"><title>Node2&#45;&gt;Node1</title>
<path fill="none" stroke="midnightblue" d="M38.0813,-502.637C46.5719,-465.174 59.78,-406.896 70.2576,-360.666"/>
<polygon fill="none" stroke="midnightblue" points="34.6148,-502.098 35.8178,-512.624 41.4416,-503.645 34.6148,-502.098"/>
</g>
<!-- Node3 -->
<g id="node4" class="node"><title>Node3</title>
<g id="a_node4"><a xlink:href="class_f_abstract_widget.html" target="_top" xlink:title="{FAbstractWidget\n|+ commandLineList\l+ commandLineType\l+ disabledObjects\l+ enabledObjects\l+ optionLabel\l+ status\l# componentList\l# description\l# hashKey\l# widgetDepth\l|+ commandLineStringList()\l+ getComponentList()\l+ getDepth()\l+ getDescription()\l+ getHashKey()\l+ isAbstractDisabled()\l+ isAbstractEnabled()\l+ setDisableObjects()\l+ setHashKey()\l+ setWidgetFromXml()\l+ setXmlFromWidget()\l# FCore()\l# FCore()\l}">
<polygon fill="white" stroke="black" points="77.5,-397.5 77.5,-685.5 211.5,-685.5 211.5,-397.5 77.5,-397.5"/>
<text text-anchor="middle" x="144.5" y="-673.5" font-family="Helvetica,sans-Serif" font-size="10.00">FAbstractWidget</text>
<polyline fill="none" stroke="black" points="77.5,-666.5 211.5,-666.5 "/>
<text text-anchor="start" x="85.5" y="-654.5" font-family="Helvetica,sans-Serif" font-size="10.00">+ commandLineList</text>
<text text-anchor="start" x="85.5" y="-643.5" font-family="Helvetica,sans-Serif" font-size="10.00">+ commandLineType</text>
<text text-anchor="start" x="85.5" y="-632.5" font-family="Helvetica,sans-Serif" font-size="10.00">+ disabledObjects</text>
<text text-anchor="start" x="85.5" y="-621.5" font-family="Helvetica,sans-Serif" font-size="10.00">+ enabledObjects</text>
<text text-anchor="start" x="85.5" y="-610.5" font-family="Helvetica,sans-Serif" font-size="10.00">+ optionLabel</text>
<text text-anchor="start" x="85.5" y="-599.5" font-family="Helvetica,sans-Serif" font-size="10.00">+ status</text>
<text text-anchor="start" x="85.5" y="-588.5" font-family="Helvetica,sans-Serif" font-size="10.00"># componentList</text>
<text text-anchor="start" x="85.5" y="-577.5" font-family="Helvetica,sans-Serif" font-size="10.00"># description</text>
<text text-anchor="start" x="85.5" y="-566.5" font-family="Helvetica,sans-Serif" font-size="10.00"># hashKey</text>
<text text-anchor="start" x="85.5" y="-555.5" font-family="Helvetica,sans-Serif" font-size="10.00"># widgetDepth</text>
<polyline fill="none" stroke="black" points="77.5,-548.5 211.5,-548.5 "/>
<text text-anchor="start" x="85.5" y="-536.5" font-family="Helvetica,sans-Serif" font-size="10.00">+ commandLineStringList()</text>
<text text-anchor="start" x="85.5" y="-525.5" font-family="Helvetica,sans-Serif" font-size="10.00">+ getComponentList()</text>
<text text-anchor="start" x="85.5" y="-514.5" font-family="Helvetica,sans-Serif" font-size="10.00">+ getDepth()</text>
<text text-anchor="start" x="85.5" y="-503.5" font-family="Helvetica,sans-Serif" font-size="10.00">+ getDescription()</text>
<text text-anchor="start" x="85.5" y="-492.5" font-family="Helvetica,sans-Serif" font-size="10.00">+ getHashKey()</text>
<text text-anchor="start" x="85.5" y="-481.5" font-family="Helvetica,sans-Serif" font-size="10.00">+ isAbstractDisabled()</text>
<text text-anchor="start" x="85.5" y="-470.5" font-family="Helvetica,sans-Serif" font-size="10.00">+ isAbstractEnabled()</text>
<text text-anchor="start" x="85.5" y="-459.5" font-family="Helvetica,sans-Serif" font-size="10.00">+ setDisableObjects()</text>
<text text-anchor="start" x="85.5" y="-448.5" font-family="Helvetica,sans-Serif" font-size="10.00">+ setHashKey()</text>
<text text-anchor="start" x="85.5" y="-437.5" font-family="Helvetica,sans-Serif" font-size="10.00">+ setWidgetFromXml()</text>
<text text-anchor="start" x="85.5" y="-426.5" font-family="Helvetica,sans-Serif" font-size="10.00">+ setXmlFromWidget()</text>
<text text-anchor="start" x="85.5" y="-415.5" font-family="Helvetica,sans-Serif" font-size="10.00"># FCore()</text>
<text text-anchor="start" x="85.5" y="-404.5" font-family="Helvetica,sans-Serif" font-size="10.00"># FCore()</text>
</a>
</g>
</g>
<!-- Node3&#45;&gt;Node1 -->
<g id="edge3" class="edge"><title>Node3&#45;&gt;Node1</title>
<path fill="none" stroke="midnightblue" d="M109.263,-387.704C107.113,-378.383 105.012,-369.271 103.008,-360.584"/>
<polygon fill="none" stroke="midnightblue" points="105.86,-388.526 111.518,-397.483 112.681,-386.953 105.86,-388.526"/>
</g>
<!-- Node4 -->
<g id="node5" class="node"><title>Node4</title>
<g id="a_node5"><a xlink:href="classflags.html" target="_top" xlink:title="{flags\n||}">
<polygon fill="white" stroke="black" points="125.5,-722.5 125.5,-779.5 163.5,-779.5 163.5,-722.5 125.5,-722.5"/>
<text text-anchor="middle" x="144.5" y="-767.5" font-family="Helvetica,sans-Serif" font-size="10.00">flags</text>
<polyline fill="none" stroke="black" points="125.5,-760.5 163.5,-760.5 "/>
<text text-anchor="middle" x="144.5" y="-748.5" font-family="Helvetica,sans-Serif" font-size="10.00"> </text>
<polyline fill="none" stroke="black" points="125.5,-741.5 163.5,-741.5 "/>
<text text-anchor="middle" x="144.5" y="-729.5" font-family="Helvetica,sans-Serif" font-size="10.00"> </text>
</a>
</g>
</g>
<!-- Node4&#45;&gt;Node3 -->
<g id="edge4" class="edge"><title>Node4&#45;&gt;Node3</title>
<path fill="none" stroke="midnightblue" d="M144.5,-712.377C144.5,-704.29 144.5,-695.284 144.5,-685.756"/>
<polygon fill="none" stroke="midnightblue" points="141,-712.446 144.5,-722.446 148,-712.446 141,-712.446"/>
</g>
</g>
</svg>
