<?xml version="1.0" encoding="UTF-8" standalone="no"?>
<!DOCTYPE svg PUBLIC "-//W3C//DTD SVG 1.1//EN"
 "http://www.w3.org/Graphics/SVG/1.1/DTD/svg11.dtd">
<!-- Generated by graphviz version 2.38.0 (20140413.2041)
 -->
<!-- Title: tools::zipDir Pages: 1 -->
<svg width="532pt" height="47pt"
 viewBox="0.00 0.00 532.00 47.00" xmlns="http://www.w3.org/2000/svg" xmlns:xlink="http://www.w3.org/1999/xlink">
<g id="graph0" class="graph" transform="scale(1 1) rotate(0) translate(4 43)">
<title>tools::zipDir</title>
<polygon fill="white" stroke="none" points="-4,4 -4,-43 528,-43 528,4 -4,4"/>
<!-- Node294 -->
<g id="node1" class="node"><title>Node294</title>
<polygon fill="#bfbfbf" stroke="black" points="0,-0.5 0,-19.5 71,-19.5 71,-0.5 0,-0.5"/>
<text text-anchor="middle" x="35.5" y="-7.5" font-family="Helvetica,sans-Serif" font-size="10.00">tools::zipDir</text>
</g>
<!-- Node295 -->
<g id="node2" class="node"><title>Node295</title>
<g id="a_node2"><a xlink:href="classtools.html#aae1cdbea84aed049937a52ceb9421794" target="_top" xlink:title="Compresser un fichier au format zip. ">
<polygon fill="white" stroke="black" points="107,-0.5 107,-19.5 164,-19.5 164,-0.5 107,-0.5"/>
<text text-anchor="middle" x="135.5" y="-7.5" font-family="Helvetica,sans-Serif" font-size="10.00">tools::zip</text>
</a>
</g>
</g>
<!-- Node294&#45;&gt;Node295 -->
<g id="edge1" class="edge"><title>Node294&#45;&gt;Node295</title>
<path fill="none" stroke="midnightblue" d="M71.0511,-10C79.2655,-10 88.0749,-10 96.4365,-10"/>
<polygon fill="midnightblue" stroke="midnightblue" points="96.71,-13.5001 106.71,-10 96.7099,-6.5001 96.71,-13.5001"/>
</g>
<!-- Node296 -->
<g id="node3" class="node"><title>Node296</title>
<g id="a_node3"><a xlink:href="classtools.html#ae1018e45c513785270b999cbcfa8beb6" target="_top" xlink:title="Procédure de contrôle des entrées&#45;sorties. ">
<polygon fill="white" stroke="black" points="200,-0.5 200,-19.5 289,-19.5 289,-0.5 200,-0.5"/>
<text text-anchor="middle" x="244.5" y="-7.5" font-family="Helvetica,sans-Serif" font-size="10.00">tools::IOControl</text>
</a>
</g>
</g>
<!-- Node295&#45;&gt;Node296 -->
<g id="edge2" class="edge"><title>Node295&#45;&gt;Node296</title>
<path fill="none" stroke="midnightblue" d="M164.055,-10C171.973,-10 180.892,-10 189.817,-10"/>
<polygon fill="midnightblue" stroke="midnightblue" points="189.844,-13.5001 199.844,-10 189.844,-6.5001 189.844,-13.5001"/>
</g>
<!-- Node297 -->
<g id="node4" class="node"><title>Node297</title>
<g id="a_node4"><a xlink:href="classtools.html#a37c9c486d90129b0d6a4ac93f29fd5bb" target="_top" xlink:title="Copie un répertoire de manière sécurisée. ">
<polygon fill="white" stroke="black" points="325,-19.5 325,-38.5 405,-38.5 405,-19.5 325,-19.5"/>
<text text-anchor="middle" x="365" y="-26.5" font-family="Helvetica,sans-Serif" font-size="10.00">tools::copyDir</text>
</a>
</g>
</g>
<!-- Node296&#45;&gt;Node297 -->
<g id="edge3" class="edge"><title>Node296&#45;&gt;Node297</title>
<path fill="none" stroke="midnightblue" d="M289.288,-17.0209C297.538,-18.3436 306.217,-19.7353 314.624,-21.0832"/>
<polygon fill="midnightblue" stroke="midnightblue" points="314.268,-24.5706 324.696,-22.698 315.376,-17.6589 314.268,-24.5706"/>
</g>
<!-- Node298 -->
<g id="node5" class="node"><title>Node298</title>
<g id="a_node5"><a xlink:href="classtools.html#a0765c68c41d7c957f1fb0f0da8b4a9c9" target="_top" xlink:title="Copie un fichier de manière sécurisée. ">
<polygon fill="white" stroke="black" points="441,-0.5 441,-19.5 524,-19.5 524,-0.5 441,-0.5"/>
<text text-anchor="middle" x="482.5" y="-7.5" font-family="Helvetica,sans-Serif" font-size="10.00">tools::copyFile</text>
</a>
</g>
</g>
<!-- Node297&#45;&gt;Node298 -->
<g id="edge4" class="edge"><title>Node297&#45;&gt;Node298</title>
<path fill="none" stroke="midnightblue" d="M405.103,-22.5675C413.382,-21.2056 422.233,-19.7495 430.869,-18.3289"/>
<polygon fill="midnightblue" stroke="midnightblue" points="431.561,-21.7622 440.86,-16.6853 430.425,-14.855 431.561,-21.7622"/>
</g>
<!-- Node298&#45;&gt;Node296 -->
<g id="edge5" class="edge"><title>Node298&#45;&gt;Node296</title>
<path fill="none" stroke="midnightblue" d="M440.952,-10C401.766,-10 342.167,-10 299.085,-10"/>
<polygon fill="midnightblue" stroke="midnightblue" points="299.061,-6.5001 289.061,-10 299.061,-13.5001 299.061,-6.5001"/>
</g>
</g>
</svg>
