<?xml version="1.0" encoding="UTF-8" standalone="no"?>
<!DOCTYPE svg PUBLIC "-//W3C//DTD SVG 1.1//EN"
 "http://www.w3.org/Graphics/SVG/1.1/DTD/svg11.dtd">
<!-- Generated by graphviz version 2.38.0 (20140413.2041)
 -->
<!-- Title: FListFrame::imported Pages: 1 -->
<!--zoomable 117 -->
<svg id="main" version="1.1" xmlns="http://www.w3.org/2000/svg" xmlns:xlink="http://www.w3.org/1999/xlink" xml:space="preserve" onload="init(evt)">
<style type="text/css"><![CDATA[
.edge:hover path { stroke: red; }
.edge:hover polygon { stroke: red; fill: red; }
]]></style>
<script type="text/javascript"><![CDATA[
var edges = document.getElementsByTagName('g');
if (edges && edges.length) {
  for (var i=0;i<edges.length;i++) {
    if (edges[i].id.substr(0,4)=='edge') {
      edges[i].setAttribute('class','edge');
    }
  }
}
]]></script>
        <defs>
                <circle id="rim" cx="0" cy="0" r="7"/>
                <circle id="rim2" cx="0" cy="0" r="3.5"/>
                <g id="zoomPlus">
                        <use xlink:href="#rim" fill="#404040">
                                <set attributeName="fill" to="#808080" begin="zoomplus.mouseover" end="zoomplus.mouseout"/>
                        </use>
                        <path d="M-4,0h8M0,-4v8" fill="none" stroke="white" stroke-width="1.5" pointer-events="none"/>
                </g>
                <g id="zoomMin">
                        <use xlink:href="#rim" fill="#404040">
                                <set attributeName="fill" to="#808080" begin="zoomminus.mouseover" end="zoomminus.mouseout"/>
                        </use>
                        <path d="M-4,0h8" fill="none" stroke="white" stroke-width="1.5" pointer-events="none"/>
                </g>
                <g id="dirArrow">
                        <path fill="none" stroke="white" stroke-width="1.5" d="M0,-3.0v7 M-2.5,-0.5L0,-3.0L2.5,-0.5"/>
                </g>
               <g id="resetDef">
                       <use xlink:href="#rim2" fill="#404040">
                               <set attributeName="fill" to="#808080" begin="reset.mouseover" end="reset.mouseout"/>
                       </use>
               </g>
        </defs>

<script type="text/javascript">
var viewWidth = 950;
var viewHeight = 117;
var sectionId = 'dynsection-31';
</script>
<script xlink:href="svgpan.js"/>
<svg id="graph" class="graph">
<g id="viewport">
<title>FListFrame::imported</title>
<polygon fill="white" stroke="none" points="-4,4 -4,-112.5 946,-112.5 946,4 -4,4"/>
<!-- Node239 -->
<g id="node1" class="node"><title>Node239</title>
<polygon fill="#bfbfbf" stroke="black" points="0,-77 0,-96 110,-96 110,-77 0,-77"/>
<text text-anchor="middle" x="55" y="-84" font-family="Helvetica,sans-Serif" font-size="10.00">FListFrame::imported</text>
</g>
<!-- Node240 -->
<g id="node2" class="node"><title>Node240</title>
<g id="a_node2"><a xlink:href="class_f_list_frame.html#a865246df8a4d4000ac3c818abc6d7f71" target="_top" xlink:title="FListFrame::FListFrame">
<polygon fill="white" stroke="black" points="820,-55 820,-74 942,-74 942,-55 820,-55"/>
<text text-anchor="middle" x="881" y="-62" font-family="Helvetica,sans-Serif" font-size="10.00">FListFrame::FListFrame</text>
</a>
</g>
</g>
<!-- Node239&#45;&gt;Node240 -->
<g id="edge1" class="edge"><title>Node239&#45;&gt;Node240</title>
<path fill="none" stroke="midnightblue" d="M120.361,-93.6225C184.056,-100.049 284.38,-108.5 371.5,-108.5 371.5,-108.5 371.5,-108.5 543,-108.5 650.641,-108.5 677.605,-100.833 784,-84.5 802.174,-81.7101 822.099,-77.7146 839.064,-74.0273"/>
<polygon fill="midnightblue" stroke="midnightblue" points="120.377,-90.1059 110.073,-92.5698 119.665,-97.0696 120.377,-90.1059"/>
</g>
<!-- Node241 -->
<g id="node3" class="node"><title>Node241</title>
<g id="a_node3"><a xlink:href="class_f_list_frame.html#a802475894ee1e30753faed81d9f9dc4b" target="_top" xlink:title="Appelle parseXhlFile(const QString&amp;) sur l&#39;ensemble de widgetContainer. ">
<polygon fill="white" stroke="black" points="146,-55 146,-74 272,-74 272,-55 146,-55"/>
<text text-anchor="middle" x="209" y="-62" font-family="Helvetica,sans-Serif" font-size="10.00">FListFrame::parseXhlFile</text>
</a>
</g>
</g>
<!-- Node239&#45;&gt;Node241 -->
<g id="edge2" class="edge"><title>Node239&#45;&gt;Node241</title>
<path fill="none" stroke="midnightblue" d="M119.96,-77.2427C128.534,-76.0017 137.318,-74.7303 145.861,-73.4939"/>
<polygon fill="midnightblue" stroke="midnightblue" points="119.413,-73.7852 110.017,-78.6817 120.416,-80.7131 119.413,-73.7852"/>
</g>
<!-- Node242 -->
<g id="node4" class="node"><title>Node242</title>
<g id="a_node4"><a xlink:href="class_f_list_frame.html#a22a50157e8c6d287c2b2c08d2b7deee9" target="_top" xlink:title="Lancer un fil d&#39;exécution pour lire l&#39;entête d&#39;un fichier XHL (Année, Mois,...) et classer les fichie...">
<polygon fill="white" stroke="black" points="322,-49.5 322,-79.5 423,-79.5 423,-49.5 322,-49.5"/>
<text text-anchor="start" x="330" y="-67.5" font-family="Helvetica,sans-Serif" font-size="10.00">FListFrame::launch</text>
<text text-anchor="middle" x="372.5" y="-56.5" font-family="Helvetica,sans-Serif" font-size="10.00">_thread</text>
</a>
</g>
</g>
<!-- Node241&#45;&gt;Node242 -->
<g id="edge3" class="edge"><title>Node241&#45;&gt;Node242</title>
<path fill="none" stroke="midnightblue" d="M282.554,-57.781C295.889,-57.6798 309.525,-57.8263 321.988,-58.2206"/>
<polygon fill="midnightblue" stroke="midnightblue" points="282.396,-54.2826 272.44,-57.9067 282.483,-61.2821 282.396,-54.2826"/>
</g>
<!-- Node243 -->
<g id="node5" class="node"><title>Node243</title>
<g id="a_node5"><a xlink:href="class_f_list_frame.html#af8c91e66c02e4c6f1f0fb66097903b73" target="_top" xlink:title="FListFrame::addStringList\lToListWidget">
<polygon fill="white" stroke="black" points="308,-0.5 308,-30.5 437,-30.5 437,-0.5 308,-0.5"/>
<text text-anchor="start" x="316" y="-18.5" font-family="Helvetica,sans-Serif" font-size="10.00">FListFrame::addStringList</text>
<text text-anchor="middle" x="372.5" y="-7.5" font-family="Helvetica,sans-Serif" font-size="10.00">ToListWidget</text>
</a>
</g>
</g>
<!-- Node241&#45;&gt;Node243 -->
<g id="edge5" class="edge"><title>Node241&#45;&gt;Node243</title>
<path fill="none" stroke="midnightblue" d="M251.339,-51.9574C272.859,-45.4281 299.327,-37.3976 321.939,-30.537"/>
<polygon fill="midnightblue" stroke="midnightblue" points="250.075,-48.6833 241.522,-54.936 252.108,-55.3818 250.075,-48.6833"/>
</g>
<!-- Node242&#45;&gt;Node241 -->
<g id="edge4" class="edge"><title>Node242&#45;&gt;Node241</title>
<path fill="none" stroke="midnightblue" d="M311.872,-71.0404C299.018,-71.3009 285.397,-71.3186 272.44,-71.0933"/>
<polygon fill="midnightblue" stroke="midnightblue" points="312.081,-74.5363 321.988,-70.7794 311.901,-67.5386 312.081,-74.5363"/>
</g>
<!-- Node244 -->
<g id="node6" class="node"><title>Node244</title>
<g id="a_node6"><a xlink:href="class_f_list_frame.html#a4228ed10f2d800b92ff34e2f25edcd8c" target="_top" xlink:title="FListFrame::addParsedTree\lToListWidget">
<polygon fill="white" stroke="black" points="473,-6.5 473,-36.5 611,-36.5 611,-6.5 473,-6.5"/>
<text text-anchor="start" x="481" y="-24.5" font-family="Helvetica,sans-Serif" font-size="10.00">FListFrame::addParsedTree</text>
<text text-anchor="middle" x="542" y="-13.5" font-family="Helvetica,sans-Serif" font-size="10.00">ToListWidget</text>
</a>
</g>
</g>
<!-- Node243&#45;&gt;Node244 -->
<g id="edge6" class="edge"><title>Node243&#45;&gt;Node244</title>
<path fill="none" stroke="midnightblue" d="M447.518,-18.1514C455.966,-18.454 464.549,-18.7614 472.915,-19.0611"/>
<polygon fill="midnightblue" stroke="midnightblue" points="447.421,-14.6458 437.302,-17.7855 447.171,-21.6413 447.421,-14.6458"/>
</g>
<!-- Node245 -->
<g id="node7" class="node"><title>Node245</title>
<g id="a_node7"><a xlink:href="class_altair.html#a1afa285a65e0bdff4c761ad05ec9f8df" target="_top" xlink:title="Fonction réimplémentée : fin du déplacement de la souris. ">
<polygon fill="white" stroke="black" points="671,-56 671,-75 760,-75 760,-56 671,-56"/>
<text text-anchor="middle" x="715.5" y="-63" font-family="Helvetica,sans-Serif" font-size="10.00">Altair::dropEvent</text>
</a>
</g>
</g>
<!-- Node244&#45;&gt;Node245 -->
<g id="edge7" class="edge"><title>Node244&#45;&gt;Node245</title>
<path fill="none" stroke="midnightblue" d="M611.412,-39.0518C633.942,-44.832 658.138,-51.0398 677.423,-55.9876"/>
<polygon fill="midnightblue" stroke="midnightblue" points="612.097,-35.6142 601.541,-36.5192 610.357,-42.3946 612.097,-35.6142"/>
</g>
<!-- Node246 -->
<g id="node8" class="node"><title>Node246</title>
<g id="a_node8"><a xlink:href="class_f_list_frame.html#ac14c494842340a0438766256c01f83bc" target="_top" xlink:title="FListFrame::on_importFrom\lMainTree_clicked">
<polygon fill="white" stroke="black" points="647,-6.5 647,-36.5 784,-36.5 784,-6.5 647,-6.5"/>
<text text-anchor="start" x="655" y="-24.5" font-family="Helvetica,sans-Serif" font-size="10.00">FListFrame::on_importFrom</text>
<text text-anchor="middle" x="715.5" y="-13.5" font-family="Helvetica,sans-Serif" font-size="10.00">MainTree_clicked</text>
</a>
</g>
</g>
<!-- Node244&#45;&gt;Node246 -->
<g id="edge8" class="edge"><title>Node244&#45;&gt;Node246</title>
<path fill="none" stroke="midnightblue" d="M621.491,-21.5C629.923,-21.5 638.449,-21.5 646.741,-21.5"/>
<polygon fill="midnightblue" stroke="midnightblue" points="621.274,-18.0001 611.274,-21.5 621.274,-25.0001 621.274,-18.0001"/>
</g>
<!-- Node246&#45;&gt;Node240 -->
<g id="edge9" class="edge"><title>Node246&#45;&gt;Node240</title>
<path fill="none" stroke="midnightblue" d="M783.624,-39.1533C804.126,-44.5453 825.896,-50.2709 843.549,-54.9135"/>
<polygon fill="midnightblue" stroke="midnightblue" points="784.246,-35.698 773.684,-36.5393 782.465,-42.4678 784.246,-35.698"/>
</g>
</g>
</svg>
        <g id="navigator" transform="translate(0 0)" fill="#404254">
                <rect fill="#f2f5e9" fill-opacity="0.5" stroke="#606060" stroke-width=".5" x="0" y="0" width="60" height="60"/>
                <use id="zoomplus" xlink:href="#zoomPlus" x="17" y="9" onmousedown="handleZoom(evt,'in')"/>
                <use id="zoomminus" xlink:href="#zoomMin" x="42" y="9" onmousedown="handleZoom(evt,'out')"/>
                <use id="reset" xlink:href="#resetDef" x="30" y="36" onmousedown="handleReset()"/>
                <g id="arrowUp" xlink:href="#dirArrow" transform="translate(30 24)" onmousedown="handlePan(0,-1)">
                  <use xlink:href="#rim" fill="#404040">
                        <set attributeName="fill" to="#808080" begin="arrowUp.mouseover" end="arrowUp.mouseout"/>
                  </use>
                  <path fill="none" stroke="white" stroke-width="1.5" d="M0,-3.0v7 M-2.5,-0.5L0,-3.0L2.5,-0.5"/>
                </g>
                <g id="arrowRight" xlink:href="#dirArrow" transform="rotate(90) translate(36 -43)" onmousedown="handlePan(1,0)">
                  <use xlink:href="#rim" fill="#404040">
                        <set attributeName="fill" to="#808080" begin="arrowRight.mouseover" end="arrowRight.mouseout"/>
                  </use>
                  <path fill="none" stroke="white" stroke-width="1.5" d="M0,-3.0v7 M-2.5,-0.5L0,-3.0L2.5,-0.5"/>
                </g>
                <g id="arrowDown" xlink:href="#dirArrow" transform="rotate(180) translate(-30 -48)" onmousedown="handlePan(0,1)">
                  <use xlink:href="#rim" fill="#404040">
                        <set attributeName="fill" to="#808080" begin="arrowDown.mouseover" end="arrowDown.mouseout"/>
                  </use>
                  <path fill="none" stroke="white" stroke-width="1.5" d="M0,-3.0v7 M-2.5,-0.5L0,-3.0L2.5,-0.5"/>
                </g>
                <g id="arrowLeft" xlink:href="#dirArrow" transform="rotate(270) translate(-36 17)" onmousedown="handlePan(-1,0)">
                  <use xlink:href="#rim" fill="#404040">
                        <set attributeName="fill" to="#808080" begin="arrowLeft.mouseover" end="arrowLeft.mouseout"/>
                  </use>
                  <path fill="none" stroke="white" stroke-width="1.5" d="M0,-3.0v7 M-2.5,-0.5L0,-3.0L2.5,-0.5"/>
                </g>
        </g>
        <svg viewBox="0 0 15 15" width="100%" height="30px" preserveAspectRatio="xMaxYMin meet">
         <g id="arrow_out" transform="scale(0.3 0.3)">
          <a xlink:href="class_f_list_frame_a2d4e470e87cfd1ad489c7fcbc9a21e7c_icgraph_org.svg" target="_base">
           <rect id="button" ry="5" rx="5" y="6" x="6" height="38" width="38"
                fill="#f2f5e9" fill-opacity="0.5" stroke="#606060" stroke-width="1.0"/>
           <path id="arrow"
             d="M 11.500037,31.436501 C 11.940474,20.09759 22.043105,11.32322 32.158766,21.979434 L 37.068811,17.246167 C 37.068811,17.246167 37.088388,32 37.088388,32 L 22.160133,31.978069 C 22.160133,31.978069 26.997745,27.140456 26.997745,27.140456 C 18.528582,18.264221 13.291696,25.230495 11.500037,31.436501 z"
             style="fill:#404040;"/>
          </a>
         </g>
        </svg>
</svg>
