<?xml version="1.0" encoding="UTF-8" standalone="no"?>
<!DOCTYPE svg PUBLIC "-//W3C//DTD SVG 1.1//EN"
 "http://www.w3.org/Graphics/SVG/1.1/DTD/svg11.dtd">
<!-- Generated by graphviz version 2.38.0 (20140413.2041)
 -->
<!-- Title: FListFrame::showContextMenu Pages: 1 -->
<svg width="503pt" height="203pt"
 viewBox="0.00 0.00 503.00 202.50" xmlns="http://www.w3.org/2000/svg" xmlns:xlink="http://www.w3.org/1999/xlink">
<g id="graph0" class="graph" transform="scale(1 1) rotate(0) translate(4 198.5)">
<title>FListFrame::showContextMenu</title>
<polygon fill="white" stroke="none" points="-4,4 -4,-198.5 499,-198.5 499,4 -4,4"/>
<!-- Node1414 -->
<g id="node1" class="node"><title>Node1414</title>
<polygon fill="#bfbfbf" stroke="black" points="0,-99 0,-118 154,-118 154,-99 0,-99"/>
<text text-anchor="middle" x="77" y="-106" font-family="Helvetica,sans-Serif" font-size="10.00">FListFrame::showContextMenu</text>
</g>
<!-- Node1415 -->
<g id="node2" class="node"><title>Node1415</title>
<g id="a_node2"><a xlink:href="class_f_list_frame.html#a1fda46dc7cfe6a661d2e2d1c66638134" target="_top" xlink:title="FListFrame::deleteGroup">
<polygon fill="white" stroke="black" points="191,-175 191,-194 316,-194 316,-175 191,-175"/>
<text text-anchor="middle" x="253.5" y="-182" font-family="Helvetica,sans-Serif" font-size="10.00">FListFrame::deleteGroup</text>
</a>
</g>
</g>
<!-- Node1414&#45;&gt;Node1415 -->
<g id="edge1" class="edge"><title>Node1414&#45;&gt;Node1415</title>
<path fill="none" stroke="midnightblue" d="M97.6448,-118.116C119.867,-128.876 157.231,-146.62 190,-160.5 198.724,-164.195 208.23,-167.971 217.134,-171.401"/>
<polygon fill="midnightblue" stroke="midnightblue" points="215.904,-174.677 226.495,-174.966 218.396,-168.136 215.904,-174.677"/>
</g>
<!-- Node1416 -->
<g id="node3" class="node"><title>Node1416</title>
<g id="a_node3"><a xlink:href="class_f_list_frame.html#a356ad4309df1e931fb3ee12ad88054fb" target="_top" xlink:title="Actualise currentWidget, row et currentIndex. ">
<polygon fill="white" stroke="black" points="353,-156 353,-175 495,-175 495,-156 353,-156"/>
<text text-anchor="middle" x="424" y="-163" font-family="Helvetica,sans-Serif" font-size="10.00">FListFrame::updateIndexInfo</text>
</a>
</g>
</g>
<!-- Node1414&#45;&gt;Node1416 -->
<g id="edge7" class="edge"><title>Node1414&#45;&gt;Node1416</title>
<path fill="none" stroke="midnightblue" d="M133.818,-118.041C151.754,-121.088 171.712,-124.458 190,-127.5 245.181,-136.68 307.752,-146.873 354.148,-154.389"/>
<polygon fill="midnightblue" stroke="midnightblue" points="353.66,-157.856 364.091,-155.999 354.779,-150.946 353.66,-157.856"/>
</g>
<!-- Node1417 -->
<g id="node4" class="node"><title>Node1417</title>
<g id="a_node4"><a xlink:href="class_f_list_frame.html#a4bf0d0d8e56418df395b020d2e66db5f" target="_top" xlink:title="Récupère la taille courante (0&#45;based) du conteneur FListFrame::widgetContainer. ">
<polygon fill="white" stroke="black" points="199,-99 199,-118 308,-118 308,-99 199,-99"/>
<text text-anchor="middle" x="253.5" y="-106" font-family="Helvetica,sans-Serif" font-size="10.00">FListFrame::getRank</text>
</a>
</g>
</g>
<!-- Node1414&#45;&gt;Node1417 -->
<g id="edge3" class="edge"><title>Node1414&#45;&gt;Node1417</title>
<path fill="none" stroke="midnightblue" d="M154.031,-108.5C165.563,-108.5 177.361,-108.5 188.601,-108.5"/>
<polygon fill="midnightblue" stroke="midnightblue" points="188.743,-112 198.743,-108.5 188.743,-105 188.743,-112"/>
</g>
<!-- Node1418 -->
<g id="node5" class="node"><title>Node1418</title>
<g id="a_node5"><a xlink:href="class_f_list_frame.html#af0987edc2a94a5c2db18ab4ccec3f81c" target="_top" xlink:title="FListFrame::on_file\l_display">
<polygon fill="white" stroke="black" points="203,-49.5 203,-79.5 304,-79.5 304,-49.5 203,-49.5"/>
<text text-anchor="start" x="211" y="-67.5" font-family="Helvetica,sans-Serif" font-size="10.00">FListFrame::on_file</text>
<text text-anchor="middle" x="253.5" y="-56.5" font-family="Helvetica,sans-Serif" font-size="10.00">_display</text>
</a>
</g>
</g>
<!-- Node1414&#45;&gt;Node1418 -->
<g id="edge4" class="edge"><title>Node1414&#45;&gt;Node1418</title>
<path fill="none" stroke="midnightblue" d="M115.864,-98.9527C138.341,-93.2852 167.337,-85.9736 192.832,-79.5452"/>
<polygon fill="midnightblue" stroke="midnightblue" points="193.935,-82.8766 202.776,-77.0378 192.224,-76.0891 193.935,-82.8766"/>
</g>
<!-- Node1420 -->
<g id="node7" class="node"><title>Node1420</title>
<g id="a_node7"><a xlink:href="class_f_list_frame.html#a560addf9867fbd5d05fbdb024e5b272c" target="_top" xlink:title="FListFrame::setStrikeOut\lFileNames">
<polygon fill="white" stroke="black" points="190,-0.5 190,-30.5 317,-30.5 317,-0.5 190,-0.5"/>
<text text-anchor="start" x="198" y="-18.5" font-family="Helvetica,sans-Serif" font-size="10.00">FListFrame::setStrikeOut</text>
<text text-anchor="middle" x="253.5" y="-7.5" font-family="Helvetica,sans-Serif" font-size="10.00">FileNames</text>
</a>
</g>
</g>
<!-- Node1414&#45;&gt;Node1420 -->
<g id="edge6" class="edge"><title>Node1414&#45;&gt;Node1420</title>
<path fill="none" stroke="midnightblue" d="M92.0663,-98.9151C112.878,-84.9783 153.367,-58.7908 190,-40.5 194.05,-38.4779 198.305,-36.4954 202.611,-34.5867"/>
<polygon fill="midnightblue" stroke="midnightblue" points="204.244,-37.695 212.057,-30.5397 201.487,-31.2606 204.244,-37.695"/>
</g>
<!-- Node1415&#45;&gt;Node1416 -->
<g id="edge2" class="edge"><title>Node1415&#45;&gt;Node1416</title>
<path fill="none" stroke="midnightblue" d="M316.286,-177.533C324.953,-176.556 333.962,-175.54 342.908,-174.531"/>
<polygon fill="midnightblue" stroke="midnightblue" points="343.416,-177.996 352.961,-173.398 342.632,-171.04 343.416,-177.996"/>
</g>
<!-- Node1419 -->
<g id="node6" class="node"><title>Node1419</title>
<g id="a_node6"><a xlink:href="classtools.html#a89d2cd8ffcaed8423439c16d1ee59ab0" target="_top" xlink:title="Renvoie le chemin d&#39;un fichier ou d&#39;un répertoire du répertoire racine de la distribution (adjacent a...">
<polygon fill="white" stroke="black" points="374.5,-55 374.5,-74 473.5,-74 473.5,-55 374.5,-55"/>
<text text-anchor="middle" x="424" y="-62" font-family="Helvetica,sans-Serif" font-size="10.00">tools::path_access</text>
</a>
</g>
</g>
<!-- Node1418&#45;&gt;Node1419 -->
<g id="edge5" class="edge"><title>Node1418&#45;&gt;Node1419</title>
<path fill="none" stroke="midnightblue" d="M304.144,-64.5C322.992,-64.5 344.637,-64.5 364.247,-64.5"/>
<polygon fill="midnightblue" stroke="midnightblue" points="364.291,-68.0001 374.291,-64.5 364.291,-61.0001 364.291,-68.0001"/>
</g>
</g>
</svg>
