<?xml version="1.0" encoding="UTF-8" standalone="no"?>
<!DOCTYPE svg PUBLIC "-//W3C//DTD SVG 1.1//EN"
 "http://www.w3.org/Graphics/SVG/1.1/DTD/svg11.dtd">
<!-- Generated by graphviz version 2.38.0 (20140413.2041)
 -->
<!-- Title: FListFrame::getWidgetContainerCount Pages: 1 -->
<svg width="836pt" height="78pt"
 viewBox="0.00 0.00 836.00 77.50" xmlns="http://www.w3.org/2000/svg" xmlns:xlink="http://www.w3.org/1999/xlink">
<g id="graph0" class="graph" transform="scale(1 1) rotate(0) translate(4 73.5)">
<title>FListFrame::getWidgetContainerCount</title>
<polygon fill="white" stroke="none" points="-4,4 -4,-73.5 832,-73.5 832,4 -4,4"/>
<!-- Node226 -->
<g id="node1" class="node"><title>Node226</title>
<polygon fill="#bfbfbf" stroke="black" points="0,-22.5 0,-52.5 158,-52.5 158,-22.5 0,-22.5"/>
<text text-anchor="start" x="8" y="-40.5" font-family="Helvetica,sans-Serif" font-size="10.00">FListFrame::getWidgetContainer</text>
<text text-anchor="middle" x="79" y="-29.5" font-family="Helvetica,sans-Serif" font-size="10.00">Count</text>
</g>
<!-- Node227 -->
<g id="node2" class="node"><title>Node227</title>
<g id="a_node2"><a xlink:href="class_f_list_frame.html#af8c91e66c02e4c6f1f0fb66097903b73" target="_top" xlink:title="FListFrame::addStringList\lToListWidget">
<polygon fill="white" stroke="black" points="194,-22.5 194,-52.5 323,-52.5 323,-22.5 194,-22.5"/>
<text text-anchor="start" x="202" y="-40.5" font-family="Helvetica,sans-Serif" font-size="10.00">FListFrame::addStringList</text>
<text text-anchor="middle" x="258.5" y="-29.5" font-family="Helvetica,sans-Serif" font-size="10.00">ToListWidget</text>
</a>
</g>
</g>
<!-- Node226&#45;&gt;Node227 -->
<g id="edge1" class="edge"><title>Node226&#45;&gt;Node227</title>
<path fill="none" stroke="midnightblue" d="M168.2,-37.5C176.812,-37.5 185.43,-37.5 193.732,-37.5"/>
<polygon fill="midnightblue" stroke="midnightblue" points="168.112,-34.0001 158.112,-37.5 168.112,-41.0001 168.112,-34.0001"/>
</g>
<!-- Node228 -->
<g id="node3" class="node"><title>Node228</title>
<g id="a_node3"><a xlink:href="class_f_list_frame.html#a4228ed10f2d800b92ff34e2f25edcd8c" target="_top" xlink:title="FListFrame::addParsedTree\lToListWidget">
<polygon fill="white" stroke="black" points="359,-22.5 359,-52.5 497,-52.5 497,-22.5 359,-22.5"/>
<text text-anchor="start" x="367" y="-40.5" font-family="Helvetica,sans-Serif" font-size="10.00">FListFrame::addParsedTree</text>
<text text-anchor="middle" x="428" y="-29.5" font-family="Helvetica,sans-Serif" font-size="10.00">ToListWidget</text>
</a>
</g>
</g>
<!-- Node227&#45;&gt;Node228 -->
<g id="edge2" class="edge"><title>Node227&#45;&gt;Node228</title>
<path fill="none" stroke="midnightblue" d="M333.518,-37.5C341.966,-37.5 350.549,-37.5 358.915,-37.5"/>
<polygon fill="midnightblue" stroke="midnightblue" points="333.302,-34.0001 323.302,-37.5 333.302,-41.0001 333.302,-34.0001"/>
</g>
<!-- Node229 -->
<g id="node4" class="node"><title>Node229</title>
<g id="a_node4"><a xlink:href="class_altair.html#a1afa285a65e0bdff4c761ad05ec9f8df" target="_top" xlink:title="Fonction réimplémentée : fin du déplacement de la souris. ">
<polygon fill="white" stroke="black" points="557,-50 557,-69 646,-69 646,-50 557,-50"/>
<text text-anchor="middle" x="601.5" y="-57" font-family="Helvetica,sans-Serif" font-size="10.00">Altair::dropEvent</text>
</a>
</g>
</g>
<!-- Node228&#45;&gt;Node229 -->
<g id="edge3" class="edge"><title>Node228&#45;&gt;Node229</title>
<path fill="none" stroke="midnightblue" d="M507.246,-47.5374C524.296,-49.7245 541.744,-51.9628 556.867,-53.9028"/>
<polygon fill="midnightblue" stroke="midnightblue" points="507.638,-44.0591 497.274,-46.2582 506.747,-51.0022 507.638,-44.0591"/>
</g>
<!-- Node230 -->
<g id="node5" class="node"><title>Node230</title>
<g id="a_node5"><a xlink:href="class_f_list_frame.html#ac14c494842340a0438766256c01f83bc" target="_top" xlink:title="FListFrame::on_importFrom\lMainTree_clicked">
<polygon fill="white" stroke="black" points="533,-0.5 533,-30.5 670,-30.5 670,-0.5 533,-0.5"/>
<text text-anchor="start" x="541" y="-18.5" font-family="Helvetica,sans-Serif" font-size="10.00">FListFrame::on_importFrom</text>
<text text-anchor="middle" x="601.5" y="-7.5" font-family="Helvetica,sans-Serif" font-size="10.00">MainTree_clicked</text>
</a>
</g>
</g>
<!-- Node228&#45;&gt;Node230 -->
<g id="edge4" class="edge"><title>Node228&#45;&gt;Node230</title>
<path fill="none" stroke="midnightblue" d="M507.213,-27.4669C515.735,-26.3736 524.358,-25.2675 532.741,-24.1921"/>
<polygon fill="midnightblue" stroke="midnightblue" points="506.747,-23.9978 497.274,-28.7418 507.638,-30.9409 506.747,-23.9978"/>
</g>
<!-- Node231 -->
<g id="node6" class="node"><title>Node231</title>
<g id="a_node6"><a xlink:href="class_f_list_frame.html#a865246df8a4d4000ac3c818abc6d7f71" target="_top" xlink:title="FListFrame::FListFrame">
<polygon fill="white" stroke="black" points="706,-6 706,-25 828,-25 828,-6 706,-6"/>
<text text-anchor="middle" x="767" y="-13" font-family="Helvetica,sans-Serif" font-size="10.00">FListFrame::FListFrame</text>
</a>
</g>
</g>
<!-- Node230&#45;&gt;Node231 -->
<g id="edge5" class="edge"><title>Node230&#45;&gt;Node231</title>
<path fill="none" stroke="midnightblue" d="M680.688,-15.5C689.148,-15.5 697.658,-15.5 705.857,-15.5"/>
<polygon fill="midnightblue" stroke="midnightblue" points="680.418,-12.0001 670.418,-15.5 680.418,-19.0001 680.418,-12.0001"/>
</g>
</g>
</svg>
