<?xml version="1.0" encoding="UTF-8" standalone="no"?>
<!DOCTYPE svg PUBLIC "-//W3C//DTD SVG 1.1//EN"
 "http://www.w3.org/Graphics/SVG/1.1/DTD/svg11.dtd">
<!-- Generated by graphviz version 2.38.0 (20140413.2041)
 -->
<!-- Title: FCheckBox::FCheckBox Pages: 1 -->
<svg width="319pt" height="88pt"
 viewBox="0.00 0.00 319.00 88.00" xmlns="http://www.w3.org/2000/svg" xmlns:xlink="http://www.w3.org/1999/xlink">
<g id="graph0" class="graph" transform="scale(1 1) rotate(0) translate(4 84)">
<title>FCheckBox::FCheckBox</title>
<polygon fill="white" stroke="none" points="-4,4 -4,-84 315,-84 315,4 -4,4"/>
<!-- Node11 -->
<g id="node1" class="node"><title>Node11</title>
<polygon fill="#bfbfbf" stroke="black" points="0,-30 0,-49 126,-49 126,-30 0,-30"/>
<text text-anchor="middle" x="63" y="-37" font-family="Helvetica,sans-Serif" font-size="10.00">FCheckBox::FCheckBox</text>
</g>
<!-- Node12 -->
<g id="node2" class="node"><title>Node12</title>
<g id="a_node2"><a xlink:href="class_f_abstract_widget.html#a88c229861e7973810c6ac979d5526c2d" target="_top" xlink:title="FAbstractWidget::setWidget\lFromXml">
<polygon fill="white" stroke="black" points="166.5,-49.5 166.5,-79.5 306.5,-79.5 306.5,-49.5 166.5,-49.5"/>
<text text-anchor="start" x="174.5" y="-67.5" font-family="Helvetica,sans-Serif" font-size="10.00">FAbstractWidget::setWidget</text>
<text text-anchor="middle" x="236.5" y="-56.5" font-family="Helvetica,sans-Serif" font-size="10.00">FromXml</text>
</a>
</g>
</g>
<!-- Node11&#45;&gt;Node12 -->
<g id="edge1" class="edge"><title>Node11&#45;&gt;Node12</title>
<path fill="none" stroke="midnightblue" d="M126.401,-48.5963C136.169,-50.0203 146.376,-51.5082 156.458,-52.9779"/>
<polygon fill="midnightblue" stroke="midnightblue" points="156.078,-56.4593 166.478,-54.4385 157.087,-49.5325 156.078,-56.4593"/>
</g>
<!-- Node13 -->
<g id="node3" class="node"><title>Node13</title>
<g id="a_node3"><a xlink:href="class_f_abstract_widget.html#a821c87067fa5f6b48267d6ffb20e5c97" target="_top" xlink:title="FAbstractWidget::setXmlFrom\lWidget">
<polygon fill="white" stroke="black" points="162,-0.5 162,-30.5 311,-30.5 311,-0.5 162,-0.5"/>
<text text-anchor="start" x="170" y="-18.5" font-family="Helvetica,sans-Serif" font-size="10.00">FAbstractWidget::setXmlFrom</text>
<text text-anchor="middle" x="236.5" y="-7.5" font-family="Helvetica,sans-Serif" font-size="10.00">Widget</text>
</a>
</g>
</g>
<!-- Node11&#45;&gt;Node13 -->
<g id="edge2" class="edge"><title>Node11&#45;&gt;Node13</title>
<path fill="none" stroke="midnightblue" d="M126.401,-30.7676C134.661,-29.6116 143.234,-28.4118 151.781,-27.2158"/>
<polygon fill="midnightblue" stroke="midnightblue" points="152.363,-30.6686 161.781,-25.8164 151.392,-23.7361 152.363,-30.6686"/>
</g>
</g>
</svg>
