<?xml version="1.0" encoding="UTF-8" standalone="no"?>
<!DOCTYPE svg PUBLIC "-//W3C//DTD SVG 1.1//EN"
 "http://www.w3.org/Graphics/SVG/1.1/DTD/svg11.dtd">
<!-- Generated by graphviz version 2.38.0 (20140413.2041)
 -->
<!-- Title: Altair::refreshProjectManagerValues Pages: 1 -->
<svg width="1183pt" height="480pt"
 viewBox="0.00 0.00 1183.00 479.50" xmlns="http://www.w3.org/2000/svg" xmlns:xlink="http://www.w3.org/1999/xlink">
<g id="graph0" class="graph" transform="scale(1 1) rotate(0) translate(4 475.5)">
<title>Altair::refreshProjectManagerValues</title>
<polygon fill="white" stroke="none" points="-4,4 -4,-475.5 1179,-475.5 1179,4 -4,4"/>
<!-- Node739 -->
<g id="node1" class="node"><title>Node739</title>
<polygon fill="#bfbfbf" stroke="black" points="0,-314 0,-344 143,-344 143,-314 0,-314"/>
<text text-anchor="start" x="8" y="-332" font-family="Helvetica,sans-Serif" font-size="10.00">Altair::refreshProjectManager</text>
<text text-anchor="middle" x="71.5" y="-321" font-family="Helvetica,sans-Serif" font-size="10.00">Values</text>
</g>
<!-- Node740 -->
<g id="node2" class="node"><title>Node740</title>
<g id="a_node2"><a xlink:href="class_altair.html#a5b3c33b6ae4f6b57b5593245751ef203" target="_top" xlink:title="Efface toutes les données du projet .alt et réinitialise l&#39;interface et les conteneurs de données int...">
<polygon fill="white" stroke="black" points="179,-357.5 179,-376.5 297,-376.5 297,-357.5 179,-357.5"/>
<text text-anchor="middle" x="238" y="-364.5" font-family="Helvetica,sans-Serif" font-size="10.00">Altair::clearProjectData</text>
</a>
</g>
</g>
<!-- Node739&#45;&gt;Node740 -->
<g id="edge1" class="edge"><title>Node739&#45;&gt;Node740</title>
<path fill="none" stroke="midnightblue" d="M147.706,-346.373C164.192,-350.181 181.058,-354.077 195.629,-357.443"/>
<polygon fill="midnightblue" stroke="midnightblue" points="148.046,-342.859 137.515,-344.019 146.47,-349.68 148.046,-342.859"/>
</g>
<!-- Node748 -->
<g id="node10" class="node"><title>Node748</title>
<g id="a_node10"><a xlink:href="class_altair.html#a41b6c8a35ed8ba14c7c0ce2e6994655f" target="_top" xlink:title="Décode le projet représenté par un pointeur vers QFile ou similaire. ">
<polygon fill="white" stroke="black" points="180,-319.5 180,-338.5 296,-338.5 296,-319.5 180,-319.5"/>
<text text-anchor="middle" x="238" y="-326.5" font-family="Helvetica,sans-Serif" font-size="10.00">Altair::parseProjectFile</text>
</a>
</g>
</g>
<!-- Node739&#45;&gt;Node748 -->
<g id="edge9" class="edge"><title>Node739&#45;&gt;Node748</title>
<path fill="none" stroke="midnightblue" d="M153.345,-329C162.344,-329 171.365,-329 179.978,-329"/>
<polygon fill="midnightblue" stroke="midnightblue" points="153.218,-325.5 143.217,-329 153.217,-332.5 153.218,-325.5"/>
</g>
<!-- Node749 -->
<g id="node11" class="node"><title>Node749</title>
<g id="a_node11"><a xlink:href="class_altair.html#ac9d7d8e7cebf70212818f1a8ba7d7d78" target="_top" xlink:title="Rafraîchit le gestionnaire de projet à la droite de l&#39;interface. Fonction globale par défaut...">
<polygon fill="white" stroke="black" points="333,-289.5 333,-308.5 476,-308.5 476,-289.5 333,-289.5"/>
<text text-anchor="middle" x="404.5" y="-296.5" font-family="Helvetica,sans-Serif" font-size="10.00">Altair::refreshProjectManager</text>
</a>
</g>
</g>
<!-- Node739&#45;&gt;Node749 -->
<g id="edge30" class="edge"><title>Node739&#45;&gt;Node749</title>
<path fill="none" stroke="midnightblue" d="M153.215,-313.486C161.896,-312.15 170.617,-310.949 179,-310 230.279,-304.193 288.491,-301.451 332.787,-300.156"/>
<polygon fill="midnightblue" stroke="midnightblue" points="152.387,-310.074 143.064,-315.108 153.491,-316.986 152.387,-310.074"/>
</g>
<!-- Node741 -->
<g id="node3" class="node"><title>Node741</title>
<g id="a_node3"><a xlink:href="class_altair.html#ab67e3285c4a6c8fb48d12381ea6ac6bd" target="_top" xlink:title="Ferme le projet et réinitialise l&#39;interface (gestionnaire de projet inclus) ">
<polygon fill="white" stroke="black" points="708.5,-357.5 708.5,-376.5 807.5,-376.5 807.5,-357.5 708.5,-357.5"/>
<text text-anchor="middle" x="758" y="-364.5" font-family="Helvetica,sans-Serif" font-size="10.00">Altair::closeProject</text>
</a>
</g>
</g>
<!-- Node740&#45;&gt;Node741 -->
<g id="edge2" class="edge"><title>Node740&#45;&gt;Node741</title>
<path fill="none" stroke="midnightblue" d="M307.45,-367C413.679,-367 615.631,-367 708.306,-367"/>
<polygon fill="midnightblue" stroke="midnightblue" points="307.164,-363.5 297.164,-367 307.164,-370.5 307.164,-363.5"/>
</g>
<!-- Node742 -->
<g id="node4" class="node"><title>Node742</title>
<g id="a_node4"><a xlink:href="class_altair.html#ae0975ced0a36e0ed889ae06043a4df66" target="_top" xlink:title="Constructeur. ">
<polygon fill="white" stroke="black" points="918.5,-201.5 918.5,-220.5 986.5,-220.5 986.5,-201.5 918.5,-201.5"/>
<text text-anchor="middle" x="952.5" y="-208.5" font-family="Helvetica,sans-Serif" font-size="10.00">Altair::Altair</text>
</a>
</g>
</g>
<!-- Node741&#45;&gt;Node742 -->
<g id="edge3" class="edge"><title>Node741&#45;&gt;Node742</title>
<path fill="none" stroke="midnightblue" d="M817.568,-359.812C827.831,-356.521 837.825,-351.789 846,-345 875.373,-320.607 858.516,-297.104 882,-267 897.154,-247.574 920.294,-230.676 935.654,-220.66"/>
<polygon fill="midnightblue" stroke="midnightblue" points="816.399,-356.504 807.695,-362.545 818.266,-363.25 816.399,-356.504"/>
</g>
<!-- Node743 -->
<g id="node5" class="node"><title>Node743</title>
<g id="a_node5"><a xlink:href="class_altair.html#a1afa285a65e0bdff4c761ad05ec9f8df" target="_top" xlink:title="Fonction réimplémentée : fin du déplacement de la souris. ">
<polygon fill="white" stroke="black" points="908,-276.5 908,-295.5 997,-295.5 997,-276.5 908,-276.5"/>
<text text-anchor="middle" x="952.5" y="-283.5" font-family="Helvetica,sans-Serif" font-size="10.00">Altair::dropEvent</text>
</a>
</g>
</g>
<!-- Node741&#45;&gt;Node743 -->
<g id="edge4" class="edge"><title>Node741&#45;&gt;Node743</title>
<path fill="none" stroke="midnightblue" d="M817.427,-357.306C827.376,-354.255 837.296,-350.251 846,-345 866.479,-332.645 861.64,-317.551 882,-305 889.773,-300.208 898.764,-296.604 907.647,-293.901"/>
<polygon fill="midnightblue" stroke="midnightblue" points="816.216,-354.009 807.512,-360.05 818.083,-360.756 816.216,-354.009"/>
</g>
<!-- Node744 -->
<g id="node6" class="node"><title>Node744</title>
<g id="a_node6"><a xlink:href="class_altair.html#a2f6882c170016e2d7729058b08896a1d" target="_top" xlink:title="Tuer l&#39;application en ligne de commande lhx. ">
<polygon fill="white" stroke="black" points="906,-402.5 906,-421.5 999,-421.5 999,-402.5 906,-402.5"/>
<text text-anchor="middle" x="952.5" y="-409.5" font-family="Helvetica,sans-Serif" font-size="10.00">Altair::killProcess</text>
</a>
</g>
</g>
<!-- Node741&#45;&gt;Node744 -->
<g id="edge5" class="edge"><title>Node741&#45;&gt;Node744</title>
<path fill="none" stroke="midnightblue" d="M809.741,-378.861C841.273,-386.233 881.271,-395.583 910.735,-402.47"/>
<polygon fill="midnightblue" stroke="midnightblue" points="810.359,-375.412 799.824,-376.543 808.765,-382.228 810.359,-375.412"/>
</g>
<!-- Node745 -->
<g id="node7" class="node"><title>Node745</title>
<g id="a_node7"><a xlink:href="class_altair.html#a2e9b932b1dbf45bf9ad0db41dce474b6" target="_top" xlink:title="Crée un nouveau projet défaut.alt. ">
<polygon fill="white" stroke="black" points="883.5,-441 883.5,-471 1021.5,-471 1021.5,-441 883.5,-441"/>
<text text-anchor="start" x="891.5" y="-459" font-family="Helvetica,sans-Serif" font-size="10.00">Altair::on_newProjectButton</text>
<text text-anchor="middle" x="952.5" y="-448" font-family="Helvetica,sans-Serif" font-size="10.00">_clicked</text>
</a>
</g>
</g>
<!-- Node741&#45;&gt;Node745 -->
<g id="edge6" class="edge"><title>Node741&#45;&gt;Node745</title>
<path fill="none" stroke="midnightblue" d="M784.773,-381.708C809.323,-395.404 847.541,-415.919 882,-431 889.871,-434.445 898.382,-437.799 906.659,-440.873"/>
<polygon fill="midnightblue" stroke="midnightblue" points="786.192,-378.49 775.759,-376.642 782.762,-384.593 786.192,-378.49"/>
</g>
<!-- Node746 -->
<g id="node8" class="node"><title>Node746</title>
<g id="a_node8"><a xlink:href="class_altair.html#ab98d384297c6b94ff65a683eb5f99633" target="_top" xlink:title="Ouvre le projet, le décode en appelant parseProjectFile et actualise l&#39;interface &#160;en conséquence...">
<polygon fill="white" stroke="black" points="882,-353 882,-383 1023,-383 1023,-353 882,-353"/>
<text text-anchor="start" x="890" y="-371" font-family="Helvetica,sans-Serif" font-size="10.00">Altair::on_openProjectButton</text>
<text text-anchor="middle" x="952.5" y="-360" font-family="Helvetica,sans-Serif" font-size="10.00">_clicked</text>
</a>
</g>
</g>
<!-- Node741&#45;&gt;Node746 -->
<g id="edge7" class="edge"><title>Node741&#45;&gt;Node746</title>
<path fill="none" stroke="midnightblue" d="M817.601,-367.304C837.87,-367.41 860.782,-367.529 881.85,-367.638"/>
<polygon fill="midnightblue" stroke="midnightblue" points="817.594,-363.804 807.576,-367.252 817.558,-370.804 817.594,-363.804"/>
</g>
<!-- Node747 -->
<g id="node9" class="node"><title>Node747</title>
<g id="a_node9"><a xlink:href="class_altair.html#a84cf34107cd413ab33800b583bdef59e" target="_top" xlink:title="Ouvre le projet .alt et décode le projet pour actualiser l&#39;interface. ">
<polygon fill="white" stroke="black" points="896,-314.5 896,-333.5 1009,-333.5 1009,-314.5 896,-314.5"/>
<text text-anchor="middle" x="952.5" y="-321.5" font-family="Helvetica,sans-Serif" font-size="10.00">Altair::openProjectFile</text>
</a>
</g>
</g>
<!-- Node741&#45;&gt;Node747 -->
<g id="edge8" class="edge"><title>Node741&#45;&gt;Node747</title>
<path fill="none" stroke="midnightblue" d="M811.773,-355.212C842.32,-348.388 880.263,-339.913 908.897,-333.516"/>
<polygon fill="midnightblue" stroke="midnightblue" points="810.718,-351.861 801.722,-357.457 812.245,-358.693 810.718,-351.861"/>
</g>
<!-- Node748&#45;&gt;Node749 -->
<g id="edge10" class="edge"><title>Node748&#45;&gt;Node749</title>
<path fill="none" stroke="midnightblue" d="M301.537,-317.595C317.926,-314.606 335.424,-311.415 351.215,-308.535"/>
<polygon fill="midnightblue" stroke="midnightblue" points="300.711,-314.188 291.501,-319.425 301.967,-321.074 300.711,-314.188"/>
</g>
<!-- Node750 -->
<g id="node12" class="node"><title>Node750</title>
<g id="a_node12"><a xlink:href="class_altair.html#acaa583766e1c062ea311847fcdd35374" target="_top" xlink:title="Efface les onglets, le gestionnaire de projet et lit le projet .alt en cours. ">
<polygon fill="white" stroke="black" points="512,-292 512,-322 634,-322 634,-292 512,-292"/>
<text text-anchor="start" x="520" y="-310" font-family="Helvetica,sans-Serif" font-size="10.00">Altair::clearInterfaceAnd</text>
<text text-anchor="middle" x="573" y="-299" font-family="Helvetica,sans-Serif" font-size="10.00">ParseProject</text>
</a>
</g>
</g>
<!-- Node749&#45;&gt;Node750 -->
<g id="edge11" class="edge"><title>Node749&#45;&gt;Node750</title>
<path fill="none" stroke="midnightblue" d="M486.193,-302.877C494.815,-303.291 503.473,-303.707 511.798,-304.107"/>
<polygon fill="midnightblue" stroke="midnightblue" points="486.267,-299.377 476.111,-302.393 485.931,-306.369 486.267,-299.377"/>
</g>
<!-- Node752 -->
<g id="node14" class="node"><title>Node752</title>
<g id="a_node14"><a xlink:href="class_altair.html#a2eb0a89c3223b2df1c01d2b3b7d1c0eb" target="_top" xlink:title="Rafraichir le projet .alt après avoir actualisé l&#39;interface. ">
<polygon fill="white" stroke="black" points="520.5,-164.5 520.5,-183.5 625.5,-183.5 625.5,-164.5 520.5,-164.5"/>
<text text-anchor="middle" x="573" y="-171.5" font-family="Helvetica,sans-Serif" font-size="10.00">Altair::updateProject</text>
</a>
</g>
</g>
<!-- Node749&#45;&gt;Node752 -->
<g id="edge15" class="edge"><title>Node749&#45;&gt;Node752</title>
<path fill="none" stroke="midnightblue" d="M426.361,-283.338C461.188,-257.193 530.181,-205.396 558.938,-183.806"/>
<polygon fill="midnightblue" stroke="midnightblue" points="424.184,-280.596 418.289,-289.399 428.387,-286.194 424.184,-280.596"/>
</g>
<!-- Node751 -->
<g id="node13" class="node"><title>Node751</title>
<g id="a_node13"><a xlink:href="class_altair.html#aa341707131924eff160bcab41422d1ec" target="_top" xlink:title="Code commun à différentes fonctions lancées pour l&#39;analyse des projets. ">
<polygon fill="white" stroke="black" points="670,-316.5 670,-335.5 846,-335.5 846,-316.5 670,-316.5"/>
<text text-anchor="middle" x="758" y="-323.5" font-family="Helvetica,sans-Serif" font-size="10.00">Altair::openProjectFileCommonCode</text>
</a>
</g>
</g>
<!-- Node750&#45;&gt;Node751 -->
<g id="edge12" class="edge"><title>Node750&#45;&gt;Node751</title>
<path fill="none" stroke="midnightblue" d="M644.278,-314.297C652.681,-315.169 661.336,-316.068 669.939,-316.961"/>
<polygon fill="midnightblue" stroke="midnightblue" points="644.483,-310.799 634.175,-313.248 643.76,-317.762 644.483,-310.799"/>
</g>
<!-- Node751&#45;&gt;Node746 -->
<g id="edge13" class="edge"><title>Node751&#45;&gt;Node746</title>
<path fill="none" stroke="midnightblue" d="M812.691,-337.714C834.38,-342.446 859.679,-347.966 882.693,-352.988"/>
<polygon fill="midnightblue" stroke="midnightblue" points="813.198,-334.243 802.681,-335.53 811.705,-341.082 813.198,-334.243"/>
</g>
<!-- Node751&#45;&gt;Node747 -->
<g id="edge14" class="edge"><title>Node751&#45;&gt;Node747</title>
<path fill="none" stroke="midnightblue" d="M856.572,-324.986C870.1,-324.846 883.593,-324.706 895.982,-324.577"/>
<polygon fill="midnightblue" stroke="midnightblue" points="856.201,-321.49 846.238,-325.094 856.274,-328.489 856.201,-321.49"/>
</g>
<!-- Node752&#45;&gt;Node742 -->
<g id="edge16" class="edge"><title>Node752&#45;&gt;Node742</title>
<path fill="none" stroke="midnightblue" d="M593.37,-189.797C611.8,-203.732 640.955,-223.027 670,-231 757.171,-254.929 864.908,-233.978 918.289,-220.409"/>
<polygon fill="midnightblue" stroke="midnightblue" points="595.505,-187.024 585.463,-183.646 591.207,-192.549 595.505,-187.024"/>
</g>
<!-- Node752&#45;&gt;Node743 -->
<g id="edge22" class="edge"><title>Node752&#45;&gt;Node743</title>
<path fill="none" stroke="midnightblue" d="M589.533,-191.147C607.121,-209.336 637.574,-237.296 670,-251 748.932,-284.358 850.612,-288.539 907.652,-287.795"/>
<polygon fill="midnightblue" stroke="midnightblue" points="591.799,-188.448 582.396,-183.564 586.701,-193.245 591.799,-188.448"/>
</g>
<!-- Node753 -->
<g id="node15" class="node"><title>Node753</title>
<g id="a_node15"><a xlink:href="class_altair.html#ab913abfdd0c6fbbceb9a051a4443d5fa" target="_top" xlink:title="Supprimer un onglet central. ">
<polygon fill="white" stroke="black" points="709,-164.5 709,-183.5 807,-183.5 807,-164.5 709,-164.5"/>
<text text-anchor="middle" x="758" y="-171.5" font-family="Helvetica,sans-Serif" font-size="10.00">Altair::deleteGroup</text>
</a>
</g>
</g>
<!-- Node752&#45;&gt;Node753 -->
<g id="edge17" class="edge"><title>Node752&#45;&gt;Node753</title>
<path fill="none" stroke="midnightblue" d="M635.966,-174C659.814,-174 686.659,-174 708.997,-174"/>
<polygon fill="midnightblue" stroke="midnightblue" points="635.951,-170.5 625.951,-174 635.951,-177.5 635.951,-170.5"/>
</g>
<!-- Node754 -->
<g id="node16" class="node"><title>Node754</title>
<g id="a_node16"><a xlink:href="class_altair.html#a299584936cc20c9a1451977264eba1f5" target="_top" xlink:title="Ecrase un item d&#39;un onglet donné ">
<polygon fill="white" stroke="black" points="704.5,-115 704.5,-145 811.5,-145 811.5,-115 704.5,-115"/>
<text text-anchor="start" x="712.5" y="-133" font-family="Helvetica,sans-Serif" font-size="10.00">Altair::on_deleteItem</text>
<text text-anchor="middle" x="758" y="-122" font-family="Helvetica,sans-Serif" font-size="10.00">_clicked</text>
</a>
</g>
</g>
<!-- Node752&#45;&gt;Node754 -->
<g id="edge19" class="edge"><title>Node752&#45;&gt;Node754</title>
<path fill="none" stroke="midnightblue" d="M623.685,-162.054C648.614,-156.06 678.818,-148.798 704.169,-142.703"/>
<polygon fill="midnightblue" stroke="midnightblue" points="622.613,-158.712 613.708,-164.453 624.249,-165.518 622.613,-158.712"/>
</g>
<!-- Node755 -->
<g id="node17" class="node"><title>Node755</title>
<g id="a_node17"><a xlink:href="class_altair.html#aab5da600c227ac7eb604fa24a9308d26" target="_top" xlink:title="Enregistre le projet .alt en actualisant projectName et l&#39;état de l&#39;interface &#160;. ">
<polygon fill="white" stroke="black" points="692.5,-0.5 692.5,-19.5 823.5,-19.5 823.5,-0.5 692.5,-0.5"/>
<text text-anchor="middle" x="758" y="-7.5" font-family="Helvetica,sans-Serif" font-size="10.00">Altair::requestSaveProject</text>
</a>
</g>
</g>
<!-- Node752&#45;&gt;Node755 -->
<g id="edge21" class="edge"><title>Node752&#45;&gt;Node755</title>
<path fill="none" stroke="midnightblue" d="M581.037,-154.966C593.706,-123.483 623.451,-60.8799 670,-29 676.76,-24.37 684.451,-20.8427 692.396,-18.1601"/>
<polygon fill="midnightblue" stroke="midnightblue" points="577.746,-153.772 577.395,-164.361 584.273,-156.302 577.746,-153.772"/>
</g>
<!-- Node756 -->
<g id="node18" class="node"><title>Node756</title>
<g id="a_node18"><a xlink:href="classoptions.html#a52a9fb1d5bdb6ed104e700390b8c0208" target="_top" xlink:title="Constructeur de l&#39;onglet correspondant à un pointeur parent vers une instance de la classe Altair...">
<polygon fill="white" stroke="black" points="715,-202.5 715,-221.5 801,-221.5 801,-202.5 715,-202.5"/>
<text text-anchor="middle" x="758" y="-209.5" font-family="Helvetica,sans-Serif" font-size="10.00">options::options</text>
</a>
</g>
</g>
<!-- Node752&#45;&gt;Node756 -->
<g id="edge23" class="edge"><title>Node752&#45;&gt;Node756</title>
<path fill="none" stroke="midnightblue" d="M630.004,-185.629C657.35,-191.308 689.702,-198.026 714.908,-203.26"/>
<polygon fill="midnightblue" stroke="midnightblue" points="630.681,-182.195 620.179,-183.589 629.258,-189.049 630.681,-182.195"/>
</g>
<!-- Node757 -->
<g id="node19" class="node"><title>Node757</title>
<g id="a_node19"><a xlink:href="class_altair.html#a08b5e402c9a694af09110afe33219080" target="_top" xlink:title="Construction de la ligne de commande pour des bases de paye dans un répertoire donné ...">
<polygon fill="white" stroke="black" points="713,-38.5 713,-57.5 803,-57.5 803,-38.5 713,-38.5"/>
<text text-anchor="middle" x="758" y="-45.5" font-family="Helvetica,sans-Serif" font-size="10.00">Altair::runWorker</text>
</a>
</g>
</g>
<!-- Node752&#45;&gt;Node757 -->
<g id="edge24" class="edge"><title>Node752&#45;&gt;Node757</title>
<path fill="none" stroke="midnightblue" d="M586.078,-156.041C602.426,-133.125 633.756,-93.8458 670,-72 682.882,-64.2352 698.337,-58.9191 712.624,-55.3069"/>
<polygon fill="midnightblue" stroke="midnightblue" points="583.036,-154.285 580.2,-164.493 588.783,-158.281 583.036,-154.285"/>
</g>
<!-- Node759 -->
<g id="node21" class="node"><title>Node759</title>
<g id="a_node21"><a xlink:href="class_altair.html#a7d10f8ecf4097577885172afb6c2e9c6" target="_top" xlink:title="Lance l&#39;exécution de l&#39;application en ligne de commande lhx. ">
<polygon fill="white" stroke="black" points="1087.5,-38.5 1087.5,-57.5 1146.5,-57.5 1146.5,-38.5 1087.5,-38.5"/>
<text text-anchor="middle" x="1117" y="-45.5" font-family="Helvetica,sans-Serif" font-size="10.00">Altair::run</text>
</a>
</g>
</g>
<!-- Node752&#45;&gt;Node759 -->
<g id="edge29" class="edge"><title>Node752&#45;&gt;Node759</title>
<path fill="none" stroke="midnightblue" d="M591.032,-157.601C609.073,-141.3 639.161,-117.04 670,-105 817.226,-47.522 866.396,-83.3213 1023,-62 1044.52,-59.0705 1068.78,-55.4061 1087.13,-52.5612"/>
<polygon fill="midnightblue" stroke="midnightblue" points="588.587,-155.094 583.631,-164.459 593.345,-160.229 588.587,-155.094"/>
</g>
<!-- Node753&#45;&gt;Node742 -->
<g id="edge18" class="edge"><title>Node753&#45;&gt;Node742</title>
<path fill="none" stroke="midnightblue" d="M817.094,-185.166C850.175,-191.525 890.432,-199.262 918.215,-204.602"/>
<polygon fill="midnightblue" stroke="midnightblue" points="817.56,-181.692 807.079,-183.241 816.239,-188.566 817.56,-181.692"/>
</g>
<!-- Node754&#45;&gt;Node742 -->
<g id="edge20" class="edge"><title>Node754&#45;&gt;Node742</title>
<path fill="none" stroke="midnightblue" d="M821.366,-146.209C829.741,-148.882 838.145,-151.827 846,-155 879.263,-168.436 915.749,-189.287 935.911,-201.394"/>
<polygon fill="midnightblue" stroke="midnightblue" points="822.171,-142.795 811.584,-143.2 820.113,-149.486 822.171,-142.795"/>
</g>
<!-- Node758 -->
<g id="node20" class="node"><title>Node758</title>
<g id="a_node20"><a xlink:href="class_altair.html#ae04f2a5771d47bbe2e0cc3a11b72d6bf" target="_top" xlink:title="Parcourt le répertoire en cours du mode distributif, un à chaque appel Exporte l&#39;identification dans ...">
<polygon fill="white" stroke="black" points="884,-0.5 884,-19.5 1021,-19.5 1021,-0.5 884,-0.5"/>
<text text-anchor="middle" x="952.5" y="-7.5" font-family="Helvetica,sans-Serif" font-size="10.00">Altair::runWorkerDistributed</text>
</a>
</g>
</g>
<!-- Node757&#45;&gt;Node758 -->
<g id="edge25" class="edge"><title>Node757&#45;&gt;Node758</title>
<path fill="none" stroke="midnightblue" d="M813.281,-37.2849C841.544,-31.7057 875.811,-24.9413 903.154,-19.5436"/>
<polygon fill="midnightblue" stroke="midnightblue" points="812.296,-33.9116 803.163,-39.282 813.652,-40.779 812.296,-33.9116"/>
</g>
<!-- Node757&#45;&gt;Node759 -->
<g id="edge28" class="edge"><title>Node757&#45;&gt;Node759</title>
<path fill="none" stroke="midnightblue" d="M813.571,-48C890.494,-48 1028.04,-48 1087.42,-48"/>
<polygon fill="midnightblue" stroke="midnightblue" points="813.133,-44.5001 803.133,-48 813.133,-51.5001 813.133,-44.5001"/>
</g>
<!-- Node758&#45;&gt;Node759 -->
<g id="edge26" class="edge"><title>Node758&#45;&gt;Node759</title>
<path fill="none" stroke="midnightblue" d="M1004.31,-21.8811C1031.65,-28.2745 1064.36,-35.9253 1087.3,-41.2884"/>
<polygon fill="midnightblue" stroke="midnightblue" points="1005.04,-18.4581 994.506,-19.589 1003.45,-25.2742 1005.04,-18.4581"/>
</g>
<!-- Node760 -->
<g id="node22" class="node"><title>Node760</title>
<g id="a_node22"><a xlink:href="class_altair.html#a16b8035c4383a789cd00b687fb105fe9" target="_top" xlink:title="Traitement de la fin de l&#39;exécution de lhx. ">
<polygon fill="white" stroke="black" points="1059,-0.5 1059,-19.5 1175,-19.5 1175,-0.5 1059,-0.5"/>
<text text-anchor="middle" x="1117" y="-7.5" font-family="Helvetica,sans-Serif" font-size="10.00">Altair::processFinished</text>
</a>
</g>
</g>
<!-- Node758&#45;&gt;Node760 -->
<g id="edge27" class="edge"><title>Node758&#45;&gt;Node760</title>
<path fill="none" stroke="midnightblue" d="M1031.08,-10C1040.41,-10 1049.81,-10 1058.78,-10"/>
<polygon fill="midnightblue" stroke="midnightblue" points="1031,-6.5001 1021,-10 1031,-13.5001 1031,-6.5001"/>
</g>
</g>
</svg>
