<?xml version="1.0" encoding="UTF-8" standalone="no"?>
<!DOCTYPE svg PUBLIC "-//W3C//DTD SVG 1.1//EN"
 "http://www.w3.org/Graphics/SVG/1.1/DTD/svg11.dtd">
<!-- Generated by graphviz version 2.38.0 (20140413.2041)
 -->
<!-- Title: FLineFrame::setText Pages: 1 -->
<svg width="494pt" height="83pt"
 viewBox="0.00 0.00 494.00 83.00" xmlns="http://www.w3.org/2000/svg" xmlns:xlink="http://www.w3.org/1999/xlink">
<g id="graph0" class="graph" transform="scale(1 1) rotate(0) translate(4 79)">
<title>FLineFrame::setText</title>
<polygon fill="white" stroke="none" points="-4,4 -4,-79 490,-79 490,4 -4,4"/>
<!-- Node20 -->
<g id="node1" class="node"><title>Node20</title>
<polygon fill="#bfbfbf" stroke="black" points="0,-28 0,-47 113,-47 113,-28 0,-28"/>
<text text-anchor="middle" x="56.5" y="-35" font-family="Helvetica,sans-Serif" font-size="10.00">FLineFrame::setText</text>
</g>
<!-- Node21 -->
<g id="node2" class="node"><title>Node21</title>
<g id="a_node2"><a xlink:href="class_matricule_input.html#a531419ed5d9ad186758b0ed44621a4e0" target="_top" xlink:title="Vérifie qu&#39;à l&#39;ouverture du dialogue, le répertoire par défaut dirpath est bien renseigné. ">
<polygon fill="white" stroke="black" points="149,-44.5 149,-74.5 297,-74.5 297,-44.5 149,-44.5"/>
<text text-anchor="start" x="157" y="-62.5" font-family="Helvetica,sans-Serif" font-size="10.00">MatriculeInput::checkDefault</text>
<text text-anchor="middle" x="223" y="-51.5" font-family="Helvetica,sans-Serif" font-size="10.00">Folder</text>
</a>
</g>
</g>
<!-- Node20&#45;&gt;Node21 -->
<g id="edge1" class="edge"><title>Node20&#45;&gt;Node21</title>
<path fill="none" stroke="midnightblue" d="M123.303,-46.3003C131.709,-47.4246 140.354,-48.5808 148.867,-49.7194"/>
<polygon fill="midnightblue" stroke="midnightblue" points="123.568,-42.8048 113.192,-44.9482 122.64,-49.743 123.568,-42.8048"/>
</g>
<!-- Node22 -->
<g id="node3" class="node"><title>Node22</title>
<g id="a_node3"><a xlink:href="class_matricule_input.html#a1b9d9f0c939a200f2643958749f7ec42" target="_top" xlink:title="Réinitialisation de tous les champs. ">
<polygon fill="white" stroke="black" points="168,-6 168,-25 278,-25 278,-6 168,-6"/>
<text text-anchor="middle" x="223" y="-13" font-family="Helvetica,sans-Serif" font-size="10.00">MatriculeInput::clear</text>
</a>
</g>
</g>
<!-- Node20&#45;&gt;Node22 -->
<g id="edge2" class="edge"><title>Node20&#45;&gt;Node22</title>
<path fill="none" stroke="midnightblue" d="M123.269,-28.7042C138.03,-26.73 153.53,-24.6571 167.759,-22.7541"/>
<polygon fill="midnightblue" stroke="midnightblue" points="122.64,-25.257 113.192,-30.0518 123.568,-32.1952 122.64,-25.257"/>
</g>
<!-- Node23 -->
<g id="node4" class="node"><title>Node23</title>
<g id="a_node4"><a xlink:href="class_main_window.html#a7f2aaeb01d8c0cdbe5d608ef8e866bb7" target="_top" xlink:title="Réinitialise le dialogue d&#39;extraction des matricules. ">
<polygon fill="white" stroke="black" points="333,-0.5 333,-30.5 486,-30.5 486,-0.5 333,-0.5"/>
<text text-anchor="start" x="341" y="-18.5" font-family="Helvetica,sans-Serif" font-size="10.00">MainWindow::resetExtraction</text>
<text text-anchor="middle" x="409.5" y="-7.5" font-family="Helvetica,sans-Serif" font-size="10.00">Bulletins</text>
</a>
</g>
</g>
<!-- Node22&#45;&gt;Node23 -->
<g id="edge3" class="edge"><title>Node22&#45;&gt;Node23</title>
<path fill="none" stroke="midnightblue" d="M288.604,-15.5C302.944,-15.5 318.267,-15.5 332.999,-15.5"/>
<polygon fill="midnightblue" stroke="midnightblue" points="288.358,-12.0001 278.358,-15.5 288.358,-19.0001 288.358,-12.0001"/>
</g>
</g>
</svg>
