<?xml version="1.0" encoding="UTF-8" standalone="no"?>
<!DOCTYPE svg PUBLIC "-//W3C//DTD SVG 1.1//EN"
 "http://www.w3.org/Graphics/SVG/1.1/DTD/svg11.dtd">
<!-- Generated by graphviz version 2.38.0 (20140413.2041)
 -->
<!-- Title: FListWidget::addGroup Pages: 1 -->
<svg width="431pt" height="47pt"
 viewBox="0.00 0.00 431.00 47.00" xmlns="http://www.w3.org/2000/svg" xmlns:xlink="http://www.w3.org/1999/xlink">
<g id="graph0" class="graph" transform="scale(1 1) rotate(0) translate(4 43)">
<title>FListWidget::addGroup</title>
<polygon fill="white" stroke="none" points="-4,4 -4,-43 427,-43 427,4 -4,4"/>
<!-- Node5 -->
<g id="node1" class="node"><title>Node5</title>
<polygon fill="#bfbfbf" stroke="black" points="0,-0.5 0,-19.5 117,-19.5 117,-0.5 0,-0.5"/>
<text text-anchor="middle" x="58.5" y="-7.5" font-family="Helvetica,sans-Serif" font-size="10.00">FListWidget::addGroup</text>
</g>
<!-- Node6 -->
<g id="node2" class="node"><title>Node6</title>
<g id="a_node2"><a xlink:href="class_f_list_frame.html#a5c6ce884a0169251e359364921d1f89c" target="_top" xlink:title="FListFrame::addNewTab">
<polygon fill="white" stroke="black" points="153,-19.5 153,-38.5 278,-38.5 278,-19.5 153,-19.5"/>
<text text-anchor="middle" x="215.5" y="-26.5" font-family="Helvetica,sans-Serif" font-size="10.00">FListFrame::addNewTab</text>
</a>
</g>
</g>
<!-- Node5&#45;&gt;Node6 -->
<g id="edge1" class="edge"><title>Node5&#45;&gt;Node6</title>
<path fill="none" stroke="midnightblue" d="M117.216,-17.0749C125.568,-18.0986 134.248,-19.1627 142.832,-20.2149"/>
<polygon fill="midnightblue" stroke="midnightblue" points="142.488,-23.6989 152.84,-21.4417 143.34,-16.7509 142.488,-23.6989"/>
</g>
<!-- Node7 -->
<g id="node3" class="node"><title>Node7</title>
<g id="a_node3"><a xlink:href="class_f_list_frame.html#a4bf0d0d8e56418df395b020d2e66db5f" target="_top" xlink:title="Récupère la taille courante (0&#45;based) du conteneur widgetContainer Cette taille doit en principe être...">
<polygon fill="white" stroke="black" points="314,-0.5 314,-19.5 423,-19.5 423,-0.5 314,-0.5"/>
<text text-anchor="middle" x="368.5" y="-7.5" font-family="Helvetica,sans-Serif" font-size="10.00">FListFrame::getRank</text>
</a>
</g>
</g>
<!-- Node5&#45;&gt;Node7 -->
<g id="edge3" class="edge"><title>Node5&#45;&gt;Node7</title>
<path fill="none" stroke="midnightblue" d="M117.071,-10C170.068,-10 248.561,-10 303.504,-10"/>
<polygon fill="midnightblue" stroke="midnightblue" points="303.82,-13.5001 313.82,-10 303.82,-6.5001 303.82,-13.5001"/>
</g>
<!-- Node6&#45;&gt;Node7 -->
<g id="edge2" class="edge"><title>Node6&#45;&gt;Node7</title>
<path fill="none" stroke="midnightblue" d="M278.353,-21.2172C286.691,-20.168 295.259,-19.0899 303.631,-18.0364"/>
<polygon fill="midnightblue" stroke="midnightblue" points="304.233,-21.4884 313.718,-16.7672 303.359,-14.5432 304.233,-21.4884"/>
</g>
</g>
</svg>
