<?xml version="1.0" encoding="UTF-8" standalone="no"?>
<!DOCTYPE svg PUBLIC "-//W3C//DTD SVG 1.1//EN"
 "http://www.w3.org/Graphics/SVG/1.1/DTD/svg11.dtd">
<!-- Generated by graphviz version 2.40.1 (20161225.0304)
 -->
<!-- Title: tools::zipDir Pages: 1 -->
<svg width="254pt" height="66pt"
 viewBox="0.00 0.00 254.00 66.00" xmlns="http://www.w3.org/2000/svg" xmlns:xlink="http://www.w3.org/1999/xlink">
<g id="graph0" class="graph" transform="scale(1 1) rotate(0) translate(4 62)">
<title>tools::zipDir</title>
<polygon fill="#ffffff" stroke="transparent" points="-4,4 -4,-62 250,-62 250,4 -4,4"/>
<!-- Node303 -->
<g id="node1" class="node">
<title>Node303</title>
<polygon fill="#bfbfbf" stroke="#000000" points="0,-19.5 0,-38.5 69,-38.5 69,-19.5 0,-19.5"/>
<text text-anchor="middle" x="34.5" y="-26.5" font-family="Helvetica,sans-Serif" font-size="10.00" fill="#000000">tools::zipDir</text>
</g>
<!-- Node304 -->
<g id="node2" class="node">
<title>Node304</title>
<g id="a_node2"><a xlink:href="class_main_window.html#a34512b73d3342c5a5b59a8f420d4d4c4" target="_top" xlink:title="Archiver le projet courant. ">
<polygon fill="#ffffff" stroke="#000000" points="105,-38.5 105,-57.5 246,-57.5 246,-38.5 105,-38.5"/>
<text text-anchor="middle" x="175.5" y="-45.5" font-family="Helvetica,sans-Serif" font-size="10.00" fill="#000000">MainWindow::archiveProject</text>
</a>
</g>
</g>
<!-- Node303&#45;&gt;Node304 -->
<g id="edge1" class="edge">
<title>Node303&#45;&gt;Node304</title>
<path fill="none" stroke="#191970" d="M79.3779,-35.0474C87.5474,-36.1482 96.2482,-37.3207 104.95,-38.4933"/>
<polygon fill="#191970" stroke="#191970" points="79.7318,-31.5635 69.3539,-33.6966 78.7969,-38.5008 79.7318,-31.5635"/>
</g>
<!-- Node305 -->
<g id="node3" class="node">
<title>Node305</title>
<g id="a_node3"><a xlink:href="classtools.html#ac5f7b9c2e07af5dbb27169b256ac6300" target="_top" xlink:title="List un fichier entre deux lignes données et sur une largeur donnée. ">
<polygon fill="#ffffff" stroke="#000000" points="136.5,-.5 136.5,-19.5 214.5,-19.5 214.5,-.5 136.5,-.5"/>
<text text-anchor="middle" x="175.5" y="-7.5" font-family="Helvetica,sans-Serif" font-size="10.00" fill="#000000">tools::readFile</text>
</a>
</g>
</g>
<!-- Node303&#45;&gt;Node305 -->
<g id="edge2" class="edge">
<title>Node303&#45;&gt;Node305</title>
<path fill="none" stroke="#191970" d="M79.4813,-22.9387C97.7601,-20.4756 118.6845,-17.656 136.3246,-15.279"/>
<polygon fill="#191970" stroke="#191970" points="78.7969,-19.4992 69.3539,-24.3034 79.7318,-26.4365 78.7969,-19.4992"/>
</g>
</g>
</svg>
