<?xml version="1.0" encoding="UTF-8" standalone="no"?>
<!DOCTYPE svg PUBLIC "-//W3C//DTD SVG 1.1//EN"
 "http://www.w3.org/Graphics/SVG/1.1/DTD/svg11.dtd">
<!-- Generated by graphviz version 2.38.0 (20140413.2041)
 -->
<!-- Title: MainWindow::getConsoleCounter Pages: 1 -->
<svg width="375pt" height="78pt"
 viewBox="0.00 0.00 375.00 77.50" xmlns="http://www.w3.org/2000/svg" xmlns:xlink="http://www.w3.org/1999/xlink">
<g id="graph0" class="graph" transform="scale(1 1) rotate(0) translate(4 73.5)">
<title>MainWindow::getConsoleCounter</title>
<polygon fill="white" stroke="none" points="-4,4 -4,-73.5 371,-73.5 371,4 -4,4"/>
<!-- Node124 -->
<g id="node1" class="node"><title>Node124</title>
<polygon fill="#bfbfbf" stroke="black" points="0,-28 0,-47 173,-47 173,-28 0,-28"/>
<text text-anchor="middle" x="86.5" y="-35" font-family="Helvetica,sans-Serif" font-size="10.00">MainWindow::getConsoleCounter</text>
</g>
<!-- Node125 -->
<g id="node2" class="node"><title>Node125</title>
<g id="a_node2"><a xlink:href="class_main_window.html#a5e2163adcfd0eeaff834f65cb6a2419a" target="_top" xlink:title="Affiche l&#39;interface à la taille standard (réduite). ">
<polygon fill="white" stroke="black" points="209,-50 209,-69 367,-69 367,-50 209,-50"/>
<text text-anchor="middle" x="288" y="-57" font-family="Helvetica,sans-Serif" font-size="10.00">MainWindow::standardDisplay</text>
</a>
</g>
</g>
<!-- Node124&#45;&gt;Node125 -->
<g id="edge1" class="edge"><title>Node124&#45;&gt;Node125</title>
<path fill="none" stroke="midnightblue" d="M173.264,-46.9577C181.673,-47.885 190.217,-48.8272 198.651,-49.7573"/>
<polygon fill="midnightblue" stroke="midnightblue" points="198.545,-53.2666 208.868,-50.8839 199.312,-46.3088 198.545,-53.2666"/>
</g>
<!-- Node126 -->
<g id="node3" class="node"><title>Node126</title>
<g id="a_node3"><a xlink:href="class_main_window.html#affa76730fa370a3466b62a4caee721e3" target="_top" xlink:title="Actualise la liste des fichiers de projet .alt récents dans le menu Fichier. ">
<polygon fill="white" stroke="black" points="214,-0.5 214,-30.5 362,-30.5 362,-0.5 214,-0.5"/>
<text text-anchor="start" x="222" y="-18.5" font-family="Helvetica,sans-Serif" font-size="10.00">MainWindow::updateRecent</text>
<text text-anchor="middle" x="288" y="-7.5" font-family="Helvetica,sans-Serif" font-size="10.00">FileActions</text>
</a>
</g>
</g>
<!-- Node124&#45;&gt;Node126 -->
<g id="edge2" class="edge"><title>Node124&#45;&gt;Node126</title>
<path fill="none" stroke="midnightblue" d="M173.264,-28.0423C183.402,-26.9243 193.737,-25.7846 203.839,-24.6707"/>
<polygon fill="midnightblue" stroke="midnightblue" points="204.29,-28.1422 213.846,-23.5671 203.523,-21.1844 204.29,-28.1422"/>
</g>
</g>
</svg>
