<?xml version="1.0" encoding="UTF-8" standalone="no"?>
<!DOCTYPE svg PUBLIC "-//W3C//DTD SVG 1.1//EN"
 "http://www.w3.org/Graphics/SVG/1.1/DTD/svg11.dtd">
<!-- Generated by graphviz version 2.38.0 (20140413.2041)
 -->
<!-- Title: Altair::requestSaveProject Pages: 1 -->
<!--zoomable 533 -->
<svg id="main" version="1.1" xmlns="http://www.w3.org/2000/svg" xmlns:xlink="http://www.w3.org/1999/xlink" xml:space="preserve" onload="init(evt)">
<style type="text/css"><![CDATA[
.edge:hover path { stroke: red; }
.edge:hover polygon { stroke: red; fill: red; }
]]></style>
<script type="text/javascript"><![CDATA[
var edges = document.getElementsByTagName('g');
if (edges && edges.length) {
  for (var i=0;i<edges.length;i++) {
    if (edges[i].id.substr(0,4)=='edge') {
      edges[i].setAttribute('class','edge');
    }
  }
}
]]></script>
        <defs>
                <circle id="rim" cx="0" cy="0" r="7"/>
                <circle id="rim2" cx="0" cy="0" r="3.5"/>
                <g id="zoomPlus">
                        <use xlink:href="#rim" fill="#404040">
                                <set attributeName="fill" to="#808080" begin="zoomplus.mouseover" end="zoomplus.mouseout"/>
                        </use>
                        <path d="M-4,0h8M0,-4v8" fill="none" stroke="white" stroke-width="1.5" pointer-events="none"/>
                </g>
                <g id="zoomMin">
                        <use xlink:href="#rim" fill="#404040">
                                <set attributeName="fill" to="#808080" begin="zoomminus.mouseover" end="zoomminus.mouseout"/>
                        </use>
                        <path d="M-4,0h8" fill="none" stroke="white" stroke-width="1.5" pointer-events="none"/>
                </g>
                <g id="dirArrow">
                        <path fill="none" stroke="white" stroke-width="1.5" d="M0,-3.0v7 M-2.5,-0.5L0,-3.0L2.5,-0.5"/>
                </g>
               <g id="resetDef">
                       <use xlink:href="#rim2" fill="#404040">
                               <set attributeName="fill" to="#808080" begin="reset.mouseover" end="reset.mouseout"/>
                       </use>
               </g>
        </defs>

<script type="text/javascript">
var viewWidth = 1220;
var viewHeight = 533;
var sectionId = 'dynsection-58';
</script>
<script xlink:href="svgpan.js"/>
<svg id="graph" class="graph">
<g id="viewport">
<title>Altair::requestSaveProject</title>
<polygon fill="white" stroke="none" points="-4,4 -4,-528.5 1216,-528.5 1216,4 -4,4"/>
<!-- Node788 -->
<g id="node1" class="node"><title>Node788</title>
<polygon fill="#bfbfbf" stroke="black" points="0,-95.5 0,-114.5 131,-114.5 131,-95.5 0,-95.5"/>
<text text-anchor="middle" x="65.5" y="-102.5" font-family="Helvetica,sans-Serif" font-size="10.00">Altair::requestSaveProject</text>
</g>
<!-- Node789 -->
<g id="node2" class="node"><title>Node789</title>
<g id="a_node2"><a xlink:href="class_altair.html#a2eb0a89c3223b2df1c01d2b3b7d1c0eb" target="_top" xlink:title="Rafraichir le projet .alt après avoir actualisé l&#39;interface. ">
<polygon fill="white" stroke="black" points="167,-95.5 167,-114.5 272,-114.5 272,-95.5 167,-95.5"/>
<text text-anchor="middle" x="219.5" y="-102.5" font-family="Helvetica,sans-Serif" font-size="10.00">Altair::updateProject</text>
</a>
</g>
</g>
<!-- Node788&#45;&gt;Node789 -->
<g id="edge1" class="edge"><title>Node788&#45;&gt;Node789</title>
<path fill="none" stroke="midnightblue" d="M131.403,-105C139.778,-105 148.337,-105 156.661,-105"/>
<polygon fill="midnightblue" stroke="midnightblue" points="156.67,-108.5 166.67,-105 156.67,-101.5 156.67,-108.5"/>
</g>
<!-- Node790 -->
<g id="node3" class="node"><title>Node790</title>
<g id="a_node3"><a xlink:href="class_altair.html#ad0436bfddbdcdd19cc80154e02b4323c" target="_top" xlink:title="Assigner le fichier courant. ">
<polygon fill="white" stroke="black" points="326,-237.5 326,-256.5 433,-256.5 433,-237.5 326,-237.5"/>
<text text-anchor="middle" x="379.5" y="-244.5" font-family="Helvetica,sans-Serif" font-size="10.00">Altair::setCurrentFile</text>
</a>
</g>
</g>
<!-- Node789&#45;&gt;Node790 -->
<g id="edge2" class="edge"><title>Node789&#45;&gt;Node790</title>
<path fill="none" stroke="midnightblue" d="M229.301,-114.669C244.647,-131.337 277.574,-166.264 308,-193 323.633,-206.737 342.381,-221.001 356.612,-231.417"/>
<polygon fill="midnightblue" stroke="midnightblue" points="354.67,-234.332 364.822,-237.366 358.778,-228.664 354.67,-234.332"/>
</g>
<!-- Node792 -->
<g id="node5" class="node"><title>Node792</title>
<g id="a_node5"><a xlink:href="class_main_window.html#ab58113ae4ed9a73ec3e3e5f83c98dfcc" target="_top" xlink:title="Vérifie si par défaut le projet .alt doit être enregistré à chaque modification de l&#39;état de l&#39;interf...">
<polygon fill="white" stroke="black" points="309.5,-153 309.5,-183 449.5,-183 449.5,-153 309.5,-153"/>
<text text-anchor="start" x="317.5" y="-171" font-family="Helvetica,sans-Serif" font-size="10.00">MainWindow::isDefaultSave</text>
<text text-anchor="middle" x="379.5" y="-160" font-family="Helvetica,sans-Serif" font-size="10.00">ProjectChecked</text>
</a>
</g>
</g>
<!-- Node789&#45;&gt;Node792 -->
<g id="edge4" class="edge"><title>Node789&#45;&gt;Node792</title>
<path fill="none" stroke="midnightblue" d="M241.547,-114.626C259.165,-122.567 285.04,-133.956 308,-143 313.496,-145.165 319.264,-147.35 325.035,-149.479"/>
<polygon fill="midnightblue" stroke="midnightblue" points="324.107,-152.866 334.701,-152.997 326.501,-146.288 324.107,-152.866"/>
</g>
<!-- Node793 -->
<g id="node6" class="node"><title>Node793</title>
<g id="a_node6"><a xlink:href="class_altair.html#a43120f9909d0284074119529a03df85b" target="_top" xlink:title="Ecrit le projet XML d&#39;extension .alt contenant les références des donnéees de paye. ">
<polygon fill="white" stroke="black" points="323,-76.5 323,-95.5 436,-95.5 436,-76.5 323,-76.5"/>
<text text-anchor="middle" x="379.5" y="-83.5" font-family="Helvetica,sans-Serif" font-size="10.00">Altair::writeProjectFile</text>
</a>
</g>
</g>
<!-- Node789&#45;&gt;Node793 -->
<g id="edge5" class="edge"><title>Node789&#45;&gt;Node793</title>
<path fill="none" stroke="midnightblue" d="M272.235,-98.7787C285.144,-97.2263 299.161,-95.5408 312.651,-93.9186"/>
<polygon fill="midnightblue" stroke="midnightblue" points="313.326,-97.3627 322.837,-92.6937 312.49,-90.4127 313.326,-97.3627"/>
</g>
<!-- Node798 -->
<g id="node11" class="node"><title>Node798</title>
<g id="a_node11"><a xlink:href="struct_abstract.html#af7b700041c9d75de3f642f15ece3e6ae" target="_top" xlink:title="Réinitialiser toutes les valeurs du de la table de hachage Hash::wrapper. ">
<polygon fill="white" stroke="black" points="339.5,-38.5 339.5,-57.5 419.5,-57.5 419.5,-38.5 339.5,-38.5"/>
<text text-anchor="middle" x="379.5" y="-45.5" font-family="Helvetica,sans-Serif" font-size="10.00">Abstract::initH</text>
</a>
</g>
</g>
<!-- Node789&#45;&gt;Node798 -->
<g id="edge11" class="edge"><title>Node789&#45;&gt;Node798</title>
<path fill="none" stroke="midnightblue" d="M240.324,-95.3963C257.846,-87.1496 284.238,-75.3115 308,-67 314.91,-64.583 322.29,-62.2896 329.577,-60.187"/>
<polygon fill="midnightblue" stroke="midnightblue" points="330.711,-63.5043 339.402,-57.4445 328.829,-56.762 330.711,-63.5043"/>
</g>
<!-- Node799 -->
<g id="node12" class="node"><title>Node799</title>
<g id="a_node12"><a xlink:href="classtools.html#a89d2cd8ffcaed8423439c16d1ee59ab0" target="_top" xlink:title="tools::path_access">
<polygon fill="white" stroke="black" points="330,-0.5 330,-19.5 429,-19.5 429,-0.5 330,-0.5"/>
<text text-anchor="middle" x="379.5" y="-7.5" font-family="Helvetica,sans-Serif" font-size="10.00">tools::path_access</text>
</a>
</g>
</g>
<!-- Node789&#45;&gt;Node799 -->
<g id="edge12" class="edge"><title>Node789&#45;&gt;Node799</title>
<path fill="none" stroke="midnightblue" d="M228.905,-95.2663C243.407,-79.0841 274.787,-46.6819 308,-29 312.252,-26.7363 316.795,-24.7261 321.449,-22.9438"/>
<polygon fill="midnightblue" stroke="midnightblue" points="322.798,-26.1804 331.1,-19.5977 320.505,-19.5667 322.798,-26.1804"/>
</g>
<!-- Node800 -->
<g id="node13" class="node"><title>Node800</title>
<g id="a_node13"><a xlink:href="class_altair.html#ac9d7d8e7cebf70212818f1a8ba7d7d78" target="_top" xlink:title="Rafraîchit le gestionnaire de projet à la droite de l&#39;interface. Fonction globale par défaut...">
<polygon fill="white" stroke="black" points="308,-114.5 308,-133.5 451,-133.5 451,-114.5 308,-114.5"/>
<text text-anchor="middle" x="379.5" y="-121.5" font-family="Helvetica,sans-Serif" font-size="10.00">Altair::refreshProjectManager</text>
</a>
</g>
</g>
<!-- Node789&#45;&gt;Node800 -->
<g id="edge13" class="edge"><title>Node789&#45;&gt;Node800</title>
<path fill="none" stroke="midnightblue" d="M272.235,-111.221C280.45,-112.209 289.114,-113.251 297.805,-114.296"/>
<polygon fill="midnightblue" stroke="midnightblue" points="297.648,-117.802 307.995,-115.522 298.484,-110.853 297.648,-117.802"/>
</g>
<!-- Node791 -->
<g id="node4" class="node"><title>Node791</title>
<g id="a_node4"><a xlink:href="class_main_window.html#affa76730fa370a3466b62a4caee721e3" target="_top" xlink:title="Actualise la liste des fichiers de projet .alt récents dans le menu Fichier. ">
<polygon fill="white" stroke="black" points="495.5,-286 495.5,-316 635.5,-316 635.5,-286 495.5,-286"/>
<text text-anchor="start" x="503.5" y="-304" font-family="Helvetica,sans-Serif" font-size="10.00">MainWindow::updateRecent</text>
<text text-anchor="middle" x="565.5" y="-293" font-family="Helvetica,sans-Serif" font-size="10.00">FileActions</text>
</a>
</g>
</g>
<!-- Node790&#45;&gt;Node791 -->
<g id="edge3" class="edge"><title>Node790&#45;&gt;Node791</title>
<path fill="none" stroke="midnightblue" d="M412.972,-256.53C438.014,-263.879 473.369,-274.255 503.63,-283.136"/>
<polygon fill="midnightblue" stroke="midnightblue" points="502.675,-286.503 513.256,-285.961 504.647,-279.787 502.675,-286.503"/>
</g>
<!-- Node794 -->
<g id="node7" class="node"><title>Node794</title>
<g id="a_node7"><a xlink:href="class_altair.html#a9df2266cd3e2a9905e74bb41c1f9415d" target="_top" xlink:title="Remplace un nom de projet vide par un nom par défaut. ">
<polygon fill="white" stroke="black" points="487,-76.5 487,-95.5 644,-95.5 644,-76.5 487,-76.5"/>
<text text-anchor="middle" x="565.5" y="-83.5" font-family="Helvetica,sans-Serif" font-size="10.00">Altair::checkEmptyProjectName</text>
</a>
</g>
</g>
<!-- Node793&#45;&gt;Node794 -->
<g id="edge6" class="edge"><title>Node793&#45;&gt;Node794</title>
<path fill="none" stroke="midnightblue" d="M436.205,-86C449.058,-86 463.035,-86 476.881,-86"/>
<polygon fill="midnightblue" stroke="midnightblue" points="476.921,-89.5001 486.921,-86 476.921,-82.5001 476.921,-89.5001"/>
</g>
<!-- Node795 -->
<g id="node8" class="node"><title>Node795</title>
<g id="a_node8"><a xlink:href="class_altair.html#a2f8d129da914d8b9ab3cdaf195f92bd1" target="_top" xlink:title="Lance Altair::makeParserString sur le premier item courant de abstractWidgetList (celui des données d...">
<polygon fill="white" stroke="black" points="507.5,-38.5 507.5,-57.5 623.5,-57.5 623.5,-38.5 507.5,-38.5"/>
<text text-anchor="middle" x="565.5" y="-45.5" font-family="Helvetica,sans-Serif" font-size="10.00">Altair::makeDataString</text>
</a>
</g>
</g>
<!-- Node793&#45;&gt;Node795 -->
<g id="edge7" class="edge"><title>Node793&#45;&gt;Node795</title>
<path fill="none" stroke="midnightblue" d="M426.931,-76.411C451.649,-71.3061 482.239,-64.9887 508.292,-59.6082"/>
<polygon fill="midnightblue" stroke="midnightblue" points="509.317,-62.9703 518.403,-57.5201 507.902,-56.115 509.317,-62.9703"/>
</g>
<!-- Node797 -->
<g id="node10" class="node"><title>Node797</title>
<g id="a_node10"><a xlink:href="class_altair.html#adb7f94af778c4b6874abab74c8ef4016" target="_top" xlink:title="Lance Altair::makeParserString sur l&#39;ensemble de la liste des FWidgets sauf le premier (tous les widg...">
<polygon fill="white" stroke="black" points="501.5,-0.5 501.5,-19.5 629.5,-19.5 629.5,-0.5 501.5,-0.5"/>
<text text-anchor="middle" x="565.5" y="-7.5" font-family="Helvetica,sans-Serif" font-size="10.00">Altair::makeSystemString</text>
</a>
</g>
</g>
<!-- Node793&#45;&gt;Node797 -->
<g id="edge9" class="edge"><title>Node793&#45;&gt;Node797</title>
<path fill="none" stroke="midnightblue" d="M429.71,-76.4936C437.125,-74.0099 444.468,-70.8963 451,-67 470.98,-55.0822 466.885,-40.689 487,-29 490.878,-26.7466 495.014,-24.7592 499.282,-23.0067"/>
<polygon fill="midnightblue" stroke="midnightblue" points="500.594,-26.2535 508.785,-19.533 498.191,-19.679 500.594,-26.2535"/>
</g>
<!-- Node796 -->
<g id="node9" class="node"><title>Node796</title>
<g id="a_node9"><a xlink:href="class_altair.html#af73cbf33a9e3ff76896a8099b4b154fe" target="_top" xlink:title="Crée la chaîne QString permettant d&#39;écrire un projet XML d&#39;extension .alt Parcourt l&#39;ensemble de la l...">
<polygon fill="white" stroke="black" points="693.5,-19.5 693.5,-38.5 816.5,-38.5 816.5,-19.5 693.5,-19.5"/>
<text text-anchor="middle" x="755" y="-26.5" font-family="Helvetica,sans-Serif" font-size="10.00">Altair::makeParserString</text>
</a>
</g>
</g>
<!-- Node795&#45;&gt;Node796 -->
<g id="edge8" class="edge"><title>Node795&#45;&gt;Node796</title>
<path fill="none" stroke="midnightblue" d="M623.52,-42.222C642.328,-40.3161 663.48,-38.1727 683.19,-36.1755"/>
<polygon fill="midnightblue" stroke="midnightblue" points="683.749,-39.6368 693.345,-35.1464 683.043,-32.6724 683.749,-39.6368"/>
</g>
<!-- Node797&#45;&gt;Node796 -->
<g id="edge10" class="edge"><title>Node797&#45;&gt;Node796</title>
<path fill="none" stroke="midnightblue" d="M629.718,-16.406C646.87,-18.1442 665.553,-20.0374 683.099,-21.8154"/>
<polygon fill="midnightblue" stroke="midnightblue" points="682.976,-25.3208 693.278,-22.8469 683.682,-18.3565 682.976,-25.3208"/>
</g>
<!-- Node800&#45;&gt;Node794 -->
<g id="edge14" class="edge"><title>Node800&#45;&gt;Node794</title>
<path fill="none" stroke="midnightblue" d="M426.931,-114.411C451.649,-109.306 482.239,-102.989 508.292,-97.6082"/>
<polygon fill="midnightblue" stroke="midnightblue" points="509.317,-100.97 518.403,-95.5201 507.902,-94.115 509.317,-100.97"/>
</g>
<!-- Node801 -->
<g id="node14" class="node"><title>Node801</title>
<g id="a_node14"><a xlink:href="class_altair.html#a41b6c8a35ed8ba14c7c0ce2e6994655f" target="_top" xlink:title="Décode le projet représenté par un pointeur vers QFile ou similaire. ">
<polygon fill="white" stroke="black" points="507.5,-209.5 507.5,-228.5 623.5,-228.5 623.5,-209.5 507.5,-209.5"/>
<text text-anchor="middle" x="565.5" y="-216.5" font-family="Helvetica,sans-Serif" font-size="10.00">Altair::parseProjectFile</text>
</a>
</g>
</g>
<!-- Node800&#45;&gt;Node801 -->
<g id="edge15" class="edge"><title>Node800&#45;&gt;Node801</title>
<path fill="none" stroke="midnightblue" d="M422.272,-133.559C431.912,-136.388 441.981,-139.862 451,-144 486.093,-160.102 522.65,-186.223 544.491,-203.001"/>
<polygon fill="midnightblue" stroke="midnightblue" points="542.6,-205.965 552.638,-209.353 546.904,-200.444 542.6,-205.965"/>
</g>
<!-- Node807 -->
<g id="node20" class="node"><title>Node807</title>
<g id="a_node20"><a xlink:href="class_altair.html#a4995cdc9462838289b5b1df75edba552" target="_top" xlink:title="Ajouter du texte à l&#39;onglet des messages. ">
<polygon fill="white" stroke="black" points="902,-7.5 902,-26.5 997,-26.5 997,-7.5 902,-7.5"/>
<text text-anchor="middle" x="949.5" y="-14.5" font-family="Helvetica,sans-Serif" font-size="10.00">Altair::textAppend</text>
</a>
</g>
</g>
<!-- Node800&#45;&gt;Node807 -->
<g id="edge41" class="edge"><title>Node800&#45;&gt;Node807</title>
<path fill="none" stroke="midnightblue" d="M451.203,-123.053C504.559,-121.338 579.365,-116.794 644,-105 745.263,-86.5232 766.927,-66.9307 866,-39 877.704,-35.7005 890.378,-32.2566 902.199,-29.0997"/>
<polygon fill="midnightblue" stroke="midnightblue" points="903.122,-32.4759 911.888,-26.5248 901.324,-25.7107 903.122,-32.4759"/>
</g>
<!-- Node814 -->
<g id="node27" class="node"><title>Node814</title>
<g id="a_node27"><a xlink:href="class_altair.html#abf7d1895e52f7b8d7d26e4b5a0e6146a" target="_top" xlink:title="Rafraîchit le gestionnaire de projet à la droite de l&#39;interface. ">
<polygon fill="white" stroke="black" points="683.5,-374 683.5,-404 826.5,-404 826.5,-374 683.5,-374"/>
<text text-anchor="start" x="691.5" y="-392" font-family="Helvetica,sans-Serif" font-size="10.00">Altair::refreshProjectManager</text>
<text text-anchor="middle" x="755" y="-381" font-family="Helvetica,sans-Serif" font-size="10.00">Values</text>
</a>
</g>
</g>
<!-- Node800&#45;&gt;Node814 -->
<g id="edge40" class="edge"><title>Node800&#45;&gt;Node814</title>
<path fill="none" stroke="midnightblue" d="M434.509,-133.512C440.533,-136.194 446.212,-139.621 451,-144 484.014,-174.19 453.493,-208.358 487,-238 540.851,-285.639 581.651,-241.195 644,-277 663.896,-288.426 663.943,-297.612 680,-314 697.333,-331.691 717.032,-351.648 731.745,-366.526"/>
<polygon fill="midnightblue" stroke="midnightblue" points="729.424,-369.157 738.946,-373.804 734.401,-364.234 729.424,-369.157"/>
</g>
<!-- Node802 -->
<g id="node15" class="node"><title>Node802</title>
<g id="a_node15"><a xlink:href="class_altair.html#a8b7b1fa3e0b567dc1d4721bf88087a68" target="_top" xlink:title="Parcourt l&#39;ensemble des widgets fonctionnels Abstract::abstractWidgetList et actualise leur statut in...">
<polygon fill="white" stroke="black" points="688,-152.5 688,-171.5 822,-171.5 822,-152.5 688,-152.5"/>
<text text-anchor="middle" x="755" y="-159.5" font-family="Helvetica,sans-Serif" font-size="10.00">Altair::assignWidgetValues</text>
</a>
</g>
</g>
<!-- Node801&#45;&gt;Node802 -->
<g id="edge16" class="edge"><title>Node801&#45;&gt;Node802</title>
<path fill="none" stroke="midnightblue" d="M597.883,-209.459C629.385,-199.883 678.081,-185.079 712.703,-174.554"/>
<polygon fill="midnightblue" stroke="midnightblue" points="713.965,-177.829 722.514,-171.572 711.929,-171.132 713.965,-177.829"/>
</g>
<!-- Node808 -->
<g id="node21" class="node"><title>Node808</title>
<g id="a_node21"><a xlink:href="class_hash.html#a2ac10203aa8b32a04d9088e08ddbaab4" target="_top" xlink:title="Hash::createReference">
<polygon fill="white" stroke="black" points="696,-285.5 696,-304.5 814,-304.5 814,-285.5 696,-285.5"/>
<text text-anchor="middle" x="755" y="-292.5" font-family="Helvetica,sans-Serif" font-size="10.00">Hash::createReference</text>
</a>
</g>
</g>
<!-- Node801&#45;&gt;Node808 -->
<g id="edge22" class="edge"><title>Node801&#45;&gt;Node808</title>
<path fill="none" stroke="midnightblue" d="M609.337,-228.592C621.018,-232.173 633.372,-236.899 644,-243 662.824,-253.806 660.917,-265.658 680,-276 684.224,-278.289 688.733,-280.311 693.364,-282.095"/>
<polygon fill="midnightblue" stroke="midnightblue" points="692.39,-285.461 702.985,-285.433 694.684,-278.848 692.39,-285.461"/>
</g>
<!-- Node809 -->
<g id="node22" class="node"><title>Node809</title>
<g id="a_node22"><a xlink:href="class_altair.html#a3f6193de22ed2034c9b6dbe7a8ac4d97" target="_top" xlink:title="Lors du décodage du projet XML .alt, décoder le noed courant et renvoyer l&#39;empilement des valeurs en ...">
<polygon fill="white" stroke="black" points="709,-209.5 709,-228.5 801,-228.5 801,-209.5 709,-209.5"/>
<text text-anchor="middle" x="755" y="-216.5" font-family="Helvetica,sans-Serif" font-size="10.00">Altair::parseEntry</text>
</a>
</g>
</g>
<!-- Node801&#45;&gt;Node809 -->
<g id="edge23" class="edge"><title>Node801&#45;&gt;Node809</title>
<path fill="none" stroke="midnightblue" d="M623.52,-219C647.358,-219 674.961,-219 698.622,-219"/>
<polygon fill="midnightblue" stroke="midnightblue" points="698.842,-222.5 708.842,-219 698.842,-215.5 698.842,-222.5"/>
</g>
<!-- Node801&#45;&gt;Node814 -->
<g id="edge29" class="edge"><title>Node801&#45;&gt;Node814</title>
<path fill="none" stroke="midnightblue" d="M617.852,-228.528C627.256,-231.966 636.465,-236.641 644,-243 671.039,-265.817 659.329,-285.287 680,-314 694.106,-333.594 713.338,-352.921 728.661,-367.047"/>
<polygon fill="midnightblue" stroke="midnightblue" points="726.506,-369.818 736.269,-373.934 731.204,-364.628 726.506,-369.818"/>
</g>
<!-- Node821 -->
<g id="node34" class="node"><title>Node821</title>
<g id="a_node34"><a xlink:href="class_altair.html#a20528df591deee5ad32f28996ba8dc35" target="_top" xlink:title="Raccourcit les chemins dans les onglets en se limitant au non de fichier et les présente &#160;en surligna...">
<polygon fill="white" stroke="black" points="680,-247.5 680,-266.5 830,-266.5 830,-247.5 680,-247.5"/>
<text text-anchor="middle" x="755" y="-254.5" font-family="Helvetica,sans-Serif" font-size="10.00">Altair::refreshRowPresentation</text>
</a>
</g>
</g>
<!-- Node801&#45;&gt;Node821 -->
<g id="edge39" class="edge"><title>Node801&#45;&gt;Node821</title>
<path fill="none" stroke="midnightblue" d="M613.814,-228.589C639.114,-233.716 670.45,-240.067 697.075,-245.463"/>
<polygon fill="midnightblue" stroke="midnightblue" points="696.53,-248.924 707.026,-247.48 697.921,-242.063 696.53,-248.924"/>
</g>
<!-- Node803 -->
<g id="node16" class="node"><title>Node803</title>
<g id="a_node16"><a xlink:href="class_f_abstract_widget.html#ae6ba84e8ed8a54dc8121245f35f568fe" target="_top" xlink:title="Retourne la clé de hashage de Hash::wrapper correspondant au widget. ">
<polygon fill="white" stroke="black" points="874.5,-171.5 874.5,-190.5 1024.5,-190.5 1024.5,-171.5 874.5,-171.5"/>
<text text-anchor="middle" x="949.5" y="-178.5" font-family="Helvetica,sans-Serif" font-size="10.00">FAbstractWidget::getHashKey</text>
</a>
</g>
</g>
<!-- Node802&#45;&gt;Node803 -->
<g id="edge17" class="edge"><title>Node802&#45;&gt;Node803</title>
<path fill="none" stroke="midnightblue" d="M822.248,-168.539C835.725,-169.869 850.074,-171.285 864.084,-172.668"/>
<polygon fill="midnightblue" stroke="midnightblue" points="863.912,-176.168 874.208,-173.667 864.6,-169.202 863.912,-176.168"/>
</g>
<!-- Node804 -->
<g id="node17" class="node"><title>Node804</title>
<g id="a_node17"><a xlink:href="struct_abstract.html#a634c4a8152edbeb8d96d2ca8f30e1025" target="_top" xlink:title="Récupère toutes les clés de hachage (de Hash::wrapper) des FWidgets qui sont dans le vecteur FAbstrac...">
<polygon fill="white" stroke="black" points="898,-133.5 898,-152.5 1001,-152.5 1001,-133.5 898,-133.5"/>
<text text-anchor="middle" x="949.5" y="-140.5" font-family="Helvetica,sans-Serif" font-size="10.00">Abstract::hashKeys</text>
</a>
</g>
</g>
<!-- Node802&#45;&gt;Node804 -->
<g id="edge18" class="edge"><title>Node802&#45;&gt;Node804</title>
<path fill="none" stroke="midnightblue" d="M822.248,-155.461C843.557,-153.358 867.047,-151.04 887.927,-148.979"/>
<polygon fill="midnightblue" stroke="midnightblue" points="888.339,-152.455 897.946,-147.99 887.651,-145.489 888.339,-152.455"/>
</g>
<!-- Node805 -->
<g id="node18" class="node"><title>Node805</title>
<g id="a_node18"><a xlink:href="class_f_abstract_widget.html#a88c229861e7973810c6ac979d5526c2d" target="_top" xlink:title="FAbstractWidget::setWidget\lFromXml">
<polygon fill="white" stroke="black" points="879.5,-84 879.5,-114 1019.5,-114 1019.5,-84 879.5,-84"/>
<text text-anchor="start" x="887.5" y="-102" font-family="Helvetica,sans-Serif" font-size="10.00">FAbstractWidget::setWidget</text>
<text text-anchor="middle" x="949.5" y="-91" font-family="Helvetica,sans-Serif" font-size="10.00">FromXml</text>
</a>
</g>
</g>
<!-- Node802&#45;&gt;Node805 -->
<g id="edge19" class="edge"><title>Node802&#45;&gt;Node805</title>
<path fill="none" stroke="midnightblue" d="M786.736,-152.466C800.09,-148.212 815.878,-143.031 830,-138 846.172,-132.238 849.773,-129.605 866,-124 872.711,-121.682 879.767,-119.365 886.811,-117.128"/>
<polygon fill="midnightblue" stroke="midnightblue" points="887.876,-120.462 896.374,-114.134 885.785,-113.781 887.876,-120.462"/>
</g>
<!-- Node806 -->
<g id="node19" class="node"><title>Node806</title>
<g id="a_node19"><a xlink:href="class_altair.html#a78a2870bb9b316c5ad6bcbd64471eeb8" target="_top" xlink:title="Renvoie la taille des données exportées. ">
<polygon fill="white" stroke="black" points="1109,-341.5 1109,-360.5 1172,-360.5 1172,-341.5 1109,-341.5"/>
<text text-anchor="middle" x="1140.5" y="-348.5" font-family="Helvetica,sans-Serif" font-size="10.00">Altair::size</text>
</a>
</g>
</g>
<!-- Node802&#45;&gt;Node806 -->
<g id="edge20" class="edge"><title>Node802&#45;&gt;Node806</title>
<path fill="none" stroke="midnightblue" d="M803.266,-152.417C812.79,-148.97 822.245,-144.305 830,-138 855.022,-117.656 838.107,-91.1867 866,-75 930.196,-37.7459 976.995,-26.2931 1033,-75 1120.03,-150.688 992.657,-245.545 1069,-332 1076.58,-340.584 1087.59,-345.476 1098.67,-348.212"/>
<polygon fill="midnightblue" stroke="midnightblue" points="1098.28,-351.702 1108.76,-350.163 1099.6,-344.829 1098.28,-351.702"/>
</g>
<!-- Node802&#45;&gt;Node807 -->
<g id="edge21" class="edge"><title>Node802&#45;&gt;Node807</title>
<path fill="none" stroke="midnightblue" d="M806.386,-152.466C815.044,-149.03 823.372,-144.357 830,-138 863.188,-106.17 832.33,-72.3198 866,-41 873.372,-34.1422 882.592,-29.2323 892.174,-25.7198"/>
<polygon fill="midnightblue" stroke="midnightblue" points="893.35,-29.0183 901.82,-22.6528 891.229,-22.3474 893.35,-29.0183"/>
</g>
<!-- Node810 -->
<g id="node23" class="node"><title>Node810</title>
<g id="a_node23"><a xlink:href="class_f_list_frame.html#a7ecbe60018d55d1a1352c5fd24c5e72e" target="_top" xlink:title="FListFrame::setTabLabels">
<polygon fill="white" stroke="black" points="884,-303.5 884,-322.5 1015,-322.5 1015,-303.5 884,-303.5"/>
<text text-anchor="middle" x="949.5" y="-310.5" font-family="Helvetica,sans-Serif" font-size="10.00">FListFrame::setTabLabels</text>
</a>
</g>
</g>
<!-- Node809&#45;&gt;Node810 -->
<g id="edge24" class="edge"><title>Node809&#45;&gt;Node810</title>
<path fill="none" stroke="midnightblue" d="M801.025,-224.891C811.206,-227.708 821.505,-231.866 830,-238 853.988,-255.321 841.798,-276.979 866,-294 868.852,-296.005 871.883,-297.802 875.036,-299.412"/>
<polygon fill="midnightblue" stroke="midnightblue" points="873.638,-302.62 884.198,-303.471 876.473,-296.221 873.638,-302.62"/>
</g>
<!-- Node812 -->
<g id="node25" class="node"><title>Node812</title>
<g id="a_node25"><a xlink:href="namespace_xml_method.html#abe26f53c2028527b0ebea361faa85221" target="_top" xlink:title="Empile les données pour un noeud donné, pour une profondeur d&#39;enchassement donnée. ">
<polygon fill="white" stroke="black" points="891,-265.5 891,-284.5 1008,-284.5 1008,-265.5 891,-265.5"/>
<text text-anchor="middle" x="949.5" y="-272.5" font-family="Helvetica,sans-Serif" font-size="10.00">XmlMethod::stackData</text>
</a>
</g>
</g>
<!-- Node809&#45;&gt;Node812 -->
<g id="edge26" class="edge"><title>Node809&#45;&gt;Node812</title>
<path fill="none" stroke="midnightblue" d="M799.52,-228.533C809.653,-231.202 820.308,-234.38 830,-238 846.758,-244.26 849.166,-249.95 866,-256 873.117,-258.558 880.706,-260.855 888.289,-262.893"/>
<polygon fill="midnightblue" stroke="midnightblue" points="887.661,-266.344 898.215,-265.422 889.389,-259.561 887.661,-266.344"/>
</g>
<!-- Node813 -->
<g id="node26" class="node"><title>Node813</title>
<g id="a_node26"><a xlink:href="class_f_string_list.html#a71ec48a52b6ca4ffe89400d66f3ff634" target="_top" xlink:title="FStringList::toInt">
<polygon fill="white" stroke="black" points="905,-209.5 905,-228.5 994,-228.5 994,-209.5 905,-209.5"/>
<text text-anchor="middle" x="949.5" y="-216.5" font-family="Helvetica,sans-Serif" font-size="10.00">FStringList::toInt</text>
</a>
</g>
</g>
<!-- Node809&#45;&gt;Node813 -->
<g id="edge27" class="edge"><title>Node809&#45;&gt;Node813</title>
<path fill="none" stroke="midnightblue" d="M801.133,-219C829.165,-219 865.348,-219 894.845,-219"/>
<polygon fill="midnightblue" stroke="midnightblue" points="894.975,-222.5 904.975,-219 894.975,-215.5 894.975,-222.5"/>
</g>
<!-- Node811 -->
<g id="node24" class="node"><title>Node811</title>
<g id="a_node24"><a xlink:href="class_f_list_widget.html#aac6eaaeb9946354f743394b54c84a6a7" target="_top" xlink:title="FListWidget::setTabLabels">
<polygon fill="white" stroke="black" points="1073.5,-303.5 1073.5,-322.5 1207.5,-322.5 1207.5,-303.5 1073.5,-303.5"/>
<text text-anchor="middle" x="1140.5" y="-310.5" font-family="Helvetica,sans-Serif" font-size="10.00">FListWidget::setTabLabels</text>
</a>
</g>
</g>
<!-- Node810&#45;&gt;Node811 -->
<g id="edge25" class="edge"><title>Node810&#45;&gt;Node811</title>
<path fill="none" stroke="midnightblue" d="M1015.01,-313C1030.45,-313 1047.08,-313 1063.01,-313"/>
<polygon fill="midnightblue" stroke="midnightblue" points="1063.35,-316.5 1073.35,-313 1063.35,-309.5 1063.35,-316.5"/>
</g>
<!-- Node813&#45;&gt;Node813 -->
<g id="edge28" class="edge"><title>Node813&#45;&gt;Node813</title>
<path fill="none" stroke="midnightblue" d="M920.215,-228.757C905.969,-237.565 915.73,-247 949.5,-247 973.244,-247 985.119,-242.336 985.125,-236.504"/>
<polygon fill="midnightblue" stroke="midnightblue" points="987.827,-234.279 978.785,-228.757 982.409,-238.712 987.827,-234.279"/>
</g>
<!-- Node815 -->
<g id="node28" class="node"><title>Node815</title>
<g id="a_node28"><a xlink:href="namespace_xml_method.html#a796c4f03d9e7a8057f0102b87eecbd3e" target="_top" xlink:title="XmlMethod::displayFirstLevelData">
<polygon fill="white" stroke="black" points="866,-417.5 866,-436.5 1033,-436.5 1033,-417.5 866,-417.5"/>
<text text-anchor="middle" x="949.5" y="-424.5" font-family="Helvetica,sans-Serif" font-size="10.00">XmlMethod::displayFirstLevelData</text>
</a>
</g>
</g>
<!-- Node814&#45;&gt;Node815 -->
<g id="edge30" class="edge"><title>Node814&#45;&gt;Node815</title>
<path fill="none" stroke="midnightblue" d="M826.587,-402.934C847.516,-407.066 870.192,-411.542 890.246,-415.5"/>
<polygon fill="midnightblue" stroke="midnightblue" points="889.676,-418.956 900.165,-417.459 891.032,-412.088 889.676,-418.956"/>
</g>
<!-- Node816 -->
<g id="node29" class="node"><title>Node816</title>
<g id="a_node29"><a xlink:href="namespace_xml_method.html#aad1e553eb1ec6f1bb128cc6744cba9e3" target="_top" xlink:title="XmlMethod::displayTextData">
<polygon fill="white" stroke="black" points="1069,-455.5 1069,-474.5 1212,-474.5 1212,-455.5 1069,-455.5"/>
<text text-anchor="middle" x="1140.5" y="-462.5" font-family="Helvetica,sans-Serif" font-size="10.00">XmlMethod::displayTextData</text>
</a>
</g>
</g>
<!-- Node814&#45;&gt;Node816 -->
<g id="edge34" class="edge"><title>Node814&#45;&gt;Node816</title>
<path fill="none" stroke="midnightblue" d="M778.453,-404.146C799.915,-417.748 833.695,-436.93 866,-446 929.092,-463.714 1003.43,-467.87 1058.67,-467.928"/>
<polygon fill="midnightblue" stroke="midnightblue" points="1058.76,-471.428 1068.75,-467.893 1058.74,-464.428 1058.76,-471.428"/>
</g>
<!-- Node817 -->
<g id="node30" class="node"><title>Node817</title>
<g id="a_node30"><a xlink:href="namespace_xml_method.html#ac0a708c4bc4c55df24e60816d69a90cf" target="_top" xlink:title="XmlMethod::displaySecond\lLevelData">
<polygon fill="white" stroke="black" points="881.5,-494 881.5,-524 1017.5,-524 1017.5,-494 881.5,-494"/>
<text text-anchor="start" x="889.5" y="-512" font-family="Helvetica,sans-Serif" font-size="10.00">XmlMethod::displaySecond</text>
<text text-anchor="middle" x="949.5" y="-501" font-family="Helvetica,sans-Serif" font-size="10.00">LevelData</text>
</a>
</g>
</g>
<!-- Node814&#45;&gt;Node817 -->
<g id="edge32" class="edge"><title>Node814&#45;&gt;Node817</title>
<path fill="none" stroke="midnightblue" d="M771.142,-404.252C791.276,-423.821 828.682,-457.769 866,-479 873.236,-483.117 881.14,-486.842 889.098,-490.157"/>
<polygon fill="midnightblue" stroke="midnightblue" points="887.842,-493.424 898.428,-493.857 890.423,-486.917 887.842,-493.424"/>
</g>
<!-- Node818 -->
<g id="node31" class="node"><title>Node818</title>
<g id="a_node31"><a xlink:href="class_f_list_frame.html#a58337134c45f052ad6bb45c014fd5c3f" target="_top" xlink:title="Récupère les titres d&#39;onglet. ">
<polygon fill="white" stroke="black" points="884,-379.5 884,-398.5 1015,-398.5 1015,-379.5 884,-379.5"/>
<text text-anchor="middle" x="949.5" y="-386.5" font-family="Helvetica,sans-Serif" font-size="10.00">FListFrame::getTabLabels</text>
</a>
</g>
</g>
<!-- Node814&#45;&gt;Node818 -->
<g id="edge35" class="edge"><title>Node814&#45;&gt;Node818</title>
<path fill="none" stroke="midnightblue" d="M826.587,-389C841.991,-389 858.341,-389 873.895,-389"/>
<polygon fill="midnightblue" stroke="midnightblue" points="873.984,-392.5 883.984,-389 873.984,-385.5 873.984,-392.5"/>
</g>
<!-- Node820 -->
<g id="node33" class="node"><title>Node820</title>
<g id="a_node33"><a xlink:href="class_altair.html#adc79f280e4f580298a8dd80e2f7cf712" target="_top" xlink:title="Parcourt la table de chachage Hash::wrapper dans laquelle sont stockés à la clé &quot;XHL&quot; les chemins des...">
<polygon fill="white" stroke="black" points="871,-341.5 871,-360.5 1028,-360.5 1028,-341.5 871,-341.5"/>
<text text-anchor="middle" x="949.5" y="-348.5" font-family="Helvetica,sans-Serif" font-size="10.00">Altair::processSecondLevelData</text>
</a>
</g>
</g>
<!-- Node814&#45;&gt;Node820 -->
<g id="edge37" class="edge"><title>Node814&#45;&gt;Node820</title>
<path fill="none" stroke="midnightblue" d="M826.587,-375.066C847.516,-370.934 870.192,-366.458 890.246,-362.5"/>
<polygon fill="midnightblue" stroke="midnightblue" points="891.032,-365.912 900.165,-360.541 889.676,-359.044 891.032,-365.912"/>
</g>
<!-- Node815&#45;&gt;Node816 -->
<g id="edge31" class="edge"><title>Node815&#45;&gt;Node816</title>
<path fill="none" stroke="midnightblue" d="M998.193,-436.589C1023.7,-441.716 1055.28,-448.067 1082.12,-453.463"/>
<polygon fill="midnightblue" stroke="midnightblue" points="1081.66,-456.94 1092.15,-455.48 1083.04,-450.077 1081.66,-456.94"/>
</g>
<!-- Node817&#45;&gt;Node816 -->
<g id="edge33" class="edge"><title>Node817&#45;&gt;Node816</title>
<path fill="none" stroke="midnightblue" d="M1015.01,-493.981C1039.14,-488.364 1066.18,-482.07 1088.87,-476.786"/>
<polygon fill="midnightblue" stroke="midnightblue" points="1089.69,-480.189 1098.64,-474.512 1088.11,-473.371 1089.69,-480.189"/>
</g>
<!-- Node819 -->
<g id="node32" class="node"><title>Node819</title>
<g id="a_node32"><a xlink:href="class_f_list_frame.html#a4bf0d0d8e56418df395b020d2e66db5f" target="_top" xlink:title="Récupère la taille courante (0&#45;based) du conteneur widgetContainer Cette taille doit en principe être...">
<polygon fill="white" stroke="black" points="1086,-379.5 1086,-398.5 1195,-398.5 1195,-379.5 1086,-379.5"/>
<text text-anchor="middle" x="1140.5" y="-386.5" font-family="Helvetica,sans-Serif" font-size="10.00">FListFrame::getRank</text>
</a>
</g>
</g>
<!-- Node818&#45;&gt;Node819 -->
<g id="edge36" class="edge"><title>Node818&#45;&gt;Node819</title>
<path fill="none" stroke="midnightblue" d="M1015.01,-389C1034.68,-389 1056.29,-389 1075.9,-389"/>
<polygon fill="midnightblue" stroke="midnightblue" points="1075.95,-392.5 1085.95,-389 1075.95,-385.5 1075.95,-392.5"/>
</g>
<!-- Node820&#45;&gt;Node806 -->
<g id="edge38" class="edge"><title>Node820&#45;&gt;Node806</title>
<path fill="none" stroke="midnightblue" d="M1028.19,-351C1052.29,-351 1077.9,-351 1098.48,-351"/>
<polygon fill="midnightblue" stroke="midnightblue" points="1098.74,-354.5 1108.74,-351 1098.74,-347.5 1098.74,-354.5"/>
</g>
</g>
</svg>
        <g id="navigator" transform="translate(0 0)" fill="#404254">
                <rect fill="#f2f5e9" fill-opacity="0.5" stroke="#606060" stroke-width=".5" x="0" y="0" width="60" height="60"/>
                <use id="zoomplus" xlink:href="#zoomPlus" x="17" y="9" onmousedown="handleZoom(evt,'in')"/>
                <use id="zoomminus" xlink:href="#zoomMin" x="42" y="9" onmousedown="handleZoom(evt,'out')"/>
                <use id="reset" xlink:href="#resetDef" x="30" y="36" onmousedown="handleReset()"/>
                <g id="arrowUp" xlink:href="#dirArrow" transform="translate(30 24)" onmousedown="handlePan(0,-1)">
                  <use xlink:href="#rim" fill="#404040">
                        <set attributeName="fill" to="#808080" begin="arrowUp.mouseover" end="arrowUp.mouseout"/>
                  </use>
                  <path fill="none" stroke="white" stroke-width="1.5" d="M0,-3.0v7 M-2.5,-0.5L0,-3.0L2.5,-0.5"/>
                </g>
                <g id="arrowRight" xlink:href="#dirArrow" transform="rotate(90) translate(36 -43)" onmousedown="handlePan(1,0)">
                  <use xlink:href="#rim" fill="#404040">
                        <set attributeName="fill" to="#808080" begin="arrowRight.mouseover" end="arrowRight.mouseout"/>
                  </use>
                  <path fill="none" stroke="white" stroke-width="1.5" d="M0,-3.0v7 M-2.5,-0.5L0,-3.0L2.5,-0.5"/>
                </g>
                <g id="arrowDown" xlink:href="#dirArrow" transform="rotate(180) translate(-30 -48)" onmousedown="handlePan(0,1)">
                  <use xlink:href="#rim" fill="#404040">
                        <set attributeName="fill" to="#808080" begin="arrowDown.mouseover" end="arrowDown.mouseout"/>
                  </use>
                  <path fill="none" stroke="white" stroke-width="1.5" d="M0,-3.0v7 M-2.5,-0.5L0,-3.0L2.5,-0.5"/>
                </g>
                <g id="arrowLeft" xlink:href="#dirArrow" transform="rotate(270) translate(-36 17)" onmousedown="handlePan(-1,0)">
                  <use xlink:href="#rim" fill="#404040">
                        <set attributeName="fill" to="#808080" begin="arrowLeft.mouseover" end="arrowLeft.mouseout"/>
                  </use>
                  <path fill="none" stroke="white" stroke-width="1.5" d="M0,-3.0v7 M-2.5,-0.5L0,-3.0L2.5,-0.5"/>
                </g>
        </g>
        <svg viewBox="0 0 15 15" width="100%" height="30px" preserveAspectRatio="xMaxYMin meet">
         <g id="arrow_out" transform="scale(0.3 0.3)">
          <a xlink:href="class_altair_aab5da600c227ac7eb604fa24a9308d26_cgraph_org.svg" target="_base">
           <rect id="button" ry="5" rx="5" y="6" x="6" height="38" width="38"
                fill="#f2f5e9" fill-opacity="0.5" stroke="#606060" stroke-width="1.0"/>
           <path id="arrow"
             d="M 11.500037,31.436501 C 11.940474,20.09759 22.043105,11.32322 32.158766,21.979434 L 37.068811,17.246167 C 37.068811,17.246167 37.088388,32 37.088388,32 L 22.160133,31.978069 C 22.160133,31.978069 26.997745,27.140456 26.997745,27.140456 C 18.528582,18.264221 13.291696,25.230495 11.500037,31.436501 z"
             style="fill:#404040;"/>
          </a>
         </g>
        </svg>
</svg>
