<?xml version="1.0" encoding="UTF-8" standalone="no"?>
<!DOCTYPE svg PUBLIC "-//W3C//DTD SVG 1.1//EN"
 "http://www.w3.org/Graphics/SVG/1.1/DTD/svg11.dtd">
<!-- Generated by graphviz version 2.38.0 (20140413.2041)
 -->
<!-- Title: tools::openDir Pages: 1 -->
<svg width="271pt" height="104pt"
 viewBox="0.00 0.00 271.00 104.00" xmlns="http://www.w3.org/2000/svg" xmlns:xlink="http://www.w3.org/1999/xlink">
<g id="graph0" class="graph" transform="scale(1 1) rotate(0) translate(4 100)">
<title>tools::openDir</title>
<polygon fill="white" stroke="none" points="-4,4 -4,-100 267,-100 267,4 -4,4"/>
<!-- Node121 -->
<g id="node1" class="node"><title>Node121</title>
<polygon fill="#bfbfbf" stroke="black" points="0,-38.5 0,-57.5 81,-57.5 81,-38.5 0,-38.5"/>
<text text-anchor="middle" x="40.5" y="-45.5" font-family="Helvetica,sans-Serif" font-size="10.00">tools::openDir</text>
</g>
<!-- Node122 -->
<g id="node2" class="node"><title>Node122</title>
<g id="a_node2"><a xlink:href="class_main_window.html#a62cd8712fb41a754298f6f60eead2cb0" target="_top" xlink:title="Crée les actions correspondant aux entrées des menus et barre d&#39;outils. ">
<polygon fill="white" stroke="black" points="117,-76.5 117,-95.5 263,-95.5 263,-76.5 117,-76.5"/>
<text text-anchor="middle" x="190" y="-83.5" font-family="Helvetica,sans-Serif" font-size="10.00">MainWindow::createActions</text>
</a>
</g>
</g>
<!-- Node121&#45;&gt;Node122 -->
<g id="edge1" class="edge"><title>Node121&#45;&gt;Node122</title>
<path fill="none" stroke="midnightblue" d="M88.5141,-60.1121C109.057,-65.4044 132.8,-71.5213 152.047,-76.4799"/>
<polygon fill="midnightblue" stroke="midnightblue" points="89.2775,-56.6946 78.7205,-57.589 87.5311,-63.4732 89.2775,-56.6946"/>
</g>
<!-- Node123 -->
<g id="node3" class="node"><title>Node123</title>
<g id="a_node3"><a xlink:href="class_f_line_frame.html#aa9a7fa64c39944439b905d70fd740e3b" target="_top" xlink:title="FLineFrame::FLineFrame">
<polygon fill="white" stroke="black" points="123,-38.5 123,-57.5 257,-57.5 257,-38.5 123,-38.5"/>
<text text-anchor="middle" x="190" y="-45.5" font-family="Helvetica,sans-Serif" font-size="10.00">FLineFrame::FLineFrame</text>
</a>
</g>
</g>
<!-- Node121&#45;&gt;Node123 -->
<g id="edge2" class="edge"><title>Node121&#45;&gt;Node123</title>
<path fill="none" stroke="midnightblue" d="M91.3132,-48C101.455,-48 112.273,-48 122.879,-48"/>
<polygon fill="midnightblue" stroke="midnightblue" points="91.0273,-44.5001 81.0273,-48 91.0273,-51.5001 91.0273,-44.5001"/>
</g>
<!-- Node124 -->
<g id="node4" class="node"><title>Node124</title>
<g id="a_node4"><a xlink:href="classtools.html#ac5f7b9c2e07af5dbb27169b256ac6300" target="_top" xlink:title="List un fichier entre deux lignes données et sur une largeur donnée. ">
<polygon fill="white" stroke="black" points="149,-0.5 149,-19.5 231,-19.5 231,-0.5 149,-0.5"/>
<text text-anchor="middle" x="190" y="-7.5" font-family="Helvetica,sans-Serif" font-size="10.00">tools::readFile</text>
</a>
</g>
</g>
<!-- Node121&#45;&gt;Node124 -->
<g id="edge3" class="edge"><title>Node121&#45;&gt;Node124</title>
<path fill="none" stroke="midnightblue" d="M88.5141,-35.8879C109.057,-30.5956 132.8,-24.4787 152.047,-19.5201"/>
<polygon fill="midnightblue" stroke="midnightblue" points="87.5311,-32.5268 78.7205,-38.411 89.2775,-39.3054 87.5311,-32.5268"/>
</g>
</g>
</svg>
