<?xml version="1.0" encoding="UTF-8" standalone="no"?>
<!DOCTYPE svg PUBLIC "-//W3C//DTD SVG 1.1//EN"
 "http://www.w3.org/Graphics/SVG/1.1/DTD/svg11.dtd">
<!-- Generated by graphviz version 2.38.0 (20140413.2041)
 -->
<!-- Title: FListFrame::setTabLabels Pages: 1 -->
<svg width="1194pt" height="386pt"
 viewBox="0.00 0.00 1194.00 386.00" xmlns="http://www.w3.org/2000/svg" xmlns:xlink="http://www.w3.org/1999/xlink">
<g id="graph0" class="graph" transform="scale(1 1) rotate(0) translate(4 382)">
<title>FListFrame::setTabLabels</title>
<polygon fill="white" stroke="none" points="-4,4 -4,-382 1190,-382 1190,4 -4,4"/>
<!-- Node1352 -->
<g id="node1" class="node"><title>Node1352</title>
<polygon fill="#bfbfbf" stroke="black" points="0,-63.5 0,-82.5 131,-82.5 131,-63.5 0,-63.5"/>
<text text-anchor="middle" x="65.5" y="-70.5" font-family="Helvetica,sans-Serif" font-size="10.00">FListFrame::setTabLabels</text>
</g>
<!-- Node1353 -->
<g id="node2" class="node"><title>Node1353</title>
<g id="a_node2"><a xlink:href="class_f_list_frame.html#a865246df8a4d4000ac3c818abc6d7f71" target="_top" xlink:title="Constructeur de la classe. ">
<polygon fill="white" stroke="black" points="167,-126.5 167,-145.5 289,-145.5 289,-126.5 167,-126.5"/>
<text text-anchor="middle" x="228" y="-133.5" font-family="Helvetica,sans-Serif" font-size="10.00">FListFrame::FListFrame</text>
</a>
</g>
</g>
<!-- Node1352&#45;&gt;Node1353 -->
<g id="edge1" class="edge"><title>Node1352&#45;&gt;Node1353</title>
<path fill="none" stroke="midnightblue" d="M90.8765,-82.5683C118.176,-93.2842 162.602,-110.722 193.236,-122.747"/>
<polygon fill="midnightblue" stroke="midnightblue" points="192.07,-126.049 202.658,-126.445 194.628,-119.533 192.07,-126.049"/>
</g>
<!-- Node1361 -->
<g id="node10" class="node"><title>Node1361</title>
<g id="a_node10"><a xlink:href="class_f_list_widget.html#aac6eaaeb9946354f743394b54c84a6a7" target="_top" xlink:title="FListWidget::setTabLabels">
<polygon fill="white" stroke="black" points="501,-0.5 501,-19.5 635,-19.5 635,-0.5 501,-0.5"/>
<text text-anchor="middle" x="568" y="-7.5" font-family="Helvetica,sans-Serif" font-size="10.00">FListWidget::setTabLabels</text>
</a>
</g>
</g>
<!-- Node1352&#45;&gt;Node1361 -->
<g id="edge27" class="edge"><title>Node1352&#45;&gt;Node1361</title>
<path fill="none" stroke="midnightblue" d="M114.903,-63.4169C166.698,-53.4781 251.361,-38.139 325,-29 380.231,-22.1456 442.878,-17.3069 490.592,-14.2283"/>
<polygon fill="midnightblue" stroke="midnightblue" points="491.086,-17.7041 500.845,-13.5789 490.644,-10.7181 491.086,-17.7041"/>
</g>
<!-- Node1354 -->
<g id="node3" class="node"><title>Node1354</title>
<g id="a_node3"><a xlink:href="class_f_list_frame.html#a1fda46dc7cfe6a661d2e2d1c66638134" target="_top" xlink:title="FListFrame::deleteGroup">
<polygon fill="white" stroke="black" points="505.5,-202.5 505.5,-221.5 630.5,-221.5 630.5,-202.5 505.5,-202.5"/>
<text text-anchor="middle" x="568" y="-209.5" font-family="Helvetica,sans-Serif" font-size="10.00">FListFrame::deleteGroup</text>
</a>
</g>
</g>
<!-- Node1353&#45;&gt;Node1354 -->
<g id="edge2" class="edge"><title>Node1353&#45;&gt;Node1354</title>
<path fill="none" stroke="midnightblue" d="M271.466,-145.548C333.275,-159.446 447.92,-185.225 514.8,-200.263"/>
<polygon fill="midnightblue" stroke="midnightblue" points="514.184,-203.711 524.708,-202.491 515.719,-196.882 514.184,-203.711"/>
</g>
<!-- Node1356 -->
<g id="node5" class="node"><title>Node1356</title>
<g id="a_node5"><a xlink:href="class_f_list_frame.html#aa993bd2e0b975a839c6f8b46dea4690c" target="_top" xlink:title="FListFrame::finalise">
<polygon fill="white" stroke="black" points="342.5,-126.5 342.5,-145.5 445.5,-145.5 445.5,-126.5 342.5,-126.5"/>
<text text-anchor="middle" x="394" y="-133.5" font-family="Helvetica,sans-Serif" font-size="10.00">FListFrame::finalise</text>
</a>
</g>
</g>
<!-- Node1353&#45;&gt;Node1356 -->
<g id="edge4" class="edge"><title>Node1353&#45;&gt;Node1356</title>
<path fill="none" stroke="midnightblue" d="M289.136,-136C303.187,-136 318.161,-136 332.238,-136"/>
<polygon fill="midnightblue" stroke="midnightblue" points="332.304,-139.5 342.304,-136 332.304,-132.5 332.304,-139.5"/>
</g>
<!-- Node1362 -->
<g id="node11" class="node"><title>Node1362</title>
<g id="a_node11"><a xlink:href="struct_abstract.html#af7b700041c9d75de3f642f15ece3e6ae" target="_top" xlink:title="Réinitialiser toutes les valeurs du de la table de hachage Hash::wrapper. ">
<polygon fill="white" stroke="black" points="354,-88.5 354,-107.5 434,-107.5 434,-88.5 354,-88.5"/>
<text text-anchor="middle" x="394" y="-95.5" font-family="Helvetica,sans-Serif" font-size="10.00">Abstract::initH</text>
</a>
</g>
</g>
<!-- Node1353&#45;&gt;Node1362 -->
<g id="edge11" class="edge"><title>Node1353&#45;&gt;Node1362</title>
<path fill="none" stroke="midnightblue" d="M270.384,-126.411C292.802,-121.217 320.638,-114.767 344.119,-109.326"/>
<polygon fill="midnightblue" stroke="midnightblue" points="344.935,-112.73 353.887,-107.063 343.355,-105.91 344.935,-112.73"/>
</g>
<!-- Node1363 -->
<g id="node12" class="node"><title>Node1363</title>
<g id="a_node12"><a xlink:href="class_f_list_frame.html#a018583305b4464d69c66805aceb1a2ac" target="_top" xlink:title="Initialise le conteneur de composants widgetContainer à blanc. ">
<polygon fill="white" stroke="black" points="325,-39 325,-69 463,-69 463,-39 325,-39"/>
<text text-anchor="start" x="333" y="-57" font-family="Helvetica,sans-Serif" font-size="10.00">FListFrame::initializeWidget</text>
<text text-anchor="middle" x="394" y="-46" font-family="Helvetica,sans-Serif" font-size="10.00">Container</text>
</a>
</g>
</g>
<!-- Node1353&#45;&gt;Node1363 -->
<g id="edge12" class="edge"><title>Node1353&#45;&gt;Node1363</title>
<path fill="none" stroke="midnightblue" d="M243.181,-126.453C261.524,-114.372 294.719,-93.406 325,-79 329.384,-76.9145 333.991,-74.8896 338.655,-72.9545"/>
<polygon fill="midnightblue" stroke="midnightblue" points="340.268,-76.0792 348.254,-69.1177 337.67,-69.5791 340.268,-76.0792"/>
</g>
<!-- Node1364 -->
<g id="node13" class="node"><title>Node1364</title>
<g id="a_node13"><a xlink:href="class_f_list_frame.html#a3b18347a90f89b4423e8a543f0c1c47c" target="_top" xlink:title="FListFrame::on_deleteItem\l_clicked">
<polygon fill="white" stroke="black" points="327,-203 327,-233 461,-233 461,-203 327,-203"/>
<text text-anchor="start" x="335" y="-221" font-family="Helvetica,sans-Serif" font-size="10.00">FListFrame::on_deleteItem</text>
<text text-anchor="middle" x="394" y="-210" font-family="Helvetica,sans-Serif" font-size="10.00">_clicked</text>
</a>
</g>
</g>
<!-- Node1353&#45;&gt;Node1364 -->
<g id="edge13" class="edge"><title>Node1353&#45;&gt;Node1364</title>
<path fill="none" stroke="midnightblue" d="M245.778,-145.625C264.771,-156.394 296.75,-174.145 325,-188 332.413,-191.635 340.368,-195.328 348.131,-198.821"/>
<polygon fill="midnightblue" stroke="midnightblue" points="346.897,-202.103 357.457,-202.967 349.741,-195.706 346.897,-202.103"/>
</g>
<!-- Node1365 -->
<g id="node14" class="node"><title>Node1365</title>
<g id="a_node14"><a xlink:href="class_f_list_frame.html#ac14c494842340a0438766256c01f83bc" target="_top" xlink:title="FListFrame::on_importFrom\lMainTree_clicked">
<polygon fill="white" stroke="black" points="325.5,-265 325.5,-295 462.5,-295 462.5,-265 325.5,-265"/>
<text text-anchor="start" x="333.5" y="-283" font-family="Helvetica,sans-Serif" font-size="10.00">FListFrame::on_importFrom</text>
<text text-anchor="middle" x="394" y="-272" font-family="Helvetica,sans-Serif" font-size="10.00">MainTree_clicked</text>
</a>
</g>
</g>
<!-- Node1353&#45;&gt;Node1365 -->
<g id="edge16" class="edge"><title>Node1353&#45;&gt;Node1365</title>
<path fill="none" stroke="midnightblue" d="M236.074,-145.745C250.878,-165.66 286.924,-211.696 325,-242 333.34,-248.637 342.989,-254.79 352.352,-260.126"/>
<polygon fill="midnightblue" stroke="midnightblue" points="350.739,-263.233 361.188,-264.982 354.11,-257.099 350.739,-263.233"/>
</g>
<!-- Node1355 -->
<g id="node4" class="node"><title>Node1355</title>
<g id="a_node4"><a xlink:href="class_f_list_frame.html#a356ad4309df1e931fb3ee12ad88054fb" target="_top" xlink:title="Actualise currentWidget, row et currentIndex. ">
<polygon fill="white" stroke="black" points="673,-202.5 673,-221.5 815,-221.5 815,-202.5 673,-202.5"/>
<text text-anchor="middle" x="744" y="-209.5" font-family="Helvetica,sans-Serif" font-size="10.00">FListFrame::updateIndexInfo</text>
</a>
</g>
</g>
<!-- Node1354&#45;&gt;Node1355 -->
<g id="edge3" class="edge"><title>Node1354&#45;&gt;Node1355</title>
<path fill="none" stroke="midnightblue" d="M630.836,-212C641.125,-212 651.928,-212 662.598,-212"/>
<polygon fill="midnightblue" stroke="midnightblue" points="662.766,-215.5 672.766,-212 662.766,-208.5 662.766,-215.5"/>
</g>
<!-- Node1356&#45;&gt;Node1355 -->
<g id="edge10" class="edge"><title>Node1356&#45;&gt;Node1355</title>
<path fill="none" stroke="midnightblue" d="M438.722,-145.548C502.491,-159.475 620.882,-185.331 689.679,-200.355"/>
<polygon fill="midnightblue" stroke="midnightblue" points="688.94,-203.776 699.457,-202.491 690.434,-196.937 688.94,-203.776"/>
</g>
<!-- Node1357 -->
<g id="node6" class="node"><title>Node1357</title>
<g id="a_node6"><a xlink:href="class_f_list_frame.html#a5c6ce884a0169251e359364921d1f89c" target="_top" xlink:title="FListFrame::addNewTab">
<polygon fill="white" stroke="black" points="505.5,-38.5 505.5,-57.5 630.5,-57.5 630.5,-38.5 505.5,-38.5"/>
<text text-anchor="middle" x="568" y="-45.5" font-family="Helvetica,sans-Serif" font-size="10.00">FListFrame::addNewTab</text>
</a>
</g>
</g>
<!-- Node1356&#45;&gt;Node1357 -->
<g id="edge5" class="edge"><title>Node1356&#45;&gt;Node1357</title>
<path fill="none" stroke="midnightblue" d="M444.71,-126.393C451.182,-123.938 457.473,-120.86 463,-117 485.45,-101.322 476.55,-82.6782 499,-67 501.85,-65.0097 504.903,-63.2272 508.079,-61.6308"/>
<polygon fill="midnightblue" stroke="midnightblue" points="509.527,-64.8177 517.29,-57.6071 506.725,-58.4031 509.527,-64.8177"/>
</g>
<!-- Node1359 -->
<g id="node8" class="node"><title>Node1359</title>
<g id="a_node8"><a xlink:href="class_hash.html#a2ac10203aa8b32a04d9088e08ddbaab4" target="_top" xlink:title="Hash::createReference">
<polygon fill="white" stroke="black" points="509,-126.5 509,-145.5 627,-145.5 627,-126.5 509,-126.5"/>
<text text-anchor="middle" x="568" y="-133.5" font-family="Helvetica,sans-Serif" font-size="10.00">Hash::createReference</text>
</a>
</g>
</g>
<!-- Node1356&#45;&gt;Node1359 -->
<g id="edge7" class="edge"><title>Node1356&#45;&gt;Node1359</title>
<path fill="none" stroke="midnightblue" d="M445.675,-136C462.243,-136 480.927,-136 498.578,-136"/>
<polygon fill="midnightblue" stroke="midnightblue" points="498.829,-139.5 508.829,-136 498.829,-132.5 498.829,-139.5"/>
</g>
<!-- Node1360 -->
<g id="node9" class="node"><title>Node1360</title>
<g id="a_node9"><a xlink:href="class_f_list_frame.html#a560addf9867fbd5d05fbdb024e5b272c" target="_top" xlink:title="FListFrame::setStrikeOut\lFileNames">
<polygon fill="white" stroke="black" points="504.5,-77 504.5,-107 631.5,-107 631.5,-77 504.5,-77"/>
<text text-anchor="start" x="512.5" y="-95" font-family="Helvetica,sans-Serif" font-size="10.00">FListFrame::setStrikeOut</text>
<text text-anchor="middle" x="568" y="-84" font-family="Helvetica,sans-Serif" font-size="10.00">FileNames</text>
</a>
</g>
</g>
<!-- Node1356&#45;&gt;Node1360 -->
<g id="edge8" class="edge"><title>Node1356&#45;&gt;Node1360</title>
<path fill="none" stroke="midnightblue" d="M432.321,-126.453C451.6,-121.521 475.745,-115.344 498.247,-109.588"/>
<polygon fill="midnightblue" stroke="midnightblue" points="499.288,-112.935 508.108,-107.065 497.553,-106.153 499.288,-112.935"/>
</g>
<!-- Node1356&#45;&gt;Node1361 -->
<g id="edge9" class="edge"><title>Node1356&#45;&gt;Node1361</title>
<path fill="none" stroke="midnightblue" d="M445.62,-127.545C451.955,-124.917 457.965,-121.483 463,-117 494.56,-88.8996 467.44,-57.1004 499,-29 500.748,-27.4436 502.614,-26.0137 504.569,-24.7001"/>
<polygon fill="midnightblue" stroke="midnightblue" points="506.602,-27.5745 513.638,-19.6535 503.198,-21.4578 506.602,-27.5745"/>
</g>
<!-- Node1358 -->
<g id="node7" class="node"><title>Node1358</title>
<g id="a_node7"><a xlink:href="class_f_list_frame.html#a4bf0d0d8e56418df395b020d2e66db5f" target="_top" xlink:title="Récupère la taille courante (0&#45;based) du conteneur FListFrame::widgetContainer. ">
<polygon fill="white" stroke="black" points="689.5,-38.5 689.5,-57.5 798.5,-57.5 798.5,-38.5 689.5,-38.5"/>
<text text-anchor="middle" x="744" y="-45.5" font-family="Helvetica,sans-Serif" font-size="10.00">FListFrame::getRank</text>
</a>
</g>
</g>
<!-- Node1357&#45;&gt;Node1358 -->
<g id="edge6" class="edge"><title>Node1357&#45;&gt;Node1358</title>
<path fill="none" stroke="midnightblue" d="M630.836,-48C646.541,-48 663.443,-48 679.242,-48"/>
<polygon fill="midnightblue" stroke="midnightblue" points="679.441,-51.5001 689.441,-48 679.441,-44.5001 679.441,-51.5001"/>
</g>
<!-- Node1364&#45;&gt;Node1354 -->
<g id="edge14" class="edge"><title>Node1364&#45;&gt;Node1354</title>
<path fill="none" stroke="midnightblue" d="M461.008,-215.697C472.178,-215.308 483.824,-214.901 495.135,-214.507"/>
<polygon fill="midnightblue" stroke="midnightblue" points="495.533,-217.995 505.405,-214.149 495.289,-211 495.533,-217.995"/>
</g>
<!-- Node1364&#45;&gt;Node1355 -->
<g id="edge15" class="edge"><title>Node1364&#45;&gt;Node1355</title>
<path fill="none" stroke="midnightblue" d="M461.183,-227.524C473.717,-228.972 486.741,-230.237 499,-231 560.215,-234.811 575.908,-236.432 637,-231 654.272,-229.464 672.943,-226.547 689.732,-223.452"/>
<polygon fill="midnightblue" stroke="midnightblue" points="690.744,-226.822 699.912,-221.512 689.434,-219.945 690.744,-226.822"/>
</g>
<!-- Node1366 -->
<g id="node15" class="node"><title>Node1366</title>
<g id="a_node15"><a xlink:href="class_f_list_frame.html#a4228ed10f2d800b92ff34e2f25edcd8c" target="_top" xlink:title="Ajoute les fichiers d&#39;une portion d&#39;arborescence de fichiers au composant courant de l&#39;onglet central...">
<polygon fill="white" stroke="black" points="499,-279 499,-309 637,-309 637,-279 499,-279"/>
<text text-anchor="start" x="507" y="-297" font-family="Helvetica,sans-Serif" font-size="10.00">FListFrame::addParsedTree</text>
<text text-anchor="middle" x="568" y="-286" font-family="Helvetica,sans-Serif" font-size="10.00">ToListWidget</text>
</a>
</g>
</g>
<!-- Node1365&#45;&gt;Node1366 -->
<g id="edge17" class="edge"><title>Node1365&#45;&gt;Node1366</title>
<path fill="none" stroke="midnightblue" d="M462.979,-285.533C471.483,-286.225 480.233,-286.938 488.876,-287.641"/>
<polygon fill="midnightblue" stroke="midnightblue" points="488.701,-291.138 498.952,-288.461 489.269,-284.161 488.701,-291.138"/>
</g>
<!-- Node1367 -->
<g id="node16" class="node"><title>Node1367</title>
<g id="a_node16"><a xlink:href="class_f_list_frame.html#af8c91e66c02e4c6f1f0fb66097903b73" target="_top" xlink:title="FListFrame::addStringList\lToListWidget">
<polygon fill="white" stroke="black" points="679.5,-309 679.5,-339 808.5,-339 808.5,-309 679.5,-309"/>
<text text-anchor="start" x="687.5" y="-327" font-family="Helvetica,sans-Serif" font-size="10.00">FListFrame::addStringList</text>
<text text-anchor="middle" x="744" y="-316" font-family="Helvetica,sans-Serif" font-size="10.00">ToListWidget</text>
</a>
</g>
</g>
<!-- Node1366&#45;&gt;Node1367 -->
<g id="edge18" class="edge"><title>Node1366&#45;&gt;Node1367</title>
<path fill="none" stroke="midnightblue" d="M637.27,-305.771C647.804,-307.587 658.723,-309.469 669.368,-311.305"/>
<polygon fill="midnightblue" stroke="midnightblue" points="669.019,-314.796 679.468,-313.046 670.209,-307.898 669.019,-314.796"/>
</g>
<!-- Node1374 -->
<g id="node23" class="node"><title>Node1374</title>
<g id="a_node23"><a xlink:href="class_f_list_frame.html#ae166a8e51ccbb22a5aa2f1d885507565" target="_top" xlink:title="FListFrame::parseTreeFor\lFilePaths">
<polygon fill="white" stroke="black" points="679,-260 679,-290 809,-290 809,-260 679,-260"/>
<text text-anchor="start" x="687" y="-278" font-family="Helvetica,sans-Serif" font-size="10.00">FListFrame::parseTreeFor</text>
<text text-anchor="middle" x="744" y="-267" font-family="Helvetica,sans-Serif" font-size="10.00">FilePaths</text>
</a>
</g>
</g>
<!-- Node1366&#45;&gt;Node1374 -->
<g id="edge26" class="edge"><title>Node1366&#45;&gt;Node1374</title>
<path fill="none" stroke="midnightblue" d="M637.27,-286.545C647.66,-285.411 658.424,-284.235 668.93,-283.088"/>
<polygon fill="midnightblue" stroke="midnightblue" points="669.343,-286.564 678.904,-281.999 668.583,-279.605 669.343,-286.564"/>
</g>
<!-- Node1368 -->
<g id="node17" class="node"><title>Node1368</title>
<g id="a_node17"><a xlink:href="class_f_list_frame.html#a9353fe4926e97788a6462c3ee79f6a15" target="_top" xlink:title="FListFrame::clearTabLabels">
<polygon fill="white" stroke="black" points="861,-358.5 861,-377.5 999,-377.5 999,-358.5 861,-358.5"/>
<text text-anchor="middle" x="930" y="-365.5" font-family="Helvetica,sans-Serif" font-size="10.00">FListFrame::clearTabLabels</text>
</a>
</g>
</g>
<!-- Node1367&#45;&gt;Node1368 -->
<g id="edge19" class="edge"><title>Node1367&#45;&gt;Node1368</title>
<path fill="none" stroke="midnightblue" d="M807.808,-339.019C831.191,-344.611 857.38,-350.874 879.414,-356.143"/>
<polygon fill="midnightblue" stroke="midnightblue" points="878.681,-359.566 889.221,-358.488 880.309,-352.758 878.681,-359.566"/>
</g>
<!-- Node1370 -->
<g id="node19" class="node"><title>Node1370</title>
<g id="a_node19"><a xlink:href="class_f_list_frame.html#a0ebe3d7847101344e70c84aff2be39b0" target="_top" xlink:title="Accesseur en lecture du nombre d&#39;éléments (nombre d&#39;onglets) du vecteur widgetContainer. ">
<polygon fill="white" stroke="black" points="851,-309 851,-339 1009,-339 1009,-309 851,-309"/>
<text text-anchor="start" x="859" y="-327" font-family="Helvetica,sans-Serif" font-size="10.00">FListFrame::getWidgetContainer</text>
<text text-anchor="middle" x="930" y="-316" font-family="Helvetica,sans-Serif" font-size="10.00">Count</text>
</a>
</g>
</g>
<!-- Node1367&#45;&gt;Node1370 -->
<g id="edge21" class="edge"><title>Node1367&#45;&gt;Node1370</title>
<path fill="none" stroke="midnightblue" d="M808.58,-324C818.892,-324 829.732,-324 840.509,-324"/>
<polygon fill="midnightblue" stroke="midnightblue" points="840.801,-327.5 850.801,-324 840.801,-320.5 840.801,-327.5"/>
</g>
<!-- Node1371 -->
<g id="node20" class="node"><title>Node1371</title>
<g id="a_node20"><a xlink:href="class_f_list_frame.html#a802475894ee1e30753faed81d9f9dc4b" target="_top" xlink:title="Appelle parseXhlFile(const QString&amp;) sur l&#39;ensemble de widgetContainer. ">
<polygon fill="white" stroke="black" points="867,-270.5 867,-289.5 993,-289.5 993,-270.5 867,-270.5"/>
<text text-anchor="middle" x="930" y="-277.5" font-family="Helvetica,sans-Serif" font-size="10.00">FListFrame::parseXhlFile</text>
</a>
</g>
</g>
<!-- Node1367&#45;&gt;Node1371 -->
<g id="edge22" class="edge"><title>Node1367&#45;&gt;Node1371</title>
<path fill="none" stroke="midnightblue" d="M807.808,-308.981C831.191,-303.389 857.38,-297.126 879.414,-291.857"/>
<polygon fill="midnightblue" stroke="midnightblue" points="880.309,-295.242 889.221,-289.512 878.681,-288.434 880.309,-295.242"/>
</g>
<!-- Node1369 -->
<g id="node18" class="node"><title>Node1369</title>
<g id="a_node18"><a xlink:href="class_f_list_widget.html#a74bf008958a87e9055b8ec6573d8e2e9" target="_top" xlink:title="FListWidget::clearTabLabels">
<polygon fill="white" stroke="black" points="1045,-358.5 1045,-377.5 1186,-377.5 1186,-358.5 1045,-358.5"/>
<text text-anchor="middle" x="1115.5" y="-365.5" font-family="Helvetica,sans-Serif" font-size="10.00">FListWidget::clearTabLabels</text>
</a>
</g>
</g>
<!-- Node1368&#45;&gt;Node1369 -->
<g id="edge20" class="edge"><title>Node1368&#45;&gt;Node1369</title>
<path fill="none" stroke="midnightblue" d="M999.068,-368C1010.59,-368 1022.64,-368 1034.43,-368"/>
<polygon fill="midnightblue" stroke="midnightblue" points="1034.7,-371.5 1044.7,-368 1034.7,-364.5 1034.7,-371.5"/>
</g>
<!-- Node1372 -->
<g id="node21" class="node"><title>Node1372</title>
<g id="a_node21"><a xlink:href="classtools.html#a0aa994303a938a76300767d2251b9f85" target="_top" xlink:title="Détecte si un disque optique est monté. ">
<polygon fill="white" stroke="black" points="1059,-226.5 1059,-245.5 1172,-245.5 1172,-226.5 1059,-226.5"/>
<text text-anchor="middle" x="1115.5" y="-233.5" font-family="Helvetica,sans-Serif" font-size="10.00">tools::cdRomMounted</text>
</a>
</g>
</g>
<!-- Node1371&#45;&gt;Node1372 -->
<g id="edge23" class="edge"><title>Node1371&#45;&gt;Node1372</title>
<path fill="none" stroke="midnightblue" d="M970.817,-270.453C998.35,-263.851 1035.19,-255.018 1064.67,-247.949"/>
<polygon fill="midnightblue" stroke="midnightblue" points="1065.85,-251.264 1074.76,-245.529 1064.22,-244.457 1065.85,-251.264"/>
</g>
<!-- Node1373 -->
<g id="node22" class="node"><title>Node1373</title>
<g id="a_node22"><a xlink:href="class_f_list_frame.html#a22a50157e8c6d287c2b2c08d2b7deee9" target="_top" xlink:title="Lancer un fil d&#39;exécution pour lire l&#39;entête d&#39;un fichier XHL (Année, Mois,...) et classer les fichie...">
<polygon fill="white" stroke="black" points="1065,-265 1065,-295 1166,-295 1166,-265 1065,-265"/>
<text text-anchor="start" x="1073" y="-283" font-family="Helvetica,sans-Serif" font-size="10.00">FListFrame::launch</text>
<text text-anchor="middle" x="1115.5" y="-272" font-family="Helvetica,sans-Serif" font-size="10.00">_thread</text>
</a>
</g>
</g>
<!-- Node1371&#45;&gt;Node1373 -->
<g id="edge24" class="edge"><title>Node1371&#45;&gt;Node1373</title>
<path fill="none" stroke="midnightblue" d="M993.125,-273.573C1013.05,-273.124 1035.06,-273.143 1054.8,-273.63"/>
<polygon fill="midnightblue" stroke="midnightblue" points="1054.8,-277.132 1064.9,-273.928 1055,-270.135 1054.8,-277.132"/>
</g>
<!-- Node1373&#45;&gt;Node1371 -->
<g id="edge25" class="edge"><title>Node1373&#45;&gt;Node1371</title>
<path fill="none" stroke="midnightblue" d="M1064.9,-286.072C1045.9,-286.729 1023.83,-286.908 1003.15,-286.611"/>
<polygon fill="midnightblue" stroke="midnightblue" points="1003.19,-283.111 993.125,-286.427 1003.06,-290.11 1003.19,-283.111"/>
</g>
</g>
</svg>
