<?xml version="1.0" encoding="UTF-8" standalone="no"?>
<!DOCTYPE svg PUBLIC "-//W3C//DTD SVG 1.1//EN"
 "http://www.w3.org/Graphics/SVG/1.1/DTD/svg11.dtd">
<!-- Generated by graphviz version 2.38.0 (20140413.2041)
 -->
<!-- Title: standardPage Pages: 1 -->
<svg width="790pt" height="1235pt"
 viewBox="0.00 0.00 790.00 1235.00" xmlns="http://www.w3.org/2000/svg" xmlns:xlink="http://www.w3.org/1999/xlink">
<g id="graph0" class="graph" transform="scale(1 1) rotate(0) translate(4 1231)">
<title>standardPage</title>
<polygon fill="white" stroke="none" points="-4,4 -4,-1231 786,-1231 786,4 -4,4"/>
<!-- Node5 -->
<g id="node1" class="node"><title>Node5</title>
<polygon fill="#bfbfbf" stroke="black" points="198.5,-0.5 198.5,-101.5 307.5,-101.5 307.5,-0.5 198.5,-0.5"/>
<text text-anchor="middle" x="253" y="-89.5" font-family="Helvetica,sans-Serif" font-size="10.00">standardPage</text>
<polyline fill="none" stroke="black" points="198.5,-82.5 307.5,-82.5 "/>
<text text-anchor="start" x="206.5" y="-70.5" font-family="Helvetica,sans-Serif" font-size="10.00">&#45; baseTypeBox</text>
<text text-anchor="start" x="206.5" y="-59.5" font-family="Helvetica,sans-Serif" font-size="10.00">&#45; maxNLigneLabel</text>
<polyline fill="none" stroke="black" points="198.5,-52.5 307.5,-52.5 "/>
<text text-anchor="start" x="206.5" y="-40.5" font-family="Helvetica,sans-Serif" font-size="10.00">+ standardPage()</text>
<text text-anchor="start" x="206.5" y="-29.5" font-family="Helvetica,sans-Serif" font-size="10.00">+ standardPage()</text>
<text text-anchor="start" x="206.5" y="-18.5" font-family="Helvetica,sans-Serif" font-size="10.00">&#45; substituer_versant()</text>
<text text-anchor="start" x="206.5" y="-7.5" font-family="Helvetica,sans-Serif" font-size="10.00">&#45; substituer_versant()</text>
</g>
<!-- Node6 -->
<g id="node2" class="node"><title>Node6</title>
<polygon fill="white" stroke="#bfbfbf" points="0,-232 0,-289 52,-289 52,-232 0,-232"/>
<text text-anchor="middle" x="26" y="-277" font-family="Helvetica,sans-Serif" font-size="10.00">QDialog</text>
<polyline fill="none" stroke="#bfbfbf" points="0,-270 52,-270 "/>
<text text-anchor="middle" x="26" y="-258" font-family="Helvetica,sans-Serif" font-size="10.00"> </text>
<polyline fill="none" stroke="#bfbfbf" points="0,-251 52,-251 "/>
<text text-anchor="middle" x="26" y="-239" font-family="Helvetica,sans-Serif" font-size="10.00"> </text>
</g>
<!-- Node6&#45;&gt;Node5 -->
<g id="edge1" class="edge"><title>Node6&#45;&gt;Node5</title>
<path fill="none" stroke="midnightblue" d="M29.5357,-222.323C34.5078,-208.68 42.1285,-193.722 52,-182 92.0623,-134.427 153.701,-96.9263 198.258,-74.6676"/>
<polygon fill="none" stroke="midnightblue" points="26.1661,-221.367 26.389,-231.96 32.8203,-223.54 26.1661,-221.367"/>
</g>
<!-- Node6&#45;&gt;Node5 -->
<g id="edge6" class="edge"><title>Node6&#45;&gt;Node5</title>
<path fill="none" stroke="midnightblue" d="M46.1563,-222.72C52.36,-208.971 60.0326,-193.836 70,-182 105.654,-139.662 158.397,-105.301 198.192,-82.5618"/>
<polygon fill="none" stroke="midnightblue" points="42.9146,-221.397 42.0859,-231.96 49.3205,-224.219 42.9146,-221.397"/>
</g>
<!-- Node7 -->
<g id="node3" class="node"><title>Node7</title>
<g id="a_node3"><a xlink:href="classtools.html" target="_top" xlink:title="{tools\n|+ systemPathPrefix\l+ tempdir\l+ userdatadir\l|+ tools()\l+ dump()\l+ getEmbeddedPath()\l+ readFile()\l+ readFile()\l+ readFile()\l+ readFile()\l+ renommer()\l+ substituer()\l+ cdRomMounted()\l+ copyDir()\l+ copyFile()\l+ ents()\l+ generateDatadirPath()\l+ generateDatadirPath()\l+ getDirectorySize()\l+ getFileSize()\l+ IOControl()\l+ openDir()\l+ openDirDialog()\l+ path_access()\l+ remAccents()\l+ unzip()\l+ unzipDir()\l+ zip()\l+ zipDir()\l}">
<polygon fill="white" stroke="black" points="135.5,-386.5 135.5,-740.5 256.5,-740.5 256.5,-386.5 135.5,-386.5"/>
<text text-anchor="middle" x="196" y="-728.5" font-family="Helvetica,sans-Serif" font-size="10.00">tools</text>
<polyline fill="none" stroke="black" points="135.5,-721.5 256.5,-721.5 "/>
<text text-anchor="start" x="143.5" y="-709.5" font-family="Helvetica,sans-Serif" font-size="10.00">+ systemPathPrefix</text>
<text text-anchor="start" x="143.5" y="-698.5" font-family="Helvetica,sans-Serif" font-size="10.00">+ tempdir</text>
<text text-anchor="start" x="143.5" y="-687.5" font-family="Helvetica,sans-Serif" font-size="10.00">+ userdatadir</text>
<polyline fill="none" stroke="black" points="135.5,-680.5 256.5,-680.5 "/>
<text text-anchor="start" x="143.5" y="-668.5" font-family="Helvetica,sans-Serif" font-size="10.00">+ tools()</text>
<text text-anchor="start" x="143.5" y="-657.5" font-family="Helvetica,sans-Serif" font-size="10.00">+ dump()</text>
<text text-anchor="start" x="143.5" y="-646.5" font-family="Helvetica,sans-Serif" font-size="10.00">+ getEmbeddedPath()</text>
<text text-anchor="start" x="143.5" y="-635.5" font-family="Helvetica,sans-Serif" font-size="10.00">+ readFile()</text>
<text text-anchor="start" x="143.5" y="-624.5" font-family="Helvetica,sans-Serif" font-size="10.00">+ readFile()</text>
<text text-anchor="start" x="143.5" y="-613.5" font-family="Helvetica,sans-Serif" font-size="10.00">+ readFile()</text>
<text text-anchor="start" x="143.5" y="-602.5" font-family="Helvetica,sans-Serif" font-size="10.00">+ readFile()</text>
<text text-anchor="start" x="143.5" y="-591.5" font-family="Helvetica,sans-Serif" font-size="10.00">+ renommer()</text>
<text text-anchor="start" x="143.5" y="-580.5" font-family="Helvetica,sans-Serif" font-size="10.00">+ substituer()</text>
<text text-anchor="start" x="143.5" y="-569.5" font-family="Helvetica,sans-Serif" font-size="10.00">+ cdRomMounted()</text>
<text text-anchor="start" x="143.5" y="-558.5" font-family="Helvetica,sans-Serif" font-size="10.00">+ copyDir()</text>
<text text-anchor="start" x="143.5" y="-547.5" font-family="Helvetica,sans-Serif" font-size="10.00">+ copyFile()</text>
<text text-anchor="start" x="143.5" y="-536.5" font-family="Helvetica,sans-Serif" font-size="10.00">+ ents()</text>
<text text-anchor="start" x="143.5" y="-525.5" font-family="Helvetica,sans-Serif" font-size="10.00">+ generateDatadirPath()</text>
<text text-anchor="start" x="143.5" y="-514.5" font-family="Helvetica,sans-Serif" font-size="10.00">+ generateDatadirPath()</text>
<text text-anchor="start" x="143.5" y="-503.5" font-family="Helvetica,sans-Serif" font-size="10.00">+ getDirectorySize()</text>
<text text-anchor="start" x="143.5" y="-492.5" font-family="Helvetica,sans-Serif" font-size="10.00">+ getFileSize()</text>
<text text-anchor="start" x="143.5" y="-481.5" font-family="Helvetica,sans-Serif" font-size="10.00">+ IOControl()</text>
<text text-anchor="start" x="143.5" y="-470.5" font-family="Helvetica,sans-Serif" font-size="10.00">+ openDir()</text>
<text text-anchor="start" x="143.5" y="-459.5" font-family="Helvetica,sans-Serif" font-size="10.00">+ openDirDialog()</text>
<text text-anchor="start" x="143.5" y="-448.5" font-family="Helvetica,sans-Serif" font-size="10.00">+ path_access()</text>
<text text-anchor="start" x="143.5" y="-437.5" font-family="Helvetica,sans-Serif" font-size="10.00">+ remAccents()</text>
<text text-anchor="start" x="143.5" y="-426.5" font-family="Helvetica,sans-Serif" font-size="10.00">+ unzip()</text>
<text text-anchor="start" x="143.5" y="-415.5" font-family="Helvetica,sans-Serif" font-size="10.00">+ unzipDir()</text>
<text text-anchor="start" x="143.5" y="-404.5" font-family="Helvetica,sans-Serif" font-size="10.00">+ zip()</text>
<text text-anchor="start" x="143.5" y="-393.5" font-family="Helvetica,sans-Serif" font-size="10.00">+ zipDir()</text>
</a>
</g>
</g>
<!-- Node7&#45;&gt;Node5 -->
<g id="edge2" class="edge"><title>Node7&#45;&gt;Node5</title>
<path fill="none" stroke="midnightblue" d="M216.782,-376.377C227.765,-278.005 240.403,-164.817 247.471,-101.517"/>
<polygon fill="none" stroke="midnightblue" points="213.287,-376.131 215.656,-386.458 220.244,-376.908 213.287,-376.131"/>
</g>
<!-- Node11 -->
<g id="node7" class="node"><title>Node11</title>
<g id="a_node7"><a xlink:href="classcommon.html" target="_top" xlink:title="Classe dérivée de la classe tools ajoutant des fonctionnalités de communication de l&#39;interface vers l...">
<polygon fill="white" stroke="black" points="70.5,-188 70.5,-333 191.5,-333 191.5,-188 70.5,-188"/>
<text text-anchor="middle" x="131" y="-321" font-family="Helvetica,sans-Serif" font-size="10.00">common</text>
<polyline fill="none" stroke="black" points="70.5,-314 191.5,-314 "/>
<text text-anchor="start" x="78.5" y="-302" font-family="Helvetica,sans-Serif" font-size="10.00">+ altairCommandStr</text>
<text text-anchor="start" x="78.5" y="-291" font-family="Helvetica,sans-Serif" font-size="10.00">+ execPath</text>
<text text-anchor="start" x="78.5" y="-280" font-family="Helvetica,sans-Serif" font-size="10.00">+ RAltairCommandStr</text>
<text text-anchor="start" x="78.5" y="-269" font-family="Helvetica,sans-Serif" font-size="10.00">+ RAltairDirStr</text>
<text text-anchor="start" x="78.5" y="-258" font-family="Helvetica,sans-Serif" font-size="10.00">+ sharedir</text>
<polyline fill="none" stroke="black" points="70.5,-251 191.5,-251 "/>
<text text-anchor="start" x="78.5" y="-239" font-family="Helvetica,sans-Serif" font-size="10.00">+ common()</text>
<text text-anchor="start" x="78.5" y="-228" font-family="Helvetica,sans-Serif" font-size="10.00">+ exporter_identification</text>
<text text-anchor="start" x="78.5" y="-217" font-family="Helvetica,sans-Serif" font-size="10.00">_controle()</text>
<text text-anchor="start" x="78.5" y="-206" font-family="Helvetica,sans-Serif" font-size="10.00">+ exporter_identification</text>
<text text-anchor="start" x="78.5" y="-195" font-family="Helvetica,sans-Serif" font-size="10.00">_controle()</text>
</a>
</g>
</g>
<!-- Node7&#45;&gt;Node11 -->
<g id="edge8" class="edge"><title>Node7&#45;&gt;Node11</title>
<path fill="none" stroke="midnightblue" d="M155.754,-376.131C152.5,-361.061 149.356,-346.501 146.463,-333.103"/>
<polygon fill="none" stroke="midnightblue" points="152.375,-377.065 157.907,-386.101 159.217,-375.587 152.375,-377.065"/>
</g>
<!-- Node8 -->
<g id="node4" class="node"><title>Node8</title>
<g id="a_node4"><a xlink:href="classflags.html" target="_top" xlink:title="{flags\n||}">
<polygon fill="white" stroke="black" points="275,-931.5 275,-988.5 313,-988.5 313,-931.5 275,-931.5"/>
<text text-anchor="middle" x="294" y="-976.5" font-family="Helvetica,sans-Serif" font-size="10.00">flags</text>
<polyline fill="none" stroke="black" points="275,-969.5 313,-969.5 "/>
<text text-anchor="middle" x="294" y="-957.5" font-family="Helvetica,sans-Serif" font-size="10.00"> </text>
<polyline fill="none" stroke="black" points="275,-950.5 313,-950.5 "/>
<text text-anchor="middle" x="294" y="-938.5" font-family="Helvetica,sans-Serif" font-size="10.00"> </text>
</a>
</g>
</g>
<!-- Node8&#45;&gt;Node7 -->
<g id="edge3" class="edge"><title>Node8&#45;&gt;Node7</title>
<path fill="none" stroke="midnightblue" d="M284.683,-921.494C274.263,-879.548 256.636,-808.59 239.829,-740.936"/>
<polygon fill="none" stroke="midnightblue" points="281.301,-922.398 287.109,-931.26 288.095,-920.711 281.301,-922.398"/>
</g>
<!-- Node14 -->
<g id="node10" class="node"><title>Node14</title>
<g id="a_node10"><a xlink:href="class_f_abstract_widget.html" target="_top" xlink:title="{FAbstractWidget\n|+ commandLineList\l+ commandLineType\l+ disabledObjects\l+ enabledObjects\l+ optionLabel\l+ status\l# componentList\l# description\l# hashKey\l# widgetDepth\l|+ commandLineStringList()\l+ getComponentList()\l+ getDepth()\l+ getDescription()\l+ getHashKey()\l+ isAbstractDisabled()\l+ isAbstractEnabled()\l+ setDisableObjects()\l+ setHashKey()\l+ setWidgetFromXml()\l+ setXmlFromWidget()\l# FCore()\l# FCore()\l}">
<polygon fill="white" stroke="black" points="366,-419.5 366,-707.5 500,-707.5 500,-419.5 366,-419.5"/>
<text text-anchor="middle" x="433" y="-695.5" font-family="Helvetica,sans-Serif" font-size="10.00">FAbstractWidget</text>
<polyline fill="none" stroke="black" points="366,-688.5 500,-688.5 "/>
<text text-anchor="start" x="374" y="-676.5" font-family="Helvetica,sans-Serif" font-size="10.00">+ commandLineList</text>
<text text-anchor="start" x="374" y="-665.5" font-family="Helvetica,sans-Serif" font-size="10.00">+ commandLineType</text>
<text text-anchor="start" x="374" y="-654.5" font-family="Helvetica,sans-Serif" font-size="10.00">+ disabledObjects</text>
<text text-anchor="start" x="374" y="-643.5" font-family="Helvetica,sans-Serif" font-size="10.00">+ enabledObjects</text>
<text text-anchor="start" x="374" y="-632.5" font-family="Helvetica,sans-Serif" font-size="10.00">+ optionLabel</text>
<text text-anchor="start" x="374" y="-621.5" font-family="Helvetica,sans-Serif" font-size="10.00">+ status</text>
<text text-anchor="start" x="374" y="-610.5" font-family="Helvetica,sans-Serif" font-size="10.00"># componentList</text>
<text text-anchor="start" x="374" y="-599.5" font-family="Helvetica,sans-Serif" font-size="10.00"># description</text>
<text text-anchor="start" x="374" y="-588.5" font-family="Helvetica,sans-Serif" font-size="10.00"># hashKey</text>
<text text-anchor="start" x="374" y="-577.5" font-family="Helvetica,sans-Serif" font-size="10.00"># widgetDepth</text>
<polyline fill="none" stroke="black" points="366,-570.5 500,-570.5 "/>
<text text-anchor="start" x="374" y="-558.5" font-family="Helvetica,sans-Serif" font-size="10.00">+ commandLineStringList()</text>
<text text-anchor="start" x="374" y="-547.5" font-family="Helvetica,sans-Serif" font-size="10.00">+ getComponentList()</text>
<text text-anchor="start" x="374" y="-536.5" font-family="Helvetica,sans-Serif" font-size="10.00">+ getDepth()</text>
<text text-anchor="start" x="374" y="-525.5" font-family="Helvetica,sans-Serif" font-size="10.00">+ getDescription()</text>
<text text-anchor="start" x="374" y="-514.5" font-family="Helvetica,sans-Serif" font-size="10.00">+ getHashKey()</text>
<text text-anchor="start" x="374" y="-503.5" font-family="Helvetica,sans-Serif" font-size="10.00">+ isAbstractDisabled()</text>
<text text-anchor="start" x="374" y="-492.5" font-family="Helvetica,sans-Serif" font-size="10.00">+ isAbstractEnabled()</text>
<text text-anchor="start" x="374" y="-481.5" font-family="Helvetica,sans-Serif" font-size="10.00">+ setDisableObjects()</text>
<text text-anchor="start" x="374" y="-470.5" font-family="Helvetica,sans-Serif" font-size="10.00">+ setHashKey()</text>
<text text-anchor="start" x="374" y="-459.5" font-family="Helvetica,sans-Serif" font-size="10.00">+ setWidgetFromXml()</text>
<text text-anchor="start" x="374" y="-448.5" font-family="Helvetica,sans-Serif" font-size="10.00">+ setXmlFromWidget()</text>
<text text-anchor="start" x="374" y="-437.5" font-family="Helvetica,sans-Serif" font-size="10.00"># FCore()</text>
<text text-anchor="start" x="374" y="-426.5" font-family="Helvetica,sans-Serif" font-size="10.00"># FCore()</text>
</a>
</g>
</g>
<!-- Node8&#45;&gt;Node14 -->
<g id="edge12" class="edge"><title>Node8&#45;&gt;Node14</title>
<path fill="none" stroke="midnightblue" d="M307.128,-921.742C324.345,-872.878 355.541,-784.338 382.568,-707.632"/>
<polygon fill="none" stroke="midnightblue" points="303.796,-920.665 303.774,-931.26 310.399,-922.991 303.796,-920.665"/>
</g>
<!-- Node9 -->
<g id="node5" class="node"><title>Node9</title>
<g id="a_node5"><a xlink:href="class_f_string.html" target="_top" xlink:title="Chaîne de caractères fonctionnelle. ">
<polygon fill="white" stroke="black" points="481,-788.5 481,-1131.5 573,-1131.5 573,-788.5 481,-788.5"/>
<text text-anchor="middle" x="527" y="-1119.5" font-family="Helvetica,sans-Serif" font-size="10.00">FString</text>
<polyline fill="none" stroke="black" points="481,-1112.5 573,-1112.5 "/>
<text text-anchor="start" x="489" y="-1100.5" font-family="Helvetica,sans-Serif" font-size="10.00">&#45; p</text>
<text text-anchor="start" x="489" y="-1089.5" font-family="Helvetica,sans-Serif" font-size="10.00">&#45; x</text>
<polyline fill="none" stroke="black" points="481,-1082.5 573,-1082.5 "/>
<text text-anchor="start" x="489" y="-1070.5" font-family="Helvetica,sans-Serif" font-size="10.00">+ FString()</text>
<text text-anchor="start" x="489" y="-1059.5" font-family="Helvetica,sans-Serif" font-size="10.00">+ FString()</text>
<text text-anchor="start" x="489" y="-1048.5" font-family="Helvetica,sans-Serif" font-size="10.00">+ FString()</text>
<text text-anchor="start" x="489" y="-1037.5" font-family="Helvetica,sans-Serif" font-size="10.00">+ FString()</text>
<text text-anchor="start" x="489" y="-1026.5" font-family="Helvetica,sans-Serif" font-size="10.00">+ FString()</text>
<text text-anchor="start" x="489" y="-1015.5" font-family="Helvetica,sans-Serif" font-size="10.00">+ fromBool()</text>
<text text-anchor="start" x="489" y="-1004.5" font-family="Helvetica,sans-Serif" font-size="10.00">+ isBoolean()</text>
<text text-anchor="start" x="489" y="-993.5" font-family="Helvetica,sans-Serif" font-size="10.00">+ isFalse()</text>
<text text-anchor="start" x="489" y="-982.5" font-family="Helvetica,sans-Serif" font-size="10.00">+ isFilled()</text>
<text text-anchor="start" x="489" y="-971.5" font-family="Helvetica,sans-Serif" font-size="10.00">+ isMultimodal()</text>
<text text-anchor="start" x="489" y="-960.5" font-family="Helvetica,sans-Serif" font-size="10.00">+ isTrue()</text>
<text text-anchor="start" x="489" y="-949.5" font-family="Helvetica,sans-Serif" font-size="10.00">+ operator!()</text>
<text text-anchor="start" x="489" y="-938.5" font-family="Helvetica,sans-Serif" font-size="10.00">+ operator&amp;()</text>
<text text-anchor="start" x="489" y="-927.5" font-family="Helvetica,sans-Serif" font-size="10.00">+ operator&amp;()</text>
<text text-anchor="start" x="489" y="-916.5" font-family="Helvetica,sans-Serif" font-size="10.00">+ operator&amp;=()</text>
<text text-anchor="start" x="489" y="-905.5" font-family="Helvetica,sans-Serif" font-size="10.00">+ operator&amp;=()</text>
<text text-anchor="start" x="489" y="-894.5" font-family="Helvetica,sans-Serif" font-size="10.00">+ operator*()</text>
<text text-anchor="start" x="489" y="-883.5" font-family="Helvetica,sans-Serif" font-size="10.00">+ operator|()</text>
<text text-anchor="start" x="489" y="-872.5" font-family="Helvetica,sans-Serif" font-size="10.00">+ setMultimodal()</text>
<text text-anchor="start" x="489" y="-861.5" font-family="Helvetica,sans-Serif" font-size="10.00">+ split()</text>
<text text-anchor="start" x="489" y="-850.5" font-family="Helvetica,sans-Serif" font-size="10.00">+ split()</text>
<text text-anchor="start" x="489" y="-839.5" font-family="Helvetica,sans-Serif" font-size="10.00">+ toBool()</text>
<text text-anchor="start" x="489" y="-828.5" font-family="Helvetica,sans-Serif" font-size="10.00">+ toggle()</text>
<text text-anchor="start" x="489" y="-817.5" font-family="Helvetica,sans-Serif" font-size="10.00">+ toQString()</text>
<text text-anchor="start" x="489" y="-806.5" font-family="Helvetica,sans-Serif" font-size="10.00">+ toQStringRef()</text>
<text text-anchor="start" x="489" y="-795.5" font-family="Helvetica,sans-Serif" font-size="10.00">&#45; testBool()</text>
</a>
</g>
</g>
<!-- Node9&#45;&gt;Node5 -->
<g id="edge13" class="edge"><title>Node9&#45;&gt;Node5</title>
<path fill="none" stroke="#404040" d="M573.176,-909.892C608.75,-868.465 655.108,-805.715 675,-741 747.996,-503.521 740.621,-421.346 674,-182 665.395,-151.086 663.412,-138.225 637,-120 586.618,-85.2346 415.824,-65.6552 319.86,-57.1539"/>
<polygon fill="none" stroke="#404040" points="319.643,-57.1353 313.32,-60.6025 307.688,-56.0995 314.011,-52.6323 319.643,-57.1353"/>
<text text-anchor="middle" x="750.5" y="-360" font-family="Helvetica,sans-Serif" font-size="10.00"> &#45;standardMsg</text>
</g>
<!-- Node9&#45;&gt;Node7 -->
<g id="edge4" class="edge"><title>Node9&#45;&gt;Node7</title>
<path fill="none" stroke="#404040" d="M480.655,-920.214C439.146,-885.506 376.582,-833.267 322,-788 296.726,-767.039 284.264,-767.59 265,-741 264.457,-740.251 263.918,-739.496 263.382,-738.738"/>
<polygon fill="none" stroke="#404040" points="263.291,-738.602 256.63,-735.839 256.619,-728.627 263.28,-731.39 263.291,-738.602"/>
<text text-anchor="middle" x="328" y="-762" font-family="Helvetica,sans-Serif" font-size="10.00"> +htmlLogPath</text>
</g>
<!-- Node10 -->
<g id="node6" class="node"><title>Node10</title>
<polygon fill="white" stroke="#bfbfbf" points="502,-1169.5 502,-1226.5 552,-1226.5 552,-1169.5 502,-1169.5"/>
<text text-anchor="middle" x="527" y="-1214.5" font-family="Helvetica,sans-Serif" font-size="10.00">QString</text>
<polyline fill="none" stroke="#bfbfbf" points="502,-1207.5 552,-1207.5 "/>
<text text-anchor="middle" x="527" y="-1195.5" font-family="Helvetica,sans-Serif" font-size="10.00"> </text>
<polyline fill="none" stroke="#bfbfbf" points="502,-1188.5 552,-1188.5 "/>
<text text-anchor="middle" x="527" y="-1176.5" font-family="Helvetica,sans-Serif" font-size="10.00"> </text>
</g>
<!-- Node10&#45;&gt;Node9 -->
<g id="edge5" class="edge"><title>Node10&#45;&gt;Node9</title>
<path fill="none" stroke="midnightblue" d="M527,-1159.43C527,-1151.05 527,-1141.64 527,-1131.59"/>
<polygon fill="none" stroke="midnightblue" points="523.5,-1159.47 527,-1169.47 530.5,-1159.47 523.5,-1159.47"/>
</g>
<!-- Node11&#45;&gt;Node5 -->
<g id="edge7" class="edge"><title>Node11&#45;&gt;Node5</title>
<path fill="none" stroke="midnightblue" d="M172.414,-178.802C182.955,-159.311 194.552,-138.713 206,-120 209.67,-114.002 213.657,-107.808 217.705,-101.714"/>
<polygon fill="none" stroke="midnightblue" points="169.299,-177.203 167.649,-187.669 175.466,-180.517 169.299,-177.203"/>
</g>
<!-- Node12 -->
<g id="node8" class="node"><title>Node12</title>
<g id="a_node8"><a xlink:href="class_f_combo_box.html" target="_top" xlink:title="{FComboBox\n|+ comboBoxTranslationHash\l+ signalList\l|+ FComboBox()\l+ FComboBox()\l+ FComboBox()\l+ FComboBox()\l+ FComboBox()\l+ isAbstractEnabled()\l+ setWidgetFromXml()\l+ setXmlFromWidget()\l&#45; fromCurrentIndex()\l}">
<polygon fill="white" stroke="black" points="248.5,-182.5 248.5,-338.5 391.5,-338.5 391.5,-182.5 248.5,-182.5"/>
<text text-anchor="middle" x="320" y="-326.5" font-family="Helvetica,sans-Serif" font-size="10.00">FComboBox</text>
<polyline fill="none" stroke="black" points="248.5,-319.5 391.5,-319.5 "/>
<text text-anchor="start" x="256.5" y="-307.5" font-family="Helvetica,sans-Serif" font-size="10.00">+ comboBoxTranslationHash</text>
<text text-anchor="start" x="256.5" y="-296.5" font-family="Helvetica,sans-Serif" font-size="10.00">+ signalList</text>
<polyline fill="none" stroke="black" points="248.5,-289.5 391.5,-289.5 "/>
<text text-anchor="start" x="256.5" y="-277.5" font-family="Helvetica,sans-Serif" font-size="10.00">+ FComboBox()</text>
<text text-anchor="start" x="256.5" y="-266.5" font-family="Helvetica,sans-Serif" font-size="10.00">+ FComboBox()</text>
<text text-anchor="start" x="256.5" y="-255.5" font-family="Helvetica,sans-Serif" font-size="10.00">+ FComboBox()</text>
<text text-anchor="start" x="256.5" y="-244.5" font-family="Helvetica,sans-Serif" font-size="10.00">+ FComboBox()</text>
<text text-anchor="start" x="256.5" y="-233.5" font-family="Helvetica,sans-Serif" font-size="10.00">+ FComboBox()</text>
<text text-anchor="start" x="256.5" y="-222.5" font-family="Helvetica,sans-Serif" font-size="10.00">+ isAbstractEnabled()</text>
<text text-anchor="start" x="256.5" y="-211.5" font-family="Helvetica,sans-Serif" font-size="10.00">+ setWidgetFromXml()</text>
<text text-anchor="start" x="256.5" y="-200.5" font-family="Helvetica,sans-Serif" font-size="10.00">+ setXmlFromWidget()</text>
<text text-anchor="start" x="256.5" y="-189.5" font-family="Helvetica,sans-Serif" font-size="10.00">&#45; fromCurrentIndex()</text>
</a>
</g>
</g>
<!-- Node12&#45;&gt;Node5 -->
<g id="edge9" class="edge"><title>Node12&#45;&gt;Node5</title>
<path fill="none" stroke="#404040" d="M295.052,-182.235C287.706,-159.485 279.772,-134.914 272.797,-113.31"/>
<polygon fill="none" stroke="#404040" points="272.717,-113.063 267.067,-108.583 269.03,-101.644 274.68,-106.124 272.717,-113.063"/>
<text text-anchor="middle" x="336" y="-150.5" font-family="Helvetica,sans-Serif" font-size="10.00"> &#45;processTypeWidget</text>
<text text-anchor="middle" x="336" y="-139.5" font-family="Helvetica,sans-Serif" font-size="10.00">+exportWidget</text>
<text text-anchor="middle" x="336" y="-128.5" font-family="Helvetica,sans-Serif" font-size="10.00">&#45;baseTypeWidget</text>
</g>
<!-- Node13 -->
<g id="node9" class="node"><title>Node13</title>
<polygon fill="white" stroke="#bfbfbf" points="274.5,-535 274.5,-592 347.5,-592 347.5,-535 274.5,-535"/>
<text text-anchor="middle" x="311" y="-580" font-family="Helvetica,sans-Serif" font-size="10.00">QComboBox</text>
<polyline fill="none" stroke="#bfbfbf" points="274.5,-573 347.5,-573 "/>
<text text-anchor="middle" x="311" y="-561" font-family="Helvetica,sans-Serif" font-size="10.00"> </text>
<polyline fill="none" stroke="#bfbfbf" points="274.5,-554 347.5,-554 "/>
<text text-anchor="middle" x="311" y="-542" font-family="Helvetica,sans-Serif" font-size="10.00"> </text>
</g>
<!-- Node13&#45;&gt;Node12 -->
<g id="edge10" class="edge"><title>Node13&#45;&gt;Node12</title>
<path fill="none" stroke="midnightblue" d="M312.128,-524.779C313.516,-478.359 315.908,-398.37 317.691,-338.71"/>
<polygon fill="none" stroke="midnightblue" points="308.623,-524.89 311.823,-534.99 315.62,-525.099 308.623,-524.89"/>
</g>
<!-- Node14&#45;&gt;Node12 -->
<g id="edge11" class="edge"><title>Node14&#45;&gt;Node12</title>
<path fill="none" stroke="midnightblue" d="M375.749,-410C366.449,-385.226 357.175,-360.525 348.938,-338.581"/>
<polygon fill="none" stroke="midnightblue" points="372.522,-411.361 379.313,-419.493 379.075,-408.901 372.522,-411.361"/>
</g>
<!-- Node15 -->
<g id="node11" class="node"><title>Node15</title>
<g id="a_node11"><a xlink:href="class_f_line_edit.html" target="_top" xlink:title="{FLineEdit\n||+ FLineEdit()\l+ FLineEdit()\l+ FLineEdit()\l+ FLineEdit()\l+ FLineEdit()\l+ FLineEdit()\l+ isAbstractEnabled()\l+ setWidgetFromXml()\l+ setXmlFromWidget()\l}">
<polygon fill="white" stroke="black" points="410,-188 410,-333 526,-333 526,-188 410,-188"/>
<text text-anchor="middle" x="468" y="-321" font-family="Helvetica,sans-Serif" font-size="10.00">FLineEdit</text>
<polyline fill="none" stroke="black" points="410,-314 526,-314 "/>
<text text-anchor="middle" x="468" y="-302" font-family="Helvetica,sans-Serif" font-size="10.00"> </text>
<polyline fill="none" stroke="black" points="410,-295 526,-295 "/>
<text text-anchor="start" x="418" y="-283" font-family="Helvetica,sans-Serif" font-size="10.00">+ FLineEdit()</text>
<text text-anchor="start" x="418" y="-272" font-family="Helvetica,sans-Serif" font-size="10.00">+ FLineEdit()</text>
<text text-anchor="start" x="418" y="-261" font-family="Helvetica,sans-Serif" font-size="10.00">+ FLineEdit()</text>
<text text-anchor="start" x="418" y="-250" font-family="Helvetica,sans-Serif" font-size="10.00">+ FLineEdit()</text>
<text text-anchor="start" x="418" y="-239" font-family="Helvetica,sans-Serif" font-size="10.00">+ FLineEdit()</text>
<text text-anchor="start" x="418" y="-228" font-family="Helvetica,sans-Serif" font-size="10.00">+ FLineEdit()</text>
<text text-anchor="start" x="418" y="-217" font-family="Helvetica,sans-Serif" font-size="10.00">+ isAbstractEnabled()</text>
<text text-anchor="start" x="418" y="-206" font-family="Helvetica,sans-Serif" font-size="10.00">+ setWidgetFromXml()</text>
<text text-anchor="start" x="418" y="-195" font-family="Helvetica,sans-Serif" font-size="10.00">+ setXmlFromWidget()</text>
</a>
</g>
</g>
<!-- Node14&#45;&gt;Node15 -->
<g id="edge16" class="edge"><title>Node14&#45;&gt;Node15</title>
<path fill="none" stroke="midnightblue" d="M450.811,-409.329C453.895,-382.807 456.966,-356.395 459.641,-333.39"/>
<polygon fill="none" stroke="midnightblue" points="447.307,-409.155 449.629,-419.493 454.26,-409.964 447.307,-409.155"/>
</g>
<!-- Node17 -->
<g id="node13" class="node"><title>Node17</title>
<g id="a_node13"><a xlink:href="class_f_check_box.html" target="_top" xlink:title="{FCheckBox\n||+ FCheckBox()\l+ FCheckBox()\l+ FCheckBox()\l+ FCheckBox()\l+ FCheckBox()\l+ FCheckBox()\l+ isAbstractEnabled()\l+ setWidgetFromXml()\l+ setXmlFromWidget()\l&#45; uncheckDisabledBox()\l}">
<polygon fill="white" stroke="black" points="544.5,-182.5 544.5,-338.5 665.5,-338.5 665.5,-182.5 544.5,-182.5"/>
<text text-anchor="middle" x="605" y="-326.5" font-family="Helvetica,sans-Serif" font-size="10.00">FCheckBox</text>
<polyline fill="none" stroke="black" points="544.5,-319.5 665.5,-319.5 "/>
<text text-anchor="middle" x="605" y="-307.5" font-family="Helvetica,sans-Serif" font-size="10.00"> </text>
<polyline fill="none" stroke="black" points="544.5,-300.5 665.5,-300.5 "/>
<text text-anchor="start" x="552.5" y="-288.5" font-family="Helvetica,sans-Serif" font-size="10.00">+ FCheckBox()</text>
<text text-anchor="start" x="552.5" y="-277.5" font-family="Helvetica,sans-Serif" font-size="10.00">+ FCheckBox()</text>
<text text-anchor="start" x="552.5" y="-266.5" font-family="Helvetica,sans-Serif" font-size="10.00">+ FCheckBox()</text>
<text text-anchor="start" x="552.5" y="-255.5" font-family="Helvetica,sans-Serif" font-size="10.00">+ FCheckBox()</text>
<text text-anchor="start" x="552.5" y="-244.5" font-family="Helvetica,sans-Serif" font-size="10.00">+ FCheckBox()</text>
<text text-anchor="start" x="552.5" y="-233.5" font-family="Helvetica,sans-Serif" font-size="10.00">+ FCheckBox()</text>
<text text-anchor="start" x="552.5" y="-222.5" font-family="Helvetica,sans-Serif" font-size="10.00">+ isAbstractEnabled()</text>
<text text-anchor="start" x="552.5" y="-211.5" font-family="Helvetica,sans-Serif" font-size="10.00">+ setWidgetFromXml()</text>
<text text-anchor="start" x="552.5" y="-200.5" font-family="Helvetica,sans-Serif" font-size="10.00">+ setXmlFromWidget()</text>
<text text-anchor="start" x="552.5" y="-189.5" font-family="Helvetica,sans-Serif" font-size="10.00">&#45; uncheckDisabledBox()</text>
</a>
</g>
</g>
<!-- Node14&#45;&gt;Node17 -->
<g id="edge19" class="edge"><title>Node14&#45;&gt;Node17</title>
<path fill="none" stroke="midnightblue" d="M495.596,-410.272C499.927,-401.957 504.404,-393.814 509,-386 519.379,-368.356 531.916,-350.364 544.457,-333.743"/>
<polygon fill="none" stroke="midnightblue" points="492.389,-408.857 490.955,-419.354 498.622,-412.042 492.389,-408.857"/>
</g>
<!-- Node15&#45;&gt;Node5 -->
<g id="edge14" class="edge"><title>Node15&#45;&gt;Node5</title>
<path fill="none" stroke="#404040" d="M436.708,-187.939C423.829,-164.22 407.15,-139.044 387,-120 367.522,-101.592 342.098,-87.0074 318.637,-76.1422"/>
<polygon fill="none" stroke="#404040" points="318.632,-76.1401 311.524,-77.354 307.669,-71.2594 314.778,-70.0455 318.632,-76.1401"/>
<text text-anchor="middle" x="466.5" y="-139.5" font-family="Helvetica,sans-Serif" font-size="10.00"> &#45;maxNLigneLineEdit</text>
</g>
<!-- Node16 -->
<g id="node12" class="node"><title>Node16</title>
<polygon fill="white" stroke="#bfbfbf" points="518.5,-535 518.5,-592 577.5,-592 577.5,-535 518.5,-535"/>
<text text-anchor="middle" x="548" y="-580" font-family="Helvetica,sans-Serif" font-size="10.00">QLineEdit</text>
<polyline fill="none" stroke="#bfbfbf" points="518.5,-573 577.5,-573 "/>
<text text-anchor="middle" x="548" y="-561" font-family="Helvetica,sans-Serif" font-size="10.00"> </text>
<polyline fill="none" stroke="#bfbfbf" points="518.5,-554 577.5,-554 "/>
<text text-anchor="middle" x="548" y="-542" font-family="Helvetica,sans-Serif" font-size="10.00"> </text>
</g>
<!-- Node16&#45;&gt;Node15 -->
<g id="edge15" class="edge"><title>Node16&#45;&gt;Node15</title>
<path fill="none" stroke="midnightblue" d="M540.801,-524.733C533.684,-488.811 521.999,-433.376 509,-386 504.273,-368.773 498.59,-350.404 492.981,-333.214"/>
<polygon fill="none" stroke="midnightblue" points="537.411,-525.636 542.772,-534.774 544.28,-524.287 537.411,-525.636"/>
</g>
<!-- Node17&#45;&gt;Node5 -->
<g id="edge17" class="edge"><title>Node17&#45;&gt;Node5</title>
<path fill="none" stroke="#404040" d="M569.878,-182.399C556.035,-159.378 538.085,-136.034 516,-120 458.134,-77.9893 376.554,-61.8887 319.65,-55.7433"/>
<polygon fill="none" stroke="#404040" points="319.483,-55.7269 313.118,-59.1165 307.542,-54.545 313.906,-51.1554 319.483,-55.7269"/>
<text text-anchor="middle" x="595" y="-156" font-family="Helvetica,sans-Serif" font-size="10.00"> +tableCheckBox</text>
<text text-anchor="middle" x="595" y="-145" font-family="Helvetica,sans-Serif" font-size="10.00">&#45;etabCheckBox</text>
<text text-anchor="middle" x="595" y="-134" font-family="Helvetica,sans-Serif" font-size="10.00">&#45;rangCheckBox</text>
<text text-anchor="middle" x="595" y="-123" font-family="Helvetica,sans-Serif" font-size="10.00">+FPHCheckBox</text>
</g>
<!-- Node18 -->
<g id="node14" class="node"><title>Node18</title>
<polygon fill="white" stroke="#bfbfbf" points="596,-535 596,-592 666,-592 666,-535 596,-535"/>
<text text-anchor="middle" x="631" y="-580" font-family="Helvetica,sans-Serif" font-size="10.00">QCheckBox</text>
<polyline fill="none" stroke="#bfbfbf" points="596,-573 666,-573 "/>
<text text-anchor="middle" x="631" y="-561" font-family="Helvetica,sans-Serif" font-size="10.00"> </text>
<polyline fill="none" stroke="#bfbfbf" points="596,-554 666,-554 "/>
<text text-anchor="middle" x="631" y="-542" font-family="Helvetica,sans-Serif" font-size="10.00"> </text>
</g>
<!-- Node18&#45;&gt;Node17 -->
<g id="edge18" class="edge"><title>Node18&#45;&gt;Node17</title>
<path fill="none" stroke="midnightblue" d="M627.742,-524.779C623.732,-478.359 616.823,-398.37 611.669,-338.71"/>
<polygon fill="none" stroke="midnightblue" points="624.276,-525.329 628.624,-534.99 631.25,-524.726 624.276,-525.329"/>
</g>
</g>
</svg>
