<?xml version="1.0" encoding="UTF-8" standalone="no"?>
<!DOCTYPE svg PUBLIC "-//W3C//DTD SVG 1.1//EN"
 "http://www.w3.org/Graphics/SVG/1.1/DTD/svg11.dtd">
<!-- Generated by graphviz version 2.38.0 (20140413.2041)
 -->
<!-- Title: FListFrame::finalise Pages: 1 -->
<svg width="434pt" height="192pt"
 viewBox="0.00 0.00 434.00 192.00" xmlns="http://www.w3.org/2000/svg" xmlns:xlink="http://www.w3.org/1999/xlink">
<g id="graph0" class="graph" transform="scale(1 1) rotate(0) translate(4 188)">
<title>FListFrame::finalise</title>
<polygon fill="white" stroke="none" points="-4,4 -4,-188 430,-188 430,4 -4,4"/>
<!-- Node363 -->
<g id="node1" class="node"><title>Node363</title>
<polygon fill="#bfbfbf" stroke="black" points="0,-82.5 0,-101.5 103,-101.5 103,-82.5 0,-82.5"/>
<text text-anchor="middle" x="51.5" y="-89.5" font-family="Helvetica,sans-Serif" font-size="10.00">FListFrame::finalise</text>
</g>
<!-- Node364 -->
<g id="node2" class="node"><title>Node364</title>
<g id="a_node2"><a xlink:href="class_f_list_frame.html#a5c6ce884a0169251e359364921d1f89c" target="_top" xlink:title="FListFrame::addNewTab">
<polygon fill="white" stroke="black" points="147.5,-164.5 147.5,-183.5 272.5,-183.5 272.5,-164.5 147.5,-164.5"/>
<text text-anchor="middle" x="210" y="-171.5" font-family="Helvetica,sans-Serif" font-size="10.00">FListFrame::addNewTab</text>
</a>
</g>
</g>
<!-- Node363&#45;&gt;Node364 -->
<g id="edge1" class="edge"><title>Node363&#45;&gt;Node364</title>
<path fill="none" stroke="midnightblue" d="M62.8723,-101.537C78.3334,-115.266 108.849,-140.537 139,-155 143.896,-157.349 149.129,-159.445 154.447,-161.308"/>
<polygon fill="midnightblue" stroke="midnightblue" points="153.463,-164.668 164.055,-164.412 155.616,-158.007 153.463,-164.668"/>
</g>
<!-- Node366 -->
<g id="node4" class="node"><title>Node366</title>
<g id="a_node4"><a xlink:href="class_hash.html#a2ac10203aa8b32a04d9088e08ddbaab4" target="_top" xlink:title="Hash::createReference">
<polygon fill="white" stroke="black" points="151,-126.5 151,-145.5 269,-145.5 269,-126.5 151,-126.5"/>
<text text-anchor="middle" x="210" y="-133.5" font-family="Helvetica,sans-Serif" font-size="10.00">Hash::createReference</text>
</a>
</g>
</g>
<!-- Node363&#45;&gt;Node366 -->
<g id="edge3" class="edge"><title>Node363&#45;&gt;Node366</title>
<path fill="none" stroke="midnightblue" d="M84.9143,-101.504C101.137,-106.226 121.088,-111.981 139,-117 146.931,-119.222 155.378,-121.549 163.561,-123.782"/>
<polygon fill="midnightblue" stroke="midnightblue" points="162.79,-127.2 173.358,-126.446 164.627,-120.445 162.79,-127.2"/>
</g>
<!-- Node367 -->
<g id="node5" class="node"><title>Node367</title>
<g id="a_node5"><a xlink:href="class_f_list_frame.html#a560addf9867fbd5d05fbdb024e5b272c" target="_top" xlink:title="FListFrame::setStrikeOut\lFileNames">
<polygon fill="white" stroke="black" points="146.5,-77 146.5,-107 273.5,-107 273.5,-77 146.5,-77"/>
<text text-anchor="start" x="154.5" y="-95" font-family="Helvetica,sans-Serif" font-size="10.00">FListFrame::setStrikeOut</text>
<text text-anchor="middle" x="210" y="-84" font-family="Helvetica,sans-Serif" font-size="10.00">FileNames</text>
</a>
</g>
</g>
<!-- Node363&#45;&gt;Node367 -->
<g id="edge4" class="edge"><title>Node363&#45;&gt;Node367</title>
<path fill="none" stroke="midnightblue" d="M103.311,-92C113.834,-92 125.116,-92 136.248,-92"/>
<polygon fill="midnightblue" stroke="midnightblue" points="136.404,-95.5001 146.404,-92 136.404,-88.5001 136.404,-95.5001"/>
</g>
<!-- Node368 -->
<g id="node6" class="node"><title>Node368</title>
<g id="a_node6"><a xlink:href="class_f_list_widget.html#aac6eaaeb9946354f743394b54c84a6a7" target="_top" xlink:title="FListWidget::setTabLabels">
<polygon fill="white" stroke="black" points="143,-38.5 143,-57.5 277,-57.5 277,-38.5 143,-38.5"/>
<text text-anchor="middle" x="210" y="-45.5" font-family="Helvetica,sans-Serif" font-size="10.00">FListWidget::setTabLabels</text>
</a>
</g>
</g>
<!-- Node363&#45;&gt;Node368 -->
<g id="edge5" class="edge"><title>Node363&#45;&gt;Node368</title>
<path fill="none" stroke="midnightblue" d="M86.4582,-82.4527C109.53,-75.9661 140.261,-67.326 165.176,-60.3211"/>
<polygon fill="midnightblue" stroke="midnightblue" points="166.429,-63.6047 175.108,-57.5287 164.534,-56.866 166.429,-63.6047"/>
</g>
<!-- Node369 -->
<g id="node7" class="node"><title>Node369</title>
<g id="a_node7"><a xlink:href="class_f_list_frame.html#a356ad4309df1e931fb3ee12ad88054fb" target="_top" xlink:title="Actualise currentWidget, row et currentIndex. ">
<polygon fill="white" stroke="black" points="139,-0.5 139,-19.5 281,-19.5 281,-0.5 139,-0.5"/>
<text text-anchor="middle" x="210" y="-7.5" font-family="Helvetica,sans-Serif" font-size="10.00">FListFrame::updateIndexInfo</text>
</a>
</g>
</g>
<!-- Node363&#45;&gt;Node369 -->
<g id="edge6" class="edge"><title>Node363&#45;&gt;Node369</title>
<path fill="none" stroke="midnightblue" d="M62.8723,-82.4634C78.3334,-68.7337 108.849,-43.4631 139,-29 143.896,-26.6513 149.129,-24.5547 154.447,-22.692"/>
<polygon fill="midnightblue" stroke="midnightblue" points="155.616,-25.9927 164.055,-19.5877 153.463,-19.3317 155.616,-25.9927"/>
</g>
<!-- Node365 -->
<g id="node3" class="node"><title>Node365</title>
<g id="a_node3"><a xlink:href="class_f_list_frame.html#a4bf0d0d8e56418df395b020d2e66db5f" target="_top" xlink:title="Récupère la taille courante (0&#45;based) du conteneur widgetContainer. ">
<polygon fill="white" stroke="black" points="317,-164.5 317,-183.5 426,-183.5 426,-164.5 317,-164.5"/>
<text text-anchor="middle" x="371.5" y="-171.5" font-family="Helvetica,sans-Serif" font-size="10.00">FListFrame::getRank</text>
</a>
</g>
</g>
<!-- Node364&#45;&gt;Node365 -->
<g id="edge2" class="edge"><title>Node364&#45;&gt;Node365</title>
<path fill="none" stroke="midnightblue" d="M272.667,-174C283.808,-174 295.447,-174 306.649,-174"/>
<polygon fill="midnightblue" stroke="midnightblue" points="306.787,-177.5 316.787,-174 306.787,-170.5 306.787,-177.5"/>
</g>
</g>
</svg>
