<?xml version="1.0" encoding="UTF-8" standalone="no"?>
<!DOCTYPE svg PUBLIC "-//W3C//DTD SVG 1.1//EN"
 "http://www.w3.org/Graphics/SVG/1.1/DTD/svg11.dtd">
<!-- Generated by graphviz version 2.38.0 (20140413.2041)
 -->
<!-- Title: standardPage Pages: 1 -->
<!--zoomable 1246 -->
<svg id="main" version="1.1" xmlns="http://www.w3.org/2000/svg" xmlns:xlink="http://www.w3.org/1999/xlink" xml:space="preserve" onload="init(evt)">
<style type="text/css"><![CDATA[
.edge:hover path { stroke: red; }
.edge:hover polygon { stroke: red; fill: red; }
]]></style>
<script type="text/javascript"><![CDATA[
var edges = document.getElementsByTagName('g');
if (edges && edges.length) {
  for (var i=0;i<edges.length;i++) {
    if (edges[i].id.substr(0,4)=='edge') {
      edges[i].setAttribute('class','edge');
    }
  }
}
]]></script>
        <defs>
                <circle id="rim" cx="0" cy="0" r="7"/>
                <circle id="rim2" cx="0" cy="0" r="3.5"/>
                <g id="zoomPlus">
                        <use xlink:href="#rim" fill="#404040">
                                <set attributeName="fill" to="#808080" begin="zoomplus.mouseover" end="zoomplus.mouseout"/>
                        </use>
                        <path d="M-4,0h8M0,-4v8" fill="none" stroke="white" stroke-width="1.5" pointer-events="none"/>
                </g>
                <g id="zoomMin">
                        <use xlink:href="#rim" fill="#404040">
                                <set attributeName="fill" to="#808080" begin="zoomminus.mouseover" end="zoomminus.mouseout"/>
                        </use>
                        <path d="M-4,0h8" fill="none" stroke="white" stroke-width="1.5" pointer-events="none"/>
                </g>
                <g id="dirArrow">
                        <path fill="none" stroke="white" stroke-width="1.5" d="M0,-3.0v7 M-2.5,-0.5L0,-3.0L2.5,-0.5"/>
                </g>
               <g id="resetDef">
                       <use xlink:href="#rim2" fill="#404040">
                               <set attributeName="fill" to="#808080" begin="reset.mouseover" end="reset.mouseout"/>
                       </use>
               </g>
        </defs>

<script type="text/javascript">
var viewWidth = 808;
var viewHeight = 1246;
var sectionId = 'dynsection-1';
</script>
<script xlink:href="svgpan.js"/>
<svg id="graph" class="graph">
<g id="viewport">
<title>standardPage</title>
<polygon fill="white" stroke="none" points="-4,4 -4,-1242 804,-1242 804,4 -4,4"/>
<!-- Node5 -->
<g id="node1" class="node"><title>Node5</title>
<polygon fill="#bfbfbf" stroke="black" points="198.5,-0.5 198.5,-101.5 307.5,-101.5 307.5,-0.5 198.5,-0.5"/>
<text text-anchor="middle" x="253" y="-89.5" font-family="Helvetica,sans-Serif" font-size="10.00">standardPage</text>
<polyline fill="none" stroke="black" points="198.5,-82.5 307.5,-82.5 "/>
<text text-anchor="start" x="206.5" y="-70.5" font-family="Helvetica,sans-Serif" font-size="10.00">&#45; baseTypeBox</text>
<text text-anchor="start" x="206.5" y="-59.5" font-family="Helvetica,sans-Serif" font-size="10.00">&#45; maxNLigneLabel</text>
<polyline fill="none" stroke="black" points="198.5,-52.5 307.5,-52.5 "/>
<text text-anchor="start" x="206.5" y="-40.5" font-family="Helvetica,sans-Serif" font-size="10.00">+ standardPage()</text>
<text text-anchor="start" x="206.5" y="-29.5" font-family="Helvetica,sans-Serif" font-size="10.00">+ standardPage()</text>
<text text-anchor="start" x="206.5" y="-18.5" font-family="Helvetica,sans-Serif" font-size="10.00">&#45; substituer_versant()</text>
<text text-anchor="start" x="206.5" y="-7.5" font-family="Helvetica,sans-Serif" font-size="10.00">&#45; substituer_versant()</text>
</g>
<!-- Node6 -->
<g id="node2" class="node"><title>Node6</title>
<polygon fill="white" stroke="#bfbfbf" points="0,-237.5 0,-294.5 52,-294.5 52,-237.5 0,-237.5"/>
<text text-anchor="middle" x="26" y="-282.5" font-family="Helvetica,sans-Serif" font-size="10.00">QDialog</text>
<polyline fill="none" stroke="#bfbfbf" points="0,-275.5 52,-275.5 "/>
<text text-anchor="middle" x="26" y="-263.5" font-family="Helvetica,sans-Serif" font-size="10.00"> </text>
<polyline fill="none" stroke="#bfbfbf" points="0,-256.5 52,-256.5 "/>
<text text-anchor="middle" x="26" y="-244.5" font-family="Helvetica,sans-Serif" font-size="10.00"> </text>
</g>
<!-- Node6&#45;&gt;Node5 -->
<g id="edge1" class="edge"><title>Node6&#45;&gt;Node5</title>
<path fill="none" stroke="midnightblue" d="M28.2413,-227.745C33.0998,-212.466 41.0932,-195.287 52,-182 91.589,-133.772 153.624,-96.2881 198.409,-74.2179"/>
<polygon fill="none" stroke="midnightblue" points="24.8498,-226.877 25.5022,-237.452 31.5866,-228.778 24.8498,-226.877"/>
</g>
<!-- Node6&#45;&gt;Node5 -->
<g id="edge6" class="edge"><title>Node6&#45;&gt;Node5</title>
<path fill="none" stroke="midnightblue" d="M44.8163,-227.745C51.0998,-212.466 59.0932,-195.287 70,-182 105.247,-139.062 158.286,-104.64 198.283,-82.0298"/>
<polygon fill="none" stroke="midnightblue" points="41.3973,-226.868 40.9207,-237.452 47.8936,-229.475 41.3973,-226.868"/>
</g>
<!-- Node7 -->
<g id="node3" class="node"><title>Node7</title>
<g id="a_node3"><a xlink:href="classtools.html" target="_top" xlink:title="{tools\n|+ systemPathPrefix\l+ tempdir\l+ userdatadir\l|+ tools()\l+ dump()\l+ getEmbeddedPath()\l+ readFile()\l+ readFile()\l+ readFile()\l+ readFile()\l+ renommer()\l+ substituer()\l+ cdRomMounted()\l+ copyDir()\l+ copyFile()\l+ ents()\l+ generateDatadirPath()\l+ generateDatadirPath()\l+ getDirectorySize()\l+ getFileSize()\l+ IOControl()\l+ openDir()\l+ openDirDialog()\l+ path_access()\l+ remAccents()\l+ unzip()\l+ unzipDir()\l+ zip()\l+ zipDir()\l}">
<polygon fill="white" stroke="black" points="144.5,-397.5 144.5,-751.5 265.5,-751.5 265.5,-397.5 144.5,-397.5"/>
<text text-anchor="middle" x="205" y="-739.5" font-family="Helvetica,sans-Serif" font-size="10.00">tools</text>
<polyline fill="none" stroke="black" points="144.5,-732.5 265.5,-732.5 "/>
<text text-anchor="start" x="152.5" y="-720.5" font-family="Helvetica,sans-Serif" font-size="10.00">+ systemPathPrefix</text>
<text text-anchor="start" x="152.5" y="-709.5" font-family="Helvetica,sans-Serif" font-size="10.00">+ tempdir</text>
<text text-anchor="start" x="152.5" y="-698.5" font-family="Helvetica,sans-Serif" font-size="10.00">+ userdatadir</text>
<polyline fill="none" stroke="black" points="144.5,-691.5 265.5,-691.5 "/>
<text text-anchor="start" x="152.5" y="-679.5" font-family="Helvetica,sans-Serif" font-size="10.00">+ tools()</text>
<text text-anchor="start" x="152.5" y="-668.5" font-family="Helvetica,sans-Serif" font-size="10.00">+ dump()</text>
<text text-anchor="start" x="152.5" y="-657.5" font-family="Helvetica,sans-Serif" font-size="10.00">+ getEmbeddedPath()</text>
<text text-anchor="start" x="152.5" y="-646.5" font-family="Helvetica,sans-Serif" font-size="10.00">+ readFile()</text>
<text text-anchor="start" x="152.5" y="-635.5" font-family="Helvetica,sans-Serif" font-size="10.00">+ readFile()</text>
<text text-anchor="start" x="152.5" y="-624.5" font-family="Helvetica,sans-Serif" font-size="10.00">+ readFile()</text>
<text text-anchor="start" x="152.5" y="-613.5" font-family="Helvetica,sans-Serif" font-size="10.00">+ readFile()</text>
<text text-anchor="start" x="152.5" y="-602.5" font-family="Helvetica,sans-Serif" font-size="10.00">+ renommer()</text>
<text text-anchor="start" x="152.5" y="-591.5" font-family="Helvetica,sans-Serif" font-size="10.00">+ substituer()</text>
<text text-anchor="start" x="152.5" y="-580.5" font-family="Helvetica,sans-Serif" font-size="10.00">+ cdRomMounted()</text>
<text text-anchor="start" x="152.5" y="-569.5" font-family="Helvetica,sans-Serif" font-size="10.00">+ copyDir()</text>
<text text-anchor="start" x="152.5" y="-558.5" font-family="Helvetica,sans-Serif" font-size="10.00">+ copyFile()</text>
<text text-anchor="start" x="152.5" y="-547.5" font-family="Helvetica,sans-Serif" font-size="10.00">+ ents()</text>
<text text-anchor="start" x="152.5" y="-536.5" font-family="Helvetica,sans-Serif" font-size="10.00">+ generateDatadirPath()</text>
<text text-anchor="start" x="152.5" y="-525.5" font-family="Helvetica,sans-Serif" font-size="10.00">+ generateDatadirPath()</text>
<text text-anchor="start" x="152.5" y="-514.5" font-family="Helvetica,sans-Serif" font-size="10.00">+ getDirectorySize()</text>
<text text-anchor="start" x="152.5" y="-503.5" font-family="Helvetica,sans-Serif" font-size="10.00">+ getFileSize()</text>
<text text-anchor="start" x="152.5" y="-492.5" font-family="Helvetica,sans-Serif" font-size="10.00">+ IOControl()</text>
<text text-anchor="start" x="152.5" y="-481.5" font-family="Helvetica,sans-Serif" font-size="10.00">+ openDir()</text>
<text text-anchor="start" x="152.5" y="-470.5" font-family="Helvetica,sans-Serif" font-size="10.00">+ openDirDialog()</text>
<text text-anchor="start" x="152.5" y="-459.5" font-family="Helvetica,sans-Serif" font-size="10.00">+ path_access()</text>
<text text-anchor="start" x="152.5" y="-448.5" font-family="Helvetica,sans-Serif" font-size="10.00">+ remAccents()</text>
<text text-anchor="start" x="152.5" y="-437.5" font-family="Helvetica,sans-Serif" font-size="10.00">+ unzip()</text>
<text text-anchor="start" x="152.5" y="-426.5" font-family="Helvetica,sans-Serif" font-size="10.00">+ unzipDir()</text>
<text text-anchor="start" x="152.5" y="-415.5" font-family="Helvetica,sans-Serif" font-size="10.00">+ zip()</text>
<text text-anchor="start" x="152.5" y="-404.5" font-family="Helvetica,sans-Serif" font-size="10.00">+ zipDir()</text>
</a>
</g>
</g>
<!-- Node7&#45;&gt;Node5 -->
<g id="edge2" class="edge"><title>Node7&#45;&gt;Node5</title>
<path fill="none" stroke="midnightblue" d="M220.429,-386.722C225.996,-321.879 232.512,-248.712 239,-182 241.582,-155.453 244.743,-125.888 247.408,-101.669"/>
<polygon fill="none" stroke="midnightblue" points="216.911,-386.792 219.544,-397.055 223.885,-387.39 216.911,-386.792"/>
</g>
<!-- Node11 -->
<g id="node7" class="node"><title>Node11</title>
<g id="a_node7"><a xlink:href="classcommon.html" target="_top" xlink:title="{common\n|+ altairCommandStr\l+ execPath\l+ RAltairCommandStr\l+ RAltairDirStr\l+ sharedir\l|+ common()\l+ exporter_identification\l_controle()\l+ exporter_identification\l_controle()\l}">
<polygon fill="white" stroke="black" points="70.5,-193.5 70.5,-338.5 191.5,-338.5 191.5,-193.5 70.5,-193.5"/>
<text text-anchor="middle" x="131" y="-326.5" font-family="Helvetica,sans-Serif" font-size="10.00">common</text>
<polyline fill="none" stroke="black" points="70.5,-319.5 191.5,-319.5 "/>
<text text-anchor="start" x="78.5" y="-307.5" font-family="Helvetica,sans-Serif" font-size="10.00">+ altairCommandStr</text>
<text text-anchor="start" x="78.5" y="-296.5" font-family="Helvetica,sans-Serif" font-size="10.00">+ execPath</text>
<text text-anchor="start" x="78.5" y="-285.5" font-family="Helvetica,sans-Serif" font-size="10.00">+ RAltairCommandStr</text>
<text text-anchor="start" x="78.5" y="-274.5" font-family="Helvetica,sans-Serif" font-size="10.00">+ RAltairDirStr</text>
<text text-anchor="start" x="78.5" y="-263.5" font-family="Helvetica,sans-Serif" font-size="10.00">+ sharedir</text>
<polyline fill="none" stroke="black" points="70.5,-256.5 191.5,-256.5 "/>
<text text-anchor="start" x="78.5" y="-244.5" font-family="Helvetica,sans-Serif" font-size="10.00">+ common()</text>
<text text-anchor="start" x="78.5" y="-233.5" font-family="Helvetica,sans-Serif" font-size="10.00">+ exporter_identification</text>
<text text-anchor="start" x="78.5" y="-222.5" font-family="Helvetica,sans-Serif" font-size="10.00">_controle()</text>
<text text-anchor="start" x="78.5" y="-211.5" font-family="Helvetica,sans-Serif" font-size="10.00">+ exporter_identification</text>
<text text-anchor="start" x="78.5" y="-200.5" font-family="Helvetica,sans-Serif" font-size="10.00">_controle()</text>
</a>
</g>
</g>
<!-- Node7&#45;&gt;Node11 -->
<g id="edge8" class="edge"><title>Node7&#45;&gt;Node11</title>
<path fill="none" stroke="midnightblue" d="M160.045,-387.303C155.918,-370.207 151.929,-353.685 148.297,-338.644"/>
<polygon fill="none" stroke="midnightblue" points="156.741,-388.529 162.49,-397.428 163.545,-386.886 156.741,-388.529"/>
</g>
<!-- Node8 -->
<g id="node4" class="node"><title>Node8</title>
<g id="a_node4"><a xlink:href="classflags.html" target="_top" xlink:title="{flags\n||}">
<polygon fill="white" stroke="black" points="284,-942.5 284,-999.5 322,-999.5 322,-942.5 284,-942.5"/>
<text text-anchor="middle" x="303" y="-987.5" font-family="Helvetica,sans-Serif" font-size="10.00">flags</text>
<polyline fill="none" stroke="black" points="284,-980.5 322,-980.5 "/>
<text text-anchor="middle" x="303" y="-968.5" font-family="Helvetica,sans-Serif" font-size="10.00"> </text>
<polyline fill="none" stroke="black" points="284,-961.5 322,-961.5 "/>
<text text-anchor="middle" x="303" y="-949.5" font-family="Helvetica,sans-Serif" font-size="10.00"> </text>
</a>
</g>
</g>
<!-- Node8&#45;&gt;Node7 -->
<g id="edge3" class="edge"><title>Node8&#45;&gt;Node7</title>
<path fill="none" stroke="midnightblue" d="M293.683,-932.494C283.263,-890.548 265.636,-819.59 248.829,-751.936"/>
<polygon fill="none" stroke="midnightblue" points="290.301,-933.398 296.109,-942.26 297.095,-931.711 290.301,-933.398"/>
</g>
<!-- Node14 -->
<g id="node10" class="node"><title>Node14</title>
<g id="a_node10"><a xlink:href="class_f_abstract_widget.html" target="_top" xlink:title="{FAbstractWidget\n|+ commandLineList\l+ commandLineType\l+ disabledObjects\l+ enabledObjects\l+ optionLabel\l+ status\l# componentList\l# description\l# hashKey\l# widgetDepth\l|+ commandLineStringList()\l+ getComponentList()\l+ getDepth()\l+ getDescription()\l+ getHashKey()\l+ isAbstractDisabled()\l+ isAbstractEnabled()\l+ refreshWidgetDisplay()\l+ setDisableObjects()\l+ setHashKey()\l+ setWidgetFromXml()\l+ setXmlFromWidget()\l# FCore()\l# FCore()\l}">
<polygon fill="white" stroke="black" points="375,-425 375,-724 509,-724 509,-425 375,-425"/>
<text text-anchor="middle" x="442" y="-712" font-family="Helvetica,sans-Serif" font-size="10.00">FAbstractWidget</text>
<polyline fill="none" stroke="black" points="375,-705 509,-705 "/>
<text text-anchor="start" x="383" y="-693" font-family="Helvetica,sans-Serif" font-size="10.00">+ commandLineList</text>
<text text-anchor="start" x="383" y="-682" font-family="Helvetica,sans-Serif" font-size="10.00">+ commandLineType</text>
<text text-anchor="start" x="383" y="-671" font-family="Helvetica,sans-Serif" font-size="10.00">+ disabledObjects</text>
<text text-anchor="start" x="383" y="-660" font-family="Helvetica,sans-Serif" font-size="10.00">+ enabledObjects</text>
<text text-anchor="start" x="383" y="-649" font-family="Helvetica,sans-Serif" font-size="10.00">+ optionLabel</text>
<text text-anchor="start" x="383" y="-638" font-family="Helvetica,sans-Serif" font-size="10.00">+ status</text>
<text text-anchor="start" x="383" y="-627" font-family="Helvetica,sans-Serif" font-size="10.00"># componentList</text>
<text text-anchor="start" x="383" y="-616" font-family="Helvetica,sans-Serif" font-size="10.00"># description</text>
<text text-anchor="start" x="383" y="-605" font-family="Helvetica,sans-Serif" font-size="10.00"># hashKey</text>
<text text-anchor="start" x="383" y="-594" font-family="Helvetica,sans-Serif" font-size="10.00"># widgetDepth</text>
<polyline fill="none" stroke="black" points="375,-587 509,-587 "/>
<text text-anchor="start" x="383" y="-575" font-family="Helvetica,sans-Serif" font-size="10.00">+ commandLineStringList()</text>
<text text-anchor="start" x="383" y="-564" font-family="Helvetica,sans-Serif" font-size="10.00">+ getComponentList()</text>
<text text-anchor="start" x="383" y="-553" font-family="Helvetica,sans-Serif" font-size="10.00">+ getDepth()</text>
<text text-anchor="start" x="383" y="-542" font-family="Helvetica,sans-Serif" font-size="10.00">+ getDescription()</text>
<text text-anchor="start" x="383" y="-531" font-family="Helvetica,sans-Serif" font-size="10.00">+ getHashKey()</text>
<text text-anchor="start" x="383" y="-520" font-family="Helvetica,sans-Serif" font-size="10.00">+ isAbstractDisabled()</text>
<text text-anchor="start" x="383" y="-509" font-family="Helvetica,sans-Serif" font-size="10.00">+ isAbstractEnabled()</text>
<text text-anchor="start" x="383" y="-498" font-family="Helvetica,sans-Serif" font-size="10.00">+ refreshWidgetDisplay()</text>
<text text-anchor="start" x="383" y="-487" font-family="Helvetica,sans-Serif" font-size="10.00">+ setDisableObjects()</text>
<text text-anchor="start" x="383" y="-476" font-family="Helvetica,sans-Serif" font-size="10.00">+ setHashKey()</text>
<text text-anchor="start" x="383" y="-465" font-family="Helvetica,sans-Serif" font-size="10.00">+ setWidgetFromXml()</text>
<text text-anchor="start" x="383" y="-454" font-family="Helvetica,sans-Serif" font-size="10.00">+ setXmlFromWidget()</text>
<text text-anchor="start" x="383" y="-443" font-family="Helvetica,sans-Serif" font-size="10.00"># FCore()</text>
<text text-anchor="start" x="383" y="-432" font-family="Helvetica,sans-Serif" font-size="10.00"># FCore()</text>
</a>
</g>
</g>
<!-- Node8&#45;&gt;Node14 -->
<g id="edge12" class="edge"><title>Node8&#45;&gt;Node14</title>
<path fill="none" stroke="midnightblue" d="M316.152,-932.673C332.954,-884.987 363.041,-799.596 389.584,-724.264"/>
<polygon fill="none" stroke="midnightblue" points="312.796,-931.665 312.774,-942.26 319.399,-933.991 312.796,-931.665"/>
</g>
<!-- Node9 -->
<g id="node5" class="node"><title>Node9</title>
<g id="a_node5"><a xlink:href="class_f_string.html" target="_top" xlink:title="Chaîne de caractères fonctionnelle. ">
<polygon fill="white" stroke="black" points="491,-799.5 491,-1142.5 583,-1142.5 583,-799.5 491,-799.5"/>
<text text-anchor="middle" x="537" y="-1130.5" font-family="Helvetica,sans-Serif" font-size="10.00">FString</text>
<polyline fill="none" stroke="black" points="491,-1123.5 583,-1123.5 "/>
<text text-anchor="start" x="499" y="-1111.5" font-family="Helvetica,sans-Serif" font-size="10.00">&#45; p</text>
<text text-anchor="start" x="499" y="-1100.5" font-family="Helvetica,sans-Serif" font-size="10.00">&#45; x</text>
<polyline fill="none" stroke="black" points="491,-1093.5 583,-1093.5 "/>
<text text-anchor="start" x="499" y="-1081.5" font-family="Helvetica,sans-Serif" font-size="10.00">+ FString()</text>
<text text-anchor="start" x="499" y="-1070.5" font-family="Helvetica,sans-Serif" font-size="10.00">+ FString()</text>
<text text-anchor="start" x="499" y="-1059.5" font-family="Helvetica,sans-Serif" font-size="10.00">+ FString()</text>
<text text-anchor="start" x="499" y="-1048.5" font-family="Helvetica,sans-Serif" font-size="10.00">+ FString()</text>
<text text-anchor="start" x="499" y="-1037.5" font-family="Helvetica,sans-Serif" font-size="10.00">+ FString()</text>
<text text-anchor="start" x="499" y="-1026.5" font-family="Helvetica,sans-Serif" font-size="10.00">+ fromBool()</text>
<text text-anchor="start" x="499" y="-1015.5" font-family="Helvetica,sans-Serif" font-size="10.00">+ isBoolean()</text>
<text text-anchor="start" x="499" y="-1004.5" font-family="Helvetica,sans-Serif" font-size="10.00">+ isFalse()</text>
<text text-anchor="start" x="499" y="-993.5" font-family="Helvetica,sans-Serif" font-size="10.00">+ isFilled()</text>
<text text-anchor="start" x="499" y="-982.5" font-family="Helvetica,sans-Serif" font-size="10.00">+ isMultimodal()</text>
<text text-anchor="start" x="499" y="-971.5" font-family="Helvetica,sans-Serif" font-size="10.00">+ isTrue()</text>
<text text-anchor="start" x="499" y="-960.5" font-family="Helvetica,sans-Serif" font-size="10.00">+ operator!()</text>
<text text-anchor="start" x="499" y="-949.5" font-family="Helvetica,sans-Serif" font-size="10.00">+ operator&amp;()</text>
<text text-anchor="start" x="499" y="-938.5" font-family="Helvetica,sans-Serif" font-size="10.00">+ operator&amp;()</text>
<text text-anchor="start" x="499" y="-927.5" font-family="Helvetica,sans-Serif" font-size="10.00">+ operator&amp;=()</text>
<text text-anchor="start" x="499" y="-916.5" font-family="Helvetica,sans-Serif" font-size="10.00">+ operator&amp;=()</text>
<text text-anchor="start" x="499" y="-905.5" font-family="Helvetica,sans-Serif" font-size="10.00">+ operator*()</text>
<text text-anchor="start" x="499" y="-894.5" font-family="Helvetica,sans-Serif" font-size="10.00">+ operator|()</text>
<text text-anchor="start" x="499" y="-883.5" font-family="Helvetica,sans-Serif" font-size="10.00">+ setMultimodal()</text>
<text text-anchor="start" x="499" y="-872.5" font-family="Helvetica,sans-Serif" font-size="10.00">+ split()</text>
<text text-anchor="start" x="499" y="-861.5" font-family="Helvetica,sans-Serif" font-size="10.00">+ split()</text>
<text text-anchor="start" x="499" y="-850.5" font-family="Helvetica,sans-Serif" font-size="10.00">+ toBool()</text>
<text text-anchor="start" x="499" y="-839.5" font-family="Helvetica,sans-Serif" font-size="10.00">+ toggle()</text>
<text text-anchor="start" x="499" y="-828.5" font-family="Helvetica,sans-Serif" font-size="10.00">+ toQString()</text>
<text text-anchor="start" x="499" y="-817.5" font-family="Helvetica,sans-Serif" font-size="10.00">+ toQStringRef()</text>
<text text-anchor="start" x="499" y="-806.5" font-family="Helvetica,sans-Serif" font-size="10.00">&#45; testBool()</text>
</a>
</g>
</g>
<!-- Node9&#45;&gt;Node5 -->
<g id="edge13" class="edge"><title>Node9&#45;&gt;Node5</title>
<path fill="none" stroke="#404040" d="M583.142,-920.388C618.381,-878.909 664.159,-816.341 684,-752 758.654,-509.915 765.489,-422.541 686,-182 675.234,-149.421 669.194,-138.028 640,-120 587.523,-87.5943 416.097,-67.041 319.942,-57.7644"/>
<polygon fill="none" stroke="#404040" points="319.694,-57.741 313.344,-61.1574 307.748,-56.6094 314.098,-53.193 319.694,-57.741"/>
<text text-anchor="middle" x="768.5" y="-371" font-family="Helvetica,sans-Serif" font-size="10.00"> &#45;standardMsg</text>
</g>
<!-- Node9&#45;&gt;Node7 -->
<g id="edge4" class="edge"><title>Node9&#45;&gt;Node7</title>
<path fill="none" stroke="#404040" d="M490.81,-931.585C449.084,-896.899 385.972,-844.48 331,-799 305.701,-778.07 293.264,-778.59 274,-752 273.457,-751.251 272.918,-750.496 272.382,-749.738"/>
<polygon fill="none" stroke="#404040" points="272.291,-749.602 265.63,-746.839 265.619,-739.627 272.28,-742.39 272.291,-749.602"/>
<text text-anchor="middle" x="337" y="-773" font-family="Helvetica,sans-Serif" font-size="10.00"> +htmlLogPath</text>
</g>
<!-- Node10 -->
<g id="node6" class="node"><title>Node10</title>
<polygon fill="white" stroke="#bfbfbf" points="512,-1180.5 512,-1237.5 562,-1237.5 562,-1180.5 512,-1180.5"/>
<text text-anchor="middle" x="537" y="-1225.5" font-family="Helvetica,sans-Serif" font-size="10.00">QString</text>
<polyline fill="none" stroke="#bfbfbf" points="512,-1218.5 562,-1218.5 "/>
<text text-anchor="middle" x="537" y="-1206.5" font-family="Helvetica,sans-Serif" font-size="10.00"> </text>
<polyline fill="none" stroke="#bfbfbf" points="512,-1199.5 562,-1199.5 "/>
<text text-anchor="middle" x="537" y="-1187.5" font-family="Helvetica,sans-Serif" font-size="10.00"> </text>
</g>
<!-- Node10&#45;&gt;Node9 -->
<g id="edge5" class="edge"><title>Node10&#45;&gt;Node9</title>
<path fill="none" stroke="midnightblue" d="M537,-1170.43C537,-1162.05 537,-1152.64 537,-1142.59"/>
<polygon fill="none" stroke="midnightblue" points="533.5,-1170.47 537,-1180.47 540.5,-1170.47 533.5,-1170.47"/>
</g>
<!-- Node11&#45;&gt;Node5 -->
<g id="edge7" class="edge"><title>Node11&#45;&gt;Node5</title>
<path fill="none" stroke="midnightblue" d="M170.469,-184.225C181.448,-163.033 193.738,-140.406 206,-120 209.622,-113.972 213.579,-107.761 217.611,-101.657"/>
<polygon fill="none" stroke="midnightblue" points="167.31,-182.716 165.848,-193.209 173.534,-185.918 167.31,-182.716"/>
</g>
<!-- Node12 -->
<g id="node8" class="node"><title>Node12</title>
<g id="a_node8"><a xlink:href="class_f_combo_box.html" target="_top" xlink:title="{FComboBox\n|+ comboBoxTranslationHash\l+ signalList\l|+ FComboBox()\l+ FComboBox()\l+ FComboBox()\l+ FComboBox()\l+ FComboBox()\l+ isAbstractEnabled()\l+ refreshWidgetDisplay()\l+ setWidgetFromXml()\l+ setXmlFromWidget()\l&#45; fromCurrentIndex()\l}">
<polygon fill="white" stroke="black" points="248.5,-182.5 248.5,-349.5 391.5,-349.5 391.5,-182.5 248.5,-182.5"/>
<text text-anchor="middle" x="320" y="-337.5" font-family="Helvetica,sans-Serif" font-size="10.00">FComboBox</text>
<polyline fill="none" stroke="black" points="248.5,-330.5 391.5,-330.5 "/>
<text text-anchor="start" x="256.5" y="-318.5" font-family="Helvetica,sans-Serif" font-size="10.00">+ comboBoxTranslationHash</text>
<text text-anchor="start" x="256.5" y="-307.5" font-family="Helvetica,sans-Serif" font-size="10.00">+ signalList</text>
<polyline fill="none" stroke="black" points="248.5,-300.5 391.5,-300.5 "/>
<text text-anchor="start" x="256.5" y="-288.5" font-family="Helvetica,sans-Serif" font-size="10.00">+ FComboBox()</text>
<text text-anchor="start" x="256.5" y="-277.5" font-family="Helvetica,sans-Serif" font-size="10.00">+ FComboBox()</text>
<text text-anchor="start" x="256.5" y="-266.5" font-family="Helvetica,sans-Serif" font-size="10.00">+ FComboBox()</text>
<text text-anchor="start" x="256.5" y="-255.5" font-family="Helvetica,sans-Serif" font-size="10.00">+ FComboBox()</text>
<text text-anchor="start" x="256.5" y="-244.5" font-family="Helvetica,sans-Serif" font-size="10.00">+ FComboBox()</text>
<text text-anchor="start" x="256.5" y="-233.5" font-family="Helvetica,sans-Serif" font-size="10.00">+ isAbstractEnabled()</text>
<text text-anchor="start" x="256.5" y="-222.5" font-family="Helvetica,sans-Serif" font-size="10.00">+ refreshWidgetDisplay()</text>
<text text-anchor="start" x="256.5" y="-211.5" font-family="Helvetica,sans-Serif" font-size="10.00">+ setWidgetFromXml()</text>
<text text-anchor="start" x="256.5" y="-200.5" font-family="Helvetica,sans-Serif" font-size="10.00">+ setXmlFromWidget()</text>
<text text-anchor="start" x="256.5" y="-189.5" font-family="Helvetica,sans-Serif" font-size="10.00">&#45; fromCurrentIndex()</text>
</a>
</g>
</g>
<!-- Node12&#45;&gt;Node5 -->
<g id="edge9" class="edge"><title>Node12&#45;&gt;Node5</title>
<path fill="none" stroke="#404040" d="M294,-182.344C286.769,-159.354 279.046,-134.802 272.275,-113.277"/>
<polygon fill="none" stroke="#404040" points="272.221,-113.106 266.605,-108.583 268.621,-101.659 274.237,-106.182 272.221,-113.106"/>
<text text-anchor="middle" x="334" y="-150.5" font-family="Helvetica,sans-Serif" font-size="10.00"> &#45;processTypeWidget</text>
<text text-anchor="middle" x="334" y="-139.5" font-family="Helvetica,sans-Serif" font-size="10.00">+exportWidget</text>
<text text-anchor="middle" x="334" y="-128.5" font-family="Helvetica,sans-Serif" font-size="10.00">&#45;baseTypeWidget</text>
</g>
<!-- Node13 -->
<g id="node9" class="node"><title>Node13</title>
<polygon fill="white" stroke="#bfbfbf" points="283.5,-546 283.5,-603 356.5,-603 356.5,-546 283.5,-546"/>
<text text-anchor="middle" x="320" y="-591" font-family="Helvetica,sans-Serif" font-size="10.00">QComboBox</text>
<polyline fill="none" stroke="#bfbfbf" points="283.5,-584 356.5,-584 "/>
<text text-anchor="middle" x="320" y="-572" font-family="Helvetica,sans-Serif" font-size="10.00"> </text>
<polyline fill="none" stroke="#bfbfbf" points="283.5,-565 356.5,-565 "/>
<text text-anchor="middle" x="320" y="-553" font-family="Helvetica,sans-Serif" font-size="10.00"> </text>
</g>
<!-- Node13&#45;&gt;Node12 -->
<g id="edge10" class="edge"><title>Node13&#45;&gt;Node12</title>
<path fill="none" stroke="midnightblue" d="M320,-535.604C320,-489.459 320,-410.199 320,-349.701"/>
<polygon fill="none" stroke="midnightblue" points="316.5,-535.76 320,-545.76 323.5,-535.76 316.5,-535.76"/>
</g>
<!-- Node14&#45;&gt;Node12 -->
<g id="edge11" class="edge"><title>Node14&#45;&gt;Node12</title>
<path fill="none" stroke="midnightblue" d="M379.059,-415.373C370.042,-392.719 361.081,-370.208 352.967,-349.822"/>
<polygon fill="none" stroke="midnightblue" points="375.837,-416.743 382.787,-424.739 382.34,-414.154 375.837,-416.743"/>
</g>
<!-- Node15 -->
<g id="node11" class="node"><title>Node15</title>
<g id="a_node11"><a xlink:href="class_f_line_edit.html" target="_top" xlink:title="{FLineEdit\n||+ FLineEdit()\l+ FLineEdit()\l+ FLineEdit()\l+ FLineEdit()\l+ FLineEdit()\l+ FLineEdit()\l+ isAbstractEnabled()\l+ refreshWidgetDisplay()\l+ setWidgetFromXml()\l+ setXmlFromWidget()\l}">
<polygon fill="white" stroke="black" points="409.5,-188 409.5,-344 534.5,-344 534.5,-188 409.5,-188"/>
<text text-anchor="middle" x="472" y="-332" font-family="Helvetica,sans-Serif" font-size="10.00">FLineEdit</text>
<polyline fill="none" stroke="black" points="409.5,-325 534.5,-325 "/>
<text text-anchor="middle" x="472" y="-313" font-family="Helvetica,sans-Serif" font-size="10.00"> </text>
<polyline fill="none" stroke="black" points="409.5,-306 534.5,-306 "/>
<text text-anchor="start" x="417.5" y="-294" font-family="Helvetica,sans-Serif" font-size="10.00">+ FLineEdit()</text>
<text text-anchor="start" x="417.5" y="-283" font-family="Helvetica,sans-Serif" font-size="10.00">+ FLineEdit()</text>
<text text-anchor="start" x="417.5" y="-272" font-family="Helvetica,sans-Serif" font-size="10.00">+ FLineEdit()</text>
<text text-anchor="start" x="417.5" y="-261" font-family="Helvetica,sans-Serif" font-size="10.00">+ FLineEdit()</text>
<text text-anchor="start" x="417.5" y="-250" font-family="Helvetica,sans-Serif" font-size="10.00">+ FLineEdit()</text>
<text text-anchor="start" x="417.5" y="-239" font-family="Helvetica,sans-Serif" font-size="10.00">+ FLineEdit()</text>
<text text-anchor="start" x="417.5" y="-228" font-family="Helvetica,sans-Serif" font-size="10.00">+ isAbstractEnabled()</text>
<text text-anchor="start" x="417.5" y="-217" font-family="Helvetica,sans-Serif" font-size="10.00">+ refreshWidgetDisplay()</text>
<text text-anchor="start" x="417.5" y="-206" font-family="Helvetica,sans-Serif" font-size="10.00">+ setWidgetFromXml()</text>
<text text-anchor="start" x="417.5" y="-195" font-family="Helvetica,sans-Serif" font-size="10.00">+ setXmlFromWidget()</text>
</a>
</g>
</g>
<!-- Node14&#45;&gt;Node15 -->
<g id="edge16" class="edge"><title>Node14&#45;&gt;Node15</title>
<path fill="none" stroke="midnightblue" d="M457.553,-414.597C459.954,-390.071 462.336,-365.738 464.452,-344.116"/>
<polygon fill="none" stroke="midnightblue" points="454.051,-414.446 456.561,-424.739 461.018,-415.128 454.051,-414.446"/>
</g>
<!-- Node17 -->
<g id="node13" class="node"><title>Node17</title>
<g id="a_node13"><a xlink:href="class_f_check_box.html" target="_top" xlink:title="{FCheckBox\n||+ FCheckBox()\l+ FCheckBox()\l+ FCheckBox()\l+ FCheckBox()\l+ FCheckBox()\l+ FCheckBox()\l+ isAbstractEnabled()\l+ refreshWidgetDisplay()\l+ setWidgetFromXml()\l+ setXmlFromWidget()\l&#45; uncheckDisabledBox()\l}">
<polygon fill="white" stroke="black" points="552.5,-182.5 552.5,-349.5 677.5,-349.5 677.5,-182.5 552.5,-182.5"/>
<text text-anchor="middle" x="615" y="-337.5" font-family="Helvetica,sans-Serif" font-size="10.00">FCheckBox</text>
<polyline fill="none" stroke="black" points="552.5,-330.5 677.5,-330.5 "/>
<text text-anchor="middle" x="615" y="-318.5" font-family="Helvetica,sans-Serif" font-size="10.00"> </text>
<polyline fill="none" stroke="black" points="552.5,-311.5 677.5,-311.5 "/>
<text text-anchor="start" x="560.5" y="-299.5" font-family="Helvetica,sans-Serif" font-size="10.00">+ FCheckBox()</text>
<text text-anchor="start" x="560.5" y="-288.5" font-family="Helvetica,sans-Serif" font-size="10.00">+ FCheckBox()</text>
<text text-anchor="start" x="560.5" y="-277.5" font-family="Helvetica,sans-Serif" font-size="10.00">+ FCheckBox()</text>
<text text-anchor="start" x="560.5" y="-266.5" font-family="Helvetica,sans-Serif" font-size="10.00">+ FCheckBox()</text>
<text text-anchor="start" x="560.5" y="-255.5" font-family="Helvetica,sans-Serif" font-size="10.00">+ FCheckBox()</text>
<text text-anchor="start" x="560.5" y="-244.5" font-family="Helvetica,sans-Serif" font-size="10.00">+ FCheckBox()</text>
<text text-anchor="start" x="560.5" y="-233.5" font-family="Helvetica,sans-Serif" font-size="10.00">+ isAbstractEnabled()</text>
<text text-anchor="start" x="560.5" y="-222.5" font-family="Helvetica,sans-Serif" font-size="10.00">+ refreshWidgetDisplay()</text>
<text text-anchor="start" x="560.5" y="-211.5" font-family="Helvetica,sans-Serif" font-size="10.00">+ setWidgetFromXml()</text>
<text text-anchor="start" x="560.5" y="-200.5" font-family="Helvetica,sans-Serif" font-size="10.00">+ setXmlFromWidget()</text>
<text text-anchor="start" x="560.5" y="-189.5" font-family="Helvetica,sans-Serif" font-size="10.00">&#45; uncheckDisabledBox()</text>
</a>
</g>
</g>
<!-- Node14&#45;&gt;Node17 -->
<g id="edge19" class="edge"><title>Node14&#45;&gt;Node17</title>
<path fill="none" stroke="midnightblue" d="M507.54,-415.99C510.952,-409.512 514.443,-403.157 518,-397 528.141,-379.443 540.251,-361.479 552.42,-344.726"/>
<polygon fill="none" stroke="midnightblue" points="504.422,-414.401 502.938,-424.892 510.64,-417.616 504.422,-414.401"/>
</g>
<!-- Node15&#45;&gt;Node5 -->
<g id="edge14" class="edge"><title>Node15&#45;&gt;Node5</title>
<path fill="none" stroke="#404040" d="M436.195,-187.715C422.575,-163.957 405.349,-139.072 385,-120 366.008,-102.199 341.461,-87.861 318.697,-77.024"/>
<polygon fill="none" stroke="#404040" points="318.607,-76.9828 311.486,-78.1207 307.697,-71.9853 314.818,-70.8474 318.607,-76.9828"/>
<text text-anchor="middle" x="466.5" y="-139.5" font-family="Helvetica,sans-Serif" font-size="10.00"> &#45;maxNLigneLineEdit</text>
</g>
<!-- Node16 -->
<g id="node12" class="node"><title>Node16</title>
<polygon fill="white" stroke="#bfbfbf" points="527.5,-546 527.5,-603 586.5,-603 586.5,-546 527.5,-546"/>
<text text-anchor="middle" x="557" y="-591" font-family="Helvetica,sans-Serif" font-size="10.00">QLineEdit</text>
<polyline fill="none" stroke="#bfbfbf" points="527.5,-584 586.5,-584 "/>
<text text-anchor="middle" x="557" y="-572" font-family="Helvetica,sans-Serif" font-size="10.00"> </text>
<polyline fill="none" stroke="#bfbfbf" points="527.5,-565 586.5,-565 "/>
<text text-anchor="middle" x="557" y="-553" font-family="Helvetica,sans-Serif" font-size="10.00"> </text>
</g>
<!-- Node16&#45;&gt;Node15 -->
<g id="edge15" class="edge"><title>Node16&#45;&gt;Node15</title>
<path fill="none" stroke="midnightblue" d="M550.036,-535.667C543.088,-499.698 531.519,-444.23 518,-397 513.059,-379.738 507.065,-361.432 501.059,-344.176"/>
<polygon fill="none" stroke="midnightblue" points="546.643,-536.557 551.956,-545.723 553.518,-535.244 546.643,-536.557"/>
</g>
<!-- Node17&#45;&gt;Node5 -->
<g id="edge17" class="edge"><title>Node17&#45;&gt;Node5</title>
<path fill="none" stroke="#404040" d="M573.172,-182.189C557.978,-159.127 538.822,-136.032 516,-120 457.576,-78.9595 376.276,-62.6784 319.588,-56.2253"/>
<polygon fill="none" stroke="#404040" points="319.46,-56.212 313.075,-59.563 307.526,-54.9577 313.911,-51.6068 319.46,-56.212"/>
<text text-anchor="middle" x="598" y="-156" font-family="Helvetica,sans-Serif" font-size="10.00"> +tableCheckBox</text>
<text text-anchor="middle" x="598" y="-145" font-family="Helvetica,sans-Serif" font-size="10.00">&#45;etabCheckBox</text>
<text text-anchor="middle" x="598" y="-134" font-family="Helvetica,sans-Serif" font-size="10.00">&#45;rangCheckBox</text>
<text text-anchor="middle" x="598" y="-123" font-family="Helvetica,sans-Serif" font-size="10.00">+FPHCheckBox</text>
</g>
<!-- Node18 -->
<g id="node14" class="node"><title>Node18</title>
<polygon fill="white" stroke="#bfbfbf" points="605,-546 605,-603 675,-603 675,-546 605,-546"/>
<text text-anchor="middle" x="640" y="-591" font-family="Helvetica,sans-Serif" font-size="10.00">QCheckBox</text>
<polyline fill="none" stroke="#bfbfbf" points="605,-584 675,-584 "/>
<text text-anchor="middle" x="640" y="-572" font-family="Helvetica,sans-Serif" font-size="10.00"> </text>
<polyline fill="none" stroke="#bfbfbf" points="605,-565 675,-565 "/>
<text text-anchor="middle" x="640" y="-553" font-family="Helvetica,sans-Serif" font-size="10.00"> </text>
</g>
<!-- Node18&#45;&gt;Node17 -->
<g id="edge18" class="edge"><title>Node18&#45;&gt;Node17</title>
<path fill="none" stroke="midnightblue" d="M636.909,-535.604C633.145,-489.459 626.68,-410.199 621.746,-349.701"/>
<polygon fill="none" stroke="midnightblue" points="633.436,-536.077 637.737,-545.76 640.413,-535.508 633.436,-536.077"/>
</g>
</g>
</svg>
        <g id="navigator" transform="translate(0 0)" fill="#404254">
                <rect fill="#f2f5e9" fill-opacity="0.5" stroke="#606060" stroke-width=".5" x="0" y="0" width="60" height="60"/>
                <use id="zoomplus" xlink:href="#zoomPlus" x="17" y="9" onmousedown="handleZoom(evt,'in')"/>
                <use id="zoomminus" xlink:href="#zoomMin" x="42" y="9" onmousedown="handleZoom(evt,'out')"/>
                <use id="reset" xlink:href="#resetDef" x="30" y="36" onmousedown="handleReset()"/>
                <g id="arrowUp" xlink:href="#dirArrow" transform="translate(30 24)" onmousedown="handlePan(0,-1)">
                  <use xlink:href="#rim" fill="#404040">
                        <set attributeName="fill" to="#808080" begin="arrowUp.mouseover" end="arrowUp.mouseout"/>
                  </use>
                  <path fill="none" stroke="white" stroke-width="1.5" d="M0,-3.0v7 M-2.5,-0.5L0,-3.0L2.5,-0.5"/>
                </g>
                <g id="arrowRight" xlink:href="#dirArrow" transform="rotate(90) translate(36 -43)" onmousedown="handlePan(1,0)">
                  <use xlink:href="#rim" fill="#404040">
                        <set attributeName="fill" to="#808080" begin="arrowRight.mouseover" end="arrowRight.mouseout"/>
                  </use>
                  <path fill="none" stroke="white" stroke-width="1.5" d="M0,-3.0v7 M-2.5,-0.5L0,-3.0L2.5,-0.5"/>
                </g>
                <g id="arrowDown" xlink:href="#dirArrow" transform="rotate(180) translate(-30 -48)" onmousedown="handlePan(0,1)">
                  <use xlink:href="#rim" fill="#404040">
                        <set attributeName="fill" to="#808080" begin="arrowDown.mouseover" end="arrowDown.mouseout"/>
                  </use>
                  <path fill="none" stroke="white" stroke-width="1.5" d="M0,-3.0v7 M-2.5,-0.5L0,-3.0L2.5,-0.5"/>
                </g>
                <g id="arrowLeft" xlink:href="#dirArrow" transform="rotate(270) translate(-36 17)" onmousedown="handlePan(-1,0)">
                  <use xlink:href="#rim" fill="#404040">
                        <set attributeName="fill" to="#808080" begin="arrowLeft.mouseover" end="arrowLeft.mouseout"/>
                  </use>
                  <path fill="none" stroke="white" stroke-width="1.5" d="M0,-3.0v7 M-2.5,-0.5L0,-3.0L2.5,-0.5"/>
                </g>
        </g>
        <svg viewBox="0 0 15 15" width="100%" height="30px" preserveAspectRatio="xMaxYMin meet">
         <g id="arrow_out" transform="scale(0.3 0.3)">
          <a xlink:href="classstandard_page__coll__graph_org.svg" target="_base">
           <rect id="button" ry="5" rx="5" y="6" x="6" height="38" width="38"
                fill="#f2f5e9" fill-opacity="0.5" stroke="#606060" stroke-width="1.0"/>
           <path id="arrow"
             d="M 11.500037,31.436501 C 11.940474,20.09759 22.043105,11.32322 32.158766,21.979434 L 37.068811,17.246167 C 37.068811,17.246167 37.088388,32 37.088388,32 L 22.160133,31.978069 C 22.160133,31.978069 26.997745,27.140456 26.997745,27.140456 C 18.528582,18.264221 13.291696,25.230495 11.500037,31.436501 z"
             style="fill:#404040;"/>
          </a>
         </g>
        </svg>
</svg>
