<?xml version="1.0" encoding="UTF-8" standalone="no"?>
<!DOCTYPE svg PUBLIC "-//W3C//DTD SVG 1.1//EN"
 "http://www.w3.org/Graphics/SVG/1.1/DTD/svg11.dtd">
<!-- Generated by graphviz version 2.38.0 (20140413.2041)
 -->
<!-- Title: FProgressBar Pages: 1 -->
<svg width="204pt" height="625pt"
 viewBox="0.00 0.00 204.00 625.00" xmlns="http://www.w3.org/2000/svg" xmlns:xlink="http://www.w3.org/1999/xlink">
<g id="graph0" class="graph" transform="scale(1 1) rotate(0) translate(4 621)">
<title>FProgressBar</title>
<polygon fill="white" stroke="none" points="-4,4 -4,-621 200,-621 200,4 -4,4"/>
<!-- Node2 -->
<g id="node1" class="node"><title>Node2</title>
<polygon fill="#bfbfbf" stroke="black" points="0,-0.5 0,-288.5 173,-288.5 173,-0.5 0,-0.5"/>
<text text-anchor="middle" x="86.5" y="-276.5" font-family="Helvetica,sans-Serif" font-size="10.00">FProgressBar</text>
<polyline fill="none" stroke="black" points="0,-269.5 173,-269.5 "/>
<text text-anchor="start" x="8" y="-257.5" font-family="Helvetica,sans-Serif" font-size="10.00">&#45; bar</text>
<text text-anchor="start" x="8" y="-246.5" font-family="Helvetica,sans-Serif" font-size="10.00">&#45; internalState</text>
<text text-anchor="start" x="8" y="-235.5" font-family="Helvetica,sans-Serif" font-size="10.00">&#45; killButton</text>
<text text-anchor="start" x="8" y="-224.5" font-family="Helvetica,sans-Serif" font-size="10.00">&#45; layout</text>
<text text-anchor="start" x="8" y="-213.5" font-family="Helvetica,sans-Serif" font-size="10.00">&#45; startshift</text>
<text text-anchor="start" x="8" y="-202.5" font-family="Helvetica,sans-Serif" font-size="10.00">&#45; timer</text>
<polyline fill="none" stroke="black" points="0,-195.5 173,-195.5 "/>
<text text-anchor="start" x="8" y="-183.5" font-family="Helvetica,sans-Serif" font-size="10.00">+ FProgressBar()</text>
<text text-anchor="start" x="8" y="-172.5" font-family="Helvetica,sans-Serif" font-size="10.00">+ getLayout()</text>
<text text-anchor="start" x="8" y="-161.5" font-family="Helvetica,sans-Serif" font-size="10.00">+ maximum()</text>
<text text-anchor="start" x="8" y="-150.5" font-family="Helvetica,sans-Serif" font-size="10.00">+ setToolTip()</text>
<text text-anchor="start" x="8" y="-139.5" font-family="Helvetica,sans-Serif" font-size="10.00">+ value()</text>
<text text-anchor="start" x="8" y="-128.5" font-family="Helvetica,sans-Serif" font-size="10.00">+ showProgressBar()</text>
<text text-anchor="start" x="8" y="-117.5" font-family="Helvetica,sans-Serif" font-size="10.00">+ stop()</text>
<text text-anchor="start" x="8" y="-106.5" font-family="Helvetica,sans-Serif" font-size="10.00">&#45; computeLHXParsingProgressBar()</text>
<text text-anchor="start" x="8" y="-95.5" font-family="Helvetica,sans-Serif" font-size="10.00">&#45; computeLHXWritingProgressBar()</text>
<text text-anchor="start" x="8" y="-84.5" font-family="Helvetica,sans-Serif" font-size="10.00">&#45; computeRProgressBar()</text>
<text text-anchor="start" x="8" y="-73.5" font-family="Helvetica,sans-Serif" font-size="10.00">&#45; hide()</text>
<text text-anchor="start" x="8" y="-62.5" font-family="Helvetica,sans-Serif" font-size="10.00">&#45; setCount()</text>
<text text-anchor="start" x="8" y="-51.5" font-family="Helvetica,sans-Serif" font-size="10.00">&#45; setInterval()</text>
<text text-anchor="start" x="8" y="-40.5" font-family="Helvetica,sans-Serif" font-size="10.00">&#45; setRange()</text>
<text text-anchor="start" x="8" y="-29.5" font-family="Helvetica,sans-Serif" font-size="10.00">&#45; start()</text>
<text text-anchor="start" x="8" y="-18.5" font-family="Helvetica,sans-Serif" font-size="10.00">&#45; setValue()</text>
<text text-anchor="start" x="8" y="-7.5" font-family="Helvetica,sans-Serif" font-size="10.00">&#45; setValue()</text>
</g>
<!-- Node3 -->
<g id="node2" class="node"><title>Node3</title>
<polygon fill="white" stroke="#bfbfbf" points="30,-353 30,-410 85,-410 85,-353 30,-353"/>
<text text-anchor="middle" x="57.5" y="-398" font-family="Helvetica,sans-Serif" font-size="10.00">QWidget</text>
<polyline fill="none" stroke="#bfbfbf" points="30,-391 85,-391 "/>
<text text-anchor="middle" x="57.5" y="-379" font-family="Helvetica,sans-Serif" font-size="10.00"> </text>
<polyline fill="none" stroke="#bfbfbf" points="30,-372 85,-372 "/>
<text text-anchor="middle" x="57.5" y="-360" font-family="Helvetica,sans-Serif" font-size="10.00"> </text>
</g>
<!-- Node3&#45;&gt;Node2 -->
<g id="edge1" class="edge"><title>Node3&#45;&gt;Node2</title>
<path fill="none" stroke="midnightblue" d="M62.1797,-342.578C64.072,-327.245 66.3851,-308.5 68.8244,-288.733"/>
<polygon fill="none" stroke="midnightblue" points="58.6918,-342.266 60.9406,-352.62 65.6391,-343.124 58.6918,-342.266"/>
</g>
<!-- Node4 -->
<g id="node3" class="node"><title>Node4</title>
<g id="a_node3"><a xlink:href="class_f_dialog.html" target="_top" xlink:title="{FDialog\n|+ fileRank\l+ outputType\l+ process\l|+ killProcess()\l+ textAppend()\l}">
<polygon fill="white" stroke="black" points="103,-336.5 103,-426.5 184,-426.5 184,-336.5 103,-336.5"/>
<text text-anchor="middle" x="143.5" y="-414.5" font-family="Helvetica,sans-Serif" font-size="10.00">FDialog</text>
<polyline fill="none" stroke="black" points="103,-407.5 184,-407.5 "/>
<text text-anchor="start" x="111" y="-395.5" font-family="Helvetica,sans-Serif" font-size="10.00">+ fileRank</text>
<text text-anchor="start" x="111" y="-384.5" font-family="Helvetica,sans-Serif" font-size="10.00">+ outputType</text>
<text text-anchor="start" x="111" y="-373.5" font-family="Helvetica,sans-Serif" font-size="10.00">+ process</text>
<polyline fill="none" stroke="black" points="103,-366.5 184,-366.5 "/>
<text text-anchor="start" x="111" y="-354.5" font-family="Helvetica,sans-Serif" font-size="10.00">+ killProcess()</text>
<text text-anchor="start" x="111" y="-343.5" font-family="Helvetica,sans-Serif" font-size="10.00">+ textAppend()</text>
</a>
</g>
</g>
<!-- Node4&#45;&gt;Node2 -->
<g id="edge2" class="edge"><title>Node4&#45;&gt;Node2</title>
<path fill="none" stroke="#404040" d="M132.779,-336.298C130.162,-325.508 127.211,-313.345 124.099,-300.515"/>
<polygon fill="none" stroke="#404040" points="124.03,-300.227 118.728,-295.339 121.201,-288.565 126.502,-293.453 124.03,-300.227"/>
<text text-anchor="middle" x="144.5" y="-310" font-family="Helvetica,sans-Serif" font-size="10.00"> &#45;parent</text>
</g>
<!-- Node5 -->
<g id="node4" class="node"><title>Node5</title>
<g id="a_node4"><a xlink:href="class_f_dialog_connections.html" target="_top" xlink:title="{FDialogConnections\n||}">
<polygon fill="white" stroke="black" points="91,-464.5 91,-521.5 196,-521.5 196,-464.5 91,-464.5"/>
<text text-anchor="middle" x="143.5" y="-509.5" font-family="Helvetica,sans-Serif" font-size="10.00">FDialogConnections</text>
<polyline fill="none" stroke="black" points="91,-502.5 196,-502.5 "/>
<text text-anchor="middle" x="143.5" y="-490.5" font-family="Helvetica,sans-Serif" font-size="10.00"> </text>
<polyline fill="none" stroke="black" points="91,-483.5 196,-483.5 "/>
<text text-anchor="middle" x="143.5" y="-471.5" font-family="Helvetica,sans-Serif" font-size="10.00"> </text>
</a>
</g>
</g>
<!-- Node5&#45;&gt;Node4 -->
<g id="edge3" class="edge"><title>Node5&#45;&gt;Node4</title>
<path fill="none" stroke="midnightblue" d="M143.5,-454.312C143.5,-445.43 143.5,-435.883 143.5,-426.742"/>
<polygon fill="none" stroke="midnightblue" points="140,-454.368 143.5,-464.369 147,-454.369 140,-454.368"/>
</g>
<!-- Node6 -->
<g id="node5" class="node"><title>Node6</title>
<polygon fill="white" stroke="#bfbfbf" points="117.5,-559.5 117.5,-616.5 169.5,-616.5 169.5,-559.5 117.5,-559.5"/>
<text text-anchor="middle" x="143.5" y="-604.5" font-family="Helvetica,sans-Serif" font-size="10.00">QDialog</text>
<polyline fill="none" stroke="#bfbfbf" points="117.5,-597.5 169.5,-597.5 "/>
<text text-anchor="middle" x="143.5" y="-585.5" font-family="Helvetica,sans-Serif" font-size="10.00"> </text>
<polyline fill="none" stroke="#bfbfbf" points="117.5,-578.5 169.5,-578.5 "/>
<text text-anchor="middle" x="143.5" y="-566.5" font-family="Helvetica,sans-Serif" font-size="10.00"> </text>
</g>
<!-- Node6&#45;&gt;Node5 -->
<g id="edge4" class="edge"><title>Node6&#45;&gt;Node5</title>
<path fill="none" stroke="midnightblue" d="M143.5,-549.235C143.5,-540.028 143.5,-530.346 143.5,-521.705"/>
<polygon fill="none" stroke="midnightblue" points="140,-549.349 143.5,-559.349 147,-549.349 140,-549.349"/>
</g>
</g>
</svg>
