<?xml version="1.0" encoding="UTF-8" standalone="no"?>
<!DOCTYPE svg PUBLIC "-//W3C//DTD SVG 1.1//EN"
 "http://www.w3.org/Graphics/SVG/1.1/DTD/svg11.dtd">
<!-- Generated by graphviz version 2.38.0 (20140413.2041)
 -->
<!-- Title: FProgressBar Pages: 1 -->
<svg width="193pt" height="402pt"
 viewBox="0.00 0.00 193.00 402.00" xmlns="http://www.w3.org/2000/svg" xmlns:xlink="http://www.w3.org/1999/xlink">
<g id="graph0" class="graph" transform="scale(1 1) rotate(0) translate(4 398)">
<title>FProgressBar</title>
<polygon fill="white" stroke="none" points="-4,4 -4,-398 189,-398 189,4 -4,4"/>
<!-- Node0 -->
<g id="node1" class="node"><title>Node0</title>
<polygon fill="#bfbfbf" stroke="black" points="-1.42109e-14,-0.5 -1.42109e-14,-299.5 185,-299.5 185,-0.5 -1.42109e-14,-0.5"/>
<text text-anchor="middle" x="92.5" y="-287.5" font-family="Helvetica,sans-Serif" font-size="10.00">FProgressBar</text>
<polyline fill="none" stroke="black" points="-1.42109e-14,-280.5 185,-280.5 "/>
<text text-anchor="start" x="8" y="-268.5" font-family="Helvetica,sans-Serif" font-size="10.00">&#45; bar</text>
<text text-anchor="start" x="8" y="-257.5" font-family="Helvetica,sans-Serif" font-size="10.00">&#45; internalState</text>
<text text-anchor="start" x="8" y="-246.5" font-family="Helvetica,sans-Serif" font-size="10.00">&#45; killButton</text>
<text text-anchor="start" x="8" y="-235.5" font-family="Helvetica,sans-Serif" font-size="10.00">&#45; layout</text>
<text text-anchor="start" x="8" y="-224.5" font-family="Helvetica,sans-Serif" font-size="10.00">&#45; parent</text>
<text text-anchor="start" x="8" y="-213.5" font-family="Helvetica,sans-Serif" font-size="10.00">&#45; startshift</text>
<text text-anchor="start" x="8" y="-202.5" font-family="Helvetica,sans-Serif" font-size="10.00">&#45; timer</text>
<polyline fill="none" stroke="black" points="-1.42109e-14,-195.5 185,-195.5 "/>
<text text-anchor="start" x="8" y="-183.5" font-family="Helvetica,sans-Serif" font-size="10.00">+ FProgressBar()</text>
<text text-anchor="start" x="8" y="-172.5" font-family="Helvetica,sans-Serif" font-size="10.00">+ getLayout()</text>
<text text-anchor="start" x="8" y="-161.5" font-family="Helvetica,sans-Serif" font-size="10.00">+ maximum()</text>
<text text-anchor="start" x="8" y="-150.5" font-family="Helvetica,sans-Serif" font-size="10.00">+ setToolTip()</text>
<text text-anchor="start" x="8" y="-139.5" font-family="Helvetica,sans-Serif" font-size="10.00">+ value()</text>
<text text-anchor="start" x="8" y="-128.5" font-family="Helvetica,sans-Serif" font-size="10.00">+ showProgressBar()</text>
<text text-anchor="start" x="8" y="-117.5" font-family="Helvetica,sans-Serif" font-size="10.00">+ stop()</text>
<text text-anchor="start" x="8" y="-106.5" font-family="Helvetica,sans-Serif" font-size="10.00">&#45; computeLHXParsingProgressBar()</text>
<text text-anchor="start" x="8" y="-95.5" font-family="Helvetica,sans-Serif" font-size="10.00">&#45; computeLHXWritingProgressBar()</text>
<text text-anchor="start" x="8" y="-84.5" font-family="Helvetica,sans-Serif" font-size="10.00">&#45; computeRProgressBar()</text>
<text text-anchor="start" x="8" y="-73.5" font-family="Helvetica,sans-Serif" font-size="10.00">&#45; hide()</text>
<text text-anchor="start" x="8" y="-62.5" font-family="Helvetica,sans-Serif" font-size="10.00">&#45; setCount()</text>
<text text-anchor="start" x="8" y="-51.5" font-family="Helvetica,sans-Serif" font-size="10.00">&#45; setInterval()</text>
<text text-anchor="start" x="8" y="-40.5" font-family="Helvetica,sans-Serif" font-size="10.00">&#45; setRange()</text>
<text text-anchor="start" x="8" y="-29.5" font-family="Helvetica,sans-Serif" font-size="10.00">&#45; start()</text>
<text text-anchor="start" x="8" y="-18.5" font-family="Helvetica,sans-Serif" font-size="10.00">&#45; setValue()</text>
<text text-anchor="start" x="8" y="-7.5" font-family="Helvetica,sans-Serif" font-size="10.00">&#45; setValue()</text>
</g>
<!-- Node1 -->
<g id="node2" class="node"><title>Node1</title>
<polygon fill="white" stroke="#bfbfbf" points="63.5,-336.5 63.5,-393.5 121.5,-393.5 121.5,-336.5 63.5,-336.5"/>
<text text-anchor="middle" x="92.5" y="-381.5" font-family="Helvetica,sans-Serif" font-size="10.00">QWidget</text>
<polyline fill="none" stroke="#bfbfbf" points="63.5,-374.5 121.5,-374.5 "/>
<text text-anchor="middle" x="92.5" y="-362.5" font-family="Helvetica,sans-Serif" font-size="10.00"> </text>
<polyline fill="none" stroke="#bfbfbf" points="63.5,-355.5 121.5,-355.5 "/>
<text text-anchor="middle" x="92.5" y="-343.5" font-family="Helvetica,sans-Serif" font-size="10.00"> </text>
</g>
<!-- Node1&#45;&gt;Node0 -->
<g id="edge1" class="edge"><title>Node1&#45;&gt;Node0</title>
<path fill="none" stroke="midnightblue" d="M92.5,-325.923C92.5,-317.996 92.5,-309.193 92.5,-299.872"/>
<polygon fill="none" stroke="midnightblue" points="89.0001,-326.154 92.5,-336.154 96.0001,-326.154 89.0001,-326.154"/>
</g>
</g>
</svg>
