<?xml version="1.0" encoding="UTF-8" standalone="no"?>
<!DOCTYPE svg PUBLIC "-//W3C//DTD SVG 1.1//EN"
 "http://www.w3.org/Graphics/SVG/1.1/DTD/svg11.dtd">
<!-- Generated by graphviz version 2.38.0 (20140413.2041)
 -->
<!-- Title: FListFrame::getSlotListSize Pages: 1 -->
<svg width="1201pt" height="389pt"
 viewBox="0.00 0.00 1201.00 389.00" xmlns="http://www.w3.org/2000/svg" xmlns:xlink="http://www.w3.org/1999/xlink">
<g id="graph0" class="graph" transform="scale(1 1) rotate(0) translate(4 385)">
<title>FListFrame::getSlotListSize</title>
<polygon fill="white" stroke="none" points="-4,4 -4,-385 1197,-385 1197,4 -4,4"/>
<!-- Node441 -->
<g id="node1" class="node"><title>Node441</title>
<polygon fill="#bfbfbf" stroke="black" points="0,-177.5 0,-196.5 138,-196.5 138,-177.5 0,-177.5"/>
<text text-anchor="middle" x="69" y="-184.5" font-family="Helvetica,sans-Serif" font-size="10.00">FListFrame::getSlotListSize</text>
</g>
<!-- Node442 -->
<g id="node2" class="node"><title>Node442</title>
<g id="a_node2"><a xlink:href="class_f_list_frame.html#a865246df8a4d4000ac3c818abc6d7f71" target="_top" xlink:title="FListFrame::FListFrame">
<polygon fill="white" stroke="black" points="174,-177.5 174,-196.5 296,-196.5 296,-177.5 174,-177.5"/>
<text text-anchor="middle" x="235" y="-184.5" font-family="Helvetica,sans-Serif" font-size="10.00">FListFrame::FListFrame</text>
</a>
</g>
</g>
<!-- Node441&#45;&gt;Node442 -->
<g id="edge1" class="edge"><title>Node441&#45;&gt;Node442</title>
<path fill="none" stroke="midnightblue" d="M138.126,-187C146.572,-187 155.221,-187 163.7,-187"/>
<polygon fill="midnightblue" stroke="midnightblue" points="163.932,-190.5 173.932,-187 163.932,-183.5 163.932,-190.5"/>
</g>
<!-- Node443 -->
<g id="node3" class="node"><title>Node443</title>
<g id="a_node3"><a xlink:href="class_f_list_frame.html#a1fda46dc7cfe6a661d2e2d1c66638134" target="_top" xlink:title="FListFrame::deleteGroup">
<polygon fill="white" stroke="black" points="512.5,-153.5 512.5,-172.5 637.5,-172.5 637.5,-153.5 512.5,-153.5"/>
<text text-anchor="middle" x="575" y="-160.5" font-family="Helvetica,sans-Serif" font-size="10.00">FListFrame::deleteGroup</text>
</a>
</g>
</g>
<!-- Node442&#45;&gt;Node443 -->
<g id="edge2" class="edge"><title>Node442&#45;&gt;Node443</title>
<path fill="none" stroke="midnightblue" d="M252.662,-196.587C271.292,-206.706 302.704,-222.006 332,-228 392.089,-240.294 413.497,-251.859 470,-228 491.137,-219.075 486.997,-203.857 506,-191 514.565,-185.205 524.518,-180.274 534.122,-176.24"/>
<polygon fill="midnightblue" stroke="midnightblue" points="535.539,-179.444 543.547,-172.507 532.961,-172.936 535.539,-179.444"/>
</g>
<!-- Node445 -->
<g id="node5" class="node"><title>Node445</title>
<g id="a_node5"><a xlink:href="class_f_list_frame.html#aa993bd2e0b975a839c6f8b46dea4690c" target="_top" xlink:title="FListFrame::finalise">
<polygon fill="white" stroke="black" points="349.5,-275.5 349.5,-294.5 452.5,-294.5 452.5,-275.5 349.5,-275.5"/>
<text text-anchor="middle" x="401" y="-282.5" font-family="Helvetica,sans-Serif" font-size="10.00">FListFrame::finalise</text>
</a>
</g>
</g>
<!-- Node442&#45;&gt;Node445 -->
<g id="edge4" class="edge"><title>Node442&#45;&gt;Node445</title>
<path fill="none" stroke="midnightblue" d="M246.164,-196.628C262.894,-212.04 297.798,-242.404 332,-261 339.668,-265.169 348.203,-268.848 356.564,-271.993"/>
<polygon fill="midnightblue" stroke="midnightblue" points="355.642,-275.38 366.237,-275.439 357.991,-268.786 355.642,-275.38"/>
</g>
<!-- Node451 -->
<g id="node11" class="node"><title>Node451</title>
<g id="a_node11"><a xlink:href="struct_abstract.html#af7b700041c9d75de3f642f15ece3e6ae" target="_top" xlink:title="Réinitialiser toutes les valeurs du de la table de hachage Hash::wrapper. ">
<polygon fill="white" stroke="black" points="361,-199.5 361,-218.5 441,-218.5 441,-199.5 361,-199.5"/>
<text text-anchor="middle" x="401" y="-206.5" font-family="Helvetica,sans-Serif" font-size="10.00">Abstract::initH</text>
</a>
</g>
</g>
<!-- Node442&#45;&gt;Node451 -->
<g id="edge11" class="edge"><title>Node442&#45;&gt;Node451</title>
<path fill="none" stroke="midnightblue" d="M296.136,-195.067C314.003,-197.464 333.363,-200.061 350.473,-202.356"/>
<polygon fill="midnightblue" stroke="midnightblue" points="350.426,-205.881 360.803,-203.742 351.357,-198.943 350.426,-205.881"/>
</g>
<!-- Node452 -->
<g id="node12" class="node"><title>Node452</title>
<g id="a_node12"><a xlink:href="class_f_list_frame.html#a018583305b4464d69c66805aceb1a2ac" target="_top" xlink:title="FListFrame::initializeWidget\lContainer">
<polygon fill="white" stroke="black" points="332,-150 332,-180 470,-180 470,-150 332,-150"/>
<text text-anchor="start" x="340" y="-168" font-family="Helvetica,sans-Serif" font-size="10.00">FListFrame::initializeWidget</text>
<text text-anchor="middle" x="401" y="-157" font-family="Helvetica,sans-Serif" font-size="10.00">Container</text>
</a>
</g>
</g>
<!-- Node442&#45;&gt;Node452 -->
<g id="edge12" class="edge"><title>Node442&#45;&gt;Node452</title>
<path fill="none" stroke="midnightblue" d="M296.136,-178.933C304.481,-177.814 313.152,-176.65 321.767,-175.495"/>
<polygon fill="midnightblue" stroke="midnightblue" points="322.386,-178.943 331.831,-174.145 321.455,-172.005 322.386,-178.943"/>
</g>
<!-- Node453 -->
<g id="node13" class="node"><title>Node453</title>
<g id="a_node13"><a xlink:href="class_f_list_frame.html#a3b18347a90f89b4423e8a543f0c1c47c" target="_top" xlink:title="FListFrame::on_deleteItem\l_clicked">
<polygon fill="white" stroke="black" points="334,-101 334,-131 468,-131 468,-101 334,-101"/>
<text text-anchor="start" x="342" y="-119" font-family="Helvetica,sans-Serif" font-size="10.00">FListFrame::on_deleteItem</text>
<text text-anchor="middle" x="401" y="-108" font-family="Helvetica,sans-Serif" font-size="10.00">_clicked</text>
</a>
</g>
</g>
<!-- Node442&#45;&gt;Node453 -->
<g id="edge13" class="edge"><title>Node442&#45;&gt;Node453</title>
<path fill="none" stroke="midnightblue" d="M254.112,-177.348C273.199,-167.363 304.279,-151.632 332,-140 336.387,-138.159 340.97,-136.336 345.593,-134.566"/>
<polygon fill="midnightblue" stroke="midnightblue" points="346.949,-137.796 355.093,-131.019 344.5,-131.238 346.949,-137.796"/>
</g>
<!-- Node454 -->
<g id="node14" class="node"><title>Node454</title>
<g id="a_node14"><a xlink:href="class_f_list_frame.html#ac14c494842340a0438766256c01f83bc" target="_top" xlink:title="FListFrame::on_importFrom\lMainTree_clicked">
<polygon fill="white" stroke="black" points="332.5,-52 332.5,-82 469.5,-82 469.5,-52 332.5,-52"/>
<text text-anchor="start" x="340.5" y="-70" font-family="Helvetica,sans-Serif" font-size="10.00">FListFrame::on_importFrom</text>
<text text-anchor="middle" x="401" y="-59" font-family="Helvetica,sans-Serif" font-size="10.00">MainTree_clicked</text>
</a>
</g>
</g>
<!-- Node442&#45;&gt;Node454 -->
<g id="edge16" class="edge"><title>Node442&#45;&gt;Node454</title>
<path fill="none" stroke="midnightblue" d="M243.131,-177.42C257.769,-158.379 293.116,-115.506 332,-91 334.565,-89.3834 337.253,-87.8579 340.019,-86.4207"/>
<polygon fill="midnightblue" stroke="midnightblue" points="341.525,-89.5801 349.056,-82.1278 338.521,-83.2572 341.525,-89.5801"/>
</g>
<!-- Node444 -->
<g id="node4" class="node"><title>Node444</title>
<g id="a_node4"><a xlink:href="class_f_list_frame.html#a356ad4309df1e931fb3ee12ad88054fb" target="_top" xlink:title="Actualise currentWidget, row et currentIndex. ">
<polygon fill="white" stroke="black" points="680,-153.5 680,-172.5 822,-172.5 822,-153.5 680,-153.5"/>
<text text-anchor="middle" x="751" y="-160.5" font-family="Helvetica,sans-Serif" font-size="10.00">FListFrame::updateIndexInfo</text>
</a>
</g>
</g>
<!-- Node443&#45;&gt;Node444 -->
<g id="edge3" class="edge"><title>Node443&#45;&gt;Node444</title>
<path fill="none" stroke="midnightblue" d="M637.836,-163C648.125,-163 658.928,-163 669.598,-163"/>
<polygon fill="midnightblue" stroke="midnightblue" points="669.766,-166.5 679.766,-163 669.766,-159.5 669.766,-166.5"/>
</g>
<!-- Node445&#45;&gt;Node444 -->
<g id="edge10" class="edge"><title>Node445&#45;&gt;Node444</title>
<path fill="none" stroke="midnightblue" d="M420.987,-275.475C434.752,-268.442 453.728,-258.484 470,-249 486.404,-239.439 488.591,-233.579 506,-226 563.231,-201.085 632.456,-184.373 682.531,-174.46"/>
<polygon fill="midnightblue" stroke="midnightblue" points="683.447,-177.847 692.597,-172.507 682.114,-170.975 683.447,-177.847"/>
</g>
<!-- Node446 -->
<g id="node6" class="node"><title>Node446</title>
<g id="a_node6"><a xlink:href="class_f_list_frame.html#a5c6ce884a0169251e359364921d1f89c" target="_top" xlink:title="FListFrame::addNewTab">
<polygon fill="white" stroke="black" points="512.5,-235.5 512.5,-254.5 637.5,-254.5 637.5,-235.5 512.5,-235.5"/>
<text text-anchor="middle" x="575" y="-242.5" font-family="Helvetica,sans-Serif" font-size="10.00">FListFrame::addNewTab</text>
</a>
</g>
</g>
<!-- Node445&#45;&gt;Node446 -->
<g id="edge5" class="edge"><title>Node445&#45;&gt;Node446</title>
<path fill="none" stroke="midnightblue" d="M443.198,-275.419C467.238,-269.828 497.759,-262.731 523.27,-256.798"/>
<polygon fill="midnightblue" stroke="midnightblue" points="524.191,-260.177 533.138,-254.503 522.605,-253.359 524.191,-260.177"/>
</g>
<!-- Node448 -->
<g id="node8" class="node"><title>Node448</title>
<g id="a_node8"><a xlink:href="class_hash.html#a2ac10203aa8b32a04d9088e08ddbaab4" target="_top" xlink:title="Hash::createReference">
<polygon fill="white" stroke="black" points="516,-361.5 516,-380.5 634,-380.5 634,-361.5 516,-361.5"/>
<text text-anchor="middle" x="575" y="-368.5" font-family="Helvetica,sans-Serif" font-size="10.00">Hash::createReference</text>
</a>
</g>
</g>
<!-- Node445&#45;&gt;Node448 -->
<g id="edge7" class="edge"><title>Node445&#45;&gt;Node448</title>
<path fill="none" stroke="midnightblue" d="M414.108,-294.542C432.822,-308.872 470.345,-335.976 506,-352 511.3,-354.382 516.969,-356.534 522.689,-358.458"/>
<polygon fill="midnightblue" stroke="midnightblue" points="521.716,-361.821 532.306,-361.483 523.817,-355.144 521.716,-361.821"/>
</g>
<!-- Node449 -->
<g id="node9" class="node"><title>Node449</title>
<g id="a_node9"><a xlink:href="class_f_list_frame.html#a560addf9867fbd5d05fbdb024e5b272c" target="_top" xlink:title="FListFrame::setStrikeOut\lFileNames">
<polygon fill="white" stroke="black" points="511.5,-312 511.5,-342 638.5,-342 638.5,-312 511.5,-312"/>
<text text-anchor="start" x="519.5" y="-330" font-family="Helvetica,sans-Serif" font-size="10.00">FListFrame::setStrikeOut</text>
<text text-anchor="middle" x="575" y="-319" font-family="Helvetica,sans-Serif" font-size="10.00">FileNames</text>
</a>
</g>
</g>
<!-- Node445&#45;&gt;Node449 -->
<g id="edge8" class="edge"><title>Node445&#45;&gt;Node449</title>
<path fill="none" stroke="midnightblue" d="M441.029,-294.53C459.255,-298.981 481.54,-304.423 502.618,-309.569"/>
<polygon fill="midnightblue" stroke="midnightblue" points="501.976,-313.015 512.521,-311.988 503.636,-306.215 501.976,-313.015"/>
</g>
<!-- Node450 -->
<g id="node10" class="node"><title>Node450</title>
<g id="a_node10"><a xlink:href="class_f_list_widget.html#aac6eaaeb9946354f743394b54c84a6a7" target="_top" xlink:title="FListWidget::setTabLabels">
<polygon fill="white" stroke="black" points="508,-273.5 508,-292.5 642,-292.5 642,-273.5 508,-273.5"/>
<text text-anchor="middle" x="575" y="-280.5" font-family="Helvetica,sans-Serif" font-size="10.00">FListWidget::setTabLabels</text>
</a>
</g>
</g>
<!-- Node445&#45;&gt;Node450 -->
<g id="edge9" class="edge"><title>Node445&#45;&gt;Node450</title>
<path fill="none" stroke="midnightblue" d="M452.675,-284.411C466.685,-284.248 482.208,-284.067 497.34,-283.891"/>
<polygon fill="midnightblue" stroke="midnightblue" points="497.772,-287.387 507.731,-283.771 497.691,-280.387 497.772,-287.387"/>
</g>
<!-- Node447 -->
<g id="node7" class="node"><title>Node447</title>
<g id="a_node7"><a xlink:href="class_f_list_frame.html#a4bf0d0d8e56418df395b020d2e66db5f" target="_top" xlink:title="Récupère la taille courante (0&#45;based) du conteneur widgetContainer Cette taille doit en principe être...">
<polygon fill="white" stroke="black" points="696.5,-235.5 696.5,-254.5 805.5,-254.5 805.5,-235.5 696.5,-235.5"/>
<text text-anchor="middle" x="751" y="-242.5" font-family="Helvetica,sans-Serif" font-size="10.00">FListFrame::getRank</text>
</a>
</g>
</g>
<!-- Node446&#45;&gt;Node447 -->
<g id="edge6" class="edge"><title>Node446&#45;&gt;Node447</title>
<path fill="none" stroke="midnightblue" d="M637.836,-245C653.541,-245 670.443,-245 686.242,-245"/>
<polygon fill="midnightblue" stroke="midnightblue" points="686.441,-248.5 696.441,-245 686.441,-241.5 686.441,-248.5"/>
</g>
<!-- Node453&#45;&gt;Node443 -->
<g id="edge15" class="edge"><title>Node453&#45;&gt;Node443</title>
<path fill="none" stroke="midnightblue" d="M456.895,-131C480.255,-137.384 507.154,-144.734 529.277,-150.779"/>
<polygon fill="midnightblue" stroke="midnightblue" points="528.506,-154.197 539.075,-153.457 530.351,-147.444 528.506,-154.197"/>
</g>
<!-- Node453&#45;&gt;Node444 -->
<g id="edge14" class="edge"><title>Node453&#45;&gt;Node444</title>
<path fill="none" stroke="midnightblue" d="M468.138,-122.531C516.863,-127.616 584.688,-135.262 644,-144 659.028,-146.214 675.195,-148.937 690.263,-151.622"/>
<polygon fill="midnightblue" stroke="midnightblue" points="690.029,-155.136 700.492,-153.468 691.273,-148.248 690.029,-155.136"/>
</g>
<!-- Node455 -->
<g id="node15" class="node"><title>Node455</title>
<g id="a_node15"><a xlink:href="class_f_list_frame.html#a4228ed10f2d800b92ff34e2f25edcd8c" target="_top" xlink:title="FListFrame::addParsedTree\lToListWidget">
<polygon fill="white" stroke="black" points="506,-52 506,-82 644,-82 644,-52 506,-52"/>
<text text-anchor="start" x="514" y="-70" font-family="Helvetica,sans-Serif" font-size="10.00">FListFrame::addParsedTree</text>
<text text-anchor="middle" x="575" y="-59" font-family="Helvetica,sans-Serif" font-size="10.00">ToListWidget</text>
</a>
</g>
</g>
<!-- Node454&#45;&gt;Node455 -->
<g id="edge17" class="edge"><title>Node454&#45;&gt;Node455</title>
<path fill="none" stroke="midnightblue" d="M469.979,-67C478.483,-67 487.233,-67 495.876,-67"/>
<polygon fill="midnightblue" stroke="midnightblue" points="495.952,-70.5001 505.952,-67 495.952,-63.5001 495.952,-70.5001"/>
</g>
<!-- Node456 -->
<g id="node16" class="node"><title>Node456</title>
<g id="a_node16"><a xlink:href="class_f_list_frame.html#af8c91e66c02e4c6f1f0fb66097903b73" target="_top" xlink:title="FListFrame::addStringList\lToListWidget">
<polygon fill="white" stroke="black" points="686.5,-83 686.5,-113 815.5,-113 815.5,-83 686.5,-83"/>
<text text-anchor="start" x="694.5" y="-101" font-family="Helvetica,sans-Serif" font-size="10.00">FListFrame::addStringList</text>
<text text-anchor="middle" x="751" y="-90" font-family="Helvetica,sans-Serif" font-size="10.00">ToListWidget</text>
</a>
</g>
</g>
<!-- Node455&#45;&gt;Node456 -->
<g id="edge18" class="edge"><title>Node455&#45;&gt;Node456</title>
<path fill="none" stroke="midnightblue" d="M644.27,-79.163C654.804,-81.0398 665.723,-82.9851 676.368,-84.8816"/>
<polygon fill="midnightblue" stroke="midnightblue" points="676.01,-88.3728 686.468,-86.6812 677.237,-81.4813 676.01,-88.3728"/>
</g>
<!-- Node463 -->
<g id="node23" class="node"><title>Node463</title>
<g id="a_node23"><a xlink:href="class_f_list_frame.html#ae166a8e51ccbb22a5aa2f1d885507565" target="_top" xlink:title="FListFrame::parseTreeFor\lFilePaths">
<polygon fill="white" stroke="black" points="686,-34 686,-64 816,-64 816,-34 686,-34"/>
<text text-anchor="start" x="694" y="-52" font-family="Helvetica,sans-Serif" font-size="10.00">FListFrame::parseTreeFor</text>
<text text-anchor="middle" x="751" y="-41" font-family="Helvetica,sans-Serif" font-size="10.00">FilePaths</text>
</a>
</g>
</g>
<!-- Node455&#45;&gt;Node463 -->
<g id="edge26" class="edge"><title>Node455&#45;&gt;Node463</title>
<path fill="none" stroke="midnightblue" d="M644.27,-59.9376C654.66,-58.8628 665.424,-57.7493 675.93,-56.6624"/>
<polygon fill="midnightblue" stroke="midnightblue" points="676.317,-60.1411 685.904,-55.6306 675.597,-53.1783 676.317,-60.1411"/>
</g>
<!-- Node457 -->
<g id="node17" class="node"><title>Node457</title>
<g id="a_node17"><a xlink:href="class_f_list_frame.html#a9353fe4926e97788a6462c3ee79f6a15" target="_top" xlink:title="FListFrame::clearTabLabels">
<polygon fill="white" stroke="black" points="868,-132.5 868,-151.5 1006,-151.5 1006,-132.5 868,-132.5"/>
<text text-anchor="middle" x="937" y="-139.5" font-family="Helvetica,sans-Serif" font-size="10.00">FListFrame::clearTabLabels</text>
</a>
</g>
</g>
<!-- Node456&#45;&gt;Node457 -->
<g id="edge19" class="edge"><title>Node456&#45;&gt;Node457</title>
<path fill="none" stroke="midnightblue" d="M814.808,-113.019C838.191,-118.611 864.38,-124.874 886.414,-130.143"/>
<polygon fill="midnightblue" stroke="midnightblue" points="885.681,-133.566 896.221,-132.488 887.309,-126.758 885.681,-133.566"/>
</g>
<!-- Node459 -->
<g id="node19" class="node"><title>Node459</title>
<g id="a_node19"><a xlink:href="class_f_list_frame.html#a0ebe3d7847101344e70c84aff2be39b0" target="_top" xlink:title="Accesseur en lecture du nombre d&#39;éléments (nombre d&#39;onglets) du vecteur widgetContainer. ">
<polygon fill="white" stroke="black" points="858,-83 858,-113 1016,-113 1016,-83 858,-83"/>
<text text-anchor="start" x="866" y="-101" font-family="Helvetica,sans-Serif" font-size="10.00">FListFrame::getWidgetContainer</text>
<text text-anchor="middle" x="937" y="-90" font-family="Helvetica,sans-Serif" font-size="10.00">Count</text>
</a>
</g>
</g>
<!-- Node456&#45;&gt;Node459 -->
<g id="edge21" class="edge"><title>Node456&#45;&gt;Node459</title>
<path fill="none" stroke="midnightblue" d="M815.58,-98C825.892,-98 836.732,-98 847.509,-98"/>
<polygon fill="midnightblue" stroke="midnightblue" points="847.801,-101.5 857.801,-98 847.801,-94.5001 847.801,-101.5"/>
</g>
<!-- Node460 -->
<g id="node20" class="node"><title>Node460</title>
<g id="a_node20"><a xlink:href="class_f_list_frame.html#a802475894ee1e30753faed81d9f9dc4b" target="_top" xlink:title="Appelle parseXhlFile(const QString&amp;) sur l&#39;ensemble de widgetContainer. ">
<polygon fill="white" stroke="black" points="874,-44.5 874,-63.5 1000,-63.5 1000,-44.5 874,-44.5"/>
<text text-anchor="middle" x="937" y="-51.5" font-family="Helvetica,sans-Serif" font-size="10.00">FListFrame::parseXhlFile</text>
</a>
</g>
</g>
<!-- Node456&#45;&gt;Node460 -->
<g id="edge22" class="edge"><title>Node456&#45;&gt;Node460</title>
<path fill="none" stroke="midnightblue" d="M814.808,-82.9808C838.191,-77.3892 864.38,-71.1265 886.414,-65.8574"/>
<polygon fill="midnightblue" stroke="midnightblue" points="887.309,-69.2423 896.221,-63.5124 885.681,-62.4342 887.309,-69.2423"/>
</g>
<!-- Node458 -->
<g id="node18" class="node"><title>Node458</title>
<g id="a_node18"><a xlink:href="class_f_list_widget.html#a74bf008958a87e9055b8ec6573d8e2e9" target="_top" xlink:title="FListWidget::clearTabLabels">
<polygon fill="white" stroke="black" points="1052,-132.5 1052,-151.5 1193,-151.5 1193,-132.5 1052,-132.5"/>
<text text-anchor="middle" x="1122.5" y="-139.5" font-family="Helvetica,sans-Serif" font-size="10.00">FListWidget::clearTabLabels</text>
</a>
</g>
</g>
<!-- Node457&#45;&gt;Node458 -->
<g id="edge20" class="edge"><title>Node457&#45;&gt;Node458</title>
<path fill="none" stroke="midnightblue" d="M1006.07,-142C1017.59,-142 1029.64,-142 1041.43,-142"/>
<polygon fill="midnightblue" stroke="midnightblue" points="1041.7,-145.5 1051.7,-142 1041.7,-138.5 1041.7,-145.5"/>
</g>
<!-- Node461 -->
<g id="node21" class="node"><title>Node461</title>
<g id="a_node21"><a xlink:href="classtools.html#a0aa994303a938a76300767d2251b9f85" target="_top" xlink:title="tools::cdRomMounted">
<polygon fill="white" stroke="black" points="1066,-0.5 1066,-19.5 1179,-19.5 1179,-0.5 1066,-0.5"/>
<text text-anchor="middle" x="1122.5" y="-7.5" font-family="Helvetica,sans-Serif" font-size="10.00">tools::cdRomMounted</text>
</a>
</g>
</g>
<!-- Node460&#45;&gt;Node461 -->
<g id="edge23" class="edge"><title>Node460&#45;&gt;Node461</title>
<path fill="none" stroke="midnightblue" d="M977.817,-44.4527C1005.35,-37.8508 1042.19,-29.0181 1071.67,-21.949"/>
<polygon fill="midnightblue" stroke="midnightblue" points="1072.85,-25.264 1081.76,-19.5287 1071.22,-18.457 1072.85,-25.264"/>
</g>
<!-- Node462 -->
<g id="node22" class="node"><title>Node462</title>
<g id="a_node22"><a xlink:href="class_f_list_frame.html#a22a50157e8c6d287c2b2c08d2b7deee9" target="_top" xlink:title="Lancer un fil d&#39;exécution pour lire l&#39;entête d&#39;un fichier XHL (Année, Mois,...) et classer les fichie...">
<polygon fill="white" stroke="black" points="1072,-39 1072,-69 1173,-69 1173,-39 1072,-39"/>
<text text-anchor="start" x="1080" y="-57" font-family="Helvetica,sans-Serif" font-size="10.00">FListFrame::launch</text>
<text text-anchor="middle" x="1122.5" y="-46" font-family="Helvetica,sans-Serif" font-size="10.00">_thread</text>
</a>
</g>
</g>
<!-- Node460&#45;&gt;Node462 -->
<g id="edge24" class="edge"><title>Node460&#45;&gt;Node462</title>
<path fill="none" stroke="midnightblue" d="M1000.12,-47.573C1020.05,-47.124 1042.06,-47.1431 1061.8,-47.6302"/>
<polygon fill="midnightblue" stroke="midnightblue" points="1061.8,-51.1315 1071.9,-47.9276 1062,-44.1346 1061.8,-51.1315"/>
</g>
<!-- Node462&#45;&gt;Node460 -->
<g id="edge25" class="edge"><title>Node462&#45;&gt;Node460</title>
<path fill="none" stroke="midnightblue" d="M1071.9,-60.0724C1052.9,-60.7286 1030.83,-60.9082 1010.15,-60.6111"/>
<polygon fill="midnightblue" stroke="midnightblue" points="1010.19,-57.1114 1000.12,-60.427 1010.06,-64.1102 1010.19,-57.1114"/>
</g>
</g>
</svg>
