<?xml version="1.0" encoding="UTF-8" standalone="no"?>
<!DOCTYPE svg PUBLIC "-//W3C//DTD SVG 1.1//EN"
 "http://www.w3.org/Graphics/SVG/1.1/DTD/svg11.dtd">
<!-- Generated by graphviz version 2.38.0 (20140413.2041)
 -->
<!-- Title: FDialogConnections::setProgressBar Pages: 1 -->
<!--zoomable 180 -->
<svg id="main" version="1.1" xmlns="http://www.w3.org/2000/svg" xmlns:xlink="http://www.w3.org/1999/xlink" xml:space="preserve" onload="init(evt)">
<style type="text/css"><![CDATA[
.edge:hover path { stroke: red; }
.edge:hover polygon { stroke: red; fill: red; }
]]></style>
<script type="text/javascript"><![CDATA[
var edges = document.getElementsByTagName('g');
if (edges && edges.length) {
  for (var i=0;i<edges.length;i++) {
    if (edges[i].id.substr(0,4)=='edge') {
      edges[i].setAttribute('class','edge');
    }
  }
}
]]></script>
        <defs>
                <circle id="rim" cx="0" cy="0" r="7"/>
                <circle id="rim2" cx="0" cy="0" r="3.5"/>
                <g id="zoomPlus">
                        <use xlink:href="#rim" fill="#404040">
                                <set attributeName="fill" to="#808080" begin="zoomplus.mouseover" end="zoomplus.mouseout"/>
                        </use>
                        <path d="M-4,0h8M0,-4v8" fill="none" stroke="white" stroke-width="1.5" pointer-events="none"/>
                </g>
                <g id="zoomMin">
                        <use xlink:href="#rim" fill="#404040">
                                <set attributeName="fill" to="#808080" begin="zoomminus.mouseover" end="zoomminus.mouseout"/>
                        </use>
                        <path d="M-4,0h8" fill="none" stroke="white" stroke-width="1.5" pointer-events="none"/>
                </g>
                <g id="dirArrow">
                        <path fill="none" stroke="white" stroke-width="1.5" d="M0,-3.0v7 M-2.5,-0.5L0,-3.0L2.5,-0.5"/>
                </g>
               <g id="resetDef">
                       <use xlink:href="#rim2" fill="#404040">
                               <set attributeName="fill" to="#808080" begin="reset.mouseover" end="reset.mouseout"/>
                       </use>
               </g>
        </defs>

<script type="text/javascript">
var viewWidth = 714;
var viewHeight = 180;
var sectionId = 'dynsection-3';
</script>
<script xlink:href="svgpan.js"/>
<svg id="graph" class="graph">
<g id="viewport">
<title>FDialogConnections::setProgressBar</title>
<polygon fill="white" stroke="none" points="-4,4 -4,-176 710,-176 710,4 -4,4"/>
<!-- Node4 -->
<g id="node1" class="node"><title>Node4</title>
<polygon fill="#bfbfbf" stroke="black" points="0,-71 0,-101 105,-101 105,-71 0,-71"/>
<text text-anchor="start" x="8" y="-89" font-family="Helvetica,sans-Serif" font-size="10.00">FDialogConnections</text>
<text text-anchor="middle" x="52.5" y="-78" font-family="Helvetica,sans-Serif" font-size="10.00">::setProgressBar</text>
</g>
<!-- Node5 -->
<g id="node2" class="node"><title>Node5</title>
<g id="a_node2"><a xlink:href="class_altair.html#ae0975ced0a36e0ed889ae06043a4df66" target="_top" xlink:title="Constructeur. ">
<polygon fill="white" stroke="black" points="164,-152.5 164,-171.5 232,-171.5 232,-152.5 164,-152.5"/>
<text text-anchor="middle" x="198" y="-159.5" font-family="Helvetica,sans-Serif" font-size="10.00">Altair::Altair</text>
</a>
</g>
</g>
<!-- Node4&#45;&gt;Node5 -->
<g id="edge1" class="edge"><title>Node4&#45;&gt;Node5</title>
<path fill="none" stroke="midnightblue" d="M81.6987,-106.967C98.3424,-118.668 120.17,-132.88 141,-143 148.388,-146.589 156.627,-149.79 164.464,-152.496"/>
<polygon fill="midnightblue" stroke="midnightblue" points="83.6724,-104.076 73.5004,-101.112 79.6041,-109.772 83.6724,-104.076"/>
</g>
<!-- Node6 -->
<g id="node3" class="node"><title>Node6</title>
<g id="a_node3"><a xlink:href="class_altair.html#a2f6882c170016e2d7729058b08896a1d" target="_top" xlink:title="Tuer l&#39;application en ligne de commande lhx. ">
<polygon fill="white" stroke="black" points="151.5,-114.5 151.5,-133.5 244.5,-133.5 244.5,-114.5 151.5,-114.5"/>
<text text-anchor="middle" x="198" y="-121.5" font-family="Helvetica,sans-Serif" font-size="10.00">Altair::killProcess</text>
</a>
</g>
</g>
<!-- Node4&#45;&gt;Node6 -->
<g id="edge2" class="edge"><title>Node4&#45;&gt;Node6</title>
<path fill="none" stroke="midnightblue" d="M115.414,-102.395C130.981,-106.518 147.177,-110.807 160.997,-114.466"/>
<polygon fill="midnightblue" stroke="midnightblue" points="115.87,-98.8954 105.307,-99.7189 114.078,-105.662 115.87,-98.8954"/>
</g>
<!-- Node7 -->
<g id="node4" class="node"><title>Node7</title>
<g id="a_node4"><a xlink:href="class_altair.html#a19ef4b530e210642e2e71c94a2b14bef" target="_top" xlink:title="Lit le fichier rankFile pour l&#39;index de la barre progression, le lit dans &#160;&#160;fileRank &#160;&#160;et ajuste la b...">
<polygon fill="white" stroke="black" points="141,-76.5 141,-95.5 255,-95.5 255,-76.5 141,-76.5"/>
<text text-anchor="middle" x="198" y="-83.5" font-family="Helvetica,sans-Serif" font-size="10.00">Altair::readRankSignal</text>
</a>
</g>
</g>
<!-- Node4&#45;&gt;Node7 -->
<g id="edge3" class="edge"><title>Node4&#45;&gt;Node7</title>
<path fill="none" stroke="midnightblue" d="M115.488,-86C123.935,-86 132.567,-86 140.903,-86"/>
<polygon fill="midnightblue" stroke="midnightblue" points="115.307,-82.5001 105.307,-86 115.307,-89.5001 115.307,-82.5001"/>
</g>
<!-- Node8 -->
<g id="node5" class="node"><title>Node8</title>
<g id="a_node5"><a xlink:href="class_altair.html#a08b5e402c9a694af09110afe33219080" target="_top" xlink:title="Construction de la ligne de commande pour des bases de paye dans un répertoire donné ...">
<polygon fill="white" stroke="black" points="291,-57.5 291,-76.5 381,-76.5 381,-57.5 291,-57.5"/>
<text text-anchor="middle" x="336" y="-64.5" font-family="Helvetica,sans-Serif" font-size="10.00">Altair::runWorker</text>
</a>
</g>
</g>
<!-- Node4&#45;&gt;Node8 -->
<g id="edge11" class="edge"><title>Node4&#45;&gt;Node8</title>
<path fill="none" stroke="midnightblue" d="M115.076,-70.9081C123.733,-69.2906 132.557,-67.9061 141,-67 192.237,-61.5012 251.525,-62.5752 290.939,-64.3296"/>
<polygon fill="midnightblue" stroke="midnightblue" points="114.151,-67.5232 105.021,-72.8992 115.511,-74.3898 114.151,-67.5232"/>
</g>
<!-- Node12 -->
<g id="node9" class="node"><title>Node12</title>
<g id="a_node9"><a xlink:href="class_altair.html#afd71c35a3a71291b0d4eece1058de4f0" target="_top" xlink:title="Lance l&#39;application Rstudio et les scripts R. ">
<polygon fill="white" stroke="black" points="291.5,-0.5 291.5,-19.5 380.5,-19.5 380.5,-0.5 291.5,-0.5"/>
<text text-anchor="middle" x="336" y="-7.5" font-family="Helvetica,sans-Serif" font-size="10.00">Altair::runRAltair</text>
</a>
</g>
</g>
<!-- Node4&#45;&gt;Node12 -->
<g id="edge9" class="edge"><title>Node4&#45;&gt;Node12</title>
<path fill="none" stroke="midnightblue" d="M108.451,-67.7949C119.205,-64.4082 130.426,-60.9963 141,-58 192.909,-43.2908 253.335,-28.7409 292.779,-19.5838"/>
<polygon fill="midnightblue" stroke="midnightblue" points="107.207,-64.518 98.7386,-70.8854 109.329,-71.1884 107.207,-64.518"/>
</g>
<!-- Node7&#45;&gt;Node8 -->
<g id="edge4" class="edge"><title>Node7&#45;&gt;Node8</title>
<path fill="none" stroke="midnightblue" d="M265.188,-76.7532C273.823,-75.5468 282.498,-74.3349 290.654,-73.1954"/>
<polygon fill="midnightblue" stroke="midnightblue" points="264.521,-73.3122 255.102,-78.1623 265.49,-80.2449 264.521,-73.3122"/>
</g>
<!-- Node9 -->
<g id="node6" class="node"><title>Node9</title>
<g id="a_node6"><a xlink:href="class_altair.html#a7d10f8ecf4097577885172afb6c2e9c6" target="_top" xlink:title="Lance l&#39;exécution de l&#39;application en ligne de commande lhx. ">
<polygon fill="white" stroke="black" points="618.5,-57.5 618.5,-76.5 677.5,-76.5 677.5,-57.5 618.5,-57.5"/>
<text text-anchor="middle" x="648" y="-64.5" font-family="Helvetica,sans-Serif" font-size="10.00">Altair::run</text>
</a>
</g>
</g>
<!-- Node8&#45;&gt;Node9 -->
<g id="edge5" class="edge"><title>Node8&#45;&gt;Node9</title>
<path fill="none" stroke="midnightblue" d="M391.317,-67C457.467,-67 566.743,-67 618.336,-67"/>
<polygon fill="midnightblue" stroke="midnightblue" points="391.086,-63.5001 381.086,-67 391.086,-70.5001 391.086,-63.5001"/>
</g>
<!-- Node10 -->
<g id="node7" class="node"><title>Node10</title>
<g id="a_node7"><a xlink:href="class_altair.html#ae04f2a5771d47bbe2e0cc3a11b72d6bf" target="_top" xlink:title="Parcourt le répertoire en cours du mode distributif, un à chaque appel Exporte l&#39;identification dans ...">
<polygon fill="white" stroke="black" points="417,-38.5 417,-57.5 554,-57.5 554,-38.5 417,-38.5"/>
<text text-anchor="middle" x="485.5" y="-45.5" font-family="Helvetica,sans-Serif" font-size="10.00">Altair::runWorkerDistributed</text>
</a>
</g>
</g>
<!-- Node8&#45;&gt;Node10 -->
<g id="edge6" class="edge"><title>Node8&#45;&gt;Node10</title>
<path fill="none" stroke="midnightblue" d="M391.209,-60.0171C399.542,-58.9438 408.233,-57.8242 416.814,-56.7189"/>
<polygon fill="midnightblue" stroke="midnightblue" points="390.726,-56.5504 381.255,-61.2994 391.62,-63.493 390.726,-56.5504"/>
</g>
<!-- Node10&#45;&gt;Node9 -->
<g id="edge8" class="edge"><title>Node10&#45;&gt;Node9</title>
<path fill="none" stroke="midnightblue" d="M564.162,-57.1937C583.482,-59.4808 603.003,-61.7916 618.238,-63.5951"/>
<polygon fill="midnightblue" stroke="midnightblue" points="564.443,-53.7026 554.101,-56.0026 563.62,-60.6541 564.443,-53.7026"/>
</g>
<!-- Node11 -->
<g id="node8" class="node"><title>Node11</title>
<g id="a_node8"><a xlink:href="class_altair.html#a16b8035c4383a789cd00b687fb105fe9" target="_top" xlink:title="Traitement de la fin de l&#39;exécution de lhx. ">
<polygon fill="white" stroke="black" points="590,-19.5 590,-38.5 706,-38.5 706,-19.5 590,-19.5"/>
<text text-anchor="middle" x="648" y="-26.5" font-family="Helvetica,sans-Serif" font-size="10.00">Altair::processFinished</text>
</a>
</g>
</g>
<!-- Node10&#45;&gt;Node11 -->
<g id="edge7" class="edge"><title>Node10&#45;&gt;Node11</title>
<path fill="none" stroke="midnightblue" d="M564.215,-38.8001C572.867,-37.7759 581.558,-36.7471 589.885,-35.7613"/>
<polygon fill="midnightblue" stroke="midnightblue" points="563.62,-35.3459 554.101,-39.9974 564.443,-42.2974 563.62,-35.3459"/>
</g>
<!-- Node12&#45;&gt;Node11 -->
<g id="edge10" class="edge"><title>Node12&#45;&gt;Node11</title>
<path fill="none" stroke="midnightblue" d="M390.769,-13.2955C446.386,-16.7043 532.909,-22.0073 589.769,-25.4923"/>
<polygon fill="midnightblue" stroke="midnightblue" points="390.953,-9.80034 380.758,-12.6819 390.525,-16.7872 390.953,-9.80034"/>
</g>
</g>
</svg>
        <g id="navigator" transform="translate(0 0)" fill="#404254">
                <rect fill="#f2f5e9" fill-opacity="0.5" stroke="#606060" stroke-width=".5" x="0" y="0" width="60" height="60"/>
                <use id="zoomplus" xlink:href="#zoomPlus" x="17" y="9" onmousedown="handleZoom(evt,'in')"/>
                <use id="zoomminus" xlink:href="#zoomMin" x="42" y="9" onmousedown="handleZoom(evt,'out')"/>
                <use id="reset" xlink:href="#resetDef" x="30" y="36" onmousedown="handleReset()"/>
                <g id="arrowUp" xlink:href="#dirArrow" transform="translate(30 24)" onmousedown="handlePan(0,-1)">
                  <use xlink:href="#rim" fill="#404040">
                        <set attributeName="fill" to="#808080" begin="arrowUp.mouseover" end="arrowUp.mouseout"/>
                  </use>
                  <path fill="none" stroke="white" stroke-width="1.5" d="M0,-3.0v7 M-2.5,-0.5L0,-3.0L2.5,-0.5"/>
                </g>
                <g id="arrowRight" xlink:href="#dirArrow" transform="rotate(90) translate(36 -43)" onmousedown="handlePan(1,0)">
                  <use xlink:href="#rim" fill="#404040">
                        <set attributeName="fill" to="#808080" begin="arrowRight.mouseover" end="arrowRight.mouseout"/>
                  </use>
                  <path fill="none" stroke="white" stroke-width="1.5" d="M0,-3.0v7 M-2.5,-0.5L0,-3.0L2.5,-0.5"/>
                </g>
                <g id="arrowDown" xlink:href="#dirArrow" transform="rotate(180) translate(-30 -48)" onmousedown="handlePan(0,1)">
                  <use xlink:href="#rim" fill="#404040">
                        <set attributeName="fill" to="#808080" begin="arrowDown.mouseover" end="arrowDown.mouseout"/>
                  </use>
                  <path fill="none" stroke="white" stroke-width="1.5" d="M0,-3.0v7 M-2.5,-0.5L0,-3.0L2.5,-0.5"/>
                </g>
                <g id="arrowLeft" xlink:href="#dirArrow" transform="rotate(270) translate(-36 17)" onmousedown="handlePan(-1,0)">
                  <use xlink:href="#rim" fill="#404040">
                        <set attributeName="fill" to="#808080" begin="arrowLeft.mouseover" end="arrowLeft.mouseout"/>
                  </use>
                  <path fill="none" stroke="white" stroke-width="1.5" d="M0,-3.0v7 M-2.5,-0.5L0,-3.0L2.5,-0.5"/>
                </g>
        </g>
        <svg viewBox="0 0 15 15" width="100%" height="30px" preserveAspectRatio="xMaxYMin meet">
         <g id="arrow_out" transform="scale(0.3 0.3)">
          <a xlink:href="class_f_dialog_connections_ad162376ad0191594a2bc0675c11fb455_icgraph_org.svg" target="_base">
           <rect id="button" ry="5" rx="5" y="6" x="6" height="38" width="38"
                fill="#f2f5e9" fill-opacity="0.5" stroke="#606060" stroke-width="1.0"/>
           <path id="arrow"
             d="M 11.500037,31.436501 C 11.940474,20.09759 22.043105,11.32322 32.158766,21.979434 L 37.068811,17.246167 C 37.068811,17.246167 37.088388,32 37.088388,32 L 22.160133,31.978069 C 22.160133,31.978069 26.997745,27.140456 26.997745,27.140456 C 18.528582,18.264221 13.291696,25.230495 11.500037,31.436501 z"
             style="fill:#404040;"/>
          </a>
         </g>
        </svg>
</svg>
