<?xml version="1.0" encoding="UTF-8" standalone="no"?>
<!DOCTYPE svg PUBLIC "-//W3C//DTD SVG 1.1//EN"
 "http://www.w3.org/Graphics/SVG/1.1/DTD/svg11.dtd">
<!-- Generated by graphviz version 2.38.0 (20140413.2041)
 -->
<!-- Title: FStringList Pages: 1 -->
<svg width="127pt" height="369pt"
 viewBox="0.00 0.00 127.00 369.00" xmlns="http://www.w3.org/2000/svg" xmlns:xlink="http://www.w3.org/1999/xlink">
<g id="graph0" class="graph" transform="scale(1 1) rotate(0) translate(4 365)">
<title>FStringList</title>
<polygon fill="white" stroke="none" points="-4,4 -4,-365 123,-365 123,4 -4,4"/>
<!-- Node0 -->
<g id="node1" class="node"><title>Node0</title>
<polygon fill="#bfbfbf" stroke="black" points="12,-0.5 12,-266.5 107,-266.5 107,-0.5 12,-0.5"/>
<text text-anchor="middle" x="59.5" y="-254.5" font-family="Helvetica,sans-Serif" font-size="10.00">FStringList</text>
<polyline fill="none" stroke="black" points="12,-247.5 107,-247.5 "/>
<text text-anchor="middle" x="59.5" y="-235.5" font-family="Helvetica,sans-Serif" font-size="10.00"> </text>
<polyline fill="none" stroke="black" points="12,-228.5 107,-228.5 "/>
<text text-anchor="start" x="20" y="-216.5" font-family="Helvetica,sans-Serif" font-size="10.00">+ FStringList()</text>
<text text-anchor="start" x="20" y="-205.5" font-family="Helvetica,sans-Serif" font-size="10.00">+ FStringList()</text>
<text text-anchor="start" x="20" y="-194.5" font-family="Helvetica,sans-Serif" font-size="10.00">+ FStringList()</text>
<text text-anchor="start" x="20" y="-183.5" font-family="Helvetica,sans-Serif" font-size="10.00">+ FStringList()</text>
<text text-anchor="start" x="20" y="-172.5" font-family="Helvetica,sans-Serif" font-size="10.00">+ FStringList()</text>
<text text-anchor="start" x="20" y="-161.5" font-family="Helvetica,sans-Serif" font-size="10.00">+ FStringList()</text>
<text text-anchor="start" x="20" y="-150.5" font-family="Helvetica,sans-Serif" font-size="10.00">+ FStringList()</text>
<text text-anchor="start" x="20" y="-139.5" font-family="Helvetica,sans-Serif" font-size="10.00">+ FStringList()</text>
<text text-anchor="start" x="20" y="-128.5" font-family="Helvetica,sans-Serif" font-size="10.00">+ FStringList()</text>
<text text-anchor="start" x="20" y="-117.5" font-family="Helvetica,sans-Serif" font-size="10.00">+ FStringList()</text>
<text text-anchor="start" x="20" y="-106.5" font-family="Helvetica,sans-Serif" font-size="10.00">+ hasNoString()</text>
<text text-anchor="start" x="20" y="-95.5" font-family="Helvetica,sans-Serif" font-size="10.00">+ isFilled()</text>
<text text-anchor="start" x="20" y="-84.5" font-family="Helvetica,sans-Serif" font-size="10.00">+ join()</text>
<text text-anchor="start" x="20" y="-73.5" font-family="Helvetica,sans-Serif" font-size="10.00">+ join()</text>
<text text-anchor="start" x="20" y="-62.5" font-family="Helvetica,sans-Serif" font-size="10.00">+ join()</text>
<text text-anchor="start" x="20" y="-51.5" font-family="Helvetica,sans-Serif" font-size="10.00">+ setEmptyTags()</text>
<text text-anchor="start" x="20" y="-40.5" font-family="Helvetica,sans-Serif" font-size="10.00">+ setTags()</text>
<text text-anchor="start" x="20" y="-29.5" font-family="Helvetica,sans-Serif" font-size="10.00">+ toFString()</text>
<text text-anchor="start" x="20" y="-18.5" font-family="Helvetica,sans-Serif" font-size="10.00">+ toInt()</text>
<text text-anchor="start" x="20" y="-7.5" font-family="Helvetica,sans-Serif" font-size="10.00">+ toQString()</text>
</g>
<!-- Node1 -->
<g id="node2" class="node"><title>Node1</title>
<polygon fill="white" stroke="#bfbfbf" points="0,-303.5 0,-360.5 119,-360.5 119,-303.5 0,-303.5"/>
<text text-anchor="middle" x="59.5" y="-348.5" font-family="Helvetica,sans-Serif" font-size="10.00">QVector&lt; QStringList &gt;</text>
<polyline fill="none" stroke="#bfbfbf" points="0,-341.5 119,-341.5 "/>
<text text-anchor="middle" x="59.5" y="-329.5" font-family="Helvetica,sans-Serif" font-size="10.00"> </text>
<polyline fill="none" stroke="#bfbfbf" points="0,-322.5 119,-322.5 "/>
<text text-anchor="middle" x="59.5" y="-310.5" font-family="Helvetica,sans-Serif" font-size="10.00"> </text>
</g>
<!-- Node1&#45;&gt;Node0 -->
<g id="edge1" class="edge"><title>Node1&#45;&gt;Node0</title>
<path fill="none" stroke="midnightblue" d="M59.5,-293.205C59.5,-285.137 59.5,-276.18 59.5,-266.746"/>
<polygon fill="none" stroke="midnightblue" points="56.0001,-293.263 59.5,-303.263 63.0001,-293.263 56.0001,-293.263"/>
</g>
</g>
</svg>
