<?xml version="1.0" encoding="UTF-8" standalone="no"?>
<!DOCTYPE svg PUBLIC "-//W3C//DTD SVG 1.1//EN"
 "http://www.w3.org/Graphics/SVG/1.1/DTD/svg11.dtd">
<!-- Generated by graphviz version 2.38.0 (20140413.2041)
 -->
<!-- Title: tools::copyDir Pages: 1 -->
<svg width="332pt" height="47pt"
 viewBox="0.00 0.00 332.00 47.00" xmlns="http://www.w3.org/2000/svg" xmlns:xlink="http://www.w3.org/1999/xlink">
<g id="graph0" class="graph" transform="scale(1 1) rotate(0) translate(4 43)">
<title>tools::copyDir</title>
<polygon fill="white" stroke="none" points="-4,4 -4,-43 328,-43 328,4 -4,4"/>
<!-- Node50 -->
<g id="node1" class="node"><title>Node50</title>
<polygon fill="#bfbfbf" stroke="black" points="0,-0.5 0,-19.5 80,-19.5 80,-0.5 0,-0.5"/>
<text text-anchor="middle" x="40" y="-7.5" font-family="Helvetica,sans-Serif" font-size="10.00">tools::copyDir</text>
</g>
<!-- Node51 -->
<g id="node2" class="node"><title>Node51</title>
<g id="a_node2"><a xlink:href="classtools.html#a0765c68c41d7c957f1fb0f0da8b4a9c9" target="_top" xlink:title="Copie un fichier de manière sécurisée. ">
<polygon fill="white" stroke="black" points="116,-19.5 116,-38.5 199,-38.5 199,-19.5 116,-19.5"/>
<text text-anchor="middle" x="157.5" y="-26.5" font-family="Helvetica,sans-Serif" font-size="10.00">tools::copyFile</text>
</a>
</g>
</g>
<!-- Node50&#45;&gt;Node51 -->
<g id="edge1" class="edge"><title>Node50&#45;&gt;Node51</title>
<path fill="none" stroke="midnightblue" d="M80.103,-16.4325C88.3817,-17.7944 97.2331,-19.2505 105.869,-20.6711"/>
<polygon fill="midnightblue" stroke="midnightblue" points="105.425,-24.145 115.86,-22.3147 106.561,-17.2378 105.425,-24.145"/>
</g>
<!-- Node52 -->
<g id="node3" class="node"><title>Node52</title>
<g id="a_node3"><a xlink:href="classtools.html#ae1018e45c513785270b999cbcfa8beb6" target="_top" xlink:title="Procédure de contrôle des entrées&#45;sorties. ">
<polygon fill="white" stroke="black" points="235,-0.5 235,-19.5 324,-19.5 324,-0.5 235,-0.5"/>
<text text-anchor="middle" x="279.5" y="-7.5" font-family="Helvetica,sans-Serif" font-size="10.00">tools::IOControl</text>
</a>
</g>
</g>
<!-- Node51&#45;&gt;Node52 -->
<g id="edge2" class="edge"><title>Node51&#45;&gt;Node52</title>
<path fill="none" stroke="midnightblue" d="M199.127,-22.5675C207.337,-21.2675 216.089,-19.8817 224.671,-18.5229"/>
<polygon fill="midnightblue" stroke="midnightblue" points="225.296,-21.9677 234.625,-16.9468 224.201,-15.0538 225.296,-21.9677"/>
</g>
<!-- Node52&#45;&gt;Node50 -->
<g id="edge3" class="edge"><title>Node52&#45;&gt;Node50</title>
<path fill="none" stroke="midnightblue" d="M234.788,-10C193.919,-10 132.963,-10 90.3604,-10"/>
<polygon fill="midnightblue" stroke="midnightblue" points="90.2183,-6.5001 80.2183,-10 90.2183,-13.5001 90.2183,-6.5001"/>
</g>
</g>
</svg>
