<?xml version="1.0" encoding="UTF-8" standalone="no"?>
<!DOCTYPE svg PUBLIC "-//W3C//DTD SVG 1.1//EN"
 "http://www.w3.org/Graphics/SVG/1.1/DTD/svg11.dtd">
<!-- Generated by graphviz version 2.38.0 (20140413.2041)
 -->
<!-- Title: processPage Pages: 1 -->
<svg width="240pt" height="876pt"
 viewBox="0.00 0.00 239.50 876.00" xmlns="http://www.w3.org/2000/svg" xmlns:xlink="http://www.w3.org/1999/xlink">
<g id="graph0" class="graph" transform="scale(1 1) rotate(0) translate(4 872)">
<title>processPage</title>
<polygon fill="white" stroke="none" points="-4,4 -4,-872 235.5,-872 235.5,4 -4,4"/>
<!-- Node0 -->
<g id="node1" class="node"><title>Node0</title>
<polygon fill="#bfbfbf" stroke="black" points="0,-0.5 0,-189.5 110,-189.5 110,-0.5 0,-0.5"/>
<text text-anchor="middle" x="55" y="-177.5" font-family="Helvetica,sans-Serif" font-size="10.00">processPage</text>
<polyline fill="none" stroke="black" points="0,-170.5 110,-170.5 "/>
<text text-anchor="start" x="8" y="-158.5" font-family="Helvetica,sans-Serif" font-size="10.00">+ enchainerRapports</text>
<text text-anchor="start" x="8" y="-147.5" font-family="Helvetica,sans-Serif" font-size="10.00">+ logFrame</text>
<text text-anchor="start" x="8" y="-136.5" font-family="Helvetica,sans-Serif" font-size="10.00">+ rapportEntier</text>
<text text-anchor="start" x="8" y="-125.5" font-family="Helvetica,sans-Serif" font-size="10.00">&#45; consoleCheckBox</text>
<text text-anchor="start" x="8" y="-114.5" font-family="Helvetica,sans-Serif" font-size="10.00">&#45; logCheckBox</text>
<text text-anchor="start" x="8" y="-103.5" font-family="Helvetica,sans-Serif" font-size="10.00">&#45; memoryUseWidget</text>
<text text-anchor="start" x="8" y="-92.5" font-family="Helvetica,sans-Serif" font-size="10.00">&#45; nLineLabel</text>
<text text-anchor="start" x="8" y="-81.5" font-family="Helvetica,sans-Serif" font-size="10.00">&#45; NLineLabel</text>
<text text-anchor="start" x="8" y="-70.5" font-family="Helvetica,sans-Serif" font-size="10.00">&#45; processTypeBox</text>
<text text-anchor="start" x="8" y="-59.5" font-family="Helvetica,sans-Serif" font-size="10.00">&#45; processTypeWidget</text>
<text text-anchor="start" x="8" y="-48.5" font-family="Helvetica,sans-Serif" font-size="10.00">&#45; rapportTypeWidget</text>
<text text-anchor="start" x="8" y="-37.5" font-family="Helvetica,sans-Serif" font-size="10.00">&#45; standardMsg</text>
<polyline fill="none" stroke="black" points="0,-30.5 110,-30.5 "/>
<text text-anchor="start" x="8" y="-18.5" font-family="Helvetica,sans-Serif" font-size="10.00">+ processPage()</text>
<text text-anchor="start" x="8" y="-7.5" font-family="Helvetica,sans-Serif" font-size="10.00">+ processPage()</text>
</g>
<!-- Node1 -->
<g id="node2" class="node"><title>Node1</title>
<polygon fill="white" stroke="#bfbfbf" points="2,-270.5 2,-327.5 54,-327.5 54,-270.5 2,-270.5"/>
<text text-anchor="middle" x="28" y="-315.5" font-family="Helvetica,sans-Serif" font-size="10.00">QDialog</text>
<polyline fill="none" stroke="#bfbfbf" points="2,-308.5 54,-308.5 "/>
<text text-anchor="middle" x="28" y="-296.5" font-family="Helvetica,sans-Serif" font-size="10.00"> </text>
<polyline fill="none" stroke="#bfbfbf" points="2,-289.5 54,-289.5 "/>
<text text-anchor="middle" x="28" y="-277.5" font-family="Helvetica,sans-Serif" font-size="10.00"> </text>
</g>
<!-- Node1&#45;&gt;Node0 -->
<g id="edge1" class="edge"><title>Node1&#45;&gt;Node0</title>
<path fill="none" stroke="midnightblue" d="M27.6592,-260.099C29.3439,-240.051 32.321,-214.47 35.7686,-189.503"/>
<polygon fill="none" stroke="midnightblue" points="24.1491,-260.1 26.8808,-270.336 31.1289,-260.63 24.1491,-260.1"/>
</g>
<!-- Node1&#45;&gt;Node0 -->
<g id="edge4" class="edge"><title>Node1&#45;&gt;Node0</title>
<path fill="none" stroke="midnightblue" d="M38.422,-260.376C42.1117,-240.287 45.9939,-214.585 49.2355,-189.503"/>
<polygon fill="none" stroke="midnightblue" points="34.9579,-259.856 36.5145,-270.336 41.833,-261.173 34.9579,-259.856"/>
</g>
<!-- Node2 -->
<g id="node3" class="node"><title>Node2</title>
<g id="a_node3"><a xlink:href="classtools.html" target="_top" xlink:title="{tools\n|+ htmlLogPath\l+ systemPathPrefix\l+ tempdir\l+ userdatadir\l|+ tools()\l+ dump()\l+ getEmbeddedPath()\l+ readFile()\l+ readFile()\l+ readFile()\l+ readFile()\l+ renommer()\l+ substituer()\l+ cdRomMounted()\l+ copyDir()\l+ copyFile()\l+ ents()\l+ generateDatadirPath()\l+ generateDatadirPath()\l+ getDirectorySize()\l+ getFileSize()\l+ IOControl()\l+ openDir()\l+ openDirDialog()\l+ path_access()\l+ remAccents()\l+ unzip()\l+ unzipDir()\l+ zip()\l+ zipDir()\l}">
<polygon fill="white" stroke="black" points="65.5,-408.5 65.5,-773.5 186.5,-773.5 186.5,-408.5 65.5,-408.5"/>
<text text-anchor="middle" x="126" y="-761.5" font-family="Helvetica,sans-Serif" font-size="10.00">tools</text>
<polyline fill="none" stroke="black" points="65.5,-754.5 186.5,-754.5 "/>
<text text-anchor="start" x="73.5" y="-742.5" font-family="Helvetica,sans-Serif" font-size="10.00">+ htmlLogPath</text>
<text text-anchor="start" x="73.5" y="-731.5" font-family="Helvetica,sans-Serif" font-size="10.00">+ systemPathPrefix</text>
<text text-anchor="start" x="73.5" y="-720.5" font-family="Helvetica,sans-Serif" font-size="10.00">+ tempdir</text>
<text text-anchor="start" x="73.5" y="-709.5" font-family="Helvetica,sans-Serif" font-size="10.00">+ userdatadir</text>
<polyline fill="none" stroke="black" points="65.5,-702.5 186.5,-702.5 "/>
<text text-anchor="start" x="73.5" y="-690.5" font-family="Helvetica,sans-Serif" font-size="10.00">+ tools()</text>
<text text-anchor="start" x="73.5" y="-679.5" font-family="Helvetica,sans-Serif" font-size="10.00">+ dump()</text>
<text text-anchor="start" x="73.5" y="-668.5" font-family="Helvetica,sans-Serif" font-size="10.00">+ getEmbeddedPath()</text>
<text text-anchor="start" x="73.5" y="-657.5" font-family="Helvetica,sans-Serif" font-size="10.00">+ readFile()</text>
<text text-anchor="start" x="73.5" y="-646.5" font-family="Helvetica,sans-Serif" font-size="10.00">+ readFile()</text>
<text text-anchor="start" x="73.5" y="-635.5" font-family="Helvetica,sans-Serif" font-size="10.00">+ readFile()</text>
<text text-anchor="start" x="73.5" y="-624.5" font-family="Helvetica,sans-Serif" font-size="10.00">+ readFile()</text>
<text text-anchor="start" x="73.5" y="-613.5" font-family="Helvetica,sans-Serif" font-size="10.00">+ renommer()</text>
<text text-anchor="start" x="73.5" y="-602.5" font-family="Helvetica,sans-Serif" font-size="10.00">+ substituer()</text>
<text text-anchor="start" x="73.5" y="-591.5" font-family="Helvetica,sans-Serif" font-size="10.00">+ cdRomMounted()</text>
<text text-anchor="start" x="73.5" y="-580.5" font-family="Helvetica,sans-Serif" font-size="10.00">+ copyDir()</text>
<text text-anchor="start" x="73.5" y="-569.5" font-family="Helvetica,sans-Serif" font-size="10.00">+ copyFile()</text>
<text text-anchor="start" x="73.5" y="-558.5" font-family="Helvetica,sans-Serif" font-size="10.00">+ ents()</text>
<text text-anchor="start" x="73.5" y="-547.5" font-family="Helvetica,sans-Serif" font-size="10.00">+ generateDatadirPath()</text>
<text text-anchor="start" x="73.5" y="-536.5" font-family="Helvetica,sans-Serif" font-size="10.00">+ generateDatadirPath()</text>
<text text-anchor="start" x="73.5" y="-525.5" font-family="Helvetica,sans-Serif" font-size="10.00">+ getDirectorySize()</text>
<text text-anchor="start" x="73.5" y="-514.5" font-family="Helvetica,sans-Serif" font-size="10.00">+ getFileSize()</text>
<text text-anchor="start" x="73.5" y="-503.5" font-family="Helvetica,sans-Serif" font-size="10.00">+ IOControl()</text>
<text text-anchor="start" x="73.5" y="-492.5" font-family="Helvetica,sans-Serif" font-size="10.00">+ openDir()</text>
<text text-anchor="start" x="73.5" y="-481.5" font-family="Helvetica,sans-Serif" font-size="10.00">+ openDirDialog()</text>
<text text-anchor="start" x="73.5" y="-470.5" font-family="Helvetica,sans-Serif" font-size="10.00">+ path_access()</text>
<text text-anchor="start" x="73.5" y="-459.5" font-family="Helvetica,sans-Serif" font-size="10.00">+ remAccents()</text>
<text text-anchor="start" x="73.5" y="-448.5" font-family="Helvetica,sans-Serif" font-size="10.00">+ unzip()</text>
<text text-anchor="start" x="73.5" y="-437.5" font-family="Helvetica,sans-Serif" font-size="10.00">+ unzipDir()</text>
<text text-anchor="start" x="73.5" y="-426.5" font-family="Helvetica,sans-Serif" font-size="10.00">+ zip()</text>
<text text-anchor="start" x="73.5" y="-415.5" font-family="Helvetica,sans-Serif" font-size="10.00">+ zipDir()</text>
</a>
</g>
</g>
<!-- Node2&#45;&gt;Node0 -->
<g id="edge2" class="edge"><title>Node2&#45;&gt;Node0</title>
<path fill="none" stroke="midnightblue" d="M98.419,-398.098C88.1266,-326.486 76.8984,-248.363 68.439,-189.505"/>
<polygon fill="none" stroke="midnightblue" points="94.9776,-398.757 99.8647,-408.157 101.906,-397.761 94.9776,-398.757"/>
</g>
<!-- Node4 -->
<g id="node5" class="node"><title>Node4</title>
<g id="a_node5"><a xlink:href="classcommon.html" target="_top" xlink:title="{common\n|+ altairCommandStr\l+ execPath\l+ RAltairCommandStr\l+ RAltairDirStr\l+ sharedir\l|+ common()\l+ exporter_identification\l_controle()\l+ exporter_identification\l_controle()\l}">
<polygon fill="white" stroke="black" points="110.5,-226.5 110.5,-371.5 231.5,-371.5 231.5,-226.5 110.5,-226.5"/>
<text text-anchor="middle" x="171" y="-359.5" font-family="Helvetica,sans-Serif" font-size="10.00">common</text>
<polyline fill="none" stroke="black" points="110.5,-352.5 231.5,-352.5 "/>
<text text-anchor="start" x="118.5" y="-340.5" font-family="Helvetica,sans-Serif" font-size="10.00">+ altairCommandStr</text>
<text text-anchor="start" x="118.5" y="-329.5" font-family="Helvetica,sans-Serif" font-size="10.00">+ execPath</text>
<text text-anchor="start" x="118.5" y="-318.5" font-family="Helvetica,sans-Serif" font-size="10.00">+ RAltairCommandStr</text>
<text text-anchor="start" x="118.5" y="-307.5" font-family="Helvetica,sans-Serif" font-size="10.00">+ RAltairDirStr</text>
<text text-anchor="start" x="118.5" y="-296.5" font-family="Helvetica,sans-Serif" font-size="10.00">+ sharedir</text>
<polyline fill="none" stroke="black" points="110.5,-289.5 231.5,-289.5 "/>
<text text-anchor="start" x="118.5" y="-277.5" font-family="Helvetica,sans-Serif" font-size="10.00">+ common()</text>
<text text-anchor="start" x="118.5" y="-266.5" font-family="Helvetica,sans-Serif" font-size="10.00">+ exporter_identification</text>
<text text-anchor="start" x="118.5" y="-255.5" font-family="Helvetica,sans-Serif" font-size="10.00">_controle()</text>
<text text-anchor="start" x="118.5" y="-244.5" font-family="Helvetica,sans-Serif" font-size="10.00">+ exporter_identification</text>
<text text-anchor="start" x="118.5" y="-233.5" font-family="Helvetica,sans-Serif" font-size="10.00">_controle()</text>
</a>
</g>
</g>
<!-- Node2&#45;&gt;Node4 -->
<g id="edge6" class="edge"><title>Node2&#45;&gt;Node4</title>
<path fill="none" stroke="midnightblue" d="M155.746,-398.304C157.175,-389.097 158.56,-380.17 159.875,-371.697"/>
<polygon fill="none" stroke="midnightblue" points="152.255,-397.979 154.18,-408.398 159.172,-399.053 152.255,-397.979"/>
</g>
<!-- Node3 -->
<g id="node4" class="node"><title>Node3</title>
<g id="a_node4"><a xlink:href="classflags.html" target="_top" xlink:title="{flags\n||}">
<polygon fill="white" stroke="black" points="107,-810.5 107,-867.5 145,-867.5 145,-810.5 107,-810.5"/>
<text text-anchor="middle" x="126" y="-855.5" font-family="Helvetica,sans-Serif" font-size="10.00">flags</text>
<polyline fill="none" stroke="black" points="107,-848.5 145,-848.5 "/>
<text text-anchor="middle" x="126" y="-836.5" font-family="Helvetica,sans-Serif" font-size="10.00"> </text>
<polyline fill="none" stroke="black" points="107,-829.5 145,-829.5 "/>
<text text-anchor="middle" x="126" y="-817.5" font-family="Helvetica,sans-Serif" font-size="10.00"> </text>
</a>
</g>
</g>
<!-- Node3&#45;&gt;Node2 -->
<g id="edge3" class="edge"><title>Node3&#45;&gt;Node2</title>
<path fill="none" stroke="midnightblue" d="M126,-800.023C126,-792.073 126,-783.195 126,-773.708"/>
<polygon fill="none" stroke="midnightblue" points="122.5,-800.259 126,-810.259 129.5,-800.259 122.5,-800.259"/>
</g>
<!-- Node4&#45;&gt;Node0 -->
<g id="edge5" class="edge"><title>Node4&#45;&gt;Node0</title>
<path fill="none" stroke="midnightblue" d="M124.913,-217.745C119.619,-208.527 114.187,-199.068 108.804,-189.693"/>
<polygon fill="none" stroke="midnightblue" points="121.924,-219.569 129.939,-226.498 127.995,-216.083 121.924,-219.569"/>
</g>
</g>
</svg>
