<?xml version="1.0" encoding="UTF-8" standalone="no"?>
<!DOCTYPE svg PUBLIC "-//W3C//DTD SVG 1.1//EN"
 "http://www.w3.org/Graphics/SVG/1.1/DTD/svg11.dtd">
<!-- Generated by graphviz version 2.40.1 (20161225.0304)
 -->
<!-- Title: FLineFrame::setText Pages: 1 -->
<svg width="474pt" height="83pt"
 viewBox="0.00 0.00 474.00 83.00" xmlns="http://www.w3.org/2000/svg" xmlns:xlink="http://www.w3.org/1999/xlink">
<g id="graph0" class="graph" transform="scale(1 1) rotate(0) translate(4 79)">
<title>FLineFrame::setText</title>
<polygon fill="#ffffff" stroke="transparent" points="-4,4 -4,-79 470,-79 470,4 -4,4"/>
<!-- Node21 -->
<g id="node1" class="node">
<title>Node21</title>
<polygon fill="#bfbfbf" stroke="#000000" points="0,-28 0,-47 107,-47 107,-28 0,-28"/>
<text text-anchor="middle" x="53.5" y="-35" font-family="Helvetica,sans-Serif" font-size="10.00" fill="#000000">FLineFrame::setText</text>
</g>
<!-- Node22 -->
<g id="node2" class="node">
<title>Node22</title>
<g id="a_node2"><a xlink:href="class_matricule_input.html#a531419ed5d9ad186758b0ed44621a4e0" target="_top" xlink:title="Vérifie qu&#39;à l&#39;ouverture du dialogue, le répertoire par défaut dirpath est bien renseigné. ">
<polygon fill="#ffffff" stroke="#000000" points="143,-44.5 143,-74.5 285,-74.5 285,-44.5 143,-44.5"/>
<text text-anchor="start" x="151" y="-62.5" font-family="Helvetica,sans-Serif" font-size="10.00" fill="#000000">MatriculeInput::checkDefault</text>
<text text-anchor="middle" x="214" y="-51.5" font-family="Helvetica,sans-Serif" font-size="10.00" fill="#000000">Folder</text>
</a>
</g>
</g>
<!-- Node21&#45;&gt;Node22 -->
<g id="edge1" class="edge">
<title>Node21&#45;&gt;Node22</title>
<path fill="none" stroke="#191970" d="M117.4361,-46.2638C125.7929,-47.4093 134.3961,-48.5886 142.8622,-49.749"/>
<polygon fill="#191970" stroke="#191970" points="117.7734,-42.7774 107.3907,-44.8869 116.8227,-49.7126 117.7734,-42.7774"/>
</g>
<!-- Node23 -->
<g id="node3" class="node">
<title>Node23</title>
<g id="a_node3"><a xlink:href="class_matricule_input.html#a1b9d9f0c939a200f2643958749f7ec42" target="_top" xlink:title="Réinitialisation de tous les champs. ">
<polygon fill="#ffffff" stroke="#000000" points="161.5,-6 161.5,-25 266.5,-25 266.5,-6 161.5,-6"/>
<text text-anchor="middle" x="214" y="-13" font-family="Helvetica,sans-Serif" font-size="10.00" fill="#000000">MatriculeInput::clear</text>
</a>
</g>
</g>
<!-- Node21&#45;&gt;Node23 -->
<g id="edge2" class="edge">
<title>Node21&#45;&gt;Node23</title>
<path fill="none" stroke="#191970" d="M117.3457,-28.7486C131.9359,-26.7487 147.2818,-24.6452 161.3413,-22.718"/>
<polygon fill="#191970" stroke="#191970" points="116.8227,-25.2874 107.3907,-30.1131 117.7734,-32.2226 116.8227,-25.2874"/>
</g>
<!-- Node24 -->
<g id="node4" class="node">
<title>Node24</title>
<g id="a_node4"><a xlink:href="class_main_window.html#a7f2aaeb01d8c0cdbe5d608ef8e866bb7" target="_top" xlink:title="Réinitialise le dialogue d&#39;extraction des matricules. ">
<polygon fill="#ffffff" stroke="#000000" points="321,-.5 321,-30.5 466,-30.5 466,-.5 321,-.5"/>
<text text-anchor="start" x="329" y="-18.5" font-family="Helvetica,sans-Serif" font-size="10.00" fill="#000000">MainWindow::resetExtraction</text>
<text text-anchor="middle" x="393.5" y="-7.5" font-family="Helvetica,sans-Serif" font-size="10.00" fill="#000000">Bulletins</text>
</a>
</g>
</g>
<!-- Node23&#45;&gt;Node24 -->
<g id="edge3" class="edge">
<title>Node23&#45;&gt;Node24</title>
<path fill="none" stroke="#191970" d="M276.9796,-15.5C291.1104,-15.5 306.2157,-15.5 320.7088,-15.5"/>
<polygon fill="#191970" stroke="#191970" points="276.8851,-12.0001 266.8851,-15.5 276.885,-19.0001 276.8851,-12.0001"/>
</g>
</g>
</svg>
