<?xml version="1.0" encoding="UTF-8" standalone="no"?>
<!DOCTYPE svg PUBLIC "-//W3C//DTD SVG 1.1//EN"
 "http://www.w3.org/Graphics/SVG/1.1/DTD/svg11.dtd">
<!-- Generated by graphviz version 2.38.0 (20140413.2041)
 -->
<!-- Title: FAbstractWidget::FCore Pages: 1 -->
<svg width="299pt" height="104pt"
 viewBox="0.00 0.00 299.00 104.00" xmlns="http://www.w3.org/2000/svg" xmlns:xlink="http://www.w3.org/1999/xlink">
<g id="graph0" class="graph" transform="scale(1 1) rotate(0) translate(4 100)">
<title>FAbstractWidget::FCore</title>
<polygon fill="white" stroke="none" points="-4,4 -4,-100 295,-100 295,4 -4,4"/>
<!-- Node41 -->
<g id="node1" class="node"><title>Node41</title>
<polygon fill="#bfbfbf" stroke="black" points="0,-38.5 0,-57.5 123,-57.5 123,-38.5 0,-38.5"/>
<text text-anchor="middle" x="61.5" y="-45.5" font-family="Helvetica,sans-Serif" font-size="10.00">FAbstractWidget::FCore</text>
</g>
<!-- Node42 -->
<g id="node2" class="node"><title>Node42</title>
<g id="a_node2"><a xlink:href="class_f_check_box.html#a75f58a0ba118b02b2b280109791b327a" target="_top" xlink:title="FCheckBox::FCheckBox">
<polygon fill="white" stroke="black" points="162,-76.5 162,-95.5 288,-95.5 288,-76.5 162,-76.5"/>
<text text-anchor="middle" x="225" y="-83.5" font-family="Helvetica,sans-Serif" font-size="10.00">FCheckBox::FCheckBox</text>
</a>
</g>
</g>
<!-- Node41&#45;&gt;Node42 -->
<g id="edge1" class="edge"><title>Node41&#45;&gt;Node42</title>
<path fill="none" stroke="midnightblue" d="M113.058,-59.8961C135.759,-65.2374 162.178,-71.4537 183.54,-76.4799"/>
<polygon fill="midnightblue" stroke="midnightblue" points="113.789,-56.4725 103.253,-57.589 112.186,-63.2864 113.789,-56.4725"/>
</g>
<!-- Node43 -->
<g id="node3" class="node"><title>Node43</title>
<g id="a_node3"><a xlink:href="class_f_combo_box.html#ab99bab602192b80eb3049c49c19db23f" target="_top" xlink:title="FComboBox::FComboBox">
<polygon fill="white" stroke="black" points="159,-38.5 159,-57.5 291,-57.5 291,-38.5 159,-38.5"/>
<text text-anchor="middle" x="225" y="-45.5" font-family="Helvetica,sans-Serif" font-size="10.00">FComboBox::FComboBox</text>
</a>
</g>
</g>
<!-- Node41&#45;&gt;Node43 -->
<g id="edge2" class="edge"><title>Node41&#45;&gt;Node43</title>
<path fill="none" stroke="midnightblue" d="M133.31,-48C141.765,-48 150.368,-48 158.739,-48"/>
<polygon fill="midnightblue" stroke="midnightblue" points="133.096,-44.5001 123.096,-48 133.096,-51.5001 133.096,-44.5001"/>
</g>
<!-- Node44 -->
<g id="node4" class="node"><title>Node44</title>
<g id="a_node4"><a xlink:href="class_f_line_edit.html#aa876ef992a8931059bd9a0800431a4f9" target="_top" xlink:title="FLineEdit::FLineEdit">
<polygon fill="white" stroke="black" points="172.5,-0.5 172.5,-19.5 277.5,-19.5 277.5,-0.5 172.5,-0.5"/>
<text text-anchor="middle" x="225" y="-7.5" font-family="Helvetica,sans-Serif" font-size="10.00">FLineEdit::FLineEdit</text>
</a>
</g>
</g>
<!-- Node41&#45;&gt;Node44 -->
<g id="edge3" class="edge"><title>Node41&#45;&gt;Node44</title>
<path fill="none" stroke="midnightblue" d="M113.058,-36.1039C135.759,-30.7626 162.178,-24.5463 183.54,-19.5201"/>
<polygon fill="midnightblue" stroke="midnightblue" points="112.186,-32.7136 103.253,-38.411 113.789,-39.5275 112.186,-32.7136"/>
</g>
</g>
</svg>
