<?xml version="1.0" encoding="UTF-8" standalone="no"?>
<!DOCTYPE svg PUBLIC "-//W3C//DTD SVG 1.1//EN"
 "http://www.w3.org/Graphics/SVG/1.1/DTD/svg11.dtd">
<!-- Generated by graphviz version 2.38.0 (20140413.2041)
 -->
<!-- Title: tools::copyDir Pages: 1 -->
<!--zoomable 391 -->
<svg id="main" version="1.1" xmlns="http://www.w3.org/2000/svg" xmlns:xlink="http://www.w3.org/1999/xlink" xml:space="preserve" onload="init(evt)">
<style type="text/css"><![CDATA[
.edge:hover path { stroke: red; }
.edge:hover polygon { stroke: red; fill: red; }
]]></style>
<script type="text/javascript"><![CDATA[
var edges = document.getElementsByTagName('g');
if (edges && edges.length) {
  for (var i=0;i<edges.length;i++) {
    if (edges[i].id.substr(0,4)=='edge') {
      edges[i].setAttribute('class','edge');
    }
  }
}
]]></script>
        <defs>
                <circle id="rim" cx="0" cy="0" r="7"/>
                <circle id="rim2" cx="0" cy="0" r="3.5"/>
                <g id="zoomPlus">
                        <use xlink:href="#rim" fill="#404040">
                                <set attributeName="fill" to="#808080" begin="zoomplus.mouseover" end="zoomplus.mouseout"/>
                        </use>
                        <path d="M-4,0h8M0,-4v8" fill="none" stroke="white" stroke-width="1.5" pointer-events="none"/>
                </g>
                <g id="zoomMin">
                        <use xlink:href="#rim" fill="#404040">
                                <set attributeName="fill" to="#808080" begin="zoomminus.mouseover" end="zoomminus.mouseout"/>
                        </use>
                        <path d="M-4,0h8" fill="none" stroke="white" stroke-width="1.5" pointer-events="none"/>
                </g>
                <g id="dirArrow">
                        <path fill="none" stroke="white" stroke-width="1.5" d="M0,-3.0v7 M-2.5,-0.5L0,-3.0L2.5,-0.5"/>
                </g>
               <g id="resetDef">
                       <use xlink:href="#rim2" fill="#404040">
                               <set attributeName="fill" to="#808080" begin="reset.mouseover" end="reset.mouseout"/>
                       </use>
               </g>
        </defs>

<script type="text/javascript">
var viewWidth = 673;
var viewHeight = 391;
var sectionId = 'dynsection-4';
</script>
<script xlink:href="svgpan.js"/>
<svg id="graph" class="graph">
<g id="viewport">
<title>tools::copyDir</title>
<polygon fill="white" stroke="none" points="-4,4 -4,-386.742 669,-386.742 669,4 -4,4"/>
<!-- Node53 -->
<g id="node1" class="node"><title>Node53</title>
<polygon fill="#bfbfbf" stroke="black" points="0,-239.242 0,-258.242 77,-258.242 77,-239.242 0,-239.242"/>
<text text-anchor="middle" x="38.5" y="-246.242" font-family="Helvetica,sans-Serif" font-size="10.00">tools::copyDir</text>
</g>
<!-- Node54 -->
<g id="node2" class="node"><title>Node54</title>
<g id="a_node2"><a xlink:href="class_main_window.html#a0931b2b0fde3d9c2b983d7eded8724a0" target="_top" xlink:title="Enregistrer l&#39;ensemble des données d&#39;output (bases CSV, rapports...) dans un répertoire. ">
<polygon fill="white" stroke="black" points="351,-363.242 351,-382.242 488,-382.242 488,-363.242 351,-363.242"/>
<text text-anchor="middle" x="419.5" y="-370.242" font-family="Helvetica,sans-Serif" font-size="10.00">MainWindow::exportProject</text>
</a>
</g>
</g>
<!-- Node53&#45;&gt;Node54 -->
<g id="edge1" class="edge"><title>Node53&#45;&gt;Node54</title>
<path fill="none" stroke="midnightblue" d="M64.651,-263.36C78.5786,-271.039 96.3887,-280.188 113,-286.742 203.209,-322.332 313.777,-349.634 374.073,-363.222"/>
<polygon fill="midnightblue" stroke="midnightblue" points="66.1245,-260.174 55.6915,-258.329 62.6971,-266.277 66.1245,-260.174"/>
</g>
<!-- Node55 -->
<g id="node3" class="node"><title>Node55</title>
<g id="a_node3"><a xlink:href="classtools.html#ae1018e45c513785270b999cbcfa8beb6" target="_top" xlink:title="tools::IOControl">
<polygon fill="white" stroke="black" points="113,-211.242 113,-230.242 199,-230.242 199,-211.242 113,-211.242"/>
<text text-anchor="middle" x="156" y="-218.242" font-family="Helvetica,sans-Serif" font-size="10.00">tools::IOControl</text>
</a>
</g>
</g>
<!-- Node53&#45;&gt;Node55 -->
<g id="edge2" class="edge"><title>Node53&#45;&gt;Node55</title>
<path fill="none" stroke="midnightblue" d="M87.3096,-237.152C96.6922,-234.877 106.436,-232.515 115.509,-230.316"/>
<polygon fill="midnightblue" stroke="midnightblue" points="86.2129,-233.816 77.319,-239.574 87.8621,-240.619 86.2129,-233.816"/>
</g>
<!-- Node57 -->
<g id="node5" class="node"><title>Node57</title>
<g id="a_node5"><a xlink:href="classtools.html#ac5f7b9c2e07af5dbb27169b256ac6300" target="_top" xlink:title="List un fichier entre deux lignes données et sur une largeur donnée. ">
<polygon fill="white" stroke="black" points="555.5,-135.242 555.5,-154.242 633.5,-154.242 633.5,-135.242 555.5,-135.242"/>
<text text-anchor="middle" x="594.5" y="-142.242" font-family="Helvetica,sans-Serif" font-size="10.00">tools::readFile</text>
</a>
</g>
</g>
<!-- Node53&#45;&gt;Node57 -->
<g id="edge21" class="edge"><title>Node53&#45;&gt;Node57</title>
<path fill="none" stroke="midnightblue" d="M59.8719,-233.121C74.0847,-222.892 93.8632,-209.946 113,-201.742 266.645,-135.87 471.769,-137.965 555.496,-142.164"/>
<polygon fill="midnightblue" stroke="midnightblue" points="57.7704,-230.322 51.7971,-239.073 61.9235,-235.957 57.7704,-230.322"/>
</g>
<!-- Node56 -->
<g id="node4" class="node"><title>Node56</title>
<g id="a_node4"><a xlink:href="classtools.html#a0765c68c41d7c957f1fb0f0da8b4a9c9" target="_top" xlink:title="tools::copyFile">
<polygon fill="white" stroke="black" points="235,-287.242 235,-306.242 315,-306.242 315,-287.242 235,-287.242"/>
<text text-anchor="middle" x="275" y="-294.242" font-family="Helvetica,sans-Serif" font-size="10.00">tools::copyFile</text>
</a>
</g>
</g>
<!-- Node55&#45;&gt;Node56 -->
<g id="edge3" class="edge"><title>Node55&#45;&gt;Node56</title>
<path fill="none" stroke="midnightblue" d="M180.491,-236.001C204.019,-251.284 239.497,-274.33 259.302,-287.195"/>
<polygon fill="midnightblue" stroke="midnightblue" points="182.111,-232.88 171.818,-230.367 178.298,-238.75 182.111,-232.88"/>
</g>
<!-- Node55&#45;&gt;Node57 -->
<g id="edge20" class="edge"><title>Node55&#45;&gt;Node57</title>
<path fill="none" stroke="midnightblue" d="M195.035,-207.947C233.807,-195.43 295.912,-176.822 351,-166.742 422.523,-153.655 507.405,-148.222 555.409,-146.066"/>
<polygon fill="midnightblue" stroke="midnightblue" points="193.644,-204.719 185.221,-211.146 195.814,-211.374 193.644,-204.719"/>
</g>
<!-- Node59 -->
<g id="node7" class="node"><title>Node59</title>
<g id="a_node7"><a xlink:href="classtools.html#aae1cdbea84aed049937a52ceb9421794" target="_top" xlink:title="tools::zip">
<polygon fill="white" stroke="black" points="247,-40.2419 247,-59.2419 303,-59.2419 303,-40.2419 247,-40.2419"/>
<text text-anchor="middle" x="275" y="-47.2419" font-family="Helvetica,sans-Serif" font-size="10.00">tools::zip</text>
</a>
</g>
</g>
<!-- Node55&#45;&gt;Node59 -->
<g id="edge8" class="edge"><title>Node55&#45;&gt;Node59</title>
<path fill="none" stroke="midnightblue" d="M169.498,-202.476C194.227,-166.333 248.634,-86.8148 267.447,-59.3194"/>
<polygon fill="midnightblue" stroke="midnightblue" points="166.384,-200.829 163.626,-211.058 172.161,-204.782 166.384,-200.829"/>
</g>
<!-- Node62 -->
<g id="node10" class="node"><title>Node62</title>
<g id="a_node10"><a xlink:href="classtools.html#a22819e1b381949304b8fde11a91a7de3" target="_top" xlink:title="tools::unzip">
<polygon fill="white" stroke="black" points="241.5,-211.242 241.5,-230.242 308.5,-230.242 308.5,-211.242 241.5,-211.242"/>
<text text-anchor="middle" x="275" y="-218.242" font-family="Helvetica,sans-Serif" font-size="10.00">tools::unzip</text>
</a>
</g>
</g>
<!-- Node55&#45;&gt;Node62 -->
<g id="edge14" class="edge"><title>Node55&#45;&gt;Node62</title>
<path fill="none" stroke="midnightblue" d="M209.506,-220.742C220.354,-220.742 231.48,-220.742 241.37,-220.742"/>
<polygon fill="midnightblue" stroke="midnightblue" points="209.24,-217.242 199.24,-220.742 209.24,-224.242 209.24,-217.242"/>
</g>
<!-- Node56&#45;&gt;Node53 -->
<g id="edge4" class="edge"><title>Node56&#45;&gt;Node53</title>
<path fill="none" stroke="midnightblue" d="M224.948,-286.701C180.943,-277.694 117.294,-264.666 77.1765,-256.454"/>
<polygon fill="midnightblue" stroke="midnightblue" points="224.354,-290.152 234.853,-288.729 225.758,-283.295 224.354,-290.152"/>
</g>
<!-- Node56&#45;&gt;Node54 -->
<g id="edge6" class="edge"><title>Node56&#45;&gt;Node54</title>
<path fill="none" stroke="midnightblue" d="M295.841,-312.674C310.453,-323.853 331.153,-338.562 351,-348.742 362.067,-354.418 374.787,-359.322 386.181,-363.191"/>
<polygon fill="midnightblue" stroke="midnightblue" points="297.63,-309.631 287.591,-306.242 293.326,-315.151 297.63,-309.631"/>
</g>
<!-- Node56&#45;&gt;Node57 -->
<g id="edge5" class="edge"><title>Node56&#45;&gt;Node57</title>
<path fill="none" stroke="midnightblue" d="M325.182,-290.223C369.786,-282.795 436.275,-267.856 488,-239.742 530.228,-216.79 569.337,-173.683 585.577,-154.444"/>
<polygon fill="midnightblue" stroke="midnightblue" points="324.495,-286.788 315.174,-291.825 325.602,-293.7 324.495,-286.788"/>
</g>
<!-- Node58 -->
<g id="node6" class="node"><title>Node58</title>
<g id="a_node6"><a xlink:href="class_main_window.html#ae11018a1c92bd7f20ff54a3f78eacb51" target="_top" xlink:title="Désarchiver le projet. ">
<polygon fill="white" stroke="black" points="524.5,-249.242 524.5,-268.242 664.5,-268.242 664.5,-249.242 524.5,-249.242"/>
<text text-anchor="middle" x="594.5" y="-256.242" font-family="Helvetica,sans-Serif" font-size="10.00">MainWindow::restoreProject</text>
</a>
</g>
</g>
<!-- Node56&#45;&gt;Node58 -->
<g id="edge7" class="edge"><title>Node56&#45;&gt;Node58</title>
<path fill="none" stroke="midnightblue" d="M325.253,-308.051C368.65,-316.118 433.292,-323.492 488,-310.742 523.001,-302.585 559.741,-281.065 579.285,-268.413"/>
<polygon fill="midnightblue" stroke="midnightblue" points="325.725,-304.577 315.241,-306.107 324.391,-311.449 325.725,-304.577"/>
</g>
<!-- Node59&#45;&gt;Node57 -->
<g id="edge12" class="edge"><title>Node59&#45;&gt;Node57</title>
<path fill="none" stroke="midnightblue" d="M313.013,-54.2995C355.931,-60.2545 428.408,-72.3946 488,-92.7419 521.045,-104.025 557.016,-123.436 577.26,-135.082"/>
<polygon fill="midnightblue" stroke="midnightblue" points="313.402,-50.8203 303.024,-52.9515 312.466,-57.7574 313.402,-50.8203"/>
</g>
<!-- Node60 -->
<g id="node8" class="node"><title>Node60</title>
<g id="a_node8"><a xlink:href="classtools.html#aefd7e17f4eeb34a4ab3d254eb3bb0a03" target="_top" xlink:title="tools::zipDir">
<polygon fill="white" stroke="black" points="385,-21.2419 385,-40.2419 454,-40.2419 454,-21.2419 385,-21.2419"/>
<text text-anchor="middle" x="419.5" y="-28.2419" font-family="Helvetica,sans-Serif" font-size="10.00">tools::zipDir</text>
</a>
</g>
</g>
<!-- Node59&#45;&gt;Node60 -->
<g id="edge9" class="edge"><title>Node59&#45;&gt;Node60</title>
<path fill="none" stroke="midnightblue" d="M313.209,-44.7808C335.419,-41.8193 363.399,-38.0887 384.932,-35.2176"/>
<polygon fill="midnightblue" stroke="midnightblue" points="312.588,-41.3324 303.139,-46.1234 313.513,-48.271 312.588,-41.3324"/>
</g>
<!-- Node61 -->
<g id="node9" class="node"><title>Node61</title>
<g id="a_node9"><a xlink:href="class_main_window.html#a34512b73d3342c5a5b59a8f420d4d4c4" target="_top" xlink:title="Archiver le projet courant. ">
<polygon fill="white" stroke="black" points="524,-2.24191 524,-21.2419 665,-21.2419 665,-2.24191 524,-2.24191"/>
<text text-anchor="middle" x="594.5" y="-9.24191" font-family="Helvetica,sans-Serif" font-size="10.00">MainWindow::archiveProject</text>
</a>
</g>
</g>
<!-- Node59&#45;&gt;Node61 -->
<g id="edge13" class="edge"><title>Node59&#45;&gt;Node61</title>
<path fill="none" stroke="midnightblue" d="M298.529,-34.7969C312.884,-26.1923 332.25,-16.221 351,-11.7419 408.021,1.8791 474.759,0.68194 523.773,-3.24298"/>
<polygon fill="midnightblue" stroke="midnightblue" points="296.517,-31.927 289.876,-40.1826 300.215,-37.8699 296.517,-31.927"/>
</g>
<!-- Node60&#45;&gt;Node57 -->
<g id="edge10" class="edge"><title>Node60&#45;&gt;Node57</title>
<path fill="none" stroke="midnightblue" d="M463.782,-43.4802C472.067,-46.6483 480.492,-50.4037 488,-54.7419 528.023,-77.8681 567.355,-116.93 584.52,-135.016"/>
<polygon fill="midnightblue" stroke="midnightblue" points="464.777,-40.1187 454.182,-40.031 462.41,-46.7064 464.777,-40.1187"/>
</g>
<!-- Node60&#45;&gt;Node61 -->
<g id="edge11" class="edge"><title>Node60&#45;&gt;Node61</title>
<path fill="none" stroke="midnightblue" d="M464.44,-25.9161C482.418,-23.9416 503.663,-21.6084 523.671,-19.411"/>
<polygon fill="midnightblue" stroke="midnightblue" points="463.825,-22.4625 454.267,-27.0334 464.589,-29.4207 463.825,-22.4625"/>
</g>
<!-- Node62&#45;&gt;Node57 -->
<g id="edge18" class="edge"><title>Node62&#45;&gt;Node57</title>
<path fill="none" stroke="midnightblue" d="M318.673,-209.796C329.23,-207.125 340.518,-204.301 351,-201.742 423.054,-184.148 507.4,-164.546 555.231,-153.522"/>
<polygon fill="midnightblue" stroke="midnightblue" points="317.658,-206.442 308.827,-212.295 319.38,-213.227 317.658,-206.442"/>
</g>
<!-- Node62&#45;&gt;Node58 -->
<g id="edge19" class="edge"><title>Node62&#45;&gt;Node58</title>
<path fill="none" stroke="midnightblue" d="M318.441,-232.828C329.004,-235.466 340.353,-237.989 351,-239.742 409.024,-249.294 475.674,-254.076 524.398,-256.451"/>
<polygon fill="midnightblue" stroke="midnightblue" points="319.16,-229.399 308.603,-230.285 317.409,-236.176 319.16,-229.399"/>
</g>
<!-- Node63 -->
<g id="node11" class="node"><title>Node63</title>
<g id="a_node11"><a xlink:href="classtools.html#ae821185bfd6650842559ef2f9d92f1ac" target="_top" xlink:title="tools::unzipDir">
<polygon fill="white" stroke="black" points="379.5,-211.242 379.5,-230.242 459.5,-230.242 459.5,-211.242 379.5,-211.242"/>
<text text-anchor="middle" x="419.5" y="-218.242" font-family="Helvetica,sans-Serif" font-size="10.00">tools::unzipDir</text>
</a>
</g>
</g>
<!-- Node62&#45;&gt;Node63 -->
<g id="edge15" class="edge"><title>Node62&#45;&gt;Node63</title>
<path fill="none" stroke="midnightblue" d="M318.712,-220.742C337.97,-220.742 360.561,-220.742 379.373,-220.742"/>
<polygon fill="midnightblue" stroke="midnightblue" points="318.692,-217.242 308.692,-220.742 318.692,-224.242 318.692,-217.242"/>
</g>
<!-- Node63&#45;&gt;Node57 -->
<g id="edge16" class="edge"><title>Node63&#45;&gt;Node57</title>
<path fill="none" stroke="midnightblue" d="M459.293,-207.82C468.767,-204.425 478.817,-200.622 488,-196.742 519.412,-183.469 554.737,-165.384 575.502,-154.414"/>
<polygon fill="midnightblue" stroke="midnightblue" points="457.963,-204.577 449.689,-211.194 460.284,-211.181 457.963,-204.577"/>
</g>
<!-- Node63&#45;&gt;Node58 -->
<g id="edge17" class="edge"><title>Node63&#45;&gt;Node58</title>
<path fill="none" stroke="midnightblue" d="M469.555,-231.517C494.936,-237.092 525.647,-243.838 550.148,-249.22"/>
<polygon fill="midnightblue" stroke="midnightblue" points="470.274,-228.092 459.756,-229.365 468.773,-234.929 470.274,-228.092"/>
</g>
</g>
</svg>
        <g id="navigator" transform="translate(0 0)" fill="#404254">
                <rect fill="#f2f5e9" fill-opacity="0.5" stroke="#606060" stroke-width=".5" x="0" y="0" width="60" height="60"/>
                <use id="zoomplus" xlink:href="#zoomPlus" x="17" y="9" onmousedown="handleZoom(evt,'in')"/>
                <use id="zoomminus" xlink:href="#zoomMin" x="42" y="9" onmousedown="handleZoom(evt,'out')"/>
                <use id="reset" xlink:href="#resetDef" x="30" y="36" onmousedown="handleReset()"/>
                <g id="arrowUp" xlink:href="#dirArrow" transform="translate(30 24)" onmousedown="handlePan(0,-1)">
                  <use xlink:href="#rim" fill="#404040">
                        <set attributeName="fill" to="#808080" begin="arrowUp.mouseover" end="arrowUp.mouseout"/>
                  </use>
                  <path fill="none" stroke="white" stroke-width="1.5" d="M0,-3.0v7 M-2.5,-0.5L0,-3.0L2.5,-0.5"/>
                </g>
                <g id="arrowRight" xlink:href="#dirArrow" transform="rotate(90) translate(36 -43)" onmousedown="handlePan(1,0)">
                  <use xlink:href="#rim" fill="#404040">
                        <set attributeName="fill" to="#808080" begin="arrowRight.mouseover" end="arrowRight.mouseout"/>
                  </use>
                  <path fill="none" stroke="white" stroke-width="1.5" d="M0,-3.0v7 M-2.5,-0.5L0,-3.0L2.5,-0.5"/>
                </g>
                <g id="arrowDown" xlink:href="#dirArrow" transform="rotate(180) translate(-30 -48)" onmousedown="handlePan(0,1)">
                  <use xlink:href="#rim" fill="#404040">
                        <set attributeName="fill" to="#808080" begin="arrowDown.mouseover" end="arrowDown.mouseout"/>
                  </use>
                  <path fill="none" stroke="white" stroke-width="1.5" d="M0,-3.0v7 M-2.5,-0.5L0,-3.0L2.5,-0.5"/>
                </g>
                <g id="arrowLeft" xlink:href="#dirArrow" transform="rotate(270) translate(-36 17)" onmousedown="handlePan(-1,0)">
                  <use xlink:href="#rim" fill="#404040">
                        <set attributeName="fill" to="#808080" begin="arrowLeft.mouseover" end="arrowLeft.mouseout"/>
                  </use>
                  <path fill="none" stroke="white" stroke-width="1.5" d="M0,-3.0v7 M-2.5,-0.5L0,-3.0L2.5,-0.5"/>
                </g>
        </g>
        <svg viewBox="0 0 15 15" width="100%" height="30px" preserveAspectRatio="xMaxYMin meet">
         <g id="arrow_out" transform="scale(0.3 0.3)">
          <a xlink:href="classtools_a37c9c486d90129b0d6a4ac93f29fd5bb_icgraph_org.svg" target="_base">
           <rect id="button" ry="5" rx="5" y="6" x="6" height="38" width="38"
                fill="#f2f5e9" fill-opacity="0.5" stroke="#606060" stroke-width="1.0"/>
           <path id="arrow"
             d="M 11.500037,31.436501 C 11.940474,20.09759 22.043105,11.32322 32.158766,21.979434 L 37.068811,17.246167 C 37.068811,17.246167 37.088388,32 37.088388,32 L 22.160133,31.978069 C 22.160133,31.978069 26.997745,27.140456 26.997745,27.140456 C 18.528582,18.264221 13.291696,25.230495 11.500037,31.436501 z"
             style="fill:#404040;"/>
          </a>
         </g>
        </svg>
</svg>
