<?xml version="1.0" encoding="UTF-8" standalone="no"?>
<!DOCTYPE svg PUBLIC "-//W3C//DTD SVG 1.1//EN"
 "http://www.w3.org/Graphics/SVG/1.1/DTD/svg11.dtd">
<!-- Generated by graphviz version 2.38.0 (20140413.2041)
 -->
<!-- Title: Altair::parseEntry Pages: 1 -->
<svg width="406pt" height="28pt"
 viewBox="0.00 0.00 406.00 28.00" xmlns="http://www.w3.org/2000/svg" xmlns:xlink="http://www.w3.org/1999/xlink">
<g id="graph0" class="graph" transform="scale(1 1) rotate(0) translate(4 24)">
<title>Altair::parseEntry</title>
<polygon fill="white" stroke="none" points="-4,4 -4,-24 402,-24 402,4 -4,4"/>
<!-- Node1922 -->
<g id="node1" class="node"><title>Node1922</title>
<polygon fill="#bfbfbf" stroke="black" points="0,-0.5 0,-19.5 92,-19.5 92,-0.5 0,-0.5"/>
<text text-anchor="middle" x="46" y="-7.5" font-family="Helvetica,sans-Serif" font-size="10.00">Altair::parseEntry</text>
</g>
<!-- Node1923 -->
<g id="node2" class="node"><title>Node1923</title>
<g id="a_node2"><a xlink:href="namespace_xml_method.html#abe26f53c2028527b0ebea361faa85221" target="_top" xlink:title="Empile les données pour un noeud donné, pour une profondeur d&#39;enchâssement donnée. ">
<polygon fill="white" stroke="black" points="128,-0.5 128,-19.5 245,-19.5 245,-0.5 128,-0.5"/>
<text text-anchor="middle" x="186.5" y="-7.5" font-family="Helvetica,sans-Serif" font-size="10.00">XmlMethod::stackData</text>
</a>
</g>
</g>
<!-- Node1922&#45;&gt;Node1923 -->
<g id="edge1" class="edge"><title>Node1922&#45;&gt;Node1923</title>
<path fill="none" stroke="midnightblue" d="M92.3501,-10C100.515,-10 109.186,-10 117.824,-10"/>
<polygon fill="midnightblue" stroke="midnightblue" points="117.917,-13.5001 127.917,-10 117.917,-6.5001 117.917,-13.5001"/>
</g>
<!-- Node1924 -->
<g id="node3" class="node"><title>Node1924</title>
<g id="a_node3"><a xlink:href="namespace_xml_method.html#a40cfba405dd7bb3e66fef711fe47be4a" target="_top" xlink:title="XmlMethod::stackData">
<polygon fill="white" stroke="black" points="281,-0.5 281,-19.5 398,-19.5 398,-0.5 281,-0.5"/>
<text text-anchor="middle" x="339.5" y="-7.5" font-family="Helvetica,sans-Serif" font-size="10.00">XmlMethod::stackData</text>
</a>
</g>
</g>
<!-- Node1923&#45;&gt;Node1924 -->
<g id="edge2" class="edge"><title>Node1923&#45;&gt;Node1924</title>
<path fill="none" stroke="midnightblue" d="M245.017,-10C253.464,-10 262.229,-10 270.856,-10"/>
<polygon fill="midnightblue" stroke="midnightblue" points="270.893,-13.5001 280.893,-10 270.892,-6.5001 270.893,-13.5001"/>
</g>
</g>
</svg>
