<?xml version="1.0" encoding="UTF-8" standalone="no"?>
<!DOCTYPE svg PUBLIC "-//W3C//DTD SVG 1.1//EN"
 "http://www.w3.org/Graphics/SVG/1.1/DTD/svg11.dtd">
<!-- Generated by graphviz version 2.38.0 (20140413.2041)
 -->
<!-- Title: FLineFrame Pages: 1 -->
<svg width="325pt" height="801pt"
 viewBox="0.00 0.00 325.00 801.00" xmlns="http://www.w3.org/2000/svg" xmlns:xlink="http://www.w3.org/1999/xlink">
<g id="graph0" class="graph" transform="scale(1 1) rotate(0) translate(4 797)">
<title>FLineFrame</title>
<polygon fill="white" stroke="none" points="-4,4 -4,-797 321,-797 321,4 -4,4"/>
<!-- Node5 -->
<g id="node1" class="node"><title>Node5</title>
<polygon fill="#bfbfbf" stroke="black" points="115,-0.5 115,-145.5 226,-145.5 226,-0.5 115,-0.5"/>
<text text-anchor="middle" x="170.5" y="-133.5" font-family="Helvetica,sans-Serif" font-size="10.00">FLineFrame</text>
<polyline fill="none" stroke="black" points="115,-126.5 226,-126.5 "/>
<text text-anchor="start" x="123" y="-114.5" font-family="Helvetica,sans-Serif" font-size="10.00">&#45; componentList</text>
<text text-anchor="start" x="123" y="-103.5" font-family="Helvetica,sans-Serif" font-size="10.00">&#45; frameLayout</text>
<text text-anchor="start" x="123" y="-92.5" font-family="Helvetica,sans-Serif" font-size="10.00">&#45; label</text>
<text text-anchor="start" x="123" y="-81.5" font-family="Helvetica,sans-Serif" font-size="10.00">&#45; pathCategory</text>
<polyline fill="none" stroke="black" points="115,-74.5 226,-74.5 "/>
<text text-anchor="start" x="123" y="-62.5" font-family="Helvetica,sans-Serif" font-size="10.00">+ FLineFrame()</text>
<text text-anchor="start" x="123" y="-51.5" font-family="Helvetica,sans-Serif" font-size="10.00">+ getComponentList()</text>
<text text-anchor="start" x="123" y="-40.5" font-family="Helvetica,sans-Serif" font-size="10.00">+ getLayout()</text>
<text text-anchor="start" x="123" y="-29.5" font-family="Helvetica,sans-Serif" font-size="10.00">+ getText()</text>
<text text-anchor="start" x="123" y="-18.5" font-family="Helvetica,sans-Serif" font-size="10.00">+ setPathCategory()</text>
<text text-anchor="start" x="123" y="-7.5" font-family="Helvetica,sans-Serif" font-size="10.00">+ setText()</text>
</g>
<!-- Node6 -->
<g id="node2" class="node"><title>Node6</title>
<g id="a_node2"><a xlink:href="class_f_line_edit.html" target="_top" xlink:title="{FLineEdit\n||+ FLineEdit()\l+ FLineEdit()\l+ FLineEdit()\l+ FLineEdit()\l+ FLineEdit()\l+ FLineEdit()\l+ isAbstractEnabled()\l+ refreshWidgetDisplay()\l+ setWidgetFromXml()\l+ setXmlFromWidget()\l}">
<polygon fill="white" stroke="black" points="75,-204.5 75,-360.5 200,-360.5 200,-204.5 75,-204.5"/>
<text text-anchor="middle" x="137.5" y="-348.5" font-family="Helvetica,sans-Serif" font-size="10.00">FLineEdit</text>
<polyline fill="none" stroke="black" points="75,-341.5 200,-341.5 "/>
<text text-anchor="middle" x="137.5" y="-329.5" font-family="Helvetica,sans-Serif" font-size="10.00"> </text>
<polyline fill="none" stroke="black" points="75,-322.5 200,-322.5 "/>
<text text-anchor="start" x="83" y="-310.5" font-family="Helvetica,sans-Serif" font-size="10.00">+ FLineEdit()</text>
<text text-anchor="start" x="83" y="-299.5" font-family="Helvetica,sans-Serif" font-size="10.00">+ FLineEdit()</text>
<text text-anchor="start" x="83" y="-288.5" font-family="Helvetica,sans-Serif" font-size="10.00">+ FLineEdit()</text>
<text text-anchor="start" x="83" y="-277.5" font-family="Helvetica,sans-Serif" font-size="10.00">+ FLineEdit()</text>
<text text-anchor="start" x="83" y="-266.5" font-family="Helvetica,sans-Serif" font-size="10.00">+ FLineEdit()</text>
<text text-anchor="start" x="83" y="-255.5" font-family="Helvetica,sans-Serif" font-size="10.00">+ FLineEdit()</text>
<text text-anchor="start" x="83" y="-244.5" font-family="Helvetica,sans-Serif" font-size="10.00">+ isAbstractEnabled()</text>
<text text-anchor="start" x="83" y="-233.5" font-family="Helvetica,sans-Serif" font-size="10.00">+ refreshWidgetDisplay()</text>
<text text-anchor="start" x="83" y="-222.5" font-family="Helvetica,sans-Serif" font-size="10.00">+ setWidgetFromXml()</text>
<text text-anchor="start" x="83" y="-211.5" font-family="Helvetica,sans-Serif" font-size="10.00">+ setXmlFromWidget()</text>
</a>
</g>
</g>
<!-- Node6&#45;&gt;Node5 -->
<g id="edge1" class="edge"><title>Node6&#45;&gt;Node5</title>
<path fill="none" stroke="midnightblue" d="M147.033,-194.113C148.402,-183.942 149.897,-173.73 151.5,-164 152.487,-158.012 153.599,-151.819 154.778,-145.614"/>
<polygon fill="none" stroke="midnightblue" points="143.533,-193.881 145.705,-204.251 150.474,-194.79 143.533,-193.881"/>
</g>
<!-- Node6&#45;&gt;Node5 -->
<g id="edge7" class="edge"><title>Node6&#45;&gt;Node5</title>
<path fill="none" stroke="#404040" d="M149.788,-204.235C152.188,-189.142 154.716,-173.248 157.149,-157.95"/>
<polygon fill="none" stroke="#404040" points="157.191,-157.688 154.183,-151.134 159.075,-145.837 162.083,-152.39 157.191,-157.688"/>
<text text-anchor="middle" x="176" y="-172.5" font-family="Helvetica,sans-Serif" font-size="10.00"> &#45;lineEdit</text>
</g>
<!-- Node7 -->
<g id="node3" class="node"><title>Node7</title>
<polygon fill="white" stroke="#bfbfbf" points="0,-519.5 0,-576.5 59,-576.5 59,-519.5 0,-519.5"/>
<text text-anchor="middle" x="29.5" y="-564.5" font-family="Helvetica,sans-Serif" font-size="10.00">QLineEdit</text>
<polyline fill="none" stroke="#bfbfbf" points="0,-557.5 59,-557.5 "/>
<text text-anchor="middle" x="29.5" y="-545.5" font-family="Helvetica,sans-Serif" font-size="10.00"> </text>
<polyline fill="none" stroke="#bfbfbf" points="0,-538.5 59,-538.5 "/>
<text text-anchor="middle" x="29.5" y="-526.5" font-family="Helvetica,sans-Serif" font-size="10.00"> </text>
</g>
<!-- Node7&#45;&gt;Node6 -->
<g id="edge2" class="edge"><title>Node7&#45;&gt;Node6</title>
<path fill="none" stroke="midnightblue" d="M36.2239,-509.439C42.4527,-478.71 53.094,-434.523 68.5,-398 73.7318,-385.597 80.1347,-372.937 86.9096,-360.773"/>
<polygon fill="none" stroke="midnightblue" points="32.7776,-508.825 34.2802,-519.313 39.6458,-510.177 32.7776,-508.825"/>
</g>
<!-- Node8 -->
<g id="node4" class="node"><title>Node8</title>
<g id="a_node4"><a xlink:href="class_f_abstract_widget.html" target="_top" xlink:title="{FAbstractWidget\n|+ commandLineList\l+ commandLineType\l+ disabledObjects\l+ enabledObjects\l+ optionLabel\l+ status\l# componentList\l# description\l# hashKey\l# widgetDepth\l|+ commandLineStringList()\l+ getComponentList()\l+ getDepth()\l+ getDescription()\l+ getHashKey()\l+ isAbstractDisabled()\l+ isAbstractEnabled()\l+ refreshWidgetDisplay()\l+ setDisableObjects()\l+ setHashKey()\l+ setWidgetFromXml()\l+ setXmlFromWidget()\l# FCore()\l# FCore()\l}">
<polygon fill="white" stroke="black" points="77.5,-398.5 77.5,-697.5 211.5,-697.5 211.5,-398.5 77.5,-398.5"/>
<text text-anchor="middle" x="144.5" y="-685.5" font-family="Helvetica,sans-Serif" font-size="10.00">FAbstractWidget</text>
<polyline fill="none" stroke="black" points="77.5,-678.5 211.5,-678.5 "/>
<text text-anchor="start" x="85.5" y="-666.5" font-family="Helvetica,sans-Serif" font-size="10.00">+ commandLineList</text>
<text text-anchor="start" x="85.5" y="-655.5" font-family="Helvetica,sans-Serif" font-size="10.00">+ commandLineType</text>
<text text-anchor="start" x="85.5" y="-644.5" font-family="Helvetica,sans-Serif" font-size="10.00">+ disabledObjects</text>
<text text-anchor="start" x="85.5" y="-633.5" font-family="Helvetica,sans-Serif" font-size="10.00">+ enabledObjects</text>
<text text-anchor="start" x="85.5" y="-622.5" font-family="Helvetica,sans-Serif" font-size="10.00">+ optionLabel</text>
<text text-anchor="start" x="85.5" y="-611.5" font-family="Helvetica,sans-Serif" font-size="10.00">+ status</text>
<text text-anchor="start" x="85.5" y="-600.5" font-family="Helvetica,sans-Serif" font-size="10.00"># componentList</text>
<text text-anchor="start" x="85.5" y="-589.5" font-family="Helvetica,sans-Serif" font-size="10.00"># description</text>
<text text-anchor="start" x="85.5" y="-578.5" font-family="Helvetica,sans-Serif" font-size="10.00"># hashKey</text>
<text text-anchor="start" x="85.5" y="-567.5" font-family="Helvetica,sans-Serif" font-size="10.00"># widgetDepth</text>
<polyline fill="none" stroke="black" points="77.5,-560.5 211.5,-560.5 "/>
<text text-anchor="start" x="85.5" y="-548.5" font-family="Helvetica,sans-Serif" font-size="10.00">+ commandLineStringList()</text>
<text text-anchor="start" x="85.5" y="-537.5" font-family="Helvetica,sans-Serif" font-size="10.00">+ getComponentList()</text>
<text text-anchor="start" x="85.5" y="-526.5" font-family="Helvetica,sans-Serif" font-size="10.00">+ getDepth()</text>
<text text-anchor="start" x="85.5" y="-515.5" font-family="Helvetica,sans-Serif" font-size="10.00">+ getDescription()</text>
<text text-anchor="start" x="85.5" y="-504.5" font-family="Helvetica,sans-Serif" font-size="10.00">+ getHashKey()</text>
<text text-anchor="start" x="85.5" y="-493.5" font-family="Helvetica,sans-Serif" font-size="10.00">+ isAbstractDisabled()</text>
<text text-anchor="start" x="85.5" y="-482.5" font-family="Helvetica,sans-Serif" font-size="10.00">+ isAbstractEnabled()</text>
<text text-anchor="start" x="85.5" y="-471.5" font-family="Helvetica,sans-Serif" font-size="10.00">+ refreshWidgetDisplay()</text>
<text text-anchor="start" x="85.5" y="-460.5" font-family="Helvetica,sans-Serif" font-size="10.00">+ setDisableObjects()</text>
<text text-anchor="start" x="85.5" y="-449.5" font-family="Helvetica,sans-Serif" font-size="10.00">+ setHashKey()</text>
<text text-anchor="start" x="85.5" y="-438.5" font-family="Helvetica,sans-Serif" font-size="10.00">+ setWidgetFromXml()</text>
<text text-anchor="start" x="85.5" y="-427.5" font-family="Helvetica,sans-Serif" font-size="10.00">+ setXmlFromWidget()</text>
<text text-anchor="start" x="85.5" y="-416.5" font-family="Helvetica,sans-Serif" font-size="10.00"># FCore()</text>
<text text-anchor="start" x="85.5" y="-405.5" font-family="Helvetica,sans-Serif" font-size="10.00"># FCore()</text>
</a>
</g>
</g>
<!-- Node8&#45;&gt;Node6 -->
<g id="edge3" class="edge"><title>Node8&#45;&gt;Node6</title>
<path fill="none" stroke="midnightblue" d="M140.277,-388.039C140.027,-378.637 139.783,-369.428 139.549,-360.615"/>
<polygon fill="none" stroke="midnightblue" points="136.786,-388.405 140.55,-398.308 143.783,-388.219 136.786,-388.405"/>
</g>
<!-- Node9 -->
<g id="node5" class="node"><title>Node9</title>
<g id="a_node5"><a xlink:href="classflags.html" target="_top" xlink:title="{flags\n||}">
<polygon fill="white" stroke="black" points="125.5,-735.5 125.5,-792.5 163.5,-792.5 163.5,-735.5 125.5,-735.5"/>
<text text-anchor="middle" x="144.5" y="-780.5" font-family="Helvetica,sans-Serif" font-size="10.00">flags</text>
<polyline fill="none" stroke="black" points="125.5,-773.5 163.5,-773.5 "/>
<text text-anchor="middle" x="144.5" y="-761.5" font-family="Helvetica,sans-Serif" font-size="10.00"> </text>
<polyline fill="none" stroke="black" points="125.5,-754.5 163.5,-754.5 "/>
<text text-anchor="middle" x="144.5" y="-742.5" font-family="Helvetica,sans-Serif" font-size="10.00"> </text>
</a>
</g>
</g>
<!-- Node9&#45;&gt;Node8 -->
<g id="edge4" class="edge"><title>Node9&#45;&gt;Node8</title>
<path fill="none" stroke="midnightblue" d="M144.5,-725.411C144.5,-717.03 144.5,-707.648 144.5,-697.696"/>
<polygon fill="none" stroke="midnightblue" points="141,-725.461 144.5,-735.461 148,-725.461 141,-725.461"/>
</g>
<!-- Node10 -->
<g id="node6" class="node"><title>Node10</title>
<g id="a_node6"><a xlink:href="class_q_tool_dir_button.html" target="_top" xlink:title="{QToolDirButton\n||+ QToolDirButton()\l+ QToolDirButton()\l}">
<polygon fill="white" stroke="black" points="218,-248.5 218,-316.5 317,-316.5 317,-248.5 218,-248.5"/>
<text text-anchor="middle" x="267.5" y="-304.5" font-family="Helvetica,sans-Serif" font-size="10.00">QToolDirButton</text>
<polyline fill="none" stroke="black" points="218,-297.5 317,-297.5 "/>
<text text-anchor="middle" x="267.5" y="-285.5" font-family="Helvetica,sans-Serif" font-size="10.00"> </text>
<polyline fill="none" stroke="black" points="218,-278.5 317,-278.5 "/>
<text text-anchor="start" x="226" y="-266.5" font-family="Helvetica,sans-Serif" font-size="10.00">+ QToolDirButton()</text>
<text text-anchor="start" x="226" y="-255.5" font-family="Helvetica,sans-Serif" font-size="10.00">+ QToolDirButton()</text>
</a>
</g>
</g>
<!-- Node10&#45;&gt;Node5 -->
<g id="edge5" class="edge"><title>Node10&#45;&gt;Node5</title>
<path fill="none" stroke="#404040" d="M251.915,-248.162C240.37,-223.464 224.113,-188.688 209.159,-156.699"/>
<polygon fill="none" stroke="#404040" points="209.016,-156.392 202.851,-152.65 203.934,-145.521 210.098,-149.262 209.016,-156.392"/>
<text text-anchor="middle" x="242.5" y="-178" font-family="Helvetica,sans-Serif" font-size="10.00"> &#45;oButton</text>
<text text-anchor="middle" x="242.5" y="-167" font-family="Helvetica,sans-Serif" font-size="10.00">&#45;sButton</text>
</g>
<!-- Node11 -->
<g id="node7" class="node"><title>Node11</title>
<polygon fill="white" stroke="#bfbfbf" points="232,-519.5 232,-576.5 303,-576.5 303,-519.5 232,-519.5"/>
<text text-anchor="middle" x="267.5" y="-564.5" font-family="Helvetica,sans-Serif" font-size="10.00">QToolButton</text>
<polyline fill="none" stroke="#bfbfbf" points="232,-557.5 303,-557.5 "/>
<text text-anchor="middle" x="267.5" y="-545.5" font-family="Helvetica,sans-Serif" font-size="10.00"> </text>
<polyline fill="none" stroke="#bfbfbf" points="232,-538.5 303,-538.5 "/>
<text text-anchor="middle" x="267.5" y="-526.5" font-family="Helvetica,sans-Serif" font-size="10.00"> </text>
</g>
<!-- Node11&#45;&gt;Node10 -->
<g id="edge6" class="edge"><title>Node11&#45;&gt;Node10</title>
<path fill="none" stroke="midnightblue" d="M267.5,-509.219C267.5,-457.545 267.5,-365.657 267.5,-316.57"/>
<polygon fill="none" stroke="midnightblue" points="264,-509.299 267.5,-519.299 271,-509.299 264,-509.299"/>
</g>
</g>
</svg>
