<?xml version="1.0" encoding="UTF-8" standalone="no"?>
<!DOCTYPE svg PUBLIC "-//W3C//DTD SVG 1.1//EN"
 "http://www.w3.org/Graphics/SVG/1.1/DTD/svg11.dtd">
<!-- Generated by graphviz version 2.38.0 (20140413.2041)
 -->
<!-- Title: FAbstractConnection::meta_connect Pages: 1 -->
<svg width="504pt" height="78pt"
 viewBox="0.00 0.00 504.00 77.50" xmlns="http://www.w3.org/2000/svg" xmlns:xlink="http://www.w3.org/1999/xlink">
<g id="graph0" class="graph" transform="scale(1 1) rotate(0) translate(4 73.5)">
<title>FAbstractConnection::meta_connect</title>
<polygon fill="white" stroke="none" points="-4,4 -4,-73.5 500,-73.5 500,4 -4,4"/>
<!-- Node2 -->
<g id="node1" class="node"><title>Node2</title>
<polygon fill="#bfbfbf" stroke="black" points="0,-22.5 0,-52.5 115,-52.5 115,-22.5 0,-22.5"/>
<text text-anchor="start" x="8" y="-40.5" font-family="Helvetica,sans-Serif" font-size="10.00">FAbstractConnection</text>
<text text-anchor="middle" x="57.5" y="-29.5" font-family="Helvetica,sans-Serif" font-size="10.00">::meta_connect</text>
</g>
<!-- Node3 -->
<g id="node2" class="node"><title>Node3</title>
<g id="a_node2"><a xlink:href="class_f_abstract_widget.html#aa147737576be8ca1fcf75d06f362b2b2" target="_top" xlink:title="FAbstractWidget::FCore">
<polygon fill="white" stroke="black" points="160.5,-50 160.5,-69 288.5,-69 288.5,-50 160.5,-50"/>
<text text-anchor="middle" x="224.5" y="-57" font-family="Helvetica,sans-Serif" font-size="10.00">FAbstractWidget::FCore</text>
</a>
</g>
</g>
<!-- Node2&#45;&gt;Node3 -->
<g id="edge1" class="edge"><title>Node2&#45;&gt;Node3</title>
<path fill="none" stroke="midnightblue" d="M125.326,-46.4102C136.907,-47.9542 148.915,-49.5553 160.392,-51.0856"/>
<polygon fill="midnightblue" stroke="midnightblue" points="125.659,-42.9236 115.284,-45.0712 124.733,-49.8622 125.659,-42.9236"/>
</g>
<!-- Node4 -->
<g id="node3" class="node"><title>Node4</title>
<g id="a_node3"><a xlink:href="class_f_abstract_widget.html#ac95a769d8e274582de7bf014a3289a39" target="_top" xlink:title="FAbstractWidget::setDisable\lObjects">
<polygon fill="white" stroke="black" points="151,-0.5 151,-30.5 298,-30.5 298,-0.5 151,-0.5"/>
<text text-anchor="start" x="159" y="-18.5" font-family="Helvetica,sans-Serif" font-size="10.00">FAbstractWidget::setDisable</text>
<text text-anchor="middle" x="224.5" y="-7.5" font-family="Helvetica,sans-Serif" font-size="10.00">Objects</text>
</a>
</g>
</g>
<!-- Node2&#45;&gt;Node4 -->
<g id="edge2" class="edge"><title>Node2&#45;&gt;Node4</title>
<path fill="none" stroke="midnightblue" d="M125.387,-28.5817C133.781,-27.4625 142.399,-26.3135 150.875,-25.1833"/>
<polygon fill="midnightblue" stroke="midnightblue" points="124.733,-25.1378 115.284,-29.9288 125.659,-32.0764 124.733,-25.1378"/>
</g>
<!-- Node5 -->
<g id="node4" class="node"><title>Node5</title>
<g id="a_node4"><a xlink:href="class_main_window.html#ab7fcfafb1f92c51e6452893672775d41" target="_top" xlink:title="Créer le dialogue de configuration de l&#39;interface graphique. ">
<polygon fill="white" stroke="black" points="334,-6 334,-25 496,-25 496,-6 334,-6"/>
<text text-anchor="middle" x="415" y="-13" font-family="Helvetica,sans-Serif" font-size="10.00">MainWindow::configureOptions</text>
</a>
</g>
</g>
<!-- Node4&#45;&gt;Node5 -->
<g id="edge3" class="edge"><title>Node4&#45;&gt;Node5</title>
<path fill="none" stroke="midnightblue" d="M308.372,-15.5C316.852,-15.5 325.456,-15.5 333.905,-15.5"/>
<polygon fill="midnightblue" stroke="midnightblue" points="308.109,-12.0001 298.109,-15.5 308.109,-19.0001 308.109,-12.0001"/>
</g>
</g>
</svg>
