<?xml version="1.0" encoding="UTF-8" standalone="no"?>
<!DOCTYPE svg PUBLIC "-//W3C//DTD SVG 1.1//EN"
 "http://www.w3.org/Graphics/SVG/1.1/DTD/svg11.dtd">
<!-- Generated by graphviz version 2.38.0 (20140413.2041)
 -->
<!-- Title: MatriculeInput::MatriculeInput Pages: 1 -->
<svg width="320pt" height="154pt"
 viewBox="0.00 0.00 320.00 153.50" xmlns="http://www.w3.org/2000/svg" xmlns:xlink="http://www.w3.org/1999/xlink">
<g id="graph0" class="graph" transform="scale(1 1) rotate(0) translate(4 149.5)">
<title>MatriculeInput::MatriculeInput</title>
<polygon fill="white" stroke="none" points="-4,4 -4,-149.5 316,-149.5 316,4 -4,4"/>
<!-- Node0 -->
<g id="node1" class="node"><title>Node0</title>
<polygon fill="#bfbfbf" stroke="black" points="0,-52 0,-82 130,-82 130,-52 0,-52"/>
<text text-anchor="start" x="8" y="-70" font-family="Helvetica,sans-Serif" font-size="10.00">MatriculeInput::Matricule</text>
<text text-anchor="middle" x="65" y="-59" font-family="Helvetica,sans-Serif" font-size="10.00">Input</text>
</g>
<!-- Node1 -->
<g id="node2" class="node"><title>Node1</title>
<g id="a_node2"><a xlink:href="class_matricule_input.html#a570b775e6c896dba52da89945a7fd02c" target="_top" xlink:title="Connecteur qui rajoute une ligne de saisie de matricules au dialogue Exportation des bulletins ...">
<polygon fill="white" stroke="black" points="166,-115 166,-145 312,-145 312,-115 166,-115"/>
<text text-anchor="start" x="174" y="-133" font-family="Helvetica,sans-Serif" font-size="10.00">MatriculeInput::ajouterLigne</text>
<text text-anchor="middle" x="239" y="-122" font-family="Helvetica,sans-Serif" font-size="10.00">Matricules</text>
</a>
</g>
</g>
<!-- Node0&#45;&gt;Node1 -->
<g id="edge1" class="edge"><title>Node0&#45;&gt;Node1</title>
<path fill="none" stroke="midnightblue" d="M104.844,-82.0601C123.322,-89.1472 145.752,-97.6395 166,-105 171.958,-107.166 178.207,-109.396 184.43,-111.592"/>
<polygon fill="midnightblue" stroke="midnightblue" points="183.547,-114.991 194.142,-114.998 185.864,-108.386 183.547,-114.991"/>
</g>
<!-- Node2 -->
<g id="node3" class="node"><title>Node2</title>
<g id="a_node3"><a xlink:href="class_matricule_input.html#ae46b914e11ae6cb17e6c581ea0b6f994" target="_top" xlink:title="Vérifie l&#39;input (format de saisie). ">
<polygon fill="white" stroke="black" points="170,-76.5 170,-95.5 308,-95.5 308,-76.5 170,-76.5"/>
<text text-anchor="middle" x="239" y="-83.5" font-family="Helvetica,sans-Serif" font-size="10.00">MatriculeInput::checkInput</text>
</a>
</g>
</g>
<!-- Node0&#45;&gt;Node2 -->
<g id="edge2" class="edge"><title>Node0&#45;&gt;Node2</title>
<path fill="none" stroke="midnightblue" d="M130.046,-74.0749C139.687,-75.1399 149.722,-76.2484 159.622,-77.3419"/>
<polygon fill="midnightblue" stroke="midnightblue" points="159.543,-80.8544 169.867,-78.4736 160.311,-73.8967 159.543,-80.8544"/>
</g>
<!-- Node3 -->
<g id="node4" class="node"><title>Node3</title>
<g id="a_node4"><a xlink:href="class_f_line_frame.html#a6e3d6e8099f01f197a41b85d076ac386" target="_top" xlink:title="Accesseur en lecture de la disposition (Layout) ">
<polygon fill="white" stroke="black" points="177,-38.5 177,-57.5 301,-57.5 301,-38.5 177,-38.5"/>
<text text-anchor="middle" x="239" y="-45.5" font-family="Helvetica,sans-Serif" font-size="10.00">FLineFrame::getLayout</text>
</a>
</g>
</g>
<!-- Node0&#45;&gt;Node3 -->
<g id="edge3" class="edge"><title>Node0&#45;&gt;Node3</title>
<path fill="none" stroke="midnightblue" d="M130.046,-59.9251C141.985,-58.6063 154.529,-57.2206 166.671,-55.8793"/>
<polygon fill="midnightblue" stroke="midnightblue" points="167.199,-59.3425 176.754,-54.7656 166.43,-52.3848 167.199,-59.3425"/>
</g>
<!-- Node4 -->
<g id="node5" class="node"><title>Node4</title>
<g id="a_node5"><a xlink:href="classtools.html#a89d2cd8ffcaed8423439c16d1ee59ab0" target="_top" xlink:title="Renvoie le chemin d&#39;un fichier ou d&#39;un répertoire du répertoire racine de la distribution (adjacent a...">
<polygon fill="white" stroke="black" points="187,-0.5 187,-19.5 291,-19.5 291,-0.5 187,-0.5"/>
<text text-anchor="middle" x="239" y="-7.5" font-family="Helvetica,sans-Serif" font-size="10.00">tools::path_access</text>
</a>
</g>
</g>
<!-- Node0&#45;&gt;Node4 -->
<g id="edge4" class="edge"><title>Node0&#45;&gt;Node4</title>
<path fill="none" stroke="midnightblue" d="M102.714,-51.9878C121.481,-44.5863 144.779,-35.811 166,-29 173.443,-26.611 181.387,-24.2905 189.181,-22.1394"/>
<polygon fill="midnightblue" stroke="midnightblue" points="190.178,-25.4956 198.922,-19.513 188.356,-18.7369 190.178,-25.4956"/>
</g>
</g>
</svg>
