<?xml version="1.0" encoding="UTF-8" standalone="no"?>
<!DOCTYPE svg PUBLIC "-//W3C//DTD SVG 1.1//EN"
 "http://www.w3.org/Graphics/SVG/1.1/DTD/svg11.dtd">
<!-- Generated by graphviz version 2.38.0 (20140413.2041)
 -->
<!-- Title: MatriculeInput::ajouterLigneMatricules Pages: 1 -->
<svg width="338pt" height="88pt"
 viewBox="0.00 0.00 338.00 88.00" xmlns="http://www.w3.org/2000/svg" xmlns:xlink="http://www.w3.org/1999/xlink">
<g id="graph0" class="graph" transform="scale(1 1) rotate(0) translate(4 84)">
<title>MatriculeInput::ajouterLigneMatricules</title>
<polygon fill="white" stroke="none" points="-4,4 -4,-84 334,-84 334,4 -4,4"/>
<!-- Node7 -->
<g id="node1" class="node"><title>Node7</title>
<polygon fill="#bfbfbf" stroke="black" points="0,-24.5 0,-54.5 146,-54.5 146,-24.5 0,-24.5"/>
<text text-anchor="start" x="8" y="-42.5" font-family="Helvetica,sans-Serif" font-size="10.00">MatriculeInput::ajouterLigne</text>
<text text-anchor="middle" x="73" y="-31.5" font-family="Helvetica,sans-Serif" font-size="10.00">Matricules</text>
</g>
<!-- Node8 -->
<g id="node2" class="node"><title>Node8</title>
<g id="a_node2"><a xlink:href="class_matricule_input.html#a531419ed5d9ad186758b0ed44621a4e0" target="_top" xlink:title="Vérifie qu&#39;à l&#39;ouverture du dialogue, le répertoire par défaut dirpath est bien renseigné. ">
<polygon fill="white" stroke="black" points="182,-49.5 182,-79.5 330,-79.5 330,-49.5 182,-49.5"/>
<text text-anchor="start" x="190" y="-67.5" font-family="Helvetica,sans-Serif" font-size="10.00">MatriculeInput::checkDefault</text>
<text text-anchor="middle" x="256" y="-56.5" font-family="Helvetica,sans-Serif" font-size="10.00">Folder</text>
</a>
</g>
</g>
<!-- Node7&#45;&gt;Node8 -->
<g id="edge1" class="edge"><title>Node7&#45;&gt;Node8</title>
<path fill="none" stroke="midnightblue" d="M156.038,-50.8313C164.598,-52.0135 173.259,-53.2098 181.712,-54.3773"/>
<polygon fill="midnightblue" stroke="midnightblue" points="156.441,-47.3537 146.056,-49.4525 155.483,-54.2879 156.441,-47.3537"/>
</g>
<!-- Node9 -->
<g id="node3" class="node"><title>Node9</title>
<g id="a_node3"><a xlink:href="class_matricule_input.html#a4f670aeeae85155afbe9011c741791be" target="_top" xlink:title="Constructeur de la classe MatriculeInput. ">
<polygon fill="white" stroke="black" points="191,-0.5 191,-30.5 321,-30.5 321,-0.5 191,-0.5"/>
<text text-anchor="start" x="199" y="-18.5" font-family="Helvetica,sans-Serif" font-size="10.00">MatriculeInput::Matricule</text>
<text text-anchor="middle" x="256" y="-7.5" font-family="Helvetica,sans-Serif" font-size="10.00">Input</text>
</a>
</g>
</g>
<!-- Node7&#45;&gt;Node9 -->
<g id="edge2" class="edge"><title>Node7&#45;&gt;Node9</title>
<path fill="none" stroke="midnightblue" d="M156.193,-28.6014C167.805,-27.0618 179.6,-25.4978 190.806,-24.0119"/>
<polygon fill="midnightblue" stroke="midnightblue" points="155.509,-25.1614 146.056,-29.9456 156.429,-32.1007 155.509,-25.1614"/>
</g>
</g>
</svg>
