<?xml version="1.0" encoding="UTF-8" standalone="no"?>
<!DOCTYPE svg PUBLIC "-//W3C//DTD SVG 1.1//EN"
 "http://www.w3.org/Graphics/SVG/1.1/DTD/svg11.dtd">
<!-- Generated by graphviz version 2.38.0 (20140413.2041)
 -->
<!-- Title: Altair::refreshProjectManagerValues Pages: 1 -->
<svg width="533pt" height="192pt"
 viewBox="0.00 0.00 533.00 192.00" xmlns="http://www.w3.org/2000/svg" xmlns:xlink="http://www.w3.org/1999/xlink">
<g id="graph0" class="graph" transform="scale(1 1) rotate(0) translate(4 188)">
<title>Altair::refreshProjectManagerValues</title>
<polygon fill="white" stroke="none" points="-4,4 -4,-188 529,-188 529,4 -4,4"/>
<!-- Node731 -->
<g id="node1" class="node"><title>Node731</title>
<polygon fill="#bfbfbf" stroke="black" points="0,-77 0,-107 143,-107 143,-77 0,-77"/>
<text text-anchor="start" x="8" y="-95" font-family="Helvetica,sans-Serif" font-size="10.00">Altair::refreshProjectManager</text>
<text text-anchor="middle" x="71.5" y="-84" font-family="Helvetica,sans-Serif" font-size="10.00">Values</text>
</g>
<!-- Node732 -->
<g id="node2" class="node"><title>Node732</title>
<g id="a_node2"><a xlink:href="namespace_xml_method.html#a796c4f03d9e7a8057f0102b87eecbd3e" target="_top" xlink:title="XmlMethod::displayFirstLevelData">
<polygon fill="white" stroke="black" points="179,-164.5 179,-183.5 346,-183.5 346,-164.5 179,-164.5"/>
<text text-anchor="middle" x="262.5" y="-171.5" font-family="Helvetica,sans-Serif" font-size="10.00">XmlMethod::displayFirstLevelData</text>
</a>
</g>
</g>
<!-- Node731&#45;&gt;Node732 -->
<g id="edge1" class="edge"><title>Node731&#45;&gt;Node732</title>
<path fill="none" stroke="midnightblue" d="M96.7177,-107.155C117.835,-119.885 149.607,-137.887 179,-150 189.667,-154.396 201.419,-158.326 212.627,-161.671"/>
<polygon fill="midnightblue" stroke="midnightblue" points="211.717,-165.051 222.295,-164.457 213.655,-158.325 211.717,-165.051"/>
</g>
<!-- Node733 -->
<g id="node3" class="node"><title>Node733</title>
<g id="a_node3"><a xlink:href="namespace_xml_method.html#aad1e553eb1ec6f1bb128cc6744cba9e3" target="_top" xlink:title="XmlMethod::displayTextData">
<polygon fill="white" stroke="black" points="382,-126.5 382,-145.5 525,-145.5 525,-126.5 382,-126.5"/>
<text text-anchor="middle" x="453.5" y="-133.5" font-family="Helvetica,sans-Serif" font-size="10.00">XmlMethod::displayTextData</text>
</a>
</g>
</g>
<!-- Node731&#45;&gt;Node733 -->
<g id="edge5" class="edge"><title>Node731&#45;&gt;Node733</title>
<path fill="none" stroke="midnightblue" d="M128.823,-107.008C144.927,-110.811 162.568,-114.517 179,-117 243.33,-126.72 316.937,-131.477 371.574,-133.8"/>
<polygon fill="midnightblue" stroke="midnightblue" points="371.76,-137.31 381.894,-134.219 372.044,-130.316 371.76,-137.31"/>
</g>
<!-- Node734 -->
<g id="node4" class="node"><title>Node734</title>
<g id="a_node4"><a xlink:href="namespace_xml_method.html#ac0a708c4bc4c55df24e60816d69a90cf" target="_top" xlink:title="XmlMethod::displaySecond\lLevelData">
<polygon fill="white" stroke="black" points="194.5,-77 194.5,-107 330.5,-107 330.5,-77 194.5,-77"/>
<text text-anchor="start" x="202.5" y="-95" font-family="Helvetica,sans-Serif" font-size="10.00">XmlMethod::displaySecond</text>
<text text-anchor="middle" x="262.5" y="-84" font-family="Helvetica,sans-Serif" font-size="10.00">LevelData</text>
</a>
</g>
</g>
<!-- Node731&#45;&gt;Node734 -->
<g id="edge3" class="edge"><title>Node731&#45;&gt;Node734</title>
<path fill="none" stroke="midnightblue" d="M143.145,-92C156.514,-92 170.563,-92 184.126,-92"/>
<polygon fill="midnightblue" stroke="midnightblue" points="184.383,-95.5001 194.383,-92 184.383,-88.5001 184.383,-95.5001"/>
</g>
<!-- Node735 -->
<g id="node5" class="node"><title>Node735</title>
<g id="a_node5"><a xlink:href="class_f_list_frame.html#a58337134c45f052ad6bb45c014fd5c3f" target="_top" xlink:title="Récupère les titres d&#39;onglet. ">
<polygon fill="white" stroke="black" points="197,-38.5 197,-57.5 328,-57.5 328,-38.5 197,-38.5"/>
<text text-anchor="middle" x="262.5" y="-45.5" font-family="Helvetica,sans-Serif" font-size="10.00">FListFrame::getTabLabels</text>
</a>
</g>
</g>
<!-- Node731&#45;&gt;Node735 -->
<g id="edge6" class="edge"><title>Node731&#45;&gt;Node735</title>
<path fill="none" stroke="midnightblue" d="M136.409,-76.9518C150.439,-73.6611 165.218,-70.2045 179,-67 188.985,-64.6782 199.654,-62.2111 209.892,-59.8503"/>
<polygon fill="midnightblue" stroke="midnightblue" points="210.986,-63.1899 219.945,-57.5342 209.415,-56.3686 210.986,-63.1899"/>
</g>
<!-- Node737 -->
<g id="node7" class="node"><title>Node737</title>
<g id="a_node7"><a xlink:href="class_altair.html#adc79f280e4f580298a8dd80e2f7cf712" target="_top" xlink:title="Parcourt la table de chachage Hash::wrapper dans laquelle sont stockés à la clé &quot;XHL&quot; les chemins des...">
<polygon fill="white" stroke="black" points="184,-0.5 184,-19.5 341,-19.5 341,-0.5 184,-0.5"/>
<text text-anchor="middle" x="262.5" y="-7.5" font-family="Helvetica,sans-Serif" font-size="10.00">Altair::processSecondLevelData</text>
</a>
</g>
</g>
<!-- Node731&#45;&gt;Node737 -->
<g id="edge8" class="edge"><title>Node731&#45;&gt;Node737</title>
<path fill="none" stroke="midnightblue" d="M93.5158,-76.9101C114.301,-62.6436 147.482,-41.5983 179,-29 185.327,-26.4709 192.068,-24.2347 198.866,-22.2683"/>
<polygon fill="midnightblue" stroke="midnightblue" points="200.083,-25.565 208.824,-19.5776 198.257,-18.8073 200.083,-25.565"/>
</g>
<!-- Node732&#45;&gt;Node733 -->
<g id="edge2" class="edge"><title>Node732&#45;&gt;Node733</title>
<path fill="none" stroke="midnightblue" d="M311.193,-164.411C336.695,-159.284 368.282,-152.933 395.12,-147.537"/>
<polygon fill="midnightblue" stroke="midnightblue" points="396.036,-150.923 405.15,-145.52 394.657,-144.06 396.036,-150.923"/>
</g>
<!-- Node734&#45;&gt;Node733 -->
<g id="edge4" class="edge"><title>Node734&#45;&gt;Node733</title>
<path fill="none" stroke="midnightblue" d="M328.014,-107.019C352.141,-112.636 379.176,-118.93 401.873,-124.214"/>
<polygon fill="midnightblue" stroke="midnightblue" points="401.107,-127.629 411.64,-126.488 402.694,-120.811 401.107,-127.629"/>
</g>
<!-- Node736 -->
<g id="node6" class="node"><title>Node736</title>
<g id="a_node6"><a xlink:href="class_f_list_frame.html#a4bf0d0d8e56418df395b020d2e66db5f" target="_top" xlink:title="Récupère la taille courante (0&#45;based) du conteneur widgetContainer Cette taille doit en principe être...">
<polygon fill="white" stroke="black" points="399,-38.5 399,-57.5 508,-57.5 508,-38.5 399,-38.5"/>
<text text-anchor="middle" x="453.5" y="-45.5" font-family="Helvetica,sans-Serif" font-size="10.00">FListFrame::getRank</text>
</a>
</g>
</g>
<!-- Node735&#45;&gt;Node736 -->
<g id="edge7" class="edge"><title>Node735&#45;&gt;Node736</title>
<path fill="none" stroke="midnightblue" d="M328.014,-48C347.684,-48 369.288,-48 388.897,-48"/>
<polygon fill="midnightblue" stroke="midnightblue" points="388.948,-51.5001 398.948,-48 388.948,-44.5001 388.948,-51.5001"/>
</g>
<!-- Node738 -->
<g id="node8" class="node"><title>Node738</title>
<g id="a_node8"><a xlink:href="class_altair.html#a78a2870bb9b316c5ad6bcbd64471eeb8" target="_top" xlink:title="Renvoie la taille des données exportées. ">
<polygon fill="white" stroke="black" points="422,-0.5 422,-19.5 485,-19.5 485,-0.5 422,-0.5"/>
<text text-anchor="middle" x="453.5" y="-7.5" font-family="Helvetica,sans-Serif" font-size="10.00">Altair::size</text>
</a>
</g>
</g>
<!-- Node737&#45;&gt;Node738 -->
<g id="edge9" class="edge"><title>Node737&#45;&gt;Node738</title>
<path fill="none" stroke="midnightblue" d="M341.192,-10C365.295,-10 390.905,-10 411.476,-10"/>
<polygon fill="midnightblue" stroke="midnightblue" points="411.739,-13.5001 421.739,-10 411.739,-6.5001 411.739,-13.5001"/>
</g>
</g>
</svg>
