<?xml version="1.0" encoding="UTF-8" standalone="no"?>
<!DOCTYPE svg PUBLIC "-//W3C//DTD SVG 1.1//EN"
 "http://www.w3.org/Graphics/SVG/1.1/DTD/svg11.dtd">
<!-- Generated by graphviz version 2.38.0 (20140413.2041)
 -->
<!-- Title: FStringList Pages: 1 -->
<svg width="134pt" height="270pt"
 viewBox="0.00 0.00 134.00 270.00" xmlns="http://www.w3.org/2000/svg" xmlns:xlink="http://www.w3.org/1999/xlink">
<g id="graph0" class="graph" transform="scale(1 1) rotate(0) translate(4 266)">
<title>FStringList</title>
<polygon fill="white" stroke="none" points="-4,4 -4,-266 130,-266 130,4 -4,4"/>
<!-- Node0 -->
<g id="node1" class="node"><title>Node0</title>
<polygon fill="#bfbfbf" stroke="black" points="21,-0.5 21,-167.5 105,-167.5 105,-0.5 21,-0.5"/>
<text text-anchor="middle" x="63" y="-155.5" font-family="Helvetica,sans-Serif" font-size="10.00">FStringList</text>
<polyline fill="none" stroke="black" points="21,-148.5 105,-148.5 "/>
<text text-anchor="middle" x="63" y="-136.5" font-family="Helvetica,sans-Serif" font-size="10.00"> </text>
<polyline fill="none" stroke="black" points="21,-129.5 105,-129.5 "/>
<text text-anchor="start" x="29" y="-117.5" font-family="Helvetica,sans-Serif" font-size="10.00">+ FStringList()</text>
<text text-anchor="start" x="29" y="-106.5" font-family="Helvetica,sans-Serif" font-size="10.00">+ FStringList()</text>
<text text-anchor="start" x="29" y="-95.5" font-family="Helvetica,sans-Serif" font-size="10.00">+ FStringList()</text>
<text text-anchor="start" x="29" y="-84.5" font-family="Helvetica,sans-Serif" font-size="10.00">+ FStringList()</text>
<text text-anchor="start" x="29" y="-73.5" font-family="Helvetica,sans-Serif" font-size="10.00">+ FStringList()</text>
<text text-anchor="start" x="29" y="-62.5" font-family="Helvetica,sans-Serif" font-size="10.00">+ FStringList()</text>
<text text-anchor="start" x="29" y="-51.5" font-family="Helvetica,sans-Serif" font-size="10.00">+ FStringList()</text>
<text text-anchor="start" x="29" y="-40.5" font-family="Helvetica,sans-Serif" font-size="10.00">+ FStringList()</text>
<text text-anchor="start" x="29" y="-29.5" font-family="Helvetica,sans-Serif" font-size="10.00">+ FStringList()</text>
<text text-anchor="start" x="29" y="-18.5" font-family="Helvetica,sans-Serif" font-size="10.00">+ FStringList()</text>
<text text-anchor="start" x="29" y="-7.5" font-family="Helvetica,sans-Serif" font-size="10.00">et 10 de plus...</text>
</g>
<!-- Node1 -->
<g id="node2" class="node"><title>Node1</title>
<polygon fill="white" stroke="#bfbfbf" points="0,-204.5 0,-261.5 126,-261.5 126,-204.5 0,-204.5"/>
<text text-anchor="middle" x="63" y="-249.5" font-family="Helvetica,sans-Serif" font-size="10.00">QVector&lt; QStringList &gt;</text>
<polyline fill="none" stroke="#bfbfbf" points="0,-242.5 126,-242.5 "/>
<text text-anchor="middle" x="63" y="-230.5" font-family="Helvetica,sans-Serif" font-size="10.00"> </text>
<polyline fill="none" stroke="#bfbfbf" points="0,-223.5 126,-223.5 "/>
<text text-anchor="middle" x="63" y="-211.5" font-family="Helvetica,sans-Serif" font-size="10.00"> </text>
</g>
<!-- Node1&#45;&gt;Node0 -->
<g id="edge1" class="edge"><title>Node1&#45;&gt;Node0</title>
<path fill="none" stroke="midnightblue" d="M63,-194.35C63,-186.08 63,-177.008 63,-167.738"/>
<polygon fill="none" stroke="midnightblue" points="59.5001,-194.35 63,-204.35 66.5001,-194.35 59.5001,-194.35"/>
</g>
</g>
</svg>
