<?xml version="1.0" encoding="UTF-8" standalone="no"?>
<!DOCTYPE svg PUBLIC "-//W3C//DTD SVG 1.1//EN"
 "http://www.w3.org/Graphics/SVG/1.1/DTD/svg11.dtd">
<!-- Generated by graphviz version 2.38.0 (20140413.2041)
 -->
<!-- Title: FListFrame::showProgressBar Pages: 1 -->
<!--zoomable 105 -->
<svg id="main" version="1.1" xmlns="http://www.w3.org/2000/svg" xmlns:xlink="http://www.w3.org/1999/xlink" xml:space="preserve" onload="init(evt)">
<style type="text/css"><![CDATA[
.edge:hover path { stroke: red; }
.edge:hover polygon { stroke: red; fill: red; }
]]></style>
<script type="text/javascript"><![CDATA[
var edges = document.getElementsByTagName('g');
if (edges && edges.length) {
  for (var i=0;i<edges.length;i++) {
    if (edges[i].id.substr(0,4)=='edge') {
      edges[i].setAttribute('class','edge');
    }
  }
}
]]></script>
        <defs>
                <circle id="rim" cx="0" cy="0" r="7"/>
                <circle id="rim2" cx="0" cy="0" r="3.5"/>
                <g id="zoomPlus">
                        <use xlink:href="#rim" fill="#404040">
                                <set attributeName="fill" to="#808080" begin="zoomplus.mouseover" end="zoomplus.mouseout"/>
                        </use>
                        <path d="M-4,0h8M0,-4v8" fill="none" stroke="white" stroke-width="1.5" pointer-events="none"/>
                </g>
                <g id="zoomMin">
                        <use xlink:href="#rim" fill="#404040">
                                <set attributeName="fill" to="#808080" begin="zoomminus.mouseover" end="zoomminus.mouseout"/>
                        </use>
                        <path d="M-4,0h8" fill="none" stroke="white" stroke-width="1.5" pointer-events="none"/>
                </g>
                <g id="dirArrow">
                        <path fill="none" stroke="white" stroke-width="1.5" d="M0,-3.0v7 M-2.5,-0.5L0,-3.0L2.5,-0.5"/>
                </g>
               <g id="resetDef">
                       <use xlink:href="#rim2" fill="#404040">
                               <set attributeName="fill" to="#808080" begin="reset.mouseover" end="reset.mouseout"/>
                       </use>
               </g>
        </defs>

<script type="text/javascript">
var viewWidth = 989;
var viewHeight = 105;
var sectionId = 'dynsection-58';
</script>
<script xlink:href="svgpan.js"/>
<svg id="graph" class="graph">
<g id="viewport">
<title>FListFrame::showProgressBar</title>
<polygon fill="white" stroke="none" points="-4,4 -4,-100.5 985,-100.5 985,4 -4,4"/>
<!-- Node422 -->
<g id="node1" class="node"><title>Node422</title>
<polygon fill="#bfbfbf" stroke="black" points="0,-31 0,-50 149,-50 149,-31 0,-31"/>
<text text-anchor="middle" x="74.5" y="-38" font-family="Helvetica,sans-Serif" font-size="10.00">FListFrame::showProgressBar</text>
</g>
<!-- Node423 -->
<g id="node2" class="node"><title>Node423</title>
<g id="a_node2"><a xlink:href="class_f_list_frame.html#af8c91e66c02e4c6f1f0fb66097903b73" target="_top" xlink:title="FListFrame::addStringList\lToListWidget">
<polygon fill="white" stroke="black" points="347,-49.5 347,-79.5 476,-79.5 476,-49.5 347,-49.5"/>
<text text-anchor="start" x="355" y="-67.5" font-family="Helvetica,sans-Serif" font-size="10.00">FListFrame::addStringList</text>
<text text-anchor="middle" x="411.5" y="-56.5" font-family="Helvetica,sans-Serif" font-size="10.00">ToListWidget</text>
</a>
</g>
</g>
<!-- Node422&#45;&gt;Node423 -->
<g id="edge1" class="edge"><title>Node422&#45;&gt;Node423</title>
<path fill="none" stroke="midnightblue" d="M159.278,-46.502C217.379,-50.6644 293.571,-56.123 346.748,-59.9327"/>
<polygon fill="midnightblue" stroke="midnightblue" points="159.242,-42.9905 149.017,-45.7669 158.741,-49.9726 159.242,-42.9905"/>
</g>
<!-- Node428 -->
<g id="node7" class="node"><title>Node428</title>
<g id="a_node7"><a xlink:href="class_f_list_frame.html#a802475894ee1e30753faed81d9f9dc4b" target="_top" xlink:title="Appelle parseXhlFile(const QString&amp;) sur l&#39;ensemble de widgetContainer. ">
<polygon fill="white" stroke="black" points="185,-11 185,-30 311,-30 311,-11 185,-11"/>
<text text-anchor="middle" x="248" y="-18" font-family="Helvetica,sans-Serif" font-size="10.00">FListFrame::parseXhlFile</text>
</a>
</g>
</g>
<!-- Node422&#45;&gt;Node428 -->
<g id="edge6" class="edge"><title>Node422&#45;&gt;Node428</title>
<path fill="none" stroke="midnightblue" d="M159.315,-30.7256C167.937,-29.7202 176.585,-28.7116 184.91,-27.7408"/>
<polygon fill="midnightblue" stroke="midnightblue" points="158.754,-27.2673 149.227,-31.9021 159.565,-34.2202 158.754,-27.2673"/>
</g>
<!-- Node424 -->
<g id="node3" class="node"><title>Node424</title>
<g id="a_node3"><a xlink:href="class_f_list_frame.html#a4228ed10f2d800b92ff34e2f25edcd8c" target="_top" xlink:title="FListFrame::addParsedTree\lToListWidget">
<polygon fill="white" stroke="black" points="512,-49.5 512,-79.5 650,-79.5 650,-49.5 512,-49.5"/>
<text text-anchor="start" x="520" y="-67.5" font-family="Helvetica,sans-Serif" font-size="10.00">FListFrame::addParsedTree</text>
<text text-anchor="middle" x="581" y="-56.5" font-family="Helvetica,sans-Serif" font-size="10.00">ToListWidget</text>
</a>
</g>
</g>
<!-- Node423&#45;&gt;Node424 -->
<g id="edge2" class="edge"><title>Node423&#45;&gt;Node424</title>
<path fill="none" stroke="midnightblue" d="M486.518,-64.5C494.966,-64.5 503.549,-64.5 511.915,-64.5"/>
<polygon fill="midnightblue" stroke="midnightblue" points="486.302,-61.0001 476.302,-64.5 486.302,-68.0001 486.302,-61.0001"/>
</g>
<!-- Node425 -->
<g id="node4" class="node"><title>Node425</title>
<g id="a_node4"><a xlink:href="class_altair.html#a1afa285a65e0bdff4c761ad05ec9f8df" target="_top" xlink:title="Fonction réimplémentée : fin du déplacement de la souris. ">
<polygon fill="white" stroke="black" points="710,-77 710,-96 799,-96 799,-77 710,-77"/>
<text text-anchor="middle" x="754.5" y="-84" font-family="Helvetica,sans-Serif" font-size="10.00">Altair::dropEvent</text>
</a>
</g>
</g>
<!-- Node424&#45;&gt;Node425 -->
<g id="edge3" class="edge"><title>Node424&#45;&gt;Node425</title>
<path fill="none" stroke="midnightblue" d="M660.246,-74.5374C677.296,-76.7245 694.744,-78.9628 709.867,-80.9028"/>
<polygon fill="midnightblue" stroke="midnightblue" points="660.638,-71.0591 650.274,-73.2582 659.747,-78.0022 660.638,-71.0591"/>
</g>
<!-- Node426 -->
<g id="node5" class="node"><title>Node426</title>
<g id="a_node5"><a xlink:href="class_f_list_frame.html#ac14c494842340a0438766256c01f83bc" target="_top" xlink:title="FListFrame::on_importFrom\lMainTree_clicked">
<polygon fill="white" stroke="black" points="686,-27.5 686,-57.5 823,-57.5 823,-27.5 686,-27.5"/>
<text text-anchor="start" x="694" y="-45.5" font-family="Helvetica,sans-Serif" font-size="10.00">FListFrame::on_importFrom</text>
<text text-anchor="middle" x="754.5" y="-34.5" font-family="Helvetica,sans-Serif" font-size="10.00">MainTree_clicked</text>
</a>
</g>
</g>
<!-- Node424&#45;&gt;Node426 -->
<g id="edge4" class="edge"><title>Node424&#45;&gt;Node426</title>
<path fill="none" stroke="midnightblue" d="M660.213,-54.4669C668.735,-53.3736 677.358,-52.2675 685.741,-51.1921"/>
<polygon fill="midnightblue" stroke="midnightblue" points="659.747,-50.9978 650.274,-55.7418 660.638,-57.9409 659.747,-50.9978"/>
</g>
<!-- Node427 -->
<g id="node6" class="node"><title>Node427</title>
<g id="a_node6"><a xlink:href="class_f_list_frame.html#a865246df8a4d4000ac3c818abc6d7f71" target="_top" xlink:title="FListFrame::FListFrame">
<polygon fill="white" stroke="black" points="859,-33 859,-52 981,-52 981,-33 859,-33"/>
<text text-anchor="middle" x="920" y="-40" font-family="Helvetica,sans-Serif" font-size="10.00">FListFrame::FListFrame</text>
</a>
</g>
</g>
<!-- Node426&#45;&gt;Node427 -->
<g id="edge5" class="edge"><title>Node426&#45;&gt;Node427</title>
<path fill="none" stroke="midnightblue" d="M833.688,-42.5C842.148,-42.5 850.658,-42.5 858.857,-42.5"/>
<polygon fill="midnightblue" stroke="midnightblue" points="833.418,-39.0001 823.418,-42.5 833.418,-46.0001 833.418,-39.0001"/>
</g>
<!-- Node428&#45;&gt;Node423 -->
<g id="edge7" class="edge"><title>Node428&#45;&gt;Node423</title>
<path fill="none" stroke="midnightblue" d="M293.927,-32.7402C312.915,-37.9134 335.218,-43.9897 355.203,-49.4346"/>
<polygon fill="midnightblue" stroke="midnightblue" points="294.611,-29.2991 284.043,-30.0473 292.771,-36.053 294.611,-29.2991"/>
</g>
<!-- Node429 -->
<g id="node8" class="node"><title>Node429</title>
<g id="a_node8"><a xlink:href="class_f_list_frame.html#a22a50157e8c6d287c2b2c08d2b7deee9" target="_top" xlink:title="Lancer un fil d&#39;exécution pour lire l&#39;entête d&#39;un fichier XHL (Année, Mois,...) et classer les fichie...">
<polygon fill="white" stroke="black" points="361,-0.5 361,-30.5 462,-30.5 462,-0.5 361,-0.5"/>
<text text-anchor="start" x="369" y="-18.5" font-family="Helvetica,sans-Serif" font-size="10.00">FListFrame::launch</text>
<text text-anchor="middle" x="411.5" y="-7.5" font-family="Helvetica,sans-Serif" font-size="10.00">_thread</text>
</a>
</g>
</g>
<!-- Node428&#45;&gt;Node429 -->
<g id="edge8" class="edge"><title>Node428&#45;&gt;Node429</title>
<path fill="none" stroke="midnightblue" d="M321.554,-11.5347C334.889,-11.0207 348.525,-10.7451 360.988,-10.7534"/>
<polygon fill="midnightblue" stroke="midnightblue" points="321.279,-8.04329 311.44,-11.9735 321.582,-15.0367 321.279,-8.04329"/>
</g>
<!-- Node429&#45;&gt;Node428 -->
<g id="edge9" class="edge"><title>Node429&#45;&gt;Node428</title>
<path fill="none" stroke="midnightblue" d="M350.872,-23.8865C338.018,-24.545 324.397,-24.9843 311.44,-25.1602"/>
<polygon fill="midnightblue" stroke="midnightblue" points="351.202,-27.3735 360.988,-23.3123 350.805,-20.3847 351.202,-27.3735"/>
</g>
</g>
</svg>
        <g id="navigator" transform="translate(0 0)" fill="#404254">
                <rect fill="#f2f5e9" fill-opacity="0.5" stroke="#606060" stroke-width=".5" x="0" y="0" width="60" height="60"/>
                <use id="zoomplus" xlink:href="#zoomPlus" x="17" y="9" onmousedown="handleZoom(evt,'in')"/>
                <use id="zoomminus" xlink:href="#zoomMin" x="42" y="9" onmousedown="handleZoom(evt,'out')"/>
                <use id="reset" xlink:href="#resetDef" x="30" y="36" onmousedown="handleReset()"/>
                <g id="arrowUp" xlink:href="#dirArrow" transform="translate(30 24)" onmousedown="handlePan(0,-1)">
                  <use xlink:href="#rim" fill="#404040">
                        <set attributeName="fill" to="#808080" begin="arrowUp.mouseover" end="arrowUp.mouseout"/>
                  </use>
                  <path fill="none" stroke="white" stroke-width="1.5" d="M0,-3.0v7 M-2.5,-0.5L0,-3.0L2.5,-0.5"/>
                </g>
                <g id="arrowRight" xlink:href="#dirArrow" transform="rotate(90) translate(36 -43)" onmousedown="handlePan(1,0)">
                  <use xlink:href="#rim" fill="#404040">
                        <set attributeName="fill" to="#808080" begin="arrowRight.mouseover" end="arrowRight.mouseout"/>
                  </use>
                  <path fill="none" stroke="white" stroke-width="1.5" d="M0,-3.0v7 M-2.5,-0.5L0,-3.0L2.5,-0.5"/>
                </g>
                <g id="arrowDown" xlink:href="#dirArrow" transform="rotate(180) translate(-30 -48)" onmousedown="handlePan(0,1)">
                  <use xlink:href="#rim" fill="#404040">
                        <set attributeName="fill" to="#808080" begin="arrowDown.mouseover" end="arrowDown.mouseout"/>
                  </use>
                  <path fill="none" stroke="white" stroke-width="1.5" d="M0,-3.0v7 M-2.5,-0.5L0,-3.0L2.5,-0.5"/>
                </g>
                <g id="arrowLeft" xlink:href="#dirArrow" transform="rotate(270) translate(-36 17)" onmousedown="handlePan(-1,0)">
                  <use xlink:href="#rim" fill="#404040">
                        <set attributeName="fill" to="#808080" begin="arrowLeft.mouseover" end="arrowLeft.mouseout"/>
                  </use>
                  <path fill="none" stroke="white" stroke-width="1.5" d="M0,-3.0v7 M-2.5,-0.5L0,-3.0L2.5,-0.5"/>
                </g>
        </g>
        <svg viewBox="0 0 15 15" width="100%" height="30px" preserveAspectRatio="xMaxYMin meet">
         <g id="arrow_out" transform="scale(0.3 0.3)">
          <a xlink:href="class_f_list_frame_ad62c847210c7ca8b66b54cb6224f4bd2_icgraph_org.svg" target="_base">
           <rect id="button" ry="5" rx="5" y="6" x="6" height="38" width="38"
                fill="#f2f5e9" fill-opacity="0.5" stroke="#606060" stroke-width="1.0"/>
           <path id="arrow"
             d="M 11.500037,31.436501 C 11.940474,20.09759 22.043105,11.32322 32.158766,21.979434 L 37.068811,17.246167 C 37.068811,17.246167 37.088388,32 37.088388,32 L 22.160133,31.978069 C 22.160133,31.978069 26.997745,27.140456 26.997745,27.140456 C 18.528582,18.264221 13.291696,25.230495 11.500037,31.436501 z"
             style="fill:#404040;"/>
          </a>
         </g>
        </svg>
</svg>
