<?xml version="1.0" encoding="UTF-8" standalone="no"?>
<!DOCTYPE svg PUBLIC "-//W3C//DTD SVG 1.1//EN"
 "http://www.w3.org/Graphics/SVG/1.1/DTD/svg11.dtd">
<!-- Generated by graphviz version 2.38.0 (20140413.2041)
 -->
<!-- Title: tools::readFile Pages: 1 -->
<!--zoomable 176 -->
<svg id="main" version="1.1" xmlns="http://www.w3.org/2000/svg" xmlns:xlink="http://www.w3.org/1999/xlink" xml:space="preserve" onload="init(evt)">
<style type="text/css"><![CDATA[
.edge:hover path { stroke: red; }
.edge:hover polygon { stroke: red; fill: red; }
]]></style>
<script type="text/javascript"><![CDATA[
var edges = document.getElementsByTagName('g');
if (edges && edges.length) {
  for (var i=0;i<edges.length;i++) {
    if (edges[i].id.substr(0,4)=='edge') {
      edges[i].setAttribute('class','edge');
    }
  }
}
]]></script>
        <defs>
                <circle id="rim" cx="0" cy="0" r="7"/>
                <circle id="rim2" cx="0" cy="0" r="3.5"/>
                <g id="zoomPlus">
                        <use xlink:href="#rim" fill="#404040">
                                <set attributeName="fill" to="#808080" begin="zoomplus.mouseover" end="zoomplus.mouseout"/>
                        </use>
                        <path d="M-4,0h8M0,-4v8" fill="none" stroke="white" stroke-width="1.5" pointer-events="none"/>
                </g>
                <g id="zoomMin">
                        <use xlink:href="#rim" fill="#404040">
                                <set attributeName="fill" to="#808080" begin="zoomminus.mouseover" end="zoomminus.mouseout"/>
                        </use>
                        <path d="M-4,0h8" fill="none" stroke="white" stroke-width="1.5" pointer-events="none"/>
                </g>
                <g id="dirArrow">
                        <path fill="none" stroke="white" stroke-width="1.5" d="M0,-3.0v7 M-2.5,-0.5L0,-3.0L2.5,-0.5"/>
                </g>
               <g id="resetDef">
                       <use xlink:href="#rim2" fill="#404040">
                               <set attributeName="fill" to="#808080" begin="reset.mouseover" end="reset.mouseout"/>
                       </use>
               </g>
        </defs>

<script type="text/javascript">
var viewWidth = 545;
var viewHeight = 176;
var sectionId = 'dynsection-18';
</script>
<script xlink:href="svgpan.js"/>
<svg id="graph" class="graph">
<g id="viewport">
<title>tools::readFile</title>
<polygon fill="white" stroke="none" points="-4,4 -4,-172 541,-172 541,4 -4,4"/>
<!-- Node184 -->
<g id="node1" class="node"><title>Node184</title>
<polygon fill="#bfbfbf" stroke="black" points="0,-77 0,-96 78,-96 78,-77 0,-77"/>
<text text-anchor="middle" x="39" y="-84" font-family="Helvetica,sans-Serif" font-size="10.00">tools::readFile</text>
</g>
<!-- Node185 -->
<g id="node2" class="node"><title>Node185</title>
<g id="a_node2"><a xlink:href="classcommon.html#a7900f8a5d7ebd42770ce8c366dd4b933" target="_top" xlink:title="Exporter les caractéristiques du contrôle dans le rapport : Siret, Budget, Employeur, Etablissement. ">
<polygon fill="white" stroke="black" points="114,-137.5 114,-167.5 269,-167.5 269,-137.5 114,-137.5"/>
<text text-anchor="start" x="122" y="-155.5" font-family="Helvetica,sans-Serif" font-size="10.00">common::exporter_identification</text>
<text text-anchor="middle" x="191.5" y="-144.5" font-family="Helvetica,sans-Serif" font-size="10.00">_controle</text>
</a>
</g>
</g>
<!-- Node184&#45;&gt;Node185 -->
<g id="edge1" class="edge"><title>Node184&#45;&gt;Node185</title>
<path fill="none" stroke="midnightblue" d="M63.8119,-101.213C78.037,-109.614 96.6589,-119.944 114,-127.5 122.198,-131.072 131.078,-134.42 139.787,-137.434"/>
<polygon fill="midnightblue" stroke="midnightblue" points="65.5322,-98.1639 55.1565,-96.02 61.9306,-104.166 65.5322,-98.1639"/>
</g>
<!-- Node186 -->
<g id="node3" class="node"><title>Node186</title>
<g id="a_node3"><a xlink:href="classtools.html#a13fc801ee004227bea7e8d1602b04d26" target="_top" xlink:title="List un fichier entre deux lignes données et sur une largeur donnée. ">
<polygon fill="white" stroke="black" points="152.5,-99 152.5,-118 230.5,-118 230.5,-99 152.5,-99"/>
<text text-anchor="middle" x="191.5" y="-106" font-family="Helvetica,sans-Serif" font-size="10.00">tools::readFile</text>
</a>
</g>
</g>
<!-- Node184&#45;&gt;Node186 -->
<g id="edge2" class="edge"><title>Node184&#45;&gt;Node186</title>
<path fill="none" stroke="midnightblue" d="M88.2767,-93.5571C109.048,-96.5935 132.98,-100.092 152.464,-102.94"/>
<polygon fill="midnightblue" stroke="midnightblue" points="88.768,-90.0918 78.3669,-92.1085 87.7555,-97.0182 88.768,-90.0918"/>
</g>
<!-- Node187 -->
<g id="node4" class="node"><title>Node187</title>
<g id="a_node4"><a xlink:href="classcode_page.html#a7f3fcb4b6f622b1c11a7b39e245b76b6" target="_top" xlink:title="codePage::substituer\l_valeurs_dans_script_R">
<polygon fill="white" stroke="black" points="130.5,-49.5 130.5,-79.5 252.5,-79.5 252.5,-49.5 130.5,-49.5"/>
<text text-anchor="start" x="138.5" y="-67.5" font-family="Helvetica,sans-Serif" font-size="10.00">codePage::substituer</text>
<text text-anchor="middle" x="191.5" y="-56.5" font-family="Helvetica,sans-Serif" font-size="10.00">_valeurs_dans_script_R</text>
</a>
</g>
</g>
<!-- Node184&#45;&gt;Node187 -->
<g id="edge3" class="edge"><title>Node184&#45;&gt;Node187</title>
<path fill="none" stroke="midnightblue" d="M88.2941,-79.4404C101.652,-77.4877 116.317,-75.3441 130.264,-73.3053"/>
<polygon fill="midnightblue" stroke="midnightblue" points="87.7555,-75.9818 78.3669,-80.8915 88.768,-82.9082 87.7555,-75.9818"/>
</g>
<!-- Node190 -->
<g id="node7" class="node"><title>Node190</title>
<g id="a_node7"><a xlink:href="classstandard_page.html#abb37a1fff677f91ad2418b07593aa40d" target="_top" xlink:title="standardPage::substituer\l_versant">
<polygon fill="white" stroke="black" points="129,-0.5 129,-30.5 254,-30.5 254,-0.5 129,-0.5"/>
<text text-anchor="start" x="137" y="-18.5" font-family="Helvetica,sans-Serif" font-size="10.00">standardPage::substituer</text>
<text text-anchor="middle" x="191.5" y="-7.5" font-family="Helvetica,sans-Serif" font-size="10.00">_versant</text>
</a>
</g>
</g>
<!-- Node184&#45;&gt;Node190 -->
<g id="edge6" class="edge"><title>Node184&#45;&gt;Node190</title>
<path fill="none" stroke="midnightblue" d="M61.9744,-70.886C76.2961,-61.2102 95.6657,-49.0422 114,-40.5 121.852,-36.8414 130.388,-33.4886 138.816,-30.508"/>
<polygon fill="midnightblue" stroke="midnightblue" points="59.6053,-68.2677 53.3535,-76.8214 63.5749,-74.0333 59.6053,-68.2677"/>
</g>
<!-- Node188 -->
<g id="node5" class="node"><title>Node188</title>
<g id="a_node5"><a xlink:href="classcode_page.html#a927a6bef8cac0406a49225bc72894a1f" target="_top" xlink:title="codePage::codePage">
<polygon fill="white" stroke="black" points="305,-55 305,-74 415,-74 415,-55 305,-55"/>
<text text-anchor="middle" x="360" y="-62" font-family="Helvetica,sans-Serif" font-size="10.00">codePage::codePage</text>
</a>
</g>
</g>
<!-- Node187&#45;&gt;Node188 -->
<g id="edge4" class="edge"><title>Node187&#45;&gt;Node188</title>
<path fill="none" stroke="midnightblue" d="M262.735,-64.5C276.797,-64.5 291.366,-64.5 304.784,-64.5"/>
<polygon fill="midnightblue" stroke="midnightblue" points="262.61,-61.0001 252.61,-64.5 262.61,-68.0001 262.61,-61.0001"/>
</g>
<!-- Node189 -->
<g id="node6" class="node"><title>Node189</title>
<g id="a_node6"><a xlink:href="classoptions.html#a52a9fb1d5bdb6ed104e700390b8c0208" target="_top" xlink:title="Constructeur de l&#39;onglet correspondant à un pointeur parent vers une instance de la classe Altair...">
<polygon fill="white" stroke="black" points="451,-55 451,-74 537,-74 537,-55 451,-55"/>
<text text-anchor="middle" x="494" y="-62" font-family="Helvetica,sans-Serif" font-size="10.00">options::options</text>
</a>
</g>
</g>
<!-- Node188&#45;&gt;Node189 -->
<g id="edge5" class="edge"><title>Node188&#45;&gt;Node189</title>
<path fill="none" stroke="midnightblue" d="M425.254,-64.5C433.977,-64.5 442.74,-64.5 450.934,-64.5"/>
<polygon fill="midnightblue" stroke="midnightblue" points="425.07,-61.0001 415.07,-64.5 425.07,-68.0001 425.07,-61.0001"/>
</g>
</g>
</svg>
        <g id="navigator" transform="translate(0 0)" fill="#404254">
                <rect fill="#f2f5e9" fill-opacity="0.5" stroke="#606060" stroke-width=".5" x="0" y="0" width="60" height="60"/>
                <use id="zoomplus" xlink:href="#zoomPlus" x="17" y="9" onmousedown="handleZoom(evt,'in')"/>
                <use id="zoomminus" xlink:href="#zoomMin" x="42" y="9" onmousedown="handleZoom(evt,'out')"/>
                <use id="reset" xlink:href="#resetDef" x="30" y="36" onmousedown="handleReset()"/>
                <g id="arrowUp" xlink:href="#dirArrow" transform="translate(30 24)" onmousedown="handlePan(0,-1)">
                  <use xlink:href="#rim" fill="#404040">
                        <set attributeName="fill" to="#808080" begin="arrowUp.mouseover" end="arrowUp.mouseout"/>
                  </use>
                  <path fill="none" stroke="white" stroke-width="1.5" d="M0,-3.0v7 M-2.5,-0.5L0,-3.0L2.5,-0.5"/>
                </g>
                <g id="arrowRight" xlink:href="#dirArrow" transform="rotate(90) translate(36 -43)" onmousedown="handlePan(1,0)">
                  <use xlink:href="#rim" fill="#404040">
                        <set attributeName="fill" to="#808080" begin="arrowRight.mouseover" end="arrowRight.mouseout"/>
                  </use>
                  <path fill="none" stroke="white" stroke-width="1.5" d="M0,-3.0v7 M-2.5,-0.5L0,-3.0L2.5,-0.5"/>
                </g>
                <g id="arrowDown" xlink:href="#dirArrow" transform="rotate(180) translate(-30 -48)" onmousedown="handlePan(0,1)">
                  <use xlink:href="#rim" fill="#404040">
                        <set attributeName="fill" to="#808080" begin="arrowDown.mouseover" end="arrowDown.mouseout"/>
                  </use>
                  <path fill="none" stroke="white" stroke-width="1.5" d="M0,-3.0v7 M-2.5,-0.5L0,-3.0L2.5,-0.5"/>
                </g>
                <g id="arrowLeft" xlink:href="#dirArrow" transform="rotate(270) translate(-36 17)" onmousedown="handlePan(-1,0)">
                  <use xlink:href="#rim" fill="#404040">
                        <set attributeName="fill" to="#808080" begin="arrowLeft.mouseover" end="arrowLeft.mouseout"/>
                  </use>
                  <path fill="none" stroke="white" stroke-width="1.5" d="M0,-3.0v7 M-2.5,-0.5L0,-3.0L2.5,-0.5"/>
                </g>
        </g>
        <svg viewBox="0 0 15 15" width="100%" height="30px" preserveAspectRatio="xMaxYMin meet">
         <g id="arrow_out" transform="scale(0.3 0.3)">
          <a xlink:href="classtools_af43fc30ac740fa0fa1d773afb2538c8c_icgraph_org.svg" target="_base">
           <rect id="button" ry="5" rx="5" y="6" x="6" height="38" width="38"
                fill="#f2f5e9" fill-opacity="0.5" stroke="#606060" stroke-width="1.0"/>
           <path id="arrow"
             d="M 11.500037,31.436501 C 11.940474,20.09759 22.043105,11.32322 32.158766,21.979434 L 37.068811,17.246167 C 37.068811,17.246167 37.088388,32 37.088388,32 L 22.160133,31.978069 C 22.160133,31.978069 26.997745,27.140456 26.997745,27.140456 C 18.528582,18.264221 13.291696,25.230495 11.500037,31.436501 z"
             style="fill:#404040;"/>
          </a>
         </g>
        </svg>
</svg>
