<?xml version="1.0" encoding="UTF-8" standalone="no"?>
<!DOCTYPE svg PUBLIC "-//W3C//DTD SVG 1.1//EN"
 "http://www.w3.org/Graphics/SVG/1.1/DTD/svg11.dtd">
<!-- Generated by graphviz version 2.38.0 (20140413.2041)
 -->
<!-- Title: processPage Pages: 1 -->
<!--zoomable 1191 -->
<svg id="main" version="1.1" xmlns="http://www.w3.org/2000/svg" xmlns:xlink="http://www.w3.org/1999/xlink" xml:space="preserve" onload="init(evt)">
<style type="text/css"><![CDATA[
.edge:hover path { stroke: red; }
.edge:hover polygon { stroke: red; fill: red; }
]]></style>
<script type="text/javascript"><![CDATA[
var edges = document.getElementsByTagName('g');
if (edges && edges.length) {
  for (var i=0;i<edges.length;i++) {
    if (edges[i].id.substr(0,4)=='edge') {
      edges[i].setAttribute('class','edge');
    }
  }
}
]]></script>
        <defs>
                <circle id="rim" cx="0" cy="0" r="7"/>
                <circle id="rim2" cx="0" cy="0" r="3.5"/>
                <g id="zoomPlus">
                        <use xlink:href="#rim" fill="#404040">
                                <set attributeName="fill" to="#808080" begin="zoomplus.mouseover" end="zoomplus.mouseout"/>
                        </use>
                        <path d="M-4,0h8M0,-4v8" fill="none" stroke="white" stroke-width="1.5" pointer-events="none"/>
                </g>
                <g id="zoomMin">
                        <use xlink:href="#rim" fill="#404040">
                                <set attributeName="fill" to="#808080" begin="zoomminus.mouseover" end="zoomminus.mouseout"/>
                        </use>
                        <path d="M-4,0h8" fill="none" stroke="white" stroke-width="1.5" pointer-events="none"/>
                </g>
                <g id="dirArrow">
                        <path fill="none" stroke="white" stroke-width="1.5" d="M0,-3.0v7 M-2.5,-0.5L0,-3.0L2.5,-0.5"/>
                </g>
               <g id="resetDef">
                       <use xlink:href="#rim2" fill="#404040">
                               <set attributeName="fill" to="#808080" begin="reset.mouseover" end="reset.mouseout"/>
                       </use>
               </g>
        </defs>

<script type="text/javascript">
var viewWidth = 831;
var viewHeight = 1191;
var sectionId = 'dynsection-1';
</script>
<script xlink:href="svgpan.js"/>
<svg id="graph" class="graph">
<g id="viewport">
<title>processPage</title>
<polygon fill="white" stroke="none" points="-4,4 -4,-1187 826.5,-1187 826.5,4 -4,4"/>
<!-- Node5 -->
<g id="node1" class="node"><title>Node5</title>
<polygon fill="#bfbfbf" stroke="black" points="316.5,-0.5 316.5,-90.5 412.5,-90.5 412.5,-0.5 316.5,-0.5"/>
<text text-anchor="middle" x="364.5" y="-78.5" font-family="Helvetica,sans-Serif" font-size="10.00">processPage</text>
<polyline fill="none" stroke="black" points="316.5,-71.5 412.5,-71.5 "/>
<text text-anchor="start" x="324.5" y="-59.5" font-family="Helvetica,sans-Serif" font-size="10.00">&#45; nLineLabel</text>
<text text-anchor="start" x="324.5" y="-48.5" font-family="Helvetica,sans-Serif" font-size="10.00">&#45; NLineLabel</text>
<text text-anchor="start" x="324.5" y="-37.5" font-family="Helvetica,sans-Serif" font-size="10.00">&#45; processTypeBox</text>
<polyline fill="none" stroke="black" points="316.5,-30.5 412.5,-30.5 "/>
<text text-anchor="start" x="324.5" y="-18.5" font-family="Helvetica,sans-Serif" font-size="10.00">+ processPage()</text>
<text text-anchor="start" x="324.5" y="-7.5" font-family="Helvetica,sans-Serif" font-size="10.00">+ processPage()</text>
</g>
<!-- Node6 -->
<g id="node2" class="node"><title>Node6</title>
<polygon fill="white" stroke="#bfbfbf" points="56.5,-182.5 56.5,-239.5 108.5,-239.5 108.5,-182.5 56.5,-182.5"/>
<text text-anchor="middle" x="82.5" y="-227.5" font-family="Helvetica,sans-Serif" font-size="10.00">QDialog</text>
<polyline fill="none" stroke="#bfbfbf" points="56.5,-220.5 108.5,-220.5 "/>
<text text-anchor="middle" x="82.5" y="-208.5" font-family="Helvetica,sans-Serif" font-size="10.00"> </text>
<polyline fill="none" stroke="#bfbfbf" points="56.5,-201.5 108.5,-201.5 "/>
<text text-anchor="middle" x="82.5" y="-189.5" font-family="Helvetica,sans-Serif" font-size="10.00"> </text>
</g>
<!-- Node6&#45;&gt;Node5 -->
<g id="edge1" class="edge"><title>Node6&#45;&gt;Node5</title>
<path fill="none" stroke="midnightblue" d="M83.9685,-172.592C89.9598,-151.078 102.048,-125.189 121.5,-109 176.769,-63.0049 262.609,-50.57 316.201,-47.3832"/>
<polygon fill="none" stroke="midnightblue" points="80.5386,-171.885 81.5757,-182.429 87.3403,-173.54 80.5386,-171.885"/>
</g>
<!-- Node6&#45;&gt;Node5 -->
<g id="edge6" class="edge"><title>Node6&#45;&gt;Node5</title>
<path fill="none" stroke="midnightblue" d="M99.4786,-172.884C107.851,-151.313 119.959,-125.262 139.5,-109 190.244,-66.7706 266.758,-52.8311 316.272,-48.3652"/>
<polygon fill="none" stroke="midnightblue" points="96.133,-171.837 95.8818,-182.429 102.683,-174.305 96.133,-171.837"/>
</g>
<!-- Node7 -->
<g id="node3" class="node"><title>Node7</title>
<g id="a_node3"><a xlink:href="classtools.html" target="_top" xlink:title="{tools\n|+ systemPathPrefix\l+ tempdir\l+ userdatadir\l|+ tools()\l+ dump()\l+ getEmbeddedPath()\l+ readFile()\l+ readFile()\l+ readFile()\l+ readFile()\l+ renommer()\l+ substituer()\l+ cdRomMounted()\l+ copyDir()\l+ copyFile()\l+ ents()\l+ generateDatadirPath()\l+ generateDatadirPath()\l+ getDirectorySize()\l+ getFileSize()\l+ IOControl()\l+ openDir()\l+ openDirDialog()\l+ path_access()\l+ remAccents()\l+ unzip()\l+ unzipDir()\l+ zip()\l+ zipDir()\l}">
<polygon fill="white" stroke="black" points="552,-342.5 552,-696.5 673,-696.5 673,-342.5 552,-342.5"/>
<text text-anchor="middle" x="612.5" y="-684.5" font-family="Helvetica,sans-Serif" font-size="10.00">tools</text>
<polyline fill="none" stroke="black" points="552,-677.5 673,-677.5 "/>
<text text-anchor="start" x="560" y="-665.5" font-family="Helvetica,sans-Serif" font-size="10.00">+ systemPathPrefix</text>
<text text-anchor="start" x="560" y="-654.5" font-family="Helvetica,sans-Serif" font-size="10.00">+ tempdir</text>
<text text-anchor="start" x="560" y="-643.5" font-family="Helvetica,sans-Serif" font-size="10.00">+ userdatadir</text>
<polyline fill="none" stroke="black" points="552,-636.5 673,-636.5 "/>
<text text-anchor="start" x="560" y="-624.5" font-family="Helvetica,sans-Serif" font-size="10.00">+ tools()</text>
<text text-anchor="start" x="560" y="-613.5" font-family="Helvetica,sans-Serif" font-size="10.00">+ dump()</text>
<text text-anchor="start" x="560" y="-602.5" font-family="Helvetica,sans-Serif" font-size="10.00">+ getEmbeddedPath()</text>
<text text-anchor="start" x="560" y="-591.5" font-family="Helvetica,sans-Serif" font-size="10.00">+ readFile()</text>
<text text-anchor="start" x="560" y="-580.5" font-family="Helvetica,sans-Serif" font-size="10.00">+ readFile()</text>
<text text-anchor="start" x="560" y="-569.5" font-family="Helvetica,sans-Serif" font-size="10.00">+ readFile()</text>
<text text-anchor="start" x="560" y="-558.5" font-family="Helvetica,sans-Serif" font-size="10.00">+ readFile()</text>
<text text-anchor="start" x="560" y="-547.5" font-family="Helvetica,sans-Serif" font-size="10.00">+ renommer()</text>
<text text-anchor="start" x="560" y="-536.5" font-family="Helvetica,sans-Serif" font-size="10.00">+ substituer()</text>
<text text-anchor="start" x="560" y="-525.5" font-family="Helvetica,sans-Serif" font-size="10.00">+ cdRomMounted()</text>
<text text-anchor="start" x="560" y="-514.5" font-family="Helvetica,sans-Serif" font-size="10.00">+ copyDir()</text>
<text text-anchor="start" x="560" y="-503.5" font-family="Helvetica,sans-Serif" font-size="10.00">+ copyFile()</text>
<text text-anchor="start" x="560" y="-492.5" font-family="Helvetica,sans-Serif" font-size="10.00">+ ents()</text>
<text text-anchor="start" x="560" y="-481.5" font-family="Helvetica,sans-Serif" font-size="10.00">+ generateDatadirPath()</text>
<text text-anchor="start" x="560" y="-470.5" font-family="Helvetica,sans-Serif" font-size="10.00">+ generateDatadirPath()</text>
<text text-anchor="start" x="560" y="-459.5" font-family="Helvetica,sans-Serif" font-size="10.00">+ getDirectorySize()</text>
<text text-anchor="start" x="560" y="-448.5" font-family="Helvetica,sans-Serif" font-size="10.00">+ getFileSize()</text>
<text text-anchor="start" x="560" y="-437.5" font-family="Helvetica,sans-Serif" font-size="10.00">+ IOControl()</text>
<text text-anchor="start" x="560" y="-426.5" font-family="Helvetica,sans-Serif" font-size="10.00">+ openDir()</text>
<text text-anchor="start" x="560" y="-415.5" font-family="Helvetica,sans-Serif" font-size="10.00">+ openDirDialog()</text>
<text text-anchor="start" x="560" y="-404.5" font-family="Helvetica,sans-Serif" font-size="10.00">+ path_access()</text>
<text text-anchor="start" x="560" y="-393.5" font-family="Helvetica,sans-Serif" font-size="10.00">+ remAccents()</text>
<text text-anchor="start" x="560" y="-382.5" font-family="Helvetica,sans-Serif" font-size="10.00">+ unzip()</text>
<text text-anchor="start" x="560" y="-371.5" font-family="Helvetica,sans-Serif" font-size="10.00">+ unzipDir()</text>
<text text-anchor="start" x="560" y="-360.5" font-family="Helvetica,sans-Serif" font-size="10.00">+ zip()</text>
<text text-anchor="start" x="560" y="-349.5" font-family="Helvetica,sans-Serif" font-size="10.00">+ zipDir()</text>
</a>
</g>
</g>
<!-- Node7&#45;&gt;Node5 -->
<g id="edge2" class="edge"><title>Node7&#45;&gt;Node5</title>
<path fill="none" stroke="midnightblue" d="M555.808,-332.789C551.164,-316.329 546.662,-299.89 542.5,-284 525.643,-219.645 547.887,-192.333 509.5,-138 485.625,-104.207 444.929,-80.1358 412.717,-65.1915"/>
<polygon fill="none" stroke="midnightblue" points="552.46,-333.814 558.557,-342.479 559.194,-331.903 552.46,-333.814"/>
</g>
<!-- Node11 -->
<g id="node7" class="node"><title>Node11</title>
<g id="a_node7"><a xlink:href="classcommon.html" target="_top" xlink:title="Classe dérivée de la classe tools ajoutant des fonctionnalités de communication de l&#39;interface vers l...">
<polygon fill="white" stroke="black" points="552,-138.5 552,-283.5 673,-283.5 673,-138.5 552,-138.5"/>
<text text-anchor="middle" x="612.5" y="-271.5" font-family="Helvetica,sans-Serif" font-size="10.00">common</text>
<polyline fill="none" stroke="black" points="552,-264.5 673,-264.5 "/>
<text text-anchor="start" x="560" y="-252.5" font-family="Helvetica,sans-Serif" font-size="10.00">+ altairCommandStr</text>
<text text-anchor="start" x="560" y="-241.5" font-family="Helvetica,sans-Serif" font-size="10.00">+ execPath</text>
<text text-anchor="start" x="560" y="-230.5" font-family="Helvetica,sans-Serif" font-size="10.00">+ RAltairCommandStr</text>
<text text-anchor="start" x="560" y="-219.5" font-family="Helvetica,sans-Serif" font-size="10.00">+ RAltairDirStr</text>
<text text-anchor="start" x="560" y="-208.5" font-family="Helvetica,sans-Serif" font-size="10.00">+ sharedir</text>
<polyline fill="none" stroke="black" points="552,-201.5 673,-201.5 "/>
<text text-anchor="start" x="560" y="-189.5" font-family="Helvetica,sans-Serif" font-size="10.00">+ common()</text>
<text text-anchor="start" x="560" y="-178.5" font-family="Helvetica,sans-Serif" font-size="10.00">+ exporter_identification</text>
<text text-anchor="start" x="560" y="-167.5" font-family="Helvetica,sans-Serif" font-size="10.00">_controle()</text>
<text text-anchor="start" x="560" y="-156.5" font-family="Helvetica,sans-Serif" font-size="10.00">+ exporter_identification</text>
<text text-anchor="start" x="560" y="-145.5" font-family="Helvetica,sans-Serif" font-size="10.00">_controle()</text>
</a>
</g>
</g>
<!-- Node7&#45;&gt;Node11 -->
<g id="edge8" class="edge"><title>Node7&#45;&gt;Node11</title>
<path fill="none" stroke="midnightblue" d="M612.5,-332.303C612.5,-315.207 612.5,-298.685 612.5,-283.644"/>
<polygon fill="none" stroke="midnightblue" points="609,-332.428 612.5,-342.428 616,-332.428 609,-332.428"/>
</g>
<!-- Node8 -->
<g id="node4" class="node"><title>Node8</title>
<g id="a_node4"><a xlink:href="classflags.html" target="_top" xlink:title="{flags\n||}">
<polygon fill="white" stroke="black" points="479.5,-1125.5 479.5,-1182.5 517.5,-1182.5 517.5,-1125.5 479.5,-1125.5"/>
<text text-anchor="middle" x="498.5" y="-1170.5" font-family="Helvetica,sans-Serif" font-size="10.00">flags</text>
<polyline fill="none" stroke="black" points="479.5,-1163.5 517.5,-1163.5 "/>
<text text-anchor="middle" x="498.5" y="-1151.5" font-family="Helvetica,sans-Serif" font-size="10.00"> </text>
<polyline fill="none" stroke="black" points="479.5,-1144.5 517.5,-1144.5 "/>
<text text-anchor="middle" x="498.5" y="-1132.5" font-family="Helvetica,sans-Serif" font-size="10.00"> </text>
</a>
</g>
</g>
<!-- Node8&#45;&gt;Node7 -->
<g id="edge3" class="edge"><title>Node8&#45;&gt;Node7</title>
<path fill="none" stroke="midnightblue" d="M526.071,-1135.98C541.998,-1124.53 560.756,-1107.91 570.5,-1088 603.154,-1021.28 611.938,-837.134 613.627,-696.533"/>
<polygon fill="none" stroke="midnightblue" points="523.857,-1133.25 517.589,-1141.8 527.816,-1139.03 523.857,-1133.25"/>
</g>
<!-- Node14 -->
<g id="node10" class="node"><title>Node14</title>
<g id="a_node10"><a xlink:href="class_f_abstract_widget.html" target="_top" xlink:title="{FAbstractWidget\n|+ commandLineList\l+ commandLineType\l+ disabledObjects\l+ enabledObjects\l+ optionLabel\l+ status\l# componentList\l# description\l# hashKey\l# widgetDepth\l|+ commandLineStringList()\l+ getComponentList()\l+ getDepth()\l+ getDescription()\l+ getHashKey()\l+ isAbstractDisabled()\l+ isAbstractEnabled()\l+ setDisableObjects()\l+ setHashKey()\l+ setWidgetFromXml()\l+ setXmlFromWidget()\l# FCore()\l# FCore()\l}">
<polygon fill="white" stroke="black" points="339.5,-772 339.5,-1060 473.5,-1060 473.5,-772 339.5,-772"/>
<text text-anchor="middle" x="406.5" y="-1048" font-family="Helvetica,sans-Serif" font-size="10.00">FAbstractWidget</text>
<polyline fill="none" stroke="black" points="339.5,-1041 473.5,-1041 "/>
<text text-anchor="start" x="347.5" y="-1029" font-family="Helvetica,sans-Serif" font-size="10.00">+ commandLineList</text>
<text text-anchor="start" x="347.5" y="-1018" font-family="Helvetica,sans-Serif" font-size="10.00">+ commandLineType</text>
<text text-anchor="start" x="347.5" y="-1007" font-family="Helvetica,sans-Serif" font-size="10.00">+ disabledObjects</text>
<text text-anchor="start" x="347.5" y="-996" font-family="Helvetica,sans-Serif" font-size="10.00">+ enabledObjects</text>
<text text-anchor="start" x="347.5" y="-985" font-family="Helvetica,sans-Serif" font-size="10.00">+ optionLabel</text>
<text text-anchor="start" x="347.5" y="-974" font-family="Helvetica,sans-Serif" font-size="10.00">+ status</text>
<text text-anchor="start" x="347.5" y="-963" font-family="Helvetica,sans-Serif" font-size="10.00"># componentList</text>
<text text-anchor="start" x="347.5" y="-952" font-family="Helvetica,sans-Serif" font-size="10.00"># description</text>
<text text-anchor="start" x="347.5" y="-941" font-family="Helvetica,sans-Serif" font-size="10.00"># hashKey</text>
<text text-anchor="start" x="347.5" y="-930" font-family="Helvetica,sans-Serif" font-size="10.00"># widgetDepth</text>
<polyline fill="none" stroke="black" points="339.5,-923 473.5,-923 "/>
<text text-anchor="start" x="347.5" y="-911" font-family="Helvetica,sans-Serif" font-size="10.00">+ commandLineStringList()</text>
<text text-anchor="start" x="347.5" y="-900" font-family="Helvetica,sans-Serif" font-size="10.00">+ getComponentList()</text>
<text text-anchor="start" x="347.5" y="-889" font-family="Helvetica,sans-Serif" font-size="10.00">+ getDepth()</text>
<text text-anchor="start" x="347.5" y="-878" font-family="Helvetica,sans-Serif" font-size="10.00">+ getDescription()</text>
<text text-anchor="start" x="347.5" y="-867" font-family="Helvetica,sans-Serif" font-size="10.00">+ getHashKey()</text>
<text text-anchor="start" x="347.5" y="-856" font-family="Helvetica,sans-Serif" font-size="10.00">+ isAbstractDisabled()</text>
<text text-anchor="start" x="347.5" y="-845" font-family="Helvetica,sans-Serif" font-size="10.00">+ isAbstractEnabled()</text>
<text text-anchor="start" x="347.5" y="-834" font-family="Helvetica,sans-Serif" font-size="10.00">+ setDisableObjects()</text>
<text text-anchor="start" x="347.5" y="-823" font-family="Helvetica,sans-Serif" font-size="10.00">+ setHashKey()</text>
<text text-anchor="start" x="347.5" y="-812" font-family="Helvetica,sans-Serif" font-size="10.00">+ setWidgetFromXml()</text>
<text text-anchor="start" x="347.5" y="-801" font-family="Helvetica,sans-Serif" font-size="10.00">+ setXmlFromWidget()</text>
<text text-anchor="start" x="347.5" y="-790" font-family="Helvetica,sans-Serif" font-size="10.00"># FCore()</text>
<text text-anchor="start" x="347.5" y="-779" font-family="Helvetica,sans-Serif" font-size="10.00"># FCore()</text>
</a>
</g>
</g>
<!-- Node8&#45;&gt;Node14 -->
<g id="edge12" class="edge"><title>Node8&#45;&gt;Node14</title>
<path fill="none" stroke="midnightblue" d="M484.123,-1116.12C477.952,-1100.29 470.309,-1080.68 462.248,-1060.01"/>
<polygon fill="none" stroke="midnightblue" points="480.873,-1117.42 487.766,-1125.47 487.395,-1114.88 480.873,-1117.42"/>
</g>
<!-- Node9 -->
<g id="node5" class="node"><title>Node9</title>
<g id="a_node5"><a xlink:href="class_f_string.html" target="_top" xlink:title="Chaîne de caractères fonctionnelle. ">
<polygon fill="white" stroke="black" points="636.5,-744.5 636.5,-1087.5 728.5,-1087.5 728.5,-744.5 636.5,-744.5"/>
<text text-anchor="middle" x="682.5" y="-1075.5" font-family="Helvetica,sans-Serif" font-size="10.00">FString</text>
<polyline fill="none" stroke="black" points="636.5,-1068.5 728.5,-1068.5 "/>
<text text-anchor="start" x="644.5" y="-1056.5" font-family="Helvetica,sans-Serif" font-size="10.00">&#45; p</text>
<text text-anchor="start" x="644.5" y="-1045.5" font-family="Helvetica,sans-Serif" font-size="10.00">&#45; x</text>
<polyline fill="none" stroke="black" points="636.5,-1038.5 728.5,-1038.5 "/>
<text text-anchor="start" x="644.5" y="-1026.5" font-family="Helvetica,sans-Serif" font-size="10.00">+ FString()</text>
<text text-anchor="start" x="644.5" y="-1015.5" font-family="Helvetica,sans-Serif" font-size="10.00">+ FString()</text>
<text text-anchor="start" x="644.5" y="-1004.5" font-family="Helvetica,sans-Serif" font-size="10.00">+ FString()</text>
<text text-anchor="start" x="644.5" y="-993.5" font-family="Helvetica,sans-Serif" font-size="10.00">+ FString()</text>
<text text-anchor="start" x="644.5" y="-982.5" font-family="Helvetica,sans-Serif" font-size="10.00">+ FString()</text>
<text text-anchor="start" x="644.5" y="-971.5" font-family="Helvetica,sans-Serif" font-size="10.00">+ fromBool()</text>
<text text-anchor="start" x="644.5" y="-960.5" font-family="Helvetica,sans-Serif" font-size="10.00">+ isBoolean()</text>
<text text-anchor="start" x="644.5" y="-949.5" font-family="Helvetica,sans-Serif" font-size="10.00">+ isFalse()</text>
<text text-anchor="start" x="644.5" y="-938.5" font-family="Helvetica,sans-Serif" font-size="10.00">+ isFilled()</text>
<text text-anchor="start" x="644.5" y="-927.5" font-family="Helvetica,sans-Serif" font-size="10.00">+ isMultimodal()</text>
<text text-anchor="start" x="644.5" y="-916.5" font-family="Helvetica,sans-Serif" font-size="10.00">+ isTrue()</text>
<text text-anchor="start" x="644.5" y="-905.5" font-family="Helvetica,sans-Serif" font-size="10.00">+ operator!()</text>
<text text-anchor="start" x="644.5" y="-894.5" font-family="Helvetica,sans-Serif" font-size="10.00">+ operator&amp;()</text>
<text text-anchor="start" x="644.5" y="-883.5" font-family="Helvetica,sans-Serif" font-size="10.00">+ operator&amp;()</text>
<text text-anchor="start" x="644.5" y="-872.5" font-family="Helvetica,sans-Serif" font-size="10.00">+ operator&amp;=()</text>
<text text-anchor="start" x="644.5" y="-861.5" font-family="Helvetica,sans-Serif" font-size="10.00">+ operator&amp;=()</text>
<text text-anchor="start" x="644.5" y="-850.5" font-family="Helvetica,sans-Serif" font-size="10.00">+ operator*()</text>
<text text-anchor="start" x="644.5" y="-839.5" font-family="Helvetica,sans-Serif" font-size="10.00">+ operator|()</text>
<text text-anchor="start" x="644.5" y="-828.5" font-family="Helvetica,sans-Serif" font-size="10.00">+ setMultimodal()</text>
<text text-anchor="start" x="644.5" y="-817.5" font-family="Helvetica,sans-Serif" font-size="10.00">+ split()</text>
<text text-anchor="start" x="644.5" y="-806.5" font-family="Helvetica,sans-Serif" font-size="10.00">+ split()</text>
<text text-anchor="start" x="644.5" y="-795.5" font-family="Helvetica,sans-Serif" font-size="10.00">+ toBool()</text>
<text text-anchor="start" x="644.5" y="-784.5" font-family="Helvetica,sans-Serif" font-size="10.00">+ toggle()</text>
<text text-anchor="start" x="644.5" y="-773.5" font-family="Helvetica,sans-Serif" font-size="10.00">+ toQString()</text>
<text text-anchor="start" x="644.5" y="-762.5" font-family="Helvetica,sans-Serif" font-size="10.00">+ toQStringRef()</text>
<text text-anchor="start" x="644.5" y="-751.5" font-family="Helvetica,sans-Serif" font-size="10.00">&#45; testBool()</text>
</a>
</g>
</g>
<!-- Node9&#45;&gt;Node5 -->
<g id="edge20" class="edge"><title>Node9&#45;&gt;Node5</title>
<path fill="none" stroke="#404040" d="M728.52,-775.262C774.728,-606.203 821.015,-321.487 681.5,-138 650.469,-97.1893 507.844,-68.7141 424.857,-55.2771"/>
<polygon fill="none" stroke="#404040" points="424.67,-55.2476 418.117,-58.2571 412.819,-53.3655 419.372,-50.3561 424.67,-55.2476"/>
<text text-anchor="middle" x="791" y="-310.5" font-family="Helvetica,sans-Serif" font-size="10.00"> &#45;standardMsg</text>
</g>
<!-- Node9&#45;&gt;Node7 -->
<g id="edge4" class="edge"><title>Node9&#45;&gt;Node7</title>
<path fill="none" stroke="#404040" d="M636.479,-782.062C631.355,-763.415 626.802,-744.353 623.5,-726 622.476,-720.311 621.538,-714.52 620.679,-708.662"/>
<polygon fill="none" stroke="#404040" points="620.649,-708.448 615.873,-703.045 619.023,-696.558 623.799,-701.961 620.649,-708.448"/>
<text text-anchor="middle" x="655.5" y="-718" font-family="Helvetica,sans-Serif" font-size="10.00"> +htmlLogPath</text>
</g>
<!-- Node10 -->
<g id="node6" class="node"><title>Node10</title>
<polygon fill="white" stroke="#bfbfbf" points="657.5,-1125.5 657.5,-1182.5 707.5,-1182.5 707.5,-1125.5 657.5,-1125.5"/>
<text text-anchor="middle" x="682.5" y="-1170.5" font-family="Helvetica,sans-Serif" font-size="10.00">QString</text>
<polyline fill="none" stroke="#bfbfbf" points="657.5,-1163.5 707.5,-1163.5 "/>
<text text-anchor="middle" x="682.5" y="-1151.5" font-family="Helvetica,sans-Serif" font-size="10.00"> </text>
<polyline fill="none" stroke="#bfbfbf" points="657.5,-1144.5 707.5,-1144.5 "/>
<text text-anchor="middle" x="682.5" y="-1132.5" font-family="Helvetica,sans-Serif" font-size="10.00"> </text>
</g>
<!-- Node10&#45;&gt;Node9 -->
<g id="edge5" class="edge"><title>Node10&#45;&gt;Node9</title>
<path fill="none" stroke="midnightblue" d="M682.5,-1115.43C682.5,-1107.05 682.5,-1097.64 682.5,-1087.59"/>
<polygon fill="none" stroke="midnightblue" points="679,-1115.47 682.5,-1125.47 686,-1115.47 679,-1115.47"/>
</g>
<!-- Node11&#45;&gt;Node5 -->
<g id="edge7" class="edge"><title>Node11&#45;&gt;Node5</title>
<path fill="none" stroke="midnightblue" d="M560.741,-130.335C553.56,-122.483 545.781,-115.158 537.5,-109 500.213,-81.2747 449.426,-64.8758 412.53,-55.8845"/>
<polygon fill="none" stroke="midnightblue" points="558.509,-133.101 567.718,-138.339 563.785,-128.501 558.509,-133.101"/>
</g>
<!-- Node12 -->
<g id="node8" class="node"><title>Node12</title>
<g id="a_node8"><a xlink:href="class_f_combo_box.html" target="_top" xlink:title="{FComboBox\n|+ comboBoxTranslationHash\l+ signalList\l|+ FComboBox()\l+ FComboBox()\l+ FComboBox()\l+ FComboBox()\l+ FComboBox()\l+ isAbstractEnabled()\l+ setWidgetFromXml()\l+ setXmlFromWidget()\l&#45; fromCurrentIndex()\l}">
<polygon fill="white" stroke="black" points="0,-441.5 0,-597.5 143,-597.5 143,-441.5 0,-441.5"/>
<text text-anchor="middle" x="71.5" y="-585.5" font-family="Helvetica,sans-Serif" font-size="10.00">FComboBox</text>
<polyline fill="none" stroke="black" points="0,-578.5 143,-578.5 "/>
<text text-anchor="start" x="8" y="-566.5" font-family="Helvetica,sans-Serif" font-size="10.00">+ comboBoxTranslationHash</text>
<text text-anchor="start" x="8" y="-555.5" font-family="Helvetica,sans-Serif" font-size="10.00">+ signalList</text>
<polyline fill="none" stroke="black" points="0,-548.5 143,-548.5 "/>
<text text-anchor="start" x="8" y="-536.5" font-family="Helvetica,sans-Serif" font-size="10.00">+ FComboBox()</text>
<text text-anchor="start" x="8" y="-525.5" font-family="Helvetica,sans-Serif" font-size="10.00">+ FComboBox()</text>
<text text-anchor="start" x="8" y="-514.5" font-family="Helvetica,sans-Serif" font-size="10.00">+ FComboBox()</text>
<text text-anchor="start" x="8" y="-503.5" font-family="Helvetica,sans-Serif" font-size="10.00">+ FComboBox()</text>
<text text-anchor="start" x="8" y="-492.5" font-family="Helvetica,sans-Serif" font-size="10.00">+ FComboBox()</text>
<text text-anchor="start" x="8" y="-481.5" font-family="Helvetica,sans-Serif" font-size="10.00">+ isAbstractEnabled()</text>
<text text-anchor="start" x="8" y="-470.5" font-family="Helvetica,sans-Serif" font-size="10.00">+ setWidgetFromXml()</text>
<text text-anchor="start" x="8" y="-459.5" font-family="Helvetica,sans-Serif" font-size="10.00">+ setXmlFromWidget()</text>
<text text-anchor="start" x="8" y="-448.5" font-family="Helvetica,sans-Serif" font-size="10.00">&#45; fromCurrentIndex()</text>
</a>
</g>
</g>
<!-- Node12&#45;&gt;Node5 -->
<g id="edge9" class="edge"><title>Node12&#45;&gt;Node5</title>
<path fill="none" stroke="#404040" d="M86.2536,-441.363C107.134,-333.603 143.844,-149.772 153.5,-138 191.199,-92.037 256.415,-68.5879 304.39,-57.0117"/>
<polygon fill="none" stroke="#404040" points="304.49,-56.989 309.449,-51.7538 316.189,-54.3179 311.229,-59.5531 304.49,-56.989"/>
<text text-anchor="middle" x="200.5" y="-219.5" font-family="Helvetica,sans-Serif" font-size="10.00"> &#45;processTypeWidget</text>
<text text-anchor="middle" x="200.5" y="-208.5" font-family="Helvetica,sans-Serif" font-size="10.00">&#45;memoryUseWidget</text>
<text text-anchor="middle" x="200.5" y="-197.5" font-family="Helvetica,sans-Serif" font-size="10.00">&#45;rapportTypeWidget</text>
</g>
<!-- Node13 -->
<g id="node9" class="node"><title>Node13</title>
<polygon fill="white" stroke="#bfbfbf" points="35,-887.5 35,-944.5 108,-944.5 108,-887.5 35,-887.5"/>
<text text-anchor="middle" x="71.5" y="-932.5" font-family="Helvetica,sans-Serif" font-size="10.00">QComboBox</text>
<polyline fill="none" stroke="#bfbfbf" points="35,-925.5 108,-925.5 "/>
<text text-anchor="middle" x="71.5" y="-913.5" font-family="Helvetica,sans-Serif" font-size="10.00"> </text>
<polyline fill="none" stroke="#bfbfbf" points="35,-906.5 108,-906.5 "/>
<text text-anchor="middle" x="71.5" y="-894.5" font-family="Helvetica,sans-Serif" font-size="10.00"> </text>
</g>
<!-- Node13&#45;&gt;Node12 -->
<g id="edge10" class="edge"><title>Node13&#45;&gt;Node12</title>
<path fill="none" stroke="midnightblue" d="M71.5,-877.205C71.5,-813.148 71.5,-682.029 71.5,-597.851"/>
<polygon fill="none" stroke="midnightblue" points="68.0001,-877.259 71.5,-887.26 75.0001,-877.26 68.0001,-877.259"/>
</g>
<!-- Node14&#45;&gt;Node12 -->
<g id="edge11" class="edge"><title>Node14&#45;&gt;Node12</title>
<path fill="none" stroke="midnightblue" d="M348.783,-763.924C342.934,-756.673 336.523,-749.951 329.5,-744 267.073,-691.106 213.992,-749.817 151.5,-697 121.437,-671.591 102.143,-632.541 90.0545,-597.625"/>
<polygon fill="none" stroke="midnightblue" points="346.074,-766.143 354.911,-771.987 351.647,-761.908 346.074,-766.143"/>
</g>
<!-- Node16 -->
<g id="node12" class="node"><title>Node16</title>
<g id="a_node12"><a xlink:href="class_f_line_edit.html" target="_top" xlink:title="{FLineEdit\n||+ FLineEdit()\l+ FLineEdit()\l+ FLineEdit()\l+ FLineEdit()\l+ FLineEdit()\l+ FLineEdit()\l+ isAbstractEnabled()\l+ setWidgetFromXml()\l+ setXmlFromWidget()\l}">
<polygon fill="white" stroke="black" points="278.5,-447 278.5,-592 394.5,-592 394.5,-447 278.5,-447"/>
<text text-anchor="middle" x="336.5" y="-580" font-family="Helvetica,sans-Serif" font-size="10.00">FLineEdit</text>
<polyline fill="none" stroke="black" points="278.5,-573 394.5,-573 "/>
<text text-anchor="middle" x="336.5" y="-561" font-family="Helvetica,sans-Serif" font-size="10.00"> </text>
<polyline fill="none" stroke="black" points="278.5,-554 394.5,-554 "/>
<text text-anchor="start" x="286.5" y="-542" font-family="Helvetica,sans-Serif" font-size="10.00">+ FLineEdit()</text>
<text text-anchor="start" x="286.5" y="-531" font-family="Helvetica,sans-Serif" font-size="10.00">+ FLineEdit()</text>
<text text-anchor="start" x="286.5" y="-520" font-family="Helvetica,sans-Serif" font-size="10.00">+ FLineEdit()</text>
<text text-anchor="start" x="286.5" y="-509" font-family="Helvetica,sans-Serif" font-size="10.00">+ FLineEdit()</text>
<text text-anchor="start" x="286.5" y="-498" font-family="Helvetica,sans-Serif" font-size="10.00">+ FLineEdit()</text>
<text text-anchor="start" x="286.5" y="-487" font-family="Helvetica,sans-Serif" font-size="10.00">+ FLineEdit()</text>
<text text-anchor="start" x="286.5" y="-476" font-family="Helvetica,sans-Serif" font-size="10.00">+ isAbstractEnabled()</text>
<text text-anchor="start" x="286.5" y="-465" font-family="Helvetica,sans-Serif" font-size="10.00">+ setWidgetFromXml()</text>
<text text-anchor="start" x="286.5" y="-454" font-family="Helvetica,sans-Serif" font-size="10.00">+ setXmlFromWidget()</text>
</a>
</g>
</g>
<!-- Node14&#45;&gt;Node16 -->
<g id="edge16" class="edge"><title>Node14&#45;&gt;Node16</title>
<path fill="none" stroke="midnightblue" d="M379.291,-761.66C368.927,-703.247 357.601,-639.421 349.207,-592.112"/>
<polygon fill="none" stroke="midnightblue" points="375.887,-762.505 381.08,-771.74 382.779,-761.282 375.887,-762.505"/>
</g>
<!-- Node20 -->
<g id="node16" class="node"><title>Node20</title>
<g id="a_node16"><a xlink:href="class_f_check_box.html" target="_top" xlink:title="{FCheckBox\n||+ FCheckBox()\l+ FCheckBox()\l+ FCheckBox()\l+ FCheckBox()\l+ FCheckBox()\l+ FCheckBox()\l+ isAbstractEnabled()\l+ setWidgetFromXml()\l+ setXmlFromWidget()\l&#45; uncheckDisabledBox()\l}">
<polygon fill="white" stroke="black" points="413,-441.5 413,-597.5 534,-597.5 534,-441.5 413,-441.5"/>
<text text-anchor="middle" x="473.5" y="-585.5" font-family="Helvetica,sans-Serif" font-size="10.00">FCheckBox</text>
<polyline fill="none" stroke="black" points="413,-578.5 534,-578.5 "/>
<text text-anchor="middle" x="473.5" y="-566.5" font-family="Helvetica,sans-Serif" font-size="10.00"> </text>
<polyline fill="none" stroke="black" points="413,-559.5 534,-559.5 "/>
<text text-anchor="start" x="421" y="-547.5" font-family="Helvetica,sans-Serif" font-size="10.00">+ FCheckBox()</text>
<text text-anchor="start" x="421" y="-536.5" font-family="Helvetica,sans-Serif" font-size="10.00">+ FCheckBox()</text>
<text text-anchor="start" x="421" y="-525.5" font-family="Helvetica,sans-Serif" font-size="10.00">+ FCheckBox()</text>
<text text-anchor="start" x="421" y="-514.5" font-family="Helvetica,sans-Serif" font-size="10.00">+ FCheckBox()</text>
<text text-anchor="start" x="421" y="-503.5" font-family="Helvetica,sans-Serif" font-size="10.00">+ FCheckBox()</text>
<text text-anchor="start" x="421" y="-492.5" font-family="Helvetica,sans-Serif" font-size="10.00">+ FCheckBox()</text>
<text text-anchor="start" x="421" y="-481.5" font-family="Helvetica,sans-Serif" font-size="10.00">+ isAbstractEnabled()</text>
<text text-anchor="start" x="421" y="-470.5" font-family="Helvetica,sans-Serif" font-size="10.00">+ setWidgetFromXml()</text>
<text text-anchor="start" x="421" y="-459.5" font-family="Helvetica,sans-Serif" font-size="10.00">+ setXmlFromWidget()</text>
<text text-anchor="start" x="421" y="-448.5" font-family="Helvetica,sans-Serif" font-size="10.00">&#45; uncheckDisabledBox()</text>
</a>
</g>
</g>
<!-- Node14&#45;&gt;Node20 -->
<g id="edge23" class="edge"><title>Node14&#45;&gt;Node20</title>
<path fill="none" stroke="midnightblue" d="M432.54,-761.677C442.082,-705.49 452.476,-644.293 460.405,-597.603"/>
<polygon fill="none" stroke="midnightblue" points="429.055,-761.295 430.831,-771.74 435.956,-762.467 429.055,-761.295"/>
</g>
<!-- Node15 -->
<g id="node11" class="node"><title>Node15</title>
<g id="a_node11"><a xlink:href="class_f_line_frame.html" target="_top" xlink:title="Ligne de saisie de texte FLineEdit enrichie de fonctionnalités. ">
<polygon fill="white" stroke="black" points="257,-138.5 257,-283.5 368,-283.5 368,-138.5 257,-138.5"/>
<text text-anchor="middle" x="312.5" y="-271.5" font-family="Helvetica,sans-Serif" font-size="10.00">FLineFrame</text>
<polyline fill="none" stroke="black" points="257,-264.5 368,-264.5 "/>
<text text-anchor="start" x="265" y="-252.5" font-family="Helvetica,sans-Serif" font-size="10.00">&#45; componentList</text>
<text text-anchor="start" x="265" y="-241.5" font-family="Helvetica,sans-Serif" font-size="10.00">&#45; frameLayout</text>
<text text-anchor="start" x="265" y="-230.5" font-family="Helvetica,sans-Serif" font-size="10.00">&#45; label</text>
<text text-anchor="start" x="265" y="-219.5" font-family="Helvetica,sans-Serif" font-size="10.00">&#45; pathCategory</text>
<polyline fill="none" stroke="black" points="257,-212.5 368,-212.5 "/>
<text text-anchor="start" x="265" y="-200.5" font-family="Helvetica,sans-Serif" font-size="10.00">+ FLineFrame()</text>
<text text-anchor="start" x="265" y="-189.5" font-family="Helvetica,sans-Serif" font-size="10.00">+ getComponentList()</text>
<text text-anchor="start" x="265" y="-178.5" font-family="Helvetica,sans-Serif" font-size="10.00">+ getLayout()</text>
<text text-anchor="start" x="265" y="-167.5" font-family="Helvetica,sans-Serif" font-size="10.00">+ getText()</text>
<text text-anchor="start" x="265" y="-156.5" font-family="Helvetica,sans-Serif" font-size="10.00">+ setPathCategory()</text>
<text text-anchor="start" x="265" y="-145.5" font-family="Helvetica,sans-Serif" font-size="10.00">+ setText()</text>
</a>
</g>
</g>
<!-- Node15&#45;&gt;Node5 -->
<g id="edge13" class="edge"><title>Node15&#45;&gt;Node5</title>
<path fill="none" stroke="#404040" d="M331.461,-138.288C334.342,-128.404 337.394,-118.418 340.5,-109 341.237,-106.765 342.008,-104.492 342.802,-102.202"/>
<polygon fill="none" stroke="#404040" points="342.877,-101.993 341.135,-94.9956 346.925,-90.6966 348.666,-97.6942 342.877,-101.993"/>
<text text-anchor="middle" x="365.5" y="-112" font-family="Helvetica,sans-Serif" font-size="10.00"> +logFrame</text>
</g>
<!-- Node16&#45;&gt;Node15 -->
<g id="edge14" class="edge"><title>Node16&#45;&gt;Node15</title>
<path fill="none" stroke="midnightblue" d="M330.092,-436.659C326.36,-389.002 321.699,-329.478 318.112,-283.675"/>
<polygon fill="none" stroke="midnightblue" points="326.603,-436.943 330.873,-446.639 333.582,-436.397 326.603,-436.943"/>
</g>
<!-- Node16&#45;&gt;Node15 -->
<g id="edge19" class="edge"><title>Node16&#45;&gt;Node15</title>
<path fill="none" stroke="#404040" d="M330.873,-446.639C327.336,-401.471 322.759,-343.014 319.058,-295.748"/>
<polygon fill="none" stroke="#404040" points="319.049,-295.639 314.593,-289.969 318.112,-283.675 322.569,-289.345 319.049,-295.639"/>
<text text-anchor="middle" x="341" y="-310.5" font-family="Helvetica,sans-Serif" font-size="10.00"> &#45;lineEdit</text>
</g>
<!-- Node17 -->
<g id="node13" class="node"><title>Node17</title>
<polygon fill="white" stroke="#bfbfbf" points="262,-887.5 262,-944.5 321,-944.5 321,-887.5 262,-887.5"/>
<text text-anchor="middle" x="291.5" y="-932.5" font-family="Helvetica,sans-Serif" font-size="10.00">QLineEdit</text>
<polyline fill="none" stroke="#bfbfbf" points="262,-925.5 321,-925.5 "/>
<text text-anchor="middle" x="291.5" y="-913.5" font-family="Helvetica,sans-Serif" font-size="10.00"> </text>
<polyline fill="none" stroke="#bfbfbf" points="262,-906.5 321,-906.5 "/>
<text text-anchor="middle" x="291.5" y="-894.5" font-family="Helvetica,sans-Serif" font-size="10.00"> </text>
</g>
<!-- Node17&#45;&gt;Node16 -->
<g id="edge15" class="edge"><title>Node17&#45;&gt;Node16</title>
<path fill="none" stroke="midnightblue" d="M295.838,-876.967C303.326,-811.322 318.79,-675.757 328.341,-592.023"/>
<polygon fill="none" stroke="midnightblue" points="292.32,-876.927 294.664,-887.26 299.275,-877.721 292.32,-876.927"/>
</g>
<!-- Node18 -->
<g id="node14" class="node"><title>Node18</title>
<g id="a_node14"><a xlink:href="class_q_tool_dir_button.html" target="_top" xlink:title="{QToolDirButton\n||+ QToolDirButton()\l+ QToolDirButton()\l}">
<polygon fill="white" stroke="black" points="161,-485.5 161,-553.5 260,-553.5 260,-485.5 161,-485.5"/>
<text text-anchor="middle" x="210.5" y="-541.5" font-family="Helvetica,sans-Serif" font-size="10.00">QToolDirButton</text>
<polyline fill="none" stroke="black" points="161,-534.5 260,-534.5 "/>
<text text-anchor="middle" x="210.5" y="-522.5" font-family="Helvetica,sans-Serif" font-size="10.00"> </text>
<polyline fill="none" stroke="black" points="161,-515.5 260,-515.5 "/>
<text text-anchor="start" x="169" y="-503.5" font-family="Helvetica,sans-Serif" font-size="10.00">+ QToolDirButton()</text>
<text text-anchor="start" x="169" y="-492.5" font-family="Helvetica,sans-Serif" font-size="10.00">+ QToolDirButton()</text>
</a>
</g>
</g>
<!-- Node18&#45;&gt;Node15 -->
<g id="edge17" class="edge"><title>Node18&#45;&gt;Node15</title>
<path fill="none" stroke="#404040" d="M219.702,-485.206C231.734,-442.455 253.945,-366.129 276.5,-302 277.329,-299.644 278.183,-297.258 279.056,-294.854"/>
<polygon fill="none" stroke="#404040" points="279.088,-294.767 277.423,-287.751 283.26,-283.516 284.924,-290.532 279.088,-294.767"/>
<text text-anchor="middle" x="296.5" y="-316" font-family="Helvetica,sans-Serif" font-size="10.00"> &#45;oButton</text>
<text text-anchor="middle" x="296.5" y="-305" font-family="Helvetica,sans-Serif" font-size="10.00">&#45;sButton</text>
</g>
<!-- Node19 -->
<g id="node15" class="node"><title>Node19</title>
<polygon fill="white" stroke="#bfbfbf" points="173,-887.5 173,-944.5 244,-944.5 244,-887.5 173,-887.5"/>
<text text-anchor="middle" x="208.5" y="-932.5" font-family="Helvetica,sans-Serif" font-size="10.00">QToolButton</text>
<polyline fill="none" stroke="#bfbfbf" points="173,-925.5 244,-925.5 "/>
<text text-anchor="middle" x="208.5" y="-913.5" font-family="Helvetica,sans-Serif" font-size="10.00"> </text>
<polyline fill="none" stroke="#bfbfbf" points="173,-906.5 244,-906.5 "/>
<text text-anchor="middle" x="208.5" y="-894.5" font-family="Helvetica,sans-Serif" font-size="10.00"> </text>
</g>
<!-- Node19&#45;&gt;Node18 -->
<g id="edge18" class="edge"><title>Node19&#45;&gt;Node18</title>
<path fill="none" stroke="midnightblue" d="M208.692,-877.053C209.083,-800.034 209.963,-626.517 210.332,-553.68"/>
<polygon fill="none" stroke="midnightblue" points="205.191,-877.242 208.641,-887.26 212.191,-877.277 205.191,-877.242"/>
</g>
<!-- Node20&#45;&gt;Node5 -->
<g id="edge21" class="edge"><title>Node20&#45;&gt;Node5</title>
<path fill="none" stroke="#404040" d="M453.955,-441.435C442.757,-395.828 428.907,-336.824 418.5,-284 403.275,-206.718 411.998,-184.777 390.5,-109 389.863,-106.753 389.167,-104.478 388.427,-102.193"/>
<polygon fill="none" stroke="#404040" points="388.391,-102.09 382.627,-97.756 384.411,-90.769 390.175,-95.103 388.391,-102.09"/>
<text text-anchor="middle" x="464" y="-225" font-family="Helvetica,sans-Serif" font-size="10.00"> +enchainerRapports</text>
<text text-anchor="middle" x="464" y="-214" font-family="Helvetica,sans-Serif" font-size="10.00">&#45;consoleCheckBox</text>
<text text-anchor="middle" x="464" y="-203" font-family="Helvetica,sans-Serif" font-size="10.00">+rapportEntier</text>
<text text-anchor="middle" x="464" y="-192" font-family="Helvetica,sans-Serif" font-size="10.00">&#45;logCheckBox</text>
</g>
<!-- Node21 -->
<g id="node17" class="node"><title>Node21</title>
<polygon fill="white" stroke="#bfbfbf" points="491.5,-887.5 491.5,-944.5 561.5,-944.5 561.5,-887.5 491.5,-887.5"/>
<text text-anchor="middle" x="526.5" y="-932.5" font-family="Helvetica,sans-Serif" font-size="10.00">QCheckBox</text>
<polyline fill="none" stroke="#bfbfbf" points="491.5,-925.5 561.5,-925.5 "/>
<text text-anchor="middle" x="526.5" y="-913.5" font-family="Helvetica,sans-Serif" font-size="10.00"> </text>
<polyline fill="none" stroke="#bfbfbf" points="491.5,-906.5 561.5,-906.5 "/>
<text text-anchor="middle" x="526.5" y="-894.5" font-family="Helvetica,sans-Serif" font-size="10.00"> </text>
</g>
<!-- Node21&#45;&gt;Node20 -->
<g id="edge22" class="edge"><title>Node21&#45;&gt;Node20</title>
<path fill="none" stroke="midnightblue" d="M521.422,-877.205C512.816,-813.148 495.201,-682.029 483.892,-597.851"/>
<polygon fill="none" stroke="midnightblue" points="517.973,-877.815 522.773,-887.26 524.91,-876.883 517.973,-877.815"/>
</g>
</g>
</svg>
        <g id="navigator" transform="translate(0 0)" fill="#404254">
                <rect fill="#f2f5e9" fill-opacity="0.5" stroke="#606060" stroke-width=".5" x="0" y="0" width="60" height="60"/>
                <use id="zoomplus" xlink:href="#zoomPlus" x="17" y="9" onmousedown="handleZoom(evt,'in')"/>
                <use id="zoomminus" xlink:href="#zoomMin" x="42" y="9" onmousedown="handleZoom(evt,'out')"/>
                <use id="reset" xlink:href="#resetDef" x="30" y="36" onmousedown="handleReset()"/>
                <g id="arrowUp" xlink:href="#dirArrow" transform="translate(30 24)" onmousedown="handlePan(0,-1)">
                  <use xlink:href="#rim" fill="#404040">
                        <set attributeName="fill" to="#808080" begin="arrowUp.mouseover" end="arrowUp.mouseout"/>
                  </use>
                  <path fill="none" stroke="white" stroke-width="1.5" d="M0,-3.0v7 M-2.5,-0.5L0,-3.0L2.5,-0.5"/>
                </g>
                <g id="arrowRight" xlink:href="#dirArrow" transform="rotate(90) translate(36 -43)" onmousedown="handlePan(1,0)">
                  <use xlink:href="#rim" fill="#404040">
                        <set attributeName="fill" to="#808080" begin="arrowRight.mouseover" end="arrowRight.mouseout"/>
                  </use>
                  <path fill="none" stroke="white" stroke-width="1.5" d="M0,-3.0v7 M-2.5,-0.5L0,-3.0L2.5,-0.5"/>
                </g>
                <g id="arrowDown" xlink:href="#dirArrow" transform="rotate(180) translate(-30 -48)" onmousedown="handlePan(0,1)">
                  <use xlink:href="#rim" fill="#404040">
                        <set attributeName="fill" to="#808080" begin="arrowDown.mouseover" end="arrowDown.mouseout"/>
                  </use>
                  <path fill="none" stroke="white" stroke-width="1.5" d="M0,-3.0v7 M-2.5,-0.5L0,-3.0L2.5,-0.5"/>
                </g>
                <g id="arrowLeft" xlink:href="#dirArrow" transform="rotate(270) translate(-36 17)" onmousedown="handlePan(-1,0)">
                  <use xlink:href="#rim" fill="#404040">
                        <set attributeName="fill" to="#808080" begin="arrowLeft.mouseover" end="arrowLeft.mouseout"/>
                  </use>
                  <path fill="none" stroke="white" stroke-width="1.5" d="M0,-3.0v7 M-2.5,-0.5L0,-3.0L2.5,-0.5"/>
                </g>
        </g>
        <svg viewBox="0 0 15 15" width="100%" height="30px" preserveAspectRatio="xMaxYMin meet">
         <g id="arrow_out" transform="scale(0.3 0.3)">
          <a xlink:href="classprocess_page__coll__graph_org.svg" target="_base">
           <rect id="button" ry="5" rx="5" y="6" x="6" height="38" width="38"
                fill="#f2f5e9" fill-opacity="0.5" stroke="#606060" stroke-width="1.0"/>
           <path id="arrow"
             d="M 11.500037,31.436501 C 11.940474,20.09759 22.043105,11.32322 32.158766,21.979434 L 37.068811,17.246167 C 37.068811,17.246167 37.088388,32 37.088388,32 L 22.160133,31.978069 C 22.160133,31.978069 26.997745,27.140456 26.997745,27.140456 C 18.528582,18.264221 13.291696,25.230495 11.500037,31.436501 z"
             style="fill:#404040;"/>
          </a>
         </g>
        </svg>
</svg>
