<?xml version="1.0" encoding="UTF-8" standalone="no"?>
<!DOCTYPE svg PUBLIC "-//W3C//DTD SVG 1.1//EN"
 "http://www.w3.org/Graphics/SVG/1.1/DTD/svg11.dtd">
<!-- Generated by graphviz version 2.38.0 (20140413.2041)
 -->
<!-- Title: FCheckBox Pages: 1 -->
<svg width="230pt" height="584pt"
 viewBox="0.00 0.00 230.00 584.00" xmlns="http://www.w3.org/2000/svg" xmlns:xlink="http://www.w3.org/1999/xlink">
<g id="graph0" class="graph" transform="scale(1 1) rotate(0) translate(4 580)">
<title>FCheckBox</title>
<polygon fill="white" stroke="none" points="-4,4 -4,-580 226,-580 226,4 -4,4"/>
<!-- Node4 -->
<g id="node1" class="node"><title>Node4</title>
<polygon fill="#bfbfbf" stroke="black" points="34.5,-0.5 34.5,-156.5 155.5,-156.5 155.5,-0.5 34.5,-0.5"/>
<text text-anchor="middle" x="95" y="-144.5" font-family="Helvetica,sans-Serif" font-size="10.00">FCheckBox</text>
<polyline fill="none" stroke="black" points="34.5,-137.5 155.5,-137.5 "/>
<text text-anchor="middle" x="95" y="-125.5" font-family="Helvetica,sans-Serif" font-size="10.00"> </text>
<polyline fill="none" stroke="black" points="34.5,-118.5 155.5,-118.5 "/>
<text text-anchor="start" x="42.5" y="-106.5" font-family="Helvetica,sans-Serif" font-size="10.00">+ FCheckBox()</text>
<text text-anchor="start" x="42.5" y="-95.5" font-family="Helvetica,sans-Serif" font-size="10.00">+ FCheckBox()</text>
<text text-anchor="start" x="42.5" y="-84.5" font-family="Helvetica,sans-Serif" font-size="10.00">+ FCheckBox()</text>
<text text-anchor="start" x="42.5" y="-73.5" font-family="Helvetica,sans-Serif" font-size="10.00">+ FCheckBox()</text>
<text text-anchor="start" x="42.5" y="-62.5" font-family="Helvetica,sans-Serif" font-size="10.00">+ FCheckBox()</text>
<text text-anchor="start" x="42.5" y="-51.5" font-family="Helvetica,sans-Serif" font-size="10.00">+ FCheckBox()</text>
<text text-anchor="start" x="42.5" y="-40.5" font-family="Helvetica,sans-Serif" font-size="10.00">+ isAbstractEnabled()</text>
<text text-anchor="start" x="42.5" y="-29.5" font-family="Helvetica,sans-Serif" font-size="10.00">+ setWidgetFromXml()</text>
<text text-anchor="start" x="42.5" y="-18.5" font-family="Helvetica,sans-Serif" font-size="10.00">+ setXmlFromWidget()</text>
<text text-anchor="start" x="42.5" y="-7.5" font-family="Helvetica,sans-Serif" font-size="10.00">&#45; uncheckDisabledBox()</text>
</g>
<!-- Node5 -->
<g id="node2" class="node"><title>Node5</title>
<polygon fill="white" stroke="#bfbfbf" points="0,-309 0,-366 70,-366 70,-309 0,-309"/>
<text text-anchor="middle" x="35" y="-354" font-family="Helvetica,sans-Serif" font-size="10.00">QCheckBox</text>
<polyline fill="none" stroke="#bfbfbf" points="0,-347 70,-347 "/>
<text text-anchor="middle" x="35" y="-335" font-family="Helvetica,sans-Serif" font-size="10.00"> </text>
<polyline fill="none" stroke="#bfbfbf" points="0,-328 70,-328 "/>
<text text-anchor="middle" x="35" y="-316" font-family="Helvetica,sans-Serif" font-size="10.00"> </text>
</g>
<!-- Node5&#45;&gt;Node4 -->
<g id="edge1" class="edge"><title>Node5&#45;&gt;Node4</title>
<path fill="none" stroke="midnightblue" d="M43.7338,-299.09C52.4152,-261.905 65.9873,-203.771 76.9866,-156.657"/>
<polygon fill="none" stroke="midnightblue" points="40.2863,-298.463 41.4211,-308.996 47.103,-300.054 40.2863,-298.463"/>
</g>
<!-- Node6 -->
<g id="node3" class="node"><title>Node6</title>
<g id="a_node3"><a xlink:href="class_f_abstract_widget.html" target="_top" xlink:title="{FAbstractWidget\n|+ commandLineList\l+ commandLineType\l+ disabledObjects\l+ enabledObjects\l+ optionLabel\l+ status\l# componentList\l# description\l# hashKey\l# widgetDepth\l|+ commandLineStringList()\l+ getComponentList()\l+ getDepth()\l+ getDescription()\l+ getHashKey()\l+ isAbstractDisabled()\l+ isAbstractEnabled()\l+ setDisableObjects()\l+ setHashKey()\l+ setWidgetFromXml()\l+ setXmlFromWidget()\l# FCore()\l# FCore()\l}">
<polygon fill="white" stroke="black" points="88,-193.5 88,-481.5 222,-481.5 222,-193.5 88,-193.5"/>
<text text-anchor="middle" x="155" y="-469.5" font-family="Helvetica,sans-Serif" font-size="10.00">FAbstractWidget</text>
<polyline fill="none" stroke="black" points="88,-462.5 222,-462.5 "/>
<text text-anchor="start" x="96" y="-450.5" font-family="Helvetica,sans-Serif" font-size="10.00">+ commandLineList</text>
<text text-anchor="start" x="96" y="-439.5" font-family="Helvetica,sans-Serif" font-size="10.00">+ commandLineType</text>
<text text-anchor="start" x="96" y="-428.5" font-family="Helvetica,sans-Serif" font-size="10.00">+ disabledObjects</text>
<text text-anchor="start" x="96" y="-417.5" font-family="Helvetica,sans-Serif" font-size="10.00">+ enabledObjects</text>
<text text-anchor="start" x="96" y="-406.5" font-family="Helvetica,sans-Serif" font-size="10.00">+ optionLabel</text>
<text text-anchor="start" x="96" y="-395.5" font-family="Helvetica,sans-Serif" font-size="10.00">+ status</text>
<text text-anchor="start" x="96" y="-384.5" font-family="Helvetica,sans-Serif" font-size="10.00"># componentList</text>
<text text-anchor="start" x="96" y="-373.5" font-family="Helvetica,sans-Serif" font-size="10.00"># description</text>
<text text-anchor="start" x="96" y="-362.5" font-family="Helvetica,sans-Serif" font-size="10.00"># hashKey</text>
<text text-anchor="start" x="96" y="-351.5" font-family="Helvetica,sans-Serif" font-size="10.00"># widgetDepth</text>
<polyline fill="none" stroke="black" points="88,-344.5 222,-344.5 "/>
<text text-anchor="start" x="96" y="-332.5" font-family="Helvetica,sans-Serif" font-size="10.00">+ commandLineStringList()</text>
<text text-anchor="start" x="96" y="-321.5" font-family="Helvetica,sans-Serif" font-size="10.00">+ getComponentList()</text>
<text text-anchor="start" x="96" y="-310.5" font-family="Helvetica,sans-Serif" font-size="10.00">+ getDepth()</text>
<text text-anchor="start" x="96" y="-299.5" font-family="Helvetica,sans-Serif" font-size="10.00">+ getDescription()</text>
<text text-anchor="start" x="96" y="-288.5" font-family="Helvetica,sans-Serif" font-size="10.00">+ getHashKey()</text>
<text text-anchor="start" x="96" y="-277.5" font-family="Helvetica,sans-Serif" font-size="10.00">+ isAbstractDisabled()</text>
<text text-anchor="start" x="96" y="-266.5" font-family="Helvetica,sans-Serif" font-size="10.00">+ isAbstractEnabled()</text>
<text text-anchor="start" x="96" y="-255.5" font-family="Helvetica,sans-Serif" font-size="10.00">+ setDisableObjects()</text>
<text text-anchor="start" x="96" y="-244.5" font-family="Helvetica,sans-Serif" font-size="10.00">+ setHashKey()</text>
<text text-anchor="start" x="96" y="-233.5" font-family="Helvetica,sans-Serif" font-size="10.00">+ setWidgetFromXml()</text>
<text text-anchor="start" x="96" y="-222.5" font-family="Helvetica,sans-Serif" font-size="10.00">+ setXmlFromWidget()</text>
<text text-anchor="start" x="96" y="-211.5" font-family="Helvetica,sans-Serif" font-size="10.00"># FCore()</text>
<text text-anchor="start" x="96" y="-200.5" font-family="Helvetica,sans-Serif" font-size="10.00"># FCore()</text>
</a>
</g>
</g>
<!-- Node6&#45;&gt;Node4 -->
<g id="edge2" class="edge"><title>Node6&#45;&gt;Node4</title>
<path fill="none" stroke="midnightblue" d="M119.253,-183.384C117.122,-174.258 115.032,-165.303 113.027,-156.714"/>
<polygon fill="none" stroke="midnightblue" points="115.897,-184.404 121.579,-193.346 122.714,-182.812 115.897,-184.404"/>
</g>
<!-- Node7 -->
<g id="node4" class="node"><title>Node7</title>
<g id="a_node4"><a xlink:href="classflags.html" target="_top" xlink:title="{flags\n||}">
<polygon fill="white" stroke="black" points="136,-518.5 136,-575.5 174,-575.5 174,-518.5 136,-518.5"/>
<text text-anchor="middle" x="155" y="-563.5" font-family="Helvetica,sans-Serif" font-size="10.00">flags</text>
<polyline fill="none" stroke="black" points="136,-556.5 174,-556.5 "/>
<text text-anchor="middle" x="155" y="-544.5" font-family="Helvetica,sans-Serif" font-size="10.00"> </text>
<polyline fill="none" stroke="black" points="136,-537.5 174,-537.5 "/>
<text text-anchor="middle" x="155" y="-525.5" font-family="Helvetica,sans-Serif" font-size="10.00"> </text>
</a>
</g>
</g>
<!-- Node7&#45;&gt;Node6 -->
<g id="edge3" class="edge"><title>Node7&#45;&gt;Node6</title>
<path fill="none" stroke="midnightblue" d="M155,-508.377C155,-500.29 155,-491.284 155,-481.756"/>
<polygon fill="none" stroke="midnightblue" points="151.5,-508.446 155,-518.446 158.5,-508.446 151.5,-508.446"/>
</g>
</g>
</svg>
