<?xml version="1.0" encoding="UTF-8" standalone="no"?>
<!DOCTYPE svg PUBLIC "-//W3C//DTD SVG 1.1//EN"
 "http://www.w3.org/Graphics/SVG/1.1/DTD/svg11.dtd">
<!-- Generated by graphviz version 2.38.0 (20140413.2041)
 -->
<!-- Title: FDialog Pages: 1 -->
<svg width="120pt" height="287pt"
 viewBox="0.00 0.00 120.00 287.00" xmlns="http://www.w3.org/2000/svg" xmlns:xlink="http://www.w3.org/1999/xlink">
<g id="graph0" class="graph" transform="scale(1 1) rotate(0) translate(4 283)">
<title>FDialog</title>
<polygon fill="white" stroke="none" points="-4,4 -4,-283 116,-283 116,4 -4,4"/>
<!-- Node4 -->
<g id="node1" class="node"><title>Node4</title>
<polygon fill="#bfbfbf" stroke="black" points="12,-0.5 12,-90.5 100,-90.5 100,-0.5 12,-0.5"/>
<text text-anchor="middle" x="56" y="-78.5" font-family="Helvetica,sans-Serif" font-size="10.00">FDialog</text>
<polyline fill="none" stroke="black" points="12,-71.5 100,-71.5 "/>
<text text-anchor="start" x="20" y="-59.5" font-family="Helvetica,sans-Serif" font-size="10.00">+ fileRank</text>
<text text-anchor="start" x="20" y="-48.5" font-family="Helvetica,sans-Serif" font-size="10.00">+ outputType</text>
<text text-anchor="start" x="20" y="-37.5" font-family="Helvetica,sans-Serif" font-size="10.00">+ process</text>
<polyline fill="none" stroke="black" points="12,-30.5 100,-30.5 "/>
<text text-anchor="start" x="20" y="-18.5" font-family="Helvetica,sans-Serif" font-size="10.00">+ killProcess()</text>
<text text-anchor="start" x="20" y="-7.5" font-family="Helvetica,sans-Serif" font-size="10.00">+ textAppend()</text>
</g>
<!-- Node5 -->
<g id="node2" class="node"><title>Node5</title>
<g id="a_node2"><a xlink:href="class_f_dialog_connections.html" target="_top" xlink:title="{FDialogConnections\n||}">
<polygon fill="white" stroke="black" points="-7.10543e-15,-127.5 -7.10543e-15,-184.5 112,-184.5 112,-127.5 -7.10543e-15,-127.5"/>
<text text-anchor="middle" x="56" y="-172.5" font-family="Helvetica,sans-Serif" font-size="10.00">FDialogConnections</text>
<polyline fill="none" stroke="black" points="-7.10543e-15,-165.5 112,-165.5 "/>
<text text-anchor="middle" x="56" y="-153.5" font-family="Helvetica,sans-Serif" font-size="10.00"> </text>
<polyline fill="none" stroke="black" points="-7.10543e-15,-146.5 112,-146.5 "/>
<text text-anchor="middle" x="56" y="-134.5" font-family="Helvetica,sans-Serif" font-size="10.00"> </text>
</a>
</g>
</g>
<!-- Node5&#45;&gt;Node4 -->
<g id="edge1" class="edge"><title>Node5&#45;&gt;Node4</title>
<path fill="none" stroke="midnightblue" d="M56,-117.214C56,-108.609 56,-99.3943 56,-90.5541"/>
<polygon fill="none" stroke="midnightblue" points="52.5001,-117.34 56,-127.34 59.5001,-117.34 52.5001,-117.34"/>
</g>
<!-- Node6 -->
<g id="node3" class="node"><title>Node6</title>
<polygon fill="white" stroke="#bfbfbf" points="28.5,-221.5 28.5,-278.5 83.5,-278.5 83.5,-221.5 28.5,-221.5"/>
<text text-anchor="middle" x="56" y="-266.5" font-family="Helvetica,sans-Serif" font-size="10.00">QDialog</text>
<polyline fill="none" stroke="#bfbfbf" points="28.5,-259.5 83.5,-259.5 "/>
<text text-anchor="middle" x="56" y="-247.5" font-family="Helvetica,sans-Serif" font-size="10.00"> </text>
<polyline fill="none" stroke="#bfbfbf" points="28.5,-240.5 83.5,-240.5 "/>
<text text-anchor="middle" x="56" y="-228.5" font-family="Helvetica,sans-Serif" font-size="10.00"> </text>
</g>
<!-- Node6&#45;&gt;Node5 -->
<g id="edge2" class="edge"><title>Node6&#45;&gt;Node5</title>
<path fill="none" stroke="midnightblue" d="M56,-211.209C56,-202.293 56,-192.951 56,-184.584"/>
<polygon fill="none" stroke="midnightblue" points="52.5001,-211.397 56,-221.397 59.5001,-211.397 52.5001,-211.397"/>
</g>
</g>
</svg>
