<?xml version="1.0" encoding="UTF-8" standalone="no"?>
<!DOCTYPE svg PUBLIC "-//W3C//DTD SVG 1.1//EN"
 "http://www.w3.org/Graphics/SVG/1.1/DTD/svg11.dtd">
<!-- Generated by graphviz version 2.38.0 (20140413.2041)
 -->
<!-- Title: Altair::parseProjectFile Pages: 1 -->
<!--zoomable 394 -->
<svg id="main" version="1.1" xmlns="http://www.w3.org/2000/svg" xmlns:xlink="http://www.w3.org/1999/xlink" xml:space="preserve" onload="init(evt)">
<style type="text/css"><![CDATA[
.edge:hover path { stroke: red; }
.edge:hover polygon { stroke: red; fill: red; }
]]></style>
<script type="text/javascript"><![CDATA[
var edges = document.getElementsByTagName('g');
if (edges && edges.length) {
  for (var i=0;i<edges.length;i++) {
    if (edges[i].id.substr(0,4)=='edge') {
      edges[i].setAttribute('class','edge');
    }
  }
}
]]></script>
        <defs>
                <circle id="rim" cx="0" cy="0" r="7"/>
                <circle id="rim2" cx="0" cy="0" r="3.5"/>
                <g id="zoomPlus">
                        <use xlink:href="#rim" fill="#404040">
                                <set attributeName="fill" to="#808080" begin="zoomplus.mouseover" end="zoomplus.mouseout"/>
                        </use>
                        <path d="M-4,0h8M0,-4v8" fill="none" stroke="white" stroke-width="1.5" pointer-events="none"/>
                </g>
                <g id="zoomMin">
                        <use xlink:href="#rim" fill="#404040">
                                <set attributeName="fill" to="#808080" begin="zoomminus.mouseover" end="zoomminus.mouseout"/>
                        </use>
                        <path d="M-4,0h8" fill="none" stroke="white" stroke-width="1.5" pointer-events="none"/>
                </g>
                <g id="dirArrow">
                        <path fill="none" stroke="white" stroke-width="1.5" d="M0,-3.0v7 M-2.5,-0.5L0,-3.0L2.5,-0.5"/>
                </g>
               <g id="resetDef">
                       <use xlink:href="#rim2" fill="#404040">
                               <set attributeName="fill" to="#808080" begin="reset.mouseover" end="reset.mouseout"/>
                       </use>
               </g>
        </defs>

<script type="text/javascript">
var viewWidth = 1002;
var viewHeight = 394;
var sectionId = 'dynsection-41';
</script>
<script xlink:href="svgpan.js"/>
<svg id="graph" class="graph">
<g id="viewport">
<title>Altair::parseProjectFile</title>
<polygon fill="white" stroke="none" points="-4,4 -4,-389.5 998,-389.5 998,4 -4,4"/>
<!-- Node579 -->
<g id="node1" class="node"><title>Node579</title>
<polygon fill="#bfbfbf" stroke="black" points="0,-208.5 0,-227.5 116,-227.5 116,-208.5 0,-208.5"/>
<text text-anchor="middle" x="58" y="-215.5" font-family="Helvetica,sans-Serif" font-size="10.00">Altair::parseProjectFile</text>
</g>
<!-- Node580 -->
<g id="node2" class="node"><title>Node580</title>
<g id="a_node2"><a xlink:href="class_altair.html#ac9d7d8e7cebf70212818f1a8ba7d7d78" target="_top" xlink:title="Rafraîchit le gestionnaire de projet à la droite de l&#39;interface. Fonction globale par défaut...">
<polygon fill="white" stroke="black" points="152,-208.5 152,-227.5 295,-227.5 295,-208.5 152,-208.5"/>
<text text-anchor="middle" x="223.5" y="-215.5" font-family="Helvetica,sans-Serif" font-size="10.00">Altair::refreshProjectManager</text>
</a>
</g>
</g>
<!-- Node579&#45;&gt;Node580 -->
<g id="edge1" class="edge"><title>Node579&#45;&gt;Node580</title>
<path fill="none" stroke="midnightblue" d="M126.321,-218C134.737,-218 143.365,-218 151.83,-218"/>
<polygon fill="midnightblue" stroke="midnightblue" points="126.184,-214.5 116.184,-218 126.184,-221.5 126.184,-214.5"/>
</g>
<!-- Node581 -->
<g id="node3" class="node"><title>Node581</title>
<g id="a_node3"><a xlink:href="class_altair.html#acaa583766e1c062ea311847fcdd35374" target="_top" xlink:title="Efface les onglets, le gestionnaire de projet et lit le projet .alt en cours. ">
<polygon fill="white" stroke="black" points="331,-254 331,-284 453,-284 453,-254 331,-254"/>
<text text-anchor="start" x="339" y="-272" font-family="Helvetica,sans-Serif" font-size="10.00">Altair::clearInterfaceAnd</text>
<text text-anchor="middle" x="392" y="-261" font-family="Helvetica,sans-Serif" font-size="10.00">ParseProject</text>
</a>
</g>
</g>
<!-- Node580&#45;&gt;Node581 -->
<g id="edge2" class="edge"><title>Node580&#45;&gt;Node581</title>
<path fill="none" stroke="midnightblue" d="M265.632,-230.599C288.682,-237.659 317.58,-246.511 341.82,-253.936"/>
<polygon fill="midnightblue" stroke="midnightblue" points="266.404,-227.175 255.817,-227.593 264.354,-233.868 266.404,-227.175"/>
</g>
<!-- Node585 -->
<g id="node7" class="node"><title>Node585</title>
<g id="a_node7"><a xlink:href="class_altair.html#a2eb0a89c3223b2df1c01d2b3b7d1c0eb" target="_top" xlink:title="Rafraichir le projet .alt après avoir actualisé l&#39;interface. ">
<polygon fill="white" stroke="black" points="339.5,-158.5 339.5,-177.5 444.5,-177.5 444.5,-158.5 339.5,-158.5"/>
<text text-anchor="middle" x="392" y="-165.5" font-family="Helvetica,sans-Serif" font-size="10.00">Altair::updateProject</text>
</a>
</g>
</g>
<!-- Node580&#45;&gt;Node585 -->
<g id="edge6" class="edge"><title>Node580&#45;&gt;Node585</title>
<path fill="none" stroke="midnightblue" d="M265.996,-205.539C294.822,-196.882 332.661,-185.519 359.126,-177.572"/>
<polygon fill="midnightblue" stroke="midnightblue" points="264.78,-202.249 256.209,-208.478 266.793,-208.954 264.78,-202.249"/>
</g>
<!-- Node582 -->
<g id="node4" class="node"><title>Node582</title>
<g id="a_node4"><a xlink:href="class_altair.html#aa341707131924eff160bcab41422d1ec" target="_top" xlink:title="Code commun à différentes fonctions lancées pour l&#39;analyse des projets. ">
<polygon fill="white" stroke="black" points="489,-316.5 489,-335.5 665,-335.5 665,-316.5 489,-316.5"/>
<text text-anchor="middle" x="577" y="-323.5" font-family="Helvetica,sans-Serif" font-size="10.00">Altair::openProjectFileCommonCode</text>
</a>
</g>
</g>
<!-- Node581&#45;&gt;Node582 -->
<g id="edge3" class="edge"><title>Node581&#45;&gt;Node582</title>
<path fill="none" stroke="midnightblue" d="M444.56,-287.38C458.891,-292.309 474.5,-297.513 489,-302 505.465,-307.096 523.843,-312.243 539.45,-316.457"/>
<polygon fill="midnightblue" stroke="midnightblue" points="445.467,-283.99 434.872,-284.023 443.175,-290.605 445.467,-283.99"/>
</g>
<!-- Node583 -->
<g id="node5" class="node"><title>Node583</title>
<g id="a_node5"><a xlink:href="class_altair.html#ab98d384297c6b94ff65a683eb5f99633" target="_top" xlink:title="Ouvre le projet, le décode en appelant parseProjectFile et actualise l&#39;interface &#160;en conséquence...">
<polygon fill="white" stroke="black" points="701,-355 701,-385 842,-385 842,-355 701,-355"/>
<text text-anchor="start" x="709" y="-373" font-family="Helvetica,sans-Serif" font-size="10.00">Altair::on_openProjectButton</text>
<text text-anchor="middle" x="771.5" y="-362" font-family="Helvetica,sans-Serif" font-size="10.00">_clicked</text>
</a>
</g>
</g>
<!-- Node582&#45;&gt;Node583 -->
<g id="edge4" class="edge"><title>Node582&#45;&gt;Node583</title>
<path fill="none" stroke="midnightblue" d="M629.683,-337.813C652.711,-343.077 680.109,-349.339 704.589,-354.935"/>
<polygon fill="midnightblue" stroke="midnightblue" points="630.298,-334.364 619.77,-335.547 628.738,-341.188 630.298,-334.364"/>
</g>
<!-- Node584 -->
<g id="node6" class="node"><title>Node584</title>
<g id="a_node6"><a xlink:href="class_altair.html#a84cf34107cd413ab33800b583bdef59e" target="_top" xlink:title="Ouvre le projet .alt et décode le projet pour actualiser l&#39;interface. ">
<polygon fill="white" stroke="black" points="715,-316.5 715,-335.5 828,-335.5 828,-316.5 715,-316.5"/>
<text text-anchor="middle" x="771.5" y="-323.5" font-family="Helvetica,sans-Serif" font-size="10.00">Altair::openProjectFile</text>
</a>
</g>
</g>
<!-- Node582&#45;&gt;Node584 -->
<g id="edge5" class="edge"><title>Node582&#45;&gt;Node584</title>
<path fill="none" stroke="midnightblue" d="M675.572,-326C689.1,-326 702.593,-326 714.982,-326"/>
<polygon fill="midnightblue" stroke="midnightblue" points="675.238,-322.5 665.238,-326 675.238,-329.5 675.238,-322.5"/>
</g>
<!-- Node586 -->
<g id="node8" class="node"><title>Node586</title>
<g id="a_node8"><a xlink:href="class_altair.html#ae0975ced0a36e0ed889ae06043a4df66" target="_top" xlink:title="Constructeur. ">
<polygon fill="white" stroke="black" points="737.5,-202.5 737.5,-221.5 805.5,-221.5 805.5,-202.5 737.5,-202.5"/>
<text text-anchor="middle" x="771.5" y="-209.5" font-family="Helvetica,sans-Serif" font-size="10.00">Altair::Altair</text>
</a>
</g>
</g>
<!-- Node585&#45;&gt;Node586 -->
<g id="edge7" class="edge"><title>Node585&#45;&gt;Node586</title>
<path fill="none" stroke="midnightblue" d="M411.123,-184.627C429.279,-200.063 458.797,-221.975 489,-231 575.824,-256.945 684.169,-235.469 737.587,-221.561"/>
<polygon fill="midnightblue" stroke="midnightblue" points="412.997,-181.615 403.17,-177.655 408.382,-186.879 412.997,-181.615"/>
</g>
<!-- Node587 -->
<g id="node9" class="node"><title>Node587</title>
<g id="a_node9"><a xlink:href="class_altair.html#ab913abfdd0c6fbbceb9a051a4443d5fa" target="_top" xlink:title="Supprimer un onglet central. ">
<polygon fill="white" stroke="black" points="528,-202.5 528,-221.5 626,-221.5 626,-202.5 528,-202.5"/>
<text text-anchor="middle" x="577" y="-209.5" font-family="Helvetica,sans-Serif" font-size="10.00">Altair::deleteGroup</text>
</a>
</g>
</g>
<!-- Node585&#45;&gt;Node587 -->
<g id="edge8" class="edge"><title>Node585&#45;&gt;Node587</title>
<path fill="none" stroke="midnightblue" d="M440.244,-180.001C455.761,-183.892 473.104,-188.186 489,-192 503.618,-195.507 519.649,-199.228 533.924,-202.497"/>
<polygon fill="midnightblue" stroke="midnightblue" points="440.895,-176.556 430.344,-177.511 439.188,-183.344 440.895,-176.556"/>
</g>
<!-- Node588 -->
<g id="node10" class="node"><title>Node588</title>
<g id="a_node10"><a xlink:href="class_altair.html#a299584936cc20c9a1451977264eba1f5" target="_top" xlink:title="Ecrase un item d&#39;un onglet donné ">
<polygon fill="white" stroke="black" points="523.5,-153 523.5,-183 630.5,-183 630.5,-153 523.5,-153"/>
<text text-anchor="start" x="531.5" y="-171" font-family="Helvetica,sans-Serif" font-size="10.00">Altair::on_deleteItem</text>
<text text-anchor="middle" x="577" y="-160" font-family="Helvetica,sans-Serif" font-size="10.00">_clicked</text>
</a>
</g>
</g>
<!-- Node585&#45;&gt;Node588 -->
<g id="edge10" class="edge"><title>Node585&#45;&gt;Node588</title>
<path fill="none" stroke="midnightblue" d="M455.245,-168C477.366,-168 502.037,-168 523.284,-168"/>
<polygon fill="midnightblue" stroke="midnightblue" points="454.951,-164.5 444.951,-168 454.951,-171.5 454.951,-164.5"/>
</g>
<!-- Node589 -->
<g id="node11" class="node"><title>Node589</title>
<g id="a_node11"><a xlink:href="class_altair.html#aab5da600c227ac7eb604fa24a9308d26" target="_top" xlink:title="Enregistre le projet .alt en actualisant projectName et l&#39;état de l&#39;interface &#160;. ">
<polygon fill="white" stroke="black" points="511.5,-114.5 511.5,-133.5 642.5,-133.5 642.5,-114.5 511.5,-114.5"/>
<text text-anchor="middle" x="577" y="-121.5" font-family="Helvetica,sans-Serif" font-size="10.00">Altair::requestSaveProject</text>
</a>
</g>
</g>
<!-- Node585&#45;&gt;Node589 -->
<g id="edge12" class="edge"><title>Node585&#45;&gt;Node589</title>
<path fill="none" stroke="midnightblue" d="M438.596,-155.731C454.51,-151.553 472.512,-146.946 489,-143 502.532,-139.762 517.302,-136.452 530.768,-133.521"/>
<polygon fill="midnightblue" stroke="midnightblue" points="437.252,-152.465 428.476,-158.402 439.038,-159.233 437.252,-152.465"/>
</g>
<!-- Node590 -->
<g id="node12" class="node"><title>Node590</title>
<g id="a_node12"><a xlink:href="class_altair.html#a1afa285a65e0bdff4c761ad05ec9f8df" target="_top" xlink:title="Fonction réimplémentée : fin du déplacement de la souris. ">
<polygon fill="white" stroke="black" points="532.5,-76.5 532.5,-95.5 621.5,-95.5 621.5,-76.5 532.5,-76.5"/>
<text text-anchor="middle" x="577" y="-83.5" font-family="Helvetica,sans-Serif" font-size="10.00">Altair::dropEvent</text>
</a>
</g>
</g>
<!-- Node585&#45;&gt;Node590 -->
<g id="edge13" class="edge"><title>Node585&#45;&gt;Node590</title>
<path fill="none" stroke="midnightblue" d="M412.596,-152.018C431.183,-137.646 460.443,-117.003 489,-105 502.54,-99.3092 518.011,-95.2255 532.116,-92.3399"/>
<polygon fill="midnightblue" stroke="midnightblue" points="410.296,-149.374 404.613,-158.315 414.632,-154.87 410.296,-149.374"/>
</g>
<!-- Node591 -->
<g id="node13" class="node"><title>Node591</title>
<g id="a_node13"><a xlink:href="classoptions.html#a52a9fb1d5bdb6ed104e700390b8c0208" target="_top" xlink:title="options::options">
<polygon fill="white" stroke="black" points="534,-38.5 534,-57.5 620,-57.5 620,-38.5 534,-38.5"/>
<text text-anchor="middle" x="577" y="-45.5" font-family="Helvetica,sans-Serif" font-size="10.00">options::options</text>
</a>
</g>
</g>
<!-- Node585&#45;&gt;Node591 -->
<g id="edge14" class="edge"><title>Node585&#45;&gt;Node591</title>
<path fill="none" stroke="midnightblue" d="M404.943,-149.918C421.145,-126.902 452.318,-87.6582 489,-67 502.606,-59.3378 519.017,-54.7641 533.904,-52.0346"/>
<polygon fill="midnightblue" stroke="midnightblue" points="401.886,-148.187 399.123,-158.416 407.662,-152.143 401.886,-148.187"/>
</g>
<!-- Node592 -->
<g id="node14" class="node"><title>Node592</title>
<g id="a_node14"><a xlink:href="class_altair.html#a08b5e402c9a694af09110afe33219080" target="_top" xlink:title="Construction de la ligne de commande pour des bases de paye dans un répertoire donné ...">
<polygon fill="white" stroke="black" points="532,-0.5 532,-19.5 622,-19.5 622,-0.5 532,-0.5"/>
<text text-anchor="middle" x="577" y="-7.5" font-family="Helvetica,sans-Serif" font-size="10.00">Altair::runWorker</text>
</a>
</g>
</g>
<!-- Node585&#45;&gt;Node592 -->
<g id="edge15" class="edge"><title>Node585&#45;&gt;Node592</title>
<path fill="none" stroke="midnightblue" d="M400.622,-148.911C413.815,-118.459 443.896,-59.2451 489,-29 501.584,-20.5618 517.282,-15.7998 531.867,-13.1359"/>
<polygon fill="midnightblue" stroke="midnightblue" points="397.288,-147.812 396.663,-158.388 403.747,-150.51 397.288,-147.812"/>
</g>
<!-- Node594 -->
<g id="node16" class="node"><title>Node594</title>
<g id="a_node16"><a xlink:href="class_altair.html#a7d10f8ecf4097577885172afb6c2e9c6" target="_top" xlink:title="Lance l&#39;exécution de l&#39;application en ligne de commande lhx. ">
<polygon fill="white" stroke="black" points="906.5,-38.5 906.5,-57.5 965.5,-57.5 965.5,-38.5 906.5,-38.5"/>
<text text-anchor="middle" x="936" y="-45.5" font-family="Helvetica,sans-Serif" font-size="10.00">Altair::run</text>
</a>
</g>
</g>
<!-- Node585&#45;&gt;Node594 -->
<g id="edge20" class="edge"><title>Node585&#45;&gt;Node594</title>
<path fill="none" stroke="midnightblue" d="M406.413,-185.472C423.174,-205.712 453.951,-237.949 489,-251 636.263,-305.834 712.892,-320.578 842,-231 904.661,-187.525 927.548,-88.8559 933.371,-57.6503"/>
<polygon fill="midnightblue" stroke="midnightblue" points="409.104,-183.233 400.117,-177.622 403.644,-187.613 409.104,-183.233"/>
</g>
<!-- Node587&#45;&gt;Node586 -->
<g id="edge9" class="edge"><title>Node587&#45;&gt;Node586</title>
<path fill="none" stroke="midnightblue" d="M636.094,-212C669.175,-212 709.432,-212 737.215,-212"/>
<polygon fill="midnightblue" stroke="midnightblue" points="636.079,-208.5 626.079,-212 636.079,-215.5 636.079,-208.5"/>
</g>
<!-- Node588&#45;&gt;Node586 -->
<g id="edge11" class="edge"><title>Node588&#45;&gt;Node586</title>
<path fill="none" stroke="midnightblue" d="M640.407,-182.264C672.665,-189.638 710.734,-198.339 737.326,-204.417"/>
<polygon fill="midnightblue" stroke="midnightblue" points="641.13,-178.84 630.601,-180.023 639.57,-185.664 641.13,-178.84"/>
</g>
<!-- Node593 -->
<g id="node15" class="node"><title>Node593</title>
<g id="a_node15"><a xlink:href="class_altair.html#ae04f2a5771d47bbe2e0cc3a11b72d6bf" target="_top" xlink:title="Parcourt le répertoire en cours du mode distributif, un à chaque appel Exporte l&#39;identification dans ...">
<polygon fill="white" stroke="black" points="703,-0.5 703,-19.5 840,-19.5 840,-0.5 703,-0.5"/>
<text text-anchor="middle" x="771.5" y="-7.5" font-family="Helvetica,sans-Serif" font-size="10.00">Altair::runWorkerDistributed</text>
</a>
</g>
</g>
<!-- Node592&#45;&gt;Node593 -->
<g id="edge16" class="edge"><title>Node592&#45;&gt;Node593</title>
<path fill="none" stroke="midnightblue" d="M632.271,-10C654.166,-10 679.665,-10 702.758,-10"/>
<polygon fill="midnightblue" stroke="midnightblue" points="632.163,-6.5001 622.163,-10 632.163,-13.5001 632.163,-6.5001"/>
</g>
<!-- Node592&#45;&gt;Node594 -->
<g id="edge19" class="edge"><title>Node592&#45;&gt;Node594</title>
<path fill="none" stroke="midnightblue" d="M631.922,-19.1922C653.372,-22.623 678.306,-26.3294 701,-29 774.875,-37.6935 862.342,-43.648 906.478,-46.3506"/>
<polygon fill="midnightblue" stroke="midnightblue" points="632.446,-15.7316 622.015,-17.5881 631.327,-22.6416 632.446,-15.7316"/>
</g>
<!-- Node593&#45;&gt;Node594 -->
<g id="edge17" class="edge"><title>Node593&#45;&gt;Node594</title>
<path fill="none" stroke="midnightblue" d="M823.307,-21.8811C850.648,-28.2745 883.365,-35.9253 906.299,-41.2884"/>
<polygon fill="midnightblue" stroke="midnightblue" points="824.04,-18.4581 813.506,-19.589 822.446,-25.2742 824.04,-18.4581"/>
</g>
<!-- Node595 -->
<g id="node17" class="node"><title>Node595</title>
<g id="a_node17"><a xlink:href="class_altair.html#a16b8035c4383a789cd00b687fb105fe9" target="_top" xlink:title="Traitement de la fin de l&#39;exécution de lhx. ">
<polygon fill="white" stroke="black" points="878,-0.5 878,-19.5 994,-19.5 994,-0.5 878,-0.5"/>
<text text-anchor="middle" x="936" y="-7.5" font-family="Helvetica,sans-Serif" font-size="10.00">Altair::processFinished</text>
</a>
</g>
</g>
<!-- Node593&#45;&gt;Node595 -->
<g id="edge18" class="edge"><title>Node593&#45;&gt;Node595</title>
<path fill="none" stroke="midnightblue" d="M850.081,-10C859.414,-10 868.812,-10 877.78,-10"/>
<polygon fill="midnightblue" stroke="midnightblue" points="850.003,-6.5001 840.003,-10 850.003,-13.5001 850.003,-6.5001"/>
</g>
</g>
</svg>
        <g id="navigator" transform="translate(0 0)" fill="#404254">
                <rect fill="#f2f5e9" fill-opacity="0.5" stroke="#606060" stroke-width=".5" x="0" y="0" width="60" height="60"/>
                <use id="zoomplus" xlink:href="#zoomPlus" x="17" y="9" onmousedown="handleZoom(evt,'in')"/>
                <use id="zoomminus" xlink:href="#zoomMin" x="42" y="9" onmousedown="handleZoom(evt,'out')"/>
                <use id="reset" xlink:href="#resetDef" x="30" y="36" onmousedown="handleReset()"/>
                <g id="arrowUp" xlink:href="#dirArrow" transform="translate(30 24)" onmousedown="handlePan(0,-1)">
                  <use xlink:href="#rim" fill="#404040">
                        <set attributeName="fill" to="#808080" begin="arrowUp.mouseover" end="arrowUp.mouseout"/>
                  </use>
                  <path fill="none" stroke="white" stroke-width="1.5" d="M0,-3.0v7 M-2.5,-0.5L0,-3.0L2.5,-0.5"/>
                </g>
                <g id="arrowRight" xlink:href="#dirArrow" transform="rotate(90) translate(36 -43)" onmousedown="handlePan(1,0)">
                  <use xlink:href="#rim" fill="#404040">
                        <set attributeName="fill" to="#808080" begin="arrowRight.mouseover" end="arrowRight.mouseout"/>
                  </use>
                  <path fill="none" stroke="white" stroke-width="1.5" d="M0,-3.0v7 M-2.5,-0.5L0,-3.0L2.5,-0.5"/>
                </g>
                <g id="arrowDown" xlink:href="#dirArrow" transform="rotate(180) translate(-30 -48)" onmousedown="handlePan(0,1)">
                  <use xlink:href="#rim" fill="#404040">
                        <set attributeName="fill" to="#808080" begin="arrowDown.mouseover" end="arrowDown.mouseout"/>
                  </use>
                  <path fill="none" stroke="white" stroke-width="1.5" d="M0,-3.0v7 M-2.5,-0.5L0,-3.0L2.5,-0.5"/>
                </g>
                <g id="arrowLeft" xlink:href="#dirArrow" transform="rotate(270) translate(-36 17)" onmousedown="handlePan(-1,0)">
                  <use xlink:href="#rim" fill="#404040">
                        <set attributeName="fill" to="#808080" begin="arrowLeft.mouseover" end="arrowLeft.mouseout"/>
                  </use>
                  <path fill="none" stroke="white" stroke-width="1.5" d="M0,-3.0v7 M-2.5,-0.5L0,-3.0L2.5,-0.5"/>
                </g>
        </g>
        <svg viewBox="0 0 15 15" width="100%" height="30px" preserveAspectRatio="xMaxYMin meet">
         <g id="arrow_out" transform="scale(0.3 0.3)">
          <a xlink:href="class_altair_a41b6c8a35ed8ba14c7c0ce2e6994655f_icgraph_org.svg" target="_base">
           <rect id="button" ry="5" rx="5" y="6" x="6" height="38" width="38"
                fill="#f2f5e9" fill-opacity="0.5" stroke="#606060" stroke-width="1.0"/>
           <path id="arrow"
             d="M 11.500037,31.436501 C 11.940474,20.09759 22.043105,11.32322 32.158766,21.979434 L 37.068811,17.246167 C 37.068811,17.246167 37.088388,32 37.088388,32 L 22.160133,31.978069 C 22.160133,31.978069 26.997745,27.140456 26.997745,27.140456 C 18.528582,18.264221 13.291696,25.230495 11.500037,31.436501 z"
             style="fill:#404040;"/>
          </a>
         </g>
        </svg>
</svg>
