<?xml version="1.0" encoding="UTF-8" standalone="no"?>
<!DOCTYPE svg PUBLIC "-//W3C//DTD SVG 1.1//EN"
 "http://www.w3.org/Graphics/SVG/1.1/DTD/svg11.dtd">
<!-- Generated by graphviz version 2.38.0 (20140413.2041)
 -->
<!-- Title: FListFrame::getRank Pages: 1 -->
<!--zoomable 649 -->
<svg id="main" version="1.1" xmlns="http://www.w3.org/2000/svg" xmlns:xlink="http://www.w3.org/1999/xlink" xml:space="preserve" onload="init(evt)">
<style type="text/css"><![CDATA[
.edge:hover path { stroke: red; }
.edge:hover polygon { stroke: red; fill: red; }
]]></style>
<script type="text/javascript"><![CDATA[
var edges = document.getElementsByTagName('g');
if (edges && edges.length) {
  for (var i=0;i<edges.length;i++) {
    if (edges[i].id.substr(0,4)=='edge') {
      edges[i].setAttribute('class','edge');
    }
  }
}
]]></script>
        <defs>
                <circle id="rim" cx="0" cy="0" r="7"/>
                <circle id="rim2" cx="0" cy="0" r="3.5"/>
                <g id="zoomPlus">
                        <use xlink:href="#rim" fill="#404040">
                                <set attributeName="fill" to="#808080" begin="zoomplus.mouseover" end="zoomplus.mouseout"/>
                        </use>
                        <path d="M-4,0h8M0,-4v8" fill="none" stroke="white" stroke-width="1.5" pointer-events="none"/>
                </g>
                <g id="zoomMin">
                        <use xlink:href="#rim" fill="#404040">
                                <set attributeName="fill" to="#808080" begin="zoomminus.mouseover" end="zoomminus.mouseout"/>
                        </use>
                        <path d="M-4,0h8" fill="none" stroke="white" stroke-width="1.5" pointer-events="none"/>
                </g>
                <g id="dirArrow">
                        <path fill="none" stroke="white" stroke-width="1.5" d="M0,-3.0v7 M-2.5,-0.5L0,-3.0L2.5,-0.5"/>
                </g>
               <g id="resetDef">
                       <use xlink:href="#rim2" fill="#404040">
                               <set attributeName="fill" to="#808080" begin="reset.mouseover" end="reset.mouseout"/>
                       </use>
               </g>
        </defs>

<script type="text/javascript">
var viewWidth = 1547;
var viewHeight = 649;
var sectionId = 'dynsection-25';
</script>
<script xlink:href="svgpan.js"/>
<svg id="graph" class="graph">
<g id="viewport">
<title>FListFrame::getRank</title>
<polygon fill="white" stroke="none" points="-4,4 -4,-645.208 1543,-645.208 1543,4 -4,4"/>
<!-- Node151 -->
<g id="node1" class="node"><title>Node151</title>
<polygon fill="#bfbfbf" stroke="black" points="0,-371.708 0,-390.708 109,-390.708 109,-371.708 0,-371.708"/>
<text text-anchor="middle" x="54.5" y="-378.708" font-family="Helvetica,sans-Serif" font-size="10.00">FListFrame::getRank</text>
</g>
<!-- Node152 -->
<g id="node2" class="node"><title>Node152</title>
<g id="a_node2"><a xlink:href="class_f_list_widget.html#af24de94813d9e1939dd98a7a2f5539fb" target="_top" xlink:title="FListWidget::addGroup">
<polygon fill="white" stroke="black" points="325,-621.708 325,-640.708 442,-640.708 442,-621.708 325,-621.708"/>
<text text-anchor="middle" x="383.5" y="-628.708" font-family="Helvetica,sans-Serif" font-size="10.00">FListWidget::addGroup</text>
</a>
</g>
</g>
<!-- Node151&#45;&gt;Node152 -->
<g id="edge1" class="edge"><title>Node151&#45;&gt;Node152</title>
<path fill="none" stroke="midnightblue" d="M60.2586,-400.886C69.9575,-436.818 95.4112,-513.209 145,-555.208 196.288,-598.646 272.716,-617.349 324.93,-625.343"/>
<polygon fill="midnightblue" stroke="midnightblue" points="63.5296,-399.552 57.6526,-390.736 56.7495,-401.293 63.5296,-399.552"/>
</g>
<!-- Node155 -->
<g id="node5" class="node"><title>Node155</title>
<g id="a_node5"><a xlink:href="class_f_list_frame.html#a5c6ce884a0169251e359364921d1f89c" target="_top" xlink:title="FListFrame::addNewTab">
<polygon fill="white" stroke="black" points="148,-526.708 148,-545.708 273,-545.708 273,-526.708 148,-526.708"/>
<text text-anchor="middle" x="210.5" y="-533.708" font-family="Helvetica,sans-Serif" font-size="10.00">FListFrame::addNewTab</text>
</a>
</g>
</g>
<!-- Node151&#45;&gt;Node155 -->
<g id="edge4" class="edge"><title>Node151&#45;&gt;Node155</title>
<path fill="none" stroke="midnightblue" d="M72.5139,-398.332C104.884,-430.913 174.379,-500.859 199.87,-526.516"/>
<polygon fill="midnightblue" stroke="midnightblue" points="74.6644,-395.531 65.1334,-390.904 69.6987,-400.465 74.6644,-395.531"/>
</g>
<!-- Node156 -->
<g id="node6" class="node"><title>Node156</title>
<g id="a_node6"><a xlink:href="class_altair.html#ab67e3285c4a6c8fb48d12381ea6ac6bd" target="_top" xlink:title="Ferme le projet et réinitialise l&#39;interface (gestionnaire de projet inclus) ">
<polygon fill="white" stroke="black" points="887.5,-431.708 887.5,-450.708 986.5,-450.708 986.5,-431.708 887.5,-431.708"/>
<text text-anchor="middle" x="937" y="-438.708" font-family="Helvetica,sans-Serif" font-size="10.00">Altair::closeProject</text>
</a>
</g>
</g>
<!-- Node151&#45;&gt;Node156 -->
<g id="edge20" class="edge"><title>Node151&#45;&gt;Node156</title>
<path fill="none" stroke="midnightblue" d="M84.3437,-395.229C101.553,-402.976 124.066,-412.05 145,-417.208 248.013,-442.588 276.407,-441.208 382.5,-441.208 382.5,-441.208 382.5,-441.208 571.5,-441.208 684.615,-441.208 817.476,-441.208 887.359,-441.208"/>
<polygon fill="midnightblue" stroke="midnightblue" points="85.4222,-391.872 74.8758,-390.86 82.4895,-398.228 85.4222,-391.872"/>
</g>
<!-- Node167 -->
<g id="node17" class="node"><title>Node167</title>
<g id="a_node17"><a xlink:href="class_altair.html#abd55c8c0c2e48e64f5b1ae2442b87ade" target="_top" xlink:title="Vérifie que les onglets de contiennent pas des années incomplètes et signale les mois manquants...">
<polygon fill="white" stroke="black" points="321,-289.708 321,-308.708 446,-308.708 446,-289.708 321,-289.708"/>
<text text-anchor="middle" x="383.5" y="-296.708" font-family="Helvetica,sans-Serif" font-size="10.00">Altair::checkAnnumSpan</text>
</a>
</g>
</g>
<!-- Node151&#45;&gt;Node167 -->
<g id="edge18" class="edge"><title>Node151&#45;&gt;Node167</title>
<path fill="none" stroke="midnightblue" d="M74.8667,-365.089C92.1165,-351.702 118.638,-333.414 145,-324.208 202.343,-304.182 271.834,-298.889 320.789,-298.025"/>
<polygon fill="midnightblue" stroke="midnightblue" points="72.3773,-362.597 66.7412,-371.569 76.7418,-368.07 72.3773,-362.597"/>
</g>
<!-- Node168 -->
<g id="node18" class="node"><title>Node168</title>
<g id="a_node18"><a xlink:href="class_altair.html#ab913abfdd0c6fbbceb9a051a4443d5fa" target="_top" xlink:title="Supprimer un onglet central. ">
<polygon fill="white" stroke="black" points="1073,-39.7078 1073,-58.7078 1171,-58.7078 1171,-39.7078 1073,-39.7078"/>
<text text-anchor="middle" x="1122" y="-46.7078" font-family="Helvetica,sans-Serif" font-size="10.00">Altair::deleteGroup</text>
</a>
</g>
</g>
<!-- Node151&#45;&gt;Node168 -->
<g id="edge21" class="edge"><title>Node151&#45;&gt;Node168</title>
<path fill="none" stroke="midnightblue" d="M68.409,-363.602C108.545,-311.095 237.202,-159.208 382.5,-159.208 382.5,-159.208 382.5,-159.208 764,-159.208 890.632,-159.208 911.957,-101.99 1034,-68.2078 1046.52,-64.7433 1060.19,-61.5067 1072.9,-58.7215"/>
<polygon fill="midnightblue" stroke="midnightblue" points="65.5565,-361.572 62.3459,-371.669 71.1521,-365.778 65.5565,-361.572"/>
</g>
<!-- Node169 -->
<g id="node19" class="node"><title>Node169</title>
<g id="a_node19"><a xlink:href="class_f_list_frame.html#a58337134c45f052ad6bb45c014fd5c3f" target="_top" xlink:title="Récupère les titres d&#39;onglet. ">
<polygon fill="white" stroke="black" points="145,-333.708 145,-352.708 276,-352.708 276,-333.708 145,-333.708"/>
<text text-anchor="middle" x="210.5" y="-340.708" font-family="Helvetica,sans-Serif" font-size="10.00">FListFrame::getTabLabels</text>
</a>
</g>
</g>
<!-- Node151&#45;&gt;Node169 -->
<g id="edge23" class="edge"><title>Node151&#45;&gt;Node169</title>
<path fill="none" stroke="midnightblue" d="M104.294,-369.168C125.808,-363.859 150.732,-357.709 170.919,-352.728"/>
<polygon fill="midnightblue" stroke="midnightblue" points="103.231,-365.825 94.3607,-371.619 104.908,-372.621 103.231,-365.825"/>
</g>
<!-- Node175 -->
<g id="node25" class="node"><title>Node175</title>
<g id="a_node25"><a xlink:href="class_altair.html#aa341707131924eff160bcab41422d1ec" target="_top" xlink:title="Code commun à différentes fonctions lancées pour l&#39;analyse des projets. ">
<polygon fill="white" stroke="black" points="1034,-393.708 1034,-412.708 1210,-412.708 1210,-393.708 1034,-393.708"/>
<text text-anchor="middle" x="1122" y="-400.708" font-family="Helvetica,sans-Serif" font-size="10.00">Altair::openProjectFileCommonCode</text>
</a>
</g>
</g>
<!-- Node151&#45;&gt;Node175 -->
<g id="edge49" class="edge"><title>Node151&#45;&gt;Node175</title>
<path fill="none" stroke="midnightblue" d="M119.458,-388.061C185.315,-394.518 290.953,-403.208 382.5,-403.208 382.5,-403.208 382.5,-403.208 764,-403.208 856.039,-403.208 961.426,-403.208 1033.7,-403.208"/>
<polygon fill="midnightblue" stroke="midnightblue" points="119.535,-384.552 109.238,-387.046 118.843,-391.517 119.535,-384.552"/>
</g>
<!-- Node184 -->
<g id="node34" class="node"><title>Node184</title>
<g id="a_node34"><a xlink:href="class_f_list_frame.html#a404f9f839864aecceba585397c7c882f" target="_top" xlink:title="FListFrame::showContextMenu">
<polygon fill="white" stroke="black" points="686,-32.7078 686,-51.7078 840,-51.7078 840,-32.7078 686,-32.7078"/>
<text text-anchor="middle" x="763" y="-39.7078" font-family="Helvetica,sans-Serif" font-size="10.00">FListFrame::showContextMenu</text>
</a>
</g>
</g>
<!-- Node151&#45;&gt;Node184 -->
<g id="edge50" class="edge"><title>Node151&#45;&gt;Node184</title>
<path fill="none" stroke="midnightblue" d="M56.6368,-361.553C60.4184,-315.702 76.5934,-201.306 145,-145.208 302.661,-15.9135 560.933,-20.8667 687.439,-32.6976"/>
<polygon fill="midnightblue" stroke="midnightblue" points="53.1366,-361.434 55.9182,-371.657 60.1189,-361.93 53.1366,-361.434"/>
</g>
<!-- Node153 -->
<g id="node3" class="node"><title>Node153</title>
<g id="a_node3"><a xlink:href="class_f_list_frame.html#a8859291101ef64727925cbe283bb86d6" target="_top" xlink:title="Efface tous les onglets et, selon la valeur des paramètres, insère un onglet vierge (ou pas) et effac...">
<polygon fill="white" stroke="black" points="500,-621.708 500,-640.708 641,-640.708 641,-621.708 500,-621.708"/>
<text text-anchor="middle" x="570.5" y="-628.708" font-family="Helvetica,sans-Serif" font-size="10.00">FListFrame::deleteAllGroups</text>
</a>
</g>
</g>
<!-- Node152&#45;&gt;Node153 -->
<g id="edge2" class="edge"><title>Node152&#45;&gt;Node153</title>
<path fill="none" stroke="midnightblue" d="M452.101,-631.208C467.694,-631.208 484.308,-631.208 499.982,-631.208"/>
<polygon fill="midnightblue" stroke="midnightblue" points="452.021,-627.708 442.021,-631.208 452.021,-634.708 452.021,-627.708"/>
</g>
<!-- Node154 -->
<g id="node4" class="node"><title>Node154</title>
<g id="a_node4"><a xlink:href="class_f_list_widget.html#ac9bc1c75b6e519155a7af03ce7c4287a" target="_top" xlink:title="FListWidget::setWidgetFromXml">
<polygon fill="white" stroke="black" points="491,-583.708 491,-602.708 650,-602.708 650,-583.708 491,-583.708"/>
<text text-anchor="middle" x="570.5" y="-590.708" font-family="Helvetica,sans-Serif" font-size="10.00">FListWidget::setWidgetFromXml</text>
</a>
</g>
</g>
<!-- Node152&#45;&gt;Node154 -->
<g id="edge3" class="edge"><title>Node152&#45;&gt;Node154</title>
<path fill="none" stroke="midnightblue" d="M441.02,-619.598C467.331,-614.194 498.243,-607.844 523.152,-602.728"/>
<polygon fill="midnightblue" stroke="midnightblue" points="440.275,-616.178 431.183,-621.619 441.683,-623.035 440.275,-616.178"/>
</g>
<!-- Node155&#45;&gt;Node152 -->
<g id="edge5" class="edge"><title>Node155&#45;&gt;Node152</title>
<path fill="none" stroke="midnightblue" d="M230.669,-552.296C250.138,-568.003 281.663,-591.737 312,-607.208 323.288,-612.964 336.265,-617.83 347.984,-621.644"/>
<polygon fill="midnightblue" stroke="midnightblue" points="232.815,-549.529 222.86,-545.903 228.38,-554.946 232.815,-549.529"/>
</g>
<!-- Node155&#45;&gt;Node154 -->
<g id="edge17" class="edge"><title>Node155&#45;&gt;Node154</title>
<path fill="none" stroke="midnightblue" d="M244.998,-549.302C264.3,-556.314 289.187,-564.462 312,-569.208 371.233,-581.53 439.453,-587.529 490.788,-590.449"/>
<polygon fill="midnightblue" stroke="midnightblue" points="246.048,-545.958 235.455,-545.763 243.614,-552.522 246.048,-545.958"/>
</g>
<!-- Node155&#45;&gt;Node156 -->
<g id="edge6" class="edge"><title>Node155&#45;&gt;Node156</title>
<path fill="none" stroke="midnightblue" d="M283.058,-543.172C370.332,-550.07 522.047,-556.903 650,-536.208 752.782,-519.584 868.589,-471.4 915.064,-450.767"/>
<polygon fill="midnightblue" stroke="midnightblue" points="283.251,-539.676 273,-542.354 282.684,-546.653 283.251,-539.676"/>
</g>
<!-- Node163 -->
<g id="node13" class="node"><title>Node163</title>
<g id="a_node13"><a xlink:href="class_f_list_frame.html#aa993bd2e0b975a839c6f8b46dea4690c" target="_top" xlink:title="FListFrame::finalise">
<polygon fill="white" stroke="black" points="332,-507.708 332,-526.708 435,-526.708 435,-507.708 332,-507.708"/>
<text text-anchor="middle" x="383.5" y="-514.708" font-family="Helvetica,sans-Serif" font-size="10.00">FListFrame::finalise</text>
</a>
</g>
</g>
<!-- Node155&#45;&gt;Node163 -->
<g id="edge13" class="edge"><title>Node155&#45;&gt;Node163</title>
<path fill="none" stroke="midnightblue" d="M283.282,-528.232C299.596,-526.419 316.594,-524.531 331.816,-522.839"/>
<polygon fill="midnightblue" stroke="midnightblue" points="282.787,-524.765 273.235,-529.348 283.56,-531.723 282.787,-524.765"/>
</g>
<!-- Node165 -->
<g id="node15" class="node"><title>Node165</title>
<g id="a_node15"><a xlink:href="flistframe_8cpp.html#a8ce4ab3e25940112701a829eea4dc8db" target="_top" xlink:title="finalise_macro">
<polygon fill="white" stroke="black" points="343.5,-469.708 343.5,-488.708 423.5,-488.708 423.5,-469.708 343.5,-469.708"/>
<text text-anchor="middle" x="383.5" y="-476.708" font-family="Helvetica,sans-Serif" font-size="10.00">finalise_macro</text>
</a>
</g>
</g>
<!-- Node155&#45;&gt;Node165 -->
<g id="edge15" class="edge"><title>Node155&#45;&gt;Node165</title>
<path fill="none" stroke="midnightblue" d="M244.175,-522.922C263.692,-515.22 289.07,-505.613 312,-498.208 322.374,-494.858 333.734,-491.614 344.247,-488.784"/>
<polygon fill="midnightblue" stroke="midnightblue" points="242.822,-519.693 234.824,-526.642 245.41,-526.197 242.822,-519.693"/>
</g>
<!-- Node157 -->
<g id="node7" class="node"><title>Node157</title>
<g id="a_node7"><a xlink:href="class_altair.html#ae0975ced0a36e0ed889ae06043a4df66" target="_top" xlink:title="Constructeur. ">
<polygon fill="white" stroke="black" points="1282.5,-121.708 1282.5,-140.708 1350.5,-140.708 1350.5,-121.708 1282.5,-121.708"/>
<text text-anchor="middle" x="1316.5" y="-128.708" font-family="Helvetica,sans-Serif" font-size="10.00">Altair::Altair</text>
</a>
</g>
</g>
<!-- Node156&#45;&gt;Node157 -->
<g id="edge7" class="edge"><title>Node156&#45;&gt;Node157</title>
<path fill="none" stroke="midnightblue" d="M959.359,-425.77C978.158,-412.875 1006.71,-394.925 1034,-384.208 1108.49,-354.954 1152.85,-402.228 1210,-346.208 1259.58,-297.608 1210.7,-253.985 1246,-194.208 1259.58,-171.211 1284.28,-151.824 1300.29,-140.859"/>
<polygon fill="midnightblue" stroke="midnightblue" points="957.153,-423.043 950.963,-431.641 961.164,-428.779 957.153,-423.043"/>
</g>
<!-- Node158 -->
<g id="node8" class="node"><title>Node158</title>
<g id="a_node8"><a xlink:href="class_altair.html#a1afa285a65e0bdff4c761ad05ec9f8df" target="_top" xlink:title="Fonction réimplémentée : fin du déplacement de la souris. ">
<polygon fill="white" stroke="black" points="1077.5,-317.708 1077.5,-336.708 1166.5,-336.708 1166.5,-317.708 1077.5,-317.708"/>
<text text-anchor="middle" x="1122" y="-324.708" font-family="Helvetica,sans-Serif" font-size="10.00">Altair::dropEvent</text>
</a>
</g>
</g>
<!-- Node156&#45;&gt;Node158 -->
<g id="edge8" class="edge"><title>Node156&#45;&gt;Node158</title>
<path fill="none" stroke="midnightblue" d="M952.097,-423.588C969.321,-403.219 1000.35,-370.081 1034,-351.208 1047.26,-343.773 1062.96,-338.527 1077.35,-334.878"/>
<polygon fill="midnightblue" stroke="midnightblue" points="949.266,-421.52 945.593,-431.458 954.662,-425.979 949.266,-421.52"/>
</g>
<!-- Node159 -->
<g id="node9" class="node"><title>Node159</title>
<g id="a_node9"><a xlink:href="class_altair.html#a2f6882c170016e2d7729058b08896a1d" target="_top" xlink:title="Tuer l&#39;application en ligne de commande lhx. ">
<polygon fill="white" stroke="black" points="1075.5,-519.708 1075.5,-538.708 1168.5,-538.708 1168.5,-519.708 1075.5,-519.708"/>
<text text-anchor="middle" x="1122" y="-526.708" font-family="Helvetica,sans-Serif" font-size="10.00">Altair::killProcess</text>
</a>
</g>
</g>
<!-- Node156&#45;&gt;Node159 -->
<g id="edge9" class="edge"><title>Node156&#45;&gt;Node159</title>
<path fill="none" stroke="midnightblue" d="M956.244,-457.469C974.622,-473.004 1004.42,-495.958 1034,-509.208 1046.87,-514.973 1061.58,-519.167 1075.2,-522.178"/>
<polygon fill="midnightblue" stroke="midnightblue" points="958.504,-454.796 948.645,-450.915 953.932,-460.097 958.504,-454.796"/>
</g>
<!-- Node160 -->
<g id="node10" class="node"><title>Node160</title>
<g id="a_node10"><a xlink:href="class_altair.html#a2e9b932b1dbf45bf9ad0db41dce474b6" target="_top" xlink:title="Crée un nouveau projet défaut.alt. ">
<polygon fill="white" stroke="black" points="1053,-470.208 1053,-500.208 1191,-500.208 1191,-470.208 1053,-470.208"/>
<text text-anchor="start" x="1061" y="-488.208" font-family="Helvetica,sans-Serif" font-size="10.00">Altair::on_newProjectButton</text>
<text text-anchor="middle" x="1122" y="-477.208" font-family="Helvetica,sans-Serif" font-size="10.00">_clicked</text>
</a>
</g>
</g>
<!-- Node156&#45;&gt;Node160 -->
<g id="edge10" class="edge"><title>Node156&#45;&gt;Node160</title>
<path fill="none" stroke="midnightblue" d="M987.722,-453.163C1009.49,-458.397 1035.28,-464.597 1058.34,-470.142"/>
<polygon fill="midnightblue" stroke="midnightblue" points="988.249,-449.69 977.708,-450.755 986.613,-456.496 988.249,-449.69"/>
</g>
<!-- Node161 -->
<g id="node11" class="node"><title>Node161</title>
<g id="a_node11"><a xlink:href="class_altair.html#ab98d384297c6b94ff65a683eb5f99633" target="_top" xlink:title="Ouvre le projet, le décode en appelant parseProjectFile et actualise l&#39;interface &#160;en conséquence...">
<polygon fill="white" stroke="black" points="1246,-511.208 1246,-541.208 1387,-541.208 1387,-511.208 1246,-511.208"/>
<text text-anchor="start" x="1254" y="-529.208" font-family="Helvetica,sans-Serif" font-size="10.00">Altair::on_openProjectButton</text>
<text text-anchor="middle" x="1316.5" y="-518.208" font-family="Helvetica,sans-Serif" font-size="10.00">_clicked</text>
</a>
</g>
</g>
<!-- Node156&#45;&gt;Node161 -->
<g id="edge11" class="edge"><title>Node156&#45;&gt;Node161</title>
<path fill="none" stroke="midnightblue" d="M947.925,-459.771C962.755,-485.28 993.358,-530.07 1034,-548.208 1113.23,-583.569 1217.47,-559.515 1274.26,-541.302"/>
<polygon fill="midnightblue" stroke="midnightblue" points="950.807,-457.754 942.867,-450.74 944.7,-461.175 950.807,-457.754"/>
</g>
<!-- Node162 -->
<g id="node12" class="node"><title>Node162</title>
<g id="a_node12"><a xlink:href="class_altair.html#a84cf34107cd413ab33800b583bdef59e" target="_top" xlink:title="Ouvre le projet .alt et décode le projet pour actualiser l&#39;interface. ">
<polygon fill="white" stroke="black" points="1260,-412.708 1260,-431.708 1373,-431.708 1373,-412.708 1260,-412.708"/>
<text text-anchor="middle" x="1316.5" y="-419.708" font-family="Helvetica,sans-Serif" font-size="10.00">Altair::openProjectFile</text>
</a>
</g>
</g>
<!-- Node156&#45;&gt;Node162 -->
<g id="edge12" class="edge"><title>Node156&#45;&gt;Node162</title>
<path fill="none" stroke="midnightblue" d="M996.814,-438.248C1068.66,-434.631 1189.32,-428.559 1259.75,-425.014"/>
<polygon fill="midnightblue" stroke="midnightblue" points="996.39,-434.764 986.579,-438.763 996.742,-441.756 996.39,-434.764"/>
</g>
<!-- Node164 -->
<g id="node14" class="node"><title>Node164</title>
<g id="a_node14"><a xlink:href="class_f_list_frame.html#a865246df8a4d4000ac3c818abc6d7f71" target="_top" xlink:title="FListFrame::FListFrame">
<polygon fill="white" stroke="black" points="509.5,-507.708 509.5,-526.708 631.5,-526.708 631.5,-507.708 509.5,-507.708"/>
<text text-anchor="middle" x="570.5" y="-514.708" font-family="Helvetica,sans-Serif" font-size="10.00">FListFrame::FListFrame</text>
</a>
</g>
</g>
<!-- Node163&#45;&gt;Node164 -->
<g id="edge14" class="edge"><title>Node163&#45;&gt;Node164</title>
<path fill="none" stroke="midnightblue" d="M445.277,-517.208C465.901,-517.208 488.919,-517.208 509.484,-517.208"/>
<polygon fill="midnightblue" stroke="midnightblue" points="445.052,-513.708 435.052,-517.208 445.052,-520.708 445.052,-513.708"/>
</g>
<!-- Node166 -->
<g id="node16" class="node"><title>Node166</title>
<g id="a_node16"><a xlink:href="flistframe_8cpp.html#a1dfc6277dce182d91d605c721a585c7a" target="_top" xlink:title="finalise_macro">
<polygon fill="white" stroke="black" points="530.5,-469.708 530.5,-488.708 610.5,-488.708 610.5,-469.708 530.5,-469.708"/>
<text text-anchor="middle" x="570.5" y="-476.708" font-family="Helvetica,sans-Serif" font-size="10.00">finalise_macro</text>
</a>
</g>
</g>
<!-- Node165&#45;&gt;Node166 -->
<g id="edge16" class="edge"><title>Node165&#45;&gt;Node166</title>
<path fill="none" stroke="midnightblue" d="M434.053,-479.208C464.233,-479.208 502.252,-479.208 530.323,-479.208"/>
<polygon fill="midnightblue" stroke="midnightblue" points="433.734,-475.708 423.734,-479.208 433.734,-482.708 433.734,-475.708"/>
</g>
<!-- Node167&#45;&gt;Node158 -->
<g id="edge19" class="edge"><title>Node167&#45;&gt;Node158</title>
<path fill="none" stroke="midnightblue" d="M456.157,-293.883C545.948,-288.073 704.507,-280.666 840,-289.208 910.642,-293.661 927.867,-299.638 998,-309.208 1024.41,-312.811 1053.96,-317.127 1077.48,-320.629"/>
<polygon fill="midnightblue" stroke="midnightblue" points="455.835,-290.396 446.087,-294.546 456.295,-297.381 455.835,-290.396"/>
</g>
<!-- Node168&#45;&gt;Node157 -->
<g id="edge22" class="edge"><title>Node168&#45;&gt;Node157</title>
<path fill="none" stroke="midnightblue" d="M1181,-59.1263C1190.84,-61.5846 1200.84,-64.5825 1210,-68.2078 1245.71,-82.3322 1283.36,-107.74 1302.57,-121.582"/>
<polygon fill="midnightblue" stroke="midnightblue" points="1181.77,-55.7137 1171.24,-56.8447 1180.18,-62.5298 1181.77,-55.7137"/>
</g>
<!-- Node169&#45;&gt;Node167 -->
<g id="edge24" class="edge"><title>Node169&#45;&gt;Node167</title>
<path fill="none" stroke="midnightblue" d="M258.376,-331.146C285.801,-324.089 319.939,-315.305 345.468,-308.737"/>
<polygon fill="midnightblue" stroke="midnightblue" points="257.417,-327.779 248.604,-333.66 259.161,-334.558 257.417,-327.779"/>
</g>
<!-- Node170 -->
<g id="node20" class="node"><title>Node170</title>
<g id="a_node20"><a xlink:href="class_altair.html#abf7d1895e52f7b8d7d26e4b5a0e6146a" target="_top" xlink:title="Rafraîchit le gestionnaire de projet à la droite de l&#39;interface. ">
<polygon fill="white" stroke="black" points="312,-328.208 312,-358.208 455,-358.208 455,-328.208 312,-328.208"/>
<text text-anchor="start" x="320" y="-346.208" font-family="Helvetica,sans-Serif" font-size="10.00">Altair::refreshProjectManager</text>
<text text-anchor="middle" x="383.5" y="-335.208" font-family="Helvetica,sans-Serif" font-size="10.00">Values</text>
</a>
</g>
</g>
<!-- Node169&#45;&gt;Node170 -->
<g id="edge25" class="edge"><title>Node169&#45;&gt;Node170</title>
<path fill="none" stroke="midnightblue" d="M286.351,-343.208C294.791,-343.208 303.372,-343.208 311.758,-343.208"/>
<polygon fill="midnightblue" stroke="midnightblue" points="286.148,-339.708 276.148,-343.208 286.148,-346.708 286.148,-339.708"/>
</g>
<!-- Node171 -->
<g id="node21" class="node"><title>Node171</title>
<g id="a_node21"><a xlink:href="class_altair.html#a5b3c33b6ae4f6b57b5593245751ef203" target="_top" xlink:title="Efface toutes les données du projet .alt et réinitialise l&#39;interface et les conteneurs de données int...">
<polygon fill="white" stroke="black" points="704,-355.708 704,-374.708 822,-374.708 822,-355.708 704,-355.708"/>
<text text-anchor="middle" x="763" y="-362.708" font-family="Helvetica,sans-Serif" font-size="10.00">Altair::clearProjectData</text>
</a>
</g>
</g>
<!-- Node170&#45;&gt;Node171 -->
<g id="edge26" class="edge"><title>Node170&#45;&gt;Node171</title>
<path fill="none" stroke="midnightblue" d="M465.404,-347.923C537.09,-352.1 640.011,-358.099 703.845,-361.819"/>
<polygon fill="midnightblue" stroke="midnightblue" points="465.249,-344.408 455.062,-347.32 464.841,-351.396 465.249,-344.408"/>
</g>
<!-- Node172 -->
<g id="node22" class="node"><title>Node172</title>
<g id="a_node22"><a xlink:href="class_altair.html#a41b6c8a35ed8ba14c7c0ce2e6994655f" target="_top" xlink:title="Décode le projet représenté par un pointeur vers QFile ou similaire. ">
<polygon fill="white" stroke="black" points="512.5,-317.708 512.5,-336.708 628.5,-336.708 628.5,-317.708 512.5,-317.708"/>
<text text-anchor="middle" x="570.5" y="-324.708" font-family="Helvetica,sans-Serif" font-size="10.00">Altair::parseProjectFile</text>
</a>
</g>
</g>
<!-- Node170&#45;&gt;Node172 -->
<g id="edge28" class="edge"><title>Node170&#45;&gt;Node172</title>
<path fill="none" stroke="midnightblue" d="M465.509,-336.202C481.277,-334.838 497.498,-333.435 512.299,-332.155"/>
<polygon fill="midnightblue" stroke="midnightblue" points="464.894,-332.742 455.232,-337.09 465.497,-339.716 464.894,-332.742"/>
</g>
<!-- Node173 -->
<g id="node23" class="node"><title>Node173</title>
<g id="a_node23"><a xlink:href="class_altair.html#ac9d7d8e7cebf70212818f1a8ba7d7d78" target="_top" xlink:title="Rafraîchit le gestionnaire de projet à la droite de l&#39;interface. Fonction globale par défaut...">
<polygon fill="white" stroke="black" points="691.5,-298.708 691.5,-317.708 834.5,-317.708 834.5,-298.708 691.5,-298.708"/>
<text text-anchor="middle" x="763" y="-305.708" font-family="Helvetica,sans-Serif" font-size="10.00">Altair::refreshProjectManager</text>
</a>
</g>
</g>
<!-- Node170&#45;&gt;Node173 -->
<g id="edge48" class="edge"><title>Node170&#45;&gt;Node173</title>
<path fill="none" stroke="midnightblue" d="M435.297,-324.827C456.999,-317.328 479.868,-309.99 491,-308.208 558.363,-297.423 636.357,-298.855 691.329,-302.125"/>
<polygon fill="midnightblue" stroke="midnightblue" points="434.068,-321.549 425.781,-328.15 436.376,-328.158 434.068,-321.549"/>
</g>
<!-- Node171&#45;&gt;Node156 -->
<g id="edge27" class="edge"><title>Node171&#45;&gt;Node156</title>
<path fill="none" stroke="midnightblue" d="M795.372,-379.07C829.869,-394.313 884.376,-418.397 914.393,-431.66"/>
<polygon fill="midnightblue" stroke="midnightblue" points="796.345,-375.674 785.784,-374.833 793.516,-382.076 796.345,-375.674"/>
</g>
<!-- Node172&#45;&gt;Node173 -->
<g id="edge29" class="edge"><title>Node172&#45;&gt;Node173</title>
<path fill="none" stroke="midnightblue" d="M639.038,-320.472C656.013,-318.779 674.274,-316.957 691.395,-315.25"/>
<polygon fill="midnightblue" stroke="midnightblue" points="638.26,-317.032 628.656,-321.507 638.954,-323.997 638.26,-317.032"/>
</g>
<!-- Node174 -->
<g id="node24" class="node"><title>Node174</title>
<g id="a_node24"><a xlink:href="class_altair.html#acaa583766e1c062ea311847fcdd35374" target="_top" xlink:title="Efface les onglets, le gestionnaire de projet et lit le projet .alt en cours. ">
<polygon fill="white" stroke="black" points="876,-319.208 876,-349.208 998,-349.208 998,-319.208 876,-319.208"/>
<text text-anchor="start" x="884" y="-337.208" font-family="Helvetica,sans-Serif" font-size="10.00">Altair::clearInterfaceAnd</text>
<text text-anchor="middle" x="937" y="-326.208" font-family="Helvetica,sans-Serif" font-size="10.00">ParseProject</text>
</a>
</g>
</g>
<!-- Node173&#45;&gt;Node174 -->
<g id="edge30" class="edge"><title>Node173&#45;&gt;Node174</title>
<path fill="none" stroke="midnightblue" d="M837.27,-319.283C850.12,-321.226 863.358,-323.227 875.801,-325.108"/>
<polygon fill="midnightblue" stroke="midnightblue" points="837.481,-315.776 827.07,-317.742 836.434,-322.697 837.481,-315.776"/>
</g>
<!-- Node176 -->
<g id="node26" class="node"><title>Node176</title>
<g id="a_node26"><a xlink:href="class_altair.html#a2eb0a89c3223b2df1c01d2b3b7d1c0eb" target="_top" xlink:title="Rafraichir le projet .alt après avoir actualisé l&#39;interface. ">
<polygon fill="white" stroke="black" points="884.5,-203.708 884.5,-222.708 989.5,-222.708 989.5,-203.708 884.5,-203.708"/>
<text text-anchor="middle" x="937" y="-210.708" font-family="Helvetica,sans-Serif" font-size="10.00">Altair::updateProject</text>
</a>
</g>
</g>
<!-- Node173&#45;&gt;Node176 -->
<g id="edge34" class="edge"><title>Node173&#45;&gt;Node176</title>
<path fill="none" stroke="midnightblue" d="M790.304,-293.679C825.944,-273.994 888.58,-239.399 918.771,-222.724"/>
<polygon fill="midnightblue" stroke="midnightblue" points="788.5,-290.677 781.439,-298.576 791.885,-296.805 788.5,-290.677"/>
</g>
<!-- Node174&#45;&gt;Node175 -->
<g id="edge31" class="edge"><title>Node174&#45;&gt;Node175</title>
<path fill="none" stroke="midnightblue" d="M987.703,-352.948C1022.59,-366.101 1067.8,-383.147 1095.58,-393.624"/>
<polygon fill="midnightblue" stroke="midnightblue" points="988.752,-349.603 978.16,-349.35 986.282,-356.153 988.752,-349.603"/>
</g>
<!-- Node175&#45;&gt;Node161 -->
<g id="edge32" class="edge"><title>Node175&#45;&gt;Node161</title>
<path fill="none" stroke="midnightblue" d="M1146.76,-418.386C1183.83,-442.078 1255.04,-487.574 1291.97,-511.176"/>
<polygon fill="midnightblue" stroke="midnightblue" points="1148.42,-415.294 1138.11,-412.859 1144.65,-421.193 1148.42,-415.294"/>
</g>
<!-- Node175&#45;&gt;Node162 -->
<g id="edge33" class="edge"><title>Node175&#45;&gt;Node162</title>
<path fill="none" stroke="midnightblue" d="M1220.57,-412.838C1234.1,-414.174 1247.59,-415.505 1259.98,-416.728"/>
<polygon fill="midnightblue" stroke="midnightblue" points="1220.53,-409.318 1210.24,-411.818 1219.85,-416.284 1220.53,-409.318"/>
</g>
<!-- Node176&#45;&gt;Node157 -->
<g id="edge35" class="edge"><title>Node176&#45;&gt;Node157</title>
<path fill="none" stroke="midnightblue" d="M993.656,-201.571C1048.67,-190.015 1135.2,-171.689 1210,-155.208 1234.21,-149.872 1261.51,-143.658 1282.26,-138.89"/>
<polygon fill="midnightblue" stroke="midnightblue" points="992.829,-198.168 983.761,-203.648 994.267,-205.019 992.829,-198.168"/>
</g>
<!-- Node176&#45;&gt;Node158 -->
<g id="edge37" class="edge"><title>Node176&#45;&gt;Node158</title>
<path fill="none" stroke="midnightblue" d="M982.909,-227.074C988.342,-229.897 993.539,-233.248 998,-237.208 1022.99,-259.39 1007.82,-282.451 1034,-303.208 1046.28,-312.941 1062.24,-318.733 1077.13,-322.176"/>
<polygon fill="midnightblue" stroke="midnightblue" points="984.175,-223.804 973.628,-222.806 981.251,-230.164 984.175,-223.804"/>
</g>
<!-- Node176&#45;&gt;Node168 -->
<g id="edge36" class="edge"><title>Node176&#45;&gt;Node168</title>
<path fill="none" stroke="midnightblue" d="M967.721,-198.685C978.51,-192.169 990,-183.589 998,-173.208 1028.11,-134.131 997.164,-101.024 1034,-68.2078 1044.62,-58.7465 1058.84,-53.6316 1072.71,-50.9611"/>
<polygon fill="midnightblue" stroke="midnightblue" points="965.895,-195.696 958.915,-203.667 969.343,-201.789 965.895,-195.696"/>
</g>
<!-- Node177 -->
<g id="node27" class="node"><title>Node177</title>
<g id="a_node27"><a xlink:href="class_altair.html#a299584936cc20c9a1451977264eba1f5" target="_top" xlink:title="Ecrase un item d&#39;un onglet donné ">
<polygon fill="white" stroke="black" points="1068.5,-116.208 1068.5,-146.208 1175.5,-146.208 1175.5,-116.208 1068.5,-116.208"/>
<text text-anchor="start" x="1076.5" y="-134.208" font-family="Helvetica,sans-Serif" font-size="10.00">Altair::on_deleteItem</text>
<text text-anchor="middle" x="1122" y="-123.208" font-family="Helvetica,sans-Serif" font-size="10.00">_clicked</text>
</a>
</g>
</g>
<!-- Node176&#45;&gt;Node177 -->
<g id="edge38" class="edge"><title>Node176&#45;&gt;Node177</title>
<path fill="none" stroke="midnightblue" d="M962.551,-198.452C981.62,-187.352 1008.95,-172.222 1034,-161.208 1046.29,-155.806 1059.88,-150.719 1072.59,-146.322"/>
<polygon fill="midnightblue" stroke="midnightblue" points="960.743,-195.455 953.899,-203.542 964.293,-201.488 960.743,-195.455"/>
</g>
<!-- Node178 -->
<g id="node28" class="node"><title>Node178</title>
<g id="a_node28"><a xlink:href="classoptions.html#a52a9fb1d5bdb6ed104e700390b8c0208" target="_top" xlink:title="Constructeur de l&#39;onglet correspondant à un pointeur parent vers une instance de la classe Altair...">
<polygon fill="white" stroke="black" points="1079,-77.7078 1079,-96.7078 1165,-96.7078 1165,-77.7078 1079,-77.7078"/>
<text text-anchor="middle" x="1122" y="-84.7078" font-family="Helvetica,sans-Serif" font-size="10.00">options::options</text>
</a>
</g>
</g>
<!-- Node176&#45;&gt;Node178 -->
<g id="edge40" class="edge"><title>Node176&#45;&gt;Node178</title>
<path fill="none" stroke="midnightblue" d="M965.91,-198.554C976.846,-191.863 988.92,-183.194 998,-173.208 1020.74,-148.197 1007.02,-126.568 1034,-106.208 1046.84,-96.5237 1063.6,-91.5721 1078.98,-89.1062"/>
<polygon fill="midnightblue" stroke="midnightblue" points="963.964,-195.637 957.083,-203.694 967.486,-201.687 963.964,-195.637"/>
</g>
<!-- Node179 -->
<g id="node29" class="node"><title>Node179</title>
<g id="a_node29"><a xlink:href="class_altair.html#aab5da600c227ac7eb604fa24a9308d26" target="_top" xlink:title="Enregistre le projet .alt en actualisant projectName et l&#39;état de l&#39;interface &#160;. ">
<polygon fill="white" stroke="black" points="1056.5,-203.708 1056.5,-222.708 1187.5,-222.708 1187.5,-203.708 1056.5,-203.708"/>
<text text-anchor="middle" x="1122" y="-210.708" font-family="Helvetica,sans-Serif" font-size="10.00">Altair::requestSaveProject</text>
</a>
</g>
</g>
<!-- Node176&#45;&gt;Node179 -->
<g id="edge41" class="edge"><title>Node176&#45;&gt;Node179</title>
<path fill="none" stroke="midnightblue" d="M1000.08,-213.208C1018.16,-213.208 1037.95,-213.208 1056.2,-213.208"/>
<polygon fill="midnightblue" stroke="midnightblue" points="999.951,-209.708 989.951,-213.208 999.951,-216.708 999.951,-209.708"/>
</g>
<!-- Node180 -->
<g id="node30" class="node"><title>Node180</title>
<g id="a_node30"><a xlink:href="class_altair.html#a7d10f8ecf4097577885172afb6c2e9c6" target="_top" xlink:title="Lance l&#39;exécution de l&#39;application en ligne de commande lhx. ">
<polygon fill="white" stroke="black" points="1451.5,-241.708 1451.5,-260.708 1510.5,-260.708 1510.5,-241.708 1451.5,-241.708"/>
<text text-anchor="middle" x="1481" y="-248.708" font-family="Helvetica,sans-Serif" font-size="10.00">Altair::run</text>
</a>
</g>
</g>
<!-- Node176&#45;&gt;Node180 -->
<g id="edge42" class="edge"><title>Node176&#45;&gt;Node180</title>
<path fill="none" stroke="midnightblue" d="M977.515,-226.638C984.56,-229.69 991.666,-233.226 998,-237.208 1016.38,-248.76 1013.77,-262.339 1034,-270.208 1181.89,-327.734 1378.51,-281.087 1451.31,-260.104"/>
<polygon fill="midnightblue" stroke="midnightblue" points="978.605,-223.303 968.023,-222.779 975.969,-229.787 978.605,-223.303"/>
</g>
<!-- Node181 -->
<g id="node31" class="node"><title>Node181</title>
<g id="a_node31"><a xlink:href="class_altair.html#a08b5e402c9a694af09110afe33219080" target="_top" xlink:title="Construction de la ligne de commande pour des bases de paye dans un répertoire donné ...">
<polygon fill="white" stroke="black" points="1077,-241.708 1077,-260.708 1167,-260.708 1167,-241.708 1077,-241.708"/>
<text text-anchor="middle" x="1122" y="-248.708" font-family="Helvetica,sans-Serif" font-size="10.00">Altair::runWorker</text>
</a>
</g>
</g>
<!-- Node176&#45;&gt;Node181 -->
<g id="edge43" class="edge"><title>Node176&#45;&gt;Node181</title>
<path fill="none" stroke="midnightblue" d="M994.099,-224.857C1020.64,-230.369 1051.89,-236.856 1076.73,-242.015"/>
<polygon fill="midnightblue" stroke="midnightblue" points="994.681,-221.403 984.179,-222.797 993.258,-228.257 994.681,-221.403"/>
</g>
<!-- Node177&#45;&gt;Node157 -->
<g id="edge39" class="edge"><title>Node177&#45;&gt;Node157</title>
<path fill="none" stroke="midnightblue" d="M1185.82,-131.208C1217.99,-131.208 1255.85,-131.208 1282.33,-131.208"/>
<polygon fill="midnightblue" stroke="midnightblue" points="1185.6,-127.708 1175.6,-131.208 1185.6,-134.708 1185.6,-127.708"/>
</g>
<!-- Node181&#45;&gt;Node180 -->
<g id="edge44" class="edge"><title>Node181&#45;&gt;Node180</title>
<path fill="none" stroke="midnightblue" d="M1177.57,-251.208C1254.49,-251.208 1392.04,-251.208 1451.42,-251.208"/>
<polygon fill="midnightblue" stroke="midnightblue" points="1177.13,-247.708 1167.13,-251.208 1177.13,-254.708 1177.13,-247.708"/>
</g>
<!-- Node182 -->
<g id="node32" class="node"><title>Node182</title>
<g id="a_node32"><a xlink:href="class_altair.html#ae04f2a5771d47bbe2e0cc3a11b72d6bf" target="_top" xlink:title="Parcourt le répertoire en cours du mode distributif, un à chaque appel Exporte l&#39;identification dans ...">
<polygon fill="white" stroke="black" points="1248,-203.708 1248,-222.708 1385,-222.708 1385,-203.708 1248,-203.708"/>
<text text-anchor="middle" x="1316.5" y="-210.708" font-family="Helvetica,sans-Serif" font-size="10.00">Altair::runWorkerDistributed</text>
</a>
</g>
</g>
<!-- Node181&#45;&gt;Node182 -->
<g id="edge45" class="edge"><title>Node181&#45;&gt;Node182</title>
<path fill="none" stroke="midnightblue" d="M1177.28,-240.493C1205.54,-234.913 1239.81,-228.149 1267.15,-222.751"/>
<polygon fill="midnightblue" stroke="midnightblue" points="1176.3,-237.119 1167.16,-242.49 1177.65,-243.987 1176.3,-237.119"/>
</g>
<!-- Node182&#45;&gt;Node180 -->
<g id="edge47" class="edge"><title>Node182&#45;&gt;Node180</title>
<path fill="none" stroke="midnightblue" d="M1368.31,-225.089C1395.65,-231.482 1428.36,-239.133 1451.3,-244.496"/>
<polygon fill="midnightblue" stroke="midnightblue" points="1369.04,-221.666 1358.51,-222.797 1367.45,-228.482 1369.04,-221.666"/>
</g>
<!-- Node183 -->
<g id="node33" class="node"><title>Node183</title>
<g id="a_node33"><a xlink:href="class_altair.html#a16b8035c4383a789cd00b687fb105fe9" target="_top" xlink:title="Traitement de la fin de l&#39;exécution de lhx. ">
<polygon fill="white" stroke="black" points="1423,-203.708 1423,-222.708 1539,-222.708 1539,-203.708 1423,-203.708"/>
<text text-anchor="middle" x="1481" y="-210.708" font-family="Helvetica,sans-Serif" font-size="10.00">Altair::processFinished</text>
</a>
</g>
</g>
<!-- Node182&#45;&gt;Node183 -->
<g id="edge46" class="edge"><title>Node182&#45;&gt;Node183</title>
<path fill="none" stroke="midnightblue" d="M1395.08,-213.208C1404.41,-213.208 1413.81,-213.208 1422.78,-213.208"/>
<polygon fill="midnightblue" stroke="midnightblue" points="1395,-209.708 1385,-213.208 1395,-216.708 1395,-209.708"/>
</g>
<!-- Node184&#45;&gt;Node157 -->
<g id="edge51" class="edge"><title>Node184&#45;&gt;Node157</title>
<path fill="none" stroke="midnightblue" d="M806.899,-30.1726C888.769,-9.50831 1071.48,25.4104 1210,-30.2078 1257.06,-49.1031 1294.98,-100.12 1309.32,-121.536"/>
<polygon fill="midnightblue" stroke="midnightblue" points="806,-26.7897 797.191,-32.6763 807.748,-33.5679 806,-26.7897"/>
</g>
</g>
</svg>
        <g id="navigator" transform="translate(0 0)" fill="#404254">
                <rect fill="#f2f5e9" fill-opacity="0.5" stroke="#606060" stroke-width=".5" x="0" y="0" width="60" height="60"/>
                <use id="zoomplus" xlink:href="#zoomPlus" x="17" y="9" onmousedown="handleZoom(evt,'in')"/>
                <use id="zoomminus" xlink:href="#zoomMin" x="42" y="9" onmousedown="handleZoom(evt,'out')"/>
                <use id="reset" xlink:href="#resetDef" x="30" y="36" onmousedown="handleReset()"/>
                <g id="arrowUp" xlink:href="#dirArrow" transform="translate(30 24)" onmousedown="handlePan(0,-1)">
                  <use xlink:href="#rim" fill="#404040">
                        <set attributeName="fill" to="#808080" begin="arrowUp.mouseover" end="arrowUp.mouseout"/>
                  </use>
                  <path fill="none" stroke="white" stroke-width="1.5" d="M0,-3.0v7 M-2.5,-0.5L0,-3.0L2.5,-0.5"/>
                </g>
                <g id="arrowRight" xlink:href="#dirArrow" transform="rotate(90) translate(36 -43)" onmousedown="handlePan(1,0)">
                  <use xlink:href="#rim" fill="#404040">
                        <set attributeName="fill" to="#808080" begin="arrowRight.mouseover" end="arrowRight.mouseout"/>
                  </use>
                  <path fill="none" stroke="white" stroke-width="1.5" d="M0,-3.0v7 M-2.5,-0.5L0,-3.0L2.5,-0.5"/>
                </g>
                <g id="arrowDown" xlink:href="#dirArrow" transform="rotate(180) translate(-30 -48)" onmousedown="handlePan(0,1)">
                  <use xlink:href="#rim" fill="#404040">
                        <set attributeName="fill" to="#808080" begin="arrowDown.mouseover" end="arrowDown.mouseout"/>
                  </use>
                  <path fill="none" stroke="white" stroke-width="1.5" d="M0,-3.0v7 M-2.5,-0.5L0,-3.0L2.5,-0.5"/>
                </g>
                <g id="arrowLeft" xlink:href="#dirArrow" transform="rotate(270) translate(-36 17)" onmousedown="handlePan(-1,0)">
                  <use xlink:href="#rim" fill="#404040">
                        <set attributeName="fill" to="#808080" begin="arrowLeft.mouseover" end="arrowLeft.mouseout"/>
                  </use>
                  <path fill="none" stroke="white" stroke-width="1.5" d="M0,-3.0v7 M-2.5,-0.5L0,-3.0L2.5,-0.5"/>
                </g>
        </g>
        <svg viewBox="0 0 15 15" width="100%" height="30px" preserveAspectRatio="xMaxYMin meet">
         <g id="arrow_out" transform="scale(0.3 0.3)">
          <a xlink:href="class_f_list_frame_a4bf0d0d8e56418df395b020d2e66db5f_icgraph_org.svg" target="_base">
           <rect id="button" ry="5" rx="5" y="6" x="6" height="38" width="38"
                fill="#f2f5e9" fill-opacity="0.5" stroke="#606060" stroke-width="1.0"/>
           <path id="arrow"
             d="M 11.500037,31.436501 C 11.940474,20.09759 22.043105,11.32322 32.158766,21.979434 L 37.068811,17.246167 C 37.068811,17.246167 37.088388,32 37.088388,32 L 22.160133,31.978069 C 22.160133,31.978069 26.997745,27.140456 26.997745,27.140456 C 18.528582,18.264221 13.291696,25.230495 11.500037,31.436501 z"
             style="fill:#404040;"/>
          </a>
         </g>
        </svg>
</svg>
