<?xml version="1.0" encoding="UTF-8" standalone="no"?>
<!DOCTYPE svg PUBLIC "-//W3C//DTD SVG 1.1//EN"
 "http://www.w3.org/Graphics/SVG/1.1/DTD/svg11.dtd">
<!-- Generated by graphviz version 2.40.1 (20161225.0304)
 -->
<!-- Title: tools::IOControl Pages: 1 -->
<svg width="323pt" height="47pt"
 viewBox="0.00 0.00 323.00 47.00" xmlns="http://www.w3.org/2000/svg" xmlns:xlink="http://www.w3.org/1999/xlink">
<g id="graph0" class="graph" transform="scale(1 1) rotate(0) translate(4 43)">
<title>tools::IOControl</title>
<polygon fill="#ffffff" stroke="transparent" points="-4,4 -4,-43 319,-43 319,4 -4,4"/>
<!-- Node108 -->
<g id="node1" class="node">
<title>Node108</title>
<polygon fill="#bfbfbf" stroke="#000000" points="0,-.5 0,-19.5 86,-19.5 86,-.5 0,-.5"/>
<text text-anchor="middle" x="43" y="-7.5" font-family="Helvetica,sans-Serif" font-size="10.00" fill="#000000">tools::IOControl</text>
</g>
<!-- Node109 -->
<g id="node2" class="node">
<title>Node109</title>
<g id="a_node2"><a xlink:href="classtools.html#a37c9c486d90129b0d6a4ac93f29fd5bb" target="_top" xlink:title="Copie un répertoire de manière sécurisée. ">
<polygon fill="#ffffff" stroke="#000000" points="122,-19.5 122,-38.5 199,-38.5 199,-19.5 122,-19.5"/>
<text text-anchor="middle" x="160.5" y="-26.5" font-family="Helvetica,sans-Serif" font-size="10.00" fill="#000000">tools::copyDir</text>
</a>
</g>
</g>
<!-- Node108&#45;&gt;Node109 -->
<g id="edge1" class="edge">
<title>Node108&#45;&gt;Node109</title>
<path fill="none" stroke="#191970" d="M86.0855,-16.967C94.3739,-18.3073 103.1111,-19.7201 111.5688,-21.0877"/>
<polygon fill="#191970" stroke="#191970" points="111.2674,-24.5844 121.6979,-22.7256 112.3849,-17.6741 111.2674,-24.5844"/>
</g>
<!-- Node110 -->
<g id="node3" class="node">
<title>Node110</title>
<g id="a_node3"><a xlink:href="classtools.html#a0765c68c41d7c957f1fb0f0da8b4a9c9" target="_top" xlink:title="Copie un fichier de manière sécurisée. ">
<polygon fill="#ffffff" stroke="#000000" points="235,-.5 235,-19.5 315,-19.5 315,-.5 235,-.5"/>
<text text-anchor="middle" x="275" y="-7.5" font-family="Helvetica,sans-Serif" font-size="10.00" fill="#000000">tools::copyFile</text>
</a>
</g>
</g>
<!-- Node109&#45;&gt;Node110 -->
<g id="edge2" class="edge">
<title>Node109&#45;&gt;Node110</title>
<path fill="none" stroke="#191970" d="M199.2645,-22.5675C207.4715,-21.2056 216.2463,-19.7495 224.8073,-18.3289"/>
<polygon fill="#191970" stroke="#191970" points="225.42,-21.7752 234.7121,-16.6853 224.274,-14.8696 225.42,-21.7752"/>
</g>
<!-- Node110&#45;&gt;Node108 -->
<g id="edge3" class="edge">
<title>Node110&#45;&gt;Node108</title>
<path fill="none" stroke="#191970" d="M234.8525,-10C196.4822,-10 138.3948,-10 96.1896,-10"/>
<polygon fill="#191970" stroke="#191970" points="96.0937,-6.5001 86.0937,-10 96.0937,-13.5001 96.0937,-6.5001"/>
</g>
</g>
</svg>
