<?xml version="1.0" encoding="UTF-8" standalone="no"?>
<!DOCTYPE svg PUBLIC "-//W3C//DTD SVG 1.1//EN"
 "http://www.w3.org/Graphics/SVG/1.1/DTD/svg11.dtd">
<!-- Generated by graphviz version 2.38.0 (20140413.2041)
 -->
<!-- Title: FAbstractWidget::getComponentList Pages: 1 -->
<!--zoomable 127 -->
<svg id="main" version="1.1" xmlns="http://www.w3.org/2000/svg" xmlns:xlink="http://www.w3.org/1999/xlink" xml:space="preserve" onload="init(evt)">
<style type="text/css"><![CDATA[
.edge:hover path { stroke: red; }
.edge:hover polygon { stroke: red; fill: red; }
]]></style>
<script type="text/javascript"><![CDATA[
var edges = document.getElementsByTagName('g');
if (edges && edges.length) {
  for (var i=0;i<edges.length;i++) {
    if (edges[i].id.substr(0,4)=='edge') {
      edges[i].setAttribute('class','edge');
    }
  }
}
]]></script>
        <defs>
                <circle id="rim" cx="0" cy="0" r="7"/>
                <circle id="rim2" cx="0" cy="0" r="3.5"/>
                <g id="zoomPlus">
                        <use xlink:href="#rim" fill="#404040">
                                <set attributeName="fill" to="#808080" begin="zoomplus.mouseover" end="zoomplus.mouseout"/>
                        </use>
                        <path d="M-4,0h8M0,-4v8" fill="none" stroke="white" stroke-width="1.5" pointer-events="none"/>
                </g>
                <g id="zoomMin">
                        <use xlink:href="#rim" fill="#404040">
                                <set attributeName="fill" to="#808080" begin="zoomminus.mouseover" end="zoomminus.mouseout"/>
                        </use>
                        <path d="M-4,0h8" fill="none" stroke="white" stroke-width="1.5" pointer-events="none"/>
                </g>
                <g id="dirArrow">
                        <path fill="none" stroke="white" stroke-width="1.5" d="M0,-3.0v7 M-2.5,-0.5L0,-3.0L2.5,-0.5"/>
                </g>
               <g id="resetDef">
                       <use xlink:href="#rim2" fill="#404040">
                               <set attributeName="fill" to="#808080" begin="reset.mouseover" end="reset.mouseout"/>
                       </use>
               </g>
        </defs>

<script type="text/javascript">
var viewWidth = 696;
var viewHeight = 127;
var sectionId = 'dynsection-6';
</script>
<script xlink:href="svgpan.js"/>
<svg id="graph" class="graph">
<g id="viewport">
<title>FAbstractWidget::getComponentList</title>
<polygon fill="white" stroke="none" points="-4,4 -4,-122.5 692,-122.5 692,4 -4,4"/>
<!-- Node20 -->
<g id="node1" class="node"><title>Node20</title>
<polygon fill="#bfbfbf" stroke="black" points="0,-55 0,-74 176,-74 176,-55 0,-55"/>
<text text-anchor="middle" x="88" y="-62" font-family="Helvetica,sans-Serif" font-size="10.00">FAbstractWidget::getComponentList</text>
</g>
<!-- Node21 -->
<g id="node2" class="node"><title>Node21</title>
<g id="a_node2"><a xlink:href="class_f_abstract_connection.html#afbf1c1d7d9f7f8c39659cff4ce05f87f" target="_top" xlink:title="FAbstractConnection\l::meta_connect">
<polygon fill="white" stroke="black" points="212,-49.5 212,-79.5 321,-79.5 321,-49.5 212,-49.5"/>
<text text-anchor="start" x="220" y="-67.5" font-family="Helvetica,sans-Serif" font-size="10.00">FAbstractConnection</text>
<text text-anchor="middle" x="266.5" y="-56.5" font-family="Helvetica,sans-Serif" font-size="10.00">::meta_connect</text>
</a>
</g>
</g>
<!-- Node20&#45;&gt;Node21 -->
<g id="edge1" class="edge"><title>Node20&#45;&gt;Node21</title>
<path fill="none" stroke="midnightblue" d="M186.461,-64.5C195.158,-64.5 203.735,-64.5 211.848,-64.5"/>
<polygon fill="midnightblue" stroke="midnightblue" points="186.216,-61.0001 176.216,-64.5 186.216,-68.0001 186.216,-61.0001"/>
</g>
<!-- Node22 -->
<g id="node3" class="node"><title>Node22</title>
<g id="a_node3"><a xlink:href="class_f_abstract_widget.html#aa147737576be8ca1fcf75d06f362b2b2" target="_top" xlink:title="FAbstractWidget::FCore">
<polygon fill="white" stroke="black" points="367,-99 367,-118 490,-118 490,-99 367,-99"/>
<text text-anchor="middle" x="428.5" y="-106" font-family="Helvetica,sans-Serif" font-size="10.00">FAbstractWidget::FCore</text>
</a>
</g>
</g>
<!-- Node21&#45;&gt;Node22 -->
<g id="edge2" class="edge"><title>Node21&#45;&gt;Node22</title>
<path fill="none" stroke="midnightblue" d="M330.803,-82.2598C339.598,-84.7049 348.522,-87.1736 357,-89.5 368.369,-92.6197 380.781,-95.9802 391.979,-98.9949"/>
<polygon fill="midnightblue" stroke="midnightblue" points="331.529,-78.829 320.957,-79.5181 329.651,-85.5724 331.529,-78.829"/>
</g>
<!-- Node23 -->
<g id="node4" class="node"><title>Node23</title>
<g id="a_node4"><a xlink:href="class_f_abstract_connection.html#a892703c9c58da4d4a8184d43d0d94fc7" target="_top" xlink:title="FAbstractConnection\l::meta_connect">
<polygon fill="white" stroke="black" points="374,-49.5 374,-79.5 483,-79.5 483,-49.5 374,-49.5"/>
<text text-anchor="start" x="382" y="-67.5" font-family="Helvetica,sans-Serif" font-size="10.00">FAbstractConnection</text>
<text text-anchor="middle" x="428.5" y="-56.5" font-family="Helvetica,sans-Serif" font-size="10.00">::meta_connect</text>
</a>
</g>
</g>
<!-- Node21&#45;&gt;Node23 -->
<g id="edge3" class="edge"><title>Node21&#45;&gt;Node23</title>
<path fill="none" stroke="midnightblue" d="M331.347,-64.5C345.457,-64.5 360.266,-64.5 373.919,-64.5"/>
<polygon fill="midnightblue" stroke="midnightblue" points="331.223,-61.0001 321.223,-64.5 331.223,-68.0001 331.223,-61.0001"/>
</g>
<!-- Node24 -->
<g id="node5" class="node"><title>Node24</title>
<g id="a_node5"><a xlink:href="class_f_abstract_widget.html#ac95a769d8e274582de7bf014a3289a39" target="_top" xlink:title="FAbstractWidget::setDisable\lObjects">
<polygon fill="white" stroke="black" points="357,-0.5 357,-30.5 500,-30.5 500,-0.5 357,-0.5"/>
<text text-anchor="start" x="365" y="-18.5" font-family="Helvetica,sans-Serif" font-size="10.00">FAbstractWidget::setDisable</text>
<text text-anchor="middle" x="428.5" y="-7.5" font-family="Helvetica,sans-Serif" font-size="10.00">Objects</text>
</a>
</g>
</g>
<!-- Node21&#45;&gt;Node24 -->
<g id="edge4" class="edge"><title>Node21&#45;&gt;Node24</title>
<path fill="none" stroke="midnightblue" d="M326.644,-46.3871C343.654,-41.1778 362.016,-35.5543 378.352,-30.5516"/>
<polygon fill="midnightblue" stroke="midnightblue" points="325.348,-43.1237 316.811,-49.3986 327.397,-49.8168 325.348,-43.1237"/>
</g>
<!-- Node25 -->
<g id="node6" class="node"><title>Node25</title>
<g id="a_node6"><a xlink:href="class_main_window.html#ab7fcfafb1f92c51e6452893672775d41" target="_top" xlink:title="Créer le dialogue de configuration de l&#39;interface graphique. ">
<polygon fill="white" stroke="black" points="536,-6 536,-25 688,-25 688,-6 536,-6"/>
<text text-anchor="middle" x="612" y="-13" font-family="Helvetica,sans-Serif" font-size="10.00">MainWindow::configureOptions</text>
</a>
</g>
</g>
<!-- Node24&#45;&gt;Node25 -->
<g id="edge5" class="edge"><title>Node24&#45;&gt;Node25</title>
<path fill="none" stroke="midnightblue" d="M510.388,-15.5C518.809,-15.5 527.345,-15.5 535.701,-15.5"/>
<polygon fill="midnightblue" stroke="midnightblue" points="510.192,-12.0001 500.192,-15.5 510.192,-19.0001 510.192,-12.0001"/>
</g>
</g>
</svg>
        <g id="navigator" transform="translate(0 0)" fill="#404254">
                <rect fill="#f2f5e9" fill-opacity="0.5" stroke="#606060" stroke-width=".5" x="0" y="0" width="60" height="60"/>
                <use id="zoomplus" xlink:href="#zoomPlus" x="17" y="9" onmousedown="handleZoom(evt,'in')"/>
                <use id="zoomminus" xlink:href="#zoomMin" x="42" y="9" onmousedown="handleZoom(evt,'out')"/>
                <use id="reset" xlink:href="#resetDef" x="30" y="36" onmousedown="handleReset()"/>
                <g id="arrowUp" xlink:href="#dirArrow" transform="translate(30 24)" onmousedown="handlePan(0,-1)">
                  <use xlink:href="#rim" fill="#404040">
                        <set attributeName="fill" to="#808080" begin="arrowUp.mouseover" end="arrowUp.mouseout"/>
                  </use>
                  <path fill="none" stroke="white" stroke-width="1.5" d="M0,-3.0v7 M-2.5,-0.5L0,-3.0L2.5,-0.5"/>
                </g>
                <g id="arrowRight" xlink:href="#dirArrow" transform="rotate(90) translate(36 -43)" onmousedown="handlePan(1,0)">
                  <use xlink:href="#rim" fill="#404040">
                        <set attributeName="fill" to="#808080" begin="arrowRight.mouseover" end="arrowRight.mouseout"/>
                  </use>
                  <path fill="none" stroke="white" stroke-width="1.5" d="M0,-3.0v7 M-2.5,-0.5L0,-3.0L2.5,-0.5"/>
                </g>
                <g id="arrowDown" xlink:href="#dirArrow" transform="rotate(180) translate(-30 -48)" onmousedown="handlePan(0,1)">
                  <use xlink:href="#rim" fill="#404040">
                        <set attributeName="fill" to="#808080" begin="arrowDown.mouseover" end="arrowDown.mouseout"/>
                  </use>
                  <path fill="none" stroke="white" stroke-width="1.5" d="M0,-3.0v7 M-2.5,-0.5L0,-3.0L2.5,-0.5"/>
                </g>
                <g id="arrowLeft" xlink:href="#dirArrow" transform="rotate(270) translate(-36 17)" onmousedown="handlePan(-1,0)">
                  <use xlink:href="#rim" fill="#404040">
                        <set attributeName="fill" to="#808080" begin="arrowLeft.mouseover" end="arrowLeft.mouseout"/>
                  </use>
                  <path fill="none" stroke="white" stroke-width="1.5" d="M0,-3.0v7 M-2.5,-0.5L0,-3.0L2.5,-0.5"/>
                </g>
        </g>
        <svg viewBox="0 0 15 15" width="100%" height="30px" preserveAspectRatio="xMaxYMin meet">
         <g id="arrow_out" transform="scale(0.3 0.3)">
          <a xlink:href="class_f_abstract_widget_a0275be1c2f0cc30e047cd75d207b59e0_icgraph_org.svg" target="_base">
           <rect id="button" ry="5" rx="5" y="6" x="6" height="38" width="38"
                fill="#f2f5e9" fill-opacity="0.5" stroke="#606060" stroke-width="1.0"/>
           <path id="arrow"
             d="M 11.500037,31.436501 C 11.940474,20.09759 22.043105,11.32322 32.158766,21.979434 L 37.068811,17.246167 C 37.068811,17.246167 37.088388,32 37.088388,32 L 22.160133,31.978069 C 22.160133,31.978069 26.997745,27.140456 26.997745,27.140456 C 18.528582,18.264221 13.291696,25.230495 11.500037,31.436501 z"
             style="fill:#404040;"/>
          </a>
         </g>
        </svg>
</svg>
