<?xml version="1.0" encoding="UTF-8" standalone="no"?>
<!DOCTYPE svg PUBLIC "-//W3C//DTD SVG 1.1//EN"
 "http://www.w3.org/Graphics/SVG/1.1/DTD/svg11.dtd">
<!-- Generated by graphviz version 2.38.0 (20140413.2041)
 -->
<!-- Title: MainWindow::feedRConsoleWithHtml Pages: 1 -->
<!--zoomable 66 -->
<svg id="main" version="1.1" xmlns="http://www.w3.org/2000/svg" xmlns:xlink="http://www.w3.org/1999/xlink" xml:space="preserve" onload="init(evt)">
<style type="text/css"><![CDATA[
.edge:hover path { stroke: red; }
.edge:hover polygon { stroke: red; fill: red; }
]]></style>
<script type="text/javascript"><![CDATA[
var edges = document.getElementsByTagName('g');
if (edges && edges.length) {
  for (var i=0;i<edges.length;i++) {
    if (edges[i].id.substr(0,4)=='edge') {
      edges[i].setAttribute('class','edge');
    }
  }
}
]]></script>
        <defs>
                <circle id="rim" cx="0" cy="0" r="7"/>
                <circle id="rim2" cx="0" cy="0" r="3.5"/>
                <g id="zoomPlus">
                        <use xlink:href="#rim" fill="#404040">
                                <set attributeName="fill" to="#808080" begin="zoomplus.mouseover" end="zoomplus.mouseout"/>
                        </use>
                        <path d="M-4,0h8M0,-4v8" fill="none" stroke="white" stroke-width="1.5" pointer-events="none"/>
                </g>
                <g id="zoomMin">
                        <use xlink:href="#rim" fill="#404040">
                                <set attributeName="fill" to="#808080" begin="zoomminus.mouseover" end="zoomminus.mouseout"/>
                        </use>
                        <path d="M-4,0h8" fill="none" stroke="white" stroke-width="1.5" pointer-events="none"/>
                </g>
                <g id="dirArrow">
                        <path fill="none" stroke="white" stroke-width="1.5" d="M0,-3.0v7 M-2.5,-0.5L0,-3.0L2.5,-0.5"/>
                </g>
               <g id="resetDef">
                       <use xlink:href="#rim2" fill="#404040">
                               <set attributeName="fill" to="#808080" begin="reset.mouseover" end="reset.mouseout"/>
                       </use>
               </g>
        </defs>

<script type="text/javascript">
var viewWidth = 600;
var viewHeight = 66;
var sectionId = 'dynsection-10';
</script>
<script xlink:href="svgpan.js"/>
<svg id="graph" class="graph">
<g id="viewport">
<title>MainWindow::feedRConsoleWithHtml</title>
<polygon fill="white" stroke="none" points="-4,4 -4,-62 596,-62 596,4 -4,4"/>
<!-- Node51 -->
<g id="node1" class="node"><title>Node51</title>
<polygon fill="#bfbfbf" stroke="black" points="0,-14 0,-44 141,-44 141,-14 0,-14"/>
<text text-anchor="start" x="8" y="-32" font-family="Helvetica,sans-Serif" font-size="10.00">MainWindow::feedRConsole</text>
<text text-anchor="middle" x="70.5" y="-21" font-family="Helvetica,sans-Serif" font-size="10.00">WithHtml</text>
</g>
<!-- Node52 -->
<g id="node2" class="node"><title>Node52</title>
<g id="a_node2"><a xlink:href="class_altair.html#a08b5e402c9a694af09110afe33219080" target="_top" xlink:title="Construction de la ligne de commande pour des bases de paye dans un répertoire donné ...">
<polygon fill="white" stroke="black" points="177,-19.5 177,-38.5 267,-38.5 267,-19.5 177,-19.5"/>
<text text-anchor="middle" x="222" y="-26.5" font-family="Helvetica,sans-Serif" font-size="10.00">Altair::runWorker</text>
</a>
</g>
</g>
<!-- Node51&#45;&gt;Node52 -->
<g id="edge1" class="edge"><title>Node51&#45;&gt;Node52</title>
<path fill="none" stroke="midnightblue" d="M151.578,-29C160.204,-29 168.736,-29 176.709,-29"/>
<polygon fill="midnightblue" stroke="midnightblue" points="151.435,-25.5001 141.435,-29 151.435,-32.5001 151.435,-25.5001"/>
</g>
<!-- Node53 -->
<g id="node3" class="node"><title>Node53</title>
<g id="a_node3"><a xlink:href="class_altair.html#a7d10f8ecf4097577885172afb6c2e9c6" target="_top" xlink:title="Lance l&#39;exécution de l&#39;application en ligne de commande lhx. ">
<polygon fill="white" stroke="black" points="504.5,-38.5 504.5,-57.5 563.5,-57.5 563.5,-38.5 504.5,-38.5"/>
<text text-anchor="middle" x="534" y="-45.5" font-family="Helvetica,sans-Serif" font-size="10.00">Altair::run</text>
</a>
</g>
</g>
<!-- Node52&#45;&gt;Node53 -->
<g id="edge2" class="edge"><title>Node52&#45;&gt;Node53</title>
<path fill="none" stroke="midnightblue" d="M277.317,-32.3291C343.467,-36.3834 452.743,-43.081 504.336,-46.2432"/>
<polygon fill="midnightblue" stroke="midnightblue" points="277.282,-28.8205 267.086,-31.7021 276.853,-35.8074 277.282,-28.8205"/>
</g>
<!-- Node54 -->
<g id="node4" class="node"><title>Node54</title>
<g id="a_node4"><a xlink:href="class_altair.html#ae04f2a5771d47bbe2e0cc3a11b72d6bf" target="_top" xlink:title="Parcourt le répertoire en cours du mode distributif, un à chaque appel Exporte l&#39;identification dans ...">
<polygon fill="white" stroke="black" points="303,-0.5 303,-19.5 440,-19.5 440,-0.5 303,-0.5"/>
<text text-anchor="middle" x="371.5" y="-7.5" font-family="Helvetica,sans-Serif" font-size="10.00">Altair::runWorkerDistributed</text>
</a>
</g>
</g>
<!-- Node52&#45;&gt;Node54 -->
<g id="edge3" class="edge"><title>Node52&#45;&gt;Node54</title>
<path fill="none" stroke="midnightblue" d="M277.209,-22.0171C285.542,-20.9438 294.233,-19.8242 302.814,-18.7189"/>
<polygon fill="midnightblue" stroke="midnightblue" points="276.726,-18.5504 267.255,-23.2994 277.62,-25.493 276.726,-18.5504"/>
</g>
<!-- Node54&#45;&gt;Node53 -->
<g id="edge5" class="edge"><title>Node54&#45;&gt;Node53</title>
<path fill="none" stroke="midnightblue" d="M422.97,-21.9494C449.719,-28.2823 481.61,-35.833 504.155,-41.1707"/>
<polygon fill="midnightblue" stroke="midnightblue" points="423.538,-18.4871 413.001,-19.589 421.926,-25.2988 423.538,-18.4871"/>
</g>
<!-- Node55 -->
<g id="node5" class="node"><title>Node55</title>
<g id="a_node5"><a xlink:href="class_altair.html#a16b8035c4383a789cd00b687fb105fe9" target="_top" xlink:title="Traitement de la fin de l&#39;exécution de lhx. ">
<polygon fill="white" stroke="black" points="476,-0.5 476,-19.5 592,-19.5 592,-0.5 476,-0.5"/>
<text text-anchor="middle" x="534" y="-7.5" font-family="Helvetica,sans-Serif" font-size="10.00">Altair::processFinished</text>
</a>
</g>
</g>
<!-- Node54&#45;&gt;Node55 -->
<g id="edge4" class="edge"><title>Node54&#45;&gt;Node55</title>
<path fill="none" stroke="midnightblue" d="M450.215,-10C458.867,-10 467.558,-10 475.885,-10"/>
<polygon fill="midnightblue" stroke="midnightblue" points="450.101,-6.5001 440.101,-10 450.101,-13.5001 450.101,-6.5001"/>
</g>
</g>
</svg>
        <g id="navigator" transform="translate(0 0)" fill="#404254">
                <rect fill="#f2f5e9" fill-opacity="0.5" stroke="#606060" stroke-width=".5" x="0" y="0" width="60" height="60"/>
                <use id="zoomplus" xlink:href="#zoomPlus" x="17" y="9" onmousedown="handleZoom(evt,'in')"/>
                <use id="zoomminus" xlink:href="#zoomMin" x="42" y="9" onmousedown="handleZoom(evt,'out')"/>
                <use id="reset" xlink:href="#resetDef" x="30" y="36" onmousedown="handleReset()"/>
                <g id="arrowUp" xlink:href="#dirArrow" transform="translate(30 24)" onmousedown="handlePan(0,-1)">
                  <use xlink:href="#rim" fill="#404040">
                        <set attributeName="fill" to="#808080" begin="arrowUp.mouseover" end="arrowUp.mouseout"/>
                  </use>
                  <path fill="none" stroke="white" stroke-width="1.5" d="M0,-3.0v7 M-2.5,-0.5L0,-3.0L2.5,-0.5"/>
                </g>
                <g id="arrowRight" xlink:href="#dirArrow" transform="rotate(90) translate(36 -43)" onmousedown="handlePan(1,0)">
                  <use xlink:href="#rim" fill="#404040">
                        <set attributeName="fill" to="#808080" begin="arrowRight.mouseover" end="arrowRight.mouseout"/>
                  </use>
                  <path fill="none" stroke="white" stroke-width="1.5" d="M0,-3.0v7 M-2.5,-0.5L0,-3.0L2.5,-0.5"/>
                </g>
                <g id="arrowDown" xlink:href="#dirArrow" transform="rotate(180) translate(-30 -48)" onmousedown="handlePan(0,1)">
                  <use xlink:href="#rim" fill="#404040">
                        <set attributeName="fill" to="#808080" begin="arrowDown.mouseover" end="arrowDown.mouseout"/>
                  </use>
                  <path fill="none" stroke="white" stroke-width="1.5" d="M0,-3.0v7 M-2.5,-0.5L0,-3.0L2.5,-0.5"/>
                </g>
                <g id="arrowLeft" xlink:href="#dirArrow" transform="rotate(270) translate(-36 17)" onmousedown="handlePan(-1,0)">
                  <use xlink:href="#rim" fill="#404040">
                        <set attributeName="fill" to="#808080" begin="arrowLeft.mouseover" end="arrowLeft.mouseout"/>
                  </use>
                  <path fill="none" stroke="white" stroke-width="1.5" d="M0,-3.0v7 M-2.5,-0.5L0,-3.0L2.5,-0.5"/>
                </g>
        </g>
        <svg viewBox="0 0 15 15" width="100%" height="30px" preserveAspectRatio="xMaxYMin meet">
         <g id="arrow_out" transform="scale(0.3 0.3)">
          <a xlink:href="class_main_window_ad5413bb37042daa28f5fd7d72b4b616c_icgraph_org.svg" target="_base">
           <rect id="button" ry="5" rx="5" y="6" x="6" height="38" width="38"
                fill="#f2f5e9" fill-opacity="0.5" stroke="#606060" stroke-width="1.0"/>
           <path id="arrow"
             d="M 11.500037,31.436501 C 11.940474,20.09759 22.043105,11.32322 32.158766,21.979434 L 37.068811,17.246167 C 37.068811,17.246167 37.088388,32 37.088388,32 L 22.160133,31.978069 C 22.160133,31.978069 26.997745,27.140456 26.997745,27.140456 C 18.528582,18.264221 13.291696,25.230495 11.500037,31.436501 z"
             style="fill:#404040;"/>
          </a>
         </g>
        </svg>
</svg>
