<?xml version="1.0" encoding="UTF-8" standalone="no"?>
<!DOCTYPE svg PUBLIC "-//W3C//DTD SVG 1.1//EN"
 "http://www.w3.org/Graphics/SVG/1.1/DTD/svg11.dtd">
<!-- Generated by graphviz version 2.38.0 (20140413.2041)
 -->
<!-- Title: processPage::processPage Pages: 1 -->
<svg width="335pt" height="180pt"
 viewBox="0.00 0.00 335.00 180.00" xmlns="http://www.w3.org/2000/svg" xmlns:xlink="http://www.w3.org/1999/xlink">
<g id="graph0" class="graph" transform="scale(1 1) rotate(0) translate(4 176)">
<title>processPage::processPage</title>
<polygon fill="white" stroke="none" points="-4,4 -4,-176 331,-176 331,4 -4,4"/>
<!-- Node0 -->
<g id="node1" class="node"><title>Node0</title>
<polygon fill="#bfbfbf" stroke="black" points="0,-76.5 0,-95.5 137,-95.5 137,-76.5 0,-76.5"/>
<text text-anchor="middle" x="68.5" y="-83.5" font-family="Helvetica,sans-Serif" font-size="10.00">processPage::processPage</text>
</g>
<!-- Node1 -->
<g id="node2" class="node"><title>Node1</title>
<g id="a_node2"><a xlink:href="templates_8h.html#af9e9a83f3128fefbef4968186ae6aa6b" target="_top" xlink:title="Crée une table de hachage entre deux listes de même longueur. ">
<polygon fill="white" stroke="black" points="216.5,-152.5 216.5,-171.5 283.5,-171.5 283.5,-152.5 216.5,-152.5"/>
<text text-anchor="middle" x="250" y="-159.5" font-family="Helvetica,sans-Serif" font-size="10.00">createHash</text>
</a>
</g>
</g>
<!-- Node0&#45;&gt;Node1 -->
<g id="edge1" class="edge"><title>Node0&#45;&gt;Node1</title>
<path fill="none" stroke="midnightblue" d="M83.9924,-95.5673C103.489,-108.06 139.585,-129.878 173,-143 183.565,-147.149 195.318,-150.612 206.362,-153.395"/>
<polygon fill="midnightblue" stroke="midnightblue" points="205.711,-156.838 216.251,-155.76 207.339,-150.03 205.711,-156.838"/>
</g>
<!-- Node2 -->
<g id="node3" class="node"><title>Node2</title>
<g id="a_node3"><a xlink:href="classtools.html#acba8057b8c8527f6a2df7a372e944abb" target="_top" xlink:title="tools::generateDatadirPath">
<polygon fill="white" stroke="black" points="183.5,-114.5 183.5,-133.5 316.5,-133.5 316.5,-114.5 183.5,-114.5"/>
<text text-anchor="middle" x="250" y="-121.5" font-family="Helvetica,sans-Serif" font-size="10.00">tools::generateDatadirPath</text>
</a>
</g>
</g>
<!-- Node0&#45;&gt;Node2 -->
<g id="edge2" class="edge"><title>Node0&#45;&gt;Node2</title>
<path fill="none" stroke="midnightblue" d="M114.795,-95.589C138.909,-100.694 168.751,-107.011 194.167,-112.392"/>
<polygon fill="midnightblue" stroke="midnightblue" points="193.522,-115.833 204.03,-114.48 194.972,-108.985 193.522,-115.833"/>
</g>
<!-- Node3 -->
<g id="node4" class="node"><title>Node3</title>
<g id="a_node4"><a xlink:href="class_f_line_frame.html#a5debca9f6fbf28824aff949dd245351d" target="_top" xlink:title="Accesseur en lecture de la liste des composants componentList. ">
<polygon fill="white" stroke="black" points="173,-76.5 173,-95.5 327,-95.5 327,-76.5 173,-76.5"/>
<text text-anchor="middle" x="250" y="-83.5" font-family="Helvetica,sans-Serif" font-size="10.00">FLineFrame::getComponentList</text>
</a>
</g>
</g>
<!-- Node0&#45;&gt;Node3 -->
<g id="edge3" class="edge"><title>Node0&#45;&gt;Node3</title>
<path fill="none" stroke="midnightblue" d="M137.105,-86C145.463,-86 154.093,-86 162.682,-86"/>
<polygon fill="midnightblue" stroke="midnightblue" points="162.726,-89.5001 172.726,-86 162.726,-82.5001 162.726,-89.5001"/>
</g>
<!-- Node4 -->
<g id="node5" class="node"><title>Node4</title>
<g id="a_node5"><a xlink:href="classtools.html#a89d2cd8ffcaed8423439c16d1ee59ab0" target="_top" xlink:title="tools::path_access">
<polygon fill="white" stroke="black" points="200.5,-38.5 200.5,-57.5 299.5,-57.5 299.5,-38.5 200.5,-38.5"/>
<text text-anchor="middle" x="250" y="-45.5" font-family="Helvetica,sans-Serif" font-size="10.00">tools::path_access</text>
</a>
</g>
</g>
<!-- Node0&#45;&gt;Node4 -->
<g id="edge4" class="edge"><title>Node0&#45;&gt;Node4</title>
<path fill="none" stroke="midnightblue" d="M114.795,-76.411C138.909,-71.3061 168.751,-64.9887 194.167,-59.6082"/>
<polygon fill="midnightblue" stroke="midnightblue" points="194.972,-63.0153 204.03,-57.5201 193.522,-56.1671 194.972,-63.0153"/>
</g>
<!-- Node5 -->
<g id="node6" class="node"><title>Node5</title>
<g id="a_node6"><a xlink:href="class_f_line_frame.html#ab34e6d28c51608cfdf2e4dae14501159" target="_top" xlink:title="Accesseur en écriture de pathCategory, type de chemin représenté par lineEdit. ">
<polygon fill="white" stroke="black" points="176,-0.5 176,-19.5 324,-19.5 324,-0.5 176,-0.5"/>
<text text-anchor="middle" x="250" y="-7.5" font-family="Helvetica,sans-Serif" font-size="10.00">FLineFrame::setPathCategory</text>
</a>
</g>
</g>
<!-- Node0&#45;&gt;Node5 -->
<g id="edge5" class="edge"><title>Node0&#45;&gt;Node5</title>
<path fill="none" stroke="midnightblue" d="M83.9924,-76.4327C103.489,-63.9396 139.585,-42.1216 173,-29 179.294,-26.5284 186.01,-24.3001 192.747,-22.314"/>
<polygon fill="midnightblue" stroke="midnightblue" points="193.888,-25.6293 202.584,-19.577 192.012,-18.8854 193.888,-25.6293"/>
</g>
</g>
</svg>
