<?xml version="1.0" encoding="UTF-8" standalone="no"?>
<!DOCTYPE svg PUBLIC "-//W3C//DTD SVG 1.1//EN"
 "http://www.w3.org/Graphics/SVG/1.1/DTD/svg11.dtd">
<!-- Generated by graphviz version 2.40.1 (20161225.0304)
 -->
<!-- Title: tools::unzip Pages: 1 -->
<svg width="367pt" height="75pt"
 viewBox="0.00 0.00 367.00 75.00" xmlns="http://www.w3.org/2000/svg" xmlns:xlink="http://www.w3.org/1999/xlink">
<g id="graph0" class="graph" transform="scale(1 1) rotate(0) translate(4 71)">
<title>tools::unzip</title>
<polygon fill="#ffffff" stroke="transparent" points="-4,4 -4,-71 363,-71 363,4 -4,4"/>
<!-- Node278 -->
<g id="node1" class="node">
<title>Node278</title>
<polygon fill="#bfbfbf" stroke="#000000" points="0,-28.5 0,-47.5 67,-47.5 67,-28.5 0,-28.5"/>
<text text-anchor="middle" x="33.5" y="-35.5" font-family="Helvetica,sans-Serif" font-size="10.00" fill="#000000">tools::unzip</text>
</g>
<!-- Node279 -->
<g id="node2" class="node">
<title>Node279</title>
<g id="a_node2"><a xlink:href="classtools.html#ac5f7b9c2e07af5dbb27169b256ac6300" target="_top" xlink:title="List un fichier entre deux lignes données et sur une largeur donnée. ">
<polygon fill="#ffffff" stroke="#000000" points="250,-47.5 250,-66.5 328,-66.5 328,-47.5 250,-47.5"/>
<text text-anchor="middle" x="289" y="-54.5" font-family="Helvetica,sans-Serif" font-size="10.00" fill="#000000">tools::readFile</text>
</a>
</g>
</g>
<!-- Node278&#45;&gt;Node279 -->
<g id="edge1" class="edge">
<title>Node278&#45;&gt;Node279</title>
<path fill="none" stroke="#191970" d="M71.3592,-50.3125C81.5235,-53.076 92.5861,-55.6022 103,-57 153.4073,-63.7661 212.1935,-62.2067 249.9687,-60.005"/>
<polygon fill="#191970" stroke="#191970" points="72.1288,-46.8922 61.5515,-47.5028 70.2009,-53.6215 72.1288,-46.8922"/>
</g>
<!-- Node280 -->
<g id="node3" class="node">
<title>Node280</title>
<g id="a_node3"><a xlink:href="class_main_window.html#ae11018a1c92bd7f20ff54a3f78eacb51" target="_top" xlink:title="Désarchiver le projet. ">
<polygon fill="#ffffff" stroke="#000000" points="219,-.5 219,-19.5 359,-19.5 359,-.5 219,-.5"/>
<text text-anchor="middle" x="289" y="-7.5" font-family="Helvetica,sans-Serif" font-size="10.00" fill="#000000">MainWindow::restoreProject</text>
</a>
</g>
</g>
<!-- Node278&#45;&gt;Node280 -->
<g id="edge2" class="edge">
<title>Node278&#45;&gt;Node280</title>
<path fill="none" stroke="#191970" d="M72.8097,-25.6492C82.5828,-23.0246 93.0977,-20.5737 103,-19 140.9952,-12.9617 183.8576,-10.5924 218.8522,-9.7858"/>
<polygon fill="#191970" stroke="#191970" points="71.6319,-22.3445 62.9504,-28.4176 73.5243,-29.0838 71.6319,-22.3445"/>
</g>
<!-- Node281 -->
<g id="node4" class="node">
<title>Node281</title>
<g id="a_node4"><a xlink:href="classtools.html#ae821185bfd6650842559ef2f9d92f1ac" target="_top" xlink:title="Décompresse l&#39;intégralité d&#39;un répertoire au format zip, et copie le dossier décompressé dans un chem...">
<polygon fill="#ffffff" stroke="#000000" points="103,-28.5 103,-47.5 183,-47.5 183,-28.5 103,-28.5"/>
<text text-anchor="middle" x="143" y="-35.5" font-family="Helvetica,sans-Serif" font-size="10.00" fill="#000000">tools::unzipDir</text>
</a>
</g>
</g>
<!-- Node278&#45;&gt;Node281 -->
<g id="edge3" class="edge">
<title>Node278&#45;&gt;Node281</title>
<path fill="none" stroke="#191970" d="M77.5131,-38C85.8102,-38 94.4497,-38 102.6284,-38"/>
<polygon fill="#191970" stroke="#191970" points="77.2471,-34.5001 67.2471,-38 77.2471,-41.5001 77.2471,-34.5001"/>
</g>
<!-- Node281&#45;&gt;Node279 -->
<g id="edge4" class="edge">
<title>Node281&#45;&gt;Node279</title>
<path fill="none" stroke="#191970" d="M193.306,-44.5467C211.8124,-46.955 232.4796,-49.6446 249.8582,-51.9062"/>
<polygon fill="#191970" stroke="#191970" points="193.6497,-41.062 183.2816,-43.2421 192.7463,-48.0034 193.6497,-41.062"/>
</g>
<!-- Node281&#45;&gt;Node280 -->
<g id="edge5" class="edge">
<title>Node281&#45;&gt;Node280</title>
<path fill="none" stroke="#191970" d="M193.306,-28.3523C208.1568,-25.5042 224.3991,-22.3892 239.2168,-19.5475"/>
<polygon fill="#191970" stroke="#191970" points="192.4434,-24.9538 183.2816,-30.2748 193.7619,-31.8286 192.4434,-24.9538"/>
</g>
</g>
</svg>
