<?xml version="1.0" encoding="UTF-8" standalone="no"?>
<!DOCTYPE svg PUBLIC "-//W3C//DTD SVG 1.1//EN"
 "http://www.w3.org/Graphics/SVG/1.1/DTD/svg11.dtd">
<!-- Generated by graphviz version 2.38.0 (20140413.2041)
 -->
<!-- Title: FListFrame::finalise Pages: 1 -->
<svg width="450pt" height="192pt"
 viewBox="0.00 0.00 450.00 192.00" xmlns="http://www.w3.org/2000/svg" xmlns:xlink="http://www.w3.org/1999/xlink">
<g id="graph0" class="graph" transform="scale(1 1) rotate(0) translate(4 188)">
<title>FListFrame::finalise</title>
<polygon fill="white" stroke="none" points="-4,4 -4,-188 446,-188 446,4 -4,4"/>
<!-- Node363 -->
<g id="node1" class="node"><title>Node363</title>
<polygon fill="#bfbfbf" stroke="black" points="0,-82.5 0,-101.5 107,-101.5 107,-82.5 0,-82.5"/>
<text text-anchor="middle" x="53.5" y="-89.5" font-family="Helvetica,sans-Serif" font-size="10.00">FListFrame::finalise</text>
</g>
<!-- Node364 -->
<g id="node2" class="node"><title>Node364</title>
<g id="a_node2"><a xlink:href="class_f_list_frame.html#a5c6ce884a0169251e359364921d1f89c" target="_top" xlink:title="FListFrame::addNewTab">
<polygon fill="white" stroke="black" points="152.5,-164.5 152.5,-183.5 283.5,-183.5 283.5,-164.5 152.5,-164.5"/>
<text text-anchor="middle" x="218" y="-171.5" font-family="Helvetica,sans-Serif" font-size="10.00">FListFrame::addNewTab</text>
</a>
</g>
</g>
<!-- Node363&#45;&gt;Node364 -->
<g id="edge1" class="edge"><title>Node363&#45;&gt;Node364</title>
<path fill="none" stroke="midnightblue" d="M65.1285,-101.578C80.9674,-115.36 112.213,-140.694 143,-155 148.24,-157.435 153.839,-159.591 159.524,-161.493"/>
<polygon fill="midnightblue" stroke="midnightblue" points="158.536,-164.851 169.124,-164.459 160.602,-158.163 158.536,-164.851"/>
</g>
<!-- Node366 -->
<g id="node4" class="node"><title>Node366</title>
<g id="a_node4"><a xlink:href="class_hash.html#a2ac10203aa8b32a04d9088e08ddbaab4" target="_top" xlink:title="Hash::createReference">
<polygon fill="white" stroke="black" points="155.5,-126.5 155.5,-145.5 280.5,-145.5 280.5,-126.5 155.5,-126.5"/>
<text text-anchor="middle" x="218" y="-133.5" font-family="Helvetica,sans-Serif" font-size="10.00">Hash::createReference</text>
</a>
</g>
</g>
<!-- Node363&#45;&gt;Node366 -->
<g id="edge3" class="edge"><title>Node363&#45;&gt;Node366</title>
<path fill="none" stroke="midnightblue" d="M87.6482,-101.567C104.243,-106.305 124.656,-112.055 143,-117 151.467,-119.283 160.497,-121.654 169.234,-123.915"/>
<polygon fill="midnightblue" stroke="midnightblue" points="168.371,-127.307 178.928,-126.411 170.117,-120.528 168.371,-127.307"/>
</g>
<!-- Node367 -->
<g id="node5" class="node"><title>Node367</title>
<g id="a_node5"><a xlink:href="class_f_list_frame.html#a560addf9867fbd5d05fbdb024e5b272c" target="_top" xlink:title="FListFrame::setStrikeOut\lFileNames">
<polygon fill="white" stroke="black" points="152.5,-77 152.5,-107 283.5,-107 283.5,-77 152.5,-77"/>
<text text-anchor="start" x="160.5" y="-95" font-family="Helvetica,sans-Serif" font-size="10.00">FListFrame::setStrikeOut</text>
<text text-anchor="middle" x="218" y="-84" font-family="Helvetica,sans-Serif" font-size="10.00">FileNames</text>
</a>
</g>
</g>
<!-- Node363&#45;&gt;Node367 -->
<g id="edge4" class="edge"><title>Node363&#45;&gt;Node367</title>
<path fill="none" stroke="midnightblue" d="M107.259,-92C118.369,-92 130.293,-92 142.04,-92"/>
<polygon fill="midnightblue" stroke="midnightblue" points="142.293,-95.5001 152.293,-92 142.293,-88.5001 142.293,-95.5001"/>
</g>
<!-- Node368 -->
<g id="node6" class="node"><title>Node368</title>
<g id="a_node6"><a xlink:href="class_f_list_widget.html#aac6eaaeb9946354f743394b54c84a6a7" target="_top" xlink:title="FListWidget::setTabLabels">
<polygon fill="white" stroke="black" points="148,-38.5 148,-57.5 288,-57.5 288,-38.5 148,-38.5"/>
<text text-anchor="middle" x="218" y="-45.5" font-family="Helvetica,sans-Serif" font-size="10.00">FListWidget::setTabLabels</text>
</a>
</g>
</g>
<!-- Node363&#45;&gt;Node368 -->
<g id="edge5" class="edge"><title>Node363&#45;&gt;Node368</title>
<path fill="none" stroke="midnightblue" d="M89.8114,-82.4166C106.017,-78.0205 125.482,-72.7425 143,-68 152.343,-65.4705 162.351,-62.7639 171.891,-60.185"/>
<polygon fill="midnightblue" stroke="midnightblue" points="172.876,-63.5445 181.616,-57.5565 171.05,-56.7869 172.876,-63.5445"/>
</g>
<!-- Node369 -->
<g id="node7" class="node"><title>Node369</title>
<g id="a_node7"><a xlink:href="class_f_list_frame.html#a356ad4309df1e931fb3ee12ad88054fb" target="_top" xlink:title="Actualise currentWidget, row et currentIndex. ">
<polygon fill="white" stroke="black" points="143,-0.5 143,-19.5 293,-19.5 293,-0.5 143,-0.5"/>
<text text-anchor="middle" x="218" y="-7.5" font-family="Helvetica,sans-Serif" font-size="10.00">FListFrame::updateIndexInfo</text>
</a>
</g>
</g>
<!-- Node363&#45;&gt;Node369 -->
<g id="edge6" class="edge"><title>Node363&#45;&gt;Node369</title>
<path fill="none" stroke="midnightblue" d="M65.1285,-82.4218C80.9674,-68.6402 112.213,-43.3056 143,-29 148.24,-26.5651 153.839,-24.4087 159.524,-22.5066"/>
<polygon fill="midnightblue" stroke="midnightblue" points="160.602,-25.8368 169.124,-19.5411 158.536,-19.1487 160.602,-25.8368"/>
</g>
<!-- Node365 -->
<g id="node3" class="node"><title>Node365</title>
<g id="a_node3"><a xlink:href="class_f_list_frame.html#a4bf0d0d8e56418df395b020d2e66db5f" target="_top" xlink:title="Récupère la taille courante (0&#45;based) du conteneur FListFrame::widgetContainer. ">
<polygon fill="white" stroke="black" points="329,-164.5 329,-183.5 442,-183.5 442,-164.5 329,-164.5"/>
<text text-anchor="middle" x="385.5" y="-171.5" font-family="Helvetica,sans-Serif" font-size="10.00">FListFrame::getRank</text>
</a>
</g>
</g>
<!-- Node364&#45;&gt;Node365 -->
<g id="edge2" class="edge"><title>Node364&#45;&gt;Node365</title>
<path fill="none" stroke="midnightblue" d="M283.935,-174C295.306,-174 307.148,-174 318.546,-174"/>
<polygon fill="midnightblue" stroke="midnightblue" points="318.862,-177.5 328.862,-174 318.862,-170.5 318.862,-177.5"/>
</g>
</g>
</svg>
