<?xml version="1.0" encoding="UTF-8" standalone="no"?>
<!DOCTYPE svg PUBLIC "-//W3C//DTD SVG 1.1//EN"
 "http://www.w3.org/Graphics/SVG/1.1/DTD/svg11.dtd">
<!-- Generated by graphviz version 2.38.0 (20140413.2041)
 -->
<!-- Title: MatriculeInput::updateProject Pages: 1 -->
<!--zoomable 127 -->
<svg id="main" version="1.1" xmlns="http://www.w3.org/2000/svg" xmlns:xlink="http://www.w3.org/1999/xlink" xml:space="preserve" onload="init(evt)">
<style type="text/css"><![CDATA[
.edge:hover path { stroke: red; }
.edge:hover polygon { stroke: red; fill: red; }
]]></style>
<script type="text/javascript"><![CDATA[
var edges = document.getElementsByTagName('g');
if (edges && edges.length) {
  for (var i=0;i<edges.length;i++) {
    if (edges[i].id.substr(0,4)=='edge') {
      edges[i].setAttribute('class','edge');
    }
  }
}
]]></script>
        <defs>
                <circle id="rim" cx="0" cy="0" r="7"/>
                <circle id="rim2" cx="0" cy="0" r="3.5"/>
                <g id="zoomPlus">
                        <use xlink:href="#rim" fill="#404040">
                                <set attributeName="fill" to="#808080" begin="zoomplus.mouseover" end="zoomplus.mouseout"/>
                        </use>
                        <path d="M-4,0h8M0,-4v8" fill="none" stroke="white" stroke-width="1.5" pointer-events="none"/>
                </g>
                <g id="zoomMin">
                        <use xlink:href="#rim" fill="#404040">
                                <set attributeName="fill" to="#808080" begin="zoomminus.mouseover" end="zoomminus.mouseout"/>
                        </use>
                        <path d="M-4,0h8" fill="none" stroke="white" stroke-width="1.5" pointer-events="none"/>
                </g>
                <g id="dirArrow">
                        <path fill="none" stroke="white" stroke-width="1.5" d="M0,-3.0v7 M-2.5,-0.5L0,-3.0L2.5,-0.5"/>
                </g>
               <g id="resetDef">
                       <use xlink:href="#rim2" fill="#404040">
                               <set attributeName="fill" to="#808080" begin="reset.mouseover" end="reset.mouseout"/>
                       </use>
               </g>
        </defs>

<script type="text/javascript">
var viewWidth = 511;
var viewHeight = 127;
var sectionId = 'dynsection-7';
</script>
<script xlink:href="svgpan.js"/>
<svg id="graph" class="graph">
<g id="viewport">
<title>MatriculeInput::updateProject</title>
<polygon fill="white" stroke="none" points="-4,4 -4,-123 507,-123 507,4 -4,4"/>
<!-- Node18 -->
<g id="node1" class="node"><title>Node18</title>
<polygon fill="#bfbfbf" stroke="black" points="0,-50 0,-69 144,-69 144,-50 0,-50"/>
<text text-anchor="middle" x="72" y="-57" font-family="Helvetica,sans-Serif" font-size="10.00">MatriculeInput::updateProject</text>
</g>
<!-- Node19 -->
<g id="node2" class="node"><title>Node19</title>
<g id="a_node2"><a xlink:href="class_matricule_input.html#a4f670aeeae85155afbe9011c741791be" target="_top" xlink:title="Constructeur de la classe MatriculeInput. ">
<polygon fill="white" stroke="black" points="189,-88.5 189,-118.5 313,-118.5 313,-88.5 189,-88.5"/>
<text text-anchor="start" x="197" y="-106.5" font-family="Helvetica,sans-Serif" font-size="10.00">MatriculeInput::Matricule</text>
<text text-anchor="middle" x="251" y="-95.5" font-family="Helvetica,sans-Serif" font-size="10.00">Input</text>
</a>
</g>
</g>
<!-- Node18&#45;&gt;Node19 -->
<g id="edge1" class="edge"><title>Node18&#45;&gt;Node19</title>
<path fill="none" stroke="midnightblue" d="M121.378,-71.5261C142.373,-76.7453 167.19,-82.9144 189.396,-88.4346"/>
<polygon fill="midnightblue" stroke="midnightblue" points="121.955,-68.0632 111.406,-69.0473 120.267,-74.8565 121.955,-68.0632"/>
</g>
<!-- Node20 -->
<g id="node3" class="node"><title>Node20</title>
<g id="a_node3"><a xlink:href="class_matricule_input.html#a1b9d9f0c939a200f2643958749f7ec42" target="_top" xlink:title="Réinitialisation de tous les champs. ">
<polygon fill="white" stroke="black" points="198.5,-50 198.5,-69 303.5,-69 303.5,-50 198.5,-50"/>
<text text-anchor="middle" x="251" y="-57" font-family="Helvetica,sans-Serif" font-size="10.00">MatriculeInput::clear</text>
</a>
</g>
</g>
<!-- Node18&#45;&gt;Node20 -->
<g id="edge2" class="edge"><title>Node18&#45;&gt;Node20</title>
<path fill="none" stroke="midnightblue" d="M154.471,-59.5C169.358,-59.5 184.512,-59.5 198.234,-59.5"/>
<polygon fill="midnightblue" stroke="midnightblue" points="154.228,-56.0001 144.228,-59.5 154.228,-63.0001 154.228,-56.0001"/>
</g>
<!-- Node22 -->
<g id="node5" class="node"><title>Node22</title>
<g id="a_node5"><a xlink:href="class_matricule_input.html#a531419ed5d9ad186758b0ed44621a4e0" target="_top" xlink:title="Vérifie qu&#39;à l&#39;ouverture du dialogue, le répertoire par défaut dirpath est bien renseigné. ">
<polygon fill="white" stroke="black" points="180,-0.5 180,-30.5 322,-30.5 322,-0.5 180,-0.5"/>
<text text-anchor="start" x="188" y="-18.5" font-family="Helvetica,sans-Serif" font-size="10.00">MatriculeInput::checkDefault</text>
<text text-anchor="middle" x="251" y="-7.5" font-family="Helvetica,sans-Serif" font-size="10.00">Folder</text>
</a>
</g>
</g>
<!-- Node18&#45;&gt;Node22 -->
<g id="edge4" class="edge"><title>Node18&#45;&gt;Node22</title>
<path fill="none" stroke="midnightblue" d="M121.378,-47.4739C142.373,-42.2547 167.19,-36.0856 189.396,-30.5654"/>
<polygon fill="midnightblue" stroke="midnightblue" points="120.267,-44.1435 111.406,-49.9527 121.955,-50.9368 120.267,-44.1435"/>
</g>
<!-- Node21 -->
<g id="node4" class="node"><title>Node21</title>
<g id="a_node4"><a xlink:href="class_main_window.html#a7f2aaeb01d8c0cdbe5d608ef8e866bb7" target="_top" xlink:title="Réinitialise le dialogue d&#39;extraction des matricules. ">
<polygon fill="white" stroke="black" points="358,-44.5 358,-74.5 503,-74.5 503,-44.5 358,-44.5"/>
<text text-anchor="start" x="366" y="-62.5" font-family="Helvetica,sans-Serif" font-size="10.00">MainWindow::resetExtraction</text>
<text text-anchor="middle" x="430.5" y="-51.5" font-family="Helvetica,sans-Serif" font-size="10.00">Bulletins</text>
</a>
</g>
</g>
<!-- Node20&#45;&gt;Node21 -->
<g id="edge3" class="edge"><title>Node20&#45;&gt;Node21</title>
<path fill="none" stroke="midnightblue" d="M313.935,-59.5C328.107,-59.5 343.286,-59.5 357.829,-59.5"/>
<polygon fill="midnightblue" stroke="midnightblue" points="313.818,-56.0001 303.818,-59.5 313.817,-63.0001 313.818,-56.0001"/>
</g>
</g>
</svg>
        <g id="navigator" transform="translate(0 0)" fill="#404254">
                <rect fill="#f2f5e9" fill-opacity="0.5" stroke="#606060" stroke-width=".5" x="0" y="0" width="60" height="60"/>
                <use id="zoomplus" xlink:href="#zoomPlus" x="17" y="9" onmousedown="handleZoom(evt,'in')"/>
                <use id="zoomminus" xlink:href="#zoomMin" x="42" y="9" onmousedown="handleZoom(evt,'out')"/>
                <use id="reset" xlink:href="#resetDef" x="30" y="36" onmousedown="handleReset()"/>
                <g id="arrowUp" xlink:href="#dirArrow" transform="translate(30 24)" onmousedown="handlePan(0,-1)">
                  <use xlink:href="#rim" fill="#404040">
                        <set attributeName="fill" to="#808080" begin="arrowUp.mouseover" end="arrowUp.mouseout"/>
                  </use>
                  <path fill="none" stroke="white" stroke-width="1.5" d="M0,-3.0v7 M-2.5,-0.5L0,-3.0L2.5,-0.5"/>
                </g>
                <g id="arrowRight" xlink:href="#dirArrow" transform="rotate(90) translate(36 -43)" onmousedown="handlePan(1,0)">
                  <use xlink:href="#rim" fill="#404040">
                        <set attributeName="fill" to="#808080" begin="arrowRight.mouseover" end="arrowRight.mouseout"/>
                  </use>
                  <path fill="none" stroke="white" stroke-width="1.5" d="M0,-3.0v7 M-2.5,-0.5L0,-3.0L2.5,-0.5"/>
                </g>
                <g id="arrowDown" xlink:href="#dirArrow" transform="rotate(180) translate(-30 -48)" onmousedown="handlePan(0,1)">
                  <use xlink:href="#rim" fill="#404040">
                        <set attributeName="fill" to="#808080" begin="arrowDown.mouseover" end="arrowDown.mouseout"/>
                  </use>
                  <path fill="none" stroke="white" stroke-width="1.5" d="M0,-3.0v7 M-2.5,-0.5L0,-3.0L2.5,-0.5"/>
                </g>
                <g id="arrowLeft" xlink:href="#dirArrow" transform="rotate(270) translate(-36 17)" onmousedown="handlePan(-1,0)">
                  <use xlink:href="#rim" fill="#404040">
                        <set attributeName="fill" to="#808080" begin="arrowLeft.mouseover" end="arrowLeft.mouseout"/>
                  </use>
                  <path fill="none" stroke="white" stroke-width="1.5" d="M0,-3.0v7 M-2.5,-0.5L0,-3.0L2.5,-0.5"/>
                </g>
        </g>
        <svg viewBox="0 0 15 15" width="100%" height="30px" preserveAspectRatio="xMaxYMin meet">
         <g id="arrow_out" transform="scale(0.3 0.3)">
          <a xlink:href="class_matricule_input_af61a19dd23deeef80a2389ea61ad1014_icgraph_org.svg" target="_base">
           <rect id="button" ry="5" rx="5" y="6" x="6" height="38" width="38"
                fill="#f2f5e9" fill-opacity="0.5" stroke="#606060" stroke-width="1.0"/>
           <path id="arrow"
             d="M 11.500037,31.436501 C 11.940474,20.09759 22.043105,11.32322 32.158766,21.979434 L 37.068811,17.246167 C 37.068811,17.246167 37.088388,32 37.088388,32 L 22.160133,31.978069 C 22.160133,31.978069 26.997745,27.140456 26.997745,27.140456 C 18.528582,18.264221 13.291696,25.230495 11.500037,31.436501 z"
             style="fill:#404040;"/>
          </a>
         </g>
        </svg>
</svg>
