<?xml version="1.0" encoding="UTF-8" standalone="no"?>
<!DOCTYPE svg PUBLIC "-//W3C//DTD SVG 1.1//EN"
 "http://www.w3.org/Graphics/SVG/1.1/DTD/svg11.dtd">
<!-- Generated by graphviz version 2.38.0 (20140413.2041)
 -->
<!-- Title: Interface/gui/common.h Pages: 1 -->
<!--zoomable 263 -->
<svg id="main" version="1.1" xmlns="http://www.w3.org/2000/svg" xmlns:xlink="http://www.w3.org/1999/xlink" xml:space="preserve" onload="init(evt)">
<style type="text/css"><![CDATA[
.edge:hover path { stroke: red; }
.edge:hover polygon { stroke: red; fill: red; }
]]></style>
<script type="text/javascript"><![CDATA[
var edges = document.getElementsByTagName('g');
if (edges && edges.length) {
  for (var i=0;i<edges.length;i++) {
    if (edges[i].id.substr(0,4)=='edge') {
      edges[i].setAttribute('class','edge');
    }
  }
}
]]></script>
        <defs>
                <circle id="rim" cx="0" cy="0" r="7"/>
                <circle id="rim2" cx="0" cy="0" r="3.5"/>
                <g id="zoomPlus">
                        <use xlink:href="#rim" fill="#404040">
                                <set attributeName="fill" to="#808080" begin="zoomplus.mouseover" end="zoomplus.mouseout"/>
                        </use>
                        <path d="M-4,0h8M0,-4v8" fill="none" stroke="white" stroke-width="1.5" pointer-events="none"/>
                </g>
                <g id="zoomMin">
                        <use xlink:href="#rim" fill="#404040">
                                <set attributeName="fill" to="#808080" begin="zoomminus.mouseover" end="zoomminus.mouseout"/>
                        </use>
                        <path d="M-4,0h8" fill="none" stroke="white" stroke-width="1.5" pointer-events="none"/>
                </g>
                <g id="dirArrow">
                        <path fill="none" stroke="white" stroke-width="1.5" d="M0,-3.0v7 M-2.5,-0.5L0,-3.0L2.5,-0.5"/>
                </g>
               <g id="resetDef">
                       <use xlink:href="#rim2" fill="#404040">
                               <set attributeName="fill" to="#808080" begin="reset.mouseover" end="reset.mouseout"/>
                       </use>
               </g>
        </defs>

<script type="text/javascript">
var viewWidth = 848;
var viewHeight = 263;
var sectionId = 'dynsection-1';
</script>
<script xlink:href="svgpan.js"/>
<svg id="graph" class="graph">
<g id="viewport">
<title>Interface/gui/common.h</title>
<polygon fill="white" stroke="none" points="-4,4 -4,-259 843.5,-259 843.5,4 -4,4"/>
<!-- Node8 -->
<g id="node1" class="node"><title>Node8</title>
<polygon fill="#bfbfbf" stroke="black" points="387,-235.5 387,-254.5 513,-254.5 513,-235.5 387,-235.5"/>
<text text-anchor="middle" x="450" y="-242.5" font-family="Helvetica,sans-Serif" font-size="10.00">Interface/gui/common.h</text>
</g>
<!-- Node9 -->
<g id="node2" class="node"><title>Node9</title>
<g id="a_node2"><a xlink:href="options_8h.html" target="_top" xlink:title="Code des classes du dialogue d&#39;options. ">
<polygon fill="white" stroke="black" points="126.5,-179.5 126.5,-198.5 247.5,-198.5 247.5,-179.5 126.5,-179.5"/>
<text text-anchor="middle" x="187" y="-186.5" font-family="Helvetica,sans-Serif" font-size="10.00">Interface/gui/options.h</text>
</a>
</g>
</g>
<!-- Node8&#45;&gt;Node9 -->
<g id="edge1" class="edge"><title>Node8&#45;&gt;Node9</title>
<path fill="none" stroke="midnightblue" d="M398.421,-233.41C348.717,-223.204 274.471,-207.96 228.478,-198.516"/>
<polygon fill="midnightblue" stroke="midnightblue" points="397.827,-236.861 408.327,-235.444 399.235,-230.004 397.827,-236.861"/>
</g>
<!-- Node10 -->
<g id="node3" class="node"><title>Node10</title>
<g id="a_node3"><a xlink:href="altair-gui_8h.html" target="_top" xlink:title="Code de la classe MainWindow qui construit l&#39;interface graphique. ">
<polygon fill="white" stroke="black" points="304.5,-112.5 304.5,-142.5 405.5,-142.5 405.5,-112.5 304.5,-112.5"/>
<text text-anchor="start" x="312.5" y="-130.5" font-family="Helvetica,sans-Serif" font-size="10.00">Interface/gui/altair</text>
<text text-anchor="middle" x="355" y="-119.5" font-family="Helvetica,sans-Serif" font-size="10.00">&#45;gui.h</text>
</a>
</g>
</g>
<!-- Node8&#45;&gt;Node10 -->
<g id="edge13" class="edge"><title>Node8&#45;&gt;Node10</title>
<path fill="none" stroke="midnightblue" d="M416.942,-231.353C401.832,-224.02 384.909,-213.358 374,-199 361.347,-182.346 357.111,-157.873 355.699,-142.578"/>
<polygon fill="midnightblue" stroke="midnightblue" points="415.494,-234.539 426.046,-235.491 418.391,-228.166 415.494,-234.539"/>
</g>
<!-- Node11 -->
<g id="node4" class="node"><title>Node11</title>
<g id="a_node4"><a xlink:href="altair_8h.html" target="_top" xlink:title="Code de la classe principale Altair, qui joue le rôle d&#39;agent de l&#39;interface graphique. ">
<polygon fill="white" stroke="black" points="219,-56.5 219,-75.5 329,-75.5 329,-56.5 219,-56.5"/>
<text text-anchor="middle" x="274" y="-63.5" font-family="Helvetica,sans-Serif" font-size="10.00">Interface/gui/altair.h</text>
</a>
</g>
</g>
<!-- Node8&#45;&gt;Node11 -->
<g id="edge14" class="edge"><title>Node8&#45;&gt;Node11</title>
<path fill="none" stroke="midnightblue" d="M415.607,-231.63C379.231,-216.621 323.277,-187.643 295,-143 281.229,-121.259 276.359,-90.4629 274.743,-75.6363"/>
<polygon fill="midnightblue" stroke="midnightblue" points="414.723,-235.045 425.308,-235.494 417.313,-228.542 414.723,-235.045"/>
</g>
<!-- Node13 -->
<g id="node6" class="node"><title>Node13</title>
<g id="a_node6"><a xlink:href="mainwindow_8cpp.html" target="_top" xlink:title="Code de l&#39;implémentation de la classe MainWindow de l&#39;interface graphique. ">
<polygon fill="white" stroke="black" points="420.5,-0.5 420.5,-19.5 575.5,-19.5 575.5,-0.5 420.5,-0.5"/>
<text text-anchor="middle" x="498" y="-7.5" font-family="Helvetica,sans-Serif" font-size="10.00">Interface/gui/mainwindow.cpp</text>
</a>
</g>
</g>
<!-- Node8&#45;&gt;Node13 -->
<g id="edge20" class="edge"><title>Node8&#45;&gt;Node13</title>
<path fill="none" stroke="midnightblue" d="M490.561,-232.266C530.615,-218.257 589.589,-190.539 616,-143 645.781,-89.3938 557.484,-39.1738 517.058,-19.6175"/>
<polygon fill="midnightblue" stroke="midnightblue" points="489.433,-228.952 481.069,-235.455 491.663,-235.588 489.433,-228.952"/>
</g>
<!-- Node16 -->
<g id="node9" class="node"><title>Node16</title>
<g id="a_node9"><a xlink:href="xmlparser_8cpp.html" target="_top" xlink:title="Implémentation de la classe Altair agent de la classe MainWindow qui construit l&#39;interface graphique...">
<polygon fill="white" stroke="black" points="596,-0.5 596,-19.5 740,-19.5 740,-0.5 596,-0.5"/>
<text text-anchor="middle" x="668" y="-7.5" font-family="Helvetica,sans-Serif" font-size="10.00">Interface/gui/xmlparser.cpp</text>
</a>
</g>
</g>
<!-- Node8&#45;&gt;Node16 -->
<g id="edge21" class="edge"><title>Node8&#45;&gt;Node16</title>
<path fill="none" stroke="midnightblue" d="M507.51,-233.007C533.646,-226.135 564.011,-215.382 588,-199 651.564,-155.591 664.849,-50.6918 667.421,-19.7378"/>
<polygon fill="midnightblue" stroke="midnightblue" points="506.574,-229.633 497.722,-235.454 508.272,-236.424 506.574,-229.633"/>
</g>
<!-- Node18 -->
<g id="node11" class="node"><title>Node18</title>
<g id="a_node11"><a xlink:href="matricules_8h.html" target="_top" xlink:title="Code de la classe MatriculeInput, qui construit un dialogue d&#39;extraction des bulletins. ">
<polygon fill="white" stroke="black" points="383,-179.5 383,-198.5 517,-198.5 517,-179.5 383,-179.5"/>
<text text-anchor="middle" x="450" y="-186.5" font-family="Helvetica,sans-Serif" font-size="10.00">Interface/gui/matricules.h</text>
</a>
</g>
</g>
<!-- Node8&#45;&gt;Node18 -->
<g id="edge15" class="edge"><title>Node8&#45;&gt;Node18</title>
<path fill="none" stroke="midnightblue" d="M450,-224.805C450,-215.91 450,-205.78 450,-198.751"/>
<polygon fill="midnightblue" stroke="midnightblue" points="446.5,-225.083 450,-235.083 453.5,-225.083 446.5,-225.083"/>
</g>
<!-- Node20 -->
<g id="node13" class="node"><title>Node20</title>
<g id="a_node13"><a xlink:href="common_8cpp.html" target="_top" xlink:title="Interface/gui/common.cpp">
<polygon fill="white" stroke="black" points="702.5,-179.5 702.5,-198.5 839.5,-198.5 839.5,-179.5 702.5,-179.5"/>
<text text-anchor="middle" x="771" y="-186.5" font-family="Helvetica,sans-Serif" font-size="10.00">Interface/gui/common.cpp</text>
</a>
</g>
</g>
<!-- Node8&#45;&gt;Node20 -->
<g id="edge19" class="edge"><title>Node8&#45;&gt;Node20</title>
<path fill="none" stroke="midnightblue" d="M511.064,-233.727C571.724,-223.523 663.653,-208.058 720.375,-198.516"/>
<polygon fill="midnightblue" stroke="midnightblue" points="510.144,-230.333 500.863,-235.444 511.305,-237.236 510.144,-230.333"/>
</g>
<!-- Node9&#45;&gt;Node10 -->
<g id="edge2" class="edge"><title>Node9&#45;&gt;Node10</title>
<path fill="none" stroke="midnightblue" d="M220.591,-176.103C247.927,-166.422 286.567,-152.737 315.406,-142.523"/>
<polygon fill="midnightblue" stroke="midnightblue" points="219.328,-172.837 211.07,-179.475 221.665,-179.436 219.328,-172.837"/>
</g>
<!-- Node12 -->
<g id="node5" class="node"><title>Node12</title>
<g id="a_node5"><a xlink:href="altair_8cpp.html" target="_top" xlink:title="Code implémentant la classe principale Altair, qui joue le rôle d&#39;agent de l&#39;interface graphique...">
<polygon fill="white" stroke="black" points="150.5,-0.5 150.5,-19.5 271.5,-19.5 271.5,-0.5 150.5,-0.5"/>
<text text-anchor="middle" x="211" y="-7.5" font-family="Helvetica,sans-Serif" font-size="10.00">Interface/gui/altair.cpp</text>
</a>
</g>
</g>
<!-- Node9&#45;&gt;Node12 -->
<g id="edge11" class="edge"><title>Node9&#45;&gt;Node12</title>
<path fill="none" stroke="midnightblue" d="M189.529,-169.352C194.648,-131.597 206.069,-47.3648 209.798,-19.8684"/>
<polygon fill="midnightblue" stroke="midnightblue" points="186.033,-169.083 188.158,-179.463 192.97,-170.024 186.033,-169.083"/>
</g>
<!-- Node14 -->
<g id="node7" class="node"><title>Node14</title>
<g id="a_node7"><a xlink:href="options_8cpp.html" target="_top" xlink:title="Implémentation des classes du dialogue d&#39;options. ">
<polygon fill="white" stroke="black" points="0,-0.5 0,-19.5 132,-19.5 132,-0.5 0,-0.5"/>
<text text-anchor="middle" x="66" y="-7.5" font-family="Helvetica,sans-Serif" font-size="10.00">Interface/gui/options.cpp</text>
</a>
</g>
</g>
<!-- Node9&#45;&gt;Node14 -->
<g id="edge12" class="edge"><title>Node9&#45;&gt;Node14</title>
<path fill="none" stroke="midnightblue" d="M175.237,-170.793C149.937,-133.784 91.1026,-47.7204 72.0626,-19.8684"/>
<polygon fill="midnightblue" stroke="midnightblue" points="172.631,-173.183 181.164,-179.463 178.41,-169.232 172.631,-173.183"/>
</g>
<!-- Node10&#45;&gt;Node11 -->
<g id="edge3" class="edge"><title>Node10&#45;&gt;Node11</title>
<path fill="none" stroke="midnightblue" d="M321.332,-106.483C306.323,-96.0013 290.084,-83.7081 280.857,-75.6578"/>
<polygon fill="midnightblue" stroke="midnightblue" points="319.737,-109.633 329.964,-112.399 323.694,-103.859 319.737,-109.633"/>
</g>
<!-- Node17 -->
<g id="node10" class="node"><title>Node17</title>
<g id="a_node10"><a xlink:href="_interface_2gui_2main_8cpp.html" target="_top" xlink:title="Lance l&#39;interface graphique en chargeant le bon contexte linguistique et la feuille de style...">
<polygon fill="white" stroke="black" points="347,-56.5 347,-75.5 467,-75.5 467,-56.5 347,-56.5"/>
<text text-anchor="middle" x="407" y="-63.5" font-family="Helvetica,sans-Serif" font-size="10.00">Interface/gui/main.cpp</text>
</a>
</g>
</g>
<!-- Node10&#45;&gt;Node17 -->
<g id="edge10" class="edge"><title>Node10&#45;&gt;Node17</title>
<path fill="none" stroke="midnightblue" d="M374.049,-104.704C382.848,-94.636 392.792,-83.2567 399.434,-75.6578"/>
<polygon fill="midnightblue" stroke="midnightblue" points="371.268,-102.566 367.323,-112.399 376.539,-107.173 371.268,-102.566"/>
</g>
<!-- Node11&#45;&gt;Node10 -->
<g id="edge4" class="edge"><title>Node11&#45;&gt;Node10</title>
<path fill="none" stroke="midnightblue" d="M299.447,-81.3771C313.443,-90.7924 330.105,-103.04 341.644,-112.399"/>
<polygon fill="midnightblue" stroke="midnightblue" points="300.999,-78.2093 290.716,-75.6578 297.163,-84.065 300.999,-78.2093"/>
</g>
<!-- Node11&#45;&gt;Node12 -->
<g id="edge5" class="edge"><title>Node11&#45;&gt;Node12</title>
<path fill="none" stroke="midnightblue" d="M255.96,-49.5372C244.727,-39.9087 230.681,-27.8694 221.306,-19.8339"/>
<polygon fill="midnightblue" stroke="midnightblue" points="254.008,-52.4734 263.878,-56.324 258.563,-47.1586 254.008,-52.4734"/>
</g>
<!-- Node11&#45;&gt;Node13 -->
<g id="edge6" class="edge"><title>Node11&#45;&gt;Node13</title>
<path fill="none" stroke="midnightblue" d="M319.263,-54.0884C361.582,-43.8865 423.909,-28.8612 462.673,-19.5164"/>
<polygon fill="midnightblue" stroke="midnightblue" points="318.395,-50.6974 309.493,-56.4435 320.035,-57.5024 318.395,-50.6974"/>
</g>
<!-- Node11&#45;&gt;Node14 -->
<g id="edge7" class="edge"><title>Node11&#45;&gt;Node14</title>
<path fill="none" stroke="midnightblue" d="M231.222,-53.8941C191.942,-43.6966 134.571,-28.802 98.804,-19.5164"/>
<polygon fill="midnightblue" stroke="midnightblue" points="230.483,-57.3183 241.042,-56.4435 232.242,-50.5429 230.483,-57.3183"/>
</g>
<!-- Node15 -->
<g id="node8" class="node"><title>Node15</title>
<g id="a_node8"><a xlink:href="run_8cpp.html" target="_top" xlink:title="Implémentation de la classe Altair agent de la classe MainWindow qui construit l&#39;interface graphique...">
<polygon fill="white" stroke="black" points="289.5,-0.5 289.5,-19.5 402.5,-19.5 402.5,-0.5 289.5,-0.5"/>
<text text-anchor="middle" x="346" y="-7.5" font-family="Helvetica,sans-Serif" font-size="10.00">Interface/gui/run.cpp</text>
</a>
</g>
</g>
<!-- Node11&#45;&gt;Node15 -->
<g id="edge8" class="edge"><title>Node11&#45;&gt;Node15</title>
<path fill="none" stroke="midnightblue" d="M293.866,-50.1008C306.823,-40.3824 323.297,-28.0269 334.221,-19.8339"/>
<polygon fill="midnightblue" stroke="midnightblue" points="291.468,-47.5239 285.568,-56.324 295.668,-53.1239 291.468,-47.5239"/>
</g>
<!-- Node11&#45;&gt;Node16 -->
<g id="edge9" class="edge"><title>Node11&#45;&gt;Node16</title>
<path fill="none" stroke="midnightblue" d="M339.311,-55.8229C438.035,-42.1645 540.826,-28.1992 605.033,-19.5067"/>
<polygon fill="midnightblue" stroke="midnightblue" points="338.581,-52.3904 329.156,-57.2288 339.541,-59.3243 338.581,-52.3904"/>
</g>
<!-- Node18&#45;&gt;Node10 -->
<g id="edge16" class="edge"><title>Node18&#45;&gt;Node10</title>
<path fill="none" stroke="midnightblue" d="M427.66,-174.008C412.508,-164.518 392.553,-152.02 377.39,-142.523"/>
<polygon fill="midnightblue" stroke="midnightblue" points="426.056,-177.133 436.389,-179.475 429.772,-171.201 426.056,-177.133"/>
</g>
<!-- Node18&#45;&gt;Node13 -->
<g id="edge17" class="edge"><title>Node18&#45;&gt;Node13</title>
<path fill="none" stroke="midnightblue" d="M448.061,-169.318C447.06,-153.643 447.084,-130.858 453,-112 458.683,-93.8839 467.785,-93.1176 476,-76 485.278,-56.6666 492.385,-32.3858 495.788,-19.673"/>
<polygon fill="midnightblue" stroke="midnightblue" points="444.576,-169.645 448.901,-179.317 451.552,-169.059 444.576,-169.645"/>
</g>
<!-- Node19 -->
<g id="node12" class="node"><title>Node19</title>
<g id="a_node12"><a xlink:href="matricules_8cpp.html" target="_top" xlink:title="Implémentation de la classe MatriculeInput, qui construit un dialogue d&#39;extraction des bulletins...">
<polygon fill="white" stroke="black" points="462.5,-118 462.5,-137 607.5,-137 607.5,-118 462.5,-118"/>
<text text-anchor="middle" x="535" y="-125" font-family="Helvetica,sans-Serif" font-size="10.00">Interface/gui/matricules.cpp</text>
</a>
</g>
</g>
<!-- Node18&#45;&gt;Node19 -->
<g id="edge18" class="edge"><title>Node18&#45;&gt;Node19</title>
<path fill="none" stroke="midnightblue" d="M470.553,-173.613C486.901,-162.169 509.22,-146.546 522.844,-137.009"/>
<polygon fill="midnightblue" stroke="midnightblue" points="468.364,-170.873 462.178,-179.475 472.378,-176.608 468.364,-170.873"/>
</g>
</g>
</svg>
        <g id="navigator" transform="translate(0 0)" fill="#404254">
                <rect fill="#f2f5e9" fill-opacity="0.5" stroke="#606060" stroke-width=".5" x="0" y="0" width="60" height="60"/>
                <use id="zoomplus" xlink:href="#zoomPlus" x="17" y="9" onmousedown="handleZoom(evt,'in')"/>
                <use id="zoomminus" xlink:href="#zoomMin" x="42" y="9" onmousedown="handleZoom(evt,'out')"/>
                <use id="reset" xlink:href="#resetDef" x="30" y="36" onmousedown="handleReset()"/>
                <g id="arrowUp" xlink:href="#dirArrow" transform="translate(30 24)" onmousedown="handlePan(0,-1)">
                  <use xlink:href="#rim" fill="#404040">
                        <set attributeName="fill" to="#808080" begin="arrowUp.mouseover" end="arrowUp.mouseout"/>
                  </use>
                  <path fill="none" stroke="white" stroke-width="1.5" d="M0,-3.0v7 M-2.5,-0.5L0,-3.0L2.5,-0.5"/>
                </g>
                <g id="arrowRight" xlink:href="#dirArrow" transform="rotate(90) translate(36 -43)" onmousedown="handlePan(1,0)">
                  <use xlink:href="#rim" fill="#404040">
                        <set attributeName="fill" to="#808080" begin="arrowRight.mouseover" end="arrowRight.mouseout"/>
                  </use>
                  <path fill="none" stroke="white" stroke-width="1.5" d="M0,-3.0v7 M-2.5,-0.5L0,-3.0L2.5,-0.5"/>
                </g>
                <g id="arrowDown" xlink:href="#dirArrow" transform="rotate(180) translate(-30 -48)" onmousedown="handlePan(0,1)">
                  <use xlink:href="#rim" fill="#404040">
                        <set attributeName="fill" to="#808080" begin="arrowDown.mouseover" end="arrowDown.mouseout"/>
                  </use>
                  <path fill="none" stroke="white" stroke-width="1.5" d="M0,-3.0v7 M-2.5,-0.5L0,-3.0L2.5,-0.5"/>
                </g>
                <g id="arrowLeft" xlink:href="#dirArrow" transform="rotate(270) translate(-36 17)" onmousedown="handlePan(-1,0)">
                  <use xlink:href="#rim" fill="#404040">
                        <set attributeName="fill" to="#808080" begin="arrowLeft.mouseover" end="arrowLeft.mouseout"/>
                  </use>
                  <path fill="none" stroke="white" stroke-width="1.5" d="M0,-3.0v7 M-2.5,-0.5L0,-3.0L2.5,-0.5"/>
                </g>
        </g>
        <svg viewBox="0 0 15 15" width="100%" height="30px" preserveAspectRatio="xMaxYMin meet">
         <g id="arrow_out" transform="scale(0.3 0.3)">
          <a xlink:href="common_8h__dep__incl_org.svg" target="_base">
           <rect id="button" ry="5" rx="5" y="6" x="6" height="38" width="38"
                fill="#f2f5e9" fill-opacity="0.5" stroke="#606060" stroke-width="1.0"/>
           <path id="arrow"
             d="M 11.500037,31.436501 C 11.940474,20.09759 22.043105,11.32322 32.158766,21.979434 L 37.068811,17.246167 C 37.068811,17.246167 37.088388,32 37.088388,32 L 22.160133,31.978069 C 22.160133,31.978069 26.997745,27.140456 26.997745,27.140456 C 18.528582,18.264221 13.291696,25.230495 11.500037,31.436501 z"
             style="fill:#404040;"/>
          </a>
         </g>
        </svg>
</svg>
