<?xml version="1.0" encoding="UTF-8" standalone="no"?>
<!DOCTYPE svg PUBLIC "-//W3C//DTD SVG 1.1//EN"
 "http://www.w3.org/Graphics/SVG/1.1/DTD/svg11.dtd">
<!-- Generated by graphviz version 2.38.0 (20140413.2041)
 -->
<!-- Title: Interface/gui/common.cpp Pages: 1 -->
<svg width="280pt" height="140pt"
 viewBox="0.00 0.00 279.50 140.00" xmlns="http://www.w3.org/2000/svg" xmlns:xlink="http://www.w3.org/1999/xlink">
<g id="graph0" class="graph" transform="scale(1 1) rotate(0) translate(4 136)">
<title>Interface/gui/common.cpp</title>
<polygon fill="white" stroke="none" points="-4,4 -4,-136 275.5,-136 275.5,4 -4,4"/>
<!-- Node0 -->
<g id="node1" class="node"><title>Node0</title>
<polygon fill="#bfbfbf" stroke="black" points="115.5,-112.5 115.5,-131.5 245.5,-131.5 245.5,-112.5 115.5,-112.5"/>
<text text-anchor="middle" x="180.5" y="-119.5" font-family="Helvetica,sans-Serif" font-size="10.00">Interface/gui/common.cpp</text>
</g>
<!-- Node1 -->
<g id="node2" class="node"><title>Node1</title>
<g id="a_node2"><a xlink:href="common_8h.html" target="_top" xlink:title="Code de la classe common, qui regroupe des utilitaires communs à l&#39;interface graphique MainWindow...">
<polygon fill="white" stroke="black" points="94.5,-56.5 94.5,-75.5 156.5,-75.5 156.5,-56.5 94.5,-56.5"/>
<text text-anchor="middle" x="125.5" y="-63.5" font-family="Helvetica,sans-Serif" font-size="10.00">common.h</text>
</a>
</g>
</g>
<!-- Node0&#45;&gt;Node1 -->
<g id="edge1" class="edge"><title>Node0&#45;&gt;Node1</title>
<path fill="none" stroke="midnightblue" d="M171.418,-112.083C163.329,-104.141 151.305,-92.3354 141.59,-82.7973"/>
<polygon fill="midnightblue" stroke="midnightblue" points="144.001,-80.2595 134.413,-75.7511 139.097,-85.2545 144.001,-80.2595"/>
</g>
<!-- Node5 -->
<g id="node6" class="node"><title>Node5</title>
<g id="a_node6"><a xlink:href="gui__enums_8h.html" target="_top" xlink:title="Code de constantes et de classes regroupant des constantes. ">
<polygon fill="white" stroke="black" points="199.5,-56.5 199.5,-75.5 271.5,-75.5 271.5,-56.5 199.5,-56.5"/>
<text text-anchor="middle" x="235.5" y="-63.5" font-family="Helvetica,sans-Serif" font-size="10.00">gui_enums.h</text>
</a>
</g>
</g>
<!-- Node0&#45;&gt;Node5 -->
<g id="edge5" class="edge"><title>Node0&#45;&gt;Node5</title>
<path fill="none" stroke="midnightblue" d="M189.582,-112.083C197.671,-104.141 209.695,-92.3354 219.41,-82.7973"/>
<polygon fill="midnightblue" stroke="midnightblue" points="221.903,-85.2545 226.587,-75.7511 216.999,-80.2595 221.903,-85.2545"/>
</g>
<!-- Node2 -->
<g id="node3" class="node"><title>Node2</title>
<polygon fill="white" stroke="#bfbfbf" points="0,-0.5 0,-19.5 63,-19.5 63,-0.5 0,-0.5"/>
<text text-anchor="middle" x="31.5" y="-7.5" font-family="Helvetica,sans-Serif" font-size="10.00">QtWidgets</text>
</g>
<!-- Node1&#45;&gt;Node2 -->
<g id="edge2" class="edge"><title>Node1&#45;&gt;Node2</title>
<path fill="none" stroke="midnightblue" d="M110.397,-56.324C95.5967,-47.8215 72.8058,-34.7288 55.5178,-24.7975"/>
<polygon fill="midnightblue" stroke="midnightblue" points="56.9798,-21.6009 46.5652,-19.6545 53.4929,-27.6707 56.9798,-21.6009"/>
</g>
<!-- Node3 -->
<g id="node4" class="node"><title>Node3</title>
<polygon fill="white" stroke="#bfbfbf" points="81.5,-0.5 81.5,-19.5 143.5,-19.5 143.5,-0.5 81.5,-0.5"/>
<text text-anchor="middle" x="112.5" y="-7.5" font-family="Helvetica,sans-Serif" font-size="10.00">fwidgets.h</text>
</g>
<!-- Node1&#45;&gt;Node3 -->
<g id="edge3" class="edge"><title>Node1&#45;&gt;Node3</title>
<path fill="none" stroke="midnightblue" d="M123.353,-56.083C121.631,-48.9272 119.153,-38.6353 117,-29.6911"/>
<polygon fill="midnightblue" stroke="midnightblue" points="120.35,-28.6541 114.607,-19.7511 113.545,-30.2925 120.35,-28.6541"/>
</g>
<!-- Node4 -->
<g id="node5" class="node"><title>Node4</title>
<polygon fill="white" stroke="#bfbfbf" points="161.5,-0.5 161.5,-19.5 207.5,-19.5 207.5,-0.5 161.5,-0.5"/>
<text text-anchor="middle" x="184.5" y="-7.5" font-family="Helvetica,sans-Serif" font-size="10.00">tools.h</text>
</g>
<!-- Node1&#45;&gt;Node4 -->
<g id="edge4" class="edge"><title>Node1&#45;&gt;Node4</title>
<path fill="none" stroke="midnightblue" d="M134.979,-56.324C143.701,-48.3414 156.843,-36.3128 167.398,-26.6529"/>
<polygon fill="midnightblue" stroke="midnightblue" points="169.834,-29.1674 174.848,-19.8339 165.108,-24.0036 169.834,-29.1674"/>
</g>
<!-- Node6 -->
<g id="node7" class="node"><title>Node6</title>
<polygon fill="white" stroke="#bfbfbf" points="225.5,-0.5 225.5,-19.5 271.5,-19.5 271.5,-0.5 225.5,-0.5"/>
<text text-anchor="middle" x="248.5" y="-7.5" font-family="Helvetica,sans-Serif" font-size="10.00">cstdint</text>
</g>
<!-- Node5&#45;&gt;Node6 -->
<g id="edge6" class="edge"><title>Node5&#45;&gt;Node6</title>
<path fill="none" stroke="midnightblue" d="M237.647,-56.083C239.369,-48.9272 241.847,-38.6353 244,-29.6911"/>
<polygon fill="midnightblue" stroke="midnightblue" points="247.455,-30.2925 246.393,-19.7511 240.65,-28.6541 247.455,-30.2925"/>
</g>
</g>
</svg>
