<?xml version="1.0" encoding="UTF-8" standalone="no"?>
<!DOCTYPE svg PUBLIC "-//W3C//DTD SVG 1.1//EN"
 "http://www.w3.org/Graphics/SVG/1.1/DTD/svg11.dtd">
<!-- Generated by graphviz version 2.38.0 (20140413.2041)
 -->
<!-- Title: Interface/gui/common.h Pages: 1 -->
<svg width="205pt" height="252pt"
 viewBox="0.00 0.00 204.50 252.00" xmlns="http://www.w3.org/2000/svg" xmlns:xlink="http://www.w3.org/1999/xlink">
<g id="graph0" class="graph" transform="scale(1 1) rotate(0) translate(4 248)">
<title>Interface/gui/common.h</title>
<polygon fill="white" stroke="none" points="-4,4 -4,-248 200.5,-248 200.5,4 -4,4"/>
<!-- Node0 -->
<g id="node1" class="node"><title>Node0</title>
<polygon fill="#bfbfbf" stroke="black" points="0,-224.5 0,-243.5 119,-243.5 119,-224.5 0,-224.5"/>
<text text-anchor="middle" x="59.5" y="-231.5" font-family="Helvetica,sans-Serif" font-size="10.00">Interface/gui/common.h</text>
</g>
<!-- Node1 -->
<g id="node2" class="node"><title>Node1</title>
<polygon fill="white" stroke="#bfbfbf" points="1,-56.5 1,-75.5 64,-75.5 64,-56.5 1,-56.5"/>
<text text-anchor="middle" x="32.5" y="-63.5" font-family="Helvetica,sans-Serif" font-size="10.00">QtWidgets</text>
</g>
<!-- Node0&#45;&gt;Node1 -->
<g id="edge1" class="edge"><title>Node0&#45;&gt;Node1</title>
<path fill="none" stroke="midnightblue" d="M50.7486,-224.286C42.9366,-215.84 32.0489,-202.246 27.5,-188 16.403,-153.246 22.6465,-110.015 27.8216,-85.7649"/>
<polygon fill="midnightblue" stroke="midnightblue" points="31.2873,-86.3119 30.1268,-75.7808 24.4667,-84.7371 31.2873,-86.3119"/>
</g>
<!-- Node2 -->
<g id="node3" class="node"><title>Node2</title>
<g id="a_node3"><a xlink:href="fwidgets_8h.html" target="_top" xlink:title="fwidgets.h">
<polygon fill="white" stroke="black" points="77.5,-112.5 77.5,-131.5 139.5,-131.5 139.5,-112.5 77.5,-112.5"/>
<text text-anchor="middle" x="108.5" y="-119.5" font-family="Helvetica,sans-Serif" font-size="10.00">fwidgets.h</text>
</a>
</g>
</g>
<!-- Node0&#45;&gt;Node2 -->
<g id="edge2" class="edge"><title>Node0&#45;&gt;Node2</title>
<path fill="none" stroke="midnightblue" d="M67.1599,-224.299C74.4029,-215.648 85.09,-201.723 91.5,-188 98.4417,-173.138 102.887,-154.991 105.483,-141.651"/>
<polygon fill="midnightblue" stroke="midnightblue" points="108.938,-142.214 107.244,-131.755 102.046,-140.987 108.938,-142.214"/>
</g>
<!-- Node7 -->
<g id="node8" class="node"><title>Node7</title>
<g id="a_node8"><a xlink:href="tools_8h.html" target="_top" xlink:title="tools.h">
<polygon fill="white" stroke="black" points="36.5,-168.5 36.5,-187.5 82.5,-187.5 82.5,-168.5 36.5,-168.5"/>
<text text-anchor="middle" x="59.5" y="-175.5" font-family="Helvetica,sans-Serif" font-size="10.00">tools.h</text>
</a>
</g>
</g>
<!-- Node0&#45;&gt;Node7 -->
<g id="edge8" class="edge"><title>Node0&#45;&gt;Node7</title>
<path fill="none" stroke="midnightblue" d="M59.5,-224.083C59.5,-217.006 59.5,-206.861 59.5,-197.986"/>
<polygon fill="midnightblue" stroke="midnightblue" points="63.0001,-197.751 59.5,-187.751 56.0001,-197.751 63.0001,-197.751"/>
</g>
<!-- Node2&#45;&gt;Node1 -->
<g id="edge3" class="edge"><title>Node2&#45;&gt;Node1</title>
<path fill="none" stroke="midnightblue" d="M96.2893,-112.324C84.7241,-104.107 67.1246,-91.6017 53.3393,-81.8069"/>
<polygon fill="midnightblue" stroke="midnightblue" points="55.112,-78.7729 44.9329,-75.8339 51.0575,-84.4791 55.112,-78.7729"/>
</g>
<!-- Node3 -->
<g id="node4" class="node"><title>Node3</title>
<g id="a_node4"><a xlink:href="fstring_8h.html" target="_top" xlink:title="fstring.h">
<polygon fill="white" stroke="black" points="82.5,-56.5 82.5,-75.5 134.5,-75.5 134.5,-56.5 82.5,-56.5"/>
<text text-anchor="middle" x="108.5" y="-63.5" font-family="Helvetica,sans-Serif" font-size="10.00">fstring.h</text>
</a>
</g>
</g>
<!-- Node2&#45;&gt;Node3 -->
<g id="edge4" class="edge"><title>Node2&#45;&gt;Node3</title>
<path fill="none" stroke="midnightblue" d="M108.5,-112.083C108.5,-105.006 108.5,-94.8611 108.5,-85.9865"/>
<polygon fill="midnightblue" stroke="midnightblue" points="112,-85.751 108.5,-75.7511 105,-85.7511 112,-85.751"/>
</g>
<!-- Node6 -->
<g id="node7" class="node"><title>Node6</title>
<g id="a_node7"><a xlink:href="tags_8h.html" target="_top" xlink:title="tags.h">
<polygon fill="white" stroke="black" points="152.5,-56.5 152.5,-75.5 196.5,-75.5 196.5,-56.5 152.5,-56.5"/>
<text text-anchor="middle" x="174.5" y="-63.5" font-family="Helvetica,sans-Serif" font-size="10.00">tags.h</text>
</a>
</g>
</g>
<!-- Node2&#45;&gt;Node6 -->
<g id="edge7" class="edge"><title>Node2&#45;&gt;Node6</title>
<path fill="none" stroke="midnightblue" d="M119.104,-112.324C128.956,-104.263 143.851,-92.0765 155.715,-82.3695"/>
<polygon fill="midnightblue" stroke="midnightblue" points="158.18,-84.8752 163.703,-75.8339 153.747,-79.4575 158.18,-84.8752"/>
</g>
<!-- Node4 -->
<g id="node5" class="node"><title>Node4</title>
<polygon fill="white" stroke="#bfbfbf" points="50.5,-0.5 50.5,-19.5 98.5,-19.5 98.5,-0.5 50.5,-0.5"/>
<text text-anchor="middle" x="74.5" y="-7.5" font-family="Helvetica,sans-Serif" font-size="10.00">QtCore</text>
</g>
<!-- Node3&#45;&gt;Node4 -->
<g id="edge5" class="edge"><title>Node3&#45;&gt;Node4</title>
<path fill="none" stroke="midnightblue" d="M102.886,-56.083C98.1326,-48.5341 91.1819,-37.4948 85.3484,-28.2298"/>
<polygon fill="midnightblue" stroke="midnightblue" points="88.2999,-26.3486 80.0099,-19.7511 82.3763,-30.0783 88.2999,-26.3486"/>
</g>
<!-- Node5 -->
<g id="node6" class="node"><title>Node5</title>
<g id="a_node6"><a xlink:href="enums_8h.html" target="_top" xlink:title="Enumérations et constantes permettant de paramétrer les fwidgets. ">
<polygon fill="white" stroke="black" points="116.5,-0.5 116.5,-19.5 170.5,-19.5 170.5,-0.5 116.5,-0.5"/>
<text text-anchor="middle" x="143.5" y="-7.5" font-family="Helvetica,sans-Serif" font-size="10.00">enums.h</text>
</a>
</g>
</g>
<!-- Node3&#45;&gt;Node5 -->
<g id="edge6" class="edge"><title>Node3&#45;&gt;Node5</title>
<path fill="none" stroke="midnightblue" d="M114.28,-56.083C119.172,-48.5341 126.327,-37.4948 132.333,-28.2298"/>
<polygon fill="midnightblue" stroke="midnightblue" points="135.326,-30.0463 137.828,-19.7511 129.452,-26.239 135.326,-30.0463"/>
</g>
<!-- Node7&#45;&gt;Node1 -->
<g id="edge9" class="edge"><title>Node7&#45;&gt;Node1</title>
<path fill="none" stroke="midnightblue" d="M57.3814,-168.368C53.0242,-150.617 42.9727,-109.666 37.0648,-85.5974"/>
<polygon fill="midnightblue" stroke="midnightblue" points="40.3918,-84.4688 34.6088,-75.5914 33.5936,-86.1375 40.3918,-84.4688"/>
</g>
<!-- Node7&#45;&gt;Node2 -->
<g id="edge10" class="edge"><title>Node7&#45;&gt;Node2</title>
<path fill="none" stroke="midnightblue" d="M67.5914,-168.083C74.6554,-160.298 85.0876,-148.801 93.6489,-139.367"/>
<polygon fill="midnightblue" stroke="midnightblue" points="96.4312,-141.509 100.559,-131.751 91.2473,-136.805 96.4312,-141.509"/>
</g>
</g>
</svg>
