<?xml version="1.0" encoding="UTF-8" standalone="no"?>
<!DOCTYPE svg PUBLIC "-//W3C//DTD SVG 1.1//EN"
 "http://www.w3.org/Graphics/SVG/1.1/DTD/svg11.dtd">
<!-- Generated by graphviz version 2.38.0 (20140413.2041)
 -->
<!-- Title: fwidgets_lib/enums.h Pages: 1 -->
<!--zoomable 431 -->
<svg id="main" version="1.1" xmlns="http://www.w3.org/2000/svg" xmlns:xlink="http://www.w3.org/1999/xlink" xml:space="preserve" onload="init(evt)">
<style type="text/css"><![CDATA[
.edge:hover path { stroke: red; }
.edge:hover polygon { stroke: red; fill: red; }
]]></style>
<script type="text/javascript"><![CDATA[
var edges = document.getElementsByTagName('g');
if (edges && edges.length) {
  for (var i=0;i<edges.length;i++) {
    if (edges[i].id.substr(0,4)=='edge') {
      edges[i].setAttribute('class','edge');
    }
  }
}
]]></script>
        <defs>
                <circle id="rim" cx="0" cy="0" r="7"/>
                <circle id="rim2" cx="0" cy="0" r="3.5"/>
                <g id="zoomPlus">
                        <use xlink:href="#rim" fill="#404040">
                                <set attributeName="fill" to="#808080" begin="zoomplus.mouseover" end="zoomplus.mouseout"/>
                        </use>
                        <path d="M-4,0h8M0,-4v8" fill="none" stroke="white" stroke-width="1.5" pointer-events="none"/>
                </g>
                <g id="zoomMin">
                        <use xlink:href="#rim" fill="#404040">
                                <set attributeName="fill" to="#808080" begin="zoomminus.mouseover" end="zoomminus.mouseout"/>
                        </use>
                        <path d="M-4,0h8" fill="none" stroke="white" stroke-width="1.5" pointer-events="none"/>
                </g>
                <g id="dirArrow">
                        <path fill="none" stroke="white" stroke-width="1.5" d="M0,-3.0v7 M-2.5,-0.5L0,-3.0L2.5,-0.5"/>
                </g>
               <g id="resetDef">
                       <use xlink:href="#rim2" fill="#404040">
                               <set attributeName="fill" to="#808080" begin="reset.mouseover" end="reset.mouseout"/>
                       </use>
               </g>
        </defs>

<script type="text/javascript">
var viewWidth = 1314;
var viewHeight = 431;
var sectionId = 'dynsection-0';
</script>
<script xlink:href="svgpan.js"/>
<svg id="graph" class="graph">
<g id="viewport">
<title>fwidgets_lib/enums.h</title>
<polygon fill="white" stroke="none" points="-4,4 -4,-427 1310,-427 1310,4 -4,4"/>
<!-- Node1 -->
<g id="node1" class="node"><title>Node1</title>
<polygon fill="#bfbfbf" stroke="black" points="934.5,-403.5 934.5,-422.5 1043.5,-422.5 1043.5,-403.5 934.5,-403.5"/>
<text text-anchor="middle" x="989" y="-410.5" font-family="Helvetica,sans-Serif" font-size="10.00">fwidgets_lib/enums.h</text>
</g>
<!-- Node2 -->
<g id="node2" class="node"><title>Node2</title>
<g id="a_node2"><a xlink:href="altair_8h.html" target="_top" xlink:title="Code de la classe principale Altair, qui joue le rôle d&#39;agent de l&#39;interface graphique. ">
<polygon fill="white" stroke="black" points="250.5,-123.5 250.5,-142.5 353.5,-142.5 353.5,-123.5 250.5,-123.5"/>
<text text-anchor="middle" x="302" y="-130.5" font-family="Helvetica,sans-Serif" font-size="10.00">Interface/gui/altair.h</text>
</a>
</g>
</g>
<!-- Node1&#45;&gt;Node2 -->
<g id="edge1" class="edge"><title>Node1&#45;&gt;Node2</title>
<path fill="none" stroke="midnightblue" d="M924.359,-410.268C718.374,-404.069 87.5314,-379.586 30,-311 -43.321,-223.591 169.546,-163.716 261.72,-142.507"/>
<polygon fill="midnightblue" stroke="midnightblue" points="924.324,-413.768 934.423,-410.566 924.532,-406.771 924.324,-413.768"/>
</g>
<!-- Node10 -->
<g id="node10" class="node"><title>Node10</title>
<g id="a_node10"><a xlink:href="fstring_8h.html" target="_top" xlink:title="fwidgets_lib/fstring.h">
<polygon fill="white" stroke="black" points="356.5,-347.5 356.5,-366.5 463.5,-366.5 463.5,-347.5 356.5,-347.5"/>
<text text-anchor="middle" x="410" y="-354.5" font-family="Helvetica,sans-Serif" font-size="10.00">fwidgets_lib/fstring.h</text>
</a>
</g>
</g>
<!-- Node1&#45;&gt;Node10 -->
<g id="edge10" class="edge"><title>Node1&#45;&gt;Node10</title>
<path fill="none" stroke="midnightblue" d="M924.181,-405.955C808.978,-395.21 570.66,-372.984 463.844,-363.022"/>
<polygon fill="midnightblue" stroke="midnightblue" points="923.987,-409.452 934.268,-406.895 924.637,-402.482 923.987,-409.452"/>
</g>
<!-- Node20 -->
<g id="node20" class="node"><title>Node20</title>
<g id="a_node20"><a xlink:href="flineframe_8h.html" target="_top" xlink:title="Ce fichier contient la classe FLineFrame, dérivée fonctionnelle de FLineEdit. ">
<polygon fill="white" stroke="black" points="1093,-235.5 1093,-254.5 1215,-254.5 1215,-235.5 1093,-235.5"/>
<text text-anchor="middle" x="1154" y="-242.5" font-family="Helvetica,sans-Serif" font-size="10.00">fwidgets_lib/flineframe.h</text>
</a>
</g>
</g>
<!-- Node1&#45;&gt;Node20 -->
<g id="edge55" class="edge"><title>Node1&#45;&gt;Node20</title>
<path fill="none" stroke="midnightblue" d="M1005.25,-395.651C1039.75,-360.939 1119.31,-280.898 1145.48,-254.568"/>
<polygon fill="midnightblue" stroke="midnightblue" points="1002.44,-393.515 997.871,-403.075 1007.4,-398.45 1002.44,-393.515"/>
</g>
<!-- Node21 -->
<g id="node21" class="node"><title>Node21</title>
<g id="a_node21"><a xlink:href="flineframe_8cpp.html" target="_top" xlink:title="fwidgets_lib/flineframe.cpp">
<polygon fill="white" stroke="black" points="992.5,-179.5 992.5,-198.5 1125.5,-198.5 1125.5,-179.5 992.5,-179.5"/>
<text text-anchor="middle" x="1059" y="-186.5" font-family="Helvetica,sans-Serif" font-size="10.00">fwidgets_lib/flineframe.cpp</text>
</a>
</g>
</g>
<!-- Node1&#45;&gt;Node21 -->
<g id="edge56" class="edge"><title>Node1&#45;&gt;Node21</title>
<path fill="none" stroke="midnightblue" d="M994.807,-393.585C1009.14,-348.135 1045.78,-231.924 1056.2,-198.884"/>
<polygon fill="midnightblue" stroke="midnightblue" points="991.413,-392.708 991.744,-403.297 998.089,-394.813 991.413,-392.708"/>
</g>
<!-- Node28 -->
<g id="node28" class="node"><title>Node28</title>
<g id="a_node28"><a xlink:href="forms_8h.html" target="_top" xlink:title="fwidgets_lib/forms.h">
<polygon fill="white" stroke="black" points="1133,-347.5 1133,-366.5 1237,-366.5 1237,-347.5 1133,-347.5"/>
<text text-anchor="middle" x="1185" y="-354.5" font-family="Helvetica,sans-Serif" font-size="10.00">fwidgets_lib/forms.h</text>
</a>
</g>
</g>
<!-- Node1&#45;&gt;Node28 -->
<g id="edge57" class="edge"><title>Node1&#45;&gt;Node28</title>
<path fill="none" stroke="midnightblue" d="M1030.02,-400.699C1067.01,-390.507 1120.6,-375.743 1154.09,-366.516"/>
<polygon fill="midnightblue" stroke="midnightblue" points="1028.77,-397.413 1020.06,-403.444 1030.63,-404.162 1028.77,-397.413"/>
</g>
<!-- Node3 -->
<g id="node3" class="node"><title>Node3</title>
<g id="a_node3"><a xlink:href="altair-gui_8h.html" target="_top" xlink:title="Code de la classe MainWindow qui construit l&#39;interface graphique. ">
<polygon fill="white" stroke="black" points="413.5,-56.5 413.5,-86.5 508.5,-86.5 508.5,-56.5 413.5,-56.5"/>
<text text-anchor="start" x="421.5" y="-74.5" font-family="Helvetica,sans-Serif" font-size="10.00">Interface/gui/altair</text>
<text text-anchor="middle" x="461" y="-63.5" font-family="Helvetica,sans-Serif" font-size="10.00">&#45;gui.h</text>
</a>
</g>
</g>
<!-- Node2&#45;&gt;Node3 -->
<g id="edge2" class="edge"><title>Node2&#45;&gt;Node3</title>
<path fill="none" stroke="midnightblue" d="M329.233,-119.719C353.572,-110.062 389.459,-96.6023 417.697,-86.523"/>
<polygon fill="midnightblue" stroke="midnightblue" points="327.855,-116.5 319.88,-123.475 330.464,-122.996 327.855,-116.5"/>
</g>
<!-- Node5 -->
<g id="node5" class="node"><title>Node5</title>
<g id="a_node5"><a xlink:href="altair_8cpp.html" target="_top" xlink:title="Code implémentant la classe principale Altair, qui joue le rôle d&#39;agent de l&#39;interface graphique...">
<polygon fill="white" stroke="black" points="129.5,-62 129.5,-81 242.5,-81 242.5,-62 129.5,-62"/>
<text text-anchor="middle" x="186" y="-69" font-family="Helvetica,sans-Serif" font-size="10.00">Interface/gui/altair.cpp</text>
</a>
</g>
</g>
<!-- Node2&#45;&gt;Node5 -->
<g id="edge5" class="edge"><title>Node2&#45;&gt;Node5</title>
<path fill="none" stroke="midnightblue" d="M276.395,-118.867C253.913,-107.335 221.871,-90.8992 202.589,-81.0091"/>
<polygon fill="midnightblue" stroke="midnightblue" points="274.885,-122.025 285.38,-123.475 278.08,-115.797 274.885,-122.025"/>
</g>
<!-- Node6 -->
<g id="node6" class="node"><title>Node6</title>
<g id="a_node6"><a xlink:href="mainwindow_8cpp.html" target="_top" xlink:title="Code de l&#39;implémentation de la classe MainWindow de l&#39;interface graphique. ">
<polygon fill="white" stroke="black" points="574,-62 574,-81 720,-81 720,-62 574,-62"/>
<text text-anchor="middle" x="647" y="-69" font-family="Helvetica,sans-Serif" font-size="10.00">Interface/gui/mainwindow.cpp</text>
</a>
</g>
</g>
<!-- Node2&#45;&gt;Node6 -->
<g id="edge6" class="edge"><title>Node2&#45;&gt;Node6</title>
<path fill="none" stroke="midnightblue" d="M361.38,-121.759C428.137,-110.246 535.323,-91.7602 597.662,-81.0091"/>
<polygon fill="midnightblue" stroke="midnightblue" points="360.69,-118.326 351.43,-123.475 361.879,-125.225 360.69,-118.326"/>
</g>
<!-- Node7 -->
<g id="node7" class="node"><title>Node7</title>
<g id="a_node7"><a xlink:href="options_8cpp.html" target="_top" xlink:title="Implémentation des classes du dialogue d&#39;options. ">
<polygon fill="white" stroke="black" points="1168,-62 1168,-81 1292,-81 1292,-62 1168,-62"/>
<text text-anchor="middle" x="1230" y="-69" font-family="Helvetica,sans-Serif" font-size="10.00">Interface/gui/options.cpp</text>
</a>
</g>
</g>
<!-- Node2&#45;&gt;Node7 -->
<g id="edge7" class="edge"><title>Node2&#45;&gt;Node7</title>
<path fill="none" stroke="midnightblue" d="M363.691,-128.869C523.942,-120.674 950.729,-98.4388 1092,-87 1116.85,-84.9877 1144.17,-82.2324 1167.89,-79.6639"/>
<polygon fill="midnightblue" stroke="midnightblue" points="363.336,-125.382 353.527,-129.388 363.693,-132.373 363.336,-125.382"/>
</g>
<!-- Node8 -->
<g id="node8" class="node"><title>Node8</title>
<g id="a_node8"><a xlink:href="run_8cpp.html" target="_top" xlink:title="Implémentation de la classe Altair agent de la classe MainWindow qui construit l&#39;interface graphique...">
<polygon fill="white" stroke="black" points="0,-62 0,-81 106,-81 106,-62 0,-62"/>
<text text-anchor="middle" x="53" y="-69" font-family="Helvetica,sans-Serif" font-size="10.00">Interface/gui/run.cpp</text>
</a>
</g>
</g>
<!-- Node2&#45;&gt;Node8 -->
<g id="edge8" class="edge"><title>Node2&#45;&gt;Node8</title>
<path fill="none" stroke="midnightblue" d="M256.442,-121.114C208.113,-109.565 132.77,-91.5615 88.6094,-81.0091"/>
<polygon fill="midnightblue" stroke="midnightblue" points="255.785,-124.555 266.324,-123.475 257.412,-117.747 255.785,-124.555"/>
</g>
<!-- Node9 -->
<g id="node9" class="node"><title>Node9</title>
<g id="a_node9"><a xlink:href="xmlparser_8cpp.html" target="_top" xlink:title="Implémentation de la classe Altair agent de la classe MainWindow qui construit l&#39;interface graphique...">
<polygon fill="white" stroke="black" points="260.5,-62 260.5,-81 395.5,-81 395.5,-62 260.5,-62"/>
<text text-anchor="middle" x="328" y="-69" font-family="Helvetica,sans-Serif" font-size="10.00">Interface/gui/xmlparser.cpp</text>
</a>
</g>
</g>
<!-- Node2&#45;&gt;Node9 -->
<g id="edge9" class="edge"><title>Node2&#45;&gt;Node9</title>
<path fill="none" stroke="midnightblue" d="M309.867,-113.997C314.651,-103.05 320.539,-89.5746 324.282,-81.0091"/>
<polygon fill="midnightblue" stroke="midnightblue" points="306.522,-112.91 305.725,-123.475 312.937,-115.713 306.522,-112.91"/>
</g>
<!-- Node3&#45;&gt;Node2 -->
<g id="edge3" class="edge"><title>Node3&#45;&gt;Node2</title>
<path fill="none" stroke="midnightblue" d="M419.713,-90.2852C391.362,-101.264 354.606,-114.852 329.681,-123.475"/>
<polygon fill="midnightblue" stroke="midnightblue" points="421.313,-93.418 429.357,-86.523 418.769,-86.8966 421.313,-93.418"/>
</g>
<!-- Node4 -->
<g id="node4" class="node"><title>Node4</title>
<g id="a_node4"><a xlink:href="_interface_2gui_2main_8cpp.html" target="_top" xlink:title="Lance l&#39;interface graphique en chargeant le bon contexte linguistique et la feuille de style...">
<polygon fill="white" stroke="black" points="404.5,-0.5 404.5,-19.5 517.5,-19.5 517.5,-0.5 404.5,-0.5"/>
<text text-anchor="middle" x="461" y="-7.5" font-family="Helvetica,sans-Serif" font-size="10.00">Interface/gui/main.cpp</text>
</a>
</g>
</g>
<!-- Node3&#45;&gt;Node4 -->
<g id="edge4" class="edge"><title>Node3&#45;&gt;Node4</title>
<path fill="none" stroke="midnightblue" d="M461,-46.2892C461,-36.857 461,-26.6548 461,-19.6578"/>
<polygon fill="midnightblue" stroke="midnightblue" points="457.5,-46.3993 461,-56.3993 464.5,-46.3994 457.5,-46.3993"/>
</g>
<!-- Node10&#45;&gt;Node2 -->
<g id="edge11" class="edge"><title>Node10&#45;&gt;Node2</title>
<path fill="none" stroke="midnightblue" d="M380.098,-343.278C333.574,-321.587 245.707,-272.532 212,-199 199.069,-170.791 238,-152.355 268.675,-142.556"/>
<polygon fill="midnightblue" stroke="midnightblue" points="378.811,-346.538 389.363,-347.49 381.708,-340.166 378.811,-346.538"/>
</g>
<!-- Node10&#45;&gt;Node5 -->
<g id="edge12" class="edge"><title>Node10&#45;&gt;Node5</title>
<path fill="none" stroke="midnightblue" d="M346.369,-356.687C250.798,-356.39 76.4281,-350.276 30,-311 7.02153,-291.561 11,-276.098 11,-246 11,-246 11,-246 11,-188 11,-124.842 91.3817,-94.2405 143.19,-81.0765"/>
<polygon fill="midnightblue" stroke="midnightblue" points="346.488,-360.187 356.492,-356.697 346.496,-353.187 346.488,-360.187"/>
</g>
<!-- Node10&#45;&gt;Node7 -->
<g id="edge13" class="edge"><title>Node10&#45;&gt;Node7</title>
<path fill="none" stroke="midnightblue" d="M473.817,-352.791C656.847,-342.948 1173.7,-310.444 1224,-255 1269.8,-204.52 1242.9,-110.107 1233.11,-81.1595"/>
<polygon fill="midnightblue" stroke="midnightblue" points="473.599,-349.297 463.799,-353.325 473.971,-356.288 473.599,-349.297"/>
</g>
<!-- Node11 -->
<g id="node11" class="node"><title>Node11</title>
<g id="a_node11"><a xlink:href="custom_8h.html" target="_top" xlink:title="Personnalisation de l&#39;onglet central par des onglets à droite des onglets dédiés aux fichiers importé...">
<polygon fill="white" stroke="black" points="39,-291.5 39,-310.5 151,-310.5 151,-291.5 39,-291.5"/>
<text text-anchor="middle" x="95" y="-298.5" font-family="Helvetica,sans-Serif" font-size="10.00">fwidgets_lib/custom.h</text>
</a>
</g>
</g>
<!-- Node10&#45;&gt;Node11 -->
<g id="edge14" class="edge"><title>Node10&#45;&gt;Node11</title>
<path fill="none" stroke="midnightblue" d="M350.077,-345.727C290.551,-335.523 200.34,-320.058 144.679,-310.516"/>
<polygon fill="midnightblue" stroke="midnightblue" points="349.64,-349.203 360.087,-347.444 350.822,-342.304 349.64,-349.203"/>
</g>
<!-- Node13 -->
<g id="node13" class="node"><title>Node13</title>
<g id="a_node13"><a xlink:href="fwidgets_8h.html" target="_top" xlink:title="fwidgets_lib/fwidgets.h">
<polygon fill="white" stroke="black" points="482,-291.5 482,-310.5 598,-310.5 598,-291.5 482,-291.5"/>
<text text-anchor="middle" x="540" y="-298.5" font-family="Helvetica,sans-Serif" font-size="10.00">fwidgets_lib/fwidgets.h</text>
</a>
</g>
</g>
<!-- Node10&#45;&gt;Node13 -->
<g id="edge16" class="edge"><title>Node10&#45;&gt;Node13</title>
<path fill="none" stroke="midnightblue" d="M440.085,-343.503C464.457,-333.38 498.14,-319.388 519.497,-310.516"/>
<polygon fill="midnightblue" stroke="midnightblue" points="438.491,-340.375 430.599,-347.444 441.177,-346.84 438.491,-340.375"/>
</g>
<!-- Node10&#45;&gt;Node20 -->
<g id="edge52" class="edge"><title>Node10&#45;&gt;Node20</title>
<path fill="none" stroke="midnightblue" d="M473.412,-346.625C615.898,-325.558 959.61,-274.741 1096.42,-254.514"/>
<polygon fill="midnightblue" stroke="midnightblue" points="472.887,-343.164 463.507,-348.089 473.911,-350.089 472.887,-343.164"/>
</g>
<!-- Node23 -->
<g id="node23" class="node"><title>Node23</title>
<g id="a_node23"><a xlink:href="flistframe_8h.html" target="_top" xlink:title="fwidgets_lib/flistframe.h">
<polygon fill="white" stroke="black" points="229,-179.5 229,-198.5 349,-198.5 349,-179.5 229,-179.5"/>
<text text-anchor="middle" x="289" y="-186.5" font-family="Helvetica,sans-Serif" font-size="10.00">fwidgets_lib/flistframe.h</text>
</a>
</g>
</g>
<!-- Node10&#45;&gt;Node23 -->
<g id="edge53" class="edge"><title>Node10&#45;&gt;Node23</title>
<path fill="none" stroke="midnightblue" d="M397.436,-338.763C371.799,-303.592 314.276,-224.676 295.245,-198.568"/>
<polygon fill="midnightblue" stroke="midnightblue" points="394.776,-341.056 403.495,-347.075 400.432,-336.932 394.776,-341.056"/>
</g>
<!-- Node25 -->
<g id="node25" class="node"><title>Node25</title>
<g id="a_node25"><a xlink:href="fstring_8cpp.html" target="_top" xlink:title="fwidgets_lib/fstring.cpp">
<polygon fill="white" stroke="black" points="367.5,-179.5 367.5,-198.5 484.5,-198.5 484.5,-179.5 367.5,-179.5"/>
<text text-anchor="middle" x="426" y="-186.5" font-family="Helvetica,sans-Serif" font-size="10.00">fwidgets_lib/fstring.cpp</text>
</a>
</g>
</g>
<!-- Node10&#45;&gt;Node25 -->
<g id="edge54" class="edge"><title>Node10&#45;&gt;Node25</title>
<path fill="none" stroke="midnightblue" d="M411.838,-336.93C415.309,-300.92 422.701,-224.231 425.174,-198.568"/>
<polygon fill="midnightblue" stroke="midnightblue" points="408.336,-336.785 410.86,-347.075 415.304,-337.457 408.336,-336.785"/>
</g>
<!-- Node12 -->
<g id="node12" class="node"><title>Node12</title>
<g id="a_node12"><a xlink:href="flistframe_8cpp.html" target="_top" xlink:title="fwidgets_lib/flistframe.cpp">
<polygon fill="white" stroke="black" points="96.5,-123.5 96.5,-142.5 227.5,-142.5 227.5,-123.5 96.5,-123.5"/>
<text text-anchor="middle" x="162" y="-130.5" font-family="Helvetica,sans-Serif" font-size="10.00">fwidgets_lib/flistframe.cpp</text>
</a>
</g>
</g>
<!-- Node11&#45;&gt;Node12 -->
<g id="edge15" class="edge"><title>Node11&#45;&gt;Node12</title>
<path fill="none" stroke="midnightblue" d="M102.509,-281.395C116.963,-245.585 148.139,-168.342 158.542,-142.568"/>
<polygon fill="midnightblue" stroke="midnightblue" points="99.0994,-280.492 98.6022,-291.075 105.591,-283.112 99.0994,-280.492"/>
</g>
<!-- Node13&#45;&gt;Node2 -->
<g id="edge30" class="edge"><title>Node13&#45;&gt;Node2</title>
<path fill="none" stroke="midnightblue" d="M479.152,-289.614C395.159,-273.886 250.561,-241.322 220,-199 201.867,-173.889 244.261,-153.394 274.602,-142.505"/>
<polygon fill="midnightblue" stroke="midnightblue" points="478.613,-293.074 489.082,-291.448 479.884,-286.19 478.613,-293.074"/>
</g>
<!-- Node13&#45;&gt;Node8 -->
<g id="edge32" class="edge"><title>Node13&#45;&gt;Node8</title>
<path fill="none" stroke="midnightblue" d="M471.587,-295.133C417.455,-289.673 340.646,-278.309 277,-255 184.954,-221.291 153.368,-215.139 87,-143 69.8875,-124.4 59.6932,-95.6114 55.3977,-81.2586"/>
<polygon fill="midnightblue" stroke="midnightblue" points="471.471,-298.638 481.761,-296.117 472.144,-291.67 471.471,-298.638"/>
</g>
<!-- Node14 -->
<g id="node14" class="node"><title>Node14</title>
<g id="a_node14"><a xlink:href="common_8h.html" target="_top" xlink:title="Code de la classe common, qui regroupe des utilitaires communs à l&#39;interface graphique MainWindow...">
<polygon fill="white" stroke="black" points="502.5,-179.5 502.5,-198.5 621.5,-198.5 621.5,-179.5 502.5,-179.5"/>
<text text-anchor="middle" x="562" y="-186.5" font-family="Helvetica,sans-Serif" font-size="10.00">Interface/gui/common.h</text>
</a>
</g>
</g>
<!-- Node13&#45;&gt;Node14 -->
<g id="edge17" class="edge"><title>Node13&#45;&gt;Node14</title>
<path fill="none" stroke="midnightblue" d="M522.002,-284.012C509.614,-270.975 496.761,-252.001 505,-235 513.028,-218.435 530.438,-206.128 543.918,-198.61"/>
<polygon fill="midnightblue" stroke="midnightblue" points="519.86,-286.813 529.462,-291.292 524.749,-281.803 519.86,-286.813"/>
</g>
<!-- Node19 -->
<g id="node19" class="node"><title>Node19</title>
<g id="a_node19"><a xlink:href="highlighter_8cpp.html" target="_top" xlink:title="Implémentation de la classe Highlighter qui sert à coloriser le code XML des projets ...">
<polygon fill="white" stroke="black" points="514.5,-235.5 514.5,-254.5 651.5,-254.5 651.5,-235.5 514.5,-235.5"/>
<text text-anchor="middle" x="583" y="-242.5" font-family="Helvetica,sans-Serif" font-size="10.00">Interface/gui/highlighter.cpp</text>
</a>
</g>
</g>
<!-- Node13&#45;&gt;Node19 -->
<g id="edge31" class="edge"><title>Node13&#45;&gt;Node19</title>
<path fill="none" stroke="midnightblue" d="M553.422,-283.144C560.914,-273.736 569.937,-262.405 576.032,-254.751"/>
<polygon fill="midnightblue" stroke="midnightblue" points="550.592,-281.08 547.101,-291.083 556.068,-285.44 550.592,-281.08"/>
</g>
<!-- Node13&#45;&gt;Node20 -->
<g id="edge33" class="edge"><title>Node13&#45;&gt;Node20</title>
<path fill="none" stroke="midnightblue" d="M608.247,-293.998C728.79,-283.396 977.528,-261.52 1092.83,-251.379"/>
<polygon fill="midnightblue" stroke="midnightblue" points="607.695,-290.533 598.04,-294.895 608.308,-297.506 607.695,-290.533"/>
</g>
<!-- Node13&#45;&gt;Node21 -->
<g id="edge49" class="edge"><title>Node13&#45;&gt;Node21</title>
<path fill="none" stroke="midnightblue" d="M608.388,-297.684C714.354,-293.307 912.808,-281.745 978,-255 1009.36,-242.134 1038.34,-213.11 1051.53,-198.599"/>
<polygon fill="midnightblue" stroke="midnightblue" points="607.969,-294.198 598.118,-298.097 608.25,-301.192 607.969,-294.198"/>
</g>
<!-- Node22 -->
<g id="node22" class="node"><title>Node22</title>
<g id="a_node22"><a xlink:href="tools_8h.html" target="_top" xlink:title="fwidgets_lib/tools.h">
<polygon fill="white" stroke="black" points="669.5,-235.5 669.5,-254.5 770.5,-254.5 770.5,-235.5 669.5,-235.5"/>
<text text-anchor="middle" x="720" y="-242.5" font-family="Helvetica,sans-Serif" font-size="10.00">fwidgets_lib/tools.h</text>
</a>
</g>
</g>
<!-- Node13&#45;&gt;Node22 -->
<g id="edge38" class="edge"><title>Node13&#45;&gt;Node22</title>
<path fill="none" stroke="midnightblue" d="M578.108,-288.568C612.063,-278.381 660.989,-263.703 691.612,-254.516"/>
<polygon fill="midnightblue" stroke="midnightblue" points="577.094,-285.218 568.522,-291.444 579.106,-291.922 577.094,-285.218"/>
</g>
<!-- Node13&#45;&gt;Node23 -->
<g id="edge50" class="edge"><title>Node13&#45;&gt;Node23</title>
<path fill="none" stroke="midnightblue" d="M511.032,-287.305C459.361,-264.66 352.597,-217.871 308.604,-198.591"/>
<polygon fill="midnightblue" stroke="midnightblue" points="509.74,-290.56 520.304,-291.368 512.55,-284.149 509.74,-290.56"/>
</g>
<!-- Node24 -->
<g id="node24" class="node"><title>Node24</title>
<g id="a_node24"><a xlink:href="fwidgets_8cpp.html" target="_top" xlink:title="fwidgets_lib/fwidgets.cpp">
<polygon fill="white" stroke="black" points="675.5,-123.5 675.5,-142.5 802.5,-142.5 802.5,-123.5 675.5,-123.5"/>
<text text-anchor="middle" x="739" y="-130.5" font-family="Helvetica,sans-Serif" font-size="10.00">fwidgets_lib/fwidgets.cpp</text>
</a>
</g>
</g>
<!-- Node13&#45;&gt;Node24 -->
<g id="edge51" class="edge"><title>Node13&#45;&gt;Node24</title>
<path fill="none" stroke="midnightblue" d="M608.251,-292.558C708.52,-279.986 887.622,-250.717 923,-199 928.019,-191.663 928.488,-185.992 923,-179 914.497,-168.167 838.35,-152.246 786.717,-142.532"/>
<polygon fill="midnightblue" stroke="midnightblue" points="607.705,-289.099 598.208,-293.795 608.561,-296.046 607.705,-289.099"/>
</g>
<!-- Node14&#45;&gt;Node2 -->
<g id="edge23" class="edge"><title>Node14&#45;&gt;Node2</title>
<path fill="none" stroke="midnightblue" d="M511.009,-177.41C461.872,-167.204 388.473,-151.96 343.005,-142.516"/>
<polygon fill="midnightblue" stroke="midnightblue" points="510.299,-180.837 520.802,-179.444 511.723,-173.983 510.299,-180.837"/>
</g>
<!-- Node14&#45;&gt;Node3 -->
<g id="edge22" class="edge"><title>Node14&#45;&gt;Node3</title>
<path fill="none" stroke="midnightblue" d="M524.976,-175.312C509.037,-168.123 491.467,-157.591 480,-143 467.076,-126.555 462.919,-102.021 461.596,-86.6576"/>
<polygon fill="midnightblue" stroke="midnightblue" points="524.046,-178.717 534.621,-179.362 526.756,-172.263 524.046,-178.717"/>
</g>
<!-- Node14&#45;&gt;Node6 -->
<g id="edge25" class="edge"><title>Node14&#45;&gt;Node6</title>
<path fill="none" stroke="midnightblue" d="M590.768,-174.398C603.887,-166.85 618.562,-156.281 628,-143 641.658,-123.781 645.499,-95.2729 646.579,-81.1198"/>
<polygon fill="midnightblue" stroke="midnightblue" points="588.724,-171.525 581.589,-179.357 592.05,-177.684 588.724,-171.525"/>
</g>
<!-- Node14&#45;&gt;Node9 -->
<g id="edge29" class="edge"><title>Node14&#45;&gt;Node9</title>
<path fill="none" stroke="midnightblue" d="M534.042,-175.199C514.826,-166.326 488.769,-154.149 466,-143 421.782,-121.349 370.264,-94.6268 344.478,-81.147"/>
<polygon fill="midnightblue" stroke="midnightblue" points="532.6,-178.388 543.147,-179.392 535.528,-172.03 532.6,-178.388"/>
</g>
<!-- Node15 -->
<g id="node15" class="node"><title>Node15</title>
<g id="a_node15"><a xlink:href="options_8h.html" target="_top" xlink:title="Code des classes du dialogue d&#39;options. ">
<polygon fill="white" stroke="black" points="820.5,-123.5 820.5,-142.5 933.5,-142.5 933.5,-123.5 820.5,-123.5"/>
<text text-anchor="middle" x="877" y="-130.5" font-family="Helvetica,sans-Serif" font-size="10.00">Interface/gui/options.h</text>
</a>
</g>
</g>
<!-- Node14&#45;&gt;Node15 -->
<g id="edge18" class="edge"><title>Node14&#45;&gt;Node15</title>
<path fill="none" stroke="midnightblue" d="M621.923,-177.727C681.449,-167.523 771.66,-152.058 827.321,-142.516"/>
<polygon fill="midnightblue" stroke="midnightblue" points="621.178,-174.304 611.913,-179.444 622.36,-181.203 621.178,-174.304"/>
</g>
<!-- Node16 -->
<g id="node16" class="node"><title>Node16</title>
<g id="a_node16"><a xlink:href="common_8cpp.html" target="_top" xlink:title="Interface/gui/common.cpp">
<polygon fill="white" stroke="black" points="489,-123.5 489,-142.5 619,-142.5 619,-123.5 489,-123.5"/>
<text text-anchor="middle" x="554" y="-130.5" font-family="Helvetica,sans-Serif" font-size="10.00">Interface/gui/common.cpp</text>
</a>
</g>
</g>
<!-- Node14&#45;&gt;Node16 -->
<g id="edge24" class="edge"><title>Node14&#45;&gt;Node16</title>
<path fill="none" stroke="midnightblue" d="M559.2,-169.101C557.872,-160.136 556.349,-149.858 555.296,-142.751"/>
<polygon fill="midnightblue" stroke="midnightblue" points="555.751,-169.704 560.679,-179.083 562.676,-168.678 555.751,-169.704"/>
</g>
<!-- Node17 -->
<g id="node17" class="node"><title>Node17</title>
<g id="a_node17"><a xlink:href="matricules_8h.html" target="_top" xlink:title="Code de la classe MatriculeInput, qui construit un dialogue d&#39;extraction des bulletins. ">
<polygon fill="white" stroke="black" points="951.5,-123.5 951.5,-142.5 1078.5,-142.5 1078.5,-123.5 951.5,-123.5"/>
<text text-anchor="middle" x="1015" y="-130.5" font-family="Helvetica,sans-Serif" font-size="10.00">Interface/gui/matricules.h</text>
</a>
</g>
</g>
<!-- Node14&#45;&gt;Node17 -->
<g id="edge26" class="edge"><title>Node14&#45;&gt;Node17</title>
<path fill="none" stroke="midnightblue" d="M631.839,-178.788C770.22,-161.726 806.645,-159.152 942,-143 945.043,-142.637 948.157,-142.263 951.302,-141.883"/>
<polygon fill="midnightblue" stroke="midnightblue" points="631.192,-175.341 621.697,-180.042 632.051,-182.288 631.192,-175.341"/>
</g>
<!-- Node15&#45;&gt;Node3 -->
<g id="edge19" class="edge"><title>Node15&#45;&gt;Node3</title>
<path fill="none" stroke="midnightblue" d="M810.483,-122.486C726.172,-110.427 582.904,-89.9358 508.706,-79.3233"/>
<polygon fill="midnightblue" stroke="midnightblue" points="810.069,-125.962 820.463,-123.914 811.06,-119.033 810.069,-125.962"/>
</g>
<!-- Node15&#45;&gt;Node5 -->
<g id="edge20" class="edge"><title>Node15&#45;&gt;Node5</title>
<path fill="none" stroke="midnightblue" d="M810.072,-122.989C561.096,-98.7611 494.643,-121.792 251,-87 240.699,-85.529 229.607,-83.3001 219.553,-81.0281"/>
<polygon fill="midnightblue" stroke="midnightblue" points="809.853,-126.484 820.149,-123.986 810.542,-119.518 809.853,-126.484"/>
</g>
<!-- Node15&#45;&gt;Node7 -->
<g id="edge21" class="edge"><title>Node15&#45;&gt;Node7</title>
<path fill="none" stroke="midnightblue" d="M937.757,-121.759C1006.06,-110.246 1115.73,-91.7602 1179.52,-81.0091"/>
<polygon fill="midnightblue" stroke="midnightblue" points="936.855,-118.362 927.576,-123.475 938.019,-125.264 936.855,-118.362"/>
</g>
<!-- Node17&#45;&gt;Node6 -->
<g id="edge27" class="edge"><title>Node17&#45;&gt;Node6</title>
<path fill="none" stroke="midnightblue" d="M952.1,-121.83C880.923,-110.322 766.258,-91.7822 699.628,-81.0091"/>
<polygon fill="midnightblue" stroke="midnightblue" points="951.844,-125.334 962.275,-123.475 952.961,-118.424 951.844,-125.334"/>
</g>
<!-- Node18 -->
<g id="node18" class="node"><title>Node18</title>
<g id="a_node18"><a xlink:href="matricules_8cpp.html" target="_top" xlink:title="Implémentation de la classe MatriculeInput, qui construit un dialogue d&#39;extraction des bulletins...">
<polygon fill="white" stroke="black" points="946.5,-62 946.5,-81 1083.5,-81 1083.5,-62 946.5,-62"/>
<text text-anchor="middle" x="1015" y="-69" font-family="Helvetica,sans-Serif" font-size="10.00">Interface/gui/matricules.cpp</text>
</a>
</g>
</g>
<!-- Node17&#45;&gt;Node18 -->
<g id="edge28" class="edge"><title>Node17&#45;&gt;Node18</title>
<path fill="none" stroke="midnightblue" d="M1015,-113.317C1015,-102.496 1015,-89.398 1015,-81.0091"/>
<polygon fill="midnightblue" stroke="midnightblue" points="1011.5,-113.475 1015,-123.475 1018.5,-113.475 1011.5,-113.475"/>
</g>
<!-- Node20&#45;&gt;Node7 -->
<g id="edge36" class="edge"><title>Node20&#45;&gt;Node7</title>
<path fill="none" stroke="midnightblue" d="M1166.65,-227.118C1172.43,-218.913 1179.07,-208.74 1184,-199 1205.42,-156.671 1221.79,-101.93 1227.66,-81.0781"/>
<polygon fill="midnightblue" stroke="midnightblue" points="1163.67,-225.268 1160.63,-235.417 1169.34,-229.38 1163.67,-225.268"/>
</g>
<!-- Node20&#45;&gt;Node15 -->
<g id="edge34" class="edge"><title>Node20&#45;&gt;Node15</title>
<path fill="none" stroke="midnightblue" d="M1153.64,-225.313C1152.31,-210.569 1147.99,-190.615 1135,-179 1127.51,-172.304 1007.38,-153.403 933.714,-142.342"/>
<polygon fill="midnightblue" stroke="midnightblue" points="1150.15,-225.547 1154.17,-235.347 1157.14,-225.176 1150.15,-225.547"/>
</g>
<!-- Node20&#45;&gt;Node17 -->
<g id="edge35" class="edge"><title>Node20&#45;&gt;Node17</title>
<path fill="none" stroke="midnightblue" d="M1164.86,-226.323C1171.97,-212.233 1178.23,-192.668 1168,-179 1155.73,-162.595 1106.51,-150.118 1067.16,-142.51"/>
<polygon fill="midnightblue" stroke="midnightblue" points="1161.8,-224.624 1159.99,-235.063 1167.91,-228.03 1161.8,-224.624"/>
</g>
<!-- Node20&#45;&gt;Node21 -->
<g id="edge37" class="edge"><title>Node20&#45;&gt;Node21</title>
<path fill="none" stroke="midnightblue" d="M1129.68,-230.177C1112.2,-220.241 1089.17,-207.149 1074.23,-198.655"/>
<polygon fill="midnightblue" stroke="midnightblue" points="1128.31,-233.425 1138.74,-235.324 1131.77,-227.339 1128.31,-233.425"/>
</g>
<!-- Node22&#45;&gt;Node14 -->
<g id="edge39" class="edge"><title>Node22&#45;&gt;Node14</title>
<path fill="none" stroke="midnightblue" d="M685.392,-232.172C655.641,-222.004 613.453,-207.585 586.918,-198.516"/>
<polygon fill="midnightblue" stroke="midnightblue" points="684.37,-235.521 694.964,-235.444 686.634,-228.898 684.37,-235.521"/>
</g>
<!-- Node22&#45;&gt;Node21 -->
<g id="edge40" class="edge"><title>Node22&#45;&gt;Node21</title>
<path fill="none" stroke="midnightblue" d="M780.691,-234.332C844.603,-224.152 944.267,-208.276 1005.38,-198.541"/>
<polygon fill="midnightblue" stroke="midnightblue" points="780.077,-230.886 770.752,-235.916 781.178,-237.799 780.077,-230.886"/>
</g>
<!-- Node22&#45;&gt;Node23 -->
<g id="edge41" class="edge"><title>Node22&#45;&gt;Node23</title>
<path fill="none" stroke="midnightblue" d="M658.978,-234.899C524.32,-216.903 488.857,-215.333 358,-199 355.123,-198.641 352.179,-198.27 349.206,-197.893"/>
<polygon fill="midnightblue" stroke="midnightblue" points="658.9,-238.42 669.276,-236.281 659.831,-231.482 658.9,-238.42"/>
</g>
<!-- Node22&#45;&gt;Node24 -->
<g id="edge46" class="edge"><title>Node22&#45;&gt;Node24</title>
<path fill="none" stroke="midnightblue" d="M780.59,-237.418C828.747,-230.79 890.511,-218.683 906,-199 911.497,-192.015 911.406,-186.056 906,-179 892.897,-161.898 842.01,-149.83 799.816,-142.525"/>
<polygon fill="midnightblue" stroke="midnightblue" points="779.995,-233.966 770.542,-238.75 780.915,-240.905 779.995,-233.966"/>
</g>
<!-- Node22&#45;&gt;Node25 -->
<g id="edge45" class="edge"><title>Node22&#45;&gt;Node25</title>
<path fill="none" stroke="midnightblue" d="M663.382,-233.601C607.819,-223.395 524.103,-208.019 472.367,-198.516"/>
<polygon fill="midnightblue" stroke="midnightblue" points="662.947,-237.079 673.415,-235.444 664.212,-230.195 662.947,-237.079"/>
</g>
<!-- Node26 -->
<g id="node26" class="node"><title>Node26</title>
<g id="a_node26"><a xlink:href="gui__options_8h.html" target="_top" xlink:title="fwidgets_lib/gui_options.h">
<polygon fill="white" stroke="black" points="639.5,-179.5 639.5,-198.5 768.5,-198.5 768.5,-179.5 639.5,-179.5"/>
<text text-anchor="middle" x="704" y="-186.5" font-family="Helvetica,sans-Serif" font-size="10.00">fwidgets_lib/gui_options.h</text>
</a>
</g>
</g>
<!-- Node22&#45;&gt;Node26 -->
<g id="edge47" class="edge"><title>Node22&#45;&gt;Node26</title>
<path fill="none" stroke="midnightblue" d="M714.488,-225.396C711.811,-216.362 708.722,-205.936 706.593,-198.751"/>
<polygon fill="midnightblue" stroke="midnightblue" points="711.161,-226.489 717.358,-235.083 717.873,-224.501 711.161,-226.489"/>
</g>
<!-- Node27 -->
<g id="node27" class="node"><title>Node27</title>
<g id="a_node27"><a xlink:href="tools_8cpp.html" target="_top" xlink:title="fwidgets_lib/tools.cpp">
<polygon fill="white" stroke="black" points="786.5,-179.5 786.5,-198.5 897.5,-198.5 897.5,-179.5 786.5,-179.5"/>
<text text-anchor="middle" x="842" y="-186.5" font-family="Helvetica,sans-Serif" font-size="10.00">fwidgets_lib/tools.cpp</text>
</a>
</g>
</g>
<!-- Node22&#45;&gt;Node27 -->
<g id="edge48" class="edge"><title>Node22&#45;&gt;Node27</title>
<path fill="none" stroke="midnightblue" d="M748.539,-231.368C771.386,-221.255 802.805,-207.349 822.759,-198.516"/>
<polygon fill="midnightblue" stroke="midnightblue" points="747.059,-228.196 739.331,-235.444 749.892,-234.597 747.059,-228.196"/>
</g>
<!-- Node23&#45;&gt;Node2 -->
<g id="edge42" class="edge"><title>Node23&#45;&gt;Node2</title>
<path fill="none" stroke="midnightblue" d="M293.55,-169.101C295.708,-160.136 298.182,-149.858 299.893,-142.751"/>
<polygon fill="midnightblue" stroke="midnightblue" points="290.085,-168.542 291.147,-179.083 296.89,-170.18 290.085,-168.542"/>
</g>
<!-- Node23&#45;&gt;Node12 -->
<g id="edge43" class="edge"><title>Node23&#45;&gt;Node12</title>
<path fill="none" stroke="midnightblue" d="M259.609,-175.503C235.8,-165.38 202.894,-151.388 182.029,-142.516"/>
<polygon fill="midnightblue" stroke="midnightblue" points="258.304,-178.751 268.876,-179.444 261.043,-172.31 258.304,-178.751"/>
</g>
<!-- Node23&#45;&gt;Node24 -->
<g id="edge44" class="edge"><title>Node23&#45;&gt;Node24</title>
<path fill="none" stroke="midnightblue" d="M359.451,-178.832C476.861,-164.287 601.724,-149.752 675.266,-141.288"/>
<polygon fill="midnightblue" stroke="midnightblue" points="358.698,-175.398 349.205,-180.103 359.56,-182.345 358.698,-175.398"/>
</g>
<!-- Node28&#45;&gt;Node7 -->
<g id="edge58" class="edge"><title>Node28&#45;&gt;Node7</title>
<path fill="none" stroke="midnightblue" d="M1217.36,-343.176C1253.2,-326.589 1306,-294.008 1306,-246 1306,-246 1306,-246 1306,-188 1306,-157.205 1298.8,-148.812 1282,-123 1270.88,-105.912 1253.01,-90.2284 1241.39,-81.0144"/>
<polygon fill="midnightblue" stroke="midnightblue" points="1215.48,-340.179 1207.76,-347.43 1218.32,-346.579 1215.48,-340.179"/>
</g>
<!-- Node29 -->
<g id="node29" class="node"><title>Node29</title>
<g id="a_node29"><a xlink:href="forms_8cpp.html" target="_top" xlink:title="fwidgets_lib/forms.cpp">
<polygon fill="white" stroke="black" points="1127.5,-291.5 1127.5,-310.5 1242.5,-310.5 1242.5,-291.5 1127.5,-291.5"/>
<text text-anchor="middle" x="1185" y="-298.5" font-family="Helvetica,sans-Serif" font-size="10.00">fwidgets_lib/forms.cpp</text>
</a>
</g>
</g>
<!-- Node28&#45;&gt;Node29 -->
<g id="edge59" class="edge"><title>Node28&#45;&gt;Node29</title>
<path fill="none" stroke="midnightblue" d="M1185,-336.805C1185,-327.91 1185,-317.78 1185,-310.751"/>
<polygon fill="midnightblue" stroke="midnightblue" points="1181.5,-337.083 1185,-347.083 1188.5,-337.083 1181.5,-337.083"/>
</g>
</g>
</svg>
        <g id="navigator" transform="translate(0 0)" fill="#404254">
                <rect fill="#f2f5e9" fill-opacity="0.5" stroke="#606060" stroke-width=".5" x="0" y="0" width="60" height="60"/>
                <use id="zoomplus" xlink:href="#zoomPlus" x="17" y="9" onmousedown="handleZoom(evt,'in')"/>
                <use id="zoomminus" xlink:href="#zoomMin" x="42" y="9" onmousedown="handleZoom(evt,'out')"/>
                <use id="reset" xlink:href="#resetDef" x="30" y="36" onmousedown="handleReset()"/>
                <g id="arrowUp" xlink:href="#dirArrow" transform="translate(30 24)" onmousedown="handlePan(0,-1)">
                  <use xlink:href="#rim" fill="#404040">
                        <set attributeName="fill" to="#808080" begin="arrowUp.mouseover" end="arrowUp.mouseout"/>
                  </use>
                  <path fill="none" stroke="white" stroke-width="1.5" d="M0,-3.0v7 M-2.5,-0.5L0,-3.0L2.5,-0.5"/>
                </g>
                <g id="arrowRight" xlink:href="#dirArrow" transform="rotate(90) translate(36 -43)" onmousedown="handlePan(1,0)">
                  <use xlink:href="#rim" fill="#404040">
                        <set attributeName="fill" to="#808080" begin="arrowRight.mouseover" end="arrowRight.mouseout"/>
                  </use>
                  <path fill="none" stroke="white" stroke-width="1.5" d="M0,-3.0v7 M-2.5,-0.5L0,-3.0L2.5,-0.5"/>
                </g>
                <g id="arrowDown" xlink:href="#dirArrow" transform="rotate(180) translate(-30 -48)" onmousedown="handlePan(0,1)">
                  <use xlink:href="#rim" fill="#404040">
                        <set attributeName="fill" to="#808080" begin="arrowDown.mouseover" end="arrowDown.mouseout"/>
                  </use>
                  <path fill="none" stroke="white" stroke-width="1.5" d="M0,-3.0v7 M-2.5,-0.5L0,-3.0L2.5,-0.5"/>
                </g>
                <g id="arrowLeft" xlink:href="#dirArrow" transform="rotate(270) translate(-36 17)" onmousedown="handlePan(-1,0)">
                  <use xlink:href="#rim" fill="#404040">
                        <set attributeName="fill" to="#808080" begin="arrowLeft.mouseover" end="arrowLeft.mouseout"/>
                  </use>
                  <path fill="none" stroke="white" stroke-width="1.5" d="M0,-3.0v7 M-2.5,-0.5L0,-3.0L2.5,-0.5"/>
                </g>
        </g>
        <svg viewBox="0 0 15 15" width="100%" height="30px" preserveAspectRatio="xMaxYMin meet">
         <g id="arrow_out" transform="scale(0.3 0.3)">
          <a xlink:href="enums_8h__dep__incl_org.svg" target="_base">
           <rect id="button" ry="5" rx="5" y="6" x="6" height="38" width="38"
                fill="#f2f5e9" fill-opacity="0.5" stroke="#606060" stroke-width="1.0"/>
           <path id="arrow"
             d="M 11.500037,31.436501 C 11.940474,20.09759 22.043105,11.32322 32.158766,21.979434 L 37.068811,17.246167 C 37.068811,17.246167 37.088388,32 37.088388,32 L 22.160133,31.978069 C 22.160133,31.978069 26.997745,27.140456 26.997745,27.140456 C 18.528582,18.264221 13.291696,25.230495 11.500037,31.436501 z"
             style="fill:#404040;"/>
          </a>
         </g>
        </svg>
</svg>
