<?xml version="1.0" encoding="UTF-8" standalone="no"?>
<!DOCTYPE svg PUBLIC "-//W3C//DTD SVG 1.1//EN"
 "http://www.w3.org/Graphics/SVG/1.1/DTD/svg11.dtd">
<!-- Generated by graphviz version 2.40.1 (20161225.0304)
 -->
<!-- Title: fwidgets_lib/enums.h Pages: 1 -->
<!--zoomable 487 -->
<svg id="main" version="1.1" xmlns="http://www.w3.org/2000/svg" xmlns:xlink="http://www.w3.org/1999/xlink" xml:space="preserve" onload="init(evt)">
<style type="text/css"><![CDATA[
.edge:hover path { stroke: red; }
.edge:hover polygon { stroke: red; fill: red; }
]]></style>
<script type="text/javascript"><![CDATA[
var edges = document.getElementsByTagName('g');
if (edges && edges.length) {
  for (var i=0;i<edges.length;i++) {
    if (edges[i].id.substr(0,4)=='edge') {
      edges[i].setAttribute('class','edge');
    }
  }
}
]]></script>
        <defs>
                <circle id="rim" cx="0" cy="0" r="7"/>
                <circle id="rim2" cx="0" cy="0" r="3.5"/>
                <g id="zoomPlus">
                        <use xlink:href="#rim" fill="#404040">
                                <set attributeName="fill" to="#808080" begin="zoomplus.mouseover" end="zoomplus.mouseout"/>
                        </use>
                        <path d="M-4,0h8M0,-4v8" fill="none" stroke="white" stroke-width="1.5" pointer-events="none"/>
                </g>
                <g id="zoomMin">
                        <use xlink:href="#rim" fill="#404040">
                                <set attributeName="fill" to="#808080" begin="zoomminus.mouseover" end="zoomminus.mouseout"/>
                        </use>
                        <path d="M-4,0h8" fill="none" stroke="white" stroke-width="1.5" pointer-events="none"/>
                </g>
                <g id="dirArrow">
                        <path fill="none" stroke="white" stroke-width="1.5" d="M0,-3.0v7 M-2.5,-0.5L0,-3.0L2.5,-0.5"/>
                </g>
               <g id="resetDef">
                       <use xlink:href="#rim2" fill="#404040">
                               <set attributeName="fill" to="#808080" begin="reset.mouseover" end="reset.mouseout"/>
                       </use>
               </g>
        </defs>

<script type="text/javascript">
var viewWidth = 1448;
var viewHeight = 487;
var sectionId = 'dynsection-0';
</script>
<script xlink:href="svgpan.js"/>
<svg id="graph" class="graph">
<g id="viewport">
<title>fwidgets_lib/enums.h</title>
<polygon fill="#ffffff" stroke="transparent" points="-4,4 -4,-483 1443.696,-483 1443.696,4 -4,4"/>
<!-- Node1 -->
<g id="node1" class="node">
<title>Node1</title>
<polygon fill="#bfbfbf" stroke="#000000" points="406.5,-459.5 406.5,-478.5 515.5,-478.5 515.5,-459.5 406.5,-459.5"/>
<text text-anchor="middle" x="461" y="-466.5" font-family="Helvetica,sans-Serif" font-size="10.00" fill="#000000">fwidgets_lib/enums.h</text>
</g>
<!-- Node2 -->
<g id="node2" class="node">
<title>Node2</title>
<g id="a_node2"><a xlink:href="fstring_8h.html" target="_top" xlink:title="fwidgets_lib/fstring.h">
<polygon fill="#ffffff" stroke="#000000" points="523.5,-403.5 523.5,-422.5 630.5,-422.5 630.5,-403.5 523.5,-403.5"/>
<text text-anchor="middle" x="577" y="-410.5" font-family="Helvetica,sans-Serif" font-size="10.00" fill="#000000">fwidgets_lib/fstring.h</text>
</a>
</g>
</g>
<!-- Node1&#45;&gt;Node2 -->
<g id="edge1" class="edge">
<title>Node1&#45;&gt;Node2</title>
<path fill="none" stroke="#191970" d="M490.0537,-454.9741C511.0565,-444.8348 538.8691,-431.408 557.3191,-422.5011"/>
<polygon fill="#191970" stroke="#191970" points="488.425,-451.8738 480.9411,-459.3733 491.4683,-458.1776 488.425,-451.8738"/>
</g>
<!-- Node6 -->
<g id="node6" class="node">
<title>Node6</title>
<g id="a_node6"><a xlink:href="flineframe_8h.html" target="_top" xlink:title="Ce fichier contient la classe FLineFrame, dérivée fonctionnelle de FLineEdit. ">
<polygon fill="#ffffff" stroke="#000000" points="286,-291.5 286,-310.5 408,-310.5 408,-291.5 286,-291.5"/>
<text text-anchor="middle" x="347" y="-298.5" font-family="Helvetica,sans-Serif" font-size="10.00" fill="#000000">fwidgets_lib/flineframe.h</text>
</a>
</g>
</g>
<!-- Node1&#45;&gt;Node6 -->
<g id="edge58" class="edge">
<title>Node1&#45;&gt;Node6</title>
<path fill="none" stroke="#191970" d="M407.9839,-456.6929C362.7348,-443.0803 300.453,-416.2405 271,-367 256.1089,-342.1046 292.4855,-321.7443 319.9033,-310.5055"/>
<polygon fill="#191970" stroke="#191970" points="407.0713,-460.0723 417.6495,-459.4794 409.0104,-453.3462 407.0713,-460.0723"/>
</g>
<!-- Node7 -->
<g id="node7" class="node">
<title>Node7</title>
<g id="a_node7"><a xlink:href="flineframe_8cpp.html" target="_top" xlink:title="fwidgets_lib/flineframe.cpp">
<polygon fill="#ffffff" stroke="#000000" points="394.5,-235.5 394.5,-254.5 527.5,-254.5 527.5,-235.5 394.5,-235.5"/>
<text text-anchor="middle" x="461" y="-242.5" font-family="Helvetica,sans-Serif" font-size="10.00" fill="#000000">fwidgets_lib/flineframe.cpp</text>
</a>
</g>
</g>
<!-- Node1&#45;&gt;Node7 -->
<g id="edge59" class="edge">
<title>Node1&#45;&gt;Node7</title>
<path fill="none" stroke="#191970" d="M461,-449.1177C461,-402.6713 461,-288.4223 461,-254.5891"/>
<polygon fill="#191970" stroke="#191970" points="457.5001,-449.375 461,-459.375 464.5001,-449.375 457.5001,-449.375"/>
</g>
<!-- Node11 -->
<g id="node11" class="node">
<title>Node11</title>
<g id="a_node11"><a xlink:href="altair_8h.html" target="_top" xlink:title="Code de la classe principale Altair, qui joue le rôle d&#39;agent de l&#39;interface graphique. ">
<polygon fill="#ffffff" stroke="#000000" points="1144.5,-56.5 1144.5,-75.5 1247.5,-75.5 1247.5,-56.5 1144.5,-56.5"/>
<text text-anchor="middle" x="1196" y="-63.5" font-family="Helvetica,sans-Serif" font-size="10.00" fill="#000000">Interface/gui/altair.h</text>
</a>
</g>
</g>
<!-- Node1&#45;&gt;Node11 -->
<g id="edge63" class="edge">
<title>Node1&#45;&gt;Node11</title>
<path fill="none" stroke="#191970" d="M525.6431,-467.0455C665.3163,-461.5018 1004.7275,-440.8937 1278,-367 1339.1237,-350.472 1373.6488,-363.5317 1409,-311 1459.0133,-236.6807 1446.5988,-168.3977 1377,-112 1357.2885,-96.0273 1294.0337,-82.3925 1247.8407,-74.2065"/>
<polygon fill="#191970" stroke="#191970" points="525.3947,-463.5523 515.5366,-467.434 525.6637,-470.5472 525.3947,-463.5523"/>
</g>
<!-- Node31 -->
<g id="node31" class="node">
<title>Node31</title>
<g id="a_node31"><a xlink:href="forms_8h.html" target="_top" xlink:title="fwidgets_lib/forms.h">
<polygon fill="#ffffff" stroke="#000000" points="34,-403.5 34,-422.5 138,-422.5 138,-403.5 34,-403.5"/>
<text text-anchor="middle" x="86" y="-410.5" font-family="Helvetica,sans-Serif" font-size="10.00" fill="#000000">fwidgets_lib/forms.h</text>
</a>
</g>
</g>
<!-- Node1&#45;&gt;Node31 -->
<g id="edge60" class="edge">
<title>Node1&#45;&gt;Node31</title>
<path fill="none" stroke="#191970" d="M396.4652,-459.3628C323.382,-448.449 205.7141,-430.8773 138.176,-420.7916"/>
<polygon fill="#191970" stroke="#191970" points="396.0645,-462.8417 406.4718,-460.8571 397.0984,-455.9185 396.0645,-462.8417"/>
</g>
<!-- Node3 -->
<g id="node3" class="node">
<title>Node3</title>
<g id="a_node3"><a xlink:href="custom_8h.html" target="_top" xlink:title="Personnalisation de l&#39;onglet central par des onglets à droite des onglets dédiés aux fichiers importé...">
<polygon fill="#ffffff" stroke="#000000" points="280,-347.5 280,-366.5 392,-366.5 392,-347.5 280,-347.5"/>
<text text-anchor="middle" x="336" y="-354.5" font-family="Helvetica,sans-Serif" font-size="10.00" fill="#000000">fwidgets_lib/custom.h</text>
</a>
</g>
</g>
<!-- Node2&#45;&gt;Node3 -->
<g id="edge2" class="edge">
<title>Node2&#45;&gt;Node3</title>
<path fill="none" stroke="#191970" d="M525.8412,-401.1125C481.4696,-390.8021 418.0832,-376.0733 376.9858,-366.5237"/>
<polygon fill="#191970" stroke="#191970" points="525.3118,-404.5826 535.8445,-403.4369 526.8962,-397.7643 525.3118,-404.5826"/>
</g>
<!-- Node5 -->
<g id="node5" class="node">
<title>Node5</title>
<g id="a_node5"><a xlink:href="fwidgets_8h.html" target="_top" xlink:title="fwidgets_lib/fwidgets.h">
<polygon fill="#ffffff" stroke="#000000" points="827,-347.5 827,-366.5 943,-366.5 943,-347.5 827,-347.5"/>
<text text-anchor="middle" x="885" y="-354.5" font-family="Helvetica,sans-Serif" font-size="10.00" fill="#000000">fwidgets_lib/fwidgets.h</text>
</a>
</g>
</g>
<!-- Node2&#45;&gt;Node5 -->
<g id="edge4" class="edge">
<title>Node2&#45;&gt;Node5</title>
<path fill="none" stroke="#191970" d="M639.5371,-401.6296C696.3519,-391.2997 779.2124,-376.2341 832.6198,-366.5237"/>
<polygon fill="#191970" stroke="#191970" points="638.8097,-398.2044 629.5971,-403.4369 640.062,-405.0915 638.8097,-398.2044"/>
</g>
<!-- Node2&#45;&gt;Node6 -->
<g id="edge52" class="edge">
<title>Node2&#45;&gt;Node6</title>
<path fill="none" stroke="#191970" d="M548.2664,-399.008C500.7861,-375.8872 407.1696,-330.3 366.56,-310.5249"/>
<polygon fill="#191970" stroke="#191970" points="546.8673,-402.2196 557.3903,-403.4509 549.932,-395.9261 546.8673,-402.2196"/>
</g>
<!-- Node2&#45;&gt;Node11 -->
<g id="edge55" class="edge">
<title>Node2&#45;&gt;Node11</title>
<path fill="none" stroke="#191970" d="M640.999,-410.9619C833.8196,-403.9792 1396,-377.0958 1396,-301 1396,-301 1396,-301 1396,-189 1396,-119.295 1306.7635,-87.8311 1247.505,-74.6217"/>
<polygon fill="#191970" stroke="#191970" points="640.606,-407.4736 630.7369,-411.3273 640.8551,-414.4692 640.606,-407.4736"/>
</g>
<!-- Node12 -->
<g id="node12" class="node">
<title>Node12</title>
<g id="a_node12"><a xlink:href="altair_8cpp.html" target="_top" xlink:title="Code implémentant la classe principale Altair, qui joue le rôle d&#39;agent de l&#39;interface graphique...">
<polygon fill="#ffffff" stroke="#000000" points="1301.5,-.5 1301.5,-19.5 1414.5,-19.5 1414.5,-.5 1301.5,-.5"/>
<text text-anchor="middle" x="1358" y="-7.5" font-family="Helvetica,sans-Serif" font-size="10.00" fill="#000000">Interface/gui/altair.cpp</text>
</a>
</g>
</g>
<!-- Node2&#45;&gt;Node12 -->
<g id="edge56" class="edge">
<title>Node2&#45;&gt;Node12</title>
<path fill="none" stroke="#191970" d="M641.0923,-411.5562C790.4614,-407.7458 1158.1077,-395.6732 1278,-367 1339.5823,-352.2721 1373.6488,-363.5317 1409,-311 1474.5443,-213.6017 1388.4861,-59.4103 1364.1003,-19.6199"/>
<polygon fill="#191970" stroke="#191970" points="640.6304,-408.0666 630.7213,-411.8164 640.806,-415.0644 640.6304,-408.0666"/>
</g>
<!-- Node14 -->
<g id="node14" class="node">
<title>Node14</title>
<g id="a_node14"><a xlink:href="options_8cpp.html" target="_top" xlink:title="Implémentation des classes du dialogue d&#39;options. ">
<polygon fill="#ffffff" stroke="#000000" points="14,-.5 14,-19.5 138,-19.5 138,-.5 14,-.5"/>
<text text-anchor="middle" x="76" y="-7.5" font-family="Helvetica,sans-Serif" font-size="10.00" fill="#000000">Interface/gui/options.cpp</text>
</a>
</g>
</g>
<!-- Node2&#45;&gt;Node14 -->
<g id="edge57" class="edge">
<title>Node2&#45;&gt;Node14</title>
<path fill="none" stroke="#191970" d="M513.2406,-408.0787C450.657,-402.1644 352.9398,-390.0189 271,-367 209.253,-349.6538 189.3925,-349.3718 138,-311 81.8219,-269.0551 38,-259.1096 38,-189 38,-189 38,-189 38,-127.5 38,-85.6928 60.0482,-39.401 70.5555,-19.7137"/>
<polygon fill="#191970" stroke="#191970" points="513.0787,-411.5785 523.3573,-409.0093 513.72,-404.6079 513.0787,-411.5785"/>
</g>
<!-- Node21 -->
<g id="node21" class="node">
<title>Node21</title>
<g id="a_node21"><a xlink:href="flistframe_8h.html" target="_top" xlink:title="fwidgets_lib/flistframe.h">
<polygon fill="#ffffff" stroke="#000000" points="719,-235.5 719,-254.5 839,-254.5 839,-235.5 719,-235.5"/>
<text text-anchor="middle" x="779" y="-242.5" font-family="Helvetica,sans-Serif" font-size="10.00" fill="#000000">fwidgets_lib/flistframe.h</text>
</a>
</g>
</g>
<!-- Node2&#45;&gt;Node21 -->
<g id="edge53" class="edge">
<title>Node2&#45;&gt;Node21</title>
<path fill="none" stroke="#191970" d="M593.8292,-396.2101C618.5593,-371.8851 666.6016,-325.934 711,-291 728.2501,-277.4271 749.3538,-263.5378 763.4324,-254.6244"/>
<polygon fill="#191970" stroke="#191970" points="591.3026,-393.7863 586.6533,-403.3066 596.2247,-398.7636 591.3026,-393.7863"/>
</g>
<!-- Node24 -->
<g id="node24" class="node">
<title>Node24</title>
<g id="a_node24"><a xlink:href="fstring_8cpp.html" target="_top" xlink:title="fwidgets_lib/fstring.cpp">
<polygon fill="#ffffff" stroke="#000000" points="545.5,-235.5 545.5,-254.5 662.5,-254.5 662.5,-235.5 545.5,-235.5"/>
<text text-anchor="middle" x="604" y="-242.5" font-family="Helvetica,sans-Serif" font-size="10.00" fill="#000000">fwidgets_lib/fstring.cpp</text>
</a>
</g>
</g>
<!-- Node2&#45;&gt;Node24 -->
<g id="edge54" class="edge">
<title>Node2&#45;&gt;Node24</title>
<path fill="none" stroke="#191970" d="M580.1725,-393.2601C585.9732,-357.1669 598.0912,-281.7656 602.4205,-254.8279"/>
<polygon fill="#191970" stroke="#191970" points="576.6602,-393.0575 578.529,-403.4862 583.5715,-394.1683 576.6602,-393.0575"/>
</g>
<!-- Node4 -->
<g id="node4" class="node">
<title>Node4</title>
<g id="a_node4"><a xlink:href="flistframe_8cpp.html" target="_top" xlink:title="fwidgets_lib/flistframe.cpp">
<polygon fill="#ffffff" stroke="#000000" points="265.5,-179.5 265.5,-198.5 396.5,-198.5 396.5,-179.5 265.5,-179.5"/>
<text text-anchor="middle" x="331" y="-186.5" font-family="Helvetica,sans-Serif" font-size="10.00" fill="#000000">fwidgets_lib/flistframe.cpp</text>
</a>
</g>
</g>
<!-- Node3&#45;&gt;Node4 -->
<g id="edge3" class="edge">
<title>Node3&#45;&gt;Node4</title>
<path fill="none" stroke="#191970" d="M275.5448,-345.2629C200.631,-328.0205 88.0264,-291.6198 133,-235 149.4349,-214.3092 214.3937,-202.0848 265.4836,-195.5017"/>
<polygon fill="#191970" stroke="#191970" points="274.8662,-348.6976 285.3897,-347.4696 276.3973,-341.867 274.8662,-348.6976"/>
</g>
<!-- Node5&#45;&gt;Node6 -->
<g id="edge5" class="edge">
<title>Node5&#45;&gt;Node6</title>
<path fill="none" stroke="#191970" d="M816.6767,-349.8883C710.9404,-338.8823 509.3267,-317.8965 408.1355,-307.3635"/>
<polygon fill="#191970" stroke="#191970" points="816.6048,-353.3996 826.9134,-350.9538 817.3295,-346.4372 816.6048,-353.3996"/>
</g>
<!-- Node5&#45;&gt;Node7 -->
<g id="edge44" class="edge">
<title>Node5&#45;&gt;Node7</title>
<path fill="none" stroke="#191970" d="M826.8047,-345.4125C784.9344,-336.7641 727.2262,-324.2053 677,-311 609.308,-293.2026 530.9998,-268.1364 489.7906,-254.5907"/>
<polygon fill="#191970" stroke="#191970" points="826.3258,-348.8872 836.8255,-347.4702 827.7339,-342.0302 826.3258,-348.8872"/>
</g>
<!-- Node5&#45;&gt;Node11 -->
<g id="edge49" class="edge">
<title>Node5&#45;&gt;Node11</title>
<path fill="none" stroke="#191970" d="M953.3423,-354.786C1053.5424,-350.621 1234.7436,-339.3318 1293,-311 1330.0243,-292.994 1358,-286.1705 1358,-245 1358,-245 1358,-245 1358,-189 1358,-125.7895 1278.7971,-90.8394 1231.1516,-75.5333"/>
<polygon fill="#191970" stroke="#191970" points="953.1644,-351.2903 943.3136,-355.1904 953.4465,-358.2846 953.1644,-351.2903"/>
</g>
<!-- Node15 -->
<g id="node15" class="node">
<title>Node15</title>
<g id="a_node15"><a xlink:href="run_8cpp.html" target="_top" xlink:title="Implémentation de la classe Altair agent de la classe MainWindow qui construit l&#39;interface graphique...">
<polygon fill="#ffffff" stroke="#000000" points="541,-.5 541,-19.5 647,-19.5 647,-.5 541,-.5"/>
<text text-anchor="middle" x="594" y="-7.5" font-family="Helvetica,sans-Serif" font-size="10.00" fill="#000000">Interface/gui/run.cpp</text>
</a>
</g>
</g>
<!-- Node5&#45;&gt;Node15 -->
<g id="edge51" class="edge">
<title>Node5&#45;&gt;Node15</title>
<path fill="none" stroke="#191970" d="M819.6687,-345.4641C777.6676,-336.9817 727.9028,-324.6008 711,-311 681.421,-287.1994 703.5154,-256.1699 672,-235 594.9746,-183.2596 318.7202,-267.3824 256,-199 164.7706,-99.5348 424.4707,-39.8435 540.8171,-18.7113"/>
<polygon fill="#191970" stroke="#191970" points="819.1107,-348.9214 829.5997,-347.4276 820.4685,-342.0543 819.1107,-348.9214"/>
</g>
<!-- Node20 -->
<g id="node20" class="node">
<title>Node20</title>
<g id="a_node20"><a xlink:href="tools_8h.html" target="_top" xlink:title="fwidgets_lib/tools.h">
<polygon fill="#ffffff" stroke="#000000" points="913.5,-291.5 913.5,-310.5 1014.5,-310.5 1014.5,-291.5 913.5,-291.5"/>
<text text-anchor="middle" x="964" y="-298.5" font-family="Helvetica,sans-Serif" font-size="10.00" fill="#000000">fwidgets_lib/tools.h</text>
</a>
</g>
</g>
<!-- Node5&#45;&gt;Node20 -->
<g id="edge25" class="edge">
<title>Node5&#45;&gt;Node20</title>
<path fill="none" stroke="#191970" d="M907.2756,-341.2097C921.1505,-331.3743 938.5515,-319.0394 950.3969,-310.6427"/>
<polygon fill="#191970" stroke="#191970" points="904.8949,-338.6071 898.7607,-347.2455 908.9431,-344.3178 904.8949,-338.6071"/>
</g>
<!-- Node5&#45;&gt;Node21 -->
<g id="edge45" class="edge">
<title>Node5&#45;&gt;Node21</title>
<path fill="none" stroke="#191970" d="M883.4059,-337.2192C881.3577,-323.0182 876.6799,-304.1433 866,-291 851.7775,-273.4971 829.0914,-261.8141 810.451,-254.6027"/>
<polygon fill="#191970" stroke="#191970" points="879.9558,-337.86 884.5493,-347.4072 886.9121,-337.0792 879.9558,-337.86"/>
</g>
<!-- Node22 -->
<g id="node22" class="node">
<title>Node22</title>
<g id="a_node22"><a xlink:href="fwidgets_8cpp.html" target="_top" xlink:title="fwidgets_lib/fwidgets.cpp">
<polygon fill="#ffffff" stroke="#000000" points="902.5,-179.5 902.5,-198.5 1029.5,-198.5 1029.5,-179.5 902.5,-179.5"/>
<text text-anchor="middle" x="966" y="-186.5" font-family="Helvetica,sans-Serif" font-size="10.00" fill="#000000">fwidgets_lib/fwidgets.cpp</text>
</a>
</g>
</g>
<!-- Node5&#45;&gt;Node22 -->
<g id="edge46" class="edge">
<title>Node5&#45;&gt;Node22</title>
<path fill="none" stroke="#191970" d="M927.2692,-344.468C1001.6193,-322.0009 1149.2788,-275.3209 1163,-255 1167.9742,-247.6332 1168.5248,-241.9634 1163,-235 1154.1592,-223.857 1077.6185,-208.3961 1022.601,-198.5443"/>
<polygon fill="#191970" stroke="#191970" points="925.8534,-341.2389 917.2862,-347.4722 927.8706,-347.942 925.8534,-341.2389"/>
</g>
<!-- Node27 -->
<g id="node27" class="node">
<title>Node27</title>
<g id="a_node27"><a xlink:href="common_8h.html" target="_top" xlink:title="Code de la classe common, qui regroupe des utilitaires communs à l&#39;interface graphique MainWindow...">
<polygon fill="#ffffff" stroke="#000000" points="1210.5,-235.5 1210.5,-254.5 1329.5,-254.5 1329.5,-235.5 1210.5,-235.5"/>
<text text-anchor="middle" x="1270" y="-242.5" font-family="Helvetica,sans-Serif" font-size="10.00" fill="#000000">Interface/gui/common.h</text>
</a>
</g>
</g>
<!-- Node5&#45;&gt;Node27 -->
<g id="edge48" class="edge">
<title>Node5&#45;&gt;Node27</title>
<path fill="none" stroke="#191970" d="M953.2252,-353.824C1059.5788,-348.1658 1254.9624,-334.6577 1276,-311 1289.7621,-295.5239 1281.205,-269.1817 1274.9112,-254.905"/>
<polygon fill="#191970" stroke="#191970" points="953.0232,-350.3297 943.2197,-354.3472 953.3888,-357.3202 953.0232,-350.3297"/>
</g>
<!-- Node29 -->
<g id="node29" class="node">
<title>Node29</title>
<g id="a_node29"><a xlink:href="moc__fwidgets_8cpp.html" target="_top" xlink:title="fwidgets_lib/moc_fwidgets.cpp">
<polygon fill="#ffffff" stroke="#000000" points="1115.5,-291.5 1115.5,-310.5 1266.5,-310.5 1266.5,-291.5 1115.5,-291.5"/>
<text text-anchor="middle" x="1191" y="-298.5" font-family="Helvetica,sans-Serif" font-size="10.00" fill="#000000">fwidgets_lib/moc_fwidgets.cpp</text>
</a>
</g>
</g>
<!-- Node5&#45;&gt;Node29 -->
<g id="edge47" class="edge">
<title>Node5&#45;&gt;Node29</title>
<path fill="none" stroke="#191970" d="M947.1311,-345.6296C1003.5768,-335.2997 1085.8993,-320.2341 1138.9599,-310.5237"/>
<polygon fill="#191970" stroke="#191970" points="946.4621,-342.1938 937.2556,-347.4369 947.7223,-349.0795 946.4621,-342.1938"/>
</g>
<!-- Node30 -->
<g id="node30" class="node">
<title>Node30</title>
<g id="a_node30"><a xlink:href="highlighter_8cpp.html" target="_top" xlink:title="Implémentation de la classe Highlighter qui sert à coloriser le code XML des projets ...">
<polygon fill="#ffffff" stroke="#000000" points="719.5,-291.5 719.5,-310.5 856.5,-310.5 856.5,-291.5 719.5,-291.5"/>
<text text-anchor="middle" x="788" y="-298.5" font-family="Helvetica,sans-Serif" font-size="10.00" fill="#000000">Interface/gui/highlighter.cpp</text>
</a>
</g>
</g>
<!-- Node5&#45;&gt;Node30 -->
<g id="edge50" class="edge">
<title>Node5&#45;&gt;Node30</title>
<path fill="none" stroke="#191970" d="M859.0984,-342.0465C841.8391,-332.0824 819.6624,-319.2794 804.7025,-310.6427"/>
<polygon fill="#191970" stroke="#191970" points="857.6936,-345.2768 868.1039,-347.2455 861.1935,-339.2146 857.6936,-345.2768"/>
</g>
<!-- Node6&#45;&gt;Node7 -->
<g id="edge6" class="edge">
<title>Node6&#45;&gt;Node7</title>
<path fill="none" stroke="#191970" d="M375.8321,-286.8368C396.4395,-276.7139 423.6082,-263.3679 441.6584,-254.5011"/>
<polygon fill="#191970" stroke="#191970" points="374.0297,-283.8227 366.5973,-291.3733 377.116,-290.1056 374.0297,-283.8227"/>
</g>
<!-- Node8 -->
<g id="node8" class="node">
<title>Node8</title>
<g id="a_node8"><a xlink:href="moc__flineframe_8cpp.html" target="_top" xlink:title="fwidgets_lib/moc_flineframe.cpp">
<polygon fill="#ffffff" stroke="#000000" points="142.5,-235.5 142.5,-254.5 299.5,-254.5 299.5,-235.5 142.5,-235.5"/>
<text text-anchor="middle" x="221" y="-242.5" font-family="Helvetica,sans-Serif" font-size="10.00" fill="#000000">fwidgets_lib/moc_flineframe.cpp</text>
</a>
</g>
</g>
<!-- Node6&#45;&gt;Node8 -->
<g id="edge7" class="edge">
<title>Node6&#45;&gt;Node8</title>
<path fill="none" stroke="#191970" d="M316.0564,-287.2473C293.1735,-277.0771 262.5986,-263.4883 242.3775,-254.5011"/>
<polygon fill="#191970" stroke="#191970" points="314.7802,-290.5102 325.3398,-291.3733 317.6232,-284.1135 314.7802,-290.5102"/>
</g>
<!-- Node9 -->
<g id="node9" class="node">
<title>Node9</title>
<g id="a_node9"><a xlink:href="options_8h.html" target="_top" xlink:title="Code des classes du dialogue d&#39;options. ">
<polygon fill="#ffffff" stroke="#000000" points="732.5,-179.5 732.5,-198.5 845.5,-198.5 845.5,-179.5 732.5,-179.5"/>
<text text-anchor="middle" x="789" y="-186.5" font-family="Helvetica,sans-Serif" font-size="10.00" fill="#000000">Interface/gui/options.h</text>
</a>
</g>
</g>
<!-- Node6&#45;&gt;Node9 -->
<g id="edge8" class="edge">
<title>Node6&#45;&gt;Node9</title>
<path fill="none" stroke="#191970" d="M352.657,-281.8357C358.2576,-266.4815 368.4346,-245.7845 385,-235 448.4882,-193.6676 648.8747,-208.7624 724,-199 726.7174,-198.6469 729.4965,-198.2721 732.3019,-197.8828"/>
<polygon fill="#191970" stroke="#191970" points="349.3029,-280.8311 349.4886,-291.4243 355.9494,-283.0274 349.3029,-280.8311"/>
</g>
<!-- Node6&#45;&gt;Node14 -->
<g id="edge24" class="edge">
<title>Node6&#45;&gt;Node14</title>
<path fill="none" stroke="#191970" d="M275.9844,-290.7108C223.403,-282.1749 156.9158,-269.1765 133,-255 99.659,-235.2365 76,-227.7585 76,-189 76,-189 76,-189 76,-127.5 76,-87.5174 76,-39.8818 76,-19.7489"/>
<polygon fill="#191970" stroke="#191970" points="275.5355,-294.1833 285.9625,-292.3046 276.6398,-287.271 275.5355,-294.1833"/>
</g>
<!-- Node18 -->
<g id="node18" class="node">
<title>Node18</title>
<g id="a_node18"><a xlink:href="matricules_8h.html" target="_top" xlink:title="Code de la classe MatriculeInput, qui construit un dialogue d&#39;extraction des bulletins. ">
<polygon fill="#ffffff" stroke="#000000" points="587.5,-179.5 587.5,-198.5 714.5,-198.5 714.5,-179.5 587.5,-179.5"/>
<text text-anchor="middle" x="651" y="-186.5" font-family="Helvetica,sans-Serif" font-size="10.00" fill="#000000">Interface/gui/matricules.h</text>
</a>
</g>
</g>
<!-- Node6&#45;&gt;Node18 -->
<g id="edge20" class="edge">
<title>Node6&#45;&gt;Node18</title>
<path fill="none" stroke="#191970" d="M342.6219,-281.4411C340.5797,-266.7853 340.6781,-247.2296 352,-235 355.9917,-230.6883 500.5844,-209.9165 587.2048,-197.8111"/>
<polygon fill="#191970" stroke="#191970" points="339.2168,-282.279 344.4503,-291.4909 346.1037,-281.0259 339.2168,-282.279"/>
</g>
<!-- Node10 -->
<g id="node10" class="node">
<title>Node10</title>
<g id="a_node10"><a xlink:href="altair-gui_8h.html" target="_top" xlink:title="Code de la classe MainWindow qui construit l&#39;interface graphique. ">
<polygon fill="#ffffff" stroke="#000000" points="967.5,-112.5 967.5,-142.5 1062.5,-142.5 1062.5,-112.5 967.5,-112.5"/>
<text text-anchor="start" x="975.5" y="-130.5" font-family="Helvetica,sans-Serif" font-size="10.00" fill="#000000">Interface/gui/altair</text>
<text text-anchor="middle" x="1015" y="-119.5" font-family="Helvetica,sans-Serif" font-size="10.00" fill="#000000">&#45;gui.h</text>
</a>
</g>
</g>
<!-- Node9&#45;&gt;Node10 -->
<g id="edge9" class="edge">
<title>Node9&#45;&gt;Node10</title>
<path fill="none" stroke="#191970" d="M834.2305,-176.6917C872.8065,-166.1943 928.0922,-151.1497 967.3474,-140.4674"/>
<polygon fill="#191970" stroke="#191970" points="833.0426,-173.3876 824.3125,-179.3906 834.8807,-180.142 833.0426,-173.3876"/>
</g>
<!-- Node9&#45;&gt;Node12 -->
<g id="edge18" class="edge">
<title>Node9&#45;&gt;Node12</title>
<path fill="none" stroke="#191970" d="M855.8592,-181.7001C913.6697,-174.5441 999.1709,-161.9304 1072,-143 1156.6359,-121.0007 1178.7639,-115.0682 1257,-76 1290.732,-59.1555 1326.9612,-33.3692 1345.4994,-19.5431"/>
<polygon fill="#191970" stroke="#191970" points="855.2581,-178.2473 845.7544,-182.9302 856.1041,-185.196 855.2581,-178.2473"/>
</g>
<!-- Node9&#45;&gt;Node14 -->
<g id="edge19" class="edge">
<title>Node9&#45;&gt;Node14</title>
<path fill="none" stroke="#191970" d="M779.7757,-170.2585C769.8477,-152.2156 752.2919,-125.7067 729,-112 629.2444,-53.2963 281.1559,-23.7696 138.106,-13.8916"/>
<polygon fill="#191970" stroke="#191970" points="776.7569,-172.0387 784.4944,-179.2762 782.9591,-168.7932 776.7569,-172.0387"/>
</g>
<!-- Node10&#45;&gt;Node11 -->
<g id="edge10" class="edge">
<title>Node10&#45;&gt;Node11</title>
<path fill="none" stroke="#191970" d="M1062.8637,-109.1169C1094.4152,-98.0695 1134.847,-84.4666 1162.9044,-75.5303"/>
<polygon fill="#191970" stroke="#191970" points="1061.6508,-105.8333 1053.3805,-112.4554 1063.9753,-112.4361 1061.6508,-105.8333"/>
</g>
<!-- Node17 -->
<g id="node17" class="node">
<title>Node17</title>
<g id="a_node17"><a xlink:href="_interface_2gui_2main_8cpp.html" target="_top" xlink:title="Lance l&#39;interface graphique en chargeant le bon contexte linguistique et la feuille de style...">
<polygon fill="#ffffff" stroke="#000000" points="954.5,-56.5 954.5,-75.5 1067.5,-75.5 1067.5,-56.5 954.5,-56.5"/>
<text text-anchor="middle" x="1011" y="-63.5" font-family="Helvetica,sans-Serif" font-size="10.00" fill="#000000">Interface/gui/main.cpp</text>
</a>
</g>
</g>
<!-- Node10&#45;&gt;Node17 -->
<g id="edge17" class="edge">
<title>Node10&#45;&gt;Node17</title>
<path fill="none" stroke="#191970" d="M1013.36,-102.2849C1012.7552,-92.9858 1012.1049,-82.9883 1011.6405,-75.8469"/>
<polygon fill="#191970" stroke="#191970" points="1009.8695,-102.546 1014.0112,-112.2977 1016.8547,-102.0916 1009.8695,-102.546"/>
</g>
<!-- Node11&#45;&gt;Node10 -->
<g id="edge11" class="edge">
<title>Node11&#45;&gt;Node10</title>
<path fill="none" stroke="#191970" d="M1163.0866,-79.1011C1135.0035,-89.1257 1094.4178,-102.9336 1062.7808,-113.2361"/>
<polygon fill="#191970" stroke="#191970" points="1164.6054,-82.2742 1172.8276,-75.5925 1162.2332,-75.6884 1164.6054,-82.2742"/>
</g>
<!-- Node11&#45;&gt;Node12 -->
<g id="edge12" class="edge">
<title>Node11&#45;&gt;Node12</title>
<path fill="none" stroke="#191970" d="M1233.4422,-53.057C1263.0901,-42.8084 1303.8196,-28.729 1330.5146,-19.5011"/>
<polygon fill="#191970" stroke="#191970" points="1232.1565,-49.7982 1223.8488,-56.3733 1234.4436,-56.414 1232.1565,-49.7982"/>
</g>
<!-- Node13 -->
<g id="node13" class="node">
<title>Node13</title>
<g id="a_node13"><a xlink:href="mainwindow_8cpp.html" target="_top" xlink:title="Code de l&#39;implémentation de la classe MainWindow de l&#39;interface graphique. ">
<polygon fill="#ffffff" stroke="#000000" points="984,-.5 984,-19.5 1130,-19.5 1130,-.5 984,-.5"/>
<text text-anchor="middle" x="1057" y="-7.5" font-family="Helvetica,sans-Serif" font-size="10.00" fill="#000000">Interface/gui/mainwindow.cpp</text>
</a>
</g>
</g>
<!-- Node11&#45;&gt;Node13 -->
<g id="edge13" class="edge">
<title>Node11&#45;&gt;Node13</title>
<path fill="none" stroke="#191970" d="M1162.5379,-52.5189C1137.2231,-42.3201 1103.0897,-28.5685 1080.5831,-19.5011"/>
<polygon fill="#191970" stroke="#191970" points="1161.5216,-55.8827 1172.105,-56.3733 1164.1374,-49.3899 1161.5216,-55.8827"/>
</g>
<!-- Node11&#45;&gt;Node14 -->
<g id="edge14" class="edge">
<title>Node11&#45;&gt;Node14</title>
<path fill="none" stroke="#191970" d="M1134.4425,-60.3795C1115.9823,-58.8148 1095.6782,-57.2135 1077,-56 721.9837,-32.9345 295.3969,-17.3659 138.1299,-12.0355"/>
<polygon fill="#191970" stroke="#191970" points="1134.2235,-63.8735 1144.4864,-61.2422 1134.8226,-56.8991 1134.2235,-63.8735"/>
</g>
<!-- Node11&#45;&gt;Node15 -->
<g id="edge15" class="edge">
<title>Node11&#45;&gt;Node15</title>
<path fill="none" stroke="#191970" d="M1134.428,-60.2724C1016.0941,-49.2646 758.7758,-25.328 647.286,-14.9568"/>
<polygon fill="#191970" stroke="#191970" points="1134.1324,-63.7599 1144.4136,-61.2013 1134.7808,-56.79 1134.1324,-63.7599"/>
</g>
<!-- Node16 -->
<g id="node16" class="node">
<title>Node16</title>
<g id="a_node16"><a xlink:href="xmlparser_8cpp.html" target="_top" xlink:title="Implémentation de la classe Altair agent de la classe MainWindow qui construit l&#39;interface graphique...">
<polygon fill="#ffffff" stroke="#000000" points="1148.5,-.5 1148.5,-19.5 1283.5,-19.5 1283.5,-.5 1148.5,-.5"/>
<text text-anchor="middle" x="1216" y="-7.5" font-family="Helvetica,sans-Serif" font-size="10.00" fill="#000000">Interface/gui/xmlparser.cpp</text>
</a>
</g>
</g>
<!-- Node11&#45;&gt;Node16 -->
<g id="edge16" class="edge">
<title>Node11&#45;&gt;Node16</title>
<path fill="none" stroke="#191970" d="M1202.8753,-46.7493C1206.1406,-37.6064 1209.9001,-27.0798 1212.5562,-19.6427"/>
<polygon fill="#191970" stroke="#191970" points="1199.5511,-45.6509 1199.4837,-56.2455 1206.1433,-48.0053 1199.5511,-45.6509"/>
</g>
<!-- Node18&#45;&gt;Node10 -->
<g id="edge21" class="edge">
<title>Node18&#45;&gt;Node10</title>
<path fill="none" stroke="#191970" d="M717.391,-177.7828C789.6814,-165.5689 903.4964,-146.3392 967.394,-135.5433"/>
<polygon fill="#191970" stroke="#191970" points="716.7528,-174.341 707.4756,-179.4581 717.919,-181.2432 716.7528,-174.341"/>
</g>
<!-- Node18&#45;&gt;Node13 -->
<g id="edge22" class="edge">
<title>Node18&#45;&gt;Node13</title>
<path fill="none" stroke="#191970" d="M680.829,-175.1865C733.9264,-150.6794 848.4301,-98.2 946,-56 975.8678,-43.0819 1010.5527,-28.8262 1033.0929,-19.6601"/>
<polygon fill="#191970" stroke="#191970" points="679.2574,-172.057 671.6471,-179.4282 682.193,-178.4117 679.2574,-172.057"/>
</g>
<!-- Node19 -->
<g id="node19" class="node">
<title>Node19</title>
<g id="a_node19"><a xlink:href="matricules_8cpp.html" target="_top" xlink:title="Implémentation de la classe MatriculeInput, qui construit un dialogue d&#39;extraction des bulletins...">
<polygon fill="#ffffff" stroke="#000000" points="582.5,-118 582.5,-137 719.5,-137 719.5,-118 582.5,-118"/>
<text text-anchor="middle" x="651" y="-125" font-family="Helvetica,sans-Serif" font-size="10.00" fill="#000000">Interface/gui/matricules.cpp</text>
</a>
</g>
</g>
<!-- Node18&#45;&gt;Node19 -->
<g id="edge23" class="edge">
<title>Node18&#45;&gt;Node19</title>
<path fill="none" stroke="#191970" d="M651,-169.2462C651,-158.5519 651,-145.814 651,-137.2449"/>
<polygon fill="#191970" stroke="#191970" points="647.5001,-169.3906 651,-179.3906 654.5001,-169.3907 647.5001,-169.3906"/>
</g>
<!-- Node20&#45;&gt;Node7 -->
<g id="edge26" class="edge">
<title>Node20&#45;&gt;Node7</title>
<path fill="none" stroke="#191970" d="M903.1136,-294.6498C802.4376,-284.1172 605.4925,-263.3659 536,-255 533.2612,-254.6703 530.4671,-254.3274 527.6451,-253.9757"/>
<polygon fill="#191970" stroke="#191970" points="902.8268,-298.1389 913.1366,-295.698 903.5549,-291.1768 902.8268,-298.1389"/>
</g>
<!-- Node20&#45;&gt;Node21 -->
<g id="edge27" class="edge">
<title>Node20&#45;&gt;Node21</title>
<path fill="none" stroke="#191970" d="M922.5603,-288.4561C888.6009,-278.1765 841.2703,-263.8494 810.3876,-254.5011"/>
<polygon fill="#191970" stroke="#191970" points="921.6122,-291.8259 932.1974,-291.3733 923.6403,-285.1261 921.6122,-291.8259"/>
</g>
<!-- Node20&#45;&gt;Node22 -->
<g id="edge33" class="edge">
<title>Node20&#45;&gt;Node22</title>
<path fill="none" stroke="#191970" d="M926.9691,-287.486C901.3868,-275.8578 874.1045,-257.4311 887,-235 897.204,-217.2506 917.1841,-205.7088 934.4968,-198.6256"/>
<polygon fill="#191970" stroke="#191970" points="925.6694,-290.7368 936.2397,-291.4573 928.4258,-284.3024 925.6694,-290.7368"/>
</g>
<!-- Node20&#45;&gt;Node24 -->
<g id="edge32" class="edge">
<title>Node20&#45;&gt;Node24</title>
<path fill="none" stroke="#191970" d="M903.1779,-291.5388C836.0711,-281.0999 728.829,-264.4178 662.6171,-254.1182"/>
<polygon fill="#191970" stroke="#191970" points="902.7652,-295.0166 913.1843,-293.0953 903.8412,-288.0998 902.7652,-295.0166"/>
</g>
<!-- Node25 -->
<g id="node25" class="node">
<title>Node25</title>
<g id="a_node25"><a xlink:href="gui__options_8h.html" target="_top" xlink:title="fwidgets_lib/gui_options.h">
<polygon fill="#ffffff" stroke="#000000" points="1024.5,-235.5 1024.5,-254.5 1153.5,-254.5 1153.5,-235.5 1024.5,-235.5"/>
<text text-anchor="middle" x="1089" y="-242.5" font-family="Helvetica,sans-Serif" font-size="10.00" fill="#000000">fwidgets_lib/gui_options.h</text>
</a>
</g>
</g>
<!-- Node20&#45;&gt;Node25 -->
<g id="edge34" class="edge">
<title>Node20&#45;&gt;Node25</title>
<path fill="none" stroke="#191970" d="M994.698,-287.2473C1017.3993,-277.0771 1047.7315,-263.4883 1067.7921,-254.5011"/>
<polygon fill="#191970" stroke="#191970" points="993.1833,-284.0906 985.4883,-291.3733 996.0453,-290.4789 993.1833,-284.0906"/>
</g>
<!-- Node26 -->
<g id="node26" class="node">
<title>Node26</title>
<g id="a_node26"><a xlink:href="tools_8cpp.html" target="_top" xlink:title="fwidgets_lib/tools.cpp">
<polygon fill="#ffffff" stroke="#000000" points="895.5,-235.5 895.5,-254.5 1006.5,-254.5 1006.5,-235.5 895.5,-235.5"/>
<text text-anchor="middle" x="951" y="-242.5" font-family="Helvetica,sans-Serif" font-size="10.00" fill="#000000">fwidgets_lib/tools.cpp</text>
</a>
</g>
</g>
<!-- Node20&#45;&gt;Node26 -->
<g id="edge35" class="edge">
<title>Node20&#45;&gt;Node26</title>
<path fill="none" stroke="#191970" d="M959.4625,-281.4538C957.3561,-272.3803 954.9464,-261.9998 953.2385,-254.6427"/>
<polygon fill="#191970" stroke="#191970" points="956.0649,-282.2961 961.7356,-291.2455 962.8835,-280.7131 956.0649,-282.2961"/>
</g>
<!-- Node20&#45;&gt;Node27 -->
<g id="edge36" class="edge">
<title>Node20&#45;&gt;Node27</title>
<path fill="none" stroke="#191970" d="M1024.3933,-289.9476C1080.8404,-279.6174 1164.2468,-264.3535 1217.8583,-254.5423"/>
<polygon fill="#191970" stroke="#191970" points="1023.7362,-286.5097 1014.5297,-291.7527 1024.9964,-293.3953 1023.7362,-286.5097"/>
</g>
<!-- Node21&#45;&gt;Node4 -->
<g id="edge28" class="edge">
<title>Node21&#45;&gt;Node4</title>
<path fill="none" stroke="#191970" d="M708.831,-235.4911C707.5438,-235.3253 706.2659,-235.1615 705,-235 571.7895,-218.0076 538.2105,-215.9924 405,-199 402.2994,-198.6555 399.544,-198.3003 396.7608,-197.9383"/>
<polygon fill="#191970" stroke="#191970" points="708.4663,-238.9731 718.8344,-236.7933 709.3699,-232.0316 708.4663,-238.9731"/>
</g>
<!-- Node21&#45;&gt;Node11 -->
<g id="edge31" class="edge">
<title>Node21&#45;&gt;Node11</title>
<path fill="none" stroke="#191970" d="M803.954,-230.1098C834.8698,-211.7519 884.6293,-182.5302 894,-179 969.5308,-150.5453 996.9739,-172.7599 1072,-143 1116.2839,-125.4343 1162.3998,-92.1416 1183.7744,-75.6942"/>
<polygon fill="#191970" stroke="#191970" points="801.8353,-227.2976 795.03,-235.4179 805.4138,-233.3138 801.8353,-227.2976"/>
</g>
<!-- Node21&#45;&gt;Node22 -->
<g id="edge29" class="edge">
<title>Node21&#45;&gt;Node22</title>
<path fill="none" stroke="#191970" d="M820.8877,-232.4561C855.2143,-222.1765 903.0565,-207.8494 934.273,-198.5011"/>
<polygon fill="#191970" stroke="#191970" points="819.722,-229.1515 811.1464,-235.3733 821.7302,-235.8573 819.722,-229.1515"/>
</g>
<!-- Node23 -->
<g id="node23" class="node">
<title>Node23</title>
<g id="a_node23"><a xlink:href="moc__flistframe_8cpp.html" target="_top" xlink:title="fwidgets_lib/moc_flistframe.cpp">
<polygon fill="#ffffff" stroke="#000000" points="414.5,-179.5 414.5,-198.5 569.5,-198.5 569.5,-179.5 414.5,-179.5"/>
<text text-anchor="middle" x="492" y="-186.5" font-family="Helvetica,sans-Serif" font-size="10.00" fill="#000000">fwidgets_lib/moc_flistframe.cpp</text>
</a>
</g>
</g>
<!-- Node21&#45;&gt;Node23 -->
<g id="edge30" class="edge">
<title>Node21&#45;&gt;Node23</title>
<path fill="none" stroke="#191970" d="M720.0679,-233.501C667.1468,-223.175 590.3687,-208.1939 540.8088,-198.5237"/>
<polygon fill="#191970" stroke="#191970" points="719.5038,-236.9569 729.989,-235.4369 720.8444,-230.0865 719.5038,-236.9569"/>
</g>
<!-- Node27&#45;&gt;Node9 -->
<g id="edge37" class="edge">
<title>Node27&#45;&gt;Node9</title>
<path fill="none" stroke="#191970" d="M1199.8752,-236.8358C1103.9864,-225.672 933.8174,-205.8602 845.5829,-195.5876"/>
<polygon fill="#191970" stroke="#191970" points="1199.7159,-240.3408 1210.0536,-238.0208 1200.5254,-233.3878 1199.7159,-240.3408"/>
</g>
<!-- Node27&#45;&gt;Node10 -->
<g id="edge38" class="edge">
<title>Node27&#45;&gt;Node10</title>
<path fill="none" stroke="#191970" d="M1206.7979,-233.5513C1160.8191,-224.4785 1103.081,-211.3212 1082,-199 1057.6198,-184.7505 1036.6861,-158.9171 1024.9804,-142.5142"/>
<polygon fill="#191970" stroke="#191970" points="1206.2255,-237.0055 1216.71,-235.4806 1207.5629,-230.1344 1206.2255,-237.0055"/>
</g>
<!-- Node27&#45;&gt;Node11 -->
<g id="edge39" class="edge">
<title>Node27&#45;&gt;Node11</title>
<path fill="none" stroke="#191970" d="M1270.0827,-224.9305C1269.6061,-211.603 1267.9404,-193.8868 1263,-179 1249.1354,-137.2226 1218.0949,-94.2113 1203.6568,-75.5719"/>
<polygon fill="#191970" stroke="#191970" points="1266.5894,-225.3882 1270.2478,-235.3313 1273.5885,-225.277 1266.5894,-225.3882"/>
</g>
<!-- Node27&#45;&gt;Node13 -->
<g id="edge42" class="edge">
<title>Node27&#45;&gt;Node13</title>
<path fill="none" stroke="#191970" d="M1209.1633,-233.3203C1171.7067,-224.955 1128.3774,-212.7678 1115,-199 1069.1733,-151.8359 1098.6159,-118.1071 1077,-56 1072.5346,-43.1699 1066.0846,-28.895 1061.727,-19.7004"/>
<polygon fill="#191970" stroke="#191970" points="1208.523,-236.7628 1219.0387,-235.4698 1210.0119,-229.923 1208.523,-236.7628"/>
</g>
<!-- Node27&#45;&gt;Node16 -->
<g id="edge43" class="edge">
<title>Node27&#45;&gt;Node16</title>
<path fill="none" stroke="#191970" d="M1274.732,-225.2549C1276.4421,-217.1687 1278.1582,-207.6868 1279,-199 1284.2297,-145.0341 1258.7747,-59.6506 1257,-56 1249.9842,-41.5681 1237.1138,-28.2557 1227.6584,-19.7058"/>
<polygon fill="#191970" stroke="#191970" points="1271.2726,-224.6854 1272.4865,-235.2105 1278.101,-226.2257 1271.2726,-224.6854"/>
</g>
<!-- Node27&#45;&gt;Node18 -->
<g id="edge40" class="edge">
<title>Node27&#45;&gt;Node18</title>
<path fill="none" stroke="#191970" d="M1200.052,-238.3475C1187.709,-237.2065 1174.9792,-236.0509 1163,-235 967.983,-217.8915 918.6047,-220.2924 724,-199 720.9481,-198.6661 717.8269,-198.3069 714.6761,-197.9301"/>
<polygon fill="#191970" stroke="#191970" points="1200.0233,-241.8598 1210.3042,-239.2999 1200.6708,-234.8898 1200.0233,-241.8598"/>
</g>
<!-- Node28 -->
<g id="node28" class="node">
<title>Node28</title>
<g id="a_node28"><a xlink:href="common_8cpp.html" target="_top" xlink:title="Interface/gui/common.cpp">
<polygon fill="#ffffff" stroke="#000000" points="1124,-179.5 1124,-198.5 1254,-198.5 1254,-179.5 1124,-179.5"/>
<text text-anchor="middle" x="1189" y="-186.5" font-family="Helvetica,sans-Serif" font-size="10.00" fill="#000000">Interface/gui/common.cpp</text>
</a>
</g>
</g>
<!-- Node27&#45;&gt;Node28 -->
<g id="edge41" class="edge">
<title>Node27&#45;&gt;Node28</title>
<path fill="none" stroke="#191970" d="M1247.566,-229.49C1233.2746,-219.6096 1215.2084,-207.1194 1202.9474,-198.6427"/>
<polygon fill="#191970" stroke="#191970" points="1245.6749,-232.4376 1255.8909,-235.2455 1249.6557,-226.6797 1245.6749,-232.4376"/>
</g>
<!-- Node31&#45;&gt;Node14 -->
<g id="edge62" class="edge">
<title>Node31&#45;&gt;Node14</title>
<path fill="none" stroke="#191970" d="M56.1787,-398.5613C43.0689,-390.85 28.5211,-380.2043 19,-367 1.147,-342.2407 0,-331.5246 0,-301 0,-301 0,-301 0,-127.5 0,-93.9798 5.4847,-83.9426 24,-56 33.8534,-41.1296 49.6937,-28.0786 61.3053,-19.7134"/>
<polygon fill="#191970" stroke="#191970" points="54.5033,-401.6343 64.9455,-403.4265 57.9,-395.5137 54.5033,-401.6343"/>
</g>
<!-- Node32 -->
<g id="node32" class="node">
<title>Node32</title>
<g id="a_node32"><a xlink:href="forms_8cpp.html" target="_top" xlink:title="fwidgets_lib/forms.cpp">
<polygon fill="#ffffff" stroke="#000000" points="28.5,-347.5 28.5,-366.5 143.5,-366.5 143.5,-347.5 28.5,-347.5"/>
<text text-anchor="middle" x="86" y="-354.5" font-family="Helvetica,sans-Serif" font-size="10.00" fill="#000000">fwidgets_lib/forms.cpp</text>
</a>
</g>
</g>
<!-- Node31&#45;&gt;Node32 -->
<g id="edge61" class="edge">
<title>Node31&#45;&gt;Node32</title>
<path fill="none" stroke="#191970" d="M86,-393.1575C86,-384.155 86,-373.9199 86,-366.6427"/>
<polygon fill="#191970" stroke="#191970" points="82.5001,-393.2455 86,-403.2455 89.5001,-393.2456 82.5001,-393.2455"/>
</g>
</g>
</svg>
        <g id="navigator" transform="translate(0 0)" fill="#404254">
                <rect fill="#f2f5e9" fill-opacity="0.5" stroke="#606060" stroke-width=".5" x="0" y="0" width="60" height="60"/>
                <use id="zoomplus" xlink:href="#zoomPlus" x="17" y="9" onmousedown="handleZoom(evt,'in')"/>
                <use id="zoomminus" xlink:href="#zoomMin" x="42" y="9" onmousedown="handleZoom(evt,'out')"/>
                <use id="reset" xlink:href="#resetDef" x="30" y="36" onmousedown="handleReset()"/>
                <g id="arrowUp" xlink:href="#dirArrow" transform="translate(30 24)" onmousedown="handlePan(0,-1)">
                  <use xlink:href="#rim" fill="#404040">
                        <set attributeName="fill" to="#808080" begin="arrowUp.mouseover" end="arrowUp.mouseout"/>
                  </use>
                  <path fill="none" stroke="white" stroke-width="1.5" d="M0,-3.0v7 M-2.5,-0.5L0,-3.0L2.5,-0.5"/>
                </g>
                <g id="arrowRight" xlink:href="#dirArrow" transform="rotate(90) translate(36 -43)" onmousedown="handlePan(1,0)">
                  <use xlink:href="#rim" fill="#404040">
                        <set attributeName="fill" to="#808080" begin="arrowRight.mouseover" end="arrowRight.mouseout"/>
                  </use>
                  <path fill="none" stroke="white" stroke-width="1.5" d="M0,-3.0v7 M-2.5,-0.5L0,-3.0L2.5,-0.5"/>
                </g>
                <g id="arrowDown" xlink:href="#dirArrow" transform="rotate(180) translate(-30 -48)" onmousedown="handlePan(0,1)">
                  <use xlink:href="#rim" fill="#404040">
                        <set attributeName="fill" to="#808080" begin="arrowDown.mouseover" end="arrowDown.mouseout"/>
                  </use>
                  <path fill="none" stroke="white" stroke-width="1.5" d="M0,-3.0v7 M-2.5,-0.5L0,-3.0L2.5,-0.5"/>
                </g>
                <g id="arrowLeft" xlink:href="#dirArrow" transform="rotate(270) translate(-36 17)" onmousedown="handlePan(-1,0)">
                  <use xlink:href="#rim" fill="#404040">
                        <set attributeName="fill" to="#808080" begin="arrowLeft.mouseover" end="arrowLeft.mouseout"/>
                  </use>
                  <path fill="none" stroke="white" stroke-width="1.5" d="M0,-3.0v7 M-2.5,-0.5L0,-3.0L2.5,-0.5"/>
                </g>
        </g>
        <svg viewBox="0 0 15 15" width="100%" height="30px" preserveAspectRatio="xMaxYMin meet">
         <g id="arrow_out" transform="scale(0.3 0.3)">
          <a xlink:href="enums_8h__dep__incl_org.svg" target="_base">
           <rect id="button" ry="5" rx="5" y="6" x="6" height="38" width="38"
                fill="#f2f5e9" fill-opacity="0.5" stroke="#606060" stroke-width="1.0"/>
           <path id="arrow"
             d="M 11.500037,31.436501 C 11.940474,20.09759 22.043105,11.32322 32.158766,21.979434 L 37.068811,17.246167 C 37.068811,17.246167 37.088388,32 37.088388,32 L 22.160133,31.978069 C 22.160133,31.978069 26.997745,27.140456 26.997745,27.140456 C 18.528582,18.264221 13.291696,25.230495 11.500037,31.436501 z"
             style="fill:#404040;"/>
          </a>
         </g>
        </svg>
</svg>
