<?xml version="1.0" encoding="UTF-8" standalone="no"?>
<!DOCTYPE svg PUBLIC "-//W3C//DTD SVG 1.1//EN"
 "http://www.w3.org/Graphics/SVG/1.1/DTD/svg11.dtd">
<!-- Generated by graphviz version 2.38.0 (20140413.2041)
 -->
<!-- Title: lhx/expression_reg_commun.h Pages: 1 -->
<svg width="746pt" height="397pt"
 viewBox="0.00 0.00 746.00 397.00" xmlns="http://www.w3.org/2000/svg" xmlns:xlink="http://www.w3.org/1999/xlink">
<g id="graph0" class="graph" transform="scale(1 1) rotate(0) translate(4 393)">
<title>lhx/expression_reg_commun.h</title>
<polygon fill="white" stroke="none" points="-4,4 -4,-393 742,-393 742,4 -4,4"/>
<!-- Node1 -->
<g id="node1" class="node"><title>Node1</title>
<polygon fill="#bfbfbf" stroke="black" points="274,-358.5 274,-388.5 372,-388.5 372,-358.5 274,-358.5"/>
<text text-anchor="start" x="282" y="-376.5" font-family="Helvetica,sans-Serif" font-size="10.00">lhx/expression_reg</text>
<text text-anchor="middle" x="323" y="-365.5" font-family="Helvetica,sans-Serif" font-size="10.00">_commun.h</text>
</g>
<!-- Node2 -->
<g id="node2" class="node"><title>Node2</title>
<g id="a_node2"><a xlink:href="expression__reg__adjoints_8h.html" target="_top" xlink:title="Expressions régulières de niveau adjoints / auxiliaires / aides (catégories C) ">
<polygon fill="white" stroke="black" points="226,-291.5 226,-321.5 324,-321.5 324,-291.5 226,-291.5"/>
<text text-anchor="start" x="234" y="-309.5" font-family="Helvetica,sans-Serif" font-size="10.00">lhx/expression_reg</text>
<text text-anchor="middle" x="275" y="-298.5" font-family="Helvetica,sans-Serif" font-size="10.00">_adjoints.h</text>
</a>
</g>
</g>
<!-- Node1&#45;&gt;Node2 -->
<g id="edge1" class="edge"><title>Node1&#45;&gt;Node2</title>
<path fill="none" stroke="midnightblue" d="M306.501,-350.157C299.501,-340.679 291.555,-329.919 285.395,-321.577"/>
<polygon fill="midnightblue" stroke="midnightblue" points="303.829,-352.431 312.585,-358.396 309.46,-348.272 303.829,-352.431"/>
</g>
<!-- Node15 -->
<g id="node15" class="node"><title>Node15</title>
<g id="a_node15"><a xlink:href="expression__reg__elus_8h.html" target="_top" xlink:title="Expressions régulières représentant les élus. ">
<polygon fill="white" stroke="black" points="332,-224.5 332,-254.5 430,-254.5 430,-224.5 332,-224.5"/>
<text text-anchor="start" x="340" y="-242.5" font-family="Helvetica,sans-Serif" font-size="10.00">lhx/expression_reg</text>
<text text-anchor="middle" x="381" y="-231.5" font-family="Helvetica,sans-Serif" font-size="10.00">_elus.h</text>
</a>
</g>
</g>
<!-- Node1&#45;&gt;Node15 -->
<g id="edge24" class="edge"><title>Node1&#45;&gt;Node15</title>
<path fill="none" stroke="midnightblue" d="M333.275,-349.116C345.329,-321.682 364.924,-277.086 374.838,-254.525"/>
<polygon fill="midnightblue" stroke="midnightblue" points="330.025,-347.811 329.207,-358.374 336.434,-350.626 330.025,-347.811"/>
</g>
<!-- Node3 -->
<g id="node3" class="node"><title>Node3</title>
<g id="a_node3"><a xlink:href="expression__reg__cata_8h.html" target="_top" xlink:title="Ce fichier contient les expressions rationnelles permettant d&#39;identifier les catégories statutaires A...">
<polygon fill="white" stroke="black" points="216,-224.5 216,-254.5 314,-254.5 314,-224.5 216,-224.5"/>
<text text-anchor="start" x="224" y="-242.5" font-family="Helvetica,sans-Serif" font-size="10.00">lhx/expression_reg</text>
<text text-anchor="middle" x="265" y="-231.5" font-family="Helvetica,sans-Serif" font-size="10.00">_cata.h</text>
</a>
</g>
</g>
<!-- Node2&#45;&gt;Node3 -->
<g id="edge2" class="edge"><title>Node2&#45;&gt;Node3</title>
<path fill="none" stroke="midnightblue" d="M271.293,-281.403C269.903,-272.37 268.37,-262.408 267.166,-254.577"/>
<polygon fill="midnightblue" stroke="midnightblue" points="267.85,-282.044 272.83,-291.396 274.769,-280.98 267.85,-282.044"/>
</g>
<!-- Node4 -->
<g id="node4" class="node"><title>Node4</title>
<g id="a_node4"><a xlink:href="validator_8h.html" target="_top" xlink:title="Ce fichier contient notamment la structure info_t qui stocke les données de paye décodées ainsi que l...">
<polygon fill="white" stroke="black" points="284.5,-168.5 284.5,-187.5 361.5,-187.5 361.5,-168.5 284.5,-168.5"/>
<text text-anchor="middle" x="323" y="-175.5" font-family="Helvetica,sans-Serif" font-size="10.00">lhx/validator.h</text>
</a>
</g>
</g>
<!-- Node3&#45;&gt;Node4 -->
<g id="edge3" class="edge"><title>Node3&#45;&gt;Node4</title>
<path fill="none" stroke="midnightblue" d="M285.956,-217.002C295.841,-206.862 307.08,-195.332 314.56,-187.658"/>
<polygon fill="midnightblue" stroke="midnightblue" points="283.219,-214.795 278.745,-224.399 288.232,-219.682 283.219,-214.795"/>
</g>
<!-- Node5 -->
<g id="node5" class="node"><title>Node5</title>
<g id="a_node5"><a xlink:href="fonctions__auxiliaires_8h.html" target="_top" xlink:title="Diverses fonctions auxiliaires en inlining. ">
<polygon fill="white" stroke="black" points="322.5,-112.5 322.5,-131.5 451.5,-131.5 451.5,-112.5 322.5,-112.5"/>
<text text-anchor="middle" x="387" y="-119.5" font-family="Helvetica,sans-Serif" font-size="10.00">lhx/fonctions_auxiliaires.h</text>
</a>
</g>
</g>
<!-- Node4&#45;&gt;Node5 -->
<g id="edge4" class="edge"><title>Node4&#45;&gt;Node5</title>
<path fill="none" stroke="midnightblue" d="M340.991,-161.82C352.458,-152.145 366.913,-139.948 376.53,-131.834"/>
<polygon fill="midnightblue" stroke="midnightblue" points="338.669,-159.2 333.283,-168.324 343.183,-164.55 338.669,-159.2"/>
</g>
<!-- Node8 -->
<g id="node8" class="node"><title>Node8</title>
<g id="a_node8"><a xlink:href="ligne__paye_8cpp.html" target="_top" xlink:title="Ce fichier contient le code relatif au traitement individuel des lignes de paye. ">
<polygon fill="white" stroke="black" points="0,-0.5 0,-19.5 98,-19.5 98,-0.5 0,-0.5"/>
<text text-anchor="middle" x="49" y="-7.5" font-family="Helvetica,sans-Serif" font-size="10.00">lhx/ligne_paye.cpp</text>
</a>
</g>
</g>
<!-- Node4&#45;&gt;Node8 -->
<g id="edge20" class="edge"><title>Node4&#45;&gt;Node8</title>
<path fill="none" stroke="midnightblue" d="M274.355,-171.486C239.344,-165.78 192.119,-154.392 156,-132 106.903,-101.562 67.5365,-41.7598 54.032,-19.5609"/>
<polygon fill="midnightblue" stroke="midnightblue" points="273.929,-174.961 284.343,-173.015 274.988,-168.042 273.929,-174.961"/>
</g>
<!-- Node9 -->
<g id="node9" class="node"><title>Node9</title>
<g id="a_node9"><a xlink:href="validator_8cpp.html" target="_top" xlink:title="Ce fichier contient le code relatif au décoidage de la partie &quot;bulletins de paye&quot; (variables communes...">
<polygon fill="white" stroke="black" points="134,-0.5 134,-19.5 222,-19.5 222,-0.5 134,-0.5"/>
<text text-anchor="middle" x="178" y="-7.5" font-family="Helvetica,sans-Serif" font-size="10.00">lhx/validator.cpp</text>
</a>
</g>
</g>
<!-- Node4&#45;&gt;Node9 -->
<g id="edge23" class="edge"><title>Node4&#45;&gt;Node9</title>
<path fill="none" stroke="midnightblue" d="M274.573,-167.803C226.971,-155.838 157.203,-129.742 127,-76 114.632,-53.9924 143.375,-31.5226 162.548,-19.6281"/>
<polygon fill="midnightblue" stroke="midnightblue" points="273.832,-171.225 284.372,-170.147 275.46,-164.417 273.832,-171.225"/>
</g>
<!-- Node10 -->
<g id="node10" class="node"><title>Node10</title>
<g id="a_node10"><a xlink:href="lhx_2main_8cpp.html" target="_top" xlink:title="Ce fichier contient le code relatif à l&#39;analyse de la ligne de commande, au découpage de la liste des...">
<polygon fill="white" stroke="black" points="550,-0.5 550,-19.5 622,-19.5 622,-0.5 550,-0.5"/>
<text text-anchor="middle" x="586" y="-7.5" font-family="Helvetica,sans-Serif" font-size="10.00">lhx/main.cpp</text>
</a>
</g>
</g>
<!-- Node4&#45;&gt;Node10 -->
<g id="edge21" class="edge"><title>Node4&#45;&gt;Node10</title>
<path fill="none" stroke="midnightblue" d="M372.127,-174.347C434.145,-168.023 538.355,-146.81 585,-76 596.3,-58.8467 592.038,-33.2301 588.63,-19.8539"/>
<polygon fill="midnightblue" stroke="midnightblue" points="371.442,-170.895 361.807,-175.302 372.087,-177.866 371.442,-170.895"/>
</g>
<!-- Node11 -->
<g id="node11" class="node"><title>Node11</title>
<g id="a_node11"><a xlink:href="recherche_8h.html" target="_top" xlink:title="lhx/recherche.h">
<polygon fill="white" stroke="black" points="649.5,-56.5 649.5,-75.5 732.5,-75.5 732.5,-56.5 649.5,-56.5"/>
<text text-anchor="middle" x="691" y="-63.5" font-family="Helvetica,sans-Serif" font-size="10.00">lhx/recherche.h</text>
</a>
</g>
</g>
<!-- Node4&#45;&gt;Node11 -->
<g id="edge22" class="edge"><title>Node4&#45;&gt;Node11</title>
<path fill="none" stroke="midnightblue" d="M371.974,-174.115C448.108,-168.939 590.713,-156.277 635,-132 659.294,-118.682 677.848,-90.4039 686.178,-75.9348"/>
<polygon fill="midnightblue" stroke="midnightblue" points="371.436,-170.643 361.689,-174.796 371.899,-177.627 371.436,-170.643"/>
</g>
<!-- Node14 -->
<g id="node14" class="node"><title>Node14</title>
<g id="a_node14"><a xlink:href="table_8h.html" target="_top" xlink:title="lhx/table.h">
<polygon fill="white" stroke="black" points="228,-112.5 228,-131.5 290,-131.5 290,-112.5 228,-112.5"/>
<text text-anchor="middle" x="259" y="-119.5" font-family="Helvetica,sans-Serif" font-size="10.00">lhx/table.h</text>
</a>
</g>
</g>
<!-- Node4&#45;&gt;Node14 -->
<g id="edge15" class="edge"><title>Node4&#45;&gt;Node14</title>
<path fill="none" stroke="midnightblue" d="M305.009,-161.82C293.542,-152.145 279.087,-139.948 269.47,-131.834"/>
<polygon fill="midnightblue" stroke="midnightblue" points="302.817,-164.55 312.717,-168.324 307.331,-159.2 302.817,-164.55"/>
</g>
<!-- Node6 -->
<g id="node6" class="node"><title>Node6</title>
<g id="a_node6"><a xlink:href="fonctions__auxiliaires_8cpp.html" target="_top" xlink:title="Ce fichier contient le code relatif aux fonctions auxiliaires utilisées par les fonctions principales...">
<polygon fill="white" stroke="black" points="415,-56.5 415,-75.5 555,-75.5 555,-56.5 415,-56.5"/>
<text text-anchor="middle" x="485" y="-63.5" font-family="Helvetica,sans-Serif" font-size="10.00">lhx/fonctions_auxiliaires.cpp</text>
</a>
</g>
</g>
<!-- Node5&#45;&gt;Node6 -->
<g id="edge5" class="edge"><title>Node5&#45;&gt;Node6</title>
<path fill="none" stroke="midnightblue" d="M411.586,-107.453C429.678,-97.4835 453.735,-84.2279 469.294,-75.6545"/>
<polygon fill="midnightblue" stroke="midnightblue" points="409.815,-104.432 402.745,-112.324 413.193,-110.563 409.815,-104.432"/>
</g>
<!-- Node7 -->
<g id="node7" class="node"><title>Node7</title>
<g id="a_node7"><a xlink:href="ligne__paye_8h.html" target="_top" xlink:title="Définit deux fonctions auxiliaires utilisées dans lignes_paye.cpp. ">
<polygon fill="white" stroke="black" points="143.5,-56.5 143.5,-75.5 230.5,-75.5 230.5,-56.5 143.5,-56.5"/>
<text text-anchor="middle" x="187" y="-63.5" font-family="Helvetica,sans-Serif" font-size="10.00">lhx/ligne_paye.h</text>
</a>
</g>
</g>
<!-- Node5&#45;&gt;Node7 -->
<g id="edge6" class="edge"><title>Node5&#45;&gt;Node7</title>
<path fill="none" stroke="midnightblue" d="M345.626,-109.829C307.864,-99.6333 252.86,-84.7823 218.542,-75.5164"/>
<polygon fill="midnightblue" stroke="midnightblue" points="344.743,-113.216 355.309,-112.444 346.567,-106.458 344.743,-113.216"/>
</g>
<!-- Node5&#45;&gt;Node9 -->
<g id="edge14" class="edge"><title>Node5&#45;&gt;Node9</title>
<path fill="none" stroke="midnightblue" d="M386.409,-102.085C384.924,-87.5031 380.513,-67.881 368,-56 347.289,-36.3353 271.528,-23.062 222.158,-16.2857"/>
<polygon fill="midnightblue" stroke="midnightblue" points="382.941,-102.699 387.072,-112.455 389.927,-102.252 382.941,-102.699"/>
</g>
<!-- Node5&#45;&gt;Node10 -->
<g id="edge9" class="edge"><title>Node5&#45;&gt;Node10</title>
<path fill="none" stroke="midnightblue" d="M462.031,-118.005C496.88,-112.932 536.572,-101.383 564,-76 580.263,-60.949 584.508,-33.4559 585.613,-19.546"/>
<polygon fill="midnightblue" stroke="midnightblue" points="461.335,-114.566 451.869,-119.325 462.237,-121.507 461.335,-114.566"/>
</g>
<!-- Node5&#45;&gt;Node11 -->
<g id="edge10" class="edge"><title>Node5&#45;&gt;Node11</title>
<path fill="none" stroke="midnightblue" d="M445.212,-110.66C504.992,-100.041 596.542,-83.7787 649.406,-74.3884"/>
<polygon fill="midnightblue" stroke="midnightblue" points="444.403,-107.248 435.17,-112.444 445.628,-114.141 444.403,-107.248"/>
</g>
<!-- Node13 -->
<g id="node13" class="node"><title>Node13</title>
<g id="a_node13"><a xlink:href="table_8cpp.html" target="_top" xlink:title="Ce fichier contient l&#39;ensemble du code permettant de générer les fichiers des bulletins de paye et li...">
<polygon fill="white" stroke="black" points="287,-56.5 287,-75.5 359,-75.5 359,-56.5 287,-56.5"/>
<text text-anchor="middle" x="323" y="-63.5" font-family="Helvetica,sans-Serif" font-size="10.00">lhx/table.cpp</text>
</a>
</g>
</g>
<!-- Node5&#45;&gt;Node13 -->
<g id="edge13" class="edge"><title>Node5&#45;&gt;Node13</title>
<path fill="none" stroke="midnightblue" d="M369.009,-105.82C357.542,-96.1452 343.087,-83.9481 333.47,-75.8339"/>
<polygon fill="midnightblue" stroke="midnightblue" points="366.817,-108.55 376.717,-112.324 371.331,-103.2 366.817,-108.55"/>
</g>
<!-- Node7&#45;&gt;Node8 -->
<g id="edge7" class="edge"><title>Node7&#45;&gt;Node8</title>
<path fill="none" stroke="midnightblue" d="M155.751,-52.772C129.829,-42.6287 93.6375,-28.4669 70.7642,-19.5164"/>
<polygon fill="midnightblue" stroke="midnightblue" points="154.546,-56.0588 165.133,-56.4435 157.096,-49.5401 154.546,-56.0588"/>
</g>
<!-- Node7&#45;&gt;Node9 -->
<g id="edge8" class="edge"><title>Node7&#45;&gt;Node9</title>
<path fill="none" stroke="midnightblue" d="M183.85,-46.1005C182.356,-37.1357 180.643,-26.8579 179.459,-19.7511"/>
<polygon fill="midnightblue" stroke="midnightblue" points="180.417,-46.7945 185.514,-56.083 187.322,-45.6436 180.417,-46.7945"/>
</g>
<!-- Node11&#45;&gt;Node10 -->
<g id="edge11" class="edge"><title>Node11&#45;&gt;Node10</title>
<path fill="none" stroke="midnightblue" d="M665.19,-51.7261C645.747,-41.7271 619.652,-28.3065 602.828,-19.6545"/>
<polygon fill="midnightblue" stroke="midnightblue" points="663.636,-54.8629 674.13,-56.324 666.838,-48.6379 663.636,-54.8629"/>
</g>
<!-- Node12 -->
<g id="node12" class="node"><title>Node12</title>
<g id="a_node12"><a xlink:href="recherche_8cpp.html" target="_top" xlink:title="Ce fichier contient le code permettant de rechercher en mémoire, après décodage des bases XML...">
<polygon fill="white" stroke="black" points="644,-0.5 644,-19.5 738,-19.5 738,-0.5 644,-0.5"/>
<text text-anchor="middle" x="691" y="-7.5" font-family="Helvetica,sans-Serif" font-size="10.00">lhx/recherche.cpp</text>
</a>
</g>
</g>
<!-- Node11&#45;&gt;Node12 -->
<g id="edge12" class="edge"><title>Node11&#45;&gt;Node12</title>
<path fill="none" stroke="midnightblue" d="M691,-45.8045C691,-36.9102 691,-26.7798 691,-19.7511"/>
<polygon fill="midnightblue" stroke="midnightblue" points="687.5,-46.083 691,-56.083 694.5,-46.083 687.5,-46.083"/>
</g>
<!-- Node14&#45;&gt;Node7 -->
<g id="edge16" class="edge"><title>Node14&#45;&gt;Node7</title>
<path fill="none" stroke="midnightblue" d="M239.134,-106.101C226.177,-96.3824 209.703,-84.0269 198.779,-75.8339"/>
<polygon fill="midnightblue" stroke="midnightblue" points="237.332,-109.124 247.432,-112.324 241.532,-103.524 237.332,-109.124"/>
</g>
<!-- Node14&#45;&gt;Node9 -->
<g id="edge19" class="edge"><title>Node14&#45;&gt;Node9</title>
<path fill="none" stroke="midnightblue" d="M217.68,-118.081C189.033,-113.65 152.781,-102.722 134,-76 119.974,-56.0434 147.074,-32.2159 164.646,-19.6877"/>
<polygon fill="midnightblue" stroke="midnightblue" points="217.469,-121.584 227.844,-119.437 218.394,-114.645 217.469,-121.584"/>
</g>
<!-- Node14&#45;&gt;Node10 -->
<g id="edge17" class="edge"><title>Node14&#45;&gt;Node10</title>
<path fill="none" stroke="midnightblue" d="M259.275,-102.217C260.558,-87.4175 264.85,-67.4346 278,-56 317.963,-21.2493 477.277,-13.3324 549.76,-11.5303"/>
<polygon fill="midnightblue" stroke="midnightblue" points="255.775,-102.138 258.784,-112.297 262.767,-102.479 255.775,-102.138"/>
</g>
<!-- Node14&#45;&gt;Node13 -->
<g id="edge18" class="edge"><title>Node14&#45;&gt;Node13</title>
<path fill="none" stroke="midnightblue" d="M276.991,-105.82C288.458,-96.1452 302.913,-83.9481 312.53,-75.8339"/>
<polygon fill="midnightblue" stroke="midnightblue" points="274.669,-103.2 269.283,-112.324 279.183,-108.55 274.669,-103.2"/>
</g>
<!-- Node15&#45;&gt;Node4 -->
<g id="edge25" class="edge"><title>Node15&#45;&gt;Node4</title>
<path fill="none" stroke="midnightblue" d="M360.044,-217.002C350.159,-206.862 338.92,-195.332 331.44,-187.658"/>
<polygon fill="midnightblue" stroke="midnightblue" points="357.768,-219.682 367.255,-224.399 362.781,-214.795 357.768,-219.682"/>
</g>
</g>
</svg>
