<?xml version="1.0" encoding="UTF-8" standalone="no"?>
<!DOCTYPE svg PUBLIC "-//W3C//DTD SVG 1.1//EN"
 "http://www.w3.org/Graphics/SVG/1.1/DTD/svg11.dtd">
<!-- Generated by graphviz version 2.38.0 (20140413.2041)
 -->
<!-- Title: lhx/expression_reg_cata.h Pages: 1 -->
<!--zoomable 263 -->
<svg id="main" version="1.1" xmlns="http://www.w3.org/2000/svg" xmlns:xlink="http://www.w3.org/1999/xlink" xml:space="preserve" onload="init(evt)">
<style type="text/css"><![CDATA[
.edge:hover path { stroke: red; }
.edge:hover polygon { stroke: red; fill: red; }
]]></style>
<script type="text/javascript"><![CDATA[
var edges = document.getElementsByTagName('g');
if (edges && edges.length) {
  for (var i=0;i<edges.length;i++) {
    if (edges[i].id.substr(0,4)=='edge') {
      edges[i].setAttribute('class','edge');
    }
  }
}
]]></script>
        <defs>
                <circle id="rim" cx="0" cy="0" r="7"/>
                <circle id="rim2" cx="0" cy="0" r="3.5"/>
                <g id="zoomPlus">
                        <use xlink:href="#rim" fill="#404040">
                                <set attributeName="fill" to="#808080" begin="zoomplus.mouseover" end="zoomplus.mouseout"/>
                        </use>
                        <path d="M-4,0h8M0,-4v8" fill="none" stroke="white" stroke-width="1.5" pointer-events="none"/>
                </g>
                <g id="zoomMin">
                        <use xlink:href="#rim" fill="#404040">
                                <set attributeName="fill" to="#808080" begin="zoomminus.mouseover" end="zoomminus.mouseout"/>
                        </use>
                        <path d="M-4,0h8" fill="none" stroke="white" stroke-width="1.5" pointer-events="none"/>
                </g>
                <g id="dirArrow">
                        <path fill="none" stroke="white" stroke-width="1.5" d="M0,-3.0v7 M-2.5,-0.5L0,-3.0L2.5,-0.5"/>
                </g>
               <g id="resetDef">
                       <use xlink:href="#rim2" fill="#404040">
                               <set attributeName="fill" to="#808080" begin="reset.mouseover" end="reset.mouseout"/>
                       </use>
               </g>
        </defs>

<script type="text/javascript">
var viewWidth = 657;
var viewHeight = 263;
var sectionId = 'dynsection-1';
</script>
<script xlink:href="svgpan.js"/>
<svg id="graph" class="graph">
<g id="viewport">
<title>lhx/expression_reg_cata.h</title>
<polygon fill="white" stroke="none" points="-4,4 -4,-259 653.487,-259 653.487,4 -4,4"/>
<!-- Node3 -->
<g id="node1" class="node"><title>Node3</title>
<polygon fill="#bfbfbf" stroke="black" points="383.386,-224.5 383.386,-254.5 481.386,-254.5 481.386,-224.5 383.386,-224.5"/>
<text text-anchor="start" x="391.386" y="-242.5" font-family="Helvetica,sans-Serif" font-size="10.00">lhx/expression_reg</text>
<text text-anchor="middle" x="432.386" y="-231.5" font-family="Helvetica,sans-Serif" font-size="10.00">_cata.h</text>
</g>
<!-- Node4 -->
<g id="node2" class="node"><title>Node4</title>
<g id="a_node2"><a xlink:href="validator_8h.html" target="_top" xlink:title="Ce fichier contient notamment la structure info_t qui stocke les données de paye décodées ainsi que l...">
<polygon fill="white" stroke="black" points="393.886,-168.5 393.886,-187.5 470.886,-187.5 470.886,-168.5 393.886,-168.5"/>
<text text-anchor="middle" x="432.386" y="-175.5" font-family="Helvetica,sans-Serif" font-size="10.00">lhx/validator.h</text>
</a>
</g>
</g>
<!-- Node3&#45;&gt;Node4 -->
<g id="edge1" class="edge"><title>Node3&#45;&gt;Node4</title>
<path fill="none" stroke="midnightblue" d="M432.386,-214.289C432.386,-204.857 432.386,-194.655 432.386,-187.658"/>
<polygon fill="midnightblue" stroke="midnightblue" points="428.886,-214.399 432.386,-224.399 435.886,-214.399 428.886,-214.399"/>
</g>
<!-- Node5 -->
<g id="node3" class="node"><title>Node5</title>
<g id="a_node3"><a xlink:href="fonctions__auxiliaires_8h.html" target="_top" xlink:title="Diverses fonctions auxiliaires en inlining. ">
<polygon fill="white" stroke="black" points="196.886,-112.5 196.886,-131.5 325.886,-131.5 325.886,-112.5 196.886,-112.5"/>
<text text-anchor="middle" x="261.386" y="-119.5" font-family="Helvetica,sans-Serif" font-size="10.00">lhx/fonctions_auxiliaires.h</text>
</a>
</g>
</g>
<!-- Node4&#45;&gt;Node5 -->
<g id="edge2" class="edge"><title>Node4&#45;&gt;Node5</title>
<path fill="none" stroke="midnightblue" d="M395.35,-165.304C363.129,-155.129 317.197,-140.625 288.355,-131.516"/>
<polygon fill="midnightblue" stroke="midnightblue" points="394.701,-168.77 405.291,-168.444 396.809,-162.095 394.701,-168.77"/>
</g>
<!-- Node8 -->
<g id="node6" class="node"><title>Node8</title>
<g id="a_node6"><a xlink:href="ligne__paye_8cpp.html" target="_top" xlink:title="Ce fichier contient le code relatif au traitement individuel des lignes de paye. ">
<polygon fill="white" stroke="black" points="98.3863,-0.5 98.3863,-19.5 196.386,-19.5 196.386,-0.5 98.3863,-0.5"/>
<text text-anchor="middle" x="147.386" y="-7.5" font-family="Helvetica,sans-Serif" font-size="10.00">lhx/ligne_paye.cpp</text>
</a>
</g>
</g>
<!-- Node4&#45;&gt;Node8 -->
<g id="edge15" class="edge"><title>Node4&#45;&gt;Node8</title>
<path fill="none" stroke="midnightblue" d="M383.496,-173.116C281.345,-163.848 51.0337,-136.549 6.3863,-76 -20.2491,-39.8782 47.4065,-23.2474 97.9681,-16.0339"/>
<polygon fill="midnightblue" stroke="midnightblue" points="383.285,-176.61 393.555,-174.007 383.903,-169.638 383.285,-176.61"/>
</g>
<!-- Node9 -->
<g id="node7" class="node"><title>Node9</title>
<g id="a_node7"><a xlink:href="validator_8cpp.html" target="_top" xlink:title="Ce fichier contient le code relatif au décoidage de la partie &quot;bulletins de paye&quot; (variables communes...">
<polygon fill="white" stroke="black" points="337.386,-0.5 337.386,-19.5 425.386,-19.5 425.386,-0.5 337.386,-0.5"/>
<text text-anchor="middle" x="381.386" y="-7.5" font-family="Helvetica,sans-Serif" font-size="10.00">lhx/validator.cpp</text>
</a>
</g>
</g>
<!-- Node4&#45;&gt;Node9 -->
<g id="edge20" class="edge"><title>Node4&#45;&gt;Node9</title>
<path fill="none" stroke="midnightblue" d="M481.299,-168.056C556.777,-152.179 688.011,-115.069 638.386,-56 611.69,-24.2226 491.526,-14.8811 425.387,-12.138"/>
<polygon fill="midnightblue" stroke="midnightblue" points="480.138,-164.721 471.044,-170.156 481.542,-171.579 480.138,-164.721"/>
</g>
<!-- Node10 -->
<g id="node8" class="node"><title>Node10</title>
<g id="a_node8"><a xlink:href="lhx_2main_8cpp.html" target="_top" xlink:title="Ce fichier contient le code relatif à l&#39;analyse de la ligne de commande, au découpage de la liste des...">
<polygon fill="white" stroke="black" points="445.386,-56.5 445.386,-75.5 517.386,-75.5 517.386,-56.5 445.386,-56.5"/>
<text text-anchor="middle" x="481.386" y="-63.5" font-family="Helvetica,sans-Serif" font-size="10.00">lhx/main.cpp</text>
</a>
</g>
</g>
<!-- Node4&#45;&gt;Node10 -->
<g id="edge16" class="edge"><title>Node4&#45;&gt;Node10</title>
<path fill="none" stroke="midnightblue" d="M440.405,-158.998C451.097,-134.997 469.596,-93.4683 477.559,-75.5914"/>
<polygon fill="midnightblue" stroke="midnightblue" points="437.103,-157.81 436.231,-168.368 443.498,-160.658 437.103,-157.81"/>
</g>
<!-- Node12 -->
<g id="node10" class="node"><title>Node12</title>
<g id="a_node10"><a xlink:href="table_8h.html" target="_top" xlink:title="lhx/table.h">
<polygon fill="white" stroke="black" points="372.386,-112.5 372.386,-131.5 434.386,-131.5 434.386,-112.5 372.386,-112.5"/>
<text text-anchor="middle" x="403.386" y="-119.5" font-family="Helvetica,sans-Serif" font-size="10.00">lhx/table.h</text>
</a>
</g>
</g>
<!-- Node4&#45;&gt;Node12 -->
<g id="edge10" class="edge"><title>Node4&#45;&gt;Node12</title>
<path fill="none" stroke="midnightblue" d="M422.71,-158.983C417.788,-149.817 412.028,-139.092 408.086,-131.751"/>
<polygon fill="midnightblue" stroke="midnightblue" points="419.783,-160.929 427.598,-168.083 425.95,-157.617 419.783,-160.929"/>
</g>
<!-- Node13 -->
<g id="node11" class="node"><title>Node13</title>
<g id="a_node11"><a xlink:href="recherche_8h.html" target="_top" xlink:title="lhx/recherche.h">
<polygon fill="white" stroke="black" points="490.886,-112.5 490.886,-131.5 573.886,-131.5 573.886,-112.5 490.886,-112.5"/>
<text text-anchor="middle" x="532.386" y="-119.5" font-family="Helvetica,sans-Serif" font-size="10.00">lhx/recherche.h</text>
</a>
</g>
</g>
<!-- Node4&#45;&gt;Node13 -->
<g id="edge17" class="edge"><title>Node4&#45;&gt;Node13</title>
<path fill="none" stroke="midnightblue" d="M457.474,-163.453C475.935,-153.483 500.483,-140.228 516.359,-131.655"/>
<polygon fill="midnightblue" stroke="midnightblue" points="455.589,-160.493 448.453,-168.324 458.915,-166.652 455.589,-160.493"/>
</g>
<!-- Node6 -->
<g id="node4" class="node"><title>Node6</title>
<g id="a_node4"><a xlink:href="fonctions__auxiliaires_8cpp.html" target="_top" xlink:title="Ce fichier contient le code relatif aux fonctions auxiliaires utilisées par les fonctions principales...">
<polygon fill="white" stroke="black" points="15.3863,-56.5 15.3863,-75.5 155.386,-75.5 155.386,-56.5 15.3863,-56.5"/>
<text text-anchor="middle" x="85.3863" y="-63.5" font-family="Helvetica,sans-Serif" font-size="10.00">lhx/fonctions_auxiliaires.cpp</text>
</a>
</g>
</g>
<!-- Node5&#45;&gt;Node6 -->
<g id="edge3" class="edge"><title>Node5&#45;&gt;Node6</title>
<path fill="none" stroke="midnightblue" d="M223.697,-109.436C190.514,-99.2551 142.958,-84.664 113.144,-75.5164"/>
<polygon fill="midnightblue" stroke="midnightblue" points="222.912,-112.856 233.499,-112.444 224.965,-106.164 222.912,-112.856"/>
</g>
<!-- Node7 -->
<g id="node5" class="node"><title>Node7</title>
<g id="a_node5"><a xlink:href="ligne__paye_8h.html" target="_top" xlink:title="Définit deux fonctions auxiliaires utilisées dans lignes_paye.cpp. ">
<polygon fill="white" stroke="black" points="301.886,-56.5 301.886,-75.5 388.886,-75.5 388.886,-56.5 301.886,-56.5"/>
<text text-anchor="middle" x="345.386" y="-63.5" font-family="Helvetica,sans-Serif" font-size="10.00">lhx/ligne_paye.h</text>
</a>
</g>
</g>
<!-- Node5&#45;&gt;Node7 -->
<g id="edge4" class="edge"><title>Node5&#45;&gt;Node7</title>
<path fill="none" stroke="midnightblue" d="M283.319,-106.901C298.722,-96.9986 318.832,-84.0705 331.924,-75.6545"/>
<polygon fill="midnightblue" stroke="midnightblue" points="281.401,-103.972 274.882,-112.324 285.187,-109.86 281.401,-103.972"/>
</g>
<!-- Node5&#45;&gt;Node9 -->
<g id="edge9" class="edge"><title>Node5&#45;&gt;Node9</title>
<path fill="none" stroke="midnightblue" d="M234.246,-107.299C212.514,-94.4957 187.873,-74.6138 202.386,-56 218.789,-34.963 289.574,-22.2552 337.063,-15.9409"/>
<polygon fill="midnightblue" stroke="midnightblue" points="232.822,-110.512 243.26,-112.328 236.232,-104.399 232.822,-110.512"/>
</g>
<!-- Node5&#45;&gt;Node10 -->
<g id="edge7" class="edge"><title>Node5&#45;&gt;Node10</title>
<path fill="none" stroke="midnightblue" d="M306.104,-110.024C347.662,-99.8232 408.699,-84.8414 446.69,-75.5164"/>
<polygon fill="midnightblue" stroke="midnightblue" points="305.123,-106.661 296.246,-112.444 306.792,-113.459 305.123,-106.661"/>
</g>
<!-- Node11 -->
<g id="node9" class="node"><title>Node11</title>
<g id="a_node9"><a xlink:href="table_8cpp.html" target="_top" xlink:title="Ce fichier contient l&#39;ensemble du code permettant de générer les fichiers des bulletins de paye et li...">
<polygon fill="white" stroke="black" points="211.386,-56.5 211.386,-75.5 283.386,-75.5 283.386,-56.5 211.386,-56.5"/>
<text text-anchor="middle" x="247.386" y="-63.5" font-family="Helvetica,sans-Serif" font-size="10.00">lhx/table.cpp</text>
</a>
</g>
</g>
<!-- Node5&#45;&gt;Node11 -->
<g id="edge8" class="edge"><title>Node5&#45;&gt;Node11</title>
<path fill="none" stroke="midnightblue" d="M256.563,-102.396C254.221,-93.362 251.518,-82.936 249.655,-75.7511"/>
<polygon fill="midnightblue" stroke="midnightblue" points="253.177,-103.281 259.074,-112.083 259.953,-101.525 253.177,-103.281"/>
</g>
<!-- Node7&#45;&gt;Node8 -->
<g id="edge5" class="edge"><title>Node7&#45;&gt;Node8</title>
<path fill="none" stroke="midnightblue" d="M303.948,-53.6986C266.579,-43.507 212.443,-28.7429 178.613,-19.5164"/>
<polygon fill="midnightblue" stroke="midnightblue" points="303.444,-57.189 314.013,-56.4435 305.286,-50.4356 303.444,-57.189"/>
</g>
<!-- Node7&#45;&gt;Node9 -->
<g id="edge6" class="edge"><title>Node7&#45;&gt;Node9</title>
<path fill="none" stroke="midnightblue" d="M357.009,-47.5656C363.203,-38.2747 370.554,-27.2484 375.552,-19.7511"/>
<polygon fill="midnightblue" stroke="midnightblue" points="353.966,-45.821 351.331,-56.083 359.79,-49.7039 353.966,-45.821"/>
</g>
<!-- Node12&#45;&gt;Node7 -->
<g id="edge11" class="edge"><title>Node12&#45;&gt;Node7</title>
<path fill="none" stroke="midnightblue" d="M386.473,-105.253C376.183,-95.6731 363.421,-83.7906 354.875,-75.8339"/>
<polygon fill="midnightblue" stroke="midnightblue" points="384.364,-108.071 394.068,-112.324 389.134,-102.948 384.364,-108.071"/>
</g>
<!-- Node12&#45;&gt;Node9 -->
<g id="edge14" class="edge"><title>Node12&#45;&gt;Node9</title>
<path fill="none" stroke="midnightblue" d="M402.899,-102.381C402.258,-89.2807 400.781,-71.4078 397.386,-56 394.532,-43.044 388.996,-28.7049 385.245,-19.7725"/>
<polygon fill="midnightblue" stroke="midnightblue" points="399.405,-102.619 403.274,-112.482 406.4,-102.359 399.405,-102.619"/>
</g>
<!-- Node12&#45;&gt;Node10 -->
<g id="edge12" class="edge"><title>Node12&#45;&gt;Node10</title>
<path fill="none" stroke="midnightblue" d="M424.154,-106.622C438.403,-96.7574 456.842,-83.9919 468.885,-75.6545"/>
<polygon fill="midnightblue" stroke="midnightblue" points="422.148,-103.754 415.918,-112.324 426.133,-109.51 422.148,-103.754"/>
</g>
<!-- Node12&#45;&gt;Node11 -->
<g id="edge13" class="edge"><title>Node12&#45;&gt;Node11</title>
<path fill="none" stroke="midnightblue" d="M369.217,-109.172C339.842,-99.0039 298.188,-84.5852 271.989,-75.5164"/>
<polygon fill="midnightblue" stroke="midnightblue" points="368.073,-112.48 378.668,-112.444 370.363,-105.865 368.073,-112.48"/>
</g>
<!-- Node13&#45;&gt;Node10 -->
<g id="edge18" class="edge"><title>Node13&#45;&gt;Node10</title>
<path fill="none" stroke="midnightblue" d="M517.008,-104.718C508.019,-95.1997 497.027,-83.5608 489.651,-75.7511"/>
<polygon fill="midnightblue" stroke="midnightblue" points="514.554,-107.216 523.965,-112.083 519.643,-102.41 514.554,-107.216"/>
</g>
<!-- Node14 -->
<g id="node12" class="node"><title>Node14</title>
<g id="a_node12"><a xlink:href="recherche_8cpp.html" target="_top" xlink:title="Ce fichier contient le code permettant de rechercher en mémoire, après décodage des bases XML...">
<polygon fill="white" stroke="black" points="535.386,-56.5 535.386,-75.5 629.386,-75.5 629.386,-56.5 535.386,-56.5"/>
<text text-anchor="middle" x="582.386" y="-63.5" font-family="Helvetica,sans-Serif" font-size="10.00">lhx/recherche.cpp</text>
</a>
</g>
</g>
<!-- Node13&#45;&gt;Node14 -->
<g id="edge19" class="edge"><title>Node13&#45;&gt;Node14</title>
<path fill="none" stroke="midnightblue" d="M547.463,-104.718C556.275,-95.1997 567.052,-83.5608 574.283,-75.7511"/>
<polygon fill="midnightblue" stroke="midnightblue" points="544.869,-102.367 540.643,-112.083 550.005,-107.123 544.869,-102.367"/>
</g>
</g>
</svg>
        <g id="navigator" transform="translate(0 0)" fill="#404254">
                <rect fill="#f2f5e9" fill-opacity="0.5" stroke="#606060" stroke-width=".5" x="0" y="0" width="60" height="60"/>
                <use id="zoomplus" xlink:href="#zoomPlus" x="17" y="9" onmousedown="handleZoom(evt,'in')"/>
                <use id="zoomminus" xlink:href="#zoomMin" x="42" y="9" onmousedown="handleZoom(evt,'out')"/>
                <use id="reset" xlink:href="#resetDef" x="30" y="36" onmousedown="handleReset()"/>
                <g id="arrowUp" xlink:href="#dirArrow" transform="translate(30 24)" onmousedown="handlePan(0,-1)">
                  <use xlink:href="#rim" fill="#404040">
                        <set attributeName="fill" to="#808080" begin="arrowUp.mouseover" end="arrowUp.mouseout"/>
                  </use>
                  <path fill="none" stroke="white" stroke-width="1.5" d="M0,-3.0v7 M-2.5,-0.5L0,-3.0L2.5,-0.5"/>
                </g>
                <g id="arrowRight" xlink:href="#dirArrow" transform="rotate(90) translate(36 -43)" onmousedown="handlePan(1,0)">
                  <use xlink:href="#rim" fill="#404040">
                        <set attributeName="fill" to="#808080" begin="arrowRight.mouseover" end="arrowRight.mouseout"/>
                  </use>
                  <path fill="none" stroke="white" stroke-width="1.5" d="M0,-3.0v7 M-2.5,-0.5L0,-3.0L2.5,-0.5"/>
                </g>
                <g id="arrowDown" xlink:href="#dirArrow" transform="rotate(180) translate(-30 -48)" onmousedown="handlePan(0,1)">
                  <use xlink:href="#rim" fill="#404040">
                        <set attributeName="fill" to="#808080" begin="arrowDown.mouseover" end="arrowDown.mouseout"/>
                  </use>
                  <path fill="none" stroke="white" stroke-width="1.5" d="M0,-3.0v7 M-2.5,-0.5L0,-3.0L2.5,-0.5"/>
                </g>
                <g id="arrowLeft" xlink:href="#dirArrow" transform="rotate(270) translate(-36 17)" onmousedown="handlePan(-1,0)">
                  <use xlink:href="#rim" fill="#404040">
                        <set attributeName="fill" to="#808080" begin="arrowLeft.mouseover" end="arrowLeft.mouseout"/>
                  </use>
                  <path fill="none" stroke="white" stroke-width="1.5" d="M0,-3.0v7 M-2.5,-0.5L0,-3.0L2.5,-0.5"/>
                </g>
        </g>
        <svg viewBox="0 0 15 15" width="100%" height="30px" preserveAspectRatio="xMaxYMin meet">
         <g id="arrow_out" transform="scale(0.3 0.3)">
          <a xlink:href="expression__reg__cata_8h__dep__incl_org.svg" target="_base">
           <rect id="button" ry="5" rx="5" y="6" x="6" height="38" width="38"
                fill="#f2f5e9" fill-opacity="0.5" stroke="#606060" stroke-width="1.0"/>
           <path id="arrow"
             d="M 11.500037,31.436501 C 11.940474,20.09759 22.043105,11.32322 32.158766,21.979434 L 37.068811,17.246167 C 37.068811,17.246167 37.088388,32 37.088388,32 L 22.160133,31.978069 C 22.160133,31.978069 26.997745,27.140456 26.997745,27.140456 C 18.528582,18.264221 13.291696,25.230495 11.500037,31.436501 z"
             style="fill:#404040;"/>
          </a>
         </g>
        </svg>
</svg>
