<?xml version="1.0" encoding="UTF-8" standalone="no"?>
<!DOCTYPE svg PUBLIC "-//W3C//DTD SVG 1.1//EN"
 "http://www.w3.org/Graphics/SVG/1.1/DTD/svg11.dtd">
<!-- Generated by graphviz version 2.38.0 (20140413.2041)
 -->
<!-- Title: fwidgets_lib/flineframe.cpp Pages: 1 -->
<svg width="307pt" height="252pt"
 viewBox="0.00 0.00 306.50 252.00" xmlns="http://www.w3.org/2000/svg" xmlns:xlink="http://www.w3.org/1999/xlink">
<g id="graph0" class="graph" transform="scale(1 1) rotate(0) translate(4 248)">
<title>fwidgets_lib/flineframe.cpp</title>
<polygon fill="white" stroke="none" points="-4,4 -4,-248 302.5,-248 302.5,4 -4,4"/>
<!-- Node0 -->
<g id="node1" class="node"><title>Node0</title>
<polygon fill="#bfbfbf" stroke="black" points="84.5,-224.5 84.5,-243.5 217.5,-243.5 217.5,-224.5 84.5,-224.5"/>
<text text-anchor="middle" x="151" y="-231.5" font-family="Helvetica,sans-Serif" font-size="10.00">fwidgets_lib/flineframe.cpp</text>
</g>
<!-- Node1 -->
<g id="node2" class="node"><title>Node1</title>
<g id="a_node2"><a xlink:href="flineframe_8h.html" target="_top" xlink:title="Ce fichier contient la classe FLineFrame, dérivée fonctionnelle de FLineEdit. ">
<polygon fill="white" stroke="black" points="55,-168.5 55,-187.5 123,-187.5 123,-168.5 55,-168.5"/>
<text text-anchor="middle" x="89" y="-175.5" font-family="Helvetica,sans-Serif" font-size="10.00">flineframe.h</text>
</a>
</g>
</g>
<!-- Node0&#45;&gt;Node1 -->
<g id="edge1" class="edge"><title>Node0&#45;&gt;Node1</title>
<path fill="none" stroke="midnightblue" d="M141.039,-224.324C131.873,-216.341 118.063,-204.313 106.972,-194.653"/>
<polygon fill="midnightblue" stroke="midnightblue" points="108.982,-191.762 99.1426,-187.834 104.385,-197.041 108.982,-191.762"/>
</g>
<!-- Node2 -->
<g id="node3" class="node"><title>Node2</title>
<g id="a_node3"><a xlink:href="fwidgets_8h.html" target="_top" xlink:title="fwidgets.h">
<polygon fill="white" stroke="black" points="122,-112.5 122,-131.5 184,-131.5 184,-112.5 122,-112.5"/>
<text text-anchor="middle" x="153" y="-119.5" font-family="Helvetica,sans-Serif" font-size="10.00">fwidgets.h</text>
</a>
</g>
</g>
<!-- Node0&#45;&gt;Node2 -->
<g id="edge15" class="edge"><title>Node0&#45;&gt;Node2</title>
<path fill="none" stroke="midnightblue" d="M151.157,-224.368C151.48,-206.617 152.224,-165.666 152.662,-141.597"/>
<polygon fill="midnightblue" stroke="midnightblue" points="156.161,-141.653 152.844,-131.591 149.162,-141.526 156.161,-141.653"/>
</g>
<!-- Node6 -->
<g id="node7" class="node"><title>Node6</title>
<g id="a_node7"><a xlink:href="enums_8h.html" target="_top" xlink:title="Enumérations et constantes permettant de paramétrer les fwidgets. ">
<polygon fill="white" stroke="black" points="0,-0.5 0,-19.5 54,-19.5 54,-0.5 0,-0.5"/>
<text text-anchor="middle" x="27" y="-7.5" font-family="Helvetica,sans-Serif" font-size="10.00">enums.h</text>
</a>
</g>
</g>
<!-- Node0&#45;&gt;Node6 -->
<g id="edge13" class="edge"><title>Node0&#45;&gt;Node6</title>
<path fill="none" stroke="midnightblue" d="M105.023,-224.439C83.7011,-218.039 60.0265,-206.981 46,-188 10.8499,-140.435 17.634,-65.0752 23.3001,-30.0545"/>
<polygon fill="midnightblue" stroke="midnightblue" points="26.8146,-30.2806 25.1166,-19.8228 19.9224,-29.057 26.8146,-30.2806"/>
</g>
<!-- Node8 -->
<g id="node9" class="node"><title>Node8</title>
<g id="a_node9"><a xlink:href="tools_8h.html" target="_top" xlink:title="tools.h">
<polygon fill="white" stroke="black" points="179,-168.5 179,-187.5 225,-187.5 225,-168.5 179,-168.5"/>
<text text-anchor="middle" x="202" y="-175.5" font-family="Helvetica,sans-Serif" font-size="10.00">tools.h</text>
</a>
</g>
</g>
<!-- Node0&#45;&gt;Node8 -->
<g id="edge10" class="edge"><title>Node0&#45;&gt;Node8</title>
<path fill="none" stroke="midnightblue" d="M159.422,-224.083C166.848,-216.22 177.852,-204.569 186.812,-195.081"/>
<polygon fill="midnightblue" stroke="midnightblue" points="189.413,-197.424 193.735,-187.751 184.324,-192.618 189.413,-197.424"/>
</g>
<!-- Node9 -->
<g id="node10" class="node"><title>Node9</title>
<polygon fill="white" stroke="#bfbfbf" points="243.5,-168.5 243.5,-187.5 298.5,-187.5 298.5,-168.5 243.5,-168.5"/>
<text text-anchor="middle" x="271" y="-175.5" font-family="Helvetica,sans-Serif" font-size="10.00">QWidget</text>
</g>
<!-- Node0&#45;&gt;Node9 -->
<g id="edge14" class="edge"><title>Node0&#45;&gt;Node9</title>
<path fill="none" stroke="midnightblue" d="M170.014,-224.444C189.588,-215.636 220.308,-201.812 242.729,-191.722"/>
<polygon fill="midnightblue" stroke="midnightblue" points="244.392,-194.812 252.075,-187.516 241.519,-188.428 244.392,-194.812"/>
</g>
<!-- Node1&#45;&gt;Node2 -->
<g id="edge2" class="edge"><title>Node1&#45;&gt;Node2</title>
<path fill="none" stroke="midnightblue" d="M99.2827,-168.324C108.836,-160.263 123.28,-148.077 134.784,-138.369"/>
<polygon fill="midnightblue" stroke="midnightblue" points="137.144,-140.958 142.53,-131.834 132.63,-135.608 137.144,-140.958"/>
</g>
<!-- Node4 -->
<g id="node5" class="node"><title>Node4</title>
<g id="a_node5"><a xlink:href="fstring_8h.html" target="_top" xlink:title="fstring.h">
<polygon fill="white" stroke="black" points="63,-56.5 63,-75.5 115,-75.5 115,-56.5 63,-56.5"/>
<text text-anchor="middle" x="89" y="-63.5" font-family="Helvetica,sans-Serif" font-size="10.00">fstring.h</text>
</a>
</g>
</g>
<!-- Node1&#45;&gt;Node4 -->
<g id="edge8" class="edge"><title>Node1&#45;&gt;Node4</title>
<path fill="none" stroke="midnightblue" d="M89,-168.368C89,-150.617 89,-109.666 89,-85.5974"/>
<polygon fill="midnightblue" stroke="midnightblue" points="92.5001,-85.5914 89,-75.5914 85.5001,-85.5915 92.5001,-85.5914"/>
</g>
<!-- Node1&#45;&gt;Node6 -->
<g id="edge9" class="edge"><title>Node1&#45;&gt;Node6</title>
<path fill="none" stroke="midnightblue" d="M85.6666,-168.075C75.865,-141.832 46.9988,-64.5453 33.7664,-29.1165"/>
<polygon fill="midnightblue" stroke="midnightblue" points="36.9778,-27.7114 30.2001,-19.5681 30.4203,-30.1607 36.9778,-27.7114"/>
</g>
<!-- Node3 -->
<g id="node4" class="node"><title>Node3</title>
<polygon fill="white" stroke="#bfbfbf" points="195.5,-56.5 195.5,-75.5 258.5,-75.5 258.5,-56.5 195.5,-56.5"/>
<text text-anchor="middle" x="227" y="-63.5" font-family="Helvetica,sans-Serif" font-size="10.00">QtWidgets</text>
</g>
<!-- Node2&#45;&gt;Node3 -->
<g id="edge3" class="edge"><title>Node2&#45;&gt;Node3</title>
<path fill="none" stroke="midnightblue" d="M164.889,-112.324C176.15,-104.107 193.287,-91.6017 206.709,-81.8069"/>
<polygon fill="midnightblue" stroke="midnightblue" points="208.88,-84.5559 214.894,-75.8339 204.753,-78.9014 208.88,-84.5559"/>
</g>
<!-- Node2&#45;&gt;Node4 -->
<g id="edge4" class="edge"><title>Node2&#45;&gt;Node4</title>
<path fill="none" stroke="midnightblue" d="M142.717,-112.324C133.164,-104.263 118.72,-92.0765 107.216,-82.3695"/>
<polygon fill="midnightblue" stroke="midnightblue" points="109.37,-79.6076 99.4698,-75.8339 104.856,-84.9577 109.37,-79.6076"/>
</g>
<!-- Node7 -->
<g id="node8" class="node"><title>Node7</title>
<g id="a_node8"><a xlink:href="tags_8h.html" target="_top" xlink:title="tags.h">
<polygon fill="white" stroke="black" points="133,-56.5 133,-75.5 177,-75.5 177,-56.5 133,-56.5"/>
<text text-anchor="middle" x="155" y="-63.5" font-family="Helvetica,sans-Serif" font-size="10.00">tags.h</text>
</a>
</g>
</g>
<!-- Node2&#45;&gt;Node7 -->
<g id="edge7" class="edge"><title>Node2&#45;&gt;Node7</title>
<path fill="none" stroke="midnightblue" d="M153.33,-112.083C153.592,-105.006 153.968,-94.8611 154.297,-85.9865"/>
<polygon fill="midnightblue" stroke="midnightblue" points="157.803,-85.8738 154.676,-75.7511 150.808,-85.6147 157.803,-85.8738"/>
</g>
<!-- Node5 -->
<g id="node6" class="node"><title>Node5</title>
<polygon fill="white" stroke="#bfbfbf" points="72,-0.5 72,-19.5 120,-19.5 120,-0.5 72,-0.5"/>
<text text-anchor="middle" x="96" y="-7.5" font-family="Helvetica,sans-Serif" font-size="10.00">QtCore</text>
</g>
<!-- Node4&#45;&gt;Node5 -->
<g id="edge5" class="edge"><title>Node4&#45;&gt;Node5</title>
<path fill="none" stroke="midnightblue" d="M90.1559,-56.083C91.0835,-48.9272 92.4176,-38.6353 93.5771,-29.6911"/>
<polygon fill="midnightblue" stroke="midnightblue" points="97.0509,-30.1181 94.8656,-19.7511 90.109,-29.2181 97.0509,-30.1181"/>
</g>
<!-- Node4&#45;&gt;Node6 -->
<g id="edge6" class="edge"><title>Node4&#45;&gt;Node6</title>
<path fill="none" stroke="midnightblue" d="M79.0386,-56.324C69.8734,-48.3414 56.0628,-36.3128 44.9718,-26.6529"/>
<polygon fill="midnightblue" stroke="midnightblue" points="46.9822,-23.7624 37.1426,-19.8339 42.3847,-29.041 46.9822,-23.7624"/>
</g>
<!-- Node8&#45;&gt;Node2 -->
<g id="edge12" class="edge"><title>Node8&#45;&gt;Node2</title>
<path fill="none" stroke="midnightblue" d="M193.909,-168.083C186.845,-160.298 176.412,-148.801 167.851,-139.367"/>
<polygon fill="midnightblue" stroke="midnightblue" points="170.253,-136.805 160.941,-131.751 165.069,-141.509 170.253,-136.805"/>
</g>
<!-- Node8&#45;&gt;Node3 -->
<g id="edge11" class="edge"><title>Node8&#45;&gt;Node3</title>
<path fill="none" stroke="midnightblue" d="M203.962,-168.368C207.996,-150.617 217.303,-109.666 222.773,-85.5974"/>
<polygon fill="midnightblue" stroke="midnightblue" points="226.244,-86.1185 225.047,-75.5914 219.418,-84.567 226.244,-86.1185"/>
</g>
</g>
</svg>
