<?xml version="1.0" encoding="UTF-8" standalone="no"?>
<!DOCTYPE svg PUBLIC "-//W3C//DTD SVG 1.1//EN"
 "http://www.w3.org/Graphics/SVG/1.1/DTD/svg11.dtd">
<!-- Generated by graphviz version 2.38.0 (20140413.2041)
 -->
<!-- Title: fwidgets_lib/flineframe.h Pages: 1 -->
<svg width="259pt" height="196pt"
 viewBox="0.00 0.00 258.50 196.00" xmlns="http://www.w3.org/2000/svg" xmlns:xlink="http://www.w3.org/1999/xlink">
<g id="graph0" class="graph" transform="scale(1 1) rotate(0) translate(4 192)">
<title>fwidgets_lib/flineframe.h</title>
<polygon fill="white" stroke="none" points="-4,4 -4,-192 254.5,-192 254.5,4 -4,4"/>
<!-- Node0 -->
<g id="node1" class="node"><title>Node0</title>
<polygon fill="#bfbfbf" stroke="black" points="108.5,-168.5 108.5,-187.5 230.5,-187.5 230.5,-168.5 108.5,-168.5"/>
<text text-anchor="middle" x="169.5" y="-175.5" font-family="Helvetica,sans-Serif" font-size="10.00">fwidgets_lib/flineframe.h</text>
</g>
<!-- Node1 -->
<g id="node2" class="node"><title>Node1</title>
<g id="a_node2"><a xlink:href="fwidgets_8h.html" target="_top" xlink:title="fwidgets.h">
<polygon fill="white" stroke="black" points="76.5,-112.5 76.5,-131.5 138.5,-131.5 138.5,-112.5 76.5,-112.5"/>
<text text-anchor="middle" x="107.5" y="-119.5" font-family="Helvetica,sans-Serif" font-size="10.00">fwidgets.h</text>
</a>
</g>
</g>
<!-- Node0&#45;&gt;Node1 -->
<g id="edge1" class="edge"><title>Node0&#45;&gt;Node1</title>
<path fill="none" stroke="midnightblue" d="M159.539,-168.324C150.373,-160.341 136.563,-148.313 125.472,-138.653"/>
<polygon fill="midnightblue" stroke="midnightblue" points="127.482,-135.762 117.643,-131.834 122.885,-141.041 127.482,-135.762"/>
</g>
<!-- Node3 -->
<g id="node4" class="node"><title>Node3</title>
<g id="a_node4"><a xlink:href="fstring_8h.html" target="_top" xlink:title="fstring.h">
<polygon fill="white" stroke="black" points="143.5,-56.5 143.5,-75.5 195.5,-75.5 195.5,-56.5 143.5,-56.5"/>
<text text-anchor="middle" x="169.5" y="-63.5" font-family="Helvetica,sans-Serif" font-size="10.00">fstring.h</text>
</a>
</g>
</g>
<!-- Node0&#45;&gt;Node3 -->
<g id="edge7" class="edge"><title>Node0&#45;&gt;Node3</title>
<path fill="none" stroke="midnightblue" d="M169.5,-168.368C169.5,-150.617 169.5,-109.666 169.5,-85.5974"/>
<polygon fill="midnightblue" stroke="midnightblue" points="173,-85.5914 169.5,-75.5914 166,-85.5915 173,-85.5914"/>
</g>
<!-- Node5 -->
<g id="node6" class="node"><title>Node5</title>
<g id="a_node6"><a xlink:href="enums_8h.html" target="_top" xlink:title="Enumérations et constantes permettant de paramétrer les fwidgets. ">
<polygon fill="white" stroke="black" points="196.5,-0.5 196.5,-19.5 250.5,-19.5 250.5,-0.5 196.5,-0.5"/>
<text text-anchor="middle" x="223.5" y="-7.5" font-family="Helvetica,sans-Serif" font-size="10.00">enums.h</text>
</a>
</g>
</g>
<!-- Node0&#45;&gt;Node5 -->
<g id="edge8" class="edge"><title>Node0&#45;&gt;Node5</title>
<path fill="none" stroke="midnightblue" d="M172.64,-168.401C178.948,-151.031 193.496,-110.474 204.5,-76 209.472,-60.4248 214.649,-42.5906 218.341,-29.5477"/>
<polygon fill="midnightblue" stroke="midnightblue" points="221.723,-30.447 221.056,-19.8733 214.984,-28.5556 221.723,-30.447"/>
</g>
<!-- Node2 -->
<g id="node3" class="node"><title>Node2</title>
<polygon fill="white" stroke="#bfbfbf" points="0,-56.5 0,-75.5 63,-75.5 63,-56.5 0,-56.5"/>
<text text-anchor="middle" x="31.5" y="-63.5" font-family="Helvetica,sans-Serif" font-size="10.00">QtWidgets</text>
</g>
<!-- Node1&#45;&gt;Node2 -->
<g id="edge2" class="edge"><title>Node1&#45;&gt;Node2</title>
<path fill="none" stroke="midnightblue" d="M95.2893,-112.324C83.7241,-104.107 66.1246,-91.6017 52.3393,-81.8069"/>
<polygon fill="midnightblue" stroke="midnightblue" points="54.112,-78.7729 43.9329,-75.8339 50.0575,-84.4791 54.112,-78.7729"/>
</g>
<!-- Node1&#45;&gt;Node3 -->
<g id="edge3" class="edge"><title>Node1&#45;&gt;Node3</title>
<path fill="none" stroke="midnightblue" d="M117.461,-112.324C126.627,-104.341 140.437,-92.3128 151.528,-82.6529"/>
<polygon fill="midnightblue" stroke="midnightblue" points="154.115,-85.041 159.357,-75.8339 149.518,-79.7624 154.115,-85.041"/>
</g>
<!-- Node6 -->
<g id="node7" class="node"><title>Node6</title>
<g id="a_node7"><a xlink:href="tags_8h.html" target="_top" xlink:title="tags.h">
<polygon fill="white" stroke="black" points="81.5,-56.5 81.5,-75.5 125.5,-75.5 125.5,-56.5 81.5,-56.5"/>
<text text-anchor="middle" x="103.5" y="-63.5" font-family="Helvetica,sans-Serif" font-size="10.00">tags.h</text>
</a>
</g>
</g>
<!-- Node1&#45;&gt;Node6 -->
<g id="edge6" class="edge"><title>Node1&#45;&gt;Node6</title>
<path fill="none" stroke="midnightblue" d="M106.839,-112.083C106.315,-105.006 105.564,-94.8611 104.906,-85.9865"/>
<polygon fill="midnightblue" stroke="midnightblue" points="108.377,-85.4652 104.148,-75.7511 101.397,-85.9823 108.377,-85.4652"/>
</g>
<!-- Node4 -->
<g id="node5" class="node"><title>Node4</title>
<polygon fill="white" stroke="#bfbfbf" points="130.5,-0.5 130.5,-19.5 178.5,-19.5 178.5,-0.5 130.5,-0.5"/>
<text text-anchor="middle" x="154.5" y="-7.5" font-family="Helvetica,sans-Serif" font-size="10.00">QtCore</text>
</g>
<!-- Node3&#45;&gt;Node4 -->
<g id="edge4" class="edge"><title>Node3&#45;&gt;Node4</title>
<path fill="none" stroke="midnightblue" d="M167.023,-56.083C165.014,-48.8486 162.114,-38.4087 159.61,-29.3968"/>
<polygon fill="midnightblue" stroke="midnightblue" points="162.98,-28.4495 156.931,-19.7511 156.235,-30.323 162.98,-28.4495"/>
</g>
<!-- Node3&#45;&gt;Node5 -->
<g id="edge5" class="edge"><title>Node3&#45;&gt;Node5</title>
<path fill="none" stroke="midnightblue" d="M178.417,-56.083C186.28,-48.2195 197.931,-36.5688 207.419,-27.0813"/>
<polygon fill="midnightblue" stroke="midnightblue" points="210.153,-29.2971 214.749,-19.7511 205.203,-24.3473 210.153,-29.2971"/>
</g>
</g>
</svg>
