<?xml version="1.0" encoding="UTF-8" standalone="no"?>
<!DOCTYPE svg PUBLIC "-//W3C//DTD SVG 1.1//EN"
 "http://www.w3.org/Graphics/SVG/1.1/DTD/svg11.dtd">
<!-- Generated by graphviz version 2.38.0 (20140413.2041)
 -->
<!-- Title: fwidgets_lib/flineframe.h Pages: 1 -->
<!--zoomable 263 -->
<svg id="main" version="1.1" xmlns="http://www.w3.org/2000/svg" xmlns:xlink="http://www.w3.org/1999/xlink" xml:space="preserve" onload="init(evt)">
<style type="text/css"><![CDATA[
.edge:hover path { stroke: red; }
.edge:hover polygon { stroke: red; fill: red; }
]]></style>
<script type="text/javascript"><![CDATA[
var edges = document.getElementsByTagName('g');
if (edges && edges.length) {
  for (var i=0;i<edges.length;i++) {
    if (edges[i].id.substr(0,4)=='edge') {
      edges[i].setAttribute('class','edge');
    }
  }
}
]]></script>
        <defs>
                <circle id="rim" cx="0" cy="0" r="7"/>
                <circle id="rim2" cx="0" cy="0" r="3.5"/>
                <g id="zoomPlus">
                        <use xlink:href="#rim" fill="#404040">
                                <set attributeName="fill" to="#808080" begin="zoomplus.mouseover" end="zoomplus.mouseout"/>
                        </use>
                        <path d="M-4,0h8M0,-4v8" fill="none" stroke="white" stroke-width="1.5" pointer-events="none"/>
                </g>
                <g id="zoomMin">
                        <use xlink:href="#rim" fill="#404040">
                                <set attributeName="fill" to="#808080" begin="zoomminus.mouseover" end="zoomminus.mouseout"/>
                        </use>
                        <path d="M-4,0h8" fill="none" stroke="white" stroke-width="1.5" pointer-events="none"/>
                </g>
                <g id="dirArrow">
                        <path fill="none" stroke="white" stroke-width="1.5" d="M0,-3.0v7 M-2.5,-0.5L0,-3.0L2.5,-0.5"/>
                </g>
               <g id="resetDef">
                       <use xlink:href="#rim2" fill="#404040">
                               <set attributeName="fill" to="#808080" begin="reset.mouseover" end="reset.mouseout"/>
                       </use>
               </g>
        </defs>

<script type="text/javascript">
var viewWidth = 846;
var viewHeight = 263;
var sectionId = 'dynsection-1';
</script>
<script xlink:href="svgpan.js"/>
<svg id="graph" class="graph">
<g id="viewport">
<title>fwidgets_lib/flineframe.h</title>
<polygon fill="white" stroke="none" points="-4,4 -4,-259 841.5,-259 841.5,4 -4,4"/>
<!-- Node7 -->
<g id="node1" class="node"><title>Node7</title>
<polygon fill="#bfbfbf" stroke="black" points="566,-235.5 566,-254.5 688,-254.5 688,-235.5 566,-235.5"/>
<text text-anchor="middle" x="627" y="-242.5" font-family="Helvetica,sans-Serif" font-size="10.00">fwidgets_lib/flineframe.h</text>
</g>
<!-- Node8 -->
<g id="node2" class="node"><title>Node8</title>
<g id="a_node2"><a xlink:href="options_8h.html" target="_top" xlink:title="Code des classes du dialogue d&#39;options. ">
<polygon fill="white" stroke="black" points="367.5,-179.5 367.5,-198.5 480.5,-198.5 480.5,-179.5 367.5,-179.5"/>
<text text-anchor="middle" x="424" y="-186.5" font-family="Helvetica,sans-Serif" font-size="10.00">Interface/gui/options.h</text>
</a>
</g>
</g>
<!-- Node7&#45;&gt;Node8 -->
<g id="edge1" class="edge"><title>Node7&#45;&gt;Node8</title>
<path fill="none" stroke="midnightblue" d="M585.006,-232.829C546.677,-222.633 490.848,-207.782 456.015,-198.516"/>
<polygon fill="midnightblue" stroke="midnightblue" points="584.27,-236.255 594.834,-235.444 586.07,-229.49 584.27,-236.255"/>
</g>
<!-- Node13 -->
<g id="node7" class="node"><title>Node13</title>
<g id="a_node7"><a xlink:href="options_8cpp.html" target="_top" xlink:title="Implémentation des classes du dialogue d&#39;options. ">
<polygon fill="white" stroke="black" points="573,-0.5 573,-19.5 697,-19.5 697,-0.5 573,-0.5"/>
<text text-anchor="middle" x="635" y="-7.5" font-family="Helvetica,sans-Serif" font-size="10.00">Interface/gui/options.cpp</text>
</a>
</g>
</g>
<!-- Node7&#45;&gt;Node13 -->
<g id="edge16" class="edge"><title>Node7&#45;&gt;Node13</title>
<path fill="none" stroke="midnightblue" d="M638.838,-226.72C643.764,-218.651 649.019,-208.702 652,-199 672.404,-132.587 647.355,-47.2418 638.142,-19.8663"/>
<polygon fill="midnightblue" stroke="midnightblue" points="635.846,-224.9 633.363,-235.2 641.727,-228.697 635.846,-224.9"/>
</g>
<!-- Node17 -->
<g id="node11" class="node"><title>Node17</title>
<g id="a_node11"><a xlink:href="matricules_8h.html" target="_top" xlink:title="Code de la classe MatriculeInput, qui construit un dialogue d&#39;extraction des bulletins. ">
<polygon fill="white" stroke="black" points="515.5,-179.5 515.5,-198.5 642.5,-198.5 642.5,-179.5 515.5,-179.5"/>
<text text-anchor="middle" x="579" y="-186.5" font-family="Helvetica,sans-Serif" font-size="10.00">Interface/gui/matricules.h</text>
</a>
</g>
</g>
<!-- Node7&#45;&gt;Node17 -->
<g id="edge13" class="edge"><title>Node7&#45;&gt;Node17</title>
<path fill="none" stroke="midnightblue" d="M612.272,-227.431C603.86,-217.967 593.651,-206.483 586.779,-198.751"/>
<polygon fill="midnightblue" stroke="midnightblue" points="609.814,-229.934 619.074,-235.083 615.046,-225.284 609.814,-229.934"/>
</g>
<!-- Node19 -->
<g id="node13" class="node"><title>Node19</title>
<g id="a_node13"><a xlink:href="flineframe_8cpp.html" target="_top" xlink:title="fwidgets_lib/flineframe.cpp">
<polygon fill="white" stroke="black" points="704.5,-179.5 704.5,-198.5 837.5,-198.5 837.5,-179.5 704.5,-179.5"/>
<text text-anchor="middle" x="771" y="-186.5" font-family="Helvetica,sans-Serif" font-size="10.00">fwidgets_lib/flineframe.cpp</text>
</a>
</g>
</g>
<!-- Node7&#45;&gt;Node19 -->
<g id="edge17" class="edge"><title>Node7&#45;&gt;Node19</title>
<path fill="none" stroke="midnightblue" d="M659.251,-231.906C686.324,-221.754 724.317,-207.506 748.29,-198.516"/>
<polygon fill="midnightblue" stroke="midnightblue" points="657.952,-228.655 649.817,-235.444 660.409,-235.209 657.952,-228.655"/>
</g>
<!-- Node9 -->
<g id="node3" class="node"><title>Node9</title>
<g id="a_node3"><a xlink:href="altair-gui_8h.html" target="_top" xlink:title="Code de la classe MainWindow qui construit l&#39;interface graphique. ">
<polygon fill="white" stroke="black" points="278.5,-112.5 278.5,-142.5 373.5,-142.5 373.5,-112.5 278.5,-112.5"/>
<text text-anchor="start" x="286.5" y="-130.5" font-family="Helvetica,sans-Serif" font-size="10.00">Interface/gui/altair</text>
<text text-anchor="middle" x="326" y="-119.5" font-family="Helvetica,sans-Serif" font-size="10.00">&#45;gui.h</text>
</a>
</g>
</g>
<!-- Node8&#45;&gt;Node9 -->
<g id="edge2" class="edge"><title>Node8&#45;&gt;Node9</title>
<path fill="none" stroke="midnightblue" d="M401.396,-174.276C385.713,-164.754 364.886,-152.11 349.097,-142.523"/>
<polygon fill="midnightblue" stroke="midnightblue" points="399.595,-177.277 409.959,-179.475 403.228,-171.294 399.595,-177.277"/>
</g>
<!-- Node11 -->
<g id="node5" class="node"><title>Node11</title>
<g id="a_node5"><a xlink:href="altair_8cpp.html" target="_top" xlink:title="Code implémentant la classe principale Altair, qui joue le rôle d&#39;agent de l&#39;interface graphique...">
<polygon fill="white" stroke="black" points="277.5,-0.5 277.5,-19.5 390.5,-19.5 390.5,-0.5 277.5,-0.5"/>
<text text-anchor="middle" x="334" y="-7.5" font-family="Helvetica,sans-Serif" font-size="10.00">Interface/gui/altair.cpp</text>
</a>
</g>
</g>
<!-- Node8&#45;&gt;Node11 -->
<g id="edge11" class="edge"><title>Node8&#45;&gt;Node11</title>
<path fill="none" stroke="midnightblue" d="M422.018,-169.288C418.45,-142.381 409.043,-92.0394 386,-56 376.225,-40.7109 359.725,-27.7134 347.933,-19.6761"/>
<polygon fill="midnightblue" stroke="midnightblue" points="418.549,-169.761 423.212,-179.275 425.5,-168.93 418.549,-169.761"/>
</g>
<!-- Node8&#45;&gt;Node13 -->
<g id="edge12" class="edge"><title>Node8&#45;&gt;Node13</title>
<path fill="none" stroke="midnightblue" d="M439.226,-171.76C454.354,-155.922 478.485,-131.446 501,-112 543.552,-75.2497 598.106,-36.5061 622.379,-19.6627"/>
<polygon fill="midnightblue" stroke="midnightblue" points="436.531,-169.517 432.192,-179.183 441.611,-174.332 436.531,-169.517"/>
</g>
<!-- Node10 -->
<g id="node4" class="node"><title>Node10</title>
<g id="a_node4"><a xlink:href="altair_8h.html" target="_top" xlink:title="Code de la classe principale Altair, qui joue le rôle d&#39;agent de l&#39;interface graphique. ">
<polygon fill="white" stroke="black" points="274.5,-56.5 274.5,-75.5 377.5,-75.5 377.5,-56.5 274.5,-56.5"/>
<text text-anchor="middle" x="326" y="-63.5" font-family="Helvetica,sans-Serif" font-size="10.00">Interface/gui/altair.h</text>
</a>
</g>
</g>
<!-- Node9&#45;&gt;Node10 -->
<g id="edge3" class="edge"><title>Node9&#45;&gt;Node10</title>
<path fill="none" stroke="midnightblue" d="M319.355,-102.289C318.993,-92.857 319.565,-82.6548 321.071,-75.6578"/>
<polygon fill="midnightblue" stroke="midnightblue" points="315.877,-102.709 320.16,-112.399 322.855,-102.153 315.877,-102.709"/>
</g>
<!-- Node16 -->
<g id="node10" class="node"><title>Node16</title>
<g id="a_node10"><a xlink:href="_interface_2gui_2main_8cpp.html" target="_top" xlink:title="Lance l&#39;interface graphique en chargeant le bon contexte linguistique et la feuille de style...">
<polygon fill="white" stroke="black" points="143.5,-56.5 143.5,-75.5 256.5,-75.5 256.5,-56.5 143.5,-56.5"/>
<text text-anchor="middle" x="200" y="-63.5" font-family="Helvetica,sans-Serif" font-size="10.00">Interface/gui/main.cpp</text>
</a>
</g>
</g>
<!-- Node9&#45;&gt;Node16 -->
<g id="edge10" class="edge"><title>Node9&#45;&gt;Node16</title>
<path fill="none" stroke="midnightblue" d="M287.002,-108.084C264.115,-97.2763 236.258,-84.1219 218.334,-75.6578"/>
<polygon fill="midnightblue" stroke="midnightblue" points="285.603,-111.294 296.14,-112.399 288.592,-104.964 285.603,-111.294"/>
</g>
<!-- Node10&#45;&gt;Node9 -->
<g id="edge4" class="edge"><title>Node10&#45;&gt;Node9</title>
<path fill="none" stroke="midnightblue" d="M332.307,-85.569C333.026,-94.2328 332.87,-104.377 331.84,-112.399"/>
<polygon fill="midnightblue" stroke="midnightblue" points="335.773,-85.0806 330.929,-75.6578 328.84,-86.0445 335.773,-85.0806"/>
</g>
<!-- Node10&#45;&gt;Node11 -->
<g id="edge5" class="edge"><title>Node10&#45;&gt;Node11</title>
<path fill="none" stroke="midnightblue" d="M328.8,-46.1005C330.128,-37.1357 331.651,-26.8579 332.704,-19.7511"/>
<polygon fill="midnightblue" stroke="midnightblue" points="325.324,-45.678 327.321,-56.083 332.249,-46.7039 325.324,-45.678"/>
</g>
<!-- Node12 -->
<g id="node6" class="node"><title>Node12</title>
<g id="a_node6"><a xlink:href="mainwindow_8cpp.html" target="_top" xlink:title="Code de l&#39;implémentation de la classe MainWindow de l&#39;interface graphique. ">
<polygon fill="white" stroke="black" points="409,-0.5 409,-19.5 555,-19.5 555,-0.5 409,-0.5"/>
<text text-anchor="middle" x="482" y="-7.5" font-family="Helvetica,sans-Serif" font-size="10.00">Interface/gui/mainwindow.cpp</text>
</a>
</g>
</g>
<!-- Node10&#45;&gt;Node12 -->
<g id="edge6" class="edge"><title>Node10&#45;&gt;Node12</title>
<path fill="none" stroke="midnightblue" d="M360.17,-53.172C389.544,-43.0039 431.198,-28.5852 457.397,-19.5164"/>
<polygon fill="midnightblue" stroke="midnightblue" points="359.024,-49.8649 350.719,-56.4435 361.313,-56.4798 359.024,-49.8649"/>
</g>
<!-- Node10&#45;&gt;Node13 -->
<g id="edge7" class="edge"><title>Node10&#45;&gt;Node13</title>
<path fill="none" stroke="midnightblue" d="M385.144,-54.6642C443.539,-44.4592 531.779,-29.0386 586.267,-19.5164"/>
<polygon fill="midnightblue" stroke="midnightblue" points="384.21,-51.2742 374.962,-56.4435 385.415,-58.1697 384.21,-51.2742"/>
</g>
<!-- Node14 -->
<g id="node8" class="node"><title>Node14</title>
<g id="a_node8"><a xlink:href="run_8cpp.html" target="_top" xlink:title="Implémentation de la classe Altair agent de la classe MainWindow qui construit l&#39;interface graphique...">
<polygon fill="white" stroke="black" points="0,-0.5 0,-19.5 106,-19.5 106,-0.5 0,-0.5"/>
<text text-anchor="middle" x="53" y="-7.5" font-family="Helvetica,sans-Serif" font-size="10.00">Interface/gui/run.cpp</text>
</a>
</g>
</g>
<!-- Node10&#45;&gt;Node14 -->
<g id="edge8" class="edge"><title>Node10&#45;&gt;Node14</title>
<path fill="none" stroke="midnightblue" d="M272.782,-54.4734C221.187,-44.2678 143.896,-28.9794 96.0553,-19.5164"/>
<polygon fill="midnightblue" stroke="midnightblue" points="272.253,-57.9365 282.742,-56.4435 273.612,-51.0696 272.253,-57.9365"/>
</g>
<!-- Node15 -->
<g id="node9" class="node"><title>Node15</title>
<g id="a_node9"><a xlink:href="xmlparser_8cpp.html" target="_top" xlink:title="Implémentation de la classe Altair agent de la classe MainWindow qui construit l&#39;interface graphique...">
<polygon fill="white" stroke="black" points="124.5,-0.5 124.5,-19.5 259.5,-19.5 259.5,-0.5 124.5,-0.5"/>
<text text-anchor="middle" x="192" y="-7.5" font-family="Helvetica,sans-Serif" font-size="10.00">Interface/gui/xmlparser.cpp</text>
</a>
</g>
</g>
<!-- Node10&#45;&gt;Node15 -->
<g id="edge9" class="edge"><title>Node10&#45;&gt;Node15</title>
<path fill="none" stroke="midnightblue" d="M295.323,-52.6377C270.177,-42.504 235.246,-28.4274 213.133,-19.5164"/>
<polygon fill="midnightblue" stroke="midnightblue" points="294.184,-55.952 304.767,-56.4435 296.8,-49.4594 294.184,-55.952"/>
</g>
<!-- Node17&#45;&gt;Node12 -->
<g id="edge14" class="edge"><title>Node17&#45;&gt;Node12</title>
<path fill="none" stroke="midnightblue" d="M542.631,-175.342C527.395,-168.194 510.945,-157.686 501,-143 474.257,-103.508 478.251,-42.1005 480.831,-19.6197"/>
<polygon fill="midnightblue" stroke="midnightblue" points="541.325,-178.59 551.891,-179.365 544.115,-172.17 541.325,-178.59"/>
</g>
<!-- Node18 -->
<g id="node12" class="node"><title>Node18</title>
<g id="a_node12"><a xlink:href="matricules_8cpp.html" target="_top" xlink:title="Implémentation de la classe MatriculeInput, qui construit un dialogue d&#39;extraction des bulletins...">
<polygon fill="white" stroke="black" points="510.5,-118 510.5,-137 647.5,-137 647.5,-118 510.5,-118"/>
<text text-anchor="middle" x="579" y="-125" font-family="Helvetica,sans-Serif" font-size="10.00">Interface/gui/matricules.cpp</text>
</a>
</g>
</g>
<!-- Node17&#45;&gt;Node18 -->
<g id="edge15" class="edge"><title>Node17&#45;&gt;Node18</title>
<path fill="none" stroke="midnightblue" d="M579,-169.317C579,-158.496 579,-145.398 579,-137.009"/>
<polygon fill="midnightblue" stroke="midnightblue" points="575.5,-169.475 579,-179.475 582.5,-169.475 575.5,-169.475"/>
</g>
</g>
</svg>
        <g id="navigator" transform="translate(0 0)" fill="#404254">
                <rect fill="#f2f5e9" fill-opacity="0.5" stroke="#606060" stroke-width=".5" x="0" y="0" width="60" height="60"/>
                <use id="zoomplus" xlink:href="#zoomPlus" x="17" y="9" onmousedown="handleZoom(evt,'in')"/>
                <use id="zoomminus" xlink:href="#zoomMin" x="42" y="9" onmousedown="handleZoom(evt,'out')"/>
                <use id="reset" xlink:href="#resetDef" x="30" y="36" onmousedown="handleReset()"/>
                <g id="arrowUp" xlink:href="#dirArrow" transform="translate(30 24)" onmousedown="handlePan(0,-1)">
                  <use xlink:href="#rim" fill="#404040">
                        <set attributeName="fill" to="#808080" begin="arrowUp.mouseover" end="arrowUp.mouseout"/>
                  </use>
                  <path fill="none" stroke="white" stroke-width="1.5" d="M0,-3.0v7 M-2.5,-0.5L0,-3.0L2.5,-0.5"/>
                </g>
                <g id="arrowRight" xlink:href="#dirArrow" transform="rotate(90) translate(36 -43)" onmousedown="handlePan(1,0)">
                  <use xlink:href="#rim" fill="#404040">
                        <set attributeName="fill" to="#808080" begin="arrowRight.mouseover" end="arrowRight.mouseout"/>
                  </use>
                  <path fill="none" stroke="white" stroke-width="1.5" d="M0,-3.0v7 M-2.5,-0.5L0,-3.0L2.5,-0.5"/>
                </g>
                <g id="arrowDown" xlink:href="#dirArrow" transform="rotate(180) translate(-30 -48)" onmousedown="handlePan(0,1)">
                  <use xlink:href="#rim" fill="#404040">
                        <set attributeName="fill" to="#808080" begin="arrowDown.mouseover" end="arrowDown.mouseout"/>
                  </use>
                  <path fill="none" stroke="white" stroke-width="1.5" d="M0,-3.0v7 M-2.5,-0.5L0,-3.0L2.5,-0.5"/>
                </g>
                <g id="arrowLeft" xlink:href="#dirArrow" transform="rotate(270) translate(-36 17)" onmousedown="handlePan(-1,0)">
                  <use xlink:href="#rim" fill="#404040">
                        <set attributeName="fill" to="#808080" begin="arrowLeft.mouseover" end="arrowLeft.mouseout"/>
                  </use>
                  <path fill="none" stroke="white" stroke-width="1.5" d="M0,-3.0v7 M-2.5,-0.5L0,-3.0L2.5,-0.5"/>
                </g>
        </g>
        <svg viewBox="0 0 15 15" width="100%" height="30px" preserveAspectRatio="xMaxYMin meet">
         <g id="arrow_out" transform="scale(0.3 0.3)">
          <a xlink:href="flineframe_8h__dep__incl_org.svg" target="_base">
           <rect id="button" ry="5" rx="5" y="6" x="6" height="38" width="38"
                fill="#f2f5e9" fill-opacity="0.5" stroke="#606060" stroke-width="1.0"/>
           <path id="arrow"
             d="M 11.500037,31.436501 C 11.940474,20.09759 22.043105,11.32322 32.158766,21.979434 L 37.068811,17.246167 C 37.068811,17.246167 37.088388,32 37.088388,32 L 22.160133,31.978069 C 22.160133,31.978069 26.997745,27.140456 26.997745,27.140456 C 18.528582,18.264221 13.291696,25.230495 11.500037,31.436501 z"
             style="fill:#404040;"/>
          </a>
         </g>
        </svg>
</svg>
