<?xml version="1.0" encoding="UTF-8" standalone="no"?>
<!DOCTYPE svg PUBLIC "-//W3C//DTD SVG 1.1//EN"
 "http://www.w3.org/Graphics/SVG/1.1/DTD/svg11.dtd">
<!-- Generated by graphviz version 2.38.0 (20140413.2041)
 -->
<!-- Title: fwidgets_lib/flistframe.cpp Pages: 1 -->
<svg width="543pt" height="308pt"
 viewBox="0.00 0.00 543.00 308.00" xmlns="http://www.w3.org/2000/svg" xmlns:xlink="http://www.w3.org/1999/xlink">
<g id="graph0" class="graph" transform="scale(1 1) rotate(0) translate(4 304)">
<title>fwidgets_lib/flistframe.cpp</title>
<polygon fill="white" stroke="none" points="-4,4 -4,-304 539,-304 539,4 -4,4"/>
<!-- Node0 -->
<g id="node1" class="node"><title>Node0</title>
<polygon fill="#bfbfbf" stroke="black" points="316.5,-280.5 316.5,-299.5 453.5,-299.5 453.5,-280.5 316.5,-280.5"/>
<text text-anchor="middle" x="385" y="-287.5" font-family="Helvetica,sans-Serif" font-size="10.00">fwidgets_lib/flistframe.cpp</text>
</g>
<!-- Node1 -->
<g id="node2" class="node"><title>Node1</title>
<g id="a_node2"><a xlink:href="flistframe_8h.html" target="_top" xlink:title="flistframe.h">
<polygon fill="white" stroke="black" points="230,-224.5 230,-243.5 298,-243.5 298,-224.5 230,-224.5"/>
<text text-anchor="middle" x="264" y="-231.5" font-family="Helvetica,sans-Serif" font-size="10.00">flistframe.h</text>
</a>
</g>
</g>
<!-- Node0&#45;&gt;Node1 -->
<g id="edge1" class="edge"><title>Node0&#45;&gt;Node1</title>
<path fill="none" stroke="midnightblue" d="M365.827,-280.444C346.091,-271.636 315.115,-257.812 292.507,-247.722"/>
<polygon fill="midnightblue" stroke="midnightblue" points="293.641,-244.396 283.083,-243.516 290.789,-250.788 293.641,-244.396"/>
</g>
<!-- Node12 -->
<g id="node13" class="node"><title>Node12</title>
<g id="a_node13"><a xlink:href="custom_8h.html" target="_top" xlink:title="Personnalisation de l&#39;onglet central par des onglets à droite des onglets dédiés aux fichiers importé...">
<polygon fill="white" stroke="black" points="477,-112.5 477,-131.5 535,-131.5 535,-112.5 477,-112.5"/>
<text text-anchor="middle" x="506" y="-119.5" font-family="Helvetica,sans-Serif" font-size="10.00">custom.h</text>
</a>
</g>
</g>
<!-- Node0&#45;&gt;Node12 -->
<g id="edge15" class="edge"><title>Node0&#45;&gt;Node12</title>
<path fill="none" stroke="midnightblue" d="M392.108,-280.248C406.092,-262.934 437.991,-222.955 463,-188 474.404,-172.061 486.668,-153.35 495.169,-140.107"/>
<polygon fill="midnightblue" stroke="midnightblue" points="498.202,-141.861 500.628,-131.548 492.3,-138.097 498.202,-141.861"/>
</g>
<!-- Node2 -->
<g id="node3" class="node"><title>Node2</title>
<g id="a_node3"><a xlink:href="fwidgets_8h.html" target="_top" xlink:title="fwidgets.h">
<polygon fill="white" stroke="black" points="61,-112.5 61,-131.5 125,-131.5 125,-112.5 61,-112.5"/>
<text text-anchor="middle" x="93" y="-119.5" font-family="Helvetica,sans-Serif" font-size="10.00">fwidgets.h</text>
</a>
</g>
</g>
<!-- Node1&#45;&gt;Node2 -->
<g id="edge2" class="edge"><title>Node1&#45;&gt;Node2</title>
<path fill="none" stroke="midnightblue" d="M229.706,-232.704C194.203,-230.478 139.599,-221.354 108,-188 96.4358,-175.793 93.1639,-156.525 92.4982,-142.132"/>
<polygon fill="midnightblue" stroke="midnightblue" points="95.9959,-141.833 92.4143,-131.862 88.9962,-141.89 95.9959,-141.833"/>
</g>
<!-- Node4 -->
<g id="node5" class="node"><title>Node4</title>
<g id="a_node5"><a xlink:href="fstring_8h.html" target="_top" xlink:title="fstring.h">
<polygon fill="white" stroke="black" points="422,-56.5 422,-75.5 476,-75.5 476,-56.5 422,-56.5"/>
<text text-anchor="middle" x="449" y="-63.5" font-family="Helvetica,sans-Serif" font-size="10.00">fstring.h</text>
</a>
</g>
</g>
<!-- Node1&#45;&gt;Node4 -->
<g id="edge8" class="edge"><title>Node1&#45;&gt;Node4</title>
<path fill="none" stroke="midnightblue" d="M298.101,-228.178C341.391,-221.339 412.559,-207.453 430,-188 455.349,-159.727 454.578,-112.021 451.793,-85.7509"/>
<polygon fill="midnightblue" stroke="midnightblue" points="455.24,-85.1059 450.503,-75.6289 448.296,-85.9913 455.24,-85.1059"/>
</g>
<!-- Node8 -->
<g id="node9" class="node"><title>Node8</title>
<g id="a_node9"><a xlink:href="tools_8h.html" target="_top" xlink:title="tools.h">
<polygon fill="white" stroke="black" points="13.5,-168.5 13.5,-187.5 60.5,-187.5 60.5,-168.5 13.5,-168.5"/>
<text text-anchor="middle" x="37" y="-175.5" font-family="Helvetica,sans-Serif" font-size="10.00">tools.h</text>
</a>
</g>
</g>
<!-- Node1&#45;&gt;Node8 -->
<g id="edge9" class="edge"><title>Node1&#45;&gt;Node8</title>
<path fill="none" stroke="midnightblue" d="M229.524,-224.799C186.441,-214.55 113.202,-197.127 70.555,-186.982"/>
<polygon fill="midnightblue" stroke="midnightblue" points="71.2024,-183.539 60.6639,-184.629 69.5824,-190.349 71.2024,-183.539"/>
</g>
<!-- Node9 -->
<g id="node10" class="node"><title>Node9</title>
<polygon fill="white" stroke="#bfbfbf" points="117,-168.5 117,-187.5 193,-187.5 193,-168.5 117,-168.5"/>
<text text-anchor="middle" x="155" y="-175.5" font-family="Helvetica,sans-Serif" font-size="10.00">QToolButton</text>
</g>
<!-- Node1&#45;&gt;Node9 -->
<g id="edge12" class="edge"><title>Node1&#45;&gt;Node9</title>
<path fill="none" stroke="midnightblue" d="M246.487,-224.324C228.928,-215.625 201.669,-202.12 181.469,-192.113"/>
<polygon fill="midnightblue" stroke="midnightblue" points="182.984,-188.958 172.469,-187.655 179.876,-195.23 182.984,-188.958"/>
</g>
<!-- Node10 -->
<g id="node11" class="node"><title>Node10</title>
<polygon fill="white" stroke="#bfbfbf" points="211.5,-168.5 211.5,-187.5 316.5,-187.5 316.5,-168.5 211.5,-168.5"/>
<text text-anchor="middle" x="264" y="-175.5" font-family="Helvetica,sans-Serif" font-size="10.00">QFileSystemModel</text>
</g>
<!-- Node1&#45;&gt;Node10 -->
<g id="edge13" class="edge"><title>Node1&#45;&gt;Node10</title>
<path fill="none" stroke="midnightblue" d="M264,-224.083C264,-217.006 264,-206.861 264,-197.986"/>
<polygon fill="midnightblue" stroke="midnightblue" points="267.5,-197.751 264,-187.751 260.5,-197.751 267.5,-197.751"/>
</g>
<!-- Node11 -->
<g id="node12" class="node"><title>Node11</title>
<polygon fill="white" stroke="#bfbfbf" points="335,-168.5 335,-187.5 421,-187.5 421,-168.5 335,-168.5"/>
<text text-anchor="middle" x="378" y="-175.5" font-family="Helvetica,sans-Serif" font-size="10.00">QMessageBox</text>
</g>
<!-- Node1&#45;&gt;Node11 -->
<g id="edge14" class="edge"><title>Node1&#45;&gt;Node11</title>
<path fill="none" stroke="midnightblue" d="M282.064,-224.444C300.575,-215.675 329.581,-201.935 350.855,-191.858"/>
<polygon fill="midnightblue" stroke="midnightblue" points="352.482,-194.96 360.021,-187.516 349.485,-188.634 352.482,-194.96"/>
</g>
<!-- Node3 -->
<g id="node4" class="node"><title>Node3</title>
<polygon fill="white" stroke="#bfbfbf" points="0,-56.5 0,-75.5 66,-75.5 66,-56.5 0,-56.5"/>
<text text-anchor="middle" x="33" y="-63.5" font-family="Helvetica,sans-Serif" font-size="10.00">QtWidgets</text>
</g>
<!-- Node2&#45;&gt;Node3 -->
<g id="edge3" class="edge"><title>Node2&#45;&gt;Node3</title>
<path fill="none" stroke="midnightblue" d="M83.36,-112.324C74.4904,-104.341 61.1253,-92.3128 50.3921,-82.6529"/>
<polygon fill="midnightblue" stroke="midnightblue" points="52.5898,-79.922 42.8154,-75.8339 47.907,-85.1251 52.5898,-79.922"/>
</g>
<!-- Node2&#45;&gt;Node4 -->
<g id="edge4" class="edge"><title>Node2&#45;&gt;Node4</title>
<path fill="none" stroke="midnightblue" d="M125.221,-116.113C191.155,-106.111 341.162,-83.3575 411.405,-72.7026"/>
<polygon fill="midnightblue" stroke="midnightblue" points="412.208,-76.1209 421.57,-71.1607 411.158,-69.2001 412.208,-76.1209"/>
</g>
<!-- Node7 -->
<g id="node8" class="node"><title>Node7</title>
<g id="a_node8"><a xlink:href="tags_8h.html" target="_top" xlink:title="tags.h">
<polygon fill="white" stroke="black" points="84.5,-56.5 84.5,-75.5 129.5,-75.5 129.5,-56.5 84.5,-56.5"/>
<text text-anchor="middle" x="107" y="-63.5" font-family="Helvetica,sans-Serif" font-size="10.00">tags.h</text>
</a>
</g>
</g>
<!-- Node2&#45;&gt;Node7 -->
<g id="edge7" class="edge"><title>Node2&#45;&gt;Node7</title>
<path fill="none" stroke="midnightblue" d="M95.3118,-112.083C97.167,-104.927 99.8353,-94.6353 102.154,-85.6911"/>
<polygon fill="midnightblue" stroke="midnightblue" points="105.609,-86.3094 104.731,-75.7511 98.8335,-84.5527 105.609,-86.3094"/>
</g>
<!-- Node5 -->
<g id="node6" class="node"><title>Node5</title>
<polygon fill="white" stroke="#bfbfbf" points="387.5,-0.5 387.5,-19.5 438.5,-19.5 438.5,-0.5 387.5,-0.5"/>
<text text-anchor="middle" x="413" y="-7.5" font-family="Helvetica,sans-Serif" font-size="10.00">QtCore</text>
</g>
<!-- Node4&#45;&gt;Node5 -->
<g id="edge5" class="edge"><title>Node4&#45;&gt;Node5</title>
<path fill="none" stroke="midnightblue" d="M443.055,-56.083C438.023,-48.5341 430.663,-37.4948 424.487,-28.2298"/>
<polygon fill="midnightblue" stroke="midnightblue" points="427.293,-26.1301 418.834,-19.7511 421.469,-30.0131 427.293,-26.1301"/>
</g>
<!-- Node6 -->
<g id="node7" class="node"><title>Node6</title>
<g id="a_node7"><a xlink:href="enums_8h.html" target="_top" xlink:title="Enumérations et constantes permettant de paramétrer les fwidgets. ">
<polygon fill="white" stroke="black" points="457,-0.5 457,-19.5 513,-19.5 513,-0.5 457,-0.5"/>
<text text-anchor="middle" x="485" y="-7.5" font-family="Helvetica,sans-Serif" font-size="10.00">enums.h</text>
</a>
</g>
</g>
<!-- Node4&#45;&gt;Node6 -->
<g id="edge6" class="edge"><title>Node4&#45;&gt;Node6</title>
<path fill="none" stroke="midnightblue" d="M454.945,-56.083C459.977,-48.5341 467.337,-37.4948 473.513,-28.2298"/>
<polygon fill="midnightblue" stroke="midnightblue" points="476.531,-30.0131 479.166,-19.7511 470.707,-26.1301 476.531,-30.0131"/>
</g>
<!-- Node8&#45;&gt;Node2 -->
<g id="edge11" class="edge"><title>Node8&#45;&gt;Node2</title>
<path fill="none" stroke="midnightblue" d="M45.9974,-168.324C54.1944,-160.42 66.5055,-148.548 76.472,-138.938"/>
<polygon fill="midnightblue" stroke="midnightblue" points="79.0699,-141.295 83.8389,-131.834 74.211,-136.256 79.0699,-141.295"/>
</g>
<!-- Node8&#45;&gt;Node3 -->
<g id="edge10" class="edge"><title>Node8&#45;&gt;Node3</title>
<path fill="none" stroke="midnightblue" d="M36.6861,-168.368C36.0406,-150.617 34.5515,-109.666 33.6763,-85.5974"/>
<polygon fill="midnightblue" stroke="midnightblue" points="37.1736,-85.4576 33.3124,-75.5914 30.1782,-85.712 37.1736,-85.4576"/>
</g>
<!-- Node12&#45;&gt;Node4 -->
<g id="edge16" class="edge"><title>Node12&#45;&gt;Node4</title>
<path fill="none" stroke="midnightblue" d="M496.842,-112.324C488.499,-104.42 475.968,-92.5482 465.823,-82.9377"/>
<polygon fill="midnightblue" stroke="midnightblue" points="467.991,-80.1705 458.325,-75.8339 463.177,-85.2522 467.991,-80.1705"/>
</g>
</g>
</svg>
