<?xml version="1.0" encoding="UTF-8" standalone="no"?>
<!DOCTYPE svg PUBLIC "-//W3C//DTD SVG 1.1//EN"
 "http://www.w3.org/Graphics/SVG/1.1/DTD/svg11.dtd">
<!-- Generated by graphviz version 2.38.0 (20140413.2041)
 -->
<!-- Title: fwidgets_lib/flistframe.h Pages: 1 -->
<svg width="827pt" height="207pt"
 viewBox="0.00 0.00 827.00 207.00" xmlns="http://www.w3.org/2000/svg" xmlns:xlink="http://www.w3.org/1999/xlink">
<g id="graph0" class="graph" transform="scale(1 1) rotate(0) translate(4 203)">
<title>fwidgets_lib/flistframe.h</title>
<polygon fill="white" stroke="none" points="-4,4 -4,-203 823,-203 823,4 -4,4"/>
<!-- Node11 -->
<g id="node1" class="node"><title>Node11</title>
<polygon fill="#bfbfbf" stroke="black" points="401.5,-179.5 401.5,-198.5 521.5,-198.5 521.5,-179.5 401.5,-179.5"/>
<text text-anchor="middle" x="461.5" y="-186.5" font-family="Helvetica,sans-Serif" font-size="10.00">fwidgets_lib/flistframe.h</text>
</g>
<!-- Node12 -->
<g id="node2" class="node"><title>Node12</title>
<g id="a_node2"><a xlink:href="altair_8h.html" target="_top" xlink:title="Code de la classe principale Altair, qui joue le rôle d&#39;agent de l&#39;interface graphique. ">
<polygon fill="white" stroke="black" points="275,-123.5 275,-142.5 378,-142.5 378,-123.5 275,-123.5"/>
<text text-anchor="middle" x="326.5" y="-130.5" font-family="Helvetica,sans-Serif" font-size="10.00">Interface/gui/altair.h</text>
</a>
</g>
</g>
<!-- Node11&#45;&gt;Node12 -->
<g id="edge1" class="edge"><title>Node11&#45;&gt;Node12</title>
<path fill="none" stroke="midnightblue" d="M430.594,-175.638C405.26,-165.504 370.069,-151.427 347.791,-142.516"/>
<polygon fill="midnightblue" stroke="midnightblue" points="429.524,-178.979 440.109,-179.444 432.124,-172.48 429.524,-178.979"/>
</g>
<!-- Node20 -->
<g id="node10" class="node"><title>Node20</title>
<g id="a_node10"><a xlink:href="flistframe_8cpp.html" target="_top" xlink:title="fwidgets_lib/flistframe.cpp">
<polygon fill="white" stroke="black" points="396,-123.5 396,-142.5 527,-142.5 527,-123.5 396,-123.5"/>
<text text-anchor="middle" x="461.5" y="-130.5" font-family="Helvetica,sans-Serif" font-size="10.00">fwidgets_lib/flistframe.cpp</text>
</a>
</g>
</g>
<!-- Node11&#45;&gt;Node20 -->
<g id="edge10" class="edge"><title>Node11&#45;&gt;Node20</title>
<path fill="none" stroke="midnightblue" d="M461.5,-168.805C461.5,-159.91 461.5,-149.78 461.5,-142.751"/>
<polygon fill="midnightblue" stroke="midnightblue" points="458,-169.083 461.5,-179.083 465,-169.083 458,-169.083"/>
</g>
<!-- Node21 -->
<g id="node11" class="node"><title>Node21</title>
<g id="a_node11"><a xlink:href="fwidgets_8cpp.html" target="_top" xlink:title="fwidgets_lib/fwidgets.cpp">
<polygon fill="white" stroke="black" points="545,-123.5 545,-142.5 672,-142.5 672,-123.5 545,-123.5"/>
<text text-anchor="middle" x="608.5" y="-130.5" font-family="Helvetica,sans-Serif" font-size="10.00">fwidgets_lib/fwidgets.cpp</text>
</a>
</g>
</g>
<!-- Node11&#45;&gt;Node21 -->
<g id="edge11" class="edge"><title>Node11&#45;&gt;Node21</title>
<path fill="none" stroke="midnightblue" d="M494.423,-175.906C522.06,-165.754 560.844,-151.506 585.316,-142.516"/>
<polygon fill="midnightblue" stroke="midnightblue" points="492.972,-172.71 484.793,-179.444 495.386,-179.281 492.972,-172.71"/>
</g>
<!-- Node13 -->
<g id="node3" class="node"><title>Node13</title>
<g id="a_node3"><a xlink:href="altair-gui_8h.html" target="_top" xlink:title="Code de la classe MainWindow qui construit l&#39;interface graphique. ">
<polygon fill="white" stroke="black" points="9,-56.5 9,-86.5 104,-86.5 104,-56.5 9,-56.5"/>
<text text-anchor="start" x="17" y="-74.5" font-family="Helvetica,sans-Serif" font-size="10.00">Interface/gui/altair</text>
<text text-anchor="middle" x="56.5" y="-63.5" font-family="Helvetica,sans-Serif" font-size="10.00">&#45;gui.h</text>
</a>
</g>
</g>
<!-- Node12&#45;&gt;Node13 -->
<g id="edge2" class="edge"><title>Node12&#45;&gt;Node13</title>
<path fill="none" stroke="midnightblue" d="M266.846,-121.551C221.901,-112.789 159.086,-99.7035 104.5,-87 103.804,-86.838 103.103,-86.674 102.399,-86.5082"/>
<polygon fill="midnightblue" stroke="midnightblue" points="266.243,-124.999 276.726,-123.463 267.573,-118.127 266.243,-124.999"/>
</g>
<!-- Node15 -->
<g id="node5" class="node"><title>Node15</title>
<g id="a_node5"><a xlink:href="altair_8cpp.html" target="_top" xlink:title="Code implémentant la classe principale Altair, qui joue le rôle d&#39;agent de l&#39;interface graphique...">
<polygon fill="white" stroke="black" points="122,-62 122,-81 235,-81 235,-62 122,-62"/>
<text text-anchor="middle" x="178.5" y="-69" font-family="Helvetica,sans-Serif" font-size="10.00">Interface/gui/altair.cpp</text>
</a>
</g>
</g>
<!-- Node12&#45;&gt;Node15 -->
<g id="edge5" class="edge"><title>Node12&#45;&gt;Node15</title>
<path fill="none" stroke="midnightblue" d="M295.734,-119.631C266.981,-108.072 224.815,-91.12 199.665,-81.0091"/>
<polygon fill="midnightblue" stroke="midnightblue" points="294.711,-122.992 305.295,-123.475 297.322,-116.498 294.711,-122.992"/>
</g>
<!-- Node16 -->
<g id="node6" class="node"><title>Node16</title>
<g id="a_node6"><a xlink:href="mainwindow_8cpp.html" target="_top" xlink:title="Code de l&#39;implémentation de la classe MainWindow de l&#39;interface graphique. ">
<polygon fill="white" stroke="black" points="253.5,-62 253.5,-81 399.5,-81 399.5,-62 253.5,-62"/>
<text text-anchor="middle" x="326.5" y="-69" font-family="Helvetica,sans-Serif" font-size="10.00">Interface/gui/mainwindow.cpp</text>
</a>
</g>
</g>
<!-- Node12&#45;&gt;Node16 -->
<g id="edge6" class="edge"><title>Node12&#45;&gt;Node16</title>
<path fill="none" stroke="midnightblue" d="M326.5,-113.317C326.5,-102.496 326.5,-89.398 326.5,-81.0091"/>
<polygon fill="midnightblue" stroke="midnightblue" points="323,-113.475 326.5,-123.475 330,-113.475 323,-113.475"/>
</g>
<!-- Node17 -->
<g id="node7" class="node"><title>Node17</title>
<g id="a_node7"><a xlink:href="options_8cpp.html" target="_top" xlink:title="Implémentation des classes du dialogue d&#39;options. ">
<polygon fill="white" stroke="black" points="417.5,-62 417.5,-81 541.5,-81 541.5,-62 417.5,-62"/>
<text text-anchor="middle" x="479.5" y="-69" font-family="Helvetica,sans-Serif" font-size="10.00">Interface/gui/options.cpp</text>
</a>
</g>
</g>
<!-- Node12&#45;&gt;Node17 -->
<g id="edge7" class="edge"><title>Node12&#45;&gt;Node17</title>
<path fill="none" stroke="midnightblue" d="M357.917,-119.782C387.649,-108.22 431.507,-91.1641 457.619,-81.0091"/>
<polygon fill="midnightblue" stroke="midnightblue" points="356.473,-116.589 348.421,-123.475 359.01,-123.113 356.473,-116.589"/>
</g>
<!-- Node18 -->
<g id="node8" class="node"><title>Node18</title>
<g id="a_node8"><a xlink:href="run_8cpp.html" target="_top" xlink:title="Implémentation de la classe Altair agent de la classe MainWindow qui construit l&#39;interface graphique...">
<polygon fill="white" stroke="black" points="559.5,-62 559.5,-81 665.5,-81 665.5,-62 559.5,-62"/>
<text text-anchor="middle" x="612.5" y="-69" font-family="Helvetica,sans-Serif" font-size="10.00">Interface/gui/run.cpp</text>
</a>
</g>
</g>
<!-- Node12&#45;&gt;Node18 -->
<g id="edge8" class="edge"><title>Node12&#45;&gt;Node18</title>
<path fill="none" stroke="midnightblue" d="M381.145,-121.521C426.562,-112.692 492.843,-99.5304 550.5,-87 559.034,-85.1454 568.205,-83.0546 576.807,-81.05"/>
<polygon fill="midnightblue" stroke="midnightblue" points="380.362,-118.108 371.211,-123.448 381.695,-124.98 380.362,-118.108"/>
</g>
<!-- Node19 -->
<g id="node9" class="node"><title>Node19</title>
<g id="a_node9"><a xlink:href="xmlparser_8cpp.html" target="_top" xlink:title="Implémentation de la classe Altair agent de la classe MainWindow qui construit l&#39;interface graphique...">
<polygon fill="white" stroke="black" points="684,-62 684,-81 819,-81 819,-62 684,-62"/>
<text text-anchor="middle" x="751.5" y="-69" font-family="Helvetica,sans-Serif" font-size="10.00">Interface/gui/xmlparser.cpp</text>
</a>
</g>
</g>
<!-- Node12&#45;&gt;Node19 -->
<g id="edge9" class="edge"><title>Node12&#45;&gt;Node19</title>
<path fill="none" stroke="midnightblue" d="M388.296,-122.925C516.592,-105.669 550.72,-106.399 674.5,-87 685.654,-85.2519 697.67,-83.1131 708.816,-81.0207"/>
<polygon fill="midnightblue" stroke="midnightblue" points="387.513,-119.499 378.073,-124.31 388.453,-126.435 387.513,-119.499"/>
</g>
<!-- Node13&#45;&gt;Node12 -->
<g id="edge3" class="edge"><title>Node13&#45;&gt;Node12</title>
<path fill="none" stroke="midnightblue" d="M114.072,-85.0011C116.928,-85.6889 119.75,-86.3599 122.5,-87 181.215,-100.664 249.449,-114.77 290.372,-123.463"/>
<polygon fill="midnightblue" stroke="midnightblue" points="114.822,-81.5817 104.278,-82.6185 113.168,-88.3833 114.822,-81.5817"/>
</g>
<!-- Node14 -->
<g id="node4" class="node"><title>Node14</title>
<g id="a_node4"><a xlink:href="_interface_2gui_2main_8cpp.html" target="_top" xlink:title="Lance l&#39;interface graphique en chargeant le bon contexte linguistique et la feuille de style...">
<polygon fill="white" stroke="black" points="0,-0.5 0,-19.5 113,-19.5 113,-0.5 0,-0.5"/>
<text text-anchor="middle" x="56.5" y="-7.5" font-family="Helvetica,sans-Serif" font-size="10.00">Interface/gui/main.cpp</text>
</a>
</g>
</g>
<!-- Node13&#45;&gt;Node14 -->
<g id="edge4" class="edge"><title>Node13&#45;&gt;Node14</title>
<path fill="none" stroke="midnightblue" d="M56.5,-46.2892C56.5,-36.857 56.5,-26.6548 56.5,-19.6578"/>
<polygon fill="midnightblue" stroke="midnightblue" points="53.0001,-46.3993 56.5,-56.3993 60.0001,-46.3994 53.0001,-46.3993"/>
</g>
</g>
</svg>
