<?xml version="1.0" encoding="UTF-8" standalone="no"?>
<!DOCTYPE svg PUBLIC "-//W3C//DTD SVG 1.1//EN"
 "http://www.w3.org/Graphics/SVG/1.1/DTD/svg11.dtd">
<!-- Generated by graphviz version 2.38.0 (20140413.2041)
 -->
<!-- Title: finalise_macro Pages: 1 -->
<svg width="530pt" height="28pt"
 viewBox="0.00 0.00 530.00 28.00" xmlns="http://www.w3.org/2000/svg" xmlns:xlink="http://www.w3.org/1999/xlink">
<g id="graph0" class="graph" transform="scale(1 1) rotate(0) translate(4 24)">
<title>finalise_macro</title>
<polygon fill="white" stroke="none" points="-4,4 -4,-24 526,-24 526,4 -4,4"/>
<!-- Node5 -->
<g id="node1" class="node"><title>Node5</title>
<polygon fill="#bfbfbf" stroke="black" points="0,-0.5 0,-19.5 85,-19.5 85,-0.5 0,-0.5"/>
<text text-anchor="middle" x="42.5" y="-7.5" font-family="Helvetica,sans-Serif" font-size="10.00">finalise_macro</text>
</g>
<!-- Node6 -->
<g id="node2" class="node"><title>Node6</title>
<g id="a_node2"><a xlink:href="flistframe_8cpp.html#a8ce4ab3e25940112701a829eea4dc8db" target="_top" xlink:title="finalise_macro">
<polygon fill="white" stroke="black" points="121,-0.5 121,-19.5 206,-19.5 206,-0.5 121,-0.5"/>
<text text-anchor="middle" x="163.5" y="-7.5" font-family="Helvetica,sans-Serif" font-size="10.00">finalise_macro</text>
</a>
</g>
</g>
<!-- Node5&#45;&gt;Node6 -->
<g id="edge1" class="edge"><title>Node5&#45;&gt;Node6</title>
<path fill="none" stroke="midnightblue" d="M85.1204,-10C93.3162,-10 102.011,-10 110.499,-10"/>
<polygon fill="midnightblue" stroke="midnightblue" points="110.702,-13.5001 120.702,-10 110.702,-6.5001 110.702,-13.5001"/>
</g>
<!-- Node7 -->
<g id="node3" class="node"><title>Node7</title>
<g id="a_node3"><a xlink:href="class_f_list_frame.html#a5c6ce884a0169251e359364921d1f89c" target="_top" xlink:title="FListFrame::addNewTab">
<polygon fill="white" stroke="black" points="242,-0.5 242,-19.5 373,-19.5 373,-0.5 242,-0.5"/>
<text text-anchor="middle" x="307.5" y="-7.5" font-family="Helvetica,sans-Serif" font-size="10.00">FListFrame::addNewTab</text>
</a>
</g>
</g>
<!-- Node6&#45;&gt;Node7 -->
<g id="edge2" class="edge"><title>Node6&#45;&gt;Node7</title>
<path fill="none" stroke="midnightblue" d="M206.337,-10C214.334,-10 222.928,-10 231.6,-10"/>
<polygon fill="midnightblue" stroke="midnightblue" points="231.785,-13.5001 241.785,-10 231.785,-6.5001 231.785,-13.5001"/>
</g>
<!-- Node8 -->
<g id="node4" class="node"><title>Node8</title>
<g id="a_node4"><a xlink:href="class_f_list_frame.html#a4bf0d0d8e56418df395b020d2e66db5f" target="_top" xlink:title="Récupère la taille courante (0&#45;based) du conteneur FListFrame::widgetContainer. ">
<polygon fill="white" stroke="black" points="409,-0.5 409,-19.5 522,-19.5 522,-0.5 409,-0.5"/>
<text text-anchor="middle" x="465.5" y="-7.5" font-family="Helvetica,sans-Serif" font-size="10.00">FListFrame::getRank</text>
</a>
</g>
</g>
<!-- Node7&#45;&gt;Node8 -->
<g id="edge3" class="edge"><title>Node7&#45;&gt;Node8</title>
<path fill="none" stroke="midnightblue" d="M373.303,-10C381.635,-10 390.174,-10 398.524,-10"/>
<polygon fill="midnightblue" stroke="midnightblue" points="398.59,-13.5001 408.59,-10 398.59,-6.5001 398.59,-13.5001"/>
</g>
</g>
</svg>
