<?xml version="1.0" encoding="UTF-8" standalone="no"?>
<!DOCTYPE svg PUBLIC "-//W3C//DTD SVG 1.1//EN"
 "http://www.w3.org/Graphics/SVG/1.1/DTD/svg11.dtd">
<!-- Generated by graphviz version 2.40.1 (20161225.0304)
 -->
<!-- Title: fwidgets_lib/flistframe.h Pages: 1 -->
<!--zoomable 207 -->
<svg id="main" version="1.1" xmlns="http://www.w3.org/2000/svg" xmlns:xlink="http://www.w3.org/1999/xlink" xml:space="preserve" onload="init(evt)">
<style type="text/css"><![CDATA[
.edge:hover path { stroke: red; }
.edge:hover polygon { stroke: red; fill: red; }
]]></style>
<script type="text/javascript"><![CDATA[
var edges = document.getElementsByTagName('g');
if (edges && edges.length) {
  for (var i=0;i<edges.length;i++) {
    if (edges[i].id.substr(0,4)=='edge') {
      edges[i].setAttribute('class','edge');
    }
  }
}
]]></script>
        <defs>
                <circle id="rim" cx="0" cy="0" r="7"/>
                <circle id="rim2" cx="0" cy="0" r="3.5"/>
                <g id="zoomPlus">
                        <use xlink:href="#rim" fill="#404040">
                                <set attributeName="fill" to="#808080" begin="zoomplus.mouseover" end="zoomplus.mouseout"/>
                        </use>
                        <path d="M-4,0h8M0,-4v8" fill="none" stroke="white" stroke-width="1.5" pointer-events="none"/>
                </g>
                <g id="zoomMin">
                        <use xlink:href="#rim" fill="#404040">
                                <set attributeName="fill" to="#808080" begin="zoomminus.mouseover" end="zoomminus.mouseout"/>
                        </use>
                        <path d="M-4,0h8" fill="none" stroke="white" stroke-width="1.5" pointer-events="none"/>
                </g>
                <g id="dirArrow">
                        <path fill="none" stroke="white" stroke-width="1.5" d="M0,-3.0v7 M-2.5,-0.5L0,-3.0L2.5,-0.5"/>
                </g>
               <g id="resetDef">
                       <use xlink:href="#rim2" fill="#404040">
                               <set attributeName="fill" to="#808080" begin="reset.mouseover" end="reset.mouseout"/>
                       </use>
               </g>
        </defs>

<script type="text/javascript">
var viewWidth = 1019;
var viewHeight = 207;
var sectionId = 'dynsection-1';
</script>
<script xlink:href="svgpan.js"/>
<svg id="graph" class="graph">
<g id="viewport">
<title>fwidgets_lib/flistframe.h</title>
<polygon fill="#ffffff" stroke="transparent" points="-4,4 -4,-203 1015,-203 1015,4 -4,4"/>
<!-- Node11 -->
<g id="node1" class="node">
<title>Node11</title>
<polygon fill="#bfbfbf" stroke="#000000" points="231.5,-179.5 231.5,-198.5 351.5,-198.5 351.5,-179.5 231.5,-179.5"/>
<text text-anchor="middle" x="291.5" y="-186.5" font-family="Helvetica,sans-Serif" font-size="10.00" fill="#000000">fwidgets_lib/flistframe.h</text>
</g>
<!-- Node12 -->
<g id="node2" class="node">
<title>Node12</title>
<g id="a_node2"><a xlink:href="flistframe_8cpp.html" target="_top" xlink:title="fwidgets_lib/flistframe.cpp">
<polygon fill="#ffffff" stroke="#000000" points="0,-123.5 0,-142.5 131,-142.5 131,-123.5 0,-123.5"/>
<text text-anchor="middle" x="65.5" y="-130.5" font-family="Helvetica,sans-Serif" font-size="10.00" fill="#000000">fwidgets_lib/flistframe.cpp</text>
</a>
</g>
</g>
<!-- Node11&#45;&gt;Node12 -->
<g id="edge1" class="edge">
<title>Node11&#45;&gt;Node12</title>
<path fill="none" stroke="#191970" d="M242.9988,-176.982C201.4153,-166.6781 142.312,-152.0331 103.9348,-142.5237"/>
<polygon fill="#191970" stroke="#191970" points="242.3577,-180.4289 252.906,-179.4369 244.0414,-173.6344 242.3577,-180.4289"/>
</g>
<!-- Node13 -->
<g id="node3" class="node">
<title>Node13</title>
<g id="a_node3"><a xlink:href="fwidgets_8cpp.html" target="_top" xlink:title="fwidgets_lib/fwidgets.cpp">
<polygon fill="#ffffff" stroke="#000000" points="149,-123.5 149,-142.5 276,-142.5 276,-123.5 149,-123.5"/>
<text text-anchor="middle" x="212.5" y="-130.5" font-family="Helvetica,sans-Serif" font-size="10.00" fill="#000000">fwidgets_lib/fwidgets.cpp</text>
</a>
</g>
</g>
<!-- Node11&#45;&gt;Node13 -->
<g id="edge2" class="edge">
<title>Node11&#45;&gt;Node13</title>
<path fill="none" stroke="#191970" d="M269.2244,-173.2097C255.3495,-163.3743 237.9485,-151.0394 226.1031,-142.6427"/>
<polygon fill="#191970" stroke="#191970" points="267.5569,-176.3178 277.7393,-179.2455 271.6051,-170.6071 267.5569,-176.3178"/>
</g>
<!-- Node14 -->
<g id="node4" class="node">
<title>Node14</title>
<g id="a_node4"><a xlink:href="moc__flistframe_8cpp.html" target="_top" xlink:title="fwidgets_lib/moc_flistframe.cpp">
<polygon fill="#ffffff" stroke="#000000" points="294,-123.5 294,-142.5 449,-142.5 449,-123.5 294,-123.5"/>
<text text-anchor="middle" x="371.5" y="-130.5" font-family="Helvetica,sans-Serif" font-size="10.00" fill="#000000">fwidgets_lib/moc_flistframe.cpp</text>
</a>
</g>
</g>
<!-- Node11&#45;&gt;Node14 -->
<g id="edge3" class="edge">
<title>Node11&#45;&gt;Node14</title>
<path fill="none" stroke="#191970" d="M313.6571,-173.49C327.772,-163.6096 345.6151,-151.1194 357.7248,-142.6427"/>
<polygon fill="#191970" stroke="#191970" points="311.6201,-170.6436 305.4349,-179.2455 315.6344,-176.3782 311.6201,-170.6436"/>
</g>
<!-- Node15 -->
<g id="node5" class="node">
<title>Node15</title>
<g id="a_node5"><a xlink:href="altair_8h.html" target="_top" xlink:title="Code de la classe principale Altair, qui joue le rôle d&#39;agent de l&#39;interface graphique. ">
<polygon fill="#ffffff" stroke="#000000" points="467,-123.5 467,-142.5 570,-142.5 570,-123.5 467,-123.5"/>
<text text-anchor="middle" x="518.5" y="-130.5" font-family="Helvetica,sans-Serif" font-size="10.00" fill="#000000">Interface/gui/altair.h</text>
</a>
</g>
</g>
<!-- Node11&#45;&gt;Node15 -->
<g id="edge4" class="edge">
<title>Node11&#45;&gt;Node15</title>
<path fill="none" stroke="#191970" d="M340.2158,-176.982C381.9833,-166.6781 441.3481,-152.0331 479.8951,-142.5237"/>
<polygon fill="#191970" stroke="#191970" points="339.1354,-173.6435 330.2648,-179.4369 340.812,-180.4398 339.1354,-173.6435"/>
</g>
<!-- Node16 -->
<g id="node6" class="node">
<title>Node16</title>
<g id="a_node6"><a xlink:href="altair-gui_8h.html" target="_top" xlink:title="Code de la classe MainWindow qui construit l&#39;interface graphique. ">
<polygon fill="#ffffff" stroke="#000000" points="201,-56.5 201,-86.5 296,-86.5 296,-56.5 201,-56.5"/>
<text text-anchor="start" x="209" y="-74.5" font-family="Helvetica,sans-Serif" font-size="10.00" fill="#000000">Interface/gui/altair</text>
<text text-anchor="middle" x="248.5" y="-63.5" font-family="Helvetica,sans-Serif" font-size="10.00" fill="#000000">&#45;gui.h</text>
</a>
</g>
</g>
<!-- Node15&#45;&gt;Node16 -->
<g id="edge5" class="edge">
<title>Node15&#45;&gt;Node16</title>
<path fill="none" stroke="#191970" d="M456.8284,-122.2277C411.77,-113.4125 349.5373,-100.2742 295.5,-87 294.9122,-86.8556 294.3212,-86.7095 293.7276,-86.5618"/>
<polygon fill="#191970" stroke="#191970" points="456.2625,-125.6831 466.7461,-124.1518 457.5958,-118.8112 456.2625,-125.6831"/>
</g>
<!-- Node18 -->
<g id="node8" class="node">
<title>Node18</title>
<g id="a_node8"><a xlink:href="altair_8cpp.html" target="_top" xlink:title="Code implémentant la classe principale Altair, qui joue le rôle d&#39;agent de l&#39;interface graphique...">
<polygon fill="#ffffff" stroke="#000000" points="314,-62 314,-81 427,-81 427,-62 314,-62"/>
<text text-anchor="middle" x="370.5" y="-69" font-family="Helvetica,sans-Serif" font-size="10.00" fill="#000000">Interface/gui/altair.cpp</text>
</a>
</g>
</g>
<!-- Node15&#45;&gt;Node18 -->
<g id="edge8" class="edge">
<title>Node15&#45;&gt;Node18</title>
<path fill="none" stroke="#191970" d="M486.0015,-119.4955C457.9956,-107.858 418.2694,-91.3501 393.4626,-81.0419"/>
<polygon fill="#191970" stroke="#191970" points="484.7975,-122.7853 495.375,-123.3906 487.4836,-116.3212 484.7975,-122.7853"/>
</g>
<!-- Node19 -->
<g id="node9" class="node">
<title>Node19</title>
<g id="a_node9"><a xlink:href="mainwindow_8cpp.html" target="_top" xlink:title="Code de l&#39;implémentation de la classe MainWindow de l&#39;interface graphique. ">
<polygon fill="#ffffff" stroke="#000000" points="445.5,-62 445.5,-81 591.5,-81 591.5,-62 445.5,-62"/>
<text text-anchor="middle" x="518.5" y="-69" font-family="Helvetica,sans-Serif" font-size="10.00" fill="#000000">Interface/gui/mainwindow.cpp</text>
</a>
</g>
</g>
<!-- Node15&#45;&gt;Node19 -->
<g id="edge9" class="edge">
<title>Node15&#45;&gt;Node19</title>
<path fill="none" stroke="#191970" d="M518.5,-113.2462C518.5,-102.5519 518.5,-89.814 518.5,-81.2449"/>
<polygon fill="#191970" stroke="#191970" points="515.0001,-113.3906 518.5,-123.3906 522.0001,-113.3907 515.0001,-113.3906"/>
</g>
<!-- Node20 -->
<g id="node10" class="node">
<title>Node20</title>
<g id="a_node10"><a xlink:href="options_8cpp.html" target="_top" xlink:title="Implémentation des classes du dialogue d&#39;options. ">
<polygon fill="#ffffff" stroke="#000000" points="609.5,-62 609.5,-81 733.5,-81 733.5,-62 609.5,-62"/>
<text text-anchor="middle" x="671.5" y="-69" font-family="Helvetica,sans-Serif" font-size="10.00" fill="#000000">Interface/gui/options.cpp</text>
</a>
</g>
</g>
<!-- Node15&#45;&gt;Node20 -->
<g id="edge10" class="edge">
<title>Node15&#45;&gt;Node20</title>
<path fill="none" stroke="#191970" d="M551.7179,-119.6477C580.6894,-108.0023 622.0047,-91.3952 647.7616,-81.0419"/>
<polygon fill="#191970" stroke="#191970" points="550.3794,-116.4135 542.4063,-123.3906 552.9901,-122.9084 550.3794,-116.4135"/>
</g>
<!-- Node21 -->
<g id="node11" class="node">
<title>Node21</title>
<g id="a_node11"><a xlink:href="run_8cpp.html" target="_top" xlink:title="Implémentation de la classe Altair agent de la classe MainWindow qui construit l&#39;interface graphique...">
<polygon fill="#ffffff" stroke="#000000" points="751.5,-62 751.5,-81 857.5,-81 857.5,-62 751.5,-62"/>
<text text-anchor="middle" x="804.5" y="-69" font-family="Helvetica,sans-Serif" font-size="10.00" fill="#000000">Interface/gui/run.cpp</text>
</a>
</g>
</g>
<!-- Node15&#45;&gt;Node21 -->
<g id="edge11" class="edge">
<title>Node15&#45;&gt;Node21</title>
<path fill="none" stroke="#191970" d="M577.9433,-121.5067C623.1719,-112.5891 686.8972,-99.6536 742.5,-87 750.6139,-85.1535 759.2951,-83.0586 767.5147,-81.0192"/>
<polygon fill="#191970" stroke="#191970" points="577.1474,-118.0961 568.0102,-123.4593 578.4976,-124.9647 577.1474,-118.0961"/>
</g>
<!-- Node22 -->
<g id="node12" class="node">
<title>Node22</title>
<g id="a_node12"><a xlink:href="xmlparser_8cpp.html" target="_top" xlink:title="Implémentation de la classe Altair agent de la classe MainWindow qui construit l&#39;interface graphique...">
<polygon fill="#ffffff" stroke="#000000" points="876,-62 876,-81 1011,-81 1011,-62 876,-62"/>
<text text-anchor="middle" x="943.5" y="-69" font-family="Helvetica,sans-Serif" font-size="10.00" fill="#000000">Interface/gui/xmlparser.cpp</text>
</a>
</g>
</g>
<!-- Node15&#45;&gt;Node22 -->
<g id="edge12" class="edge">
<title>Node15&#45;&gt;Node22</title>
<path fill="none" stroke="#191970" d="M580.1878,-126.1157C649.8962,-118.0417 766.6612,-103.6279 866.5,-87 876.9917,-85.2526 888.2383,-83.1311 898.8058,-81.0257"/>
<polygon fill="#191970" stroke="#191970" points="579.7857,-122.6387 570.2521,-127.2604 580.587,-129.5927 579.7857,-122.6387"/>
</g>
<!-- Node16&#45;&gt;Node15 -->
<g id="edge6" class="edge">
<title>Node16&#45;&gt;Node15</title>
<path fill="none" stroke="#191970" d="M306.0303,-85.1207C308.5586,-85.7696 311.057,-86.3999 313.5,-87 370.148,-100.9155 435.8024,-114.6817 477.3556,-123.4746"/>
<polygon fill="#191970" stroke="#191970" points="306.7454,-81.6902 296.1856,-82.5503 304.977,-88.4631 306.7454,-81.6902"/>
</g>
<!-- Node17 -->
<g id="node7" class="node">
<title>Node17</title>
<g id="a_node7"><a xlink:href="_interface_2gui_2main_8cpp.html" target="_top" xlink:title="Lance l&#39;interface graphique en chargeant le bon contexte linguistique et la feuille de style...">
<polygon fill="#ffffff" stroke="#000000" points="192,-.5 192,-19.5 305,-19.5 305,-.5 192,-.5"/>
<text text-anchor="middle" x="248.5" y="-7.5" font-family="Helvetica,sans-Serif" font-size="10.00" fill="#000000">Interface/gui/main.cpp</text>
</a>
</g>
</g>
<!-- Node16&#45;&gt;Node17 -->
<g id="edge7" class="edge">
<title>Node16&#45;&gt;Node17</title>
<path fill="none" stroke="#191970" d="M248.5,-46.2849C248.5,-36.9858 248.5,-26.9883 248.5,-19.8469"/>
<polygon fill="#191970" stroke="#191970" points="245.0001,-46.2977 248.5,-56.2977 252.0001,-46.2978 245.0001,-46.2977"/>
</g>
</g>
</svg>
        <g id="navigator" transform="translate(0 0)" fill="#404254">
                <rect fill="#f2f5e9" fill-opacity="0.5" stroke="#606060" stroke-width=".5" x="0" y="0" width="60" height="60"/>
                <use id="zoomplus" xlink:href="#zoomPlus" x="17" y="9" onmousedown="handleZoom(evt,'in')"/>
                <use id="zoomminus" xlink:href="#zoomMin" x="42" y="9" onmousedown="handleZoom(evt,'out')"/>
                <use id="reset" xlink:href="#resetDef" x="30" y="36" onmousedown="handleReset()"/>
                <g id="arrowUp" xlink:href="#dirArrow" transform="translate(30 24)" onmousedown="handlePan(0,-1)">
                  <use xlink:href="#rim" fill="#404040">
                        <set attributeName="fill" to="#808080" begin="arrowUp.mouseover" end="arrowUp.mouseout"/>
                  </use>
                  <path fill="none" stroke="white" stroke-width="1.5" d="M0,-3.0v7 M-2.5,-0.5L0,-3.0L2.5,-0.5"/>
                </g>
                <g id="arrowRight" xlink:href="#dirArrow" transform="rotate(90) translate(36 -43)" onmousedown="handlePan(1,0)">
                  <use xlink:href="#rim" fill="#404040">
                        <set attributeName="fill" to="#808080" begin="arrowRight.mouseover" end="arrowRight.mouseout"/>
                  </use>
                  <path fill="none" stroke="white" stroke-width="1.5" d="M0,-3.0v7 M-2.5,-0.5L0,-3.0L2.5,-0.5"/>
                </g>
                <g id="arrowDown" xlink:href="#dirArrow" transform="rotate(180) translate(-30 -48)" onmousedown="handlePan(0,1)">
                  <use xlink:href="#rim" fill="#404040">
                        <set attributeName="fill" to="#808080" begin="arrowDown.mouseover" end="arrowDown.mouseout"/>
                  </use>
                  <path fill="none" stroke="white" stroke-width="1.5" d="M0,-3.0v7 M-2.5,-0.5L0,-3.0L2.5,-0.5"/>
                </g>
                <g id="arrowLeft" xlink:href="#dirArrow" transform="rotate(270) translate(-36 17)" onmousedown="handlePan(-1,0)">
                  <use xlink:href="#rim" fill="#404040">
                        <set attributeName="fill" to="#808080" begin="arrowLeft.mouseover" end="arrowLeft.mouseout"/>
                  </use>
                  <path fill="none" stroke="white" stroke-width="1.5" d="M0,-3.0v7 M-2.5,-0.5L0,-3.0L2.5,-0.5"/>
                </g>
        </g>
        <svg viewBox="0 0 15 15" width="100%" height="30px" preserveAspectRatio="xMaxYMin meet">
         <g id="arrow_out" transform="scale(0.3 0.3)">
          <a xlink:href="flistframe_8h__dep__incl_org.svg" target="_base">
           <rect id="button" ry="5" rx="5" y="6" x="6" height="38" width="38"
                fill="#f2f5e9" fill-opacity="0.5" stroke="#606060" stroke-width="1.0"/>
           <path id="arrow"
             d="M 11.500037,31.436501 C 11.940474,20.09759 22.043105,11.32322 32.158766,21.979434 L 37.068811,17.246167 C 37.068811,17.246167 37.088388,32 37.088388,32 L 22.160133,31.978069 C 22.160133,31.978069 26.997745,27.140456 26.997745,27.140456 C 18.528582,18.264221 13.291696,25.230495 11.500037,31.436501 z"
             style="fill:#404040;"/>
          </a>
         </g>
        </svg>
</svg>
