<?xml version="1.0" encoding="UTF-8" standalone="no"?>
<!DOCTYPE svg PUBLIC "-//W3C//DTD SVG 1.1//EN"
 "http://www.w3.org/Graphics/SVG/1.1/DTD/svg11.dtd">
<!-- Generated by graphviz version 2.38.0 (20140413.2041)
 -->
<!-- Title: fwidgets_lib/flistframe.h Pages: 1 -->
<svg width="892pt" height="207pt"
 viewBox="0.00 0.00 891.50 207.00" xmlns="http://www.w3.org/2000/svg" xmlns:xlink="http://www.w3.org/1999/xlink">
<g id="graph0" class="graph" transform="scale(1 1) rotate(0) translate(4 203)">
<title>fwidgets_lib/flistframe.h</title>
<polygon fill="white" stroke="none" points="-4,4 -4,-203 887.5,-203 887.5,4 -4,4"/>
<!-- Node11 -->
<g id="node1" class="node"><title>Node11</title>
<polygon fill="#bfbfbf" stroke="black" points="159,-179.5 159,-198.5 284,-198.5 284,-179.5 159,-179.5"/>
<text text-anchor="middle" x="221.5" y="-186.5" font-family="Helvetica,sans-Serif" font-size="10.00">fwidgets_lib/flistframe.h</text>
</g>
<!-- Node12 -->
<g id="node2" class="node"><title>Node12</title>
<g id="a_node2"><a xlink:href="flistframe_8cpp.html" target="_top" xlink:title="fwidgets_lib/flistframe.cpp">
<polygon fill="white" stroke="black" points="0,-123.5 0,-142.5 137,-142.5 137,-123.5 0,-123.5"/>
<text text-anchor="middle" x="68.5" y="-130.5" font-family="Helvetica,sans-Serif" font-size="10.00">fwidgets_lib/flistframe.cpp</text>
</a>
</g>
</g>
<!-- Node11&#45;&gt;Node12 -->
<g id="edge1" class="edge"><title>Node11&#45;&gt;Node12</title>
<path fill="none" stroke="midnightblue" d="M187.611,-176.039C158.823,-165.879 118.213,-151.546 92.6299,-142.516"/>
<polygon fill="midnightblue" stroke="midnightblue" points="186.662,-179.416 197.257,-179.444 188.992,-172.815 186.662,-179.416"/>
</g>
<!-- Node13 -->
<g id="node3" class="node"><title>Node13</title>
<g id="a_node3"><a xlink:href="fwidgets_8cpp.html" target="_top" xlink:title="fwidgets_lib/fwidgets.cpp">
<polygon fill="white" stroke="black" points="155,-123.5 155,-142.5 288,-142.5 288,-123.5 155,-123.5"/>
<text text-anchor="middle" x="221.5" y="-130.5" font-family="Helvetica,sans-Serif" font-size="10.00">fwidgets_lib/fwidgets.cpp</text>
</a>
</g>
</g>
<!-- Node11&#45;&gt;Node13 -->
<g id="edge2" class="edge"><title>Node11&#45;&gt;Node13</title>
<path fill="none" stroke="midnightblue" d="M221.5,-168.805C221.5,-159.91 221.5,-149.78 221.5,-142.751"/>
<polygon fill="midnightblue" stroke="midnightblue" points="218,-169.083 221.5,-179.083 225,-169.083 218,-169.083"/>
</g>
<!-- Node14 -->
<g id="node4" class="node"><title>Node14</title>
<g id="a_node4"><a xlink:href="altair_8h.html" target="_top" xlink:title="Code de la classe principale Altair, qui joue le rôle d&#39;agent de l&#39;interface graphique. ">
<polygon fill="white" stroke="black" points="306.5,-123.5 306.5,-142.5 416.5,-142.5 416.5,-123.5 306.5,-123.5"/>
<text text-anchor="middle" x="361.5" y="-130.5" font-family="Helvetica,sans-Serif" font-size="10.00">Interface/gui/altair.h</text>
</a>
</g>
</g>
<!-- Node11&#45;&gt;Node14 -->
<g id="edge3" class="edge"><title>Node11&#45;&gt;Node14</title>
<path fill="none" stroke="midnightblue" d="M253.202,-175.772C279.5,-165.629 316.216,-151.467 339.42,-142.516"/>
<polygon fill="midnightblue" stroke="midnightblue" points="251.754,-172.579 243.683,-179.444 254.273,-179.11 251.754,-172.579"/>
</g>
<!-- Node15 -->
<g id="node5" class="node"><title>Node15</title>
<g id="a_node5"><a xlink:href="altair-gui_8h.html" target="_top" xlink:title="Code de la classe MainWindow qui construit l&#39;interface graphique. ">
<polygon fill="white" stroke="black" points="26,-56.5 26,-86.5 127,-86.5 127,-56.5 26,-56.5"/>
<text text-anchor="start" x="34" y="-74.5" font-family="Helvetica,sans-Serif" font-size="10.00">Interface/gui/altair</text>
<text text-anchor="middle" x="76.5" y="-63.5" font-family="Helvetica,sans-Serif" font-size="10.00">&#45;gui.h</text>
</a>
</g>
</g>
<!-- Node14&#45;&gt;Node15 -->
<g id="edge4" class="edge"><title>Node14&#45;&gt;Node15</title>
<path fill="none" stroke="midnightblue" d="M298.793,-121.669C251.2,-112.96 184.471,-99.8882 126.5,-87 125.779,-86.8398 125.054,-86.6774 124.325,-86.5133"/>
<polygon fill="midnightblue" stroke="midnightblue" points="298.184,-125.116 308.649,-123.46 299.436,-118.229 298.184,-125.116"/>
</g>
<!-- Node17 -->
<g id="node7" class="node"><title>Node17</title>
<g id="a_node7"><a xlink:href="altair_8cpp.html" target="_top" xlink:title="Code implémentant la classe principale Altair, qui joue le rôle d&#39;agent de l&#39;interface graphique...">
<polygon fill="white" stroke="black" points="145,-62 145,-81 266,-81 266,-62 145,-62"/>
<text text-anchor="middle" x="205.5" y="-69" font-family="Helvetica,sans-Serif" font-size="10.00">Interface/gui/altair.cpp</text>
</a>
</g>
</g>
<!-- Node14&#45;&gt;Node17 -->
<g id="edge7" class="edge"><title>Node14&#45;&gt;Node17</title>
<path fill="none" stroke="midnightblue" d="M329.467,-119.782C299.152,-108.22 254.434,-91.1641 227.81,-81.0091"/>
<polygon fill="midnightblue" stroke="midnightblue" points="328.558,-123.182 339.149,-123.475 331.053,-116.641 328.558,-123.182"/>
</g>
<!-- Node18 -->
<g id="node8" class="node"><title>Node18</title>
<g id="a_node8"><a xlink:href="mainwindow_8cpp.html" target="_top" xlink:title="Code de l&#39;implémentation de la classe MainWindow de l&#39;interface graphique. ">
<polygon fill="white" stroke="black" points="284,-62 284,-81 439,-81 439,-62 284,-62"/>
<text text-anchor="middle" x="361.5" y="-69" font-family="Helvetica,sans-Serif" font-size="10.00">Interface/gui/mainwindow.cpp</text>
</a>
</g>
</g>
<!-- Node14&#45;&gt;Node18 -->
<g id="edge8" class="edge"><title>Node14&#45;&gt;Node18</title>
<path fill="none" stroke="midnightblue" d="M361.5,-113.317C361.5,-102.496 361.5,-89.398 361.5,-81.0091"/>
<polygon fill="midnightblue" stroke="midnightblue" points="358,-113.475 361.5,-123.475 365,-113.475 358,-113.475"/>
</g>
<!-- Node19 -->
<g id="node9" class="node"><title>Node19</title>
<g id="a_node9"><a xlink:href="options_8cpp.html" target="_top" xlink:title="Implémentation des classes du dialogue d&#39;options. ">
<polygon fill="white" stroke="black" points="457.5,-62 457.5,-81 589.5,-81 589.5,-62 457.5,-62"/>
<text text-anchor="middle" x="523.5" y="-69" font-family="Helvetica,sans-Serif" font-size="10.00">Interface/gui/options.cpp</text>
</a>
</g>
</g>
<!-- Node14&#45;&gt;Node19 -->
<g id="edge9" class="edge"><title>Node14&#45;&gt;Node19</title>
<path fill="none" stroke="midnightblue" d="M394.355,-119.933C425.842,-108.368 472.563,-91.2083 500.332,-81.0091"/>
<polygon fill="midnightblue" stroke="midnightblue" points="392.891,-116.742 384.711,-123.475 395.304,-123.313 392.891,-116.742"/>
</g>
<!-- Node20 -->
<g id="node10" class="node"><title>Node20</title>
<g id="a_node10"><a xlink:href="run_8cpp.html" target="_top" xlink:title="Implémentation de la classe Altair agent de la classe MainWindow qui construit l&#39;interface graphique...">
<polygon fill="white" stroke="black" points="608,-62 608,-81 721,-81 721,-62 608,-62"/>
<text text-anchor="middle" x="664.5" y="-69" font-family="Helvetica,sans-Serif" font-size="10.00">Interface/gui/run.cpp</text>
</a>
</g>
</g>
<!-- Node14&#45;&gt;Node20 -->
<g id="edge10" class="edge"><title>Node14&#45;&gt;Node20</title>
<path fill="none" stroke="midnightblue" d="M418.697,-121.614C466.756,-112.774 537.212,-99.5483 598.5,-87 607.58,-85.141 617.341,-83.0486 626.498,-81.0437"/>
<polygon fill="midnightblue" stroke="midnightblue" points="417.997,-118.184 408.793,-123.432 419.261,-125.069 417.997,-118.184"/>
</g>
<!-- Node21 -->
<g id="node11" class="node"><title>Node21</title>
<g id="a_node11"><a xlink:href="xmlparser_8cpp.html" target="_top" xlink:title="Implémentation de la classe Altair agent de la classe MainWindow qui construit l&#39;interface graphique...">
<polygon fill="white" stroke="black" points="739.5,-62 739.5,-81 883.5,-81 883.5,-62 739.5,-62"/>
<text text-anchor="middle" x="811.5" y="-69" font-family="Helvetica,sans-Serif" font-size="10.00">Interface/gui/xmlparser.cpp</text>
</a>
</g>
</g>
<!-- Node14&#45;&gt;Node21 -->
<g id="edge11" class="edge"><title>Node14&#45;&gt;Node21</title>
<path fill="none" stroke="midnightblue" d="M426.727,-125.158C500.583,-117.153 624.442,-102.947 730.5,-87 742.226,-85.2369 754.862,-83.0929 766.587,-81.0002"/>
<polygon fill="midnightblue" stroke="midnightblue" points="426.211,-121.693 416.645,-126.246 426.962,-128.653 426.211,-121.693"/>
</g>
<!-- Node15&#45;&gt;Node14 -->
<g id="edge5" class="edge"><title>Node15&#45;&gt;Node14</title>
<path fill="none" stroke="midnightblue" d="M137.065,-85.3155C139.581,-85.8947 142.067,-86.4592 144.5,-87 206.594,-100.805 278.737,-114.821 322.336,-123.46"/>
<polygon fill="midnightblue" stroke="midnightblue" points="137.796,-81.892 127.262,-83.0277 136.205,-88.7088 137.796,-81.892"/>
</g>
<!-- Node16 -->
<g id="node6" class="node"><title>Node16</title>
<g id="a_node6"><a xlink:href="_interface_2gui_2main_8cpp.html" target="_top" xlink:title="Lance l&#39;interface graphique en chargeant le bon contexte linguistique et la feuille de style...">
<polygon fill="white" stroke="black" points="16.5,-0.5 16.5,-19.5 136.5,-19.5 136.5,-0.5 16.5,-0.5"/>
<text text-anchor="middle" x="76.5" y="-7.5" font-family="Helvetica,sans-Serif" font-size="10.00">Interface/gui/main.cpp</text>
</a>
</g>
</g>
<!-- Node15&#45;&gt;Node16 -->
<g id="edge6" class="edge"><title>Node15&#45;&gt;Node16</title>
<path fill="none" stroke="midnightblue" d="M76.5,-46.2892C76.5,-36.857 76.5,-26.6548 76.5,-19.6578"/>
<polygon fill="midnightblue" stroke="midnightblue" points="73.0001,-46.3993 76.5,-56.3993 80.0001,-46.3994 73.0001,-46.3993"/>
</g>
</g>
</svg>
