<?xml version="1.0" encoding="UTF-8" standalone="no"?>
<!DOCTYPE svg PUBLIC "-//W3C//DTD SVG 1.1//EN"
 "http://www.w3.org/Graphics/SVG/1.1/DTD/svg11.dtd">
<!-- Generated by graphviz version 2.38.0 (20140413.2041)
 -->
<!-- Title: ecrire_entete0 Pages: 1 -->
<svg width="895pt" height="66pt"
 viewBox="0.00 0.00 895.00 66.00" xmlns="http://www.w3.org/2000/svg" xmlns:xlink="http://www.w3.org/1999/xlink">
<g id="graph0" class="graph" transform="scale(1 1) rotate(0) translate(4 62)">
<title>ecrire_entete0</title>
<polygon fill="white" stroke="none" points="-4,4 -4,-62 891,-62 891,4 -4,4"/>
<!-- Node24 -->
<g id="node1" class="node"><title>Node24</title>
<polygon fill="#bfbfbf" stroke="black" points="0,-19.5 0,-38.5 86,-38.5 86,-19.5 0,-19.5"/>
<text text-anchor="middle" x="43" y="-26.5" font-family="Helvetica,sans-Serif" font-size="10.00">ecrire_entete0</text>
</g>
<!-- Node25 -->
<g id="node2" class="node"><title>Node25</title>
<g id="a_node2"><a xlink:href="fonctions__auxiliaires_8h.html#a5e2253f583a3358618441c2cba35742b" target="_top" xlink:title="Ecrit les libellés des colonnes des bulletins. ">
<polygon fill="white" stroke="black" points="122,-38.5 122,-57.5 245,-57.5 245,-38.5 122,-38.5"/>
<text text-anchor="middle" x="183.5" y="-45.5" font-family="Helvetica,sans-Serif" font-size="10.00">ecrire_entete_bulletins</text>
</a>
</g>
</g>
<!-- Node24&#45;&gt;Node25 -->
<g id="edge1" class="edge"><title>Node24&#45;&gt;Node25</title>
<path fill="none" stroke="midnightblue" d="M96.2788,-36.1718C104.625,-37.3168 113.322,-38.5099 121.843,-39.6788"/>
<polygon fill="midnightblue" stroke="midnightblue" points="96.6901,-32.6955 86.3071,-34.8039 95.7386,-39.6306 96.6901,-32.6955"/>
</g>
<!-- Node32 -->
<g id="node9" class="node"><title>Node32</title>
<g id="a_node9"><a xlink:href="fonctions__auxiliaires_8cpp.html#aff3c87803f64d34f00a30ef30bb74a9b" target="_top" xlink:title="ecrire_entete_table">
<polygon fill="white" stroke="black" points="129.5,-0.5 129.5,-19.5 237.5,-19.5 237.5,-0.5 129.5,-0.5"/>
<text text-anchor="middle" x="183.5" y="-7.5" font-family="Helvetica,sans-Serif" font-size="10.00">ecrire_entete_table</text>
</a>
</g>
</g>
<!-- Node24&#45;&gt;Node32 -->
<g id="edge9" class="edge"><title>Node24&#45;&gt;Node32</title>
<path fill="none" stroke="midnightblue" d="M96.4428,-21.8057C107.238,-20.3247 118.614,-18.7641 129.432,-17.2801"/>
<polygon fill="midnightblue" stroke="midnightblue" points="95.7386,-18.3694 86.3071,-23.1961 96.6901,-25.3045 95.7386,-18.3694"/>
</g>
<!-- Node26 -->
<g id="node3" class="node"><title>Node26</title>
<g id="a_node3"><a xlink:href="fonctions__auxiliaires_8h.html#aa23b720b129a327fe2cb677ab2c90a31" target="_top" xlink:title="Ouvre une base de données de type table (bulletins + lignes) en écriture pour un segment d&#39;exécution ...">
<polygon fill="white" stroke="black" points="281,-19.5 281,-38.5 393,-38.5 393,-19.5 281,-19.5"/>
<text text-anchor="middle" x="337" y="-26.5" font-family="Helvetica,sans-Serif" font-size="10.00">ouvrir_fichier_base0</text>
</a>
</g>
</g>
<!-- Node25&#45;&gt;Node26 -->
<g id="edge2" class="edge"><title>Node25&#45;&gt;Node26</title>
<path fill="none" stroke="midnightblue" d="M255.203,-39.133C263.739,-38.0625 272.36,-36.9812 280.632,-35.9439"/>
<polygon fill="midnightblue" stroke="midnightblue" points="254.735,-35.6642 245.248,-40.3815 255.606,-42.6098 254.735,-35.6642"/>
</g>
<!-- Node27 -->
<g id="node4" class="node"><title>Node27</title>
<g id="a_node4"><a xlink:href="fonctions__auxiliaires_8h.html#a0f11a266115e98b2536637a1ad8b05f7" target="_top" xlink:title="Ouvre une base de données de bulletins en écriture pour un segment d&#39;exécution donné. ">
<polygon fill="white" stroke="black" points="429,-38.5 429,-57.5 550,-57.5 550,-38.5 429,-38.5"/>
<text text-anchor="middle" x="489.5" y="-45.5" font-family="Helvetica,sans-Serif" font-size="10.00">ouvrir_fichier_bulletins</text>
</a>
</g>
</g>
<!-- Node26&#45;&gt;Node27 -->
<g id="edge3" class="edge"><title>Node26&#45;&gt;Node27</title>
<path fill="none" stroke="midnightblue" d="M403.368,-37.2524C411.807,-38.3179 420.416,-39.4046 428.758,-40.4579"/>
<polygon fill="midnightblue" stroke="midnightblue" points="403.546,-33.7472 393.186,-35.967 402.669,-40.6921 403.546,-33.7472"/>
</g>
<!-- Node31 -->
<g id="node8" class="node"><title>Node31</title>
<g id="a_node8"><a xlink:href="fonctions__auxiliaires_8h.html#a9d4a78ef3abcba5f8462b78f5c135650" target="_top" xlink:title="Ouvre une base de données de type table (bulletins + lignes) en écriture pour un segment d&#39;exécution ...">
<polygon fill="white" stroke="black" points="436.5,-0.5 436.5,-19.5 542.5,-19.5 542.5,-0.5 436.5,-0.5"/>
<text text-anchor="middle" x="489.5" y="-7.5" font-family="Helvetica,sans-Serif" font-size="10.00">ouvrir_fichier_base</text>
</a>
</g>
</g>
<!-- Node26&#45;&gt;Node31 -->
<g id="edge7" class="edge"><title>Node26&#45;&gt;Node31</title>
<path fill="none" stroke="midnightblue" d="M403.235,-20.7644C414.297,-19.3678 425.653,-17.9341 436.324,-16.587"/>
<polygon fill="midnightblue" stroke="midnightblue" points="402.669,-17.3079 393.186,-22.033 403.546,-24.2528 402.669,-17.3079"/>
</g>
<!-- Node28 -->
<g id="node5" class="node"><title>Node28</title>
<g id="a_node5"><a xlink:href="table_8cpp.html#a666a48e623a324e4c739c91c1ea9adf7" target="_top" xlink:title="Lance l&#39;écriture des fichiers Bulletins.paie.csv et Table....csv pour un segment des données de paye...">
<polygon fill="white" stroke="black" points="586,-19.5 586,-38.5 674,-38.5 674,-19.5 586,-19.5"/>
<text text-anchor="middle" x="630" y="-26.5" font-family="Helvetica,sans-Serif" font-size="10.00">boucle_ecriture</text>
</a>
</g>
</g>
<!-- Node27&#45;&gt;Node28 -->
<g id="edge4" class="edge"><title>Node27&#45;&gt;Node28</title>
<path fill="none" stroke="midnightblue" d="M559.963,-38.4708C568.776,-37.2618 577.585,-36.0533 585.819,-34.9238"/>
<polygon fill="midnightblue" stroke="midnightblue" points="559.472,-35.0053 550.04,-39.832 560.423,-41.9403 559.472,-35.0053"/>
</g>
<!-- Node29 -->
<g id="node6" class="node"><title>Node29</title>
<g id="a_node6"><a xlink:href="lhx_2main_8cpp.html#abb1f1ad236423a832fd1efa1e9deeafa" target="_top" xlink:title="Pour un segment donné (sous&#45;ensemble de bases de paye XML), redécoupe le segment en partie égales ou ...">
<polygon fill="white" stroke="black" points="710,-19.5 710,-38.5 812,-38.5 812,-19.5 710,-19.5"/>
<text text-anchor="middle" x="761" y="-26.5" font-family="Helvetica,sans-Serif" font-size="10.00">produire_segment</text>
</a>
</g>
</g>
<!-- Node28&#45;&gt;Node29 -->
<g id="edge5" class="edge"><title>Node28&#45;&gt;Node29</title>
<path fill="none" stroke="midnightblue" d="M684.425,-29C692.854,-29 701.542,-29 709.892,-29"/>
<polygon fill="midnightblue" stroke="midnightblue" points="684.314,-25.5001 674.314,-29 684.314,-32.5001 684.314,-25.5001"/>
</g>
<!-- Node30 -->
<g id="node7" class="node"><title>Node30</title>
<g id="a_node7"><a xlink:href="lhx_2main_8cpp.html#a3c04138a5bfe5d72780bb7e82a18e627" target="_top" xlink:title="main">
<polygon fill="white" stroke="black" points="848,-19.5 848,-38.5 887,-38.5 887,-19.5 848,-19.5"/>
<text text-anchor="middle" x="867.5" y="-26.5" font-family="Helvetica,sans-Serif" font-size="10.00">main</text>
</a>
</g>
</g>
<!-- Node29&#45;&gt;Node30 -->
<g id="edge6" class="edge"><title>Node29&#45;&gt;Node30</title>
<path fill="none" stroke="midnightblue" d="M822.271,-29C831.565,-29 840.512,-29 847.898,-29"/>
<polygon fill="midnightblue" stroke="midnightblue" points="822.108,-25.5001 812.107,-29 822.107,-32.5001 822.108,-25.5001"/>
</g>
<!-- Node31&#45;&gt;Node28 -->
<g id="edge8" class="edge"><title>Node31&#45;&gt;Node28</title>
<path fill="none" stroke="midnightblue" d="M552.903,-18.5606C563.944,-20.0754 575.22,-21.6223 585.593,-23.0453"/>
<polygon fill="midnightblue" stroke="midnightblue" points="553.244,-15.0748 542.861,-17.1831 552.292,-22.0098 553.244,-15.0748"/>
</g>
<!-- Node32&#45;&gt;Node26 -->
<g id="edge10" class="edge"><title>Node32&#45;&gt;Node26</title>
<path fill="none" stroke="midnightblue" d="M248.166,-17.9845C258.999,-19.3431 270.171,-20.7442 280.763,-22.0726"/>
<polygon fill="midnightblue" stroke="midnightblue" points="248.271,-14.4704 237.913,-16.6987 247.4,-21.4159 248.271,-14.4704"/>
</g>
</g>
</svg>
