<?xml version="1.0" encoding="UTF-8" standalone="no"?>
<!DOCTYPE svg PUBLIC "-//W3C//DTD SVG 1.1//EN"
 "http://www.w3.org/Graphics/SVG/1.1/DTD/svg11.dtd">
<!-- Generated by graphviz version 2.38.0 (20140413.2041)
 -->
<!-- Title: calculer_memoire_requise Pages: 1 -->
<svg width="461pt" height="28pt"
 viewBox="0.00 0.00 461.00 28.00" xmlns="http://www.w3.org/2000/svg" xmlns:xlink="http://www.w3.org/1999/xlink">
<g id="graph0" class="graph" transform="scale(1 1) rotate(0) translate(4 24)">
<title>calculer_memoire_requise</title>
<polygon fill="white" stroke="none" points="-4,4 -4,-24 457,-24 457,4 -4,4"/>
<!-- Node19 -->
<g id="node1" class="node"><title>Node19</title>
<polygon fill="#bfbfbf" stroke="black" points="0,-0.5 0,-19.5 130,-19.5 130,-0.5 0,-0.5"/>
<text text-anchor="middle" x="65" y="-7.5" font-family="Helvetica,sans-Serif" font-size="10.00">calculer_memoire_requise</text>
</g>
<!-- Node20 -->
<g id="node2" class="node"><title>Node20</title>
<g id="a_node2"><a xlink:href="validator_8h.html#a84e82eb7bd4a0e47537f98223511a22b" target="_top" xlink:title="Lance calculer_memoire_requise ou le calcul direct de la mémoire par par les saisies de &#45;n et &#45;N &#160;ou ...">
<polygon fill="white" stroke="black" points="166,-0.5 166,-19.5 249,-19.5 249,-0.5 166,-0.5"/>
<text text-anchor="middle" x="207.5" y="-7.5" font-family="Helvetica,sans-Serif" font-size="10.00">decoder_fichier</text>
</a>
</g>
</g>
<!-- Node19&#45;&gt;Node20 -->
<g id="edge1" class="edge"><title>Node19&#45;&gt;Node20</title>
<path fill="none" stroke="midnightblue" d="M140.368,-10C149.124,-10 157.794,-10 165.832,-10"/>
<polygon fill="midnightblue" stroke="midnightblue" points="140.083,-6.5001 130.083,-10 140.083,-13.5001 140.083,-6.5001"/>
</g>
<!-- Node21 -->
<g id="node3" class="node"><title>Node21</title>
<g id="a_node3"><a xlink:href="lhx_2main_8cpp.html#abb1f1ad236423a832fd1efa1e9deeafa" target="_top" xlink:title="Pour un segment donné (sous&#45;ensemble de bases de paye XML), redécoupe le segment en partie égales ou ...">
<polygon fill="white" stroke="black" points="285,-0.5 285,-19.5 379,-19.5 379,-0.5 285,-0.5"/>
<text text-anchor="middle" x="332" y="-7.5" font-family="Helvetica,sans-Serif" font-size="10.00">produire_segment</text>
</a>
</g>
</g>
<!-- Node20&#45;&gt;Node21 -->
<g id="edge2" class="edge"><title>Node20&#45;&gt;Node21</title>
<path fill="none" stroke="midnightblue" d="M259.413,-10C267.858,-10 276.572,-10 284.89,-10"/>
<polygon fill="midnightblue" stroke="midnightblue" points="259.291,-6.5001 249.291,-10 259.291,-13.5001 259.291,-6.5001"/>
</g>
<!-- Node22 -->
<g id="node4" class="node"><title>Node22</title>
<g id="a_node4"><a xlink:href="lhx_2main_8cpp.html#a3c04138a5bfe5d72780bb7e82a18e627" target="_top" xlink:title="main">
<polygon fill="white" stroke="black" points="415,-0.5 415,-19.5 453,-19.5 453,-0.5 415,-0.5"/>
<text text-anchor="middle" x="434" y="-7.5" font-family="Helvetica,sans-Serif" font-size="10.00">main</text>
</a>
</g>
</g>
<!-- Node21&#45;&gt;Node22 -->
<g id="edge3" class="edge"><title>Node21&#45;&gt;Node22</title>
<path fill="none" stroke="midnightblue" d="M389.316,-10C398.594,-10 407.577,-10 414.96,-10"/>
<polygon fill="midnightblue" stroke="midnightblue" points="389.195,-6.5001 379.195,-10 389.195,-13.5001 389.195,-6.5001"/>
</g>
</g>
</svg>
