<?xml version="1.0" encoding="UTF-8" standalone="no"?>
<!DOCTYPE svg PUBLIC "-//W3C//DTD SVG 1.1//EN"
 "http://www.w3.org/Graphics/SVG/1.1/DTD/svg11.dtd">
<!-- Generated by graphviz version 2.38.0 (20140413.2041)
 -->
<!-- Title: lhx/fonctions_auxiliaires.h Pages: 1 -->
<svg width="522pt" height="140pt"
 viewBox="0.00 0.00 522.00 140.00" xmlns="http://www.w3.org/2000/svg" xmlns:xlink="http://www.w3.org/1999/xlink">
<g id="graph0" class="graph" transform="scale(1 1) rotate(0) translate(4 136)">
<title>lhx/fonctions_auxiliaires.h</title>
<polygon fill="white" stroke="none" points="-4,4 -4,-136 518,-136 518,4 -4,4"/>
<!-- Node33 -->
<g id="node1" class="node"><title>Node33</title>
<polygon fill="#bfbfbf" stroke="black" points="228.5,-112.5 228.5,-131.5 357.5,-131.5 357.5,-112.5 228.5,-112.5"/>
<text text-anchor="middle" x="293" y="-119.5" font-family="Helvetica,sans-Serif" font-size="10.00">lhx/fonctions_auxiliaires.h</text>
</g>
<!-- Node34 -->
<g id="node2" class="node"><title>Node34</title>
<g id="a_node2"><a xlink:href="fonctions__auxiliaires_8cpp.html" target="_top" xlink:title="Ce fichier contient le code relatif aux fonctions auxiliaires utilisées par les fonctions principales...">
<polygon fill="white" stroke="black" points="0,-56.5 0,-75.5 140,-75.5 140,-56.5 0,-56.5"/>
<text text-anchor="middle" x="70" y="-63.5" font-family="Helvetica,sans-Serif" font-size="10.00">lhx/fonctions_auxiliaires.cpp</text>
</a>
</g>
</g>
<!-- Node33&#45;&gt;Node34 -->
<g id="edge1" class="edge"><title>Node33&#45;&gt;Node34</title>
<path fill="none" stroke="midnightblue" d="M247.939,-110.088C205.809,-99.8865 143.76,-84.8612 105.17,-75.5164"/>
<polygon fill="midnightblue" stroke="midnightblue" points="247.122,-113.492 257.665,-112.444 248.77,-106.688 247.122,-113.492"/>
</g>
<!-- Node35 -->
<g id="node3" class="node"><title>Node35</title>
<g id="a_node3"><a xlink:href="ligne__paye_8h.html" target="_top" xlink:title="Définit deux fonctions auxiliaires utilisées dans lignes_paye.cpp. ">
<polygon fill="white" stroke="black" points="158.5,-56.5 158.5,-75.5 245.5,-75.5 245.5,-56.5 158.5,-56.5"/>
<text text-anchor="middle" x="202" y="-63.5" font-family="Helvetica,sans-Serif" font-size="10.00">lhx/ligne_paye.h</text>
</a>
</g>
</g>
<!-- Node33&#45;&gt;Node35 -->
<g id="edge2" class="edge"><title>Node33&#45;&gt;Node35</title>
<path fill="none" stroke="midnightblue" d="M269.706,-107.177C252.961,-97.2407 230.9,-84.1492 216.584,-75.6545"/>
<polygon fill="midnightblue" stroke="midnightblue" points="267.993,-110.231 278.379,-112.324 271.566,-104.211 267.993,-110.231"/>
</g>
<!-- Node37 -->
<g id="node5" class="node"><title>Node37</title>
<g id="a_node5"><a xlink:href="validator_8cpp.html" target="_top" xlink:title="Ce fichier contient le code relatif au décoidage de la partie &quot;bulletins de paye&quot; (variables communes...">
<polygon fill="white" stroke="black" points="200,-0.5 200,-19.5 288,-19.5 288,-0.5 200,-0.5"/>
<text text-anchor="middle" x="244" y="-7.5" font-family="Helvetica,sans-Serif" font-size="10.00">lhx/validator.cpp</text>
</a>
</g>
</g>
<!-- Node33&#45;&gt;Node37 -->
<g id="edge10" class="edge"><title>Node33&#45;&gt;Node37</title>
<path fill="none" stroke="midnightblue" d="M284.981,-102.998C274.289,-78.9968 255.79,-37.4683 247.827,-19.5914"/>
<polygon fill="midnightblue" stroke="midnightblue" points="281.889,-104.658 289.155,-112.368 288.283,-101.81 281.889,-104.658"/>
</g>
<!-- Node38 -->
<g id="node6" class="node"><title>Node38</title>
<g id="a_node6"><a xlink:href="lhx_2main_8cpp.html" target="_top" xlink:title="Ce fichier contient le code relatif à l&#39;analyse de la ligne de commande, au découpage de la liste des...">
<polygon fill="white" stroke="black" points="306,-0.5 306,-19.5 378,-19.5 378,-0.5 306,-0.5"/>
<text text-anchor="middle" x="342" y="-7.5" font-family="Helvetica,sans-Serif" font-size="10.00">lhx/main.cpp</text>
</a>
</g>
</g>
<!-- Node33&#45;&gt;Node38 -->
<g id="edge5" class="edge"><title>Node33&#45;&gt;Node38</title>
<path fill="none" stroke="midnightblue" d="M301.019,-102.998C311.711,-78.9968 330.21,-37.4683 338.173,-19.5914"/>
<polygon fill="midnightblue" stroke="midnightblue" points="297.717,-101.81 296.845,-112.368 304.111,-104.658 297.717,-101.81"/>
</g>
<!-- Node39 -->
<g id="node7" class="node"><title>Node39</title>
<g id="a_node7"><a xlink:href="recherche_8h.html" target="_top" xlink:title="lhx/recherche.h">
<polygon fill="white" stroke="black" points="340.5,-56.5 340.5,-75.5 423.5,-75.5 423.5,-56.5 340.5,-56.5"/>
<text text-anchor="middle" x="382" y="-63.5" font-family="Helvetica,sans-Serif" font-size="10.00">lhx/recherche.h</text>
</a>
</g>
</g>
<!-- Node33&#45;&gt;Node39 -->
<g id="edge6" class="edge"><title>Node33&#45;&gt;Node39</title>
<path fill="none" stroke="midnightblue" d="M316.238,-106.901C332.558,-96.9986 353.865,-84.0705 367.736,-75.6545"/>
<polygon fill="midnightblue" stroke="midnightblue" points="314.033,-104.144 307.299,-112.324 317.664,-110.129 314.033,-104.144"/>
</g>
<!-- Node41 -->
<g id="node9" class="node"><title>Node41</title>
<g id="a_node9"><a xlink:href="table_8cpp.html" target="_top" xlink:title="Ce fichier contient l&#39;ensemble du code permettant de générer les fichiers des bulletins de paye et li...">
<polygon fill="white" stroke="black" points="442,-56.5 442,-75.5 514,-75.5 514,-56.5 442,-56.5"/>
<text text-anchor="middle" x="478" y="-63.5" font-family="Helvetica,sans-Serif" font-size="10.00">lhx/table.cpp</text>
</a>
</g>
</g>
<!-- Node33&#45;&gt;Node41 -->
<g id="edge9" class="edge"><title>Node33&#45;&gt;Node41</title>
<path fill="none" stroke="midnightblue" d="M332.166,-109.568C367.065,-99.381 417.349,-84.7034 448.823,-75.5164"/>
<polygon fill="midnightblue" stroke="midnightblue" points="330.933,-106.282 322.314,-112.444 332.894,-113.001 330.933,-106.282"/>
</g>
<!-- Node36 -->
<g id="node4" class="node"><title>Node36</title>
<g id="a_node4"><a xlink:href="ligne__paye_8cpp.html" target="_top" xlink:title="Ce fichier contient le code relatif au traitement individuel des lignes de paye. ">
<polygon fill="white" stroke="black" points="84,-0.5 84,-19.5 182,-19.5 182,-0.5 84,-0.5"/>
<text text-anchor="middle" x="133" y="-7.5" font-family="Helvetica,sans-Serif" font-size="10.00">lhx/ligne_paye.cpp</text>
</a>
</g>
</g>
<!-- Node35&#45;&gt;Node36 -->
<g id="edge3" class="edge"><title>Node35&#45;&gt;Node36</title>
<path fill="none" stroke="midnightblue" d="M182.962,-50.1008C170.544,-40.3824 154.757,-28.0269 144.288,-19.8339"/>
<polygon fill="midnightblue" stroke="midnightblue" points="180.882,-52.9171 190.914,-56.324 185.196,-47.4046 180.882,-52.9171"/>
</g>
<!-- Node35&#45;&gt;Node37 -->
<g id="edge4" class="edge"><title>Node35&#45;&gt;Node37</title>
<path fill="none" stroke="midnightblue" d="M215.11,-48.144C222.428,-38.7357 231.241,-27.4046 237.194,-19.7511"/>
<polygon fill="midnightblue" stroke="midnightblue" points="212.312,-46.0406 208.935,-56.083 217.838,-50.3383 212.312,-46.0406"/>
</g>
<!-- Node39&#45;&gt;Node38 -->
<g id="edge7" class="edge"><title>Node39&#45;&gt;Node38</title>
<path fill="none" stroke="midnightblue" d="M369.3,-47.8554C362.374,-38.5048 354.094,-27.3265 348.482,-19.7511"/>
<polygon fill="midnightblue" stroke="midnightblue" points="366.63,-50.1307 375.395,-56.083 372.255,-45.9641 366.63,-50.1307"/>
</g>
<!-- Node40 -->
<g id="node8" class="node"><title>Node40</title>
<g id="a_node8"><a xlink:href="recherche_8cpp.html" target="_top" xlink:title="Ce fichier contient le code permettant de rechercher en mémoire, après décodage des bases XML...">
<polygon fill="white" stroke="black" points="396,-0.5 396,-19.5 490,-19.5 490,-0.5 396,-0.5"/>
<text text-anchor="middle" x="443" y="-7.5" font-family="Helvetica,sans-Serif" font-size="10.00">lhx/recherche.cpp</text>
</a>
</g>
</g>
<!-- Node39&#45;&gt;Node40 -->
<g id="edge8" class="edge"><title>Node39&#45;&gt;Node40</title>
<path fill="none" stroke="midnightblue" d="M399.467,-49.5372C410.344,-39.9087 423.944,-27.8694 433.021,-19.8339"/>
<polygon fill="midnightblue" stroke="midnightblue" points="396.968,-47.0749 391.801,-56.324 401.608,-52.3162 396.968,-47.0749"/>
</g>
</g>
</svg>
