<?xml version="1.0" encoding="UTF-8" standalone="no"?>
<!DOCTYPE svg PUBLIC "-//W3C//DTD SVG 1.1//EN"
 "http://www.w3.org/Graphics/SVG/1.1/DTD/svg11.dtd">
<!-- Generated by graphviz version 2.38.0 (20140413.2041)
 -->
<!-- Title: ouvrir_fichier_base Pages: 1 -->
<svg width="451pt" height="28pt"
 viewBox="0.00 0.00 451.00 28.00" xmlns="http://www.w3.org/2000/svg" xmlns:xlink="http://www.w3.org/1999/xlink">
<g id="graph0" class="graph" transform="scale(1 1) rotate(0) translate(4 24)">
<title>ouvrir_fichier_base</title>
<polygon fill="white" stroke="none" points="-4,4 -4,-24 447,-24 447,4 -4,4"/>
<!-- Node78 -->
<g id="node1" class="node"><title>Node78</title>
<polygon fill="#bfbfbf" stroke="black" points="0,-0.5 0,-19.5 106,-19.5 106,-0.5 0,-0.5"/>
<text text-anchor="middle" x="53" y="-7.5" font-family="Helvetica,sans-Serif" font-size="10.00">ouvrir_fichier_base</text>
</g>
<!-- Node79 -->
<g id="node2" class="node"><title>Node79</title>
<g id="a_node2"><a xlink:href="table_8cpp.html#a666a48e623a324e4c739c91c1ea9adf7" target="_top" xlink:title="Lance l&#39;écriture des fichiers Bulletins.paie.csv et Table....csv pour un segment des données de paye...">
<polygon fill="white" stroke="black" points="142,-0.5 142,-19.5 230,-19.5 230,-0.5 142,-0.5"/>
<text text-anchor="middle" x="186" y="-7.5" font-family="Helvetica,sans-Serif" font-size="10.00">boucle_ecriture</text>
</a>
</g>
</g>
<!-- Node78&#45;&gt;Node79 -->
<g id="edge1" class="edge"><title>Node78&#45;&gt;Node79</title>
<path fill="none" stroke="midnightblue" d="M116.253,-10C124.918,-10 133.66,-10 141.869,-10"/>
<polygon fill="midnightblue" stroke="midnightblue" points="116.151,-6.5001 106.151,-10 116.151,-13.5001 116.151,-6.5001"/>
</g>
<!-- Node80 -->
<g id="node3" class="node"><title>Node80</title>
<g id="a_node3"><a xlink:href="lhx_2main_8cpp.html#abb1f1ad236423a832fd1efa1e9deeafa" target="_top" xlink:title="Pour un segment donné (sous&#45;ensemble de bases de paye XML), redécoupe le segment en partie égales ou ...">
<polygon fill="white" stroke="black" points="266,-0.5 266,-19.5 368,-19.5 368,-0.5 266,-0.5"/>
<text text-anchor="middle" x="317" y="-7.5" font-family="Helvetica,sans-Serif" font-size="10.00">produire_segment</text>
</a>
</g>
</g>
<!-- Node79&#45;&gt;Node80 -->
<g id="edge2" class="edge"><title>Node79&#45;&gt;Node80</title>
<path fill="none" stroke="midnightblue" d="M240.425,-10C248.854,-10 257.542,-10 265.892,-10"/>
<polygon fill="midnightblue" stroke="midnightblue" points="240.314,-6.5001 230.314,-10 240.314,-13.5001 240.314,-6.5001"/>
</g>
<!-- Node81 -->
<g id="node4" class="node"><title>Node81</title>
<g id="a_node4"><a xlink:href="lhx_2main_8cpp.html#a3c04138a5bfe5d72780bb7e82a18e627" target="_top" xlink:title="main">
<polygon fill="white" stroke="black" points="404,-0.5 404,-19.5 443,-19.5 443,-0.5 404,-0.5"/>
<text text-anchor="middle" x="423.5" y="-7.5" font-family="Helvetica,sans-Serif" font-size="10.00">main</text>
</a>
</g>
</g>
<!-- Node80&#45;&gt;Node81 -->
<g id="edge3" class="edge"><title>Node80&#45;&gt;Node81</title>
<path fill="none" stroke="midnightblue" d="M378.271,-10C387.565,-10 396.512,-10 403.898,-10"/>
<polygon fill="midnightblue" stroke="midnightblue" points="378.108,-6.5001 368.107,-10 378.107,-13.5001 378.108,-6.5001"/>
</g>
</g>
</svg>
