<?xml version="1.0" encoding="UTF-8" standalone="no"?>
<!DOCTYPE svg PUBLIC "-//W3C//DTD SVG 1.1//EN"
 "http://www.w3.org/Graphics/SVG/1.1/DTD/svg11.dtd">
<!-- Generated by graphviz version 2.38.0 (20140413.2041)
 -->
<!-- Title: lhx/fonctions_auxiliaires.h Pages: 1 -->
<svg width="472pt" height="140pt"
 viewBox="0.00 0.00 472.00 140.00" xmlns="http://www.w3.org/2000/svg" xmlns:xlink="http://www.w3.org/1999/xlink">
<g id="graph0" class="graph" transform="scale(1 1) rotate(0) translate(4 136)">
<title>lhx/fonctions_auxiliaires.h</title>
<polygon fill="white" stroke="none" points="-4,4 -4,-136 468,-136 468,4 -4,4"/>
<!-- Node33 -->
<g id="node1" class="node"><title>Node33</title>
<polygon fill="#bfbfbf" stroke="black" points="209.5,-112.5 209.5,-131.5 338.5,-131.5 338.5,-112.5 209.5,-112.5"/>
<text text-anchor="middle" x="274" y="-119.5" font-family="Helvetica,sans-Serif" font-size="10.00">lhx/fonctions_auxiliaires.h</text>
</g>
<!-- Node34 -->
<g id="node2" class="node"><title>Node34</title>
<g id="a_node2"><a xlink:href="fonctions__auxiliaires_8cpp.html" target="_top" xlink:title="Ce fichier contient le code relatif aux fonctions auxiliaires utilisées par les fonctions principales...">
<polygon fill="white" stroke="black" points="0,-56.5 0,-75.5 140,-75.5 140,-56.5 0,-56.5"/>
<text text-anchor="middle" x="70" y="-63.5" font-family="Helvetica,sans-Serif" font-size="10.00">lhx/fonctions_auxiliaires.cpp</text>
</a>
</g>
</g>
<!-- Node33&#45;&gt;Node34 -->
<g id="edge1" class="edge"><title>Node33&#45;&gt;Node34</title>
<path fill="none" stroke="midnightblue" d="M231.799,-109.829C193.282,-99.6333 137.178,-84.7823 102.173,-75.5164"/>
<polygon fill="midnightblue" stroke="midnightblue" points="231.113,-113.268 241.676,-112.444 232.904,-106.501 231.113,-113.268"/>
</g>
<!-- Node35 -->
<g id="node3" class="node"><title>Node35</title>
<g id="a_node3"><a xlink:href="ligne__paye_8h.html" target="_top" xlink:title="Définit deux fonctions auxiliaires utilisées dans lignes_paye.cpp. ">
<polygon fill="white" stroke="black" points="158.5,-56.5 158.5,-75.5 245.5,-75.5 245.5,-56.5 158.5,-56.5"/>
<text text-anchor="middle" x="202" y="-63.5" font-family="Helvetica,sans-Serif" font-size="10.00">lhx/ligne_paye.h</text>
</a>
</g>
</g>
<!-- Node33&#45;&gt;Node35 -->
<g id="edge2" class="edge"><title>Node33&#45;&gt;Node35</title>
<path fill="none" stroke="midnightblue" d="M254.134,-106.101C241.177,-96.3824 224.703,-84.0269 213.779,-75.8339"/>
<polygon fill="midnightblue" stroke="midnightblue" points="252.332,-109.124 262.432,-112.324 256.532,-103.524 252.332,-109.124"/>
</g>
<!-- Node37 -->
<g id="node5" class="node"><title>Node37</title>
<g id="a_node5"><a xlink:href="validator_8cpp.html" target="_top" xlink:title="Ce fichier contient le code relatif au décoidage de la partie &quot;bulletins de paye&quot; (variables communes...">
<polygon fill="white" stroke="black" points="230,-0.5 230,-19.5 318,-19.5 318,-0.5 230,-0.5"/>
<text text-anchor="middle" x="274" y="-7.5" font-family="Helvetica,sans-Serif" font-size="10.00">lhx/validator.cpp</text>
</a>
</g>
</g>
<!-- Node33&#45;&gt;Node37 -->
<g id="edge7" class="edge"><title>Node33&#45;&gt;Node37</title>
<path fill="none" stroke="midnightblue" d="M274,-102.348C274,-78.2538 274,-37.3079 274,-19.5914"/>
<polygon fill="midnightblue" stroke="midnightblue" points="270.5,-102.368 274,-112.368 277.5,-102.369 270.5,-102.368"/>
</g>
<!-- Node38 -->
<g id="node6" class="node"><title>Node38</title>
<g id="a_node6"><a xlink:href="lhx_2main_8cpp.html" target="_top" xlink:title="Ce fichier contient le code relatif à l&#39;analyse de la ligne de commande, au découpage de la liste des...">
<polygon fill="white" stroke="black" points="302,-56.5 302,-75.5 374,-75.5 374,-56.5 302,-56.5"/>
<text text-anchor="middle" x="338" y="-63.5" font-family="Helvetica,sans-Serif" font-size="10.00">lhx/main.cpp</text>
</a>
</g>
</g>
<!-- Node33&#45;&gt;Node38 -->
<g id="edge5" class="edge"><title>Node33&#45;&gt;Node38</title>
<path fill="none" stroke="midnightblue" d="M291.991,-105.82C303.458,-96.1452 317.913,-83.9481 327.53,-75.8339"/>
<polygon fill="midnightblue" stroke="midnightblue" points="289.669,-103.2 284.283,-112.324 294.183,-108.55 289.669,-103.2"/>
</g>
<!-- Node39 -->
<g id="node7" class="node"><title>Node39</title>
<g id="a_node7"><a xlink:href="table_8cpp.html" target="_top" xlink:title="Ce fichier contient l&#39;ensemble du code permettant de générer les fichiers des bulletins de paye et li...">
<polygon fill="white" stroke="black" points="392,-56.5 392,-75.5 464,-75.5 464,-56.5 392,-56.5"/>
<text text-anchor="middle" x="428" y="-63.5" font-family="Helvetica,sans-Serif" font-size="10.00">lhx/table.cpp</text>
</a>
</g>
</g>
<!-- Node33&#45;&gt;Node39 -->
<g id="edge6" class="edge"><title>Node33&#45;&gt;Node39</title>
<path fill="none" stroke="midnightblue" d="M308.111,-109.039C337.087,-98.8786 377.962,-84.5457 403.712,-75.5164"/>
<polygon fill="midnightblue" stroke="midnightblue" points="306.68,-105.832 298.402,-112.444 308.997,-112.437 306.68,-105.832"/>
</g>
<!-- Node36 -->
<g id="node4" class="node"><title>Node36</title>
<g id="a_node4"><a xlink:href="ligne__paye_8cpp.html" target="_top" xlink:title="Ce fichier contient le code relatif au traitement individuel des lignes de paye. ">
<polygon fill="white" stroke="black" points="114,-0.5 114,-19.5 212,-19.5 212,-0.5 114,-0.5"/>
<text text-anchor="middle" x="163" y="-7.5" font-family="Helvetica,sans-Serif" font-size="10.00">lhx/ligne_paye.cpp</text>
</a>
</g>
</g>
<!-- Node35&#45;&gt;Node36 -->
<g id="edge3" class="edge"><title>Node35&#45;&gt;Node36</title>
<path fill="none" stroke="midnightblue" d="M189.618,-47.8554C182.865,-38.5048 174.791,-27.3265 169.32,-19.7511"/>
<polygon fill="midnightblue" stroke="midnightblue" points="186.868,-50.0254 195.56,-56.083 192.542,-45.927 186.868,-50.0254"/>
</g>
<!-- Node35&#45;&gt;Node37 -->
<g id="edge4" class="edge"><title>Node35&#45;&gt;Node37</title>
<path fill="none" stroke="midnightblue" d="M221.866,-50.1008C234.823,-40.3824 251.297,-28.0269 262.221,-19.8339"/>
<polygon fill="midnightblue" stroke="midnightblue" points="219.468,-47.5239 213.568,-56.324 223.668,-53.1239 219.468,-47.5239"/>
</g>
</g>
</svg>
