<?xml version="1.0" encoding="UTF-8" standalone="no"?>
<!DOCTYPE svg PUBLIC "-//W3C//DTD SVG 1.1//EN"
 "http://www.w3.org/Graphics/SVG/1.1/DTD/svg11.dtd">
<!-- Generated by graphviz version 2.40.1 (20161225.0304)
 -->
<!-- Title: lhx/fonctions_auxiliaires.h Pages: 1 -->
<!--zoomable 140 -->
<svg id="main" version="1.1" xmlns="http://www.w3.org/2000/svg" xmlns:xlink="http://www.w3.org/1999/xlink" xml:space="preserve" onload="init(evt)">
<style type="text/css"><![CDATA[
.edge:hover path { stroke: red; }
.edge:hover polygon { stroke: red; fill: red; }
]]></style>
<script type="text/javascript"><![CDATA[
var edges = document.getElementsByTagName('g');
if (edges && edges.length) {
  for (var i=0;i<edges.length;i++) {
    if (edges[i].id.substr(0,4)=='edge') {
      edges[i].setAttribute('class','edge');
    }
  }
}
]]></script>
        <defs>
                <circle id="rim" cx="0" cy="0" r="7"/>
                <circle id="rim2" cx="0" cy="0" r="3.5"/>
                <g id="zoomPlus">
                        <use xlink:href="#rim" fill="#404040">
                                <set attributeName="fill" to="#808080" begin="zoomplus.mouseover" end="zoomplus.mouseout"/>
                        </use>
                        <path d="M-4,0h8M0,-4v8" fill="none" stroke="white" stroke-width="1.5" pointer-events="none"/>
                </g>
                <g id="zoomMin">
                        <use xlink:href="#rim" fill="#404040">
                                <set attributeName="fill" to="#808080" begin="zoomminus.mouseover" end="zoomminus.mouseout"/>
                        </use>
                        <path d="M-4,0h8" fill="none" stroke="white" stroke-width="1.5" pointer-events="none"/>
                </g>
                <g id="dirArrow">
                        <path fill="none" stroke="white" stroke-width="1.5" d="M0,-3.0v7 M-2.5,-0.5L0,-3.0L2.5,-0.5"/>
                </g>
               <g id="resetDef">
                       <use xlink:href="#rim2" fill="#404040">
                               <set attributeName="fill" to="#808080" begin="reset.mouseover" end="reset.mouseout"/>
                       </use>
               </g>
        </defs>

<script type="text/javascript">
var viewWidth = 522;
var viewHeight = 140;
var sectionId = 'dynsection-1';
</script>
<script xlink:href="svgpan.js"/>
<svg id="graph" class="graph">
<g id="viewport">
<title>lhx/fonctions_auxiliaires.h</title>
<polygon fill="#ffffff" stroke="transparent" points="-4,4 -4,-136 518,-136 518,4 -4,4"/>
<!-- Node34 -->
<g id="node1" class="node">
<title>Node34</title>
<polygon fill="#bfbfbf" stroke="#000000" points="228.5,-112.5 228.5,-131.5 357.5,-131.5 357.5,-112.5 228.5,-112.5"/>
<text text-anchor="middle" x="293" y="-119.5" font-family="Helvetica,sans-Serif" font-size="10.00" fill="#000000">lhx/fonctions_auxiliaires.h</text>
</g>
<!-- Node35 -->
<g id="node2" class="node">
<title>Node35</title>
<g id="a_node2"><a xlink:href="fonctions__auxiliaires_8cpp.html" target="_top" xlink:title="Ce fichier contient le code relatif aux fonctions auxiliaires utilisées par les fonctions principales...">
<polygon fill="#ffffff" stroke="#000000" points="0,-56.5 0,-75.5 140,-75.5 140,-56.5 0,-56.5"/>
<text text-anchor="middle" x="70" y="-63.5" font-family="Helvetica,sans-Serif" font-size="10.00" fill="#000000">lhx/fonctions_auxiliaires.cpp</text>
</a>
</g>
</g>
<!-- Node34&#45;&gt;Node35 -->
<g id="edge1" class="edge">
<title>Node34&#45;&gt;Node35</title>
<path fill="none" stroke="#191970" d="M245.1426,-109.982C204.1111,-99.6781 145.7924,-85.0331 107.9246,-75.5237"/>
<polygon fill="#191970" stroke="#191970" points="244.367,-113.3958 254.9183,-112.4369 246.0719,-106.6066 244.367,-113.3958"/>
</g>
<!-- Node36 -->
<g id="node3" class="node">
<title>Node36</title>
<g id="a_node3"><a xlink:href="ligne__paye_8h.html" target="_top" xlink:title="Définit deux fonctions auxiliaires utilisées dans lignes_paye.cpp. ">
<polygon fill="#ffffff" stroke="#000000" points="158.5,-56.5 158.5,-75.5 245.5,-75.5 245.5,-56.5 158.5,-56.5"/>
<text text-anchor="middle" x="202" y="-63.5" font-family="Helvetica,sans-Serif" font-size="10.00" fill="#000000">lhx/ligne_paye.h</text>
</a>
</g>
</g>
<!-- Node34&#45;&gt;Node36 -->
<g id="edge2" class="edge">
<title>Node34&#45;&gt;Node36</title>
<path fill="none" stroke="#191970" d="M268.2496,-106.769C252.1242,-96.8456 231.574,-84.1994 217.6693,-75.6427"/>
<polygon fill="#191970" stroke="#191970" points="266.7981,-109.9853 277.149,-112.2455 270.4668,-104.0237 266.7981,-109.9853"/>
</g>
<!-- Node38 -->
<g id="node5" class="node">
<title>Node38</title>
<g id="a_node5"><a xlink:href="validator_8cpp.html" target="_top" xlink:title="Ce fichier contient le code relatif au décoidage de la partie &quot;bulletins de paye&quot; (variables communes...">
<polygon fill="#ffffff" stroke="#000000" points="200,-.5 200,-19.5 288,-19.5 288,-.5 200,-.5"/>
<text text-anchor="middle" x="244" y="-7.5" font-family="Helvetica,sans-Serif" font-size="10.00" fill="#000000">lhx/validator.cpp</text>
</a>
</g>
</g>
<!-- Node34&#45;&gt;Node38 -->
<g id="edge10" class="edge">
<title>Node34&#45;&gt;Node38</title>
<path fill="none" stroke="#191970" d="M284.7968,-103.2498C274.2289,-79.0946 256.2588,-38.0202 248.1671,-19.5249"/>
<polygon fill="#191970" stroke="#191970" points="281.6075,-104.6922 288.8223,-112.4509 288.0206,-101.8865 281.6075,-104.6922"/>
</g>
<!-- Node39 -->
<g id="node6" class="node">
<title>Node39</title>
<g id="a_node6"><a xlink:href="lhx_2main_8cpp.html" target="_top" xlink:title="Ce fichier contient le code relatif à l&#39;analyse de la ligne de commande, au découpage de la liste des...">
<polygon fill="#ffffff" stroke="#000000" points="306,-.5 306,-19.5 378,-19.5 378,-.5 306,-.5"/>
<text text-anchor="middle" x="342" y="-7.5" font-family="Helvetica,sans-Serif" font-size="10.00" fill="#000000">lhx/main.cpp</text>
</a>
</g>
</g>
<!-- Node34&#45;&gt;Node39 -->
<g id="edge5" class="edge">
<title>Node34&#45;&gt;Node39</title>
<path fill="none" stroke="#191970" d="M301.2032,-103.2498C311.7711,-79.0946 329.7412,-38.0202 337.8329,-19.5249"/>
<polygon fill="#191970" stroke="#191970" points="297.9794,-101.8865 297.1777,-112.4509 304.3925,-104.6922 297.9794,-101.8865"/>
</g>
<!-- Node40 -->
<g id="node7" class="node">
<title>Node40</title>
<g id="a_node7"><a xlink:href="recherche_8h.html" target="_top" xlink:title="lhx/recherche.h">
<polygon fill="#ffffff" stroke="#000000" points="340.5,-56.5 340.5,-75.5 423.5,-75.5 423.5,-56.5 340.5,-56.5"/>
<text text-anchor="middle" x="382" y="-63.5" font-family="Helvetica,sans-Serif" font-size="10.00" fill="#000000">lhx/recherche.h</text>
</a>
</g>
</g>
<!-- Node34&#45;&gt;Node40 -->
<g id="edge6" class="edge">
<title>Node34&#45;&gt;Node40</title>
<path fill="none" stroke="#191970" d="M317.2064,-106.769C332.9775,-96.8456 353.076,-84.1994 366.675,-75.6427"/>
<polygon fill="#191970" stroke="#191970" points="315.1026,-103.9575 308.5026,-112.2455 318.8305,-109.8823 315.1026,-103.9575"/>
</g>
<!-- Node42 -->
<g id="node9" class="node">
<title>Node42</title>
<g id="a_node9"><a xlink:href="table_8cpp.html" target="_top" xlink:title="Ce fichier contient l&#39;ensemble du code permettant de générer les fichiers des bulletins de paye et li...">
<polygon fill="#ffffff" stroke="#000000" points="442,-56.5 442,-75.5 514,-75.5 514,-56.5 442,-56.5"/>
<text text-anchor="middle" x="478" y="-63.5" font-family="Helvetica,sans-Serif" font-size="10.00" fill="#000000">lhx/table.cpp</text>
</a>
</g>
</g>
<!-- Node34&#45;&gt;Node42 -->
<g id="edge9" class="edge">
<title>Node34&#45;&gt;Node42</title>
<path fill="none" stroke="#191970" d="M334.4397,-109.4561C368.3991,-99.1765 415.7297,-84.8494 446.6124,-75.5011"/>
<polygon fill="#191970" stroke="#191970" points="333.3597,-106.1261 324.8026,-112.3733 335.3878,-112.8259 333.3597,-106.1261"/>
</g>
<!-- Node37 -->
<g id="node4" class="node">
<title>Node37</title>
<g id="a_node4"><a xlink:href="ligne__paye_8cpp.html" target="_top" xlink:title="Ce fichier contient le code relatif au traitement individuel des lignes de paye. ">
<polygon fill="#ffffff" stroke="#000000" points="84,-.5 84,-19.5 182,-19.5 182,-.5 84,-.5"/>
<text text-anchor="middle" x="133" y="-7.5" font-family="Helvetica,sans-Serif" font-size="10.00" fill="#000000">lhx/ligne_paye.cpp</text>
</a>
</g>
</g>
<!-- Node36&#45;&gt;Node37 -->
<g id="edge3" class="edge">
<title>Node36&#45;&gt;Node37</title>
<path fill="none" stroke="#191970" d="M182.197,-49.928C170.1364,-40.1397 155.1286,-27.9595 144.8812,-19.6427"/>
<polygon fill="#191970" stroke="#191970" points="180.0109,-52.6614 189.9811,-56.2455 184.4221,-47.2262 180.0109,-52.6614"/>
</g>
<!-- Node36&#45;&gt;Node38 -->
<g id="edge4" class="edge">
<title>Node36&#45;&gt;Node38</title>
<path fill="none" stroke="#191970" d="M215.3416,-48.2112C222.4396,-38.7472 230.8903,-27.4797 236.768,-19.6427"/>
<polygon fill="#191970" stroke="#191970" points="212.5159,-46.1455 209.3158,-56.2455 218.1159,-50.3455 212.5159,-46.1455"/>
</g>
<!-- Node40&#45;&gt;Node39 -->
<g id="edge7" class="edge">
<title>Node40&#45;&gt;Node39</title>
<path fill="none" stroke="#191970" d="M369.0864,-47.9209C362.3697,-38.5176 354.4283,-27.3997 348.8876,-19.6427"/>
<polygon fill="#191970" stroke="#191970" points="366.372,-50.1425 375.0325,-56.2455 372.0682,-46.0738 366.372,-50.1425"/>
</g>
<!-- Node41 -->
<g id="node8" class="node">
<title>Node41</title>
<g id="a_node8"><a xlink:href="recherche_8cpp.html" target="_top" xlink:title="Ce fichier contient le code permettant de rechercher en mémoire, après décodage des bases XML...">
<polygon fill="#ffffff" stroke="#000000" points="396,-.5 396,-19.5 490,-19.5 490,-.5 396,-.5"/>
<text text-anchor="middle" x="443" y="-7.5" font-family="Helvetica,sans-Serif" font-size="10.00" fill="#000000">lhx/recherche.cpp</text>
</a>
</g>
</g>
<!-- Node40&#45;&gt;Node41 -->
<g id="edge8" class="edge">
<title>Node40&#45;&gt;Node41</title>
<path fill="none" stroke="#191970" d="M400.1249,-49.3607C410.678,-39.6727 423.6112,-27.7995 432.4964,-19.6427"/>
<polygon fill="#191970" stroke="#191970" points="397.625,-46.9045 392.6254,-56.2455 402.3589,-52.0611 397.625,-46.9045"/>
</g>
</g>
</svg>
        <g id="navigator" transform="translate(0 0)" fill="#404254">
                <rect fill="#f2f5e9" fill-opacity="0.5" stroke="#606060" stroke-width=".5" x="0" y="0" width="60" height="60"/>
                <use id="zoomplus" xlink:href="#zoomPlus" x="17" y="9" onmousedown="handleZoom(evt,'in')"/>
                <use id="zoomminus" xlink:href="#zoomMin" x="42" y="9" onmousedown="handleZoom(evt,'out')"/>
                <use id="reset" xlink:href="#resetDef" x="30" y="36" onmousedown="handleReset()"/>
                <g id="arrowUp" xlink:href="#dirArrow" transform="translate(30 24)" onmousedown="handlePan(0,-1)">
                  <use xlink:href="#rim" fill="#404040">
                        <set attributeName="fill" to="#808080" begin="arrowUp.mouseover" end="arrowUp.mouseout"/>
                  </use>
                  <path fill="none" stroke="white" stroke-width="1.5" d="M0,-3.0v7 M-2.5,-0.5L0,-3.0L2.5,-0.5"/>
                </g>
                <g id="arrowRight" xlink:href="#dirArrow" transform="rotate(90) translate(36 -43)" onmousedown="handlePan(1,0)">
                  <use xlink:href="#rim" fill="#404040">
                        <set attributeName="fill" to="#808080" begin="arrowRight.mouseover" end="arrowRight.mouseout"/>
                  </use>
                  <path fill="none" stroke="white" stroke-width="1.5" d="M0,-3.0v7 M-2.5,-0.5L0,-3.0L2.5,-0.5"/>
                </g>
                <g id="arrowDown" xlink:href="#dirArrow" transform="rotate(180) translate(-30 -48)" onmousedown="handlePan(0,1)">
                  <use xlink:href="#rim" fill="#404040">
                        <set attributeName="fill" to="#808080" begin="arrowDown.mouseover" end="arrowDown.mouseout"/>
                  </use>
                  <path fill="none" stroke="white" stroke-width="1.5" d="M0,-3.0v7 M-2.5,-0.5L0,-3.0L2.5,-0.5"/>
                </g>
                <g id="arrowLeft" xlink:href="#dirArrow" transform="rotate(270) translate(-36 17)" onmousedown="handlePan(-1,0)">
                  <use xlink:href="#rim" fill="#404040">
                        <set attributeName="fill" to="#808080" begin="arrowLeft.mouseover" end="arrowLeft.mouseout"/>
                  </use>
                  <path fill="none" stroke="white" stroke-width="1.5" d="M0,-3.0v7 M-2.5,-0.5L0,-3.0L2.5,-0.5"/>
                </g>
        </g>
        <svg viewBox="0 0 15 15" width="100%" height="30px" preserveAspectRatio="xMaxYMin meet">
         <g id="arrow_out" transform="scale(0.3 0.3)">
          <a xlink:href="fonctions__auxiliaires_8h__dep__incl_org.svg" target="_base">
           <rect id="button" ry="5" rx="5" y="6" x="6" height="38" width="38"
                fill="#f2f5e9" fill-opacity="0.5" stroke="#606060" stroke-width="1.0"/>
           <path id="arrow"
             d="M 11.500037,31.436501 C 11.940474,20.09759 22.043105,11.32322 32.158766,21.979434 L 37.068811,17.246167 C 37.068811,17.246167 37.088388,32 37.088388,32 L 22.160133,31.978069 C 22.160133,31.978069 26.997745,27.140456 26.997745,27.140456 C 18.528582,18.264221 13.291696,25.230495 11.500037,31.436501 z"
             style="fill:#404040;"/>
          </a>
         </g>
        </svg>
</svg>
