<?xml version="1.0" encoding="UTF-8" standalone="no"?>
<!DOCTYPE svg PUBLIC "-//W3C//DTD SVG 1.1//EN"
 "http://www.w3.org/Graphics/SVG/1.1/DTD/svg11.dtd">
<!-- Generated by graphviz version 2.38.0 (20140413.2041)
 -->
<!-- Title: ecrire_entete_bulletins Pages: 1 -->
<svg width="773pt" height="66pt"
 viewBox="0.00 0.00 773.00 66.00" xmlns="http://www.w3.org/2000/svg" xmlns:xlink="http://www.w3.org/1999/xlink">
<g id="graph0" class="graph" transform="scale(1 1) rotate(0) translate(4 62)">
<title>ecrire_entete_bulletins</title>
<polygon fill="white" stroke="none" points="-4,4 -4,-62 769,-62 769,4 -4,4"/>
<!-- Node35 -->
<g id="node1" class="node"><title>Node35</title>
<polygon fill="#bfbfbf" stroke="black" points="0,-19.5 0,-38.5 123,-38.5 123,-19.5 0,-19.5"/>
<text text-anchor="middle" x="61.5" y="-26.5" font-family="Helvetica,sans-Serif" font-size="10.00">ecrire_entete_bulletins</text>
</g>
<!-- Node36 -->
<g id="node2" class="node"><title>Node36</title>
<g id="a_node2"><a xlink:href="fonctions__auxiliaires_8h.html#aa23b720b129a327fe2cb677ab2c90a31" target="_top" xlink:title="Ouvre une base de données de type table (bulletins + lignes) en écriture pour un segment d&#39;exécution ...">
<polygon fill="white" stroke="black" points="159,-19.5 159,-38.5 271,-38.5 271,-19.5 159,-19.5"/>
<text text-anchor="middle" x="215" y="-26.5" font-family="Helvetica,sans-Serif" font-size="10.00">ouvrir_fichier_base0</text>
</a>
</g>
</g>
<!-- Node35&#45;&gt;Node36 -->
<g id="edge1" class="edge"><title>Node35&#45;&gt;Node36</title>
<path fill="none" stroke="midnightblue" d="M133.481,-29C141.926,-29 150.45,-29 158.632,-29"/>
<polygon fill="midnightblue" stroke="midnightblue" points="133.248,-25.5001 123.248,-29 133.248,-32.5001 133.248,-25.5001"/>
</g>
<!-- Node37 -->
<g id="node3" class="node"><title>Node37</title>
<g id="a_node3"><a xlink:href="fonctions__auxiliaires_8h.html#a0f11a266115e98b2536637a1ad8b05f7" target="_top" xlink:title="Ouvre une base de données de bulletins en écriture pour un segment d&#39;exécution donné. ">
<polygon fill="white" stroke="black" points="307,-38.5 307,-57.5 428,-57.5 428,-38.5 307,-38.5"/>
<text text-anchor="middle" x="367.5" y="-45.5" font-family="Helvetica,sans-Serif" font-size="10.00">ouvrir_fichier_bulletins</text>
</a>
</g>
</g>
<!-- Node36&#45;&gt;Node37 -->
<g id="edge2" class="edge"><title>Node36&#45;&gt;Node37</title>
<path fill="none" stroke="midnightblue" d="M281.368,-37.2524C289.807,-38.3179 298.416,-39.4046 306.758,-40.4579"/>
<polygon fill="midnightblue" stroke="midnightblue" points="281.546,-33.7472 271.186,-35.967 280.669,-40.6921 281.546,-33.7472"/>
</g>
<!-- Node41 -->
<g id="node7" class="node"><title>Node41</title>
<g id="a_node7"><a xlink:href="fonctions__auxiliaires_8h.html#a9d4a78ef3abcba5f8462b78f5c135650" target="_top" xlink:title="Ouvre une base de données de type table (bulletins + lignes) en écriture pour un segment d&#39;exécution ...">
<polygon fill="white" stroke="black" points="314.5,-0.5 314.5,-19.5 420.5,-19.5 420.5,-0.5 314.5,-0.5"/>
<text text-anchor="middle" x="367.5" y="-7.5" font-family="Helvetica,sans-Serif" font-size="10.00">ouvrir_fichier_base</text>
</a>
</g>
</g>
<!-- Node36&#45;&gt;Node41 -->
<g id="edge6" class="edge"><title>Node36&#45;&gt;Node41</title>
<path fill="none" stroke="midnightblue" d="M281.235,-20.7644C292.297,-19.3678 303.653,-17.9341 314.324,-16.587"/>
<polygon fill="midnightblue" stroke="midnightblue" points="280.669,-17.3079 271.186,-22.033 281.546,-24.2528 280.669,-17.3079"/>
</g>
<!-- Node38 -->
<g id="node4" class="node"><title>Node38</title>
<g id="a_node4"><a xlink:href="table_8cpp.html#a666a48e623a324e4c739c91c1ea9adf7" target="_top" xlink:title="Lance l&#39;écriture des fichiers Bulletins.paie.csv et Table....csv pour un segment des données de paye...">
<polygon fill="white" stroke="black" points="464,-19.5 464,-38.5 552,-38.5 552,-19.5 464,-19.5"/>
<text text-anchor="middle" x="508" y="-26.5" font-family="Helvetica,sans-Serif" font-size="10.00">boucle_ecriture</text>
</a>
</g>
</g>
<!-- Node37&#45;&gt;Node38 -->
<g id="edge3" class="edge"><title>Node37&#45;&gt;Node38</title>
<path fill="none" stroke="midnightblue" d="M437.963,-38.4708C446.776,-37.2618 455.585,-36.0533 463.819,-34.9238"/>
<polygon fill="midnightblue" stroke="midnightblue" points="437.472,-35.0053 428.04,-39.832 438.423,-41.9403 437.472,-35.0053"/>
</g>
<!-- Node39 -->
<g id="node5" class="node"><title>Node39</title>
<g id="a_node5"><a xlink:href="lhx_2main_8cpp.html#abb1f1ad236423a832fd1efa1e9deeafa" target="_top" xlink:title="Pour un segment donné (sous&#45;ensemble de bases de paye XML), redécoupe le segment en partie égales ou ...">
<polygon fill="white" stroke="black" points="588,-19.5 588,-38.5 690,-38.5 690,-19.5 588,-19.5"/>
<text text-anchor="middle" x="639" y="-26.5" font-family="Helvetica,sans-Serif" font-size="10.00">produire_segment</text>
</a>
</g>
</g>
<!-- Node38&#45;&gt;Node39 -->
<g id="edge4" class="edge"><title>Node38&#45;&gt;Node39</title>
<path fill="none" stroke="midnightblue" d="M562.425,-29C570.854,-29 579.542,-29 587.892,-29"/>
<polygon fill="midnightblue" stroke="midnightblue" points="562.314,-25.5001 552.314,-29 562.314,-32.5001 562.314,-25.5001"/>
</g>
<!-- Node40 -->
<g id="node6" class="node"><title>Node40</title>
<g id="a_node6"><a xlink:href="lhx_2main_8cpp.html#a3c04138a5bfe5d72780bb7e82a18e627" target="_top" xlink:title="main">
<polygon fill="white" stroke="black" points="726,-19.5 726,-38.5 765,-38.5 765,-19.5 726,-19.5"/>
<text text-anchor="middle" x="745.5" y="-26.5" font-family="Helvetica,sans-Serif" font-size="10.00">main</text>
</a>
</g>
</g>
<!-- Node39&#45;&gt;Node40 -->
<g id="edge5" class="edge"><title>Node39&#45;&gt;Node40</title>
<path fill="none" stroke="midnightblue" d="M700.271,-29C709.565,-29 718.512,-29 725.898,-29"/>
<polygon fill="midnightblue" stroke="midnightblue" points="700.108,-25.5001 690.107,-29 700.107,-32.5001 700.108,-25.5001"/>
</g>
<!-- Node41&#45;&gt;Node38 -->
<g id="edge7" class="edge"><title>Node41&#45;&gt;Node38</title>
<path fill="none" stroke="midnightblue" d="M430.903,-18.5606C441.944,-20.0754 453.22,-21.6223 463.593,-23.0453"/>
<polygon fill="midnightblue" stroke="midnightblue" points="431.244,-15.0748 420.861,-17.1831 430.292,-22.0098 431.244,-15.0748"/>
</g>
</g>
</svg>
