<?xml version="1.0" encoding="UTF-8" standalone="no"?>
<!DOCTYPE svg PUBLIC "-//W3C//DTD SVG 1.1//EN"
 "http://www.w3.org/Graphics/SVG/1.1/DTD/svg11.dtd">
<!-- Generated by graphviz version 2.38.0 (20140413.2041)
 -->
<!-- Title: ouvrir_fichier_base0 Pages: 1 -->
<svg width="614pt" height="66pt"
 viewBox="0.00 0.00 614.00 66.00" xmlns="http://www.w3.org/2000/svg" xmlns:xlink="http://www.w3.org/1999/xlink">
<g id="graph0" class="graph" transform="scale(1 1) rotate(0) translate(4 62)">
<title>ouvrir_fichier_base0</title>
<polygon fill="white" stroke="none" points="-4,4 -4,-62 610,-62 610,4 -4,4"/>
<!-- Node87 -->
<g id="node1" class="node"><title>Node87</title>
<polygon fill="#bfbfbf" stroke="black" points="0,-19.5 0,-38.5 112,-38.5 112,-19.5 0,-19.5"/>
<text text-anchor="middle" x="56" y="-26.5" font-family="Helvetica,sans-Serif" font-size="10.00">ouvrir_fichier_base0</text>
</g>
<!-- Node88 -->
<g id="node2" class="node"><title>Node88</title>
<g id="a_node2"><a xlink:href="fonctions__auxiliaires_8h.html#a9d4a78ef3abcba5f8462b78f5c135650" target="_top" xlink:title="Ouvre une base de données de type table (bulletins + lignes) en écriture pour un segment d&#39;exécution ...">
<polygon fill="white" stroke="black" points="155.5,-38.5 155.5,-57.5 261.5,-57.5 261.5,-38.5 155.5,-38.5"/>
<text text-anchor="middle" x="208.5" y="-45.5" font-family="Helvetica,sans-Serif" font-size="10.00">ouvrir_fichier_base</text>
</a>
</g>
</g>
<!-- Node87&#45;&gt;Node88 -->
<g id="edge1" class="edge"><title>Node87&#45;&gt;Node88</title>
<path fill="none" stroke="midnightblue" d="M122.235,-37.2356C133.297,-38.6322 144.653,-40.0659 155.324,-41.413"/>
<polygon fill="midnightblue" stroke="midnightblue" points="122.546,-33.7472 112.186,-35.967 121.669,-40.6921 122.546,-33.7472"/>
</g>
<!-- Node92 -->
<g id="node6" class="node"><title>Node92</title>
<g id="a_node6"><a xlink:href="fonctions__auxiliaires_8h.html#a0f11a266115e98b2536637a1ad8b05f7" target="_top" xlink:title="Ouvre une base de données de bulletins en écriture pour un segment d&#39;exécution donné. ">
<polygon fill="white" stroke="black" points="148,-0.5 148,-19.5 269,-19.5 269,-0.5 148,-0.5"/>
<text text-anchor="middle" x="208.5" y="-7.5" font-family="Helvetica,sans-Serif" font-size="10.00">ouvrir_fichier_bulletins</text>
</a>
</g>
</g>
<!-- Node87&#45;&gt;Node92 -->
<g id="edge5" class="edge"><title>Node87&#45;&gt;Node92</title>
<path fill="none" stroke="midnightblue" d="M122.368,-20.7476C130.807,-19.6821 139.416,-18.5954 147.758,-17.5421"/>
<polygon fill="midnightblue" stroke="midnightblue" points="121.669,-17.3079 112.186,-22.033 122.546,-24.2528 121.669,-17.3079"/>
</g>
<!-- Node89 -->
<g id="node3" class="node"><title>Node89</title>
<g id="a_node3"><a xlink:href="table_8cpp.html#a666a48e623a324e4c739c91c1ea9adf7" target="_top" xlink:title="Lance l&#39;écriture des fichiers Bulletins.paie.csv et Table....csv pour un segment des données de paye...">
<polygon fill="white" stroke="black" points="305,-19.5 305,-38.5 393,-38.5 393,-19.5 305,-19.5"/>
<text text-anchor="middle" x="349" y="-26.5" font-family="Helvetica,sans-Serif" font-size="10.00">boucle_ecriture</text>
</a>
</g>
</g>
<!-- Node88&#45;&gt;Node89 -->
<g id="edge2" class="edge"><title>Node88&#45;&gt;Node89</title>
<path fill="none" stroke="midnightblue" d="M271.903,-39.4394C282.944,-37.9246 294.22,-36.3777 304.593,-34.9547"/>
<polygon fill="midnightblue" stroke="midnightblue" points="271.292,-35.9902 261.861,-40.8169 272.244,-42.9252 271.292,-35.9902"/>
</g>
<!-- Node90 -->
<g id="node4" class="node"><title>Node90</title>
<g id="a_node4"><a xlink:href="lhx_2main_8cpp.html#abb1f1ad236423a832fd1efa1e9deeafa" target="_top" xlink:title="Pour un segment donné (sous&#45;ensemble de bases de paye XML), redécoupe le segment en partie égales ou ...">
<polygon fill="white" stroke="black" points="429,-19.5 429,-38.5 531,-38.5 531,-19.5 429,-19.5"/>
<text text-anchor="middle" x="480" y="-26.5" font-family="Helvetica,sans-Serif" font-size="10.00">produire_segment</text>
</a>
</g>
</g>
<!-- Node89&#45;&gt;Node90 -->
<g id="edge3" class="edge"><title>Node89&#45;&gt;Node90</title>
<path fill="none" stroke="midnightblue" d="M403.425,-29C411.854,-29 420.542,-29 428.892,-29"/>
<polygon fill="midnightblue" stroke="midnightblue" points="403.314,-25.5001 393.314,-29 403.314,-32.5001 403.314,-25.5001"/>
</g>
<!-- Node91 -->
<g id="node5" class="node"><title>Node91</title>
<g id="a_node5"><a xlink:href="lhx_2main_8cpp.html#a3c04138a5bfe5d72780bb7e82a18e627" target="_top" xlink:title="main">
<polygon fill="white" stroke="black" points="567,-19.5 567,-38.5 606,-38.5 606,-19.5 567,-19.5"/>
<text text-anchor="middle" x="586.5" y="-26.5" font-family="Helvetica,sans-Serif" font-size="10.00">main</text>
</a>
</g>
</g>
<!-- Node90&#45;&gt;Node91 -->
<g id="edge4" class="edge"><title>Node90&#45;&gt;Node91</title>
<path fill="none" stroke="midnightblue" d="M541.271,-29C550.565,-29 559.512,-29 566.898,-29"/>
<polygon fill="midnightblue" stroke="midnightblue" points="541.108,-25.5001 531.107,-29 541.107,-32.5001 541.108,-25.5001"/>
</g>
<!-- Node92&#45;&gt;Node89 -->
<g id="edge6" class="edge"><title>Node92&#45;&gt;Node89</title>
<path fill="none" stroke="midnightblue" d="M278.963,-19.5292C287.776,-20.7382 296.585,-21.9467 304.819,-23.0762"/>
<polygon fill="midnightblue" stroke="midnightblue" points="279.423,-16.0597 269.04,-18.168 278.472,-22.9947 279.423,-16.0597"/>
</g>
</g>
</svg>
