<?xml version="1.0" encoding="UTF-8" standalone="no"?>
<!DOCTYPE svg PUBLIC "-//W3C//DTD SVG 1.1//EN"
 "http://www.w3.org/Graphics/SVG/1.1/DTD/svg11.dtd">
<!-- Generated by graphviz version 2.38.0 (20140413.2041)
 -->
<!-- Title: ouvrir_fichier_base0 Pages: 1 -->
<svg width="584pt" height="66pt"
 viewBox="0.00 0.00 584.00 66.00" xmlns="http://www.w3.org/2000/svg" xmlns:xlink="http://www.w3.org/1999/xlink">
<g id="graph0" class="graph" transform="scale(1 1) rotate(0) translate(4 62)">
<title>ouvrir_fichier_base0</title>
<polygon fill="white" stroke="none" points="-4,4 -4,-62 580,-62 580,4 -4,4"/>
<!-- Node87 -->
<g id="node1" class="node"><title>Node87</title>
<polygon fill="#bfbfbf" stroke="black" points="0,-19.5 0,-38.5 104,-38.5 104,-19.5 0,-19.5"/>
<text text-anchor="middle" x="52" y="-26.5" font-family="Helvetica,sans-Serif" font-size="10.00">ouvrir_fichier_base0</text>
</g>
<!-- Node88 -->
<g id="node2" class="node"><title>Node88</title>
<g id="a_node2"><a xlink:href="fonctions__auxiliaires_8h.html#a0f11a266115e98b2536637a1ad8b05f7" target="_top" xlink:title="Ouvre une base de données de bulletins en écriture pour un segment d&#39;exécution donné. ">
<polygon fill="white" stroke="black" points="140,-38.5 140,-57.5 253,-57.5 253,-38.5 140,-38.5"/>
<text text-anchor="middle" x="196.5" y="-45.5" font-family="Helvetica,sans-Serif" font-size="10.00">ouvrir_fichier_bulletins</text>
</a>
</g>
</g>
<!-- Node87&#45;&gt;Node88 -->
<g id="edge1" class="edge"><title>Node87&#45;&gt;Node88</title>
<path fill="none" stroke="midnightblue" d="M114.037,-37.1382C122.656,-38.2875 131.479,-39.4638 139.987,-40.5982"/>
<polygon fill="midnightblue" stroke="midnightblue" points="114.418,-33.6582 104.043,-35.8058 113.493,-40.5968 114.418,-33.6582"/>
</g>
<!-- Node92 -->
<g id="node6" class="node"><title>Node92</title>
<g id="a_node6"><a xlink:href="fonctions__auxiliaires_8h.html#a9d4a78ef3abcba5f8462b78f5c135650" target="_top" xlink:title="Ouvre une base de données de type table (bulletins + lignes) en écriture pour un segment d&#39;exécution ...">
<polygon fill="white" stroke="black" points="147.5,-0.5 147.5,-19.5 245.5,-19.5 245.5,-0.5 147.5,-0.5"/>
<text text-anchor="middle" x="196.5" y="-7.5" font-family="Helvetica,sans-Serif" font-size="10.00">ouvrir_fichier_base</text>
</a>
</g>
</g>
<!-- Node87&#45;&gt;Node92 -->
<g id="edge5" class="edge"><title>Node87&#45;&gt;Node92</title>
<path fill="none" stroke="midnightblue" d="M114.083,-20.8556C125.152,-19.3798 136.555,-17.8593 147.194,-16.4408"/>
<polygon fill="midnightblue" stroke="midnightblue" points="113.493,-17.4032 104.043,-22.1942 114.418,-24.3418 113.493,-17.4032"/>
</g>
<!-- Node89 -->
<g id="node3" class="node"><title>Node89</title>
<g id="a_node3"><a xlink:href="table_8cpp.html#a666a48e623a324e4c739c91c1ea9adf7" target="_top" xlink:title="Lance l&#39;écriture des fichiers Bulletins.paie.csv et Table....csv pour un segment des données de paye...">
<polygon fill="white" stroke="black" points="289,-19.5 289,-38.5 372,-38.5 372,-19.5 289,-19.5"/>
<text text-anchor="middle" x="330.5" y="-26.5" font-family="Helvetica,sans-Serif" font-size="10.00">boucle_ecriture</text>
</a>
</g>
</g>
<!-- Node88&#45;&gt;Node89 -->
<g id="edge2" class="edge"><title>Node88&#45;&gt;Node89</title>
<path fill="none" stroke="midnightblue" d="M263.279,-38.5319C271.985,-37.2787 280.696,-36.0249 288.806,-34.8575"/>
<polygon fill="midnightblue" stroke="midnightblue" points="262.497,-35.1083 253.097,-39.9974 263.494,-42.0369 262.497,-35.1083"/>
</g>
<!-- Node90 -->
<g id="node4" class="node"><title>Node90</title>
<g id="a_node4"><a xlink:href="lhx_2main_8cpp.html#abb1f1ad236423a832fd1efa1e9deeafa" target="_top" xlink:title="Pour un segment donné (sous&#45;ensemble de bases de paye XML), redécoupe le segment en partie égales ou ...">
<polygon fill="white" stroke="black" points="408,-19.5 408,-38.5 502,-38.5 502,-19.5 408,-19.5"/>
<text text-anchor="middle" x="455" y="-26.5" font-family="Helvetica,sans-Serif" font-size="10.00">produire_segment</text>
</a>
</g>
</g>
<!-- Node89&#45;&gt;Node90 -->
<g id="edge3" class="edge"><title>Node89&#45;&gt;Node90</title>
<path fill="none" stroke="midnightblue" d="M382.413,-29C390.858,-29 399.572,-29 407.89,-29"/>
<polygon fill="midnightblue" stroke="midnightblue" points="382.291,-25.5001 372.291,-29 382.291,-32.5001 382.291,-25.5001"/>
</g>
<!-- Node91 -->
<g id="node5" class="node"><title>Node91</title>
<g id="a_node5"><a xlink:href="lhx_2main_8cpp.html#a3c04138a5bfe5d72780bb7e82a18e627" target="_top" xlink:title="main">
<polygon fill="white" stroke="black" points="538,-19.5 538,-38.5 576,-38.5 576,-19.5 538,-19.5"/>
<text text-anchor="middle" x="557" y="-26.5" font-family="Helvetica,sans-Serif" font-size="10.00">main</text>
</a>
</g>
</g>
<!-- Node90&#45;&gt;Node91 -->
<g id="edge4" class="edge"><title>Node90&#45;&gt;Node91</title>
<path fill="none" stroke="midnightblue" d="M512.316,-29C521.594,-29 530.577,-29 537.96,-29"/>
<polygon fill="midnightblue" stroke="midnightblue" points="512.195,-25.5001 502.195,-29 512.195,-32.5001 512.195,-25.5001"/>
</g>
<!-- Node92&#45;&gt;Node89 -->
<g id="edge6" class="edge"><title>Node92&#45;&gt;Node89</title>
<path fill="none" stroke="midnightblue" d="M255.639,-18.3686C266.783,-19.9725 278.229,-21.6201 288.683,-23.1249"/>
<polygon fill="midnightblue" stroke="midnightblue" points="255.925,-14.8737 245.528,-16.9132 254.928,-21.8023 255.925,-14.8737"/>
</g>
</g>
</svg>
