<?xml version="1.0" encoding="UTF-8" standalone="no"?>
<!DOCTYPE svg PUBLIC "-//W3C//DTD SVG 1.1//EN"
 "http://www.w3.org/Graphics/SVG/1.1/DTD/svg11.dtd">
<!-- Generated by graphviz version 2.40.1 (20161225.0304)
 -->
<!-- Title: lhx/fonctions_auxiliaires.h Pages: 1 -->
<!--zoomable 252 -->
<svg id="main" version="1.1" xmlns="http://www.w3.org/2000/svg" xmlns:xlink="http://www.w3.org/1999/xlink" xml:space="preserve" onload="init(evt)">
<style type="text/css"><![CDATA[
.edge:hover path { stroke: red; }
.edge:hover polygon { stroke: red; fill: red; }
]]></style>
<script type="text/javascript"><![CDATA[
var edges = document.getElementsByTagName('g');
if (edges && edges.length) {
  for (var i=0;i<edges.length;i++) {
    if (edges[i].id.substr(0,4)=='edge') {
      edges[i].setAttribute('class','edge');
    }
  }
}
]]></script>
        <defs>
                <circle id="rim" cx="0" cy="0" r="7"/>
                <circle id="rim2" cx="0" cy="0" r="3.5"/>
                <g id="zoomPlus">
                        <use xlink:href="#rim" fill="#404040">
                                <set attributeName="fill" to="#808080" begin="zoomplus.mouseover" end="zoomplus.mouseout"/>
                        </use>
                        <path d="M-4,0h8M0,-4v8" fill="none" stroke="white" stroke-width="1.5" pointer-events="none"/>
                </g>
                <g id="zoomMin">
                        <use xlink:href="#rim" fill="#404040">
                                <set attributeName="fill" to="#808080" begin="zoomminus.mouseover" end="zoomminus.mouseout"/>
                        </use>
                        <path d="M-4,0h8" fill="none" stroke="white" stroke-width="1.5" pointer-events="none"/>
                </g>
                <g id="dirArrow">
                        <path fill="none" stroke="white" stroke-width="1.5" d="M0,-3.0v7 M-2.5,-0.5L0,-3.0L2.5,-0.5"/>
                </g>
               <g id="resetDef">
                       <use xlink:href="#rim2" fill="#404040">
                               <set attributeName="fill" to="#808080" begin="reset.mouseover" end="reset.mouseout"/>
                       </use>
               </g>
        </defs>

<script type="text/javascript">
var viewWidth = 2051;
var viewHeight = 252;
var sectionId = 'dynsection-0';
</script>
<script xlink:href="svgpan.js"/>
<svg id="graph" class="graph">
<g id="viewport">
<title>lhx/fonctions_auxiliaires.h</title>
<polygon fill="#ffffff" stroke="transparent" points="-4,4 -4,-248 2046.5,-248 2046.5,4 -4,4"/>
<!-- Node0 -->
<g id="node1" class="node">
<title>Node0</title>
<polygon fill="#bfbfbf" stroke="#000000" points="1277,-224.5 1277,-243.5 1406,-243.5 1406,-224.5 1277,-224.5"/>
<text text-anchor="middle" x="1341.5" y="-231.5" font-family="Helvetica,sans-Serif" font-size="10.00" fill="#000000">lhx/fonctions_auxiliaires.h</text>
</g>
<!-- Node1 -->
<g id="node2" class="node">
<title>Node1</title>
<g id="a_node2"><a xlink:href="validator_8h.html" target="_top" xlink:title="Ce fichier contient notamment la structure info_t qui stocke les données de paye décodées ainsi que l...">
<polygon fill="#ffffff" stroke="#000000" points="733.5,-168.5 733.5,-187.5 795.5,-187.5 795.5,-168.5 733.5,-168.5"/>
<text text-anchor="middle" x="764.5" y="-175.5" font-family="Helvetica,sans-Serif" font-size="10.00" fill="#000000">validator.h</text>
</a>
</g>
</g>
<!-- Node0&#45;&gt;Node1 -->
<g id="edge1" class="edge">
<title>Node0&#45;&gt;Node1</title>
<path fill="none" stroke="#191970" d="M1276.9903,-227.7391C1157.5375,-216.1458 905.0524,-191.6411 805.805,-182.0088"/>
<polygon fill="#191970" stroke="#191970" points="805.8717,-178.4989 795.5803,-181.0165 805.1954,-185.4662 805.8717,-178.4989"/>
</g>
<!-- Node2 -->
<g id="node3" class="node">
<title>Node2</title>
<polygon fill="#ffffff" stroke="#bfbfbf" points="0,-112.5 0,-131.5 41,-131.5 41,-112.5 0,-112.5"/>
<text text-anchor="middle" x="20.5" y="-119.5" font-family="Helvetica,sans-Serif" font-size="10.00" fill="#000000">string</text>
</g>
<!-- Node0&#45;&gt;Node2 -->
<g id="edge40" class="edge">
<title>Node0&#45;&gt;Node2</title>
<path fill="none" stroke="#191970" d="M1276.7236,-232.6227C1080.0053,-228.2046 491.413,-213.1875 301.5,-188 191.4028,-173.3982 162.2676,-163.1502 51.0127,-131.9473"/>
<polygon fill="#191970" stroke="#191970" points="51.6448,-128.4898 41.0715,-129.165 49.7581,-135.2307 51.6448,-128.4898"/>
</g>
<!-- Node4 -->
<g id="node5" class="node">
<title>Node4</title>
<polygon fill="#ffffff" stroke="#bfbfbf" points="59.5,-112.5 59.5,-131.5 105.5,-131.5 105.5,-112.5 59.5,-112.5"/>
<text text-anchor="middle" x="82.5" y="-119.5" font-family="Helvetica,sans-Serif" font-size="10.00" fill="#000000">cstdint</text>
</g>
<!-- Node0&#45;&gt;Node4 -->
<g id="edge33" class="edge">
<title>Node0&#45;&gt;Node4</title>
<path fill="none" stroke="#191970" d="M1276.9067,-232.6482C1133.9523,-229.1922 780.1311,-218.0825 485.5,-188 322.8459,-171.3927 278.7143,-169.4935 115.6914,-132.0182"/>
<polygon fill="#191970" stroke="#191970" points="116.3366,-128.5752 105.8056,-129.7359 114.7619,-135.3957 116.3366,-128.5752"/>
</g>
<!-- Node10 -->
<g id="node11" class="node">
<title>Node10</title>
<polygon fill="#ffffff" stroke="#bfbfbf" points="123.5,-112.5 123.5,-131.5 169.5,-131.5 169.5,-112.5 123.5,-112.5"/>
<text text-anchor="middle" x="146.5" y="-119.5" font-family="Helvetica,sans-Serif" font-size="10.00" fill="#000000">cstring</text>
</g>
<!-- Node0&#45;&gt;Node10 -->
<g id="edge32" class="edge">
<title>Node0&#45;&gt;Node10</title>
<path fill="none" stroke="#191970" d="M1276.605,-229.7574C1164.1152,-222.27 925.6539,-205.8106 724.5,-188 606.0903,-177.5158 313.3479,-157.581 179.8782,-131.8872"/>
<polygon fill="#191970" stroke="#191970" points="180.2691,-128.3961 169.7769,-129.8674 178.8966,-135.2602 180.2691,-128.3961"/>
</g>
<!-- Node13 -->
<g id="node14" class="node">
<title>Node13</title>
<polygon fill="#ffffff" stroke="#bfbfbf" points="1080.5,-112.5 1080.5,-131.5 1160.5,-131.5 1160.5,-112.5 1080.5,-112.5"/>
<text text-anchor="middle" x="1120.5" y="-119.5" font-family="Helvetica,sans-Serif" font-size="10.00" fill="#000000">libxml/parser.h</text>
</g>
<!-- Node0&#45;&gt;Node13 -->
<g id="edge26" class="edge">
<title>Node0&#45;&gt;Node13</title>
<path fill="none" stroke="#191970" d="M1319.4472,-224.3748C1299.0473,-215.349 1267.972,-201.2888 1241.5,-188 1208.0836,-171.2251 1170.3802,-150.339 1146.0731,-136.6103"/>
<polygon fill="#191970" stroke="#191970" points="1147.5682,-133.4347 1137.1428,-131.5478 1144.1161,-139.5243 1147.5682,-133.4347"/>
</g>
<!-- Node15 -->
<g id="node16" class="node">
<title>Node15</title>
<polygon fill="#ffffff" stroke="#bfbfbf" points="1178.5,-112.5 1178.5,-131.5 1222.5,-131.5 1222.5,-112.5 1178.5,-112.5"/>
<text text-anchor="middle" x="1200.5" y="-119.5" font-family="Helvetica,sans-Serif" font-size="10.00" fill="#000000">vector</text>
</g>
<!-- Node0&#45;&gt;Node15 -->
<g id="edge30" class="edge">
<title>Node0&#45;&gt;Node15</title>
<path fill="none" stroke="#191970" d="M1323.7286,-224.4359C1308.2657,-215.7744 1285.565,-202.2247 1267.5,-188 1248.4121,-172.9698 1228.8783,-153.1146 1215.8656,-139.1211"/>
<polygon fill="#191970" stroke="#191970" points="1218.3466,-136.648 1209.0101,-131.64 1213.1858,-141.3773 1218.3466,-136.648"/>
</g>
<!-- Node16 -->
<g id="node17" class="node">
<title>Node16</title>
<polygon fill="#ffffff" stroke="#bfbfbf" points="1240.5,-112.5 1240.5,-131.5 1278.5,-131.5 1278.5,-112.5 1240.5,-112.5"/>
<text text-anchor="middle" x="1259.5" y="-119.5" font-family="Helvetica,sans-Serif" font-size="10.00" fill="#000000">array</text>
</g>
<!-- Node0&#45;&gt;Node16 -->
<g id="edge41" class="edge">
<title>Node0&#45;&gt;Node16</title>
<path fill="none" stroke="#191970" d="M1324.3012,-224.3562C1311.1848,-216.2065 1293.5483,-203.4121 1282.5,-188 1272.5705,-174.1486 1266.6132,-155.6294 1263.2585,-141.7339"/>
<polygon fill="#191970" stroke="#191970" points="1266.6358,-140.7921 1261.0998,-131.7586 1259.7941,-142.2727 1266.6358,-140.7921"/>
</g>
<!-- Node17 -->
<g id="node18" class="node">
<title>Node17</title>
<polygon fill="#ffffff" stroke="#bfbfbf" points="1296.5,-112.5 1296.5,-131.5 1350.5,-131.5 1350.5,-112.5 1296.5,-112.5"/>
<text text-anchor="middle" x="1323.5" y="-119.5" font-family="Helvetica,sans-Serif" font-size="10.00" fill="#000000">iostream</text>
</g>
<!-- Node0&#45;&gt;Node17 -->
<g id="edge27" class="edge">
<title>Node0&#45;&gt;Node17</title>
<path fill="none" stroke="#191970" d="M1324.4433,-224.377C1312.1911,-216.4014 1296.6292,-203.8248 1289.5,-188 1281.8713,-171.0663 1293.6023,-152.2854 1305.3161,-139.1016"/>
<polygon fill="#191970" stroke="#191970" points="1308.0364,-141.3218 1312.4341,-131.6828 1302.9852,-136.4755 1308.0364,-141.3218"/>
</g>
<!-- Node18 -->
<g id="node19" class="node">
<title>Node18</title>
<polygon fill="#ffffff" stroke="#bfbfbf" points="1368.5,-112.5 1368.5,-131.5 1418.5,-131.5 1418.5,-112.5 1368.5,-112.5"/>
<text text-anchor="middle" x="1393.5" y="-119.5" font-family="Helvetica,sans-Serif" font-size="10.00" fill="#000000">iomanip</text>
</g>
<!-- Node0&#45;&gt;Node18 -->
<g id="edge34" class="edge">
<title>Node0&#45;&gt;Node18</title>
<path fill="none" stroke="#191970" d="M1335.4583,-224.0466C1328.1553,-210.6176 1317.961,-186.2757 1327.5,-168 1334.6245,-154.3502 1347.8523,-143.926 1360.6056,-136.4806"/>
<polygon fill="#191970" stroke="#191970" points="1362.5647,-139.4012 1369.7141,-131.5822 1359.2492,-133.2362 1362.5647,-139.4012"/>
</g>
<!-- Node20 -->
<g id="node21" class="node">
<title>Node20</title>
<g id="a_node21"><a xlink:href="tags_8h.html" target="_top" xlink:title="tags.h">
<polygon fill="#ffffff" stroke="#000000" points="1436.5,-112.5 1436.5,-131.5 1480.5,-131.5 1480.5,-112.5 1436.5,-112.5"/>
<text text-anchor="middle" x="1458.5" y="-119.5" font-family="Helvetica,sans-Serif" font-size="10.00" fill="#000000">tags.h</text>
</a>
</g>
</g>
<!-- Node0&#45;&gt;Node20 -->
<g id="edge43" class="edge">
<title>Node0&#45;&gt;Node20</title>
<path fill="none" stroke="#191970" d="M1341.8471,-224.321C1342.8377,-210.3257 1346.5732,-184.3306 1360.5,-168 1369.6516,-157.2688 1401.7538,-143.3105 1426.7521,-133.5969"/>
<polygon fill="#191970" stroke="#191970" points="1428.1648,-136.8041 1436.2613,-129.9705 1425.6705,-130.2635 1428.1648,-136.8041"/>
</g>
<!-- Node25 -->
<g id="node26" class="node">
<title>Node25</title>
<polygon fill="#ffffff" stroke="#bfbfbf" points="1369.5,-168.5 1369.5,-187.5 1421.5,-187.5 1421.5,-168.5 1369.5,-168.5"/>
<text text-anchor="middle" x="1395.5" y="-175.5" font-family="Helvetica,sans-Serif" font-size="10.00" fill="#000000">sstream</text>
</g>
<!-- Node0&#45;&gt;Node25 -->
<g id="edge28" class="edge">
<title>Node0&#45;&gt;Node25</title>
<path fill="none" stroke="#191970" d="M1350.9061,-224.2455C1358.6493,-216.2155 1369.812,-204.6394 1379.0318,-195.0781"/>
<polygon fill="#191970" stroke="#191970" points="1381.7798,-197.2706 1386.2017,-187.6427 1376.7409,-192.4117 1381.7798,-197.2706"/>
</g>
<!-- Node26 -->
<g id="node27" class="node">
<title>Node26</title>
<polygon fill="#ffffff" stroke="#bfbfbf" points="1439.5,-168.5 1439.5,-187.5 1489.5,-187.5 1489.5,-168.5 1439.5,-168.5"/>
<text text-anchor="middle" x="1464.5" y="-175.5" font-family="Helvetica,sans-Serif" font-size="10.00" fill="#000000">fstream</text>
</g>
<!-- Node0&#45;&gt;Node26 -->
<g id="edge29" class="edge">
<title>Node0&#45;&gt;Node26</title>
<path fill="none" stroke="#191970" d="M1362.6445,-224.3733C1382.3892,-215.3838 1412.0698,-201.8706 1434.3055,-191.7471"/>
<polygon fill="#191970" stroke="#191970" points="1435.9806,-194.8302 1443.6315,-187.5011 1433.08,-188.4594 1435.9806,-194.8302"/>
</g>
<!-- Node27 -->
<g id="node28" class="node">
<title>Node27</title>
<polygon fill="#ffffff" stroke="#bfbfbf" points="1507.5,-168.5 1507.5,-187.5 1551.5,-187.5 1551.5,-168.5 1507.5,-168.5"/>
<text text-anchor="middle" x="1529.5" y="-175.5" font-family="Helvetica,sans-Serif" font-size="10.00" fill="#000000">mutex</text>
</g>
<!-- Node0&#45;&gt;Node27 -->
<g id="edge31" class="edge">
<title>Node0&#45;&gt;Node27</title>
<path fill="none" stroke="#191970" d="M1374.9617,-224.4796C1404.8108,-215.9242 1449.9317,-202.8384 1497.6065,-188.2245"/>
<polygon fill="#191970" stroke="#191970" points="1498.6427,-191.5676 1507.1717,-185.2822 1496.5846,-184.877 1498.6427,-191.5676"/>
</g>
<!-- Node28 -->
<g id="node29" class="node">
<title>Node28</title>
<polygon fill="#ffffff" stroke="#bfbfbf" points="1570,-168.5 1570,-187.5 1613,-187.5 1613,-168.5 1570,-168.5"/>
<text text-anchor="middle" x="1591.5" y="-175.5" font-family="Helvetica,sans-Serif" font-size="10.00" fill="#000000">cstdio</text>
</g>
<!-- Node0&#45;&gt;Node28 -->
<g id="edge35" class="edge">
<title>Node0&#45;&gt;Node28</title>
<path fill="none" stroke="#191970" d="M1394.5243,-224.4796C1436.8417,-216.5158 1497.7893,-204.2324 1559.9256,-187.9356"/>
<polygon fill="#191970" stroke="#191970" points="1561.1388,-191.2348 1569.9056,-185.2857 1559.3423,-184.4693 1561.1388,-191.2348"/>
</g>
<!-- Node29 -->
<g id="node30" class="node">
<title>Node29</title>
<polygon fill="#ffffff" stroke="#bfbfbf" points="1631,-168.5 1631,-187.5 1678,-187.5 1678,-168.5 1631,-168.5"/>
<text text-anchor="middle" x="1654.5" y="-175.5" font-family="Helvetica,sans-Serif" font-size="10.00" fill="#000000">iterator</text>
</g>
<!-- Node0&#45;&gt;Node29 -->
<g id="edge36" class="edge">
<title>Node0&#45;&gt;Node29</title>
<path fill="none" stroke="#191970" d="M1406.1817,-226.0432C1461.1179,-218.6879 1542.1624,-206.4326 1620.7672,-188.1772"/>
<polygon fill="#191970" stroke="#191970" points="1621.9079,-191.5043 1630.8373,-185.8019 1620.3008,-184.6912 1621.9079,-191.5043"/>
</g>
<!-- Node30 -->
<g id="node31" class="node">
<title>Node30</title>
<polygon fill="#ffffff" stroke="#bfbfbf" points="1696.5,-168.5 1696.5,-187.5 1756.5,-187.5 1756.5,-168.5 1696.5,-168.5"/>
<text text-anchor="middle" x="1726.5" y="-175.5" font-family="Helvetica,sans-Serif" font-size="10.00" fill="#000000">sys/stat.h</text>
</g>
<!-- Node0&#45;&gt;Node30 -->
<g id="edge37" class="edge">
<title>Node0&#45;&gt;Node30</title>
<path fill="none" stroke="#191970" d="M1406.2785,-227.7124C1473.8957,-220.6258 1583.1435,-207.7058 1686.3767,-188.0338"/>
<polygon fill="#191970" stroke="#191970" points="1687.1914,-191.4412 1696.3466,-186.1089 1685.8644,-184.5681 1687.1914,-191.4412"/>
</g>
<!-- Node31 -->
<g id="node32" class="node">
<title>Node31</title>
<polygon fill="#ffffff" stroke="#bfbfbf" points="1774.5,-168.5 1774.5,-187.5 1826.5,-187.5 1826.5,-168.5 1774.5,-168.5"/>
<text text-anchor="middle" x="1800.5" y="-175.5" font-family="Helvetica,sans-Serif" font-size="10.00" fill="#000000">memory</text>
</g>
<!-- Node0&#45;&gt;Node31 -->
<g id="edge38" class="edge">
<title>Node0&#45;&gt;Node31</title>
<path fill="none" stroke="#191970" d="M1406.303,-230.4079C1487.878,-225.1218 1632.3371,-213.2271 1764.3565,-187.9441"/>
<polygon fill="#191970" stroke="#191970" points="1765.0958,-191.366 1774.2434,-186.0208 1763.759,-184.4948 1765.0958,-191.366"/>
</g>
<!-- Node32 -->
<g id="node33" class="node">
<title>Node32</title>
<polygon fill="#ffffff" stroke="#bfbfbf" points="1845,-168.5 1845,-187.5 1904,-187.5 1904,-168.5 1845,-168.5"/>
<text text-anchor="middle" x="1874.5" y="-175.5" font-family="Helvetica,sans-Serif" font-size="10.00" fill="#000000">stdexcept</text>
</g>
<!-- Node0&#45;&gt;Node32 -->
<g id="edge39" class="edge">
<title>Node0&#45;&gt;Node32</title>
<path fill="none" stroke="#191970" d="M1406.2702,-231.2379C1499.136,-226.5556 1675.532,-214.9759 1834.8132,-187.8567"/>
<polygon fill="#191970" stroke="#191970" points="1835.5361,-191.2838 1844.7945,-186.1328 1834.3447,-184.3859 1835.5361,-191.2838"/>
</g>
<!-- Node33 -->
<g id="node34" class="node">
<title>Node33</title>
<polygon fill="#ffffff" stroke="#bfbfbf" points="1922.5,-168.5 1922.5,-187.5 2042.5,-187.5 2042.5,-168.5 1922.5,-168.5"/>
<text text-anchor="middle" x="1982.5" y="-175.5" font-family="Helvetica,sans-Serif" font-size="10.00" fill="#000000">experimental/filesystem</text>
</g>
<!-- Node0&#45;&gt;Node33 -->
<g id="edge42" class="edge">
<title>Node0&#45;&gt;Node33</title>
<path fill="none" stroke="#191970" d="M1406.3943,-230.1318C1510.7373,-223.6144 1722.4887,-209.1627 1912.1592,-188.0897"/>
<polygon fill="#191970" stroke="#191970" points="1912.7699,-191.5433 1922.3183,-186.9522 1911.991,-184.5868 1912.7699,-191.5433"/>
</g>
<!-- Node1&#45;&gt;Node2 -->
<g id="edge2" class="edge">
<title>Node1&#45;&gt;Node2</title>
<path fill="none" stroke="#191970" d="M733.2547,-177.0563C616.2535,-173.3608 203.4215,-158.8274 51.3586,-131.5914"/>
<polygon fill="#191970" stroke="#191970" points="51.7719,-128.1077 41.2965,-129.6938 50.4747,-134.9864 51.7719,-128.1077"/>
</g>
<!-- Node3 -->
<g id="node4" class="node">
<title>Node3</title>
<polygon fill="#ffffff" stroke="#bfbfbf" points="883,-112.5 883,-131.5 928,-131.5 928,-112.5 883,-112.5"/>
<text text-anchor="middle" x="905.5" y="-119.5" font-family="Helvetica,sans-Serif" font-size="10.00" fill="#000000">cstdlib</text>
</g>
<!-- Node1&#45;&gt;Node3 -->
<g id="edge3" class="edge">
<title>Node1&#45;&gt;Node3</title>
<path fill="none" stroke="#191970" d="M788.7388,-168.3733C812.1978,-159.0562 847.8923,-144.8797 873.6387,-134.6541"/>
<polygon fill="#191970" stroke="#191970" points="874.971,-137.891 882.9729,-130.9469 872.3872,-131.3853 874.971,-137.891"/>
</g>
<!-- Node1&#45;&gt;Node4 -->
<g id="edge4" class="edge">
<title>Node1&#45;&gt;Node4</title>
<path fill="none" stroke="#191970" d="M733.4091,-176.7578C623.685,-172.2286 254.1839,-155.7052 115.7136,-131.766"/>
<polygon fill="#191970" stroke="#191970" points="116.2247,-128.3016 105.7597,-129.9549 114.9716,-135.1885 116.2247,-128.3016"/>
</g>
<!-- Node5 -->
<g id="node6" class="node">
<title>Node5</title>
<polygon fill="#ffffff" stroke="#bfbfbf" points="946,-112.5 946,-131.5 999,-131.5 999,-112.5 946,-112.5"/>
<text text-anchor="middle" x="972.5" y="-119.5" font-family="Helvetica,sans-Serif" font-size="10.00" fill="#000000">cstdbool</text>
</g>
<!-- Node1&#45;&gt;Node5 -->
<g id="edge5" class="edge">
<title>Node1&#45;&gt;Node5</title>
<path fill="none" stroke="#191970" d="M795.7997,-169.8628C828.5231,-161.3147 881.617,-147.3316 935.9628,-132.3943"/>
<polygon fill="#191970" stroke="#191970" points="937.0503,-135.7252 945.7612,-129.6944 935.1907,-128.9767 937.0503,-135.7252"/>
</g>
<!-- Node6 -->
<g id="node7" class="node">
<title>Node6</title>
<polygon fill="#ffffff" stroke="#bfbfbf" points="1017,-112.5 1017,-131.5 1062,-131.5 1062,-112.5 1017,-112.5"/>
<text text-anchor="middle" x="1039.5" y="-119.5" font-family="Helvetica,sans-Serif" font-size="10.00" fill="#000000">climits</text>
</g>
<!-- Node1&#45;&gt;Node6 -->
<g id="edge6" class="edge">
<title>Node1&#45;&gt;Node6</title>
<path fill="none" stroke="#191970" d="M795.5869,-173.4235C840.3992,-166.5493 925.8697,-152.4043 1007.0349,-132.1502"/>
<polygon fill="#191970" stroke="#191970" points="1008.0738,-135.4977 1016.9087,-129.65 1006.3555,-128.7119 1008.0738,-135.4977"/>
</g>
<!-- Node7 -->
<g id="node8" class="node">
<title>Node7</title>
<polygon fill="#ffffff" stroke="#bfbfbf" points="188,-112.5 188,-131.5 235,-131.5 235,-112.5 188,-112.5"/>
<text text-anchor="middle" x="211.5" y="-119.5" font-family="Helvetica,sans-Serif" font-size="10.00" fill="#000000">clocale</text>
</g>
<!-- Node1&#45;&gt;Node7 -->
<g id="edge7" class="edge">
<title>Node1&#45;&gt;Node7</title>
<path fill="none" stroke="#191970" d="M733.1648,-175.2712C630.6018,-166.3345 308.321,-138.2122 245.3735,-131.1435"/>
<polygon fill="#191970" stroke="#191970" points="245.5164,-127.6324 235.1463,-129.8027 244.6064,-134.573 245.5164,-127.6324"/>
</g>
<!-- Node8 -->
<g id="node9" class="node">
<title>Node8</title>
<polygon fill="#ffffff" stroke="#bfbfbf" points="253.5,-112.5 253.5,-131.5 297.5,-131.5 297.5,-112.5 253.5,-112.5"/>
<text text-anchor="middle" x="275.5" y="-119.5" font-family="Helvetica,sans-Serif" font-size="10.00" fill="#000000">cerrno</text>
</g>
<!-- Node1&#45;&gt;Node8 -->
<g id="edge8" class="edge">
<title>Node1&#45;&gt;Node8</title>
<path fill="none" stroke="#191970" d="M733.2622,-175.2495C641.9593,-167.159 378.0263,-143.3919 307.5988,-131.6313"/>
<polygon fill="#191970" stroke="#191970" points="308.1715,-128.1778 297.699,-129.7836 306.8871,-135.059 308.1715,-128.1778"/>
</g>
<!-- Node9 -->
<g id="node10" class="node">
<title>Node9</title>
<polygon fill="#ffffff" stroke="#bfbfbf" points="315.5,-112.5 315.5,-131.5 359.5,-131.5 359.5,-112.5 315.5,-112.5"/>
<text text-anchor="middle" x="337.5" y="-119.5" font-family="Helvetica,sans-Serif" font-size="10.00" fill="#000000">cmath</text>
</g>
<!-- Node1&#45;&gt;Node9 -->
<g id="edge9" class="edge">
<title>Node1&#45;&gt;Node9</title>
<path fill="none" stroke="#191970" d="M733.3488,-175.1796C655.8034,-168.036 454.7955,-148.7362 369.518,-131.7944"/>
<polygon fill="#191970" stroke="#191970" points="370.2131,-128.3641 359.7081,-129.741 368.7789,-135.2156 370.2131,-128.3641"/>
</g>
<!-- Node1&#45;&gt;Node10 -->
<g id="edge10" class="edge">
<title>Node1&#45;&gt;Node10</title>
<path fill="none" stroke="#191970" d="M733.4887,-175.2457C710.1291,-173.1906 677.3101,-170.3451 648.5,-168 442.9525,-151.2685 386.014,-170.866 179.7013,-131.8418"/>
<polygon fill="#191970" stroke="#191970" points="180.2426,-128.3819 169.7628,-129.9388 178.9261,-135.257 180.2426,-128.3819"/>
</g>
<!-- Node11 -->
<g id="node12" class="node">
<title>Node11</title>
<polygon fill="#ffffff" stroke="#bfbfbf" points="377.5,-112.5 377.5,-131.5 423.5,-131.5 423.5,-112.5 377.5,-112.5"/>
<text text-anchor="middle" x="400.5" y="-119.5" font-family="Helvetica,sans-Serif" font-size="10.00" fill="#000000">cctype</text>
</g>
<!-- Node1&#45;&gt;Node11 -->
<g id="edge11" class="edge">
<title>Node1&#45;&gt;Node11</title>
<path fill="none" stroke="#191970" d="M733.067,-175.3898C675.4416,-170.2314 548.9557,-157.1796 433.833,-132.0018"/>
<polygon fill="#191970" stroke="#191970" points="434.3194,-128.5245 423.798,-129.7693 432.7993,-135.3575 434.3194,-128.5245"/>
</g>
<!-- Node12 -->
<g id="node13" class="node">
<title>Node12</title>
<polygon fill="#ffffff" stroke="#bfbfbf" points="441.5,-112.5 441.5,-131.5 545.5,-131.5 545.5,-112.5 441.5,-112.5"/>
<text text-anchor="middle" x="493.5" y="-119.5" font-family="Helvetica,sans-Serif" font-size="10.00" fill="#000000">libxml/xmlmemory.h</text>
</g>
<!-- Node1&#45;&gt;Node12 -->
<g id="edge12" class="edge">
<title>Node1&#45;&gt;Node12</title>
<path fill="none" stroke="#191970" d="M733.4129,-171.5761C688.6509,-162.3264 605.3162,-145.1059 549.6203,-133.5968"/>
<polygon fill="#191970" stroke="#191970" points="550.0592,-130.1136 539.5578,-131.5175 548.6426,-136.9688 550.0592,-130.1136"/>
</g>
<!-- Node1&#45;&gt;Node13 -->
<g id="edge13" class="edge">
<title>Node1&#45;&gt;Node13</title>
<path fill="none" stroke="#191970" d="M795.5264,-173.9007C849.3517,-166.6705 963.7314,-150.7841 1070.451,-132.1145"/>
<polygon fill="#191970" stroke="#191970" points="1071.1803,-135.54 1080.4214,-130.358 1069.9658,-128.6461 1071.1803,-135.54"/>
</g>
<!-- Node14 -->
<g id="node15" class="node">
<title>Node14</title>
<polygon fill="#ffffff" stroke="#bfbfbf" points="563.5,-112.5 563.5,-131.5 619.5,-131.5 619.5,-112.5 563.5,-112.5"/>
<text text-anchor="middle" x="591.5" y="-119.5" font-family="Helvetica,sans-Serif" font-size="10.00" fill="#000000">cinttypes</text>
</g>
<!-- Node1&#45;&gt;Node14 -->
<g id="edge14" class="edge">
<title>Node1&#45;&gt;Node14</title>
<path fill="none" stroke="#191970" d="M734.7602,-168.3733C705.6443,-158.9484 661.1669,-144.5511 629.5013,-134.301"/>
<polygon fill="#191970" stroke="#191970" points="630.298,-130.8801 619.7061,-131.1303 628.1422,-137.5399 630.298,-130.8801"/>
</g>
<!-- Node1&#45;&gt;Node15 -->
<g id="edge15" class="edge">
<title>Node1&#45;&gt;Node15</title>
<path fill="none" stroke="#191970" d="M795.5783,-176.5792C862.3637,-173.078 1024.519,-162.1769 1168.4055,-131.8681"/>
<polygon fill="#191970" stroke="#191970" points="1169.2494,-135.2667 1178.2934,-129.748 1167.7819,-128.4223 1169.2494,-135.2667"/>
</g>
<!-- Node1&#45;&gt;Node16 -->
<g id="edge16" class="edge">
<title>Node1&#45;&gt;Node16</title>
<path fill="none" stroke="#191970" d="M795.5111,-177.5548C869.5569,-175.9413 1062.3964,-168.4879 1230.3941,-131.7477"/>
<polygon fill="#191970" stroke="#191970" points="1231.404,-135.1086 1240.4031,-129.517 1229.8812,-128.2762 1231.404,-135.1086"/>
</g>
<!-- Node1&#45;&gt;Node17 -->
<g id="edge17" class="edge">
<title>Node1&#45;&gt;Node17</title>
<path fill="none" stroke="#191970" d="M795.7122,-177.2455C875.8314,-174.8876 1095.2947,-165.7719 1286.5469,-131.8642"/>
<polygon fill="#191970" stroke="#191970" points="1287.2748,-135.2895 1296.4964,-130.0729 1286.0344,-128.4002 1287.2748,-135.2895"/>
</g>
<!-- Node1&#45;&gt;Node18 -->
<g id="edge18" class="edge">
<title>Node1&#45;&gt;Node18</title>
<path fill="none" stroke="#191970" d="M795.8481,-176.4432C899.5164,-171.1628 1231.4275,-153.1697 1358.524,-131.7669"/>
<polygon fill="#191970" stroke="#191970" points="1359.1535,-135.21 1368.3905,-130.0208 1357.9336,-128.3171 1359.1535,-135.21"/>
</g>
<!-- Node19 -->
<g id="node20" class="node">
<title>Node19</title>
<polygon fill="#ffffff" stroke="#bfbfbf" points="637.5,-112.5 637.5,-131.5 693.5,-131.5 693.5,-112.5 637.5,-112.5"/>
<text text-anchor="middle" x="665.5" y="-119.5" font-family="Helvetica,sans-Serif" font-size="10.00" fill="#000000">algorithm</text>
</g>
<!-- Node1&#45;&gt;Node19 -->
<g id="edge19" class="edge">
<title>Node1&#45;&gt;Node19</title>
<path fill="none" stroke="#191970" d="M747.2555,-168.2455C731.9239,-159.5731 709.2801,-146.7645 691.7084,-136.825"/>
<polygon fill="#191970" stroke="#191970" points="692.9741,-133.5198 682.5469,-131.6427 689.5276,-139.6126 692.9741,-133.5198"/>
</g>
<!-- Node1&#45;&gt;Node20 -->
<g id="edge20" class="edge">
<title>Node1&#45;&gt;Node20</title>
<path fill="none" stroke="#191970" d="M795.8256,-176.8356C907.2709,-172.5402 1284.9444,-156.6362 1426.1678,-131.7532"/>
<polygon fill="#191970" stroke="#191970" points="1427.1251,-135.1353 1436.318,-129.8682 1425.847,-128.253 1427.1251,-135.1353"/>
</g>
<!-- Node21 -->
<g id="node22" class="node">
<title>Node21</title>
<g id="a_node22"><a xlink:href="expression__reg__elus_8h.html" target="_top" xlink:title="Expressions régulières représentant les élus. ">
<polygon fill="#ffffff" stroke="#000000" points="637.5,-56.5 637.5,-75.5 751.5,-75.5 751.5,-56.5 637.5,-56.5"/>
<text text-anchor="middle" x="694.5" y="-63.5" font-family="Helvetica,sans-Serif" font-size="10.00" fill="#000000">expression_reg_elus.h</text>
</a>
</g>
</g>
<!-- Node1&#45;&gt;Node21 -->
<g id="edge21" class="edge">
<title>Node1&#45;&gt;Node21</title>
<path fill="none" stroke="#191970" d="M758.5318,-168.4509C746.8567,-149.7707 720.8274,-108.1238 705.7976,-84.0761"/>
<polygon fill="#191970" stroke="#191970" points="708.7211,-82.1499 700.4531,-75.5249 702.7851,-85.8599 708.7211,-82.1499"/>
</g>
<!-- Node23 -->
<g id="node24" class="node">
<title>Node23</title>
<g id="a_node24"><a xlink:href="expression__reg__cata_8h.html" target="_top" xlink:title="Ce fichier contient les expressions rationnelles permettant d&#39;identifier les catégories statutaires A...">
<polygon fill="#ffffff" stroke="#000000" points="750,-112.5 750,-131.5 865,-131.5 865,-112.5 750,-112.5"/>
<text text-anchor="middle" x="807.5" y="-119.5" font-family="Helvetica,sans-Serif" font-size="10.00" fill="#000000">expression_reg_cata.h</text>
</a>
</g>
</g>
<!-- Node1&#45;&gt;Node23 -->
<g id="edge23" class="edge">
<title>Node1&#45;&gt;Node23</title>
<path fill="none" stroke="#191970" d="M771.99,-168.2455C778.0326,-160.3761 786.6903,-149.101 793.9441,-139.6542"/>
<polygon fill="#191970" stroke="#191970" points="796.7815,-141.7058 800.0958,-131.6427 791.2295,-137.4426 796.7815,-141.7058"/>
</g>
<!-- Node22 -->
<g id="node23" class="node">
<title>Node22</title>
<g id="a_node23"><a xlink:href="expression__reg__commun_8h.html" target="_top" xlink:title="Elements constitutifs des expressions régulières. ">
<polygon fill="#ffffff" stroke="#000000" points="697.5,-.5 697.5,-19.5 831.5,-19.5 831.5,-.5 697.5,-.5"/>
<text text-anchor="middle" x="764.5" y="-7.5" font-family="Helvetica,sans-Serif" font-size="10.00" fill="#000000">expression_reg_commun.h</text>
</a>
</g>
</g>
<!-- Node21&#45;&gt;Node22 -->
<g id="edge22" class="edge">
<title>Node21&#45;&gt;Node22</title>
<path fill="none" stroke="#191970" d="M706.6931,-56.2455C717.1321,-47.8943 732.3655,-35.7076 744.574,-25.9408"/>
<polygon fill="#191970" stroke="#191970" points="746.8244,-28.6227 752.4467,-19.6427 742.4515,-23.1566 746.8244,-28.6227"/>
</g>
<!-- Node24 -->
<g id="node25" class="node">
<title>Node24</title>
<g id="a_node25"><a xlink:href="expression__reg__adjoints_8h.html" target="_top" xlink:title="Expressions régulières de niveau adjoints / auxiliaires / aides (catégories C) ">
<polygon fill="#ffffff" stroke="#000000" points="769.5,-56.5 769.5,-75.5 899.5,-75.5 899.5,-56.5 769.5,-56.5"/>
<text text-anchor="middle" x="834.5" y="-63.5" font-family="Helvetica,sans-Serif" font-size="10.00" fill="#000000">expression_reg_adjoints.h</text>
</a>
</g>
</g>
<!-- Node23&#45;&gt;Node24 -->
<g id="edge24" class="edge">
<title>Node23&#45;&gt;Node24</title>
<path fill="none" stroke="#191970" d="M812.203,-112.2455C815.8424,-104.6973 820.9924,-94.0158 825.4262,-84.8197"/>
<polygon fill="#191970" stroke="#191970" points="828.6605,-86.1704 829.8509,-75.6427 822.3551,-83.1303 828.6605,-86.1704"/>
</g>
<!-- Node24&#45;&gt;Node22 -->
<g id="edge25" class="edge">
<title>Node24&#45;&gt;Node22</title>
<path fill="none" stroke="#191970" d="M822.3069,-56.2455C811.8679,-47.8943 796.6345,-35.7076 784.426,-25.9408"/>
<polygon fill="#191970" stroke="#191970" points="786.5485,-23.1566 776.5533,-19.6427 782.1756,-28.6227 786.5485,-23.1566"/>
</g>
</g>
</svg>
        <g id="navigator" transform="translate(0 0)" fill="#404254">
                <rect fill="#f2f5e9" fill-opacity="0.5" stroke="#606060" stroke-width=".5" x="0" y="0" width="60" height="60"/>
                <use id="zoomplus" xlink:href="#zoomPlus" x="17" y="9" onmousedown="handleZoom(evt,'in')"/>
                <use id="zoomminus" xlink:href="#zoomMin" x="42" y="9" onmousedown="handleZoom(evt,'out')"/>
                <use id="reset" xlink:href="#resetDef" x="30" y="36" onmousedown="handleReset()"/>
                <g id="arrowUp" xlink:href="#dirArrow" transform="translate(30 24)" onmousedown="handlePan(0,-1)">
                  <use xlink:href="#rim" fill="#404040">
                        <set attributeName="fill" to="#808080" begin="arrowUp.mouseover" end="arrowUp.mouseout"/>
                  </use>
                  <path fill="none" stroke="white" stroke-width="1.5" d="M0,-3.0v7 M-2.5,-0.5L0,-3.0L2.5,-0.5"/>
                </g>
                <g id="arrowRight" xlink:href="#dirArrow" transform="rotate(90) translate(36 -43)" onmousedown="handlePan(1,0)">
                  <use xlink:href="#rim" fill="#404040">
                        <set attributeName="fill" to="#808080" begin="arrowRight.mouseover" end="arrowRight.mouseout"/>
                  </use>
                  <path fill="none" stroke="white" stroke-width="1.5" d="M0,-3.0v7 M-2.5,-0.5L0,-3.0L2.5,-0.5"/>
                </g>
                <g id="arrowDown" xlink:href="#dirArrow" transform="rotate(180) translate(-30 -48)" onmousedown="handlePan(0,1)">
                  <use xlink:href="#rim" fill="#404040">
                        <set attributeName="fill" to="#808080" begin="arrowDown.mouseover" end="arrowDown.mouseout"/>
                  </use>
                  <path fill="none" stroke="white" stroke-width="1.5" d="M0,-3.0v7 M-2.5,-0.5L0,-3.0L2.5,-0.5"/>
                </g>
                <g id="arrowLeft" xlink:href="#dirArrow" transform="rotate(270) translate(-36 17)" onmousedown="handlePan(-1,0)">
                  <use xlink:href="#rim" fill="#404040">
                        <set attributeName="fill" to="#808080" begin="arrowLeft.mouseover" end="arrowLeft.mouseout"/>
                  </use>
                  <path fill="none" stroke="white" stroke-width="1.5" d="M0,-3.0v7 M-2.5,-0.5L0,-3.0L2.5,-0.5"/>
                </g>
        </g>
        <svg viewBox="0 0 15 15" width="100%" height="30px" preserveAspectRatio="xMaxYMin meet">
         <g id="arrow_out" transform="scale(0.3 0.3)">
          <a xlink:href="fonctions__auxiliaires_8h__incl_org.svg" target="_base">
           <rect id="button" ry="5" rx="5" y="6" x="6" height="38" width="38"
                fill="#f2f5e9" fill-opacity="0.5" stroke="#606060" stroke-width="1.0"/>
           <path id="arrow"
             d="M 11.500037,31.436501 C 11.940474,20.09759 22.043105,11.32322 32.158766,21.979434 L 37.068811,17.246167 C 37.068811,17.246167 37.088388,32 37.088388,32 L 22.160133,31.978069 C 22.160133,31.978069 26.997745,27.140456 26.997745,27.140456 C 18.528582,18.264221 13.291696,25.230495 11.500037,31.436501 z"
             style="fill:#404040;"/>
          </a>
         </g>
        </svg>
</svg>
