<?xml version="1.0" encoding="UTF-8" standalone="no"?>
<!DOCTYPE svg PUBLIC "-//W3C//DTD SVG 1.1//EN"
 "http://www.w3.org/Graphics/SVG/1.1/DTD/svg11.dtd">
<!-- Generated by graphviz version 2.38.0 (20140413.2041)
 -->
<!-- Title: lhx/fonctions_auxiliaires.h Pages: 1 -->
<svg width="1912pt" height="252pt"
 viewBox="0.00 0.00 1912.00 252.00" xmlns="http://www.w3.org/2000/svg" xmlns:xlink="http://www.w3.org/1999/xlink">
<g id="graph0" class="graph" transform="scale(1 1) rotate(0) translate(4 248)">
<title>lhx/fonctions_auxiliaires.h</title>
<polygon fill="white" stroke="none" points="-4,4 -4,-248 1908,-248 1908,4 -4,4"/>
<!-- Node0 -->
<g id="node1" class="node"><title>Node0</title>
<polygon fill="#bfbfbf" stroke="black" points="1258,-224.5 1258,-243.5 1387,-243.5 1387,-224.5 1258,-224.5"/>
<text text-anchor="middle" x="1322.5" y="-231.5" font-family="Helvetica,sans-Serif" font-size="10.00">lhx/fonctions_auxiliaires.h</text>
</g>
<!-- Node1 -->
<g id="node2" class="node"><title>Node1</title>
<g id="a_node2"><a xlink:href="validator_8h.html" target="_top" xlink:title="Ce fichier contient notamment la structure info_t qui stocke les données de paye décodées ainsi que l...">
<polygon fill="white" stroke="black" points="733.5,-168.5 733.5,-187.5 795.5,-187.5 795.5,-168.5 733.5,-168.5"/>
<text text-anchor="middle" x="764.5" y="-175.5" font-family="Helvetica,sans-Serif" font-size="10.00">validator.h</text>
</a>
</g>
</g>
<!-- Node0&#45;&gt;Node1 -->
<g id="edge1" class="edge"><title>Node0&#45;&gt;Node1</title>
<path fill="none" stroke="midnightblue" d="M1257.95,-226.753C1142.09,-215.541 901.987,-192.305 805.733,-182.99"/>
<polygon fill="midnightblue" stroke="midnightblue" points="805.82,-179.482 795.529,-182.003 805.145,-186.45 805.82,-179.482"/>
</g>
<!-- Node2 -->
<g id="node3" class="node"><title>Node2</title>
<polygon fill="white" stroke="#bfbfbf" points="0,-112.5 0,-131.5 41,-131.5 41,-112.5 0,-112.5"/>
<text text-anchor="middle" x="20.5" y="-119.5" font-family="Helvetica,sans-Serif" font-size="10.00">string</text>
</g>
<!-- Node0&#45;&gt;Node2 -->
<g id="edge40" class="edge"><title>Node0&#45;&gt;Node2</title>
<path fill="none" stroke="midnightblue" d="M1257.69,-231.501C1065.06,-226.824 498.042,-211.402 314.5,-188 198.656,-173.23 168.29,-162.292 50.8321,-131.932"/>
<polygon fill="midnightblue" stroke="midnightblue" points="51.6515,-128.528 41.0944,-129.422 49.9044,-135.307 51.6515,-128.528"/>
</g>
<!-- Node4 -->
<g id="node5" class="node"><title>Node4</title>
<polygon fill="white" stroke="#bfbfbf" points="59.5,-112.5 59.5,-131.5 105.5,-131.5 105.5,-112.5 59.5,-112.5"/>
<text text-anchor="middle" x="82.5" y="-119.5" font-family="Helvetica,sans-Serif" font-size="10.00">cstdint</text>
</g>
<!-- Node0&#45;&gt;Node4 -->
<g id="edge33" class="edge"><title>Node0&#45;&gt;Node4</title>
<path fill="none" stroke="midnightblue" d="M1257.9,-231.469C1118.65,-227.732 779.923,-216.291 497.5,-188 329.584,-171.18 284.47,-167.928 115.797,-132.063"/>
<polygon fill="midnightblue" stroke="midnightblue" points="116.342,-128.601 105.832,-129.937 114.882,-135.447 116.342,-128.601"/>
</g>
<!-- Node10 -->
<g id="node11" class="node"><title>Node10</title>
<polygon fill="white" stroke="#bfbfbf" points="123.5,-112.5 123.5,-131.5 169.5,-131.5 169.5,-112.5 123.5,-112.5"/>
<text text-anchor="middle" x="146.5" y="-119.5" font-family="Helvetica,sans-Serif" font-size="10.00">cstring</text>
</g>
<!-- Node0&#45;&gt;Node10 -->
<g id="edge32" class="edge"><title>Node0&#45;&gt;Node10</title>
<path fill="none" stroke="midnightblue" d="M1257.85,-228.712C1148.12,-221.304 918.427,-205.238 724.5,-188 606.094,-177.475 313.671,-155.947 179.932,-131.937"/>
<polygon fill="midnightblue" stroke="midnightblue" points="180.28,-128.442 169.808,-130.055 179,-135.324 180.28,-128.442"/>
</g>
<!-- Node13 -->
<g id="node14" class="node"><title>Node13</title>
<polygon fill="white" stroke="#bfbfbf" points="1080.5,-112.5 1080.5,-131.5 1160.5,-131.5 1160.5,-112.5 1080.5,-112.5"/>
<text text-anchor="middle" x="1120.5" y="-119.5" font-family="Helvetica,sans-Serif" font-size="10.00">libxml/parser.h</text>
</g>
<!-- Node0&#45;&gt;Node13 -->
<g id="edge26" class="edge"><title>Node0&#45;&gt;Node13</title>
<path fill="none" stroke="midnightblue" d="M1306.65,-224.368C1271.62,-205.292 1187.38,-159.422 1145.3,-136.505"/>
<polygon fill="midnightblue" stroke="midnightblue" points="1146.73,-133.3 1136.28,-131.591 1143.39,-139.448 1146.73,-133.3"/>
</g>
<!-- Node15 -->
<g id="node16" class="node"><title>Node15</title>
<polygon fill="white" stroke="#bfbfbf" points="1178.5,-112.5 1178.5,-131.5 1222.5,-131.5 1222.5,-112.5 1178.5,-112.5"/>
<text text-anchor="middle" x="1200.5" y="-119.5" font-family="Helvetica,sans-Serif" font-size="10.00">vector</text>
</g>
<!-- Node0&#45;&gt;Node15 -->
<g id="edge30" class="edge"><title>Node0&#45;&gt;Node15</title>
<path fill="none" stroke="midnightblue" d="M1311.8,-224.194C1301,-215.235 1283.89,-200.876 1269.5,-188 1251.04,-171.491 1230.45,-151.933 1216.6,-138.614"/>
<polygon fill="midnightblue" stroke="midnightblue" points="1218.92,-135.99 1209.3,-131.563 1214.06,-141.026 1218.92,-135.99"/>
</g>
<!-- Node16 -->
<g id="node17" class="node"><title>Node16</title>
<polygon fill="white" stroke="#bfbfbf" points="1240.5,-112.5 1240.5,-131.5 1278.5,-131.5 1278.5,-112.5 1240.5,-112.5"/>
<text text-anchor="middle" x="1259.5" y="-119.5" font-family="Helvetica,sans-Serif" font-size="10.00">array</text>
</g>
<!-- Node0&#45;&gt;Node16 -->
<g id="edge41" class="edge"><title>Node0&#45;&gt;Node16</title>
<path fill="none" stroke="midnightblue" d="M1313.38,-224.447C1304.72,-215.907 1291.81,-202.061 1283.5,-188 1274.89,-173.438 1268.5,-155.261 1264.48,-141.834"/>
<polygon fill="midnightblue" stroke="midnightblue" points="1267.75,-140.534 1261.68,-131.856 1261.02,-142.431 1267.75,-140.534"/>
</g>
<!-- Node17 -->
<g id="node18" class="node"><title>Node17</title>
<polygon fill="white" stroke="#bfbfbf" points="1296.5,-112.5 1296.5,-131.5 1350.5,-131.5 1350.5,-112.5 1296.5,-112.5"/>
<text text-anchor="middle" x="1323.5" y="-119.5" font-family="Helvetica,sans-Serif" font-size="10.00">iostream</text>
</g>
<!-- Node0&#45;&gt;Node17 -->
<g id="edge27" class="edge"><title>Node0&#45;&gt;Node17</title>
<path fill="none" stroke="midnightblue" d="M1312.77,-224.111C1300.67,-211.922 1282.42,-189.119 1289.5,-168 1293.1,-157.251 1300.4,-147.02 1307.32,-139.038"/>
<polygon fill="midnightblue" stroke="midnightblue" points="1309.98,-141.317 1314.21,-131.605 1304.85,-136.556 1309.98,-141.317"/>
</g>
<!-- Node18 -->
<g id="node19" class="node"><title>Node18</title>
<polygon fill="white" stroke="#bfbfbf" points="1368.5,-112.5 1368.5,-131.5 1418.5,-131.5 1418.5,-112.5 1368.5,-112.5"/>
<text text-anchor="middle" x="1393.5" y="-119.5" font-family="Helvetica,sans-Serif" font-size="10.00">iomanip</text>
</g>
<!-- Node0&#45;&gt;Node18 -->
<g id="edge34" class="edge"><title>Node0&#45;&gt;Node18</title>
<path fill="none" stroke="midnightblue" d="M1320.93,-224.316C1319.01,-211.161 1317.18,-185.829 1327.5,-168 1335.57,-154.053 1349.91,-143.497 1363.17,-136.126"/>
<polygon fill="midnightblue" stroke="midnightblue" points="1364.8,-139.224 1372.08,-131.53 1361.59,-133.002 1364.8,-139.224"/>
</g>
<!-- Node20 -->
<g id="node21" class="node"><title>Node20</title>
<g id="a_node21"><a xlink:href="tags_8h.html" target="_top" xlink:title="tags.h">
<polygon fill="white" stroke="black" points="1436.5,-112.5 1436.5,-131.5 1480.5,-131.5 1480.5,-112.5 1436.5,-112.5"/>
<text text-anchor="middle" x="1458.5" y="-119.5" font-family="Helvetica,sans-Serif" font-size="10.00">tags.h</text>
</a>
</g>
</g>
<!-- Node0&#45;&gt;Node20 -->
<g id="edge42" class="edge"><title>Node0&#45;&gt;Node20</title>
<path fill="none" stroke="midnightblue" d="M1325.6,-224.3C1330.84,-210.663 1342.68,-184.149 1360.5,-168 1370.85,-158.623 1402.42,-144.892 1426.96,-135.066"/>
<polygon fill="midnightblue" stroke="midnightblue" points="1428.28,-138.308 1436.3,-131.379 1425.71,-131.797 1428.28,-138.308"/>
</g>
<!-- Node25 -->
<g id="node26" class="node"><title>Node25</title>
<polygon fill="white" stroke="#bfbfbf" points="1369.5,-168.5 1369.5,-187.5 1421.5,-187.5 1421.5,-168.5 1369.5,-168.5"/>
<text text-anchor="middle" x="1395.5" y="-175.5" font-family="Helvetica,sans-Serif" font-size="10.00">sstream</text>
</g>
<!-- Node0&#45;&gt;Node25 -->
<g id="edge28" class="edge"><title>Node0&#45;&gt;Node25</title>
<path fill="none" stroke="midnightblue" d="M1334.23,-224.324C1345.34,-216.107 1362.24,-203.602 1375.48,-193.807"/>
<polygon fill="midnightblue" stroke="midnightblue" points="1377.6,-196.595 1383.56,-187.834 1373.44,-190.967 1377.6,-196.595"/>
</g>
<!-- Node26 -->
<g id="node27" class="node"><title>Node26</title>
<polygon fill="white" stroke="#bfbfbf" points="1439.5,-168.5 1439.5,-187.5 1489.5,-187.5 1489.5,-168.5 1439.5,-168.5"/>
<text text-anchor="middle" x="1464.5" y="-175.5" font-family="Helvetica,sans-Serif" font-size="10.00">fstream</text>
</g>
<!-- Node0&#45;&gt;Node26 -->
<g id="edge29" class="edge"><title>Node0&#45;&gt;Node26</title>
<path fill="none" stroke="midnightblue" d="M1345,-224.444C1368.58,-215.478 1405.82,-201.314 1432.46,-191.183"/>
<polygon fill="midnightblue" stroke="midnightblue" points="1434,-194.342 1442.1,-187.516 1431.51,-187.8 1434,-194.342"/>
</g>
<!-- Node27 -->
<g id="node28" class="node"><title>Node27</title>
<polygon fill="white" stroke="#bfbfbf" points="1507.5,-168.5 1507.5,-187.5 1551.5,-187.5 1551.5,-168.5 1507.5,-168.5"/>
<text text-anchor="middle" x="1529.5" y="-175.5" font-family="Helvetica,sans-Serif" font-size="10.00">mutex</text>
</g>
<!-- Node0&#45;&gt;Node27 -->
<g id="edge31" class="edge"><title>Node0&#45;&gt;Node27</title>
<path fill="none" stroke="midnightblue" d="M1357.32,-224.449C1390.87,-216.131 1443.3,-202.931 1497.41,-188.237"/>
<polygon fill="midnightblue" stroke="midnightblue" points="1498.45,-191.583 1507.17,-185.575 1496.6,-184.83 1498.45,-191.583"/>
</g>
<!-- Node28 -->
<g id="node29" class="node"><title>Node28</title>
<polygon fill="white" stroke="#bfbfbf" points="1570,-168.5 1570,-187.5 1613,-187.5 1613,-168.5 1570,-168.5"/>
<text text-anchor="middle" x="1591.5" y="-175.5" font-family="Helvetica,sans-Serif" font-size="10.00">cstdio</text>
</g>
<!-- Node0&#45;&gt;Node28 -->
<g id="edge35" class="edge"><title>Node0&#45;&gt;Node28</title>
<path fill="none" stroke="midnightblue" d="M1375.74,-224.434C1422.01,-216.652 1490.98,-204.239 1560.13,-187.893"/>
<polygon fill="midnightblue" stroke="midnightblue" points="1560.98,-191.289 1569.89,-185.56 1559.35,-184.481 1560.98,-191.289"/>
</g>
<!-- Node29 -->
<g id="node30" class="node"><title>Node29</title>
<polygon fill="white" stroke="#bfbfbf" points="1631,-168.5 1631,-187.5 1678,-187.5 1678,-168.5 1631,-168.5"/>
<text text-anchor="middle" x="1654.5" y="-175.5" font-family="Helvetica,sans-Serif" font-size="10.00">iterator</text>
</g>
<!-- Node0&#45;&gt;Node29 -->
<g id="edge36" class="edge"><title>Node0&#45;&gt;Node29</title>
<path fill="none" stroke="midnightblue" d="M1387,-225.697C1445.78,-218.505 1535.11,-206.231 1620.91,-188.136"/>
<polygon fill="midnightblue" stroke="midnightblue" points="1621.77,-191.532 1630.82,-186.018 1620.31,-184.687 1621.77,-191.532"/>
</g>
<!-- Node30 -->
<g id="node31" class="node"><title>Node30</title>
<polygon fill="white" stroke="#bfbfbf" points="1696.5,-168.5 1696.5,-187.5 1756.5,-187.5 1756.5,-168.5 1696.5,-168.5"/>
<text text-anchor="middle" x="1726.5" y="-175.5" font-family="Helvetica,sans-Serif" font-size="10.00">sys/stat.h</text>
</g>
<!-- Node0&#45;&gt;Node30 -->
<g id="edge37" class="edge"><title>Node0&#45;&gt;Node30</title>
<path fill="none" stroke="midnightblue" d="M1387.09,-227.09C1458.13,-220.127 1575.82,-207.237 1686.34,-188.044"/>
<polygon fill="midnightblue" stroke="midnightblue" points="1687.09,-191.467 1696.33,-186.289 1685.87,-184.573 1687.09,-191.467"/>
</g>
<!-- Node31 -->
<g id="node32" class="node"><title>Node31</title>
<polygon fill="white" stroke="#bfbfbf" points="1774.5,-168.5 1774.5,-187.5 1826.5,-187.5 1826.5,-168.5 1774.5,-168.5"/>
<text text-anchor="middle" x="1800.5" y="-175.5" font-family="Helvetica,sans-Serif" font-size="10.00">memory</text>
</g>
<!-- Node0&#45;&gt;Node31 -->
<g id="edge38" class="edge"><title>Node0&#45;&gt;Node31</title>
<path fill="none" stroke="midnightblue" d="M1387.11,-229.491C1471.72,-224.219 1624.74,-212.356 1764.2,-187.986"/>
<polygon fill="midnightblue" stroke="midnightblue" points="1764.98,-191.402 1774.22,-186.21 1763.76,-184.51 1764.98,-191.402"/>
</g>
<!-- Node32 -->
<g id="node33" class="node"><title>Node32</title>
<polygon fill="white" stroke="#bfbfbf" points="1845,-168.5 1845,-187.5 1904,-187.5 1904,-168.5 1845,-168.5"/>
<text text-anchor="middle" x="1874.5" y="-175.5" font-family="Helvetica,sans-Serif" font-size="10.00">stdexcept</text>
</g>
<!-- Node0&#45;&gt;Node32 -->
<g id="edge39" class="edge"><title>Node0&#45;&gt;Node32</title>
<path fill="none" stroke="midnightblue" d="M1387.23,-230.217C1482.97,-225.462 1668.04,-213.827 1834.83,-187.877"/>
<polygon fill="midnightblue" stroke="midnightblue" points="1835.44,-191.324 1844.77,-186.309 1834.35,-184.409 1835.44,-191.324"/>
</g>
<!-- Node1&#45;&gt;Node2 -->
<g id="edge2" class="edge"><title>Node1&#45;&gt;Node2</title>
<path fill="none" stroke="midnightblue" d="M733.229,-177.56C634.245,-178.804 319.042,-178.692 50.9247,-131.593"/>
<polygon fill="midnightblue" stroke="midnightblue" points="51.4657,-128.135 41.0067,-129.826 50.2374,-135.026 51.4657,-128.135"/>
</g>
<!-- Node3 -->
<g id="node4" class="node"><title>Node3</title>
<polygon fill="white" stroke="#bfbfbf" points="883,-112.5 883,-131.5 928,-131.5 928,-112.5 883,-112.5"/>
<text text-anchor="middle" x="905.5" y="-119.5" font-family="Helvetica,sans-Serif" font-size="10.00">cstdlib</text>
</g>
<!-- Node1&#45;&gt;Node3 -->
<g id="edge3" class="edge"><title>Node1&#45;&gt;Node3</title>
<path fill="none" stroke="midnightblue" d="M786.842,-168.444C810.253,-159.478 847.236,-145.314 873.69,-135.183"/>
<polygon fill="midnightblue" stroke="midnightblue" points="875.176,-138.361 883.263,-131.516 872.672,-131.824 875.176,-138.361"/>
</g>
<!-- Node1&#45;&gt;Node4 -->
<g id="edge4" class="edge"><title>Node1&#45;&gt;Node4</title>
<path fill="none" stroke="midnightblue" d="M733.43,-175.695C623.779,-170.962 254.492,-153.897 115.766,-131.814"/>
<polygon fill="midnightblue" stroke="midnightblue" points="116.232,-128.343 105.792,-130.147 115.078,-135.248 116.232,-128.343"/>
</g>
<!-- Node5 -->
<g id="node6" class="node"><title>Node5</title>
<polygon fill="white" stroke="#bfbfbf" points="946,-112.5 946,-131.5 999,-131.5 999,-112.5 946,-112.5"/>
<text text-anchor="middle" x="972.5" y="-119.5" font-family="Helvetica,sans-Serif" font-size="10.00">cstdbool</text>
</g>
<!-- Node1&#45;&gt;Node5 -->
<g id="edge5" class="edge"><title>Node1&#45;&gt;Node5</title>
<path fill="none" stroke="midnightblue" d="M795.64,-168.916C833.171,-159.172 896.145,-142.823 935.945,-132.49"/>
<polygon fill="midnightblue" stroke="midnightblue" points="936.98,-135.838 945.78,-129.937 935.221,-129.062 936.98,-135.838"/>
</g>
<!-- Node6 -->
<g id="node7" class="node"><title>Node6</title>
<polygon fill="white" stroke="#bfbfbf" points="1017,-112.5 1017,-131.5 1062,-131.5 1062,-112.5 1017,-112.5"/>
<text text-anchor="middle" x="1039.5" y="-119.5" font-family="Helvetica,sans-Serif" font-size="10.00">climits</text>
</g>
<!-- Node1&#45;&gt;Node6 -->
<g id="edge6" class="edge"><title>Node1&#45;&gt;Node6</title>
<path fill="none" stroke="midnightblue" d="M795.521,-172.301C840.253,-165.304 925.623,-151.126 1006.98,-132.184"/>
<polygon fill="midnightblue" stroke="midnightblue" points="1007.95,-135.551 1016.88,-129.85 1006.35,-128.738 1007.95,-135.551"/>
</g>
<!-- Node7 -->
<g id="node8" class="node"><title>Node7</title>
<polygon fill="white" stroke="#bfbfbf" points="188,-112.5 188,-131.5 235,-131.5 235,-112.5 188,-112.5"/>
<text text-anchor="middle" x="211.5" y="-119.5" font-family="Helvetica,sans-Serif" font-size="10.00">clocale</text>
</g>
<!-- Node1&#45;&gt;Node7 -->
<g id="edge7" class="edge"><title>Node1&#45;&gt;Node7</title>
<path fill="none" stroke="midnightblue" d="M733.282,-174.455C631.47,-166.134 312.206,-139.885 245.097,-131.445"/>
<polygon fill="midnightblue" stroke="midnightblue" points="245.576,-127.978 235.177,-130.005 244.57,-134.905 245.576,-127.978"/>
</g>
<!-- Node8 -->
<g id="node9" class="node"><title>Node8</title>
<polygon fill="white" stroke="#bfbfbf" points="253.5,-112.5 253.5,-131.5 297.5,-131.5 297.5,-112.5 253.5,-112.5"/>
<text text-anchor="middle" x="275.5" y="-119.5" font-family="Helvetica,sans-Serif" font-size="10.00">cerrno</text>
</g>
<!-- Node1&#45;&gt;Node8 -->
<g id="edge8" class="edge"><title>Node1&#45;&gt;Node8</title>
<path fill="none" stroke="midnightblue" d="M733.273,-174.269C641.999,-166.241 378.141,-142.705 307.644,-131.703"/>
<polygon fill="midnightblue" stroke="midnightblue" points="308.182,-128.244 297.731,-129.987 306.987,-135.142 308.182,-128.244"/>
</g>
<!-- Node9 -->
<g id="node10" class="node"><title>Node9</title>
<polygon fill="white" stroke="#bfbfbf" points="315.5,-112.5 315.5,-131.5 359.5,-131.5 359.5,-112.5 315.5,-112.5"/>
<text text-anchor="middle" x="337.5" y="-119.5" font-family="Helvetica,sans-Serif" font-size="10.00">cmath</text>
</g>
<!-- Node1&#45;&gt;Node9 -->
<g id="edge9" class="edge"><title>Node1&#45;&gt;Node9</title>
<path fill="none" stroke="midnightblue" d="M733.373,-174.151C655.884,-166.953 454.999,-147.618 369.569,-131.85"/>
<polygon fill="midnightblue" stroke="midnightblue" points="370.222,-128.411 359.739,-129.946 368.891,-135.284 370.222,-128.411"/>
</g>
<!-- Node1&#45;&gt;Node10 -->
<g id="edge10" class="edge"><title>Node1&#45;&gt;Node10</title>
<path fill="none" stroke="midnightblue" d="M733.483,-174.585C710.12,-172.768 677.3,-170.22 648.5,-168 442.883,-152.149 386.541,-168.027 179.757,-131.887"/>
<polygon fill="midnightblue" stroke="midnightblue" points="180.252,-128.42 169.795,-130.127 179.033,-135.314 180.252,-128.42"/>
</g>
<!-- Node11 -->
<g id="node12" class="node"><title>Node11</title>
<polygon fill="white" stroke="#bfbfbf" points="377.5,-112.5 377.5,-131.5 423.5,-131.5 423.5,-112.5 377.5,-112.5"/>
<text text-anchor="middle" x="400.5" y="-119.5" font-family="Helvetica,sans-Serif" font-size="10.00">cctype</text>
</g>
<!-- Node1&#45;&gt;Node11 -->
<g id="edge11" class="edge"><title>Node1&#45;&gt;Node11</title>
<path fill="none" stroke="midnightblue" d="M733.129,-174.22C675.603,-168.807 549.275,-155.458 433.886,-132.04"/>
<polygon fill="midnightblue" stroke="midnightblue" points="434.327,-128.557 423.826,-129.966 432.914,-135.413 434.327,-128.557"/>
</g>
<!-- Node12 -->
<g id="node13" class="node"><title>Node12</title>
<polygon fill="white" stroke="#bfbfbf" points="441.5,-112.5 441.5,-131.5 545.5,-131.5 545.5,-112.5 441.5,-112.5"/>
<text text-anchor="middle" x="493.5" y="-119.5" font-family="Helvetica,sans-Serif" font-size="10.00">libxml/xmlmemory.h</text>
</g>
<!-- Node1&#45;&gt;Node12 -->
<g id="edge12" class="edge"><title>Node1&#45;&gt;Node12</title>
<path fill="none" stroke="midnightblue" d="M733.413,-170.806C687.735,-161.704 601.889,-144.598 546.236,-133.508"/>
<polygon fill="midnightblue" stroke="midnightblue" points="546.703,-130.033 536.212,-131.511 545.335,-136.898 546.703,-130.033"/>
</g>
<!-- Node1&#45;&gt;Node13 -->
<g id="edge13" class="edge"><title>Node1&#45;&gt;Node13</title>
<path fill="none" stroke="midnightblue" d="M795.937,-172.774C849.902,-165.436 963.874,-149.58 1070.45,-132.125"/>
<polygon fill="midnightblue" stroke="midnightblue" points="1071.11,-135.563 1080.41,-130.485 1069.97,-128.656 1071.11,-135.563"/>
</g>
<!-- Node14 -->
<g id="node15" class="node"><title>Node14</title>
<polygon fill="white" stroke="#bfbfbf" points="563.5,-112.5 563.5,-131.5 619.5,-131.5 619.5,-112.5 563.5,-112.5"/>
<text text-anchor="middle" x="591.5" y="-119.5" font-family="Helvetica,sans-Serif" font-size="10.00">cinttypes</text>
</g>
<!-- Node1&#45;&gt;Node14 -->
<g id="edge14" class="edge"><title>Node1&#45;&gt;Node14</title>
<path fill="none" stroke="midnightblue" d="M737.088,-168.444C707.731,-159.28 660.981,-144.688 628.404,-134.519"/>
<polygon fill="midnightblue" stroke="midnightblue" points="629.373,-131.155 618.784,-131.516 627.287,-137.837 629.373,-131.155"/>
</g>
<!-- Node1&#45;&gt;Node15 -->
<g id="edge15" class="edge"><title>Node1&#45;&gt;Node15</title>
<path fill="none" stroke="midnightblue" d="M795.515,-175.376C862.179,-171.497 1024.11,-159.999 1168.35,-131.915"/>
<polygon fill="midnightblue" stroke="midnightblue" points="1169.13,-135.328 1178.26,-129.952 1167.77,-128.461 1169.13,-135.328"/>
</g>
<!-- Node1&#45;&gt;Node16 -->
<g id="edge16" class="edge"><title>Node1&#45;&gt;Node16</title>
<path fill="none" stroke="midnightblue" d="M795.718,-176.302C869.813,-174.156 1062.06,-165.719 1230.34,-131.806"/>
<polygon fill="midnightblue" stroke="midnightblue" points="1231.27,-135.188 1240.37,-129.749 1229.87,-128.33 1231.27,-135.188"/>
</g>
<!-- Node1&#45;&gt;Node17 -->
<g id="edge17" class="edge"><title>Node1&#45;&gt;Node17</title>
<path fill="none" stroke="midnightblue" d="M795.664,-176.048C875.669,-173.237 1094.89,-163.224 1286.5,-131.901"/>
<polygon fill="midnightblue" stroke="midnightblue" points="1287.18,-135.337 1296.47,-130.248 1286.03,-128.431 1287.18,-135.337"/>
</g>
<!-- Node1&#45;&gt;Node18 -->
<g id="edge18" class="edge"><title>Node1&#45;&gt;Node18</title>
<path fill="none" stroke="midnightblue" d="M795.714,-176.649C883.184,-175.24 1138.13,-168.234 1358.24,-131.9"/>
<polygon fill="midnightblue" stroke="midnightblue" points="1359.08,-135.308 1368.36,-130.204 1357.92,-128.404 1359.08,-135.308"/>
</g>
<!-- Node19 -->
<g id="node20" class="node"><title>Node19</title>
<polygon fill="white" stroke="#bfbfbf" points="637.5,-112.5 637.5,-131.5 693.5,-131.5 693.5,-112.5 637.5,-112.5"/>
<text text-anchor="middle" x="665.5" y="-119.5" font-family="Helvetica,sans-Serif" font-size="10.00">algorithm</text>
</g>
<!-- Node1&#45;&gt;Node19 -->
<g id="edge19" class="edge"><title>Node1&#45;&gt;Node19</title>
<path fill="none" stroke="midnightblue" d="M748.594,-168.324C732.862,-159.743 708.558,-146.486 690.291,-136.522"/>
<polygon fill="midnightblue" stroke="midnightblue" points="691.822,-133.37 681.367,-131.655 688.47,-139.516 691.822,-133.37"/>
</g>
<!-- Node1&#45;&gt;Node20 -->
<g id="edge20" class="edge"><title>Node1&#45;&gt;Node20</title>
<path fill="none" stroke="midnightblue" d="M795.517,-177.247C889.476,-177.502 1179.17,-174.649 1426.4,-131.808"/>
<polygon fill="midnightblue" stroke="midnightblue" points="1427.04,-135.249 1436.28,-130.069 1425.83,-128.354 1427.04,-135.249"/>
</g>
<!-- Node21 -->
<g id="node22" class="node"><title>Node21</title>
<g id="a_node22"><a xlink:href="expression__reg__elus_8h.html" target="_top" xlink:title="Expressions régulières représentant les élus. ">
<polygon fill="white" stroke="black" points="637.5,-56.5 637.5,-75.5 751.5,-75.5 751.5,-56.5 637.5,-56.5"/>
<text text-anchor="middle" x="694.5" y="-63.5" font-family="Helvetica,sans-Serif" font-size="10.00">expression_reg_elus.h</text>
</a>
</g>
</g>
<!-- Node1&#45;&gt;Node21 -->
<g id="edge21" class="edge"><title>Node1&#45;&gt;Node21</title>
<path fill="none" stroke="midnightblue" d="M759.007,-168.368C747.506,-150.296 720.703,-108.176 705.514,-84.3074"/>
<polygon fill="midnightblue" stroke="midnightblue" points="708.289,-82.149 699.967,-75.5914 702.383,-85.9071 708.289,-82.149"/>
</g>
<!-- Node23 -->
<g id="node24" class="node"><title>Node23</title>
<g id="a_node24"><a xlink:href="expression__reg__cata_8h.html" target="_top" xlink:title="Ce fichier contient les expressions rationnelles permettant d&#39;identifier les catégories statutaires A...">
<polygon fill="white" stroke="black" points="750,-112.5 750,-131.5 865,-131.5 865,-112.5 750,-112.5"/>
<text text-anchor="middle" x="807.5" y="-119.5" font-family="Helvetica,sans-Serif" font-size="10.00">expression_reg_cata.h</text>
</a>
</g>
</g>
<!-- Node1&#45;&gt;Node23 -->
<g id="edge23" class="edge"><title>Node1&#45;&gt;Node23</title>
<path fill="none" stroke="midnightblue" d="M771.601,-168.083C777.737,-160.377 786.77,-149.033 794.239,-139.653"/>
<polygon fill="midnightblue" stroke="midnightblue" points="797.04,-141.754 800.532,-131.751 791.564,-137.394 797.04,-141.754"/>
</g>
<!-- Node22 -->
<g id="node23" class="node"><title>Node22</title>
<g id="a_node23"><a xlink:href="expression__reg__commun_8h.html" target="_top" xlink:title="Elements constitutifs des expressions régulières. ">
<polygon fill="white" stroke="black" points="697.5,-0.5 697.5,-19.5 831.5,-19.5 831.5,-0.5 697.5,-0.5"/>
<text text-anchor="middle" x="764.5" y="-7.5" font-family="Helvetica,sans-Serif" font-size="10.00">expression_reg_commun.h</text>
</a>
</g>
</g>
<!-- Node21&#45;&gt;Node22 -->
<g id="edge22" class="edge"><title>Node21&#45;&gt;Node22</title>
<path fill="none" stroke="midnightblue" d="M705.747,-56.324C716.297,-48.1849 732.301,-35.8395 744.942,-26.0874"/>
<polygon fill="midnightblue" stroke="midnightblue" points="747.269,-28.7132 753.049,-19.8339 742.993,-23.1707 747.269,-28.7132"/>
</g>
<!-- Node24 -->
<g id="node25" class="node"><title>Node24</title>
<g id="a_node25"><a xlink:href="expression__reg__adjoints_8h.html" target="_top" xlink:title="Expressions régulières de niveau adjoints / auxiliaires / aides (catégories C) ">
<polygon fill="white" stroke="black" points="769.5,-56.5 769.5,-75.5 899.5,-75.5 899.5,-56.5 769.5,-56.5"/>
<text text-anchor="middle" x="834.5" y="-63.5" font-family="Helvetica,sans-Serif" font-size="10.00">expression_reg_adjoints.h</text>
</a>
</g>
</g>
<!-- Node23&#45;&gt;Node24 -->
<g id="edge24" class="edge"><title>Node23&#45;&gt;Node24</title>
<path fill="none" stroke="midnightblue" d="M811.959,-112.083C815.654,-104.691 821.023,-93.9533 825.594,-84.8111"/>
<polygon fill="midnightblue" stroke="midnightblue" points="828.783,-86.2606 830.124,-75.7511 822.522,-83.1301 828.783,-86.2606"/>
</g>
<!-- Node24&#45;&gt;Node22 -->
<g id="edge25" class="edge"><title>Node24&#45;&gt;Node22</title>
<path fill="none" stroke="midnightblue" d="M823.253,-56.324C812.703,-48.1849 796.699,-35.8395 784.058,-26.0874"/>
<polygon fill="midnightblue" stroke="midnightblue" points="786.007,-23.1707 775.951,-19.8339 781.731,-28.7132 786.007,-23.1707"/>
</g>
</g>
</svg>
