<?xml version="1.0" encoding="UTF-8" standalone="no"?>
<!DOCTYPE svg PUBLIC "-//W3C//DTD SVG 1.1//EN"
 "http://www.w3.org/Graphics/SVG/1.1/DTD/svg11.dtd">
<!-- Generated by graphviz version 2.38.0 (20140413.2041)
 -->
<!-- Title: ouvrir_fichier_base0 Pages: 1 -->
<svg width="401pt" height="104pt"
 viewBox="0.00 0.00 401.00 104.00" xmlns="http://www.w3.org/2000/svg" xmlns:xlink="http://www.w3.org/1999/xlink">
<g id="graph0" class="graph" transform="scale(1 1) rotate(0) translate(4 100)">
<title>ouvrir_fichier_base0</title>
<polygon fill="white" stroke="none" points="-4,4 -4,-100 397,-100 397,4 -4,4"/>
<!-- Node82 -->
<g id="node1" class="node"><title>Node82</title>
<polygon fill="#bfbfbf" stroke="black" points="0,-38.5 0,-57.5 112,-57.5 112,-38.5 0,-38.5"/>
<text text-anchor="middle" x="56" y="-45.5" font-family="Helvetica,sans-Serif" font-size="10.00">ouvrir_fichier_base0</text>
</g>
<!-- Node83 -->
<g id="node2" class="node"><title>Node83</title>
<g id="a_node2"><a xlink:href="fonctions__auxiliaires_8cpp.html#a5e2253f583a3358618441c2cba35742b" target="_top" xlink:title="Ecrit les libellés des colonnes des bulletins. ">
<polygon fill="white" stroke="black" points="148,-76.5 148,-95.5 271,-95.5 271,-76.5 148,-76.5"/>
<text text-anchor="middle" x="209.5" y="-83.5" font-family="Helvetica,sans-Serif" font-size="10.00">ecrire_entete_bulletins</text>
</a>
</g>
</g>
<!-- Node82&#45;&gt;Node83 -->
<g id="edge1" class="edge"><title>Node82&#45;&gt;Node83</title>
<path fill="none" stroke="midnightblue" d="M95.2298,-57.589C115.132,-62.5809 139.657,-68.7324 160.791,-74.0334"/>
<polygon fill="midnightblue" stroke="midnightblue" points="159.994,-77.4418 170.545,-76.4799 161.697,-70.6521 159.994,-77.4418"/>
</g>
<!-- Node85 -->
<g id="node4" class="node"><title>Node85</title>
<g id="a_node4"><a xlink:href="fonctions__auxiliaires_8cpp.html#aff3c87803f64d34f00a30ef30bb74a9b" target="_top" xlink:title="ecrire_entete_table">
<polygon fill="white" stroke="black" points="155.5,-38.5 155.5,-57.5 263.5,-57.5 263.5,-38.5 155.5,-38.5"/>
<text text-anchor="middle" x="209.5" y="-45.5" font-family="Helvetica,sans-Serif" font-size="10.00">ecrire_entete_table</text>
</a>
</g>
</g>
<!-- Node82&#45;&gt;Node85 -->
<g id="edge3" class="edge"><title>Node82&#45;&gt;Node85</title>
<path fill="none" stroke="midnightblue" d="M112.124,-48C122.941,-48 134.366,-48 145.42,-48"/>
<polygon fill="midnightblue" stroke="midnightblue" points="145.44,-51.5001 155.44,-48 145.44,-44.5001 145.44,-51.5001"/>
</g>
<!-- Node86 -->
<g id="node5" class="node"><title>Node86</title>
<g id="a_node5"><a xlink:href="fonctions__auxiliaires_8cpp.html#aa4c818d49539c9dec49c5cf3144b8f53" target="_top" xlink:title="Taille du fichier en octets. ">
<polygon fill="white" stroke="black" points="173,-0.5 173,-19.5 246,-19.5 246,-0.5 173,-0.5"/>
<text text-anchor="middle" x="209.5" y="-7.5" font-family="Helvetica,sans-Serif" font-size="10.00">taille_fichier</text>
</a>
</g>
</g>
<!-- Node82&#45;&gt;Node86 -->
<g id="edge5" class="edge"><title>Node82&#45;&gt;Node86</title>
<path fill="none" stroke="midnightblue" d="M95.2298,-38.411C115.813,-33.2482 141.341,-26.8453 162.948,-21.4255"/>
<polygon fill="midnightblue" stroke="midnightblue" points="164.036,-24.7611 172.884,-18.9333 162.333,-17.9714 164.036,-24.7611"/>
</g>
<!-- Node84 -->
<g id="node3" class="node"><title>Node84</title>
<g id="a_node3"><a xlink:href="fonctions__auxiliaires_8cpp.html#aca69dd2811b53b087f39810c114e7dde" target="_top" xlink:title="Ecrit les libellés des colonnes d&#39;une base quelconque avec un tableau de libellés de taille donnée...">
<polygon fill="white" stroke="black" points="307,-57.5 307,-76.5 393,-76.5 393,-57.5 307,-57.5"/>
<text text-anchor="middle" x="350" y="-64.5" font-family="Helvetica,sans-Serif" font-size="10.00">ecrire_entete0</text>
</a>
</g>
</g>
<!-- Node83&#45;&gt;Node84 -->
<g id="edge2" class="edge"><title>Node83&#45;&gt;Node84</title>
<path fill="none" stroke="midnightblue" d="M271.248,-77.6663C279.826,-76.4896 288.58,-75.2887 296.974,-74.1372"/>
<polygon fill="midnightblue" stroke="midnightblue" points="297.566,-77.5888 306.998,-72.7621 296.615,-70.6537 297.566,-77.5888"/>
</g>
<!-- Node85&#45;&gt;Node84 -->
<g id="edge4" class="edge"><title>Node85&#45;&gt;Node84</title>
<path fill="none" stroke="midnightblue" d="M263.652,-55.2916C274.52,-56.7825 285.948,-58.3503 296.783,-59.8367"/>
<polygon fill="midnightblue" stroke="midnightblue" points="296.569,-63.34 306.952,-61.2317 297.52,-56.405 296.569,-63.34"/>
</g>
</g>
</svg>
