<?xml version="1.0" encoding="UTF-8" standalone="no"?>
<!DOCTYPE svg PUBLIC "-//W3C//DTD SVG 1.1//EN"
 "http://www.w3.org/Graphics/SVG/1.1/DTD/svg11.dtd">
<!-- Generated by graphviz version 2.38.0 (20140413.2041)
 -->
<!-- Title: calculer_memoire_requise Pages: 1 -->
<svg width="487pt" height="28pt"
 viewBox="0.00 0.00 487.00 28.00" xmlns="http://www.w3.org/2000/svg" xmlns:xlink="http://www.w3.org/1999/xlink">
<g id="graph0" class="graph" transform="scale(1 1) rotate(0) translate(4 24)">
<title>calculer_memoire_requise</title>
<polygon fill="white" stroke="none" points="-4,4 -4,-24 483,-24 483,4 -4,4"/>
<!-- Node19 -->
<g id="node1" class="node"><title>Node19</title>
<polygon fill="#bfbfbf" stroke="black" points="0,-0.5 0,-19.5 140,-19.5 140,-0.5 0,-0.5"/>
<text text-anchor="middle" x="70" y="-7.5" font-family="Helvetica,sans-Serif" font-size="10.00">calculer_memoire_requise</text>
</g>
<!-- Node20 -->
<g id="node2" class="node"><title>Node20</title>
<g id="a_node2"><a xlink:href="validator_8h.html#a84e82eb7bd4a0e47537f98223511a22b" target="_top" xlink:title="Lance calculer_memoire_requise ou le calcul direct de la mémoire par par les saisies de &#45;n et &#45;N &#160;ou ...">
<polygon fill="white" stroke="black" points="176,-0.5 176,-19.5 266,-19.5 266,-0.5 176,-0.5"/>
<text text-anchor="middle" x="221" y="-7.5" font-family="Helvetica,sans-Serif" font-size="10.00">decoder_fichier</text>
</a>
</g>
</g>
<!-- Node19&#45;&gt;Node20 -->
<g id="edge1" class="edge"><title>Node19&#45;&gt;Node20</title>
<path fill="none" stroke="midnightblue" d="M150.412,-10C159.045,-10 167.589,-10 175.579,-10"/>
<polygon fill="midnightblue" stroke="midnightblue" points="150.266,-6.5001 140.266,-10 150.266,-13.5001 150.266,-6.5001"/>
</g>
<!-- Node21 -->
<g id="node3" class="node"><title>Node21</title>
<g id="a_node3"><a xlink:href="lhx_2main_8cpp.html#abb1f1ad236423a832fd1efa1e9deeafa" target="_top" xlink:title="Pour un segment donné (sous&#45;ensemble de bases de paye XML), redécoupe le segment en partie égales ou ...">
<polygon fill="white" stroke="black" points="302,-0.5 302,-19.5 404,-19.5 404,-0.5 302,-0.5"/>
<text text-anchor="middle" x="353" y="-7.5" font-family="Helvetica,sans-Serif" font-size="10.00">produire_segment</text>
</a>
</g>
</g>
<!-- Node20&#45;&gt;Node21 -->
<g id="edge2" class="edge"><title>Node20&#45;&gt;Node21</title>
<path fill="none" stroke="midnightblue" d="M276.182,-10C284.656,-10 293.382,-10 301.762,-10"/>
<polygon fill="midnightblue" stroke="midnightblue" points="276.012,-6.5001 266.012,-10 276.012,-13.5001 276.012,-6.5001"/>
</g>
<!-- Node22 -->
<g id="node4" class="node"><title>Node22</title>
<g id="a_node4"><a xlink:href="lhx_2main_8cpp.html#a3c04138a5bfe5d72780bb7e82a18e627" target="_top" xlink:title="main">
<polygon fill="white" stroke="black" points="440,-0.5 440,-19.5 479,-19.5 479,-0.5 440,-0.5"/>
<text text-anchor="middle" x="459.5" y="-7.5" font-family="Helvetica,sans-Serif" font-size="10.00">main</text>
</a>
</g>
</g>
<!-- Node21&#45;&gt;Node22 -->
<g id="edge3" class="edge"><title>Node21&#45;&gt;Node22</title>
<path fill="none" stroke="midnightblue" d="M414.271,-10C423.565,-10 432.512,-10 439.898,-10"/>
<polygon fill="midnightblue" stroke="midnightblue" points="414.108,-6.5001 404.107,-10 414.107,-13.5001 414.108,-6.5001"/>
</g>
</g>
</svg>
