<?xml version="1.0" encoding="UTF-8" standalone="no"?>
<!DOCTYPE svg PUBLIC "-//W3C//DTD SVG 1.1//EN"
 "http://www.w3.org/Graphics/SVG/1.1/DTD/svg11.dtd">
<!-- Generated by graphviz version 2.38.0 (20140413.2041)
 -->
<!-- Title: fwidgets_lib/forms.h Pages: 1 -->
<svg width="224pt" height="84pt"
 viewBox="0.00 0.00 223.50 84.00" xmlns="http://www.w3.org/2000/svg" xmlns:xlink="http://www.w3.org/1999/xlink">
<g id="graph0" class="graph" transform="scale(1 1) rotate(0) translate(4 80)">
<title>fwidgets_lib/forms.h</title>
<polygon fill="white" stroke="none" points="-4,4 -4,-80 219.5,-80 219.5,4 -4,4"/>
<!-- Node0 -->
<g id="node1" class="node"><title>Node0</title>
<polygon fill="#bfbfbf" stroke="black" points="52.5,-56.5 52.5,-75.5 156.5,-75.5 156.5,-56.5 52.5,-56.5"/>
<text text-anchor="middle" x="104.5" y="-63.5" font-family="Helvetica,sans-Serif" font-size="10.00">fwidgets_lib/forms.h</text>
</g>
<!-- Node1 -->
<g id="node2" class="node"><title>Node1</title>
<polygon fill="white" stroke="#bfbfbf" points="0,-0.5 0,-19.5 47,-19.5 47,-0.5 0,-0.5"/>
<text text-anchor="middle" x="23.5" y="-7.5" font-family="Helvetica,sans-Serif" font-size="10.00">QLabel</text>
</g>
<!-- Node0&#45;&gt;Node1 -->
<g id="edge1" class="edge"><title>Node0&#45;&gt;Node1</title>
<path fill="none" stroke="midnightblue" d="M91.4859,-56.324C78.9684,-47.979 59.8183,-35.2122 45.0286,-25.3524"/>
<polygon fill="midnightblue" stroke="midnightblue" points="46.7437,-22.2894 36.4818,-19.6545 42.8608,-28.1137 46.7437,-22.2894"/>
</g>
<!-- Node2 -->
<g id="node3" class="node"><title>Node2</title>
<polygon fill="white" stroke="#bfbfbf" points="65.5,-0.5 65.5,-19.5 143.5,-19.5 143.5,-0.5 65.5,-0.5"/>
<text text-anchor="middle" x="104.5" y="-7.5" font-family="Helvetica,sans-Serif" font-size="10.00">QHBoxLayout</text>
</g>
<!-- Node0&#45;&gt;Node2 -->
<g id="edge2" class="edge"><title>Node0&#45;&gt;Node2</title>
<path fill="none" stroke="midnightblue" d="M104.5,-56.083C104.5,-49.0059 104.5,-38.8611 104.5,-29.9865"/>
<polygon fill="midnightblue" stroke="midnightblue" points="108,-29.751 104.5,-19.7511 101,-29.7511 108,-29.751"/>
</g>
<!-- Node3 -->
<g id="node4" class="node"><title>Node3</title>
<g id="a_node4"><a xlink:href="enums_8h.html" target="_top" xlink:title="Enumérations et constantes permettant de paramétrer les fwidgets. ">
<polygon fill="white" stroke="black" points="161.5,-0.5 161.5,-19.5 215.5,-19.5 215.5,-0.5 161.5,-0.5"/>
<text text-anchor="middle" x="188.5" y="-7.5" font-family="Helvetica,sans-Serif" font-size="10.00">enums.h</text>
</a>
</g>
</g>
<!-- Node0&#45;&gt;Node3 -->
<g id="edge3" class="edge"><title>Node0&#45;&gt;Node3</title>
<path fill="none" stroke="midnightblue" d="M117.996,-56.324C131.1,-47.9002 151.212,-34.9709 166.607,-25.0741"/>
<polygon fill="midnightblue" stroke="midnightblue" points="168.518,-28.0063 175.037,-19.6545 164.733,-22.118 168.518,-28.0063"/>
</g>
</g>
</svg>
