<?xml version="1.0" encoding="UTF-8" standalone="no"?>
<!DOCTYPE svg PUBLIC "-//W3C//DTD SVG 1.1//EN"
 "http://www.w3.org/Graphics/SVG/1.1/DTD/svg11.dtd">
<!-- Generated by graphviz version 2.38.0 (20140413.2041)
 -->
<!-- Title: Interface/gui/gui_enums.h Pages: 1 -->
<svg width="854pt" height="207pt"
 viewBox="0.00 0.00 854.00 207.00" xmlns="http://www.w3.org/2000/svg" xmlns:xlink="http://www.w3.org/1999/xlink">
<g id="graph0" class="graph" transform="scale(1 1) rotate(0) translate(4 203)">
<title>Interface/gui/gui_enums.h</title>
<polygon fill="white" stroke="none" points="-4,4 -4,-203 850,-203 850,4 -4,4"/>
<!-- Node2 -->
<g id="node1" class="node"><title>Node2</title>
<polygon fill="#bfbfbf" stroke="black" points="519,-179.5 519,-198.5 648,-198.5 648,-179.5 519,-179.5"/>
<text text-anchor="middle" x="583.5" y="-186.5" font-family="Helvetica,sans-Serif" font-size="10.00">Interface/gui/gui_enums.h</text>
</g>
<!-- Node3 -->
<g id="node2" class="node"><title>Node3</title>
<g id="a_node2"><a xlink:href="altair-gui_8h.html" target="_top" xlink:title="Code de la classe MainWindow qui construit l&#39;interface graphique. ">
<polygon fill="white" stroke="black" points="342,-112.5 342,-142.5 437,-142.5 437,-112.5 342,-112.5"/>
<text text-anchor="start" x="350" y="-130.5" font-family="Helvetica,sans-Serif" font-size="10.00">Interface/gui/altair</text>
<text text-anchor="middle" x="389.5" y="-119.5" font-family="Helvetica,sans-Serif" font-size="10.00">&#45;gui.h</text>
</a>
</g>
</g>
<!-- Node2&#45;&gt;Node3 -->
<g id="edge1" class="edge"><title>Node2&#45;&gt;Node3</title>
<path fill="none" stroke="midnightblue" d="M545.95,-176.483C514.32,-166.782 468.962,-152.871 435.222,-142.523"/>
<polygon fill="midnightblue" stroke="midnightblue" points="545.118,-179.889 555.705,-179.475 547.17,-173.197 545.118,-179.889"/>
</g>
<!-- Node6 -->
<g id="node5" class="node"><title>Node6</title>
<g id="a_node5"><a xlink:href="mainwindow_8cpp.html" target="_top" xlink:title="Code de l&#39;implémentation de la classe MainWindow de l&#39;interface graphique. ">
<polygon fill="white" stroke="black" points="551.5,-0.5 551.5,-19.5 697.5,-19.5 697.5,-0.5 551.5,-0.5"/>
<text text-anchor="middle" x="624.5" y="-7.5" font-family="Helvetica,sans-Serif" font-size="10.00">Interface/gui/mainwindow.cpp</text>
</a>
</g>
</g>
<!-- Node2&#45;&gt;Node6 -->
<g id="edge11" class="edge"><title>Node2&#45;&gt;Node6</title>
<path fill="none" stroke="midnightblue" d="M570.467,-171.231C565.009,-163.168 559.292,-153.079 556.5,-143 552.822,-129.722 552.477,-125.177 556.5,-112 568.35,-73.1824 600.675,-35.7787 616.097,-19.5029"/>
<polygon fill="midnightblue" stroke="midnightblue" points="567.653,-173.312 576.349,-179.364 573.325,-169.21 567.653,-173.312"/>
</g>
<!-- Node11 -->
<g id="node10" class="node"><title>Node11</title>
<g id="a_node10"><a xlink:href="common_8cpp.html" target="_top" xlink:title="Interface/gui/common.cpp">
<polygon fill="white" stroke="black" points="565.5,-118 565.5,-137 695.5,-137 695.5,-118 565.5,-118"/>
<text text-anchor="middle" x="630.5" y="-125" font-family="Helvetica,sans-Serif" font-size="10.00">Interface/gui/common.cpp</text>
</a>
</g>
</g>
<!-- Node2&#45;&gt;Node11 -->
<g id="edge10" class="edge"><title>Node2&#45;&gt;Node11</title>
<path fill="none" stroke="midnightblue" d="M596.662,-171.338C605.484,-160.169 616.733,-145.928 623.779,-137.009"/>
<polygon fill="midnightblue" stroke="midnightblue" points="593.686,-169.458 590.234,-179.475 599.179,-173.797 593.686,-169.458"/>
</g>
<!-- Node12 -->
<g id="node11" class="node"><title>Node12</title>
<g id="a_node11"><a xlink:href="matricules_8h.html" target="_top" xlink:title="Code de la classe MatriculeInput, qui construit un dialogue d&#39;extraction des bulletins. ">
<polygon fill="white" stroke="black" points="714,-118 714,-137 841,-137 841,-118 714,-118"/>
<text text-anchor="middle" x="777.5" y="-125" font-family="Helvetica,sans-Serif" font-size="10.00">Interface/gui/matricules.h</text>
</a>
</g>
</g>
<!-- Node2&#45;&gt;Node12 -->
<g id="edge12" class="edge"><title>Node2&#45;&gt;Node12</title>
<path fill="none" stroke="midnightblue" d="M620.903,-176.529C658.607,-164.965 715.926,-147.385 749.756,-137.009"/>
<polygon fill="midnightblue" stroke="midnightblue" points="619.83,-173.197 611.295,-179.475 621.882,-179.889 619.83,-173.197"/>
</g>
<!-- Node4 -->
<g id="node3" class="node"><title>Node4</title>
<g id="a_node3"><a xlink:href="altair_8h.html" target="_top" xlink:title="Code de la classe principale Altair, qui joue le rôle d&#39;agent de l&#39;interface graphique. ">
<polygon fill="white" stroke="black" points="275,-56.5 275,-75.5 378,-75.5 378,-56.5 275,-56.5"/>
<text text-anchor="middle" x="326.5" y="-63.5" font-family="Helvetica,sans-Serif" font-size="10.00">Interface/gui/altair.h</text>
</a>
</g>
</g>
<!-- Node3&#45;&gt;Node4 -->
<g id="edge2" class="edge"><title>Node3&#45;&gt;Node4</title>
<path fill="none" stroke="midnightblue" d="M360.89,-105.597C349.352,-95.3153 337.339,-83.4824 330.738,-75.6578"/>
<polygon fill="midnightblue" stroke="midnightblue" points="358.883,-108.489 368.73,-112.399 363.47,-103.202 358.883,-108.489"/>
</g>
<!-- Node10 -->
<g id="node9" class="node"><title>Node10</title>
<g id="a_node9"><a xlink:href="_interface_2gui_2main_8cpp.html" target="_top" xlink:title="Lance l&#39;interface graphique en chargeant le bon contexte linguistique et la feuille de style...">
<polygon fill="white" stroke="black" points="396,-56.5 396,-75.5 509,-75.5 509,-56.5 396,-56.5"/>
<text text-anchor="middle" x="452.5" y="-63.5" font-family="Helvetica,sans-Serif" font-size="10.00">Interface/gui/main.cpp</text>
</a>
</g>
</g>
<!-- Node3&#45;&gt;Node10 -->
<g id="edge9" class="edge"><title>Node3&#45;&gt;Node10</title>
<path fill="none" stroke="midnightblue" d="M411.947,-105.3C422.76,-95.0881 435.128,-83.4072 443.333,-75.6578"/>
<polygon fill="midnightblue" stroke="midnightblue" points="409.297,-102.989 404.43,-112.399 414.103,-108.078 409.297,-102.989"/>
</g>
<!-- Node4&#45;&gt;Node3 -->
<g id="edge3" class="edge"><title>Node4&#45;&gt;Node3</title>
<path fill="none" stroke="midnightblue" d="M348.558,-82.1909C359.482,-91.4899 371.951,-103.308 380.41,-112.399"/>
<polygon fill="midnightblue" stroke="midnightblue" points="350.547,-79.2959 340.596,-75.6578 346.106,-84.7071 350.547,-79.2959"/>
</g>
<!-- Node5 -->
<g id="node4" class="node"><title>Node5</title>
<g id="a_node4"><a xlink:href="altair_8cpp.html" target="_top" xlink:title="Code implémentant la classe principale Altair, qui joue le rôle d&#39;agent de l&#39;interface graphique...">
<polygon fill="white" stroke="black" points="0,-0.5 0,-19.5 113,-19.5 113,-0.5 0,-0.5"/>
<text text-anchor="middle" x="56.5" y="-7.5" font-family="Helvetica,sans-Serif" font-size="10.00">Interface/gui/altair.cpp</text>
</a>
</g>
</g>
<!-- Node4&#45;&gt;Node5 -->
<g id="edge4" class="edge"><title>Node4&#45;&gt;Node5</title>
<path fill="none" stroke="midnightblue" d="M273.867,-54.4734C222.839,-44.2678 146.397,-28.9794 99.0821,-19.5164"/>
<polygon fill="midnightblue" stroke="midnightblue" points="273.225,-57.9143 283.718,-56.4435 274.598,-51.0503 273.225,-57.9143"/>
</g>
<!-- Node4&#45;&gt;Node6 -->
<g id="edge5" class="edge"><title>Node4&#45;&gt;Node6</title>
<path fill="none" stroke="midnightblue" d="M383.889,-54.6007C440.207,-44.3953 525.062,-29.0189 577.502,-19.5164"/>
<polygon fill="midnightblue" stroke="midnightblue" points="382.935,-51.2165 373.719,-56.4435 384.183,-58.1043 382.935,-51.2165"/>
</g>
<!-- Node7 -->
<g id="node6" class="node"><title>Node7</title>
<g id="a_node6"><a xlink:href="options_8cpp.html" target="_top" xlink:title="Implémentation des classes du dialogue d&#39;options. ">
<polygon fill="white" stroke="black" points="131.5,-0.5 131.5,-19.5 255.5,-19.5 255.5,-0.5 131.5,-0.5"/>
<text text-anchor="middle" x="193.5" y="-7.5" font-family="Helvetica,sans-Serif" font-size="10.00">Interface/gui/options.cpp</text>
</a>
</g>
</g>
<!-- Node4&#45;&gt;Node7 -->
<g id="edge6" class="edge"><title>Node4&#45;&gt;Node7</title>
<path fill="none" stroke="midnightblue" d="M296.052,-52.6377C271.093,-42.504 236.423,-28.4274 214.476,-19.5164"/>
<polygon fill="midnightblue" stroke="midnightblue" points="294.844,-55.9245 305.426,-56.4435 297.477,-49.4387 294.844,-55.9245"/>
</g>
<!-- Node8 -->
<g id="node7" class="node"><title>Node8</title>
<g id="a_node7"><a xlink:href="run_8cpp.html" target="_top" xlink:title="Implémentation de la classe Altair agent de la classe MainWindow qui construit l&#39;interface graphique...">
<polygon fill="white" stroke="black" points="273.5,-0.5 273.5,-19.5 379.5,-19.5 379.5,-0.5 273.5,-0.5"/>
<text text-anchor="middle" x="326.5" y="-7.5" font-family="Helvetica,sans-Serif" font-size="10.00">Interface/gui/run.cpp</text>
</a>
</g>
</g>
<!-- Node4&#45;&gt;Node8 -->
<g id="edge7" class="edge"><title>Node4&#45;&gt;Node8</title>
<path fill="none" stroke="midnightblue" d="M326.5,-45.8045C326.5,-36.9102 326.5,-26.7798 326.5,-19.7511"/>
<polygon fill="midnightblue" stroke="midnightblue" points="323,-46.083 326.5,-56.083 330,-46.083 323,-46.083"/>
</g>
<!-- Node9 -->
<g id="node8" class="node"><title>Node9</title>
<g id="a_node8"><a xlink:href="xmlparser_8cpp.html" target="_top" xlink:title="Implémentation de la classe Altair agent de la classe MainWindow qui construit l&#39;interface graphique...">
<polygon fill="white" stroke="black" points="398,-0.5 398,-19.5 533,-19.5 533,-0.5 398,-0.5"/>
<text text-anchor="middle" x="465.5" y="-7.5" font-family="Helvetica,sans-Serif" font-size="10.00">Interface/gui/xmlparser.cpp</text>
</a>
</g>
</g>
<!-- Node4&#45;&gt;Node9 -->
<g id="edge8" class="edge"><title>Node4&#45;&gt;Node9</title>
<path fill="none" stroke="midnightblue" d="M357.976,-52.772C384.085,-42.6287 420.539,-28.4669 443.578,-19.5164"/>
<polygon fill="midnightblue" stroke="midnightblue" points="356.579,-49.5598 348.525,-56.4435 359.114,-56.0847 356.579,-49.5598"/>
</g>
<!-- Node12&#45;&gt;Node6 -->
<g id="edge13" class="edge"><title>Node12&#45;&gt;Node6</title>
<path fill="none" stroke="midnightblue" d="M754.382,-112.711C738.552,-102.988 717.29,-89.3653 699.5,-76 674.704,-57.3706 647.698,-32.8038 633.849,-19.8591"/>
<polygon fill="midnightblue" stroke="midnightblue" points="752.643,-115.751 763.006,-117.954 756.279,-109.769 752.643,-115.751"/>
</g>
<!-- Node13 -->
<g id="node12" class="node"><title>Node13</title>
<g id="a_node12"><a xlink:href="matricules_8cpp.html" target="_top" xlink:title="Implémentation de la classe MatriculeInput, qui construit un dialogue d&#39;extraction des bulletins...">
<polygon fill="white" stroke="black" points="709,-56.5 709,-75.5 846,-75.5 846,-56.5 709,-56.5"/>
<text text-anchor="middle" x="777.5" y="-63.5" font-family="Helvetica,sans-Serif" font-size="10.00">Interface/gui/matricules.cpp</text>
</a>
</g>
</g>
<!-- Node12&#45;&gt;Node13 -->
<g id="edge14" class="edge"><title>Node12&#45;&gt;Node13</title>
<path fill="none" stroke="midnightblue" d="M777.5,-107.817C777.5,-96.9962 777.5,-83.898 777.5,-75.5091"/>
<polygon fill="midnightblue" stroke="midnightblue" points="774,-107.975 777.5,-117.975 781,-107.975 774,-107.975"/>
</g>
</g>
</svg>
