<?xml version="1.0" encoding="UTF-8" standalone="no"?>
<!DOCTYPE svg PUBLIC "-//W3C//DTD SVG 1.1//EN"
 "http://www.w3.org/Graphics/SVG/1.1/DTD/svg11.dtd">
<!-- Generated by graphviz version 2.38.0 (20140413.2041)
 -->
<!-- Title: fwidgets_lib/gui_options.h Pages: 1 -->
<svg width="251pt" height="252pt"
 viewBox="0.00 0.00 251.00 252.00" xmlns="http://www.w3.org/2000/svg" xmlns:xlink="http://www.w3.org/1999/xlink">
<g id="graph0" class="graph" transform="scale(1 1) rotate(0) translate(4 248)">
<title>fwidgets_lib/gui_options.h</title>
<polygon fill="white" stroke="none" points="-4,4 -4,-248 247,-248 247,4 -4,4"/>
<!-- Node0 -->
<g id="node1" class="node"><title>Node0</title>
<polygon fill="#bfbfbf" stroke="black" points="14.5,-224.5 14.5,-243.5 143.5,-243.5 143.5,-224.5 14.5,-224.5"/>
<text text-anchor="middle" x="79" y="-231.5" font-family="Helvetica,sans-Serif" font-size="10.00">fwidgets_lib/gui_options.h</text>
</g>
<!-- Node1 -->
<g id="node2" class="node"><title>Node1</title>
<polygon fill="white" stroke="#bfbfbf" points="0,-168.5 0,-187.5 78,-187.5 78,-168.5 0,-168.5"/>
<text text-anchor="middle" x="39" y="-175.5" font-family="Helvetica,sans-Serif" font-size="10.00">flineframe.hpp</text>
</g>
<!-- Node0&#45;&gt;Node1 -->
<g id="edge1" class="edge"><title>Node0&#45;&gt;Node1</title>
<path fill="none" stroke="midnightblue" d="M72.3948,-224.083C66.7448,-216.455 58.4552,-205.264 51.5488,-195.941"/>
<polygon fill="midnightblue" stroke="midnightblue" points="54.2471,-193.703 45.4823,-187.751 48.6221,-197.87 54.2471,-193.703"/>
</g>
<!-- Node2 -->
<g id="node3" class="node"><title>Node2</title>
<g id="a_node3"><a xlink:href="tools_8h.html" target="_top" xlink:title="tools.h">
<polygon fill="white" stroke="black" points="96,-168.5 96,-187.5 142,-187.5 142,-168.5 96,-168.5"/>
<text text-anchor="middle" x="119" y="-175.5" font-family="Helvetica,sans-Serif" font-size="10.00">tools.h</text>
</a>
</g>
</g>
<!-- Node0&#45;&gt;Node2 -->
<g id="edge2" class="edge"><title>Node0&#45;&gt;Node2</title>
<path fill="none" stroke="midnightblue" d="M85.6052,-224.083C91.2552,-216.455 99.5448,-205.264 106.451,-195.941"/>
<polygon fill="midnightblue" stroke="midnightblue" points="109.378,-197.87 112.518,-187.751 103.753,-193.703 109.378,-197.87"/>
</g>
<!-- Node3 -->
<g id="node4" class="node"><title>Node3</title>
<polygon fill="white" stroke="#bfbfbf" points="47.5,-56.5 47.5,-75.5 110.5,-75.5 110.5,-56.5 47.5,-56.5"/>
<text text-anchor="middle" x="79" y="-63.5" font-family="Helvetica,sans-Serif" font-size="10.00">QtWidgets</text>
</g>
<!-- Node2&#45;&gt;Node3 -->
<g id="edge3" class="edge"><title>Node2&#45;&gt;Node3</title>
<path fill="none" stroke="midnightblue" d="M115.861,-168.368C109.377,-150.537 94.3801,-109.295 85.6443,-85.2717"/>
<polygon fill="midnightblue" stroke="midnightblue" points="88.8309,-83.7932 82.1242,-75.5914 82.2524,-86.1855 88.8309,-83.7932"/>
</g>
<!-- Node4 -->
<g id="node5" class="node"><title>Node4</title>
<g id="a_node5"><a xlink:href="fwidgets_8h.html" target="_top" xlink:title="fwidgets.h">
<polygon fill="white" stroke="black" points="119,-112.5 119,-131.5 181,-131.5 181,-112.5 119,-112.5"/>
<text text-anchor="middle" x="150" y="-119.5" font-family="Helvetica,sans-Serif" font-size="10.00">fwidgets.h</text>
</a>
</g>
</g>
<!-- Node2&#45;&gt;Node4 -->
<g id="edge4" class="edge"><title>Node2&#45;&gt;Node4</title>
<path fill="none" stroke="midnightblue" d="M124.119,-168.083C128.408,-160.613 134.658,-149.724 139.942,-140.52"/>
<polygon fill="midnightblue" stroke="midnightblue" points="143.033,-142.166 144.976,-131.751 136.962,-138.681 143.033,-142.166"/>
</g>
<!-- Node4&#45;&gt;Node3 -->
<g id="edge5" class="edge"><title>Node4&#45;&gt;Node3</title>
<path fill="none" stroke="midnightblue" d="M138.593,-112.324C127.891,-104.185 111.659,-91.8395 98.8372,-82.0874"/>
<polygon fill="midnightblue" stroke="midnightblue" points="100.693,-79.1018 90.6149,-75.8339 96.4556,-84.6734 100.693,-79.1018"/>
</g>
<!-- Node5 -->
<g id="node6" class="node"><title>Node5</title>
<g id="a_node6"><a xlink:href="fstring_8h.html" target="_top" xlink:title="fstring.h">
<polygon fill="white" stroke="black" points="129,-56.5 129,-75.5 181,-75.5 181,-56.5 129,-56.5"/>
<text text-anchor="middle" x="155" y="-63.5" font-family="Helvetica,sans-Serif" font-size="10.00">fstring.h</text>
</a>
</g>
</g>
<!-- Node4&#45;&gt;Node5 -->
<g id="edge6" class="edge"><title>Node4&#45;&gt;Node5</title>
<path fill="none" stroke="midnightblue" d="M150.826,-112.083C151.481,-105.006 152.42,-94.8611 153.242,-85.9865"/>
<polygon fill="midnightblue" stroke="midnightblue" points="156.753,-86.0312 154.19,-75.7511 149.783,-85.3858 156.753,-86.0312"/>
</g>
<!-- Node8 -->
<g id="node9" class="node"><title>Node8</title>
<g id="a_node9"><a xlink:href="tags_8h.html" target="_top" xlink:title="tags.h">
<polygon fill="white" stroke="black" points="199,-56.5 199,-75.5 243,-75.5 243,-56.5 199,-56.5"/>
<text text-anchor="middle" x="221" y="-63.5" font-family="Helvetica,sans-Serif" font-size="10.00">tags.h</text>
</a>
</g>
</g>
<!-- Node4&#45;&gt;Node8 -->
<g id="edge9" class="edge"><title>Node4&#45;&gt;Node8</title>
<path fill="none" stroke="midnightblue" d="M161.407,-112.324C172.109,-104.185 188.341,-91.8395 201.163,-82.0874"/>
<polygon fill="midnightblue" stroke="midnightblue" points="203.544,-84.6734 209.385,-75.8339 199.307,-79.1018 203.544,-84.6734"/>
</g>
<!-- Node6 -->
<g id="node7" class="node"><title>Node6</title>
<polygon fill="white" stroke="#bfbfbf" points="96,-0.5 96,-19.5 144,-19.5 144,-0.5 96,-0.5"/>
<text text-anchor="middle" x="120" y="-7.5" font-family="Helvetica,sans-Serif" font-size="10.00">QtCore</text>
</g>
<!-- Node5&#45;&gt;Node6 -->
<g id="edge7" class="edge"><title>Node5&#45;&gt;Node6</title>
<path fill="none" stroke="midnightblue" d="M149.22,-56.083C144.328,-48.5341 137.173,-37.4948 131.167,-28.2298"/>
<polygon fill="midnightblue" stroke="midnightblue" points="134.048,-26.239 125.672,-19.7511 128.174,-30.0463 134.048,-26.239"/>
</g>
<!-- Node7 -->
<g id="node8" class="node"><title>Node7</title>
<g id="a_node8"><a xlink:href="enums_8h.html" target="_top" xlink:title="Enumérations et constantes permettant de paramétrer les fwidgets. ">
<polygon fill="white" stroke="black" points="162,-0.5 162,-19.5 216,-19.5 216,-0.5 162,-0.5"/>
<text text-anchor="middle" x="189" y="-7.5" font-family="Helvetica,sans-Serif" font-size="10.00">enums.h</text>
</a>
</g>
</g>
<!-- Node5&#45;&gt;Node7 -->
<g id="edge8" class="edge"><title>Node5&#45;&gt;Node7</title>
<path fill="none" stroke="midnightblue" d="M160.614,-56.083C165.367,-48.5341 172.318,-37.4948 178.152,-28.2298"/>
<polygon fill="midnightblue" stroke="midnightblue" points="181.124,-30.0783 183.49,-19.7511 175.2,-26.3486 181.124,-30.0783"/>
</g>
</g>
</svg>
