<?xml version="1.0" encoding="UTF-8" standalone="no"?>
<!DOCTYPE svg PUBLIC "-//W3C//DTD SVG 1.1//EN"
 "http://www.w3.org/Graphics/SVG/1.1/DTD/svg11.dtd">
<!-- Generated by graphviz version 2.38.0 (20140413.2041)
 -->
<!-- Title: Interface/gui/highlighter.cpp Pages: 1 -->
<svg width="456pt" height="196pt"
 viewBox="0.00 0.00 455.50 196.00" xmlns="http://www.w3.org/2000/svg" xmlns:xlink="http://www.w3.org/1999/xlink">
<g id="graph0" class="graph" transform="scale(1 1) rotate(0) translate(4 192)">
<title>Interface/gui/highlighter.cpp</title>
<polygon fill="white" stroke="none" points="-4,4 -4,-192 451.5,-192 451.5,4 -4,4"/>
<!-- Node0 -->
<g id="node1" class="node"><title>Node0</title>
<polygon fill="#bfbfbf" stroke="black" points="173.5,-168.5 173.5,-187.5 320.5,-187.5 320.5,-168.5 173.5,-168.5"/>
<text text-anchor="middle" x="247" y="-175.5" font-family="Helvetica,sans-Serif" font-size="10.00">Interface/gui/highlighter.cpp</text>
</g>
<!-- Node1 -->
<g id="node2" class="node"><title>Node1</title>
<g id="a_node2"><a xlink:href="highlighter_8h.html" target="_top" xlink:title="Code de l&#39;utilitaire de colorisation du code XML du projet .alt. ">
<polygon fill="white" stroke="black" points="140,-112.5 140,-131.5 214,-131.5 214,-112.5 140,-112.5"/>
<text text-anchor="middle" x="177" y="-119.5" font-family="Helvetica,sans-Serif" font-size="10.00">highlighter.h</text>
</a>
</g>
</g>
<!-- Node0&#45;&gt;Node1 -->
<g id="edge1" class="edge"><title>Node0&#45;&gt;Node1</title>
<path fill="none" stroke="midnightblue" d="M235.753,-168.324C225.203,-160.185 209.199,-147.839 196.558,-138.087"/>
<polygon fill="midnightblue" stroke="midnightblue" points="198.507,-135.171 188.451,-131.834 194.231,-140.713 198.507,-135.171"/>
</g>
<!-- Node4 -->
<g id="node5" class="node"><title>Node4</title>
<g id="a_node5"><a xlink:href="fwidgets_8h.html" target="_top" xlink:title="fwidgets.h">
<polygon fill="white" stroke="black" points="286,-112.5 286,-131.5 350,-131.5 350,-112.5 286,-112.5"/>
<text text-anchor="middle" x="318" y="-119.5" font-family="Helvetica,sans-Serif" font-size="10.00">fwidgets.h</text>
</a>
</g>
</g>
<!-- Node0&#45;&gt;Node4 -->
<g id="edge4" class="edge"><title>Node0&#45;&gt;Node4</title>
<path fill="none" stroke="midnightblue" d="M258.407,-168.324C269.109,-160.185 285.341,-147.839 298.163,-138.087"/>
<polygon fill="midnightblue" stroke="midnightblue" points="300.544,-140.673 306.385,-131.834 296.307,-135.102 300.544,-140.673"/>
</g>
<!-- Node2 -->
<g id="node3" class="node"><title>Node2</title>
<polygon fill="white" stroke="#bfbfbf" points="0,-56.5 0,-75.5 108,-75.5 108,-56.5 0,-56.5"/>
<text text-anchor="middle" x="54" y="-63.5" font-family="Helvetica,sans-Serif" font-size="10.00">QSyntaxHighlighter</text>
</g>
<!-- Node1&#45;&gt;Node2 -->
<g id="edge2" class="edge"><title>Node1&#45;&gt;Node2</title>
<path fill="none" stroke="midnightblue" d="M157.51,-112.444C137.358,-103.596 105.677,-89.6875 82.6692,-79.5865"/>
<polygon fill="midnightblue" stroke="midnightblue" points="83.962,-76.3316 73.3985,-75.5164 81.148,-82.7411 83.962,-76.3316"/>
</g>
<!-- Node3 -->
<g id="node4" class="node"><title>Node3</title>
<polygon fill="white" stroke="#bfbfbf" points="126,-56.5 126,-75.5 228,-75.5 228,-56.5 126,-56.5"/>
<text text-anchor="middle" x="177" y="-63.5" font-family="Helvetica,sans-Serif" font-size="10.00">QTextCharFormat</text>
</g>
<!-- Node1&#45;&gt;Node3 -->
<g id="edge3" class="edge"><title>Node1&#45;&gt;Node3</title>
<path fill="none" stroke="midnightblue" d="M177,-112.083C177,-105.006 177,-94.8611 177,-85.9865"/>
<polygon fill="midnightblue" stroke="midnightblue" points="180.5,-85.751 177,-75.7511 173.5,-85.7511 180.5,-85.751"/>
</g>
<!-- Node5 -->
<g id="node6" class="node"><title>Node5</title>
<polygon fill="white" stroke="#bfbfbf" points="246,-56.5 246,-75.5 312,-75.5 312,-56.5 246,-56.5"/>
<text text-anchor="middle" x="279" y="-63.5" font-family="Helvetica,sans-Serif" font-size="10.00">QtWidgets</text>
</g>
<!-- Node4&#45;&gt;Node5 -->
<g id="edge5" class="edge"><title>Node4&#45;&gt;Node5</title>
<path fill="none" stroke="midnightblue" d="M311.56,-112.083C306.051,-104.455 297.969,-93.2645 291.235,-83.9408"/>
<polygon fill="midnightblue" stroke="midnightblue" points="294.013,-81.8087 285.32,-75.7511 288.338,-85.9071 294.013,-81.8087"/>
</g>
<!-- Node6 -->
<g id="node7" class="node"><title>Node6</title>
<g id="a_node7"><a xlink:href="fstring_8h.html" target="_top" xlink:title="fstring.h">
<polygon fill="white" stroke="black" points="330,-56.5 330,-75.5 384,-75.5 384,-56.5 330,-56.5"/>
<text text-anchor="middle" x="357" y="-63.5" font-family="Helvetica,sans-Serif" font-size="10.00">fstring.h</text>
</a>
</g>
</g>
<!-- Node4&#45;&gt;Node6 -->
<g id="edge6" class="edge"><title>Node4&#45;&gt;Node6</title>
<path fill="none" stroke="midnightblue" d="M324.44,-112.083C329.949,-104.455 338.031,-93.2645 344.765,-83.9408"/>
<polygon fill="midnightblue" stroke="midnightblue" points="347.662,-85.9071 350.68,-75.7511 341.987,-81.8087 347.662,-85.9071"/>
</g>
<!-- Node9 -->
<g id="node10" class="node"><title>Node9</title>
<g id="a_node10"><a xlink:href="tags_8h.html" target="_top" xlink:title="tags.h">
<polygon fill="white" stroke="black" points="402.5,-56.5 402.5,-75.5 447.5,-75.5 447.5,-56.5 402.5,-56.5"/>
<text text-anchor="middle" x="425" y="-63.5" font-family="Helvetica,sans-Serif" font-size="10.00">tags.h</text>
</a>
</g>
</g>
<!-- Node4&#45;&gt;Node9 -->
<g id="edge9" class="edge"><title>Node4&#45;&gt;Node9</title>
<path fill="none" stroke="midnightblue" d="M335.191,-112.324C352.351,-103.664 378.946,-90.2424 398.747,-80.249"/>
<polygon fill="midnightblue" stroke="midnightblue" points="400.501,-83.2847 407.851,-75.6545 397.347,-77.0354 400.501,-83.2847"/>
</g>
<!-- Node7 -->
<g id="node8" class="node"><title>Node7</title>
<polygon fill="white" stroke="#bfbfbf" points="295.5,-0.5 295.5,-19.5 346.5,-19.5 346.5,-0.5 295.5,-0.5"/>
<text text-anchor="middle" x="321" y="-7.5" font-family="Helvetica,sans-Serif" font-size="10.00">QtCore</text>
</g>
<!-- Node6&#45;&gt;Node7 -->
<g id="edge7" class="edge"><title>Node6&#45;&gt;Node7</title>
<path fill="none" stroke="midnightblue" d="M351.055,-56.083C346.023,-48.5341 338.663,-37.4948 332.487,-28.2298"/>
<polygon fill="midnightblue" stroke="midnightblue" points="335.293,-26.1301 326.834,-19.7511 329.469,-30.0131 335.293,-26.1301"/>
</g>
<!-- Node8 -->
<g id="node9" class="node"><title>Node8</title>
<g id="a_node9"><a xlink:href="enums_8h.html" target="_top" xlink:title="Enumérations et constantes permettant de paramétrer les fwidgets. ">
<polygon fill="white" stroke="black" points="365,-0.5 365,-19.5 421,-19.5 421,-0.5 365,-0.5"/>
<text text-anchor="middle" x="393" y="-7.5" font-family="Helvetica,sans-Serif" font-size="10.00">enums.h</text>
</a>
</g>
</g>
<!-- Node6&#45;&gt;Node8 -->
<g id="edge8" class="edge"><title>Node6&#45;&gt;Node8</title>
<path fill="none" stroke="midnightblue" d="M362.945,-56.083C367.977,-48.5341 375.337,-37.4948 381.513,-28.2298"/>
<polygon fill="midnightblue" stroke="midnightblue" points="384.531,-30.0131 387.166,-19.7511 378.707,-26.1301 384.531,-30.0131"/>
</g>
</g>
</svg>
