<?xml version="1.0" encoding="UTF-8" standalone="no"?>
<!DOCTYPE svg PUBLIC "-//W3C//DTD SVG 1.1//EN"
 "http://www.w3.org/Graphics/SVG/1.1/DTD/svg11.dtd">
<!-- Generated by graphviz version 2.38.0 (20140413.2041)
 -->
<!-- Title: Interface/gui/highlighter.h Pages: 1 -->
<svg width="705pt" height="207pt"
 viewBox="0.00 0.00 705.00 207.00" xmlns="http://www.w3.org/2000/svg" xmlns:xlink="http://www.w3.org/1999/xlink">
<g id="graph0" class="graph" transform="scale(1 1) rotate(0) translate(4 203)">
<title>Interface/gui/highlighter.h</title>
<polygon fill="white" stroke="none" points="-4,4 -4,-203 701,-203 701,4 -4,4"/>
<!-- Node3 -->
<g id="node1" class="node"><title>Node3</title>
<polygon fill="#bfbfbf" stroke="black" points="361.5,-179.5 361.5,-198.5 487.5,-198.5 487.5,-179.5 361.5,-179.5"/>
<text text-anchor="middle" x="424.5" y="-186.5" font-family="Helvetica,sans-Serif" font-size="10.00">Interface/gui/highlighter.h</text>
</g>
<!-- Node4 -->
<g id="node2" class="node"><title>Node4</title>
<g id="a_node2"><a xlink:href="altair-gui_8h.html" target="_top" xlink:title="Code de la classe MainWindow qui construit l&#39;interface graphique. ">
<polygon fill="white" stroke="black" points="310,-112.5 310,-142.5 405,-142.5 405,-112.5 310,-112.5"/>
<text text-anchor="start" x="318" y="-130.5" font-family="Helvetica,sans-Serif" font-size="10.00">Interface/gui/altair</text>
<text text-anchor="middle" x="357.5" y="-119.5" font-family="Helvetica,sans-Serif" font-size="10.00">&#45;gui.h</text>
</a>
</g>
</g>
<!-- Node3&#45;&gt;Node4 -->
<g id="edge1" class="edge"><title>Node3&#45;&gt;Node4</title>
<path fill="none" stroke="midnightblue" d="M407.211,-172.646C396.738,-163.346 383.48,-151.572 373.291,-142.523"/>
<polygon fill="midnightblue" stroke="midnightblue" points="405.099,-175.452 414.901,-179.475 409.747,-170.218 405.099,-175.452"/>
</g>
<!-- Node12 -->
<g id="node10" class="node"><title>Node12</title>
<g id="a_node10"><a xlink:href="highlighter_8cpp.html" target="_top" xlink:title="Implémentation de la classe Highlighter qui sert à coloriser le code XML des projets ...">
<polygon fill="white" stroke="black" points="423,-118 423,-137 560,-137 560,-118 423,-118"/>
<text text-anchor="middle" x="491.5" y="-125" font-family="Helvetica,sans-Serif" font-size="10.00">Interface/gui/highlighter.cpp</text>
</a>
</g>
</g>
<!-- Node3&#45;&gt;Node12 -->
<g id="edge10" class="edge"><title>Node3&#45;&gt;Node12</title>
<path fill="none" stroke="midnightblue" d="M441.785,-172.65C454.559,-161.306 471.478,-146.281 481.918,-137.009"/>
<polygon fill="midnightblue" stroke="midnightblue" points="439.253,-170.218 434.099,-179.475 443.901,-175.452 439.253,-170.218"/>
</g>
<!-- Node5 -->
<g id="node3" class="node"><title>Node5</title>
<g id="a_node3"><a xlink:href="altair_8h.html" target="_top" xlink:title="Code de la classe principale Altair, qui joue le rôle d&#39;agent de l&#39;interface graphique. ">
<polygon fill="white" stroke="black" points="306,-56.5 306,-75.5 409,-75.5 409,-56.5 306,-56.5"/>
<text text-anchor="middle" x="357.5" y="-63.5" font-family="Helvetica,sans-Serif" font-size="10.00">Interface/gui/altair.h</text>
</a>
</g>
</g>
<!-- Node4&#45;&gt;Node5 -->
<g id="edge2" class="edge"><title>Node4&#45;&gt;Node5</title>
<path fill="none" stroke="midnightblue" d="M350.855,-102.289C350.493,-92.857 351.065,-82.6548 352.571,-75.6578"/>
<polygon fill="midnightblue" stroke="midnightblue" points="347.377,-102.709 351.66,-112.399 354.355,-102.153 347.377,-102.709"/>
</g>
<!-- Node11 -->
<g id="node9" class="node"><title>Node11</title>
<g id="a_node9"><a xlink:href="_interface_2gui_2main_8cpp.html" target="_top" xlink:title="Lance l&#39;interface graphique en chargeant le bon contexte linguistique et la feuille de style...">
<polygon fill="white" stroke="black" points="427,-56.5 427,-75.5 540,-75.5 540,-56.5 427,-56.5"/>
<text text-anchor="middle" x="483.5" y="-63.5" font-family="Helvetica,sans-Serif" font-size="10.00">Interface/gui/main.cpp</text>
</a>
</g>
</g>
<!-- Node4&#45;&gt;Node11 -->
<g id="edge9" class="edge"><title>Node4&#45;&gt;Node11</title>
<path fill="none" stroke="midnightblue" d="M396.498,-108.084C419.385,-97.2763 447.242,-84.1219 465.166,-75.6578"/>
<polygon fill="midnightblue" stroke="midnightblue" points="394.908,-104.964 387.36,-112.399 397.897,-111.294 394.908,-104.964"/>
</g>
<!-- Node5&#45;&gt;Node4 -->
<g id="edge3" class="edge"><title>Node5&#45;&gt;Node4</title>
<path fill="none" stroke="midnightblue" d="M363.807,-85.569C364.526,-94.2328 364.37,-104.377 363.34,-112.399"/>
<polygon fill="midnightblue" stroke="midnightblue" points="367.273,-85.0806 362.429,-75.6578 360.34,-86.0445 367.273,-85.0806"/>
</g>
<!-- Node6 -->
<g id="node4" class="node"><title>Node6</title>
<g id="a_node4"><a xlink:href="altair_8cpp.html" target="_top" xlink:title="Code implémentant la classe principale Altair, qui joue le rôle d&#39;agent de l&#39;interface graphique...">
<polygon fill="white" stroke="black" points="0,-0.5 0,-19.5 113,-19.5 113,-0.5 0,-0.5"/>
<text text-anchor="middle" x="56.5" y="-7.5" font-family="Helvetica,sans-Serif" font-size="10.00">Interface/gui/altair.cpp</text>
</a>
</g>
</g>
<!-- Node5&#45;&gt;Node6 -->
<g id="edge4" class="edge"><title>Node5&#45;&gt;Node6</title>
<path fill="none" stroke="midnightblue" d="M299.887,-54.6642C243.004,-44.4592 157.048,-29.0386 103.971,-19.5164"/>
<polygon fill="midnightblue" stroke="midnightblue" points="299.345,-58.1226 309.806,-56.4435 300.581,-51.2326 299.345,-58.1226"/>
</g>
<!-- Node7 -->
<g id="node5" class="node"><title>Node7</title>
<g id="a_node5"><a xlink:href="mainwindow_8cpp.html" target="_top" xlink:title="Code de l&#39;implémentation de la classe MainWindow de l&#39;interface graphique. ">
<polygon fill="white" stroke="black" points="131.5,-0.5 131.5,-19.5 277.5,-19.5 277.5,-0.5 131.5,-0.5"/>
<text text-anchor="middle" x="204.5" y="-7.5" font-family="Helvetica,sans-Serif" font-size="10.00">Interface/gui/mainwindow.cpp</text>
</a>
</g>
</g>
<!-- Node5&#45;&gt;Node7 -->
<g id="edge5" class="edge"><title>Node5&#45;&gt;Node7</title>
<path fill="none" stroke="midnightblue" d="M323.611,-53.0392C294.823,-42.8786 254.213,-28.5457 228.63,-19.5164"/>
<polygon fill="midnightblue" stroke="midnightblue" points="322.662,-56.4157 333.257,-56.4435 324.992,-49.8148 322.662,-56.4157"/>
</g>
<!-- Node8 -->
<g id="node6" class="node"><title>Node8</title>
<g id="a_node6"><a xlink:href="options_8cpp.html" target="_top" xlink:title="Implémentation des classes du dialogue d&#39;options. ">
<polygon fill="white" stroke="black" points="295.5,-0.5 295.5,-19.5 419.5,-19.5 419.5,-0.5 295.5,-0.5"/>
<text text-anchor="middle" x="357.5" y="-7.5" font-family="Helvetica,sans-Serif" font-size="10.00">Interface/gui/options.cpp</text>
</a>
</g>
</g>
<!-- Node5&#45;&gt;Node8 -->
<g id="edge6" class="edge"><title>Node5&#45;&gt;Node8</title>
<path fill="none" stroke="midnightblue" d="M357.5,-45.8045C357.5,-36.9102 357.5,-26.7798 357.5,-19.7511"/>
<polygon fill="midnightblue" stroke="midnightblue" points="354,-46.083 357.5,-56.083 361,-46.083 354,-46.083"/>
</g>
<!-- Node9 -->
<g id="node7" class="node"><title>Node9</title>
<g id="a_node7"><a xlink:href="run_8cpp.html" target="_top" xlink:title="Implémentation de la classe Altair agent de la classe MainWindow qui construit l&#39;interface graphique...">
<polygon fill="white" stroke="black" points="437.5,-0.5 437.5,-19.5 543.5,-19.5 543.5,-0.5 437.5,-0.5"/>
<text text-anchor="middle" x="490.5" y="-7.5" font-family="Helvetica,sans-Serif" font-size="10.00">Interface/gui/run.cpp</text>
</a>
</g>
</g>
<!-- Node5&#45;&gt;Node9 -->
<g id="edge7" class="edge"><title>Node5&#45;&gt;Node9</title>
<path fill="none" stroke="midnightblue" d="M387.948,-52.6377C412.907,-42.504 447.577,-28.4274 469.524,-19.5164"/>
<polygon fill="midnightblue" stroke="midnightblue" points="386.523,-49.4387 378.574,-56.4435 389.156,-55.9245 386.523,-49.4387"/>
</g>
<!-- Node10 -->
<g id="node8" class="node"><title>Node10</title>
<g id="a_node8"><a xlink:href="xmlparser_8cpp.html" target="_top" xlink:title="Implémentation de la classe Altair agent de la classe MainWindow qui construit l&#39;interface graphique...">
<polygon fill="white" stroke="black" points="562,-0.5 562,-19.5 697,-19.5 697,-0.5 562,-0.5"/>
<text text-anchor="middle" x="629.5" y="-7.5" font-family="Helvetica,sans-Serif" font-size="10.00">Interface/gui/xmlparser.cpp</text>
</a>
</g>
</g>
<!-- Node5&#45;&gt;Node10 -->
<g id="edge8" class="edge"><title>Node5&#45;&gt;Node10</title>
<path fill="none" stroke="midnightblue" d="M410.523,-54.4734C461.929,-44.2678 538.937,-28.9794 586.602,-19.5164"/>
<polygon fill="midnightblue" stroke="midnightblue" points="409.726,-51.0632 400.599,-56.4435 411.089,-57.9292 409.726,-51.0632"/>
</g>
</g>
</svg>
