<?xml version="1.0" encoding="UTF-8" standalone="no"?>
<!DOCTYPE svg PUBLIC "-//W3C//DTD SVG 1.1//EN"
 "http://www.w3.org/Graphics/SVG/1.1/DTD/svg11.dtd">
<!-- Generated by graphviz version 2.38.0 (20140413.2041)
 -->
<!-- Title: Interface/gui/highlighter.cpp Pages: 1 -->
<svg width="436pt" height="196pt"
 viewBox="0.00 0.00 435.50 196.00" xmlns="http://www.w3.org/2000/svg" xmlns:xlink="http://www.w3.org/1999/xlink">
<g id="graph0" class="graph" transform="scale(1 1) rotate(0) translate(4 192)">
<title>Interface/gui/highlighter.cpp</title>
<polygon fill="white" stroke="none" points="-4,4 -4,-192 431.5,-192 431.5,4 -4,4"/>
<!-- Node0 -->
<g id="node1" class="node"><title>Node0</title>
<polygon fill="#bfbfbf" stroke="black" points="165,-168.5 165,-187.5 302,-187.5 302,-168.5 165,-168.5"/>
<text text-anchor="middle" x="233.5" y="-175.5" font-family="Helvetica,sans-Serif" font-size="10.00">Interface/gui/highlighter.cpp</text>
</g>
<!-- Node1 -->
<g id="node2" class="node"><title>Node1</title>
<g id="a_node2"><a xlink:href="highlighter_8h.html" target="_top" xlink:title="Code de l&#39;utilitaire de colorisation du code XML du projet .alt. ">
<polygon fill="white" stroke="black" points="132,-112.5 132,-131.5 201,-131.5 201,-112.5 132,-112.5"/>
<text text-anchor="middle" x="166.5" y="-119.5" font-family="Helvetica,sans-Serif" font-size="10.00">highlighter.h</text>
</a>
</g>
</g>
<!-- Node0&#45;&gt;Node1 -->
<g id="edge1" class="edge"><title>Node0&#45;&gt;Node1</title>
<path fill="none" stroke="midnightblue" d="M222.735,-168.324C212.734,-160.263 197.613,-148.077 185.57,-138.369"/>
<polygon fill="midnightblue" stroke="midnightblue" points="187.443,-135.384 177.461,-131.834 183.05,-140.834 187.443,-135.384"/>
</g>
<!-- Node4 -->
<g id="node5" class="node"><title>Node4</title>
<g id="a_node5"><a xlink:href="fwidgets_8h.html" target="_top" xlink:title="fwidgets.h">
<polygon fill="white" stroke="black" points="270.5,-112.5 270.5,-131.5 332.5,-131.5 332.5,-112.5 270.5,-112.5"/>
<text text-anchor="middle" x="301.5" y="-119.5" font-family="Helvetica,sans-Serif" font-size="10.00">fwidgets.h</text>
</a>
</g>
</g>
<!-- Node0&#45;&gt;Node4 -->
<g id="edge4" class="edge"><title>Node0&#45;&gt;Node4</title>
<path fill="none" stroke="midnightblue" d="M244.425,-168.324C254.675,-160.185 270.221,-147.839 282.501,-138.087"/>
<polygon fill="midnightblue" stroke="midnightblue" points="284.721,-140.794 290.376,-131.834 280.368,-135.312 284.721,-140.794"/>
</g>
<!-- Node2 -->
<g id="node3" class="node"><title>Node2</title>
<polygon fill="white" stroke="#bfbfbf" points="0,-56.5 0,-75.5 101,-75.5 101,-56.5 0,-56.5"/>
<text text-anchor="middle" x="50.5" y="-63.5" font-family="Helvetica,sans-Serif" font-size="10.00">QSyntaxHighlighter</text>
</g>
<!-- Node1&#45;&gt;Node2 -->
<g id="edge2" class="edge"><title>Node1&#45;&gt;Node2</title>
<path fill="none" stroke="midnightblue" d="M148.119,-112.444C129.284,-103.675 99.7688,-89.9355 78.1207,-79.8579"/>
<polygon fill="midnightblue" stroke="midnightblue" points="79.3375,-76.5637 68.7946,-75.5164 76.3833,-82.9098 79.3375,-76.5637"/>
</g>
<!-- Node3 -->
<g id="node4" class="node"><title>Node3</title>
<polygon fill="white" stroke="#bfbfbf" points="119,-56.5 119,-75.5 214,-75.5 214,-56.5 119,-56.5"/>
<text text-anchor="middle" x="166.5" y="-63.5" font-family="Helvetica,sans-Serif" font-size="10.00">QTextCharFormat</text>
</g>
<!-- Node1&#45;&gt;Node3 -->
<g id="edge3" class="edge"><title>Node1&#45;&gt;Node3</title>
<path fill="none" stroke="midnightblue" d="M166.5,-112.083C166.5,-105.006 166.5,-94.8611 166.5,-85.9865"/>
<polygon fill="midnightblue" stroke="midnightblue" points="170,-85.751 166.5,-75.7511 163,-85.7511 170,-85.751"/>
</g>
<!-- Node5 -->
<g id="node6" class="node"><title>Node5</title>
<polygon fill="white" stroke="#bfbfbf" points="232,-56.5 232,-75.5 295,-75.5 295,-56.5 232,-56.5"/>
<text text-anchor="middle" x="263.5" y="-63.5" font-family="Helvetica,sans-Serif" font-size="10.00">QtWidgets</text>
</g>
<!-- Node4&#45;&gt;Node5 -->
<g id="edge5" class="edge"><title>Node4&#45;&gt;Node5</title>
<path fill="none" stroke="midnightblue" d="M295.225,-112.083C289.858,-104.455 281.982,-93.2645 275.421,-83.9408"/>
<polygon fill="midnightblue" stroke="midnightblue" points="278.275,-81.9149 269.658,-75.7511 272.551,-85.9434 278.275,-81.9149"/>
</g>
<!-- Node6 -->
<g id="node7" class="node"><title>Node6</title>
<g id="a_node7"><a xlink:href="fstring_8h.html" target="_top" xlink:title="fstring.h">
<polygon fill="white" stroke="black" points="313.5,-56.5 313.5,-75.5 365.5,-75.5 365.5,-56.5 313.5,-56.5"/>
<text text-anchor="middle" x="339.5" y="-63.5" font-family="Helvetica,sans-Serif" font-size="10.00">fstring.h</text>
</a>
</g>
</g>
<!-- Node4&#45;&gt;Node6 -->
<g id="edge6" class="edge"><title>Node4&#45;&gt;Node6</title>
<path fill="none" stroke="midnightblue" d="M307.775,-112.083C313.142,-104.455 321.018,-93.2645 327.579,-83.9408"/>
<polygon fill="midnightblue" stroke="midnightblue" points="330.449,-85.9434 333.342,-75.7511 324.725,-81.9149 330.449,-85.9434"/>
</g>
<!-- Node9 -->
<g id="node10" class="node"><title>Node9</title>
<g id="a_node10"><a xlink:href="tags_8h.html" target="_top" xlink:title="tags.h">
<polygon fill="white" stroke="black" points="383.5,-56.5 383.5,-75.5 427.5,-75.5 427.5,-56.5 383.5,-56.5"/>
<text text-anchor="middle" x="405.5" y="-63.5" font-family="Helvetica,sans-Serif" font-size="10.00">tags.h</text>
</a>
</g>
</g>
<!-- Node4&#45;&gt;Node9 -->
<g id="edge9" class="edge"><title>Node4&#45;&gt;Node9</title>
<path fill="none" stroke="midnightblue" d="M318.209,-112.324C334.812,-103.703 360.502,-90.3643 379.72,-80.3855"/>
<polygon fill="midnightblue" stroke="midnightblue" points="381.57,-83.3689 388.832,-75.6545 378.344,-77.1565 381.57,-83.3689"/>
</g>
<!-- Node7 -->
<g id="node8" class="node"><title>Node7</title>
<polygon fill="white" stroke="#bfbfbf" points="280.5,-0.5 280.5,-19.5 328.5,-19.5 328.5,-0.5 280.5,-0.5"/>
<text text-anchor="middle" x="304.5" y="-7.5" font-family="Helvetica,sans-Serif" font-size="10.00">QtCore</text>
</g>
<!-- Node6&#45;&gt;Node7 -->
<g id="edge7" class="edge"><title>Node6&#45;&gt;Node7</title>
<path fill="none" stroke="midnightblue" d="M333.72,-56.083C328.828,-48.5341 321.673,-37.4948 315.667,-28.2298"/>
<polygon fill="midnightblue" stroke="midnightblue" points="318.548,-26.239 310.172,-19.7511 312.674,-30.0463 318.548,-26.239"/>
</g>
<!-- Node8 -->
<g id="node9" class="node"><title>Node8</title>
<g id="a_node9"><a xlink:href="enums_8h.html" target="_top" xlink:title="Enumérations et constantes permettant de paramétrer les fwidgets. ">
<polygon fill="white" stroke="black" points="346.5,-0.5 346.5,-19.5 400.5,-19.5 400.5,-0.5 346.5,-0.5"/>
<text text-anchor="middle" x="373.5" y="-7.5" font-family="Helvetica,sans-Serif" font-size="10.00">enums.h</text>
</a>
</g>
</g>
<!-- Node6&#45;&gt;Node8 -->
<g id="edge8" class="edge"><title>Node6&#45;&gt;Node8</title>
<path fill="none" stroke="midnightblue" d="M345.114,-56.083C349.867,-48.5341 356.818,-37.4948 362.652,-28.2298"/>
<polygon fill="midnightblue" stroke="midnightblue" points="365.624,-30.0783 367.99,-19.7511 359.7,-26.3486 365.624,-30.0783"/>
</g>
</g>
</svg>
