<?xml version="1.0" encoding="UTF-8" standalone="no"?>
<!DOCTYPE svg PUBLIC "-//W3C//DTD SVG 1.1//EN"
 "http://www.w3.org/Graphics/SVG/1.1/DTD/svg11.dtd">
<!-- Generated by graphviz version 2.38.0 (20140413.2041)
 -->
<!-- Title: Interface/gui/highlighter.h Pages: 1 -->
<svg width="747pt" height="207pt"
 viewBox="0.00 0.00 746.50 207.00" xmlns="http://www.w3.org/2000/svg" xmlns:xlink="http://www.w3.org/1999/xlink">
<g id="graph0" class="graph" transform="scale(1 1) rotate(0) translate(4 203)">
<title>Interface/gui/highlighter.h</title>
<polygon fill="white" stroke="none" points="-4,4 -4,-203 742.5,-203 742.5,4 -4,4"/>
<!-- Node3 -->
<g id="node1" class="node"><title>Node3</title>
<polygon fill="#bfbfbf" stroke="black" points="381.5,-179.5 381.5,-198.5 517.5,-198.5 517.5,-179.5 381.5,-179.5"/>
<text text-anchor="middle" x="449.5" y="-186.5" font-family="Helvetica,sans-Serif" font-size="10.00">Interface/gui/highlighter.h</text>
</g>
<!-- Node4 -->
<g id="node2" class="node"><title>Node4</title>
<g id="a_node2"><a xlink:href="altair-gui_8h.html" target="_top" xlink:title="Code de la classe MainWindow qui construit l&#39;interface graphique. ">
<polygon fill="white" stroke="black" points="328,-112.5 328,-142.5 429,-142.5 429,-112.5 328,-112.5"/>
<text text-anchor="start" x="336" y="-130.5" font-family="Helvetica,sans-Serif" font-size="10.00">Interface/gui/altair</text>
<text text-anchor="middle" x="378.5" y="-119.5" font-family="Helvetica,sans-Serif" font-size="10.00">&#45;gui.h</text>
</a>
</g>
</g>
<!-- Node3&#45;&gt;Node4 -->
<g id="edge1" class="edge"><title>Node3&#45;&gt;Node4</title>
<path fill="none" stroke="midnightblue" d="M431.507,-172.921C420.359,-163.579 406.138,-151.662 395.233,-142.523"/>
<polygon fill="midnightblue" stroke="midnightblue" points="429.415,-175.735 439.327,-179.475 433.911,-170.369 429.415,-175.735"/>
</g>
<!-- Node12 -->
<g id="node10" class="node"><title>Node12</title>
<g id="a_node10"><a xlink:href="highlighter_8cpp.html" target="_top" xlink:title="Implémentation de la classe Highlighter qui sert à coloriser le code XML des projets ...">
<polygon fill="white" stroke="black" points="447,-118 447,-137 594,-137 594,-118 447,-118"/>
<text text-anchor="middle" x="520.5" y="-125" font-family="Helvetica,sans-Serif" font-size="10.00">Interface/gui/highlighter.cpp</text>
</a>
</g>
</g>
<!-- Node3&#45;&gt;Node12 -->
<g id="edge10" class="edge"><title>Node3&#45;&gt;Node12</title>
<path fill="none" stroke="midnightblue" d="M467.432,-172.973C481.011,-161.593 499.177,-146.369 510.346,-137.009"/>
<polygon fill="midnightblue" stroke="midnightblue" points="465.089,-170.369 459.673,-179.475 469.585,-175.735 465.089,-170.369"/>
</g>
<!-- Node5 -->
<g id="node3" class="node"><title>Node5</title>
<g id="a_node3"><a xlink:href="altair_8h.html" target="_top" xlink:title="Code de la classe principale Altair, qui joue le rôle d&#39;agent de l&#39;interface graphique. ">
<polygon fill="white" stroke="black" points="323.5,-56.5 323.5,-75.5 433.5,-75.5 433.5,-56.5 323.5,-56.5"/>
<text text-anchor="middle" x="378.5" y="-63.5" font-family="Helvetica,sans-Serif" font-size="10.00">Interface/gui/altair.h</text>
</a>
</g>
</g>
<!-- Node4&#45;&gt;Node5 -->
<g id="edge2" class="edge"><title>Node4&#45;&gt;Node5</title>
<path fill="none" stroke="midnightblue" d="M371.855,-102.289C371.493,-92.857 372.065,-82.6548 373.571,-75.6578"/>
<polygon fill="midnightblue" stroke="midnightblue" points="368.377,-102.709 372.66,-112.399 375.355,-102.153 368.377,-102.709"/>
</g>
<!-- Node11 -->
<g id="node9" class="node"><title>Node11</title>
<g id="a_node9"><a xlink:href="_interface_2gui_2main_8cpp.html" target="_top" xlink:title="Lance l&#39;interface graphique en chargeant le bon contexte linguistique et la feuille de style...">
<polygon fill="white" stroke="black" points="451.5,-56.5 451.5,-75.5 571.5,-75.5 571.5,-56.5 451.5,-56.5"/>
<text text-anchor="middle" x="511.5" y="-63.5" font-family="Helvetica,sans-Serif" font-size="10.00">Interface/gui/main.cpp</text>
</a>
</g>
</g>
<!-- Node4&#45;&gt;Node11 -->
<g id="edge9" class="edge"><title>Node4&#45;&gt;Node11</title>
<path fill="none" stroke="midnightblue" d="M419.343,-108.228C443.562,-97.3933 473.143,-84.1596 492.147,-75.6578"/>
<polygon fill="midnightblue" stroke="midnightblue" points="417.718,-105.121 410.019,-112.399 420.577,-111.51 417.718,-105.121"/>
</g>
<!-- Node5&#45;&gt;Node4 -->
<g id="edge3" class="edge"><title>Node5&#45;&gt;Node4</title>
<path fill="none" stroke="midnightblue" d="M384.807,-85.569C385.526,-94.2328 385.37,-104.377 384.34,-112.399"/>
<polygon fill="midnightblue" stroke="midnightblue" points="388.273,-85.0806 383.429,-75.6578 381.34,-86.0445 388.273,-85.0806"/>
</g>
<!-- Node6 -->
<g id="node4" class="node"><title>Node6</title>
<g id="a_node4"><a xlink:href="altair_8cpp.html" target="_top" xlink:title="Code implémentant la classe principale Altair, qui joue le rôle d&#39;agent de l&#39;interface graphique...">
<polygon fill="white" stroke="black" points="0,-0.5 0,-19.5 121,-19.5 121,-0.5 0,-0.5"/>
<text text-anchor="middle" x="60.5" y="-7.5" font-family="Helvetica,sans-Serif" font-size="10.00">Interface/gui/altair.cpp</text>
</a>
</g>
</g>
<!-- Node5&#45;&gt;Node6 -->
<g id="edge4" class="edge"><title>Node5&#45;&gt;Node6</title>
<path fill="none" stroke="midnightblue" d="M318.006,-54.7275C257.913,-44.523 166.843,-29.0583 110.652,-19.5164"/>
<polygon fill="midnightblue" stroke="midnightblue" points="317.667,-58.2199 328.112,-56.4435 318.839,-51.3187 317.667,-58.2199"/>
</g>
<!-- Node7 -->
<g id="node5" class="node"><title>Node7</title>
<g id="a_node5"><a xlink:href="mainwindow_8cpp.html" target="_top" xlink:title="Code de l&#39;implémentation de la classe MainWindow de l&#39;interface graphique. ">
<polygon fill="white" stroke="black" points="139,-0.5 139,-19.5 294,-19.5 294,-0.5 139,-0.5"/>
<text text-anchor="middle" x="216.5" y="-7.5" font-family="Helvetica,sans-Serif" font-size="10.00">Interface/gui/mainwindow.cpp</text>
</a>
</g>
</g>
<!-- Node5&#45;&gt;Node7 -->
<g id="edge5" class="edge"><title>Node5&#45;&gt;Node7</title>
<path fill="none" stroke="midnightblue" d="M343.016,-53.172C312.512,-43.0039 269.255,-28.5852 242.049,-19.5164"/>
<polygon fill="midnightblue" stroke="midnightblue" points="342.237,-56.6016 352.831,-56.4435 344.451,-49.9608 342.237,-56.6016"/>
</g>
<!-- Node8 -->
<g id="node6" class="node"><title>Node8</title>
<g id="a_node6"><a xlink:href="options_8cpp.html" target="_top" xlink:title="Implémentation des classes du dialogue d&#39;options. ">
<polygon fill="white" stroke="black" points="312.5,-0.5 312.5,-19.5 444.5,-19.5 444.5,-0.5 312.5,-0.5"/>
<text text-anchor="middle" x="378.5" y="-7.5" font-family="Helvetica,sans-Serif" font-size="10.00">Interface/gui/options.cpp</text>
</a>
</g>
</g>
<!-- Node5&#45;&gt;Node8 -->
<g id="edge6" class="edge"><title>Node5&#45;&gt;Node8</title>
<path fill="none" stroke="midnightblue" d="M378.5,-45.8045C378.5,-36.9102 378.5,-26.7798 378.5,-19.7511"/>
<polygon fill="midnightblue" stroke="midnightblue" points="375,-46.083 378.5,-56.083 382,-46.083 375,-46.083"/>
</g>
<!-- Node9 -->
<g id="node7" class="node"><title>Node9</title>
<g id="a_node7"><a xlink:href="run_8cpp.html" target="_top" xlink:title="Implémentation de la classe Altair agent de la classe MainWindow qui construit l&#39;interface graphique...">
<polygon fill="white" stroke="black" points="463,-0.5 463,-19.5 576,-19.5 576,-0.5 463,-0.5"/>
<text text-anchor="middle" x="519.5" y="-7.5" font-family="Helvetica,sans-Serif" font-size="10.00">Interface/gui/run.cpp</text>
</a>
</g>
</g>
<!-- Node5&#45;&gt;Node9 -->
<g id="edge7" class="edge"><title>Node5&#45;&gt;Node9</title>
<path fill="none" stroke="midnightblue" d="M410.429,-52.772C436.914,-42.6287 473.892,-28.4669 497.263,-19.5164"/>
<polygon fill="midnightblue" stroke="midnightblue" points="408.929,-49.5985 400.842,-56.4435 411.432,-56.1355 408.929,-49.5985"/>
</g>
<!-- Node10 -->
<g id="node8" class="node"><title>Node10</title>
<g id="a_node8"><a xlink:href="xmlparser_8cpp.html" target="_top" xlink:title="Implémentation de la classe Altair agent de la classe MainWindow qui construit l&#39;interface graphique...">
<polygon fill="white" stroke="black" points="594.5,-0.5 594.5,-19.5 738.5,-19.5 738.5,-0.5 594.5,-0.5"/>
<text text-anchor="middle" x="666.5" y="-7.5" font-family="Helvetica,sans-Serif" font-size="10.00">Interface/gui/xmlparser.cpp</text>
</a>
</g>
</g>
<!-- Node5&#45;&gt;Node10 -->
<g id="edge8" class="edge"><title>Node5&#45;&gt;Node10</title>
<path fill="none" stroke="midnightblue" d="M434.302,-54.5371C488.732,-44.3316 570.504,-28.9992 621.079,-19.5164"/>
<polygon fill="midnightblue" stroke="midnightblue" points="433.318,-51.1605 424.134,-56.4435 434.608,-58.0406 433.318,-51.1605"/>
</g>
</g>
</svg>
