<?xml version="1.0" encoding="UTF-8" standalone="no"?>
<!DOCTYPE svg PUBLIC "-//W3C//DTD SVG 1.1//EN"
 "http://www.w3.org/Graphics/SVG/1.1/DTD/svg11.dtd">
<!-- Generated by graphviz version 2.40.1 (20161225.0304)
 -->
<!-- Title: Graphe hiérarchique des classes Pages: 1 -->
<svg width="603pt" height="427pt"
 viewBox="0.00 0.00 603.00 427.00" xmlns="http://www.w3.org/2000/svg" xmlns:xlink="http://www.w3.org/1999/xlink">
<g id="graph0" class="graph" transform="scale(1 1) rotate(0) translate(4 423)">
<title>Graphe hiérarchique des classes</title>
<polygon fill="#ffffff" stroke="transparent" points="-4,4 -4,-423 599,-423 599,4 -4,4"/>
<!-- Node55 -->
<g id="node1" class="node">
<title>Node55</title>
<g id="a_node1"><a xlink:href="classflags.html" target="_top" xlink:title="flags">
<polygon fill="#ffffff" stroke="#000000" points="0,-209.5 0,-228.5 38,-228.5 38,-209.5 0,-209.5"/>
<text text-anchor="middle" x="19" y="-216.5" font-family="Helvetica,sans-Serif" font-size="10.00" fill="#000000">flags</text>
</a>
</g>
</g>
<!-- Node56 -->
<g id="node2" class="node">
<title>Node56</title>
<g id="a_node2"><a xlink:href="class_f_abstract_widget.html" target="_top" xlink:title="FAbstractWidget">
<polygon fill="#ffffff" stroke="#000000" points="74,-323.5 74,-342.5 164,-342.5 164,-323.5 74,-323.5"/>
<text text-anchor="middle" x="119" y="-330.5" font-family="Helvetica,sans-Serif" font-size="10.00" fill="#000000">FAbstractWidget</text>
</a>
</g>
</g>
<!-- Node55&#45;&gt;Node56 -->
<g id="edge1" class="edge">
<title>Node55&#45;&gt;Node56</title>
<path fill="none" stroke="#191970" d="M25.8221,-238.225C34.1991,-259.3577 50.2792,-293.0792 74,-314 78.3249,-317.8144 83.5272,-320.9429 88.8357,-323.4809"/>
<polygon fill="#191970" stroke="#191970" points="29.0392,-236.8365 22.2362,-228.7143 22.4893,-239.3061 29.0392,-236.8365"/>
</g>
<!-- Node57 -->
<g id="node8" class="node">
<title>Node57</title>
<g id="a_node8"><a xlink:href="classtools.html" target="_top" xlink:title="tools">
<polygon fill="#ffffff" stroke="#000000" points="100,-95.5 100,-114.5 138,-114.5 138,-95.5 100,-95.5"/>
<text text-anchor="middle" x="119" y="-102.5" font-family="Helvetica,sans-Serif" font-size="10.00" fill="#000000">tools</text>
</a>
</g>
</g>
<!-- Node55&#45;&gt;Node57 -->
<g id="edge7" class="edge">
<title>Node55&#45;&gt;Node57</title>
<path fill="none" stroke="#191970" d="M34.32,-201.5352C55.6611,-177.2063 93.6134,-133.9408 110.4956,-114.695"/>
<polygon fill="#191970" stroke="#191970" points="31.4892,-199.4548 27.5259,-209.2804 36.7515,-204.0709 31.4892,-199.4548"/>
</g>
<!-- Node48 -->
<g id="node3" class="node">
<title>Node48</title>
<g id="a_node3"><a xlink:href="class_f_check_box.html" target="_top" xlink:title="FCheckBox">
<polygon fill="#ffffff" stroke="#000000" points="204.5,-399.5 204.5,-418.5 272.5,-418.5 272.5,-399.5 204.5,-399.5"/>
<text text-anchor="middle" x="238.5" y="-406.5" font-family="Helvetica,sans-Serif" font-size="10.00" fill="#000000">FCheckBox</text>
</a>
</g>
</g>
<!-- Node56&#45;&gt;Node48 -->
<g id="edge2" class="edge">
<title>Node56&#45;&gt;Node48</title>
<path fill="none" stroke="#191970" d="M155.8328,-347.024C158.6755,-348.5624 161.434,-350.2219 164,-352 183.1223,-365.2504 181.2764,-376.192 200,-390 204.7991,-393.5391 210.3585,-396.7218 215.7344,-399.4251"/>
<polygon fill="#191970" stroke="#191970" points="157.1225,-343.759 146.5996,-342.5262 154.0569,-350.0521 157.1225,-343.759"/>
</g>
<!-- Node46 -->
<g id="node4" class="node">
<title>Node46</title>
<g id="a_node4"><a xlink:href="class_f_combo_box.html" target="_top" xlink:title="FComboBox">
<polygon fill="#ffffff" stroke="#000000" points="203,-361.5 203,-380.5 274,-380.5 274,-361.5 203,-361.5"/>
<text text-anchor="middle" x="238.5" y="-368.5" font-family="Helvetica,sans-Serif" font-size="10.00" fill="#000000">FComboBox</text>
</a>
</g>
</g>
<!-- Node56&#45;&gt;Node46 -->
<g id="edge3" class="edge">
<title>Node56&#45;&gt;Node46</title>
<path fill="none" stroke="#191970" d="M158.8766,-345.6804C175.023,-350.8148 193.3544,-356.6441 208.3548,-361.4141"/>
<polygon fill="#191970" stroke="#191970" points="159.7453,-342.284 149.1549,-342.589 157.624,-348.9549 159.7453,-342.284"/>
</g>
<!-- Node30 -->
<g id="node5" class="node">
<title>Node30</title>
<g id="a_node5"><a xlink:href="class_f_line_edit.html" target="_top" xlink:title="FLineEdit">
<polygon fill="#ffffff" stroke="#000000" points="209.5,-323.5 209.5,-342.5 267.5,-342.5 267.5,-323.5 209.5,-323.5"/>
<text text-anchor="middle" x="238.5" y="-330.5" font-family="Helvetica,sans-Serif" font-size="10.00" fill="#000000">FLineEdit</text>
</a>
</g>
</g>
<!-- Node56&#45;&gt;Node30 -->
<g id="edge4" class="edge">
<title>Node56&#45;&gt;Node30</title>
<path fill="none" stroke="#191970" d="M174.2127,-333C186.2804,-333 198.5963,-333 209.1762,-333"/>
<polygon fill="#191970" stroke="#191970" points="174.1779,-329.5001 164.1778,-333 174.1778,-336.5001 174.1779,-329.5001"/>
</g>
<!-- Node0 -->
<g id="node7" class="node">
<title>Node0</title>
<g id="a_node7"><a xlink:href="class_f_list_widget.html" target="_top" xlink:title="FListWidget">
<polygon fill="#ffffff" stroke="#000000" points="204,-285.5 204,-304.5 273,-304.5 273,-285.5 204,-285.5"/>
<text text-anchor="middle" x="238.5" y="-292.5" font-family="Helvetica,sans-Serif" font-size="10.00" fill="#000000">FListWidget</text>
</a>
</g>
</g>
<!-- Node56&#45;&gt;Node0 -->
<g id="edge6" class="edge">
<title>Node56&#45;&gt;Node0</title>
<path fill="none" stroke="#191970" d="M158.8766,-320.3196C175.023,-315.1852 193.3544,-309.3559 208.3548,-304.5859"/>
<polygon fill="#191970" stroke="#191970" points="157.624,-317.0451 149.1549,-323.411 159.7453,-323.716 157.624,-317.0451"/>
</g>
<!-- Node31 -->
<g id="node6" class="node">
<title>Node31</title>
<g id="a_node6"><a xlink:href="class_f_line_frame.html" target="_top" xlink:title="Ligne de saisie de texte FLineEdit enrichie de fonctionnalités. ">
<polygon fill="#ffffff" stroke="#000000" points="331.5,-323.5 331.5,-342.5 399.5,-342.5 399.5,-323.5 331.5,-323.5"/>
<text text-anchor="middle" x="365.5" y="-330.5" font-family="Helvetica,sans-Serif" font-size="10.00" fill="#000000">FLineFrame</text>
</a>
</g>
</g>
<!-- Node30&#45;&gt;Node31 -->
<g id="edge5" class="edge">
<title>Node30&#45;&gt;Node31</title>
<path fill="none" stroke="#191970" d="M277.8392,-333C294.8785,-333 314.6456,-333 331.0914,-333"/>
<polygon fill="#191970" stroke="#191970" points="277.6364,-329.5001 267.6364,-333 277.6363,-336.5001 277.6364,-329.5001"/>
</g>
<!-- Node35 -->
<g id="node9" class="node">
<title>Node35</title>
<g id="a_node9"><a xlink:href="classcode_page.html" target="_top" xlink:title="Classe de l&#39;onglet Codes permettant d&#39;exporter des codes de paye manuellement spécifiés vers les scri...">
<polygon fill="#ffffff" stroke="#000000" points="335.5,-38.5 335.5,-57.5 395.5,-57.5 395.5,-38.5 335.5,-38.5"/>
<text text-anchor="middle" x="365.5" y="-45.5" font-family="Helvetica,sans-Serif" font-size="10.00" fill="#000000">codePage</text>
</a>
</g>
</g>
<!-- Node57&#45;&gt;Node35 -->
<g id="edge8" class="edge">
<title>Node57&#45;&gt;Node35</title>
<path fill="none" stroke="#191970" d="M148.2834,-98.096C163.673,-94.4766 182.8519,-89.9798 200,-86 247.2395,-75.0364 302.1049,-62.4723 335.2902,-54.8915"/>
<polygon fill="#191970" stroke="#191970" points="147.2381,-94.7463 138.306,-100.4445 148.842,-101.5601 147.2381,-94.7463"/>
</g>
<!-- Node58 -->
<g id="node10" class="node">
<title>Node58</title>
<g id="a_node10"><a xlink:href="classcommon.html" target="_top" xlink:title="Classe dérivée de la classe tools ajoutant des fonctionnalités de communication de l&#39;interface vers l...">
<polygon fill="#ffffff" stroke="#000000" points="211.5,-95.5 211.5,-114.5 265.5,-114.5 265.5,-95.5 211.5,-95.5"/>
<text text-anchor="middle" x="238.5" y="-102.5" font-family="Helvetica,sans-Serif" font-size="10.00" fill="#000000">common</text>
</a>
</g>
</g>
<!-- Node57&#45;&gt;Node58 -->
<g id="edge9" class="edge">
<title>Node57&#45;&gt;Node58</title>
<path fill="none" stroke="#191970" d="M148.2248,-105C167.4775,-105 192.5114,-105 211.3322,-105"/>
<polygon fill="#191970" stroke="#191970" points="148.1998,-101.5001 138.1997,-105 148.1997,-108.5001 148.1998,-101.5001"/>
</g>
<!-- Node43 -->
<g id="node14" class="node">
<title>Node43</title>
<g id="a_node14"><a xlink:href="classprocess_page.html" target="_top" xlink:title="Classe de l&#39;onglet Traitement du dialgue d&#39;options. ">
<polygon fill="#ffffff" stroke="#000000" points="328.5,-266.5 328.5,-285.5 402.5,-285.5 402.5,-266.5 328.5,-266.5"/>
<text text-anchor="middle" x="365.5" y="-273.5" font-family="Helvetica,sans-Serif" font-size="10.00" fill="#000000">processPage</text>
</a>
</g>
</g>
<!-- Node57&#45;&gt;Node43 -->
<g id="edge16" class="edge">
<title>Node57&#45;&gt;Node43</title>
<path fill="none" stroke="#191970" d="M139.3459,-120.645C155.3825,-132.6458 178.5426,-149.2593 200,-162 232.8142,-181.484 248.6375,-174.4664 277,-200 299.2684,-220.0474 289.652,-238.2211 313,-257 317.7585,-260.8273 323.3544,-263.9215 329.0874,-266.4117"/>
<polygon fill="#191970" stroke="#191970" points="141.3133,-117.7447 131.2256,-114.5062 137.092,-123.3287 141.3133,-117.7447"/>
</g>
<!-- Node44 -->
<g id="node15" class="node">
<title>Node44</title>
<g id="a_node15"><a xlink:href="classstandard_page.html" target="_top" xlink:title="Classe de l&#39;onglet &quot;Format des bases&quot; du dialogue d&#39;options. ">
<polygon fill="#ffffff" stroke="#000000" points="327,-.5 327,-19.5 404,-19.5 404,-.5 327,-.5"/>
<text text-anchor="middle" x="365.5" y="-7.5" font-family="Helvetica,sans-Serif" font-size="10.00" fill="#000000">standardPage</text>
</a>
</g>
</g>
<!-- Node57&#45;&gt;Node44 -->
<g id="edge17" class="edge">
<title>Node57&#45;&gt;Node44</title>
<path fill="none" stroke="#191970" d="M146.4096,-90.7687C161.9253,-82.976 181.8105,-73.4238 200,-66 245.496,-47.4315 299.6859,-29.9385 333.3475,-19.5955"/>
<polygon fill="#191970" stroke="#191970" points="144.7004,-87.7111 137.3678,-95.3586 147.869,-93.953 144.7004,-87.7111"/>
</g>
<!-- Node58&#45;&gt;Node35 -->
<g id="edge11" class="edge">
<title>Node58&#45;&gt;Node35</title>
<path fill="none" stroke="#191970" d="M269.1524,-91.2426C292.3567,-80.8281 323.6364,-66.7892 344.1737,-57.5716"/>
<polygon fill="#191970" stroke="#191970" points="267.447,-88.1716 259.7569,-95.4595 270.3134,-94.5579 267.447,-88.1716"/>
</g>
<!-- Node39 -->
<g id="node11" class="node">
<title>Node39</title>
<g id="a_node11"><a xlink:href="class_altair.html" target="_top" xlink:title="Classe Altair, agent de la classe MainWindow qui implémente les fonctions globales de l&#39;interface gra...">
<polygon fill="#ffffff" stroke="#000000" points="556,-152.5 556,-171.5 595,-171.5 595,-152.5 556,-152.5"/>
<text text-anchor="middle" x="575.5" y="-159.5" font-family="Helvetica,sans-Serif" font-size="10.00" fill="#000000">Altair</text>
</a>
</g>
</g>
<!-- Node58&#45;&gt;Node39 -->
<g id="edge10" class="edge">
<title>Node58&#45;&gt;Node39</title>
<path fill="none" stroke="#191970" d="M275.6993,-101.2799C312.2288,-98.4971 369.3897,-96.4744 418,-105 469.5559,-114.0422 526.4769,-138.5487 555.7299,-152.3026"/>
<polygon fill="#191970" stroke="#191970" points="275.1925,-97.8096 265.5127,-102.1168 275.7658,-104.7861 275.1925,-97.8096"/>
</g>
<!-- Node36 -->
<g id="node12" class="node">
<title>Node36</title>
<g id="a_node12"><a xlink:href="classextra_page.html" target="_top" xlink:title="Classe de l&#39;onglet Extra permettant d&#39;importer les fichiers auxiliaires optionnels (correspondance bu...">
<polygon fill="#ffffff" stroke="#000000" points="335,-114.5 335,-133.5 396,-133.5 396,-114.5 335,-114.5"/>
<text text-anchor="middle" x="365.5" y="-121.5" font-family="Helvetica,sans-Serif" font-size="10.00" fill="#000000">extraPage</text>
</a>
</g>
</g>
<!-- Node58&#45;&gt;Node36 -->
<g id="edge12" class="edge">
<title>Node58&#45;&gt;Node36</title>
<path fill="none" stroke="#191970" d="M275.7314,-110.5701C294.4914,-113.3767 316.965,-116.7389 334.7328,-119.397"/>
<polygon fill="#191970" stroke="#191970" points="276.1525,-107.0942 265.7447,-109.076 275.1167,-114.0171 276.1525,-107.0942"/>
</g>
<!-- Node42 -->
<g id="node13" class="node">
<title>Node42</title>
<g id="a_node13"><a xlink:href="classoptions.html" target="_top" xlink:title="Classe de l&#39;onglet Codes, qui permet de saisir manuellement les codes de paye de certaines catégories...">
<polygon fill="#ffffff" stroke="#000000" points="341.5,-152.5 341.5,-171.5 389.5,-171.5 389.5,-152.5 341.5,-152.5"/>
<text text-anchor="middle" x="365.5" y="-159.5" font-family="Helvetica,sans-Serif" font-size="10.00" fill="#000000">options</text>
</a>
</g>
</g>
<!-- Node58&#45;&gt;Node42 -->
<g id="edge13" class="edge">
<title>Node58&#45;&gt;Node42</title>
<path fill="none" stroke="#191970" d="M267.2534,-119.0833C270.5468,-120.728 273.8508,-122.3923 277,-124 293.1133,-132.2262 296.4545,-135.6819 313,-143 322.1307,-147.0385 332.4127,-150.903 341.4416,-154.0797"/>
<polygon fill="#191970" stroke="#191970" points="268.6514,-115.8699 258.1374,-114.5632 265.5417,-122.1413 268.6514,-115.8699"/>
</g>
<!-- Node58&#45;&gt;Node43 -->
<g id="edge14" class="edge">
<title>Node58&#45;&gt;Node43</title>
<path fill="none" stroke="#191970" d="M273.8138,-120.6389C274.9543,-121.6935 276.0234,-122.8127 277,-124 315.9024,-171.294 271.5295,-211.9409 313,-257 317.2011,-261.5646 322.5828,-265.0344 328.2924,-267.6715"/>
<polygon fill="#191970" stroke="#191970" points="275.626,-117.6293 265.4782,-114.5842 271.5121,-123.2929 275.626,-117.6293"/>
</g>
<!-- Node58&#45;&gt;Node44 -->
<g id="edge15" class="edge">
<title>Node58&#45;&gt;Node44</title>
<path fill="none" stroke="#191970" d="M251.7759,-87.4545C265.4644,-70.4333 288.2499,-44.9095 313,-29 318.7892,-25.2786 325.4055,-22.16 331.9448,-19.596"/>
<polygon fill="#191970" stroke="#191970" points="248.8969,-85.4541 245.4848,-95.4845 254.4072,-89.7712 248.8969,-85.4541"/>
</g>
<!-- Node47 -->
<g id="node16" class="node">
<title>Node47</title>
<polygon fill="#ffffff" stroke="#bfbfbf" points="84,-399.5 84,-418.5 154,-418.5 154,-399.5 84,-399.5"/>
<text text-anchor="middle" x="119" y="-406.5" font-family="Helvetica,sans-Serif" font-size="10.00" fill="#000000">QCheckBox</text>
</g>
<!-- Node47&#45;&gt;Node48 -->
<g id="edge18" class="edge">
<title>Node47&#45;&gt;Node48</title>
<path fill="none" stroke="#191970" d="M164.5461,-409C177.7673,-409 191.9735,-409 204.3661,-409"/>
<polygon fill="#191970" stroke="#191970" points="164.2076,-405.5001 154.2076,-409 164.2076,-412.5001 164.2076,-405.5001"/>
</g>
<!-- Node45 -->
<g id="node17" class="node">
<title>Node45</title>
<polygon fill="#ffffff" stroke="#bfbfbf" points="82.5,-361.5 82.5,-380.5 155.5,-380.5 155.5,-361.5 82.5,-361.5"/>
<text text-anchor="middle" x="119" y="-368.5" font-family="Helvetica,sans-Serif" font-size="10.00" fill="#000000">QComboBox</text>
</g>
<!-- Node45&#45;&gt;Node46 -->
<g id="edge19" class="edge">
<title>Node45&#45;&gt;Node46</title>
<path fill="none" stroke="#191970" d="M165.6047,-371C177.9075,-371 190.9926,-371 202.6309,-371"/>
<polygon fill="#191970" stroke="#191970" points="165.5033,-367.5001 155.5033,-371 165.5032,-374.5001 165.5033,-367.5001"/>
</g>
<!-- Node34 -->
<g id="node18" class="node">
<title>Node34</title>
<polygon fill="#ffffff" stroke="#bfbfbf" points="212.5,-133.5 212.5,-152.5 264.5,-152.5 264.5,-133.5 212.5,-133.5"/>
<text text-anchor="middle" x="238.5" y="-140.5" font-family="Helvetica,sans-Serif" font-size="10.00" fill="#000000">QDialog</text>
</g>
<!-- Node34&#45;&gt;Node35 -->
<g id="edge20" class="edge">
<title>Node34&#45;&gt;Node35</title>
<path fill="none" stroke="#191970" d="M269.2882,-128.6862C271.9455,-127.1881 274.5515,-125.6182 277,-124 308.0886,-103.4537 340.2066,-73.181 355.8138,-57.7778"/>
<polygon fill="#191970" stroke="#191970" points="267.4262,-125.7112 260.211,-133.4695 270.6896,-131.9039 267.4262,-125.7112"/>
</g>
<!-- Node34&#45;&gt;Node36 -->
<g id="edge21" class="edge">
<title>Node34&#45;&gt;Node36</title>
<path fill="none" stroke="#191970" d="M274.5595,-137.6053C293.5031,-134.7712 316.4809,-131.3336 334.5998,-128.6229"/>
<polygon fill="#191970" stroke="#191970" points="273.8789,-134.1681 264.5068,-139.1092 274.9146,-141.091 273.8789,-134.1681"/>
</g>
<!-- Node34&#45;&gt;Node42 -->
<g id="edge27" class="edge">
<title>Node34&#45;&gt;Node42</title>
<path fill="none" stroke="#191970" d="M274.5219,-148.3891C295.8776,-151.5841 322.3705,-155.5476 341.2489,-158.3719"/>
<polygon fill="#191970" stroke="#191970" points="274.9146,-144.909 264.5068,-146.8908 273.8789,-151.8319 274.9146,-144.909"/>
</g>
<!-- Node34&#45;&gt;Node43 -->
<g id="edge28" class="edge">
<title>Node34&#45;&gt;Node43</title>
<path fill="none" stroke="#191970" d="M267.4842,-158.155C270.9786,-160.7852 274.27,-163.7386 277,-167 304.6527,-200.0353 282.0345,-227.0478 313,-257 317.3893,-261.2456 322.7977,-264.5523 328.4579,-267.125"/>
<polygon fill="#191970" stroke="#191970" points="269.3983,-155.2247 259.1308,-152.6116 265.5278,-161.0573 269.3983,-155.2247"/>
</g>
<!-- Node34&#45;&gt;Node44 -->
<g id="edge29" class="edge">
<title>Node34&#45;&gt;Node44</title>
<path fill="none" stroke="#191970" d="M273.1941,-127.6414C274.5503,-126.5025 275.8287,-125.2898 277,-124 307.3551,-90.5742 280.8343,-60.6873 313,-29 316.936,-25.1226 321.722,-22.0299 326.7843,-19.5647"/>
<polygon fill="#191970" stroke="#191970" points="271.0696,-124.8537 264.7808,-133.3802 275.0142,-130.6365 271.0696,-124.8537"/>
</g>
<!-- Node37 -->
<g id="node19" class="node">
<title>Node37</title>
<g id="a_node19"><a xlink:href="class_f_dialog_connections.html" target="_top" xlink:title="FDialogConnections">
<polygon fill="#ffffff" stroke="#000000" points="313,-228.5 313,-247.5 418,-247.5 418,-228.5 313,-228.5"/>
<text text-anchor="middle" x="365.5" y="-235.5" font-family="Helvetica,sans-Serif" font-size="10.00" fill="#000000">FDialogConnections</text>
</a>
</g>
</g>
<!-- Node34&#45;&gt;Node37 -->
<g id="edge22" class="edge">
<title>Node34&#45;&gt;Node37</title>
<path fill="none" stroke="#191970" d="M265.8376,-158.0721C269.7816,-160.7942 273.6377,-163.7957 277,-167 297.3485,-186.3923 290.7295,-201.8493 313,-219 317.9918,-222.8442 323.8333,-225.9612 329.7712,-228.4724"/>
<polygon fill="#191970" stroke="#191970" points="267.5365,-155.0046 257.2207,-152.5888 263.7784,-160.9103 267.5365,-155.0046"/>
</g>
<!-- Node41 -->
<g id="node22" class="node">
<title>Node41</title>
<g id="a_node22"><a xlink:href="class_matricule_input.html" target="_top" xlink:title="Classe permettant de construire un dialogue d&#39;extraction des bulletins de paye par matricule...">
<polygon fill="#ffffff" stroke="#000000" points="326.5,-190.5 326.5,-209.5 404.5,-209.5 404.5,-190.5 326.5,-190.5"/>
<text text-anchor="middle" x="365.5" y="-197.5" font-family="Helvetica,sans-Serif" font-size="10.00" fill="#000000">MatriculeInput</text>
</a>
</g>
</g>
<!-- Node34&#45;&gt;Node41 -->
<g id="edge26" class="edge">
<title>Node34&#45;&gt;Node41</title>
<path fill="none" stroke="#191970" d="M264.7735,-157.4127C278.8698,-164.8862 296.659,-173.9083 313,-181 320.7359,-184.3573 329.2773,-187.627 337.1831,-190.481"/>
<polygon fill="#191970" stroke="#191970" points="266.1346,-154.1712 255.6678,-152.529 262.8261,-160.3399 266.1346,-154.1712"/>
</g>
<!-- Node38 -->
<g id="node20" class="node">
<title>Node38</title>
<g id="a_node20"><a xlink:href="class_f_dialog.html" target="_top" xlink:title="FDialog">
<polygon fill="#ffffff" stroke="#000000" points="462,-228.5 462,-247.5 512,-247.5 512,-228.5 462,-228.5"/>
<text text-anchor="middle" x="487" y="-235.5" font-family="Helvetica,sans-Serif" font-size="10.00" fill="#000000">FDialog</text>
</a>
</g>
</g>
<!-- Node37&#45;&gt;Node38 -->
<g id="edge23" class="edge">
<title>Node37&#45;&gt;Node38</title>
<path fill="none" stroke="#191970" d="M428.4338,-238C440.2288,-238 451.9139,-238 461.7075,-238"/>
<polygon fill="#191970" stroke="#191970" points="428.0851,-234.5001 418.085,-238 428.085,-241.5001 428.0851,-234.5001"/>
</g>
<!-- Node40 -->
<g id="node21" class="node">
<title>Node40</title>
<g id="a_node21"><a xlink:href="class_f_list_frame.html" target="_top" xlink:title="FListFrame">
<polygon fill="#ffffff" stroke="#000000" points="454,-190.5 454,-209.5 520,-209.5 520,-190.5 454,-190.5"/>
<text text-anchor="middle" x="487" y="-197.5" font-family="Helvetica,sans-Serif" font-size="10.00" fill="#000000">FListFrame</text>
</a>
</g>
</g>
<!-- Node37&#45;&gt;Node40 -->
<g id="edge25" class="edge">
<title>Node37&#45;&gt;Node40</title>
<path fill="none" stroke="#191970" d="M406.044,-225.3196C422.4606,-220.1852 441.0989,-214.3559 456.3502,-209.5859"/>
<polygon fill="#191970" stroke="#191970" points="404.6589,-222.0855 396.1596,-228.411 406.7485,-228.7664 404.6589,-222.0855"/>
</g>
<!-- Node38&#45;&gt;Node39 -->
<g id="edge24" class="edge">
<title>Node38&#45;&gt;Node39</title>
<path fill="none" stroke="#191970" d="M514.3828,-223.0421C516.3257,-221.737 518.2186,-220.3842 520,-219 538.7592,-204.4239 557.3643,-183.7037 567.5542,-171.6754"/>
<polygon fill="#191970" stroke="#191970" points="512.3859,-220.1621 505.7343,-228.4087 516.0768,-226.11 512.3859,-220.1621"/>
</g>
<!-- Node29 -->
<g id="node23" class="node">
<title>Node29</title>
<polygon fill="#ffffff" stroke="#bfbfbf" points="89.5,-285.5 89.5,-304.5 148.5,-304.5 148.5,-285.5 89.5,-285.5"/>
<text text-anchor="middle" x="119" y="-292.5" font-family="Helvetica,sans-Serif" font-size="10.00" fill="#000000">QLineEdit</text>
</g>
<!-- Node29&#45;&gt;Node30 -->
<g id="edge30" class="edge">
<title>Node29&#45;&gt;Node30</title>
<path fill="none" stroke="#191970" d="M158.5024,-307.5614C175.0795,-312.8328 194.0147,-318.854 209.3005,-323.7148"/>
<polygon fill="#191970" stroke="#191970" points="159.1298,-304.0883 148.5393,-304.3933 157.0085,-310.7591 159.1298,-304.0883"/>
</g>
<!-- Node1 -->
<g id="node24" class="node">
<title>Node1</title>
<polygon fill="#ffffff" stroke="#bfbfbf" points="91.5,-247.5 91.5,-266.5 146.5,-266.5 146.5,-247.5 91.5,-247.5"/>
<text text-anchor="middle" x="119" y="-254.5" font-family="Helvetica,sans-Serif" font-size="10.00" fill="#000000">QWidget</text>
</g>
<!-- Node1&#45;&gt;Node0 -->
<g id="edge31" class="edge">
<title>Node1&#45;&gt;Node0</title>
<path fill="none" stroke="#191970" d="M156.7016,-268.9888C173.3833,-274.2934 192.7321,-280.4462 208.4223,-285.4355"/>
<polygon fill="#191970" stroke="#191970" points="157.3065,-265.5085 146.7161,-265.8135 155.1852,-272.1794 157.3065,-265.5085"/>
</g>
<!-- Node3 -->
<g id="node25" class="node">
<title>Node3</title>
<g id="a_node25"><a xlink:href="class_f_progress_bar.html" target="_top" xlink:title="FProgressBar">
<polygon fill="#ffffff" stroke="#000000" points="200,-209.5 200,-228.5 277,-228.5 277,-209.5 200,-209.5"/>
<text text-anchor="middle" x="238.5" y="-216.5" font-family="Helvetica,sans-Serif" font-size="10.00" fill="#000000">FProgressBar</text>
</a>
</g>
</g>
<!-- Node1&#45;&gt;Node3 -->
<g id="edge32" class="edge">
<title>Node1&#45;&gt;Node3</title>
<path fill="none" stroke="#191970" d="M156.7016,-245.0112C173.3833,-239.7066 192.7321,-233.5538 208.4223,-228.5645"/>
<polygon fill="#191970" stroke="#191970" points="155.1852,-241.8206 146.7161,-248.1865 157.3065,-248.4915 155.1852,-241.8206"/>
</g>
<!-- Node4 -->
<g id="node26" class="node">
<title>Node4</title>
<g id="a_node26"><a xlink:href="class_f_rich_label.html" target="_top" xlink:title="FRichLabel">
<polygon fill="#ffffff" stroke="#000000" points="205.5,-247.5 205.5,-266.5 271.5,-266.5 271.5,-247.5 205.5,-247.5"/>
<text text-anchor="middle" x="238.5" y="-254.5" font-family="Helvetica,sans-Serif" font-size="10.00" fill="#000000">FRichLabel</text>
</a>
</g>
</g>
<!-- Node1&#45;&gt;Node4 -->
<g id="edge33" class="edge">
<title>Node1&#45;&gt;Node4</title>
<path fill="none" stroke="#191970" d="M157.0543,-257C172.601,-257 190.4152,-257 205.4109,-257"/>
<polygon fill="#191970" stroke="#191970" points="156.7161,-253.5001 146.7161,-257 156.716,-260.5001 156.7161,-253.5001"/>
</g>
</g>
</svg>
