<?xml version="1.0" encoding="UTF-8" standalone="no"?>
<!DOCTYPE svg PUBLIC "-//W3C//DTD SVG 1.1//EN"
 "http://www.w3.org/Graphics/SVG/1.1/DTD/svg11.dtd">
<!-- Generated by graphviz version 2.38.0 (20140413.2041)
 -->
<!-- Title: Graphe hiérarchique des classes Pages: 1 -->
<svg width="625pt" height="465pt"
 viewBox="0.00 0.00 625.00 465.00" xmlns="http://www.w3.org/2000/svg" xmlns:xlink="http://www.w3.org/1999/xlink">
<g id="graph0" class="graph" transform="scale(1 1) rotate(0) translate(4 461)">
<title>Graphe hiérarchique des classes</title>
<polygon fill="white" stroke="none" points="-4,4 -4,-461 621,-461 621,4 -4,4"/>
<!-- Node44 -->
<g id="node1" class="node"><title>Node44</title>
<g id="a_node1"><a xlink:href="classflags.html" target="_top" xlink:title="flags">
<polygon fill="white" stroke="black" points="0,-266.5 0,-285.5 39,-285.5 39,-266.5 0,-266.5"/>
<text text-anchor="middle" x="19.5" y="-273.5" font-family="Helvetica,sans-Serif" font-size="10.00">flags</text>
</a>
</g>
</g>
<!-- Node45 -->
<g id="node2" class="node"><title>Node45</title>
<g id="a_node2"><a xlink:href="class_f_abstract_widget.html" target="_top" xlink:title="FAbstractWidget">
<polygon fill="white" stroke="black" points="75,-361.5 75,-380.5 169,-380.5 169,-361.5 75,-361.5"/>
<text text-anchor="middle" x="122" y="-368.5" font-family="Helvetica,sans-Serif" font-size="10.00">FAbstractWidget</text>
</a>
</g>
</g>
<!-- Node44&#45;&gt;Node45 -->
<g id="edge1" class="edge"><title>Node44&#45;&gt;Node45</title>
<path fill="none" stroke="midnightblue" d="M29.9578,-294.697C39.3593,-311.651 55.2154,-336.319 75,-352 79.7401,-355.757 85.3273,-358.88 90.944,-361.435"/>
<polygon fill="midnightblue" stroke="midnightblue" points="32.9749,-292.916 25.1874,-285.732 26.7953,-296.204 32.9749,-292.916"/>
</g>
<!-- Node46 -->
<g id="node8" class="node"><title>Node46</title>
<g id="a_node8"><a xlink:href="classtools.html" target="_top" xlink:title="tools">
<polygon fill="white" stroke="black" points="102.5,-171.5 102.5,-190.5 141.5,-190.5 141.5,-171.5 102.5,-171.5"/>
<text text-anchor="middle" x="122" y="-178.5" font-family="Helvetica,sans-Serif" font-size="10.00">tools</text>
</a>
</g>
</g>
<!-- Node44&#45;&gt;Node46 -->
<g id="edge7" class="edge"><title>Node44&#45;&gt;Node46</title>
<path fill="none" stroke="midnightblue" d="M38.2396,-259.231C59.3286,-239.296 93.8036,-206.708 110.829,-190.614"/>
<polygon fill="midnightblue" stroke="midnightblue" points="35.7396,-256.778 30.8767,-266.191 40.5482,-261.865 35.7396,-256.778"/>
</g>
<!-- Node37 -->
<g id="node3" class="node"><title>Node37</title>
<g id="a_node3"><a xlink:href="class_f_check_box.html" target="_top" xlink:title="FCheckBox">
<polygon fill="white" stroke="black" points="210.5,-437.5 210.5,-456.5 281.5,-456.5 281.5,-437.5 210.5,-437.5"/>
<text text-anchor="middle" x="246" y="-444.5" font-family="Helvetica,sans-Serif" font-size="10.00">FCheckBox</text>
</a>
</g>
</g>
<!-- Node45&#45;&gt;Node37 -->
<g id="edge2" class="edge"><title>Node45&#45;&gt;Node37</title>
<path fill="none" stroke="midnightblue" d="M160.884,-385.095C163.708,-386.611 166.447,-388.246 169,-390 188.174,-403.176 186.173,-414.333 205,-428 209.853,-431.523 215.462,-434.663 220.916,-437.326"/>
<polygon fill="midnightblue" stroke="midnightblue" points="162.228,-381.858 151.701,-380.664 159.186,-388.162 162.228,-381.858"/>
</g>
<!-- Node35 -->
<g id="node4" class="node"><title>Node35</title>
<g id="a_node4"><a xlink:href="class_f_combo_box.html" target="_top" xlink:title="FComboBox">
<polygon fill="white" stroke="black" points="209,-399.5 209,-418.5 283,-418.5 283,-399.5 209,-399.5"/>
<text text-anchor="middle" x="246" y="-406.5" font-family="Helvetica,sans-Serif" font-size="10.00">FComboBox</text>
</a>
</g>
</g>
<!-- Node45&#45;&gt;Node35 -->
<g id="edge3" class="edge"><title>Node45&#45;&gt;Node35</title>
<path fill="none" stroke="midnightblue" d="M163.711,-383.68C180.195,-388.815 198.91,-394.644 214.224,-399.414"/>
<polygon fill="midnightblue" stroke="midnightblue" points="164.374,-380.221 153.786,-380.589 162.292,-386.905 164.374,-380.221"/>
</g>
<!-- Node20 -->
<g id="node5" class="node"><title>Node20</title>
<g id="a_node5"><a xlink:href="class_f_line_edit.html" target="_top" xlink:title="FLineEdit">
<polygon fill="white" stroke="black" points="215.5,-361.5 215.5,-380.5 276.5,-380.5 276.5,-361.5 215.5,-361.5"/>
<text text-anchor="middle" x="246" y="-368.5" font-family="Helvetica,sans-Serif" font-size="10.00">FLineEdit</text>
</a>
</g>
</g>
<!-- Node45&#45;&gt;Node20 -->
<g id="edge4" class="edge"><title>Node45&#45;&gt;Node20</title>
<path fill="none" stroke="midnightblue" d="M179.459,-371C191.888,-371 204.57,-371 215.426,-371"/>
<polygon fill="midnightblue" stroke="midnightblue" points="179.123,-367.5 169.123,-371 179.123,-374.5 179.123,-367.5"/>
</g>
<!-- Node0 -->
<g id="node7" class="node"><title>Node0</title>
<g id="a_node7"><a xlink:href="class_f_list_widget.html" target="_top" xlink:title="FListWidget">
<polygon fill="white" stroke="black" points="210,-323.5 210,-342.5 282,-342.5 282,-323.5 210,-323.5"/>
<text text-anchor="middle" x="246" y="-330.5" font-family="Helvetica,sans-Serif" font-size="10.00">FListWidget</text>
</a>
</g>
</g>
<!-- Node45&#45;&gt;Node0 -->
<g id="edge6" class="edge"><title>Node45&#45;&gt;Node0</title>
<path fill="none" stroke="midnightblue" d="M163.711,-358.32C180.195,-353.185 198.91,-347.356 214.224,-342.586"/>
<polygon fill="midnightblue" stroke="midnightblue" points="162.292,-355.095 153.786,-361.411 164.374,-361.779 162.292,-355.095"/>
</g>
<!-- Node21 -->
<g id="node6" class="node"><title>Node21</title>
<g id="a_node6"><a xlink:href="class_f_line_frame.html" target="_top" xlink:title="Ligne de saisie de texte FLineEdit enrichie de fonctionnalités. ">
<polygon fill="white" stroke="black" points="342.5,-361.5 342.5,-380.5 415.5,-380.5 415.5,-361.5 342.5,-361.5"/>
<text text-anchor="middle" x="379" y="-368.5" font-family="Helvetica,sans-Serif" font-size="10.00">FLineFrame</text>
</a>
</g>
</g>
<!-- Node20&#45;&gt;Node21 -->
<g id="edge5" class="edge"><title>Node20&#45;&gt;Node21</title>
<path fill="none" stroke="midnightblue" d="M286.754,-371C304.456,-371 325.141,-371 342.336,-371"/>
<polygon fill="midnightblue" stroke="midnightblue" points="286.726,-367.5 276.726,-371 286.726,-374.5 286.726,-367.5"/>
</g>
<!-- Node25 -->
<g id="node9" class="node"><title>Node25</title>
<g id="a_node9"><a xlink:href="classcode_page.html" target="_top" xlink:title="Classe de l&#39;onglet Codes permettant d&#39;exporter des codes de paye manuellement spécifiés vers les scri...">
<polygon fill="white" stroke="black" points="346.5,-152.5 346.5,-171.5 411.5,-171.5 411.5,-152.5 346.5,-152.5"/>
<text text-anchor="middle" x="379" y="-159.5" font-family="Helvetica,sans-Serif" font-size="10.00">codePage</text>
</a>
</g>
</g>
<!-- Node46&#45;&gt;Node25 -->
<g id="edge8" class="edge"><title>Node46&#45;&gt;Node25</title>
<path fill="none" stroke="midnightblue" d="M151.751,-172.647C167.355,-168.544 187.069,-164.05 205,-162 254.087,-156.387 311.523,-157.988 346.309,-159.849"/>
<polygon fill="midnightblue" stroke="midnightblue" points="150.407,-169.385 141.677,-175.39 152.246,-176.14 150.407,-169.385"/>
</g>
<!-- Node47 -->
<g id="node10" class="node"><title>Node47</title>
<g id="a_node10"><a xlink:href="classcommon.html" target="_top" xlink:title="Classe dérivée de la classe tools ajoutant des fonctionnalités de communication de l&#39;interface vers l...">
<polygon fill="white" stroke="black" points="218,-171.5 218,-190.5 274,-190.5 274,-171.5 218,-171.5"/>
<text text-anchor="middle" x="246" y="-178.5" font-family="Helvetica,sans-Serif" font-size="10.00">common</text>
</a>
</g>
</g>
<!-- Node46&#45;&gt;Node47 -->
<g id="edge9" class="edge"><title>Node46&#45;&gt;Node47</title>
<path fill="none" stroke="midnightblue" d="M151.577,-181C171.53,-181 198.007,-181 217.678,-181"/>
<polygon fill="midnightblue" stroke="midnightblue" points="151.529,-177.5 141.529,-181 151.529,-184.5 151.529,-177.5"/>
</g>
<!-- Node32 -->
<g id="node13" class="node"><title>Node32</title>
<g id="a_node13"><a xlink:href="classprocess_page.html" target="_top" xlink:title="Classe de l&#39;onglet Traitement du dialgue d&#39;options. ">
<polygon fill="white" stroke="black" points="339.5,-190.5 339.5,-209.5 418.5,-209.5 418.5,-190.5 339.5,-190.5"/>
<text text-anchor="middle" x="379" y="-197.5" font-family="Helvetica,sans-Serif" font-size="10.00">processPage</text>
</a>
</g>
</g>
<!-- Node46&#45;&gt;Node32 -->
<g id="edge15" class="edge"><title>Node46&#45;&gt;Node32</title>
<path fill="none" stroke="midnightblue" d="M151.751,-189.353C167.355,-193.456 187.069,-197.95 205,-200 250.954,-205.254 304.224,-204.187 339.379,-202.502"/>
<polygon fill="midnightblue" stroke="midnightblue" points="152.246,-185.86 141.677,-186.61 150.407,-192.615 152.246,-185.86"/>
</g>
<!-- Node33 -->
<g id="node14" class="node"><title>Node33</title>
<g id="a_node14"><a xlink:href="classstandard_page.html" target="_top" xlink:title="Classe de l&#39;onglet &quot;Format des bases&quot; du dialogue d&#39;options. ">
<polygon fill="white" stroke="black" points="337.5,-76.5 337.5,-95.5 420.5,-95.5 420.5,-76.5 337.5,-76.5"/>
<text text-anchor="middle" x="379" y="-83.5" font-family="Helvetica,sans-Serif" font-size="10.00">standardPage</text>
</a>
</g>
</g>
<!-- Node46&#45;&gt;Node33 -->
<g id="edge16" class="edge"><title>Node46&#45;&gt;Node33</title>
<path fill="none" stroke="midnightblue" d="M132.579,-162.257C145.483,-139.33 170.833,-101.643 205,-86 246.919,-66.8079 300.767,-70.6313 337.167,-76.7698"/>
<polygon fill="midnightblue" stroke="midnightblue" points="129.344,-160.882 127.68,-171.346 135.506,-164.204 129.344,-160.882"/>
</g>
<!-- Node47&#45;&gt;Node25 -->
<g id="edge11" class="edge"><title>Node47&#45;&gt;Node25</title>
<path fill="none" stroke="midnightblue" d="M284.245,-175.598C303.828,-172.758 327.581,-169.313 346.278,-166.601"/>
<polygon fill="midnightblue" stroke="midnightblue" points="283.537,-172.164 274.143,-177.063 284.542,-179.091 283.537,-172.164"/>
</g>
<!-- Node28 -->
<g id="node11" class="node"><title>Node28</title>
<g id="a_node11"><a xlink:href="class_altair.html" target="_top" xlink:title="Classe Altair, agent de la classe MainWindow qui implémente les fonctions globales de l&#39;interface gra...">
<polygon fill="white" stroke="black" points="576,-114.5 576,-133.5 617,-133.5 617,-114.5 576,-114.5"/>
<text text-anchor="middle" x="596.5" y="-121.5" font-family="Helvetica,sans-Serif" font-size="10.00">Altair</text>
</a>
</g>
</g>
<!-- Node47&#45;&gt;Node28 -->
<g id="edge10" class="edge"><title>Node47&#45;&gt;Node28</title>
<path fill="none" stroke="midnightblue" d="M269.857,-195.947C284.414,-204.552 304.038,-214.524 323,-219 371.446,-230.437 386.989,-232.144 435,-219 497.149,-201.986 559.66,-154.018 584.416,-133.501"/>
<polygon fill="midnightblue" stroke="midnightblue" points="271.434,-192.809 261.081,-190.561 267.773,-198.775 271.434,-192.809"/>
</g>
<!-- Node31 -->
<g id="node12" class="node"><title>Node31</title>
<g id="a_node12"><a xlink:href="classoptions.html" target="_top" xlink:title="Classe de l&#39;onglet Codes, qui permet de saisir manuellement les codes de paye de certaines catégories...">
<polygon fill="white" stroke="black" points="353.5,-114.5 353.5,-133.5 404.5,-133.5 404.5,-114.5 353.5,-114.5"/>
<text text-anchor="middle" x="379" y="-121.5" font-family="Helvetica,sans-Serif" font-size="10.00">options</text>
</a>
</g>
</g>
<!-- Node47&#45;&gt;Node31 -->
<g id="edge12" class="edge"><title>Node47&#45;&gt;Node31</title>
<path fill="none" stroke="midnightblue" d="M273.378,-166.742C287.82,-159.209 306.156,-150.084 323,-143 332.778,-138.888 343.787,-134.952 353.373,-131.741"/>
<polygon fill="midnightblue" stroke="midnightblue" points="271.716,-163.662 264.505,-171.424 274.983,-169.853 271.716,-163.662"/>
</g>
<!-- Node47&#45;&gt;Node32 -->
<g id="edge13" class="edge"><title>Node47&#45;&gt;Node32</title>
<path fill="none" stroke="midnightblue" d="M284.407,-186.425C301.647,-188.926 322.089,-191.891 339.465,-194.411"/>
<polygon fill="midnightblue" stroke="midnightblue" points="284.542,-182.908 274.143,-184.937 283.537,-189.836 284.542,-182.908"/>
</g>
<!-- Node47&#45;&gt;Node33 -->
<g id="edge14" class="edge"><title>Node47&#45;&gt;Node33</title>
<path fill="none" stroke="midnightblue" d="M260.568,-163.39C274.551,-146.319 297.809,-120.759 323,-105 328.995,-101.25 335.824,-98.1296 342.582,-95.5757"/>
<polygon fill="midnightblue" stroke="midnightblue" points="257.641,-161.446 254.14,-171.446 263.113,-165.812 257.641,-161.446"/>
</g>
<!-- Node36 -->
<g id="node15" class="node"><title>Node36</title>
<polygon fill="white" stroke="#bfbfbf" points="85.5,-437.5 85.5,-456.5 158.5,-456.5 158.5,-437.5 85.5,-437.5"/>
<text text-anchor="middle" x="122" y="-444.5" font-family="Helvetica,sans-Serif" font-size="10.00">QCheckBox</text>
</g>
<!-- Node36&#45;&gt;Node37 -->
<g id="edge17" class="edge"><title>Node36&#45;&gt;Node37</title>
<path fill="none" stroke="midnightblue" d="M168.873,-447C182.633,-447 197.488,-447 210.391,-447"/>
<polygon fill="midnightblue" stroke="midnightblue" points="168.615,-443.5 158.615,-447 168.615,-450.5 168.615,-443.5"/>
</g>
<!-- Node34 -->
<g id="node16" class="node"><title>Node34</title>
<polygon fill="white" stroke="#bfbfbf" points="84,-399.5 84,-418.5 160,-418.5 160,-399.5 84,-399.5"/>
<text text-anchor="middle" x="122" y="-406.5" font-family="Helvetica,sans-Serif" font-size="10.00">QComboBox</text>
</g>
<!-- Node34&#45;&gt;Node35 -->
<g id="edge18" class="edge"><title>Node34&#45;&gt;Node35</title>
<path fill="none" stroke="midnightblue" d="M170.296,-409C183.086,-409 196.724,-409 208.798,-409"/>
<polygon fill="midnightblue" stroke="midnightblue" points="170.267,-405.5 160.267,-409 170.267,-412.5 170.267,-405.5"/>
</g>
<!-- Node24 -->
<g id="node17" class="node"><title>Node24</title>
<polygon fill="white" stroke="#bfbfbf" points="218.5,-95.5 218.5,-114.5 273.5,-114.5 273.5,-95.5 218.5,-95.5"/>
<text text-anchor="middle" x="246" y="-102.5" font-family="Helvetica,sans-Serif" font-size="10.00">QDialog</text>
</g>
<!-- Node24&#45;&gt;Node25 -->
<g id="edge19" class="edge"><title>Node24&#45;&gt;Node25</title>
<path fill="none" stroke="midnightblue" d="M273.378,-119.258C287.82,-126.791 306.156,-135.916 323,-143 331.008,-146.368 339.843,-149.618 348.045,-152.448"/>
<polygon fill="midnightblue" stroke="midnightblue" points="274.983,-116.147 264.505,-114.576 271.716,-122.338 274.983,-116.147"/>
</g>
<!-- Node24&#45;&gt;Node31 -->
<g id="edge25" class="edge"><title>Node24&#45;&gt;Node31</title>
<path fill="none" stroke="midnightblue" d="M283.604,-110.309C305.846,-113.535 333.647,-117.567 353.302,-120.418"/>
<polygon fill="midnightblue" stroke="midnightblue" points="283.909,-106.817 273.51,-108.845 282.904,-113.744 283.909,-106.817"/>
</g>
<!-- Node24&#45;&gt;Node32 -->
<g id="edge26" class="edge"><title>Node24&#45;&gt;Node32</title>
<path fill="none" stroke="midnightblue" d="M260.568,-122.61C274.551,-139.681 297.809,-165.241 323,-181 328.995,-184.75 335.824,-187.87 342.582,-190.424"/>
<polygon fill="midnightblue" stroke="midnightblue" points="263.113,-120.188 254.14,-114.554 257.641,-124.554 263.113,-120.188"/>
</g>
<!-- Node24&#45;&gt;Node33 -->
<g id="edge27" class="edge"><title>Node24&#45;&gt;Node33</title>
<path fill="none" stroke="midnightblue" d="M283.469,-99.7106C300.206,-97.2831 320.114,-94.3957 337.333,-91.8982"/>
<polygon fill="midnightblue" stroke="midnightblue" points="282.904,-96.2559 273.51,-101.155 283.909,-103.183 282.904,-96.2559"/>
</g>
<!-- Node26 -->
<g id="node18" class="node"><title>Node26</title>
<g id="a_node18"><a xlink:href="class_f_dialog_connections.html" target="_top" xlink:title="FDialogConnections">
<polygon fill="white" stroke="black" points="323,-0.5 323,-19.5 435,-19.5 435,-0.5 323,-0.5"/>
<text text-anchor="middle" x="379" y="-7.5" font-family="Helvetica,sans-Serif" font-size="10.00">FDialogConnections</text>
</a>
</g>
</g>
<!-- Node24&#45;&gt;Node26 -->
<g id="edge20" class="edge"><title>Node24&#45;&gt;Node26</title>
<path fill="none" stroke="midnightblue" d="M260.568,-87.3899C274.551,-70.3194 297.809,-44.7588 323,-29 328.995,-25.2496 335.824,-22.1296 342.582,-19.5757"/>
<polygon fill="midnightblue" stroke="midnightblue" points="257.641,-85.4462 254.14,-95.4459 263.113,-89.812 257.641,-85.4462"/>
</g>
<!-- Node30 -->
<g id="node21" class="node"><title>Node30</title>
<g id="a_node21"><a xlink:href="class_matricule_input.html" target="_top" xlink:title="Classe permettant de construire un dialogue d&#39;extraction des bulletins de paye par matricule...">
<polygon fill="white" stroke="black" points="337.5,-38.5 337.5,-57.5 420.5,-57.5 420.5,-38.5 337.5,-38.5"/>
<text text-anchor="middle" x="379" y="-45.5" font-family="Helvetica,sans-Serif" font-size="10.00">MatriculeInput</text>
</a>
</g>
</g>
<!-- Node24&#45;&gt;Node30 -->
<g id="edge24" class="edge"><title>Node24&#45;&gt;Node30</title>
<path fill="none" stroke="midnightblue" d="M273.378,-90.742C287.82,-83.2095 306.156,-74.0843 323,-67 331.008,-63.6317 339.843,-60.3822 348.045,-57.5519"/>
<polygon fill="midnightblue" stroke="midnightblue" points="271.716,-87.6617 264.505,-95.4245 274.983,-93.8526 271.716,-87.6617"/>
</g>
<!-- Node27 -->
<g id="node19" class="node"><title>Node27</title>
<g id="a_node19"><a xlink:href="class_f_dialog.html" target="_top" xlink:title="FDialog">
<polygon fill="white" stroke="black" points="479,-0.5 479,-19.5 532,-19.5 532,-0.5 479,-0.5"/>
<text text-anchor="middle" x="505.5" y="-7.5" font-family="Helvetica,sans-Serif" font-size="10.00">FDialog</text>
</a>
</g>
</g>
<!-- Node26&#45;&gt;Node27 -->
<g id="edge21" class="edge"><title>Node26&#45;&gt;Node27</title>
<path fill="none" stroke="midnightblue" d="M445.347,-10C457.272,-10 469.045,-10 478.91,-10"/>
<polygon fill="midnightblue" stroke="midnightblue" points="445.333,-6.5001 435.333,-10 445.333,-13.5001 445.333,-6.5001"/>
</g>
<!-- Node29 -->
<g id="node20" class="node"><title>Node29</title>
<g id="a_node20"><a xlink:href="class_f_list_frame.html" target="_top" xlink:title="FListFrame">
<polygon fill="white" stroke="black" points="471,-38.5 471,-57.5 540,-57.5 540,-38.5 471,-38.5"/>
<text text-anchor="middle" x="505.5" y="-45.5" font-family="Helvetica,sans-Serif" font-size="10.00">FListFrame</text>
</a>
</g>
</g>
<!-- Node26&#45;&gt;Node29 -->
<g id="edge23" class="edge"><title>Node26&#45;&gt;Node29</title>
<path fill="none" stroke="midnightblue" d="M421.07,-22.5353C438.006,-27.7048 457.318,-33.5991 473.093,-38.4141"/>
<polygon fill="midnightblue" stroke="midnightblue" points="422.003,-19.1608 411.417,-19.589 419.959,-25.8559 422.003,-19.1608"/>
</g>
<!-- Node27&#45;&gt;Node28 -->
<g id="edge22" class="edge"><title>Node27&#45;&gt;Node28</title>
<path fill="none" stroke="midnightblue" d="M536.018,-25.4782C537.419,-26.5981 538.757,-27.7728 540,-29 566.234,-54.9005 584.457,-95.7435 591.837,-114.277"/>
<polygon fill="midnightblue" stroke="midnightblue" points="537.762,-22.4312 527.532,-19.6755 533.811,-28.2094 537.762,-22.4312"/>
</g>
<!-- Node19 -->
<g id="node22" class="node"><title>Node19</title>
<polygon fill="white" stroke="#bfbfbf" points="90.5,-323.5 90.5,-342.5 153.5,-342.5 153.5,-323.5 90.5,-323.5"/>
<text text-anchor="middle" x="122" y="-330.5" font-family="Helvetica,sans-Serif" font-size="10.00">QLineEdit</text>
</g>
<!-- Node19&#45;&gt;Node20 -->
<g id="edge28" class="edge"><title>Node19&#45;&gt;Node20</title>
<path fill="none" stroke="midnightblue" d="M163.469,-345.605C180.467,-350.9 199.873,-356.944 215.487,-361.807"/>
<polygon fill="midnightblue" stroke="midnightblue" points="164.374,-342.221 153.786,-342.589 162.292,-348.905 164.374,-342.221"/>
</g>
<!-- Node1 -->
<g id="node23" class="node"><title>Node1</title>
<polygon fill="white" stroke="#bfbfbf" points="93,-285.5 93,-304.5 151,-304.5 151,-285.5 93,-285.5"/>
<text text-anchor="middle" x="122" y="-292.5" font-family="Helvetica,sans-Serif" font-size="10.00">QWidget</text>
</g>
<!-- Node1&#45;&gt;Node0 -->
<g id="edge29" class="edge"><title>Node1&#45;&gt;Node0</title>
<path fill="none" stroke="midnightblue" d="M161.009,-306.839C178.148,-312.177 198.123,-318.399 214.293,-323.436"/>
<polygon fill="midnightblue" stroke="midnightblue" points="161.884,-303.446 151.296,-303.813 159.803,-310.129 161.884,-303.446"/>
</g>
<!-- Node3 -->
<g id="node24" class="node"><title>Node3</title>
<g id="a_node24"><a xlink:href="class_f_progress_bar.html" target="_top" xlink:title="FProgressBar">
<polygon fill="white" stroke="black" points="205,-247.5 205,-266.5 287,-266.5 287,-247.5 205,-247.5"/>
<text text-anchor="middle" x="246" y="-254.5" font-family="Helvetica,sans-Serif" font-size="10.00">FProgressBar</text>
</a>
</g>
</g>
<!-- Node1&#45;&gt;Node3 -->
<g id="edge30" class="edge"><title>Node1&#45;&gt;Node3</title>
<path fill="none" stroke="midnightblue" d="M161.009,-283.161C178.148,-277.823 198.123,-271.601 214.293,-266.564"/>
<polygon fill="midnightblue" stroke="midnightblue" points="159.803,-279.871 151.296,-286.187 161.884,-286.554 159.803,-279.871"/>
</g>
<!-- Node4 -->
<g id="node25" class="node"><title>Node4</title>
<g id="a_node25"><a xlink:href="class_f_rich_label.html" target="_top" xlink:title="FRichLabel">
<polygon fill="white" stroke="black" points="211.5,-285.5 211.5,-304.5 280.5,-304.5 280.5,-285.5 211.5,-285.5"/>
<text text-anchor="middle" x="246" y="-292.5" font-family="Helvetica,sans-Serif" font-size="10.00">FRichLabel</text>
</a>
</g>
</g>
<!-- Node1&#45;&gt;Node4 -->
<g id="edge31" class="edge"><title>Node1&#45;&gt;Node4</title>
<path fill="none" stroke="midnightblue" d="M161.393,-295C177.372,-295 195.762,-295 211.219,-295"/>
<polygon fill="midnightblue" stroke="midnightblue" points="161.296,-291.5 151.296,-295 161.296,-298.5 161.296,-291.5"/>
</g>
</g>
</svg>
