<?xml version="1.0" encoding="UTF-8" standalone="no"?>
<!DOCTYPE svg PUBLIC "-//W3C//DTD SVG 1.1//EN"
 "http://www.w3.org/Graphics/SVG/1.1/DTD/svg11.dtd">
<!-- Generated by graphviz version 2.38.0 (20140413.2041)
 -->
<!-- Title: lhx/main.cpp Pages: 1 -->
<!--zoomable 364 -->
<svg id="main" version="1.1" xmlns="http://www.w3.org/2000/svg" xmlns:xlink="http://www.w3.org/1999/xlink" xml:space="preserve" onload="init(evt)">
<style type="text/css"><![CDATA[
.edge:hover path { stroke: red; }
.edge:hover polygon { stroke: red; fill: red; }
]]></style>
<script type="text/javascript"><![CDATA[
var edges = document.getElementsByTagName('g');
if (edges && edges.length) {
  for (var i=0;i<edges.length;i++) {
    if (edges[i].id.substr(0,4)=='edge') {
      edges[i].setAttribute('class','edge');
    }
  }
}
]]></script>
        <defs>
                <circle id="rim" cx="0" cy="0" r="7"/>
                <circle id="rim2" cx="0" cy="0" r="3.5"/>
                <g id="zoomPlus">
                        <use xlink:href="#rim" fill="#404040">
                                <set attributeName="fill" to="#808080" begin="zoomplus.mouseover" end="zoomplus.mouseout"/>
                        </use>
                        <path d="M-4,0h8M0,-4v8" fill="none" stroke="white" stroke-width="1.5" pointer-events="none"/>
                </g>
                <g id="zoomMin">
                        <use xlink:href="#rim" fill="#404040">
                                <set attributeName="fill" to="#808080" begin="zoomminus.mouseover" end="zoomminus.mouseout"/>
                        </use>
                        <path d="M-4,0h8" fill="none" stroke="white" stroke-width="1.5" pointer-events="none"/>
                </g>
                <g id="dirArrow">
                        <path fill="none" stroke="white" stroke-width="1.5" d="M0,-3.0v7 M-2.5,-0.5L0,-3.0L2.5,-0.5"/>
                </g>
               <g id="resetDef">
                       <use xlink:href="#rim2" fill="#404040">
                               <set attributeName="fill" to="#808080" begin="reset.mouseover" end="reset.mouseout"/>
                       </use>
               </g>
        </defs>

<script type="text/javascript">
var viewWidth = 1544;
var viewHeight = 364;
var sectionId = 'dynsection-0';
</script>
<script xlink:href="svgpan.js"/>
<svg id="graph" class="graph">
<g id="viewport">
<title>lhx/main.cpp</title>
<polygon fill="white" stroke="none" points="-4,4 -4,-360 1539.5,-360 1539.5,4 -4,4"/>
<!-- Node0 -->
<g id="node1" class="node"><title>Node0</title>
<polygon fill="#bfbfbf" stroke="black" points="778.5,-336.5 778.5,-355.5 853.5,-355.5 853.5,-336.5 778.5,-336.5"/>
<text text-anchor="middle" x="816" y="-343.5" font-family="Helvetica,sans-Serif" font-size="10.00">lhx/main.cpp</text>
</g>
<!-- Node1 -->
<g id="node2" class="node"><title>Node1</title>
<polygon fill="white" stroke="#bfbfbf" points="552,-168.5 552,-187.5 596,-187.5 596,-168.5 552,-168.5"/>
<text text-anchor="middle" x="574" y="-175.5" font-family="Helvetica,sans-Serif" font-size="10.00">mutex</text>
</g>
<!-- Node0&#45;&gt;Node1 -->
<g id="edge1" class="edge"><title>Node0&#45;&gt;Node1</title>
<path fill="none" stroke="midnightblue" d="M803.33,-336.309C764.043,-309.36 643.99,-227.01 595.075,-193.457"/>
<polygon fill="midnightblue" stroke="midnightblue" points="596.771,-190.376 586.545,-187.605 592.811,-196.148 596.771,-190.376"/>
</g>
<!-- Node2 -->
<g id="node3" class="node"><title>Node2</title>
<polygon fill="white" stroke="#bfbfbf" points="206.5,-112.5 206.5,-131.5 263.5,-131.5 263.5,-112.5 206.5,-112.5"/>
<text text-anchor="middle" x="235" y="-119.5" font-family="Helvetica,sans-Serif" font-size="10.00">iostream</text>
</g>
<!-- Node0&#45;&gt;Node2 -->
<g id="edge2" class="edge"><title>Node0&#45;&gt;Node2</title>
<path fill="none" stroke="midnightblue" d="M778.439,-341.272C730.321,-335.757 644.801,-323.451 575,-300 469.489,-264.551 449.356,-240.108 351,-188 318.728,-170.902 282.043,-150.113 258.723,-136.725"/>
<polygon fill="midnightblue" stroke="midnightblue" points="260.305,-133.597 249.892,-131.641 256.813,-139.664 260.305,-133.597"/>
</g>
<!-- Node3 -->
<g id="node4" class="node"><title>Node3</title>
<polygon fill="white" stroke="#bfbfbf" points="0,-112.5 0,-131.5 60,-131.5 60,-112.5 0,-112.5"/>
<text text-anchor="middle" x="30" y="-119.5" font-family="Helvetica,sans-Serif" font-size="10.00">algorithm</text>
</g>
<!-- Node0&#45;&gt;Node3 -->
<g id="edge3" class="edge"><title>Node0&#45;&gt;Node3</title>
<path fill="none" stroke="midnightblue" d="M778.279,-344.954C705.215,-343.973 539.889,-337.389 407,-300 264.878,-260.013 109.632,-171.21 52.6127,-136.902"/>
<polygon fill="midnightblue" stroke="midnightblue" points="54.0905,-133.705 43.7245,-131.515 50.4622,-139.692 54.0905,-133.705"/>
</g>
<!-- Node4 -->
<g id="node5" class="node"><title>Node4</title>
<polygon fill="white" stroke="#bfbfbf" points="142,-112.5 142,-131.5 188,-131.5 188,-112.5 142,-112.5"/>
<text text-anchor="middle" x="165" y="-119.5" font-family="Helvetica,sans-Serif" font-size="10.00">vector</text>
</g>
<!-- Node0&#45;&gt;Node4 -->
<g id="edge4" class="edge"><title>Node0&#45;&gt;Node4</title>
<path fill="none" stroke="midnightblue" d="M778.237,-343.022C721.135,-339.198 609.94,-328.483 520,-300 386.529,-257.731 241.17,-170.975 186.974,-137.044"/>
<polygon fill="midnightblue" stroke="midnightblue" points="188.546,-133.897 178.22,-131.524 184.813,-139.818 188.546,-133.897"/>
</g>
<!-- Node5 -->
<g id="node6" class="node"><title>Node5</title>
<polygon fill="white" stroke="#bfbfbf" points="980.5,-280.5 980.5,-299.5 1027.5,-299.5 1027.5,-280.5 980.5,-280.5"/>
<text text-anchor="middle" x="1004" y="-287.5" font-family="Helvetica,sans-Serif" font-size="10.00">thread</text>
</g>
<!-- Node0&#45;&gt;Node5 -->
<g id="edge5" class="edge"><title>Node0&#45;&gt;Node5</title>
<path fill="none" stroke="midnightblue" d="M845.789,-336.444C879.714,-326.699 935.012,-310.816 970.434,-300.641"/>
<polygon fill="midnightblue" stroke="midnightblue" points="971.658,-303.931 980.303,-297.807 969.725,-297.203 971.658,-303.931"/>
</g>
<!-- Node6 -->
<g id="node7" class="node"><title>Node6</title>
<polygon fill="white" stroke="#bfbfbf" points="1045.5,-280.5 1045.5,-299.5 1082.5,-299.5 1082.5,-280.5 1045.5,-280.5"/>
<text text-anchor="middle" x="1064" y="-287.5" font-family="Helvetica,sans-Serif" font-size="10.00">map</text>
</g>
<!-- Node0&#45;&gt;Node6 -->
<g id="edge6" class="edge"><title>Node0&#45;&gt;Node6</title>
<path fill="none" stroke="midnightblue" d="M853.657,-338.591C895.719,-331.148 965.974,-317.87 1035.59,-299.861"/>
<polygon fill="midnightblue" stroke="midnightblue" points="1036.62,-303.21 1045.41,-297.289 1034.85,-296.438 1036.62,-303.21"/>
</g>
<!-- Node7 -->
<g id="node8" class="node"><title>Node7</title>
<polygon fill="white" stroke="#bfbfbf" points="1101,-280.5 1101,-299.5 1151,-299.5 1151,-280.5 1101,-280.5"/>
<text text-anchor="middle" x="1126" y="-287.5" font-family="Helvetica,sans-Serif" font-size="10.00">chrono</text>
</g>
<!-- Node0&#45;&gt;Node7 -->
<g id="edge7" class="edge"><title>Node0&#45;&gt;Node7</title>
<path fill="none" stroke="midnightblue" d="M853.56,-339.941C906.693,-332.538 1006.72,-317.694 1091,-300 1091.1,-299.979 1091.2,-299.958 1091.3,-299.937"/>
<polygon fill="midnightblue" stroke="midnightblue" points="1091.86,-303.399 1100.83,-297.76 1090.3,-296.575 1091.86,-303.399"/>
</g>
<!-- Node8 -->
<g id="node9" class="node"><title>Node8</title>
<polygon fill="white" stroke="#bfbfbf" points="1189,-112.5 1189,-131.5 1237,-131.5 1237,-112.5 1189,-112.5"/>
<text text-anchor="middle" x="1213" y="-119.5" font-family="Helvetica,sans-Serif" font-size="10.00">cstring</text>
</g>
<!-- Node0&#45;&gt;Node8 -->
<g id="edge8" class="edge"><title>Node0&#45;&gt;Node8</title>
<path fill="none" stroke="midnightblue" d="M812.656,-336.197C809.446,-327.24 804.824,-312.883 803,-300 794.444,-239.553 793.335,-206.145 841,-168 899.976,-120.803 1104.72,-145.704 1179,-132 1179.1,-131.981 1179.2,-131.962 1179.3,-131.943"/>
<polygon fill="midnightblue" stroke="midnightblue" points="1179.93,-135.39 1188.96,-129.85 1178.44,-128.549 1179.93,-135.39"/>
</g>
<!-- Node9 -->
<g id="node10" class="node"><title>Node9</title>
<polygon fill="white" stroke="#bfbfbf" points="1472,-168.5 1472,-187.5 1526,-187.5 1526,-168.5 1472,-168.5"/>
<text text-anchor="middle" x="1499" y="-175.5" font-family="Helvetica,sans-Serif" font-size="10.00">sstream</text>
</g>
<!-- Node0&#45;&gt;Node9 -->
<g id="edge9" class="edge"><title>Node0&#45;&gt;Node9</title>
<path fill="none" stroke="midnightblue" d="M833.221,-336.348C861.369,-322.535 919.286,-295.487 971,-280 1180.98,-217.116 1243.83,-234.896 1462.08,-188.088"/>
<polygon fill="midnightblue" stroke="midnightblue" points="1462.88,-191.495 1471.91,-185.957 1461.4,-184.653 1462.88,-191.495"/>
</g>
<!-- Node10 -->
<g id="node11" class="node"><title>Node10</title>
<polygon fill="white" stroke="#bfbfbf" points="78,-112.5 78,-131.5 124,-131.5 124,-112.5 78,-112.5"/>
<text text-anchor="middle" x="101" y="-119.5" font-family="Helvetica,sans-Serif" font-size="10.00">cstdlib</text>
</g>
<!-- Node0&#45;&gt;Node10 -->
<g id="edge10" class="edge"><title>Node0&#45;&gt;Node10</title>
<path fill="none" stroke="midnightblue" d="M778.262,-343.689C713.338,-340.657 576.807,-330.856 466,-300 406.573,-283.452 394.738,-270.433 339,-244 260.347,-206.7 169.013,-159.01 125.93,-136.247"/>
<polygon fill="midnightblue" stroke="midnightblue" points="127.484,-133.109 117.009,-131.525 124.21,-139.296 127.484,-133.109"/>
</g>
<!-- Node11 -->
<g id="node12" class="node"><title>Node11</title>
<polygon fill="white" stroke="#bfbfbf" points="1169,-280.5 1169,-299.5 1217,-299.5 1217,-280.5 1169,-280.5"/>
<text text-anchor="middle" x="1193" y="-287.5" font-family="Helvetica,sans-Serif" font-size="10.00">limits.h</text>
</g>
<!-- Node0&#45;&gt;Node11 -->
<g id="edge11" class="edge"><title>Node0&#45;&gt;Node11</title>
<path fill="none" stroke="midnightblue" d="M853.689,-341.764C915.535,-336.087 1042.53,-322.892 1159.13,-299.929"/>
<polygon fill="midnightblue" stroke="midnightblue" points="1159.82,-303.36 1168.94,-297.969 1158.45,-296.496 1159.82,-303.36"/>
</g>
<!-- Node12 -->
<g id="node13" class="node"><title>Node12</title>
<polygon fill="white" stroke="#bfbfbf" points="1235.5,-280.5 1235.5,-299.5 1362.5,-299.5 1362.5,-280.5 1235.5,-280.5"/>
<text text-anchor="middle" x="1299" y="-287.5" font-family="Helvetica,sans-Serif" font-size="10.00">experimental/filesystem</text>
</g>
<!-- Node0&#45;&gt;Node12 -->
<g id="edge12" class="edge"><title>Node0&#45;&gt;Node12</title>
<path fill="none" stroke="midnightblue" d="M853.61,-341.042C924.132,-333.583 1081.31,-316.786 1224.98,-300.104"/>
<polygon fill="midnightblue" stroke="midnightblue" points="1225.78,-303.536 1235.3,-298.904 1224.97,-296.583 1225.78,-303.536"/>
</g>
<!-- Node13 -->
<g id="node14" class="node"><title>Node13</title>
<g id="a_node14"><a xlink:href="validator_8h.html" target="_top" xlink:title="Ce fichier contient notamment la structure info_t qui stocke les données de paye décodées ainsi que l...">
<polygon fill="white" stroke="black" points="652.5,-168.5 652.5,-187.5 717.5,-187.5 717.5,-168.5 652.5,-168.5"/>
<text text-anchor="middle" x="685" y="-175.5" font-family="Helvetica,sans-Serif" font-size="10.00">validator.h</text>
</a>
</g>
</g>
<!-- Node0&#45;&gt;Node13 -->
<g id="edge13" class="edge"><title>Node0&#45;&gt;Node13</title>
<path fill="none" stroke="midnightblue" d="M805.963,-336.179C796.274,-327.44 781.431,-313.451 770,-300 740.485,-265.269 711.027,-220.515 695.742,-196.344"/>
<polygon fill="midnightblue" stroke="midnightblue" points="698.543,-194.222 690.268,-187.605 692.61,-197.938 698.543,-194.222"/>
</g>
<!-- Node32 -->
<g id="node33" class="node"><title>Node32</title>
<g id="a_node33"><a xlink:href="fonctions__auxiliaires_8h.html" target="_top" xlink:title="Diverses fonctions auxiliaires en inlining. ">
<polygon fill="white" stroke="black" points="854,-224.5 854,-243.5 974,-243.5 974,-224.5 854,-224.5"/>
<text text-anchor="middle" x="914" y="-231.5" font-family="Helvetica,sans-Serif" font-size="10.00">fonctions_auxiliaires.h</text>
</a>
</g>
</g>
<!-- Node0&#45;&gt;Node32 -->
<g id="edge38" class="edge"><title>Node0&#45;&gt;Node32</title>
<path fill="none" stroke="midnightblue" d="M840.761,-336.351C857.993,-329.137 880.259,-317.237 894,-300 904.685,-286.596 909.683,-267.489 912.008,-253.459"/>
<polygon fill="midnightblue" stroke="midnightblue" points="915.483,-253.881 913.357,-243.501 908.546,-252.941 915.483,-253.881"/>
</g>
<!-- Node39 -->
<g id="node40" class="node"><title>Node39</title>
<g id="a_node40"><a xlink:href="table_8h.html" target="_top" xlink:title="table.h">
<polygon fill="white" stroke="black" points="502.5,-224.5 502.5,-243.5 549.5,-243.5 549.5,-224.5 502.5,-224.5"/>
<text text-anchor="middle" x="526" y="-231.5" font-family="Helvetica,sans-Serif" font-size="10.00">table.h</text>
</a>
</g>
</g>
<!-- Node0&#45;&gt;Node39 -->
<g id="edge57" class="edge"><title>Node0&#45;&gt;Node39</title>
<path fill="none" stroke="midnightblue" d="M778.358,-341.575C736.216,-336.651 666.67,-325.216 612,-300 585.082,-287.584 558.552,-265.65 542.234,-250.728"/>
<polygon fill="midnightblue" stroke="midnightblue" points="544.373,-247.936 534.683,-243.652 539.586,-253.044 544.373,-247.936"/>
</g>
<!-- Node40 -->
<g id="node41" class="node"><title>Node40</title>
<g id="a_node41"><a xlink:href="recherche_8h.html" target="_top" xlink:title="recherche.h">
<polygon fill="white" stroke="black" points="812.5,-280.5 812.5,-299.5 885.5,-299.5 885.5,-280.5 812.5,-280.5"/>
<text text-anchor="middle" x="849" y="-287.5" font-family="Helvetica,sans-Serif" font-size="10.00">recherche.h</text>
</a>
</g>
</g>
<!-- Node0&#45;&gt;Node40 -->
<g id="edge63" class="edge"><title>Node0&#45;&gt;Node40</title>
<path fill="none" stroke="midnightblue" d="M821.449,-336.083C826.014,-328.613 832.668,-317.724 838.293,-308.52"/>
<polygon fill="midnightblue" stroke="midnightblue" points="841.424,-310.109 843.652,-299.751 835.451,-306.459 841.424,-310.109"/>
</g>
<!-- Node13&#45;&gt;Node2 -->
<g id="edge29" class="edge"><title>Node13&#45;&gt;Node2</title>
<path fill="none" stroke="midnightblue" d="M652.308,-173.29C637.817,-171.653 620.559,-169.716 605,-168 460.358,-152.046 420.417,-157.39 273.878,-132.14"/>
<polygon fill="midnightblue" stroke="midnightblue" points="274.058,-128.618 263.605,-130.35 272.856,-135.514 274.058,-128.618"/>
</g>
<!-- Node13&#45;&gt;Node3 -->
<g id="edge31" class="edge"><title>Node13&#45;&gt;Node3</title>
<path fill="none" stroke="midnightblue" d="M652.338,-172.989C637.852,-171.297 620.591,-169.4 605,-168 370.449,-146.941 306.915,-166.408 70.0918,-131.922"/>
<polygon fill="midnightblue" stroke="midnightblue" points="70.5462,-128.452 60.1429,-130.457 69.5261,-135.377 70.5462,-128.452"/>
</g>
<!-- Node13&#45;&gt;Node4 -->
<g id="edge27" class="edge"><title>Node13&#45;&gt;Node4</title>
<path fill="none" stroke="midnightblue" d="M652.324,-173.144C637.835,-171.481 620.575,-169.563 605,-168 427.144,-150.152 377.832,-164.255 198.342,-131.927"/>
<polygon fill="midnightblue" stroke="midnightblue" points="198.767,-128.446 188.301,-130.095 197.51,-135.333 198.767,-128.446"/>
</g>
<!-- Node13&#45;&gt;Node8 -->
<g id="edge22" class="edge"><title>Node13&#45;&gt;Node8</title>
<path fill="none" stroke="midnightblue" d="M717.681,-173.403C733.479,-171.699 752.719,-169.675 770,-168 951.629,-150.392 999.252,-163.463 1179,-132 1179.1,-131.982 1179.2,-131.964 1179.3,-131.946"/>
<polygon fill="midnightblue" stroke="midnightblue" points="1179.91,-135.397 1188.97,-129.906 1178.46,-128.548 1179.91,-135.397"/>
</g>
<!-- Node13&#45;&gt;Node10 -->
<g id="edge15" class="edge"><title>Node13&#45;&gt;Node10</title>
<path fill="none" stroke="midnightblue" d="M652.332,-173.056C637.845,-171.377 620.584,-169.47 605,-168 398.816,-148.546 341.936,-168.032 134.298,-131.891"/>
<polygon fill="midnightblue" stroke="midnightblue" points="134.751,-128.417 124.295,-130.127 133.536,-135.311 134.751,-128.417"/>
</g>
<!-- Node14 -->
<g id="node15" class="node"><title>Node14</title>
<polygon fill="white" stroke="#bfbfbf" points="1127.5,-112.5 1127.5,-131.5 1170.5,-131.5 1170.5,-112.5 1127.5,-112.5"/>
<text text-anchor="middle" x="1149" y="-119.5" font-family="Helvetica,sans-Serif" font-size="10.00">string</text>
</g>
<!-- Node13&#45;&gt;Node14 -->
<g id="edge14" class="edge"><title>Node13&#45;&gt;Node14</title>
<path fill="none" stroke="midnightblue" d="M717.548,-170.347C722.381,-169.482 727.312,-168.666 732,-168 899.339,-144.231 946.926,-163.403 1117.38,-131.727"/>
<polygon fill="midnightblue" stroke="midnightblue" points="1118.27,-135.12 1127.45,-129.824 1116.97,-128.242 1118.27,-135.12"/>
</g>
<!-- Node15 -->
<g id="node16" class="node"><title>Node15</title>
<polygon fill="white" stroke="#bfbfbf" points="1255.5,-112.5 1255.5,-131.5 1302.5,-131.5 1302.5,-112.5 1255.5,-112.5"/>
<text text-anchor="middle" x="1279" y="-119.5" font-family="Helvetica,sans-Serif" font-size="10.00">cstdint</text>
</g>
<!-- Node13&#45;&gt;Node15 -->
<g id="edge16" class="edge"><title>Node13&#45;&gt;Node15</title>
<path fill="none" stroke="midnightblue" d="M717.756,-175.177C818.75,-169.433 1125.22,-151.052 1245.31,-131.716"/>
<polygon fill="midnightblue" stroke="midnightblue" points="1246.05,-135.141 1255.33,-130.023 1244.88,-128.239 1246.05,-135.141"/>
</g>
<!-- Node16 -->
<g id="node17" class="node"><title>Node16</title>
<polygon fill="white" stroke="#bfbfbf" points="856,-112.5 856,-131.5 912,-131.5 912,-112.5 856,-112.5"/>
<text text-anchor="middle" x="884" y="-119.5" font-family="Helvetica,sans-Serif" font-size="10.00">cstdbool</text>
</g>
<!-- Node13&#45;&gt;Node16 -->
<g id="edge17" class="edge"><title>Node13&#45;&gt;Node16</title>
<path fill="none" stroke="midnightblue" d="M716.532,-168.444C751.594,-158.929 808.224,-143.562 845.78,-133.371"/>
<polygon fill="midnightblue" stroke="midnightblue" points="847.099,-136.64 855.833,-130.643 845.265,-129.884 847.099,-136.64"/>
</g>
<!-- Node17 -->
<g id="node18" class="node"><title>Node17</title>
<polygon fill="white" stroke="#bfbfbf" points="930.5,-112.5 930.5,-131.5 975.5,-131.5 975.5,-112.5 930.5,-112.5"/>
<text text-anchor="middle" x="953" y="-119.5" font-family="Helvetica,sans-Serif" font-size="10.00">climits</text>
</g>
<!-- Node13&#45;&gt;Node17 -->
<g id="edge18" class="edge"><title>Node13&#45;&gt;Node17</title>
<path fill="none" stroke="midnightblue" d="M717.615,-170.75C722.438,-169.827 727.349,-168.888 732,-168 812.957,-152.539 836.11,-151.641 920.573,-131.931"/>
<polygon fill="midnightblue" stroke="midnightblue" points="921.405,-135.331 930.337,-129.634 919.801,-128.518 921.405,-135.331"/>
</g>
<!-- Node18 -->
<g id="node19" class="node"><title>Node18</title>
<polygon fill="white" stroke="#bfbfbf" points="994,-112.5 994,-131.5 1044,-131.5 1044,-112.5 994,-112.5"/>
<text text-anchor="middle" x="1019" y="-119.5" font-family="Helvetica,sans-Serif" font-size="10.00">clocale</text>
</g>
<!-- Node13&#45;&gt;Node18 -->
<g id="edge19" class="edge"><title>Node13&#45;&gt;Node18</title>
<path fill="none" stroke="midnightblue" d="M717.58,-170.555C722.408,-169.659 727.329,-168.78 732,-168 843.59,-149.356 873.047,-154.121 984,-132 984.1,-131.98 984.2,-131.96 984.3,-131.94"/>
<polygon fill="midnightblue" stroke="midnightblue" points="984.837,-135.406 993.841,-129.822 983.32,-128.572 984.837,-135.406"/>
</g>
<!-- Node19 -->
<g id="node20" class="node"><title>Node19</title>
<polygon fill="white" stroke="#bfbfbf" points="1062.5,-112.5 1062.5,-131.5 1109.5,-131.5 1109.5,-112.5 1062.5,-112.5"/>
<text text-anchor="middle" x="1086" y="-119.5" font-family="Helvetica,sans-Serif" font-size="10.00">cerrno</text>
</g>
<!-- Node13&#45;&gt;Node19 -->
<g id="edge20" class="edge"><title>Node13&#45;&gt;Node19</title>
<path fill="none" stroke="midnightblue" d="M717.56,-170.426C722.391,-169.55 727.318,-168.71 732,-168 870.751,-146.967 910.233,-158.424 1052.35,-131.826"/>
<polygon fill="midnightblue" stroke="midnightblue" points="1053.14,-135.239 1062.31,-129.932 1051.83,-128.362 1053.14,-135.239"/>
</g>
<!-- Node20 -->
<g id="node21" class="node"><title>Node20</title>
<polygon fill="white" stroke="#bfbfbf" points="344.5,-112.5 344.5,-131.5 389.5,-131.5 389.5,-112.5 344.5,-112.5"/>
<text text-anchor="middle" x="367" y="-119.5" font-family="Helvetica,sans-Serif" font-size="10.00">cmath</text>
</g>
<!-- Node13&#45;&gt;Node20 -->
<g id="edge21" class="edge"><title>Node13&#45;&gt;Node20</title>
<path fill="none" stroke="midnightblue" d="M652.415,-170.584C647.587,-169.685 642.668,-168.797 638,-168 534.792,-150.385 505.086,-154.801 399.38,-132.072"/>
<polygon fill="midnightblue" stroke="midnightblue" points="400.113,-128.65 389.597,-129.939 398.622,-135.489 400.113,-128.65"/>
</g>
<!-- Node21 -->
<g id="node22" class="node"><title>Node21</title>
<polygon fill="white" stroke="#bfbfbf" points="407.5,-112.5 407.5,-131.5 454.5,-131.5 454.5,-112.5 407.5,-112.5"/>
<text text-anchor="middle" x="431" y="-119.5" font-family="Helvetica,sans-Serif" font-size="10.00">cctype</text>
</g>
<!-- Node13&#45;&gt;Node21 -->
<g id="edge23" class="edge"><title>Node13&#45;&gt;Node21</title>
<path fill="none" stroke="midnightblue" d="M652.256,-170.673C603.231,-161.151 512.143,-143.26 464.473,-132.199"/>
<polygon fill="midnightblue" stroke="midnightblue" points="465.252,-128.787 454.714,-129.881 463.634,-135.598 465.252,-128.787"/>
</g>
<!-- Node22 -->
<g id="node23" class="node"><title>Node22</title>
<polygon fill="white" stroke="#bfbfbf" points="472.5,-112.5 472.5,-131.5 579.5,-131.5 579.5,-112.5 472.5,-112.5"/>
<text text-anchor="middle" x="526" y="-119.5" font-family="Helvetica,sans-Serif" font-size="10.00">libxml/xmlmemory.h</text>
</g>
<!-- Node13&#45;&gt;Node22 -->
<g id="edge24" class="edge"><title>Node13&#45;&gt;Node22</title>
<path fill="none" stroke="midnightblue" d="M659.806,-168.444C633.057,-159.359 590.597,-144.939 560.695,-134.783"/>
<polygon fill="midnightblue" stroke="midnightblue" points="561.671,-131.418 551.076,-131.516 559.419,-138.046 561.671,-131.418"/>
</g>
<!-- Node23 -->
<g id="node24" class="node"><title>Node23</title>
<polygon fill="white" stroke="#bfbfbf" points="1321,-112.5 1321,-131.5 1405,-131.5 1405,-112.5 1321,-112.5"/>
<text text-anchor="middle" x="1363" y="-119.5" font-family="Helvetica,sans-Serif" font-size="10.00">libxml/parser.h</text>
</g>
<!-- Node13&#45;&gt;Node23 -->
<g id="edge25" class="edge"><title>Node13&#45;&gt;Node23</title>
<path fill="none" stroke="midnightblue" d="M717.518,-175.093C826.012,-168.663 1175.8,-147.389 1310.67,-131.873"/>
<polygon fill="midnightblue" stroke="midnightblue" points="1311.25,-135.328 1320.77,-130.672 1310.42,-128.377 1311.25,-135.328"/>
</g>
<!-- Node24 -->
<g id="node25" class="node"><title>Node24</title>
<polygon fill="white" stroke="#bfbfbf" points="597.5,-112.5 597.5,-131.5 656.5,-131.5 656.5,-112.5 597.5,-112.5"/>
<text text-anchor="middle" x="627" y="-119.5" font-family="Helvetica,sans-Serif" font-size="10.00">cinttypes</text>
</g>
<!-- Node13&#45;&gt;Node24 -->
<g id="edge26" class="edge"><title>Node13&#45;&gt;Node24</title>
<path fill="none" stroke="midnightblue" d="M675.681,-168.324C667.107,-160.341 654.188,-148.313 643.812,-138.653"/>
<polygon fill="midnightblue" stroke="midnightblue" points="646.192,-136.086 636.488,-131.834 641.422,-141.21 646.192,-136.086"/>
</g>
<!-- Node25 -->
<g id="node26" class="node"><title>Node25</title>
<polygon fill="white" stroke="#bfbfbf" points="1423.5,-112.5 1423.5,-131.5 1464.5,-131.5 1464.5,-112.5 1423.5,-112.5"/>
<text text-anchor="middle" x="1444" y="-119.5" font-family="Helvetica,sans-Serif" font-size="10.00">array</text>
</g>
<!-- Node13&#45;&gt;Node25 -->
<g id="edge28" class="edge"><title>Node13&#45;&gt;Node25</title>
<path fill="none" stroke="midnightblue" d="M717.82,-175.077C849.096,-167.372 1332.81,-138.862 1413.18,-131.067"/>
<polygon fill="midnightblue" stroke="midnightblue" points="1413.98,-134.496 1423.49,-129.829 1413.15,-127.546 1413.98,-134.496"/>
</g>
<!-- Node26 -->
<g id="node27" class="node"><title>Node26</title>
<polygon fill="white" stroke="#bfbfbf" points="1482.5,-112.5 1482.5,-131.5 1535.5,-131.5 1535.5,-112.5 1482.5,-112.5"/>
<text text-anchor="middle" x="1509" y="-119.5" font-family="Helvetica,sans-Serif" font-size="10.00">iomanip</text>
</g>
<!-- Node13&#45;&gt;Node26 -->
<g id="edge30" class="edge"><title>Node13&#45;&gt;Node26</title>
<path fill="none" stroke="midnightblue" d="M717.567,-175.113C749.126,-173.287 798.343,-170.443 841,-168 1119.03,-152.074 1193.81,-174.751 1472.36,-131.971"/>
<polygon fill="midnightblue" stroke="midnightblue" points="1473.01,-135.412 1482.36,-130.421 1471.94,-128.495 1473.01,-135.412"/>
</g>
<!-- Node27 -->
<g id="node28" class="node"><title>Node27</title>
<g id="a_node28"><a xlink:href="tags_8h.html" target="_top" xlink:title="tags.h">
<polygon fill="white" stroke="black" points="281.5,-112.5 281.5,-131.5 326.5,-131.5 326.5,-112.5 281.5,-112.5"/>
<text text-anchor="middle" x="304" y="-119.5" font-family="Helvetica,sans-Serif" font-size="10.00">tags.h</text>
</a>
</g>
</g>
<!-- Node13&#45;&gt;Node27 -->
<g id="edge32" class="edge"><title>Node13&#45;&gt;Node27</title>
<path fill="none" stroke="midnightblue" d="M652.436,-170.454C647.606,-169.574 642.68,-168.725 638,-168 507.257,-147.741 469.72,-158.441 336.745,-132.071"/>
<polygon fill="midnightblue" stroke="midnightblue" points="337.075,-128.567 326.58,-130.021 335.69,-135.429 337.075,-128.567"/>
</g>
<!-- Node28 -->
<g id="node29" class="node"><title>Node28</title>
<g id="a_node29"><a xlink:href="expression__reg__elus_8h.html" target="_top" xlink:title="Expressions régulières représentant les élus. ">
<polygon fill="white" stroke="black" points="593.5,-56.5 593.5,-75.5 716.5,-75.5 716.5,-56.5 593.5,-56.5"/>
<text text-anchor="middle" x="655" y="-63.5" font-family="Helvetica,sans-Serif" font-size="10.00">expression_reg_elus.h</text>
</a>
</g>
</g>
<!-- Node13&#45;&gt;Node28 -->
<g id="edge33" class="edge"><title>Node13&#45;&gt;Node28</title>
<path fill="none" stroke="midnightblue" d="M682.646,-168.368C677.783,-150.537 666.535,-109.295 659.983,-85.2717"/>
<polygon fill="midnightblue" stroke="midnightblue" points="663.351,-84.3181 657.343,-75.5914 656.598,-86.16 663.351,-84.3181"/>
</g>
<!-- Node30 -->
<g id="node31" class="node"><title>Node30</title>
<g id="a_node31"><a xlink:href="expression__reg__cata_8h.html" target="_top" xlink:title="Ce fichier contient les expressions rationnelles permettant d&#39;identifier les catégories statutaires A...">
<polygon fill="white" stroke="black" points="713.5,-112.5 713.5,-131.5 838.5,-131.5 838.5,-112.5 713.5,-112.5"/>
<text text-anchor="middle" x="776" y="-119.5" font-family="Helvetica,sans-Serif" font-size="10.00">expression_reg_cata.h</text>
</a>
</g>
</g>
<!-- Node13&#45;&gt;Node30 -->
<g id="edge35" class="edge"><title>Node13&#45;&gt;Node30</title>
<path fill="none" stroke="midnightblue" d="M699.621,-168.324C713.949,-159.822 736.013,-146.729 752.749,-136.797"/>
<polygon fill="midnightblue" stroke="midnightblue" points="754.602,-139.768 761.416,-131.655 751.03,-133.748 754.602,-139.768"/>
</g>
<!-- Node29 -->
<g id="node30" class="node"><title>Node29</title>
<g id="a_node30"><a xlink:href="expression__reg__commun_8h.html" target="_top" xlink:title="Elements constitutifs des expressions régulières. ">
<polygon fill="white" stroke="black" points="658.5,-0.5 658.5,-19.5 801.5,-19.5 801.5,-0.5 658.5,-0.5"/>
<text text-anchor="middle" x="730" y="-7.5" font-family="Helvetica,sans-Serif" font-size="10.00">expression_reg_commun.h</text>
</a>
</g>
</g>
<!-- Node28&#45;&gt;Node29 -->
<g id="edge34" class="edge"><title>Node28&#45;&gt;Node29</title>
<path fill="none" stroke="midnightblue" d="M667.05,-56.324C678.463,-48.1066 695.831,-35.6017 709.435,-25.8069"/>
<polygon fill="midnightblue" stroke="midnightblue" points="711.66,-28.5174 717.731,-19.8339 707.57,-22.8366 711.66,-28.5174"/>
</g>
<!-- Node31 -->
<g id="node32" class="node"><title>Node31</title>
<g id="a_node32"><a xlink:href="expression__reg__adjoints_8h.html" target="_top" xlink:title="Expressions régulières de niveau adjoints / auxiliaires / aides (catégories C) ">
<polygon fill="white" stroke="black" points="734.5,-56.5 734.5,-75.5 875.5,-75.5 875.5,-56.5 734.5,-56.5"/>
<text text-anchor="middle" x="805" y="-63.5" font-family="Helvetica,sans-Serif" font-size="10.00">expression_reg_adjoints.h</text>
</a>
</g>
</g>
<!-- Node30&#45;&gt;Node31 -->
<g id="edge36" class="edge"><title>Node30&#45;&gt;Node31</title>
<path fill="none" stroke="midnightblue" d="M780.789,-112.083C784.758,-104.691 790.525,-93.9533 795.435,-84.8111"/>
<polygon fill="midnightblue" stroke="midnightblue" points="798.653,-86.217 800.3,-75.7511 792.486,-82.9051 798.653,-86.217"/>
</g>
<!-- Node31&#45;&gt;Node29 -->
<g id="edge37" class="edge"><title>Node31&#45;&gt;Node29</title>
<path fill="none" stroke="midnightblue" d="M792.95,-56.324C781.537,-48.1066 764.169,-35.6017 750.565,-25.8069"/>
<polygon fill="midnightblue" stroke="midnightblue" points="752.43,-22.8366 742.269,-19.8339 748.34,-28.5174 752.43,-22.8366"/>
</g>
<!-- Node32&#45;&gt;Node1 -->
<g id="edge45" class="edge"><title>Node32&#45;&gt;Node1</title>
<path fill="none" stroke="midnightblue" d="M853.713,-225.846C792.159,-218.128 693.992,-204.674 610,-188 608.72,-187.746 607.418,-187.476 606.104,-187.194"/>
<polygon fill="midnightblue" stroke="midnightblue" points="606.538,-183.702 596.008,-184.865 604.965,-190.523 606.538,-183.702"/>
</g>
<!-- Node32&#45;&gt;Node2 -->
<g id="edge41" class="edge"><title>Node32&#45;&gt;Node2</title>
<path fill="none" stroke="midnightblue" d="M853.701,-227.241C780.113,-219.856 652.011,-205.843 543,-188 424.826,-168.658 393.619,-159.473 273.609,-132.322"/>
<polygon fill="midnightblue" stroke="midnightblue" points="274.185,-128.864 263.66,-130.076 272.644,-135.692 274.185,-128.864"/>
</g>
<!-- Node32&#45;&gt;Node4 -->
<g id="edge44" class="edge"><title>Node32&#45;&gt;Node4</title>
<path fill="none" stroke="midnightblue" d="M853.787,-230.142C762.053,-225.169 582.014,-212.975 431,-188 380.927,-179.719 261.7,-148.832 197.804,-132.148"/>
<polygon fill="midnightblue" stroke="midnightblue" points="198.603,-128.739 188.043,-129.597 196.833,-135.512 198.603,-128.739"/>
</g>
<!-- Node32&#45;&gt;Node8 -->
<g id="edge46" class="edge"><title>Node32&#45;&gt;Node8</title>
<path fill="none" stroke="midnightblue" d="M918.078,-224.134C925.188,-209.765 941.294,-181.626 964,-168 1047.07,-118.146 1084.29,-152.418 1179,-132 1179.1,-131.978 1179.2,-131.956 1179.3,-131.935"/>
<polygon fill="midnightblue" stroke="midnightblue" points="1179.99,-135.369 1188.92,-129.67 1178.38,-128.555 1179.99,-135.369"/>
</g>
<!-- Node32&#45;&gt;Node9 -->
<g id="edge42" class="edge"><title>Node32&#45;&gt;Node9</title>
<path fill="none" stroke="midnightblue" d="M974.081,-228.139C1103.73,-217.643 1402.3,-193.425 1461.99,-187.412"/>
<polygon fill="midnightblue" stroke="midnightblue" points="1462.44,-190.883 1471.97,-186.26 1461.64,-183.93 1462.44,-190.883"/>
</g>
<!-- Node32&#45;&gt;Node13 -->
<g id="edge39" class="edge"><title>Node32&#45;&gt;Node13</title>
<path fill="none" stroke="midnightblue" d="M877.714,-224.444C836.966,-214.835 770.903,-199.257 727.701,-189.069"/>
<polygon fill="midnightblue" stroke="midnightblue" points="728.313,-185.618 717.777,-186.729 726.707,-192.431 728.313,-185.618"/>
</g>
<!-- Node32&#45;&gt;Node14 -->
<g id="edge54" class="edge"><title>Node32&#45;&gt;Node14</title>
<path fill="none" stroke="midnightblue" d="M891.294,-224.498C863.185,-212.747 821.289,-190.438 841,-168 880.126,-123.46 1041.76,-142.736 1117.35,-131.517"/>
<polygon fill="midnightblue" stroke="midnightblue" points="1118.2,-134.922 1127.43,-129.722 1116.97,-128.031 1118.2,-134.922"/>
</g>
<!-- Node32&#45;&gt;Node15 -->
<g id="edge47" class="edge"><title>Node32&#45;&gt;Node15</title>
<path fill="none" stroke="midnightblue" d="M922.815,-224.1C937.686,-209.682 969.343,-181.475 1002,-168 1100.36,-127.414 1136.58,-152.865 1245.25,-131.863"/>
<polygon fill="midnightblue" stroke="midnightblue" points="1246.18,-135.245 1255.29,-129.831 1244.79,-128.384 1246.18,-135.245"/>
</g>
<!-- Node32&#45;&gt;Node23 -->
<g id="edge40" class="edge"><title>Node32&#45;&gt;Node23</title>
<path fill="none" stroke="midnightblue" d="M930.532,-224.378C964.053,-206.91 1037.11,-168.908 1040,-168 1152.87,-132.57 1188.99,-149.414 1310.66,-131.953"/>
<polygon fill="midnightblue" stroke="midnightblue" points="1311.36,-135.388 1320.74,-130.458 1310.33,-128.464 1311.36,-135.388"/>
</g>
<!-- Node32&#45;&gt;Node25 -->
<g id="edge55" class="edge"><title>Node32&#45;&gt;Node25</title>
<path fill="none" stroke="midnightblue" d="M938.788,-224.43C963.405,-215.769 1002.12,-201.736 1035,-188 1054.45,-179.876 1057.69,-173.643 1078,-168 1219.6,-128.653 1264.84,-160.282 1413.52,-131.677"/>
<polygon fill="midnightblue" stroke="midnightblue" points="1414.34,-135.083 1423.47,-129.704 1412.98,-128.217 1414.34,-135.083"/>
</g>
<!-- Node32&#45;&gt;Node26 -->
<g id="edge48" class="edge"><title>Node32&#45;&gt;Node26</title>
<path fill="none" stroke="midnightblue" d="M950.796,-224.498C983.021,-216.573 1030.84,-203.641 1071,-188 1089.52,-180.787 1091.9,-173.517 1111,-168 1263.56,-123.924 1312.36,-158.776 1472.15,-132.064"/>
<polygon fill="midnightblue" stroke="midnightblue" points="1473.08,-135.455 1482.34,-130.303 1471.89,-128.558 1473.08,-135.455"/>
</g>
<!-- Node32&#45;&gt;Node27 -->
<g id="edge56" class="edge"><title>Node32&#45;&gt;Node27</title>
<path fill="none" stroke="midnightblue" d="M853.995,-228.572C798.178,-223.169 713.292,-211.647 643,-188 624.911,-181.915 623.184,-173.795 605,-168 492.695,-132.21 455.427,-155.635 336.438,-132.008"/>
<polygon fill="midnightblue" stroke="midnightblue" points="337.088,-128.568 326.588,-129.982 335.678,-135.425 337.088,-128.568"/>
</g>
<!-- Node33 -->
<g id="node34" class="node"><title>Node33</title>
<polygon fill="white" stroke="#bfbfbf" points="1402,-168.5 1402,-187.5 1454,-187.5 1454,-168.5 1402,-168.5"/>
<text text-anchor="middle" x="1428" y="-175.5" font-family="Helvetica,sans-Serif" font-size="10.00">fstream</text>
</g>
<!-- Node32&#45;&gt;Node33 -->
<g id="edge43" class="edge"><title>Node32&#45;&gt;Node33</title>
<path fill="none" stroke="midnightblue" d="M974.157,-225.518C978.839,-224.987 983.495,-224.474 988,-224 1164.47,-205.43 1213.15,-218.126 1391.74,-187.955"/>
<polygon fill="midnightblue" stroke="midnightblue" points="1392.46,-191.382 1401.73,-186.246 1391.28,-184.483 1392.46,-191.382"/>
</g>
<!-- Node34 -->
<g id="node35" class="node"><title>Node34</title>
<polygon fill="white" stroke="#bfbfbf" points="1120,-168.5 1120,-187.5 1164,-187.5 1164,-168.5 1120,-168.5"/>
<text text-anchor="middle" x="1142" y="-175.5" font-family="Helvetica,sans-Serif" font-size="10.00">cstdio</text>
</g>
<!-- Node32&#45;&gt;Node34 -->
<g id="edge49" class="edge"><title>Node32&#45;&gt;Node34</title>
<path fill="none" stroke="midnightblue" d="M951.205,-224.451C989.913,-215.517 1052.26,-201.014 1106,-188 1107.27,-187.693 1108.56,-187.378 1109.87,-187.059"/>
<polygon fill="midnightblue" stroke="midnightblue" points="1111.06,-190.369 1119.93,-184.573 1109.38,-183.574 1111.06,-190.369"/>
</g>
<!-- Node35 -->
<g id="node36" class="node"><title>Node35</title>
<polygon fill="white" stroke="#bfbfbf" points="1182,-168.5 1182,-187.5 1232,-187.5 1232,-168.5 1182,-168.5"/>
<text text-anchor="middle" x="1207" y="-175.5" font-family="Helvetica,sans-Serif" font-size="10.00">iterator</text>
</g>
<!-- Node32&#45;&gt;Node35 -->
<g id="edge50" class="edge"><title>Node32&#45;&gt;Node35</title>
<path fill="none" stroke="midnightblue" d="M971.374,-224.495C1021.78,-216.692 1097.29,-204.202 1171.78,-188.117"/>
<polygon fill="midnightblue" stroke="midnightblue" points="1172.78,-191.481 1181.81,-185.929 1171.29,-184.642 1172.78,-191.481"/>
</g>
<!-- Node36 -->
<g id="node37" class="node"><title>Node36</title>
<polygon fill="white" stroke="#bfbfbf" points="1250.5,-168.5 1250.5,-187.5 1311.5,-187.5 1311.5,-168.5 1250.5,-168.5"/>
<text text-anchor="middle" x="1281" y="-175.5" font-family="Helvetica,sans-Serif" font-size="10.00">sys/stat.h</text>
</g>
<!-- Node32&#45;&gt;Node36 -->
<g id="edge51" class="edge"><title>Node32&#45;&gt;Node36</title>
<path fill="none" stroke="midnightblue" d="M974.283,-225.325C1050.05,-215.578 1176.89,-198.897 1240.47,-187.924"/>
<polygon fill="midnightblue" stroke="midnightblue" points="1241.25,-191.341 1250.48,-186.146 1240.02,-184.448 1241.25,-191.341"/>
</g>
<!-- Node37 -->
<g id="node38" class="node"><title>Node37</title>
<polygon fill="white" stroke="#bfbfbf" points="1330,-168.5 1330,-187.5 1384,-187.5 1384,-168.5 1330,-168.5"/>
<text text-anchor="middle" x="1357" y="-175.5" font-family="Helvetica,sans-Serif" font-size="10.00">memory</text>
</g>
<!-- Node32&#45;&gt;Node37 -->
<g id="edge52" class="edge"><title>Node32&#45;&gt;Node37</title>
<path fill="none" stroke="midnightblue" d="M974.168,-225.616C978.847,-225.062 983.5,-224.518 988,-224 1132.28,-207.404 1172.1,-213.323 1319.72,-187.812"/>
<polygon fill="midnightblue" stroke="midnightblue" points="1320.36,-191.255 1329.6,-186.086 1319.15,-184.359 1320.36,-191.255"/>
</g>
<!-- Node38 -->
<g id="node39" class="node"><title>Node38</title>
<polygon fill="white" stroke="#bfbfbf" points="850,-168.5 850,-187.5 912,-187.5 912,-168.5 850,-168.5"/>
<text text-anchor="middle" x="881" y="-175.5" font-family="Helvetica,sans-Serif" font-size="10.00">stdexcept</text>
</g>
<!-- Node32&#45;&gt;Node38 -->
<g id="edge53" class="edge"><title>Node32&#45;&gt;Node38</title>
<path fill="none" stroke="midnightblue" d="M908.551,-224.083C903.986,-216.613 897.332,-205.724 891.707,-196.52"/>
<polygon fill="midnightblue" stroke="midnightblue" points="894.549,-194.459 886.348,-187.751 888.576,-198.109 894.549,-194.459"/>
</g>
<!-- Node39&#45;&gt;Node2 -->
<g id="edge62" class="edge"><title>Node39&#45;&gt;Node2</title>
<path fill="none" stroke="midnightblue" d="M503.166,-224.368C451.743,-204.93 326.73,-157.674 267.348,-135.228"/>
<polygon fill="midnightblue" stroke="midnightblue" points="268.32,-131.853 257.728,-131.591 265.845,-138.401 268.32,-131.853"/>
</g>
<!-- Node39&#45;&gt;Node4 -->
<g id="edge60" class="edge"><title>Node39&#45;&gt;Node4</title>
<path fill="none" stroke="midnightblue" d="M502.475,-227.677C468.55,-219.845 404.03,-204.365 350,-188 295.649,-171.538 233.577,-148.93 196.925,-135.176"/>
<polygon fill="midnightblue" stroke="midnightblue" points="197.88,-131.796 187.289,-131.544 195.411,-138.346 197.88,-131.796"/>
</g>
<!-- Node39&#45;&gt;Node13 -->
<g id="edge58" class="edge"><title>Node39&#45;&gt;Node13</title>
<path fill="none" stroke="midnightblue" d="M549.804,-224.916C576.345,-215.902 619.53,-201.235 649.938,-190.908"/>
<polygon fill="midnightblue" stroke="midnightblue" points="651.374,-194.117 659.717,-187.587 649.123,-187.488 651.374,-194.117"/>
</g>
<!-- Node39&#45;&gt;Node14 -->
<g id="edge61" class="edge"><title>Node39&#45;&gt;Node14</title>
<path fill="none" stroke="midnightblue" d="M549.522,-229.322C587.346,-223.05 663.752,-208.903 726,-188 746.364,-181.162 749.268,-173.623 770,-168 916.993,-128.132 963.487,-160.413 1117.62,-131.681"/>
<polygon fill="midnightblue" stroke="midnightblue" points="1118.28,-135.118 1127.44,-129.795 1116.96,-128.243 1118.28,-135.118"/>
</g>
<!-- Node39&#45;&gt;Node27 -->
<g id="edge59" class="edge"><title>Node39&#45;&gt;Node27</title>
<path fill="none" stroke="midnightblue" d="M516.787,-224.25C501.92,-210.545 471.238,-183.939 441,-168 431.562,-163.025 373.943,-144.721 336.497,-133.046"/>
<polygon fill="midnightblue" stroke="midnightblue" points="337.115,-129.573 326.527,-129.946 335.036,-136.257 337.115,-129.573"/>
</g>
<!-- Node40&#45;&gt;Node13 -->
<g id="edge65" class="edge"><title>Node40&#45;&gt;Node13</title>
<path fill="none" stroke="midnightblue" d="M836.131,-280.368C807.989,-261.492 740.738,-216.385 706.226,-193.237"/>
<polygon fill="midnightblue" stroke="midnightblue" points="708.064,-190.255 697.809,-187.591 704.164,-196.069 708.064,-190.255"/>
</g>
<!-- Node40&#45;&gt;Node32 -->
<g id="edge66" class="edge"><title>Node40&#45;&gt;Node32</title>
<path fill="none" stroke="midnightblue" d="M859.443,-280.324C869.146,-272.263 883.815,-260.077 895.5,-250.369"/>
<polygon fill="midnightblue" stroke="midnightblue" points="897.911,-252.916 903.367,-243.834 893.438,-247.532 897.911,-252.916"/>
</g>
<!-- Node40&#45;&gt;Node33 -->
<g id="edge64" class="edge"><title>Node40&#45;&gt;Node33</title>
<path fill="none" stroke="midnightblue" d="M877.565,-280.422C904.923,-271.969 947.215,-258.279 983,-244 1002.58,-236.188 1005.67,-229.552 1026,-224 1180.86,-181.712 1229.61,-215.063 1391.41,-188"/>
<polygon fill="midnightblue" stroke="midnightblue" points="1392.46,-191.37 1401.72,-186.22 1391.27,-184.472 1392.46,-191.37"/>
</g>
</g>
</svg>
        <g id="navigator" transform="translate(0 0)" fill="#404254">
                <rect fill="#f2f5e9" fill-opacity="0.5" stroke="#606060" stroke-width=".5" x="0" y="0" width="60" height="60"/>
                <use id="zoomplus" xlink:href="#zoomPlus" x="17" y="9" onmousedown="handleZoom(evt,'in')"/>
                <use id="zoomminus" xlink:href="#zoomMin" x="42" y="9" onmousedown="handleZoom(evt,'out')"/>
                <use id="reset" xlink:href="#resetDef" x="30" y="36" onmousedown="handleReset()"/>
                <g id="arrowUp" xlink:href="#dirArrow" transform="translate(30 24)" onmousedown="handlePan(0,-1)">
                  <use xlink:href="#rim" fill="#404040">
                        <set attributeName="fill" to="#808080" begin="arrowUp.mouseover" end="arrowUp.mouseout"/>
                  </use>
                  <path fill="none" stroke="white" stroke-width="1.5" d="M0,-3.0v7 M-2.5,-0.5L0,-3.0L2.5,-0.5"/>
                </g>
                <g id="arrowRight" xlink:href="#dirArrow" transform="rotate(90) translate(36 -43)" onmousedown="handlePan(1,0)">
                  <use xlink:href="#rim" fill="#404040">
                        <set attributeName="fill" to="#808080" begin="arrowRight.mouseover" end="arrowRight.mouseout"/>
                  </use>
                  <path fill="none" stroke="white" stroke-width="1.5" d="M0,-3.0v7 M-2.5,-0.5L0,-3.0L2.5,-0.5"/>
                </g>
                <g id="arrowDown" xlink:href="#dirArrow" transform="rotate(180) translate(-30 -48)" onmousedown="handlePan(0,1)">
                  <use xlink:href="#rim" fill="#404040">
                        <set attributeName="fill" to="#808080" begin="arrowDown.mouseover" end="arrowDown.mouseout"/>
                  </use>
                  <path fill="none" stroke="white" stroke-width="1.5" d="M0,-3.0v7 M-2.5,-0.5L0,-3.0L2.5,-0.5"/>
                </g>
                <g id="arrowLeft" xlink:href="#dirArrow" transform="rotate(270) translate(-36 17)" onmousedown="handlePan(-1,0)">
                  <use xlink:href="#rim" fill="#404040">
                        <set attributeName="fill" to="#808080" begin="arrowLeft.mouseover" end="arrowLeft.mouseout"/>
                  </use>
                  <path fill="none" stroke="white" stroke-width="1.5" d="M0,-3.0v7 M-2.5,-0.5L0,-3.0L2.5,-0.5"/>
                </g>
        </g>
        <svg viewBox="0 0 15 15" width="100%" height="30px" preserveAspectRatio="xMaxYMin meet">
         <g id="arrow_out" transform="scale(0.3 0.3)">
          <a xlink:href="lhx_2main_8cpp__incl_org.svg" target="_base">
           <rect id="button" ry="5" rx="5" y="6" x="6" height="38" width="38"
                fill="#f2f5e9" fill-opacity="0.5" stroke="#606060" stroke-width="1.0"/>
           <path id="arrow"
             d="M 11.500037,31.436501 C 11.940474,20.09759 22.043105,11.32322 32.158766,21.979434 L 37.068811,17.246167 C 37.068811,17.246167 37.088388,32 37.088388,32 L 22.160133,31.978069 C 22.160133,31.978069 26.997745,27.140456 26.997745,27.140456 C 18.528582,18.264221 13.291696,25.230495 11.500037,31.436501 z"
             style="fill:#404040;"/>
          </a>
         </g>
        </svg>
</svg>
