<?xml version="1.0" encoding="UTF-8" standalone="no"?>
<!DOCTYPE svg PUBLIC "-//W3C//DTD SVG 1.1//EN"
 "http://www.w3.org/Graphics/SVG/1.1/DTD/svg11.dtd">
<!-- Generated by graphviz version 2.38.0 (20140413.2041)
 -->
<!-- Title: lhx/main.cpp Pages: 1 -->
<!--zoomable 364 -->
<svg id="main" version="1.1" xmlns="http://www.w3.org/2000/svg" xmlns:xlink="http://www.w3.org/1999/xlink" xml:space="preserve" onload="init(evt)">
<style type="text/css"><![CDATA[
.edge:hover path { stroke: red; }
.edge:hover polygon { stroke: red; fill: red; }
]]></style>
<script type="text/javascript"><![CDATA[
var edges = document.getElementsByTagName('g');
if (edges && edges.length) {
  for (var i=0;i<edges.length;i++) {
    if (edges[i].id.substr(0,4)=='edge') {
      edges[i].setAttribute('class','edge');
    }
  }
}
]]></script>
        <defs>
                <circle id="rim" cx="0" cy="0" r="7"/>
                <circle id="rim2" cx="0" cy="0" r="3.5"/>
                <g id="zoomPlus">
                        <use xlink:href="#rim" fill="#404040">
                                <set attributeName="fill" to="#808080" begin="zoomplus.mouseover" end="zoomplus.mouseout"/>
                        </use>
                        <path d="M-4,0h8M0,-4v8" fill="none" stroke="white" stroke-width="1.5" pointer-events="none"/>
                </g>
                <g id="zoomMin">
                        <use xlink:href="#rim" fill="#404040">
                                <set attributeName="fill" to="#808080" begin="zoomminus.mouseover" end="zoomminus.mouseout"/>
                        </use>
                        <path d="M-4,0h8" fill="none" stroke="white" stroke-width="1.5" pointer-events="none"/>
                </g>
                <g id="dirArrow">
                        <path fill="none" stroke="white" stroke-width="1.5" d="M0,-3.0v7 M-2.5,-0.5L0,-3.0L2.5,-0.5"/>
                </g>
               <g id="resetDef">
                       <use xlink:href="#rim2" fill="#404040">
                               <set attributeName="fill" to="#808080" begin="reset.mouseover" end="reset.mouseout"/>
                       </use>
               </g>
        </defs>

<script type="text/javascript">
var viewWidth = 1500;
var viewHeight = 364;
var sectionId = 'dynsection-0';
</script>
<script xlink:href="svgpan.js"/>
<svg id="graph" class="graph">
<g id="viewport">
<title>lhx/main.cpp</title>
<polygon fill="white" stroke="none" points="-4,4 -4,-360 1496,-360 1496,4 -4,4"/>
<!-- Node0 -->
<g id="node1" class="node"><title>Node0</title>
<polygon fill="#bfbfbf" stroke="black" points="758,-336.5 758,-355.5 830,-355.5 830,-336.5 758,-336.5"/>
<text text-anchor="middle" x="794" y="-343.5" font-family="Helvetica,sans-Serif" font-size="10.00">lhx/main.cpp</text>
</g>
<!-- Node1 -->
<g id="node2" class="node"><title>Node1</title>
<polygon fill="white" stroke="#bfbfbf" points="535,-168.5 535,-187.5 579,-187.5 579,-168.5 535,-168.5"/>
<text text-anchor="middle" x="557" y="-175.5" font-family="Helvetica,sans-Serif" font-size="10.00">mutex</text>
</g>
<!-- Node0&#45;&gt;Node1 -->
<g id="edge1" class="edge"><title>Node0&#45;&gt;Node1</title>
<path fill="none" stroke="midnightblue" d="M781.592,-336.309C743.117,-309.36 625.544,-227.01 577.64,-193.457"/>
<polygon fill="midnightblue" stroke="midnightblue" points="579.484,-190.475 569.286,-187.605 575.468,-196.209 579.484,-190.475"/>
</g>
<!-- Node2 -->
<g id="node3" class="node"><title>Node2</title>
<polygon fill="white" stroke="#bfbfbf" points="200,-112.5 200,-131.5 254,-131.5 254,-112.5 200,-112.5"/>
<text text-anchor="middle" x="227" y="-119.5" font-family="Helvetica,sans-Serif" font-size="10.00">iostream</text>
</g>
<!-- Node0&#45;&gt;Node2 -->
<g id="edge2" class="edge"><title>Node0&#45;&gt;Node2</title>
<path fill="none" stroke="midnightblue" d="M757.594,-341.31C710.518,-335.809 626.449,-323.49 558,-300 454.596,-264.515 434.977,-240.345 339,-188 307.914,-171.046 272.685,-150.35 250.177,-136.934"/>
<polygon fill="midnightblue" stroke="midnightblue" points="251.738,-133.789 241.359,-131.662 248.146,-139.797 251.738,-133.789"/>
</g>
<!-- Node3 -->
<g id="node4" class="node"><title>Node3</title>
<polygon fill="white" stroke="#bfbfbf" points="0,-112.5 0,-131.5 56,-131.5 56,-112.5 0,-112.5"/>
<text text-anchor="middle" x="28" y="-119.5" font-family="Helvetica,sans-Serif" font-size="10.00">algorithm</text>
</g>
<!-- Node0&#45;&gt;Node3 -->
<g id="edge3" class="edge"><title>Node0&#45;&gt;Node3</title>
<path fill="none" stroke="midnightblue" d="M757.897,-344.981C686.8,-344.068 524.246,-337.627 394,-300 255.542,-260 105.113,-171.205 49.8936,-136.901"/>
<polygon fill="midnightblue" stroke="midnightblue" points="51.6203,-133.853 41.2867,-131.514 47.9067,-139.786 51.6203,-133.853"/>
</g>
<!-- Node4 -->
<g id="node5" class="node"><title>Node4</title>
<polygon fill="white" stroke="#bfbfbf" points="138,-112.5 138,-131.5 182,-131.5 182,-112.5 138,-112.5"/>
<text text-anchor="middle" x="160" y="-119.5" font-family="Helvetica,sans-Serif" font-size="10.00">vector</text>
</g>
<!-- Node0&#45;&gt;Node4 -->
<g id="edge4" class="edge"><title>Node0&#45;&gt;Node4</title>
<path fill="none" stroke="midnightblue" d="M757.877,-343.116C702.154,-339.39 592.42,-328.77 504,-300 374.16,-257.752 233.602,-170.984 181.229,-137.046"/>
<polygon fill="midnightblue" stroke="midnightblue" points="183.058,-134.06 172.771,-131.526 179.232,-139.922 183.058,-134.06"/>
</g>
<!-- Node5 -->
<g id="node6" class="node"><title>Node5</title>
<polygon fill="white" stroke="#bfbfbf" points="953,-280.5 953,-299.5 997,-299.5 997,-280.5 953,-280.5"/>
<text text-anchor="middle" x="975" y="-287.5" font-family="Helvetica,sans-Serif" font-size="10.00">thread</text>
</g>
<!-- Node0&#45;&gt;Node5 -->
<g id="edge5" class="edge"><title>Node0&#45;&gt;Node5</title>
<path fill="none" stroke="midnightblue" d="M822.68,-336.444C855.382,-326.687 908.712,-310.776 942.81,-300.604"/>
<polygon fill="midnightblue" stroke="midnightblue" points="944.149,-303.857 952.731,-297.644 942.147,-297.149 944.149,-303.857"/>
</g>
<!-- Node6 -->
<g id="node7" class="node"><title>Node6</title>
<polygon fill="white" stroke="#bfbfbf" points="1015.5,-280.5 1015.5,-299.5 1050.5,-299.5 1050.5,-280.5 1015.5,-280.5"/>
<text text-anchor="middle" x="1033" y="-287.5" font-family="Helvetica,sans-Serif" font-size="10.00">map</text>
</g>
<!-- Node0&#45;&gt;Node6 -->
<g id="edge6" class="edge"><title>Node0&#45;&gt;Node6</title>
<path fill="none" stroke="midnightblue" d="M830.307,-338.582C870.774,-331.147 938.296,-317.9 1005.46,-299.886"/>
<polygon fill="midnightblue" stroke="midnightblue" points="1006.64,-303.194 1015.37,-297.194 1004.8,-296.44 1006.64,-303.194"/>
</g>
<!-- Node7 -->
<g id="node8" class="node"><title>Node7</title>
<polygon fill="white" stroke="#bfbfbf" points="1069,-280.5 1069,-299.5 1115,-299.5 1115,-280.5 1069,-280.5"/>
<text text-anchor="middle" x="1092" y="-287.5" font-family="Helvetica,sans-Serif" font-size="10.00">chrono</text>
</g>
<!-- Node0&#45;&gt;Node7 -->
<g id="edge7" class="edge"><title>Node0&#45;&gt;Node7</title>
<path fill="none" stroke="midnightblue" d="M830.222,-339.999C881.455,-332.665 977.887,-317.903 1059,-300 1059.1,-299.978 1059.2,-299.955 1059.3,-299.932"/>
<polygon fill="midnightblue" stroke="midnightblue" points="1060.1,-303.342 1068.99,-297.584 1058.45,-296.539 1060.1,-303.342"/>
</g>
<!-- Node8 -->
<g id="node9" class="node"><title>Node8</title>
<polygon fill="white" stroke="#bfbfbf" points="1149,-112.5 1149,-131.5 1195,-131.5 1195,-112.5 1149,-112.5"/>
<text text-anchor="middle" x="1172" y="-119.5" font-family="Helvetica,sans-Serif" font-size="10.00">cstring</text>
</g>
<!-- Node0&#45;&gt;Node8 -->
<g id="edge8" class="edge"><title>Node0&#45;&gt;Node8</title>
<path fill="none" stroke="midnightblue" d="M790.912,-336.173C787.948,-327.198 783.681,-312.827 782,-300 774.068,-239.468 772.455,-206.294 820,-168 873.335,-125.043 1053.67,-143.757 1138.56,-131.538"/>
<polygon fill="midnightblue" stroke="midnightblue" points="1139.39,-134.948 1148.67,-129.84 1138.23,-128.045 1139.39,-134.948"/>
</g>
<!-- Node9 -->
<g id="node10" class="node"><title>Node9</title>
<polygon fill="white" stroke="#bfbfbf" points="1440,-168.5 1440,-187.5 1492,-187.5 1492,-168.5 1440,-168.5"/>
<text text-anchor="middle" x="1466" y="-175.5" font-family="Helvetica,sans-Serif" font-size="10.00">sstream</text>
</g>
<!-- Node0&#45;&gt;Node9 -->
<g id="edge9" class="edge"><title>Node0&#45;&gt;Node9</title>
<path fill="none" stroke="midnightblue" d="M810.631,-336.329C837.823,-322.491 893.805,-295.407 944,-280 1151.39,-216.344 1214.1,-235.296 1429.62,-188.185"/>
<polygon fill="midnightblue" stroke="midnightblue" points="1430.66,-191.541 1439.67,-185.966 1429.15,-184.705 1430.66,-191.541"/>
</g>
<!-- Node10 -->
<g id="node11" class="node"><title>Node10</title>
<polygon fill="white" stroke="#bfbfbf" points="74.5,-112.5 74.5,-131.5 119.5,-131.5 119.5,-112.5 74.5,-112.5"/>
<text text-anchor="middle" x="97" y="-119.5" font-family="Helvetica,sans-Serif" font-size="10.00">cstdlib</text>
</g>
<!-- Node0&#45;&gt;Node10 -->
<g id="edge10" class="edge"><title>Node0&#45;&gt;Node10</title>
<path fill="none" stroke="midnightblue" d="M757.978,-343.81C694.694,-340.944 559.934,-331.37 451,-300 393.668,-283.49 382.578,-270.248 329,-244 252.739,-206.64 164.144,-159.321 121.893,-136.51"/>
<polygon fill="midnightblue" stroke="midnightblue" points="123.352,-133.32 112.891,-131.642 120.022,-139.477 123.352,-133.32"/>
</g>
<!-- Node11 -->
<g id="node12" class="node"><title>Node11</title>
<polygon fill="white" stroke="#bfbfbf" points="1133,-280.5 1133,-299.5 1181,-299.5 1181,-280.5 1133,-280.5"/>
<text text-anchor="middle" x="1157" y="-287.5" font-family="Helvetica,sans-Serif" font-size="10.00">limits.h</text>
</g>
<!-- Node0&#45;&gt;Node11 -->
<g id="edge11" class="edge"><title>Node0&#45;&gt;Node11</title>
<path fill="none" stroke="midnightblue" d="M830.396,-341.609C889.693,-335.744 1010.95,-322.334 1122.83,-300"/>
<polygon fill="midnightblue" stroke="midnightblue" points="1123.83,-303.369 1132.94,-297.953 1122.44,-296.509 1123.83,-303.369"/>
</g>
<!-- Node12 -->
<g id="node13" class="node"><title>Node12</title>
<polygon fill="white" stroke="#bfbfbf" points="1199,-280.5 1199,-299.5 1319,-299.5 1319,-280.5 1199,-280.5"/>
<text text-anchor="middle" x="1259" y="-287.5" font-family="Helvetica,sans-Serif" font-size="10.00">experimental/filesystem</text>
</g>
<!-- Node0&#45;&gt;Node12 -->
<g id="edge12" class="edge"><title>Node0&#45;&gt;Node12</title>
<path fill="none" stroke="midnightblue" d="M830.06,-341.104C898.048,-333.716 1050.1,-316.984 1188.83,-300.126"/>
<polygon fill="midnightblue" stroke="midnightblue" points="1189.29,-303.596 1198.8,-298.912 1188.45,-296.647 1189.29,-303.596"/>
</g>
<!-- Node13 -->
<g id="node14" class="node"><title>Node13</title>
<g id="a_node14"><a xlink:href="validator_8h.html" target="_top" xlink:title="Ce fichier contient notamment la structure info_t qui stocke les données de paye décodées ainsi que l...">
<polygon fill="white" stroke="black" points="635,-168.5 635,-187.5 697,-187.5 697,-168.5 635,-168.5"/>
<text text-anchor="middle" x="666" y="-175.5" font-family="Helvetica,sans-Serif" font-size="10.00">validator.h</text>
</a>
</g>
</g>
<!-- Node0&#45;&gt;Node13 -->
<g id="edge13" class="edge"><title>Node0&#45;&gt;Node13</title>
<path fill="none" stroke="midnightblue" d="M784.528,-336.498C775.051,-327.775 760.298,-313.596 749,-300 720.096,-265.215 691.363,-220.482 676.465,-196.329"/>
<polygon fill="midnightblue" stroke="midnightblue" points="679.331,-194.306 671.131,-187.597 673.358,-197.956 679.331,-194.306"/>
</g>
<!-- Node32 -->
<g id="node33" class="node"><title>Node32</title>
<g id="a_node33"><a xlink:href="fonctions__auxiliaires_8h.html" target="_top" xlink:title="Diverses fonctions auxiliaires en inlining. ">
<polygon fill="white" stroke="black" points="830.5,-224.5 830.5,-243.5 943.5,-243.5 943.5,-224.5 830.5,-224.5"/>
<text text-anchor="middle" x="887" y="-231.5" font-family="Helvetica,sans-Serif" font-size="10.00">fonctions_auxiliaires.h</text>
</a>
</g>
</g>
<!-- Node0&#45;&gt;Node32 -->
<g id="edge38" class="edge"><title>Node0&#45;&gt;Node32</title>
<path fill="none" stroke="midnightblue" d="M816.876,-336.409C833.356,-329.102 854.912,-317.06 868,-300 878.277,-286.604 883.003,-267.783 885.172,-253.839"/>
<polygon fill="midnightblue" stroke="midnightblue" points="888.647,-254.256 886.42,-243.898 881.701,-253.384 888.647,-254.256"/>
</g>
<!-- Node39 -->
<g id="node40" class="node"><title>Node39</title>
<g id="a_node40"><a xlink:href="table_8h.html" target="_top" xlink:title="table.h">
<polygon fill="white" stroke="black" points="486,-224.5 486,-243.5 532,-243.5 532,-224.5 486,-224.5"/>
<text text-anchor="middle" x="509" y="-231.5" font-family="Helvetica,sans-Serif" font-size="10.00">table.h</text>
</a>
</g>
</g>
<!-- Node0&#45;&gt;Node39 -->
<g id="edge57" class="edge"><title>Node0&#45;&gt;Node39</title>
<path fill="none" stroke="midnightblue" d="M757.814,-341.587C716.552,-336.643 647.848,-325.159 594,-300 567.342,-287.545 541.133,-265.62 525.022,-250.711"/>
<polygon fill="midnightblue" stroke="midnightblue" points="527.232,-247.984 517.568,-243.641 522.415,-253.062 527.232,-247.984"/>
</g>
<!-- Node40 -->
<g id="node41" class="node"><title>Node40</title>
<g id="a_node41"><a xlink:href="recherche_8h.html" target="_top" xlink:title="recherche.h">
<polygon fill="white" stroke="black" points="791,-280.5 791,-299.5 859,-299.5 859,-280.5 791,-280.5"/>
<text text-anchor="middle" x="825" y="-287.5" font-family="Helvetica,sans-Serif" font-size="10.00">recherche.h</text>
</a>
</g>
</g>
<!-- Node0&#45;&gt;Node40 -->
<g id="edge63" class="edge"><title>Node0&#45;&gt;Node40</title>
<path fill="none" stroke="midnightblue" d="M799.119,-336.083C803.408,-328.613 809.658,-317.724 814.942,-308.52"/>
<polygon fill="midnightblue" stroke="midnightblue" points="818.033,-310.166 819.976,-299.751 811.962,-306.681 818.033,-310.166"/>
</g>
<!-- Node13&#45;&gt;Node2 -->
<g id="edge29" class="edge"><title>Node13&#45;&gt;Node2</title>
<path fill="none" stroke="midnightblue" d="M634.88,-173.376C620.598,-171.722 603.442,-169.746 588,-168 446.836,-152.038 407.782,-157.423 264.114,-131.979"/>
<polygon fill="midnightblue" stroke="midnightblue" points="264.503,-128.493 254.042,-130.175 263.269,-135.383 264.503,-128.493"/>
</g>
<!-- Node13&#45;&gt;Node3 -->
<g id="edge31" class="edge"><title>Node13&#45;&gt;Node3</title>
<path fill="none" stroke="midnightblue" d="M634.911,-173.08C620.635,-171.365 603.474,-169.425 588,-168 359.272,-146.943 297.003,-167.076 66.2321,-131.927"/>
<polygon fill="midnightblue" stroke="midnightblue" points="66.5992,-128.442 56.1827,-130.378 65.5327,-135.361 66.5992,-128.442"/>
</g>
<!-- Node13&#45;&gt;Node4 -->
<g id="edge27" class="edge"><title>Node13&#45;&gt;Node4</title>
<path fill="none" stroke="midnightblue" d="M634.895,-173.235C620.616,-171.551 603.458,-169.592 588,-168 415.034,-150.182 366.873,-164.304 192.267,-131.896"/>
<polygon fill="midnightblue" stroke="midnightblue" points="192.702,-128.416 182.227,-130.007 191.408,-135.296 192.702,-128.416"/>
</g>
<!-- Node13&#45;&gt;Node8 -->
<g id="edge22" class="edge"><title>Node13&#45;&gt;Node8</title>
<path fill="none" stroke="midnightblue" d="M697.125,-173.506C712.697,-171.788 731.838,-169.722 749,-168 918.986,-150.939 965.983,-162.568 1138.74,-131.697"/>
<polygon fill="midnightblue" stroke="midnightblue" points="1139.46,-135.124 1148.68,-129.9 1138.22,-128.236 1139.46,-135.124"/>
</g>
<!-- Node13&#45;&gt;Node10 -->
<g id="edge15" class="edge"><title>Node13&#45;&gt;Node10</title>
<path fill="none" stroke="midnightblue" d="M634.904,-173.148C620.627,-171.447 603.468,-169.498 588,-168 387.609,-148.587 332.232,-167.251 129.67,-131.736"/>
<polygon fill="midnightblue" stroke="midnightblue" points="130.056,-128.25 119.598,-129.947 128.832,-135.142 130.056,-128.25"/>
</g>
<!-- Node14 -->
<g id="node15" class="node"><title>Node14</title>
<polygon fill="white" stroke="#bfbfbf" points="1089.5,-112.5 1089.5,-131.5 1130.5,-131.5 1130.5,-112.5 1089.5,-112.5"/>
<text text-anchor="middle" x="1110" y="-119.5" font-family="Helvetica,sans-Serif" font-size="10.00">string</text>
</g>
<!-- Node13&#45;&gt;Node14 -->
<g id="edge14" class="edge"><title>Node13&#45;&gt;Node14</title>
<path fill="none" stroke="midnightblue" d="M697.401,-170.303C701.951,-169.454 706.587,-168.655 711,-168 870.81,-144.284 916.547,-163.059 1079.59,-131.667"/>
<polygon fill="midnightblue" stroke="midnightblue" points="1080.33,-135.088 1089.48,-129.73 1078.99,-128.218 1080.33,-135.088"/>
</g>
<!-- Node15 -->
<g id="node16" class="node"><title>Node15</title>
<polygon fill="white" stroke="#bfbfbf" points="1213,-112.5 1213,-131.5 1259,-131.5 1259,-112.5 1213,-112.5"/>
<text text-anchor="middle" x="1236" y="-119.5" font-family="Helvetica,sans-Serif" font-size="10.00">cstdint</text>
</g>
<!-- Node13&#45;&gt;Node15 -->
<g id="edge16" class="edge"><title>Node13&#45;&gt;Node15</title>
<path fill="none" stroke="midnightblue" d="M697.07,-175.183C793.481,-169.427 1087.5,-150.944 1202.76,-131.838"/>
<polygon fill="midnightblue" stroke="midnightblue" points="1203.45,-135.272 1212.7,-130.107 1202.25,-128.375 1203.45,-135.272"/>
</g>
<!-- Node16 -->
<g id="node17" class="node"><title>Node16</title>
<polygon fill="white" stroke="#bfbfbf" points="827.5,-112.5 827.5,-131.5 880.5,-131.5 880.5,-112.5 827.5,-112.5"/>
<text text-anchor="middle" x="854" y="-119.5" font-family="Helvetica,sans-Serif" font-size="10.00">cstdbool</text>
</g>
<!-- Node13&#45;&gt;Node16 -->
<g id="edge17" class="edge"><title>Node13&#45;&gt;Node16</title>
<path fill="none" stroke="midnightblue" d="M695.789,-168.444C728.771,-158.97 781.956,-143.693 817.437,-133.502"/>
<polygon fill="midnightblue" stroke="midnightblue" points="818.745,-136.768 827.39,-130.643 816.812,-130.04 818.745,-136.768"/>
</g>
<!-- Node17 -->
<g id="node18" class="node"><title>Node17</title>
<polygon fill="white" stroke="#bfbfbf" points="898.5,-112.5 898.5,-131.5 943.5,-131.5 943.5,-112.5 898.5,-112.5"/>
<text text-anchor="middle" x="921" y="-119.5" font-family="Helvetica,sans-Serif" font-size="10.00">climits</text>
</g>
<!-- Node13&#45;&gt;Node17 -->
<g id="edge18" class="edge"><title>Node13&#45;&gt;Node17</title>
<path fill="none" stroke="midnightblue" d="M697.153,-170.745C749.853,-160.16 853.628,-139.299 888.133,-131.887"/>
<polygon fill="midnightblue" stroke="midnightblue" points="889.336,-135.204 898.33,-129.603 887.806,-128.373 889.336,-135.204"/>
</g>
<!-- Node18 -->
<g id="node19" class="node"><title>Node18</title>
<polygon fill="white" stroke="#bfbfbf" points="961.5,-112.5 961.5,-131.5 1008.5,-131.5 1008.5,-112.5 961.5,-112.5"/>
<text text-anchor="middle" x="985" y="-119.5" font-family="Helvetica,sans-Serif" font-size="10.00">clocale</text>
</g>
<!-- Node13&#45;&gt;Node18 -->
<g id="edge19" class="edge"><title>Node13&#45;&gt;Node18</title>
<path fill="none" stroke="midnightblue" d="M697.434,-170.509C701.979,-169.63 706.605,-168.767 711,-168 814.56,-149.92 844.291,-154.019 951.377,-131.902"/>
<polygon fill="midnightblue" stroke="midnightblue" points="952.218,-135.302 961.288,-129.826 950.783,-128.45 952.218,-135.302"/>
</g>
<!-- Node19 -->
<g id="node20" class="node"><title>Node19</title>
<polygon fill="white" stroke="#bfbfbf" points="1027,-112.5 1027,-131.5 1071,-131.5 1071,-112.5 1027,-112.5"/>
<text text-anchor="middle" x="1049" y="-119.5" font-family="Helvetica,sans-Serif" font-size="10.00">cerrno</text>
</g>
<!-- Node13&#45;&gt;Node19 -->
<g id="edge20" class="edge"><title>Node13&#45;&gt;Node19</title>
<path fill="none" stroke="midnightblue" d="M697.413,-170.383C701.961,-169.522 706.593,-168.699 711,-168 843.078,-147.057 880.913,-158.073 1016.77,-131.71"/>
<polygon fill="midnightblue" stroke="midnightblue" points="1017.6,-135.115 1026.73,-129.746 1016.24,-128.248 1017.6,-135.115"/>
</g>
<!-- Node20 -->
<g id="node21" class="node"><title>Node20</title>
<polygon fill="white" stroke="#bfbfbf" points="334,-112.5 334,-131.5 378,-131.5 378,-112.5 334,-112.5"/>
<text text-anchor="middle" x="356" y="-119.5" font-family="Helvetica,sans-Serif" font-size="10.00">cmath</text>
</g>
<!-- Node13&#45;&gt;Node20 -->
<g id="edge21" class="edge"><title>Node13&#45;&gt;Node20</title>
<path fill="none" stroke="midnightblue" d="M634.563,-170.526C630.018,-169.645 625.393,-168.777 621,-168 520.521,-150.232 491.485,-154.433 388.16,-132.017"/>
<polygon fill="midnightblue" stroke="midnightblue" points="388.78,-128.57 378.262,-129.838 387.276,-135.406 388.78,-128.57"/>
</g>
<!-- Node21 -->
<g id="node22" class="node"><title>Node21</title>
<polygon fill="white" stroke="#bfbfbf" points="396,-112.5 396,-131.5 442,-131.5 442,-112.5 396,-112.5"/>
<text text-anchor="middle" x="419" y="-119.5" font-family="Helvetica,sans-Serif" font-size="10.00">cctype</text>
</g>
<!-- Node13&#45;&gt;Node21 -->
<g id="edge23" class="edge"><title>Node13&#45;&gt;Node21</title>
<path fill="none" stroke="midnightblue" d="M634.702,-170.722C587.437,-161.198 499.132,-143.228 451.979,-132.082"/>
<polygon fill="midnightblue" stroke="midnightblue" points="452.565,-128.623 442.023,-129.677 450.921,-135.427 452.565,-128.623"/>
</g>
<!-- Node22 -->
<g id="node23" class="node"><title>Node22</title>
<polygon fill="white" stroke="#bfbfbf" points="460,-112.5 460,-131.5 564,-131.5 564,-112.5 460,-112.5"/>
<text text-anchor="middle" x="512" y="-119.5" font-family="Helvetica,sans-Serif" font-size="10.00">libxml/xmlmemory.h</text>
</g>
<!-- Node13&#45;&gt;Node22 -->
<g id="edge24" class="edge"><title>Node13&#45;&gt;Node22</title>
<path fill="none" stroke="midnightblue" d="M641.598,-168.444C615.803,-159.399 574.923,-145.064 545.982,-134.916"/>
<polygon fill="midnightblue" stroke="midnightblue" points="546.882,-131.523 536.288,-131.516 544.566,-138.128 546.882,-131.523"/>
</g>
<!-- Node23 -->
<g id="node24" class="node"><title>Node23</title>
<polygon fill="white" stroke="#bfbfbf" points="1277,-112.5 1277,-131.5 1357,-131.5 1357,-112.5 1277,-112.5"/>
<text text-anchor="middle" x="1317" y="-119.5" font-family="Helvetica,sans-Serif" font-size="10.00">libxml/parser.h</text>
</g>
<!-- Node13&#45;&gt;Node23 -->
<g id="edge25" class="edge"><title>Node13&#45;&gt;Node23</title>
<path fill="none" stroke="midnightblue" d="M697.277,-175.107C801.523,-168.729 1137.38,-147.618 1266.88,-131.976"/>
<polygon fill="midnightblue" stroke="midnightblue" points="1267.46,-135.432 1276.94,-130.718 1266.59,-128.487 1267.46,-135.432"/>
</g>
<!-- Node24 -->
<g id="node25" class="node"><title>Node24</title>
<polygon fill="white" stroke="#bfbfbf" points="582,-112.5 582,-131.5 638,-131.5 638,-112.5 582,-112.5"/>
<text text-anchor="middle" x="610" y="-119.5" font-family="Helvetica,sans-Serif" font-size="10.00">cinttypes</text>
</g>
<!-- Node13&#45;&gt;Node24 -->
<g id="edge26" class="edge"><title>Node13&#45;&gt;Node24</title>
<path fill="none" stroke="midnightblue" d="M657.003,-168.324C648.806,-160.42 636.494,-148.548 626.528,-138.938"/>
<polygon fill="midnightblue" stroke="midnightblue" points="628.789,-136.256 619.161,-131.834 623.93,-141.295 628.789,-136.256"/>
</g>
<!-- Node25 -->
<g id="node26" class="node"><title>Node25</title>
<polygon fill="white" stroke="#bfbfbf" points="1375,-112.5 1375,-131.5 1413,-131.5 1413,-112.5 1375,-112.5"/>
<text text-anchor="middle" x="1394" y="-119.5" font-family="Helvetica,sans-Serif" font-size="10.00">array</text>
</g>
<!-- Node13&#45;&gt;Node25 -->
<g id="edge28" class="edge"><title>Node13&#45;&gt;Node25</title>
<path fill="none" stroke="midnightblue" d="M697.065,-175.107C822.196,-167.471 1285.98,-139.048 1364.52,-131.13"/>
<polygon fill="midnightblue" stroke="midnightblue" points="1365.39,-134.548 1374.88,-129.832 1364.52,-127.603 1365.39,-134.548"/>
</g>
<!-- Node26 -->
<g id="node27" class="node"><title>Node26</title>
<polygon fill="white" stroke="#bfbfbf" points="1431,-112.5 1431,-131.5 1481,-131.5 1481,-112.5 1431,-112.5"/>
<text text-anchor="middle" x="1456" y="-119.5" font-family="Helvetica,sans-Serif" font-size="10.00">iomanip</text>
</g>
<!-- Node13&#45;&gt;Node26 -->
<g id="edge30" class="edge"><title>Node13&#45;&gt;Node26</title>
<path fill="none" stroke="midnightblue" d="M697.315,-175.157C829.762,-167.359 1340.46,-137.267 1420.52,-131.183"/>
<polygon fill="midnightblue" stroke="midnightblue" points="1421.22,-134.634 1430.87,-130.25 1420.59,-127.662 1421.22,-134.634"/>
</g>
<!-- Node27 -->
<g id="node28" class="node"><title>Node27</title>
<g id="a_node28"><a xlink:href="tags_8h.html" target="_top" xlink:title="tags.h">
<polygon fill="white" stroke="black" points="272,-112.5 272,-131.5 316,-131.5 316,-112.5 272,-112.5"/>
<text text-anchor="middle" x="294" y="-119.5" font-family="Helvetica,sans-Serif" font-size="10.00">tags.h</text>
</a>
</g>
</g>
<!-- Node13&#45;&gt;Node27 -->
<g id="edge32" class="edge"><title>Node13&#45;&gt;Node27</title>
<path fill="none" stroke="midnightblue" d="M634.584,-170.399C630.036,-169.536 625.405,-168.707 621,-168 493.346,-147.502 456.617,-158.016 326.213,-131.951"/>
<polygon fill="midnightblue" stroke="midnightblue" points="326.74,-128.487 316.244,-129.924 325.346,-135.346 326.74,-128.487"/>
</g>
<!-- Node28 -->
<g id="node29" class="node"><title>Node28</title>
<g id="a_node29"><a xlink:href="expression__reg__elus_8h.html" target="_top" xlink:title="Expressions régulières représentant les élus. ">
<polygon fill="white" stroke="black" points="582,-56.5 582,-75.5 696,-75.5 696,-56.5 582,-56.5"/>
<text text-anchor="middle" x="639" y="-63.5" font-family="Helvetica,sans-Serif" font-size="10.00">expression_reg_elus.h</text>
</a>
</g>
</g>
<!-- Node13&#45;&gt;Node28 -->
<g id="edge33" class="edge"><title>Node13&#45;&gt;Node28</title>
<path fill="none" stroke="midnightblue" d="M663.881,-168.368C659.524,-150.617 649.473,-109.666 643.565,-85.5974"/>
<polygon fill="midnightblue" stroke="midnightblue" points="646.892,-84.4688 641.109,-75.5914 640.094,-86.1375 646.892,-84.4688"/>
</g>
<!-- Node30 -->
<g id="node31" class="node"><title>Node30</title>
<g id="a_node31"><a xlink:href="expression__reg__cata_8h.html" target="_top" xlink:title="Ce fichier contient les expressions rationnelles permettant d&#39;identifier les catégories statutaires A...">
<polygon fill="white" stroke="black" points="694.5,-112.5 694.5,-131.5 809.5,-131.5 809.5,-112.5 694.5,-112.5"/>
<text text-anchor="middle" x="752" y="-119.5" font-family="Helvetica,sans-Serif" font-size="10.00">expression_reg_cata.h</text>
</a>
</g>
</g>
<!-- Node13&#45;&gt;Node30 -->
<g id="edge35" class="edge"><title>Node13&#45;&gt;Node30</title>
<path fill="none" stroke="midnightblue" d="M679.817,-168.324C693.233,-159.9 713.824,-146.971 729.586,-137.074"/>
<polygon fill="midnightblue" stroke="midnightblue" points="731.609,-139.936 738.217,-131.655 727.887,-134.008 731.609,-139.936"/>
</g>
<!-- Node29 -->
<g id="node30" class="node"><title>Node29</title>
<g id="a_node30"><a xlink:href="expression__reg__commun_8h.html" target="_top" xlink:title="Elements constitutifs des expressions régulières. ">
<polygon fill="white" stroke="black" points="642,-0.5 642,-19.5 776,-19.5 776,-0.5 642,-0.5"/>
<text text-anchor="middle" x="709" y="-7.5" font-family="Helvetica,sans-Serif" font-size="10.00">expression_reg_commun.h</text>
</a>
</g>
</g>
<!-- Node28&#45;&gt;Node29 -->
<g id="edge34" class="edge"><title>Node28&#45;&gt;Node29</title>
<path fill="none" stroke="midnightblue" d="M650.247,-56.324C660.797,-48.1849 676.801,-35.8395 689.442,-26.0874"/>
<polygon fill="midnightblue" stroke="midnightblue" points="691.769,-28.7132 697.549,-19.8339 687.493,-23.1707 691.769,-28.7132"/>
</g>
<!-- Node31 -->
<g id="node32" class="node"><title>Node31</title>
<g id="a_node32"><a xlink:href="expression__reg__adjoints_8h.html" target="_top" xlink:title="Expressions régulières de niveau adjoints / auxiliaires / aides (catégories C) ">
<polygon fill="white" stroke="black" points="714,-56.5 714,-75.5 844,-75.5 844,-56.5 714,-56.5"/>
<text text-anchor="middle" x="779" y="-63.5" font-family="Helvetica,sans-Serif" font-size="10.00">expression_reg_adjoints.h</text>
</a>
</g>
</g>
<!-- Node30&#45;&gt;Node31 -->
<g id="edge36" class="edge"><title>Node30&#45;&gt;Node31</title>
<path fill="none" stroke="midnightblue" d="M756.459,-112.083C760.154,-104.691 765.523,-93.9533 770.094,-84.8111"/>
<polygon fill="midnightblue" stroke="midnightblue" points="773.283,-86.2606 774.624,-75.7511 767.022,-83.1301 773.283,-86.2606"/>
</g>
<!-- Node31&#45;&gt;Node29 -->
<g id="edge37" class="edge"><title>Node31&#45;&gt;Node29</title>
<path fill="none" stroke="midnightblue" d="M767.753,-56.324C757.203,-48.1849 741.199,-35.8395 728.558,-26.0874"/>
<polygon fill="midnightblue" stroke="midnightblue" points="730.507,-23.1707 720.451,-19.8339 726.231,-28.7132 730.507,-23.1707"/>
</g>
<!-- Node32&#45;&gt;Node1 -->
<g id="edge45" class="edge"><title>Node32&#45;&gt;Node1</title>
<path fill="none" stroke="midnightblue" d="M830.364,-225.924C770.958,-218.13 675.009,-204.49 593,-188 591.721,-187.743 590.419,-187.47 589.106,-187.186"/>
<polygon fill="midnightblue" stroke="midnightblue" points="589.543,-183.694 579.011,-184.848 587.963,-190.514 589.543,-183.694"/>
</g>
<!-- Node32&#45;&gt;Node2 -->
<g id="edge41" class="edge"><title>Node32&#45;&gt;Node2</title>
<path fill="none" stroke="midnightblue" d="M830.194,-227.442C758.894,-220.116 632.968,-206.021 526,-188 411.374,-168.689 381.07,-159.453 264.17,-132.224"/>
<polygon fill="midnightblue" stroke="midnightblue" points="264.635,-128.738 254.102,-129.884 263.05,-135.557 264.635,-128.738"/>
</g>
<!-- Node32&#45;&gt;Node4 -->
<g id="edge44" class="edge"><title>Node32&#45;&gt;Node4</title>
<path fill="none" stroke="midnightblue" d="M830.213,-230.271C741.5,-225.399 564.864,-213.256 417,-188 368.687,-179.748 253.947,-148.938 192.132,-132.245"/>
<polygon fill="midnightblue" stroke="midnightblue" points="192.888,-128.824 182.321,-129.595 191.063,-135.582 192.888,-128.824"/>
</g>
<!-- Node32&#45;&gt;Node8 -->
<g id="edge46" class="edge"><title>Node32&#45;&gt;Node8</title>
<path fill="none" stroke="midnightblue" d="M891.619,-224.165C899.608,-209.841 917.438,-181.765 941,-168 1018.23,-122.883 1051.77,-151.785 1139,-132 1139.1,-131.977 1139.2,-131.954 1139.3,-131.931"/>
<polygon fill="midnightblue" stroke="midnightblue" points="1140.11,-135.337 1148.98,-129.549 1138.44,-128.54 1140.11,-135.337"/>
</g>
<!-- Node32&#45;&gt;Node9 -->
<g id="edge42" class="edge"><title>Node32&#45;&gt;Node9</title>
<path fill="none" stroke="midnightblue" d="M943.588,-228.327C1070.48,-217.846 1370.77,-193.04 1429.77,-187.347"/>
<polygon fill="midnightblue" stroke="midnightblue" points="1430.17,-190.824 1439.73,-186.264 1429.41,-183.865 1430.17,-190.824"/>
</g>
<!-- Node32&#45;&gt;Node13 -->
<g id="edge39" class="edge"><title>Node32&#45;&gt;Node13</title>
<path fill="none" stroke="midnightblue" d="M851.982,-224.444C812.628,-214.828 748.806,-199.233 707.116,-189.046"/>
<polygon fill="midnightblue" stroke="midnightblue" points="707.826,-185.617 697.281,-186.643 706.164,-192.417 707.826,-185.617"/>
</g>
<!-- Node32&#45;&gt;Node14 -->
<g id="edge54" class="edge"><title>Node32&#45;&gt;Node14</title>
<path fill="none" stroke="midnightblue" d="M866.414,-224.43C840.4,-212.422 801.159,-189.63 820,-168 856.516,-126.079 1007.85,-142.646 1079.48,-131.478"/>
<polygon fill="midnightblue" stroke="midnightblue" points="1080.26,-134.893 1089.45,-129.619 1078.98,-128.012 1080.26,-134.893"/>
</g>
<!-- Node32&#45;&gt;Node15 -->
<g id="edge47" class="edge"><title>Node32&#45;&gt;Node15</title>
<path fill="none" stroke="midnightblue" d="M896.067,-224.386C911.653,-210.121 945.132,-181.798 979,-168 1069.86,-130.985 1103.01,-152.309 1202.79,-131.999"/>
<polygon fill="midnightblue" stroke="midnightblue" points="1203.61,-135.404 1212.66,-129.901 1202.15,-128.557 1203.61,-135.404"/>
</g>
<!-- Node32&#45;&gt;Node23 -->
<g id="edge40" class="edge"><title>Node32&#45;&gt;Node23</title>
<path fill="none" stroke="midnightblue" d="M904.06,-224.382C938.65,-206.919 1014.03,-168.927 1017,-168 1121.52,-135.32 1154.89,-149.327 1266.91,-132.085"/>
<polygon fill="midnightblue" stroke="midnightblue" points="1267.58,-135.522 1276.91,-130.495 1266.49,-128.609 1267.58,-135.522"/>
</g>
<!-- Node32&#45;&gt;Node25 -->
<g id="edge55" class="edge"><title>Node32&#45;&gt;Node25</title>
<path fill="none" stroke="midnightblue" d="M912.395,-224.439C937.616,-215.783 977.285,-201.756 1011,-188 1030.89,-179.885 1034.3,-173.749 1055,-168 1185.93,-131.633 1228.03,-160.03 1364.84,-131.829"/>
<polygon fill="midnightblue" stroke="midnightblue" points="1365.8,-135.203 1374.86,-129.699 1364.35,-128.356 1365.8,-135.203"/>
</g>
<!-- Node32&#45;&gt;Node26 -->
<g id="edge48" class="edge"><title>Node32&#45;&gt;Node26</title>
<path fill="none" stroke="midnightblue" d="M924.471,-224.485C957.292,-216.552 1006.01,-203.615 1047,-188 1065.95,-180.782 1068.52,-173.615 1088,-168 1228.38,-127.54 1273.27,-157.817 1420.97,-131.902"/>
<polygon fill="midnightblue" stroke="midnightblue" points="1421.63,-135.339 1430.85,-130.113 1420.38,-128.451 1421.63,-135.339"/>
</g>
<!-- Node32&#45;&gt;Node27 -->
<g id="edge56" class="edge"><title>Node32&#45;&gt;Node27</title>
<path fill="none" stroke="midnightblue" d="M830.5,-228.411C776.768,-222.854 694.242,-211.192 626,-188 607.93,-181.859 606.174,-173.827 588,-168 478.726,-132.966 442.39,-155.216 326.24,-131.955"/>
<polygon fill="midnightblue" stroke="midnightblue" points="326.755,-128.488 316.252,-129.883 325.333,-135.342 326.755,-128.488"/>
</g>
<!-- Node33 -->
<g id="node34" class="node"><title>Node33</title>
<polygon fill="white" stroke="#bfbfbf" points="1372,-168.5 1372,-187.5 1422,-187.5 1422,-168.5 1372,-168.5"/>
<text text-anchor="middle" x="1397" y="-175.5" font-family="Helvetica,sans-Serif" font-size="10.00">fstream</text>
</g>
<!-- Node32&#45;&gt;Node33 -->
<g id="edge43" class="edge"><title>Node32&#45;&gt;Node33</title>
<path fill="none" stroke="midnightblue" d="M943.559,-225.637C948.441,-225.06 953.306,-224.506 958,-224 1134.42,-204.984 1183.26,-218.718 1361.86,-187.912"/>
<polygon fill="midnightblue" stroke="midnightblue" points="1362.61,-191.335 1371.85,-186.166 1361.4,-184.44 1362.61,-191.335"/>
</g>
<!-- Node34 -->
<g id="node35" class="node"><title>Node34</title>
<polygon fill="white" stroke="#bfbfbf" points="1097.5,-168.5 1097.5,-187.5 1140.5,-187.5 1140.5,-168.5 1097.5,-168.5"/>
<text text-anchor="middle" x="1119" y="-175.5" font-family="Helvetica,sans-Serif" font-size="10.00">cstdio</text>
</g>
<!-- Node32&#45;&gt;Node34 -->
<g id="edge49" class="edge"><title>Node32&#45;&gt;Node34</title>
<path fill="none" stroke="midnightblue" d="M925.359,-224.423C964.909,-215.526 1028.34,-201.106 1083,-188 1084.45,-187.653 1085.93,-187.295 1087.42,-186.931"/>
<polygon fill="midnightblue" stroke="midnightblue" points="1088.44,-190.285 1097.31,-184.493 1086.77,-183.488 1088.44,-190.285"/>
</g>
<!-- Node35 -->
<g id="node36" class="node"><title>Node35</title>
<polygon fill="white" stroke="#bfbfbf" points="1158.5,-168.5 1158.5,-187.5 1205.5,-187.5 1205.5,-168.5 1158.5,-168.5"/>
<text text-anchor="middle" x="1182" y="-175.5" font-family="Helvetica,sans-Serif" font-size="10.00">iterator</text>
</g>
<!-- Node32&#45;&gt;Node35 -->
<g id="edge50" class="edge"><title>Node32&#45;&gt;Node35</title>
<path fill="none" stroke="midnightblue" d="M943.525,-224.899C994.61,-217.214 1072.04,-204.666 1148.47,-187.933"/>
<polygon fill="midnightblue" stroke="midnightblue" points="1149.27,-191.343 1158.27,-185.764 1147.75,-184.508 1149.27,-191.343"/>
</g>
<!-- Node36 -->
<g id="node37" class="node"><title>Node36</title>
<polygon fill="white" stroke="#bfbfbf" points="1224,-168.5 1224,-187.5 1284,-187.5 1284,-168.5 1224,-168.5"/>
<text text-anchor="middle" x="1254" y="-175.5" font-family="Helvetica,sans-Serif" font-size="10.00">sys/stat.h</text>
</g>
<!-- Node32&#45;&gt;Node36 -->
<g id="edge51" class="edge"><title>Node32&#45;&gt;Node36</title>
<path fill="none" stroke="midnightblue" d="M943.592,-225.8C1022.99,-215.598 1163.39,-197.159 1214,-188 1214.1,-187.982 1214.2,-187.963 1214.3,-187.945"/>
<polygon fill="midnightblue" stroke="midnightblue" points="1214.78,-191.419 1223.91,-186.056 1213.43,-184.55 1214.78,-191.419"/>
</g>
<!-- Node37 -->
<g id="node38" class="node"><title>Node37</title>
<polygon fill="white" stroke="#bfbfbf" points="1302,-168.5 1302,-187.5 1354,-187.5 1354,-168.5 1302,-168.5"/>
<text text-anchor="middle" x="1328" y="-175.5" font-family="Helvetica,sans-Serif" font-size="10.00">memory</text>
</g>
<!-- Node32&#45;&gt;Node37 -->
<g id="edge52" class="edge"><title>Node32&#45;&gt;Node37</title>
<path fill="none" stroke="midnightblue" d="M943.569,-225.731C948.449,-225.134 953.311,-224.549 958,-224 1103.53,-206.958 1143.93,-214.379 1291.82,-187.981"/>
<polygon fill="midnightblue" stroke="midnightblue" points="1292.5,-191.415 1301.72,-186.193 1291.25,-184.527 1292.5,-191.415"/>
</g>
<!-- Node38 -->
<g id="node39" class="node"><title>Node38</title>
<polygon fill="white" stroke="#bfbfbf" points="829.5,-168.5 829.5,-187.5 888.5,-187.5 888.5,-168.5 829.5,-168.5"/>
<text text-anchor="middle" x="859" y="-175.5" font-family="Helvetica,sans-Serif" font-size="10.00">stdexcept</text>
</g>
<!-- Node32&#45;&gt;Node38 -->
<g id="edge53" class="edge"><title>Node32&#45;&gt;Node38</title>
<path fill="none" stroke="midnightblue" d="M882.376,-224.083C878.544,-216.691 872.976,-205.953 868.235,-196.811"/>
<polygon fill="midnightblue" stroke="midnightblue" points="871.248,-195.018 863.538,-187.751 865.034,-198.24 871.248,-195.018"/>
</g>
<!-- Node39&#45;&gt;Node2 -->
<g id="edge62" class="edge"><title>Node39&#45;&gt;Node2</title>
<path fill="none" stroke="midnightblue" d="M486.872,-224.368C437.039,-204.93 315.893,-157.674 258.348,-135.228"/>
<polygon fill="midnightblue" stroke="midnightblue" points="259.614,-131.965 249.025,-131.591 257.07,-138.486 259.614,-131.965"/>
</g>
<!-- Node39&#45;&gt;Node4 -->
<g id="edge60" class="edge"><title>Node39&#45;&gt;Node4</title>
<path fill="none" stroke="midnightblue" d="M485.987,-227.723C452.805,-219.947 389.718,-204.534 337,-188 285.117,-171.728 226.045,-149.207 190.956,-135.397"/>
<polygon fill="midnightblue" stroke="midnightblue" points="191.883,-131.999 181.296,-131.576 189.308,-138.509 191.883,-131.999"/>
</g>
<!-- Node39&#45;&gt;Node13 -->
<g id="edge58" class="edge"><title>Node39&#45;&gt;Node13</title>
<path fill="none" stroke="midnightblue" d="M532.166,-225.032C558.375,-216.018 601.327,-201.244 631.487,-190.871"/>
<polygon fill="midnightblue" stroke="midnightblue" points="632.865,-194.098 641.182,-187.536 630.588,-187.479 632.865,-194.098"/>
</g>
<!-- Node39&#45;&gt;Node14 -->
<g id="edge61" class="edge"><title>Node39&#45;&gt;Node14</title>
<path fill="none" stroke="midnightblue" d="M532.188,-229.338C569.47,-223.088 644.765,-208.972 706,-188 725.94,-181.171 728.697,-173.659 749,-168 888.343,-129.159 932.967,-159.933 1079.22,-131.738"/>
<polygon fill="midnightblue" stroke="midnightblue" points="1080.34,-135.084 1089.47,-129.7 1078.98,-128.218 1080.34,-135.084"/>
</g>
<!-- Node39&#45;&gt;Node27 -->
<g id="edge59" class="edge"><title>Node39&#45;&gt;Node27</title>
<path fill="none" stroke="midnightblue" d="M499.89,-224.29C485.191,-210.64 454.861,-184.109 425,-168 407.642,-158.636 358.745,-142.797 325.853,-132.625"/>
<polygon fill="midnightblue" stroke="midnightblue" points="326.798,-129.254 316.211,-129.663 324.743,-135.945 326.798,-129.254"/>
</g>
<!-- Node40&#45;&gt;Node13 -->
<g id="edge65" class="edge"><title>Node40&#45;&gt;Node13</title>
<path fill="none" stroke="midnightblue" d="M812.524,-280.368C785.355,-261.573 720.592,-216.768 687.007,-193.533"/>
<polygon fill="midnightblue" stroke="midnightblue" points="688.634,-190.403 678.419,-187.591 684.651,-196.159 688.634,-190.403"/>
</g>
<!-- Node40&#45;&gt;Node32 -->
<g id="edge66" class="edge"><title>Node40&#45;&gt;Node32</title>
<path fill="none" stroke="midnightblue" d="M834.961,-280.324C844.127,-272.341 857.937,-260.313 869.028,-250.653"/>
<polygon fill="midnightblue" stroke="midnightblue" points="871.615,-253.041 876.857,-243.834 867.018,-247.762 871.615,-253.041"/>
</g>
<!-- Node40&#45;&gt;Node33 -->
<g id="edge64" class="edge"><title>Node40&#45;&gt;Node33</title>
<path fill="none" stroke="midnightblue" d="M851.517,-280.346C877.383,-271.731 917.727,-257.832 952,-244 971.92,-235.961 975.253,-229.568 996,-224 1151.05,-182.388 1199.71,-215.639 1361.54,-187.96"/>
<polygon fill="midnightblue" stroke="midnightblue" points="1362.61,-191.324 1371.85,-186.14 1361.39,-184.431 1362.61,-191.324"/>
</g>
</g>
</svg>
        <g id="navigator" transform="translate(0 0)" fill="#404254">
                <rect fill="#f2f5e9" fill-opacity="0.5" stroke="#606060" stroke-width=".5" x="0" y="0" width="60" height="60"/>
                <use id="zoomplus" xlink:href="#zoomPlus" x="17" y="9" onmousedown="handleZoom(evt,'in')"/>
                <use id="zoomminus" xlink:href="#zoomMin" x="42" y="9" onmousedown="handleZoom(evt,'out')"/>
                <use id="reset" xlink:href="#resetDef" x="30" y="36" onmousedown="handleReset()"/>
                <g id="arrowUp" xlink:href="#dirArrow" transform="translate(30 24)" onmousedown="handlePan(0,-1)">
                  <use xlink:href="#rim" fill="#404040">
                        <set attributeName="fill" to="#808080" begin="arrowUp.mouseover" end="arrowUp.mouseout"/>
                  </use>
                  <path fill="none" stroke="white" stroke-width="1.5" d="M0,-3.0v7 M-2.5,-0.5L0,-3.0L2.5,-0.5"/>
                </g>
                <g id="arrowRight" xlink:href="#dirArrow" transform="rotate(90) translate(36 -43)" onmousedown="handlePan(1,0)">
                  <use xlink:href="#rim" fill="#404040">
                        <set attributeName="fill" to="#808080" begin="arrowRight.mouseover" end="arrowRight.mouseout"/>
                  </use>
                  <path fill="none" stroke="white" stroke-width="1.5" d="M0,-3.0v7 M-2.5,-0.5L0,-3.0L2.5,-0.5"/>
                </g>
                <g id="arrowDown" xlink:href="#dirArrow" transform="rotate(180) translate(-30 -48)" onmousedown="handlePan(0,1)">
                  <use xlink:href="#rim" fill="#404040">
                        <set attributeName="fill" to="#808080" begin="arrowDown.mouseover" end="arrowDown.mouseout"/>
                  </use>
                  <path fill="none" stroke="white" stroke-width="1.5" d="M0,-3.0v7 M-2.5,-0.5L0,-3.0L2.5,-0.5"/>
                </g>
                <g id="arrowLeft" xlink:href="#dirArrow" transform="rotate(270) translate(-36 17)" onmousedown="handlePan(-1,0)">
                  <use xlink:href="#rim" fill="#404040">
                        <set attributeName="fill" to="#808080" begin="arrowLeft.mouseover" end="arrowLeft.mouseout"/>
                  </use>
                  <path fill="none" stroke="white" stroke-width="1.5" d="M0,-3.0v7 M-2.5,-0.5L0,-3.0L2.5,-0.5"/>
                </g>
        </g>
        <svg viewBox="0 0 15 15" width="100%" height="30px" preserveAspectRatio="xMaxYMin meet">
         <g id="arrow_out" transform="scale(0.3 0.3)">
          <a xlink:href="lhx_2main_8cpp__incl_org.svg" target="_base">
           <rect id="button" ry="5" rx="5" y="6" x="6" height="38" width="38"
                fill="#f2f5e9" fill-opacity="0.5" stroke="#606060" stroke-width="1.0"/>
           <path id="arrow"
             d="M 11.500037,31.436501 C 11.940474,20.09759 22.043105,11.32322 32.158766,21.979434 L 37.068811,17.246167 C 37.068811,17.246167 37.088388,32 37.088388,32 L 22.160133,31.978069 C 22.160133,31.978069 26.997745,27.140456 26.997745,27.140456 C 18.528582,18.264221 13.291696,25.230495 11.500037,31.436501 z"
             style="fill:#404040;"/>
          </a>
         </g>
        </svg>
</svg>
