<?xml version="1.0" encoding="UTF-8" standalone="no"?>
<!DOCTYPE svg PUBLIC "-//W3C//DTD SVG 1.1//EN"
 "http://www.w3.org/Graphics/SVG/1.1/DTD/svg11.dtd">
<!-- Generated by graphviz version 2.38.0 (20140413.2041)
 -->
<!-- Title: bulletin_optionnel_char Pages: 1 -->
<svg width="406pt" height="104pt"
 viewBox="0.00 0.00 406.00 104.00" xmlns="http://www.w3.org/2000/svg" xmlns:xlink="http://www.w3.org/1999/xlink">
<g id="graph0" class="graph" transform="scale(1 1) rotate(0) translate(4 100)">
<title>bulletin_optionnel_char</title>
<polygon fill="white" stroke="none" points="-4,4 -4,-100 402,-100 402,4 -4,4"/>
<!-- Node48 -->
<g id="node1" class="node"><title>Node48</title>
<polygon fill="#bfbfbf" stroke="black" points="0,-19.5 0,-38.5 116,-38.5 116,-19.5 0,-19.5"/>
<text text-anchor="middle" x="58" y="-26.5" font-family="Helvetica,sans-Serif" font-size="10.00">bulletin_optionnel_char</text>
</g>
<!-- Node49 -->
<g id="node2" class="node"><title>Node49</title>
<g id="a_node2"><a xlink:href="ligne__paye_8cpp.html#a8720dbeccf4eabbc5ffa9d7be551a7a5" target="_top" xlink:title="Atteint le prochain noeud de libellé donné, après un saut éventuel, et le lit. ">
<polygon fill="white" stroke="black" points="164.5,-38.5 164.5,-57.5 213.5,-57.5 213.5,-38.5 164.5,-38.5"/>
<text text-anchor="middle" x="189" y="-45.5" font-family="Helvetica,sans-Serif" font-size="10.00">Bulletin</text>
</a>
</g>
</g>
<!-- Node48&#45;&gt;Node49 -->
<g id="edge1" class="edge"><title>Node48&#45;&gt;Node49</title>
<path fill="none" stroke="midnightblue" d="M116.333,-37.4443C129.315,-39.3565 142.69,-41.3265 154.319,-43.0392"/>
<polygon fill="midnightblue" stroke="midnightblue" points="154.042,-46.5361 164.445,-44.5306 155.062,-39.6108 154.042,-46.5361"/>
</g>
<!-- Node52 -->
<g id="node5" class="node"><title>Node52</title>
<g id="a_node5"><a xlink:href="ligne__paye_8h.html#af031260c541b3083b610927c3e547b28" target="_top" xlink:title="Affiche un message d&#39;avertissement sur la sortie d&#39;erreur lorsqu&#39;un noeud XML ne peut être atteint...">
<polygon fill="white" stroke="black" points="152,-0.5 152,-19.5 226,-19.5 226,-0.5 152,-0.5"/>
<text text-anchor="middle" x="189" y="-7.5" font-family="Helvetica,sans-Serif" font-size="10.00">warning_msg</text>
</a>
</g>
</g>
<!-- Node48&#45;&gt;Node52 -->
<g id="edge4" class="edge"><title>Node48&#45;&gt;Node52</title>
<path fill="none" stroke="midnightblue" d="M116.333,-20.5557C124.944,-19.2874 133.727,-17.9937 142.059,-16.7665"/>
<polygon fill="midnightblue" stroke="midnightblue" points="142.573,-20.2286 151.956,-15.3087 141.553,-13.3033 142.573,-20.2286"/>
</g>
<!-- Node50 -->
<g id="node3" class="node"><title>Node50</title>
<g id="a_node3"><a xlink:href="validator_8h.html#a5e23405e20d220ba90a7b2213f7a70fb" target="_top" xlink:title="Permet d&#39;atteindre un noeud donné par son libellé de balise XML à partir d&#39;un pointeur XmlNodePtr de ...">
<polygon fill="white" stroke="black" points="288.5,-76.5 288.5,-95.5 371.5,-95.5 371.5,-76.5 288.5,-76.5"/>
<text text-anchor="middle" x="330" y="-83.5" font-family="Helvetica,sans-Serif" font-size="10.00">atteindreNoeud</text>
</a>
</g>
</g>
<!-- Node49&#45;&gt;Node50 -->
<g id="edge2" class="edge"><title>Node49&#45;&gt;Node50</title>
<path fill="none" stroke="midnightblue" d="M213.579,-54.4462C232.895,-59.7267 260.776,-67.3488 284.296,-73.7788"/>
<polygon fill="midnightblue" stroke="midnightblue" points="283.503,-77.1902 294.072,-76.4512 285.349,-70.438 283.503,-77.1902"/>
</g>
<!-- Node51 -->
<g id="node4" class="node"><title>Node51</title>
<g id="a_node4"><a xlink:href="ligne__paye_8cpp.html#a6044ec3fae81f42425539be4d999edd4" target="_top" xlink:title="Remplace les occurrences d&#39;un caractère à l&#39;intérieur d&#39;une chaîne xmlChar* par le &#160;caractère &#39;_&#39;...">
<polygon fill="white" stroke="black" points="305,-38.5 305,-57.5 355,-57.5 355,-38.5 305,-38.5"/>
<text text-anchor="middle" x="330" y="-45.5" font-family="Helvetica,sans-Serif" font-size="10.00">sanitize</text>
</a>
</g>
</g>
<!-- Node49&#45;&gt;Node51 -->
<g id="edge3" class="edge"><title>Node49&#45;&gt;Node51</title>
<path fill="none" stroke="midnightblue" d="M213.579,-48C235.809,-48 269.384,-48 294.6,-48"/>
<polygon fill="midnightblue" stroke="midnightblue" points="294.838,-51.5001 304.838,-48 294.838,-44.5001 294.838,-51.5001"/>
</g>
<!-- Node53 -->
<g id="node6" class="node"><title>Node53</title>
<g id="a_node6"><a xlink:href="fonctions__auxiliaires_8cpp.html#a595f0eff37a7e74c477ad08221736a0d" target="_top" xlink:title="Fonction d&#39;affichage de des lignes du fichier XML de paye entourant celle où se pose un problème de c...">
<polygon fill="white" stroke="black" points="262,-0.5 262,-19.5 398,-19.5 398,-0.5 262,-0.5"/>
<text text-anchor="middle" x="330" y="-7.5" font-family="Helvetica,sans-Serif" font-size="10.00">afficher_environnement_xhl</text>
</a>
</g>
</g>
<!-- Node52&#45;&gt;Node53 -->
<g id="edge5" class="edge"><title>Node52&#45;&gt;Node53</title>
<path fill="none" stroke="midnightblue" d="M226.158,-10C234.106,-10 242.817,-10 251.7,-10"/>
<polygon fill="midnightblue" stroke="midnightblue" points="251.771,-13.5001 261.771,-10 251.771,-6.5001 251.771,-13.5001"/>
</g>
</g>
</svg>
