<?xml version="1.0" encoding="UTF-8" standalone="no"?>
<!DOCTYPE svg PUBLIC "-//W3C//DTD SVG 1.1//EN"
 "http://www.w3.org/Graphics/SVG/1.1/DTD/svg11.dtd">
<!-- Generated by graphviz version 2.38.0 (20140413.2041)
 -->
<!-- Title: lignePaye Pages: 1 -->
<!--zoomable 203 -->
<svg id="main" version="1.1" xmlns="http://www.w3.org/2000/svg" xmlns:xlink="http://www.w3.org/1999/xlink" xml:space="preserve" onload="init(evt)">
<style type="text/css"><![CDATA[
.edge:hover path { stroke: red; }
.edge:hover polygon { stroke: red; fill: red; }
]]></style>
<script type="text/javascript"><![CDATA[
var edges = document.getElementsByTagName('g');
if (edges && edges.length) {
  for (var i=0;i<edges.length;i++) {
    if (edges[i].id.substr(0,4)=='edge') {
      edges[i].setAttribute('class','edge');
    }
  }
}
]]></script>
        <defs>
                <circle id="rim" cx="0" cy="0" r="7"/>
                <circle id="rim2" cx="0" cy="0" r="3.5"/>
                <g id="zoomPlus">
                        <use xlink:href="#rim" fill="#404040">
                                <set attributeName="fill" to="#808080" begin="zoomplus.mouseover" end="zoomplus.mouseout"/>
                        </use>
                        <path d="M-4,0h8M0,-4v8" fill="none" stroke="white" stroke-width="1.5" pointer-events="none"/>
                </g>
                <g id="zoomMin">
                        <use xlink:href="#rim" fill="#404040">
                                <set attributeName="fill" to="#808080" begin="zoomminus.mouseover" end="zoomminus.mouseout"/>
                        </use>
                        <path d="M-4,0h8" fill="none" stroke="white" stroke-width="1.5" pointer-events="none"/>
                </g>
                <g id="dirArrow">
                        <path fill="none" stroke="white" stroke-width="1.5" d="M0,-3.0v7 M-2.5,-0.5L0,-3.0L2.5,-0.5"/>
                </g>
               <g id="resetDef">
                       <use xlink:href="#rim2" fill="#404040">
                               <set attributeName="fill" to="#808080" begin="reset.mouseover" end="reset.mouseout"/>
                       </use>
               </g>
        </defs>

<script type="text/javascript">
var viewWidth = 570;
var viewHeight = 203;
var sectionId = 'dynsection-14';
</script>
<script xlink:href="svgpan.js"/>
<svg id="graph" class="graph">
<g id="viewport">
<title>lignePaye</title>
<polygon fill="white" stroke="none" points="-4,4 -4,-199 566,-199 566,4 -4,4"/>
<!-- Node83 -->
<g id="node1" class="node"><title>Node83</title>
<polygon fill="#bfbfbf" stroke="black" points="0,-93.5 0,-112.5 63,-112.5 63,-93.5 0,-93.5"/>
<text text-anchor="middle" x="31.5" y="-100.5" font-family="Helvetica,sans-Serif" font-size="10.00">lignePaye</text>
</g>
<!-- Node84 -->
<g id="node2" class="node"><title>Node84</title>
<g id="a_node2"><a xlink:href="ligne__paye_8cpp.html#a45ce15888cd33c4753e852fce36fb56e" target="_top" xlink:title="Appelle Bulletin et affiche l&#39;interprétation des erreurs. ">
<polygon fill="white" stroke="black" points="109.5,-175.5 109.5,-194.5 213.5,-194.5 213.5,-175.5 109.5,-175.5"/>
<text text-anchor="middle" x="161.5" y="-182.5" font-family="Helvetica,sans-Serif" font-size="10.00">bulletin_obligatoire</text>
</a>
</g>
</g>
<!-- Node83&#45;&gt;Node84 -->
<g id="edge1" class="edge"><title>Node83&#45;&gt;Node84</title>
<path fill="none" stroke="midnightblue" d="M40.0687,-112.541C51.45,-126.276 74.2868,-151.553 99,-166 102.636,-168.125 106.534,-170.037 110.539,-171.751"/>
<polygon fill="midnightblue" stroke="midnightblue" points="109.413,-175.068 120.002,-175.402 111.932,-168.537 109.413,-175.068"/>
</g>
<!-- Node90 -->
<g id="node8" class="node"><title>Node90</title>
<g id="a_node8"><a xlink:href="ligne__paye_8cpp.html#a8636e0f8d6d7fce58969c36956342c90" target="_top" xlink:title="Appelle Bulletin. ">
<polygon fill="white" stroke="black" points="109.5,-39 109.5,-69 213.5,-69 213.5,-39 109.5,-39"/>
<text text-anchor="start" x="117.5" y="-57" font-family="Helvetica,sans-Serif" font-size="10.00">bulletin_obligatoire</text>
<text text-anchor="middle" x="161.5" y="-46" font-family="Helvetica,sans-Serif" font-size="10.00">_numerique</text>
</a>
</g>
</g>
<!-- Node83&#45;&gt;Node90 -->
<g id="edge8" class="edge"><title>Node83&#45;&gt;Node90</title>
<path fill="none" stroke="midnightblue" d="M57.4835,-93.436C72.8484,-87.5541 93.0648,-79.815 111.516,-72.7515"/>
<polygon fill="midnightblue" stroke="midnightblue" points="112.882,-75.9767 120.969,-69.1328 110.379,-69.4393 112.882,-75.9767"/>
</g>
<!-- Node92 -->
<g id="node10" class="node"><title>Node92</title>
<g id="a_node10"><a xlink:href="ligne__paye_8cpp.html#a4a91586d82e91ad3e3c02355b57c9e09" target="_top" xlink:title="Appelle Bulletin. ">
<polygon fill="white" stroke="black" points="99,-137.5 99,-156.5 224,-156.5 224,-137.5 99,-137.5"/>
<text text-anchor="middle" x="161.5" y="-144.5" font-family="Helvetica,sans-Serif" font-size="10.00">bulletin_optionnel_char</text>
</a>
</g>
</g>
<!-- Node83&#45;&gt;Node92 -->
<g id="edge12" class="edge"><title>Node83&#45;&gt;Node92</title>
<path fill="none" stroke="midnightblue" d="M57.0062,-112.614C69.5089,-117.417 84.996,-123.209 99,-128 105.176,-130.113 111.734,-132.25 118.18,-134.292"/>
<polygon fill="midnightblue" stroke="midnightblue" points="117.556,-137.763 128.145,-137.402 119.642,-131.081 117.556,-137.763"/>
</g>
<!-- Node93 -->
<g id="node11" class="node"><title>Node93</title>
<g id="a_node11"><a xlink:href="ligne__paye_8cpp.html#a9ddbe10974c6bd265152624a68cd0580" target="_top" xlink:title="Appelle Bulletin. ">
<polygon fill="white" stroke="black" points="112.5,-88 112.5,-118 210.5,-118 210.5,-88 112.5,-88"/>
<text text-anchor="start" x="120.5" y="-106" font-family="Helvetica,sans-Serif" font-size="10.00">bulletin_optionnel</text>
<text text-anchor="middle" x="161.5" y="-95" font-family="Helvetica,sans-Serif" font-size="10.00">_numerique</text>
</a>
</g>
</g>
<!-- Node83&#45;&gt;Node93 -->
<g id="edge15" class="edge"><title>Node83&#45;&gt;Node93</title>
<path fill="none" stroke="midnightblue" d="M63.1592,-103C74.8287,-103 88.5501,-103 101.95,-103"/>
<polygon fill="midnightblue" stroke="midnightblue" points="102.096,-106.5 112.096,-103 102.096,-99.5001 102.096,-106.5"/>
</g>
<!-- Node94 -->
<g id="node12" class="node"><title>Node94</title>
<g id="a_node12"><a xlink:href="ligne__paye_8h.html#a1918a95b8d7eafcb07bcf867242b3514" target="_top" xlink:title="Vérifie que la taille des données de paye en nombre de lignes de paye au décodage effectif des fichie...">
<polygon fill="white" stroke="black" points="123,-0.5 123,-19.5 200,-19.5 200,-0.5 123,-0.5"/>
<text text-anchor="middle" x="161.5" y="-7.5" font-family="Helvetica,sans-Serif" font-size="10.00">verifier_taille</text>
</a>
</g>
</g>
<!-- Node83&#45;&gt;Node94 -->
<g id="edge19" class="edge"><title>Node83&#45;&gt;Node94</title>
<path fill="none" stroke="midnightblue" d="M38.627,-93.311C49.0957,-77.5331 71.9382,-46.3147 99,-29 103.417,-26.174 108.281,-23.7457 113.279,-21.6642"/>
<polygon fill="midnightblue" stroke="midnightblue" points="114.812,-24.8289 122.976,-18.0754 112.382,-18.2641 114.812,-24.8289"/>
</g>
<!-- Node85 -->
<g id="node3" class="node"><title>Node85</title>
<g id="a_node3"><a xlink:href="fonctions__auxiliaires_8cpp.html#a595f0eff37a7e74c477ad08221736a0d" target="_top" xlink:title="Fonction d&#39;affichage de des lignes du fichier XML de paye entourant celle où se pose un problème de c...">
<polygon fill="white" stroke="black" points="414,-167.5 414,-186.5 562,-186.5 562,-167.5 414,-167.5"/>
<text text-anchor="middle" x="488" y="-174.5" font-family="Helvetica,sans-Serif" font-size="10.00">afficher_environnement_xhl</text>
</a>
</g>
</g>
<!-- Node84&#45;&gt;Node85 -->
<g id="edge2" class="edge"><title>Node84&#45;&gt;Node85</title>
<path fill="none" stroke="midnightblue" d="M213.56,-183.741C264.514,-182.485 343.659,-180.534 403.715,-179.053"/>
<polygon fill="midnightblue" stroke="midnightblue" points="404.027,-182.547 413.937,-178.801 403.854,-175.549 404.027,-182.547"/>
</g>
<!-- Node86 -->
<g id="node4" class="node"><title>Node86</title>
<g id="a_node4"><a xlink:href="ligne__paye_8cpp.html#a8720dbeccf4eabbc5ffa9d7be551a7a5" target="_top" xlink:title="Atteint le prochain noeud de libellé donné, après un saut éventuel, et le lit. ">
<polygon fill="white" stroke="black" points="294,-96.5 294,-115.5 344,-115.5 344,-96.5 294,-96.5"/>
<text text-anchor="middle" x="319" y="-103.5" font-family="Helvetica,sans-Serif" font-size="10.00">Bulletin</text>
</a>
</g>
</g>
<!-- Node84&#45;&gt;Node86 -->
<g id="edge3" class="edge"><title>Node84&#45;&gt;Node86</title>
<path fill="none" stroke="midnightblue" d="M203.816,-175.455C210.829,-172.946 217.83,-169.834 224,-166 243.76,-153.721 240.636,-140.895 260,-128 267.409,-123.066 276.08,-119.025 284.426,-115.814"/>
<polygon fill="midnightblue" stroke="midnightblue" points="285.726,-119.067 293.979,-112.423 283.384,-112.47 285.726,-119.067"/>
</g>
<!-- Node89 -->
<g id="node7" class="node"><title>Node89</title>
<g id="a_node7"><a xlink:href="ligne__paye_8h.html#af031260c541b3083b610927c3e547b28" target="_top" xlink:title="Affiche un message d&#39;avertissement sur la sortie d&#39;erreur lorsqu&#39;un noeud XML ne peut être atteint...">
<polygon fill="white" stroke="black" points="279,-137.5 279,-156.5 359,-156.5 359,-137.5 279,-137.5"/>
<text text-anchor="middle" x="319" y="-144.5" font-family="Helvetica,sans-Serif" font-size="10.00">warning_msg</text>
</a>
</g>
</g>
<!-- Node84&#45;&gt;Node89 -->
<g id="edge6" class="edge"><title>Node84&#45;&gt;Node89</title>
<path fill="none" stroke="midnightblue" d="M201.739,-175.411C222.259,-170.396 247.567,-164.212 269.325,-158.895"/>
<polygon fill="midnightblue" stroke="midnightblue" points="270.16,-162.294 279.043,-156.52 268.498,-155.494 270.16,-162.294"/>
</g>
<!-- Node87 -->
<g id="node5" class="node"><title>Node87</title>
<g id="a_node5"><a xlink:href="validator_8h.html#a5e23405e20d220ba90a7b2213f7a70fb" target="_top" xlink:title="Permet d&#39;atteindre un noeud donné par son libellé de balise XML à partir d&#39;un pointeur XmlNodePtr de ...">
<polygon fill="white" stroke="black" points="443.5,-80.5 443.5,-99.5 532.5,-99.5 532.5,-80.5 443.5,-80.5"/>
<text text-anchor="middle" x="488" y="-87.5" font-family="Helvetica,sans-Serif" font-size="10.00">atteindreNoeud</text>
</a>
</g>
</g>
<!-- Node86&#45;&gt;Node87 -->
<g id="edge4" class="edge"><title>Node86&#45;&gt;Node87</title>
<path fill="none" stroke="midnightblue" d="M344.283,-103.673C367.427,-101.456 403.075,-98.0407 432.953,-95.1782"/>
<polygon fill="midnightblue" stroke="midnightblue" points="433.63,-98.6294 443.251,-94.1916 432.962,-91.6613 433.63,-98.6294"/>
</g>
<!-- Node88 -->
<g id="node6" class="node"><title>Node88</title>
<g id="a_node6"><a xlink:href="ligne__paye_8cpp.html#a6044ec3fae81f42425539be4d999edd4" target="_top" xlink:title="Remplace les occurrences d&#39;un caractère à l&#39;intérieur d&#39;une chaîne xmlChar* par le &#160;caractère &#39;_&#39;...">
<polygon fill="white" stroke="black" points="461.5,-118.5 461.5,-137.5 514.5,-137.5 514.5,-118.5 461.5,-118.5"/>
<text text-anchor="middle" x="488" y="-125.5" font-family="Helvetica,sans-Serif" font-size="10.00">sanitize</text>
</a>
</g>
</g>
<!-- Node86&#45;&gt;Node88 -->
<g id="edge5" class="edge"><title>Node86&#45;&gt;Node88</title>
<path fill="none" stroke="midnightblue" d="M344.283,-109.199C372.445,-112.909 419.122,-119.058 451.388,-123.309"/>
<polygon fill="midnightblue" stroke="midnightblue" points="450.944,-126.78 461.316,-124.616 451.859,-119.84 450.944,-126.78"/>
</g>
<!-- Node89&#45;&gt;Node85 -->
<g id="edge7" class="edge"><title>Node89&#45;&gt;Node85</title>
<path fill="none" stroke="midnightblue" d="M359.154,-154.034C378.466,-157.503 402.237,-161.773 424.021,-165.686"/>
<polygon fill="midnightblue" stroke="midnightblue" points="423.406,-169.132 433.867,-167.455 424.643,-162.242 423.406,-169.132"/>
</g>
<!-- Node90&#45;&gt;Node86 -->
<g id="edge9" class="edge"><title>Node90&#45;&gt;Node86</title>
<path fill="none" stroke="midnightblue" d="M207.477,-69.0406C231.901,-77.2082 261.607,-87.1419 284.068,-94.6531"/>
<polygon fill="midnightblue" stroke="midnightblue" points="283.24,-98.0665 293.834,-97.9187 285.46,-91.4279 283.24,-98.0665"/>
</g>
<!-- Node90&#45;&gt;Node89 -->
<g id="edge11" class="edge"><title>Node90&#45;&gt;Node89</title>
<path fill="none" stroke="midnightblue" d="M209.298,-69.0796C214.487,-71.6633 219.511,-74.6254 224,-78 245.032,-93.8109 238.893,-109.289 260,-125 264.212,-128.135 268.922,-130.873 273.79,-133.253"/>
<polygon fill="midnightblue" stroke="midnightblue" points="272.688,-136.591 283.252,-137.397 275.496,-130.179 272.688,-136.591"/>
</g>
<!-- Node91 -->
<g id="node9" class="node"><title>Node91</title>
<g id="a_node9"><a xlink:href="ligne__paye_8cpp.html#a5342d9b40b92c978ff404415b691e059" target="_top" xlink:title="Substitue le séparateur décimal passé en paramètre au séparateur par défaut (.) ">
<polygon fill="white" stroke="black" points="260,-43 260,-73 378,-73 378,-43 260,-43"/>
<text text-anchor="start" x="268" y="-61" font-family="Helvetica,sans-Serif" font-size="10.00">substituer_separateur</text>
<text text-anchor="middle" x="319" y="-50" font-family="Helvetica,sans-Serif" font-size="10.00">_decimal</text>
</a>
</g>
</g>
<!-- Node90&#45;&gt;Node91 -->
<g id="edge10" class="edge"><title>Node90&#45;&gt;Node91</title>
<path fill="none" stroke="midnightblue" d="M213.847,-55.3208C225.389,-55.6177 237.812,-55.9373 249.917,-56.2487"/>
<polygon fill="midnightblue" stroke="midnightblue" points="249.898,-59.7492 259.984,-56.5076 250.078,-52.7515 249.898,-59.7492"/>
</g>
<!-- Node92&#45;&gt;Node86 -->
<g id="edge13" class="edge"><title>Node92&#45;&gt;Node86</title>
<path fill="none" stroke="midnightblue" d="M198.566,-137.491C224.272,-130.713 258.611,-121.659 283.869,-114.999"/>
<polygon fill="midnightblue" stroke="midnightblue" points="284.969,-118.329 293.746,-112.395 283.184,-111.56 284.969,-118.329"/>
</g>
<!-- Node92&#45;&gt;Node89 -->
<g id="edge14" class="edge"><title>Node92&#45;&gt;Node89</title>
<path fill="none" stroke="midnightblue" d="M224.405,-147C238.983,-147 254.337,-147 268.298,-147"/>
<polygon fill="midnightblue" stroke="midnightblue" points="268.667,-150.5 278.667,-147 268.667,-143.5 268.667,-150.5"/>
</g>
<!-- Node93&#45;&gt;Node86 -->
<g id="edge16" class="edge"><title>Node93&#45;&gt;Node86</title>
<path fill="none" stroke="midnightblue" d="M210.849,-103.933C234.34,-104.386 262.03,-104.92 283.376,-105.332"/>
<polygon fill="midnightblue" stroke="midnightblue" points="283.536,-108.836 293.602,-105.529 283.671,-101.837 283.536,-108.836"/>
</g>
<!-- Node93&#45;&gt;Node89 -->
<g id="edge18" class="edge"><title>Node93&#45;&gt;Node89</title>
<path fill="none" stroke="midnightblue" d="M210.849,-116.681C231.136,-122.421 254.556,-129.048 274.317,-134.639"/>
<polygon fill="midnightblue" stroke="midnightblue" points="273.411,-138.02 283.986,-137.375 275.317,-131.285 273.411,-138.02"/>
</g>
<!-- Node93&#45;&gt;Node91 -->
<g id="edge17" class="edge"><title>Node93&#45;&gt;Node91</title>
<path fill="none" stroke="midnightblue" d="M210.849,-89.0084C225.183,-84.8602 241.081,-80.2594 256.147,-75.8994"/>
<polygon fill="midnightblue" stroke="midnightblue" points="257.27,-79.2182 265.903,-73.0763 255.324,-72.4941 257.27,-79.2182"/>
</g>
</g>
</svg>
        <g id="navigator" transform="translate(0 0)" fill="#404254">
                <rect fill="#f2f5e9" fill-opacity="0.5" stroke="#606060" stroke-width=".5" x="0" y="0" width="60" height="60"/>
                <use id="zoomplus" xlink:href="#zoomPlus" x="17" y="9" onmousedown="handleZoom(evt,'in')"/>
                <use id="zoomminus" xlink:href="#zoomMin" x="42" y="9" onmousedown="handleZoom(evt,'out')"/>
                <use id="reset" xlink:href="#resetDef" x="30" y="36" onmousedown="handleReset()"/>
                <g id="arrowUp" xlink:href="#dirArrow" transform="translate(30 24)" onmousedown="handlePan(0,-1)">
                  <use xlink:href="#rim" fill="#404040">
                        <set attributeName="fill" to="#808080" begin="arrowUp.mouseover" end="arrowUp.mouseout"/>
                  </use>
                  <path fill="none" stroke="white" stroke-width="1.5" d="M0,-3.0v7 M-2.5,-0.5L0,-3.0L2.5,-0.5"/>
                </g>
                <g id="arrowRight" xlink:href="#dirArrow" transform="rotate(90) translate(36 -43)" onmousedown="handlePan(1,0)">
                  <use xlink:href="#rim" fill="#404040">
                        <set attributeName="fill" to="#808080" begin="arrowRight.mouseover" end="arrowRight.mouseout"/>
                  </use>
                  <path fill="none" stroke="white" stroke-width="1.5" d="M0,-3.0v7 M-2.5,-0.5L0,-3.0L2.5,-0.5"/>
                </g>
                <g id="arrowDown" xlink:href="#dirArrow" transform="rotate(180) translate(-30 -48)" onmousedown="handlePan(0,1)">
                  <use xlink:href="#rim" fill="#404040">
                        <set attributeName="fill" to="#808080" begin="arrowDown.mouseover" end="arrowDown.mouseout"/>
                  </use>
                  <path fill="none" stroke="white" stroke-width="1.5" d="M0,-3.0v7 M-2.5,-0.5L0,-3.0L2.5,-0.5"/>
                </g>
                <g id="arrowLeft" xlink:href="#dirArrow" transform="rotate(270) translate(-36 17)" onmousedown="handlePan(-1,0)">
                  <use xlink:href="#rim" fill="#404040">
                        <set attributeName="fill" to="#808080" begin="arrowLeft.mouseover" end="arrowLeft.mouseout"/>
                  </use>
                  <path fill="none" stroke="white" stroke-width="1.5" d="M0,-3.0v7 M-2.5,-0.5L0,-3.0L2.5,-0.5"/>
                </g>
        </g>
        <svg viewBox="0 0 15 15" width="100%" height="30px" preserveAspectRatio="xMaxYMin meet">
         <g id="arrow_out" transform="scale(0.3 0.3)">
          <a xlink:href="ligne__paye_8cpp_ab0033809d3d04a56bf668e6722da255c_cgraph_org.svg" target="_base">
           <rect id="button" ry="5" rx="5" y="6" x="6" height="38" width="38"
                fill="#f2f5e9" fill-opacity="0.5" stroke="#606060" stroke-width="1.0"/>
           <path id="arrow"
             d="M 11.500037,31.436501 C 11.940474,20.09759 22.043105,11.32322 32.158766,21.979434 L 37.068811,17.246167 C 37.068811,17.246167 37.088388,32 37.088388,32 L 22.160133,31.978069 C 22.160133,31.978069 26.997745,27.140456 26.997745,27.140456 C 18.528582,18.264221 13.291696,25.230495 11.500037,31.436501 z"
             style="fill:#404040;"/>
          </a>
         </g>
        </svg>
</svg>
