<?xml version="1.0" encoding="UTF-8" standalone="no"?>
<!DOCTYPE svg PUBLIC "-//W3C//DTD SVG 1.1//EN"
 "http://www.w3.org/Graphics/SVG/1.1/DTD/svg11.dtd">
<!-- Generated by graphviz version 2.38.0 (20140413.2041)
 -->
<!-- Title: warning_msg Pages: 1 -->
<!--zoomable 202 -->
<svg id="main" version="1.1" xmlns="http://www.w3.org/2000/svg" xmlns:xlink="http://www.w3.org/1999/xlink" xml:space="preserve" onload="init(evt)">
<style type="text/css"><![CDATA[
.edge:hover path { stroke: red; }
.edge:hover polygon { stroke: red; fill: red; }
]]></style>
<script type="text/javascript"><![CDATA[
var edges = document.getElementsByTagName('g');
if (edges && edges.length) {
  for (var i=0;i<edges.length;i++) {
    if (edges[i].id.substr(0,4)=='edge') {
      edges[i].setAttribute('class','edge');
    }
  }
}
]]></script>
        <defs>
                <circle id="rim" cx="0" cy="0" r="7"/>
                <circle id="rim2" cx="0" cy="0" r="3.5"/>
                <g id="zoomPlus">
                        <use xlink:href="#rim" fill="#404040">
                                <set attributeName="fill" to="#808080" begin="zoomplus.mouseover" end="zoomplus.mouseout"/>
                        </use>
                        <path d="M-4,0h8M0,-4v8" fill="none" stroke="white" stroke-width="1.5" pointer-events="none"/>
                </g>
                <g id="zoomMin">
                        <use xlink:href="#rim" fill="#404040">
                                <set attributeName="fill" to="#808080" begin="zoomminus.mouseover" end="zoomminus.mouseout"/>
                        </use>
                        <path d="M-4,0h8" fill="none" stroke="white" stroke-width="1.5" pointer-events="none"/>
                </g>
                <g id="dirArrow">
                        <path fill="none" stroke="white" stroke-width="1.5" d="M0,-3.0v7 M-2.5,-0.5L0,-3.0L2.5,-0.5"/>
                </g>
               <g id="resetDef">
                       <use xlink:href="#rim2" fill="#404040">
                               <set attributeName="fill" to="#808080" begin="reset.mouseover" end="reset.mouseout"/>
                       </use>
               </g>
        </defs>

<script type="text/javascript">
var viewWidth = 851;
var viewHeight = 202;
var sectionId = 'dynsection-4';
</script>
<script xlink:href="svgpan.js"/>
<svg id="graph" class="graph">
<g id="viewport">
<title>warning_msg</title>
<polygon fill="white" stroke="none" points="-4,4 -4,-197.889 847,-197.889 847,4 -4,4"/>
<!-- Node10 -->
<g id="node1" class="node"><title>Node10</title>
<polygon fill="#bfbfbf" stroke="black" points="0,-92.3886 0,-111.389 74,-111.389 74,-92.3886 0,-92.3886"/>
<text text-anchor="middle" x="37" y="-99.3886" font-family="Helvetica,sans-Serif" font-size="10.00">warning_msg</text>
</g>
<!-- Node11 -->
<g id="node2" class="node"><title>Node11</title>
<g id="a_node2"><a xlink:href="ligne__paye_8cpp.html#a45ce15888cd33c4753e852fce36fb56e" target="_top" xlink:title="Appelle Bulletin et affiche l&#39;interprétation des erreurs. ">
<polygon fill="white" stroke="black" points="119.5,-174.389 119.5,-193.389 216.5,-193.389 216.5,-174.389 119.5,-174.389"/>
<text text-anchor="middle" x="168" y="-181.389" font-family="Helvetica,sans-Serif" font-size="10.00">bulletin_obligatoire</text>
</a>
</g>
</g>
<!-- Node10&#45;&gt;Node11 -->
<g id="edge1" class="edge"><title>Node10&#45;&gt;Node11</title>
<path fill="none" stroke="midnightblue" d="M54.022,-119.315C67.7157,-133.315 88.5558,-152.602 110,-164.889 116.517,-168.622 123.876,-171.759 131.09,-174.338"/>
<polygon fill="midnightblue" stroke="midnightblue" points="56.2684,-116.599 46.8347,-111.777 51.202,-121.43 56.2684,-116.599"/>
</g>
<!-- Node14 -->
<g id="node5" class="node"><title>Node14</title>
<g id="a_node5"><a xlink:href="validator_8cpp.html#ae1ac2699ac4449a4a9a16b0e37234b35" target="_top" xlink:title="Décode une structure info_t contenant les données de paye à l&#39;état brut &quot;fichier&quot; (...">
<polygon fill="white" stroke="black" points="485,-31.3886 485,-50.3886 541,-50.3886 541,-31.3886 485,-31.3886"/>
<text text-anchor="middle" x="513" y="-38.3886" font-family="Helvetica,sans-Serif" font-size="10.00">parseFile</text>
</a>
</g>
</g>
<!-- Node10&#45;&gt;Node14 -->
<g id="edge14" class="edge"><title>Node10&#45;&gt;Node14</title>
<path fill="none" stroke="midnightblue" d="M49.2198,-83.7852C61.5766,-65.7507 83.2824,-39.1704 110,-27.8886 240.908,27.3887 417.717,-13.431 484.731,-32.4982"/>
<polygon fill="midnightblue" stroke="midnightblue" points="46.1866,-82.0282 43.6331,-92.3108 52.0416,-85.8649 46.1866,-82.0282"/>
</g>
<!-- Node18 -->
<g id="node9" class="node"><title>Node18</title>
<g id="a_node9"><a xlink:href="ligne__paye_8cpp.html#a4a91586d82e91ad3e3c02355b57c9e09" target="_top" xlink:title="Appelle Bulletin. ">
<polygon fill="white" stroke="black" points="110,-136.389 110,-155.389 226,-155.389 226,-136.389 110,-136.389"/>
<text text-anchor="middle" x="168" y="-143.389" font-family="Helvetica,sans-Serif" font-size="10.00">bulletin_optionnel_char</text>
</a>
</g>
</g>
<!-- Node10&#45;&gt;Node18 -->
<g id="edge8" class="edge"><title>Node10&#45;&gt;Node18</title>
<path fill="none" stroke="midnightblue" d="M74.8696,-114.789C86.1354,-118.705 98.5674,-122.999 110,-126.889 119.085,-129.98 129.002,-133.303 137.979,-136.293"/>
<polygon fill="midnightblue" stroke="midnightblue" points="75.9189,-111.449 65.3241,-111.466 73.6171,-118.059 75.9189,-111.449"/>
</g>
<!-- Node19 -->
<g id="node10" class="node"><title>Node19</title>
<g id="a_node10"><a xlink:href="ligne__paye_8cpp.html#a9ddbe10974c6bd265152624a68cd0580" target="_top" xlink:title="Appelle Bulletin. ">
<polygon fill="white" stroke="black" points="122,-86.8886 122,-116.889 214,-116.889 214,-86.8886 122,-86.8886"/>
<text text-anchor="start" x="130" y="-104.889" font-family="Helvetica,sans-Serif" font-size="10.00">bulletin_optionnel</text>
<text text-anchor="middle" x="168" y="-93.8886" font-family="Helvetica,sans-Serif" font-size="10.00">_numerique</text>
</a>
</g>
</g>
<!-- Node10&#45;&gt;Node19 -->
<g id="edge10" class="edge"><title>Node10&#45;&gt;Node19</title>
<path fill="none" stroke="midnightblue" d="M84.6362,-101.889C96.7457,-101.889 109.767,-101.889 121.801,-101.889"/>
<polygon fill="midnightblue" stroke="midnightblue" points="84.277,-98.3887 74.277,-101.889 84.277,-105.389 84.277,-98.3887"/>
</g>
<!-- Node20 -->
<g id="node11" class="node"><title>Node20</title>
<g id="a_node11"><a xlink:href="ligne__paye_8cpp.html#a8636e0f8d6d7fce58969c36956342c90" target="_top" xlink:title="Appelle Bulletin. ">
<polygon fill="white" stroke="black" points="119.5,-37.8886 119.5,-67.8886 216.5,-67.8886 216.5,-37.8886 119.5,-37.8886"/>
<text text-anchor="start" x="127.5" y="-55.8886" font-family="Helvetica,sans-Serif" font-size="10.00">bulletin_obligatoire</text>
<text text-anchor="middle" x="168" y="-44.8886" font-family="Helvetica,sans-Serif" font-size="10.00">_numerique</text>
</a>
</g>
</g>
<!-- Node10&#45;&gt;Node20 -->
<g id="edge12" class="edge"><title>Node10&#45;&gt;Node20</title>
<path fill="none" stroke="midnightblue" d="M72.6654,-88.7211C89.5459,-82.3092 109.923,-74.5689 127.413,-67.9256"/>
<polygon fill="midnightblue" stroke="midnightblue" points="71.2842,-85.5017 63.1787,-92.3246 73.7699,-92.0455 71.2842,-85.5017"/>
</g>
<!-- Node12 -->
<g id="node3" class="node"><title>Node12</title>
<g id="a_node3"><a xlink:href="ligne__paye_8cpp.html#ab0033809d3d04a56bf668e6722da255c" target="_top" xlink:title="Analyse les noeuds fils du noeud. ">
<polygon fill="white" stroke="black" points="262,-92.3886 262,-111.389 321,-111.389 321,-92.3886 262,-92.3886"/>
<text text-anchor="middle" x="291.5" y="-99.3886" font-family="Helvetica,sans-Serif" font-size="10.00">lignePaye</text>
</a>
</g>
</g>
<!-- Node11&#45;&gt;Node12 -->
<g id="edge2" class="edge"><title>Node11&#45;&gt;Node12</title>
<path fill="none" stroke="midnightblue" d="M215.322,-170.475C219.031,-168.796 222.64,-166.938 226,-164.889 249.787,-150.38 271.678,-125.589 282.81,-111.83"/>
<polygon fill="midnightblue" stroke="midnightblue" points="213.913,-167.27 205.973,-174.285 216.555,-173.752 213.913,-167.27"/>
</g>
<!-- Node13 -->
<g id="node4" class="node"><title>Node13</title>
<g id="a_node4"><a xlink:href="validator_8cpp.html#abdf1df3dd61991073a485a3e5d8addd2" target="_top" xlink:title="Lance le décodage des variables Bulletins de paye (Nom, Prenom, Matricule,...) ">
<polygon fill="white" stroke="black" points="357,-64.3886 357,-83.3886 449,-83.3886 449,-64.3886 357,-64.3886"/>
<text text-anchor="middle" x="403" y="-71.3886" font-family="Helvetica,sans-Serif" font-size="10.00">parseLignesPaye</text>
</a>
</g>
</g>
<!-- Node12&#45;&gt;Node13 -->
<g id="edge3" class="edge"><title>Node12&#45;&gt;Node13</title>
<path fill="none" stroke="midnightblue" d="M331.008,-92.0417C341.967,-89.2396 353.88,-86.1933 364.761,-83.4109"/>
<polygon fill="midnightblue" stroke="midnightblue" points="330.091,-88.6636 321.27,-94.5319 331.825,-95.4454 330.091,-88.6636"/>
</g>
<!-- Node13&#45;&gt;Node14 -->
<g id="edge4" class="edge"><title>Node13&#45;&gt;Node14</title>
<path fill="none" stroke="midnightblue" d="M445.136,-61.3194C458.436,-57.2553 472.842,-52.8534 484.865,-49.18"/>
<polygon fill="midnightblue" stroke="midnightblue" points="443.779,-58.0742 435.238,-64.3436 445.824,-64.7686 443.779,-58.0742"/>
</g>
<!-- Node15 -->
<g id="node6" class="node"><title>Node15</title>
<g id="a_node6"><a xlink:href="validator_8h.html#a36359f86441c3ac6219a34f63b8c3da6" target="_top" xlink:title="Lance l&#39;ensemble des processus de pré&#45;traitement et de post&#45;traitement des fichiers de paye...">
<polygon fill="white" stroke="black" points="577,-31.3886 577,-50.3886 639,-50.3886 639,-31.3886 577,-31.3886"/>
<text text-anchor="middle" x="608" y="-38.3886" font-family="Helvetica,sans-Serif" font-size="10.00">parse_info</text>
</a>
</g>
</g>
<!-- Node14&#45;&gt;Node15 -->
<g id="edge5" class="edge"><title>Node14&#45;&gt;Node15</title>
<path fill="none" stroke="midnightblue" d="M551.429,-40.8886C559.886,-40.8886 568.759,-40.8886 576.87,-40.8886"/>
<polygon fill="midnightblue" stroke="midnightblue" points="551.4,-37.3887 541.4,-40.8886 551.4,-44.3887 551.4,-37.3887"/>
</g>
<!-- Node16 -->
<g id="node7" class="node"><title>Node16</title>
<g id="a_node7"><a xlink:href="lhx_2main_8cpp.html#abb1f1ad236423a832fd1efa1e9deeafa" target="_top" xlink:title="Pour un segment donné (sous&#45;ensemble de bases de paye XML), redécoupe le segment en partie égales ou ...">
<polygon fill="white" stroke="black" points="675,-31.3886 675,-50.3886 769,-50.3886 769,-31.3886 675,-31.3886"/>
<text text-anchor="middle" x="722" y="-38.3886" font-family="Helvetica,sans-Serif" font-size="10.00">produire_segment</text>
</a>
</g>
</g>
<!-- Node15&#45;&gt;Node16 -->
<g id="edge6" class="edge"><title>Node15&#45;&gt;Node16</title>
<path fill="none" stroke="midnightblue" d="M649.219,-40.8886C657.537,-40.8886 666.362,-40.8886 674.872,-40.8886"/>
<polygon fill="midnightblue" stroke="midnightblue" points="649.014,-37.3887 639.014,-40.8886 649.014,-44.3887 649.014,-37.3887"/>
</g>
<!-- Node17 -->
<g id="node8" class="node"><title>Node17</title>
<g id="a_node8"><a xlink:href="lhx_2main_8cpp.html#a3c04138a5bfe5d72780bb7e82a18e627" target="_top" xlink:title="main">
<polygon fill="white" stroke="black" points="805,-31.3886 805,-50.3886 843,-50.3886 843,-31.3886 805,-31.3886"/>
<text text-anchor="middle" x="824" y="-38.3886" font-family="Helvetica,sans-Serif" font-size="10.00">main</text>
</a>
</g>
</g>
<!-- Node16&#45;&gt;Node17 -->
<g id="edge7" class="edge"><title>Node16&#45;&gt;Node17</title>
<path fill="none" stroke="midnightblue" d="M779.316,-40.8886C788.594,-40.8886 797.577,-40.8886 804.96,-40.8886"/>
<polygon fill="midnightblue" stroke="midnightblue" points="779.195,-37.3887 769.195,-40.8886 779.195,-44.3887 779.195,-37.3887"/>
</g>
<!-- Node18&#45;&gt;Node12 -->
<g id="edge9" class="edge"><title>Node18&#45;&gt;Node12</title>
<path fill="none" stroke="midnightblue" d="M208.439,-133.016C214.341,-131.011 220.342,-128.927 226,-126.889 239.559,-122.004 254.578,-116.206 266.71,-111.424"/>
<polygon fill="midnightblue" stroke="midnightblue" points="207.042,-129.793 198.677,-136.296 209.271,-136.429 207.042,-129.793"/>
</g>
<!-- Node19&#45;&gt;Node12 -->
<g id="edge11" class="edge"><title>Node19&#45;&gt;Node12</title>
<path fill="none" stroke="midnightblue" d="M224.477,-101.889C237.38,-101.889 250.602,-101.889 261.793,-101.889"/>
<polygon fill="midnightblue" stroke="midnightblue" points="224.242,-98.3887 214.242,-101.889 224.242,-105.389 224.242,-98.3887"/>
</g>
<!-- Node20&#45;&gt;Node12 -->
<g id="edge13" class="edge"><title>Node20&#45;&gt;Node12</title>
<path fill="none" stroke="midnightblue" d="M215.905,-71.8049C233.297,-78.8192 252.289,-86.4785 266.757,-92.3132"/>
<polygon fill="midnightblue" stroke="midnightblue" points="217.029,-68.4844 206.445,-67.9901 214.411,-74.9763 217.029,-68.4844"/>
</g>
</g>
</svg>
        <g id="navigator" transform="translate(0 0)" fill="#404254">
                <rect fill="#f2f5e9" fill-opacity="0.5" stroke="#606060" stroke-width=".5" x="0" y="0" width="60" height="60"/>
                <use id="zoomplus" xlink:href="#zoomPlus" x="17" y="9" onmousedown="handleZoom(evt,'in')"/>
                <use id="zoomminus" xlink:href="#zoomMin" x="42" y="9" onmousedown="handleZoom(evt,'out')"/>
                <use id="reset" xlink:href="#resetDef" x="30" y="36" onmousedown="handleReset()"/>
                <g id="arrowUp" xlink:href="#dirArrow" transform="translate(30 24)" onmousedown="handlePan(0,-1)">
                  <use xlink:href="#rim" fill="#404040">
                        <set attributeName="fill" to="#808080" begin="arrowUp.mouseover" end="arrowUp.mouseout"/>
                  </use>
                  <path fill="none" stroke="white" stroke-width="1.5" d="M0,-3.0v7 M-2.5,-0.5L0,-3.0L2.5,-0.5"/>
                </g>
                <g id="arrowRight" xlink:href="#dirArrow" transform="rotate(90) translate(36 -43)" onmousedown="handlePan(1,0)">
                  <use xlink:href="#rim" fill="#404040">
                        <set attributeName="fill" to="#808080" begin="arrowRight.mouseover" end="arrowRight.mouseout"/>
                  </use>
                  <path fill="none" stroke="white" stroke-width="1.5" d="M0,-3.0v7 M-2.5,-0.5L0,-3.0L2.5,-0.5"/>
                </g>
                <g id="arrowDown" xlink:href="#dirArrow" transform="rotate(180) translate(-30 -48)" onmousedown="handlePan(0,1)">
                  <use xlink:href="#rim" fill="#404040">
                        <set attributeName="fill" to="#808080" begin="arrowDown.mouseover" end="arrowDown.mouseout"/>
                  </use>
                  <path fill="none" stroke="white" stroke-width="1.5" d="M0,-3.0v7 M-2.5,-0.5L0,-3.0L2.5,-0.5"/>
                </g>
                <g id="arrowLeft" xlink:href="#dirArrow" transform="rotate(270) translate(-36 17)" onmousedown="handlePan(-1,0)">
                  <use xlink:href="#rim" fill="#404040">
                        <set attributeName="fill" to="#808080" begin="arrowLeft.mouseover" end="arrowLeft.mouseout"/>
                  </use>
                  <path fill="none" stroke="white" stroke-width="1.5" d="M0,-3.0v7 M-2.5,-0.5L0,-3.0L2.5,-0.5"/>
                </g>
        </g>
        <svg viewBox="0 0 15 15" width="100%" height="30px" preserveAspectRatio="xMaxYMin meet">
         <g id="arrow_out" transform="scale(0.3 0.3)">
          <a xlink:href="ligne__paye_8h_a703180379a24b61c33f035b1b8a8f437_icgraph_org.svg" target="_base">
           <rect id="button" ry="5" rx="5" y="6" x="6" height="38" width="38"
                fill="#f2f5e9" fill-opacity="0.5" stroke="#606060" stroke-width="1.0"/>
           <path id="arrow"
             d="M 11.500037,31.436501 C 11.940474,20.09759 22.043105,11.32322 32.158766,21.979434 L 37.068811,17.246167 C 37.068811,17.246167 37.088388,32 37.088388,32 L 22.160133,31.978069 C 22.160133,31.978069 26.997745,27.140456 26.997745,27.140456 C 18.528582,18.264221 13.291696,25.230495 11.500037,31.436501 z"
             style="fill:#404040;"/>
          </a>
         </g>
        </svg>
</svg>
