<?xml version="1.0" encoding="UTF-8" standalone="no"?>
<!DOCTYPE svg PUBLIC "-//W3C//DTD SVG 1.1//EN"
 "http://www.w3.org/Graphics/SVG/1.1/DTD/svg11.dtd">
<!-- Generated by graphviz version 2.38.0 (20140413.2041)
 -->
<!-- Title: bulletin_obligatoire Pages: 1 -->
<svg width="387pt" height="113pt"
 viewBox="0.00 0.00 387.00 113.00" xmlns="http://www.w3.org/2000/svg" xmlns:xlink="http://www.w3.org/1999/xlink">
<g id="graph0" class="graph" transform="scale(1 1) rotate(0) translate(4 109)">
<title>bulletin_obligatoire</title>
<polygon fill="white" stroke="none" points="-4,4 -4,-109 383,-109 383,4 -4,4"/>
<!-- Node21 -->
<g id="node1" class="node"><title>Node21</title>
<polygon fill="#bfbfbf" stroke="black" points="0,-57.5 0,-76.5 97,-76.5 97,-57.5 0,-57.5"/>
<text text-anchor="middle" x="48.5" y="-64.5" font-family="Helvetica,sans-Serif" font-size="10.00">bulletin_obligatoire</text>
</g>
<!-- Node22 -->
<g id="node2" class="node"><title>Node22</title>
<g id="a_node2"><a xlink:href="fonctions__auxiliaires_8cpp.html#a595f0eff37a7e74c477ad08221736a0d" target="_top" xlink:title="Fonction d&#39;affichage de des lignes du fichier XML de paye entourant celle où se pose un problème de c...">
<polygon fill="white" stroke="black" points="243,-85.5 243,-104.5 379,-104.5 379,-85.5 243,-85.5"/>
<text text-anchor="middle" x="311" y="-92.5" font-family="Helvetica,sans-Serif" font-size="10.00">afficher_environnement_xhl</text>
</a>
</g>
</g>
<!-- Node21&#45;&gt;Node22 -->
<g id="edge1" class="edge"><title>Node21&#45;&gt;Node22</title>
<path fill="none" stroke="midnightblue" d="M85.0074,-76.5054C99.7482,-80.078 117.095,-83.8029 133,-86 165.45,-90.4826 201.522,-92.7933 232.592,-93.9634"/>
<polygon fill="midnightblue" stroke="midnightblue" points="232.81,-97.4729 242.924,-94.318 233.05,-90.477 232.81,-97.4729"/>
</g>
<!-- Node23 -->
<g id="node3" class="node"><title>Node23</title>
<g id="a_node3"><a xlink:href="ligne__paye_8cpp.html#a8720dbeccf4eabbc5ffa9d7be551a7a5" target="_top" xlink:title="Atteint le prochain noeud de libellé donné, après un saut éventuel, et le lit. ">
<polygon fill="white" stroke="black" points="145.5,-19.5 145.5,-38.5 194.5,-38.5 194.5,-19.5 145.5,-19.5"/>
<text text-anchor="middle" x="170" y="-26.5" font-family="Helvetica,sans-Serif" font-size="10.00">Bulletin</text>
</a>
</g>
</g>
<!-- Node21&#45;&gt;Node23 -->
<g id="edge2" class="edge"><title>Node21&#45;&gt;Node23</title>
<path fill="none" stroke="midnightblue" d="M79.6549,-57.411C96.6477,-52.0074 117.913,-45.2452 135.434,-39.6737"/>
<polygon fill="midnightblue" stroke="midnightblue" points="136.788,-42.9161 145.257,-36.5502 134.666,-36.2452 136.788,-42.9161"/>
</g>
<!-- Node26 -->
<g id="node6" class="node"><title>Node26</title>
<g id="a_node6"><a xlink:href="ligne__paye_8h.html#af031260c541b3083b610927c3e547b28" target="_top" xlink:title="Affiche un message d&#39;avertissement sur la sortie d&#39;erreur lorsqu&#39;un noeud XML ne peut être atteint...">
<polygon fill="white" stroke="black" points="133,-57.5 133,-76.5 207,-76.5 207,-57.5 133,-57.5"/>
<text text-anchor="middle" x="170" y="-64.5" font-family="Helvetica,sans-Serif" font-size="10.00">warning_msg</text>
</a>
</g>
</g>
<!-- Node21&#45;&gt;Node26 -->
<g id="edge5" class="edge"><title>Node21&#45;&gt;Node26</title>
<path fill="none" stroke="midnightblue" d="M97.0729,-67C105.402,-67 114.061,-67 122.364,-67"/>
<polygon fill="midnightblue" stroke="midnightblue" points="122.64,-70.5001 132.64,-67 122.64,-63.5001 122.64,-70.5001"/>
</g>
<!-- Node24 -->
<g id="node4" class="node"><title>Node24</title>
<g id="a_node4"><a xlink:href="validator_8h.html#a5e23405e20d220ba90a7b2213f7a70fb" target="_top" xlink:title="Permet d&#39;atteindre un noeud donné par son libellé de balise XML à partir d&#39;un pointeur XmlNodePtr de ...">
<polygon fill="white" stroke="black" points="269.5,-38.5 269.5,-57.5 352.5,-57.5 352.5,-38.5 269.5,-38.5"/>
<text text-anchor="middle" x="311" y="-45.5" font-family="Helvetica,sans-Serif" font-size="10.00">atteindreNoeud</text>
</a>
</g>
</g>
<!-- Node23&#45;&gt;Node24 -->
<g id="edge3" class="edge"><title>Node23&#45;&gt;Node24</title>
<path fill="none" stroke="midnightblue" d="M194.579,-32.2231C212.312,-34.647 237.263,-38.0576 259.433,-41.0879"/>
<polygon fill="midnightblue" stroke="midnightblue" points="259.005,-44.5619 269.387,-42.4485 259.953,-37.6264 259.005,-44.5619"/>
</g>
<!-- Node25 -->
<g id="node5" class="node"><title>Node25</title>
<g id="a_node5"><a xlink:href="ligne__paye_8cpp.html#a6044ec3fae81f42425539be4d999edd4" target="_top" xlink:title="Remplace les occurrences d&#39;un caractère à l&#39;intérieur d&#39;une chaîne xmlChar* par le &#160;caractère &#39;_&#39;...">
<polygon fill="white" stroke="black" points="286,-0.5 286,-19.5 336,-19.5 336,-0.5 286,-0.5"/>
<text text-anchor="middle" x="311" y="-7.5" font-family="Helvetica,sans-Serif" font-size="10.00">sanitize</text>
</a>
</g>
</g>
<!-- Node23&#45;&gt;Node25 -->
<g id="edge4" class="edge"><title>Node23&#45;&gt;Node25</title>
<path fill="none" stroke="midnightblue" d="M194.579,-25.7769C216.809,-22.7383 250.384,-18.149 275.6,-14.7022"/>
<polygon fill="midnightblue" stroke="midnightblue" points="276.404,-18.1249 285.838,-13.3028 275.456,-11.1894 276.404,-18.1249"/>
</g>
<!-- Node26&#45;&gt;Node22 -->
<g id="edge6" class="edge"><title>Node26&#45;&gt;Node22</title>
<path fill="none" stroke="midnightblue" d="M207.158,-74.2836C221.081,-77.0882 237.343,-80.3641 252.772,-83.4722"/>
<polygon fill="midnightblue" stroke="midnightblue" points="252.264,-86.94 262.758,-85.4837 253.646,-80.0778 252.264,-86.94"/>
</g>
</g>
</svg>
