<?xml version="1.0" encoding="UTF-8" standalone="no"?>
<!DOCTYPE svg PUBLIC "-//W3C//DTD SVG 1.1//EN"
 "http://www.w3.org/Graphics/SVG/1.1/DTD/svg11.dtd">
<!-- Generated by graphviz version 2.38.0 (20140413.2041)
 -->
<!-- Title: Bulletin Pages: 1 -->
<svg width="826pt" height="166pt"
 viewBox="0.00 0.00 826.00 165.50" xmlns="http://www.w3.org/2000/svg" xmlns:xlink="http://www.w3.org/1999/xlink">
<g id="graph0" class="graph" transform="scale(1 1) rotate(0) translate(4 161.5)">
<title>Bulletin</title>
<polygon fill="white" stroke="none" points="-4,4 -4,-161.5 822,-161.5 822,4 -4,4"/>
<!-- Node10 -->
<g id="node1" class="node"><title>Node10</title>
<polygon fill="#bfbfbf" stroke="black" points="0,-72 0,-91 49,-91 49,-72 0,-72"/>
<text text-anchor="middle" x="24.5" y="-79" font-family="Helvetica,sans-Serif" font-size="10.00">Bulletin</text>
</g>
<!-- Node11 -->
<g id="node2" class="node"><title>Node11</title>
<g id="a_node2"><a xlink:href="ligne__paye_8cpp.html#a45ce15888cd33c4753e852fce36fb56e" target="_top" xlink:title="Appelle Bulletin et affiche l&#39;interprétation des erreurs. ">
<polygon fill="white" stroke="black" points="94.5,-138 94.5,-157 191.5,-157 191.5,-138 94.5,-138"/>
<text text-anchor="middle" x="143" y="-145" font-family="Helvetica,sans-Serif" font-size="10.00">bulletin_obligatoire</text>
</a>
</g>
</g>
<!-- Node10&#45;&gt;Node11 -->
<g id="edge1" class="edge"><title>Node10&#45;&gt;Node11</title>
<path fill="none" stroke="midnightblue" d="M43.1024,-98.0943C54.3765,-108.011 69.7143,-120.245 85,-128.5 91.7919,-132.168 99.42,-135.303 106.833,-137.906"/>
<polygon fill="midnightblue" stroke="midnightblue" points="45.4347,-95.4845 35.6702,-91.3728 40.7393,-100.676 45.4347,-95.4845"/>
</g>
<!-- Node18 -->
<g id="node9" class="node"><title>Node18</title>
<g id="a_node9"><a xlink:href="ligne__paye_8cpp.html#a8636e0f8d6d7fce58969c36956342c90" target="_top" xlink:title="Appelle Bulletin. ">
<polygon fill="white" stroke="black" points="94.5,-88.5 94.5,-118.5 191.5,-118.5 191.5,-88.5 94.5,-88.5"/>
<text text-anchor="start" x="102.5" y="-106.5" font-family="Helvetica,sans-Serif" font-size="10.00">bulletin_obligatoire</text>
<text text-anchor="middle" x="143" y="-95.5" font-family="Helvetica,sans-Serif" font-size="10.00">_numerique</text>
</a>
</g>
</g>
<!-- Node10&#45;&gt;Node18 -->
<g id="edge8" class="edge"><title>Node10&#45;&gt;Node18</title>
<path fill="none" stroke="midnightblue" d="M59.1176,-87.8484C70.1206,-89.9262 82.5609,-92.2754 94.3944,-94.5101"/>
<polygon fill="midnightblue" stroke="midnightblue" points="59.5513,-84.3685 49.0755,-85.952 58.2523,-91.2469 59.5513,-84.3685"/>
</g>
<!-- Node19 -->
<g id="node10" class="node"><title>Node19</title>
<g id="a_node10"><a xlink:href="ligne__paye_8cpp.html#a4a91586d82e91ad3e3c02355b57c9e09" target="_top" xlink:title="Appelle Bulletin. ">
<polygon fill="white" stroke="black" points="85,-50 85,-69 201,-69 201,-50 85,-50"/>
<text text-anchor="middle" x="143" y="-57" font-family="Helvetica,sans-Serif" font-size="10.00">bulletin_optionnel_char</text>
</a>
</g>
</g>
<!-- Node10&#45;&gt;Node19 -->
<g id="edge10" class="edge"><title>Node10&#45;&gt;Node19</title>
<path fill="none" stroke="midnightblue" d="M59.1107,-75.1529C69.2265,-73.2426 80.5576,-71.1029 91.5155,-69.0336"/>
<polygon fill="midnightblue" stroke="midnightblue" points="58.2523,-71.7531 49.0755,-77.048 59.5513,-78.6315 58.2523,-71.7531"/>
</g>
<!-- Node20 -->
<g id="node11" class="node"><title>Node20</title>
<g id="a_node11"><a xlink:href="ligne__paye_8cpp.html#a9ddbe10974c6bd265152624a68cd0580" target="_top" xlink:title="Appelle Bulletin. ">
<polygon fill="white" stroke="black" points="97,-0.5 97,-30.5 189,-30.5 189,-0.5 97,-0.5"/>
<text text-anchor="start" x="105" y="-18.5" font-family="Helvetica,sans-Serif" font-size="10.00">bulletin_optionnel</text>
<text text-anchor="middle" x="143" y="-7.5" font-family="Helvetica,sans-Serif" font-size="10.00">_numerique</text>
</a>
</g>
</g>
<!-- Node10&#45;&gt;Node20 -->
<g id="edge12" class="edge"><title>Node10&#45;&gt;Node20</title>
<path fill="none" stroke="midnightblue" d="M46.0522,-65.8994C57.2371,-57.7834 71.5107,-48.016 85,-40.5 91.23,-37.0287 98.0363,-33.6856 104.708,-30.6354"/>
<polygon fill="midnightblue" stroke="midnightblue" points="43.7837,-63.2237 37.8184,-71.9796 47.9419,-68.8548 43.7837,-63.2237"/>
</g>
<!-- Node12 -->
<g id="node3" class="node"><title>Node12</title>
<g id="a_node3"><a xlink:href="ligne__paye_8cpp.html#ab0033809d3d04a56bf668e6722da255c" target="_top" xlink:title="Analyse les noeuds fils du noeud. ">
<polygon fill="white" stroke="black" points="237,-72 237,-91 296,-91 296,-72 237,-72"/>
<text text-anchor="middle" x="266.5" y="-79" font-family="Helvetica,sans-Serif" font-size="10.00">lignePaye</text>
</a>
</g>
</g>
<!-- Node11&#45;&gt;Node12 -->
<g id="edge2" class="edge"><title>Node11&#45;&gt;Node12</title>
<path fill="none" stroke="midnightblue" d="M188.152,-134.308C192.571,-132.537 196.926,-130.599 201,-128.5 221.2,-118.093 241.989,-101.731 254.323,-91.3152"/>
<polygon fill="midnightblue" stroke="midnightblue" points="186.611,-131.147 178.459,-137.914 189.052,-137.707 186.611,-131.147"/>
</g>
<!-- Node13 -->
<g id="node4" class="node"><title>Node13</title>
<g id="a_node4"><a xlink:href="validator_8cpp.html#abdf1df3dd61991073a485a3e5d8addd2" target="_top" xlink:title="Lance le décodage des variables Bulletins de paye (Nom, Prenom, Matricule,...) ">
<polygon fill="white" stroke="black" points="332,-72 332,-91 424,-91 424,-72 332,-72"/>
<text text-anchor="middle" x="378" y="-79" font-family="Helvetica,sans-Serif" font-size="10.00">parseLignesPaye</text>
</a>
</g>
</g>
<!-- Node12&#45;&gt;Node13 -->
<g id="edge3" class="edge"><title>Node12&#45;&gt;Node13</title>
<path fill="none" stroke="midnightblue" d="M306.386,-81.5C314.645,-81.5 323.431,-81.5 331.899,-81.5"/>
<polygon fill="midnightblue" stroke="midnightblue" points="306.27,-78.0001 296.27,-81.5 306.27,-85.0001 306.27,-78.0001"/>
</g>
<!-- Node14 -->
<g id="node5" class="node"><title>Node14</title>
<g id="a_node5"><a xlink:href="validator_8cpp.html#ae1ac2699ac4449a4a9a16b0e37234b35" target="_top" xlink:title="Décode une structure info_t contenant les données de paye à l&#39;état brut &quot;fichier&quot; (...">
<polygon fill="white" stroke="black" points="460,-72 460,-91 516,-91 516,-72 460,-72"/>
<text text-anchor="middle" x="488" y="-79" font-family="Helvetica,sans-Serif" font-size="10.00">parseFile</text>
</a>
</g>
</g>
<!-- Node13&#45;&gt;Node14 -->
<g id="edge4" class="edge"><title>Node13&#45;&gt;Node14</title>
<path fill="none" stroke="midnightblue" d="M434.218,-81.5C443.143,-81.5 452.022,-81.5 459.882,-81.5"/>
<polygon fill="midnightblue" stroke="midnightblue" points="434.176,-78.0001 424.176,-81.5 434.176,-85.0001 434.176,-78.0001"/>
</g>
<!-- Node15 -->
<g id="node6" class="node"><title>Node15</title>
<g id="a_node6"><a xlink:href="validator_8h.html#a36359f86441c3ac6219a34f63b8c3da6" target="_top" xlink:title="Lance l&#39;ensemble des processus de pré&#45;traitement et de post&#45;traitement des fichiers de paye...">
<polygon fill="white" stroke="black" points="552,-72 552,-91 614,-91 614,-72 552,-72"/>
<text text-anchor="middle" x="583" y="-79" font-family="Helvetica,sans-Serif" font-size="10.00">parse_info</text>
</a>
</g>
</g>
<!-- Node14&#45;&gt;Node15 -->
<g id="edge5" class="edge"><title>Node14&#45;&gt;Node15</title>
<path fill="none" stroke="midnightblue" d="M526.429,-81.5C534.886,-81.5 543.759,-81.5 551.87,-81.5"/>
<polygon fill="midnightblue" stroke="midnightblue" points="526.4,-78.0001 516.4,-81.5 526.4,-85.0001 526.4,-78.0001"/>
</g>
<!-- Node16 -->
<g id="node7" class="node"><title>Node16</title>
<g id="a_node7"><a xlink:href="lhx_2main_8cpp.html#abb1f1ad236423a832fd1efa1e9deeafa" target="_top" xlink:title="Pour un segment donné (sous&#45;ensemble de bases de paye XML), redécoupe le segment en partie égales ou ...">
<polygon fill="white" stroke="black" points="650,-72 650,-91 744,-91 744,-72 650,-72"/>
<text text-anchor="middle" x="697" y="-79" font-family="Helvetica,sans-Serif" font-size="10.00">produire_segment</text>
</a>
</g>
</g>
<!-- Node15&#45;&gt;Node16 -->
<g id="edge6" class="edge"><title>Node15&#45;&gt;Node16</title>
<path fill="none" stroke="midnightblue" d="M624.219,-81.5C632.537,-81.5 641.362,-81.5 649.872,-81.5"/>
<polygon fill="midnightblue" stroke="midnightblue" points="624.014,-78.0001 614.014,-81.5 624.014,-85.0001 624.014,-78.0001"/>
</g>
<!-- Node17 -->
<g id="node8" class="node"><title>Node17</title>
<g id="a_node8"><a xlink:href="lhx_2main_8cpp.html#a3c04138a5bfe5d72780bb7e82a18e627" target="_top" xlink:title="main">
<polygon fill="white" stroke="black" points="780,-72 780,-91 818,-91 818,-72 780,-72"/>
<text text-anchor="middle" x="799" y="-79" font-family="Helvetica,sans-Serif" font-size="10.00">main</text>
</a>
</g>
</g>
<!-- Node16&#45;&gt;Node17 -->
<g id="edge7" class="edge"><title>Node16&#45;&gt;Node17</title>
<path fill="none" stroke="midnightblue" d="M754.316,-81.5C763.594,-81.5 772.577,-81.5 779.96,-81.5"/>
<polygon fill="midnightblue" stroke="midnightblue" points="754.195,-78.0001 744.195,-81.5 754.195,-85.0001 754.195,-78.0001"/>
</g>
<!-- Node18&#45;&gt;Node12 -->
<g id="edge9" class="edge"><title>Node18&#45;&gt;Node12</title>
<path fill="none" stroke="midnightblue" d="M201.829,-93.0288C214.018,-90.8219 226.363,-88.5865 236.897,-86.6791"/>
<polygon fill="midnightblue" stroke="midnightblue" points="200.888,-89.6424 191.671,-94.8682 202.135,-96.5304 200.888,-89.6424"/>
</g>
<!-- Node19&#45;&gt;Node12 -->
<g id="edge11" class="edge"><title>Node19&#45;&gt;Node12</title>
<path fill="none" stroke="midnightblue" d="M206.71,-70.8548C217.288,-72.7703 227.787,-74.6714 236.922,-76.3255"/>
<polygon fill="midnightblue" stroke="midnightblue" points="207.049,-67.3594 196.585,-69.0216 205.801,-74.2474 207.049,-67.3594"/>
</g>
<!-- Node20&#45;&gt;Node12 -->
<g id="edge13" class="edge"><title>Node20&#45;&gt;Node12</title>
<path fill="none" stroke="midnightblue" d="M189.969,-34.9275C193.735,-36.7409 197.454,-38.6096 201,-40.5 219.032,-50.1127 238.71,-62.9971 251.529,-71.7383"/>
<polygon fill="midnightblue" stroke="midnightblue" points="191.123,-31.6039 180.581,-30.5527 188.167,-37.9489 191.123,-31.6039"/>
</g>
</g>
</svg>
