<?xml version="1.0" encoding="UTF-8" standalone="no"?>
<!DOCTYPE svg PUBLIC "-//W3C//DTD SVG 1.1//EN"
 "http://www.w3.org/Graphics/SVG/1.1/DTD/svg11.dtd">
<!-- Generated by graphviz version 2.38.0 (20140413.2041)
 -->
<!-- Title: substituer_separateur_decimal Pages: 1 -->
<svg width="868pt" height="88pt"
 viewBox="0.00 0.00 868.00 88.00" xmlns="http://www.w3.org/2000/svg" xmlns:xlink="http://www.w3.org/1999/xlink">
<g id="graph0" class="graph" transform="scale(1 1) rotate(0) translate(4 84)">
<title>substituer_separateur_decimal</title>
<polygon fill="white" stroke="none" points="-4,4 -4,-84 864,-84 864,4 -4,4"/>
<!-- Node137 -->
<g id="node1" class="node"><title>Node137</title>
<polygon fill="#bfbfbf" stroke="black" points="0,-24.5 0,-54.5 110,-54.5 110,-24.5 0,-24.5"/>
<text text-anchor="start" x="8" y="-42.5" font-family="Helvetica,sans-Serif" font-size="10.00">substituer_separateur</text>
<text text-anchor="middle" x="55" y="-31.5" font-family="Helvetica,sans-Serif" font-size="10.00">_decimal</text>
</g>
<!-- Node138 -->
<g id="node2" class="node"><title>Node138</title>
<g id="a_node2"><a xlink:href="ligne__paye_8cpp.html#a9ddbe10974c6bd265152624a68cd0580" target="_top" xlink:title="Appelle Bulletin. ">
<polygon fill="white" stroke="black" points="148.5,-49.5 148.5,-79.5 240.5,-79.5 240.5,-49.5 148.5,-49.5"/>
<text text-anchor="start" x="156.5" y="-67.5" font-family="Helvetica,sans-Serif" font-size="10.00">bulletin_optionnel</text>
<text text-anchor="middle" x="194.5" y="-56.5" font-family="Helvetica,sans-Serif" font-size="10.00">_numerique</text>
</a>
</g>
</g>
<!-- Node137&#45;&gt;Node138 -->
<g id="edge1" class="edge"><title>Node137&#45;&gt;Node138</title>
<path fill="none" stroke="midnightblue" d="M120.202,-51.173C129.732,-52.9057 139.379,-54.6598 148.406,-56.3011"/>
<polygon fill="midnightblue" stroke="midnightblue" points="120.808,-47.7261 110.344,-49.3807 119.556,-54.6131 120.808,-47.7261"/>
</g>
<!-- Node145 -->
<g id="node9" class="node"><title>Node145</title>
<g id="a_node9"><a xlink:href="ligne__paye_8cpp.html#a8636e0f8d6d7fce58969c36956342c90" target="_top" xlink:title="Appelle Bulletin. ">
<polygon fill="white" stroke="black" points="146,-0.5 146,-30.5 243,-30.5 243,-0.5 146,-0.5"/>
<text text-anchor="start" x="154" y="-18.5" font-family="Helvetica,sans-Serif" font-size="10.00">bulletin_obligatoire</text>
<text text-anchor="middle" x="194.5" y="-7.5" font-family="Helvetica,sans-Serif" font-size="10.00">_numerique</text>
</a>
</g>
</g>
<!-- Node137&#45;&gt;Node145 -->
<g id="edge8" class="edge"><title>Node137&#45;&gt;Node145</title>
<path fill="none" stroke="midnightblue" d="M120.331,-28.2714C128.901,-26.7754 137.564,-25.2634 145.783,-23.8288"/>
<polygon fill="midnightblue" stroke="midnightblue" points="119.593,-24.8472 110.344,-30.0146 120.797,-31.7429 119.593,-24.8472"/>
</g>
<!-- Node139 -->
<g id="node3" class="node"><title>Node139</title>
<g id="a_node3"><a xlink:href="ligne__paye_8cpp.html#ab0033809d3d04a56bf668e6722da255c" target="_top" xlink:title="Analyse les noeuds fils du noeud. ">
<polygon fill="white" stroke="black" points="279,-30 279,-49 338,-49 338,-30 279,-30"/>
<text text-anchor="middle" x="308.5" y="-37" font-family="Helvetica,sans-Serif" font-size="10.00">lignePaye</text>
</a>
</g>
</g>
<!-- Node138&#45;&gt;Node139 -->
<g id="edge2" class="edge"><title>Node138&#45;&gt;Node139</title>
<path fill="none" stroke="midnightblue" d="M250.795,-52.1574C260.508,-49.9893 270.25,-47.8148 278.85,-45.895"/>
<polygon fill="midnightblue" stroke="midnightblue" points="249.729,-48.8091 240.732,-54.4036 251.254,-55.6409 249.729,-48.8091"/>
</g>
<!-- Node140 -->
<g id="node4" class="node"><title>Node140</title>
<g id="a_node4"><a xlink:href="validator_8cpp.html#abdf1df3dd61991073a485a3e5d8addd2" target="_top" xlink:title="Lance le décodage des variables Bulletins de paye (Nom, Prenom, Matricule,...) ">
<polygon fill="white" stroke="black" points="374,-30 374,-49 466,-49 466,-30 374,-30"/>
<text text-anchor="middle" x="420" y="-37" font-family="Helvetica,sans-Serif" font-size="10.00">parseLignesPaye</text>
</a>
</g>
</g>
<!-- Node139&#45;&gt;Node140 -->
<g id="edge3" class="edge"><title>Node139&#45;&gt;Node140</title>
<path fill="none" stroke="midnightblue" d="M348.386,-39.5C356.645,-39.5 365.431,-39.5 373.899,-39.5"/>
<polygon fill="midnightblue" stroke="midnightblue" points="348.27,-36.0001 338.27,-39.5 348.27,-43.0001 348.27,-36.0001"/>
</g>
<!-- Node141 -->
<g id="node5" class="node"><title>Node141</title>
<g id="a_node5"><a xlink:href="validator_8cpp.html#ae1ac2699ac4449a4a9a16b0e37234b35" target="_top" xlink:title="Décode une structure info_t contenant les données de paye à l&#39;état brut &quot;fichier&quot; (...">
<polygon fill="white" stroke="black" points="502,-30 502,-49 558,-49 558,-30 502,-30"/>
<text text-anchor="middle" x="530" y="-37" font-family="Helvetica,sans-Serif" font-size="10.00">parseFile</text>
</a>
</g>
</g>
<!-- Node140&#45;&gt;Node141 -->
<g id="edge4" class="edge"><title>Node140&#45;&gt;Node141</title>
<path fill="none" stroke="midnightblue" d="M476.218,-39.5C485.143,-39.5 494.022,-39.5 501.882,-39.5"/>
<polygon fill="midnightblue" stroke="midnightblue" points="476.176,-36.0001 466.176,-39.5 476.176,-43.0001 476.176,-36.0001"/>
</g>
<!-- Node142 -->
<g id="node6" class="node"><title>Node142</title>
<g id="a_node6"><a xlink:href="validator_8h.html#a36359f86441c3ac6219a34f63b8c3da6" target="_top" xlink:title="Lance l&#39;ensemble des processus de pré&#45;traitement et de post&#45;traitement des fichiers de paye...">
<polygon fill="white" stroke="black" points="594,-30 594,-49 656,-49 656,-30 594,-30"/>
<text text-anchor="middle" x="625" y="-37" font-family="Helvetica,sans-Serif" font-size="10.00">parse_info</text>
</a>
</g>
</g>
<!-- Node141&#45;&gt;Node142 -->
<g id="edge5" class="edge"><title>Node141&#45;&gt;Node142</title>
<path fill="none" stroke="midnightblue" d="M568.429,-39.5C576.886,-39.5 585.759,-39.5 593.87,-39.5"/>
<polygon fill="midnightblue" stroke="midnightblue" points="568.4,-36.0001 558.4,-39.5 568.4,-43.0001 568.4,-36.0001"/>
</g>
<!-- Node143 -->
<g id="node7" class="node"><title>Node143</title>
<g id="a_node7"><a xlink:href="lhx_2main_8cpp.html#abb1f1ad236423a832fd1efa1e9deeafa" target="_top" xlink:title="Pour un segment donné (sous&#45;ensemble de bases de paye XML), redécoupe le segment en partie égales ou ...">
<polygon fill="white" stroke="black" points="692,-30 692,-49 786,-49 786,-30 692,-30"/>
<text text-anchor="middle" x="739" y="-37" font-family="Helvetica,sans-Serif" font-size="10.00">produire_segment</text>
</a>
</g>
</g>
<!-- Node142&#45;&gt;Node143 -->
<g id="edge6" class="edge"><title>Node142&#45;&gt;Node143</title>
<path fill="none" stroke="midnightblue" d="M666.219,-39.5C674.537,-39.5 683.362,-39.5 691.872,-39.5"/>
<polygon fill="midnightblue" stroke="midnightblue" points="666.014,-36.0001 656.014,-39.5 666.014,-43.0001 666.014,-36.0001"/>
</g>
<!-- Node144 -->
<g id="node8" class="node"><title>Node144</title>
<g id="a_node8"><a xlink:href="lhx_2main_8cpp.html#a3c04138a5bfe5d72780bb7e82a18e627" target="_top" xlink:title="main">
<polygon fill="white" stroke="black" points="822,-30 822,-49 860,-49 860,-30 822,-30"/>
<text text-anchor="middle" x="841" y="-37" font-family="Helvetica,sans-Serif" font-size="10.00">main</text>
</a>
</g>
</g>
<!-- Node143&#45;&gt;Node144 -->
<g id="edge7" class="edge"><title>Node143&#45;&gt;Node144</title>
<path fill="none" stroke="midnightblue" d="M796.316,-39.5C805.594,-39.5 814.577,-39.5 821.96,-39.5"/>
<polygon fill="midnightblue" stroke="midnightblue" points="796.195,-36.0001 786.195,-39.5 796.195,-43.0001 796.195,-36.0001"/>
</g>
<!-- Node145&#45;&gt;Node139 -->
<g id="edge9" class="edge"><title>Node145&#45;&gt;Node139</title>
<path fill="none" stroke="midnightblue" d="M253.342,-27.8947C262.235,-29.8003 271.066,-31.6927 278.937,-33.3793"/>
<polygon fill="midnightblue" stroke="midnightblue" points="253.834,-24.4208 243.323,-25.7478 252.368,-31.2655 253.834,-24.4208"/>
</g>
</g>
</svg>
