<?xml version="1.0" encoding="UTF-8" standalone="no"?>
<!DOCTYPE svg PUBLIC "-//W3C//DTD SVG 1.1//EN"
 "http://www.w3.org/Graphics/SVG/1.1/DTD/svg11.dtd">
<!-- Generated by graphviz version 2.38.0 (20140413.2041)
 -->
<!-- Title: substituer_separateur_decimal Pages: 1 -->
<!--zoomable 88 -->
<svg id="main" version="1.1" xmlns="http://www.w3.org/2000/svg" xmlns:xlink="http://www.w3.org/1999/xlink" xml:space="preserve" onload="init(evt)">
<style type="text/css"><![CDATA[
.edge:hover path { stroke: red; }
.edge:hover polygon { stroke: red; fill: red; }
]]></style>
<script type="text/javascript"><![CDATA[
var edges = document.getElementsByTagName('g');
if (edges && edges.length) {
  for (var i=0;i<edges.length;i++) {
    if (edges[i].id.substr(0,4)=='edge') {
      edges[i].setAttribute('class','edge');
    }
  }
}
]]></script>
        <defs>
                <circle id="rim" cx="0" cy="0" r="7"/>
                <circle id="rim2" cx="0" cy="0" r="3.5"/>
                <g id="zoomPlus">
                        <use xlink:href="#rim" fill="#404040">
                                <set attributeName="fill" to="#808080" begin="zoomplus.mouseover" end="zoomplus.mouseout"/>
                        </use>
                        <path d="M-4,0h8M0,-4v8" fill="none" stroke="white" stroke-width="1.5" pointer-events="none"/>
                </g>
                <g id="zoomMin">
                        <use xlink:href="#rim" fill="#404040">
                                <set attributeName="fill" to="#808080" begin="zoomminus.mouseover" end="zoomminus.mouseout"/>
                        </use>
                        <path d="M-4,0h8" fill="none" stroke="white" stroke-width="1.5" pointer-events="none"/>
                </g>
                <g id="dirArrow">
                        <path fill="none" stroke="white" stroke-width="1.5" d="M0,-3.0v7 M-2.5,-0.5L0,-3.0L2.5,-0.5"/>
                </g>
               <g id="resetDef">
                       <use xlink:href="#rim2" fill="#404040">
                               <set attributeName="fill" to="#808080" begin="reset.mouseover" end="reset.mouseout"/>
                       </use>
               </g>
        </defs>

<script type="text/javascript">
var viewWidth = 868;
var viewHeight = 88;
var sectionId = 'dynsection-19';
</script>
<script xlink:href="svgpan.js"/>
<svg id="graph" class="graph">
<g id="viewport">
<title>substituer_separateur_decimal</title>
<polygon fill="white" stroke="none" points="-4,4 -4,-84 864,-84 864,4 -4,4"/>
<!-- Node137 -->
<g id="node1" class="node"><title>Node137</title>
<polygon fill="#bfbfbf" stroke="black" points="0,-24.5 0,-54.5 110,-54.5 110,-24.5 0,-24.5"/>
<text text-anchor="start" x="8" y="-42.5" font-family="Helvetica,sans-Serif" font-size="10.00">substituer_separateur</text>
<text text-anchor="middle" x="55" y="-31.5" font-family="Helvetica,sans-Serif" font-size="10.00">_decimal</text>
</g>
<!-- Node138 -->
<g id="node2" class="node"><title>Node138</title>
<g id="a_node2"><a xlink:href="ligne__paye_8cpp.html#a8636e0f8d6d7fce58969c36956342c90" target="_top" xlink:title="Appelle Bulletin. ">
<polygon fill="white" stroke="black" points="146,-49.5 146,-79.5 243,-79.5 243,-49.5 146,-49.5"/>
<text text-anchor="start" x="154" y="-67.5" font-family="Helvetica,sans-Serif" font-size="10.00">bulletin_obligatoire</text>
<text text-anchor="middle" x="194.5" y="-56.5" font-family="Helvetica,sans-Serif" font-size="10.00">_numerique</text>
</a>
</g>
</g>
<!-- Node137&#45;&gt;Node138 -->
<g id="edge1" class="edge"><title>Node137&#45;&gt;Node138</title>
<path fill="none" stroke="midnightblue" d="M120.331,-51.1965C128.901,-52.7548 137.564,-54.3298 145.783,-55.8242"/>
<polygon fill="midnightblue" stroke="midnightblue" points="120.808,-47.7261 110.344,-49.3807 119.556,-54.6131 120.808,-47.7261"/>
</g>
<!-- Node145 -->
<g id="node9" class="node"><title>Node145</title>
<g id="a_node9"><a xlink:href="ligne__paye_8cpp.html#a9ddbe10974c6bd265152624a68cd0580" target="_top" xlink:title="Appelle Bulletin. ">
<polygon fill="white" stroke="black" points="148.5,-0.5 148.5,-30.5 240.5,-30.5 240.5,-0.5 148.5,-0.5"/>
<text text-anchor="start" x="156.5" y="-18.5" font-family="Helvetica,sans-Serif" font-size="10.00">bulletin_optionnel</text>
<text text-anchor="middle" x="194.5" y="-7.5" font-family="Helvetica,sans-Serif" font-size="10.00">_numerique</text>
</a>
</g>
</g>
<!-- Node137&#45;&gt;Node145 -->
<g id="edge8" class="edge"><title>Node137&#45;&gt;Node145</title>
<path fill="none" stroke="midnightblue" d="M120.202,-28.2939C129.732,-26.6305 139.379,-24.9466 148.406,-23.371"/>
<polygon fill="midnightblue" stroke="midnightblue" points="119.593,-24.8472 110.344,-30.0146 120.797,-31.7429 119.593,-24.8472"/>
</g>
<!-- Node139 -->
<g id="node3" class="node"><title>Node139</title>
<g id="a_node3"><a xlink:href="ligne__paye_8cpp.html#ab0033809d3d04a56bf668e6722da255c" target="_top" xlink:title="Analyse les noeuds fils du noeud. ">
<polygon fill="white" stroke="black" points="279,-30 279,-49 338,-49 338,-30 279,-30"/>
<text text-anchor="middle" x="308.5" y="-37" font-family="Helvetica,sans-Serif" font-size="10.00">lignePaye</text>
</a>
</g>
</g>
<!-- Node138&#45;&gt;Node139 -->
<g id="edge2" class="edge"><title>Node138&#45;&gt;Node139</title>
<path fill="none" stroke="midnightblue" d="M253.342,-51.5889C262.235,-49.6038 271.066,-47.6326 278.937,-45.8758"/>
<polygon fill="midnightblue" stroke="midnightblue" points="252.32,-48.2307 243.323,-53.8252 253.845,-55.0626 252.32,-48.2307"/>
</g>
<!-- Node140 -->
<g id="node4" class="node"><title>Node140</title>
<g id="a_node4"><a xlink:href="validator_8cpp.html#abdf1df3dd61991073a485a3e5d8addd2" target="_top" xlink:title="Lance le décodage des variables Bulletins de paye (Nom, Prenom, Matricule,...) ">
<polygon fill="white" stroke="black" points="374,-30 374,-49 466,-49 466,-30 374,-30"/>
<text text-anchor="middle" x="420" y="-37" font-family="Helvetica,sans-Serif" font-size="10.00">parseLignesPaye</text>
</a>
</g>
</g>
<!-- Node139&#45;&gt;Node140 -->
<g id="edge3" class="edge"><title>Node139&#45;&gt;Node140</title>
<path fill="none" stroke="midnightblue" d="M348.386,-39.5C356.645,-39.5 365.431,-39.5 373.899,-39.5"/>
<polygon fill="midnightblue" stroke="midnightblue" points="348.27,-36.0001 338.27,-39.5 348.27,-43.0001 348.27,-36.0001"/>
</g>
<!-- Node141 -->
<g id="node5" class="node"><title>Node141</title>
<g id="a_node5"><a xlink:href="validator_8cpp.html#ae1ac2699ac4449a4a9a16b0e37234b35" target="_top" xlink:title="Décode une structure info_t contenant les données de paye à l&#39;état brut &quot;fichier&quot; (...">
<polygon fill="white" stroke="black" points="502,-30 502,-49 558,-49 558,-30 502,-30"/>
<text text-anchor="middle" x="530" y="-37" font-family="Helvetica,sans-Serif" font-size="10.00">parseFile</text>
</a>
</g>
</g>
<!-- Node140&#45;&gt;Node141 -->
<g id="edge4" class="edge"><title>Node140&#45;&gt;Node141</title>
<path fill="none" stroke="midnightblue" d="M476.218,-39.5C485.143,-39.5 494.022,-39.5 501.882,-39.5"/>
<polygon fill="midnightblue" stroke="midnightblue" points="476.176,-36.0001 466.176,-39.5 476.176,-43.0001 476.176,-36.0001"/>
</g>
<!-- Node142 -->
<g id="node6" class="node"><title>Node142</title>
<g id="a_node6"><a xlink:href="validator_8h.html#a36359f86441c3ac6219a34f63b8c3da6" target="_top" xlink:title="Lance l&#39;ensemble des processus de pré&#45;traitement et de post&#45;traitement des fichiers de paye...">
<polygon fill="white" stroke="black" points="594,-30 594,-49 656,-49 656,-30 594,-30"/>
<text text-anchor="middle" x="625" y="-37" font-family="Helvetica,sans-Serif" font-size="10.00">parse_info</text>
</a>
</g>
</g>
<!-- Node141&#45;&gt;Node142 -->
<g id="edge5" class="edge"><title>Node141&#45;&gt;Node142</title>
<path fill="none" stroke="midnightblue" d="M568.429,-39.5C576.886,-39.5 585.759,-39.5 593.87,-39.5"/>
<polygon fill="midnightblue" stroke="midnightblue" points="568.4,-36.0001 558.4,-39.5 568.4,-43.0001 568.4,-36.0001"/>
</g>
<!-- Node143 -->
<g id="node7" class="node"><title>Node143</title>
<g id="a_node7"><a xlink:href="lhx_2main_8cpp.html#ae310350c218de4ee80cbf65bc27bcd1b" target="_top" xlink:title="Pour un segment donné (sous&#45;ensemble de bases de paye XML), redécoupe le segment en partie égales ou ...">
<polygon fill="white" stroke="black" points="692,-30 692,-49 786,-49 786,-30 692,-30"/>
<text text-anchor="middle" x="739" y="-37" font-family="Helvetica,sans-Serif" font-size="10.00">produire_segment</text>
</a>
</g>
</g>
<!-- Node142&#45;&gt;Node143 -->
<g id="edge6" class="edge"><title>Node142&#45;&gt;Node143</title>
<path fill="none" stroke="midnightblue" d="M666.219,-39.5C674.537,-39.5 683.362,-39.5 691.872,-39.5"/>
<polygon fill="midnightblue" stroke="midnightblue" points="666.014,-36.0001 656.014,-39.5 666.014,-43.0001 666.014,-36.0001"/>
</g>
<!-- Node144 -->
<g id="node8" class="node"><title>Node144</title>
<g id="a_node8"><a xlink:href="lhx_2main_8cpp.html#a3c04138a5bfe5d72780bb7e82a18e627" target="_top" xlink:title="main">
<polygon fill="white" stroke="black" points="822,-30 822,-49 860,-49 860,-30 822,-30"/>
<text text-anchor="middle" x="841" y="-37" font-family="Helvetica,sans-Serif" font-size="10.00">main</text>
</a>
</g>
</g>
<!-- Node143&#45;&gt;Node144 -->
<g id="edge7" class="edge"><title>Node143&#45;&gt;Node144</title>
<path fill="none" stroke="midnightblue" d="M796.316,-39.5C805.594,-39.5 814.577,-39.5 821.96,-39.5"/>
<polygon fill="midnightblue" stroke="midnightblue" points="796.195,-36.0001 786.195,-39.5 796.195,-43.0001 796.195,-36.0001"/>
</g>
<!-- Node145&#45;&gt;Node139 -->
<g id="edge9" class="edge"><title>Node145&#45;&gt;Node139</title>
<path fill="none" stroke="midnightblue" d="M250.795,-27.3489C260.508,-29.4303 270.25,-31.5178 278.85,-33.3608"/>
<polygon fill="midnightblue" stroke="midnightblue" points="251.243,-23.8656 240.732,-25.1925 249.776,-30.7102 251.243,-23.8656"/>
</g>
</g>
</svg>
        <g id="navigator" transform="translate(0 0)" fill="#404254">
                <rect fill="#f2f5e9" fill-opacity="0.5" stroke="#606060" stroke-width=".5" x="0" y="0" width="60" height="60"/>
                <use id="zoomplus" xlink:href="#zoomPlus" x="17" y="9" onmousedown="handleZoom(evt,'in')"/>
                <use id="zoomminus" xlink:href="#zoomMin" x="42" y="9" onmousedown="handleZoom(evt,'out')"/>
                <use id="reset" xlink:href="#resetDef" x="30" y="36" onmousedown="handleReset()"/>
                <g id="arrowUp" xlink:href="#dirArrow" transform="translate(30 24)" onmousedown="handlePan(0,-1)">
                  <use xlink:href="#rim" fill="#404040">
                        <set attributeName="fill" to="#808080" begin="arrowUp.mouseover" end="arrowUp.mouseout"/>
                  </use>
                  <path fill="none" stroke="white" stroke-width="1.5" d="M0,-3.0v7 M-2.5,-0.5L0,-3.0L2.5,-0.5"/>
                </g>
                <g id="arrowRight" xlink:href="#dirArrow" transform="rotate(90) translate(36 -43)" onmousedown="handlePan(1,0)">
                  <use xlink:href="#rim" fill="#404040">
                        <set attributeName="fill" to="#808080" begin="arrowRight.mouseover" end="arrowRight.mouseout"/>
                  </use>
                  <path fill="none" stroke="white" stroke-width="1.5" d="M0,-3.0v7 M-2.5,-0.5L0,-3.0L2.5,-0.5"/>
                </g>
                <g id="arrowDown" xlink:href="#dirArrow" transform="rotate(180) translate(-30 -48)" onmousedown="handlePan(0,1)">
                  <use xlink:href="#rim" fill="#404040">
                        <set attributeName="fill" to="#808080" begin="arrowDown.mouseover" end="arrowDown.mouseout"/>
                  </use>
                  <path fill="none" stroke="white" stroke-width="1.5" d="M0,-3.0v7 M-2.5,-0.5L0,-3.0L2.5,-0.5"/>
                </g>
                <g id="arrowLeft" xlink:href="#dirArrow" transform="rotate(270) translate(-36 17)" onmousedown="handlePan(-1,0)">
                  <use xlink:href="#rim" fill="#404040">
                        <set attributeName="fill" to="#808080" begin="arrowLeft.mouseover" end="arrowLeft.mouseout"/>
                  </use>
                  <path fill="none" stroke="white" stroke-width="1.5" d="M0,-3.0v7 M-2.5,-0.5L0,-3.0L2.5,-0.5"/>
                </g>
        </g>
        <svg viewBox="0 0 15 15" width="100%" height="30px" preserveAspectRatio="xMaxYMin meet">
         <g id="arrow_out" transform="scale(0.3 0.3)">
          <a xlink:href="ligne__paye_8cpp_a5342d9b40b92c978ff404415b691e059_icgraph_org.svg" target="_base">
           <rect id="button" ry="5" rx="5" y="6" x="6" height="38" width="38"
                fill="#f2f5e9" fill-opacity="0.5" stroke="#606060" stroke-width="1.0"/>
           <path id="arrow"
             d="M 11.500037,31.436501 C 11.940474,20.09759 22.043105,11.32322 32.158766,21.979434 L 37.068811,17.246167 C 37.068811,17.246167 37.088388,32 37.088388,32 L 22.160133,31.978069 C 22.160133,31.978069 26.997745,27.140456 26.997745,27.140456 C 18.528582,18.264221 13.291696,25.230495 11.500037,31.436501 z"
             style="fill:#404040;"/>
          </a>
         </g>
        </svg>
</svg>
