<?xml version="1.0" encoding="UTF-8" standalone="no"?>
<!DOCTYPE svg PUBLIC "-//W3C//DTD SVG 1.1//EN"
 "http://www.w3.org/Graphics/SVG/1.1/DTD/svg11.dtd">
<!-- Generated by graphviz version 2.38.0 (20140413.2041)
 -->
<!-- Title: allouer_ligne_NA Pages: 1 -->
<svg width="652pt" height="28pt"
 viewBox="0.00 0.00 652.00 28.00" xmlns="http://www.w3.org/2000/svg" xmlns:xlink="http://www.w3.org/1999/xlink">
<g id="graph0" class="graph" transform="scale(1 1) rotate(0) translate(4 24)">
<title>allouer_ligne_NA</title>
<polygon fill="white" stroke="none" points="-4,4 -4,-24 648,-24 648,4 -4,4"/>
<!-- Node1 -->
<g id="node1" class="node"><title>Node1</title>
<polygon fill="#bfbfbf" stroke="black" points="0,-0.5 0,-19.5 97,-19.5 97,-0.5 0,-0.5"/>
<text text-anchor="middle" x="48.5" y="-7.5" font-family="Helvetica,sans-Serif" font-size="10.00">allouer_ligne_NA</text>
</g>
<!-- Node2 -->
<g id="node2" class="node"><title>Node2</title>
<g id="a_node2"><a xlink:href="validator_8cpp.html#abdf1df3dd61991073a485a3e5d8addd2" target="_top" xlink:title="Lance le décodage des variables Bulletins de paye (Nom, Prenom, Matricule,...) ">
<polygon fill="white" stroke="black" points="133,-0.5 133,-19.5 232,-19.5 232,-0.5 133,-0.5"/>
<text text-anchor="middle" x="182.5" y="-7.5" font-family="Helvetica,sans-Serif" font-size="10.00">parseLignesPaye</text>
</a>
</g>
</g>
<!-- Node1&#45;&gt;Node2 -->
<g id="edge1" class="edge"><title>Node1&#45;&gt;Node2</title>
<path fill="none" stroke="midnightblue" d="M107.31,-10C115.741,-10 124.352,-10 132.583,-10"/>
<polygon fill="midnightblue" stroke="midnightblue" points="107.155,-6.5001 97.155,-10 107.155,-13.5001 107.155,-6.5001"/>
</g>
<!-- Node3 -->
<g id="node3" class="node"><title>Node3</title>
<g id="a_node3"><a xlink:href="validator_8cpp.html#ae1ac2699ac4449a4a9a16b0e37234b35" target="_top" xlink:title="Décode une structure info_t contenant les données de paye à l&#39;état brut &quot;fichier&quot; (...">
<polygon fill="white" stroke="black" points="268,-0.5 268,-19.5 328,-19.5 328,-0.5 268,-0.5"/>
<text text-anchor="middle" x="298" y="-7.5" font-family="Helvetica,sans-Serif" font-size="10.00">parseFile</text>
</a>
</g>
</g>
<!-- Node2&#45;&gt;Node3 -->
<g id="edge2" class="edge"><title>Node2&#45;&gt;Node3</title>
<path fill="none" stroke="midnightblue" d="M242.313,-10C251.204,-10 260.028,-10 267.909,-10"/>
<polygon fill="midnightblue" stroke="midnightblue" points="242.293,-6.5001 232.293,-10 242.293,-13.5001 242.293,-6.5001"/>
</g>
<!-- Node4 -->
<g id="node4" class="node"><title>Node4</title>
<g id="a_node4"><a xlink:href="validator_8h.html#a36359f86441c3ac6219a34f63b8c3da6" target="_top" xlink:title="Lance l&#39;ensemble des processus de pré&#45;traitement et de post&#45;traitement des fichiers de paye...">
<polygon fill="white" stroke="black" points="364,-0.5 364,-19.5 431,-19.5 431,-0.5 364,-0.5"/>
<text text-anchor="middle" x="397.5" y="-7.5" font-family="Helvetica,sans-Serif" font-size="10.00">parse_info</text>
</a>
</g>
</g>
<!-- Node3&#45;&gt;Node4 -->
<g id="edge3" class="edge"><title>Node3&#45;&gt;Node4</title>
<path fill="none" stroke="midnightblue" d="M338.323,-10C346.798,-10 355.668,-10 363.856,-10"/>
<polygon fill="midnightblue" stroke="midnightblue" points="338.253,-6.5001 328.253,-10 338.253,-13.5001 338.253,-6.5001"/>
</g>
<!-- Node5 -->
<g id="node5" class="node"><title>Node5</title>
<g id="a_node5"><a xlink:href="lhx_2main_8cpp.html#abb1f1ad236423a832fd1efa1e9deeafa" target="_top" xlink:title="Pour un segment donné (sous&#45;ensemble de bases de paye XML), redécoupe le segment en partie égales ou ...">
<polygon fill="white" stroke="black" points="467,-0.5 467,-19.5 569,-19.5 569,-0.5 467,-0.5"/>
<text text-anchor="middle" x="518" y="-7.5" font-family="Helvetica,sans-Serif" font-size="10.00">produire_segment</text>
</a>
</g>
</g>
<!-- Node4&#45;&gt;Node5 -->
<g id="edge4" class="edge"><title>Node4&#45;&gt;Node5</title>
<path fill="none" stroke="midnightblue" d="M441.308,-10C449.527,-10 458.206,-10 466.638,-10"/>
<polygon fill="midnightblue" stroke="midnightblue" points="441.194,-6.5001 431.194,-10 441.194,-13.5001 441.194,-6.5001"/>
</g>
<!-- Node6 -->
<g id="node6" class="node"><title>Node6</title>
<g id="a_node6"><a xlink:href="lhx_2main_8cpp.html#a3c04138a5bfe5d72780bb7e82a18e627" target="_top" xlink:title="main">
<polygon fill="white" stroke="black" points="605,-0.5 605,-19.5 644,-19.5 644,-0.5 605,-0.5"/>
<text text-anchor="middle" x="624.5" y="-7.5" font-family="Helvetica,sans-Serif" font-size="10.00">main</text>
</a>
</g>
</g>
<!-- Node5&#45;&gt;Node6 -->
<g id="edge5" class="edge"><title>Node5&#45;&gt;Node6</title>
<path fill="none" stroke="midnightblue" d="M579.271,-10C588.565,-10 597.512,-10 604.898,-10"/>
<polygon fill="midnightblue" stroke="midnightblue" points="579.108,-6.5001 569.107,-10 579.107,-13.5001 579.108,-6.5001"/>
</g>
</g>
</svg>
