<?xml version="1.0" encoding="UTF-8" standalone="no"?>
<!DOCTYPE svg PUBLIC "-//W3C//DTD SVG 1.1//EN"
 "http://www.w3.org/Graphics/SVG/1.1/DTD/svg11.dtd">
<!-- Generated by graphviz version 2.40.1 (20161225.0304)
 -->
<!-- Title: lhx/ligne_paye.h Pages: 1 -->
<!--zoomable 308 -->
<svg id="main" version="1.1" xmlns="http://www.w3.org/2000/svg" xmlns:xlink="http://www.w3.org/1999/xlink" xml:space="preserve" onload="init(evt)">
<style type="text/css"><![CDATA[
.edge:hover path { stroke: red; }
.edge:hover polygon { stroke: red; fill: red; }
]]></style>
<script type="text/javascript"><![CDATA[
var edges = document.getElementsByTagName('g');
if (edges && edges.length) {
  for (var i=0;i<edges.length;i++) {
    if (edges[i].id.substr(0,4)=='edge') {
      edges[i].setAttribute('class','edge');
    }
  }
}
]]></script>
        <defs>
                <circle id="rim" cx="0" cy="0" r="7"/>
                <circle id="rim2" cx="0" cy="0" r="3.5"/>
                <g id="zoomPlus">
                        <use xlink:href="#rim" fill="#404040">
                                <set attributeName="fill" to="#808080" begin="zoomplus.mouseover" end="zoomplus.mouseout"/>
                        </use>
                        <path d="M-4,0h8M0,-4v8" fill="none" stroke="white" stroke-width="1.5" pointer-events="none"/>
                </g>
                <g id="zoomMin">
                        <use xlink:href="#rim" fill="#404040">
                                <set attributeName="fill" to="#808080" begin="zoomminus.mouseover" end="zoomminus.mouseout"/>
                        </use>
                        <path d="M-4,0h8" fill="none" stroke="white" stroke-width="1.5" pointer-events="none"/>
                </g>
                <g id="dirArrow">
                        <path fill="none" stroke="white" stroke-width="1.5" d="M0,-3.0v7 M-2.5,-0.5L0,-3.0L2.5,-0.5"/>
                </g>
               <g id="resetDef">
                       <use xlink:href="#rim2" fill="#404040">
                               <set attributeName="fill" to="#808080" begin="reset.mouseover" end="reset.mouseout"/>
                       </use>
               </g>
        </defs>

<script type="text/javascript">
var viewWidth = 1614;
var viewHeight = 308;
var sectionId = 'dynsection-0';
</script>
<script xlink:href="svgpan.js"/>
<svg id="graph" class="graph">
<g id="viewport">
<title>lhx/ligne_paye.h</title>
<polygon fill="#ffffff" stroke="transparent" points="-4,4 -4,-304 1610,-304 1610,4 -4,4"/>
<!-- Node0 -->
<g id="node1" class="node">
<title>Node0</title>
<polygon fill="#bfbfbf" stroke="#000000" points="289.5,-280.5 289.5,-299.5 376.5,-299.5 376.5,-280.5 289.5,-280.5"/>
<text text-anchor="middle" x="333" y="-287.5" font-family="Helvetica,sans-Serif" font-size="10.00" fill="#000000">lhx/ligne_paye.h</text>
</g>
<!-- Node1 -->
<g id="node2" class="node">
<title>Node1</title>
<polygon fill="#ffffff" stroke="#bfbfbf" points="64,-112.5 64,-131.5 114,-131.5 114,-112.5 64,-112.5"/>
<text text-anchor="middle" x="89" y="-119.5" font-family="Helvetica,sans-Serif" font-size="10.00" fill="#000000">iomanip</text>
</g>
<!-- Node0&#45;&gt;Node1 -->
<g id="edge1" class="edge">
<title>Node0&#45;&gt;Node1</title>
<path fill="none" stroke="#191970" d="M289.2834,-284.7602C253.3718,-278.9638 202.2165,-267.1845 163,-244 133.2368,-226.4042 126.5007,-217.8192 109,-188 100.5725,-173.6406 95.3993,-155.4063 92.4316,-141.7441"/>
<polygon fill="#191970" stroke="#191970" points="95.7882,-140.6712 90.4344,-131.5286 88.9182,-142.0144 95.7882,-140.6712"/>
</g>
<!-- Node2 -->
<g id="node3" class="node">
<title>Node2</title>
<polygon fill="#ffffff" stroke="#bfbfbf" points="257,-112.5 257,-131.5 311,-131.5 311,-112.5 257,-112.5"/>
<text text-anchor="middle" x="284" y="-119.5" font-family="Helvetica,sans-Serif" font-size="10.00" fill="#000000">iostream</text>
</g>
<!-- Node0&#45;&gt;Node2 -->
<g id="edge2" class="edge">
<title>Node0&#45;&gt;Node2</title>
<path fill="none" stroke="#191970" d="M289.4078,-281.781C241.3095,-270.1299 166.1911,-243.6922 132,-188 104.5537,-143.294 193.3225,-128.7897 246.6756,-124.1443"/>
<polygon fill="#191970" stroke="#191970" points="247.1365,-127.6189 256.8291,-123.3406 246.5841,-120.6407 247.1365,-127.6189"/>
</g>
<!-- Node3 -->
<g id="node4" class="node">
<title>Node3</title>
<polygon fill="#ffffff" stroke="#bfbfbf" points="0,-112.5 0,-131.5 46,-131.5 46,-112.5 0,-112.5"/>
<text text-anchor="middle" x="23" y="-119.5" font-family="Helvetica,sans-Serif" font-size="10.00" fill="#000000">cstring</text>
</g>
<!-- Node0&#45;&gt;Node3 -->
<g id="edge3" class="edge">
<title>Node0&#45;&gt;Node3</title>
<path fill="none" stroke="#191970" d="M289.0609,-283.1513C238.2418,-274.6783 158.2029,-259.469 132,-244 87.5856,-217.7797 51.3365,-167.3722 34.0163,-140.2842"/>
<polygon fill="#191970" stroke="#191970" points="36.958,-138.3869 28.697,-131.7532 31.0181,-142.0907 36.958,-138.3869"/>
</g>
<!-- Node4 -->
<g id="node5" class="node">
<title>Node4</title>
<g id="a_node5"><a xlink:href="fonctions__auxiliaires_8h.html" target="_top" xlink:title="Diverses fonctions auxiliaires en inlining. ">
<polygon fill="#ffffff" stroke="#000000" points="521.5,-224.5 521.5,-243.5 634.5,-243.5 634.5,-224.5 521.5,-224.5"/>
<text text-anchor="middle" x="578" y="-231.5" font-family="Helvetica,sans-Serif" font-size="10.00" fill="#000000">fonctions_auxiliaires.h</text>
</a>
</g>
</g>
<!-- Node0&#45;&gt;Node4 -->
<g id="edge4" class="edge">
<title>Node0&#45;&gt;Node4</title>
<path fill="none" stroke="#191970" d="M374.8386,-280.4369C416.7685,-270.8529 481.3948,-256.0812 526.4624,-245.78"/>
<polygon fill="#191970" stroke="#191970" points="527.3653,-249.164 536.3339,-243.5237 525.8054,-242.34 527.3653,-249.164"/>
</g>
<!-- Node21 -->
<g id="node22" class="node">
<title>Node21</title>
<g id="a_node22"><a xlink:href="tags_8h.html" target="_top" xlink:title="tags.h">
<polygon fill="#ffffff" stroke="#000000" points="1562,-112.5 1562,-131.5 1606,-131.5 1606,-112.5 1562,-112.5"/>
<text text-anchor="middle" x="1584" y="-119.5" font-family="Helvetica,sans-Serif" font-size="10.00" fill="#000000">tags.h</text>
</a>
</g>
</g>
<!-- Node0&#45;&gt;Node21 -->
<g id="edge54" class="edge">
<title>Node0&#45;&gt;Node21</title>
<path fill="none" stroke="#191970" d="M376.624,-288.6896C534.4465,-283.8109 1075.4037,-265.8523 1247,-244 1369.4356,-228.4082 1410.569,-246.9602 1519,-188 1540.4953,-176.3117 1559.3988,-155.2055 1571.1991,-140.0036"/>
<polygon fill="#191970" stroke="#191970" points="1574.109,-141.9566 1577.2921,-131.8511 1568.502,-137.766 1574.109,-141.9566"/>
</g>
<!-- Node35 -->
<g id="node36" class="node">
<title>Node35</title>
<g id="a_node36"><a xlink:href="table_8h.html" target="_top" xlink:title="table.h">
<polygon fill="#ffffff" stroke="#000000" points="1192,-224.5 1192,-243.5 1238,-243.5 1238,-224.5 1192,-224.5"/>
<text text-anchor="middle" x="1215" y="-231.5" font-family="Helvetica,sans-Serif" font-size="10.00" fill="#000000">table.h</text>
</a>
</g>
</g>
<!-- Node0&#45;&gt;Node35 -->
<g id="edge48" class="edge">
<title>Node0&#45;&gt;Node35</title>
<path fill="none" stroke="#191970" d="M376.7385,-287.223C530.5555,-277.4568 1044.6657,-244.8149 1181.3733,-236.135"/>
<polygon fill="#191970" stroke="#191970" points="1181.8768,-239.6102 1191.6349,-235.4835 1181.4332,-232.6243 1181.8768,-239.6102"/>
</g>
<!-- Node4&#45;&gt;Node1 -->
<g id="edge38" class="edge">
<title>Node4&#45;&gt;Node1</title>
<path fill="none" stroke="#191970" d="M521.3506,-230.879C408.6975,-224.2801 164.5557,-207.8735 132,-188 114.5494,-177.3473 102.8159,-156.6282 96.0735,-141.2328"/>
<polygon fill="#191970" stroke="#191970" points="99.1805,-139.5791 92.1941,-131.6142 92.6886,-142.1975 99.1805,-139.5791"/>
</g>
<!-- Node4&#45;&gt;Node2 -->
<g id="edge31" class="edge">
<title>Node4&#45;&gt;Node2</title>
<path fill="none" stroke="#191970" d="M542.5479,-224.4424C514.3893,-216.2982 474.3425,-203.4695 441,-188 425.4428,-180.7821 423.4423,-175.4604 408,-168 379.5266,-154.2441 345.8023,-141.976 320.717,-133.5758"/>
<polygon fill="#191970" stroke="#191970" points="321.8096,-130.2508 311.2165,-130.4407 319.616,-136.8982 321.8096,-130.2508"/>
</g>
<!-- Node4&#45;&gt;Node3 -->
<g id="edge36" class="edge">
<title>Node4&#45;&gt;Node3</title>
<path fill="none" stroke="#191970" d="M521.3686,-232.3278C413.4936,-228.5088 182.7158,-217.1161 109,-188 81.5724,-177.1667 55.5024,-154.8699 39.4029,-139.2006"/>
<polygon fill="#191970" stroke="#191970" points="41.4753,-136.3216 31.9384,-131.7066 36.5158,-141.2616 41.4753,-136.3216"/>
</g>
<!-- Node5 -->
<g id="node6" class="node">
<title>Node5</title>
<g id="a_node6"><a xlink:href="validator_8h.html" target="_top" xlink:title="Ce fichier contient notamment la structure info_t qui stocke les données de paye décodées ainsi que l...">
<polygon fill="#ffffff" stroke="#000000" points="1022,-168.5 1022,-187.5 1084,-187.5 1084,-168.5 1022,-168.5"/>
<text text-anchor="middle" x="1053" y="-175.5" font-family="Helvetica,sans-Serif" font-size="10.00" fill="#000000">validator.h</text>
</a>
</g>
</g>
<!-- Node4&#45;&gt;Node5 -->
<g id="edge5" class="edge">
<title>Node4&#45;&gt;Node5</title>
<path fill="none" stroke="#191970" d="M634.7459,-227.5937C711.6521,-218.869 853.2455,-202.6558 974,-188 986.3302,-186.5035 999.736,-184.8257 1011.9437,-183.2782"/>
<polygon fill="#191970" stroke="#191970" points="1012.3883,-186.75 1021.8666,-182.0158 1011.5048,-179.806 1012.3883,-186.75"/>
</g>
<!-- Node6 -->
<g id="node7" class="node">
<title>Node6</title>
<polygon fill="#ffffff" stroke="#bfbfbf" points="1502.5,-112.5 1502.5,-131.5 1543.5,-131.5 1543.5,-112.5 1502.5,-112.5"/>
<text text-anchor="middle" x="1523" y="-119.5" font-family="Helvetica,sans-Serif" font-size="10.00" fill="#000000">string</text>
</g>
<!-- Node4&#45;&gt;Node6 -->
<g id="edge44" class="edge">
<title>Node4&#45;&gt;Node6</title>
<path fill="none" stroke="#191970" d="M634.9165,-231.627C742.3814,-226.7136 982.3879,-213.6773 1183,-188 1318.6199,-170.6414 1355.633,-166.8447 1492.4337,-131.8516"/>
<polygon fill="#191970" stroke="#191970" points="1493.6431,-135.1547 1502.4585,-129.2776 1491.9022,-128.3746 1493.6431,-135.1547"/>
</g>
<!-- Node8 -->
<g id="node9" class="node">
<title>Node8</title>
<polygon fill="#ffffff" stroke="#bfbfbf" points="385,-112.5 385,-131.5 431,-131.5 431,-112.5 385,-112.5"/>
<text text-anchor="middle" x="408" y="-119.5" font-family="Helvetica,sans-Serif" font-size="10.00" fill="#000000">cstdint</text>
</g>
<!-- Node4&#45;&gt;Node8 -->
<g id="edge37" class="edge">
<title>Node4&#45;&gt;Node8</title>
<path fill="none" stroke="#191970" d="M563.6113,-224.322C544.3793,-211.406 509.209,-187.8544 479,-168 463.1927,-157.6109 445.3207,-146.0327 431.462,-137.0913"/>
<polygon fill="#191970" stroke="#191970" points="433.2981,-134.1107 422.9965,-131.6352 429.5059,-139.9945 433.2981,-134.1107"/>
</g>
<!-- Node16 -->
<g id="node17" class="node">
<title>Node16</title>
<polygon fill="#ffffff" stroke="#bfbfbf" points="449,-112.5 449,-131.5 529,-131.5 529,-112.5 449,-112.5"/>
<text text-anchor="middle" x="489" y="-119.5" font-family="Helvetica,sans-Serif" font-size="10.00" fill="#000000">libxml/parser.h</text>
</g>
<!-- Node4&#45;&gt;Node16 -->
<g id="edge30" class="edge">
<title>Node4&#45;&gt;Node16</title>
<path fill="none" stroke="#191970" d="M582.361,-224.1852C587.7277,-210.4825 594.8774,-185.3525 584,-168 573.8171,-151.7554 556.0898,-141.1056 538.6856,-134.1907"/>
<polygon fill="#191970" stroke="#191970" points="539.694,-130.8336 529.0998,-130.7216 537.3118,-137.4158 539.694,-130.8336"/>
</g>
<!-- Node18 -->
<g id="node19" class="node">
<title>Node18</title>
<polygon fill="#ffffff" stroke="#bfbfbf" points="1440,-112.5 1440,-131.5 1484,-131.5 1484,-112.5 1440,-112.5"/>
<text text-anchor="middle" x="1462" y="-119.5" font-family="Helvetica,sans-Serif" font-size="10.00" fill="#000000">vector</text>
</g>
<!-- Node4&#45;&gt;Node18 -->
<g id="edge34" class="edge">
<title>Node4&#45;&gt;Node18</title>
<path fill="none" stroke="#191970" d="M634.5421,-230.3449C729.4993,-223.8943 926.9276,-209.144 1093,-188 1240.8055,-169.1817 1281.2999,-167.9613 1429.8202,-132.0262"/>
<polygon fill="#191970" stroke="#191970" points="1430.8718,-135.3726 1439.7614,-129.6085 1429.2175,-128.5708 1430.8718,-135.3726"/>
</g>
<!-- Node19 -->
<g id="node20" class="node">
<title>Node19</title>
<polygon fill="#ffffff" stroke="#bfbfbf" points="329,-112.5 329,-131.5 367,-131.5 367,-112.5 329,-112.5"/>
<text text-anchor="middle" x="348" y="-119.5" font-family="Helvetica,sans-Serif" font-size="10.00" fill="#000000">array</text>
</g>
<!-- Node4&#45;&gt;Node19 -->
<g id="edge45" class="edge">
<title>Node4&#45;&gt;Node19</title>
<path fill="none" stroke="#191970" d="M556.612,-224.4315C536.4624,-215.3301 505.4959,-201.1182 479,-188 461.8963,-179.5319 457.9993,-176.6759 441,-168 419.4131,-156.9827 394.828,-144.8397 376.3592,-135.7976"/>
<polygon fill="#191970" stroke="#191970" points="377.8283,-132.62 367.307,-131.3742 374.755,-138.9093 377.8283,-132.62"/>
</g>
<!-- Node4&#45;&gt;Node21 -->
<g id="edge47" class="edge">
<title>Node4&#45;&gt;Node21</title>
<path fill="none" stroke="#191970" d="M634.6705,-232.6856C752.9932,-229.4017 1034.7578,-218.7621 1269,-188 1393.3186,-171.6737 1426.7732,-164.6101 1551.7809,-132.1175"/>
<polygon fill="#191970" stroke="#191970" points="1552.9445,-135.4314 1561.7407,-129.5256 1551.1815,-128.657 1552.9445,-135.4314"/>
</g>
<!-- Node26 -->
<g id="node27" class="node">
<title>Node26</title>
<polygon fill="#ffffff" stroke="#bfbfbf" points="279,-168.5 279,-187.5 331,-187.5 331,-168.5 279,-168.5"/>
<text text-anchor="middle" x="305" y="-175.5" font-family="Helvetica,sans-Serif" font-size="10.00" fill="#000000">sstream</text>
</g>
<!-- Node4&#45;&gt;Node26 -->
<g id="edge32" class="edge">
<title>Node4&#45;&gt;Node26</title>
<path fill="none" stroke="#191970" d="M521.4399,-224.5037C475.2988,-216.4308 408.2473,-203.9607 341.1982,-188.1414"/>
<polygon fill="#191970" stroke="#191970" points="341.8474,-184.6981 331.3082,-185.7832 340.2237,-191.5072 341.8474,-184.6981"/>
</g>
<!-- Node27 -->
<g id="node28" class="node">
<title>Node27</title>
<polygon fill="#ffffff" stroke="#bfbfbf" points="349,-168.5 349,-187.5 399,-187.5 399,-168.5 349,-168.5"/>
<text text-anchor="middle" x="374" y="-175.5" font-family="Helvetica,sans-Serif" font-size="10.00" fill="#000000">fstream</text>
</g>
<!-- Node4&#45;&gt;Node27 -->
<g id="edge33" class="edge">
<title>Node4&#45;&gt;Node27</title>
<path fill="none" stroke="#191970" d="M542.9311,-224.3733C505.5488,-214.1114 446.6921,-197.9547 409.2431,-187.6746"/>
<polygon fill="#191970" stroke="#191970" points="409.8537,-184.2128 399.2839,-184.9407 408.0006,-190.9631 409.8537,-184.2128"/>
</g>
<!-- Node28 -->
<g id="node29" class="node">
<title>Node28</title>
<polygon fill="#ffffff" stroke="#bfbfbf" points="531,-168.5 531,-187.5 575,-187.5 575,-168.5 531,-168.5"/>
<text text-anchor="middle" x="553" y="-175.5" font-family="Helvetica,sans-Serif" font-size="10.00" fill="#000000">mutex</text>
</g>
<!-- Node4&#45;&gt;Node28 -->
<g id="edge35" class="edge">
<title>Node4&#45;&gt;Node28</title>
<path fill="none" stroke="#191970" d="M573.6453,-224.2455C570.2756,-216.6973 565.507,-206.0158 561.4017,-196.8197"/>
<polygon fill="#191970" stroke="#191970" points="564.5773,-195.3473 557.3048,-187.6427 558.1853,-198.2009 564.5773,-195.3473"/>
</g>
<!-- Node29 -->
<g id="node30" class="node">
<title>Node29</title>
<polygon fill="#ffffff" stroke="#bfbfbf" points="631.5,-168.5 631.5,-187.5 674.5,-187.5 674.5,-168.5 631.5,-168.5"/>
<text text-anchor="middle" x="653" y="-175.5" font-family="Helvetica,sans-Serif" font-size="10.00" fill="#000000">cstdio</text>
</g>
<!-- Node4&#45;&gt;Node29 -->
<g id="edge39" class="edge">
<title>Node4&#45;&gt;Node29</title>
<path fill="none" stroke="#191970" d="M591.064,-224.2455C602.3562,-215.814 618.8845,-203.4729 632.0271,-193.6598"/>
<polygon fill="#191970" stroke="#191970" points="634.1669,-196.4301 640.0857,-187.6427 629.9789,-190.8211 634.1669,-196.4301"/>
</g>
<!-- Node30 -->
<g id="node31" class="node">
<title>Node30</title>
<polygon fill="#ffffff" stroke="#bfbfbf" points="692.5,-168.5 692.5,-187.5 739.5,-187.5 739.5,-168.5 692.5,-168.5"/>
<text text-anchor="middle" x="716" y="-175.5" font-family="Helvetica,sans-Serif" font-size="10.00" fill="#000000">iterator</text>
</g>
<!-- Node4&#45;&gt;Node30 -->
<g id="edge40" class="edge">
<title>Node4&#45;&gt;Node30</title>
<path fill="none" stroke="#191970" d="M601.723,-224.3733C624.1737,-215.2629 658.0739,-201.5062 683.1255,-191.3404"/>
<polygon fill="#191970" stroke="#191970" points="684.6365,-194.5045 692.5865,-187.5011 682.0043,-188.0182 684.6365,-194.5045"/>
</g>
<!-- Node31 -->
<g id="node32" class="node">
<title>Node31</title>
<polygon fill="#ffffff" stroke="#bfbfbf" points="758,-168.5 758,-187.5 818,-187.5 818,-168.5 758,-168.5"/>
<text text-anchor="middle" x="788" y="-175.5" font-family="Helvetica,sans-Serif" font-size="10.00" fill="#000000">sys/stat.h</text>
</g>
<!-- Node4&#45;&gt;Node31 -->
<g id="edge41" class="edge">
<title>Node4&#45;&gt;Node31</title>
<path fill="none" stroke="#191970" d="M614.1003,-224.3733C651.3472,-214.4408 709.3038,-198.9856 747.9421,-188.6821"/>
<polygon fill="#191970" stroke="#191970" points="749.0486,-192.0094 757.8091,-186.0509 747.2449,-185.2458 749.0486,-192.0094"/>
</g>
<!-- Node32 -->
<g id="node33" class="node">
<title>Node32</title>
<polygon fill="#ffffff" stroke="#bfbfbf" points="836,-168.5 836,-187.5 888,-187.5 888,-168.5 836,-168.5"/>
<text text-anchor="middle" x="862" y="-175.5" font-family="Helvetica,sans-Serif" font-size="10.00" fill="#000000">memory</text>
</g>
<!-- Node4&#45;&gt;Node32 -->
<g id="edge42" class="edge">
<title>Node4&#45;&gt;Node32</title>
<path fill="none" stroke="#191970" d="M634.6889,-225.1149C683.0906,-217.1692 754.7286,-204.562 825.6912,-188.148"/>
<polygon fill="#191970" stroke="#191970" points="826.7577,-191.4931 835.6973,-185.8067 825.1629,-184.6771 826.7577,-191.4931"/>
</g>
<!-- Node33 -->
<g id="node34" class="node">
<title>Node33</title>
<polygon fill="#ffffff" stroke="#bfbfbf" points="906.5,-168.5 906.5,-187.5 965.5,-187.5 965.5,-168.5 906.5,-168.5"/>
<text text-anchor="middle" x="936" y="-175.5" font-family="Helvetica,sans-Serif" font-size="10.00" fill="#000000">stdexcept</text>
</g>
<!-- Node4&#45;&gt;Node33 -->
<g id="edge43" class="edge">
<title>Node4&#45;&gt;Node33</title>
<path fill="none" stroke="#191970" d="M634.7855,-227.686C696.6983,-220.3824 798.8497,-207.1088 896.2489,-187.9689"/>
<polygon fill="#191970" stroke="#191970" points="897.1405,-191.3602 906.2653,-185.9762 895.7745,-184.4948 897.1405,-191.3602"/>
</g>
<!-- Node34 -->
<g id="node35" class="node">
<title>Node34</title>
<polygon fill="#ffffff" stroke="#bfbfbf" points="141,-168.5 141,-187.5 261,-187.5 261,-168.5 141,-168.5"/>
<text text-anchor="middle" x="201" y="-175.5" font-family="Helvetica,sans-Serif" font-size="10.00" fill="#000000">experimental/filesystem</text>
</g>
<!-- Node4&#45;&gt;Node34 -->
<g id="edge46" class="edge">
<title>Node4&#45;&gt;Node34</title>
<path fill="none" stroke="#191970" d="M521.1511,-225.5556C454.2566,-215.619 343.1804,-199.1196 271.0352,-188.4031"/>
<polygon fill="#191970" stroke="#191970" points="271.528,-184.938 261.1223,-186.9306 270.4994,-191.862 271.528,-184.938"/>
</g>
<!-- Node5&#45;&gt;Node1 -->
<g id="edge22" class="edge">
<title>Node5&#45;&gt;Node1</title>
<path fill="none" stroke="#191970" d="M1021.9163,-173.5086C1007.3878,-171.5524 989.8373,-169.393 974,-168 652.1793,-139.6942 570.5535,-150.1396 248,-132 205.4501,-129.6071 156.5205,-126.4721 124.3051,-124.3551"/>
<polygon fill="#191970" stroke="#191970" points="124.2628,-120.8448 114.054,-123.6788 123.8019,-127.8296 124.2628,-120.8448"/>
</g>
<!-- Node5&#45;&gt;Node2 -->
<g id="edge21" class="edge">
<title>Node5&#45;&gt;Node2</title>
<path fill="none" stroke="#191970" d="M1021.649,-170.3345C1017.0919,-169.4243 1012.4407,-168.6053 1008,-168 707.8685,-127.0896 624.002,-180.1074 321.318,-131.8777"/>
<polygon fill="#191970" stroke="#191970" points="321.8102,-128.4119 311.3797,-130.2705 320.6926,-135.3221 321.8102,-128.4119"/>
</g>
<!-- Node5&#45;&gt;Node3 -->
<g id="edge14" class="edge">
<title>Node5&#45;&gt;Node3</title>
<path fill="none" stroke="#191970" d="M1021.9227,-173.4337C1007.3955,-171.4617 989.8443,-169.3107 974,-168 569.9157,-134.5739 459.5678,-200.4878 56.1324,-131.7443"/>
<polygon fill="#191970" stroke="#191970" points="56.6926,-128.2893 46.2438,-130.0425 55.5053,-135.1879 56.6926,-128.2893"/>
</g>
<!-- Node5&#45;&gt;Node6 -->
<g id="edge6" class="edge">
<title>Node5&#45;&gt;Node6</title>
<path fill="none" stroke="#191970" d="M1084.0368,-177.0707C1154.9712,-174.4566 1334.3619,-165.0651 1492.2905,-131.7107"/>
<polygon fill="#191970" stroke="#191970" points="1493.1402,-135.1081 1502.1809,-129.584 1491.6685,-128.2645 1493.1402,-135.1081"/>
</g>
<!-- Node7 -->
<g id="node8" class="node">
<title>Node7</title>
<polygon fill="#ffffff" stroke="#bfbfbf" points="1242.5,-112.5 1242.5,-131.5 1287.5,-131.5 1287.5,-112.5 1242.5,-112.5"/>
<text text-anchor="middle" x="1265" y="-119.5" font-family="Helvetica,sans-Serif" font-size="10.00" fill="#000000">cstdlib</text>
</g>
<!-- Node5&#45;&gt;Node7 -->
<g id="edge7" class="edge">
<title>Node5&#45;&gt;Node7</title>
<path fill="none" stroke="#191970" d="M1084.2279,-170.698C1118.4516,-162.5571 1175.1757,-148.6594 1232.4266,-132.3402"/>
<polygon fill="#191970" stroke="#191970" points="1233.7196,-135.6103 1242.3638,-129.4843 1231.786,-128.8827 1233.7196,-135.6103"/>
</g>
<!-- Node5&#45;&gt;Node8 -->
<g id="edge8" class="edge">
<title>Node5&#45;&gt;Node8</title>
<path fill="none" stroke="#191970" d="M1021.6427,-170.3793C1017.0865,-169.4625 1012.4373,-168.6298 1008,-168 760.8604,-132.925 690.5697,-176.8663 441.3414,-131.8284"/>
<polygon fill="#191970" stroke="#191970" points="441.7238,-128.3402 431.2559,-129.9753 440.4587,-135.2249 441.7238,-128.3402"/>
</g>
<!-- Node9 -->
<g id="node10" class="node">
<title>Node9</title>
<polygon fill="#ffffff" stroke="#bfbfbf" points="1305.5,-112.5 1305.5,-131.5 1358.5,-131.5 1358.5,-112.5 1305.5,-112.5"/>
<text text-anchor="middle" x="1332" y="-119.5" font-family="Helvetica,sans-Serif" font-size="10.00" fill="#000000">cstdbool</text>
</g>
<!-- Node5&#45;&gt;Node9 -->
<g id="edge9" class="edge">
<title>Node5&#45;&gt;Node9</title>
<path fill="none" stroke="#191970" d="M1084.0061,-173.0943C1128.7193,-165.8166 1214.0659,-151.1671 1295.4156,-132.2288"/>
<polygon fill="#191970" stroke="#191970" points="1296.3818,-135.5971 1305.3134,-129.8982 1294.7774,-128.7834 1296.3818,-135.5971"/>
</g>
<!-- Node10 -->
<g id="node11" class="node">
<title>Node10</title>
<polygon fill="#ffffff" stroke="#bfbfbf" points="1376.5,-112.5 1376.5,-131.5 1421.5,-131.5 1421.5,-112.5 1376.5,-112.5"/>
<text text-anchor="middle" x="1399" y="-119.5" font-family="Helvetica,sans-Serif" font-size="10.00" fill="#000000">climits</text>
</g>
<!-- Node5&#45;&gt;Node10 -->
<g id="edge10" class="edge">
<title>Node5&#45;&gt;Node10</title>
<path fill="none" stroke="#191970" d="M1084.1718,-175.1911C1139.4271,-169.8389 1258.2239,-156.6542 1366.6488,-132.022"/>
<polygon fill="#191970" stroke="#191970" points="1367.4804,-135.4221 1376.4356,-129.7603 1365.9043,-128.6019 1367.4804,-135.4221"/>
</g>
<!-- Node11 -->
<g id="node12" class="node">
<title>Node11</title>
<polygon fill="#ffffff" stroke="#bfbfbf" points="547.5,-112.5 547.5,-131.5 594.5,-131.5 594.5,-112.5 547.5,-112.5"/>
<text text-anchor="middle" x="571" y="-119.5" font-family="Helvetica,sans-Serif" font-size="10.00" fill="#000000">clocale</text>
</g>
<!-- Node5&#45;&gt;Node11 -->
<g id="edge11" class="edge">
<title>Node5&#45;&gt;Node11</title>
<path fill="none" stroke="#191970" d="M1021.6273,-170.4831C1017.0734,-169.5511 1012.4288,-168.6864 1008,-168 833.0784,-140.888 782.7786,-165.4007 604.6122,-131.7196"/>
<polygon fill="#191970" stroke="#191970" points="605.1281,-128.2548 594.6466,-129.8008 603.8045,-135.1285 605.1281,-128.2548"/>
</g>
<!-- Node12 -->
<g id="node13" class="node">
<title>Node12</title>
<polygon fill="#ffffff" stroke="#bfbfbf" points="613,-112.5 613,-131.5 657,-131.5 657,-112.5 613,-112.5"/>
<text text-anchor="middle" x="635" y="-119.5" font-family="Helvetica,sans-Serif" font-size="10.00" fill="#000000">cerrno</text>
</g>
<!-- Node5&#45;&gt;Node12 -->
<g id="edge12" class="edge">
<title>Node5&#45;&gt;Node12</title>
<path fill="none" stroke="#191970" d="M1021.617,-170.548C1017.0646,-169.6064 1012.4232,-168.7219 1008,-168 860.3966,-143.9113 817.3699,-162.7813 667.2472,-131.8789"/>
<polygon fill="#191970" stroke="#191970" points="667.7075,-128.3993 657.2018,-129.7705 666.2695,-135.2501 667.7075,-128.3993"/>
</g>
<!-- Node13 -->
<g id="node14" class="node">
<title>Node13</title>
<polygon fill="#ffffff" stroke="#bfbfbf" points="675,-112.5 675,-131.5 719,-131.5 719,-112.5 675,-112.5"/>
<text text-anchor="middle" x="697" y="-119.5" font-family="Helvetica,sans-Serif" font-size="10.00" fill="#000000">cmath</text>
</g>
<!-- Node5&#45;&gt;Node13 -->
<g id="edge13" class="edge">
<title>Node5&#45;&gt;Node13</title>
<path fill="none" stroke="#191970" d="M1021.6013,-170.641C1017.0512,-169.6858 1012.4146,-168.7727 1008,-168 887.548,-146.9179 852.2284,-158.7374 729.0265,-131.8862"/>
<polygon fill="#191970" stroke="#191970" points="729.7364,-128.4586 719.2155,-129.7076 728.2189,-135.2922 729.7364,-128.4586"/>
</g>
<!-- Node14 -->
<g id="node15" class="node">
<title>Node14</title>
<polygon fill="#ffffff" stroke="#bfbfbf" points="737,-112.5 737,-131.5 783,-131.5 783,-112.5 737,-112.5"/>
<text text-anchor="middle" x="760" y="-119.5" font-family="Helvetica,sans-Serif" font-size="10.00" fill="#000000">cctype</text>
</g>
<!-- Node5&#45;&gt;Node14 -->
<g id="edge15" class="edge">
<title>Node5&#45;&gt;Node14</title>
<path fill="none" stroke="#191970" d="M1021.5735,-170.7914C1017.0275,-169.8142 1012.3994,-168.8548 1008,-168 915.5413,-150.0353 888.4062,-154.2621 793.0712,-132.0068"/>
<polygon fill="#191970" stroke="#191970" points="793.8532,-128.5953 783.3155,-129.6937 792.2382,-135.4065 793.8532,-128.5953"/>
</g>
<!-- Node15 -->
<g id="node16" class="node">
<title>Node15</title>
<polygon fill="#ffffff" stroke="#bfbfbf" points="801,-112.5 801,-131.5 905,-131.5 905,-112.5 801,-112.5"/>
<text text-anchor="middle" x="853" y="-119.5" font-family="Helvetica,sans-Serif" font-size="10.00" fill="#000000">libxml/xmlmemory.h</text>
</g>
<!-- Node5&#45;&gt;Node15 -->
<g id="edge16" class="edge">
<title>Node5&#45;&gt;Node15</title>
<path fill="none" stroke="#191970" d="M1021.75,-169.25C988.1666,-159.8466 934.5326,-144.8291 896.7609,-134.2531"/>
<polygon fill="#191970" stroke="#191970" points="897.6139,-130.8574 887.0406,-131.5314 895.7265,-137.5981 897.6139,-130.8574"/>
</g>
<!-- Node5&#45;&gt;Node16 -->
<g id="edge17" class="edge">
<title>Node5&#45;&gt;Node16</title>
<path fill="none" stroke="#191970" d="M1021.635,-170.4327C1017.0799,-169.5081 1012.433,-168.6589 1008,-168 804.0137,-137.6799 747.2485,-160.2719 539.0699,-131.9817"/>
<polygon fill="#191970" stroke="#191970" points="539.426,-128.4978 529.041,-130.5957 538.4676,-135.4319 539.426,-128.4978"/>
</g>
<!-- Node17 -->
<g id="node18" class="node">
<title>Node17</title>
<polygon fill="#ffffff" stroke="#bfbfbf" points="923,-112.5 923,-131.5 979,-131.5 979,-112.5 923,-112.5"/>
<text text-anchor="middle" x="951" y="-119.5" font-family="Helvetica,sans-Serif" font-size="10.00" fill="#000000">cinttypes</text>
</g>
<!-- Node5&#45;&gt;Node17 -->
<g id="edge18" class="edge">
<title>Node5&#45;&gt;Node17</title>
<path fill="none" stroke="#191970" d="M1035.233,-168.2455C1019.2905,-159.4928 995.6741,-146.527 977.5011,-136.5496"/>
<polygon fill="#191970" stroke="#191970" points="979.0137,-133.3873 968.5634,-131.6427 975.6448,-139.5233 979.0137,-133.3873"/>
</g>
<!-- Node5&#45;&gt;Node18 -->
<g id="edge19" class="edge">
<title>Node5&#45;&gt;Node18</title>
<path fill="none" stroke="#191970" d="M1084.2062,-176.2241C1147.7271,-172.179 1296.6243,-160.5031 1429.82,-131.905"/>
<polygon fill="#191970" stroke="#191970" points="1430.7667,-135.2808 1439.7886,-129.7261 1429.2719,-128.4423 1430.7667,-135.2808"/>
</g>
<!-- Node5&#45;&gt;Node19 -->
<g id="edge20" class="edge">
<title>Node5&#45;&gt;Node19</title>
<path fill="none" stroke="#191970" d="M1021.6464,-170.3533C1017.0896,-169.4403 1012.4392,-168.6156 1008,-168 732.5879,-129.8104 653.5842,-186.5257 376.9968,-131.6258"/>
<polygon fill="#191970" stroke="#191970" points="377.5682,-128.1707 367.0737,-129.6255 376.1848,-135.0327 377.5682,-128.1707"/>
</g>
<!-- Node20 -->
<g id="node21" class="node">
<title>Node20</title>
<polygon fill="#ffffff" stroke="#bfbfbf" points="997,-112.5 997,-131.5 1053,-131.5 1053,-112.5 997,-112.5"/>
<text text-anchor="middle" x="1025" y="-119.5" font-family="Helvetica,sans-Serif" font-size="10.00" fill="#000000">algorithm</text>
</g>
<!-- Node5&#45;&gt;Node20 -->
<g id="edge23" class="edge">
<title>Node5&#45;&gt;Node20</title>
<path fill="none" stroke="#191970" d="M1048.1228,-168.2455C1044.3487,-160.6973 1039.0079,-150.0158 1034.4099,-140.8197"/>
<polygon fill="#191970" stroke="#191970" points="1037.424,-139.0217 1029.8213,-131.6427 1031.163,-142.1522 1037.424,-139.0217"/>
</g>
<!-- Node5&#45;&gt;Node21 -->
<g id="edge24" class="edge">
<title>Node5&#45;&gt;Node21</title>
<path fill="none" stroke="#191970" d="M1084.0696,-177.5106C1161.7154,-175.7875 1370.4162,-168.0762 1551.8215,-131.8359"/>
<polygon fill="#191970" stroke="#191970" points="1552.7033,-135.2284 1561.8057,-129.8065 1551.3089,-128.3686 1552.7033,-135.2284"/>
</g>
<!-- Node22 -->
<g id="node23" class="node">
<title>Node22</title>
<g id="a_node23"><a xlink:href="expression__reg__elus_8h.html" target="_top" xlink:title="Expressions régulières représentant les élus. ">
<polygon fill="#ffffff" stroke="#000000" points="997,-56.5 997,-75.5 1111,-75.5 1111,-56.5 997,-56.5"/>
<text text-anchor="middle" x="1054" y="-63.5" font-family="Helvetica,sans-Serif" font-size="10.00" fill="#000000">expression_reg_elus.h</text>
</a>
</g>
</g>
<!-- Node5&#45;&gt;Node22 -->
<g id="edge25" class="edge">
<title>Node5&#45;&gt;Node22</title>
<path fill="none" stroke="#191970" d="M1055.4865,-168.2105C1057.7014,-158.9529 1060.7755,-144.6354 1062,-132 1063.5134,-116.383 1061.1638,-98.7416 1058.6271,-85.6292"/>
<polygon fill="#191970" stroke="#191970" points="1062.0444,-84.8723 1056.5328,-75.8239 1055.1988,-86.3344 1062.0444,-84.8723"/>
</g>
<!-- Node24 -->
<g id="node25" class="node">
<title>Node24</title>
<g id="a_node25"><a xlink:href="expression__reg__cata_8h.html" target="_top" xlink:title="Ce fichier contient les expressions rationnelles permettant d&#39;identifier les catégories statutaires A...">
<polygon fill="#ffffff" stroke="#000000" points="1109.5,-112.5 1109.5,-131.5 1224.5,-131.5 1224.5,-112.5 1109.5,-112.5"/>
<text text-anchor="middle" x="1167" y="-119.5" font-family="Helvetica,sans-Serif" font-size="10.00" fill="#000000">expression_reg_cata.h</text>
</a>
</g>
</g>
<!-- Node5&#45;&gt;Node24 -->
<g id="edge27" class="edge">
<title>Node5&#45;&gt;Node24</title>
<path fill="none" stroke="#191970" d="M1072.5973,-168.3733C1090.7331,-159.4644 1117.9135,-146.1127 1138.4587,-136.0203"/>
<polygon fill="#191970" stroke="#191970" points="1140.2261,-139.0517 1147.6584,-131.5011 1137.1397,-132.7688 1140.2261,-139.0517"/>
</g>
<!-- Node23 -->
<g id="node24" class="node">
<title>Node23</title>
<g id="a_node24"><a xlink:href="expression__reg__commun_8h.html" target="_top" xlink:title="Elements constitutifs des expressions régulières. ">
<polygon fill="#ffffff" stroke="#000000" points="1057,-.5 1057,-19.5 1191,-19.5 1191,-.5 1057,-.5"/>
<text text-anchor="middle" x="1124" y="-7.5" font-family="Helvetica,sans-Serif" font-size="10.00" fill="#000000">expression_reg_commun.h</text>
</a>
</g>
</g>
<!-- Node22&#45;&gt;Node23 -->
<g id="edge26" class="edge">
<title>Node22&#45;&gt;Node23</title>
<path fill="none" stroke="#191970" d="M1066.1931,-56.2455C1076.6321,-47.8943 1091.8655,-35.7076 1104.074,-25.9408"/>
<polygon fill="#191970" stroke="#191970" points="1106.3244,-28.6227 1111.9467,-19.6427 1101.9515,-23.1566 1106.3244,-28.6227"/>
</g>
<!-- Node25 -->
<g id="node26" class="node">
<title>Node25</title>
<g id="a_node26"><a xlink:href="expression__reg__adjoints_8h.html" target="_top" xlink:title="Expressions régulières de niveau adjoints / auxiliaires / aides (catégories C) ">
<polygon fill="#ffffff" stroke="#000000" points="1129,-56.5 1129,-75.5 1259,-75.5 1259,-56.5 1129,-56.5"/>
<text text-anchor="middle" x="1194" y="-63.5" font-family="Helvetica,sans-Serif" font-size="10.00" fill="#000000">expression_reg_adjoints.h</text>
</a>
</g>
</g>
<!-- Node24&#45;&gt;Node25 -->
<g id="edge28" class="edge">
<title>Node24&#45;&gt;Node25</title>
<path fill="none" stroke="#191970" d="M1171.703,-112.2455C1175.3424,-104.6973 1180.4924,-94.0158 1184.9262,-84.8197"/>
<polygon fill="#191970" stroke="#191970" points="1188.1605,-86.1704 1189.3509,-75.6427 1181.8551,-83.1303 1188.1605,-86.1704"/>
</g>
<!-- Node25&#45;&gt;Node23 -->
<g id="edge29" class="edge">
<title>Node25&#45;&gt;Node23</title>
<path fill="none" stroke="#191970" d="M1181.8069,-56.2455C1171.3679,-47.8943 1156.1345,-35.7076 1143.926,-25.9408"/>
<polygon fill="#191970" stroke="#191970" points="1146.0485,-23.1566 1136.0533,-19.6427 1141.6756,-28.6227 1146.0485,-23.1566"/>
</g>
<!-- Node35&#45;&gt;Node2 -->
<g id="edge53" class="edge">
<title>Node35&#45;&gt;Node2</title>
<path fill="none" stroke="#191970" d="M1191.7442,-230.6447C1153.5958,-224.7147 1075.6999,-210.8076 1013,-188 994.6939,-181.341 992.8026,-173.091 974,-168 696.1666,-92.7736 609.2004,-177.291 321.2703,-131.8613"/>
<polygon fill="#191970" stroke="#191970" points="321.8114,-128.4034 311.3809,-130.2626 320.6942,-135.3137 321.8114,-128.4034"/>
</g>
<!-- Node35&#45;&gt;Node5 -->
<g id="edge49" class="edge">
<title>Node35&#45;&gt;Node5</title>
<path fill="none" stroke="#191970" d="M1191.7893,-225.9766C1165.2637,-216.8072 1121.4856,-201.674 1090.189,-190.8555"/>
<polygon fill="#191970" stroke="#191970" points="1091.0988,-187.4668 1080.504,-187.5076 1088.8118,-194.0827 1091.0988,-187.4668"/>
</g>
<!-- Node35&#45;&gt;Node6 -->
<g id="edge52" class="edge">
<title>Node35&#45;&gt;Node6</title>
<path fill="none" stroke="#191970" d="M1238.38,-226.4997C1265.7392,-217.6422 1312.3494,-202.3006 1352,-188 1401.7224,-170.0669 1458.9111,-147.6196 1492.9443,-134.0658"/>
<polygon fill="#191970" stroke="#191970" points="1494.3265,-137.2827 1502.3165,-130.3249 1491.7315,-130.7815 1494.3265,-137.2827"/>
</g>
<!-- Node35&#45;&gt;Node18 -->
<g id="edge51" class="edge">
<title>Node35&#45;&gt;Node18</title>
<path fill="none" stroke="#191970" d="M1236.0591,-224.4509C1279.8989,-204.5722 1381.0961,-158.6852 1431.8405,-135.6756"/>
<polygon fill="#191970" stroke="#191970" points="1433.3322,-138.8422 1440.9942,-131.5249 1430.4414,-132.467 1433.3322,-138.8422"/>
</g>
<!-- Node35&#45;&gt;Node21 -->
<g id="edge50" class="edge">
<title>Node35&#45;&gt;Node21</title>
<path fill="none" stroke="#191970" d="M1238.1009,-233.3927C1286.1592,-231.4298 1399.6914,-223.125 1487,-188 1516.9885,-175.9354 1547.0722,-153.466 1565.6091,-138.128"/>
<polygon fill="#191970" stroke="#191970" points="1567.8977,-140.7764 1573.2718,-131.6457 1563.3767,-135.4322 1567.8977,-140.7764"/>
</g>
</g>
</svg>
        <g id="navigator" transform="translate(0 0)" fill="#404254">
                <rect fill="#f2f5e9" fill-opacity="0.5" stroke="#606060" stroke-width=".5" x="0" y="0" width="60" height="60"/>
                <use id="zoomplus" xlink:href="#zoomPlus" x="17" y="9" onmousedown="handleZoom(evt,'in')"/>
                <use id="zoomminus" xlink:href="#zoomMin" x="42" y="9" onmousedown="handleZoom(evt,'out')"/>
                <use id="reset" xlink:href="#resetDef" x="30" y="36" onmousedown="handleReset()"/>
                <g id="arrowUp" xlink:href="#dirArrow" transform="translate(30 24)" onmousedown="handlePan(0,-1)">
                  <use xlink:href="#rim" fill="#404040">
                        <set attributeName="fill" to="#808080" begin="arrowUp.mouseover" end="arrowUp.mouseout"/>
                  </use>
                  <path fill="none" stroke="white" stroke-width="1.5" d="M0,-3.0v7 M-2.5,-0.5L0,-3.0L2.5,-0.5"/>
                </g>
                <g id="arrowRight" xlink:href="#dirArrow" transform="rotate(90) translate(36 -43)" onmousedown="handlePan(1,0)">
                  <use xlink:href="#rim" fill="#404040">
                        <set attributeName="fill" to="#808080" begin="arrowRight.mouseover" end="arrowRight.mouseout"/>
                  </use>
                  <path fill="none" stroke="white" stroke-width="1.5" d="M0,-3.0v7 M-2.5,-0.5L0,-3.0L2.5,-0.5"/>
                </g>
                <g id="arrowDown" xlink:href="#dirArrow" transform="rotate(180) translate(-30 -48)" onmousedown="handlePan(0,1)">
                  <use xlink:href="#rim" fill="#404040">
                        <set attributeName="fill" to="#808080" begin="arrowDown.mouseover" end="arrowDown.mouseout"/>
                  </use>
                  <path fill="none" stroke="white" stroke-width="1.5" d="M0,-3.0v7 M-2.5,-0.5L0,-3.0L2.5,-0.5"/>
                </g>
                <g id="arrowLeft" xlink:href="#dirArrow" transform="rotate(270) translate(-36 17)" onmousedown="handlePan(-1,0)">
                  <use xlink:href="#rim" fill="#404040">
                        <set attributeName="fill" to="#808080" begin="arrowLeft.mouseover" end="arrowLeft.mouseout"/>
                  </use>
                  <path fill="none" stroke="white" stroke-width="1.5" d="M0,-3.0v7 M-2.5,-0.5L0,-3.0L2.5,-0.5"/>
                </g>
        </g>
        <svg viewBox="0 0 15 15" width="100%" height="30px" preserveAspectRatio="xMaxYMin meet">
         <g id="arrow_out" transform="scale(0.3 0.3)">
          <a xlink:href="ligne__paye_8h__incl_org.svg" target="_base">
           <rect id="button" ry="5" rx="5" y="6" x="6" height="38" width="38"
                fill="#f2f5e9" fill-opacity="0.5" stroke="#606060" stroke-width="1.0"/>
           <path id="arrow"
             d="M 11.500037,31.436501 C 11.940474,20.09759 22.043105,11.32322 32.158766,21.979434 L 37.068811,17.246167 C 37.068811,17.246167 37.088388,32 37.088388,32 L 22.160133,31.978069 C 22.160133,31.978069 26.997745,27.140456 26.997745,27.140456 C 18.528582,18.264221 13.291696,25.230495 11.500037,31.436501 z"
             style="fill:#404040;"/>
          </a>
         </g>
        </svg>
</svg>
