<?xml version="1.0" encoding="UTF-8" standalone="no"?>
<!DOCTYPE svg PUBLIC "-//W3C//DTD SVG 1.1//EN"
 "http://www.w3.org/Graphics/SVG/1.1/DTD/svg11.dtd">
<!-- Generated by graphviz version 2.40.1 (20161225.0304)
 -->
<!-- Title: lhx/ligne_paye.cpp Pages: 1 -->
<!--zoomable 364 -->
<svg id="main" version="1.1" xmlns="http://www.w3.org/2000/svg" xmlns:xlink="http://www.w3.org/1999/xlink" xml:space="preserve" onload="init(evt)">
<style type="text/css"><![CDATA[
.edge:hover path { stroke: red; }
.edge:hover polygon { stroke: red; fill: red; }
]]></style>
<script type="text/javascript"><![CDATA[
var edges = document.getElementsByTagName('g');
if (edges && edges.length) {
  for (var i=0;i<edges.length;i++) {
    if (edges[i].id.substr(0,4)=='edge') {
      edges[i].setAttribute('class','edge');
    }
  }
}
]]></script>
        <defs>
                <circle id="rim" cx="0" cy="0" r="7"/>
                <circle id="rim2" cx="0" cy="0" r="3.5"/>
                <g id="zoomPlus">
                        <use xlink:href="#rim" fill="#404040">
                                <set attributeName="fill" to="#808080" begin="zoomplus.mouseover" end="zoomplus.mouseout"/>
                        </use>
                        <path d="M-4,0h8M0,-4v8" fill="none" stroke="white" stroke-width="1.5" pointer-events="none"/>
                </g>
                <g id="zoomMin">
                        <use xlink:href="#rim" fill="#404040">
                                <set attributeName="fill" to="#808080" begin="zoomminus.mouseover" end="zoomminus.mouseout"/>
                        </use>
                        <path d="M-4,0h8" fill="none" stroke="white" stroke-width="1.5" pointer-events="none"/>
                </g>
                <g id="dirArrow">
                        <path fill="none" stroke="white" stroke-width="1.5" d="M0,-3.0v7 M-2.5,-0.5L0,-3.0L2.5,-0.5"/>
                </g>
               <g id="resetDef">
                       <use xlink:href="#rim2" fill="#404040">
                               <set attributeName="fill" to="#808080" begin="reset.mouseover" end="reset.mouseout"/>
                       </use>
               </g>
        </defs>

<script type="text/javascript">
var viewWidth = 1488;
var viewHeight = 364;
var sectionId = 'dynsection-0';
</script>
<script xlink:href="svgpan.js"/>
<svg id="graph" class="graph">
<g id="viewport">
<title>lhx/ligne_paye.cpp</title>
<polygon fill="#ffffff" stroke="transparent" points="-4,4 -4,-360 1484,-360 1484,4 -4,4"/>
<!-- Node0 -->
<g id="node1" class="node">
<title>Node0</title>
<polygon fill="#bfbfbf" stroke="#000000" points="1031,-336.5 1031,-355.5 1129,-355.5 1129,-336.5 1031,-336.5"/>
<text text-anchor="middle" x="1080" y="-343.5" font-family="Helvetica,sans-Serif" font-size="10.00" fill="#000000">lhx/ligne_paye.cpp</text>
</g>
<!-- Node1 -->
<g id="node2" class="node">
<title>Node1</title>
<g id="a_node2"><a xlink:href="ligne__paye_8h.html" target="_top" xlink:title="Définit deux fonctions auxiliaires utilisées dans lignes_paye.cpp. ">
<polygon fill="#ffffff" stroke="#000000" points="1150.5,-280.5 1150.5,-299.5 1221.5,-299.5 1221.5,-280.5 1150.5,-280.5"/>
<text text-anchor="middle" x="1186" y="-287.5" font-family="Helvetica,sans-Serif" font-size="10.00" fill="#000000">ligne_paye.h</text>
</a>
</g>
</g>
<!-- Node0&#45;&gt;Node1 -->
<g id="edge1" class="edge">
<title>Node0&#45;&gt;Node1</title>
<path fill="none" stroke="#191970" d="M1098.4638,-336.2455C1115.1074,-327.4527 1139.7993,-314.4079 1158.7192,-304.4125"/>
<polygon fill="#191970" stroke="#191970" points="1160.5408,-307.4086 1167.7478,-299.6427 1157.2709,-301.2193 1160.5408,-307.4086"/>
</g>
<!-- Node6 -->
<g id="node7" class="node">
<title>Node6</title>
<g id="a_node7"><a xlink:href="validator_8h.html" target="_top" xlink:title="Ce fichier contient notamment la structure info_t qui stocke les données de paye décodées ainsi que l...">
<polygon fill="#ffffff" stroke="#000000" points="734,-168.5 734,-187.5 796,-187.5 796,-168.5 734,-168.5"/>
<text text-anchor="middle" x="765" y="-175.5" font-family="Helvetica,sans-Serif" font-size="10.00" fill="#000000">validator.h</text>
</a>
</g>
</g>
<!-- Node0&#45;&gt;Node6 -->
<g id="edge56" class="edge">
<title>Node0&#45;&gt;Node6</title>
<path fill="none" stroke="#191970" d="M1062.1617,-336.4862C1009.5492,-308.4263 854.7708,-225.8778 791.9539,-192.3754"/>
<polygon fill="#191970" stroke="#191970" points="793.5037,-189.2353 783.0331,-187.6177 790.2096,-195.4118 793.5037,-189.2353"/>
</g>
<!-- Node2 -->
<g id="node3" class="node">
<title>Node2</title>
<polygon fill="#ffffff" stroke="#bfbfbf" points="0,-112.5 0,-131.5 50,-131.5 50,-112.5 0,-112.5"/>
<text text-anchor="middle" x="25" y="-119.5" font-family="Helvetica,sans-Serif" font-size="10.00" fill="#000000">iomanip</text>
</g>
<!-- Node1&#45;&gt;Node2 -->
<g id="edge2" class="edge">
<title>Node1&#45;&gt;Node2</title>
<path fill="none" stroke="#191970" d="M1150.3583,-289.3015C986.7469,-285.6898 307.2968,-266.1652 112,-188 84.1681,-176.8606 57.5259,-154.3018 41.2221,-138.6804"/>
<polygon fill="#191970" stroke="#191970" points="43.668,-136.1767 34.0891,-131.6495 38.754,-141.1621 43.668,-136.1767"/>
</g>
<!-- Node3 -->
<g id="node4" class="node">
<title>Node3</title>
<polygon fill="#ffffff" stroke="#bfbfbf" points="1300,-112.5 1300,-131.5 1354,-131.5 1354,-112.5 1300,-112.5"/>
<text text-anchor="middle" x="1327" y="-119.5" font-family="Helvetica,sans-Serif" font-size="10.00" fill="#000000">iostream</text>
</g>
<!-- Node1&#45;&gt;Node3 -->
<g id="edge3" class="edge">
<title>Node1&#45;&gt;Node3</title>
<path fill="none" stroke="#191970" d="M1193.9848,-280.4862C1216.756,-253.3545 1282.2831,-175.2798 1312.0124,-139.8576"/>
<polygon fill="#191970" stroke="#191970" points="1315.0038,-141.7377 1318.7516,-131.8279 1309.6419,-137.2376 1315.0038,-141.7377"/>
</g>
<!-- Node4 -->
<g id="node5" class="node">
<title>Node4</title>
<polygon fill="#ffffff" stroke="#bfbfbf" points="1372,-112.5 1372,-131.5 1418,-131.5 1418,-112.5 1372,-112.5"/>
<text text-anchor="middle" x="1395" y="-119.5" font-family="Helvetica,sans-Serif" font-size="10.00" fill="#000000">cstring</text>
</g>
<!-- Node1&#45;&gt;Node4 -->
<g id="edge4" class="edge">
<title>Node1&#45;&gt;Node4</title>
<path fill="none" stroke="#191970" d="M1198.9668,-280.2478C1211.1818,-271.0166 1229.9515,-256.7168 1246,-244 1293.0193,-206.7419 1347.328,-161.7757 1375.6068,-138.212"/>
<polygon fill="#191970" stroke="#191970" points="1378.0738,-140.712 1383.5105,-131.6184 1373.5896,-135.3368 1378.0738,-140.712"/>
</g>
<!-- Node5 -->
<g id="node6" class="node">
<title>Node5</title>
<g id="a_node6"><a xlink:href="fonctions__auxiliaires_8h.html" target="_top" xlink:title="Diverses fonctions auxiliaires en inlining. ">
<polygon fill="#ffffff" stroke="#000000" points="617.5,-224.5 617.5,-243.5 730.5,-243.5 730.5,-224.5 617.5,-224.5"/>
<text text-anchor="middle" x="674" y="-231.5" font-family="Helvetica,sans-Serif" font-size="10.00" fill="#000000">fonctions_auxiliaires.h</text>
</a>
</g>
</g>
<!-- Node1&#45;&gt;Node5 -->
<g id="edge5" class="edge">
<title>Node1&#45;&gt;Node5</title>
<path fill="none" stroke="#191970" d="M1150.4037,-286.1066C1065.6274,-276.8342 850.6775,-253.3241 740.8369,-241.3103"/>
<polygon fill="#191970" stroke="#191970" points="741.1855,-237.8276 730.8642,-240.2195 740.4243,-244.7861 741.1855,-237.8276"/>
</g>
<!-- Node22 -->
<g id="node23" class="node">
<title>Node22</title>
<g id="a_node23"><a xlink:href="tags_8h.html" target="_top" xlink:title="tags.h">
<polygon fill="#ffffff" stroke="#000000" points="1436,-112.5 1436,-131.5 1480,-131.5 1480,-112.5 1436,-112.5"/>
<text text-anchor="middle" x="1458" y="-119.5" font-family="Helvetica,sans-Serif" font-size="10.00" fill="#000000">tags.h</text>
</a>
</g>
</g>
<!-- Node1&#45;&gt;Node22 -->
<g id="edge55" class="edge">
<title>Node1&#45;&gt;Node22</title>
<path fill="none" stroke="#191970" d="M1204.8171,-280.3828C1222.2068,-271.3624 1248.6535,-257.3058 1271,-244 1331.8427,-207.7723 1401.0724,-161.1256 1435.739,-137.3764"/>
<polygon fill="#191970" stroke="#191970" points="1437.9133,-140.1291 1444.1739,-131.5818 1433.9496,-134.3593 1437.9133,-140.1291"/>
</g>
<!-- Node36 -->
<g id="node37" class="node">
<title>Node36</title>
<g id="a_node37"><a xlink:href="table_8h.html" target="_top" xlink:title="table.h">
<polygon fill="#ffffff" stroke="#000000" points="1163,-224.5 1163,-243.5 1209,-243.5 1209,-224.5 1163,-224.5"/>
<text text-anchor="middle" x="1186" y="-231.5" font-family="Helvetica,sans-Serif" font-size="10.00" fill="#000000">table.h</text>
</a>
</g>
</g>
<!-- Node1&#45;&gt;Node36 -->
<g id="edge49" class="edge">
<title>Node1&#45;&gt;Node36</title>
<path fill="none" stroke="#191970" d="M1186,-280.2455C1186,-272.9382 1186,-262.6944 1186,-253.7046"/>
<polygon fill="#191970" stroke="#191970" points="1189.5001,-253.6426 1186,-243.6427 1182.5001,-253.6427 1189.5001,-253.6426"/>
</g>
<!-- Node5&#45;&gt;Node2 -->
<g id="edge39" class="edge">
<title>Node5&#45;&gt;Node2</title>
<path fill="none" stroke="#191970" d="M617.4042,-231.2873C503.7512,-225.4416 251.5057,-210.3515 168,-188 124.5254,-176.3634 77.8414,-152.4073 50.0462,-136.7834"/>
<polygon fill="#191970" stroke="#191970" points="51.458,-133.5592 41.0387,-131.6385 47.9861,-139.6375 51.458,-133.5592"/>
</g>
<!-- Node5&#45;&gt;Node3 -->
<g id="edge32" class="edge">
<title>Node5&#45;&gt;Node3</title>
<path fill="none" stroke="#191970" d="M730.7752,-230.8324C842.1768,-224.2671 1085.632,-208.0964 1167,-188 1215.6438,-175.9859 1268.8023,-151.6205 1299.9555,-136.0917"/>
<polygon fill="#191970" stroke="#191970" points="1301.5402,-139.2124 1308.8879,-131.5795 1298.384,-132.9644 1301.5402,-139.2124"/>
</g>
<!-- Node5&#45;&gt;Node4 -->
<g id="edge37" class="edge">
<title>Node5&#45;&gt;Node4</title>
<path fill="none" stroke="#191970" d="M730.6079,-230.9872C849.1059,-224.3789 1119.7625,-207.6249 1210,-188 1266.0432,-175.8117 1328.2984,-151.1511 1364.4135,-135.6671"/>
<polygon fill="#191970" stroke="#191970" points="1366.0984,-138.7515 1373.8798,-131.5612 1363.3129,-132.3295 1366.0984,-138.7515"/>
</g>
<!-- Node5&#45;&gt;Node6 -->
<g id="edge6" class="edge">
<title>Node5&#45;&gt;Node6</title>
<path fill="none" stroke="#191970" d="M689.851,-224.2455C703.8132,-215.6534 724.3728,-203.0014 740.4596,-193.1018"/>
<polygon fill="#191970" stroke="#191970" points="742.6484,-195.8645 749.3307,-187.6427 738.9797,-189.9029 742.6484,-195.8645"/>
</g>
<!-- Node7 -->
<g id="node8" class="node">
<title>Node7</title>
<polygon fill="#ffffff" stroke="#bfbfbf" points="222.5,-112.5 222.5,-131.5 263.5,-131.5 263.5,-112.5 222.5,-112.5"/>
<text text-anchor="middle" x="243" y="-119.5" font-family="Helvetica,sans-Serif" font-size="10.00" fill="#000000">string</text>
</g>
<!-- Node5&#45;&gt;Node7 -->
<g id="edge45" class="edge">
<title>Node5&#45;&gt;Node7</title>
<path fill="none" stroke="#191970" d="M673.3818,-224.039C671.8779,-209.1886 666.716,-181.544 649,-168 583.1957,-117.6922 359.3797,-147.4414 278,-132 276.5254,-131.7202 275.0232,-131.4063 273.5112,-131.0669"/>
<polygon fill="#191970" stroke="#191970" points="274.1322,-127.6137 263.5789,-128.5513 272.4135,-134.3995 274.1322,-127.6137"/>
</g>
<!-- Node9 -->
<g id="node10" class="node">
<title>Node9</title>
<polygon fill="#ffffff" stroke="#bfbfbf" points="1174,-112.5 1174,-131.5 1220,-131.5 1220,-112.5 1174,-112.5"/>
<text text-anchor="middle" x="1197" y="-119.5" font-family="Helvetica,sans-Serif" font-size="10.00" fill="#000000">cstdint</text>
</g>
<!-- Node5&#45;&gt;Node9 -->
<g id="edge38" class="edge">
<title>Node5&#45;&gt;Node9</title>
<path fill="none" stroke="#191970" d="M705.1967,-224.473C732.0531,-215.9353 771.6347,-202.5447 805,-188 822.4952,-180.3734 824.7554,-173.6019 843,-168 977.5678,-126.6815 1022.0769,-160.0395 1163.7929,-131.8821"/>
<polygon fill="#191970" stroke="#191970" points="1164.6273,-135.2838 1173.7178,-129.8421 1163.2179,-128.4272 1164.6273,-135.2838"/>
</g>
<!-- Node17 -->
<g id="node18" class="node">
<title>Node17</title>
<polygon fill="#ffffff" stroke="#bfbfbf" points="124,-112.5 124,-131.5 204,-131.5 204,-112.5 124,-112.5"/>
<text text-anchor="middle" x="164" y="-119.5" font-family="Helvetica,sans-Serif" font-size="10.00" fill="#000000">libxml/parser.h</text>
</g>
<!-- Node5&#45;&gt;Node17 -->
<g id="edge31" class="edge">
<title>Node5&#45;&gt;Node17</title>
<path fill="none" stroke="#191970" d="M617.4913,-227.3094C570.1759,-220.6245 501.3744,-208.3559 444,-188 426.0133,-181.6185 424.0278,-174.2646 406,-168 326.5556,-140.3933 300.5167,-148.0973 214.0816,-132.1388"/>
<polygon fill="#191970" stroke="#191970" points="214.5781,-128.6706 204.1003,-130.2412 213.2706,-135.5474 214.5781,-128.6706"/>
</g>
<!-- Node19 -->
<g id="node20" class="node">
<title>Node19</title>
<polygon fill="#ffffff" stroke="#bfbfbf" points="1238,-112.5 1238,-131.5 1282,-131.5 1282,-112.5 1238,-112.5"/>
<text text-anchor="middle" x="1260" y="-119.5" font-family="Helvetica,sans-Serif" font-size="10.00" fill="#000000">vector</text>
</g>
<!-- Node5&#45;&gt;Node19 -->
<g id="edge35" class="edge">
<title>Node5&#45;&gt;Node19</title>
<path fill="none" stroke="#191970" d="M730.5551,-230.8619C835.3328,-224.6225 1055.6369,-209.3922 1129,-188 1169.0646,-176.3174 1211.5161,-152.5466 1236.8811,-136.951"/>
<polygon fill="#191970" stroke="#191970" points="1238.7944,-139.8826 1245.417,-131.6127 1235.0827,-133.9477 1238.7944,-139.8826"/>
</g>
<!-- Node20 -->
<g id="node21" class="node">
<title>Node20</title>
<polygon fill="#ffffff" stroke="#bfbfbf" points="68,-112.5 68,-131.5 106,-131.5 106,-112.5 68,-112.5"/>
<text text-anchor="middle" x="87" y="-119.5" font-family="Helvetica,sans-Serif" font-size="10.00" fill="#000000">array</text>
</g>
<!-- Node5&#45;&gt;Node20 -->
<g id="edge46" class="edge">
<title>Node5&#45;&gt;Node20</title>
<path fill="none" stroke="#191970" d="M617.2141,-232.0212C550.3898,-228.3491 436.7794,-217.8723 344,-188 325.8332,-182.1508 324.0219,-174.2816 306,-168 227.3768,-140.5955 200.3311,-153.567 115.897,-131.8767"/>
<polygon fill="#191970" stroke="#191970" points="116.7172,-128.4732 106.1537,-129.2872 114.9193,-135.2384 116.7172,-128.4732"/>
</g>
<!-- Node5&#45;&gt;Node22 -->
<g id="edge48" class="edge">
<title>Node5&#45;&gt;Node22</title>
<path fill="none" stroke="#191970" d="M730.7237,-231.2506C856.8637,-224.8561 1157.3295,-207.997 1257,-188 1318.4516,-175.6709 1387.2891,-150.4525 1426.3608,-135.0066"/>
<polygon fill="#191970" stroke="#191970" points="1427.8754,-138.1706 1435.863,-131.2101 1425.2782,-131.6702 1427.8754,-138.1706"/>
</g>
<!-- Node27 -->
<g id="node28" class="node">
<title>Node27</title>
<polygon fill="#ffffff" stroke="#bfbfbf" points="177,-168.5 177,-187.5 229,-187.5 229,-168.5 177,-168.5"/>
<text text-anchor="middle" x="203" y="-175.5" font-family="Helvetica,sans-Serif" font-size="10.00" fill="#000000">sstream</text>
</g>
<!-- Node5&#45;&gt;Node27 -->
<g id="edge33" class="edge">
<title>Node5&#45;&gt;Node27</title>
<path fill="none" stroke="#191970" d="M617.4453,-231.1671C535.8151,-226.3896 380.1955,-214.7056 239.3678,-187.9796"/>
<polygon fill="#191970" stroke="#191970" points="239.7369,-184.4864 229.255,-186.0293 238.4112,-191.3597 239.7369,-184.4864"/>
</g>
<!-- Node28 -->
<g id="node29" class="node">
<title>Node28</title>
<polygon fill="#ffffff" stroke="#bfbfbf" points="247,-168.5 247,-187.5 297,-187.5 297,-168.5 247,-168.5"/>
<text text-anchor="middle" x="272" y="-175.5" font-family="Helvetica,sans-Serif" font-size="10.00" fill="#000000">fstream</text>
</g>
<!-- Node5&#45;&gt;Node28 -->
<g id="edge34" class="edge">
<title>Node5&#45;&gt;Node28</title>
<path fill="none" stroke="#191970" d="M617.3787,-229.0359C545.6663,-222.2431 418.4827,-208.5069 311,-188 309.7255,-187.7568 308.4308,-187.4964 307.1255,-187.2224"/>
<polygon fill="#191970" stroke="#191970" points="307.6004,-183.7406 297.0714,-184.9199 306.0378,-190.564 307.6004,-183.7406"/>
</g>
<!-- Node29 -->
<g id="node30" class="node">
<title>Node29</title>
<polygon fill="#ffffff" stroke="#bfbfbf" points="353,-168.5 353,-187.5 397,-187.5 397,-168.5 353,-168.5"/>
<text text-anchor="middle" x="375" y="-175.5" font-family="Helvetica,sans-Serif" font-size="10.00" fill="#000000">mutex</text>
</g>
<!-- Node5&#45;&gt;Node29 -->
<g id="edge36" class="edge">
<title>Node5&#45;&gt;Node29</title>
<path fill="none" stroke="#191970" d="M617.2486,-225.7164C563.7674,-217.5229 481.5351,-203.9249 411,-188 409.7543,-187.7188 408.4873,-187.4216 407.2096,-187.1127"/>
<polygon fill="#191970" stroke="#191970" points="407.9396,-183.6866 397.3827,-184.5822 406.1939,-190.4654 407.9396,-183.6866"/>
</g>
<!-- Node30 -->
<g id="node31" class="node">
<title>Node30</title>
<polygon fill="#ffffff" stroke="#bfbfbf" points="453.5,-168.5 453.5,-187.5 496.5,-187.5 496.5,-168.5 453.5,-168.5"/>
<text text-anchor="middle" x="475" y="-175.5" font-family="Helvetica,sans-Serif" font-size="10.00" fill="#000000">cstdio</text>
</g>
<!-- Node5&#45;&gt;Node30 -->
<g id="edge40" class="edge">
<title>Node5&#45;&gt;Node30</title>
<path fill="none" stroke="#191970" d="M636.573,-224.4556C604.2933,-216.081 556.2286,-203.2722 506.2643,-188.2804"/>
<polygon fill="#191970" stroke="#191970" points="507.1688,-184.8974 496.5839,-185.3551 505.144,-191.5982 507.1688,-184.8974"/>
</g>
<!-- Node31 -->
<g id="node32" class="node">
<title>Node31</title>
<polygon fill="#ffffff" stroke="#bfbfbf" points="514.5,-168.5 514.5,-187.5 561.5,-187.5 561.5,-168.5 514.5,-168.5"/>
<text text-anchor="middle" x="538" y="-175.5" font-family="Helvetica,sans-Serif" font-size="10.00" fill="#000000">iterator</text>
</g>
<!-- Node5&#45;&gt;Node31 -->
<g id="edge41" class="edge">
<title>Node5&#45;&gt;Node31</title>
<path fill="none" stroke="#191970" d="M650.6208,-224.3733C628.4955,-215.2629 595.0866,-201.5062 570.3981,-191.3404"/>
<polygon fill="#191970" stroke="#191970" points="571.6536,-188.0723 561.0742,-187.5011 568.9883,-194.5451 571.6536,-188.0723"/>
</g>
<!-- Node32 -->
<g id="node33" class="node">
<title>Node32</title>
<polygon fill="#ffffff" stroke="#bfbfbf" points="580,-168.5 580,-187.5 640,-187.5 640,-168.5 580,-168.5"/>
<text text-anchor="middle" x="610" y="-175.5" font-family="Helvetica,sans-Serif" font-size="10.00" fill="#000000">sys/stat.h</text>
</g>
<!-- Node5&#45;&gt;Node32 -->
<g id="edge42" class="edge">
<title>Node5&#45;&gt;Node32</title>
<path fill="none" stroke="#191970" d="M662.8521,-224.2455C653.4913,-216.0549 639.9142,-204.1749 628.8651,-194.5069"/>
<polygon fill="#191970" stroke="#191970" points="630.8508,-191.5937 621.0202,-187.6427 626.2412,-196.8618 630.8508,-191.5937"/>
</g>
<!-- Node33 -->
<g id="node34" class="node">
<title>Node33</title>
<polygon fill="#ffffff" stroke="#bfbfbf" points="852,-168.5 852,-187.5 904,-187.5 904,-168.5 852,-168.5"/>
<text text-anchor="middle" x="878" y="-175.5" font-family="Helvetica,sans-Serif" font-size="10.00" fill="#000000">memory</text>
</g>
<!-- Node5&#45;&gt;Node33 -->
<g id="edge43" class="edge">
<title>Node5&#45;&gt;Node33</title>
<path fill="none" stroke="#191970" d="M709.0689,-224.3733C746.1389,-214.1972 804.3258,-198.2243 841.8136,-187.9335"/>
<polygon fill="#191970" stroke="#191970" points="843.0867,-191.2136 851.8035,-185.1912 841.2337,-184.4633 843.0867,-191.2136"/>
</g>
<!-- Node34 -->
<g id="node35" class="node">
<title>Node34</title>
<polygon fill="#ffffff" stroke="#bfbfbf" points="922.5,-168.5 922.5,-187.5 981.5,-187.5 981.5,-168.5 922.5,-168.5"/>
<text text-anchor="middle" x="952" y="-175.5" font-family="Helvetica,sans-Serif" font-size="10.00" fill="#000000">stdexcept</text>
</g>
<!-- Node5&#45;&gt;Node34 -->
<g id="edge44" class="edge">
<title>Node5&#45;&gt;Node34</title>
<path fill="none" stroke="#191970" d="M728.7765,-224.4363C775.0692,-216.1319 843.3533,-203.3649 912.092,-188.1009"/>
<polygon fill="#191970" stroke="#191970" points="913.2404,-191.4305 922.2345,-185.8309 911.7115,-184.5995 913.2404,-191.4305"/>
</g>
<!-- Node35 -->
<g id="node36" class="node">
<title>Node35</title>
<polygon fill="#ffffff" stroke="#bfbfbf" points="1000,-168.5 1000,-187.5 1120,-187.5 1120,-168.5 1000,-168.5"/>
<text text-anchor="middle" x="1060" y="-175.5" font-family="Helvetica,sans-Serif" font-size="10.00" fill="#000000">experimental/filesystem</text>
</g>
<!-- Node5&#45;&gt;Node35 -->
<g id="edge47" class="edge">
<title>Node5&#45;&gt;Node35</title>
<path fill="none" stroke="#191970" d="M730.5411,-225.7971C799.2404,-215.8304 915.1673,-199.012 989.5926,-188.2145"/>
<polygon fill="#191970" stroke="#191970" points="990.4158,-191.6319 999.8096,-186.7323 989.4107,-184.7044 990.4158,-191.6319"/>
</g>
<!-- Node6&#45;&gt;Node2 -->
<g id="edge23" class="edge">
<title>Node6&#45;&gt;Node2</title>
<path fill="none" stroke="#191970" d="M733.9988,-175.1151C710.6444,-172.9933 677.8274,-170.1217 649,-168 390.325,-148.9614 319.5548,-176.6316 60.2002,-131.8318"/>
<polygon fill="#191970" stroke="#191970" points="60.5543,-128.3408 50.1011,-130.0675 59.3495,-135.2363 60.5543,-128.3408"/>
</g>
<!-- Node6&#45;&gt;Node3 -->
<g id="edge22" class="edge">
<title>Node6&#45;&gt;Node3</title>
<path fill="none" stroke="#191970" d="M796.0843,-173.6721C810.3592,-171.7729 827.52,-169.6134 843,-168 1038.3785,-147.6372 1092.5296,-166.2504 1289.5071,-131.9714"/>
<polygon fill="#191970" stroke="#191970" points="1290.3668,-135.3739 1299.6066,-130.1897 1289.1506,-128.4803 1290.3668,-135.3739"/>
</g>
<!-- Node6&#45;&gt;Node4 -->
<g id="edge15" class="edge">
<title>Node6&#45;&gt;Node4</title>
<path fill="none" stroke="#191970" d="M796.0763,-173.5931C810.3496,-171.6778 827.5113,-169.5277 843,-168 1070.281,-145.5826 1133.548,-174.0149 1361.8024,-131.8213"/>
<polygon fill="#191970" stroke="#191970" points="1362.5568,-135.241 1371.7411,-129.9591 1361.2676,-128.3607 1362.5568,-135.241"/>
</g>
<!-- Node6&#45;&gt;Node7 -->
<g id="edge7" class="edge">
<title>Node6&#45;&gt;Node7</title>
<path fill="none" stroke="#191970" d="M733.6321,-170.4523C729.0774,-169.5248 724.4314,-168.6696 720,-168 525.1173,-138.5526 471.9182,-167.244 278,-132 276.5233,-131.7316 275.0194,-131.427 273.5059,-131.0951"/>
<polygon fill="#191970" stroke="#191970" points="274.1197,-127.6407 263.5688,-128.6055 272.4184,-134.4309 274.1197,-127.6407"/>
</g>
<!-- Node8 -->
<g id="node9" class="node">
<title>Node8</title>
<polygon fill="#ffffff" stroke="#bfbfbf" points="453.5,-112.5 453.5,-131.5 498.5,-131.5 498.5,-112.5 453.5,-112.5"/>
<text text-anchor="middle" x="476" y="-119.5" font-family="Helvetica,sans-Serif" font-size="10.00" fill="#000000">cstdlib</text>
</g>
<!-- Node6&#45;&gt;Node8 -->
<g id="edge8" class="edge">
<title>Node6&#45;&gt;Node8</title>
<path fill="none" stroke="#191970" d="M733.5717,-170.8006C729.0259,-169.822 724.3985,-168.8598 720,-168 628.9028,-150.1919 602.0333,-154.4767 508.4608,-132.102"/>
<polygon fill="#191970" stroke="#191970" points="509.1224,-128.661 498.5787,-129.7004 507.4693,-135.463 509.1224,-128.661"/>
</g>
<!-- Node6&#45;&gt;Node9 -->
<g id="edge9" class="edge">
<title>Node6&#45;&gt;Node9</title>
<path fill="none" stroke="#191970" d="M796.3805,-170.5325C800.9333,-169.5932 805.5754,-168.7134 810,-168 963.354,-143.2729 1007.8224,-162.9689 1163.7792,-131.8903"/>
<polygon fill="#191970" stroke="#191970" points="1164.6204,-135.2909 1173.7237,-129.8705 1163.2271,-128.431 1164.6204,-135.2909"/>
</g>
<!-- Node10 -->
<g id="node11" class="node">
<title>Node10</title>
<polygon fill="#ffffff" stroke="#bfbfbf" points="516.5,-112.5 516.5,-131.5 569.5,-131.5 569.5,-112.5 516.5,-112.5"/>
<text text-anchor="middle" x="543" y="-119.5" font-family="Helvetica,sans-Serif" font-size="10.00" fill="#000000">cstdbool</text>
</g>
<!-- Node6&#45;&gt;Node10 -->
<g id="edge10" class="edge">
<title>Node6&#45;&gt;Node10</title>
<path fill="none" stroke="#191970" d="M733.8076,-170.7009C698.5727,-162.3742 639.2825,-148.1176 579.6781,-132.3863"/>
<polygon fill="#191970" stroke="#191970" points="580.2879,-128.927 569.7248,-129.746 578.4931,-135.693 580.2879,-128.927"/>
</g>
<!-- Node11 -->
<g id="node12" class="node">
<title>Node11</title>
<polygon fill="#ffffff" stroke="#bfbfbf" points="587.5,-112.5 587.5,-131.5 632.5,-131.5 632.5,-112.5 587.5,-112.5"/>
<text text-anchor="middle" x="610" y="-119.5" font-family="Helvetica,sans-Serif" font-size="10.00" fill="#000000">climits</text>
</g>
<!-- Node6&#45;&gt;Node11 -->
<g id="edge11" class="edge">
<title>Node6&#45;&gt;Node11</title>
<path fill="none" stroke="#191970" d="M738.3546,-168.3733C711.7196,-158.7503 670.7367,-143.9436 642.2735,-133.6601"/>
<polygon fill="#191970" stroke="#191970" points="643.3662,-130.3335 632.7719,-130.2273 640.9876,-136.917 643.3662,-130.3335"/>
</g>
<!-- Node12 -->
<g id="node13" class="node">
<title>Node12</title>
<polygon fill="#ffffff" stroke="#bfbfbf" points="650.5,-112.5 650.5,-131.5 697.5,-131.5 697.5,-112.5 650.5,-112.5"/>
<text text-anchor="middle" x="674" y="-119.5" font-family="Helvetica,sans-Serif" font-size="10.00" fill="#000000">clocale</text>
</g>
<!-- Node6&#45;&gt;Node12 -->
<g id="edge12" class="edge">
<title>Node6&#45;&gt;Node12</title>
<path fill="none" stroke="#191970" d="M749.149,-168.2455C735.1868,-159.6534 714.6272,-147.0014 698.5404,-137.1018"/>
<polygon fill="#191970" stroke="#191970" points="700.0203,-133.9029 689.6693,-131.6427 696.3516,-139.8645 700.0203,-133.9029"/>
</g>
<!-- Node13 -->
<g id="node14" class="node">
<title>Node13</title>
<polygon fill="#ffffff" stroke="#bfbfbf" points="716,-112.5 716,-131.5 760,-131.5 760,-112.5 716,-112.5"/>
<text text-anchor="middle" x="738" y="-119.5" font-family="Helvetica,sans-Serif" font-size="10.00" fill="#000000">cerrno</text>
</g>
<!-- Node6&#45;&gt;Node13 -->
<g id="edge13" class="edge">
<title>Node6&#45;&gt;Node13</title>
<path fill="none" stroke="#191970" d="M760.297,-168.2455C756.6576,-160.6973 751.5076,-150.0158 747.0738,-140.8197"/>
<polygon fill="#191970" stroke="#191970" points="750.1449,-139.1303 742.6491,-131.6427 743.8395,-142.1704 750.1449,-139.1303"/>
</g>
<!-- Node14 -->
<g id="node15" class="node">
<title>Node14</title>
<polygon fill="#ffffff" stroke="#bfbfbf" points="778,-112.5 778,-131.5 822,-131.5 822,-112.5 778,-112.5"/>
<text text-anchor="middle" x="800" y="-119.5" font-family="Helvetica,sans-Serif" font-size="10.00" fill="#000000">cmath</text>
</g>
<!-- Node6&#45;&gt;Node14 -->
<g id="edge14" class="edge">
<title>Node6&#45;&gt;Node14</title>
<path fill="none" stroke="#191970" d="M771.0965,-168.2455C775.9145,-160.5367 782.7751,-149.5598 788.6032,-140.2348"/>
<polygon fill="#191970" stroke="#191970" points="791.6413,-141.9777 793.9733,-131.6427 785.7053,-138.2677 791.6413,-141.9777"/>
</g>
<!-- Node15 -->
<g id="node16" class="node">
<title>Node15</title>
<polygon fill="#ffffff" stroke="#bfbfbf" points="840,-112.5 840,-131.5 886,-131.5 886,-112.5 840,-112.5"/>
<text text-anchor="middle" x="863" y="-119.5" font-family="Helvetica,sans-Serif" font-size="10.00" fill="#000000">cctype</text>
</g>
<!-- Node6&#45;&gt;Node15 -->
<g id="edge16" class="edge">
<title>Node6&#45;&gt;Node15</title>
<path fill="none" stroke="#191970" d="M782.0703,-168.2455C797.247,-159.5731 819.6621,-146.7645 837.0563,-136.825"/>
<polygon fill="#191970" stroke="#191970" points="839.1794,-139.643 846.1253,-131.6427 835.7064,-133.5653 839.1794,-139.643"/>
</g>
<!-- Node16 -->
<g id="node17" class="node">
<title>Node16</title>
<polygon fill="#ffffff" stroke="#bfbfbf" points="904,-112.5 904,-131.5 1008,-131.5 1008,-112.5 904,-112.5"/>
<text text-anchor="middle" x="956" y="-119.5" font-family="Helvetica,sans-Serif" font-size="10.00" fill="#000000">libxml/xmlmemory.h</text>
</g>
<!-- Node6&#45;&gt;Node16 -->
<g id="edge17" class="edge">
<title>Node6&#45;&gt;Node16</title>
<path fill="none" stroke="#191970" d="M796.1125,-168.878C828.0948,-159.501 878.1105,-144.8367 913.6788,-134.4083"/>
<polygon fill="#191970" stroke="#191970" points="914.6895,-137.7594 923.3008,-131.5872 912.72,-131.0422 914.6895,-137.7594"/>
</g>
<!-- Node6&#45;&gt;Node17 -->
<g id="edge18" class="edge">
<title>Node6&#45;&gt;Node17</title>
<path fill="none" stroke="#191970" d="M733.9846,-175.2956C710.6228,-173.2661 677.803,-170.4306 649,-168 458.468,-151.9215 407.1764,-159.2348 213.9524,-131.986"/>
<polygon fill="#191970" stroke="#191970" points="214.4371,-128.5198 204.0437,-130.5762 213.4509,-135.45 214.4371,-128.5198"/>
</g>
<!-- Node18 -->
<g id="node19" class="node">
<title>Node18</title>
<polygon fill="#ffffff" stroke="#bfbfbf" points="1026,-112.5 1026,-131.5 1082,-131.5 1082,-112.5 1026,-112.5"/>
<text text-anchor="middle" x="1054" y="-119.5" font-family="Helvetica,sans-Serif" font-size="10.00" fill="#000000">cinttypes</text>
</g>
<!-- Node6&#45;&gt;Node18 -->
<g id="edge19" class="edge">
<title>Node6&#45;&gt;Node18</title>
<path fill="none" stroke="#191970" d="M796.432,-170.8198C800.9773,-169.8384 805.6036,-168.8703 810,-168 898.4724,-150.4863 924.0959,-152.0674 1015.7948,-132.1133"/>
<polygon fill="#191970" stroke="#191970" points="1016.7717,-135.4821 1025.7842,-129.9121 1015.2653,-128.6461 1016.7717,-135.4821"/>
</g>
<!-- Node6&#45;&gt;Node19 -->
<g id="edge20" class="edge">
<title>Node6&#45;&gt;Node19</title>
<path fill="none" stroke="#191970" d="M796.0942,-173.7636C810.371,-171.8828 827.5306,-169.7125 843,-168 1010.9927,-149.403 1058.4251,-165.9984 1227.8013,-131.8498"/>
<polygon fill="#191970" stroke="#191970" points="1228.7096,-135.2366 1237.805,-129.8031 1227.3064,-128.3786 1228.7096,-135.2366"/>
</g>
<!-- Node6&#45;&gt;Node20 -->
<g id="edge21" class="edge">
<title>Node6&#45;&gt;Node20</title>
<path fill="none" stroke="#191970" d="M733.9948,-175.1687C710.6383,-173.0744 677.8205,-170.2135 649,-168 415.0691,-150.033 349.6639,-179.6326 115.8982,-131.6389"/>
<polygon fill="#191970" stroke="#191970" points="116.5824,-128.2064 106.0793,-129.5981 115.1578,-135.0599 116.5824,-128.2064"/>
</g>
<!-- Node21 -->
<g id="node22" class="node">
<title>Node21</title>
<polygon fill="#ffffff" stroke="#bfbfbf" points="1100,-112.5 1100,-131.5 1156,-131.5 1156,-112.5 1100,-112.5"/>
<text text-anchor="middle" x="1128" y="-119.5" font-family="Helvetica,sans-Serif" font-size="10.00" fill="#000000">algorithm</text>
</g>
<!-- Node6&#45;&gt;Node21 -->
<g id="edge24" class="edge">
<title>Node6&#45;&gt;Node21</title>
<path fill="none" stroke="#191970" d="M796.3984,-170.6392C800.9486,-169.6843 805.5852,-168.7717 810,-168 930.88,-146.8711 965.7358,-155.987 1089.9211,-131.9883"/>
<polygon fill="#191970" stroke="#191970" points="1090.6748,-135.4072 1099.8119,-130.0441 1089.3246,-128.5386 1090.6748,-135.4072"/>
</g>
<!-- Node6&#45;&gt;Node22 -->
<g id="edge25" class="edge">
<title>Node6&#45;&gt;Node22</title>
<path fill="none" stroke="#191970" d="M796.0711,-173.5391C810.3433,-171.6129 827.5056,-169.4692 843,-168 1098.6004,-143.7639 1169.6785,-179.3704 1425.8476,-131.7673"/>
<polygon fill="#191970" stroke="#191970" points="1426.6423,-135.1793 1435.822,-129.8894 1425.3471,-128.3001 1426.6423,-135.1793"/>
</g>
<!-- Node23 -->
<g id="node24" class="node">
<title>Node23</title>
<g id="a_node24"><a xlink:href="expression__reg__elus_8h.html" target="_top" xlink:title="Expressions régulières représentant les élus. ">
<polygon fill="#ffffff" stroke="#000000" points="208,-56.5 208,-75.5 322,-75.5 322,-56.5 208,-56.5"/>
<text text-anchor="middle" x="265" y="-63.5" font-family="Helvetica,sans-Serif" font-size="10.00" fill="#000000">expression_reg_elus.h</text>
</a>
</g>
</g>
<!-- Node6&#45;&gt;Node23 -->
<g id="edge26" class="edge">
<title>Node6&#45;&gt;Node23</title>
<path fill="none" stroke="#191970" d="M733.628,-170.4787C729.074,-169.5474 724.4292,-168.6841 720,-168 629.8288,-154.0738 389.9547,-177.7269 311,-132 292.7575,-121.4348 280.0356,-100.3846 272.6661,-84.8861"/>
<polygon fill="#191970" stroke="#191970" points="275.8361,-83.4004 268.592,-75.6691 269.4337,-86.2304 275.8361,-83.4004"/>
</g>
<!-- Node25 -->
<g id="node26" class="node">
<title>Node25</title>
<g id="a_node26"><a xlink:href="expression__reg__cata_8h.html" target="_top" xlink:title="Ce fichier contient les expressions rationnelles permettant d&#39;identifier les catégories statutaires A...">
<polygon fill="#ffffff" stroke="#000000" points="320.5,-112.5 320.5,-131.5 435.5,-131.5 435.5,-112.5 320.5,-112.5"/>
<text text-anchor="middle" x="378" y="-119.5" font-family="Helvetica,sans-Serif" font-size="10.00" fill="#000000">expression_reg_cata.h</text>
</a>
</g>
</g>
<!-- Node6&#45;&gt;Node25 -->
<g id="edge28" class="edge">
<title>Node6&#45;&gt;Node25</title>
<path fill="none" stroke="#191970" d="M733.6,-170.6484C729.05,-169.6921 724.4139,-168.7767 720,-168 601.3786,-147.1263 568.2276,-149.1409 445.7345,-132.214"/>
<polygon fill="#191970" stroke="#191970" points="445.9707,-128.7131 435.5826,-130.7963 445.0024,-135.6458 445.9707,-128.7131"/>
</g>
<!-- Node24 -->
<g id="node25" class="node">
<title>Node24</title>
<g id="a_node25"><a xlink:href="expression__reg__commun_8h.html" target="_top" xlink:title="Elements constitutifs des expressions régulières. ">
<polygon fill="#ffffff" stroke="#000000" points="268,-.5 268,-19.5 402,-19.5 402,-.5 268,-.5"/>
<text text-anchor="middle" x="335" y="-7.5" font-family="Helvetica,sans-Serif" font-size="10.00" fill="#000000">expression_reg_commun.h</text>
</a>
</g>
</g>
<!-- Node23&#45;&gt;Node24 -->
<g id="edge27" class="edge">
<title>Node23&#45;&gt;Node24</title>
<path fill="none" stroke="#191970" d="M277.1931,-56.2455C287.6321,-47.8943 302.8655,-35.7076 315.074,-25.9408"/>
<polygon fill="#191970" stroke="#191970" points="317.3244,-28.6227 322.9467,-19.6427 312.9515,-23.1566 317.3244,-28.6227"/>
</g>
<!-- Node26 -->
<g id="node27" class="node">
<title>Node26</title>
<g id="a_node27"><a xlink:href="expression__reg__adjoints_8h.html" target="_top" xlink:title="Expressions régulières de niveau adjoints / auxiliaires / aides (catégories C) ">
<polygon fill="#ffffff" stroke="#000000" points="340,-56.5 340,-75.5 470,-75.5 470,-56.5 340,-56.5"/>
<text text-anchor="middle" x="405" y="-63.5" font-family="Helvetica,sans-Serif" font-size="10.00" fill="#000000">expression_reg_adjoints.h</text>
</a>
</g>
</g>
<!-- Node25&#45;&gt;Node26 -->
<g id="edge29" class="edge">
<title>Node25&#45;&gt;Node26</title>
<path fill="none" stroke="#191970" d="M382.703,-112.2455C386.3424,-104.6973 391.4924,-94.0158 395.9262,-84.8197"/>
<polygon fill="#191970" stroke="#191970" points="399.1605,-86.1704 400.3509,-75.6427 392.8551,-83.1303 399.1605,-86.1704"/>
</g>
<!-- Node26&#45;&gt;Node24 -->
<g id="edge30" class="edge">
<title>Node26&#45;&gt;Node24</title>
<path fill="none" stroke="#191970" d="M392.8069,-56.2455C382.3679,-47.8943 367.1345,-35.7076 354.926,-25.9408"/>
<polygon fill="#191970" stroke="#191970" points="357.0485,-23.1566 347.0533,-19.6427 352.6756,-28.6227 357.0485,-23.1566"/>
</g>
<!-- Node36&#45;&gt;Node3 -->
<g id="edge54" class="edge">
<title>Node36&#45;&gt;Node3</title>
<path fill="none" stroke="#191970" d="M1198.0216,-224.4509C1222.2671,-205.1921 1277.2448,-161.5218 1306.9912,-137.8935"/>
<polygon fill="#191970" stroke="#191970" points="1309.3555,-140.4854 1315.0088,-131.5249 1305.0016,-135.0041 1309.3555,-140.4854"/>
</g>
<!-- Node36&#45;&gt;Node6 -->
<g id="edge50" class="edge">
<title>Node36&#45;&gt;Node6</title>
<path fill="none" stroke="#191970" d="M1162.7655,-230.9094C1094.4368,-221.8206 893.4968,-195.0922 806.2334,-183.4847"/>
<polygon fill="#191970" stroke="#191970" points="806.5458,-179.9955 796.1716,-182.1463 805.6227,-186.9344 806.5458,-179.9955"/>
</g>
<!-- Node36&#45;&gt;Node7 -->
<g id="edge53" class="edge">
<title>Node36&#45;&gt;Node7</title>
<path fill="none" stroke="#191970" d="M1162.8021,-232.4715C1081.5186,-226.9935 809.9306,-207.6245 725,-188 700.0638,-182.2381 695.9533,-173.6873 671,-168 503.871,-129.9081 456.267,-159.0517 287,-132 282.7358,-131.3185 278.2678,-130.4668 273.8816,-129.5499"/>
<polygon fill="#191970" stroke="#191970" points="274.4505,-126.091 263.9297,-127.3411 272.9338,-132.9247 274.4505,-126.091"/>
</g>
<!-- Node36&#45;&gt;Node19 -->
<g id="edge52" class="edge">
<title>Node36&#45;&gt;Node19</title>
<path fill="none" stroke="#191970" d="M1192.3092,-224.4509C1204.6515,-205.7707 1232.1682,-164.1238 1248.0568,-140.0761"/>
<polygon fill="#191970" stroke="#191970" points="1251.1143,-141.7977 1253.7068,-131.5249 1245.274,-137.9388 1251.1143,-141.7977"/>
</g>
<!-- Node36&#45;&gt;Node22 -->
<g id="edge51" class="edge">
<title>Node36&#45;&gt;Node22</title>
<path fill="none" stroke="#191970" d="M1209.1426,-232.8423C1248.5282,-230.0179 1330.1339,-220.4046 1390,-188 1412.0122,-176.0851 1431.8778,-155.0216 1444.3737,-139.8917"/>
<polygon fill="#191970" stroke="#191970" points="1447.3415,-141.7838 1450.84,-131.7832 1441.8686,-137.4193 1447.3415,-141.7838"/>
</g>
</g>
</svg>
        <g id="navigator" transform="translate(0 0)" fill="#404254">
                <rect fill="#f2f5e9" fill-opacity="0.5" stroke="#606060" stroke-width=".5" x="0" y="0" width="60" height="60"/>
                <use id="zoomplus" xlink:href="#zoomPlus" x="17" y="9" onmousedown="handleZoom(evt,'in')"/>
                <use id="zoomminus" xlink:href="#zoomMin" x="42" y="9" onmousedown="handleZoom(evt,'out')"/>
                <use id="reset" xlink:href="#resetDef" x="30" y="36" onmousedown="handleReset()"/>
                <g id="arrowUp" xlink:href="#dirArrow" transform="translate(30 24)" onmousedown="handlePan(0,-1)">
                  <use xlink:href="#rim" fill="#404040">
                        <set attributeName="fill" to="#808080" begin="arrowUp.mouseover" end="arrowUp.mouseout"/>
                  </use>
                  <path fill="none" stroke="white" stroke-width="1.5" d="M0,-3.0v7 M-2.5,-0.5L0,-3.0L2.5,-0.5"/>
                </g>
                <g id="arrowRight" xlink:href="#dirArrow" transform="rotate(90) translate(36 -43)" onmousedown="handlePan(1,0)">
                  <use xlink:href="#rim" fill="#404040">
                        <set attributeName="fill" to="#808080" begin="arrowRight.mouseover" end="arrowRight.mouseout"/>
                  </use>
                  <path fill="none" stroke="white" stroke-width="1.5" d="M0,-3.0v7 M-2.5,-0.5L0,-3.0L2.5,-0.5"/>
                </g>
                <g id="arrowDown" xlink:href="#dirArrow" transform="rotate(180) translate(-30 -48)" onmousedown="handlePan(0,1)">
                  <use xlink:href="#rim" fill="#404040">
                        <set attributeName="fill" to="#808080" begin="arrowDown.mouseover" end="arrowDown.mouseout"/>
                  </use>
                  <path fill="none" stroke="white" stroke-width="1.5" d="M0,-3.0v7 M-2.5,-0.5L0,-3.0L2.5,-0.5"/>
                </g>
                <g id="arrowLeft" xlink:href="#dirArrow" transform="rotate(270) translate(-36 17)" onmousedown="handlePan(-1,0)">
                  <use xlink:href="#rim" fill="#404040">
                        <set attributeName="fill" to="#808080" begin="arrowLeft.mouseover" end="arrowLeft.mouseout"/>
                  </use>
                  <path fill="none" stroke="white" stroke-width="1.5" d="M0,-3.0v7 M-2.5,-0.5L0,-3.0L2.5,-0.5"/>
                </g>
        </g>
        <svg viewBox="0 0 15 15" width="100%" height="30px" preserveAspectRatio="xMaxYMin meet">
         <g id="arrow_out" transform="scale(0.3 0.3)">
          <a xlink:href="ligne__paye_8cpp__incl_org.svg" target="_base">
           <rect id="button" ry="5" rx="5" y="6" x="6" height="38" width="38"
                fill="#f2f5e9" fill-opacity="0.5" stroke="#606060" stroke-width="1.0"/>
           <path id="arrow"
             d="M 11.500037,31.436501 C 11.940474,20.09759 22.043105,11.32322 32.158766,21.979434 L 37.068811,17.246167 C 37.068811,17.246167 37.088388,32 37.088388,32 L 22.160133,31.978069 C 22.160133,31.978069 26.997745,27.140456 26.997745,27.140456 C 18.528582,18.264221 13.291696,25.230495 11.500037,31.436501 z"
             style="fill:#404040;"/>
          </a>
         </g>
        </svg>
</svg>
