<?xml version="1.0" encoding="UTF-8" standalone="no"?>
<!DOCTYPE svg PUBLIC "-//W3C//DTD SVG 1.1//EN"
 "http://www.w3.org/Graphics/SVG/1.1/DTD/svg11.dtd">
<!-- Generated by graphviz version 2.38.0 (20140413.2041)
 -->
<!-- Title: lignePaye Pages: 1 -->
<svg width="537pt" height="203pt"
 viewBox="0.00 0.00 537.00 203.00" xmlns="http://www.w3.org/2000/svg" xmlns:xlink="http://www.w3.org/1999/xlink">
<g id="graph0" class="graph" transform="scale(1 1) rotate(0) translate(4 199)">
<title>lignePaye</title>
<polygon fill="white" stroke="none" points="-4,4 -4,-199 533,-199 533,4 -4,4"/>
<!-- Node83 -->
<g id="node1" class="node"><title>Node83</title>
<polygon fill="#bfbfbf" stroke="black" points="0,-93.5 0,-112.5 59,-112.5 59,-93.5 0,-93.5"/>
<text text-anchor="middle" x="29.5" y="-100.5" font-family="Helvetica,sans-Serif" font-size="10.00">lignePaye</text>
</g>
<!-- Node84 -->
<g id="node2" class="node"><title>Node84</title>
<g id="a_node2"><a xlink:href="ligne__paye_8cpp.html#a45ce15888cd33c4753e852fce36fb56e" target="_top" xlink:title="Appelle Bulletin et affiche l&#39;interprétation des erreurs. ">
<polygon fill="white" stroke="black" points="104.5,-175.5 104.5,-194.5 201.5,-194.5 201.5,-175.5 104.5,-175.5"/>
<text text-anchor="middle" x="153" y="-182.5" font-family="Helvetica,sans-Serif" font-size="10.00">bulletin_obligatoire</text>
</a>
</g>
</g>
<!-- Node83&#45;&gt;Node84 -->
<g id="edge1" class="edge"><title>Node83&#45;&gt;Node84</title>
<path fill="none" stroke="midnightblue" d="M38.1898,-112.941C49.3216,-126.701 71.2128,-151.491 95,-166 98.3604,-168.05 101.969,-169.908 105.678,-171.586"/>
<polygon fill="midnightblue" stroke="midnightblue" points="104.445,-174.863 115.027,-175.396 107.087,-168.381 104.445,-174.863"/>
</g>
<!-- Node90 -->
<g id="node8" class="node"><title>Node90</title>
<g id="a_node8"><a xlink:href="ligne__paye_8cpp.html#a8636e0f8d6d7fce58969c36956342c90" target="_top" xlink:title="Appelle Bulletin. ">
<polygon fill="white" stroke="black" points="104.5,-39 104.5,-69 201.5,-69 201.5,-39 104.5,-39"/>
<text text-anchor="start" x="112.5" y="-57" font-family="Helvetica,sans-Serif" font-size="10.00">bulletin_obligatoire</text>
<text text-anchor="middle" x="153" y="-46" font-family="Helvetica,sans-Serif" font-size="10.00">_numerique</text>
</a>
</g>
</g>
<!-- Node83&#45;&gt;Node90 -->
<g id="edge8" class="edge"><title>Node83&#45;&gt;Node90</title>
<path fill="none" stroke="midnightblue" d="M54.2149,-93.436C68.6657,-87.6081 87.6375,-79.9569 105.021,-72.9461"/>
<polygon fill="midnightblue" stroke="midnightblue" points="106.512,-76.119 114.477,-69.1328 103.894,-69.6271 106.512,-76.119"/>
</g>
<!-- Node92 -->
<g id="node10" class="node"><title>Node92</title>
<g id="a_node10"><a xlink:href="ligne__paye_8cpp.html#a4a91586d82e91ad3e3c02355b57c9e09" target="_top" xlink:title="Appelle Bulletin. ">
<polygon fill="white" stroke="black" points="95,-137.5 95,-156.5 211,-156.5 211,-137.5 95,-137.5"/>
<text text-anchor="middle" x="153" y="-144.5" font-family="Helvetica,sans-Serif" font-size="10.00">bulletin_optionnel_char</text>
</a>
</g>
</g>
<!-- Node83&#45;&gt;Node92 -->
<g id="edge12" class="edge"><title>Node83&#45;&gt;Node92</title>
<path fill="none" stroke="midnightblue" d="M54.2897,-112.535C66.4216,-117.317 81.4413,-123.116 95,-128 100.658,-130.038 106.659,-132.122 112.561,-134.128"/>
<polygon fill="midnightblue" stroke="midnightblue" points="111.729,-137.54 122.323,-137.407 113.958,-130.905 111.729,-137.54"/>
</g>
<!-- Node93 -->
<g id="node11" class="node"><title>Node93</title>
<g id="a_node11"><a xlink:href="ligne__paye_8cpp.html#a9ddbe10974c6bd265152624a68cd0580" target="_top" xlink:title="Appelle Bulletin. ">
<polygon fill="white" stroke="black" points="107,-88 107,-118 199,-118 199,-88 107,-88"/>
<text text-anchor="start" x="115" y="-106" font-family="Helvetica,sans-Serif" font-size="10.00">bulletin_optionnel</text>
<text text-anchor="middle" x="153" y="-95" font-family="Helvetica,sans-Serif" font-size="10.00">_numerique</text>
</a>
</g>
</g>
<!-- Node83&#45;&gt;Node93 -->
<g id="edge15" class="edge"><title>Node83&#45;&gt;Node93</title>
<path fill="none" stroke="midnightblue" d="M59.2938,-103C70.4789,-103 83.6845,-103 96.5685,-103"/>
<polygon fill="midnightblue" stroke="midnightblue" points="96.7876,-106.5 106.788,-103 96.7875,-99.5001 96.7876,-106.5"/>
</g>
<!-- Node94 -->
<g id="node12" class="node"><title>Node94</title>
<g id="a_node12"><a xlink:href="ligne__paye_8h.html#a1918a95b8d7eafcb07bcf867242b3514" target="_top" xlink:title="Vérifie que la taille des données de paye en nombre de lignes de paye au décodage effectif des fichie...">
<polygon fill="white" stroke="black" points="117.5,-0.5 117.5,-19.5 188.5,-19.5 188.5,-0.5 117.5,-0.5"/>
<text text-anchor="middle" x="153" y="-7.5" font-family="Helvetica,sans-Serif" font-size="10.00">verifier_taille</text>
</a>
</g>
</g>
<!-- Node83&#45;&gt;Node94 -->
<g id="edge19" class="edge"><title>Node83&#45;&gt;Node94</title>
<path fill="none" stroke="midnightblue" d="M36.4135,-93.3702C46.5252,-77.6773 68.6216,-46.5785 95,-29 99.0201,-26.321 103.451,-23.9895 108.013,-21.9675"/>
<polygon fill="midnightblue" stroke="midnightblue" points="109.451,-25.1629 117.47,-18.2393 106.883,-18.6507 109.451,-25.1629"/>
</g>
<!-- Node85 -->
<g id="node3" class="node"><title>Node85</title>
<g id="a_node3"><a xlink:href="fonctions__auxiliaires_8cpp.html#a595f0eff37a7e74c477ad08221736a0d" target="_top" xlink:title="Fonction d&#39;affichage de des lignes du fichier XML de paye entourant celle où se pose un problème de c...">
<polygon fill="white" stroke="black" points="393,-167.5 393,-186.5 529,-186.5 529,-167.5 393,-167.5"/>
<text text-anchor="middle" x="461" y="-174.5" font-family="Helvetica,sans-Serif" font-size="10.00">afficher_environnement_xhl</text>
</a>
</g>
</g>
<!-- Node84&#45;&gt;Node85 -->
<g id="edge2" class="edge"><title>Node84&#45;&gt;Node85</title>
<path fill="none" stroke="midnightblue" d="M201.812,-183.75C250.256,-182.484 325.967,-180.504 382.9,-179.016"/>
<polygon fill="midnightblue" stroke="midnightblue" points="383.037,-182.513 392.942,-178.753 382.854,-175.516 383.037,-182.513"/>
</g>
<!-- Node86 -->
<g id="node4" class="node"><title>Node86</title>
<g id="a_node4"><a xlink:href="ligne__paye_8cpp.html#a8720dbeccf4eabbc5ffa9d7be551a7a5" target="_top" xlink:title="Atteint le prochain noeud de libellé donné, après un saut éventuel, et le lit. ">
<polygon fill="white" stroke="black" points="277.5,-96.5 277.5,-115.5 326.5,-115.5 326.5,-96.5 277.5,-96.5"/>
<text text-anchor="middle" x="302" y="-103.5" font-family="Helvetica,sans-Serif" font-size="10.00">Bulletin</text>
</a>
</g>
</g>
<!-- Node84&#45;&gt;Node86 -->
<g id="edge3" class="edge"><title>Node84&#45;&gt;Node86</title>
<path fill="none" stroke="midnightblue" d="M191.392,-175.474C198.191,-172.937 205.017,-169.81 211,-166 230.623,-153.503 227.794,-141.129 247,-128 253.32,-123.68 260.618,-119.992 267.766,-116.94"/>
<polygon fill="midnightblue" stroke="midnightblue" points="269.295,-120.099 277.312,-113.173 266.726,-113.588 269.295,-120.099"/>
</g>
<!-- Node89 -->
<g id="node7" class="node"><title>Node89</title>
<g id="a_node7"><a xlink:href="ligne__paye_8h.html#af031260c541b3083b610927c3e547b28" target="_top" xlink:title="Affiche un message d&#39;avertissement sur la sortie d&#39;erreur lorsqu&#39;un noeud XML ne peut être atteint...">
<polygon fill="white" stroke="black" points="265,-137.5 265,-156.5 339,-156.5 339,-137.5 265,-137.5"/>
<text text-anchor="middle" x="302" y="-144.5" font-family="Helvetica,sans-Serif" font-size="10.00">warning_msg</text>
</a>
</g>
</g>
<!-- Node84&#45;&gt;Node89 -->
<g id="edge6" class="edge"><title>Node84&#45;&gt;Node89</title>
<path fill="none" stroke="midnightblue" d="M191.094,-175.411C210.537,-170.385 234.527,-164.184 255.128,-158.858"/>
<polygon fill="midnightblue" stroke="midnightblue" points="256.128,-162.215 264.934,-156.323 254.376,-155.437 256.128,-162.215"/>
</g>
<!-- Node87 -->
<g id="node5" class="node"><title>Node87</title>
<g id="a_node5"><a xlink:href="validator_8h.html#a5e23405e20d220ba90a7b2213f7a70fb" target="_top" xlink:title="Permet d&#39;atteindre un noeud donné par son libellé de balise XML à partir d&#39;un pointeur XmlNodePtr de ...">
<polygon fill="white" stroke="black" points="419.5,-80.5 419.5,-99.5 502.5,-99.5 502.5,-80.5 419.5,-80.5"/>
<text text-anchor="middle" x="461" y="-87.5" font-family="Helvetica,sans-Serif" font-size="10.00">atteindreNoeud</text>
</a>
</g>
</g>
<!-- Node86&#45;&gt;Node87 -->
<g id="edge4" class="edge"><title>Node86&#45;&gt;Node87</title>
<path fill="none" stroke="midnightblue" d="M326.504,-103.605C348.294,-101.384 381.443,-98.0058 409.257,-95.1713"/>
<polygon fill="midnightblue" stroke="midnightblue" points="409.638,-98.6506 419.232,-94.1547 408.929,-91.6867 409.638,-98.6506"/>
</g>
<!-- Node88 -->
<g id="node6" class="node"><title>Node88</title>
<g id="a_node6"><a xlink:href="ligne__paye_8cpp.html#a6044ec3fae81f42425539be4d999edd4" target="_top" xlink:title="Remplace les occurrences d&#39;un caractère à l&#39;intérieur d&#39;une chaîne xmlChar* par le &#160;caractère &#39;_&#39;...">
<polygon fill="white" stroke="black" points="436,-118.5 436,-137.5 486,-137.5 486,-118.5 436,-118.5"/>
<text text-anchor="middle" x="461" y="-125.5" font-family="Helvetica,sans-Serif" font-size="10.00">sanitize</text>
</a>
</g>
</g>
<!-- Node86&#45;&gt;Node88 -->
<g id="edge5" class="edge"><title>Node86&#45;&gt;Node88</title>
<path fill="none" stroke="midnightblue" d="M326.504,-109.294C352.828,-112.982 395.73,-118.994 425.775,-123.204"/>
<polygon fill="midnightblue" stroke="midnightblue" points="425.429,-126.69 435.818,-124.611 426.401,-119.758 425.429,-126.69"/>
</g>
<!-- Node89&#45;&gt;Node85 -->
<g id="edge7" class="edge"><title>Node89&#45;&gt;Node85</title>
<path fill="none" stroke="midnightblue" d="M339.019,-153.883C357.146,-157.346 379.599,-161.637 400.221,-165.577"/>
<polygon fill="midnightblue" stroke="midnightblue" points="399.691,-169.039 410.17,-167.478 401.005,-162.164 399.691,-169.039"/>
</g>
<!-- Node90&#45;&gt;Node86 -->
<g id="edge9" class="edge"><title>Node90&#45;&gt;Node86</title>
<path fill="none" stroke="midnightblue" d="M196.518,-69.0406C219.211,-77.0678 246.726,-86.801 267.823,-94.2637"/>
<polygon fill="midnightblue" stroke="midnightblue" points="266.723,-97.5874 277.318,-97.6227 269.058,-90.9881 266.723,-97.5874"/>
</g>
<!-- Node90&#45;&gt;Node89 -->
<g id="edge11" class="edge"><title>Node90&#45;&gt;Node89</title>
<path fill="none" stroke="midnightblue" d="M196.779,-69.0811C201.798,-71.6853 206.667,-74.6519 211,-78 231.821,-94.0877 226.085,-109.034 247,-125 251.07,-128.107 255.639,-130.845 260.352,-133.238"/>
<polygon fill="midnightblue" stroke="midnightblue" points="258.949,-136.445 269.498,-137.423 261.861,-130.08 258.949,-136.445"/>
</g>
<!-- Node91 -->
<g id="node9" class="node"><title>Node91</title>
<g id="a_node9"><a xlink:href="ligne__paye_8cpp.html#a5342d9b40b92c978ff404415b691e059" target="_top" xlink:title="Substitue le séparateur décimal passé en paramètre au séparateur par défaut (.) ">
<polygon fill="white" stroke="black" points="247,-43 247,-73 357,-73 357,-43 247,-43"/>
<text text-anchor="start" x="255" y="-61" font-family="Helvetica,sans-Serif" font-size="10.00">substituer_separateur</text>
<text text-anchor="middle" x="302" y="-50" font-family="Helvetica,sans-Serif" font-size="10.00">_decimal</text>
</a>
</g>
</g>
<!-- Node90&#45;&gt;Node91 -->
<g id="edge10" class="edge"><title>Node90&#45;&gt;Node91</title>
<path fill="none" stroke="midnightblue" d="M201.727,-55.2987C212.879,-55.6022 224.938,-55.9303 236.68,-56.2498"/>
<polygon fill="midnightblue" stroke="midnightblue" points="236.794,-59.7541 246.886,-56.5275 236.985,-52.7567 236.794,-59.7541"/>
</g>
<!-- Node92&#45;&gt;Node86 -->
<g id="edge13" class="edge"><title>Node92&#45;&gt;Node86</title>
<path fill="none" stroke="midnightblue" d="M188.094,-137.491C211.991,-130.826 243.778,-121.96 267.534,-115.334"/>
<polygon fill="midnightblue" stroke="midnightblue" points="268.486,-118.702 277.178,-112.644 266.605,-111.96 268.486,-118.702"/>
</g>
<!-- Node92&#45;&gt;Node89 -->
<g id="edge14" class="edge"><title>Node92&#45;&gt;Node89</title>
<path fill="none" stroke="midnightblue" d="M211.255,-147C225.645,-147 240.909,-147 254.689,-147"/>
<polygon fill="midnightblue" stroke="midnightblue" points="254.899,-150.5 264.899,-147 254.899,-143.5 254.899,-150.5"/>
</g>
<!-- Node93&#45;&gt;Node86 -->
<g id="edge16" class="edge"><title>Node93&#45;&gt;Node86</title>
<path fill="none" stroke="midnightblue" d="M199.304,-103.925C221.186,-104.371 246.997,-104.898 267.14,-105.309"/>
<polygon fill="midnightblue" stroke="midnightblue" points="267.327,-108.813 277.396,-105.518 267.469,-101.815 267.327,-108.813"/>
</g>
<!-- Node93&#45;&gt;Node89 -->
<g id="edge18" class="edge"><title>Node93&#45;&gt;Node89</title>
<path fill="none" stroke="midnightblue" d="M199.304,-116.56C218.468,-122.297 240.647,-128.935 259.392,-134.546"/>
<polygon fill="midnightblue" stroke="midnightblue" points="258.545,-137.946 269.129,-137.46 260.552,-131.24 258.545,-137.946"/>
</g>
<!-- Node93&#45;&gt;Node91 -->
<g id="edge17" class="edge"><title>Node93&#45;&gt;Node91</title>
<path fill="none" stroke="midnightblue" d="M199.304,-89.1313C212.807,-84.9978 227.806,-80.4062 242.047,-76.0469"/>
<polygon fill="midnightblue" stroke="midnightblue" points="243.219,-79.3485 251.756,-73.0745 241.17,-72.6551 243.219,-79.3485"/>
</g>
</g>
</svg>
