<?xml version="1.0" encoding="UTF-8" standalone="no"?>
<!DOCTYPE svg PUBLIC "-//W3C//DTD SVG 1.1//EN"
 "http://www.w3.org/Graphics/SVG/1.1/DTD/svg11.dtd">
<!-- Generated by graphviz version 2.38.0 (20140413.2041)
 -->
<!-- Title: Bulletin Pages: 1 -->
<svg width="865pt" height="166pt"
 viewBox="0.00 0.00 865.00 165.50" xmlns="http://www.w3.org/2000/svg" xmlns:xlink="http://www.w3.org/1999/xlink">
<g id="graph0" class="graph" transform="scale(1 1) rotate(0) translate(4 161.5)">
<title>Bulletin</title>
<polygon fill="white" stroke="none" points="-4,4 -4,-161.5 861,-161.5 861,4 -4,4"/>
<!-- Node10 -->
<g id="node1" class="node"><title>Node10</title>
<polygon fill="#bfbfbf" stroke="black" points="0,-72 0,-91 50,-91 50,-72 0,-72"/>
<text text-anchor="middle" x="25" y="-79" font-family="Helvetica,sans-Serif" font-size="10.00">Bulletin</text>
</g>
<!-- Node11 -->
<g id="node2" class="node"><title>Node11</title>
<g id="a_node2"><a xlink:href="ligne__paye_8cpp.html#a45ce15888cd33c4753e852fce36fb56e" target="_top" xlink:title="Appelle Bulletin et affiche l&#39;interprétation des erreurs. ">
<polygon fill="white" stroke="black" points="96.5,-138 96.5,-157 200.5,-157 200.5,-138 96.5,-138"/>
<text text-anchor="middle" x="148.5" y="-145" font-family="Helvetica,sans-Serif" font-size="10.00">bulletin_obligatoire</text>
</a>
</g>
</g>
<!-- Node10&#45;&gt;Node11 -->
<g id="edge1" class="edge"><title>Node10&#45;&gt;Node11</title>
<path fill="none" stroke="midnightblue" d="M43.296,-97.843C54.6858,-107.866 70.3391,-120.306 86,-128.5 93.1291,-132.23 101.113,-135.365 108.906,-137.945"/>
<polygon fill="midnightblue" stroke="midnightblue" points="45.5775,-95.1872 35.8168,-91.0667 40.8775,-100.375 45.5775,-95.1872"/>
</g>
<!-- Node18 -->
<g id="node9" class="node"><title>Node18</title>
<g id="a_node9"><a xlink:href="ligne__paye_8cpp.html#a8636e0f8d6d7fce58969c36956342c90" target="_top" xlink:title="Appelle Bulletin. ">
<polygon fill="white" stroke="black" points="96.5,-88.5 96.5,-118.5 200.5,-118.5 200.5,-88.5 96.5,-88.5"/>
<text text-anchor="start" x="104.5" y="-106.5" font-family="Helvetica,sans-Serif" font-size="10.00">bulletin_obligatoire</text>
<text text-anchor="middle" x="148.5" y="-95.5" font-family="Helvetica,sans-Serif" font-size="10.00">_numerique</text>
</a>
</g>
</g>
<!-- Node10&#45;&gt;Node18 -->
<g id="edge8" class="edge"><title>Node10&#45;&gt;Node18</title>
<path fill="none" stroke="midnightblue" d="M59.8988,-87.638C71.2145,-89.687 84.0862,-92.0177 96.4132,-94.2497"/>
<polygon fill="midnightblue" stroke="midnightblue" points="60.4681,-84.1843 50.0045,-85.8465 59.2209,-91.0723 60.4681,-84.1843"/>
</g>
<!-- Node19 -->
<g id="node10" class="node"><title>Node19</title>
<g id="a_node10"><a xlink:href="ligne__paye_8cpp.html#a4a91586d82e91ad3e3c02355b57c9e09" target="_top" xlink:title="Appelle Bulletin. ">
<polygon fill="white" stroke="black" points="86,-50 86,-69 211,-69 211,-50 86,-50"/>
<text text-anchor="middle" x="148.5" y="-57" font-family="Helvetica,sans-Serif" font-size="10.00">bulletin_optionnel_char</text>
</a>
</g>
</g>
<!-- Node10&#45;&gt;Node19 -->
<g id="edge10" class="edge"><title>Node10&#45;&gt;Node19</title>
<path fill="none" stroke="midnightblue" d="M59.9096,-75.36C70.7608,-73.3952 83.042,-71.1714 94.9012,-69.0241"/>
<polygon fill="midnightblue" stroke="midnightblue" points="59.2209,-71.9277 50.0045,-77.1535 60.4681,-78.8157 59.2209,-71.9277"/>
</g>
<!-- Node20 -->
<g id="node11" class="node"><title>Node20</title>
<g id="a_node11"><a xlink:href="ligne__paye_8cpp.html#a9ddbe10974c6bd265152624a68cd0580" target="_top" xlink:title="Appelle Bulletin. ">
<polygon fill="white" stroke="black" points="99.5,-0.5 99.5,-30.5 197.5,-30.5 197.5,-0.5 99.5,-0.5"/>
<text text-anchor="start" x="107.5" y="-18.5" font-family="Helvetica,sans-Serif" font-size="10.00">bulletin_optionnel</text>
<text text-anchor="middle" x="148.5" y="-7.5" font-family="Helvetica,sans-Serif" font-size="10.00">_numerique</text>
</a>
</g>
</g>
<!-- Node10&#45;&gt;Node20 -->
<g id="edge12" class="edge"><title>Node10&#45;&gt;Node20</title>
<path fill="none" stroke="midnightblue" d="M46.6606,-65.7626C57.9211,-57.6077 72.3177,-47.8468 86,-40.5 92.6003,-36.9559 99.8136,-33.5999 106.903,-30.5648"/>
<polygon fill="midnightblue" stroke="midnightblue" points="44.3403,-63.1251 38.3757,-71.8814 48.499,-68.7558 44.3403,-63.1251"/>
</g>
<!-- Node12 -->
<g id="node3" class="node"><title>Node12</title>
<g id="a_node3"><a xlink:href="ligne__paye_8cpp.html#ab0033809d3d04a56bf668e6722da255c" target="_top" xlink:title="Analyse les noeuds fils du noeud. ">
<polygon fill="white" stroke="black" points="247,-72 247,-91 310,-91 310,-72 247,-72"/>
<text text-anchor="middle" x="278.5" y="-79" font-family="Helvetica,sans-Serif" font-size="10.00">lignePaye</text>
</a>
</g>
</g>
<!-- Node11&#45;&gt;Node12 -->
<g id="edge2" class="edge"><title>Node11&#45;&gt;Node12</title>
<path fill="none" stroke="midnightblue" d="M196.543,-134.667C201.512,-132.812 206.418,-130.756 211,-128.5 231.802,-118.26 253.243,-101.851 265.967,-91.3798"/>
<polygon fill="midnightblue" stroke="midnightblue" points="195.279,-131.401 186.98,-137.988 197.575,-138.014 195.279,-131.401"/>
</g>
<!-- Node13 -->
<g id="node4" class="node"><title>Node13</title>
<g id="a_node4"><a xlink:href="validator_8cpp.html#abdf1df3dd61991073a485a3e5d8addd2" target="_top" xlink:title="Lance le décodage des variables Bulletins de paye (Nom, Prenom, Matricule,...) ">
<polygon fill="white" stroke="black" points="346,-72 346,-91 445,-91 445,-72 346,-72"/>
<text text-anchor="middle" x="395.5" y="-79" font-family="Helvetica,sans-Serif" font-size="10.00">parseLignesPaye</text>
</a>
</g>
</g>
<!-- Node12&#45;&gt;Node13 -->
<g id="edge3" class="edge"><title>Node12&#45;&gt;Node13</title>
<path fill="none" stroke="midnightblue" d="M320.121,-81.5C328.358,-81.5 337.103,-81.5 345.592,-81.5"/>
<polygon fill="midnightblue" stroke="midnightblue" points="320.016,-78.0001 310.016,-81.5 320.016,-85.0001 320.016,-78.0001"/>
</g>
<!-- Node14 -->
<g id="node5" class="node"><title>Node14</title>
<g id="a_node5"><a xlink:href="validator_8cpp.html#ae1ac2699ac4449a4a9a16b0e37234b35" target="_top" xlink:title="Décode une structure info_t contenant les données de paye à l&#39;état brut &quot;fichier&quot; (...">
<polygon fill="white" stroke="black" points="481,-72 481,-91 541,-91 541,-72 481,-72"/>
<text text-anchor="middle" x="511" y="-79" font-family="Helvetica,sans-Serif" font-size="10.00">parseFile</text>
</a>
</g>
</g>
<!-- Node13&#45;&gt;Node14 -->
<g id="edge4" class="edge"><title>Node13&#45;&gt;Node14</title>
<path fill="none" stroke="midnightblue" d="M455.313,-81.5C464.204,-81.5 473.028,-81.5 480.909,-81.5"/>
<polygon fill="midnightblue" stroke="midnightblue" points="455.293,-78.0001 445.293,-81.5 455.293,-85.0001 455.293,-78.0001"/>
</g>
<!-- Node15 -->
<g id="node6" class="node"><title>Node15</title>
<g id="a_node6"><a xlink:href="validator_8h.html#a36359f86441c3ac6219a34f63b8c3da6" target="_top" xlink:title="Lance l&#39;ensemble des processus de pré&#45;traitement et de post&#45;traitement des fichiers de paye...">
<polygon fill="white" stroke="black" points="577,-72 577,-91 644,-91 644,-72 577,-72"/>
<text text-anchor="middle" x="610.5" y="-79" font-family="Helvetica,sans-Serif" font-size="10.00">parse_info</text>
</a>
</g>
</g>
<!-- Node14&#45;&gt;Node15 -->
<g id="edge5" class="edge"><title>Node14&#45;&gt;Node15</title>
<path fill="none" stroke="midnightblue" d="M551.323,-81.5C559.798,-81.5 568.668,-81.5 576.856,-81.5"/>
<polygon fill="midnightblue" stroke="midnightblue" points="551.253,-78.0001 541.253,-81.5 551.253,-85.0001 551.253,-78.0001"/>
</g>
<!-- Node16 -->
<g id="node7" class="node"><title>Node16</title>
<g id="a_node7"><a xlink:href="lhx_2main_8cpp.html#abb1f1ad236423a832fd1efa1e9deeafa" target="_top" xlink:title="Pour un segment donné (sous&#45;ensemble de bases de paye XML), redécoupe le segment en partie égales ou ...">
<polygon fill="white" stroke="black" points="680,-72 680,-91 782,-91 782,-72 680,-72"/>
<text text-anchor="middle" x="731" y="-79" font-family="Helvetica,sans-Serif" font-size="10.00">produire_segment</text>
</a>
</g>
</g>
<!-- Node15&#45;&gt;Node16 -->
<g id="edge6" class="edge"><title>Node15&#45;&gt;Node16</title>
<path fill="none" stroke="midnightblue" d="M654.308,-81.5C662.527,-81.5 671.206,-81.5 679.638,-81.5"/>
<polygon fill="midnightblue" stroke="midnightblue" points="654.194,-78.0001 644.194,-81.5 654.194,-85.0001 654.194,-78.0001"/>
</g>
<!-- Node17 -->
<g id="node8" class="node"><title>Node17</title>
<g id="a_node8"><a xlink:href="lhx_2main_8cpp.html#a3c04138a5bfe5d72780bb7e82a18e627" target="_top" xlink:title="main">
<polygon fill="white" stroke="black" points="818,-72 818,-91 857,-91 857,-72 818,-72"/>
<text text-anchor="middle" x="837.5" y="-79" font-family="Helvetica,sans-Serif" font-size="10.00">main</text>
</a>
</g>
</g>
<!-- Node16&#45;&gt;Node17 -->
<g id="edge7" class="edge"><title>Node16&#45;&gt;Node17</title>
<path fill="none" stroke="midnightblue" d="M792.271,-81.5C801.565,-81.5 810.512,-81.5 817.898,-81.5"/>
<polygon fill="midnightblue" stroke="midnightblue" points="792.108,-78.0001 782.107,-81.5 792.107,-85.0001 792.108,-78.0001"/>
</g>
<!-- Node18&#45;&gt;Node12 -->
<g id="edge9" class="edge"><title>Node18&#45;&gt;Node12</title>
<path fill="none" stroke="midnightblue" d="M210.787,-92.9663C223.291,-90.8172 235.933,-88.6443 246.8,-86.7765"/>
<polygon fill="midnightblue" stroke="midnightblue" points="210.088,-89.5351 200.825,-94.6785 211.273,-96.4339 210.088,-89.5351"/>
</g>
<!-- Node19&#45;&gt;Node12 -->
<g id="edge11" class="edge"><title>Node19&#45;&gt;Node12</title>
<path fill="none" stroke="midnightblue" d="M215.028,-70.7627C226.081,-72.6624 237.074,-74.5517 246.686,-76.2038"/>
<polygon fill="midnightblue" stroke="midnightblue" points="215.347,-67.2661 204.898,-69.0216 214.161,-74.165 215.347,-67.2661"/>
</g>
<!-- Node20&#45;&gt;Node12 -->
<g id="edge13" class="edge"><title>Node20&#45;&gt;Node12</title>
<path fill="none" stroke="midnightblue" d="M198.598,-34.5933C202.834,-36.5006 207.018,-38.481 211,-40.5 229.871,-50.0691 250.437,-63.2007 263.625,-71.9996"/>
<polygon fill="midnightblue" stroke="midnightblue" points="199.871,-31.3303 189.305,-30.5484 197.078,-37.7487 199.871,-31.3303"/>
</g>
</g>
</svg>
