<?xml version="1.0" encoding="UTF-8" standalone="no"?>
<!DOCTYPE svg PUBLIC "-//W3C//DTD SVG 1.1//EN"
 "http://www.w3.org/Graphics/SVG/1.1/DTD/svg11.dtd">
<!-- Generated by graphviz version 2.38.0 (20140413.2041)
 -->
<!-- Title: bulletin_optionnel_char Pages: 1 -->
<svg width="741pt" height="28pt"
 viewBox="0.00 0.00 741.00 28.00" xmlns="http://www.w3.org/2000/svg" xmlns:xlink="http://www.w3.org/1999/xlink">
<g id="graph0" class="graph" transform="scale(1 1) rotate(0) translate(4 24)">
<title>bulletin_optionnel_char</title>
<polygon fill="white" stroke="none" points="-4,4 -4,-24 737,-24 737,4 -4,4"/>
<!-- Node54 -->
<g id="node1" class="node"><title>Node54</title>
<polygon fill="#bfbfbf" stroke="black" points="0,-0.5 0,-19.5 116,-19.5 116,-0.5 0,-0.5"/>
<text text-anchor="middle" x="58" y="-7.5" font-family="Helvetica,sans-Serif" font-size="10.00">bulletin_optionnel_char</text>
</g>
<!-- Node55 -->
<g id="node2" class="node"><title>Node55</title>
<g id="a_node2"><a xlink:href="ligne__paye_8cpp.html#ab0033809d3d04a56bf668e6722da255c" target="_top" xlink:title="Analyse les noeuds fils du noeud. ">
<polygon fill="white" stroke="black" points="152,-0.5 152,-19.5 211,-19.5 211,-0.5 152,-0.5"/>
<text text-anchor="middle" x="181.5" y="-7.5" font-family="Helvetica,sans-Serif" font-size="10.00">lignePaye</text>
</a>
</g>
</g>
<!-- Node54&#45;&gt;Node55 -->
<g id="edge1" class="edge"><title>Node54&#45;&gt;Node55</title>
<path fill="none" stroke="midnightblue" d="M126.393,-10C135.392,-10 144.194,-10 151.997,-10"/>
<polygon fill="midnightblue" stroke="midnightblue" points="126.192,-6.5001 116.192,-10 126.192,-13.5001 126.192,-6.5001"/>
</g>
<!-- Node56 -->
<g id="node3" class="node"><title>Node56</title>
<g id="a_node3"><a xlink:href="validator_8cpp.html#abdf1df3dd61991073a485a3e5d8addd2" target="_top" xlink:title="Lance le décodage des variables Bulletins de paye (Nom, Prenom, Matricule,...) ">
<polygon fill="white" stroke="black" points="247,-0.5 247,-19.5 339,-19.5 339,-0.5 247,-0.5"/>
<text text-anchor="middle" x="293" y="-7.5" font-family="Helvetica,sans-Serif" font-size="10.00">parseLignesPaye</text>
</a>
</g>
</g>
<!-- Node55&#45;&gt;Node56 -->
<g id="edge2" class="edge"><title>Node55&#45;&gt;Node56</title>
<path fill="none" stroke="midnightblue" d="M221.386,-10C229.645,-10 238.431,-10 246.899,-10"/>
<polygon fill="midnightblue" stroke="midnightblue" points="221.27,-6.5001 211.27,-10 221.27,-13.5001 221.27,-6.5001"/>
</g>
<!-- Node57 -->
<g id="node4" class="node"><title>Node57</title>
<g id="a_node4"><a xlink:href="validator_8cpp.html#ae1ac2699ac4449a4a9a16b0e37234b35" target="_top" xlink:title="Décode une structure info_t contenant les données de paye à l&#39;état brut &quot;fichier&quot; (...">
<polygon fill="white" stroke="black" points="375,-0.5 375,-19.5 431,-19.5 431,-0.5 375,-0.5"/>
<text text-anchor="middle" x="403" y="-7.5" font-family="Helvetica,sans-Serif" font-size="10.00">parseFile</text>
</a>
</g>
</g>
<!-- Node56&#45;&gt;Node57 -->
<g id="edge3" class="edge"><title>Node56&#45;&gt;Node57</title>
<path fill="none" stroke="midnightblue" d="M349.218,-10C358.143,-10 367.022,-10 374.882,-10"/>
<polygon fill="midnightblue" stroke="midnightblue" points="349.176,-6.5001 339.176,-10 349.176,-13.5001 349.176,-6.5001"/>
</g>
<!-- Node58 -->
<g id="node5" class="node"><title>Node58</title>
<g id="a_node5"><a xlink:href="validator_8h.html#a36359f86441c3ac6219a34f63b8c3da6" target="_top" xlink:title="Lance l&#39;ensemble des processus de pré&#45;traitement et de post&#45;traitement des fichiers de paye...">
<polygon fill="white" stroke="black" points="467,-0.5 467,-19.5 529,-19.5 529,-0.5 467,-0.5"/>
<text text-anchor="middle" x="498" y="-7.5" font-family="Helvetica,sans-Serif" font-size="10.00">parse_info</text>
</a>
</g>
</g>
<!-- Node57&#45;&gt;Node58 -->
<g id="edge4" class="edge"><title>Node57&#45;&gt;Node58</title>
<path fill="none" stroke="midnightblue" d="M441.429,-10C449.886,-10 458.759,-10 466.87,-10"/>
<polygon fill="midnightblue" stroke="midnightblue" points="441.4,-6.5001 431.4,-10 441.4,-13.5001 441.4,-6.5001"/>
</g>
<!-- Node59 -->
<g id="node6" class="node"><title>Node59</title>
<g id="a_node6"><a xlink:href="lhx_2main_8cpp.html#abb1f1ad236423a832fd1efa1e9deeafa" target="_top" xlink:title="Pour un segment donné (sous&#45;ensemble de bases de paye XML), redécoupe le segment en partie égales ou ...">
<polygon fill="white" stroke="black" points="565,-0.5 565,-19.5 659,-19.5 659,-0.5 565,-0.5"/>
<text text-anchor="middle" x="612" y="-7.5" font-family="Helvetica,sans-Serif" font-size="10.00">produire_segment</text>
</a>
</g>
</g>
<!-- Node58&#45;&gt;Node59 -->
<g id="edge5" class="edge"><title>Node58&#45;&gt;Node59</title>
<path fill="none" stroke="midnightblue" d="M539.219,-10C547.537,-10 556.362,-10 564.872,-10"/>
<polygon fill="midnightblue" stroke="midnightblue" points="539.014,-6.5001 529.014,-10 539.014,-13.5001 539.014,-6.5001"/>
</g>
<!-- Node60 -->
<g id="node7" class="node"><title>Node60</title>
<g id="a_node7"><a xlink:href="lhx_2main_8cpp.html#a3c04138a5bfe5d72780bb7e82a18e627" target="_top" xlink:title="main">
<polygon fill="white" stroke="black" points="695,-0.5 695,-19.5 733,-19.5 733,-0.5 695,-0.5"/>
<text text-anchor="middle" x="714" y="-7.5" font-family="Helvetica,sans-Serif" font-size="10.00">main</text>
</a>
</g>
</g>
<!-- Node59&#45;&gt;Node60 -->
<g id="edge6" class="edge"><title>Node59&#45;&gt;Node60</title>
<path fill="none" stroke="midnightblue" d="M669.316,-10C678.594,-10 687.577,-10 694.96,-10"/>
<polygon fill="midnightblue" stroke="midnightblue" points="669.195,-6.5001 659.195,-10 669.195,-13.5001 669.195,-6.5001"/>
</g>
</g>
</svg>
