<?xml version="1.0" encoding="UTF-8" standalone="no"?>
<!DOCTYPE svg PUBLIC "-//W3C//DTD SVG 1.1//EN"
 "http://www.w3.org/Graphics/SVG/1.1/DTD/svg11.dtd">
<!-- Generated by graphviz version 2.38.0 (20140413.2041)
 -->
<!-- Title: lhx/ligne_paye.h Pages: 1 -->
<!--zoomable 308 -->
<svg id="main" version="1.1" xmlns="http://www.w3.org/2000/svg" xmlns:xlink="http://www.w3.org/1999/xlink" xml:space="preserve" onload="init(evt)">
<style type="text/css"><![CDATA[
.edge:hover path { stroke: red; }
.edge:hover polygon { stroke: red; fill: red; }
]]></style>
<script type="text/javascript"><![CDATA[
var edges = document.getElementsByTagName('g');
if (edges && edges.length) {
  for (var i=0;i<edges.length;i++) {
    if (edges[i].id.substr(0,4)=='edge') {
      edges[i].setAttribute('class','edge');
    }
  }
}
]]></script>
        <defs>
                <circle id="rim" cx="0" cy="0" r="7"/>
                <circle id="rim2" cx="0" cy="0" r="3.5"/>
                <g id="zoomPlus">
                        <use xlink:href="#rim" fill="#404040">
                                <set attributeName="fill" to="#808080" begin="zoomplus.mouseover" end="zoomplus.mouseout"/>
                        </use>
                        <path d="M-4,0h8M0,-4v8" fill="none" stroke="white" stroke-width="1.5" pointer-events="none"/>
                </g>
                <g id="zoomMin">
                        <use xlink:href="#rim" fill="#404040">
                                <set attributeName="fill" to="#808080" begin="zoomminus.mouseover" end="zoomminus.mouseout"/>
                        </use>
                        <path d="M-4,0h8" fill="none" stroke="white" stroke-width="1.5" pointer-events="none"/>
                </g>
                <g id="dirArrow">
                        <path fill="none" stroke="white" stroke-width="1.5" d="M0,-3.0v7 M-2.5,-0.5L0,-3.0L2.5,-0.5"/>
                </g>
               <g id="resetDef">
                       <use xlink:href="#rim2" fill="#404040">
                               <set attributeName="fill" to="#808080" begin="reset.mouseover" end="reset.mouseout"/>
                       </use>
               </g>
        </defs>

<script type="text/javascript">
var viewWidth = 1544;
var viewHeight = 308;
var sectionId = 'dynsection-0';
</script>
<script xlink:href="svgpan.js"/>
<svg id="graph" class="graph">
<g id="viewport">
<title>lhx/ligne_paye.h</title>
<polygon fill="white" stroke="none" points="-4,4 -4,-304 1539.5,-304 1539.5,4 -4,4"/>
<!-- Node0 -->
<g id="node1" class="node"><title>Node0</title>
<polygon fill="#bfbfbf" stroke="black" points="885.5,-280.5 885.5,-299.5 978.5,-299.5 978.5,-280.5 885.5,-280.5"/>
<text text-anchor="middle" x="932" y="-287.5" font-family="Helvetica,sans-Serif" font-size="10.00">lhx/ligne_paye.h</text>
</g>
<!-- Node1 -->
<g id="node2" class="node"><title>Node1</title>
<polygon fill="white" stroke="#bfbfbf" points="66.5,-112.5 66.5,-131.5 119.5,-131.5 119.5,-112.5 66.5,-112.5"/>
<text text-anchor="middle" x="93" y="-119.5" font-family="Helvetica,sans-Serif" font-size="10.00">iomanip</text>
</g>
<!-- Node0&#45;&gt;Node1 -->
<g id="edge1" class="edge"><title>Node0&#45;&gt;Node1</title>
<path fill="none" stroke="midnightblue" d="M885.378,-288.05C734.904,-284.226 264.595,-266.147 138,-188 120.35,-177.105 107.856,-156.421 100.582,-141.303"/>
<polygon fill="midnightblue" stroke="midnightblue" points="103.66,-139.612 96.3811,-131.914 97.271,-142.472 103.66,-139.612"/>
</g>
<!-- Node2 -->
<g id="node3" class="node"><title>Node2</title>
<polygon fill="white" stroke="#bfbfbf" points="1478.5,-112.5 1478.5,-131.5 1535.5,-131.5 1535.5,-112.5 1478.5,-112.5"/>
<text text-anchor="middle" x="1507" y="-119.5" font-family="Helvetica,sans-Serif" font-size="10.00">iostream</text>
</g>
<!-- Node0&#45;&gt;Node2 -->
<g id="edge2" class="edge"><title>Node0&#45;&gt;Node2</title>
<path fill="none" stroke="midnightblue" d="M978.53,-286.47C1068.72,-281.114 1264.01,-267.182 1327,-244 1393.86,-219.393 1460.22,-165.061 1490.29,-138.386"/>
<polygon fill="midnightblue" stroke="midnightblue" points="1492.69,-140.935 1497.78,-131.643 1488.01,-135.732 1492.69,-140.935"/>
</g>
<!-- Node3 -->
<g id="node4" class="node"><title>Node3</title>
<polygon fill="white" stroke="#bfbfbf" points="0,-112.5 0,-131.5 48,-131.5 48,-112.5 0,-112.5"/>
<text text-anchor="middle" x="24" y="-119.5" font-family="Helvetica,sans-Serif" font-size="10.00">cstring</text>
</g>
<!-- Node0&#45;&gt;Node3 -->
<g id="edge3" class="edge"><title>Node0&#45;&gt;Node3</title>
<path fill="none" stroke="midnightblue" d="M885.232,-288.128C750.148,-285.268 361.199,-274.537 238,-244 178.912,-229.354 165.647,-218.564 113,-188 87.2136,-173.03 59.8417,-152.199 42.37,-138.19"/>
<polygon fill="midnightblue" stroke="midnightblue" points="44.166,-135.14 34.1967,-131.553 39.7535,-140.574 44.166,-135.14"/>
</g>
<!-- Node4 -->
<g id="node5" class="node"><title>Node4</title>
<g id="a_node5"><a xlink:href="fonctions__auxiliaires_8h.html" target="_top" xlink:title="Diverses fonctions auxiliaires en inlining. ">
<polygon fill="white" stroke="black" points="542,-224.5 542,-243.5 662,-243.5 662,-224.5 542,-224.5"/>
<text text-anchor="middle" x="602" y="-231.5" font-family="Helvetica,sans-Serif" font-size="10.00">fonctions_auxiliaires.h</text>
</a>
</g>
</g>
<!-- Node0&#45;&gt;Node4 -->
<g id="edge4" class="edge"><title>Node0&#45;&gt;Node4</title>
<path fill="none" stroke="midnightblue" d="M885.419,-281.378C827.49,-271.898 728.402,-255.684 664.07,-245.157"/>
<polygon fill="midnightblue" stroke="midnightblue" points="664.489,-241.679 654.056,-243.518 663.359,-248.587 664.489,-241.679"/>
</g>
<!-- Node21 -->
<g id="node22" class="node"><title>Node21</title>
<g id="a_node22"><a xlink:href="tags_8h.html" target="_top" xlink:title="tags.h">
<polygon fill="white" stroke="black" points="1415.5,-112.5 1415.5,-131.5 1460.5,-131.5 1460.5,-112.5 1415.5,-112.5"/>
<text text-anchor="middle" x="1438" y="-119.5" font-family="Helvetica,sans-Serif" font-size="10.00">tags.h</text>
</a>
</g>
</g>
<!-- Node0&#45;&gt;Node21 -->
<g id="edge53" class="edge"><title>Node0&#45;&gt;Node21</title>
<path fill="none" stroke="midnightblue" d="M978.677,-286.475C1063.63,-281.348 1239.91,-268.108 1296,-244 1351.58,-220.109 1401.65,-166.666 1424.66,-139.513"/>
<polygon fill="midnightblue" stroke="midnightblue" points="1427.46,-141.622 1431.15,-131.692 1422.07,-137.15 1427.46,-141.622"/>
</g>
<!-- Node34 -->
<g id="node35" class="node"><title>Node34</title>
<g id="a_node35"><a xlink:href="table_8h.html" target="_top" xlink:title="table.h">
<polygon fill="white" stroke="black" points="1239.5,-224.5 1239.5,-243.5 1286.5,-243.5 1286.5,-224.5 1239.5,-224.5"/>
<text text-anchor="middle" x="1263" y="-231.5" font-family="Helvetica,sans-Serif" font-size="10.00">table.h</text>
</a>
</g>
</g>
<!-- Node0&#45;&gt;Node34 -->
<g id="edge47" class="edge"><title>Node0&#45;&gt;Node34</title>
<path fill="none" stroke="midnightblue" d="M978.722,-281.378C1046.3,-270.352 1169.73,-250.216 1229.2,-240.514"/>
<polygon fill="midnightblue" stroke="midnightblue" points="1229.89,-243.948 1239.19,-238.884 1228.76,-237.04 1229.89,-243.948"/>
</g>
<!-- Node4&#45;&gt;Node1 -->
<g id="edge38" class="edge"><title>Node4&#45;&gt;Node1</title>
<path fill="none" stroke="midnightblue" d="M541.849,-230.907C439.972,-226.666 238.19,-215.057 173,-188 146.782,-177.118 122.34,-154.766 107.539,-139.336"/>
<polygon fill="midnightblue" stroke="midnightblue" points="109.724,-136.545 100.358,-131.592 104.591,-141.304 109.724,-136.545"/>
</g>
<!-- Node4&#45;&gt;Node2 -->
<g id="edge31" class="edge"><title>Node4&#45;&gt;Node2</title>
<path fill="none" stroke="midnightblue" d="M662.217,-231.071C770.497,-227.026 1005.06,-215.636 1201,-188 1298.15,-174.298 1410.57,-147.566 1468.33,-133.017"/>
<polygon fill="midnightblue" stroke="midnightblue" points="1469.29,-136.383 1478.13,-130.533 1467.57,-129.598 1469.29,-136.383"/>
</g>
<!-- Node4&#45;&gt;Node3 -->
<g id="edge36" class="edge"><title>Node4&#45;&gt;Node3</title>
<path fill="none" stroke="midnightblue" d="M541.698,-230.294C433.698,-224.927 211.667,-211.39 138,-188 102.28,-176.658 65.3941,-153.054 43.5901,-137.629"/>
<polygon fill="midnightblue" stroke="midnightblue" points="45.3717,-134.598 35.2162,-131.579 41.2721,-140.272 45.3717,-134.598"/>
</g>
<!-- Node5 -->
<g id="node6" class="node"><title>Node5</title>
<g id="a_node6"><a xlink:href="validator_8h.html" target="_top" xlink:title="Ce fichier contient notamment la structure info_t qui stocke les données de paye décodées ainsi que l...">
<polygon fill="white" stroke="black" points="862.5,-168.5 862.5,-187.5 927.5,-187.5 927.5,-168.5 862.5,-168.5"/>
<text text-anchor="middle" x="895" y="-175.5" font-family="Helvetica,sans-Serif" font-size="10.00">validator.h</text>
</a>
</g>
</g>
<!-- Node4&#45;&gt;Node5 -->
<g id="edge5" class="edge"><title>Node4&#45;&gt;Node5</title>
<path fill="none" stroke="midnightblue" d="M652.573,-224.448C701.15,-216.118 776.862,-202.833 852.305,-188.081"/>
<polygon fill="midnightblue" stroke="midnightblue" points="853.325,-191.448 862.463,-186.085 851.976,-184.579 853.325,-191.448"/>
</g>
<!-- Node6 -->
<g id="node7" class="node"><title>Node6</title>
<polygon fill="white" stroke="#bfbfbf" points="1354.5,-112.5 1354.5,-131.5 1397.5,-131.5 1397.5,-112.5 1354.5,-112.5"/>
<text text-anchor="middle" x="1376" y="-119.5" font-family="Helvetica,sans-Serif" font-size="10.00">string</text>
</g>
<!-- Node4&#45;&gt;Node6 -->
<g id="edge44" class="edge"><title>Node4&#45;&gt;Node6</title>
<path fill="none" stroke="midnightblue" d="M662.024,-228.499C747.377,-221.736 908.607,-207.623 1045,-188 1176.11,-169.138 1211.41,-163.646 1344.63,-131.898"/>
<polygon fill="midnightblue" stroke="midnightblue" points="1345.48,-135.294 1354.39,-129.567 1343.85,-128.485 1345.48,-135.294"/>
</g>
<!-- Node8 -->
<g id="node9" class="node"><title>Node8</title>
<polygon fill="white" stroke="#bfbfbf" points="196.5,-112.5 196.5,-131.5 243.5,-131.5 243.5,-112.5 196.5,-112.5"/>
<text text-anchor="middle" x="220" y="-119.5" font-family="Helvetica,sans-Serif" font-size="10.00">cstdint</text>
</g>
<!-- Node4&#45;&gt;Node8 -->
<g id="edge37" class="edge"><title>Node4&#45;&gt;Node8</title>
<path fill="none" stroke="midnightblue" d="M585.303,-224.408C567.775,-215.379 539.423,-200.743 515,-188 498.08,-179.171 495.105,-174.038 477,-168 384.336,-137.095 353.485,-152.269 253.604,-131.881"/>
<polygon fill="midnightblue" stroke="midnightblue" points="254.226,-128.435 243.718,-129.794 252.78,-135.284 254.226,-128.435"/>
</g>
<!-- Node16 -->
<g id="node17" class="node"><title>Node16</title>
<polygon fill="white" stroke="#bfbfbf" points="262,-112.5 262,-131.5 346,-131.5 346,-112.5 262,-112.5"/>
<text text-anchor="middle" x="304" y="-119.5" font-family="Helvetica,sans-Serif" font-size="10.00">libxml/parser.h</text>
</g>
<!-- Node4&#45;&gt;Node16 -->
<g id="edge30" class="edge"><title>Node4&#45;&gt;Node16</title>
<path fill="none" stroke="midnightblue" d="M602.198,-224.318C602.009,-210.212 599.419,-182.444 583,-168 546.519,-135.906 419.962,-139.901 356.075,-131.927"/>
<polygon fill="midnightblue" stroke="midnightblue" points="356.412,-128.44 346.014,-130.476 355.412,-135.368 356.412,-128.44"/>
</g>
<!-- Node18 -->
<g id="node19" class="node"><title>Node18</title>
<polygon fill="white" stroke="#bfbfbf" points="1290,-112.5 1290,-131.5 1336,-131.5 1336,-112.5 1290,-112.5"/>
<text text-anchor="middle" x="1313" y="-119.5" font-family="Helvetica,sans-Serif" font-size="10.00">vector</text>
</g>
<!-- Node4&#45;&gt;Node18 -->
<g id="edge34" class="edge"><title>Node4&#45;&gt;Node18</title>
<path fill="none" stroke="midnightblue" d="M662.003,-226.927C779.322,-214.436 1047.22,-182.876 1279.67,-132.094"/>
<polygon fill="midnightblue" stroke="midnightblue" points="1280.64,-135.463 1289.66,-129.894 1279.14,-128.626 1280.64,-135.463"/>
</g>
<!-- Node19 -->
<g id="node20" class="node"><title>Node19</title>
<polygon fill="white" stroke="#bfbfbf" points="137.5,-112.5 137.5,-131.5 178.5,-131.5 178.5,-112.5 137.5,-112.5"/>
<text text-anchor="middle" x="158" y="-119.5" font-family="Helvetica,sans-Serif" font-size="10.00">array</text>
</g>
<!-- Node4&#45;&gt;Node19 -->
<g id="edge45" class="edge"><title>Node4&#45;&gt;Node19</title>
<path fill="none" stroke="midnightblue" d="M551.778,-224.432C513.54,-217.072 459.997,-204.953 415,-188 397.14,-181.271 395.019,-174.29 377,-168 298.867,-140.724 272.365,-151.856 188.475,-132.107"/>
<polygon fill="midnightblue" stroke="midnightblue" points="189.058,-128.647 178.514,-129.683 187.402,-135.449 189.058,-128.647"/>
</g>
<!-- Node4&#45;&gt;Node21 -->
<g id="edge46" class="edge"><title>Node4&#45;&gt;Node21</title>
<path fill="none" stroke="midnightblue" d="M662.248,-229.979C759.818,-224.602 958.299,-211.65 1125,-188 1248.3,-170.507 1281.21,-162.687 1405.47,-132.24"/>
<polygon fill="midnightblue" stroke="midnightblue" points="1406.49,-135.594 1415.37,-129.814 1404.83,-128.795 1406.49,-135.594"/>
</g>
<!-- Node26 -->
<g id="node27" class="node"><title>Node26</title>
<polygon fill="white" stroke="#bfbfbf" points="182,-168.5 182,-187.5 236,-187.5 236,-168.5 182,-168.5"/>
<text text-anchor="middle" x="209" y="-175.5" font-family="Helvetica,sans-Serif" font-size="10.00">sstream</text>
</g>
<!-- Node4&#45;&gt;Node26 -->
<g id="edge32" class="edge"><title>Node4&#45;&gt;Node26</title>
<path fill="none" stroke="midnightblue" d="M541.968,-227.646C472.838,-220.985 355.728,-208.188 245.967,-187.981"/>
<polygon fill="midnightblue" stroke="midnightblue" points="246.523,-184.524 236.05,-186.131 245.239,-191.406 246.523,-184.524"/>
</g>
<!-- Node27 -->
<g id="node28" class="node"><title>Node27</title>
<polygon fill="white" stroke="#bfbfbf" points="254,-168.5 254,-187.5 306,-187.5 306,-168.5 254,-168.5"/>
<text text-anchor="middle" x="280" y="-175.5" font-family="Helvetica,sans-Serif" font-size="10.00">fstream</text>
</g>
<!-- Node4&#45;&gt;Node27 -->
<g id="edge33" class="edge"><title>Node4&#45;&gt;Node27</title>
<path fill="none" stroke="midnightblue" d="M541.781,-225.274C485.718,-217.694 399.657,-205.07 316.208,-188.092"/>
<polygon fill="midnightblue" stroke="midnightblue" points="316.81,-184.642 306.31,-186.055 315.399,-191.499 316.81,-184.642"/>
</g>
<!-- Node28 -->
<g id="node29" class="node"><title>Node28</title>
<polygon fill="white" stroke="#bfbfbf" points="324,-168.5 324,-187.5 368,-187.5 368,-168.5 324,-168.5"/>
<text text-anchor="middle" x="346" y="-175.5" font-family="Helvetica,sans-Serif" font-size="10.00">mutex</text>
</g>
<!-- Node4&#45;&gt;Node28 -->
<g id="edge35" class="edge"><title>Node4&#45;&gt;Node28</title>
<path fill="none" stroke="midnightblue" d="M557.215,-224.428C512.674,-215.765 442.447,-201.731 382,-188 380.728,-187.711 379.432,-187.411 378.123,-187.105"/>
<polygon fill="midnightblue" stroke="midnightblue" points="378.591,-183.617 368.049,-184.672 376.948,-190.422 378.591,-183.617"/>
</g>
<!-- Node29 -->
<g id="node30" class="node"><title>Node29</title>
<polygon fill="white" stroke="#bfbfbf" points="424,-168.5 424,-187.5 468,-187.5 468,-168.5 424,-168.5"/>
<text text-anchor="middle" x="446" y="-175.5" font-family="Helvetica,sans-Serif" font-size="10.00">cstdio</text>
</g>
<!-- Node4&#45;&gt;Node29 -->
<g id="edge39" class="edge"><title>Node4&#45;&gt;Node29</title>
<path fill="none" stroke="midnightblue" d="M577.281,-224.444C550.383,-215.133 507.291,-200.216 477.869,-190.032"/>
<polygon fill="midnightblue" stroke="midnightblue" points="478.676,-186.607 468.081,-186.643 476.386,-193.222 478.676,-186.607"/>
</g>
<!-- Node30 -->
<g id="node31" class="node"><title>Node30</title>
<polygon fill="white" stroke="#bfbfbf" points="524,-168.5 524,-187.5 574,-187.5 574,-168.5 524,-168.5"/>
<text text-anchor="middle" x="549" y="-175.5" font-family="Helvetica,sans-Serif" font-size="10.00">iterator</text>
</g>
<!-- Node4&#45;&gt;Node30 -->
<g id="edge40" class="edge"><title>Node4&#45;&gt;Node30</title>
<path fill="none" stroke="midnightblue" d="M593.248,-224.083C585.53,-216.22 574.095,-204.569 564.783,-195.081"/>
<polygon fill="midnightblue" stroke="midnightblue" points="567.092,-192.436 557.589,-187.751 562.096,-197.34 567.092,-192.436"/>
</g>
<!-- Node31 -->
<g id="node32" class="node"><title>Node31</title>
<polygon fill="white" stroke="#bfbfbf" points="630.5,-168.5 630.5,-187.5 691.5,-187.5 691.5,-168.5 630.5,-168.5"/>
<text text-anchor="middle" x="661" y="-175.5" font-family="Helvetica,sans-Serif" font-size="10.00">sys/stat.h</text>
</g>
<!-- Node4&#45;&gt;Node31 -->
<g id="edge41" class="edge"><title>Node4&#45;&gt;Node31</title>
<path fill="none" stroke="midnightblue" d="M611.479,-224.324C620.201,-216.341 633.343,-204.313 643.898,-194.653"/>
<polygon fill="midnightblue" stroke="midnightblue" points="646.334,-197.167 651.348,-187.834 641.608,-192.004 646.334,-197.167"/>
</g>
<!-- Node32 -->
<g id="node33" class="node"><title>Node32</title>
<polygon fill="white" stroke="#bfbfbf" points="710,-168.5 710,-187.5 764,-187.5 764,-168.5 710,-168.5"/>
<text text-anchor="middle" x="737" y="-175.5" font-family="Helvetica,sans-Serif" font-size="10.00">memory</text>
</g>
<!-- Node4&#45;&gt;Node32 -->
<g id="edge42" class="edge"><title>Node4&#45;&gt;Node32</title>
<path fill="none" stroke="midnightblue" d="M623.391,-224.444C645.707,-215.517 680.903,-201.439 706.208,-191.317"/>
<polygon fill="midnightblue" stroke="midnightblue" points="707.724,-194.48 715.709,-187.516 705.124,-187.981 707.724,-194.48"/>
</g>
<!-- Node33 -->
<g id="node34" class="node"><title>Node33</title>
<polygon fill="white" stroke="#bfbfbf" points="782,-168.5 782,-187.5 844,-187.5 844,-168.5 782,-168.5"/>
<text text-anchor="middle" x="813" y="-175.5" font-family="Helvetica,sans-Serif" font-size="10.00">stdexcept</text>
</g>
<!-- Node4&#45;&gt;Node33 -->
<g id="edge43" class="edge"><title>Node4&#45;&gt;Node33</title>
<path fill="none" stroke="midnightblue" d="M635.434,-224.444C672.42,-214.978 732.044,-199.719 771.865,-189.527"/>
<polygon fill="midnightblue" stroke="midnightblue" points="772.966,-192.858 781.786,-186.988 771.231,-186.077 772.966,-192.858"/>
</g>
<!-- Node5&#45;&gt;Node1 -->
<g id="edge22" class="edge"><title>Node5&#45;&gt;Node1</title>
<path fill="none" stroke="midnightblue" d="M862.072,-169.419C859.016,-168.874 855.958,-168.388 853,-168 536.398,-126.494 448.756,-179.315 129.632,-131.946"/>
<polygon fill="midnightblue" stroke="midnightblue" points="130.048,-128.469 119.638,-130.441 129.006,-135.391 130.048,-128.469"/>
</g>
<!-- Node5&#45;&gt;Node2 -->
<g id="edge21" class="edge"><title>Node5&#45;&gt;Node2</title>
<path fill="none" stroke="midnightblue" d="M927.637,-176.278C1014.32,-173.971 1257.56,-164.973 1468.39,-132.022"/>
<polygon fill="midnightblue" stroke="midnightblue" points="1469.08,-135.457 1478.41,-130.435 1467.98,-128.544 1469.08,-135.457"/>
</g>
<!-- Node5&#45;&gt;Node3 -->
<g id="edge14" class="edge"><title>Node5&#45;&gt;Node3</title>
<path fill="none" stroke="midnightblue" d="M862.074,-169.405C859.018,-168.863 855.958,-168.381 853,-168 505.023,-123.163 408.637,-185.744 57.9365,-131.757"/>
<polygon fill="midnightblue" stroke="midnightblue" points="58.4371,-128.293 48.0171,-130.21 57.3581,-135.209 58.4371,-128.293"/>
</g>
<!-- Node5&#45;&gt;Node6 -->
<g id="edge6" class="edge"><title>Node5&#45;&gt;Node6</title>
<path fill="none" stroke="midnightblue" d="M927.767,-175.776C1000.89,-172.608 1182.96,-162.3 1344.34,-131.75"/>
<polygon fill="midnightblue" stroke="midnightblue" points="1345.28,-135.132 1354.44,-129.805 1343.96,-128.258 1345.28,-135.132"/>
</g>
<!-- Node7 -->
<g id="node8" class="node"><title>Node7</title>
<polygon fill="white" stroke="#bfbfbf" points="1226,-112.5 1226,-131.5 1272,-131.5 1272,-112.5 1226,-112.5"/>
<text text-anchor="middle" x="1249" y="-119.5" font-family="Helvetica,sans-Serif" font-size="10.00">cstdlib</text>
</g>
<!-- Node5&#45;&gt;Node7 -->
<g id="edge7" class="edge"><title>Node5&#45;&gt;Node7</title>
<path fill="none" stroke="midnightblue" d="M927.583,-173.815C984.135,-167.99 1104.24,-154.308 1215.6,-131.821"/>
<polygon fill="midnightblue" stroke="midnightblue" points="1216.56,-135.197 1225.65,-129.761 1215.15,-128.339 1216.56,-135.197"/>
</g>
<!-- Node5&#45;&gt;Node8 -->
<g id="edge8" class="edge"><title>Node5&#45;&gt;Node8</title>
<path fill="none" stroke="midnightblue" d="M862.068,-169.451C859.013,-168.9 855.956,-168.403 853,-168 591.534,-132.35 518.381,-174.327 253.57,-131.701"/>
<polygon fill="midnightblue" stroke="midnightblue" points="254.097,-128.241 243.664,-130.082 252.968,-135.149 254.097,-128.241"/>
</g>
<!-- Node9 -->
<g id="node10" class="node"><title>Node9</title>
<polygon fill="white" stroke="#bfbfbf" points="364,-112.5 364,-131.5 420,-131.5 420,-112.5 364,-112.5"/>
<text text-anchor="middle" x="392" y="-119.5" font-family="Helvetica,sans-Serif" font-size="10.00">cstdbool</text>
</g>
<!-- Node5&#45;&gt;Node9 -->
<g id="edge9" class="edge"><title>Node5&#45;&gt;Node9</title>
<path fill="none" stroke="midnightblue" d="M862.057,-169.529C859.004,-168.961 855.95,-168.44 853,-168 669.139,-140.607 617.415,-161.692 430.086,-131.93"/>
<polygon fill="midnightblue" stroke="midnightblue" points="430.621,-128.471 420.19,-130.331 429.504,-135.381 430.621,-128.471"/>
</g>
<!-- Node10 -->
<g id="node11" class="node"><title>Node10</title>
<polygon fill="white" stroke="#bfbfbf" points="438.5,-112.5 438.5,-131.5 483.5,-131.5 483.5,-112.5 438.5,-112.5"/>
<text text-anchor="middle" x="461" y="-119.5" font-family="Helvetica,sans-Serif" font-size="10.00">climits</text>
</g>
<!-- Node5&#45;&gt;Node10 -->
<g id="edge10" class="edge"><title>Node5&#45;&gt;Node10</title>
<path fill="none" stroke="midnightblue" d="M862.05,-169.576C858.998,-168.999 855.947,-168.462 853,-168 697.397,-143.626 652.815,-161.13 493.753,-131.791"/>
<polygon fill="midnightblue" stroke="midnightblue" points="494.084,-128.292 483.61,-129.886 492.792,-135.172 494.084,-128.292"/>
</g>
<!-- Node11 -->
<g id="node12" class="node"><title>Node11</title>
<polygon fill="white" stroke="#bfbfbf" points="502,-112.5 502,-131.5 552,-131.5 552,-112.5 502,-112.5"/>
<text text-anchor="middle" x="527" y="-119.5" font-family="Helvetica,sans-Serif" font-size="10.00">clocale</text>
</g>
<!-- Node5&#45;&gt;Node11 -->
<g id="edge11" class="edge"><title>Node5&#45;&gt;Node11</title>
<path fill="none" stroke="midnightblue" d="M862.495,-169.738C859.294,-169.112 856.089,-168.52 853,-168 727.204,-146.81 691.138,-156.294 562.033,-131.96"/>
<polygon fill="midnightblue" stroke="midnightblue" points="562.643,-128.514 552.163,-130.069 561.326,-135.389 562.643,-128.514"/>
</g>
<!-- Node12 -->
<g id="node13" class="node"><title>Node12</title>
<polygon fill="white" stroke="#bfbfbf" points="570.5,-112.5 570.5,-131.5 617.5,-131.5 617.5,-112.5 570.5,-112.5"/>
<text text-anchor="middle" x="594" y="-119.5" font-family="Helvetica,sans-Serif" font-size="10.00">cerrno</text>
</g>
<!-- Node5&#45;&gt;Node12 -->
<g id="edge12" class="edge"><title>Node5&#45;&gt;Node12</title>
<path fill="none" stroke="midnightblue" d="M862.475,-169.85C859.278,-169.201 856.079,-168.574 853,-168 755.716,-149.876 727.529,-153.602 627.588,-132.151"/>
<polygon fill="midnightblue" stroke="midnightblue" points="628.204,-128.703 617.688,-129.995 626.714,-135.543 628.204,-128.703"/>
</g>
<!-- Node13 -->
<g id="node14" class="node"><title>Node13</title>
<polygon fill="white" stroke="#bfbfbf" points="635.5,-112.5 635.5,-131.5 680.5,-131.5 680.5,-112.5 635.5,-112.5"/>
<text text-anchor="middle" x="658" y="-119.5" font-family="Helvetica,sans-Serif" font-size="10.00">cmath</text>
</g>
<!-- Node5&#45;&gt;Node13 -->
<g id="edge13" class="edge"><title>Node5&#45;&gt;Node13</title>
<path fill="none" stroke="midnightblue" d="M862.218,-169.966C813.872,-159.576 726.003,-140.621 690.528,-132.191"/>
<polygon fill="midnightblue" stroke="midnightblue" points="691.185,-128.749 680.639,-129.764 689.516,-135.547 691.185,-128.749"/>
</g>
<!-- Node14 -->
<g id="node15" class="node"><title>Node14</title>
<polygon fill="white" stroke="#bfbfbf" points="698.5,-112.5 698.5,-131.5 745.5,-131.5 745.5,-112.5 698.5,-112.5"/>
<text text-anchor="middle" x="722" y="-119.5" font-family="Helvetica,sans-Serif" font-size="10.00">cctype</text>
</g>
<!-- Node5&#45;&gt;Node14 -->
<g id="edge15" class="edge"><title>Node5&#45;&gt;Node14</title>
<path fill="none" stroke="midnightblue" d="M867.588,-168.444C837.108,-158.93 787.88,-143.564 755.231,-133.373"/>
<polygon fill="midnightblue" stroke="midnightblue" points="756.259,-130.027 745.67,-130.388 754.173,-136.709 756.259,-130.027"/>
</g>
<!-- Node15 -->
<g id="node16" class="node"><title>Node15</title>
<polygon fill="white" stroke="#bfbfbf" points="763.5,-112.5 763.5,-131.5 870.5,-131.5 870.5,-112.5 763.5,-112.5"/>
<text text-anchor="middle" x="817" y="-119.5" font-family="Helvetica,sans-Serif" font-size="10.00">libxml/xmlmemory.h</text>
</g>
<!-- Node5&#45;&gt;Node15 -->
<g id="edge16" class="edge"><title>Node5&#45;&gt;Node15</title>
<path fill="none" stroke="midnightblue" d="M882.468,-168.324C870.414,-159.979 851.973,-147.212 837.731,-137.352"/>
<polygon fill="midnightblue" stroke="midnightblue" points="839.715,-134.469 829.501,-131.655 835.731,-140.224 839.715,-134.469"/>
</g>
<!-- Node5&#45;&gt;Node16 -->
<g id="edge17" class="edge"><title>Node5&#45;&gt;Node16</title>
<path fill="none" stroke="midnightblue" d="M862.063,-169.49C859.009,-168.93 855.953,-168.421 853,-168 636.529,-137.135 576.959,-158.667 356.204,-132.02"/>
<polygon fill="midnightblue" stroke="midnightblue" points="356.602,-128.543 346.25,-130.8 355.75,-135.491 356.602,-128.543"/>
</g>
<!-- Node17 -->
<g id="node18" class="node"><title>Node17</title>
<polygon fill="white" stroke="#bfbfbf" points="888.5,-112.5 888.5,-131.5 947.5,-131.5 947.5,-112.5 888.5,-112.5"/>
<text text-anchor="middle" x="918" y="-119.5" font-family="Helvetica,sans-Serif" font-size="10.00">cinttypes</text>
</g>
<!-- Node5&#45;&gt;Node17 -->
<g id="edge18" class="edge"><title>Node5&#45;&gt;Node17</title>
<path fill="none" stroke="midnightblue" d="M898.798,-168.083C901.913,-160.77 906.423,-150.181 910.289,-141.103"/>
<polygon fill="midnightblue" stroke="midnightblue" points="913.574,-142.323 914.273,-131.751 907.134,-139.58 913.574,-142.323"/>
</g>
<!-- Node5&#45;&gt;Node18 -->
<g id="edge19" class="edge"><title>Node5&#45;&gt;Node18</title>
<path fill="none" stroke="midnightblue" d="M927.657,-173.864C1004.66,-166.367 1196.76,-147.034 1279.66,-131.931"/>
<polygon fill="midnightblue" stroke="midnightblue" points="1280.52,-135.331 1289.68,-130.017 1279.21,-128.455 1280.52,-135.331"/>
</g>
<!-- Node5&#45;&gt;Node19 -->
<g id="edge20" class="edge"><title>Node5&#45;&gt;Node19</title>
<path fill="none" stroke="midnightblue" d="M862.071,-169.432C859.015,-168.885 855.957,-168.394 853,-168 562.468,-129.264 480.609,-183.095 188.782,-131.9"/>
<polygon fill="midnightblue" stroke="midnightblue" points="189.215,-128.422 178.756,-130.115 187.988,-135.314 189.215,-128.422"/>
</g>
<!-- Node20 -->
<g id="node21" class="node"><title>Node20</title>
<polygon fill="white" stroke="#bfbfbf" points="966,-112.5 966,-131.5 1026,-131.5 1026,-112.5 966,-112.5"/>
<text text-anchor="middle" x="996" y="-119.5" font-family="Helvetica,sans-Serif" font-size="10.00">algorithm</text>
</g>
<!-- Node5&#45;&gt;Node20 -->
<g id="edge23" class="edge"><title>Node5&#45;&gt;Node20</title>
<path fill="none" stroke="midnightblue" d="M911.227,-168.324C927.351,-159.703 952.3,-146.364 970.964,-136.386"/>
<polygon fill="midnightblue" stroke="midnightblue" points="972.644,-139.456 979.813,-131.655 969.344,-133.283 972.644,-139.456"/>
</g>
<!-- Node5&#45;&gt;Node21 -->
<g id="edge24" class="edge"><title>Node5&#45;&gt;Node21</title>
<path fill="none" stroke="midnightblue" d="M927.646,-176.331C1007.75,-174.224 1220.42,-165.807 1405.53,-131.945"/>
<polygon fill="midnightblue" stroke="midnightblue" points="1406.24,-135.371 1415.44,-130.102 1404.96,-128.489 1406.24,-135.371"/>
</g>
<!-- Node22 -->
<g id="node23" class="node"><title>Node22</title>
<g id="a_node23"><a xlink:href="expression__reg__elus_8h.html" target="_top" xlink:title="Expressions régulières représentant les élus. ">
<polygon fill="white" stroke="black" points="962.5,-56.5 962.5,-75.5 1085.5,-75.5 1085.5,-56.5 962.5,-56.5"/>
<text text-anchor="middle" x="1024" y="-63.5" font-family="Helvetica,sans-Serif" font-size="10.00">expression_reg_elus.h</text>
</a>
</g>
</g>
<!-- Node5&#45;&gt;Node22 -->
<g id="edge25" class="edge"><title>Node5&#45;&gt;Node22</title>
<path fill="none" stroke="midnightblue" d="M927.605,-176.793C960.739,-174.621 1010.56,-165.525 1035,-132 1044.87,-118.455 1039.85,-99.1346 1033.74,-85.0798"/>
<polygon fill="midnightblue" stroke="midnightblue" points="1036.82,-83.4009 1029.3,-75.9343 1030.52,-86.4586 1036.82,-83.4009"/>
</g>
<!-- Node24 -->
<g id="node25" class="node"><title>Node24</title>
<g id="a_node25"><a xlink:href="expression__reg__cata_8h.html" target="_top" xlink:title="Ce fichier contient les expressions rationnelles permettant d&#39;identifier les catégories statutaires A...">
<polygon fill="white" stroke="black" points="1082.5,-112.5 1082.5,-131.5 1207.5,-131.5 1207.5,-112.5 1082.5,-112.5"/>
<text text-anchor="middle" x="1145" y="-119.5" font-family="Helvetica,sans-Serif" font-size="10.00">expression_reg_cata.h</text>
</a>
</g>
</g>
<!-- Node5&#45;&gt;Node24 -->
<g id="edge27" class="edge"><title>Node5&#45;&gt;Node24</title>
<path fill="none" stroke="midnightblue" d="M927.683,-169.94C970.402,-160.713 1045.62,-144.465 1095.39,-133.715"/>
<polygon fill="midnightblue" stroke="midnightblue" points="1096.26,-137.109 1105.3,-131.576 1094.78,-130.266 1096.26,-137.109"/>
</g>
<!-- Node23 -->
<g id="node24" class="node"><title>Node23</title>
<g id="a_node24"><a xlink:href="expression__reg__commun_8h.html" target="_top" xlink:title="Elements constitutifs des expressions régulières. ">
<polygon fill="white" stroke="black" points="1027.5,-0.5 1027.5,-19.5 1170.5,-19.5 1170.5,-0.5 1027.5,-0.5"/>
<text text-anchor="middle" x="1099" y="-7.5" font-family="Helvetica,sans-Serif" font-size="10.00">expression_reg_commun.h</text>
</a>
</g>
</g>
<!-- Node22&#45;&gt;Node23 -->
<g id="edge26" class="edge"><title>Node22&#45;&gt;Node23</title>
<path fill="none" stroke="midnightblue" d="M1036.05,-56.324C1047.46,-48.1066 1064.83,-35.6017 1078.43,-25.8069"/>
<polygon fill="midnightblue" stroke="midnightblue" points="1080.66,-28.5174 1086.73,-19.8339 1076.57,-22.8366 1080.66,-28.5174"/>
</g>
<!-- Node25 -->
<g id="node26" class="node"><title>Node25</title>
<g id="a_node26"><a xlink:href="expression__reg__adjoints_8h.html" target="_top" xlink:title="Expressions régulières de niveau adjoints / auxiliaires / aides (catégories C) ">
<polygon fill="white" stroke="black" points="1103.5,-56.5 1103.5,-75.5 1244.5,-75.5 1244.5,-56.5 1103.5,-56.5"/>
<text text-anchor="middle" x="1174" y="-63.5" font-family="Helvetica,sans-Serif" font-size="10.00">expression_reg_adjoints.h</text>
</a>
</g>
</g>
<!-- Node24&#45;&gt;Node25 -->
<g id="edge28" class="edge"><title>Node24&#45;&gt;Node25</title>
<path fill="none" stroke="midnightblue" d="M1149.79,-112.083C1153.76,-104.691 1159.53,-93.9533 1164.43,-84.8111"/>
<polygon fill="midnightblue" stroke="midnightblue" points="1167.65,-86.217 1169.3,-75.7511 1161.49,-82.9051 1167.65,-86.217"/>
</g>
<!-- Node25&#45;&gt;Node23 -->
<g id="edge29" class="edge"><title>Node25&#45;&gt;Node23</title>
<path fill="none" stroke="midnightblue" d="M1161.95,-56.324C1150.54,-48.1066 1133.17,-35.6017 1119.57,-25.8069"/>
<polygon fill="midnightblue" stroke="midnightblue" points="1121.43,-22.8366 1111.27,-19.8339 1117.34,-28.5174 1121.43,-22.8366"/>
</g>
<!-- Node34&#45;&gt;Node2 -->
<g id="edge52" class="edge"><title>Node34&#45;&gt;Node2</title>
<path fill="none" stroke="midnightblue" d="M1286.6,-226.051C1312.65,-218.072 1355.58,-204.005 1391,-188 1424.84,-172.711 1461.94,-150.975 1484.86,-136.929"/>
<polygon fill="midnightblue" stroke="midnightblue" points="1486.81,-139.836 1493.47,-131.598 1483.13,-133.883 1486.81,-139.836"/>
</g>
<!-- Node34&#45;&gt;Node5 -->
<g id="edge48" class="edge"><title>Node34&#45;&gt;Node5</title>
<path fill="none" stroke="midnightblue" d="M1239.42,-229.54C1178.54,-220.607 1015.42,-196.671 937.534,-185.241"/>
<polygon fill="midnightblue" stroke="midnightblue" points="937.978,-181.769 927.576,-183.78 936.961,-188.695 937.978,-181.769"/>
</g>
<!-- Node34&#45;&gt;Node6 -->
<g id="edge51" class="edge"><title>Node34&#45;&gt;Node6</title>
<path fill="none" stroke="midnightblue" d="M1270.8,-224.361C1282.34,-211.69 1304.77,-187.46 1325,-168 1335.64,-157.767 1348.05,-146.799 1357.96,-138.252"/>
<polygon fill="midnightblue" stroke="midnightblue" points="1360.28,-140.872 1365.61,-131.713 1355.73,-135.552 1360.28,-140.872"/>
</g>
<!-- Node34&#45;&gt;Node18 -->
<g id="edge50" class="edge"><title>Node34&#45;&gt;Node18</title>
<path fill="none" stroke="midnightblue" d="M1265.66,-224.398C1269.67,-211.773 1277.8,-187.601 1287,-168 1291.41,-158.607 1297.1,-148.572 1302.04,-140.367"/>
<polygon fill="midnightblue" stroke="midnightblue" points="1305.1,-142.075 1307.36,-131.725 1299.14,-138.404 1305.1,-142.075"/>
</g>
<!-- Node34&#45;&gt;Node21 -->
<g id="edge49" class="edge"><title>Node34&#45;&gt;Node21</title>
<path fill="none" stroke="midnightblue" d="M1276.73,-224.368C1306.89,-205.412 1379.14,-160.001 1415.82,-136.942"/>
<polygon fill="midnightblue" stroke="midnightblue" points="1417.73,-139.876 1424.33,-131.591 1414,-133.95 1417.73,-139.876"/>
</g>
</g>
</svg>
        <g id="navigator" transform="translate(0 0)" fill="#404254">
                <rect fill="#f2f5e9" fill-opacity="0.5" stroke="#606060" stroke-width=".5" x="0" y="0" width="60" height="60"/>
                <use id="zoomplus" xlink:href="#zoomPlus" x="17" y="9" onmousedown="handleZoom(evt,'in')"/>
                <use id="zoomminus" xlink:href="#zoomMin" x="42" y="9" onmousedown="handleZoom(evt,'out')"/>
                <use id="reset" xlink:href="#resetDef" x="30" y="36" onmousedown="handleReset()"/>
                <g id="arrowUp" xlink:href="#dirArrow" transform="translate(30 24)" onmousedown="handlePan(0,-1)">
                  <use xlink:href="#rim" fill="#404040">
                        <set attributeName="fill" to="#808080" begin="arrowUp.mouseover" end="arrowUp.mouseout"/>
                  </use>
                  <path fill="none" stroke="white" stroke-width="1.5" d="M0,-3.0v7 M-2.5,-0.5L0,-3.0L2.5,-0.5"/>
                </g>
                <g id="arrowRight" xlink:href="#dirArrow" transform="rotate(90) translate(36 -43)" onmousedown="handlePan(1,0)">
                  <use xlink:href="#rim" fill="#404040">
                        <set attributeName="fill" to="#808080" begin="arrowRight.mouseover" end="arrowRight.mouseout"/>
                  </use>
                  <path fill="none" stroke="white" stroke-width="1.5" d="M0,-3.0v7 M-2.5,-0.5L0,-3.0L2.5,-0.5"/>
                </g>
                <g id="arrowDown" xlink:href="#dirArrow" transform="rotate(180) translate(-30 -48)" onmousedown="handlePan(0,1)">
                  <use xlink:href="#rim" fill="#404040">
                        <set attributeName="fill" to="#808080" begin="arrowDown.mouseover" end="arrowDown.mouseout"/>
                  </use>
                  <path fill="none" stroke="white" stroke-width="1.5" d="M0,-3.0v7 M-2.5,-0.5L0,-3.0L2.5,-0.5"/>
                </g>
                <g id="arrowLeft" xlink:href="#dirArrow" transform="rotate(270) translate(-36 17)" onmousedown="handlePan(-1,0)">
                  <use xlink:href="#rim" fill="#404040">
                        <set attributeName="fill" to="#808080" begin="arrowLeft.mouseover" end="arrowLeft.mouseout"/>
                  </use>
                  <path fill="none" stroke="white" stroke-width="1.5" d="M0,-3.0v7 M-2.5,-0.5L0,-3.0L2.5,-0.5"/>
                </g>
        </g>
        <svg viewBox="0 0 15 15" width="100%" height="30px" preserveAspectRatio="xMaxYMin meet">
         <g id="arrow_out" transform="scale(0.3 0.3)">
          <a xlink:href="ligne__paye_8h__incl_org.svg" target="_base">
           <rect id="button" ry="5" rx="5" y="6" x="6" height="38" width="38"
                fill="#f2f5e9" fill-opacity="0.5" stroke="#606060" stroke-width="1.0"/>
           <path id="arrow"
             d="M 11.500037,31.436501 C 11.940474,20.09759 22.043105,11.32322 32.158766,21.979434 L 37.068811,17.246167 C 37.068811,17.246167 37.088388,32 37.088388,32 L 22.160133,31.978069 C 22.160133,31.978069 26.997745,27.140456 26.997745,27.140456 C 18.528582,18.264221 13.291696,25.230495 11.500037,31.436501 z"
             style="fill:#404040;"/>
          </a>
         </g>
        </svg>
</svg>
