<?xml version="1.0" encoding="UTF-8" standalone="no"?>
<!DOCTYPE svg PUBLIC "-//W3C//DTD SVG 1.1//EN"
 "http://www.w3.org/Graphics/SVG/1.1/DTD/svg11.dtd">
<!-- Generated by graphviz version 2.38.0 (20140413.2041)
 -->
<!-- Title: bulletin_obligatoire Pages: 1 -->
<svg width="387pt" height="123pt"
 viewBox="0.00 0.00 387.00 123.00" xmlns="http://www.w3.org/2000/svg" xmlns:xlink="http://www.w3.org/1999/xlink">
<g id="graph0" class="graph" transform="scale(1 1) rotate(0) translate(4 119)">
<title>bulletin_obligatoire</title>
<polygon fill="white" stroke="none" points="-4,4 -4,-119 383,-119 383,4 -4,4"/>
<!-- Node21 -->
<g id="node1" class="node"><title>Node21</title>
<polygon fill="#bfbfbf" stroke="black" points="0,-38.5 0,-57.5 97,-57.5 97,-38.5 0,-38.5"/>
<text text-anchor="middle" x="48.5" y="-45.5" font-family="Helvetica,sans-Serif" font-size="10.00">bulletin_obligatoire</text>
</g>
<!-- Node22 -->
<g id="node2" class="node"><title>Node22</title>
<g id="a_node2"><a xlink:href="ligne__paye_8cpp.html#a8720dbeccf4eabbc5ffa9d7be551a7a5" target="_top" xlink:title="Atteint le prochain noeud de libellé donné, après un saut éventuel, et le lit. ">
<polygon fill="white" stroke="black" points="145.5,-76.5 145.5,-95.5 194.5,-95.5 194.5,-76.5 145.5,-76.5"/>
<text text-anchor="middle" x="170" y="-83.5" font-family="Helvetica,sans-Serif" font-size="10.00">Bulletin</text>
</a>
</g>
</g>
<!-- Node21&#45;&gt;Node22 -->
<g id="edge1" class="edge"><title>Node21&#45;&gt;Node22</title>
<path fill="none" stroke="midnightblue" d="M79.6549,-57.589C96.6477,-62.9926 117.913,-69.7548 135.434,-75.3263"/>
<polygon fill="midnightblue" stroke="midnightblue" points="134.666,-78.7548 145.257,-78.4498 136.788,-72.0839 134.666,-78.7548"/>
</g>
<!-- Node25 -->
<g id="node5" class="node"><title>Node25</title>
<g id="a_node5"><a xlink:href="fonctions__auxiliaires_8cpp.html#a595f0eff37a7e74c477ad08221736a0d" target="_top" xlink:title="Fonction d&#39;affichage de des lignes du fichier XML de paye entourant celle où se pose un problème de c...">
<polygon fill="white" stroke="black" points="243,-10.5 243,-29.5 379,-29.5 379,-10.5 243,-10.5"/>
<text text-anchor="middle" x="311" y="-17.5" font-family="Helvetica,sans-Serif" font-size="10.00">afficher_environnement_xhl</text>
</a>
</g>
</g>
<!-- Node21&#45;&gt;Node25 -->
<g id="edge4" class="edge"><title>Node21&#45;&gt;Node25</title>
<path fill="none" stroke="midnightblue" d="M97.2797,-42.8644C135.162,-38.7925 188.856,-33.0212 232.82,-28.2958"/>
<polygon fill="midnightblue" stroke="midnightblue" points="233.336,-31.7606 242.904,-27.2118 232.587,-24.8007 233.336,-31.7606"/>
</g>
<!-- Node26 -->
<g id="node6" class="node"><title>Node26</title>
<g id="a_node6"><a xlink:href="ligne__paye_8h.html#a703180379a24b61c33f035b1b8a8f437" target="_top" xlink:title="Affiche un message d&#39;avertissement sur la sortie d&#39;erreur lorsqu&#39;un noeud XML ne peut être atteint...">
<polygon fill="white" stroke="black" points="133,-0.5 133,-19.5 207,-19.5 207,-0.5 133,-0.5"/>
<text text-anchor="middle" x="170" y="-7.5" font-family="Helvetica,sans-Serif" font-size="10.00">warning_msg</text>
</a>
</g>
</g>
<!-- Node21&#45;&gt;Node26 -->
<g id="edge5" class="edge"><title>Node21&#45;&gt;Node26</title>
<path fill="none" stroke="midnightblue" d="M79.6549,-38.411C94.6566,-33.6406 112.988,-27.8112 129.134,-22.6771"/>
<polygon fill="midnightblue" stroke="midnightblue" points="130.386,-25.9518 138.855,-19.5859 128.264,-19.281 130.386,-25.9518"/>
</g>
<!-- Node23 -->
<g id="node3" class="node"><title>Node23</title>
<g id="a_node3"><a xlink:href="validator_8h.html#ad164d34b6591a52b6e92b087582fe0cb" target="_top" xlink:title="Permet d&#39;atteindre un noeud donné par son libellé de balise XML à partir d&#39;un pointeur XmlNodePtr de ...">
<polygon fill="white" stroke="black" points="269.5,-95.5 269.5,-114.5 352.5,-114.5 352.5,-95.5 269.5,-95.5"/>
<text text-anchor="middle" x="311" y="-102.5" font-family="Helvetica,sans-Serif" font-size="10.00">atteindreNoeud</text>
</a>
</g>
</g>
<!-- Node22&#45;&gt;Node23 -->
<g id="edge2" class="edge"><title>Node22&#45;&gt;Node23</title>
<path fill="none" stroke="midnightblue" d="M194.579,-89.2231C212.312,-91.647 237.263,-95.0576 259.433,-98.0879"/>
<polygon fill="midnightblue" stroke="midnightblue" points="259.005,-101.562 269.387,-99.4485 259.953,-94.6264 259.005,-101.562"/>
</g>
<!-- Node24 -->
<g id="node4" class="node"><title>Node24</title>
<g id="a_node4"><a xlink:href="ligne__paye_8cpp.html#a6044ec3fae81f42425539be4d999edd4" target="_top" xlink:title="Remplace les occurrences d&#39;un caractère à l&#39;intérieur d&#39;une chaîne xmlChar* par le &#160;caractère &#39;_&#39;...">
<polygon fill="white" stroke="black" points="286,-57.5 286,-76.5 336,-76.5 336,-57.5 286,-57.5"/>
<text text-anchor="middle" x="311" y="-64.5" font-family="Helvetica,sans-Serif" font-size="10.00">sanitize</text>
</a>
</g>
</g>
<!-- Node22&#45;&gt;Node24 -->
<g id="edge3" class="edge"><title>Node22&#45;&gt;Node24</title>
<path fill="none" stroke="midnightblue" d="M194.579,-82.7769C216.809,-79.7383 250.384,-75.149 275.6,-71.7022"/>
<polygon fill="midnightblue" stroke="midnightblue" points="276.404,-75.1249 285.838,-70.3028 275.456,-68.1894 276.404,-75.1249"/>
</g>
<!-- Node26&#45;&gt;Node25 -->
<g id="edge6" class="edge"><title>Node26&#45;&gt;Node25</title>
<path fill="none" stroke="midnightblue" d="M207.158,-12.6013C215.106,-13.1731 223.817,-13.7998 232.7,-14.4389"/>
<polygon fill="midnightblue" stroke="midnightblue" points="232.546,-17.9367 242.771,-15.1634 233.048,-10.9548 232.546,-17.9367"/>
</g>
</g>
</svg>
