<?xml version="1.0" encoding="UTF-8" standalone="no"?>
<!DOCTYPE svg PUBLIC "-//W3C//DTD SVG 1.1//EN"
 "http://www.w3.org/Graphics/SVG/1.1/DTD/svg11.dtd">
<!-- Generated by graphviz version 2.38.0 (20140413.2041)
 -->
<!-- Title: Bulletin Pages: 1 -->
<svg width="176pt" height="66pt"
 viewBox="0.00 0.00 176.00 66.00" xmlns="http://www.w3.org/2000/svg" xmlns:xlink="http://www.w3.org/1999/xlink">
<g id="graph0" class="graph" transform="scale(1 1) rotate(0) translate(4 62)">
<title>Bulletin</title>
<polygon fill="white" stroke="none" points="-4,4 -4,-62 172,-62 172,4 -4,4"/>
<!-- Node7 -->
<g id="node1" class="node"><title>Node7</title>
<polygon fill="#bfbfbf" stroke="black" points="0,-19.5 0,-38.5 49,-38.5 49,-19.5 0,-19.5"/>
<text text-anchor="middle" x="24.5" y="-26.5" font-family="Helvetica,sans-Serif" font-size="10.00">Bulletin</text>
</g>
<!-- Node8 -->
<g id="node2" class="node"><title>Node8</title>
<g id="a_node2"><a xlink:href="validator_8h.html#a5e23405e20d220ba90a7b2213f7a70fb" target="_top" xlink:title="Permet d&#39;atteindre un noeud donné par son libellé de balise XML à partir d&#39;un pointeur XmlNodePtr de ...">
<polygon fill="white" stroke="black" points="85,-38.5 85,-57.5 168,-57.5 168,-38.5 85,-38.5"/>
<text text-anchor="middle" x="126.5" y="-45.5" font-family="Helvetica,sans-Serif" font-size="10.00">atteindreNoeud</text>
</a>
</g>
</g>
<!-- Node7&#45;&gt;Node8 -->
<g id="edge1" class="edge"><title>Node7&#45;&gt;Node8</title>
<path fill="none" stroke="midnightblue" d="M49.1986,-33.5027C56.9199,-34.9698 65.8111,-36.6591 74.7348,-38.3546"/>
<polygon fill="midnightblue" stroke="midnightblue" points="74.2855,-41.8318 84.7631,-40.26 75.5922,-34.9548 74.2855,-41.8318"/>
</g>
<!-- Node9 -->
<g id="node3" class="node"><title>Node9</title>
<g id="a_node3"><a xlink:href="ligne__paye_8cpp.html#a6044ec3fae81f42425539be4d999edd4" target="_top" xlink:title="Remplace les occurrences d&#39;un caractère à l&#39;intérieur d&#39;une chaîne xmlChar* par le &#160;caractère &#39;_&#39;...">
<polygon fill="white" stroke="black" points="101.5,-0.5 101.5,-19.5 151.5,-19.5 151.5,-0.5 101.5,-0.5"/>
<text text-anchor="middle" x="126.5" y="-7.5" font-family="Helvetica,sans-Serif" font-size="10.00">sanitize</text>
</a>
</g>
</g>
<!-- Node7&#45;&gt;Node9 -->
<g id="edge2" class="edge"><title>Node7&#45;&gt;Node9</title>
<path fill="none" stroke="midnightblue" d="M49.1986,-24.4973C61.7173,-22.1187 77.3112,-19.1559 91.133,-16.5297"/>
<polygon fill="midnightblue" stroke="midnightblue" points="92.1059,-19.9076 101.277,-14.6024 90.7993,-13.0306 92.1059,-19.9076"/>
</g>
</g>
</svg>
