<?xml version="1.0" encoding="UTF-8" standalone="no"?>
<!DOCTYPE svg PUBLIC "-//W3C//DTD SVG 1.1//EN"
 "http://www.w3.org/Graphics/SVG/1.1/DTD/svg11.dtd">
<!-- Generated by graphviz version 2.38.0 (20140413.2041)
 -->
<!-- Title: Interface/gui/matricules.cpp Pages: 1 -->
<svg width="328pt" height="196pt"
 viewBox="0.00 0.00 327.50 196.00" xmlns="http://www.w3.org/2000/svg" xmlns:xlink="http://www.w3.org/1999/xlink">
<g id="graph0" class="graph" transform="scale(1 1) rotate(0) translate(4 192)">
<title>Interface/gui/matricules.cpp</title>
<polygon fill="white" stroke="none" points="-4,4 -4,-192 323.5,-192 323.5,4 -4,4"/>
<!-- Node0 -->
<g id="node1" class="node"><title>Node0</title>
<polygon fill="#bfbfbf" stroke="black" points="85,-168.5 85,-187.5 222,-187.5 222,-168.5 85,-168.5"/>
<text text-anchor="middle" x="153.5" y="-175.5" font-family="Helvetica,sans-Serif" font-size="10.00">Interface/gui/matricules.cpp</text>
</g>
<!-- Node1 -->
<g id="node2" class="node"><title>Node1</title>
<g id="a_node2"><a xlink:href="matricules_8h.html" target="_top" xlink:title="Code de la classe MatriculeInput, qui construit un dialogue d&#39;extraction des bulletins. ">
<polygon fill="white" stroke="black" points="118.5,-112.5 118.5,-131.5 188.5,-131.5 188.5,-112.5 118.5,-112.5"/>
<text text-anchor="middle" x="153.5" y="-119.5" font-family="Helvetica,sans-Serif" font-size="10.00">matricules.h</text>
</a>
</g>
</g>
<!-- Node0&#45;&gt;Node1 -->
<g id="edge1" class="edge"><title>Node0&#45;&gt;Node1</title>
<path fill="none" stroke="midnightblue" d="M153.5,-168.083C153.5,-161.006 153.5,-150.861 153.5,-141.986"/>
<polygon fill="midnightblue" stroke="midnightblue" points="157,-141.751 153.5,-131.751 150,-141.751 157,-141.751"/>
</g>
<!-- Node2 -->
<g id="node3" class="node"><title>Node2</title>
<polygon fill="white" stroke="#bfbfbf" points="11.5,-56.5 11.5,-75.5 63.5,-75.5 63.5,-56.5 11.5,-56.5"/>
<text text-anchor="middle" x="37.5" y="-63.5" font-family="Helvetica,sans-Serif" font-size="10.00">QDialog</text>
</g>
<!-- Node1&#45;&gt;Node2 -->
<g id="edge2" class="edge"><title>Node1&#45;&gt;Node2</title>
<path fill="none" stroke="midnightblue" d="M135.119,-112.444C116.284,-103.675 86.7688,-89.9355 65.1207,-79.8579"/>
<polygon fill="midnightblue" stroke="midnightblue" points="66.3375,-76.5637 55.7946,-75.5164 63.3833,-82.9098 66.3375,-76.5637"/>
</g>
<!-- Node3 -->
<g id="node4" class="node"><title>Node3</title>
<g id="a_node4"><a xlink:href="common_8h.html" target="_top" xlink:title="Code de la classe common, qui regroupe des utilitaires communs à l&#39;interface graphique MainWindow...">
<polygon fill="white" stroke="black" points="81.5,-56.5 81.5,-75.5 143.5,-75.5 143.5,-56.5 81.5,-56.5"/>
<text text-anchor="middle" x="112.5" y="-63.5" font-family="Helvetica,sans-Serif" font-size="10.00">common.h</text>
</a>
</g>
</g>
<!-- Node1&#45;&gt;Node3 -->
<g id="edge3" class="edge"><title>Node1&#45;&gt;Node3</title>
<path fill="none" stroke="midnightblue" d="M146.73,-112.083C140.938,-104.455 132.442,-93.2645 125.362,-83.9408"/>
<polygon fill="midnightblue" stroke="midnightblue" points="127.979,-81.5991 119.144,-75.7511 122.404,-85.8321 127.979,-81.5991"/>
</g>
<!-- Node7 -->
<g id="node8" class="node"><title>Node7</title>
<polygon fill="white" stroke="#bfbfbf" points="161.5,-56.5 161.5,-75.5 229.5,-75.5 229.5,-56.5 161.5,-56.5"/>
<text text-anchor="middle" x="195.5" y="-63.5" font-family="Helvetica,sans-Serif" font-size="10.00">flineframe.h</text>
</g>
<!-- Node1&#45;&gt;Node7 -->
<g id="edge7" class="edge"><title>Node1&#45;&gt;Node7</title>
<path fill="none" stroke="midnightblue" d="M160.435,-112.083C166.429,-104.377 175.252,-93.0333 182.548,-83.6531"/>
<polygon fill="midnightblue" stroke="midnightblue" points="185.317,-85.7934 188.694,-75.7511 179.791,-81.4958 185.317,-85.7934"/>
</g>
<!-- Node8 -->
<g id="node9" class="node"><title>Node8</title>
<g id="a_node9"><a xlink:href="gui__enums_8h.html" target="_top" xlink:title="Code de constantes et de classes regroupant des constantes. ">
<polygon fill="white" stroke="black" points="247.5,-56.5 247.5,-75.5 319.5,-75.5 319.5,-56.5 247.5,-56.5"/>
<text text-anchor="middle" x="283.5" y="-63.5" font-family="Helvetica,sans-Serif" font-size="10.00">gui_enums.h</text>
</a>
</g>
</g>
<!-- Node1&#45;&gt;Node8 -->
<g id="edge8" class="edge"><title>Node1&#45;&gt;Node8</title>
<path fill="none" stroke="midnightblue" d="M174.099,-112.444C195.493,-103.557 229.181,-89.5632 253.524,-79.4514"/>
<polygon fill="midnightblue" stroke="midnightblue" points="255.105,-82.5848 262.997,-75.5164 252.42,-76.1203 255.105,-82.5848"/>
</g>
<!-- Node4 -->
<g id="node5" class="node"><title>Node4</title>
<polygon fill="white" stroke="#bfbfbf" points="0,-0.5 0,-19.5 63,-19.5 63,-0.5 0,-0.5"/>
<text text-anchor="middle" x="31.5" y="-7.5" font-family="Helvetica,sans-Serif" font-size="10.00">QtWidgets</text>
</g>
<!-- Node3&#45;&gt;Node4 -->
<g id="edge4" class="edge"><title>Node3&#45;&gt;Node4</title>
<path fill="none" stroke="midnightblue" d="M99.4859,-56.324C86.9684,-47.979 67.8183,-35.2122 53.0286,-25.3524"/>
<polygon fill="midnightblue" stroke="midnightblue" points="54.7437,-22.2894 44.4818,-19.6545 50.8608,-28.1137 54.7437,-22.2894"/>
</g>
<!-- Node5 -->
<g id="node6" class="node"><title>Node5</title>
<polygon fill="white" stroke="#bfbfbf" points="81.5,-0.5 81.5,-19.5 143.5,-19.5 143.5,-0.5 81.5,-0.5"/>
<text text-anchor="middle" x="112.5" y="-7.5" font-family="Helvetica,sans-Serif" font-size="10.00">fwidgets.h</text>
</g>
<!-- Node3&#45;&gt;Node5 -->
<g id="edge5" class="edge"><title>Node3&#45;&gt;Node5</title>
<path fill="none" stroke="midnightblue" d="M112.5,-56.083C112.5,-49.0059 112.5,-38.8611 112.5,-29.9865"/>
<polygon fill="midnightblue" stroke="midnightblue" points="116,-29.751 112.5,-19.7511 109,-29.7511 116,-29.751"/>
</g>
<!-- Node6 -->
<g id="node7" class="node"><title>Node6</title>
<polygon fill="white" stroke="#bfbfbf" points="161.5,-0.5 161.5,-19.5 207.5,-19.5 207.5,-0.5 161.5,-0.5"/>
<text text-anchor="middle" x="184.5" y="-7.5" font-family="Helvetica,sans-Serif" font-size="10.00">tools.h</text>
</g>
<!-- Node3&#45;&gt;Node6 -->
<g id="edge6" class="edge"><title>Node3&#45;&gt;Node6</title>
<path fill="none" stroke="midnightblue" d="M124.068,-56.324C134.92,-48.1849 151.381,-35.8395 164.383,-26.0874"/>
<polygon fill="midnightblue" stroke="midnightblue" points="166.821,-28.6339 172.721,-19.8339 162.621,-23.0339 166.821,-28.6339"/>
</g>
<!-- Node9 -->
<g id="node10" class="node"><title>Node9</title>
<polygon fill="white" stroke="#bfbfbf" points="260.5,-0.5 260.5,-19.5 306.5,-19.5 306.5,-0.5 260.5,-0.5"/>
<text text-anchor="middle" x="283.5" y="-7.5" font-family="Helvetica,sans-Serif" font-size="10.00">cstdint</text>
</g>
<!-- Node8&#45;&gt;Node9 -->
<g id="edge9" class="edge"><title>Node8&#45;&gt;Node9</title>
<path fill="none" stroke="midnightblue" d="M283.5,-56.083C283.5,-49.0059 283.5,-38.8611 283.5,-29.9865"/>
<polygon fill="midnightblue" stroke="midnightblue" points="287,-29.751 283.5,-19.7511 280,-29.7511 287,-29.751"/>
</g>
</g>
</svg>
