<?xml version="1.0" encoding="UTF-8" standalone="no"?>
<!DOCTYPE svg PUBLIC "-//W3C//DTD SVG 1.1//EN"
 "http://www.w3.org/Graphics/SVG/1.1/DTD/svg11.dtd">
<!-- Generated by graphviz version 2.38.0 (20140413.2041)
 -->
<!-- Title: XmlMethod::displaySecondLevelData Pages: 1 -->
<!--zoomable 480 -->
<svg id="main" version="1.1" xmlns="http://www.w3.org/2000/svg" xmlns:xlink="http://www.w3.org/1999/xlink" xml:space="preserve" onload="init(evt)">
<style type="text/css"><![CDATA[
.edge:hover path { stroke: red; }
.edge:hover polygon { stroke: red; fill: red; }
]]></style>
<script type="text/javascript"><![CDATA[
var edges = document.getElementsByTagName('g');
if (edges && edges.length) {
  for (var i=0;i<edges.length;i++) {
    if (edges[i].id.substr(0,4)=='edge') {
      edges[i].setAttribute('class','edge');
    }
  }
}
]]></script>
        <defs>
                <circle id="rim" cx="0" cy="0" r="7"/>
                <circle id="rim2" cx="0" cy="0" r="3.5"/>
                <g id="zoomPlus">
                        <use xlink:href="#rim" fill="#404040">
                                <set attributeName="fill" to="#808080" begin="zoomplus.mouseover" end="zoomplus.mouseout"/>
                        </use>
                        <path d="M-4,0h8M0,-4v8" fill="none" stroke="white" stroke-width="1.5" pointer-events="none"/>
                </g>
                <g id="zoomMin">
                        <use xlink:href="#rim" fill="#404040">
                                <set attributeName="fill" to="#808080" begin="zoomminus.mouseover" end="zoomminus.mouseout"/>
                        </use>
                        <path d="M-4,0h8" fill="none" stroke="white" stroke-width="1.5" pointer-events="none"/>
                </g>
                <g id="dirArrow">
                        <path fill="none" stroke="white" stroke-width="1.5" d="M0,-3.0v7 M-2.5,-0.5L0,-3.0L2.5,-0.5"/>
                </g>
               <g id="resetDef">
                       <use xlink:href="#rim2" fill="#404040">
                               <set attributeName="fill" to="#808080" begin="reset.mouseover" end="reset.mouseout"/>
                       </use>
               </g>
        </defs>

<script type="text/javascript">
var viewWidth = 1355;
var viewHeight = 480;
var sectionId = 'dynsection-3';
</script>
<script xlink:href="svgpan.js"/>
<svg id="graph" class="graph">
<g id="viewport">
<title>XmlMethod::displaySecondLevelData</title>
<polygon fill="white" stroke="none" points="-4,4 -4,-475.5 1351,-475.5 1351,4 -4,4"/>
<!-- Node27 -->
<g id="node1" class="node"><title>Node27</title>
<polygon fill="#bfbfbf" stroke="black" points="0,-314 0,-344 136,-344 136,-314 0,-314"/>
<text text-anchor="start" x="8" y="-332" font-family="Helvetica,sans-Serif" font-size="10.00">XmlMethod::displaySecond</text>
<text text-anchor="middle" x="68" y="-321" font-family="Helvetica,sans-Serif" font-size="10.00">LevelData</text>
</g>
<!-- Node28 -->
<g id="node2" class="node"><title>Node28</title>
<g id="a_node2"><a xlink:href="class_altair.html#abf7d1895e52f7b8d7d26e4b5a0e6146a" target="_top" xlink:title="Rafraîchit le gestionnaire de projet à la droite de l&#39;interface. ">
<polygon fill="white" stroke="black" points="172,-314 172,-344 315,-344 315,-314 172,-314"/>
<text text-anchor="start" x="180" y="-332" font-family="Helvetica,sans-Serif" font-size="10.00">Altair::refreshProjectManager</text>
<text text-anchor="middle" x="243.5" y="-321" font-family="Helvetica,sans-Serif" font-size="10.00">Values</text>
</a>
</g>
</g>
<!-- Node27&#45;&gt;Node28 -->
<g id="edge1" class="edge"><title>Node27&#45;&gt;Node28</title>
<path fill="none" stroke="midnightblue" d="M146.356,-329C154.848,-329 163.461,-329 171.865,-329"/>
<polygon fill="midnightblue" stroke="midnightblue" points="146.08,-325.5 136.08,-329 146.08,-332.5 146.08,-325.5"/>
</g>
<!-- Node29 -->
<g id="node3" class="node"><title>Node29</title>
<g id="a_node3"><a xlink:href="class_altair.html#a5b3c33b6ae4f6b57b5593245751ef203" target="_top" xlink:title="Efface toutes les données du projet .alt et réinitialise l&#39;interface et les conteneurs de données int...">
<polygon fill="white" stroke="black" points="351,-357.5 351,-376.5 469,-376.5 469,-357.5 351,-357.5"/>
<text text-anchor="middle" x="410" y="-364.5" font-family="Helvetica,sans-Serif" font-size="10.00">Altair::clearProjectData</text>
</a>
</g>
</g>
<!-- Node28&#45;&gt;Node29 -->
<g id="edge2" class="edge"><title>Node28&#45;&gt;Node29</title>
<path fill="none" stroke="midnightblue" d="M319.706,-346.373C336.192,-350.181 353.058,-354.077 367.629,-357.443"/>
<polygon fill="midnightblue" stroke="midnightblue" points="320.046,-342.859 309.515,-344.019 318.47,-349.68 320.046,-342.859"/>
</g>
<!-- Node37 -->
<g id="node11" class="node"><title>Node37</title>
<g id="a_node11"><a xlink:href="class_altair.html#a41b6c8a35ed8ba14c7c0ce2e6994655f" target="_top" xlink:title="Décode le projet représenté par un pointeur vers QFile ou similaire. ">
<polygon fill="white" stroke="black" points="352,-319.5 352,-338.5 468,-338.5 468,-319.5 352,-319.5"/>
<text text-anchor="middle" x="410" y="-326.5" font-family="Helvetica,sans-Serif" font-size="10.00">Altair::parseProjectFile</text>
</a>
</g>
</g>
<!-- Node28&#45;&gt;Node37 -->
<g id="edge10" class="edge"><title>Node28&#45;&gt;Node37</title>
<path fill="none" stroke="midnightblue" d="M325.345,-329C334.344,-329 343.365,-329 351.978,-329"/>
<polygon fill="midnightblue" stroke="midnightblue" points="325.218,-325.5 315.217,-329 325.217,-332.5 325.218,-325.5"/>
</g>
<!-- Node38 -->
<g id="node12" class="node"><title>Node38</title>
<g id="a_node12"><a xlink:href="class_altair.html#ac9d7d8e7cebf70212818f1a8ba7d7d78" target="_top" xlink:title="Rafraîchit le gestionnaire de projet à la droite de l&#39;interface. Fonction globale par défaut...">
<polygon fill="white" stroke="black" points="505,-289.5 505,-308.5 648,-308.5 648,-289.5 505,-289.5"/>
<text text-anchor="middle" x="576.5" y="-296.5" font-family="Helvetica,sans-Serif" font-size="10.00">Altair::refreshProjectManager</text>
</a>
</g>
</g>
<!-- Node28&#45;&gt;Node38 -->
<g id="edge31" class="edge"><title>Node28&#45;&gt;Node38</title>
<path fill="none" stroke="midnightblue" d="M325.215,-313.486C333.896,-312.15 342.617,-310.949 351,-310 402.279,-304.193 460.491,-301.451 504.787,-300.156"/>
<polygon fill="midnightblue" stroke="midnightblue" points="324.387,-310.074 315.064,-315.108 325.491,-316.986 324.387,-310.074"/>
</g>
<!-- Node30 -->
<g id="node4" class="node"><title>Node30</title>
<g id="a_node4"><a xlink:href="class_altair.html#ab67e3285c4a6c8fb48d12381ea6ac6bd" target="_top" xlink:title="Ferme le projet et réinitialise l&#39;interface (gestionnaire de projet inclus) ">
<polygon fill="white" stroke="black" points="880.5,-357.5 880.5,-376.5 979.5,-376.5 979.5,-357.5 880.5,-357.5"/>
<text text-anchor="middle" x="930" y="-364.5" font-family="Helvetica,sans-Serif" font-size="10.00">Altair::closeProject</text>
</a>
</g>
</g>
<!-- Node29&#45;&gt;Node30 -->
<g id="edge3" class="edge"><title>Node29&#45;&gt;Node30</title>
<path fill="none" stroke="midnightblue" d="M479.45,-367C585.679,-367 787.631,-367 880.306,-367"/>
<polygon fill="midnightblue" stroke="midnightblue" points="479.164,-363.5 469.164,-367 479.164,-370.5 479.164,-363.5"/>
</g>
<!-- Node31 -->
<g id="node5" class="node"><title>Node31</title>
<g id="a_node5"><a xlink:href="class_altair.html#ae0975ced0a36e0ed889ae06043a4df66" target="_top" xlink:title="Constructeur. ">
<polygon fill="white" stroke="black" points="1090.5,-201.5 1090.5,-220.5 1158.5,-220.5 1158.5,-201.5 1090.5,-201.5"/>
<text text-anchor="middle" x="1124.5" y="-208.5" font-family="Helvetica,sans-Serif" font-size="10.00">Altair::Altair</text>
</a>
</g>
</g>
<!-- Node30&#45;&gt;Node31 -->
<g id="edge4" class="edge"><title>Node30&#45;&gt;Node31</title>
<path fill="none" stroke="midnightblue" d="M989.568,-359.812C999.831,-356.521 1009.83,-351.789 1018,-345 1047.37,-320.607 1030.52,-297.104 1054,-267 1069.15,-247.574 1092.29,-230.676 1107.65,-220.66"/>
<polygon fill="midnightblue" stroke="midnightblue" points="988.399,-356.504 979.695,-362.545 990.266,-363.25 988.399,-356.504"/>
</g>
<!-- Node32 -->
<g id="node6" class="node"><title>Node32</title>
<g id="a_node6"><a xlink:href="class_altair.html#a1afa285a65e0bdff4c761ad05ec9f8df" target="_top" xlink:title="Fonction réimplémentée : fin du déplacement de la souris. ">
<polygon fill="white" stroke="black" points="1080,-276.5 1080,-295.5 1169,-295.5 1169,-276.5 1080,-276.5"/>
<text text-anchor="middle" x="1124.5" y="-283.5" font-family="Helvetica,sans-Serif" font-size="10.00">Altair::dropEvent</text>
</a>
</g>
</g>
<!-- Node30&#45;&gt;Node32 -->
<g id="edge5" class="edge"><title>Node30&#45;&gt;Node32</title>
<path fill="none" stroke="midnightblue" d="M989.427,-357.306C999.376,-354.255 1009.3,-350.251 1018,-345 1038.48,-332.645 1033.64,-317.551 1054,-305 1061.77,-300.208 1070.76,-296.604 1079.65,-293.901"/>
<polygon fill="midnightblue" stroke="midnightblue" points="988.216,-354.009 979.512,-360.05 990.083,-360.756 988.216,-354.009"/>
</g>
<!-- Node33 -->
<g id="node7" class="node"><title>Node33</title>
<g id="a_node7"><a xlink:href="class_altair.html#a2f6882c170016e2d7729058b08896a1d" target="_top" xlink:title="Tuer l&#39;application en ligne de commande lhx. ">
<polygon fill="white" stroke="black" points="1078,-402.5 1078,-421.5 1171,-421.5 1171,-402.5 1078,-402.5"/>
<text text-anchor="middle" x="1124.5" y="-409.5" font-family="Helvetica,sans-Serif" font-size="10.00">Altair::killProcess</text>
</a>
</g>
</g>
<!-- Node30&#45;&gt;Node33 -->
<g id="edge6" class="edge"><title>Node30&#45;&gt;Node33</title>
<path fill="none" stroke="midnightblue" d="M981.741,-378.861C1013.27,-386.233 1053.27,-395.583 1082.73,-402.47"/>
<polygon fill="midnightblue" stroke="midnightblue" points="982.359,-375.412 971.824,-376.543 980.765,-382.228 982.359,-375.412"/>
</g>
<!-- Node34 -->
<g id="node8" class="node"><title>Node34</title>
<g id="a_node8"><a xlink:href="class_altair.html#a2e9b932b1dbf45bf9ad0db41dce474b6" target="_top" xlink:title="Crée un nouveau projet défaut.alt. ">
<polygon fill="white" stroke="black" points="1055.5,-441 1055.5,-471 1193.5,-471 1193.5,-441 1055.5,-441"/>
<text text-anchor="start" x="1063.5" y="-459" font-family="Helvetica,sans-Serif" font-size="10.00">Altair::on_newProjectButton</text>
<text text-anchor="middle" x="1124.5" y="-448" font-family="Helvetica,sans-Serif" font-size="10.00">_clicked</text>
</a>
</g>
</g>
<!-- Node30&#45;&gt;Node34 -->
<g id="edge7" class="edge"><title>Node30&#45;&gt;Node34</title>
<path fill="none" stroke="midnightblue" d="M956.773,-381.708C981.323,-395.404 1019.54,-415.919 1054,-431 1061.87,-434.445 1070.38,-437.799 1078.66,-440.873"/>
<polygon fill="midnightblue" stroke="midnightblue" points="958.192,-378.49 947.759,-376.642 954.762,-384.593 958.192,-378.49"/>
</g>
<!-- Node35 -->
<g id="node9" class="node"><title>Node35</title>
<g id="a_node9"><a xlink:href="class_altair.html#ab98d384297c6b94ff65a683eb5f99633" target="_top" xlink:title="Ouvre le projet, le décode en appelant parseProjectFile et actualise l&#39;interface &#160;en conséquence...">
<polygon fill="white" stroke="black" points="1054,-353 1054,-383 1195,-383 1195,-353 1054,-353"/>
<text text-anchor="start" x="1062" y="-371" font-family="Helvetica,sans-Serif" font-size="10.00">Altair::on_openProjectButton</text>
<text text-anchor="middle" x="1124.5" y="-360" font-family="Helvetica,sans-Serif" font-size="10.00">_clicked</text>
</a>
</g>
</g>
<!-- Node30&#45;&gt;Node35 -->
<g id="edge8" class="edge"><title>Node30&#45;&gt;Node35</title>
<path fill="none" stroke="midnightblue" d="M989.601,-367.304C1009.87,-367.41 1032.78,-367.529 1053.85,-367.638"/>
<polygon fill="midnightblue" stroke="midnightblue" points="989.594,-363.804 979.576,-367.252 989.558,-370.804 989.594,-363.804"/>
</g>
<!-- Node36 -->
<g id="node10" class="node"><title>Node36</title>
<g id="a_node10"><a xlink:href="class_altair.html#a84cf34107cd413ab33800b583bdef59e" target="_top" xlink:title="Ouvre le projet .alt et décode le projet pour actualiser l&#39;interface. ">
<polygon fill="white" stroke="black" points="1068,-314.5 1068,-333.5 1181,-333.5 1181,-314.5 1068,-314.5"/>
<text text-anchor="middle" x="1124.5" y="-321.5" font-family="Helvetica,sans-Serif" font-size="10.00">Altair::openProjectFile</text>
</a>
</g>
</g>
<!-- Node30&#45;&gt;Node36 -->
<g id="edge9" class="edge"><title>Node30&#45;&gt;Node36</title>
<path fill="none" stroke="midnightblue" d="M983.773,-355.212C1014.32,-348.388 1052.26,-339.913 1080.9,-333.516"/>
<polygon fill="midnightblue" stroke="midnightblue" points="982.718,-351.861 973.722,-357.457 984.245,-358.693 982.718,-351.861"/>
</g>
<!-- Node37&#45;&gt;Node38 -->
<g id="edge11" class="edge"><title>Node37&#45;&gt;Node38</title>
<path fill="none" stroke="midnightblue" d="M473.537,-317.595C489.926,-314.606 507.424,-311.415 523.215,-308.535"/>
<polygon fill="midnightblue" stroke="midnightblue" points="472.711,-314.188 463.501,-319.425 473.967,-321.074 472.711,-314.188"/>
</g>
<!-- Node39 -->
<g id="node13" class="node"><title>Node39</title>
<g id="a_node13"><a xlink:href="class_altair.html#acaa583766e1c062ea311847fcdd35374" target="_top" xlink:title="Efface les onglets, le gestionnaire de projet et lit le projet .alt en cours. ">
<polygon fill="white" stroke="black" points="684,-292 684,-322 806,-322 806,-292 684,-292"/>
<text text-anchor="start" x="692" y="-310" font-family="Helvetica,sans-Serif" font-size="10.00">Altair::clearInterfaceAnd</text>
<text text-anchor="middle" x="745" y="-299" font-family="Helvetica,sans-Serif" font-size="10.00">ParseProject</text>
</a>
</g>
</g>
<!-- Node38&#45;&gt;Node39 -->
<g id="edge12" class="edge"><title>Node38&#45;&gt;Node39</title>
<path fill="none" stroke="midnightblue" d="M658.193,-302.877C666.815,-303.291 675.473,-303.707 683.798,-304.107"/>
<polygon fill="midnightblue" stroke="midnightblue" points="658.267,-299.377 648.111,-302.393 657.931,-306.369 658.267,-299.377"/>
</g>
<!-- Node41 -->
<g id="node15" class="node"><title>Node41</title>
<g id="a_node15"><a xlink:href="class_altair.html#a2eb0a89c3223b2df1c01d2b3b7d1c0eb" target="_top" xlink:title="Rafraichir le projet .alt après avoir actualisé l&#39;interface. ">
<polygon fill="white" stroke="black" points="692.5,-164.5 692.5,-183.5 797.5,-183.5 797.5,-164.5 692.5,-164.5"/>
<text text-anchor="middle" x="745" y="-171.5" font-family="Helvetica,sans-Serif" font-size="10.00">Altair::updateProject</text>
</a>
</g>
</g>
<!-- Node38&#45;&gt;Node41 -->
<g id="edge16" class="edge"><title>Node38&#45;&gt;Node41</title>
<path fill="none" stroke="midnightblue" d="M598.361,-283.338C633.188,-257.193 702.181,-205.396 730.938,-183.806"/>
<polygon fill="midnightblue" stroke="midnightblue" points="596.184,-280.596 590.289,-289.399 600.387,-286.194 596.184,-280.596"/>
</g>
<!-- Node40 -->
<g id="node14" class="node"><title>Node40</title>
<g id="a_node14"><a xlink:href="class_altair.html#aa341707131924eff160bcab41422d1ec" target="_top" xlink:title="Code commun à différentes fonctions lancées pour l&#39;analyse des projets. ">
<polygon fill="white" stroke="black" points="842,-316.5 842,-335.5 1018,-335.5 1018,-316.5 842,-316.5"/>
<text text-anchor="middle" x="930" y="-323.5" font-family="Helvetica,sans-Serif" font-size="10.00">Altair::openProjectFileCommonCode</text>
</a>
</g>
</g>
<!-- Node39&#45;&gt;Node40 -->
<g id="edge13" class="edge"><title>Node39&#45;&gt;Node40</title>
<path fill="none" stroke="midnightblue" d="M816.278,-314.297C824.681,-315.169 833.336,-316.068 841.939,-316.961"/>
<polygon fill="midnightblue" stroke="midnightblue" points="816.483,-310.799 806.175,-313.248 815.76,-317.762 816.483,-310.799"/>
</g>
<!-- Node40&#45;&gt;Node35 -->
<g id="edge14" class="edge"><title>Node40&#45;&gt;Node35</title>
<path fill="none" stroke="midnightblue" d="M984.691,-337.714C1006.38,-342.446 1031.68,-347.966 1054.69,-352.988"/>
<polygon fill="midnightblue" stroke="midnightblue" points="985.198,-334.243 974.681,-335.53 983.705,-341.082 985.198,-334.243"/>
</g>
<!-- Node40&#45;&gt;Node36 -->
<g id="edge15" class="edge"><title>Node40&#45;&gt;Node36</title>
<path fill="none" stroke="midnightblue" d="M1028.57,-324.986C1042.1,-324.846 1055.59,-324.706 1067.98,-324.577"/>
<polygon fill="midnightblue" stroke="midnightblue" points="1028.2,-321.49 1018.24,-325.094 1028.27,-328.489 1028.2,-321.49"/>
</g>
<!-- Node41&#45;&gt;Node31 -->
<g id="edge17" class="edge"><title>Node41&#45;&gt;Node31</title>
<path fill="none" stroke="midnightblue" d="M765.37,-189.797C783.8,-203.732 812.955,-223.027 842,-231 929.171,-254.929 1036.91,-233.978 1090.29,-220.409"/>
<polygon fill="midnightblue" stroke="midnightblue" points="767.505,-187.024 757.463,-183.646 763.207,-192.549 767.505,-187.024"/>
</g>
<!-- Node41&#45;&gt;Node32 -->
<g id="edge20" class="edge"><title>Node41&#45;&gt;Node32</title>
<path fill="none" stroke="midnightblue" d="M761.533,-191.147C779.121,-209.336 809.574,-237.296 842,-251 920.932,-284.358 1022.61,-288.539 1079.65,-287.795"/>
<polygon fill="midnightblue" stroke="midnightblue" points="763.799,-188.448 754.396,-183.564 758.701,-193.245 763.799,-188.448"/>
</g>
<!-- Node42 -->
<g id="node16" class="node"><title>Node42</title>
<g id="a_node16"><a xlink:href="class_altair.html#ab913abfdd0c6fbbceb9a051a4443d5fa" target="_top" xlink:title="Supprimer un onglet central. ">
<polygon fill="white" stroke="black" points="881,-164.5 881,-183.5 979,-183.5 979,-164.5 881,-164.5"/>
<text text-anchor="middle" x="930" y="-171.5" font-family="Helvetica,sans-Serif" font-size="10.00">Altair::deleteGroup</text>
</a>
</g>
</g>
<!-- Node41&#45;&gt;Node42 -->
<g id="edge18" class="edge"><title>Node41&#45;&gt;Node42</title>
<path fill="none" stroke="midnightblue" d="M807.966,-174C831.814,-174 858.659,-174 880.997,-174"/>
<polygon fill="midnightblue" stroke="midnightblue" points="807.951,-170.5 797.951,-174 807.951,-177.5 807.951,-170.5"/>
</g>
<!-- Node43 -->
<g id="node17" class="node"><title>Node43</title>
<g id="a_node17"><a xlink:href="class_altair.html#a299584936cc20c9a1451977264eba1f5" target="_top" xlink:title="Ecrase un item d&#39;un onglet donné ">
<polygon fill="white" stroke="black" points="876.5,-115 876.5,-145 983.5,-145 983.5,-115 876.5,-115"/>
<text text-anchor="start" x="884.5" y="-133" font-family="Helvetica,sans-Serif" font-size="10.00">Altair::on_deleteItem</text>
<text text-anchor="middle" x="930" y="-122" font-family="Helvetica,sans-Serif" font-size="10.00">_clicked</text>
</a>
</g>
</g>
<!-- Node41&#45;&gt;Node43 -->
<g id="edge21" class="edge"><title>Node41&#45;&gt;Node43</title>
<path fill="none" stroke="midnightblue" d="M795.685,-162.054C820.614,-156.06 850.818,-148.798 876.169,-142.703"/>
<polygon fill="midnightblue" stroke="midnightblue" points="794.613,-158.712 785.708,-164.453 796.249,-165.518 794.613,-158.712"/>
</g>
<!-- Node44 -->
<g id="node18" class="node"><title>Node44</title>
<g id="a_node18"><a xlink:href="classoptions.html#a52a9fb1d5bdb6ed104e700390b8c0208" target="_top" xlink:title="Constructeur de l&#39;onglet correspondant à un pointeur parent vers une instance de la classe Altair...">
<polygon fill="white" stroke="black" points="887,-0.5 887,-19.5 973,-19.5 973,-0.5 887,-0.5"/>
<text text-anchor="middle" x="930" y="-7.5" font-family="Helvetica,sans-Serif" font-size="10.00">options::options</text>
</a>
</g>
</g>
<!-- Node41&#45;&gt;Node44 -->
<g id="edge23" class="edge"><title>Node41&#45;&gt;Node44</title>
<path fill="none" stroke="midnightblue" d="M753.037,-154.966C765.706,-123.483 795.451,-60.8799 842,-29 855.138,-20.0021 871.788,-15.169 886.996,-12.6058"/>
<polygon fill="midnightblue" stroke="midnightblue" points="749.746,-153.772 749.395,-164.361 756.273,-156.302 749.746,-153.772"/>
</g>
<!-- Node45 -->
<g id="node19" class="node"><title>Node45</title>
<g id="a_node19"><a xlink:href="class_altair.html#aab5da600c227ac7eb604fa24a9308d26" target="_top" xlink:title="Enregistre le projet .alt en actualisant projectName et l&#39;état de l&#39;interface &#160;. ">
<polygon fill="white" stroke="black" points="864.5,-202.5 864.5,-221.5 995.5,-221.5 995.5,-202.5 864.5,-202.5"/>
<text text-anchor="middle" x="930" y="-209.5" font-family="Helvetica,sans-Serif" font-size="10.00">Altair::requestSaveProject</text>
</a>
</g>
</g>
<!-- Node41&#45;&gt;Node45 -->
<g id="edge24" class="edge"><title>Node41&#45;&gt;Node45</title>
<path fill="none" stroke="midnightblue" d="M802.253,-185.681C828.205,-191.07 858.622,-197.386 883.153,-202.48"/>
<polygon fill="midnightblue" stroke="midnightblue" points="802.681,-182.195 792.179,-183.589 801.258,-189.049 802.681,-182.195"/>
</g>
<!-- Node46 -->
<g id="node20" class="node"><title>Node46</title>
<g id="a_node20"><a xlink:href="class_altair.html#a7d10f8ecf4097577885172afb6c2e9c6" target="_top" xlink:title="Lance l&#39;exécution de l&#39;application en ligne de commande lhx. ">
<polygon fill="white" stroke="black" points="1259.5,-38.5 1259.5,-57.5 1318.5,-57.5 1318.5,-38.5 1259.5,-38.5"/>
<text text-anchor="middle" x="1289" y="-45.5" font-family="Helvetica,sans-Serif" font-size="10.00">Altair::run</text>
</a>
</g>
</g>
<!-- Node41&#45;&gt;Node46 -->
<g id="edge25" class="edge"><title>Node41&#45;&gt;Node46</title>
<path fill="none" stroke="midnightblue" d="M763.032,-157.601C781.073,-141.3 811.161,-117.04 842,-105 989.226,-47.522 1038.4,-83.3213 1195,-62 1216.52,-59.0705 1240.78,-55.4061 1259.13,-52.5612"/>
<polygon fill="midnightblue" stroke="midnightblue" points="760.587,-155.094 755.631,-164.459 765.345,-160.229 760.587,-155.094"/>
</g>
<!-- Node47 -->
<g id="node21" class="node"><title>Node47</title>
<g id="a_node21"><a xlink:href="class_altair.html#a08b5e402c9a694af09110afe33219080" target="_top" xlink:title="Construction de la ligne de commande pour des bases de paye dans un répertoire donné ...">
<polygon fill="white" stroke="black" points="885,-38.5 885,-57.5 975,-57.5 975,-38.5 885,-38.5"/>
<text text-anchor="middle" x="930" y="-45.5" font-family="Helvetica,sans-Serif" font-size="10.00">Altair::runWorker</text>
</a>
</g>
</g>
<!-- Node41&#45;&gt;Node47 -->
<g id="edge26" class="edge"><title>Node41&#45;&gt;Node47</title>
<path fill="none" stroke="midnightblue" d="M758.078,-156.041C774.426,-133.125 805.756,-93.8458 842,-72 854.882,-64.2352 870.337,-58.9191 884.624,-55.3069"/>
<polygon fill="midnightblue" stroke="midnightblue" points="755.036,-154.285 752.2,-164.493 760.783,-158.281 755.036,-154.285"/>
</g>
<!-- Node42&#45;&gt;Node31 -->
<g id="edge19" class="edge"><title>Node42&#45;&gt;Node31</title>
<path fill="none" stroke="midnightblue" d="M989.094,-185.166C1022.18,-191.525 1062.43,-199.262 1090.22,-204.602"/>
<polygon fill="midnightblue" stroke="midnightblue" points="989.56,-181.692 979.079,-183.241 988.239,-188.566 989.56,-181.692"/>
</g>
<!-- Node43&#45;&gt;Node31 -->
<g id="edge22" class="edge"><title>Node43&#45;&gt;Node31</title>
<path fill="none" stroke="midnightblue" d="M993.366,-146.209C1001.74,-148.882 1010.15,-151.827 1018,-155 1051.26,-168.436 1087.75,-189.287 1107.91,-201.394"/>
<polygon fill="midnightblue" stroke="midnightblue" points="994.171,-142.795 983.584,-143.2 992.113,-149.486 994.171,-142.795"/>
</g>
<!-- Node47&#45;&gt;Node46 -->
<g id="edge27" class="edge"><title>Node47&#45;&gt;Node46</title>
<path fill="none" stroke="midnightblue" d="M985.571,-48C1062.49,-48 1200.04,-48 1259.42,-48"/>
<polygon fill="midnightblue" stroke="midnightblue" points="985.133,-44.5001 975.133,-48 985.133,-51.5001 985.133,-44.5001"/>
</g>
<!-- Node48 -->
<g id="node22" class="node"><title>Node48</title>
<g id="a_node22"><a xlink:href="class_altair.html#ae04f2a5771d47bbe2e0cc3a11b72d6bf" target="_top" xlink:title="Parcourt le répertoire en cours du mode distributif, un à chaque appel Exporte l&#39;identification dans ...">
<polygon fill="white" stroke="black" points="1056,-0.5 1056,-19.5 1193,-19.5 1193,-0.5 1056,-0.5"/>
<text text-anchor="middle" x="1124.5" y="-7.5" font-family="Helvetica,sans-Serif" font-size="10.00">Altair::runWorkerDistributed</text>
</a>
</g>
</g>
<!-- Node47&#45;&gt;Node48 -->
<g id="edge28" class="edge"><title>Node47&#45;&gt;Node48</title>
<path fill="none" stroke="midnightblue" d="M985.281,-37.2849C1013.54,-31.7057 1047.81,-24.9413 1075.15,-19.5436"/>
<polygon fill="midnightblue" stroke="midnightblue" points="984.296,-33.9116 975.163,-39.282 985.652,-40.779 984.296,-33.9116"/>
</g>
<!-- Node48&#45;&gt;Node46 -->
<g id="edge30" class="edge"><title>Node48&#45;&gt;Node46</title>
<path fill="none" stroke="midnightblue" d="M1176.31,-21.8811C1203.65,-28.2745 1236.36,-35.9253 1259.3,-41.2884"/>
<polygon fill="midnightblue" stroke="midnightblue" points="1177.04,-18.4581 1166.51,-19.589 1175.45,-25.2742 1177.04,-18.4581"/>
</g>
<!-- Node49 -->
<g id="node23" class="node"><title>Node49</title>
<g id="a_node23"><a xlink:href="class_altair.html#a16b8035c4383a789cd00b687fb105fe9" target="_top" xlink:title="Traitement de la fin de l&#39;exécution de lhx. ">
<polygon fill="white" stroke="black" points="1231,-0.5 1231,-19.5 1347,-19.5 1347,-0.5 1231,-0.5"/>
<text text-anchor="middle" x="1289" y="-7.5" font-family="Helvetica,sans-Serif" font-size="10.00">Altair::processFinished</text>
</a>
</g>
</g>
<!-- Node48&#45;&gt;Node49 -->
<g id="edge29" class="edge"><title>Node48&#45;&gt;Node49</title>
<path fill="none" stroke="midnightblue" d="M1203.08,-10C1212.41,-10 1221.81,-10 1230.78,-10"/>
<polygon fill="midnightblue" stroke="midnightblue" points="1203,-6.5001 1193,-10 1203,-13.5001 1203,-6.5001"/>
</g>
</g>
</svg>
        <g id="navigator" transform="translate(0 0)" fill="#404254">
                <rect fill="#f2f5e9" fill-opacity="0.5" stroke="#606060" stroke-width=".5" x="0" y="0" width="60" height="60"/>
                <use id="zoomplus" xlink:href="#zoomPlus" x="17" y="9" onmousedown="handleZoom(evt,'in')"/>
                <use id="zoomminus" xlink:href="#zoomMin" x="42" y="9" onmousedown="handleZoom(evt,'out')"/>
                <use id="reset" xlink:href="#resetDef" x="30" y="36" onmousedown="handleReset()"/>
                <g id="arrowUp" xlink:href="#dirArrow" transform="translate(30 24)" onmousedown="handlePan(0,-1)">
                  <use xlink:href="#rim" fill="#404040">
                        <set attributeName="fill" to="#808080" begin="arrowUp.mouseover" end="arrowUp.mouseout"/>
                  </use>
                  <path fill="none" stroke="white" stroke-width="1.5" d="M0,-3.0v7 M-2.5,-0.5L0,-3.0L2.5,-0.5"/>
                </g>
                <g id="arrowRight" xlink:href="#dirArrow" transform="rotate(90) translate(36 -43)" onmousedown="handlePan(1,0)">
                  <use xlink:href="#rim" fill="#404040">
                        <set attributeName="fill" to="#808080" begin="arrowRight.mouseover" end="arrowRight.mouseout"/>
                  </use>
                  <path fill="none" stroke="white" stroke-width="1.5" d="M0,-3.0v7 M-2.5,-0.5L0,-3.0L2.5,-0.5"/>
                </g>
                <g id="arrowDown" xlink:href="#dirArrow" transform="rotate(180) translate(-30 -48)" onmousedown="handlePan(0,1)">
                  <use xlink:href="#rim" fill="#404040">
                        <set attributeName="fill" to="#808080" begin="arrowDown.mouseover" end="arrowDown.mouseout"/>
                  </use>
                  <path fill="none" stroke="white" stroke-width="1.5" d="M0,-3.0v7 M-2.5,-0.5L0,-3.0L2.5,-0.5"/>
                </g>
                <g id="arrowLeft" xlink:href="#dirArrow" transform="rotate(270) translate(-36 17)" onmousedown="handlePan(-1,0)">
                  <use xlink:href="#rim" fill="#404040">
                        <set attributeName="fill" to="#808080" begin="arrowLeft.mouseover" end="arrowLeft.mouseout"/>
                  </use>
                  <path fill="none" stroke="white" stroke-width="1.5" d="M0,-3.0v7 M-2.5,-0.5L0,-3.0L2.5,-0.5"/>
                </g>
        </g>
        <svg viewBox="0 0 15 15" width="100%" height="30px" preserveAspectRatio="xMaxYMin meet">
         <g id="arrow_out" transform="scale(0.3 0.3)">
          <a xlink:href="namespace_xml_method_ac0a708c4bc4c55df24e60816d69a90cf_icgraph_org.svg" target="_base">
           <rect id="button" ry="5" rx="5" y="6" x="6" height="38" width="38"
                fill="#f2f5e9" fill-opacity="0.5" stroke="#606060" stroke-width="1.0"/>
           <path id="arrow"
             d="M 11.500037,31.436501 C 11.940474,20.09759 22.043105,11.32322 32.158766,21.979434 L 37.068811,17.246167 C 37.068811,17.246167 37.088388,32 37.088388,32 L 22.160133,31.978069 C 22.160133,31.978069 26.997745,27.140456 26.997745,27.140456 C 18.528582,18.264221 13.291696,25.230495 11.500037,31.436501 z"
             style="fill:#404040;"/>
          </a>
         </g>
        </svg>
</svg>
