<?xml version="1.0" encoding="UTF-8" standalone="no"?>
<!DOCTYPE svg PUBLIC "-//W3C//DTD SVG 1.1//EN"
 "http://www.w3.org/Graphics/SVG/1.1/DTD/svg11.dtd">
<!-- Generated by graphviz version 2.38.0 (20140413.2041)
 -->
<!-- Title: Interface/gui/options.h Pages: 1 -->
<svg width="266pt" height="308pt"
 viewBox="0.00 0.00 266.00 308.00" xmlns="http://www.w3.org/2000/svg" xmlns:xlink="http://www.w3.org/1999/xlink">
<g id="graph0" class="graph" transform="scale(1 1) rotate(0) translate(4 304)">
<title>Interface/gui/options.h</title>
<polygon fill="white" stroke="none" points="-4,4 -4,-304 262,-304 262,4 -4,4"/>
<!-- Node0 -->
<g id="node1" class="node"><title>Node0</title>
<polygon fill="#bfbfbf" stroke="black" points="81.5,-280.5 81.5,-299.5 202.5,-299.5 202.5,-280.5 81.5,-280.5"/>
<text text-anchor="middle" x="142" y="-287.5" font-family="Helvetica,sans-Serif" font-size="10.00">Interface/gui/options.h</text>
</g>
<!-- Node1 -->
<g id="node2" class="node"><title>Node1</title>
<g id="a_node2"><a xlink:href="flineframe_8h.html" target="_top" xlink:title="Ce fichier contient la classe FLineFrame, dérivée fonctionnelle de FLineEdit. ">
<polygon fill="white" stroke="black" points="47.5,-168.5 47.5,-187.5 118.5,-187.5 118.5,-168.5 47.5,-168.5"/>
<text text-anchor="middle" x="83" y="-175.5" font-family="Helvetica,sans-Serif" font-size="10.00">flineframe.h</text>
</a>
</g>
</g>
<!-- Node0&#45;&gt;Node1 -->
<g id="edge1" class="edge"><title>Node0&#45;&gt;Node1</title>
<path fill="none" stroke="midnightblue" d="M137.37,-280.368C127.72,-262.376 105.286,-220.55 92.4543,-196.627"/>
<polygon fill="midnightblue" stroke="midnightblue" points="95.4192,-194.749 87.6081,-187.591 89.2505,-198.058 95.4192,-194.749"/>
</g>
<!-- Node8 -->
<g id="node9" class="node"><title>Node8</title>
<g id="a_node9"><a xlink:href="common_8h.html" target="_top" xlink:title="Code de la classe common, qui regroupe des utilitaires communs à l&#39;interface graphique MainWindow...">
<polygon fill="white" stroke="black" points="140.5,-224.5 140.5,-243.5 205.5,-243.5 205.5,-224.5 140.5,-224.5"/>
<text text-anchor="middle" x="173" y="-231.5" font-family="Helvetica,sans-Serif" font-size="10.00">common.h</text>
</a>
</g>
</g>
<!-- Node0&#45;&gt;Node8 -->
<g id="edge10" class="edge"><title>Node0&#45;&gt;Node8</title>
<path fill="none" stroke="midnightblue" d="M147.119,-280.083C151.408,-272.613 157.658,-261.724 162.942,-252.52"/>
<polygon fill="midnightblue" stroke="midnightblue" points="166.033,-254.166 167.976,-243.751 159.962,-250.681 166.033,-254.166"/>
</g>
<!-- Node2 -->
<g id="node3" class="node"><title>Node2</title>
<g id="a_node3"><a xlink:href="fwidgets_8h.html" target="_top" xlink:title="fwidgets.h">
<polygon fill="white" stroke="black" points="117,-112.5 117,-131.5 181,-131.5 181,-112.5 117,-112.5"/>
<text text-anchor="middle" x="149" y="-119.5" font-family="Helvetica,sans-Serif" font-size="10.00">fwidgets.h</text>
</a>
</g>
</g>
<!-- Node1&#45;&gt;Node2 -->
<g id="edge2" class="edge"><title>Node1&#45;&gt;Node2</title>
<path fill="none" stroke="midnightblue" d="M93.604,-168.324C103.456,-160.263 118.351,-148.077 130.215,-138.369"/>
<polygon fill="midnightblue" stroke="midnightblue" points="132.68,-140.875 138.203,-131.834 128.247,-135.457 132.68,-140.875"/>
</g>
<!-- Node4 -->
<g id="node5" class="node"><title>Node4</title>
<g id="a_node5"><a xlink:href="fstring_8h.html" target="_top" xlink:title="fstring.h">
<polygon fill="white" stroke="black" points="56,-56.5 56,-75.5 110,-75.5 110,-56.5 56,-56.5"/>
<text text-anchor="middle" x="83" y="-63.5" font-family="Helvetica,sans-Serif" font-size="10.00">fstring.h</text>
</a>
</g>
</g>
<!-- Node1&#45;&gt;Node4 -->
<g id="edge8" class="edge"><title>Node1&#45;&gt;Node4</title>
<path fill="none" stroke="midnightblue" d="M83,-168.368C83,-150.617 83,-109.666 83,-85.5974"/>
<polygon fill="midnightblue" stroke="midnightblue" points="86.5001,-85.5914 83,-75.5914 79.5001,-85.5915 86.5001,-85.5914"/>
</g>
<!-- Node6 -->
<g id="node7" class="node"><title>Node6</title>
<g id="a_node7"><a xlink:href="enums_8h.html" target="_top" xlink:title="Enumérations et constantes permettant de paramétrer les fwidgets. ">
<polygon fill="white" stroke="black" points="0,-0.5 0,-19.5 56,-19.5 56,-0.5 0,-0.5"/>
<text text-anchor="middle" x="28" y="-7.5" font-family="Helvetica,sans-Serif" font-size="10.00">enums.h</text>
</a>
</g>
</g>
<!-- Node1&#45;&gt;Node6 -->
<g id="edge9" class="edge"><title>Node1&#45;&gt;Node6</title>
<path fill="none" stroke="midnightblue" d="M79.7482,-168.411C73.2208,-151.058 58.1907,-110.532 47,-76 41.9597,-60.4468 36.7888,-42.6108 33.1164,-29.5615"/>
<polygon fill="midnightblue" stroke="midnightblue" points="36.475,-28.5752 30.4199,-19.8811 29.7318,-30.4536 36.475,-28.5752"/>
</g>
<!-- Node3 -->
<g id="node4" class="node"><title>Node3</title>
<polygon fill="white" stroke="#bfbfbf" points="192,-56.5 192,-75.5 258,-75.5 258,-56.5 192,-56.5"/>
<text text-anchor="middle" x="225" y="-63.5" font-family="Helvetica,sans-Serif" font-size="10.00">QtWidgets</text>
</g>
<!-- Node2&#45;&gt;Node3 -->
<g id="edge3" class="edge"><title>Node2&#45;&gt;Node3</title>
<path fill="none" stroke="midnightblue" d="M161.211,-112.324C172.776,-104.107 190.375,-91.6017 204.161,-81.8069"/>
<polygon fill="midnightblue" stroke="midnightblue" points="206.443,-84.4791 212.567,-75.8339 202.388,-78.7729 206.443,-84.4791"/>
</g>
<!-- Node2&#45;&gt;Node4 -->
<g id="edge4" class="edge"><title>Node2&#45;&gt;Node4</title>
<path fill="none" stroke="midnightblue" d="M138.396,-112.324C128.544,-104.263 113.649,-92.0765 101.785,-82.3695"/>
<polygon fill="midnightblue" stroke="midnightblue" points="103.753,-79.4575 93.797,-75.8339 99.3202,-84.8752 103.753,-79.4575"/>
</g>
<!-- Node7 -->
<g id="node8" class="node"><title>Node7</title>
<g id="a_node8"><a xlink:href="tags_8h.html" target="_top" xlink:title="tags.h">
<polygon fill="white" stroke="black" points="128.5,-56.5 128.5,-75.5 173.5,-75.5 173.5,-56.5 128.5,-56.5"/>
<text text-anchor="middle" x="151" y="-63.5" font-family="Helvetica,sans-Serif" font-size="10.00">tags.h</text>
</a>
</g>
</g>
<!-- Node2&#45;&gt;Node7 -->
<g id="edge7" class="edge"><title>Node2&#45;&gt;Node7</title>
<path fill="none" stroke="midnightblue" d="M149.33,-112.083C149.592,-105.006 149.968,-94.8611 150.297,-85.9865"/>
<polygon fill="midnightblue" stroke="midnightblue" points="153.803,-85.8738 150.676,-75.7511 146.808,-85.6147 153.803,-85.8738"/>
</g>
<!-- Node5 -->
<g id="node6" class="node"><title>Node5</title>
<polygon fill="white" stroke="#bfbfbf" points="74.5,-0.5 74.5,-19.5 125.5,-19.5 125.5,-0.5 74.5,-0.5"/>
<text text-anchor="middle" x="100" y="-7.5" font-family="Helvetica,sans-Serif" font-size="10.00">QtCore</text>
</g>
<!-- Node4&#45;&gt;Node5 -->
<g id="edge5" class="edge"><title>Node4&#45;&gt;Node5</title>
<path fill="none" stroke="midnightblue" d="M85.8072,-56.083C88.0847,-48.8486 91.3713,-38.4087 94.2084,-29.3968"/>
<polygon fill="midnightblue" stroke="midnightblue" points="97.5806,-30.3406 97.245,-19.7511 90.9036,-28.2385 97.5806,-30.3406"/>
</g>
<!-- Node4&#45;&gt;Node6 -->
<g id="edge6" class="edge"><title>Node4&#45;&gt;Node6</title>
<path fill="none" stroke="midnightblue" d="M73.9179,-56.083C65.8287,-48.1409 53.8046,-36.3354 44.0898,-26.7973"/>
<polygon fill="midnightblue" stroke="midnightblue" points="46.5009,-24.2595 36.9131,-19.7511 41.5967,-29.2545 46.5009,-24.2595"/>
</g>
<!-- Node8&#45;&gt;Node2 -->
<g id="edge12" class="edge"><title>Node8&#45;&gt;Node2</title>
<path fill="none" stroke="midnightblue" d="M171.117,-224.368C167.244,-206.617 158.309,-165.666 153.058,-141.597"/>
<polygon fill="midnightblue" stroke="midnightblue" points="156.426,-140.615 150.874,-131.591 149.587,-142.108 156.426,-140.615"/>
</g>
<!-- Node8&#45;&gt;Node3 -->
<g id="edge11" class="edge"><title>Node8&#45;&gt;Node3</title>
<path fill="none" stroke="midnightblue" d="M191.389,-224.471C205.101,-216.997 222.815,-204.71 231,-188 247.28,-154.764 238.345,-110.051 231.167,-85.341"/>
<polygon fill="midnightblue" stroke="midnightblue" points="234.505,-84.289 228.183,-75.7872 227.824,-86.3759 234.505,-84.289"/>
</g>
<!-- Node9 -->
<g id="node10" class="node"><title>Node9</title>
<g id="a_node10"><a xlink:href="tools_8h.html" target="_top" xlink:title="tools.h">
<polygon fill="white" stroke="black" points="175.5,-168.5 175.5,-187.5 222.5,-187.5 222.5,-168.5 175.5,-168.5"/>
<text text-anchor="middle" x="199" y="-175.5" font-family="Helvetica,sans-Serif" font-size="10.00">tools.h</text>
</a>
</g>
</g>
<!-- Node8&#45;&gt;Node9 -->
<g id="edge13" class="edge"><title>Node8&#45;&gt;Node9</title>
<path fill="none" stroke="midnightblue" d="M177.293,-224.083C180.852,-216.691 186.022,-205.953 190.424,-196.811"/>
<polygon fill="midnightblue" stroke="midnightblue" points="193.602,-198.279 194.787,-187.751 187.295,-195.243 193.602,-198.279"/>
</g>
<!-- Node9&#45;&gt;Node2 -->
<g id="edge15" class="edge"><title>Node9&#45;&gt;Node2</title>
<path fill="none" stroke="midnightblue" d="M190.744,-168.083C183.535,-160.298 172.89,-148.801 164.154,-139.367"/>
<polygon fill="midnightblue" stroke="midnightblue" points="166.465,-136.711 157.103,-131.751 161.329,-141.467 166.465,-136.711"/>
</g>
<!-- Node9&#45;&gt;Node3 -->
<g id="edge14" class="edge"><title>Node9&#45;&gt;Node3</title>
<path fill="none" stroke="midnightblue" d="M201.04,-168.368C205.236,-150.617 214.915,-109.666 220.604,-85.5974"/>
<polygon fill="midnightblue" stroke="midnightblue" points="224.075,-86.1284 222.969,-75.5914 217.263,-84.5182 224.075,-86.1284"/>
</g>
</g>
</svg>
