<?xml version="1.0" encoding="UTF-8" standalone="no"?>
<!DOCTYPE svg PUBLIC "-//W3C//DTD SVG 1.1//EN"
 "http://www.w3.org/Graphics/SVG/1.1/DTD/svg11.dtd">
<!-- Generated by graphviz version 2.38.0 (20140413.2041)
 -->
<!-- Title: Interface/gui/options.cpp Pages: 1 -->
<svg width="1256pt" height="476pt"
 viewBox="0.00 0.00 1256.00 476.00" xmlns="http://www.w3.org/2000/svg" xmlns:xlink="http://www.w3.org/1999/xlink">
<g id="graph0" class="graph" transform="scale(1 1) rotate(0) translate(4 472)">
<title>Interface/gui/options.cpp</title>
<polygon fill="white" stroke="none" points="-4,4 -4,-472 1252,-472 1252,4 -4,4"/>
<!-- Node0 -->
<g id="node1" class="node"><title>Node0</title>
<polygon fill="#bfbfbf" stroke="black" points="870,-448.5 870,-467.5 994,-467.5 994,-448.5 870,-448.5"/>
<text text-anchor="middle" x="932" y="-455.5" font-family="Helvetica,sans-Serif" font-size="10.00">Interface/gui/options.cpp</text>
</g>
<!-- Node1 -->
<g id="node2" class="node"><title>Node1</title>
<polygon fill="white" stroke="#bfbfbf" points="28,-280.5 28,-299.5 68,-299.5 68,-280.5 28,-280.5"/>
<text text-anchor="middle" x="48" y="-287.5" font-family="Helvetica,sans-Serif" font-size="10.00">QFile</text>
</g>
<!-- Node0&#45;&gt;Node1 -->
<g id="edge1" class="edge"><title>Node0&#45;&gt;Node1</title>
<path fill="none" stroke="midnightblue" d="M869.809,-456.952C696.07,-455.697 209.934,-444.195 82,-356 66.3066,-345.181 57.3417,-324.795 52.602,-309.726"/>
<polygon fill="midnightblue" stroke="midnightblue" points="55.9209,-308.597 49.8616,-299.906 49.1785,-310.479 55.9209,-308.597"/>
</g>
<!-- Node2 -->
<g id="node3" class="node"><title>Node2</title>
<polygon fill="white" stroke="#bfbfbf" points="1035,-392.5 1035,-411.5 1079,-411.5 1079,-392.5 1035,-392.5"/>
<text text-anchor="middle" x="1057" y="-399.5" font-family="Helvetica,sans-Serif" font-size="10.00">thread</text>
</g>
<!-- Node0&#45;&gt;Node2 -->
<g id="edge2" class="edge"><title>Node0&#45;&gt;Node2</title>
<path fill="none" stroke="midnightblue" d="M951.807,-448.444C972.287,-439.596 1004.48,-425.687 1027.86,-415.586"/>
<polygon fill="midnightblue" stroke="midnightblue" points="1029.49,-418.695 1037.29,-411.516 1026.72,-412.269 1029.49,-418.695"/>
</g>
<!-- Node3 -->
<g id="node4" class="node"><title>Node3</title>
<polygon fill="white" stroke="#bfbfbf" points="1097,-392.5 1097,-411.5 1147,-411.5 1147,-392.5 1097,-392.5"/>
<text text-anchor="middle" x="1122" y="-399.5" font-family="Helvetica,sans-Serif" font-size="10.00">fstream</text>
</g>
<!-- Node0&#45;&gt;Node3 -->
<g id="edge3" class="edge"><title>Node0&#45;&gt;Node3</title>
<path fill="none" stroke="midnightblue" d="M962.106,-448.444C996.011,-438.808 1051.04,-423.168 1086.88,-412.983"/>
<polygon fill="midnightblue" stroke="midnightblue" points="1088.23,-416.237 1096.89,-410.137 1086.31,-409.504 1088.23,-416.237"/>
</g>
<!-- Node4 -->
<g id="node5" class="node"><title>Node4</title>
<g id="a_node5"><a xlink:href="fstring_8h.html" target="_top" xlink:title="fstring.h">
<polygon fill="white" stroke="black" points="461,-56.5 461,-75.5 513,-75.5 513,-56.5 461,-56.5"/>
<text text-anchor="middle" x="487" y="-63.5" font-family="Helvetica,sans-Serif" font-size="10.00">fstring.h</text>
</a>
</g>
</g>
<!-- Node0&#45;&gt;Node4 -->
<g id="edge4" class="edge"><title>Node0&#45;&gt;Node4</title>
<path fill="none" stroke="midnightblue" d="M869.98,-455.928C711.954,-452.786 297.214,-441.865 163,-412 86.8699,-395.06 0,-424.992 0,-347 0,-347 0,-347 0,-177 0,-84.6332 337.534,-69.821 450.595,-67.4503"/>
<polygon fill="midnightblue" stroke="midnightblue" points="450.885,-70.9456 460.817,-67.2575 450.753,-63.9468 450.885,-70.9456"/>
</g>
<!-- Node7 -->
<g id="node8" class="node"><title>Node7</title>
<g id="a_node8"><a xlink:href="altair_8h.html" target="_top" xlink:title="Code de la classe principale Altair, qui joue le rôle d&#39;agent de l&#39;interface graphique. ">
<polygon fill="white" stroke="black" points="740,-392.5 740,-411.5 786,-411.5 786,-392.5 740,-392.5"/>
<text text-anchor="middle" x="763" y="-399.5" font-family="Helvetica,sans-Serif" font-size="10.00">altair.h</text>
</a>
</g>
</g>
<!-- Node0&#45;&gt;Node7 -->
<g id="edge7" class="edge"><title>Node0&#45;&gt;Node7</title>
<path fill="none" stroke="midnightblue" d="M905.221,-448.444C875.575,-438.971 827.771,-423.696 795.876,-413.505"/>
<polygon fill="midnightblue" stroke="midnightblue" points="796.714,-410.098 786.123,-410.388 794.583,-416.766 796.714,-410.098"/>
</g>
<!-- Node23 -->
<g id="node24" class="node"><title>Node23</title>
<g id="a_node24"><a xlink:href="options_8h.html" target="_top" xlink:title="Code des classes du dialogue d&#39;options. ">
<polygon fill="white" stroke="black" points="810,-280.5 810,-299.5 866,-299.5 866,-280.5 810,-280.5"/>
<text text-anchor="middle" x="838" y="-287.5" font-family="Helvetica,sans-Serif" font-size="10.00">options.h</text>
</a>
</g>
</g>
<!-- Node0&#45;&gt;Node23 -->
<g id="edge51" class="edge"><title>Node0&#45;&gt;Node23</title>
<path fill="none" stroke="midnightblue" d="M926.946,-448.075C912.022,-421.719 867.943,-343.878 848.001,-308.661"/>
<polygon fill="midnightblue" stroke="midnightblue" points="850.825,-306.545 842.852,-299.568 844.734,-309.994 850.825,-306.545"/>
</g>
<!-- Node24 -->
<g id="node25" class="node"><title>Node24</title>
<g id="a_node25"><a xlink:href="flineframe_8h.html" target="_top" xlink:title="Ce fichier contient la classe FLineFrame, dérivée fonctionnelle de FLineEdit. ">
<polygon fill="white" stroke="black" points="874,-168.5 874,-187.5 942,-187.5 942,-168.5 874,-168.5"/>
<text text-anchor="middle" x="908" y="-175.5" font-family="Helvetica,sans-Serif" font-size="10.00">flineframe.h</text>
</a>
</g>
</g>
<!-- Node0&#45;&gt;Node24 -->
<g id="edge54" class="edge"><title>Node0&#45;&gt;Node24</title>
<path fill="none" stroke="midnightblue" d="M932,-448.442C932,-429.936 932,-384.812 932,-347 932,-347 932,-347 932,-289 932,-256.059 921.599,-218.818 914.491,-197.214"/>
<polygon fill="midnightblue" stroke="midnightblue" points="917.785,-196.028 911.237,-187.699 911.162,-198.294 917.785,-196.028"/>
</g>
<!-- Node30 -->
<g id="node31" class="node"><title>Node30</title>
<g id="a_node31"><a xlink:href="forms_8h.html" target="_top" xlink:title="forms.h">
<polygon fill="white" stroke="black" points="967,-392.5 967,-411.5 1017,-411.5 1017,-392.5 967,-392.5"/>
<text text-anchor="middle" x="992" y="-399.5" font-family="Helvetica,sans-Serif" font-size="10.00">forms.h</text>
</a>
</g>
</g>
<!-- Node0&#45;&gt;Node30 -->
<g id="edge47" class="edge"><title>Node0&#45;&gt;Node30</title>
<path fill="none" stroke="midnightblue" d="M941.64,-448.324C950.51,-440.341 963.875,-428.313 974.608,-418.653"/>
<polygon fill="midnightblue" stroke="midnightblue" points="977.093,-421.125 982.185,-411.834 972.41,-415.922 977.093,-421.125"/>
</g>
<!-- Node33 -->
<g id="node34" class="node"><title>Node33</title>
<g id="a_node34"><a xlink:href="templates_8h.html" target="_top" xlink:title="templates.h">
<polygon fill="white" stroke="black" points="1180,-392.5 1180,-411.5 1248,-411.5 1248,-392.5 1180,-392.5"/>
<text text-anchor="middle" x="1214" y="-399.5" font-family="Helvetica,sans-Serif" font-size="10.00">templates.h</text>
</a>
</g>
</g>
<!-- Node0&#45;&gt;Node33 -->
<g id="edge52" class="edge"><title>Node0&#45;&gt;Node33</title>
<path fill="none" stroke="midnightblue" d="M976.684,-448.444C1029.54,-438.323 1116.97,-421.58 1169.67,-411.489"/>
<polygon fill="midnightblue" stroke="midnightblue" points="1170.56,-414.881 1179.73,-409.563 1169.25,-408.006 1170.56,-414.881"/>
</g>
<!-- Node5 -->
<g id="node6" class="node"><title>Node5</title>
<polygon fill="white" stroke="#bfbfbf" points="463,-0.5 463,-19.5 511,-19.5 511,-0.5 463,-0.5"/>
<text text-anchor="middle" x="487" y="-7.5" font-family="Helvetica,sans-Serif" font-size="10.00">QtCore</text>
</g>
<!-- Node4&#45;&gt;Node5 -->
<g id="edge5" class="edge"><title>Node4&#45;&gt;Node5</title>
<path fill="none" stroke="midnightblue" d="M487,-56.083C487,-49.0059 487,-38.8611 487,-29.9865"/>
<polygon fill="midnightblue" stroke="midnightblue" points="490.5,-29.751 487,-19.7511 483.5,-29.7511 490.5,-29.751"/>
</g>
<!-- Node6 -->
<g id="node7" class="node"><title>Node6</title>
<g id="a_node7"><a xlink:href="enums_8h.html" target="_top" xlink:title="Enumérations et constantes permettant de paramétrer les fwidgets. ">
<polygon fill="white" stroke="black" points="922,-0.5 922,-19.5 976,-19.5 976,-0.5 922,-0.5"/>
<text text-anchor="middle" x="949" y="-7.5" font-family="Helvetica,sans-Serif" font-size="10.00">enums.h</text>
</a>
</g>
</g>
<!-- Node4&#45;&gt;Node6 -->
<g id="edge6" class="edge"><title>Node4&#45;&gt;Node6</title>
<path fill="none" stroke="midnightblue" d="M513.163,-61.942C591.016,-52.8423 821.395,-25.9148 911.899,-15.3365"/>
<polygon fill="midnightblue" stroke="midnightblue" points="912.447,-18.7963 921.973,-14.159 911.635,-11.8436 912.447,-18.7963"/>
</g>
<!-- Node7&#45;&gt;Node4 -->
<g id="edge8" class="edge"><title>Node7&#45;&gt;Node4</title>
<path fill="none" stroke="midnightblue" d="M739.652,-399.672C621.598,-392.657 96,-357.677 96,-291 96,-291 96,-291 96,-177 96,-103.763 353.41,-76.955 450.515,-69.4475"/>
<polygon fill="midnightblue" stroke="midnightblue" points="451.027,-72.9191 460.738,-68.6831 450.505,-65.9386 451.027,-72.9191"/>
</g>
<!-- Node7&#45;&gt;Node6 -->
<g id="edge26" class="edge"><title>Node7&#45;&gt;Node6</title>
<path fill="none" stroke="midnightblue" d="M786.343,-399.393C840.479,-394.273 970,-373.41 970,-291 970,-291 970,-291 970,-121 970,-88.3843 960.982,-51.2785 954.765,-29.5732"/>
<polygon fill="midnightblue" stroke="midnightblue" points="958.043,-28.3156 951.832,-19.7319 951.334,-30.3151 958.043,-28.3156"/>
</g>
<!-- Node8 -->
<g id="node9" class="node"><title>Node8</title>
<g id="a_node9"><a xlink:href="flistframe_8h.html" target="_top" xlink:title="flistframe.h">
<polygon fill="white" stroke="black" points="515.5,-224.5 515.5,-243.5 580.5,-243.5 580.5,-224.5 515.5,-224.5"/>
<text text-anchor="middle" x="548" y="-231.5" font-family="Helvetica,sans-Serif" font-size="10.00">flistframe.h</text>
</a>
</g>
</g>
<!-- Node7&#45;&gt;Node8 -->
<g id="edge9" class="edge"><title>Node7&#45;&gt;Node8</title>
<path fill="none" stroke="midnightblue" d="M759.931,-392.226C751.723,-370.039 727.127,-311.241 687,-280 659.071,-258.255 620.288,-246.846 590.783,-240.965"/>
<polygon fill="midnightblue" stroke="midnightblue" points="591.237,-237.489 580.767,-239.107 589.961,-244.372 591.237,-237.489"/>
</g>
<!-- Node9 -->
<g id="node10" class="node"><title>Node9</title>
<g id="a_node10"><a xlink:href="fwidgets_8h.html" target="_top" xlink:title="fwidgets.h">
<polygon fill="white" stroke="black" points="694,-112.5 694,-131.5 756,-131.5 756,-112.5 694,-112.5"/>
<text text-anchor="middle" x="725" y="-119.5" font-family="Helvetica,sans-Serif" font-size="10.00">fwidgets.h</text>
</a>
</g>
</g>
<!-- Node7&#45;&gt;Node9 -->
<g id="edge21" class="edge"><title>Node7&#45;&gt;Node9</title>
<path fill="none" stroke="midnightblue" d="M761.737,-392.153C759.928,-379.631 756.435,-356.031 753,-336 741.686,-270.018 731.25,-254.652 725,-188 723.55,-172.532 723.659,-154.902 724.07,-141.909"/>
<polygon fill="midnightblue" stroke="midnightblue" points="727.57,-141.989 724.478,-131.856 720.576,-141.706 727.57,-141.989"/>
</g>
<!-- Node16 -->
<g id="node17" class="node"><title>Node16</title>
<g id="a_node17"><a xlink:href="common_8h.html" target="_top" xlink:title="Code de la classe common, qui regroupe des utilitaires communs à l&#39;interface graphique MainWindow...">
<polygon fill="white" stroke="black" points="790,-224.5 790,-243.5 852,-243.5 852,-224.5 790,-224.5"/>
<text text-anchor="middle" x="821" y="-231.5" font-family="Helvetica,sans-Serif" font-size="10.00">common.h</text>
</a>
</g>
</g>
<!-- Node7&#45;&gt;Node16 -->
<g id="edge22" class="edge"><title>Node7&#45;&gt;Node16</title>
<path fill="none" stroke="midnightblue" d="M779.103,-392.456C805.053,-377.652 855.209,-344.498 875,-300 883.915,-279.956 863.992,-261.151 845.878,-248.976"/>
<polygon fill="midnightblue" stroke="midnightblue" points="847.593,-245.92 837.265,-243.555 843.864,-251.844 847.593,-245.92"/>
</g>
<!-- Node17 -->
<g id="node18" class="node"><title>Node17</title>
<g id="a_node18"><a xlink:href="altair-gui_8h.html" target="_top" xlink:title="Code de la classe MainWindow qui construit l&#39;interface graphique. ">
<polygon fill="white" stroke="black" points="501,-336.5 501,-355.5 563,-355.5 563,-336.5 501,-336.5"/>
<text text-anchor="middle" x="532" y="-343.5" font-family="Helvetica,sans-Serif" font-size="10.00">altair&#45;gui.h</text>
</a>
</g>
</g>
<!-- Node7&#45;&gt;Node17 -->
<g id="edge27" class="edge"><title>Node7&#45;&gt;Node17</title>
<path fill="none" stroke="midnightblue" d="M739.756,-396.489C700.621,-388.064 621.631,-369.723 573.044,-357.89"/>
<polygon fill="midnightblue" stroke="midnightblue" points="573.709,-354.45 563.163,-355.47 572.043,-361.249 573.709,-354.45"/>
</g>
<!-- Node8&#45;&gt;Node4 -->
<g id="edge14" class="edge"><title>Node8&#45;&gt;Node4</title>
<path fill="none" stroke="midnightblue" d="M515.323,-229.592C468.493,-223.959 385.94,-210.977 368,-188 334.397,-144.963 411.804,-100.827 457.11,-79.7361"/>
<polygon fill="midnightblue" stroke="midnightblue" points="458.579,-82.9132 466.239,-75.594 455.686,-76.5386 458.579,-82.9132"/>
</g>
<!-- Node8&#45;&gt;Node9 -->
<g id="edge10" class="edge"><title>Node8&#45;&gt;Node9</title>
<path fill="none" stroke="midnightblue" d="M515.249,-231.368C455.886,-227.268 340.176,-213.356 380,-168 399.795,-145.456 596.653,-130.8 683.826,-125.367"/>
<polygon fill="midnightblue" stroke="midnightblue" points="684.126,-128.856 693.894,-124.751 683.698,-121.869 684.126,-128.856"/>
</g>
<!-- Node12 -->
<g id="node13" class="node"><title>Node12</title>
<g id="a_node13"><a xlink:href="tools_8h.html" target="_top" xlink:title="tools.h">
<polygon fill="white" stroke="black" points="734,-168.5 734,-187.5 780,-187.5 780,-168.5 734,-168.5"/>
<text text-anchor="middle" x="757" y="-175.5" font-family="Helvetica,sans-Serif" font-size="10.00">tools.h</text>
</a>
</g>
</g>
<!-- Node8&#45;&gt;Node12 -->
<g id="edge15" class="edge"><title>Node8&#45;&gt;Node12</title>
<path fill="none" stroke="midnightblue" d="M580.656,-224.562C619.756,-214.46 684.863,-197.638 724.079,-187.506"/>
<polygon fill="midnightblue" stroke="midnightblue" points="725.129,-190.85 733.935,-184.959 723.378,-184.072 725.129,-190.85"/>
</g>
<!-- Node13 -->
<g id="node14" class="node"><title>Node13</title>
<polygon fill="white" stroke="#bfbfbf" points="606.5,-168.5 606.5,-187.5 677.5,-187.5 677.5,-168.5 606.5,-168.5"/>
<text text-anchor="middle" x="642" y="-175.5" font-family="Helvetica,sans-Serif" font-size="10.00">QToolButton</text>
</g>
<!-- Node8&#45;&gt;Node13 -->
<g id="edge18" class="edge"><title>Node8&#45;&gt;Node13</title>
<path fill="none" stroke="midnightblue" d="M563.103,-224.324C577.903,-215.822 600.694,-202.729 617.982,-192.797"/>
<polygon fill="midnightblue" stroke="midnightblue" points="620.007,-195.671 626.935,-187.655 616.52,-189.601 620.007,-195.671"/>
</g>
<!-- Node14 -->
<g id="node15" class="node"><title>Node14</title>
<polygon fill="white" stroke="#bfbfbf" points="389,-168.5 389,-187.5 489,-187.5 489,-168.5 389,-168.5"/>
<text text-anchor="middle" x="439" y="-175.5" font-family="Helvetica,sans-Serif" font-size="10.00">QFileSystemModel</text>
</g>
<!-- Node8&#45;&gt;Node14 -->
<g id="edge19" class="edge"><title>Node8&#45;&gt;Node14</title>
<path fill="none" stroke="midnightblue" d="M530.487,-224.324C512.928,-215.625 485.669,-202.12 465.469,-192.113"/>
<polygon fill="midnightblue" stroke="midnightblue" points="466.984,-188.958 456.469,-187.655 463.876,-195.23 466.984,-188.958"/>
</g>
<!-- Node15 -->
<g id="node16" class="node"><title>Node15</title>
<polygon fill="white" stroke="#bfbfbf" points="507.5,-168.5 507.5,-187.5 588.5,-187.5 588.5,-168.5 507.5,-168.5"/>
<text text-anchor="middle" x="548" y="-175.5" font-family="Helvetica,sans-Serif" font-size="10.00">QMessageBox</text>
</g>
<!-- Node8&#45;&gt;Node15 -->
<g id="edge20" class="edge"><title>Node8&#45;&gt;Node15</title>
<path fill="none" stroke="midnightblue" d="M548,-224.083C548,-217.006 548,-206.861 548,-197.986"/>
<polygon fill="midnightblue" stroke="midnightblue" points="551.5,-197.751 548,-187.751 544.5,-197.751 551.5,-197.751"/>
</g>
<!-- Node9&#45;&gt;Node4 -->
<g id="edge12" class="edge"><title>Node9&#45;&gt;Node4</title>
<path fill="none" stroke="midnightblue" d="M693.886,-113.94C649.84,-103.947 569.502,-85.7189 522.959,-75.1587"/>
<polygon fill="midnightblue" stroke="midnightblue" points="523.535,-71.7006 513.009,-72.9011 521.986,-78.5271 523.535,-71.7006"/>
</g>
<!-- Node10 -->
<g id="node11" class="node"><title>Node10</title>
<polygon fill="white" stroke="#bfbfbf" points="759.5,-56.5 759.5,-75.5 822.5,-75.5 822.5,-56.5 759.5,-56.5"/>
<text text-anchor="middle" x="791" y="-63.5" font-family="Helvetica,sans-Serif" font-size="10.00">QtWidgets</text>
</g>
<!-- Node9&#45;&gt;Node10 -->
<g id="edge11" class="edge"><title>Node9&#45;&gt;Node10</title>
<path fill="none" stroke="midnightblue" d="M735.604,-112.324C745.456,-104.263 760.351,-92.0765 772.215,-82.3695"/>
<polygon fill="midnightblue" stroke="midnightblue" points="774.68,-84.8752 780.203,-75.8339 770.247,-79.4575 774.68,-84.8752"/>
</g>
<!-- Node11 -->
<g id="node12" class="node"><title>Node11</title>
<g id="a_node12"><a xlink:href="tags_8h.html" target="_top" xlink:title="tags.h">
<polygon fill="white" stroke="black" points="697,-56.5 697,-75.5 741,-75.5 741,-56.5 697,-56.5"/>
<text text-anchor="middle" x="719" y="-63.5" font-family="Helvetica,sans-Serif" font-size="10.00">tags.h</text>
</a>
</g>
</g>
<!-- Node9&#45;&gt;Node11 -->
<g id="edge13" class="edge"><title>Node9&#45;&gt;Node11</title>
<path fill="none" stroke="midnightblue" d="M724.009,-112.083C723.214,-104.927 722.071,-94.6353 721.077,-85.6911"/>
<polygon fill="midnightblue" stroke="midnightblue" points="724.555,-85.3034 719.972,-75.7511 717.598,-86.0765 724.555,-85.3034"/>
</g>
<!-- Node12&#45;&gt;Node9 -->
<g id="edge17" class="edge"><title>Node12&#45;&gt;Node9</title>
<path fill="none" stroke="midnightblue" d="M751.716,-168.083C747.289,-160.613 740.837,-149.724 735.382,-140.52"/>
<polygon fill="midnightblue" stroke="midnightblue" points="738.295,-138.57 730.186,-131.751 732.273,-142.138 738.295,-138.57"/>
</g>
<!-- Node12&#45;&gt;Node10 -->
<g id="edge16" class="edge"><title>Node12&#45;&gt;Node10</title>
<path fill="none" stroke="midnightblue" d="M759.668,-168.368C765.18,-150.537 777.927,-109.295 785.352,-85.2717"/>
<polygon fill="midnightblue" stroke="midnightblue" points="788.735,-86.179 788.344,-75.5914 782.047,-84.1119 788.735,-86.179"/>
</g>
<!-- Node16&#45;&gt;Node9 -->
<g id="edge24" class="edge"><title>Node16&#45;&gt;Node9</title>
<path fill="none" stroke="midnightblue" d="M818.255,-224.207C813.778,-210.909 803.882,-185.394 789,-168 778.271,-155.459 763.308,-144.686 750.548,-136.827"/>
<polygon fill="midnightblue" stroke="midnightblue" points="752.131,-133.697 741.739,-131.636 748.577,-139.728 752.131,-133.697"/>
</g>
<!-- Node16&#45;&gt;Node10 -->
<g id="edge23" class="edge"><title>Node16&#45;&gt;Node10</title>
<path fill="none" stroke="midnightblue" d="M819.557,-224.16C817.501,-211.646 813.583,-188.055 810,-168 804.861,-139.235 798.521,-105.94 794.62,-85.6819"/>
<polygon fill="midnightblue" stroke="midnightblue" points="798.013,-84.7915 792.68,-75.6369 791.14,-86.1192 798.013,-84.7915"/>
</g>
<!-- Node16&#45;&gt;Node12 -->
<g id="edge25" class="edge"><title>Node16&#45;&gt;Node12</title>
<path fill="none" stroke="midnightblue" d="M810.717,-224.324C801.164,-216.263 786.72,-204.077 775.216,-194.369"/>
<polygon fill="midnightblue" stroke="midnightblue" points="777.37,-191.608 767.47,-187.834 772.856,-196.958 777.37,-191.608"/>
</g>
<!-- Node17&#45;&gt;Node1 -->
<g id="edge32" class="edge"><title>Node17&#45;&gt;Node1</title>
<path fill="none" stroke="midnightblue" d="M500.843,-341.918C431.47,-334.994 259.034,-317.443 115,-300 102.957,-298.542 89.7172,-296.794 78.2097,-295.228"/>
<polygon fill="midnightblue" stroke="midnightblue" points="78.5961,-291.748 68.2128,-293.855 77.6434,-298.683 78.5961,-291.748"/>
</g>
<!-- Node17&#45;&gt;Node7 -->
<g id="edge46" class="edge"><title>Node17&#45;&gt;Node7</title>
<path fill="none" stroke="midnightblue" d="M563.032,-353.203C606.629,-362.749 685.29,-381.085 729.939,-392.063"/>
<polygon fill="midnightblue" stroke="midnightblue" points="729.172,-395.479 739.72,-394.486 730.856,-388.684 729.172,-395.479"/>
</g>
<!-- Node17&#45;&gt;Node16 -->
<g id="edge40" class="edge"><title>Node17&#45;&gt;Node16</title>
<path fill="none" stroke="midnightblue" d="M563.093,-337.624C594.755,-329.731 645.023,-316.141 687,-300 726.334,-284.875 769.898,-262.662 796.363,-248.517"/>
<polygon fill="midnightblue" stroke="midnightblue" points="798.158,-251.526 805.3,-243.699 794.836,-245.364 798.158,-251.526"/>
</g>
<!-- Node18 -->
<g id="node19" class="node"><title>Node18</title>
<polygon fill="white" stroke="#bfbfbf" points="450,-280.5 450,-299.5 530,-299.5 530,-280.5 450,-280.5"/>
<text text-anchor="middle" x="490" y="-287.5" font-family="Helvetica,sans-Serif" font-size="10.00">QMainWindow</text>
</g>
<!-- Node17&#45;&gt;Node18 -->
<g id="edge28" class="edge"><title>Node17&#45;&gt;Node18</title>
<path fill="none" stroke="midnightblue" d="M525.065,-336.083C519.071,-328.377 510.248,-317.033 502.952,-307.653"/>
<polygon fill="midnightblue" stroke="midnightblue" points="505.709,-305.496 496.806,-299.751 500.183,-309.793 505.709,-305.496"/>
</g>
<!-- Node19 -->
<g id="node20" class="node"><title>Node19</title>
<polygon fill="white" stroke="#bfbfbf" points="548,-280.5 548,-299.5 600,-299.5 600,-280.5 548,-280.5"/>
<text text-anchor="middle" x="574" y="-287.5" font-family="Helvetica,sans-Serif" font-size="10.00">QDialog</text>
</g>
<!-- Node17&#45;&gt;Node19 -->
<g id="edge29" class="edge"><title>Node17&#45;&gt;Node19</title>
<path fill="none" stroke="midnightblue" d="M538.935,-336.083C544.929,-328.377 553.752,-317.033 561.048,-307.653"/>
<polygon fill="midnightblue" stroke="midnightblue" points="563.817,-309.793 567.194,-299.751 558.291,-305.496 563.817,-309.793"/>
</g>
<!-- Node20 -->
<g id="node21" class="node"><title>Node20</title>
<polygon fill="white" stroke="#bfbfbf" points="618,-280.5 618,-299.5 678,-299.5 678,-280.5 618,-280.5"/>
<text text-anchor="middle" x="648" y="-287.5" font-family="Helvetica,sans-Serif" font-size="10.00">QProcess</text>
</g>
<!-- Node17&#45;&gt;Node20 -->
<g id="edge30" class="edge"><title>Node17&#45;&gt;Node20</title>
<path fill="none" stroke="midnightblue" d="M550.381,-336.444C569.216,-327.675 598.731,-313.935 620.379,-303.858"/>
<polygon fill="midnightblue" stroke="midnightblue" points="622.117,-306.91 629.705,-299.516 619.162,-300.564 622.117,-306.91"/>
</g>
<!-- Node21 -->
<g id="node22" class="node"><title>Node21</title>
<polygon fill="white" stroke="#bfbfbf" points="212,-280.5 212,-299.5 280,-299.5 280,-280.5 212,-280.5"/>
<text text-anchor="middle" x="246" y="-287.5" font-family="Helvetica,sans-Serif" font-size="10.00">QDomNode</text>
</g>
<!-- Node17&#45;&gt;Node21 -->
<g id="edge31" class="edge"><title>Node17&#45;&gt;Node21</title>
<path fill="none" stroke="midnightblue" d="M500.885,-339.477C456.427,-331.532 371.917,-316.24 290.201,-300.203"/>
<polygon fill="midnightblue" stroke="midnightblue" points="290.741,-296.742 280.253,-298.244 289.388,-303.61 290.741,-296.742"/>
</g>
<!-- Node22 -->
<g id="node23" class="node"><title>Node22</title>
<polygon fill="white" stroke="#bfbfbf" points="298,-280.5 298,-299.5 342,-299.5 342,-280.5 298,-280.5"/>
<text text-anchor="middle" x="320" y="-287.5" font-family="Helvetica,sans-Serif" font-size="10.00">QtXml</text>
</g>
<!-- Node17&#45;&gt;Node22 -->
<g id="edge33" class="edge"><title>Node17&#45;&gt;Node22</title>
<path fill="none" stroke="midnightblue" d="M500.838,-337.642C466.602,-329.473 409.768,-315.662 351.979,-300.191"/>
<polygon fill="midnightblue" stroke="midnightblue" points="352.888,-296.812 342.322,-297.593 351.069,-303.571 352.888,-296.812"/>
</g>
<!-- Node17&#45;&gt;Node23 -->
<g id="edge34" class="edge"><title>Node17&#45;&gt;Node23</title>
<path fill="none" stroke="midnightblue" d="M563.025,-339.525C619.329,-329.589 738.17,-308.617 799.532,-297.788"/>
<polygon fill="midnightblue" stroke="midnightblue" points="800.342,-301.2 809.581,-296.015 799.125,-294.306 800.342,-301.2"/>
</g>
<!-- Node25 -->
<g id="node26" class="node"><title>Node25</title>
<g id="a_node26"><a xlink:href="highlighter_8h.html" target="_top" xlink:title="Code de l&#39;utilitaire de colorisation du code XML du projet .alt. ">
<polygon fill="white" stroke="black" points="124.5,-280.5 124.5,-299.5 193.5,-299.5 193.5,-280.5 124.5,-280.5"/>
<text text-anchor="middle" x="159" y="-287.5" font-family="Helvetica,sans-Serif" font-size="10.00">highlighter.h</text>
</a>
</g>
</g>
<!-- Node17&#45;&gt;Node25 -->
<g id="edge41" class="edge"><title>Node17&#45;&gt;Node25</title>
<path fill="none" stroke="midnightblue" d="M500.595,-341.403C443.601,-334.724 319.142,-319.45 203.623,-300.001"/>
<polygon fill="midnightblue" stroke="midnightblue" points="203.992,-296.514 193.547,-298.29 202.82,-303.415 203.992,-296.514"/>
</g>
<!-- Node28 -->
<g id="node29" class="node"><title>Node28</title>
<g id="a_node29"><a xlink:href="gui__enums_8h.html" target="_top" xlink:title="Code de constantes et de classes regroupant des constantes. ">
<polygon fill="white" stroke="black" points="360,-280.5 360,-299.5 432,-299.5 432,-280.5 360,-280.5"/>
<text text-anchor="middle" x="396" y="-287.5" font-family="Helvetica,sans-Serif" font-size="10.00">gui_enums.h</text>
</a>
</g>
</g>
<!-- Node17&#45;&gt;Node28 -->
<g id="edge44" class="edge"><title>Node17&#45;&gt;Node28</title>
<path fill="none" stroke="midnightblue" d="M510.45,-336.444C487.969,-327.517 452.512,-313.439 427.02,-303.317"/>
<polygon fill="midnightblue" stroke="midnightblue" points="428.035,-299.954 417.449,-299.516 425.451,-306.46 428.035,-299.954"/>
</g>
<!-- Node23&#45;&gt;Node16 -->
<g id="edge39" class="edge"><title>Node23&#45;&gt;Node16</title>
<path fill="none" stroke="midnightblue" d="M835.193,-280.083C832.915,-272.849 829.629,-262.409 826.792,-253.397"/>
<polygon fill="midnightblue" stroke="midnightblue" points="830.096,-252.239 823.755,-243.751 823.419,-254.341 830.096,-252.239"/>
</g>
<!-- Node23&#45;&gt;Node24 -->
<g id="edge35" class="edge"><title>Node23&#45;&gt;Node24</title>
<path fill="none" stroke="midnightblue" d="M843.493,-280.368C854.994,-262.296 881.797,-220.176 896.986,-196.307"/>
<polygon fill="midnightblue" stroke="midnightblue" points="900.117,-197.907 902.533,-187.591 894.211,-194.149 900.117,-197.907"/>
</g>
<!-- Node24&#45;&gt;Node4 -->
<g id="edge37" class="edge"><title>Node24&#45;&gt;Node4</title>
<path fill="none" stroke="midnightblue" d="M892.662,-168.37C867.042,-154.34 813.554,-126.677 765,-112 680.54,-86.4688 577.005,-74.571 523.263,-69.7728"/>
<polygon fill="midnightblue" stroke="midnightblue" points="523.463,-66.2771 513.199,-68.9059 522.862,-73.2513 523.463,-66.2771"/>
</g>
<!-- Node24&#45;&gt;Node6 -->
<g id="edge38" class="edge"><title>Node24&#45;&gt;Node6</title>
<path fill="none" stroke="midnightblue" d="M910.204,-168.075C916.658,-141.945 935.611,-65.2106 944.412,-29.577"/>
<polygon fill="midnightblue" stroke="midnightblue" points="947.884,-30.1156 946.884,-19.5681 941.088,-28.4371 947.884,-30.1156"/>
</g>
<!-- Node24&#45;&gt;Node9 -->
<g id="edge36" class="edge"><title>Node24&#45;&gt;Node9</title>
<path fill="none" stroke="midnightblue" d="M879.003,-168.444C847.815,-159.241 798.07,-144.562 763.592,-134.388"/>
<polygon fill="midnightblue" stroke="midnightblue" points="764.443,-130.99 753.861,-131.516 762.462,-137.704 764.443,-130.99"/>
</g>
<!-- Node26 -->
<g id="node27" class="node"><title>Node26</title>
<polygon fill="white" stroke="#bfbfbf" points="124.5,-224.5 124.5,-243.5 225.5,-243.5 225.5,-224.5 124.5,-224.5"/>
<text text-anchor="middle" x="175" y="-231.5" font-family="Helvetica,sans-Serif" font-size="10.00">QSyntaxHighlighter</text>
</g>
<!-- Node25&#45;&gt;Node26 -->
<g id="edge42" class="edge"><title>Node25&#45;&gt;Node26</title>
<path fill="none" stroke="midnightblue" d="M161.642,-280.083C163.786,-272.849 166.879,-262.409 169.549,-253.397"/>
<polygon fill="midnightblue" stroke="midnightblue" points="172.922,-254.333 172.407,-243.751 166.21,-252.345 172.922,-254.333"/>
</g>
<!-- Node27 -->
<g id="node28" class="node"><title>Node27</title>
<polygon fill="white" stroke="#bfbfbf" points="243.5,-224.5 243.5,-243.5 338.5,-243.5 338.5,-224.5 243.5,-224.5"/>
<text text-anchor="middle" x="291" y="-231.5" font-family="Helvetica,sans-Serif" font-size="10.00">QTextCharFormat</text>
</g>
<!-- Node25&#45;&gt;Node27 -->
<g id="edge43" class="edge"><title>Node25&#45;&gt;Node27</title>
<path fill="none" stroke="midnightblue" d="M179.916,-280.444C201.736,-271.517 236.15,-257.439 260.892,-247.317"/>
<polygon fill="midnightblue" stroke="midnightblue" points="262.252,-250.542 270.182,-243.516 259.601,-244.063 262.252,-250.542"/>
</g>
<!-- Node29 -->
<g id="node30" class="node"><title>Node29</title>
<polygon fill="white" stroke="#bfbfbf" points="373,-224.5 373,-243.5 419,-243.5 419,-224.5 373,-224.5"/>
<text text-anchor="middle" x="396" y="-231.5" font-family="Helvetica,sans-Serif" font-size="10.00">cstdint</text>
</g>
<!-- Node28&#45;&gt;Node29 -->
<g id="edge45" class="edge"><title>Node28&#45;&gt;Node29</title>
<path fill="none" stroke="midnightblue" d="M396,-280.083C396,-273.006 396,-262.861 396,-253.986"/>
<polygon fill="midnightblue" stroke="midnightblue" points="399.5,-253.751 396,-243.751 392.5,-253.751 399.5,-253.751"/>
</g>
<!-- Node30&#45;&gt;Node6 -->
<g id="edge50" class="edge"><title>Node30&#45;&gt;Node6</title>
<path fill="none" stroke="midnightblue" d="M994.158,-392.223C998.525,-373.663 1008,-329.017 1008,-291 1008,-291 1008,-291 1008,-121 1008,-84.0242 981.791,-47.4724 964.309,-27.2051"/>
<polygon fill="midnightblue" stroke="midnightblue" points="966.736,-24.6691 957.453,-19.5623 961.525,-29.3434 966.736,-24.6691"/>
</g>
<!-- Node31 -->
<g id="node32" class="node"><title>Node31</title>
<polygon fill="white" stroke="#bfbfbf" points="1036.5,-336.5 1036.5,-355.5 1083.5,-355.5 1083.5,-336.5 1036.5,-336.5"/>
<text text-anchor="middle" x="1060" y="-343.5" font-family="Helvetica,sans-Serif" font-size="10.00">QLabel</text>
</g>
<!-- Node30&#45;&gt;Node31 -->
<g id="edge48" class="edge"><title>Node30&#45;&gt;Node31</title>
<path fill="none" stroke="midnightblue" d="M1002.93,-392.324C1013.17,-384.185 1028.72,-371.839 1041,-362.087"/>
<polygon fill="midnightblue" stroke="midnightblue" points="1043.22,-364.794 1048.88,-355.834 1038.87,-359.312 1043.22,-364.794"/>
</g>
<!-- Node32 -->
<g id="node33" class="node"><title>Node32</title>
<polygon fill="white" stroke="#bfbfbf" points="1102,-336.5 1102,-355.5 1180,-355.5 1180,-336.5 1102,-336.5"/>
<text text-anchor="middle" x="1141" y="-343.5" font-family="Helvetica,sans-Serif" font-size="10.00">QHBoxLayout</text>
</g>
<!-- Node30&#45;&gt;Node32 -->
<g id="edge49" class="edge"><title>Node30&#45;&gt;Node32</title>
<path fill="none" stroke="midnightblue" d="M1015.61,-392.444C1040.46,-383.438 1079.77,-369.189 1107.75,-359.049"/>
<polygon fill="midnightblue" stroke="midnightblue" points="1109.29,-362.214 1117.5,-355.516 1106.91,-355.633 1109.29,-362.214"/>
</g>
<!-- Node34 -->
<g id="node35" class="node"><title>Node34</title>
<polygon fill="white" stroke="#bfbfbf" points="1198.5,-336.5 1198.5,-355.5 1245.5,-355.5 1245.5,-336.5 1198.5,-336.5"/>
<text text-anchor="middle" x="1222" y="-343.5" font-family="Helvetica,sans-Serif" font-size="10.00">QHash</text>
</g>
<!-- Node33&#45;&gt;Node34 -->
<g id="edge53" class="edge"><title>Node33&#45;&gt;Node34</title>
<path fill="none" stroke="midnightblue" d="M1215.32,-392.083C1216.38,-384.927 1217.91,-374.635 1219.23,-365.691"/>
<polygon fill="midnightblue" stroke="midnightblue" points="1222.7,-366.156 1220.7,-355.751 1215.78,-365.13 1222.7,-366.156"/>
</g>
</g>
</svg>
