<?xml version="1.0" encoding="UTF-8" standalone="no"?>
<!DOCTYPE svg PUBLIC "-//W3C//DTD SVG 1.1//EN"
 "http://www.w3.org/Graphics/SVG/1.1/DTD/svg11.dtd">
<!-- Generated by graphviz version 2.40.1 (20161225.0304)
 -->
<!-- Title: Interface/gui/options.cpp Pages: 1 -->
<!--zoomable 476 -->
<svg id="main" version="1.1" xmlns="http://www.w3.org/2000/svg" xmlns:xlink="http://www.w3.org/1999/xlink" xml:space="preserve" onload="init(evt)">
<style type="text/css"><![CDATA[
.edge:hover path { stroke: red; }
.edge:hover polygon { stroke: red; fill: red; }
]]></style>
<script type="text/javascript"><![CDATA[
var edges = document.getElementsByTagName('g');
if (edges && edges.length) {
  for (var i=0;i<edges.length;i++) {
    if (edges[i].id.substr(0,4)=='edge') {
      edges[i].setAttribute('class','edge');
    }
  }
}
]]></script>
        <defs>
                <circle id="rim" cx="0" cy="0" r="7"/>
                <circle id="rim2" cx="0" cy="0" r="3.5"/>
                <g id="zoomPlus">
                        <use xlink:href="#rim" fill="#404040">
                                <set attributeName="fill" to="#808080" begin="zoomplus.mouseover" end="zoomplus.mouseout"/>
                        </use>
                        <path d="M-4,0h8M0,-4v8" fill="none" stroke="white" stroke-width="1.5" pointer-events="none"/>
                </g>
                <g id="zoomMin">
                        <use xlink:href="#rim" fill="#404040">
                                <set attributeName="fill" to="#808080" begin="zoomminus.mouseover" end="zoomminus.mouseout"/>
                        </use>
                        <path d="M-4,0h8" fill="none" stroke="white" stroke-width="1.5" pointer-events="none"/>
                </g>
                <g id="dirArrow">
                        <path fill="none" stroke="white" stroke-width="1.5" d="M0,-3.0v7 M-2.5,-0.5L0,-3.0L2.5,-0.5"/>
                </g>
               <g id="resetDef">
                       <use xlink:href="#rim2" fill="#404040">
                               <set attributeName="fill" to="#808080" begin="reset.mouseover" end="reset.mouseout"/>
                       </use>
               </g>
        </defs>

<script type="text/javascript">
var viewWidth = 1452;
var viewHeight = 476;
var sectionId = 'dynsection-0';
</script>
<script xlink:href="svgpan.js"/>
<svg id="graph" class="graph">
<g id="viewport">
<title>Interface/gui/options.cpp</title>
<polygon fill="#ffffff" stroke="transparent" points="-4,4 -4,-472 1448.365,-472 1448.365,4 -4,4"/>
<!-- Node0 -->
<g id="node1" class="node">
<title>Node0</title>
<polygon fill="#bfbfbf" stroke="#000000" points="187.865,-448.5 187.865,-467.5 311.865,-467.5 311.865,-448.5 187.865,-448.5"/>
<text text-anchor="middle" x="249.865" y="-455.5" font-family="Helvetica,sans-Serif" font-size="10.00" fill="#000000">Interface/gui/options.cpp</text>
</g>
<!-- Node1 -->
<g id="node2" class="node">
<title>Node1</title>
<polygon fill="#ffffff" stroke="#bfbfbf" points="241.865,-280.5 241.865,-299.5 281.865,-299.5 281.865,-280.5 241.865,-280.5"/>
<text text-anchor="middle" x="261.865" y="-287.5" font-family="Helvetica,sans-Serif" font-size="10.00" fill="#000000">QFile</text>
</g>
<!-- Node0&#45;&gt;Node1 -->
<g id="edge1" class="edge">
<title>Node0&#45;&gt;Node1</title>
<path fill="none" stroke="#191970" d="M250.5446,-448.4862C252.4415,-421.9293 257.8247,-346.5651 260.4246,-310.1655"/>
<polygon fill="#191970" stroke="#191970" points="263.9416,-310.0519 261.163,-299.8279 256.9594,-309.5531 263.9416,-310.0519"/>
</g>
<!-- Node2 -->
<g id="node3" class="node">
<title>Node2</title>
<polygon fill="#ffffff" stroke="#bfbfbf" points="28.865,-392.5 28.865,-411.5 72.865,-411.5 72.865,-392.5 28.865,-392.5"/>
<text text-anchor="middle" x="50.865" y="-399.5" font-family="Helvetica,sans-Serif" font-size="10.00" fill="#000000">thread</text>
</g>
<!-- Node0&#45;&gt;Node2 -->
<g id="edge2" class="edge">
<title>Node0&#45;&gt;Node2</title>
<path fill="none" stroke="#191970" d="M213.0249,-448.4209C180.9634,-439.9714 133.0294,-427.0691 82.8958,-412.2237"/>
<polygon fill="#191970" stroke="#191970" points="83.7619,-408.8298 73.1789,-409.3298 81.7639,-415.5386 83.7619,-408.8298"/>
</g>
<!-- Node3 -->
<g id="node4" class="node">
<title>Node3</title>
<polygon fill="#ffffff" stroke="#bfbfbf" points="90.865,-392.5 90.865,-411.5 140.865,-411.5 140.865,-392.5 90.865,-392.5"/>
<text text-anchor="middle" x="115.865" y="-399.5" font-family="Helvetica,sans-Serif" font-size="10.00" fill="#000000">fstream</text>
</g>
<!-- Node0&#45;&gt;Node3 -->
<g id="edge3" class="edge">
<title>Node0&#45;&gt;Node3</title>
<path fill="none" stroke="#191970" d="M226.8296,-448.3733C205.1262,-439.3032 172.4032,-425.6279 148.1101,-415.4755"/>
<polygon fill="#191970" stroke="#191970" points="149.1761,-412.1278 138.5999,-411.5011 146.477,-418.5865 149.1761,-412.1278"/>
</g>
<!-- Node4 -->
<g id="node5" class="node">
<title>Node4</title>
<polygon fill="#ffffff" stroke="#bfbfbf" points="158.865,-392.5 158.865,-411.5 202.865,-411.5 202.865,-392.5 158.865,-392.5"/>
<text text-anchor="middle" x="180.865" y="-399.5" font-family="Helvetica,sans-Serif" font-size="10.00" fill="#000000">vector</text>
</g>
<!-- Node0&#45;&gt;Node4 -->
<g id="edge4" class="edge">
<title>Node0&#45;&gt;Node4</title>
<path fill="none" stroke="#191970" d="M237.8461,-448.2455C227.6552,-439.9746 212.8288,-427.9416 200.8543,-418.2232"/>
<polygon fill="#191970" stroke="#191970" points="202.7164,-415.2268 192.7462,-411.6427 198.3052,-420.662 202.7164,-415.2268"/>
</g>
<!-- Node5 -->
<g id="node6" class="node">
<title>Node5</title>
<g id="a_node6"><a xlink:href="fstring_8h.html" target="_top" xlink:title="fstring.h">
<polygon fill="#ffffff" stroke="#000000" points="639.865,-56.5 639.865,-75.5 691.865,-75.5 691.865,-56.5 639.865,-56.5"/>
<text text-anchor="middle" x="665.865" y="-63.5" font-family="Helvetica,sans-Serif" font-size="10.00" fill="#000000">fstring.h</text>
</a>
</g>
</g>
<!-- Node0&#45;&gt;Node5 -->
<g id="edge5" class="edge">
<title>Node0&#45;&gt;Node5</title>
<path fill="none" stroke="#191970" d="M187.7613,-452.8106C128.2111,-446.5923 43.9102,-434.13 19.865,-412 -2.5951,-391.3288 .865,-376.5246 .865,-346 .865,-346 .865,-346 .865,-178 .865,-113.6735 490.9777,-77.2495 629.6857,-68.2291"/>
<polygon fill="#191970" stroke="#191970" points="630.0411,-71.7136 639.7962,-67.5799 629.5925,-64.728 630.0411,-71.7136"/>
</g>
<!-- Node8 -->
<g id="node9" class="node">
<title>Node8</title>
<g id="a_node9"><a xlink:href="altair_8h.html" target="_top" xlink:title="Code de la classe principale Altair, qui joue le rôle d&#39;agent de l&#39;interface graphique. ">
<polygon fill="#ffffff" stroke="#000000" points="808.865,-392.5 808.865,-411.5 854.865,-411.5 854.865,-392.5 808.865,-392.5"/>
<text text-anchor="middle" x="831.865" y="-399.5" font-family="Helvetica,sans-Serif" font-size="10.00" fill="#000000">altair.h</text>
</a>
</g>
</g>
<!-- Node0&#45;&gt;Node8 -->
<g id="edge8" class="edge">
<title>Node0&#45;&gt;Node8</title>
<path fill="none" stroke="#191970" d="M311.8735,-452.0336C434.5552,-440.2291 704.5174,-414.2534 798.6799,-405.1931"/>
<polygon fill="#191970" stroke="#191970" points="799.1462,-408.6645 808.765,-404.2227 798.4757,-401.6966 799.1462,-408.6645"/>
</g>
<!-- Node24 -->
<g id="node25" class="node">
<title>Node24</title>
<g id="a_node25"><a xlink:href="options_8h.html" target="_top" xlink:title="Code des classes du dialogue d&#39;options. ">
<polygon fill="#ffffff" stroke="#000000" points="299.865,-280.5 299.865,-299.5 355.865,-299.5 355.865,-280.5 299.865,-280.5"/>
<text text-anchor="middle" x="327.865" y="-287.5" font-family="Helvetica,sans-Serif" font-size="10.00" fill="#000000">options.h</text>
</a>
</g>
</g>
<!-- Node0&#45;&gt;Node24 -->
<g id="edge57" class="edge">
<title>Node0&#45;&gt;Node24</title>
<path fill="none" stroke="#191970" d="M254.2821,-448.4862C266.7189,-421.6994 302.2102,-345.2565 318.9373,-309.2289"/>
<polygon fill="#191970" stroke="#191970" points="322.2654,-310.3719 323.3021,-299.8279 315.9164,-307.4241 322.2654,-310.3719"/>
</g>
<!-- Node25 -->
<g id="node26" class="node">
<title>Node25</title>
<g id="a_node26"><a xlink:href="flineframe_8h.html" target="_top" xlink:title="Ce fichier contient la classe FLineFrame, dérivée fonctionnelle de FLineEdit. ">
<polygon fill="#ffffff" stroke="#000000" points="609.865,-168.5 609.865,-187.5 677.865,-187.5 677.865,-168.5 609.865,-168.5"/>
<text text-anchor="middle" x="643.865" y="-175.5" font-family="Helvetica,sans-Serif" font-size="10.00" fill="#000000">flineframe.h</text>
</a>
</g>
</g>
<!-- Node0&#45;&gt;Node25 -->
<g id="edge60" class="edge">
<title>Node0&#45;&gt;Node25</title>
<path fill="none" stroke="#191970" d="M245.2225,-448.2716C232.4578,-419.9905 199.9001,-336.2423 232.865,-280 258.6231,-236.0536 284.6528,-240.4421 332.865,-224 424.4285,-192.7736 538.2858,-182.7363 599.6728,-179.516"/>
<polygon fill="#191970" stroke="#191970" points="599.9679,-183.0058 609.7854,-179.0227 599.6268,-176.0141 599.9679,-183.0058"/>
</g>
<!-- Node32 -->
<g id="node33" class="node">
<title>Node32</title>
<g id="a_node33"><a xlink:href="forms_8h.html" target="_top" xlink:title="forms.h">
<polygon fill="#ffffff" stroke="#000000" points="1226.865,-392.5 1226.865,-411.5 1276.865,-411.5 1276.865,-392.5 1226.865,-392.5"/>
<text text-anchor="middle" x="1251.865" y="-399.5" font-family="Helvetica,sans-Serif" font-size="10.00" fill="#000000">forms.h</text>
</a>
</g>
</g>
<!-- Node0&#45;&gt;Node32 -->
<g id="edge53" class="edge">
<title>Node0&#45;&gt;Node32</title>
<path fill="none" stroke="#191970" d="M312.166,-454.5181C501.9567,-443.911 1068.9815,-412.221 1216.4791,-403.9777"/>
<polygon fill="#191970" stroke="#191970" points="1216.9627,-407.4562 1226.7518,-403.4035 1216.5721,-400.4671 1216.9627,-407.4562"/>
</g>
<!-- Node35 -->
<g id="node36" class="node">
<title>Node35</title>
<g id="a_node36"><a xlink:href="templates_8h.html" target="_top" xlink:title="templates.h">
<polygon fill="#ffffff" stroke="#000000" points="1355.865,-392.5 1355.865,-411.5 1423.865,-411.5 1423.865,-392.5 1355.865,-392.5"/>
<text text-anchor="middle" x="1389.865" y="-399.5" font-family="Helvetica,sans-Serif" font-size="10.00" fill="#000000">templates.h</text>
</a>
</g>
</g>
<!-- Node0&#45;&gt;Node35 -->
<g id="edge58" class="edge">
<title>Node0&#45;&gt;Node35</title>
<path fill="none" stroke="#191970" d="M312.1117,-456.3539C473.2155,-451.8509 917.0198,-437.9043 1285.865,-412 1305.4683,-410.6232 1327.1057,-408.6208 1345.5446,-406.7688"/>
<polygon fill="#191970" stroke="#191970" points="1346.1154,-410.2288 1355.7081,-405.7311 1345.4043,-403.265 1346.1154,-410.2288"/>
</g>
<!-- Node6 -->
<g id="node7" class="node">
<title>Node6</title>
<polygon fill="#ffffff" stroke="#bfbfbf" points="641.865,-.5 641.865,-19.5 689.865,-19.5 689.865,-.5 641.865,-.5"/>
<text text-anchor="middle" x="665.865" y="-7.5" font-family="Helvetica,sans-Serif" font-size="10.00" fill="#000000">QtCore</text>
</g>
<!-- Node5&#45;&gt;Node6 -->
<g id="edge6" class="edge">
<title>Node5&#45;&gt;Node6</title>
<path fill="none" stroke="#191970" d="M665.865,-56.2455C665.865,-48.9382 665.865,-38.6944 665.865,-29.7046"/>
<polygon fill="#191970" stroke="#191970" points="669.3651,-29.6426 665.865,-19.6427 662.3651,-29.6427 669.3651,-29.6426"/>
</g>
<!-- Node7 -->
<g id="node8" class="node">
<title>Node7</title>
<g id="a_node8"><a xlink:href="enums_8h.html" target="_top" xlink:title="Enumérations et constantes permettant de paramétrer les fwidgets. ">
<polygon fill="#ffffff" stroke="#000000" points="999.865,-.5 999.865,-19.5 1053.865,-19.5 1053.865,-.5 999.865,-.5"/>
<text text-anchor="middle" x="1026.865" y="-7.5" font-family="Helvetica,sans-Serif" font-size="10.00" fill="#000000">enums.h</text>
</a>
</g>
</g>
<!-- Node5&#45;&gt;Node7 -->
<g id="edge7" class="edge">
<title>Node5&#45;&gt;Node7</title>
<path fill="none" stroke="#191970" d="M691.9679,-60.2677C699.0559,-58.7916 706.7409,-57.2644 713.865,-56 813.0906,-38.3887 930.8695,-22.3922 989.6335,-14.7427"/>
<polygon fill="#191970" stroke="#191970" points="990.0958,-18.2121 999.5633,-13.4565 989.1966,-11.2701 990.0958,-18.2121"/>
</g>
<!-- Node8&#45;&gt;Node5 -->
<g id="edge9" class="edge">
<title>Node8&#45;&gt;Node5</title>
<path fill="none" stroke="#191970" d="M808.5176,-400.5381C691.6582,-392.9173 175.865,-355.5672 175.865,-290 175.865,-290 175.865,-290 175.865,-178 175.865,-85.01 515.4785,-69.226 629.2358,-66.5474"/>
<polygon fill="#191970" stroke="#191970" points="629.5978,-70.0405 639.5205,-66.3269 629.4477,-63.0421 629.5978,-70.0405"/>
</g>
<!-- Node8&#45;&gt;Node7 -->
<g id="edge27" class="edge">
<title>Node8&#45;&gt;Node7</title>
<path fill="none" stroke="#191970" d="M855.1698,-400.6694C898.9904,-397.4933 995.9907,-387.2366 1070.865,-356 1200.1103,-302.0805 1330.865,-318.0416 1330.865,-178 1330.865,-178 1330.865,-178 1330.865,-122 1330.865,-65.8161 1145.7256,-29.1138 1064.4093,-15.7032"/>
<polygon fill="#191970" stroke="#191970" points="1064.541,-12.1791 1054.1105,-14.0381 1063.4237,-19.0894 1064.541,-12.1791"/>
</g>
<!-- Node9 -->
<g id="node10" class="node">
<title>Node9</title>
<g id="a_node10"><a xlink:href="flistframe_8h.html" target="_top" xlink:title="flistframe.h">
<polygon fill="#ffffff" stroke="#000000" points="1031.365,-224.5 1031.365,-243.5 1096.365,-243.5 1096.365,-224.5 1031.365,-224.5"/>
<text text-anchor="middle" x="1063.865" y="-231.5" font-family="Helvetica,sans-Serif" font-size="10.00" fill="#000000">flistframe.h</text>
</a>
</g>
</g>
<!-- Node8&#45;&gt;Node9 -->
<g id="edge10" class="edge">
<title>Node8&#45;&gt;Node9</title>
<path fill="none" stroke="#191970" d="M855.2383,-400.4363C906.0072,-396.5296 1023.8898,-384.5308 1049.865,-356 1075.2333,-328.1359 1072.2452,-280.5916 1067.9641,-253.8254"/>
<polygon fill="#191970" stroke="#191970" points="1071.3634,-252.9557 1066.129,-243.7442 1064.4765,-254.2094 1071.3634,-252.9557"/>
</g>
<!-- Node10 -->
<g id="node11" class="node">
<title>Node10</title>
<g id="a_node11"><a xlink:href="fwidgets_8h.html" target="_top" xlink:title="fwidgets.h">
<polygon fill="#ffffff" stroke="#000000" points="806.865,-112.5 806.865,-131.5 868.865,-131.5 868.865,-112.5 806.865,-112.5"/>
<text text-anchor="middle" x="837.865" y="-119.5" font-family="Helvetica,sans-Serif" font-size="10.00" fill="#000000">fwidgets.h</text>
</a>
</g>
</g>
<!-- Node8&#45;&gt;Node10 -->
<g id="edge22" class="edge">
<title>Node8&#45;&gt;Node10</title>
<path fill="none" stroke="#191970" d="M854.9638,-395.8558C877.4832,-388.9882 911.7653,-376.1149 935.865,-356 958.9566,-336.7265 965.031,-328.7515 973.865,-300 984.8989,-264.0888 964.9775,-248.9208 936.865,-224 910.0927,-200.2673 889.1927,-214.2329 864.865,-188 852.7902,-174.9795 845.7701,-155.8299 841.9312,-141.5071"/>
<polygon fill="#191970" stroke="#191970" points="845.3109,-140.5907 839.5846,-131.6767 838.5022,-142.2161 845.3109,-140.5907"/>
</g>
<!-- Node17 -->
<g id="node18" class="node">
<title>Node17</title>
<g id="a_node18"><a xlink:href="common_8h.html" target="_top" xlink:title="Code de la classe common, qui regroupe des utilitaires communs à l&#39;interface graphique MainWindow...">
<polygon fill="#ffffff" stroke="#000000" points="865.865,-224.5 865.865,-243.5 927.865,-243.5 927.865,-224.5 865.865,-224.5"/>
<text text-anchor="middle" x="896.865" y="-231.5" font-family="Helvetica,sans-Serif" font-size="10.00" fill="#000000">common.h</text>
</a>
</g>
</g>
<!-- Node8&#45;&gt;Node17 -->
<g id="edge23" class="edge">
<title>Node8&#45;&gt;Node17</title>
<path fill="none" stroke="#191970" d="M852.8189,-392.4578C882.621,-377.5753 936.0519,-345.723 957.865,-300 967.6968,-279.3914 946.3536,-260.7767 926.2652,-248.6109"/>
<polygon fill="#191970" stroke="#191970" points="927.9579,-245.5472 917.5346,-243.6481 924.4986,-251.6327 927.9579,-245.5472"/>
</g>
<!-- Node18 -->
<g id="node19" class="node">
<title>Node18</title>
<g id="a_node19"><a xlink:href="altair-gui_8h.html" target="_top" xlink:title="Code de la classe MainWindow qui construit l&#39;interface graphique. ">
<polygon fill="#ffffff" stroke="#000000" points="634.865,-336.5 634.865,-355.5 696.865,-355.5 696.865,-336.5 634.865,-336.5"/>
<text text-anchor="middle" x="665.865" y="-343.5" font-family="Helvetica,sans-Serif" font-size="10.00" fill="#000000">altair&#45;gui.h</text>
</a>
</g>
</g>
<!-- Node8&#45;&gt;Node18 -->
<g id="edge28" class="edge">
<title>Node8&#45;&gt;Node18</title>
<path fill="none" stroke="#191970" d="M808.682,-395.6849C779.8937,-386.8194 731.0159,-370.4805 698.4994,-358.965"/>
<polygon fill="#191970" stroke="#191970" points="699.5683,-355.6302 688.9737,-355.5596 697.2119,-362.2217 699.5683,-355.6302"/>
</g>
<!-- Node9&#45;&gt;Node5 -->
<g id="edge15" class="edge">
<title>Node9&#45;&gt;Node5</title>
<path fill="none" stroke="#191970" d="M1049.4852,-224.3085C1030.263,-211.3776 995.1034,-187.8095 964.865,-168 926.3998,-142.801 920.3474,-129.6015 877.865,-112 818.8817,-87.5618 745.0525,-75.3182 701.9037,-69.835"/>
<polygon fill="#191970" stroke="#191970" points="702.2318,-66.3491 691.8818,-68.6135 701.3848,-73.2977 702.2318,-66.3491"/>
</g>
<!-- Node9&#45;&gt;Node10 -->
<g id="edge11" class="edge">
<title>Node9&#45;&gt;Node10</title>
<path fill="none" stroke="#191970" d="M1044.5964,-224.4509C1004.734,-204.6961 913.0434,-159.2565 866.3345,-136.1088"/>
<polygon fill="#191970" stroke="#191970" points="867.5991,-132.8293 857.0849,-131.5249 864.4908,-139.1014 867.5991,-132.8293"/>
</g>
<!-- Node13 -->
<g id="node14" class="node">
<title>Node13</title>
<g id="a_node14"><a xlink:href="tools_8h.html" target="_top" xlink:title="tools.h">
<polygon fill="#ffffff" stroke="#000000" points="873.865,-168.5 873.865,-187.5 919.865,-187.5 919.865,-168.5 873.865,-168.5"/>
<text text-anchor="middle" x="896.865" y="-175.5" font-family="Helvetica,sans-Serif" font-size="10.00" fill="#000000">tools.h</text>
</a>
</g>
</g>
<!-- Node9&#45;&gt;Node13 -->
<g id="edge16" class="edge">
<title>Node9&#45;&gt;Node13</title>
<path fill="none" stroke="#191970" d="M1035.1567,-224.3733C1005.9154,-214.5678 960.6235,-199.3801 929.9071,-189.08"/>
<polygon fill="#191970" stroke="#191970" points="930.6871,-185.6501 920.0932,-185.7891 928.4616,-192.2869 930.6871,-185.6501"/>
</g>
<!-- Node14 -->
<g id="node15" class="node">
<title>Node14</title>
<polygon fill="#ffffff" stroke="#bfbfbf" points="1231.365,-168.5 1231.365,-187.5 1302.365,-187.5 1302.365,-168.5 1231.365,-168.5"/>
<text text-anchor="middle" x="1266.865" y="-175.5" font-family="Helvetica,sans-Serif" font-size="10.00" fill="#000000">QToolButton</text>
</g>
<!-- Node9&#45;&gt;Node14 -->
<g id="edge19" class="edge">
<title>Node9&#45;&gt;Node14</title>
<path fill="none" stroke="#191970" d="M1096.4805,-225.0026C1130.6377,-215.58 1184.5012,-200.7211 1222.5084,-190.2363"/>
<polygon fill="#191970" stroke="#191970" points="1223.5831,-193.5706 1232.2923,-187.5373 1221.7216,-186.8227 1223.5831,-193.5706"/>
</g>
<!-- Node15 -->
<g id="node16" class="node">
<title>Node15</title>
<polygon fill="#ffffff" stroke="#bfbfbf" points="1013.865,-168.5 1013.865,-187.5 1113.865,-187.5 1113.865,-168.5 1013.865,-168.5"/>
<text text-anchor="middle" x="1063.865" y="-175.5" font-family="Helvetica,sans-Serif" font-size="10.00" fill="#000000">QFileSystemModel</text>
</g>
<!-- Node9&#45;&gt;Node15 -->
<g id="edge20" class="edge">
<title>Node9&#45;&gt;Node15</title>
<path fill="none" stroke="#191970" d="M1063.865,-224.2455C1063.865,-216.9382 1063.865,-206.6944 1063.865,-197.7046"/>
<polygon fill="#191970" stroke="#191970" points="1067.3651,-197.6426 1063.865,-187.6427 1060.3651,-197.6427 1067.3651,-197.6426"/>
</g>
<!-- Node16 -->
<g id="node17" class="node">
<title>Node16</title>
<polygon fill="#ffffff" stroke="#bfbfbf" points="1132.365,-168.5 1132.365,-187.5 1213.365,-187.5 1213.365,-168.5 1132.365,-168.5"/>
<text text-anchor="middle" x="1172.865" y="-175.5" font-family="Helvetica,sans-Serif" font-size="10.00" fill="#000000">QMessageBox</text>
</g>
<!-- Node9&#45;&gt;Node16 -->
<g id="edge21" class="edge">
<title>Node9&#45;&gt;Node16</title>
<path fill="none" stroke="#191970" d="M1082.8514,-224.2455C1100.0442,-215.4125 1125.5888,-202.2887 1145.0782,-192.2758"/>
<polygon fill="#191970" stroke="#191970" points="1146.8009,-195.3257 1154.0962,-187.6427 1143.602,-189.0993 1146.8009,-195.3257"/>
</g>
<!-- Node10&#45;&gt;Node5 -->
<g id="edge13" class="edge">
<title>Node10&#45;&gt;Node5</title>
<path fill="none" stroke="#191970" d="M808.2972,-112.3733C778.7428,-102.7509 733.269,-87.9455 701.6842,-77.6621"/>
<polygon fill="#191970" stroke="#191970" points="702.5476,-74.2624 691.9553,-74.4945 700.3804,-80.9185 702.5476,-74.2624"/>
</g>
<!-- Node11 -->
<g id="node12" class="node">
<title>Node11</title>
<polygon fill="#ffffff" stroke="#bfbfbf" points="779.365,-56.5 779.365,-75.5 842.365,-75.5 842.365,-56.5 779.365,-56.5"/>
<text text-anchor="middle" x="810.865" y="-63.5" font-family="Helvetica,sans-Serif" font-size="10.00" fill="#000000">QtWidgets</text>
</g>
<!-- Node10&#45;&gt;Node11 -->
<g id="edge12" class="edge">
<title>Node10&#45;&gt;Node11</title>
<path fill="none" stroke="#191970" d="M833.162,-112.2455C829.5227,-104.6973 824.3726,-94.0158 819.9388,-84.8197"/>
<polygon fill="#191970" stroke="#191970" points="823.0099,-83.1303 815.5142,-75.6427 816.7045,-86.1704 823.0099,-83.1303"/>
</g>
<!-- Node12 -->
<g id="node13" class="node">
<title>Node12</title>
<g id="a_node13"><a xlink:href="tags_8h.html" target="_top" xlink:title="tags.h">
<polygon fill="#ffffff" stroke="#000000" points="860.865,-56.5 860.865,-75.5 904.865,-75.5 904.865,-56.5 860.865,-56.5"/>
<text text-anchor="middle" x="882.865" y="-63.5" font-family="Helvetica,sans-Serif" font-size="10.00" fill="#000000">tags.h</text>
</a>
</g>
</g>
<!-- Node10&#45;&gt;Node12 -->
<g id="edge14" class="edge">
<title>Node10&#45;&gt;Node12</title>
<path fill="none" stroke="#191970" d="M845.7034,-112.2455C852.0271,-104.3761 861.0874,-93.101 868.6786,-83.6542"/>
<polygon fill="#191970" stroke="#191970" points="871.5808,-85.6302 875.1164,-75.6427 866.1242,-81.2454 871.5808,-85.6302"/>
</g>
<!-- Node13&#45;&gt;Node10 -->
<g id="edge18" class="edge">
<title>Node13&#45;&gt;Node10</title>
<path fill="none" stroke="#191970" d="M886.588,-168.2455C878.0432,-160.1352 865.6872,-148.4075 855.5565,-138.7919"/>
<polygon fill="#191970" stroke="#191970" points="857.6869,-135.9884 848.0243,-131.6427 852.8679,-141.0655 857.6869,-135.9884"/>
</g>
<!-- Node13&#45;&gt;Node11 -->
<g id="edge17" class="edge">
<title>Node13&#45;&gt;Node11</title>
<path fill="none" stroke="#191970" d="M896.1055,-168.147C894.6152,-154.399 890.2784,-129.2155 877.865,-112 868.3439,-98.7957 853.7961,-88.15 840.6863,-80.4387"/>
<polygon fill="#191970" stroke="#191970" points="842.3617,-77.3657 831.9195,-75.5735 838.965,-83.4863 842.3617,-77.3657"/>
</g>
<!-- Node17&#45;&gt;Node10 -->
<g id="edge25" class="edge">
<title>Node17&#45;&gt;Node10</title>
<path fill="none" stroke="#191970" d="M873.7538,-224.4901C858.8353,-216.9878 840.6319,-204.9445 831.865,-188 824.4391,-173.6473 826.9676,-155.1769 830.763,-141.4275"/>
<polygon fill="#191970" stroke="#191970" points="834.1993,-142.1726 833.9124,-131.5817 827.5321,-140.0399 834.1993,-142.1726"/>
</g>
<!-- Node17&#45;&gt;Node11 -->
<g id="edge24" class="edge">
<title>Node17&#45;&gt;Node11</title>
<path fill="none" stroke="#191970" d="M875.0229,-224.4248C859.1352,-216.5508 838.0155,-204.0822 823.865,-188 800.2825,-161.1982 792.9642,-147.3617 797.865,-112 799.1008,-103.0835 801.6232,-93.4647 804.1201,-85.3395"/>
<polygon fill="#191970" stroke="#191970" points="807.4897,-86.296 807.2774,-75.7033 800.8377,-84.1164 807.4897,-86.296"/>
</g>
<!-- Node17&#45;&gt;Node13 -->
<g id="edge26" class="edge">
<title>Node17&#45;&gt;Node13</title>
<path fill="none" stroke="#191970" d="M896.865,-224.2455C896.865,-216.9382 896.865,-206.6944 896.865,-197.7046"/>
<polygon fill="#191970" stroke="#191970" points="900.3651,-197.6426 896.865,-187.6427 893.3651,-197.6427 900.3651,-197.6426"/>
</g>
<!-- Node18&#45;&gt;Node1 -->
<g id="edge33" class="edge">
<title>Node18&#45;&gt;Node1</title>
<path fill="none" stroke="#191970" d="M634.8607,-344.4024C571.7604,-340.6824 423.899,-329.5749 291.8692,-299.814"/>
<polygon fill="#191970" stroke="#191970" points="292.5181,-296.372 281.9883,-297.5445 290.951,-303.1944 292.5181,-296.372"/>
</g>
<!-- Node18&#45;&gt;Node8 -->
<g id="edge47" class="edge">
<title>Node18&#45;&gt;Node8</title>
<path fill="none" stroke="#191970" d="M696.9124,-354.7649C726.0789,-363.9419 769.3443,-378.4541 799.0546,-388.9727"/>
<polygon fill="#191970" stroke="#191970" points="797.976,-392.304 808.5706,-392.3733 800.3316,-385.7122 797.976,-392.304"/>
</g>
<!-- Node18&#45;&gt;Node17 -->
<g id="edge41" class="edge">
<title>Node18&#45;&gt;Node17</title>
<path fill="none" stroke="#191970" d="M697.0827,-343.0369C765.7785,-336.2019 925.2066,-318.4952 940.865,-300 954.4001,-284.0128 936.3167,-263.723 919.4102,-249.8878"/>
<polygon fill="#191970" stroke="#191970" points="921.4026,-247.0043 911.3489,-243.6616 917.1238,-252.5443 921.4026,-247.0043"/>
</g>
<!-- Node19 -->
<g id="node20" class="node">
<title>Node19</title>
<polygon fill="#ffffff" stroke="#bfbfbf" points="499.865,-280.5 499.865,-299.5 579.865,-299.5 579.865,-280.5 499.865,-280.5"/>
<text text-anchor="middle" x="539.865" y="-287.5" font-family="Helvetica,sans-Serif" font-size="10.00" fill="#000000">QMainWindow</text>
</g>
<!-- Node18&#45;&gt;Node19 -->
<g id="edge29" class="edge">
<title>Node18&#45;&gt;Node19</title>
<path fill="none" stroke="#191970" d="M644.2048,-336.3733C623.8879,-327.3435 593.3011,-313.7494 570.49,-303.6111"/>
<polygon fill="#191970" stroke="#191970" points="571.8022,-300.3642 561.2425,-299.5011 568.9592,-306.7609 571.8022,-300.3642"/>
</g>
<!-- Node20 -->
<g id="node21" class="node">
<title>Node20</title>
<polygon fill="#ffffff" stroke="#bfbfbf" points="757.865,-224.5 757.865,-243.5 809.865,-243.5 809.865,-224.5 757.865,-224.5"/>
<text text-anchor="middle" x="783.865" y="-231.5" font-family="Helvetica,sans-Serif" font-size="10.00" fill="#000000">QDialog</text>
</g>
<!-- Node18&#45;&gt;Node20 -->
<g id="edge30" class="edge">
<title>Node18&#45;&gt;Node20</title>
<path fill="none" stroke="#191970" d="M652.9805,-336.4102C636.7922,-323.1876 612.7421,-298.8546 626.865,-280 627.3347,-279.3729 701.8247,-257.7335 748.0179,-244.3615"/>
<polygon fill="#191970" stroke="#191970" points="749.0558,-247.7049 757.6888,-241.5631 747.11,-240.9807 749.0558,-247.7049"/>
</g>
<!-- Node21 -->
<g id="node22" class="node">
<title>Node21</title>
<polygon fill="#ffffff" stroke="#bfbfbf" points="635.865,-280.5 635.865,-299.5 695.865,-299.5 695.865,-280.5 635.865,-280.5"/>
<text text-anchor="middle" x="665.865" y="-287.5" font-family="Helvetica,sans-Serif" font-size="10.00" fill="#000000">QProcess</text>
</g>
<!-- Node18&#45;&gt;Node21 -->
<g id="edge31" class="edge">
<title>Node18&#45;&gt;Node21</title>
<path fill="none" stroke="#191970" d="M665.865,-336.2455C665.865,-328.9382 665.865,-318.6944 665.865,-309.7046"/>
<polygon fill="#191970" stroke="#191970" points="669.3651,-309.6426 665.865,-299.6427 662.3651,-309.6427 669.3651,-309.6426"/>
</g>
<!-- Node22 -->
<g id="node23" class="node">
<title>Node22</title>
<polygon fill="#ffffff" stroke="#bfbfbf" points="713.865,-280.5 713.865,-299.5 781.865,-299.5 781.865,-280.5 713.865,-280.5"/>
<text text-anchor="middle" x="747.865" y="-287.5" font-family="Helvetica,sans-Serif" font-size="10.00" fill="#000000">QDomNode</text>
</g>
<!-- Node18&#45;&gt;Node22 -->
<g id="edge32" class="edge">
<title>Node18&#45;&gt;Node22</title>
<path fill="none" stroke="#191970" d="M680.1483,-336.2455C692.6121,-327.7337 710.9101,-315.2375 725.3442,-305.3801"/>
<polygon fill="#191970" stroke="#191970" points="727.4612,-308.1726 733.7454,-299.6427 723.5135,-302.392 727.4612,-308.1726"/>
</g>
<!-- Node23 -->
<g id="node24" class="node">
<title>Node23</title>
<polygon fill="#ffffff" stroke="#bfbfbf" points="799.865,-280.5 799.865,-299.5 843.865,-299.5 843.865,-280.5 799.865,-280.5"/>
<text text-anchor="middle" x="821.865" y="-287.5" font-family="Helvetica,sans-Serif" font-size="10.00" fill="#000000">QtXml</text>
</g>
<!-- Node18&#45;&gt;Node23 -->
<g id="edge34" class="edge">
<title>Node18&#45;&gt;Node23</title>
<path fill="none" stroke="#191970" d="M692.6824,-336.3733C719.645,-326.6944 761.2166,-311.7712 789.8817,-301.4812"/>
<polygon fill="#191970" stroke="#191970" points="791.2081,-304.7238 799.4375,-298.0509 788.843,-298.1354 791.2081,-304.7238"/>
</g>
<!-- Node18&#45;&gt;Node24 -->
<g id="edge35" class="edge">
<title>Node18&#45;&gt;Node24</title>
<path fill="none" stroke="#191970" d="M634.4576,-342.3802C581.1972,-335.988 469.6279,-321.5019 366.0629,-300.0684"/>
<polygon fill="#191970" stroke="#191970" points="366.5732,-296.5994 356.0677,-297.9726 365.1366,-303.4504 366.5732,-296.5994"/>
</g>
<!-- Node26 -->
<g id="node27" class="node">
<title>Node26</title>
<g id="a_node27"><a xlink:href="highlighter_8h.html" target="_top" xlink:title="Code de l&#39;utilitaire de colorisation du code XML du projet .alt. ">
<polygon fill="#ffffff" stroke="#000000" points="374.365,-280.5 374.365,-299.5 443.365,-299.5 443.365,-280.5 374.365,-280.5"/>
<text text-anchor="middle" x="408.865" y="-287.5" font-family="Helvetica,sans-Serif" font-size="10.00" fill="#000000">highlighter.h</text>
</a>
</g>
</g>
<!-- Node18&#45;&gt;Node26 -->
<g id="edge42" class="edge">
<title>Node18&#45;&gt;Node26</title>
<path fill="none" stroke="#191970" d="M634.8648,-339.2451C589.682,-329.3998 505.4846,-311.0533 453.5926,-299.7461"/>
<polygon fill="#191970" stroke="#191970" points="454.1821,-296.2925 443.6661,-297.5831 452.6917,-303.132 454.1821,-296.2925"/>
</g>
<!-- Node29 -->
<g id="node30" class="node">
<title>Node29</title>
<g id="a_node30"><a xlink:href="gui__enums_8h.html" target="_top" xlink:title="Code de constantes et de classes regroupant des constantes. ">
<polygon fill="#ffffff" stroke="#000000" points="667.865,-224.5 667.865,-243.5 739.865,-243.5 739.865,-224.5 667.865,-224.5"/>
<text text-anchor="middle" x="703.865" y="-231.5" font-family="Helvetica,sans-Serif" font-size="10.00" fill="#000000">gui_enums.h</text>
</a>
</g>
</g>
<!-- Node18&#45;&gt;Node29 -->
<g id="edge45" class="edge">
<title>Node18&#45;&gt;Node29</title>
<path fill="none" stroke="#191970" d="M634.4828,-344.9607C574.0797,-341.8394 450.9958,-329.3986 490.865,-280 511.3878,-254.5719 601.2029,-242.5153 657.4488,-237.3628"/>
<polygon fill="#191970" stroke="#191970" points="657.8797,-240.8385 667.5362,-236.4794 657.269,-233.8652 657.8797,-240.8385"/>
</g>
<!-- Node31 -->
<g id="node32" class="node">
<title>Node31</title>
<g id="a_node32"><a xlink:href="matricules_8h.html" target="_top" xlink:title="Code de la classe MatriculeInput, qui construit un dialogue d&#39;extraction des bulletins. ">
<polygon fill="#ffffff" stroke="#000000" points="861.865,-280.5 861.865,-299.5 931.865,-299.5 931.865,-280.5 861.865,-280.5"/>
<text text-anchor="middle" x="896.865" y="-287.5" font-family="Helvetica,sans-Serif" font-size="10.00" fill="#000000">matricules.h</text>
</a>
</g>
</g>
<!-- Node18&#45;&gt;Node31 -->
<g id="edge48" class="edge">
<title>Node18&#45;&gt;Node31</title>
<path fill="none" stroke="#191970" d="M697.0187,-338.4476C736.8618,-328.7887 806.1488,-311.9918 851.7596,-300.9346"/>
<polygon fill="#191970" stroke="#191970" points="852.7851,-304.2875 861.679,-298.5299 851.1359,-297.4845 852.7851,-304.2875"/>
</g>
<!-- Node24&#45;&gt;Node17 -->
<g id="edge40" class="edge">
<title>Node24&#45;&gt;Node17</title>
<path fill="none" stroke="#191970" d="M356.0265,-281.8129C358.994,-281.1232 361.9802,-280.4998 364.865,-280 564.3052,-245.4471 617.5333,-264.8758 818.865,-244 830.8385,-242.7585 843.817,-241.1859 855.6878,-239.6576"/>
<polygon fill="#191970" stroke="#191970" points="856.3208,-243.1047 865.7815,-238.3354 855.4115,-236.164 856.3208,-243.1047"/>
</g>
<!-- Node24&#45;&gt;Node25 -->
<g id="edge36" class="edge">
<title>Node24&#45;&gt;Node25</title>
<path fill="none" stroke="#191970" d="M328.2697,-280.1916C329.4389,-265.5405 333.9117,-238.1525 350.865,-224 387.8339,-193.1386 527.2041,-182.8178 599.5963,-179.497"/>
<polygon fill="#191970" stroke="#191970" points="599.9319,-182.9859 609.771,-179.0563 599.6289,-175.9924 599.9319,-182.9859"/>
</g>
<!-- Node25&#45;&gt;Node5 -->
<g id="edge38" class="edge">
<title>Node25&#45;&gt;Node5</title>
<path fill="none" stroke="#191970" d="M645.7407,-168.4509C649.3451,-150.1013 657.3025,-109.5908 662.0603,-85.3693"/>
<polygon fill="#191970" stroke="#191970" points="665.5009,-86.012 663.9941,-75.5249 658.6322,-84.6627 665.5009,-86.012"/>
</g>
<!-- Node25&#45;&gt;Node7 -->
<g id="edge39" class="edge">
<title>Node25&#45;&gt;Node7</title>
<path fill="none" stroke="#191970" d="M650.5054,-168.4478C667.3921,-144.9713 714.5748,-84.3079 769.865,-56 807.719,-36.6192 928.1583,-20.9358 989.7772,-13.9421"/>
<polygon fill="#191970" stroke="#191970" points="990.3039,-17.4052 999.8535,-12.8166 989.5267,-10.4484 990.3039,-17.4052"/>
</g>
<!-- Node25&#45;&gt;Node10 -->
<g id="edge37" class="edge">
<title>Node25&#45;&gt;Node10</title>
<path fill="none" stroke="#191970" d="M677.2148,-168.3733C710.2464,-158.8384 760.9087,-144.2142 796.489,-133.9436"/>
<polygon fill="#191970" stroke="#191970" points="797.9163,-137.1746 806.5533,-131.0384 795.9749,-130.4492 797.9163,-137.1746"/>
</g>
<!-- Node27 -->
<g id="node28" class="node">
<title>Node27</title>
<polygon fill="#ffffff" stroke="#bfbfbf" points="473.365,-224.5 473.365,-243.5 574.365,-243.5 574.365,-224.5 473.365,-224.5"/>
<text text-anchor="middle" x="523.865" y="-231.5" font-family="Helvetica,sans-Serif" font-size="10.00" fill="#000000">QSyntaxHighlighter</text>
</g>
<!-- Node26&#45;&gt;Node27 -->
<g id="edge43" class="edge">
<title>Node26&#45;&gt;Node27</title>
<path fill="none" stroke="#191970" d="M428.6342,-280.3733C447.0119,-271.4241 474.5963,-257.9917 495.3543,-247.8835"/>
<polygon fill="#191970" stroke="#191970" points="496.8954,-251.026 504.3538,-243.5011 493.8307,-244.7325 496.8954,-251.026"/>
</g>
<!-- Node28 -->
<g id="node29" class="node">
<title>Node28</title>
<polygon fill="#ffffff" stroke="#bfbfbf" points="360.365,-224.5 360.365,-243.5 455.365,-243.5 455.365,-224.5 360.365,-224.5"/>
<text text-anchor="middle" x="407.865" y="-231.5" font-family="Helvetica,sans-Serif" font-size="10.00" fill="#000000">QTextCharFormat</text>
</g>
<!-- Node26&#45;&gt;Node28 -->
<g id="edge44" class="edge">
<title>Node26&#45;&gt;Node28</title>
<path fill="none" stroke="#191970" d="M408.6908,-280.2455C408.5603,-272.9382 408.3774,-262.6944 408.2169,-253.7046"/>
<polygon fill="#191970" stroke="#191970" points="411.7153,-253.5786 408.0372,-243.6427 404.7164,-253.7036 411.7153,-253.5786"/>
</g>
<!-- Node30 -->
<g id="node31" class="node">
<title>Node30</title>
<polygon fill="#ffffff" stroke="#bfbfbf" points="695.865,-168.5 695.865,-187.5 741.865,-187.5 741.865,-168.5 695.865,-168.5"/>
<text text-anchor="middle" x="718.865" y="-175.5" font-family="Helvetica,sans-Serif" font-size="10.00" fill="#000000">cstdint</text>
</g>
<!-- Node29&#45;&gt;Node30 -->
<g id="edge46" class="edge">
<title>Node29&#45;&gt;Node30</title>
<path fill="none" stroke="#191970" d="M706.4778,-224.2455C708.4566,-216.8579 711.2394,-206.4689 713.6663,-197.4087"/>
<polygon fill="#191970" stroke="#191970" points="717.0755,-198.2078 716.2822,-187.6427 710.3139,-196.3966 717.0755,-198.2078"/>
</g>
<!-- Node31&#45;&gt;Node17 -->
<g id="edge50" class="edge">
<title>Node31&#45;&gt;Node17</title>
<path fill="none" stroke="#191970" d="M896.865,-280.2455C896.865,-272.9382 896.865,-262.6944 896.865,-253.7046"/>
<polygon fill="#191970" stroke="#191970" points="900.3651,-253.6426 896.865,-243.6427 893.3651,-253.6427 900.3651,-253.6426"/>
</g>
<!-- Node31&#45;&gt;Node20 -->
<g id="edge49" class="edge">
<title>Node31&#45;&gt;Node20</title>
<path fill="none" stroke="#191970" d="M877.4396,-280.3733C859.4629,-271.4644 832.5209,-258.1127 812.156,-248.0203"/>
<polygon fill="#191970" stroke="#191970" points="813.5512,-244.8055 803.0369,-243.5011 810.4429,-251.0776 813.5512,-244.8055"/>
</g>
<!-- Node31&#45;&gt;Node25 -->
<g id="edge51" class="edge">
<title>Node31&#45;&gt;Node25</title>
<path fill="none" stroke="#191970" d="M888.2602,-280.3785C874.8472,-265.9717 847.5068,-238.8985 818.865,-224 807.1892,-217.9267 735.8097,-200.093 687.8949,-188.4984"/>
<polygon fill="#191970" stroke="#191970" points="688.5985,-185.0678 678.0565,-186.1254 686.9571,-191.8726 688.5985,-185.0678"/>
</g>
<!-- Node31&#45;&gt;Node29 -->
<g id="edge52" class="edge">
<title>Node31&#45;&gt;Node29</title>
<path fill="none" stroke="#191970" d="M863.6871,-280.3733C831.3163,-270.9807 781.9253,-256.6496 746.6226,-246.4064"/>
<polygon fill="#191970" stroke="#191970" points="747.1892,-242.9264 736.61,-243.5011 745.2385,-249.6492 747.1892,-242.9264"/>
</g>
<!-- Node32&#45;&gt;Node7 -->
<g id="edge56" class="edge">
<title>Node32&#45;&gt;Node7</title>
<path fill="none" stroke="#191970" d="M1277.1958,-396.4002C1299.4345,-390.1962 1331.0835,-378.0233 1349.865,-356 1369.672,-332.7742 1368.865,-320.5246 1368.865,-290 1368.865,-290 1368.865,-290 1368.865,-122 1368.865,-72.038 1323.7975,-75.6571 1277.865,-56 1206.1889,-25.3257 1114.4446,-15.0865 1064.0945,-11.6825"/>
<polygon fill="#191970" stroke="#191970" points="1064.1987,-8.1823 1054.0007,-11.0549 1063.7642,-15.1688 1064.1987,-8.1823"/>
</g>
<!-- Node33 -->
<g id="node34" class="node">
<title>Node33</title>
<polygon fill="#ffffff" stroke="#bfbfbf" points="1197.365,-336.5 1197.365,-355.5 1244.365,-355.5 1244.365,-336.5 1197.365,-336.5"/>
<text text-anchor="middle" x="1220.865" y="-343.5" font-family="Helvetica,sans-Serif" font-size="10.00" fill="#000000">QLabel</text>
</g>
<!-- Node32&#45;&gt;Node33 -->
<g id="edge54" class="edge">
<title>Node32&#45;&gt;Node33</title>
<path fill="none" stroke="#191970" d="M1246.4652,-392.2455C1242.2423,-384.617 1236.2477,-373.7881 1231.1209,-364.5267"/>
<polygon fill="#191970" stroke="#191970" points="1234.1083,-362.6965 1226.2029,-355.6427 1227.984,-366.0867 1234.1083,-362.6965"/>
</g>
<!-- Node34 -->
<g id="node35" class="node">
<title>Node34</title>
<polygon fill="#ffffff" stroke="#bfbfbf" points="1262.865,-336.5 1262.865,-355.5 1340.865,-355.5 1340.865,-336.5 1262.865,-336.5"/>
<text text-anchor="middle" x="1301.865" y="-343.5" font-family="Helvetica,sans-Serif" font-size="10.00" fill="#000000">QHBoxLayout</text>
</g>
<!-- Node32&#45;&gt;Node34 -->
<g id="edge55" class="edge">
<title>Node32&#45;&gt;Node34</title>
<path fill="none" stroke="#191970" d="M1260.5744,-392.2455C1267.6723,-384.2958 1277.8735,-372.8706 1286.36,-363.3656"/>
<polygon fill="#191970" stroke="#191970" points="1289.2061,-365.4331 1293.2555,-355.6427 1283.9845,-360.771 1289.2061,-365.4331"/>
</g>
<!-- Node36 -->
<g id="node37" class="node">
<title>Node36</title>
<polygon fill="#ffffff" stroke="#bfbfbf" points="1397.365,-336.5 1397.365,-355.5 1444.365,-355.5 1444.365,-336.5 1397.365,-336.5"/>
<text text-anchor="middle" x="1420.865" y="-343.5" font-family="Helvetica,sans-Serif" font-size="10.00" fill="#000000">QHash</text>
</g>
<!-- Node35&#45;&gt;Node36 -->
<g id="edge59" class="edge">
<title>Node35&#45;&gt;Node36</title>
<path fill="none" stroke="#191970" d="M1395.2648,-392.2455C1399.4877,-384.617 1405.4823,-373.7881 1410.6091,-364.5267"/>
<polygon fill="#191970" stroke="#191970" points="1413.746,-366.0867 1415.5271,-355.6427 1407.6218,-362.6965 1413.746,-366.0867"/>
</g>
</g>
</svg>
        <g id="navigator" transform="translate(0 0)" fill="#404254">
                <rect fill="#f2f5e9" fill-opacity="0.5" stroke="#606060" stroke-width=".5" x="0" y="0" width="60" height="60"/>
                <use id="zoomplus" xlink:href="#zoomPlus" x="17" y="9" onmousedown="handleZoom(evt,'in')"/>
                <use id="zoomminus" xlink:href="#zoomMin" x="42" y="9" onmousedown="handleZoom(evt,'out')"/>
                <use id="reset" xlink:href="#resetDef" x="30" y="36" onmousedown="handleReset()"/>
                <g id="arrowUp" xlink:href="#dirArrow" transform="translate(30 24)" onmousedown="handlePan(0,-1)">
                  <use xlink:href="#rim" fill="#404040">
                        <set attributeName="fill" to="#808080" begin="arrowUp.mouseover" end="arrowUp.mouseout"/>
                  </use>
                  <path fill="none" stroke="white" stroke-width="1.5" d="M0,-3.0v7 M-2.5,-0.5L0,-3.0L2.5,-0.5"/>
                </g>
                <g id="arrowRight" xlink:href="#dirArrow" transform="rotate(90) translate(36 -43)" onmousedown="handlePan(1,0)">
                  <use xlink:href="#rim" fill="#404040">
                        <set attributeName="fill" to="#808080" begin="arrowRight.mouseover" end="arrowRight.mouseout"/>
                  </use>
                  <path fill="none" stroke="white" stroke-width="1.5" d="M0,-3.0v7 M-2.5,-0.5L0,-3.0L2.5,-0.5"/>
                </g>
                <g id="arrowDown" xlink:href="#dirArrow" transform="rotate(180) translate(-30 -48)" onmousedown="handlePan(0,1)">
                  <use xlink:href="#rim" fill="#404040">
                        <set attributeName="fill" to="#808080" begin="arrowDown.mouseover" end="arrowDown.mouseout"/>
                  </use>
                  <path fill="none" stroke="white" stroke-width="1.5" d="M0,-3.0v7 M-2.5,-0.5L0,-3.0L2.5,-0.5"/>
                </g>
                <g id="arrowLeft" xlink:href="#dirArrow" transform="rotate(270) translate(-36 17)" onmousedown="handlePan(-1,0)">
                  <use xlink:href="#rim" fill="#404040">
                        <set attributeName="fill" to="#808080" begin="arrowLeft.mouseover" end="arrowLeft.mouseout"/>
                  </use>
                  <path fill="none" stroke="white" stroke-width="1.5" d="M0,-3.0v7 M-2.5,-0.5L0,-3.0L2.5,-0.5"/>
                </g>
        </g>
        <svg viewBox="0 0 15 15" width="100%" height="30px" preserveAspectRatio="xMaxYMin meet">
         <g id="arrow_out" transform="scale(0.3 0.3)">
          <a xlink:href="options_8cpp__incl_org.svg" target="_base">
           <rect id="button" ry="5" rx="5" y="6" x="6" height="38" width="38"
                fill="#f2f5e9" fill-opacity="0.5" stroke="#606060" stroke-width="1.0"/>
           <path id="arrow"
             d="M 11.500037,31.436501 C 11.940474,20.09759 22.043105,11.32322 32.158766,21.979434 L 37.068811,17.246167 C 37.068811,17.246167 37.088388,32 37.088388,32 L 22.160133,31.978069 C 22.160133,31.978069 26.997745,27.140456 26.997745,27.140456 C 18.528582,18.264221 13.291696,25.230495 11.500037,31.436501 z"
             style="fill:#404040;"/>
          </a>
         </g>
        </svg>
</svg>
