<?xml version="1.0" encoding="UTF-8" standalone="no"?>
<!DOCTYPE svg PUBLIC "-//W3C//DTD SVG 1.1//EN"
 "http://www.w3.org/Graphics/SVG/1.1/DTD/svg11.dtd">
<!-- Generated by graphviz version 2.38.0 (20140413.2041)
 -->
<!-- Title: Interface/gui/options.h Pages: 1 -->
<svg width="746pt" height="207pt"
 viewBox="0.00 0.00 745.50 207.00" xmlns="http://www.w3.org/2000/svg" xmlns:xlink="http://www.w3.org/1999/xlink">
<g id="graph0" class="graph" transform="scale(1 1) rotate(0) translate(4 203)">
<title>Interface/gui/options.h</title>
<polygon fill="white" stroke="none" points="-4,4 -4,-203 741.5,-203 741.5,4 -4,4"/>
<!-- Node10 -->
<g id="node1" class="node"><title>Node10</title>
<polygon fill="#bfbfbf" stroke="black" points="308,-179.5 308,-198.5 429,-198.5 429,-179.5 308,-179.5"/>
<text text-anchor="middle" x="368.5" y="-186.5" font-family="Helvetica,sans-Serif" font-size="10.00">Interface/gui/options.h</text>
</g>
<!-- Node11 -->
<g id="node2" class="node"><title>Node11</title>
<g id="a_node2"><a xlink:href="altair-gui_8h.html" target="_top" xlink:title="Code de la classe MainWindow qui construit l&#39;interface graphique. ">
<polygon fill="white" stroke="black" points="318,-112.5 318,-142.5 419,-142.5 419,-112.5 318,-112.5"/>
<text text-anchor="start" x="326" y="-130.5" font-family="Helvetica,sans-Serif" font-size="10.00">Interface/gui/altair</text>
<text text-anchor="middle" x="368.5" y="-119.5" font-family="Helvetica,sans-Serif" font-size="10.00">&#45;gui.h</text>
</a>
</g>
</g>
<!-- Node10&#45;&gt;Node11 -->
<g id="edge1" class="edge"><title>Node10&#45;&gt;Node11</title>
<path fill="none" stroke="midnightblue" d="M368.5,-169.235C368.5,-160.586 368.5,-150.497 368.5,-142.523"/>
<polygon fill="midnightblue" stroke="midnightblue" points="365,-169.475 368.5,-179.475 372,-169.475 365,-169.475"/>
</g>
<!-- Node13 -->
<g id="node4" class="node"><title>Node13</title>
<g id="a_node4"><a xlink:href="altair_8cpp.html" target="_top" xlink:title="Code implémentant la classe principale Altair, qui joue le rôle d&#39;agent de l&#39;interface graphique...">
<polygon fill="white" stroke="black" points="0,-0.5 0,-19.5 121,-19.5 121,-0.5 0,-0.5"/>
<text text-anchor="middle" x="60.5" y="-7.5" font-family="Helvetica,sans-Serif" font-size="10.00">Interface/gui/altair.cpp</text>
</a>
</g>
</g>
<!-- Node10&#45;&gt;Node13 -->
<g id="edge10" class="edge"><title>Node10&#45;&gt;Node13</title>
<path fill="none" stroke="midnightblue" d="M344.809,-174.385C284.286,-139.604 125.268,-48.2206 75.5672,-19.6588"/>
<polygon fill="midnightblue" stroke="midnightblue" points="343.23,-177.515 353.645,-179.463 346.718,-171.446 343.23,-177.515"/>
</g>
<!-- Node15 -->
<g id="node6" class="node"><title>Node15</title>
<g id="a_node6"><a xlink:href="options_8cpp.html" target="_top" xlink:title="Implémentation des classes du dialogue d&#39;options. ">
<polygon fill="white" stroke="black" points="605.5,-0.5 605.5,-19.5 737.5,-19.5 737.5,-0.5 605.5,-0.5"/>
<text text-anchor="middle" x="671.5" y="-7.5" font-family="Helvetica,sans-Serif" font-size="10.00">Interface/gui/options.cpp</text>
</a>
</g>
</g>
<!-- Node10&#45;&gt;Node15 -->
<g id="edge11" class="edge"><title>Node10&#45;&gt;Node15</title>
<path fill="none" stroke="midnightblue" d="M393.633,-174.75C432.135,-154.298 507.844,-113.477 570.5,-76 602.711,-56.7332 639.558,-32.4253 658.597,-19.6906"/>
<polygon fill="midnightblue" stroke="midnightblue" points="391.874,-171.721 384.677,-179.496 395.151,-177.906 391.874,-171.721"/>
</g>
<!-- Node12 -->
<g id="node3" class="node"><title>Node12</title>
<g id="a_node3"><a xlink:href="altair_8h.html" target="_top" xlink:title="Code de la classe principale Altair, qui joue le rôle d&#39;agent de l&#39;interface graphique. ">
<polygon fill="white" stroke="black" points="313.5,-56.5 313.5,-75.5 423.5,-75.5 423.5,-56.5 313.5,-56.5"/>
<text text-anchor="middle" x="368.5" y="-63.5" font-family="Helvetica,sans-Serif" font-size="10.00">Interface/gui/altair.h</text>
</a>
</g>
</g>
<!-- Node11&#45;&gt;Node12 -->
<g id="edge2" class="edge"><title>Node11&#45;&gt;Node12</title>
<path fill="none" stroke="midnightblue" d="M361.855,-102.289C361.493,-92.857 362.065,-82.6548 363.571,-75.6578"/>
<polygon fill="midnightblue" stroke="midnightblue" points="358.377,-102.709 362.66,-112.399 365.355,-102.153 358.377,-102.709"/>
</g>
<!-- Node18 -->
<g id="node9" class="node"><title>Node18</title>
<g id="a_node9"><a xlink:href="_interface_2gui_2main_8cpp.html" target="_top" xlink:title="Lance l&#39;interface graphique en chargeant le bon contexte linguistique et la feuille de style...">
<polygon fill="white" stroke="black" points="441.5,-56.5 441.5,-75.5 561.5,-75.5 561.5,-56.5 441.5,-56.5"/>
<text text-anchor="middle" x="501.5" y="-63.5" font-family="Helvetica,sans-Serif" font-size="10.00">Interface/gui/main.cpp</text>
</a>
</g>
</g>
<!-- Node11&#45;&gt;Node18 -->
<g id="edge9" class="edge"><title>Node11&#45;&gt;Node18</title>
<path fill="none" stroke="midnightblue" d="M409.343,-108.228C433.562,-97.3933 463.143,-84.1596 482.147,-75.6578"/>
<polygon fill="midnightblue" stroke="midnightblue" points="407.718,-105.121 400.019,-112.399 410.577,-111.51 407.718,-105.121"/>
</g>
<!-- Node12&#45;&gt;Node11 -->
<g id="edge3" class="edge"><title>Node12&#45;&gt;Node11</title>
<path fill="none" stroke="midnightblue" d="M374.807,-85.569C375.526,-94.2328 375.37,-104.377 374.34,-112.399"/>
<polygon fill="midnightblue" stroke="midnightblue" points="378.273,-85.0806 373.429,-75.6578 371.34,-86.0445 378.273,-85.0806"/>
</g>
<!-- Node12&#45;&gt;Node13 -->
<g id="edge4" class="edge"><title>Node12&#45;&gt;Node13</title>
<path fill="none" stroke="midnightblue" d="M309.548,-54.6642C251.341,-44.4592 163.387,-29.0386 109.075,-19.5164"/>
<polygon fill="midnightblue" stroke="midnightblue" points="309.242,-58.164 319.696,-56.4435 310.451,-51.2691 309.242,-58.164"/>
</g>
<!-- Node14 -->
<g id="node5" class="node"><title>Node14</title>
<g id="a_node5"><a xlink:href="mainwindow_8cpp.html" target="_top" xlink:title="Code de l&#39;implémentation de la classe MainWindow de l&#39;interface graphique. ">
<polygon fill="white" stroke="black" points="139,-0.5 139,-19.5 294,-19.5 294,-0.5 139,-0.5"/>
<text text-anchor="middle" x="216.5" y="-7.5" font-family="Helvetica,sans-Serif" font-size="10.00">Interface/gui/mainwindow.cpp</text>
</a>
</g>
</g>
<!-- Node12&#45;&gt;Node14 -->
<g id="edge5" class="edge"><title>Node12&#45;&gt;Node14</title>
<path fill="none" stroke="midnightblue" d="M334.832,-53.0392C306.232,-42.8786 265.888,-28.5457 240.472,-19.5164"/>
<polygon fill="midnightblue" stroke="midnightblue" points="333.82,-56.3939 344.415,-56.4435 336.164,-49.7978 333.82,-56.3939"/>
</g>
<!-- Node12&#45;&gt;Node15 -->
<g id="edge6" class="edge"><title>Node12&#45;&gt;Node15</title>
<path fill="none" stroke="midnightblue" d="M426.495,-54.6642C483.757,-44.4592 570.283,-29.0386 623.713,-19.5164"/>
<polygon fill="midnightblue" stroke="midnightblue" points="425.742,-51.2432 416.511,-56.4435 426.97,-58.1346 425.742,-51.2432"/>
</g>
<!-- Node16 -->
<g id="node7" class="node"><title>Node16</title>
<g id="a_node7"><a xlink:href="run_8cpp.html" target="_top" xlink:title="Implémentation de la classe Altair agent de la classe MainWindow qui construit l&#39;interface graphique...">
<polygon fill="white" stroke="black" points="312,-0.5 312,-19.5 425,-19.5 425,-0.5 312,-0.5"/>
<text text-anchor="middle" x="368.5" y="-7.5" font-family="Helvetica,sans-Serif" font-size="10.00">Interface/gui/run.cpp</text>
</a>
</g>
</g>
<!-- Node12&#45;&gt;Node16 -->
<g id="edge7" class="edge"><title>Node12&#45;&gt;Node16</title>
<path fill="none" stroke="midnightblue" d="M368.5,-45.8045C368.5,-36.9102 368.5,-26.7798 368.5,-19.7511"/>
<polygon fill="midnightblue" stroke="midnightblue" points="365,-46.083 368.5,-56.083 372,-46.083 365,-46.083"/>
</g>
<!-- Node17 -->
<g id="node8" class="node"><title>Node17</title>
<g id="a_node8"><a xlink:href="xmlparser_8cpp.html" target="_top" xlink:title="Implémentation de la classe Altair agent de la classe MainWindow qui construit l&#39;interface graphique...">
<polygon fill="white" stroke="black" points="443.5,-0.5 443.5,-19.5 587.5,-19.5 587.5,-0.5 443.5,-0.5"/>
<text text-anchor="middle" x="515.5" y="-7.5" font-family="Helvetica,sans-Serif" font-size="10.00">Interface/gui/xmlparser.cpp</text>
</a>
</g>
</g>
<!-- Node12&#45;&gt;Node17 -->
<g id="edge8" class="edge"><title>Node12&#45;&gt;Node17</title>
<path fill="none" stroke="midnightblue" d="M401.423,-52.9058C429.06,-42.7536 467.844,-28.5063 492.316,-19.5164"/>
<polygon fill="midnightblue" stroke="midnightblue" points="399.972,-49.71 391.793,-56.4435 402.386,-56.2806 399.972,-49.71"/>
</g>
</g>
</svg>
