<?xml version="1.0" encoding="UTF-8" standalone="no"?>
<!DOCTYPE svg PUBLIC "-//W3C//DTD SVG 1.1//EN"
 "http://www.w3.org/Graphics/SVG/1.1/DTD/svg11.dtd">
<!-- Generated by graphviz version 2.38.0 (20140413.2041)
 -->
<!-- Title: scan_mois Pages: 1 -->
<svg width="503pt" height="66pt"
 viewBox="0.00 0.00 503.00 66.00" xmlns="http://www.w3.org/2000/svg" xmlns:xlink="http://www.w3.org/1999/xlink">
<g id="graph0" class="graph" transform="scale(1 1) rotate(0) translate(4 62)">
<title>scan_mois</title>
<polygon fill="white" stroke="none" points="-4,4 -4,-62 499,-62 499,4 -4,4"/>
<!-- Node32 -->
<g id="node1" class="node"><title>Node32</title>
<polygon fill="#bfbfbf" stroke="black" points="0,-19.5 0,-38.5 64,-38.5 64,-19.5 0,-19.5"/>
<text text-anchor="middle" x="32" y="-26.5" font-family="Helvetica,sans-Serif" font-size="10.00">scan_mois</text>
</g>
<!-- Node33 -->
<g id="node2" class="node"><title>Node33</title>
<g id="a_node2"><a xlink:href="recherche_8cpp.html#a142c86cfc71536c9cfaf6fa9e47a1611" target="_top" xlink:title="__scan_mois">
<polygon fill="white" stroke="black" points="100,-38.5 100,-57.5 174,-57.5 174,-38.5 100,-38.5"/>
<text text-anchor="middle" x="137" y="-45.5" font-family="Helvetica,sans-Serif" font-size="10.00">__scan_mois</text>
</a>
</g>
</g>
<!-- Node32&#45;&gt;Node33 -->
<g id="edge1" class="edge"><title>Node32&#45;&gt;Node33</title>
<path fill="none" stroke="midnightblue" d="M64.1829,-34.7522C72.2688,-36.2438 81.1505,-37.8821 89.8282,-39.4829"/>
<polygon fill="midnightblue" stroke="midnightblue" points="89.3924,-42.9615 99.8614,-41.3337 90.6623,-36.0776 89.3924,-42.9615"/>
</g>
<!-- Node37 -->
<g id="node6" class="node"><title>Node37</title>
<g id="a_node6"><a xlink:href="fonctions__auxiliaires_8cpp.html#add313f0fe82466f4c1c4622307d928bc" target="_top" xlink:title="Scinde une chaîne de caractères en ses composants séparées par un délimiteur. ">
<polygon fill="white" stroke="black" points="119.5,-0.5 119.5,-19.5 154.5,-19.5 154.5,-0.5 119.5,-0.5"/>
<text text-anchor="middle" x="137" y="-7.5" font-family="Helvetica,sans-Serif" font-size="10.00">split</text>
</a>
</g>
</g>
<!-- Node32&#45;&gt;Node37 -->
<g id="edge5" class="edge"><title>Node32&#45;&gt;Node37</title>
<path fill="none" stroke="midnightblue" d="M64.1829,-23.2478C78.6209,-20.5845 95.5961,-17.4531 109.417,-14.9037"/>
<polygon fill="midnightblue" stroke="midnightblue" points="110.078,-18.3409 119.277,-13.0849 108.808,-11.4571 110.078,-18.3409"/>
</g>
<!-- Node34 -->
<g id="node3" class="node"><title>Node34</title>
<g id="a_node3"><a xlink:href="recherche_8cpp.html#a36576fe3eaca7bc6525c43d9bed05738" target="_top" xlink:title="Crée le répertoire d&#39;exportation d&#39;un bulletin de paye donné pour un matricule, un mois et une année ...">
<polygon fill="white" stroke="black" points="210,-38.5 210,-57.5 284,-57.5 284,-38.5 210,-38.5"/>
<text text-anchor="middle" x="247" y="-45.5" font-family="Helvetica,sans-Serif" font-size="10.00">bulletin_paye</text>
</a>
</g>
</g>
<!-- Node33&#45;&gt;Node34 -->
<g id="edge2" class="edge"><title>Node33&#45;&gt;Node34</title>
<path fill="none" stroke="midnightblue" d="M174.263,-48C182.366,-48 191.069,-48 199.521,-48"/>
<polygon fill="midnightblue" stroke="midnightblue" points="199.649,-51.5001 209.649,-48 199.649,-44.5001 199.649,-51.5001"/>
</g>
<!-- Node35 -->
<g id="node4" class="node"><title>Node35</title>
<g id="a_node4"><a xlink:href="recherche_8cpp.html#a7c170acf1897b8bcf6e41e3853db1ae0" target="_top" xlink:title="recherche">
<polygon fill="white" stroke="black" points="320,-38.5 320,-57.5 379,-57.5 379,-38.5 320,-38.5"/>
<text text-anchor="middle" x="349.5" y="-45.5" font-family="Helvetica,sans-Serif" font-size="10.00">recherche</text>
</a>
</g>
</g>
<!-- Node34&#45;&gt;Node35 -->
<g id="edge3" class="edge"><title>Node34&#45;&gt;Node35</title>
<path fill="none" stroke="midnightblue" d="M284.283,-48C292.506,-48 301.271,-48 309.597,-48"/>
<polygon fill="midnightblue" stroke="midnightblue" points="309.835,-51.5001 319.835,-48 309.835,-44.5001 309.835,-51.5001"/>
</g>
<!-- Node36 -->
<g id="node5" class="node"><title>Node36</title>
<g id="a_node5"><a xlink:href="recherche_8cpp.html#abb222aafededdf9d279d03b5fb62bc11" target="_top" xlink:title="Extrait le bulletin de paye correspondant à la ligne de début et de fin dans le fichier XML base de p...">
<polygon fill="white" stroke="black" points="415,-38.5 415,-57.5 495,-57.5 495,-38.5 415,-38.5"/>
<text text-anchor="middle" x="455" y="-45.5" font-family="Helvetica,sans-Serif" font-size="10.00">extraire_lignes</text>
</a>
</g>
</g>
<!-- Node35&#45;&gt;Node36 -->
<g id="edge4" class="edge"><title>Node35&#45;&gt;Node36</title>
<path fill="none" stroke="midnightblue" d="M379.056,-48C386.969,-48 395.794,-48 404.533,-48"/>
<polygon fill="midnightblue" stroke="midnightblue" points="404.691,-51.5001 414.691,-48 404.691,-44.5001 404.691,-51.5001"/>
</g>
</g>
</svg>
