<?xml version="1.0" encoding="UTF-8" standalone="no"?>
<!DOCTYPE svg PUBLIC "-//W3C//DTD SVG 1.1//EN"
 "http://www.w3.org/Graphics/SVG/1.1/DTD/svg11.dtd">
<!-- Generated by graphviz version 2.40.1 (20161225.0304)
 -->
<!-- Title: lhx/recherche.h Pages: 1 -->
<svg width="192pt" height="84pt"
 viewBox="0.00 0.00 192.00 84.00" xmlns="http://www.w3.org/2000/svg" xmlns:xlink="http://www.w3.org/1999/xlink">
<g id="graph0" class="graph" transform="scale(1 1) rotate(0) translate(4 80)">
<title>lhx/recherche.h</title>
<polygon fill="#ffffff" stroke="transparent" points="-4,4 -4,-80 188,-80 188,4 -4,4"/>
<!-- Node35 -->
<g id="node1" class="node">
<title>Node35</title>
<polygon fill="#bfbfbf" stroke="#000000" points="44.5,-56.5 44.5,-75.5 127.5,-75.5 127.5,-56.5 44.5,-56.5"/>
<text text-anchor="middle" x="86" y="-63.5" font-family="Helvetica,sans-Serif" font-size="10.00" fill="#000000">lhx/recherche.h</text>
</g>
<!-- Node36 -->
<g id="node2" class="node">
<title>Node36</title>
<g id="a_node2"><a xlink:href="lhx_2main_8cpp.html" target="_top" xlink:title="Ce fichier contient le code relatif à l&#39;analyse de la ligne de commande, au découpage de la liste des...">
<polygon fill="#ffffff" stroke="#000000" points="0,-.5 0,-19.5 72,-19.5 72,-.5 0,-.5"/>
<text text-anchor="middle" x="36" y="-7.5" font-family="Helvetica,sans-Serif" font-size="10.00" fill="#000000">lhx/main.cpp</text>
</a>
</g>
</g>
<!-- Node35&#45;&gt;Node36 -->
<g id="edge1" class="edge">
<title>Node35&#45;&gt;Node36</title>
<path fill="none" stroke="#191970" d="M70.3753,-48.5004C61.8727,-38.9775 51.6782,-27.5596 44.6095,-19.6427"/>
<polygon fill="#191970" stroke="#191970" points="68.0197,-51.1172 77.2907,-56.2455 73.2413,-46.4551 68.0197,-51.1172"/>
</g>
<!-- Node37 -->
<g id="node3" class="node">
<title>Node37</title>
<g id="a_node3"><a xlink:href="recherche_8cpp.html" target="_top" xlink:title="Ce fichier contient le code permettant de rechercher en mémoire, après décodage des bases XML...">
<polygon fill="#ffffff" stroke="#000000" points="90,-.5 90,-19.5 184,-19.5 184,-.5 90,-.5"/>
<text text-anchor="middle" x="137" y="-7.5" font-family="Helvetica,sans-Serif" font-size="10.00" fill="#000000">lhx/recherche.cpp</text>
</a>
</g>
</g>
<!-- Node35&#45;&gt;Node37 -->
<g id="edge2" class="edge">
<title>Node35&#45;&gt;Node37</title>
<path fill="none" stroke="#191970" d="M101.6749,-48.7884C110.3994,-39.2085 120.9354,-27.6396 128.2183,-19.6427"/>
<polygon fill="#191970" stroke="#191970" points="99.0291,-46.4954 94.8835,-56.2455 104.2046,-51.2088 99.0291,-46.4954"/>
</g>
</g>
</svg>
