<?xml version="1.0" encoding="UTF-8" standalone="no"?>
<!DOCTYPE svg PUBLIC "-//W3C//DTD SVG 1.1//EN"
 "http://www.w3.org/Graphics/SVG/1.1/DTD/svg11.dtd">
<!-- Generated by graphviz version 2.38.0 (20140413.2041)
 -->
<!-- Title: recherche Pages: 1 -->
<svg width="481pt" height="28pt"
 viewBox="0.00 0.00 481.00 28.00" xmlns="http://www.w3.org/2000/svg" xmlns:xlink="http://www.w3.org/1999/xlink">
<g id="graph0" class="graph" transform="scale(1 1) rotate(0) translate(4 24)">
<title>recherche</title>
<polygon fill="white" stroke="none" points="-4,4 -4,-24 477,-24 477,4 -4,4"/>
<!-- Node16 -->
<g id="node1" class="node"><title>Node16</title>
<polygon fill="#bfbfbf" stroke="black" points="0,-0.5 0,-19.5 59,-19.5 59,-0.5 0,-0.5"/>
<text text-anchor="middle" x="29.5" y="-7.5" font-family="Helvetica,sans-Serif" font-size="10.00">recherche</text>
</g>
<!-- Node17 -->
<g id="node2" class="node"><title>Node17</title>
<g id="a_node2"><a xlink:href="recherche_8h.html#a8eb57967b0fcb6142a1a81c75237e49c" target="_top" xlink:title="Crée le répertoire d&#39;exportation d&#39;un bulletin de paye donné pour un matricule, un mois et une année ...">
<polygon fill="white" stroke="black" points="95,-0.5 95,-19.5 169,-19.5 169,-0.5 95,-0.5"/>
<text text-anchor="middle" x="132" y="-7.5" font-family="Helvetica,sans-Serif" font-size="10.00">bulletin_paye</text>
</a>
</g>
</g>
<!-- Node16&#45;&gt;Node17 -->
<g id="edge1" class="edge"><title>Node16&#45;&gt;Node17</title>
<path fill="none" stroke="midnightblue" d="M69.0651,-10C77.5399,-10 86.484,-10 94.8592,-10"/>
<polygon fill="midnightblue" stroke="midnightblue" points="69.0305,-6.5001 59.0304,-10 69.0304,-13.5001 69.0305,-6.5001"/>
</g>
<!-- Node18 -->
<g id="node3" class="node"><title>Node18</title>
<g id="a_node3"><a xlink:href="recherche_8h.html#ad5938a1013575c56e8e4cad56866314f" target="_top" xlink:title="Lance l&#39;extraction d&#39;un bulletin de paye pour un matricule, un mois et une année donnés. ">
<polygon fill="white" stroke="black" points="205,-0.5 205,-19.5 269,-19.5 269,-0.5 205,-0.5"/>
<text text-anchor="middle" x="237" y="-7.5" font-family="Helvetica,sans-Serif" font-size="10.00">scan_mois</text>
</a>
</g>
</g>
<!-- Node17&#45;&gt;Node18 -->
<g id="edge2" class="edge"><title>Node17&#45;&gt;Node18</title>
<path fill="none" stroke="midnightblue" d="M179.13,-10C187.873,-10 196.824,-10 204.961,-10"/>
<polygon fill="midnightblue" stroke="midnightblue" points="179.024,-6.5001 169.024,-10 179.024,-13.5001 179.024,-6.5001"/>
</g>
<!-- Node19 -->
<g id="node4" class="node"><title>Node19</title>
<g id="a_node4"><a xlink:href="lhx_2main_8cpp.html#ae310350c218de4ee80cbf65bc27bcd1b" target="_top" xlink:title="Pour un segment donné (sous&#45;ensemble de bases de paye XML), redécoupe le segment en partie égales ou ...">
<polygon fill="white" stroke="black" points="305,-0.5 305,-19.5 399,-19.5 399,-0.5 305,-0.5"/>
<text text-anchor="middle" x="352" y="-7.5" font-family="Helvetica,sans-Serif" font-size="10.00">produire_segment</text>
</a>
</g>
</g>
<!-- Node18&#45;&gt;Node19 -->
<g id="edge3" class="edge"><title>Node18&#45;&gt;Node19</title>
<path fill="none" stroke="midnightblue" d="M279.318,-10C287.567,-10 296.283,-10 304.687,-10"/>
<polygon fill="midnightblue" stroke="midnightblue" points="279.177,-6.5001 269.177,-10 279.177,-13.5001 279.177,-6.5001"/>
</g>
<!-- Node20 -->
<g id="node5" class="node"><title>Node20</title>
<g id="a_node5"><a xlink:href="lhx_2main_8cpp.html#a3c04138a5bfe5d72780bb7e82a18e627" target="_top" xlink:title="main">
<polygon fill="white" stroke="black" points="435,-0.5 435,-19.5 473,-19.5 473,-0.5 435,-0.5"/>
<text text-anchor="middle" x="454" y="-7.5" font-family="Helvetica,sans-Serif" font-size="10.00">main</text>
</a>
</g>
</g>
<!-- Node19&#45;&gt;Node20 -->
<g id="edge4" class="edge"><title>Node19&#45;&gt;Node20</title>
<path fill="none" stroke="midnightblue" d="M409.316,-10C418.594,-10 427.577,-10 434.96,-10"/>
<polygon fill="midnightblue" stroke="midnightblue" points="409.195,-6.5001 399.195,-10 409.195,-13.5001 409.195,-6.5001"/>
</g>
</g>
</svg>
