<?xml version="1.0" encoding="UTF-8" standalone="no"?>
<!DOCTYPE svg PUBLIC "-//W3C//DTD SVG 1.1//EN"
 "http://www.w3.org/Graphics/SVG/1.1/DTD/svg11.dtd">
<!-- Generated by graphviz version 2.38.0 (20140413.2041)
 -->
<!-- Title: recherche Pages: 1 -->
<svg width="591pt" height="28pt"
 viewBox="0.00 0.00 591.00 28.00" xmlns="http://www.w3.org/2000/svg" xmlns:xlink="http://www.w3.org/1999/xlink">
<g id="graph0" class="graph" transform="scale(1 1) rotate(0) translate(4 24)">
<title>recherche</title>
<polygon fill="white" stroke="none" points="-4,4 -4,-24 587,-24 587,4 -4,4"/>
<!-- Node26 -->
<g id="node1" class="node"><title>Node26</title>
<polygon fill="#bfbfbf" stroke="black" points="0,-0.5 0,-19.5 59,-19.5 59,-0.5 0,-0.5"/>
<text text-anchor="middle" x="29.5" y="-7.5" font-family="Helvetica,sans-Serif" font-size="10.00">recherche</text>
</g>
<!-- Node27 -->
<g id="node2" class="node"><title>Node27</title>
<g id="a_node2"><a xlink:href="recherche_8h.html#a36576fe3eaca7bc6525c43d9bed05738" target="_top" xlink:title="Crée le répertoire d&#39;exportation d&#39;un bulletin de paye donné pour un matricule, un mois et une année ...">
<polygon fill="white" stroke="black" points="95,-0.5 95,-19.5 169,-19.5 169,-0.5 95,-0.5"/>
<text text-anchor="middle" x="132" y="-7.5" font-family="Helvetica,sans-Serif" font-size="10.00">bulletin_paye</text>
</a>
</g>
</g>
<!-- Node26&#45;&gt;Node27 -->
<g id="edge1" class="edge"><title>Node26&#45;&gt;Node27</title>
<path fill="none" stroke="midnightblue" d="M69.0651,-10C77.5399,-10 86.484,-10 94.8592,-10"/>
<polygon fill="midnightblue" stroke="midnightblue" points="69.0305,-6.5001 59.0304,-10 69.0304,-13.5001 69.0305,-6.5001"/>
</g>
<!-- Node28 -->
<g id="node3" class="node"><title>Node28</title>
<g id="a_node3"><a xlink:href="recherche_8cpp.html#a142c86cfc71536c9cfaf6fa9e47a1611" target="_top" xlink:title="__scan_mois">
<polygon fill="white" stroke="black" points="205,-0.5 205,-19.5 279,-19.5 279,-0.5 205,-0.5"/>
<text text-anchor="middle" x="242" y="-7.5" font-family="Helvetica,sans-Serif" font-size="10.00">__scan_mois</text>
</a>
</g>
</g>
<!-- Node27&#45;&gt;Node28 -->
<g id="edge2" class="edge"><title>Node27&#45;&gt;Node28</title>
<path fill="none" stroke="midnightblue" d="M179.387,-10C187.837,-10 196.541,-10 204.649,-10"/>
<polygon fill="midnightblue" stroke="midnightblue" points="179.263,-6.5001 169.263,-10 179.263,-13.5001 179.263,-6.5001"/>
</g>
<!-- Node29 -->
<g id="node4" class="node"><title>Node29</title>
<g id="a_node4"><a xlink:href="recherche_8h.html#a713c0327e5f4e9113b4325d7375d5adf" target="_top" xlink:title="Lance l&#39;extraction d&#39;un bulletin de paye pour un matricule, un mois et une année donnés. ">
<polygon fill="white" stroke="black" points="315,-0.5 315,-19.5 379,-19.5 379,-0.5 315,-0.5"/>
<text text-anchor="middle" x="347" y="-7.5" font-family="Helvetica,sans-Serif" font-size="10.00">scan_mois</text>
</a>
</g>
</g>
<!-- Node28&#45;&gt;Node29 -->
<g id="edge3" class="edge"><title>Node28&#45;&gt;Node29</title>
<path fill="none" stroke="midnightblue" d="M289.13,-10C297.873,-10 306.824,-10 314.961,-10"/>
<polygon fill="midnightblue" stroke="midnightblue" points="289.024,-6.5001 279.024,-10 289.024,-13.5001 289.024,-6.5001"/>
</g>
<!-- Node30 -->
<g id="node5" class="node"><title>Node30</title>
<g id="a_node5"><a xlink:href="lhx_2main_8cpp.html#abb1f1ad236423a832fd1efa1e9deeafa" target="_top" xlink:title="Pour un segment donné (sous&#45;ensemble de bases de paye XML), redécoupe le segment en partie égales ou ...">
<polygon fill="white" stroke="black" points="415,-0.5 415,-19.5 509,-19.5 509,-0.5 415,-0.5"/>
<text text-anchor="middle" x="462" y="-7.5" font-family="Helvetica,sans-Serif" font-size="10.00">produire_segment</text>
</a>
</g>
</g>
<!-- Node29&#45;&gt;Node30 -->
<g id="edge4" class="edge"><title>Node29&#45;&gt;Node30</title>
<path fill="none" stroke="midnightblue" d="M389.318,-10C397.567,-10 406.283,-10 414.687,-10"/>
<polygon fill="midnightblue" stroke="midnightblue" points="389.177,-6.5001 379.177,-10 389.177,-13.5001 389.177,-6.5001"/>
</g>
<!-- Node31 -->
<g id="node6" class="node"><title>Node31</title>
<g id="a_node6"><a xlink:href="lhx_2main_8cpp.html#a3c04138a5bfe5d72780bb7e82a18e627" target="_top" xlink:title="main">
<polygon fill="white" stroke="black" points="545,-0.5 545,-19.5 583,-19.5 583,-0.5 545,-0.5"/>
<text text-anchor="middle" x="564" y="-7.5" font-family="Helvetica,sans-Serif" font-size="10.00">main</text>
</a>
</g>
</g>
<!-- Node30&#45;&gt;Node31 -->
<g id="edge5" class="edge"><title>Node30&#45;&gt;Node31</title>
<path fill="none" stroke="midnightblue" d="M519.316,-10C528.594,-10 537.577,-10 544.96,-10"/>
<polygon fill="midnightblue" stroke="midnightblue" points="519.195,-6.5001 509.195,-10 519.195,-13.5001 519.195,-6.5001"/>
</g>
</g>
</svg>
