<?xml version="1.0" encoding="UTF-8" standalone="no"?>
<!DOCTYPE svg PUBLIC "-//W3C//DTD SVG 1.1//EN"
 "http://www.w3.org/Graphics/SVG/1.1/DTD/svg11.dtd">
<!-- Generated by graphviz version 2.38.0 (20140413.2041)
 -->
<!-- Title: Interface/gui/run.cpp Pages: 1 -->
<!--zoomable 308 -->
<svg id="main" version="1.1" xmlns="http://www.w3.org/2000/svg" xmlns:xlink="http://www.w3.org/1999/xlink" xml:space="preserve" onload="init(evt)">
<style type="text/css"><![CDATA[
.edge:hover path { stroke: red; }
.edge:hover polygon { stroke: red; fill: red; }
]]></style>
<script type="text/javascript"><![CDATA[
var edges = document.getElementsByTagName('g');
if (edges && edges.length) {
  for (var i=0;i<edges.length;i++) {
    if (edges[i].id.substr(0,4)=='edge') {
      edges[i].setAttribute('class','edge');
    }
  }
}
]]></script>
        <defs>
                <circle id="rim" cx="0" cy="0" r="7"/>
                <circle id="rim2" cx="0" cy="0" r="3.5"/>
                <g id="zoomPlus">
                        <use xlink:href="#rim" fill="#404040">
                                <set attributeName="fill" to="#808080" begin="zoomplus.mouseover" end="zoomplus.mouseout"/>
                        </use>
                        <path d="M-4,0h8M0,-4v8" fill="none" stroke="white" stroke-width="1.5" pointer-events="none"/>
                </g>
                <g id="zoomMin">
                        <use xlink:href="#rim" fill="#404040">
                                <set attributeName="fill" to="#808080" begin="zoomminus.mouseover" end="zoomminus.mouseout"/>
                        </use>
                        <path d="M-4,0h8" fill="none" stroke="white" stroke-width="1.5" pointer-events="none"/>
                </g>
                <g id="dirArrow">
                        <path fill="none" stroke="white" stroke-width="1.5" d="M0,-3.0v7 M-2.5,-0.5L0,-3.0L2.5,-0.5"/>
                </g>
               <g id="resetDef">
                       <use xlink:href="#rim2" fill="#404040">
                               <set attributeName="fill" to="#808080" begin="reset.mouseover" end="reset.mouseout"/>
                       </use>
               </g>
        </defs>

<script type="text/javascript">
var viewWidth = 1065;
var viewHeight = 308;
var sectionId = 'dynsection-0';
</script>
<script xlink:href="svgpan.js"/>
<svg id="graph" class="graph">
<g id="viewport">
<title>Interface/gui/run.cpp</title>
<polygon fill="white" stroke="none" points="-4,4 -4,-304 1060.5,-304 1060.5,4 -4,4"/>
<!-- Node0 -->
<g id="node1" class="node"><title>Node0</title>
<polygon fill="#bfbfbf" stroke="black" points="52,-280.5 52,-299.5 158,-299.5 158,-280.5 52,-280.5"/>
<text text-anchor="middle" x="105" y="-287.5" font-family="Helvetica,sans-Serif" font-size="10.00">Interface/gui/run.cpp</text>
</g>
<!-- Node1 -->
<g id="node2" class="node"><title>Node1</title>
<g id="a_node2"><a xlink:href="altair_8h.html" target="_top" xlink:title="Code de la classe principale Altair, qui joue le rôle d&#39;agent de l&#39;interface graphique. ">
<polygon fill="white" stroke="black" points="188,-224.5 188,-243.5 234,-243.5 234,-224.5 188,-224.5"/>
<text text-anchor="middle" x="211" y="-231.5" font-family="Helvetica,sans-Serif" font-size="10.00">altair.h</text>
</a>
</g>
</g>
<!-- Node0&#45;&gt;Node1 -->
<g id="edge1" class="edge"><title>Node0&#45;&gt;Node1</title>
<path fill="none" stroke="midnightblue" d="M122.031,-280.324C139.03,-271.664 165.376,-258.242 184.993,-248.249"/>
<polygon fill="midnightblue" stroke="midnightblue" points="186.69,-251.312 194.012,-243.655 183.512,-245.075 186.69,-251.312"/>
</g>
<!-- Node4 -->
<g id="node5" class="node"><title>Node4</title>
<polygon fill="white" stroke="#bfbfbf" points="158,-0.5 158,-19.5 220,-19.5 220,-0.5 158,-0.5"/>
<text text-anchor="middle" x="189" y="-7.5" font-family="Helvetica,sans-Serif" font-size="10.00">fwidgets.h</text>
</g>
<!-- Node0&#45;&gt;Node4 -->
<g id="edge32" class="edge"><title>Node0&#45;&gt;Node4</title>
<path fill="none" stroke="midnightblue" d="M86.7104,-280.345C56.6272,-264.692 0,-228.634 0,-179 0,-179 0,-179 0,-121 0,-53.0925 92.2663,-26.379 147.866,-16.4461"/>
<polygon fill="midnightblue" stroke="midnightblue" points="148.508,-19.8875 157.79,-14.7806 147.349,-12.984 148.508,-19.8875"/>
</g>
<!-- Node2 -->
<g id="node3" class="node"><title>Node2</title>
<polygon fill="white" stroke="#bfbfbf" points="28,-168.5 28,-187.5 80,-187.5 80,-168.5 28,-168.5"/>
<text text-anchor="middle" x="54" y="-175.5" font-family="Helvetica,sans-Serif" font-size="10.00">fstring.h</text>
</g>
<!-- Node1&#45;&gt;Node2 -->
<g id="edge2" class="edge"><title>Node1&#45;&gt;Node2</title>
<path fill="none" stroke="midnightblue" d="M187.834,-225.032C161.625,-216.018 118.673,-201.244 88.5127,-190.871"/>
<polygon fill="midnightblue" stroke="midnightblue" points="89.4122,-187.479 78.8175,-187.536 87.1354,-194.098 89.4122,-187.479"/>
</g>
<!-- Node3 -->
<g id="node4" class="node"><title>Node3</title>
<polygon fill="white" stroke="#bfbfbf" points="98.5,-168.5 98.5,-187.5 163.5,-187.5 163.5,-168.5 98.5,-168.5"/>
<text text-anchor="middle" x="131" y="-175.5" font-family="Helvetica,sans-Serif" font-size="10.00">flistframe.h</text>
</g>
<!-- Node1&#45;&gt;Node3 -->
<g id="edge3" class="edge"><title>Node1&#45;&gt;Node3</title>
<path fill="none" stroke="midnightblue" d="M198.147,-224.324C185.784,-215.979 166.87,-203.212 152.263,-193.352"/>
<polygon fill="midnightblue" stroke="midnightblue" points="154.068,-190.348 143.821,-187.655 150.152,-196.15 154.068,-190.348"/>
</g>
<!-- Node1&#45;&gt;Node4 -->
<g id="edge4" class="edge"><title>Node1&#45;&gt;Node4</title>
<path fill="none" stroke="midnightblue" d="M210.138,-224.297C206.901,-191.633 195.428,-75.8661 190.879,-29.9573"/>
<polygon fill="midnightblue" stroke="midnightblue" points="194.35,-29.4898 189.88,-19.8837 187.384,-30.1802 194.35,-29.4898"/>
</g>
<!-- Node5 -->
<g id="node6" class="node"><title>Node5</title>
<g id="a_node6"><a xlink:href="common_8h.html" target="_top" xlink:title="Code de la classe common, qui regroupe des utilitaires communs à l&#39;interface graphique MainWindow...">
<polygon fill="white" stroke="black" points="239,-56.5 239,-75.5 301,-75.5 301,-56.5 239,-56.5"/>
<text text-anchor="middle" x="270" y="-63.5" font-family="Helvetica,sans-Serif" font-size="10.00">common.h</text>
</a>
</g>
</g>
<!-- Node1&#45;&gt;Node5 -->
<g id="edge5" class="edge"><title>Node1&#45;&gt;Node5</title>
<path fill="none" stroke="midnightblue" d="M214.172,-224.075C223.499,-197.832 250.969,-120.545 263.561,-85.1165"/>
<polygon fill="midnightblue" stroke="midnightblue" points="266.904,-86.1628 266.955,-75.5681 260.308,-83.8185 266.904,-86.1628"/>
</g>
<!-- Node8 -->
<g id="node9" class="node"><title>Node8</title>
<polygon fill="white" stroke="#bfbfbf" points="581,-168.5 581,-187.5 635,-187.5 635,-168.5 581,-168.5"/>
<text text-anchor="middle" x="608" y="-175.5" font-family="Helvetica,sans-Serif" font-size="10.00">enums.h</text>
</g>
<!-- Node1&#45;&gt;Node8 -->
<g id="edge9" class="edge"><title>Node1&#45;&gt;Node8</title>
<path fill="none" stroke="midnightblue" d="M234.379,-231.073C290.654,-226.228 438.211,-212.282 571.01,-187.979"/>
<polygon fill="midnightblue" stroke="midnightblue" points="571.756,-191.4 580.95,-186.135 570.48,-184.518 571.756,-191.4"/>
</g>
<!-- Node9 -->
<g id="node10" class="node"><title>Node9</title>
<g id="a_node10"><a xlink:href="altair-gui_8h.html" target="_top" xlink:title="Code de la classe MainWindow qui construit l&#39;interface graphique. ">
<polygon fill="white" stroke="black" points="501,-168.5 501,-187.5 563,-187.5 563,-168.5 501,-168.5"/>
<text text-anchor="middle" x="532" y="-175.5" font-family="Helvetica,sans-Serif" font-size="10.00">altair&#45;gui.h</text>
</a>
</g>
</g>
<!-- Node1&#45;&gt;Node9 -->
<g id="edge10" class="edge"><title>Node1&#45;&gt;Node9</title>
<path fill="none" stroke="midnightblue" d="M234.129,-228.443C288.107,-218.768 422.266,-196.17 490.667,-185.197"/>
<polygon fill="midnightblue" stroke="midnightblue" points="491.337,-188.634 500.661,-183.603 490.235,-181.722 491.337,-188.634"/>
</g>
<!-- Node5&#45;&gt;Node4 -->
<g id="edge7" class="edge"><title>Node5&#45;&gt;Node4</title>
<path fill="none" stroke="midnightblue" d="M256.986,-56.324C244.468,-47.979 225.318,-35.2122 210.529,-25.3524"/>
<polygon fill="midnightblue" stroke="midnightblue" points="212.244,-22.2894 201.982,-19.6545 208.361,-28.1137 212.244,-22.2894"/>
</g>
<!-- Node6 -->
<g id="node7" class="node"><title>Node6</title>
<polygon fill="white" stroke="#bfbfbf" points="238.5,-0.5 238.5,-19.5 301.5,-19.5 301.5,-0.5 238.5,-0.5"/>
<text text-anchor="middle" x="270" y="-7.5" font-family="Helvetica,sans-Serif" font-size="10.00">QtWidgets</text>
</g>
<!-- Node5&#45;&gt;Node6 -->
<g id="edge6" class="edge"><title>Node5&#45;&gt;Node6</title>
<path fill="none" stroke="midnightblue" d="M270,-56.083C270,-49.0059 270,-38.8611 270,-29.9865"/>
<polygon fill="midnightblue" stroke="midnightblue" points="273.5,-29.751 270,-19.7511 266.5,-29.7511 273.5,-29.751"/>
</g>
<!-- Node7 -->
<g id="node8" class="node"><title>Node7</title>
<polygon fill="white" stroke="#bfbfbf" points="320,-0.5 320,-19.5 366,-19.5 366,-0.5 320,-0.5"/>
<text text-anchor="middle" x="343" y="-7.5" font-family="Helvetica,sans-Serif" font-size="10.00">tools.h</text>
</g>
<!-- Node5&#45;&gt;Node7 -->
<g id="edge8" class="edge"><title>Node5&#45;&gt;Node7</title>
<path fill="none" stroke="midnightblue" d="M281.729,-56.324C292.837,-48.1066 309.742,-35.6017 322.983,-25.8069"/>
<polygon fill="midnightblue" stroke="midnightblue" points="325.1,-28.5948 331.058,-19.8339 320.937,-22.9671 325.1,-28.5948"/>
</g>
<!-- Node9&#45;&gt;Node1 -->
<g id="edge26" class="edge"><title>Node9&#45;&gt;Node1</title>
<path fill="none" stroke="midnightblue" d="M500.985,-184.962C440.229,-195.723 306.551,-218.191 244.136,-228.112"/>
<polygon fill="midnightblue" stroke="midnightblue" points="243.379,-224.688 234.047,-229.703 244.47,-231.603 243.379,-224.688"/>
</g>
<!-- Node9&#45;&gt;Node5 -->
<g id="edge20" class="edge"><title>Node9&#45;&gt;Node5</title>
<path fill="none" stroke="midnightblue" d="M500.804,-175.354C441.946,-171.61 317.662,-160.469 287,-132 274.454,-120.352 270.706,-100.696 269.792,-86.0419"/>
<polygon fill="midnightblue" stroke="midnightblue" points="273.281,-85.5277 269.552,-75.6109 266.283,-85.6887 273.281,-85.5277"/>
</g>
<!-- Node10 -->
<g id="node11" class="node"><title>Node10</title>
<polygon fill="white" stroke="#bfbfbf" points="458,-112.5 458,-131.5 538,-131.5 538,-112.5 458,-112.5"/>
<text text-anchor="middle" x="498" y="-119.5" font-family="Helvetica,sans-Serif" font-size="10.00">QMainWindow</text>
</g>
<!-- Node9&#45;&gt;Node10 -->
<g id="edge11" class="edge"><title>Node9&#45;&gt;Node10</title>
<path fill="none" stroke="midnightblue" d="M526.386,-168.083C521.633,-160.534 514.682,-149.495 508.848,-140.23"/>
<polygon fill="midnightblue" stroke="midnightblue" points="511.8,-138.349 503.51,-131.751 505.876,-142.078 511.8,-138.349"/>
</g>
<!-- Node11 -->
<g id="node12" class="node"><title>Node11</title>
<polygon fill="white" stroke="#bfbfbf" points="441,-56.5 441,-75.5 493,-75.5 493,-56.5 441,-56.5"/>
<text text-anchor="middle" x="467" y="-63.5" font-family="Helvetica,sans-Serif" font-size="10.00">QDialog</text>
</g>
<!-- Node9&#45;&gt;Node11 -->
<g id="edge12" class="edge"><title>Node9&#45;&gt;Node11</title>
<path fill="none" stroke="midnightblue" d="M537.703,-168.407C545.57,-155.372 557.641,-130.195 547,-112 537.383,-95.5567 519.304,-84.6579 502.763,-77.7109"/>
<polygon fill="midnightblue" stroke="midnightblue" points="503.867,-74.3856 493.277,-74.0653 501.355,-80.9197 503.867,-74.3856"/>
</g>
<!-- Node12 -->
<g id="node13" class="node"><title>Node12</title>
<polygon fill="white" stroke="#bfbfbf" points="632,-112.5 632,-131.5 692,-131.5 692,-112.5 632,-112.5"/>
<text text-anchor="middle" x="662" y="-119.5" font-family="Helvetica,sans-Serif" font-size="10.00">QProcess</text>
</g>
<!-- Node9&#45;&gt;Node12 -->
<g id="edge13" class="edge"><title>Node9&#45;&gt;Node12</title>
<path fill="none" stroke="midnightblue" d="M552.599,-168.444C573.993,-159.557 607.681,-145.563 632.024,-135.451"/>
<polygon fill="midnightblue" stroke="midnightblue" points="633.605,-138.585 641.497,-131.516 630.92,-132.12 633.605,-138.585"/>
</g>
<!-- Node13 -->
<g id="node14" class="node"><title>Node13</title>
<polygon fill="white" stroke="#bfbfbf" points="710,-112.5 710,-131.5 778,-131.5 778,-112.5 710,-112.5"/>
<text text-anchor="middle" x="744" y="-119.5" font-family="Helvetica,sans-Serif" font-size="10.00">QDomNode</text>
</g>
<!-- Node9&#45;&gt;Node13 -->
<g id="edge14" class="edge"><title>Node9&#45;&gt;Node13</title>
<path fill="none" stroke="midnightblue" d="M563.281,-169.032C599.595,-159.782 659.713,-144.469 700.548,-134.068"/>
<polygon fill="midnightblue" stroke="midnightblue" points="701.662,-137.396 710.488,-131.536 699.934,-130.613 701.662,-137.396"/>
</g>
<!-- Node14 -->
<g id="node15" class="node"><title>Node14</title>
<polygon fill="white" stroke="#bfbfbf" points="796,-112.5 796,-131.5 836,-131.5 836,-112.5 796,-112.5"/>
<text text-anchor="middle" x="816" y="-119.5" font-family="Helvetica,sans-Serif" font-size="10.00">QFile</text>
</g>
<!-- Node9&#45;&gt;Node14 -->
<g id="edge15" class="edge"><title>Node9&#45;&gt;Node14</title>
<path fill="none" stroke="midnightblue" d="M563.408,-169.76C566.309,-169.144 569.206,-168.548 572,-168 663.919,-149.978 690.961,-154.1 785.798,-132.016"/>
<polygon fill="midnightblue" stroke="midnightblue" points="786.889,-135.355 795.815,-129.646 785.278,-128.543 786.889,-135.355"/>
</g>
<!-- Node15 -->
<g id="node16" class="node"><title>Node15</title>
<polygon fill="white" stroke="#bfbfbf" points="854,-112.5 854,-131.5 898,-131.5 898,-112.5 854,-112.5"/>
<text text-anchor="middle" x="876" y="-119.5" font-family="Helvetica,sans-Serif" font-size="10.00">QtXml</text>
</g>
<!-- Node9&#45;&gt;Node15 -->
<g id="edge16" class="edge"><title>Node9&#45;&gt;Node15</title>
<path fill="none" stroke="midnightblue" d="M563.389,-169.657C566.293,-169.062 569.197,-168.499 572,-168 689.312,-147.112 723.437,-156.597 843.781,-131.974"/>
<polygon fill="midnightblue" stroke="midnightblue" points="844.675,-135.363 853.751,-129.897 843.247,-128.51 844.675,-135.363"/>
</g>
<!-- Node16 -->
<g id="node17" class="node"><title>Node16</title>
<g id="a_node17"><a xlink:href="options_8h.html" target="_top" xlink:title="Code des classes du dialogue d&#39;options. ">
<polygon fill="white" stroke="black" points="296,-112.5 296,-131.5 352,-131.5 352,-112.5 296,-112.5"/>
<text text-anchor="middle" x="324" y="-119.5" font-family="Helvetica,sans-Serif" font-size="10.00">options.h</text>
</a>
</g>
</g>
<!-- Node9&#45;&gt;Node16 -->
<g id="edge17" class="edge"><title>Node9&#45;&gt;Node16</title>
<path fill="none" stroke="midnightblue" d="M500.86,-168.916C463.746,-159.28 401.751,-143.185 361.89,-132.837"/>
<polygon fill="midnightblue" stroke="midnightblue" points="362.573,-129.398 352.015,-130.273 360.814,-136.174 362.573,-129.398"/>
</g>
<!-- Node18 -->
<g id="node19" class="node"><title>Node18</title>
<g id="a_node19"><a xlink:href="highlighter_8h.html" target="_top" xlink:title="Code de l&#39;utilitaire de colorisation du code XML du projet .alt. ">
<polygon fill="white" stroke="black" points="916.5,-112.5 916.5,-131.5 985.5,-131.5 985.5,-112.5 916.5,-112.5"/>
<text text-anchor="middle" x="951" y="-119.5" font-family="Helvetica,sans-Serif" font-size="10.00">highlighter.h</text>
</a>
</g>
</g>
<!-- Node9&#45;&gt;Node18 -->
<g id="edge21" class="edge"><title>Node9&#45;&gt;Node18</title>
<path fill="none" stroke="midnightblue" d="M563.376,-169.584C566.283,-169.005 569.191,-168.465 572,-168 716.558,-144.05 757.297,-154.552 906.483,-131.924"/>
<polygon fill="midnightblue" stroke="midnightblue" points="907.119,-135.368 916.469,-130.385 906.052,-128.449 907.119,-135.368"/>
</g>
<!-- Node21 -->
<g id="node22" class="node"><title>Node21</title>
<g id="a_node22"><a xlink:href="gui__enums_8h.html" target="_top" xlink:title="Code de constantes et de classes regroupant des constantes. ">
<polygon fill="white" stroke="black" points="558,-56.5 558,-75.5 630,-75.5 630,-56.5 558,-56.5"/>
<text text-anchor="middle" x="594" y="-63.5" font-family="Helvetica,sans-Serif" font-size="10.00">gui_enums.h</text>
</a>
</g>
</g>
<!-- Node9&#45;&gt;Node21 -->
<g id="edge24" class="edge"><title>Node9&#45;&gt;Node21</title>
<path fill="none" stroke="midnightblue" d="M545.096,-168.236C556.131,-160.142 571.45,-147.111 580,-132 588.083,-117.715 591.506,-99.2461 592.952,-85.6481"/>
<polygon fill="midnightblue" stroke="midnightblue" points="596.449,-85.8181 593.76,-75.5701 589.472,-85.2582 596.449,-85.8181"/>
</g>
<!-- Node23 -->
<g id="node24" class="node"><title>Node23</title>
<g id="a_node24"><a xlink:href="matricules_8h.html" target="_top" xlink:title="Code de la classe MatriculeInput, qui construit un dialogue d&#39;extraction des bulletins. ">
<polygon fill="white" stroke="black" points="370,-112.5 370,-131.5 440,-131.5 440,-112.5 370,-112.5"/>
<text text-anchor="middle" x="405" y="-119.5" font-family="Helvetica,sans-Serif" font-size="10.00">matricules.h</text>
</a>
</g>
</g>
<!-- Node9&#45;&gt;Node23 -->
<g id="edge27" class="edge"><title>Node9&#45;&gt;Node23</title>
<path fill="none" stroke="midnightblue" d="M511.876,-168.444C490.976,-159.557 458.065,-145.563 434.284,-135.451"/>
<polygon fill="midnightblue" stroke="midnightblue" points="435.602,-132.208 425.029,-131.516 432.862,-138.65 435.602,-132.208"/>
</g>
<!-- Node16&#45;&gt;Node5 -->
<g id="edge19" class="edge"><title>Node16&#45;&gt;Node5</title>
<path fill="none" stroke="midnightblue" d="M315.083,-112.083C307.22,-104.22 295.569,-92.5688 286.081,-83.0813"/>
<polygon fill="midnightblue" stroke="midnightblue" points="288.297,-80.3473 278.751,-75.7511 283.347,-85.2971 288.297,-80.3473"/>
</g>
<!-- Node17 -->
<g id="node18" class="node"><title>Node17</title>
<polygon fill="white" stroke="#bfbfbf" points="331,-56.5 331,-75.5 399,-75.5 399,-56.5 331,-56.5"/>
<text text-anchor="middle" x="365" y="-63.5" font-family="Helvetica,sans-Serif" font-size="10.00">flineframe.h</text>
</g>
<!-- Node16&#45;&gt;Node17 -->
<g id="edge18" class="edge"><title>Node16&#45;&gt;Node17</title>
<path fill="none" stroke="midnightblue" d="M330.77,-112.083C336.562,-104.455 345.058,-93.2645 352.138,-83.9408"/>
<polygon fill="midnightblue" stroke="midnightblue" points="355.096,-85.8321 358.356,-75.7511 349.521,-81.5991 355.096,-85.8321"/>
</g>
<!-- Node19 -->
<g id="node20" class="node"><title>Node19</title>
<polygon fill="white" stroke="#bfbfbf" points="842.5,-56.5 842.5,-75.5 943.5,-75.5 943.5,-56.5 842.5,-56.5"/>
<text text-anchor="middle" x="893" y="-63.5" font-family="Helvetica,sans-Serif" font-size="10.00">QSyntaxHighlighter</text>
</g>
<!-- Node18&#45;&gt;Node19 -->
<g id="edge22" class="edge"><title>Node18&#45;&gt;Node19</title>
<path fill="none" stroke="midnightblue" d="M941.681,-112.324C933.107,-104.341 920.188,-92.3128 909.812,-82.6529"/>
<polygon fill="midnightblue" stroke="midnightblue" points="912.192,-80.0865 902.488,-75.8339 907.422,-85.2098 912.192,-80.0865"/>
</g>
<!-- Node20 -->
<g id="node21" class="node"><title>Node20</title>
<polygon fill="white" stroke="#bfbfbf" points="961.5,-56.5 961.5,-75.5 1056.5,-75.5 1056.5,-56.5 961.5,-56.5"/>
<text text-anchor="middle" x="1009" y="-63.5" font-family="Helvetica,sans-Serif" font-size="10.00">QTextCharFormat</text>
</g>
<!-- Node18&#45;&gt;Node20 -->
<g id="edge23" class="edge"><title>Node18&#45;&gt;Node20</title>
<path fill="none" stroke="midnightblue" d="M960.319,-112.324C968.893,-104.341 981.812,-92.3128 992.188,-82.6529"/>
<polygon fill="midnightblue" stroke="midnightblue" points="994.578,-85.2098 999.512,-75.8339 989.808,-80.0865 994.578,-85.2098"/>
</g>
<!-- Node22 -->
<g id="node23" class="node"><title>Node22</title>
<polygon fill="white" stroke="#bfbfbf" points="571,-0.5 571,-19.5 617,-19.5 617,-0.5 571,-0.5"/>
<text text-anchor="middle" x="594" y="-7.5" font-family="Helvetica,sans-Serif" font-size="10.00">cstdint</text>
</g>
<!-- Node21&#45;&gt;Node22 -->
<g id="edge25" class="edge"><title>Node21&#45;&gt;Node22</title>
<path fill="none" stroke="midnightblue" d="M594,-56.083C594,-49.0059 594,-38.8611 594,-29.9865"/>
<polygon fill="midnightblue" stroke="midnightblue" points="597.5,-29.751 594,-19.7511 590.5,-29.7511 597.5,-29.751"/>
</g>
<!-- Node23&#45;&gt;Node5 -->
<g id="edge29" class="edge"><title>Node23&#45;&gt;Node5</title>
<path fill="none" stroke="midnightblue" d="M383.609,-112.444C361.293,-103.517 326.097,-89.4387 300.792,-79.3168"/>
<polygon fill="midnightblue" stroke="midnightblue" points="301.876,-75.9807 291.291,-75.5164 299.276,-82.4801 301.876,-75.9807"/>
</g>
<!-- Node23&#45;&gt;Node11 -->
<g id="edge28" class="edge"><title>Node23&#45;&gt;Node11</title>
<path fill="none" stroke="midnightblue" d="M414.961,-112.324C424.127,-104.341 437.937,-92.3128 449.028,-82.6529"/>
<polygon fill="midnightblue" stroke="midnightblue" points="451.615,-85.041 456.857,-75.8339 447.018,-79.7624 451.615,-85.041"/>
</g>
<!-- Node23&#45;&gt;Node17 -->
<g id="edge30" class="edge"><title>Node23&#45;&gt;Node17</title>
<path fill="none" stroke="midnightblue" d="M398.395,-112.083C392.745,-104.455 384.455,-93.2645 377.549,-83.9408"/>
<polygon fill="midnightblue" stroke="midnightblue" points="380.247,-81.7034 371.482,-75.7511 374.622,-85.87 380.247,-81.7034"/>
</g>
<!-- Node23&#45;&gt;Node21 -->
<g id="edge31" class="edge"><title>Node23&#45;&gt;Node21</title>
<path fill="none" stroke="midnightblue" d="M434.948,-112.444C467.158,-103.241 518.534,-88.5617 554.142,-78.3879"/>
<polygon fill="midnightblue" stroke="midnightblue" points="555.539,-81.629 564.192,-75.5164 553.616,-74.8984 555.539,-81.629"/>
</g>
</g>
</svg>
        <g id="navigator" transform="translate(0 0)" fill="#404254">
                <rect fill="#f2f5e9" fill-opacity="0.5" stroke="#606060" stroke-width=".5" x="0" y="0" width="60" height="60"/>
                <use id="zoomplus" xlink:href="#zoomPlus" x="17" y="9" onmousedown="handleZoom(evt,'in')"/>
                <use id="zoomminus" xlink:href="#zoomMin" x="42" y="9" onmousedown="handleZoom(evt,'out')"/>
                <use id="reset" xlink:href="#resetDef" x="30" y="36" onmousedown="handleReset()"/>
                <g id="arrowUp" xlink:href="#dirArrow" transform="translate(30 24)" onmousedown="handlePan(0,-1)">
                  <use xlink:href="#rim" fill="#404040">
                        <set attributeName="fill" to="#808080" begin="arrowUp.mouseover" end="arrowUp.mouseout"/>
                  </use>
                  <path fill="none" stroke="white" stroke-width="1.5" d="M0,-3.0v7 M-2.5,-0.5L0,-3.0L2.5,-0.5"/>
                </g>
                <g id="arrowRight" xlink:href="#dirArrow" transform="rotate(90) translate(36 -43)" onmousedown="handlePan(1,0)">
                  <use xlink:href="#rim" fill="#404040">
                        <set attributeName="fill" to="#808080" begin="arrowRight.mouseover" end="arrowRight.mouseout"/>
                  </use>
                  <path fill="none" stroke="white" stroke-width="1.5" d="M0,-3.0v7 M-2.5,-0.5L0,-3.0L2.5,-0.5"/>
                </g>
                <g id="arrowDown" xlink:href="#dirArrow" transform="rotate(180) translate(-30 -48)" onmousedown="handlePan(0,1)">
                  <use xlink:href="#rim" fill="#404040">
                        <set attributeName="fill" to="#808080" begin="arrowDown.mouseover" end="arrowDown.mouseout"/>
                  </use>
                  <path fill="none" stroke="white" stroke-width="1.5" d="M0,-3.0v7 M-2.5,-0.5L0,-3.0L2.5,-0.5"/>
                </g>
                <g id="arrowLeft" xlink:href="#dirArrow" transform="rotate(270) translate(-36 17)" onmousedown="handlePan(-1,0)">
                  <use xlink:href="#rim" fill="#404040">
                        <set attributeName="fill" to="#808080" begin="arrowLeft.mouseover" end="arrowLeft.mouseout"/>
                  </use>
                  <path fill="none" stroke="white" stroke-width="1.5" d="M0,-3.0v7 M-2.5,-0.5L0,-3.0L2.5,-0.5"/>
                </g>
        </g>
        <svg viewBox="0 0 15 15" width="100%" height="30px" preserveAspectRatio="xMaxYMin meet">
         <g id="arrow_out" transform="scale(0.3 0.3)">
          <a xlink:href="run_8cpp__incl_org.svg" target="_base">
           <rect id="button" ry="5" rx="5" y="6" x="6" height="38" width="38"
                fill="#f2f5e9" fill-opacity="0.5" stroke="#606060" stroke-width="1.0"/>
           <path id="arrow"
             d="M 11.500037,31.436501 C 11.940474,20.09759 22.043105,11.32322 32.158766,21.979434 L 37.068811,17.246167 C 37.068811,17.246167 37.088388,32 37.088388,32 L 22.160133,31.978069 C 22.160133,31.978069 26.997745,27.140456 26.997745,27.140456 C 18.528582,18.264221 13.291696,25.230495 11.500037,31.436501 z"
             style="fill:#404040;"/>
          </a>
         </g>
        </svg>
</svg>
