<?xml version="1.0" encoding="UTF-8" standalone="no"?>
<!DOCTYPE svg PUBLIC "-//W3C//DTD SVG 1.1//EN"
 "http://www.w3.org/Graphics/SVG/1.1/DTD/svg11.dtd">
<!-- Generated by graphviz version 2.38.0 (20140413.2041)
 -->
<!-- Title: ECRIRE_LIGNE_l_GENERER_RANG_ECHELON Pages: 1 -->
<svg width="503pt" height="39pt"
 viewBox="0.00 0.00 503.00 39.00" xmlns="http://www.w3.org/2000/svg" xmlns:xlink="http://www.w3.org/1999/xlink">
<g id="graph0" class="graph" transform="scale(1 1) rotate(0) translate(4 35)">
<title>ECRIRE_LIGNE_l_GENERER_RANG_ECHELON</title>
<polygon fill="white" stroke="none" points="-4,4 -4,-35 499,-35 499,4 -4,4"/>
<!-- Node103 -->
<g id="node1" class="node"><title>Node103</title>
<polygon fill="#bfbfbf" stroke="black" points="0,-0.5 0,-30.5 158,-30.5 158,-0.5 0,-0.5"/>
<text text-anchor="start" x="8" y="-18.5" font-family="Helvetica,sans-Serif" font-size="10.00">ECRIRE_LIGNE_l_GENERER</text>
<text text-anchor="middle" x="79" y="-7.5" font-family="Helvetica,sans-Serif" font-size="10.00">_RANG_ECHELON</text>
</g>
<!-- Node104 -->
<g id="node2" class="node"><title>Node104</title>
<g id="a_node2"><a xlink:href="table_8cpp.html#a666a48e623a324e4c739c91c1ea9adf7" target="_top" xlink:title="Lance l&#39;écriture des fichiers Bulletins.paie.csv et Table....csv pour un segment des données de paye...">
<polygon fill="white" stroke="black" points="194,-6 194,-25 282,-25 282,-6 194,-6"/>
<text text-anchor="middle" x="238" y="-13" font-family="Helvetica,sans-Serif" font-size="10.00">boucle_ecriture</text>
</a>
</g>
</g>
<!-- Node103&#45;&gt;Node104 -->
<g id="edge1" class="edge"><title>Node103&#45;&gt;Node104</title>
<path fill="none" stroke="midnightblue" d="M168.119,-15.5C177.006,-15.5 185.726,-15.5 193.813,-15.5"/>
<polygon fill="midnightblue" stroke="midnightblue" points="168.04,-12.0001 158.04,-15.5 168.04,-19.0001 168.04,-12.0001"/>
</g>
<!-- Node105 -->
<g id="node3" class="node"><title>Node105</title>
<g id="a_node3"><a xlink:href="lhx_2main_8cpp.html#abb1f1ad236423a832fd1efa1e9deeafa" target="_top" xlink:title="Pour un segment donné (sous&#45;ensemble de bases de paye XML), redécoupe le segment en partie égales ou ...">
<polygon fill="white" stroke="black" points="318,-6 318,-25 420,-25 420,-6 318,-6"/>
<text text-anchor="middle" x="369" y="-13" font-family="Helvetica,sans-Serif" font-size="10.00">produire_segment</text>
</a>
</g>
</g>
<!-- Node104&#45;&gt;Node105 -->
<g id="edge2" class="edge"><title>Node104&#45;&gt;Node105</title>
<path fill="none" stroke="midnightblue" d="M292.425,-15.5C300.854,-15.5 309.542,-15.5 317.892,-15.5"/>
<polygon fill="midnightblue" stroke="midnightblue" points="292.314,-12.0001 282.314,-15.5 292.314,-19.0001 292.314,-12.0001"/>
</g>
<!-- Node106 -->
<g id="node4" class="node"><title>Node106</title>
<g id="a_node4"><a xlink:href="lhx_2main_8cpp.html#a3c04138a5bfe5d72780bb7e82a18e627" target="_top" xlink:title="main">
<polygon fill="white" stroke="black" points="456,-6 456,-25 495,-25 495,-6 456,-6"/>
<text text-anchor="middle" x="475.5" y="-13" font-family="Helvetica,sans-Serif" font-size="10.00">main</text>
</a>
</g>
</g>
<!-- Node105&#45;&gt;Node106 -->
<g id="edge3" class="edge"><title>Node105&#45;&gt;Node106</title>
<path fill="none" stroke="midnightblue" d="M430.271,-15.5C439.565,-15.5 448.512,-15.5 455.898,-15.5"/>
<polygon fill="midnightblue" stroke="midnightblue" points="430.108,-12.0001 420.107,-15.5 430.107,-19.0001 430.108,-12.0001"/>
</g>
</g>
</svg>
