<?xml version="1.0" encoding="UTF-8" standalone="no"?>
<!DOCTYPE svg PUBLIC "-//W3C//DTD SVG 1.1//EN"
 "http://www.w3.org/Graphics/SVG/1.1/DTD/svg11.dtd">
<!-- Generated by graphviz version 2.38.0 (20140413.2041)
 -->
<!-- Title: boucle_ecriture Pages: 1 -->
<svg width="309pt" height="28pt"
 viewBox="0.00 0.00 309.00 28.00" xmlns="http://www.w3.org/2000/svg" xmlns:xlink="http://www.w3.org/1999/xlink">
<g id="graph0" class="graph" transform="scale(1 1) rotate(0) translate(4 24)">
<title>boucle_ecriture</title>
<polygon fill="white" stroke="none" points="-4,4 -4,-24 305,-24 305,4 -4,4"/>
<!-- Node22 -->
<g id="node1" class="node"><title>Node22</title>
<polygon fill="#bfbfbf" stroke="black" points="0,-0.5 0,-19.5 88,-19.5 88,-0.5 0,-0.5"/>
<text text-anchor="middle" x="44" y="-7.5" font-family="Helvetica,sans-Serif" font-size="10.00">boucle_ecriture</text>
</g>
<!-- Node23 -->
<g id="node2" class="node"><title>Node23</title>
<g id="a_node2"><a xlink:href="lhx_2main_8cpp.html#abb1f1ad236423a832fd1efa1e9deeafa" target="_top" xlink:title="Pour un segment donné (sous&#45;ensemble de bases de paye XML), redécoupe le segment en partie égales ou ...">
<polygon fill="white" stroke="black" points="124,-0.5 124,-19.5 226,-19.5 226,-0.5 124,-0.5"/>
<text text-anchor="middle" x="175" y="-7.5" font-family="Helvetica,sans-Serif" font-size="10.00">produire_segment</text>
</a>
</g>
</g>
<!-- Node22&#45;&gt;Node23 -->
<g id="edge1" class="edge"><title>Node22&#45;&gt;Node23</title>
<path fill="none" stroke="midnightblue" d="M98.4254,-10C106.854,-10 115.542,-10 123.892,-10"/>
<polygon fill="midnightblue" stroke="midnightblue" points="98.314,-6.5001 88.314,-10 98.314,-13.5001 98.314,-6.5001"/>
</g>
<!-- Node24 -->
<g id="node3" class="node"><title>Node24</title>
<g id="a_node3"><a xlink:href="lhx_2main_8cpp.html#a3c04138a5bfe5d72780bb7e82a18e627" target="_top" xlink:title="main">
<polygon fill="white" stroke="black" points="262,-0.5 262,-19.5 301,-19.5 301,-0.5 262,-0.5"/>
<text text-anchor="middle" x="281.5" y="-7.5" font-family="Helvetica,sans-Serif" font-size="10.00">main</text>
</a>
</g>
</g>
<!-- Node23&#45;&gt;Node24 -->
<g id="edge2" class="edge"><title>Node23&#45;&gt;Node24</title>
<path fill="none" stroke="midnightblue" d="M236.271,-10C245.565,-10 254.512,-10 261.898,-10"/>
<polygon fill="midnightblue" stroke="midnightblue" points="236.108,-6.5001 226.107,-10 236.107,-13.5001 236.108,-6.5001"/>
</g>
</g>
</svg>
