<?xml version="1.0" encoding="UTF-8" standalone="no"?>
<!DOCTYPE svg PUBLIC "-//W3C//DTD SVG 1.1//EN"
 "http://www.w3.org/Graphics/SVG/1.1/DTD/svg11.dtd">
<!-- Generated by graphviz version 2.38.0 (20140413.2041)
 -->
<!-- Title: lhx/table.h Pages: 1 -->
<!--zoomable 252 -->
<svg id="main" version="1.1" xmlns="http://www.w3.org/2000/svg" xmlns:xlink="http://www.w3.org/1999/xlink" xml:space="preserve" onload="init(evt)">
<style type="text/css"><![CDATA[
.edge:hover path { stroke: red; }
.edge:hover polygon { stroke: red; fill: red; }
]]></style>
<script type="text/javascript"><![CDATA[
var edges = document.getElementsByTagName('g');
if (edges && edges.length) {
  for (var i=0;i<edges.length;i++) {
    if (edges[i].id.substr(0,4)=='edge') {
      edges[i].setAttribute('class','edge');
    }
  }
}
]]></script>
        <defs>
                <circle id="rim" cx="0" cy="0" r="7"/>
                <circle id="rim2" cx="0" cy="0" r="3.5"/>
                <g id="zoomPlus">
                        <use xlink:href="#rim" fill="#404040">
                                <set attributeName="fill" to="#808080" begin="zoomplus.mouseover" end="zoomplus.mouseout"/>
                        </use>
                        <path d="M-4,0h8M0,-4v8" fill="none" stroke="white" stroke-width="1.5" pointer-events="none"/>
                </g>
                <g id="zoomMin">
                        <use xlink:href="#rim" fill="#404040">
                                <set attributeName="fill" to="#808080" begin="zoomminus.mouseover" end="zoomminus.mouseout"/>
                        </use>
                        <path d="M-4,0h8" fill="none" stroke="white" stroke-width="1.5" pointer-events="none"/>
                </g>
                <g id="dirArrow">
                        <path fill="none" stroke="white" stroke-width="1.5" d="M0,-3.0v7 M-2.5,-0.5L0,-3.0L2.5,-0.5"/>
                </g>
               <g id="resetDef">
                       <use xlink:href="#rim2" fill="#404040">
                               <set attributeName="fill" to="#808080" begin="reset.mouseover" end="reset.mouseout"/>
                       </use>
               </g>
        </defs>

<script type="text/javascript">
var viewWidth = 1545;
var viewHeight = 252;
var sectionId = 'dynsection-0';
</script>
<script xlink:href="svgpan.js"/>
<svg id="graph" class="graph">
<g id="viewport">
<title>lhx/table.h</title>
<polygon fill="white" stroke="none" points="-4,4 -4,-248 1541,-248 1541,4 -4,4"/>
<!-- Node0 -->
<g id="node1" class="node"><title>Node0</title>
<polygon fill="#bfbfbf" stroke="black" points="1343.5,-224.5 1343.5,-243.5 1407.5,-243.5 1407.5,-224.5 1343.5,-224.5"/>
<text text-anchor="middle" x="1375.5" y="-231.5" font-family="Helvetica,sans-Serif" font-size="10.00">lhx/table.h</text>
</g>
<!-- Node1 -->
<g id="node2" class="node"><title>Node1</title>
<g id="a_node2"><a xlink:href="validator_8h.html" target="_top" xlink:title="Ce fichier contient notamment la structure info_t qui stocke les données de paye décodées ainsi que l...">
<polygon fill="white" stroke="black" points="746,-168.5 746,-187.5 811,-187.5 811,-168.5 746,-168.5"/>
<text text-anchor="middle" x="778.5" y="-175.5" font-family="Helvetica,sans-Serif" font-size="10.00">validator.h</text>
</a>
</g>
</g>
<!-- Node0&#45;&gt;Node1 -->
<g id="edge1" class="edge"><title>Node0&#45;&gt;Node1</title>
<path fill="none" stroke="midnightblue" d="M1343.4,-230.097C1243,-221.015 934.843,-193.142 821.185,-182.861"/>
<polygon fill="midnightblue" stroke="midnightblue" points="821.396,-179.366 811.121,-181.951 820.765,-186.337 821.396,-179.366"/>
</g>
<!-- Node2 -->
<g id="node3" class="node"><title>Node2</title>
<polygon fill="white" stroke="#bfbfbf" points="0,-112.5 0,-131.5 43,-131.5 43,-112.5 0,-112.5"/>
<text text-anchor="middle" x="21.5" y="-119.5" font-family="Helvetica,sans-Serif" font-size="10.00">string</text>
</g>
<!-- Node0&#45;&gt;Node2 -->
<g id="edge28" class="edge"><title>Node0&#45;&gt;Node2</title>
<path fill="none" stroke="midnightblue" d="M1343.39,-233.146C1195.82,-233.283 568.107,-228.007 53.1783,-131.977"/>
<polygon fill="midnightblue" stroke="midnightblue" points="53.7982,-128.532 43.3238,-130.125 52.5056,-135.412 53.7982,-128.532"/>
</g>
<!-- Node15 -->
<g id="node16" class="node"><title>Node15</title>
<polygon fill="white" stroke="#bfbfbf" points="1352.5,-112.5 1352.5,-131.5 1398.5,-131.5 1398.5,-112.5 1352.5,-112.5"/>
<text text-anchor="middle" x="1375.5" y="-119.5" font-family="Helvetica,sans-Serif" font-size="10.00">vector</text>
</g>
<!-- Node0&#45;&gt;Node15 -->
<g id="edge27" class="edge"><title>Node0&#45;&gt;Node15</title>
<path fill="none" stroke="midnightblue" d="M1375.5,-224.368C1375.5,-206.617 1375.5,-165.666 1375.5,-141.597"/>
<polygon fill="midnightblue" stroke="midnightblue" points="1379,-141.591 1375.5,-131.591 1372,-141.591 1379,-141.591"/>
</g>
<!-- Node17 -->
<g id="node18" class="node"><title>Node17</title>
<polygon fill="white" stroke="#bfbfbf" points="1417,-112.5 1417,-131.5 1474,-131.5 1474,-112.5 1417,-112.5"/>
<text text-anchor="middle" x="1445.5" y="-119.5" font-family="Helvetica,sans-Serif" font-size="10.00">iostream</text>
</g>
<!-- Node0&#45;&gt;Node17 -->
<g id="edge29" class="edge"><title>Node0&#45;&gt;Node17</title>
<path fill="none" stroke="midnightblue" d="M1380.99,-224.368C1392.49,-206.296 1419.3,-164.176 1434.49,-140.307"/>
<polygon fill="midnightblue" stroke="midnightblue" points="1437.62,-141.907 1440.03,-131.591 1431.71,-138.149 1437.62,-141.907"/>
</g>
<!-- Node20 -->
<g id="node21" class="node"><title>Node20</title>
<g id="a_node21"><a xlink:href="tags_8h.html" target="_top" xlink:title="tags.h">
<polygon fill="white" stroke="black" points="1492,-112.5 1492,-131.5 1537,-131.5 1537,-112.5 1492,-112.5"/>
<text text-anchor="middle" x="1514.5" y="-119.5" font-family="Helvetica,sans-Serif" font-size="10.00">tags.h</text>
</a>
</g>
</g>
<!-- Node0&#45;&gt;Node20 -->
<g id="edge26" class="edge"><title>Node0&#45;&gt;Node20</title>
<path fill="none" stroke="midnightblue" d="M1386.41,-224.368C1410.06,-205.653 1466.29,-161.151 1495.76,-137.832"/>
<polygon fill="midnightblue" stroke="midnightblue" points="1497.97,-140.542 1503.64,-131.591 1493.63,-135.052 1497.97,-140.542"/>
</g>
<!-- Node1&#45;&gt;Node2 -->
<g id="edge2" class="edge"><title>Node1&#45;&gt;Node2</title>
<path fill="none" stroke="midnightblue" d="M745.873,-175.977C625.703,-172.056 207.205,-157.029 53.4844,-131.923"/>
<polygon fill="midnightblue" stroke="midnightblue" points="53.7626,-128.419 43.3145,-130.176 52.5778,-135.318 53.7626,-128.419"/>
</g>
<!-- Node3 -->
<g id="node4" class="node"><title>Node3</title>
<polygon fill="white" stroke="#bfbfbf" points="451.5,-112.5 451.5,-131.5 497.5,-131.5 497.5,-112.5 451.5,-112.5"/>
<text text-anchor="middle" x="474.5" y="-119.5" font-family="Helvetica,sans-Serif" font-size="10.00">cstdlib</text>
</g>
<!-- Node1&#45;&gt;Node3 -->
<g id="edge3" class="edge"><title>Node1&#45;&gt;Node3</title>
<path fill="none" stroke="midnightblue" d="M745.758,-172.66C694.607,-165.634 592.761,-150.655 507.5,-132 507.398,-131.978 507.297,-131.955 507.195,-131.933"/>
<polygon fill="midnightblue" stroke="midnightblue" points="508.047,-128.538 497.505,-129.595 506.405,-135.343 508.047,-128.538"/>
</g>
<!-- Node4 -->
<g id="node5" class="node"><title>Node4</title>
<polygon fill="white" stroke="#bfbfbf" points="516,-112.5 516,-131.5 563,-131.5 563,-112.5 516,-112.5"/>
<text text-anchor="middle" x="539.5" y="-119.5" font-family="Helvetica,sans-Serif" font-size="10.00">cstdint</text>
</g>
<!-- Node1&#45;&gt;Node4 -->
<g id="edge4" class="edge"><title>Node1&#45;&gt;Node4</title>
<path fill="none" stroke="midnightblue" d="M745.914,-170.419C707.111,-162.465 640.129,-148.365 573.136,-132.057"/>
<polygon fill="midnightblue" stroke="midnightblue" points="573.801,-128.616 563.255,-129.635 572.135,-135.415 573.801,-128.616"/>
</g>
<!-- Node5 -->
<g id="node6" class="node"><title>Node5</title>
<polygon fill="white" stroke="#bfbfbf" points="581.5,-112.5 581.5,-131.5 637.5,-131.5 637.5,-112.5 581.5,-112.5"/>
<text text-anchor="middle" x="609.5" y="-119.5" font-family="Helvetica,sans-Serif" font-size="10.00">cstdbool</text>
</g>
<!-- Node1&#45;&gt;Node5 -->
<g id="edge5" class="edge"><title>Node1&#45;&gt;Node5</title>
<path fill="none" stroke="midnightblue" d="M751.721,-168.444C723.167,-159.32 677.767,-144.813 645.963,-134.651"/>
<polygon fill="midnightblue" stroke="midnightblue" points="646.744,-131.226 636.153,-131.516 644.614,-137.894 646.744,-131.226"/>
</g>
<!-- Node6 -->
<g id="node7" class="node"><title>Node6</title>
<polygon fill="white" stroke="#bfbfbf" points="656,-112.5 656,-131.5 701,-131.5 701,-112.5 656,-112.5"/>
<text text-anchor="middle" x="678.5" y="-119.5" font-family="Helvetica,sans-Serif" font-size="10.00">climits</text>
</g>
<!-- Node1&#45;&gt;Node6 -->
<g id="edge6" class="edge"><title>Node1&#45;&gt;Node6</title>
<path fill="none" stroke="midnightblue" d="M762.433,-168.324C746.542,-159.743 721.993,-146.486 703.542,-136.522"/>
<polygon fill="midnightblue" stroke="midnightblue" points="704.989,-133.326 694.527,-131.655 701.663,-139.486 704.989,-133.326"/>
</g>
<!-- Node7 -->
<g id="node8" class="node"><title>Node7</title>
<polygon fill="white" stroke="#bfbfbf" points="719.5,-112.5 719.5,-131.5 769.5,-131.5 769.5,-112.5 719.5,-112.5"/>
<text text-anchor="middle" x="744.5" y="-119.5" font-family="Helvetica,sans-Serif" font-size="10.00">clocale</text>
</g>
<!-- Node1&#45;&gt;Node7 -->
<g id="edge7" class="edge"><title>Node1&#45;&gt;Node7</title>
<path fill="none" stroke="midnightblue" d="M772.886,-168.083C768.133,-160.534 761.182,-149.495 755.348,-140.23"/>
<polygon fill="midnightblue" stroke="midnightblue" points="758.3,-138.349 750.01,-131.751 752.376,-142.078 758.3,-138.349"/>
</g>
<!-- Node8 -->
<g id="node9" class="node"><title>Node8</title>
<polygon fill="white" stroke="#bfbfbf" points="788,-112.5 788,-131.5 835,-131.5 835,-112.5 788,-112.5"/>
<text text-anchor="middle" x="811.5" y="-119.5" font-family="Helvetica,sans-Serif" font-size="10.00">cerrno</text>
</g>
<!-- Node1&#45;&gt;Node8 -->
<g id="edge8" class="edge"><title>Node1&#45;&gt;Node8</title>
<path fill="none" stroke="midnightblue" d="M783.949,-168.083C788.514,-160.613 795.168,-149.724 800.793,-140.52"/>
<polygon fill="midnightblue" stroke="midnightblue" points="803.924,-142.109 806.152,-131.751 797.951,-138.459 803.924,-142.109"/>
</g>
<!-- Node9 -->
<g id="node10" class="node"><title>Node9</title>
<polygon fill="white" stroke="#bfbfbf" points="853,-112.5 853,-131.5 898,-131.5 898,-112.5 853,-112.5"/>
<text text-anchor="middle" x="875.5" y="-119.5" font-family="Helvetica,sans-Serif" font-size="10.00">cmath</text>
</g>
<!-- Node1&#45;&gt;Node9 -->
<g id="edge9" class="edge"><title>Node1&#45;&gt;Node9</title>
<path fill="none" stroke="midnightblue" d="M794.085,-168.324C809.499,-159.743 833.312,-146.486 851.21,-136.522"/>
<polygon fill="midnightblue" stroke="midnightblue" points="852.919,-139.577 859.954,-131.655 849.514,-133.461 852.919,-139.577"/>
</g>
<!-- Node10 -->
<g id="node11" class="node"><title>Node10</title>
<polygon fill="white" stroke="#bfbfbf" points="916.5,-112.5 916.5,-131.5 964.5,-131.5 964.5,-112.5 916.5,-112.5"/>
<text text-anchor="middle" x="940.5" y="-119.5" font-family="Helvetica,sans-Serif" font-size="10.00">cstring</text>
</g>
<!-- Node1&#45;&gt;Node10 -->
<g id="edge10" class="edge"><title>Node1&#45;&gt;Node10</title>
<path fill="none" stroke="midnightblue" d="M804.169,-168.444C831.823,-159.226 875.96,-144.513 906.486,-134.338"/>
<polygon fill="midnightblue" stroke="midnightblue" points="907.894,-137.558 916.274,-131.075 905.68,-130.917 907.894,-137.558"/>
</g>
<!-- Node11 -->
<g id="node12" class="node"><title>Node11</title>
<polygon fill="white" stroke="#bfbfbf" points="983,-112.5 983,-131.5 1030,-131.5 1030,-112.5 983,-112.5"/>
<text text-anchor="middle" x="1006.5" y="-119.5" font-family="Helvetica,sans-Serif" font-size="10.00">cctype</text>
</g>
<!-- Node1&#45;&gt;Node11 -->
<g id="edge11" class="edge"><title>Node1&#45;&gt;Node11</title>
<path fill="none" stroke="midnightblue" d="M811.027,-169.906C847.845,-161.785 909.852,-147.838 972.654,-132.136"/>
<polygon fill="midnightblue" stroke="midnightblue" points="973.891,-135.434 982.736,-129.601 972.185,-128.645 973.891,-135.434"/>
</g>
<!-- Node12 -->
<g id="node13" class="node"><title>Node12</title>
<polygon fill="white" stroke="#bfbfbf" points="1048,-112.5 1048,-131.5 1155,-131.5 1155,-112.5 1048,-112.5"/>
<text text-anchor="middle" x="1101.5" y="-119.5" font-family="Helvetica,sans-Serif" font-size="10.00">libxml/xmlmemory.h</text>
</g>
<!-- Node1&#45;&gt;Node12 -->
<g id="edge12" class="edge"><title>Node1&#45;&gt;Node12</title>
<path fill="none" stroke="midnightblue" d="M811.248,-171.525C864.87,-162.56 972.228,-144.612 1040.28,-133.235"/>
<polygon fill="midnightblue" stroke="midnightblue" points="1041.15,-136.638 1050.43,-131.537 1039.99,-129.734 1041.15,-136.638"/>
</g>
<!-- Node13 -->
<g id="node14" class="node"><title>Node13</title>
<polygon fill="white" stroke="#bfbfbf" points="1172.5,-112.5 1172.5,-131.5 1256.5,-131.5 1256.5,-112.5 1172.5,-112.5"/>
<text text-anchor="middle" x="1214.5" y="-119.5" font-family="Helvetica,sans-Serif" font-size="10.00">libxml/parser.h</text>
</g>
<!-- Node1&#45;&gt;Node13 -->
<g id="edge13" class="edge"><title>Node1&#45;&gt;Node13</title>
<path fill="none" stroke="midnightblue" d="M811.124,-173.887C876.091,-167.539 1026.45,-152.107 1162.09,-132.291"/>
<polygon fill="midnightblue" stroke="midnightblue" points="1162.86,-135.716 1172.25,-130.796 1161.84,-128.79 1162.86,-135.716"/>
</g>
<!-- Node14 -->
<g id="node15" class="node"><title>Node14</title>
<polygon fill="white" stroke="#bfbfbf" points="1275,-112.5 1275,-131.5 1334,-131.5 1334,-112.5 1275,-112.5"/>
<text text-anchor="middle" x="1304.5" y="-119.5" font-family="Helvetica,sans-Serif" font-size="10.00">cinttypes</text>
</g>
<!-- Node1&#45;&gt;Node14 -->
<g id="edge14" class="edge"><title>Node1&#45;&gt;Node14</title>
<path fill="none" stroke="midnightblue" d="M811.176,-175.503C888.368,-171.642 1088.14,-159.756 1264.78,-131.892"/>
<polygon fill="midnightblue" stroke="midnightblue" points="1265.45,-135.33 1274.77,-130.295 1264.34,-128.418 1265.45,-135.33"/>
</g>
<!-- Node1&#45;&gt;Node15 -->
<g id="edge15" class="edge"><title>Node1&#45;&gt;Node15</title>
<path fill="none" stroke="midnightblue" d="M811.267,-176.612C897.111,-175.127 1135.62,-167.979 1342.09,-131.913"/>
<polygon fill="midnightblue" stroke="midnightblue" points="1342.97,-135.312 1352.2,-130.118 1341.75,-128.419 1342.97,-135.312"/>
</g>
<!-- Node16 -->
<g id="node17" class="node"><title>Node16</title>
<polygon fill="white" stroke="#bfbfbf" points="61,-112.5 61,-131.5 102,-131.5 102,-112.5 61,-112.5"/>
<text text-anchor="middle" x="81.5" y="-119.5" font-family="Helvetica,sans-Serif" font-size="10.00">array</text>
</g>
<!-- Node1&#45;&gt;Node16 -->
<g id="edge16" class="edge"><title>Node1&#45;&gt;Node16</title>
<path fill="none" stroke="midnightblue" d="M745.839,-177.482C649.643,-178.339 359.123,-176.881 112.138,-131.907"/>
<polygon fill="midnightblue" stroke="midnightblue" points="112.732,-128.458 102.263,-130.081 111.46,-135.341 112.732,-128.458"/>
</g>
<!-- Node1&#45;&gt;Node17 -->
<g id="edge17" class="edge"><title>Node1&#45;&gt;Node17</title>
<path fill="none" stroke="midnightblue" d="M811.113,-176.516C903.227,-174.759 1173.26,-166.912 1406.92,-131.809"/>
<polygon fill="midnightblue" stroke="midnightblue" points="1407.6,-135.245 1416.96,-130.279 1406.55,-128.325 1407.6,-135.245"/>
</g>
<!-- Node18 -->
<g id="node19" class="node"><title>Node18</title>
<polygon fill="white" stroke="#bfbfbf" points="120,-112.5 120,-131.5 173,-131.5 173,-112.5 120,-112.5"/>
<text text-anchor="middle" x="146.5" y="-119.5" font-family="Helvetica,sans-Serif" font-size="10.00">iomanip</text>
</g>
<!-- Node1&#45;&gt;Node18 -->
<g id="edge18" class="edge"><title>Node1&#45;&gt;Node18</title>
<path fill="none" stroke="midnightblue" d="M745.971,-176.478C657.219,-174.644 403.413,-166.669 183.258,-131.819"/>
<polygon fill="midnightblue" stroke="midnightblue" points="183.56,-128.322 173.132,-130.193 182.45,-135.234 183.56,-128.322"/>
</g>
<!-- Node19 -->
<g id="node20" class="node"><title>Node19</title>
<polygon fill="white" stroke="#bfbfbf" points="191.5,-112.5 191.5,-131.5 251.5,-131.5 251.5,-112.5 191.5,-112.5"/>
<text text-anchor="middle" x="221.5" y="-119.5" font-family="Helvetica,sans-Serif" font-size="10.00">algorithm</text>
</g>
<!-- Node1&#45;&gt;Node19 -->
<g id="edge19" class="edge"><title>Node1&#45;&gt;Node19</title>
<path fill="none" stroke="midnightblue" d="M745.94,-175.438C664.58,-171.254 445.981,-158.286 265.5,-132 264.241,-131.817 262.965,-131.62 261.677,-131.413"/>
<polygon fill="midnightblue" stroke="midnightblue" points="262.173,-127.946 251.717,-129.654 260.955,-134.84 262.173,-127.946"/>
</g>
<!-- Node1&#45;&gt;Node20 -->
<g id="edge20" class="edge"><title>Node1&#45;&gt;Node20</title>
<path fill="none" stroke="midnightblue" d="M811.122,-177.439C910.696,-178.249 1219.41,-176.832 1481.85,-131.921"/>
<polygon fill="midnightblue" stroke="midnightblue" points="1482.69,-135.326 1491.95,-130.166 1481.5,-128.429 1482.69,-135.326"/>
</g>
<!-- Node21 -->
<g id="node22" class="node"><title>Node21</title>
<g id="a_node22"><a xlink:href="expression__reg__elus_8h.html" target="_top" xlink:title="Expressions régulières représentant les élus. ">
<polygon fill="white" stroke="black" points="188,-56.5 188,-75.5 311,-75.5 311,-56.5 188,-56.5"/>
<text text-anchor="middle" x="249.5" y="-63.5" font-family="Helvetica,sans-Serif" font-size="10.00">expression_reg_elus.h</text>
</a>
</g>
</g>
<!-- Node1&#45;&gt;Node21 -->
<g id="edge21" class="edge"><title>Node1&#45;&gt;Node21</title>
<path fill="none" stroke="midnightblue" d="M745.778,-177.267C650.72,-177.527 376.464,-174.485 299.5,-132 280.278,-121.389 266.07,-99.9737 257.811,-84.6222"/>
<polygon fill="midnightblue" stroke="midnightblue" points="260.88,-82.9347 253.249,-75.5842 254.63,-86.0886 260.88,-82.9347"/>
</g>
<!-- Node23 -->
<g id="node24" class="node"><title>Node23</title>
<g id="a_node24"><a xlink:href="expression__reg__cata_8h.html" target="_top" xlink:title="Ce fichier contient les expressions rationnelles permettant d&#39;identifier les catégories statutaires A...">
<polygon fill="white" stroke="black" points="308,-112.5 308,-131.5 433,-131.5 433,-112.5 308,-112.5"/>
<text text-anchor="middle" x="370.5" y="-119.5" font-family="Helvetica,sans-Serif" font-size="10.00">expression_reg_cata.h</text>
</a>
</g>
</g>
<!-- Node1&#45;&gt;Node23 -->
<g id="edge23" class="edge"><title>Node1&#45;&gt;Node23</title>
<path fill="none" stroke="midnightblue" d="M745.801,-172.672C680.526,-164.033 532.672,-144.464 443.262,-132.63"/>
<polygon fill="midnightblue" stroke="midnightblue" points="443.566,-129.14 433.193,-131.298 442.647,-136.08 443.566,-129.14"/>
</g>
<!-- Node22 -->
<g id="node23" class="node"><title>Node22</title>
<g id="a_node23"><a xlink:href="expression__reg__commun_8h.html" target="_top" xlink:title="Elements constitutifs des expressions régulières. ">
<polygon fill="white" stroke="black" points="253,-0.5 253,-19.5 396,-19.5 396,-0.5 253,-0.5"/>
<text text-anchor="middle" x="324.5" y="-7.5" font-family="Helvetica,sans-Serif" font-size="10.00">expression_reg_commun.h</text>
</a>
</g>
</g>
<!-- Node21&#45;&gt;Node22 -->
<g id="edge22" class="edge"><title>Node21&#45;&gt;Node22</title>
<path fill="none" stroke="midnightblue" d="M261.55,-56.324C272.963,-48.1066 290.331,-35.6017 303.935,-25.8069"/>
<polygon fill="midnightblue" stroke="midnightblue" points="306.16,-28.5174 312.231,-19.8339 302.07,-22.8366 306.16,-28.5174"/>
</g>
<!-- Node24 -->
<g id="node25" class="node"><title>Node24</title>
<g id="a_node25"><a xlink:href="expression__reg__adjoints_8h.html" target="_top" xlink:title="Expressions régulières de niveau adjoints / auxiliaires / aides (catégories C) ">
<polygon fill="white" stroke="black" points="329,-56.5 329,-75.5 470,-75.5 470,-56.5 329,-56.5"/>
<text text-anchor="middle" x="399.5" y="-63.5" font-family="Helvetica,sans-Serif" font-size="10.00">expression_reg_adjoints.h</text>
</a>
</g>
</g>
<!-- Node23&#45;&gt;Node24 -->
<g id="edge24" class="edge"><title>Node23&#45;&gt;Node24</title>
<path fill="none" stroke="midnightblue" d="M375.289,-112.083C379.258,-104.691 385.025,-93.9533 389.935,-84.8111"/>
<polygon fill="midnightblue" stroke="midnightblue" points="393.153,-86.217 394.8,-75.7511 386.986,-82.9051 393.153,-86.217"/>
</g>
<!-- Node24&#45;&gt;Node22 -->
<g id="edge25" class="edge"><title>Node24&#45;&gt;Node22</title>
<path fill="none" stroke="midnightblue" d="M387.45,-56.324C376.037,-48.1066 358.669,-35.6017 345.065,-25.8069"/>
<polygon fill="midnightblue" stroke="midnightblue" points="346.93,-22.8366 336.769,-19.8339 342.84,-28.5174 346.93,-22.8366"/>
</g>
</g>
</svg>
        <g id="navigator" transform="translate(0 0)" fill="#404254">
                <rect fill="#f2f5e9" fill-opacity="0.5" stroke="#606060" stroke-width=".5" x="0" y="0" width="60" height="60"/>
                <use id="zoomplus" xlink:href="#zoomPlus" x="17" y="9" onmousedown="handleZoom(evt,'in')"/>
                <use id="zoomminus" xlink:href="#zoomMin" x="42" y="9" onmousedown="handleZoom(evt,'out')"/>
                <use id="reset" xlink:href="#resetDef" x="30" y="36" onmousedown="handleReset()"/>
                <g id="arrowUp" xlink:href="#dirArrow" transform="translate(30 24)" onmousedown="handlePan(0,-1)">
                  <use xlink:href="#rim" fill="#404040">
                        <set attributeName="fill" to="#808080" begin="arrowUp.mouseover" end="arrowUp.mouseout"/>
                  </use>
                  <path fill="none" stroke="white" stroke-width="1.5" d="M0,-3.0v7 M-2.5,-0.5L0,-3.0L2.5,-0.5"/>
                </g>
                <g id="arrowRight" xlink:href="#dirArrow" transform="rotate(90) translate(36 -43)" onmousedown="handlePan(1,0)">
                  <use xlink:href="#rim" fill="#404040">
                        <set attributeName="fill" to="#808080" begin="arrowRight.mouseover" end="arrowRight.mouseout"/>
                  </use>
                  <path fill="none" stroke="white" stroke-width="1.5" d="M0,-3.0v7 M-2.5,-0.5L0,-3.0L2.5,-0.5"/>
                </g>
                <g id="arrowDown" xlink:href="#dirArrow" transform="rotate(180) translate(-30 -48)" onmousedown="handlePan(0,1)">
                  <use xlink:href="#rim" fill="#404040">
                        <set attributeName="fill" to="#808080" begin="arrowDown.mouseover" end="arrowDown.mouseout"/>
                  </use>
                  <path fill="none" stroke="white" stroke-width="1.5" d="M0,-3.0v7 M-2.5,-0.5L0,-3.0L2.5,-0.5"/>
                </g>
                <g id="arrowLeft" xlink:href="#dirArrow" transform="rotate(270) translate(-36 17)" onmousedown="handlePan(-1,0)">
                  <use xlink:href="#rim" fill="#404040">
                        <set attributeName="fill" to="#808080" begin="arrowLeft.mouseover" end="arrowLeft.mouseout"/>
                  </use>
                  <path fill="none" stroke="white" stroke-width="1.5" d="M0,-3.0v7 M-2.5,-0.5L0,-3.0L2.5,-0.5"/>
                </g>
        </g>
        <svg viewBox="0 0 15 15" width="100%" height="30px" preserveAspectRatio="xMaxYMin meet">
         <g id="arrow_out" transform="scale(0.3 0.3)">
          <a xlink:href="table_8h__incl_org.svg" target="_base">
           <rect id="button" ry="5" rx="5" y="6" x="6" height="38" width="38"
                fill="#f2f5e9" fill-opacity="0.5" stroke="#606060" stroke-width="1.0"/>
           <path id="arrow"
             d="M 11.500037,31.436501 C 11.940474,20.09759 22.043105,11.32322 32.158766,21.979434 L 37.068811,17.246167 C 37.068811,17.246167 37.088388,32 37.088388,32 L 22.160133,31.978069 C 22.160133,31.978069 26.997745,27.140456 26.997745,27.140456 C 18.528582,18.264221 13.291696,25.230495 11.500037,31.436501 z"
             style="fill:#404040;"/>
          </a>
         </g>
        </svg>
</svg>
