<?xml version="1.0" encoding="UTF-8" standalone="no"?>
<!DOCTYPE svg PUBLIC "-//W3C//DTD SVG 1.1//EN"
 "http://www.w3.org/Graphics/SVG/1.1/DTD/svg11.dtd">
<!-- Generated by graphviz version 2.38.0 (20140413.2041)
 -->
<!-- Title: ECRIRE_LIGNE_BULLETIN_GENERER_RANG_ECHELON Pages: 1 -->
<svg width="359pt" height="39pt"
 viewBox="0.00 0.00 359.00 39.00" xmlns="http://www.w3.org/2000/svg" xmlns:xlink="http://www.w3.org/1999/xlink">
<g id="graph0" class="graph" transform="scale(1 1) rotate(0) translate(4 35)">
<title>ECRIRE_LIGNE_BULLETIN_GENERER_RANG_ECHELON</title>
<polygon fill="white" stroke="none" points="-4,4 -4,-35 355,-35 355,4 -4,4"/>
<!-- Node42 -->
<g id="node1" class="node"><title>Node42</title>
<polygon fill="#bfbfbf" stroke="black" points="0,-0.5 0,-30.5 166,-30.5 166,-0.5 0,-0.5"/>
<text text-anchor="start" x="8" y="-18.5" font-family="Helvetica,sans-Serif" font-size="10.00">ECRIRE_LIGNE_BULLETIN</text>
<text text-anchor="middle" x="83" y="-7.5" font-family="Helvetica,sans-Serif" font-size="10.00">_GENERER_RANG_ECHELON</text>
</g>
<!-- Node43 -->
<g id="node2" class="node"><title>Node43</title>
<g id="a_node2"><a xlink:href="table_8cpp.html#a4c2fb8f5119259a3b8fd7e2867a554d2" target="_top" xlink:title="Ecrit une ligne de bulletin de paye pour un agent donné dans le fichier CSV Bulletins.paie &#160;. ">
<polygon fill="white" stroke="black" points="202,-0.5 202,-30.5 351,-30.5 351,-0.5 202,-0.5"/>
<text text-anchor="start" x="210" y="-18.5" font-family="Helvetica,sans-Serif" font-size="10.00">ECRIRE_LIGNE_BULLETIN</text>
<text text-anchor="middle" x="276.5" y="-7.5" font-family="Helvetica,sans-Serif" font-size="10.00">_COMMUN</text>
</a>
</g>
</g>
<!-- Node42&#45;&gt;Node43 -->
<g id="edge1" class="edge"><title>Node42&#45;&gt;Node43</title>
<path fill="none" stroke="midnightblue" d="M166.047,-15.5C174.491,-15.5 183.08,-15.5 191.544,-15.5"/>
<polygon fill="midnightblue" stroke="midnightblue" points="191.789,-19.0001 201.789,-15.5 191.789,-12.0001 191.789,-19.0001"/>
</g>
</g>
</svg>
