<?xml version="1.0" encoding="UTF-8" standalone="no"?>
<!DOCTYPE svg PUBLIC "-//W3C//DTD SVG 1.1//EN"
 "http://www.w3.org/Graphics/SVG/1.1/DTD/svg11.dtd">
<!-- Generated by graphviz version 2.38.0 (20140413.2041)
 -->
<!-- Title: lhx/table.cpp Pages: 1 -->
<!--zoomable 308 -->
<svg id="main" version="1.1" xmlns="http://www.w3.org/2000/svg" xmlns:xlink="http://www.w3.org/1999/xlink" xml:space="preserve" onload="init(evt)">
<style type="text/css"><![CDATA[
.edge:hover path { stroke: red; }
.edge:hover polygon { stroke: red; fill: red; }
]]></style>
<script type="text/javascript"><![CDATA[
var edges = document.getElementsByTagName('g');
if (edges && edges.length) {
  for (var i=0;i<edges.length;i++) {
    if (edges[i].id.substr(0,4)=='edge') {
      edges[i].setAttribute('class','edge');
    }
  }
}
]]></script>
        <defs>
                <circle id="rim" cx="0" cy="0" r="7"/>
                <circle id="rim2" cx="0" cy="0" r="3.5"/>
                <g id="zoomPlus">
                        <use xlink:href="#rim" fill="#404040">
                                <set attributeName="fill" to="#808080" begin="zoomplus.mouseover" end="zoomplus.mouseout"/>
                        </use>
                        <path d="M-4,0h8M0,-4v8" fill="none" stroke="white" stroke-width="1.5" pointer-events="none"/>
                </g>
                <g id="zoomMin">
                        <use xlink:href="#rim" fill="#404040">
                                <set attributeName="fill" to="#808080" begin="zoomminus.mouseover" end="zoomminus.mouseout"/>
                        </use>
                        <path d="M-4,0h8" fill="none" stroke="white" stroke-width="1.5" pointer-events="none"/>
                </g>
                <g id="dirArrow">
                        <path fill="none" stroke="white" stroke-width="1.5" d="M0,-3.0v7 M-2.5,-0.5L0,-3.0L2.5,-0.5"/>
                </g>
               <g id="resetDef">
                       <use xlink:href="#rim2" fill="#404040">
                               <set attributeName="fill" to="#808080" begin="reset.mouseover" end="reset.mouseout"/>
                       </use>
               </g>
        </defs>

<script type="text/javascript">
var viewWidth = 1544;
var viewHeight = 308;
var sectionId = 'dynsection-0';
</script>
<script xlink:href="svgpan.js"/>
<svg id="graph" class="graph">
<g id="viewport">
<title>lhx/table.cpp</title>
<polygon fill="white" stroke="none" points="-4,4 -4,-304 1539.5,-304 1539.5,4 -4,4"/>
<!-- Node0 -->
<g id="node1" class="node"><title>Node0</title>
<polygon fill="#bfbfbf" stroke="black" points="407,-280.5 407,-299.5 482,-299.5 482,-280.5 407,-280.5"/>
<text text-anchor="middle" x="444.5" y="-287.5" font-family="Helvetica,sans-Serif" font-size="10.00">lhx/table.cpp</text>
</g>
<!-- Node1 -->
<g id="node2" class="node"><title>Node1</title>
<polygon fill="white" stroke="#bfbfbf" points="147.5,-224.5 147.5,-243.5 209.5,-243.5 209.5,-224.5 147.5,-224.5"/>
<text text-anchor="middle" x="178.5" y="-231.5" font-family="Helvetica,sans-Serif" font-size="10.00">inttypes.h</text>
</g>
<!-- Node0&#45;&gt;Node1 -->
<g id="edge1" class="edge"><title>Node0&#45;&gt;Node1</title>
<path fill="none" stroke="midnightblue" d="M406.953,-281.378C357.515,-271.341 270.886,-253.755 219.694,-243.363"/>
<polygon fill="midnightblue" stroke="midnightblue" points="220.138,-239.881 209.641,-241.322 218.745,-246.742 220.138,-239.881"/>
</g>
<!-- Node2 -->
<g id="node3" class="node"><title>Node2</title>
<polygon fill="white" stroke="#bfbfbf" points="1487.5,-112.5 1487.5,-131.5 1535.5,-131.5 1535.5,-112.5 1487.5,-112.5"/>
<text text-anchor="middle" x="1511.5" y="-119.5" font-family="Helvetica,sans-Serif" font-size="10.00">cstring</text>
</g>
<!-- Node0&#45;&gt;Node2 -->
<g id="edge2" class="edge"><title>Node0&#45;&gt;Node2</title>
<path fill="none" stroke="midnightblue" d="M482.196,-288.442C623.054,-286.124 1118.3,-275.844 1272.5,-244 1343.01,-229.44 1361.23,-222.347 1424.5,-188 1450.46,-173.906 1477.24,-152.715 1494.1,-138.394"/>
<polygon fill="midnightblue" stroke="midnightblue" points="1496.68,-140.791 1501.96,-131.605 1492.11,-135.493 1496.68,-140.791"/>
</g>
<!-- Node3 -->
<g id="node4" class="node"><title>Node3</title>
<polygon fill="white" stroke="#bfbfbf" points="1428,-112.5 1428,-131.5 1469,-131.5 1469,-112.5 1428,-112.5"/>
<text text-anchor="middle" x="1448.5" y="-119.5" font-family="Helvetica,sans-Serif" font-size="10.00">array</text>
</g>
<!-- Node0&#45;&gt;Node3 -->
<g id="edge3" class="edge"><title>Node0&#45;&gt;Node3</title>
<path fill="none" stroke="midnightblue" d="M482.223,-289.205C639.478,-289.435 1242.02,-283.93 1400.5,-188 1418.64,-177.022 1432.09,-156.353 1440.06,-141.261"/>
<polygon fill="midnightblue" stroke="midnightblue" points="1443.4,-142.406 1444.7,-131.891 1437.13,-139.301 1443.4,-142.406"/>
</g>
<!-- Node4 -->
<g id="node5" class="node"><title>Node4</title>
<polygon fill="white" stroke="#bfbfbf" points="417.5,-168.5 417.5,-187.5 471.5,-187.5 471.5,-168.5 417.5,-168.5"/>
<text text-anchor="middle" x="444.5" y="-175.5" font-family="Helvetica,sans-Serif" font-size="10.00">sstream</text>
</g>
<!-- Node0&#45;&gt;Node4 -->
<g id="edge4" class="edge"><title>Node0&#45;&gt;Node4</title>
<path fill="none" stroke="midnightblue" d="M444.5,-280.368C444.5,-262.617 444.5,-221.666 444.5,-197.597"/>
<polygon fill="midnightblue" stroke="midnightblue" points="448,-197.591 444.5,-187.591 441,-197.591 448,-197.591"/>
</g>
<!-- Node5 -->
<g id="node6" class="node"><title>Node5</title>
<polygon fill="white" stroke="#bfbfbf" points="0,-112.5 0,-131.5 57,-131.5 57,-112.5 0,-112.5"/>
<text text-anchor="middle" x="28.5" y="-119.5" font-family="Helvetica,sans-Serif" font-size="10.00">iostream</text>
</g>
<!-- Node0&#45;&gt;Node5 -->
<g id="edge5" class="edge"><title>Node0&#45;&gt;Node5</title>
<path fill="none" stroke="midnightblue" d="M421.381,-280.35C397.55,-271.395 359.346,-256.93 326.5,-244 227.94,-205.202 111.822,-157.465 58.2829,-135.339"/>
<polygon fill="midnightblue" stroke="midnightblue" points="59.6111,-132.101 49.0326,-131.513 56.936,-138.569 59.6111,-132.101"/>
</g>
<!-- Node6 -->
<g id="node7" class="node"><title>Node6</title>
<polygon fill="white" stroke="#bfbfbf" points="489.5,-168.5 489.5,-187.5 541.5,-187.5 541.5,-168.5 489.5,-168.5"/>
<text text-anchor="middle" x="515.5" y="-175.5" font-family="Helvetica,sans-Serif" font-size="10.00">fstream</text>
</g>
<!-- Node0&#45;&gt;Node6 -->
<g id="edge6" class="edge"><title>Node0&#45;&gt;Node6</title>
<path fill="none" stroke="midnightblue" d="M450.071,-280.368C461.736,-262.296 488.923,-220.176 504.329,-196.307"/>
<polygon fill="midnightblue" stroke="midnightblue" points="507.472,-197.891 509.955,-187.591 501.591,-194.095 507.472,-197.891"/>
</g>
<!-- Node7 -->
<g id="node8" class="node"><title>Node7</title>
<g id="a_node8"><a xlink:href="table_8h.html" target="_top" xlink:title="table.h">
<polygon fill="white" stroke="black" points="368,-224.5 368,-243.5 415,-243.5 415,-224.5 368,-224.5"/>
<text text-anchor="middle" x="391.5" y="-231.5" font-family="Helvetica,sans-Serif" font-size="10.00">table.h</text>
</a>
</g>
</g>
<!-- Node0&#45;&gt;Node7 -->
<g id="edge7" class="edge"><title>Node0&#45;&gt;Node7</title>
<path fill="none" stroke="midnightblue" d="M435.748,-280.083C428.03,-272.22 416.595,-260.569 407.283,-251.081"/>
<polygon fill="midnightblue" stroke="midnightblue" points="409.592,-248.436 400.089,-243.751 404.596,-253.34 409.592,-248.436"/>
</g>
<!-- Node24 -->
<g id="node25" class="node"><title>Node24</title>
<g id="a_node25"><a xlink:href="tags_8h.html" target="_top" xlink:title="tags.h">
<polygon fill="white" stroke="black" points="75,-112.5 75,-131.5 120,-131.5 120,-112.5 75,-112.5"/>
<text text-anchor="middle" x="97.5" y="-119.5" font-family="Helvetica,sans-Serif" font-size="10.00">tags.h</text>
</a>
</g>
</g>
<!-- Node0&#45;&gt;Node24 -->
<g id="edge56" class="edge"><title>Node0&#45;&gt;Node24</title>
<path fill="none" stroke="midnightblue" d="M426.32,-280.382C408.639,-271.793 381.2,-257.913 358.5,-244 308.767,-213.519 304,-193.421 251.5,-168 245.915,-165.296 173.475,-144.549 129.968,-132.19"/>
<polygon fill="midnightblue" stroke="midnightblue" points="130.687,-128.756 120.112,-129.393 128.776,-135.49 130.687,-128.756"/>
</g>
<!-- Node29 -->
<g id="node30" class="node"><title>Node29</title>
<g id="a_node30"><a xlink:href="fonctions__auxiliaires_8h.html" target="_top" xlink:title="Diverses fonctions auxiliaires en inlining. ">
<polygon fill="white" stroke="black" points="910.5,-224.5 910.5,-243.5 1030.5,-243.5 1030.5,-224.5 910.5,-224.5"/>
<text text-anchor="middle" x="970.5" y="-231.5" font-family="Helvetica,sans-Serif" font-size="10.00">fonctions_auxiliaires.h</text>
</a>
</g>
</g>
<!-- Node0&#45;&gt;Node29 -->
<g id="edge37" class="edge"><title>Node0&#45;&gt;Node29</title>
<path fill="none" stroke="midnightblue" d="M482.329,-285.116C569.817,-276.135 787.256,-253.812 900.076,-242.23"/>
<polygon fill="midnightblue" stroke="midnightblue" points="900.739,-245.68 910.329,-241.177 900.024,-238.717 900.739,-245.68"/>
</g>
<!-- Node7&#45;&gt;Node5 -->
<g id="edge36" class="edge"><title>Node7&#45;&gt;Node5</title>
<path fill="none" stroke="midnightblue" d="M376.051,-224.296C350.776,-210.41 298.668,-183.262 251.5,-168 174.361,-143.041 149.595,-149.418 66.9694,-132.209"/>
<polygon fill="midnightblue" stroke="midnightblue" points="67.6628,-128.779 57.1522,-130.111 66.2,-135.624 67.6628,-128.779"/>
</g>
<!-- Node8 -->
<g id="node9" class="node"><title>Node8</title>
<g id="a_node9"><a xlink:href="validator_8h.html" target="_top" xlink:title="Ce fichier contient notamment la structure info_t qui stocke les données de paye décodées ainsi que l...">
<polygon fill="white" stroke="black" points="674,-168.5 674,-187.5 739,-187.5 739,-168.5 674,-168.5"/>
<text text-anchor="middle" x="706.5" y="-175.5" font-family="Helvetica,sans-Serif" font-size="10.00">validator.h</text>
</a>
</g>
</g>
<!-- Node7&#45;&gt;Node8 -->
<g id="edge8" class="edge"><title>Node7&#45;&gt;Node8</title>
<path fill="none" stroke="midnightblue" d="M415.176,-228.941C468.008,-219.884 596.156,-197.916 663.509,-186.37"/>
<polygon fill="midnightblue" stroke="midnightblue" points="664.511,-189.749 673.776,-184.61 663.328,-182.85 664.511,-189.749"/>
</g>
<!-- Node9 -->
<g id="node10" class="node"><title>Node9</title>
<polygon fill="white" stroke="#bfbfbf" points="1129,-112.5 1129,-131.5 1172,-131.5 1172,-112.5 1129,-112.5"/>
<text text-anchor="middle" x="1150.5" y="-119.5" font-family="Helvetica,sans-Serif" font-size="10.00">string</text>
</g>
<!-- Node7&#45;&gt;Node9 -->
<g id="edge35" class="edge"><title>Node7&#45;&gt;Node9</title>
<path fill="none" stroke="midnightblue" d="M415.422,-232.815C473.619,-231.76 626.677,-225.348 747.5,-188 766.111,-182.247 767.837,-173.582 786.5,-168 926.471,-126.138 972.192,-160.051 1119.16,-131.914"/>
<polygon fill="midnightblue" stroke="midnightblue" points="1119.86,-135.344 1128.99,-129.97 1118.5,-128.477 1119.86,-135.344"/>
</g>
<!-- Node21 -->
<g id="node22" class="node"><title>Node21</title>
<polygon fill="white" stroke="#bfbfbf" points="138.5,-112.5 138.5,-131.5 184.5,-131.5 184.5,-112.5 138.5,-112.5"/>
<text text-anchor="middle" x="161.5" y="-119.5" font-family="Helvetica,sans-Serif" font-size="10.00">vector</text>
</g>
<!-- Node7&#45;&gt;Node21 -->
<g id="edge34" class="edge"><title>Node7&#45;&gt;Node21</title>
<path fill="none" stroke="midnightblue" d="M390.615,-224.338C388.694,-210.261 382.815,-182.534 365.5,-168 308.134,-119.847 272.377,-148.033 194.722,-131.987"/>
<polygon fill="midnightblue" stroke="midnightblue" points="195.049,-128.473 184.523,-129.677 193.502,-135.3 195.049,-128.473"/>
</g>
<!-- Node7&#45;&gt;Node24 -->
<g id="edge33" class="edge"><title>Node7&#45;&gt;Node24</title>
<path fill="none" stroke="midnightblue" d="M385.602,-224.167C375.525,-209.845 353.539,-181.772 327.5,-168 251.215,-127.652 218.941,-150.39 130.099,-131.853"/>
<polygon fill="midnightblue" stroke="midnightblue" points="130.677,-128.397 120.158,-129.657 129.167,-135.232 130.677,-128.397"/>
</g>
<!-- Node8&#45;&gt;Node2 -->
<g id="edge17" class="edge"><title>Node8&#45;&gt;Node2</title>
<path fill="none" stroke="midnightblue" d="M739.152,-172.878C753.636,-171.165 770.899,-169.282 786.5,-168 1090.14,-143.045 1172.65,-179.987 1477.47,-131.791"/>
<polygon fill="midnightblue" stroke="midnightblue" points="1478.16,-135.225 1487.48,-130.19 1477.05,-128.313 1478.16,-135.225"/>
</g>
<!-- Node8&#45;&gt;Node3 -->
<g id="edge23" class="edge"><title>Node8&#45;&gt;Node3</title>
<path fill="none" stroke="midnightblue" d="M739.155,-172.914C753.64,-171.208 770.902,-169.32 786.5,-168 1063.99,-144.518 1140.42,-181.254 1417.79,-131.9"/>
<polygon fill="midnightblue" stroke="midnightblue" points="1418.52,-135.325 1427.74,-130.108 1417.28,-128.436 1418.52,-135.325"/>
</g>
<!-- Node8&#45;&gt;Node5 -->
<g id="edge24" class="edge"><title>Node8&#45;&gt;Node5</title>
<path fill="none" stroke="midnightblue" d="M673.872,-174.58C649.084,-172.749 614.147,-170.186 583.5,-168 356.567,-151.812 295.273,-166.957 67.0268,-131.998"/>
<polygon fill="midnightblue" stroke="midnightblue" points="67.5047,-128.53 57.0872,-130.46 66.4345,-135.448 67.5047,-128.53"/>
</g>
<!-- Node8&#45;&gt;Node9 -->
<g id="edge9" class="edge"><title>Node8&#45;&gt;Node9</title>
<path fill="none" stroke="midnightblue" d="M739.051,-170.367C743.883,-169.499 748.813,-168.677 753.5,-168 912.383,-145.044 957.846,-162.929 1118.74,-132.003"/>
<polygon fill="midnightblue" stroke="midnightblue" points="1119.85,-135.35 1129,-129.995 1118.51,-128.481 1119.85,-135.35"/>
</g>
<!-- Node10 -->
<g id="node11" class="node"><title>Node10</title>
<polygon fill="white" stroke="#bfbfbf" points="540.5,-112.5 540.5,-131.5 586.5,-131.5 586.5,-112.5 540.5,-112.5"/>
<text text-anchor="middle" x="563.5" y="-119.5" font-family="Helvetica,sans-Serif" font-size="10.00">cstdlib</text>
</g>
<!-- Node8&#45;&gt;Node10 -->
<g id="edge10" class="edge"><title>Node8&#45;&gt;Node10</title>
<path fill="none" stroke="midnightblue" d="M683.841,-168.444C660.098,-159.478 622.591,-145.314 595.762,-135.183"/>
<polygon fill="midnightblue" stroke="midnightblue" points="596.644,-131.775 586.053,-131.516 594.171,-138.324 596.644,-131.775"/>
</g>
<!-- Node11 -->
<g id="node12" class="node"><title>Node11</title>
<polygon fill="white" stroke="#bfbfbf" points="1190,-112.5 1190,-131.5 1237,-131.5 1237,-112.5 1190,-112.5"/>
<text text-anchor="middle" x="1213.5" y="-119.5" font-family="Helvetica,sans-Serif" font-size="10.00">cstdint</text>
</g>
<!-- Node8&#45;&gt;Node11 -->
<g id="edge11" class="edge"><title>Node8&#45;&gt;Node11</title>
<path fill="none" stroke="midnightblue" d="M739.179,-173.166C753.668,-171.506 770.927,-169.585 786.5,-168 958.623,-150.477 1006.38,-163.495 1179.87,-132.008"/>
<polygon fill="midnightblue" stroke="midnightblue" points="1180.65,-135.424 1189.85,-130.174 1179.38,-128.54 1180.65,-135.424"/>
</g>
<!-- Node12 -->
<g id="node13" class="node"><title>Node12</title>
<polygon fill="white" stroke="#bfbfbf" points="604.5,-112.5 604.5,-131.5 660.5,-131.5 660.5,-112.5 604.5,-112.5"/>
<text text-anchor="middle" x="632.5" y="-119.5" font-family="Helvetica,sans-Serif" font-size="10.00">cstdbool</text>
</g>
<!-- Node8&#45;&gt;Node12 -->
<g id="edge12" class="edge"><title>Node8&#45;&gt;Node12</title>
<path fill="none" stroke="midnightblue" d="M694.611,-168.324C683.35,-160.107 666.213,-147.602 652.791,-137.807"/>
<polygon fill="midnightblue" stroke="midnightblue" points="654.747,-134.901 644.606,-131.834 650.62,-140.556 654.747,-134.901"/>
</g>
<!-- Node13 -->
<g id="node14" class="node"><title>Node13</title>
<polygon fill="white" stroke="#bfbfbf" points="679,-112.5 679,-131.5 724,-131.5 724,-112.5 679,-112.5"/>
<text text-anchor="middle" x="701.5" y="-119.5" font-family="Helvetica,sans-Serif" font-size="10.00">climits</text>
</g>
<!-- Node8&#45;&gt;Node13 -->
<g id="edge13" class="edge"><title>Node8&#45;&gt;Node13</title>
<path fill="none" stroke="midnightblue" d="M705.674,-168.083C705.019,-161.006 704.08,-150.861 703.258,-141.986"/>
<polygon fill="midnightblue" stroke="midnightblue" points="706.717,-141.386 702.31,-131.751 699.747,-142.031 706.717,-141.386"/>
</g>
<!-- Node14 -->
<g id="node15" class="node"><title>Node14</title>
<polygon fill="white" stroke="#bfbfbf" points="742.5,-112.5 742.5,-131.5 792.5,-131.5 792.5,-112.5 742.5,-112.5"/>
<text text-anchor="middle" x="767.5" y="-119.5" font-family="Helvetica,sans-Serif" font-size="10.00">clocale</text>
</g>
<!-- Node8&#45;&gt;Node14 -->
<g id="edge14" class="edge"><title>Node8&#45;&gt;Node14</title>
<path fill="none" stroke="midnightblue" d="M716.301,-168.324C725.318,-160.341 738.906,-148.313 749.818,-138.653"/>
<polygon fill="midnightblue" stroke="midnightblue" points="752.353,-141.083 757.521,-131.834 747.713,-135.842 752.353,-141.083"/>
</g>
<!-- Node15 -->
<g id="node16" class="node"><title>Node15</title>
<polygon fill="white" stroke="#bfbfbf" points="811,-112.5 811,-131.5 858,-131.5 858,-112.5 811,-112.5"/>
<text text-anchor="middle" x="834.5" y="-119.5" font-family="Helvetica,sans-Serif" font-size="10.00">cerrno</text>
</g>
<!-- Node8&#45;&gt;Node15 -->
<g id="edge15" class="edge"><title>Node8&#45;&gt;Node15</title>
<path fill="none" stroke="midnightblue" d="M726.782,-168.444C747.847,-159.557 781.017,-145.563 804.986,-135.451"/>
<polygon fill="midnightblue" stroke="midnightblue" points="806.46,-138.628 814.313,-131.516 803.739,-132.179 806.46,-138.628"/>
</g>
<!-- Node16 -->
<g id="node17" class="node"><title>Node16</title>
<polygon fill="white" stroke="#bfbfbf" points="876,-112.5 876,-131.5 921,-131.5 921,-112.5 876,-112.5"/>
<text text-anchor="middle" x="898.5" y="-119.5" font-family="Helvetica,sans-Serif" font-size="10.00">cmath</text>
</g>
<!-- Node8&#45;&gt;Node16 -->
<g id="edge16" class="edge"><title>Node8&#45;&gt;Node16</title>
<path fill="none" stroke="midnightblue" d="M736.923,-168.444C772.05,-158.564 829.617,-142.373 865.715,-132.221"/>
<polygon fill="midnightblue" stroke="midnightblue" points="867.056,-135.479 875.735,-129.403 865.161,-128.741 867.056,-135.479"/>
</g>
<!-- Node17 -->
<g id="node18" class="node"><title>Node17</title>
<polygon fill="white" stroke="#bfbfbf" points="939,-112.5 939,-131.5 986,-131.5 986,-112.5 939,-112.5"/>
<text text-anchor="middle" x="962.5" y="-119.5" font-family="Helvetica,sans-Serif" font-size="10.00">cctype</text>
</g>
<!-- Node8&#45;&gt;Node17 -->
<g id="edge18" class="edge"><title>Node8&#45;&gt;Node17</title>
<path fill="none" stroke="midnightblue" d="M739.113,-170.765C788.468,-161.279 880.763,-143.335 928.931,-132.217"/>
<polygon fill="midnightblue" stroke="midnightblue" points="929.861,-135.593 938.787,-129.886 928.25,-128.781 929.861,-135.593"/>
</g>
<!-- Node18 -->
<g id="node19" class="node"><title>Node18</title>
<polygon fill="white" stroke="#bfbfbf" points="1004,-112.5 1004,-131.5 1111,-131.5 1111,-112.5 1004,-112.5"/>
<text text-anchor="middle" x="1057.5" y="-119.5" font-family="Helvetica,sans-Serif" font-size="10.00">libxml/xmlmemory.h</text>
</g>
<!-- Node8&#45;&gt;Node18 -->
<g id="edge19" class="edge"><title>Node8&#45;&gt;Node18</title>
<path fill="none" stroke="midnightblue" d="M739.084,-170.576C743.911,-169.678 748.831,-168.792 753.5,-168 776.665,-164.069 911.887,-144.242 993.987,-132.255"/>
<polygon fill="midnightblue" stroke="midnightblue" points="994.581,-135.706 1003.97,-130.798 993.57,-128.779 994.581,-135.706"/>
</g>
<!-- Node19 -->
<g id="node20" class="node"><title>Node19</title>
<polygon fill="white" stroke="#bfbfbf" points="1255.5,-112.5 1255.5,-131.5 1339.5,-131.5 1339.5,-112.5 1255.5,-112.5"/>
<text text-anchor="middle" x="1297.5" y="-119.5" font-family="Helvetica,sans-Serif" font-size="10.00">libxml/parser.h</text>
</g>
<!-- Node8&#45;&gt;Node19 -->
<g id="edge20" class="edge"><title>Node8&#45;&gt;Node19</title>
<path fill="none" stroke="midnightblue" d="M739.169,-173.071C753.657,-171.394 770.917,-169.486 786.5,-168 987.354,-148.848 1041.34,-157.556 1245.11,-132.061"/>
<polygon fill="midnightblue" stroke="midnightblue" points="1245.76,-135.506 1255.25,-130.78 1244.89,-128.562 1245.76,-135.506"/>
</g>
<!-- Node20 -->
<g id="node21" class="node"><title>Node20</title>
<polygon fill="white" stroke="#bfbfbf" points="203,-112.5 203,-131.5 262,-131.5 262,-112.5 203,-112.5"/>
<text text-anchor="middle" x="232.5" y="-119.5" font-family="Helvetica,sans-Serif" font-size="10.00">cinttypes</text>
</g>
<!-- Node8&#45;&gt;Node20 -->
<g id="edge21" class="edge"><title>Node8&#45;&gt;Node20</title>
<path fill="none" stroke="midnightblue" d="M673.952,-170.345C669.119,-169.48 664.189,-168.665 659.5,-168 491.212,-144.137 444.216,-158.959 272.126,-131.875"/>
<polygon fill="midnightblue" stroke="midnightblue" points="272.656,-128.416 262.229,-130.294 271.552,-135.328 272.656,-128.416"/>
</g>
<!-- Node8&#45;&gt;Node21 -->
<g id="edge22" class="edge"><title>Node8&#45;&gt;Node21</title>
<path fill="none" stroke="midnightblue" d="M673.961,-170.28C669.127,-169.424 664.194,-168.629 659.5,-168 456.827,-140.854 399.806,-167.439 194.677,-131.866"/>
<polygon fill="midnightblue" stroke="midnightblue" points="195.251,-128.414 184.796,-130.125 194.036,-135.307 195.251,-128.414"/>
</g>
<!-- Node22 -->
<g id="node23" class="node"><title>Node22</title>
<polygon fill="white" stroke="#bfbfbf" points="1357,-112.5 1357,-131.5 1410,-131.5 1410,-112.5 1357,-112.5"/>
<text text-anchor="middle" x="1383.5" y="-119.5" font-family="Helvetica,sans-Serif" font-size="10.00">iomanip</text>
</g>
<!-- Node8&#45;&gt;Node22 -->
<g id="edge25" class="edge"><title>Node8&#45;&gt;Node22</title>
<path fill="none" stroke="midnightblue" d="M739.16,-172.967C753.645,-171.27 770.907,-169.376 786.5,-168 1032.53,-146.293 1099.56,-170.68 1346.85,-131.986"/>
<polygon fill="midnightblue" stroke="midnightblue" points="1347.53,-135.422 1356.86,-130.401 1346.43,-128.508 1347.53,-135.422"/>
</g>
<!-- Node23 -->
<g id="node24" class="node"><title>Node23</title>
<polygon fill="white" stroke="#bfbfbf" points="280.5,-112.5 280.5,-131.5 340.5,-131.5 340.5,-112.5 280.5,-112.5"/>
<text text-anchor="middle" x="310.5" y="-119.5" font-family="Helvetica,sans-Serif" font-size="10.00">algorithm</text>
</g>
<!-- Node8&#45;&gt;Node23 -->
<g id="edge26" class="edge"><title>Node8&#45;&gt;Node23</title>
<path fill="none" stroke="midnightblue" d="M673.936,-170.451C669.106,-169.571 664.18,-168.723 659.5,-168 524.605,-147.151 489.261,-153.696 354.5,-132 353.244,-131.798 351.97,-131.585 350.684,-131.363"/>
<polygon fill="midnightblue" stroke="midnightblue" points="351.203,-127.9 340.735,-129.533 349.937,-134.785 351.203,-127.9"/>
</g>
<!-- Node8&#45;&gt;Node24 -->
<g id="edge27" class="edge"><title>Node8&#45;&gt;Node24</title>
<path fill="none" stroke="midnightblue" d="M673.83,-173.29C658.034,-171.561 638.793,-169.548 621.5,-168 406.427,-148.75 347.238,-169.233 130.215,-131.733"/>
<polygon fill="midnightblue" stroke="midnightblue" points="130.549,-128.238 120.096,-129.962 129.343,-135.133 130.549,-128.238"/>
</g>
<!-- Node25 -->
<g id="node26" class="node"><title>Node25</title>
<g id="a_node26"><a xlink:href="expression__reg__elus_8h.html" target="_top" xlink:title="Expressions régulières représentant les élus. ">
<polygon fill="white" stroke="black" points="277,-56.5 277,-75.5 400,-75.5 400,-56.5 277,-56.5"/>
<text text-anchor="middle" x="338.5" y="-63.5" font-family="Helvetica,sans-Serif" font-size="10.00">expression_reg_elus.h</text>
</a>
</g>
</g>
<!-- Node8&#45;&gt;Node25 -->
<g id="edge28" class="edge"><title>Node8&#45;&gt;Node25</title>
<path fill="none" stroke="midnightblue" d="M673.927,-170.511C669.098,-169.622 664.175,-168.756 659.5,-168 539.122,-148.525 492.823,-193.458 387.5,-132 368.876,-121.133 355.046,-100.13 346.911,-84.9333"/>
<polygon fill="midnightblue" stroke="midnightblue" points="350.014,-83.3125 342.395,-75.9505 343.76,-86.457 350.014,-83.3125"/>
</g>
<!-- Node27 -->
<g id="node28" class="node"><title>Node27</title>
<g id="a_node28"><a xlink:href="expression__reg__cata_8h.html" target="_top" xlink:title="Ce fichier contient les expressions rationnelles permettant d&#39;identifier les catégories statutaires A...">
<polygon fill="white" stroke="black" points="397,-112.5 397,-131.5 522,-131.5 522,-112.5 397,-112.5"/>
<text text-anchor="middle" x="459.5" y="-119.5" font-family="Helvetica,sans-Serif" font-size="10.00">expression_reg_cata.h</text>
</a>
</g>
</g>
<!-- Node8&#45;&gt;Node27 -->
<g id="edge30" class="edge"><title>Node8&#45;&gt;Node27</title>
<path fill="none" stroke="midnightblue" d="M673.955,-169.885C631.762,-160.66 557.785,-144.487 508.712,-133.759"/>
<polygon fill="midnightblue" stroke="midnightblue" points="509.155,-130.273 498.638,-131.557 507.66,-137.112 509.155,-130.273"/>
</g>
<!-- Node26 -->
<g id="node27" class="node"><title>Node26</title>
<g id="a_node27"><a xlink:href="expression__reg__commun_8h.html" target="_top" xlink:title="Elements constitutifs des expressions régulières. ">
<polygon fill="white" stroke="black" points="342,-0.5 342,-19.5 485,-19.5 485,-0.5 342,-0.5"/>
<text text-anchor="middle" x="413.5" y="-7.5" font-family="Helvetica,sans-Serif" font-size="10.00">expression_reg_commun.h</text>
</a>
</g>
</g>
<!-- Node25&#45;&gt;Node26 -->
<g id="edge29" class="edge"><title>Node25&#45;&gt;Node26</title>
<path fill="none" stroke="midnightblue" d="M350.55,-56.324C361.963,-48.1066 379.331,-35.6017 392.935,-25.8069"/>
<polygon fill="midnightblue" stroke="midnightblue" points="395.16,-28.5174 401.231,-19.8339 391.07,-22.8366 395.16,-28.5174"/>
</g>
<!-- Node28 -->
<g id="node29" class="node"><title>Node28</title>
<g id="a_node29"><a xlink:href="expression__reg__adjoints_8h.html" target="_top" xlink:title="Expressions régulières de niveau adjoints / auxiliaires / aides (catégories C) ">
<polygon fill="white" stroke="black" points="418,-56.5 418,-75.5 559,-75.5 559,-56.5 418,-56.5"/>
<text text-anchor="middle" x="488.5" y="-63.5" font-family="Helvetica,sans-Serif" font-size="10.00">expression_reg_adjoints.h</text>
</a>
</g>
</g>
<!-- Node27&#45;&gt;Node28 -->
<g id="edge31" class="edge"><title>Node27&#45;&gt;Node28</title>
<path fill="none" stroke="midnightblue" d="M464.289,-112.083C468.258,-104.691 474.025,-93.9533 478.935,-84.8111"/>
<polygon fill="midnightblue" stroke="midnightblue" points="482.153,-86.217 483.8,-75.7511 475.986,-82.9051 482.153,-86.217"/>
</g>
<!-- Node28&#45;&gt;Node26 -->
<g id="edge32" class="edge"><title>Node28&#45;&gt;Node26</title>
<path fill="none" stroke="midnightblue" d="M476.45,-56.324C465.037,-48.1066 447.669,-35.6017 434.065,-25.8069"/>
<polygon fill="midnightblue" stroke="midnightblue" points="435.93,-22.8366 425.769,-19.8339 431.84,-28.5174 435.93,-22.8366"/>
</g>
<!-- Node29&#45;&gt;Node2 -->
<g id="edge45" class="edge"><title>Node29&#45;&gt;Node2</title>
<path fill="none" stroke="midnightblue" d="M1030.8,-229.841C1132.45,-223.991 1333.37,-210.024 1400.5,-188 1435.41,-176.548 1471.28,-152.975 1492.47,-137.587"/>
<polygon fill="midnightblue" stroke="midnightblue" points="1494.66,-140.32 1500.61,-131.552 1490.49,-134.698 1494.66,-140.32"/>
</g>
<!-- Node29&#45;&gt;Node3 -->
<g id="edge54" class="edge"><title>Node29&#45;&gt;Node3</title>
<path fill="none" stroke="midnightblue" d="M1030.56,-226.924C1084.1,-220.504 1164.18,-208.419 1231.5,-188 1252.44,-181.648 1255.81,-175.142 1276.5,-168 1335.55,-147.615 1354.62,-149.482 1418.23,-132.22"/>
<polygon fill="midnightblue" stroke="midnightblue" points="1419.24,-135.571 1427.95,-129.53 1417.37,-128.825 1419.24,-135.571"/>
</g>
<!-- Node29&#45;&gt;Node4 -->
<g id="edge41" class="edge"><title>Node29&#45;&gt;Node4</title>
<path fill="none" stroke="midnightblue" d="M910.147,-230.44C819.185,-225.926 641.472,-214.555 481.553,-187.924"/>
<polygon fill="midnightblue" stroke="midnightblue" points="481.976,-184.446 471.533,-186.231 480.81,-191.348 481.976,-184.446"/>
</g>
<!-- Node29&#45;&gt;Node5 -->
<g id="edge40" class="edge"><title>Node29&#45;&gt;Node5</title>
<path fill="none" stroke="midnightblue" d="M910.417,-233.851C832.809,-233.202 694.512,-226.063 583.5,-188 567.277,-182.438 566.835,-173.223 550.5,-168 347.736,-103.166 281.03,-163.765 67.0604,-131.978"/>
<polygon fill="midnightblue" stroke="midnightblue" points="67.5048,-128.506 57.0893,-130.446 66.4418,-135.424 67.5048,-128.506"/>
</g>
<!-- Node29&#45;&gt;Node6 -->
<g id="edge42" class="edge"><title>Node29&#45;&gt;Node6</title>
<path fill="none" stroke="midnightblue" d="M910.42,-228.634C829.446,-222.261 680.966,-208.848 555.5,-188 554.236,-187.79 552.952,-187.565 551.657,-187.328"/>
<polygon fill="midnightblue" stroke="midnightblue" points="552.158,-183.859 541.666,-185.334 550.788,-190.724 552.158,-183.859"/>
</g>
<!-- Node29&#45;&gt;Node8 -->
<g id="edge38" class="edge"><title>Node29&#45;&gt;Node8</title>
<path fill="none" stroke="midnightblue" d="M928.668,-224.444C879.667,-214.421 798.911,-197.902 749.438,-187.783"/>
<polygon fill="midnightblue" stroke="midnightblue" points="749.877,-184.3 739.378,-185.725 748.474,-191.158 749.877,-184.3"/>
</g>
<!-- Node29&#45;&gt;Node9 -->
<g id="edge53" class="edge"><title>Node29&#45;&gt;Node9</title>
<path fill="none" stroke="midnightblue" d="M978.446,-224.44C991.287,-210.997 1017.86,-184.742 1044.5,-168 1068.13,-153.147 1097.52,-141.11 1119.35,-133.236"/>
<polygon fill="midnightblue" stroke="midnightblue" points="1120.53,-136.532 1128.8,-129.916 1118.21,-129.928 1120.53,-136.532"/>
</g>
<!-- Node29&#45;&gt;Node11 -->
<g id="edge46" class="edge"><title>Node29&#45;&gt;Node11</title>
<path fill="none" stroke="midnightblue" d="M1014.14,-224.495C1045.82,-217.323 1089.14,-205.411 1124.5,-188 1151.4,-174.757 1178.71,-153.374 1195.85,-138.778"/>
<polygon fill="midnightblue" stroke="midnightblue" points="1198.58,-141.043 1203.84,-131.842 1193.99,-135.759 1198.58,-141.043"/>
</g>
<!-- Node29&#45;&gt;Node19 -->
<g id="edge39" class="edge"><title>Node29&#45;&gt;Node19</title>
<path fill="none" stroke="midnightblue" d="M1014.78,-224.484C1052.26,-216.717 1107.11,-204.022 1153.5,-188 1196.17,-173.261 1243.5,-150.605 1271.86,-136.306"/>
<polygon fill="midnightblue" stroke="midnightblue" points="1273.73,-139.278 1281.06,-131.623 1270.56,-133.04 1273.73,-139.278"/>
</g>
<!-- Node29&#45;&gt;Node21 -->
<g id="edge43" class="edge"><title>Node29&#45;&gt;Node21</title>
<path fill="none" stroke="midnightblue" d="M910.446,-229.315C847.93,-224.294 747.71,-212.893 664.5,-188 644.307,-181.959 641.871,-173.411 621.5,-168 440.157,-119.83 383.283,-164.417 194.754,-131.874"/>
<polygon fill="midnightblue" stroke="midnightblue" points="195.257,-128.409 184.799,-130.106 194.033,-135.301 195.257,-128.409"/>
</g>
<!-- Node29&#45;&gt;Node22 -->
<g id="edge47" class="edge"><title>Node29&#45;&gt;Node22</title>
<path fill="none" stroke="midnightblue" d="M1025.15,-224.478C1070.26,-216.826 1135.68,-204.294 1191.5,-188 1215.27,-181.061 1220.15,-176.236 1243.5,-168 1278.35,-155.71 1318.54,-142.934 1346.89,-134.149"/>
<polygon fill="midnightblue" stroke="midnightblue" points="1348.25,-137.393 1356.77,-131.101 1346.19,-130.704 1348.25,-137.393"/>
</g>
<!-- Node29&#45;&gt;Node24 -->
<g id="edge55" class="edge"><title>Node29&#45;&gt;Node24</title>
<path fill="none" stroke="midnightblue" d="M910.454,-231.703C839.79,-228.718 719.647,-219.045 621.5,-188 603.303,-182.244 601.832,-173.307 583.5,-168 392.206,-112.619 330.74,-165.799 130.071,-131.692"/>
<polygon fill="midnightblue" stroke="midnightblue" points="130.553,-128.223 120.099,-129.945 129.345,-135.118 130.553,-128.223"/>
</g>
<!-- Node30 -->
<g id="node31" class="node"><title>Node30</title>
<polygon fill="white" stroke="#bfbfbf" points="1285.5,-168.5 1285.5,-187.5 1329.5,-187.5 1329.5,-168.5 1285.5,-168.5"/>
<text text-anchor="middle" x="1307.5" y="-175.5" font-family="Helvetica,sans-Serif" font-size="10.00">mutex</text>
</g>
<!-- Node29&#45;&gt;Node30 -->
<g id="edge44" class="edge"><title>Node29&#45;&gt;Node30</title>
<path fill="none" stroke="midnightblue" d="M1030.76,-225.732C1091.74,-217.969 1188.59,-204.521 1271.5,-188 1272.78,-187.745 1274.08,-187.474 1275.4,-187.191"/>
<polygon fill="midnightblue" stroke="midnightblue" points="1276.54,-190.52 1285.49,-184.86 1274.96,-183.7 1276.54,-190.52"/>
</g>
<!-- Node31 -->
<g id="node32" class="node"><title>Node31</title>
<polygon fill="white" stroke="#bfbfbf" points="1347.5,-168.5 1347.5,-187.5 1391.5,-187.5 1391.5,-168.5 1347.5,-168.5"/>
<text text-anchor="middle" x="1369.5" y="-175.5" font-family="Helvetica,sans-Serif" font-size="10.00">cstdio</text>
</g>
<!-- Node29&#45;&gt;Node31 -->
<g id="edge48" class="edge"><title>Node29&#45;&gt;Node31</title>
<path fill="none" stroke="midnightblue" d="M1030.57,-228.64C1101.75,-222.809 1223.98,-210.708 1337.37,-187.94"/>
<polygon fill="midnightblue" stroke="midnightblue" points="1338.16,-191.351 1347.26,-185.922 1336.76,-184.492 1338.16,-191.351"/>
</g>
<!-- Node32 -->
<g id="node33" class="node"><title>Node32</title>
<polygon fill="white" stroke="#bfbfbf" points="795.5,-168.5 795.5,-187.5 845.5,-187.5 845.5,-168.5 795.5,-168.5"/>
<text text-anchor="middle" x="820.5" y="-175.5" font-family="Helvetica,sans-Serif" font-size="10.00">iterator</text>
</g>
<!-- Node29&#45;&gt;Node32 -->
<g id="edge49" class="edge"><title>Node29&#45;&gt;Node32</title>
<path fill="none" stroke="midnightblue" d="M946.732,-224.444C921.607,-215.399 881.789,-201.064 853.6,-190.916"/>
<polygon fill="midnightblue" stroke="midnightblue" points="854.751,-187.611 844.157,-187.516 852.38,-194.197 854.751,-187.611"/>
</g>
<!-- Node33 -->
<g id="node34" class="node"><title>Node33</title>
<polygon fill="white" stroke="#bfbfbf" points="864,-168.5 864,-187.5 925,-187.5 925,-168.5 864,-168.5"/>
<text text-anchor="middle" x="894.5" y="-175.5" font-family="Helvetica,sans-Serif" font-size="10.00">sys/stat.h</text>
</g>
<!-- Node29&#45;&gt;Node33 -->
<g id="edge50" class="edge"><title>Node29&#45;&gt;Node33</title>
<path fill="none" stroke="midnightblue" d="M958.289,-224.324C946.724,-216.107 929.125,-203.602 915.339,-193.807"/>
<polygon fill="midnightblue" stroke="midnightblue" points="917.112,-190.773 906.933,-187.834 913.057,-196.479 917.112,-190.773"/>
</g>
<!-- Node34 -->
<g id="node35" class="node"><title>Node34</title>
<polygon fill="white" stroke="#bfbfbf" points="943.5,-168.5 943.5,-187.5 997.5,-187.5 997.5,-168.5 943.5,-168.5"/>
<text text-anchor="middle" x="970.5" y="-175.5" font-family="Helvetica,sans-Serif" font-size="10.00">memory</text>
</g>
<!-- Node29&#45;&gt;Node34 -->
<g id="edge51" class="edge"><title>Node29&#45;&gt;Node34</title>
<path fill="none" stroke="midnightblue" d="M970.5,-224.083C970.5,-217.006 970.5,-206.861 970.5,-197.986"/>
<polygon fill="midnightblue" stroke="midnightblue" points="974,-197.751 970.5,-187.751 967,-197.751 974,-197.751"/>
</g>
<!-- Node35 -->
<g id="node36" class="node"><title>Node35</title>
<polygon fill="white" stroke="#bfbfbf" points="1053.5,-168.5 1053.5,-187.5 1115.5,-187.5 1115.5,-168.5 1053.5,-168.5"/>
<text text-anchor="middle" x="1084.5" y="-175.5" font-family="Helvetica,sans-Serif" font-size="10.00">stdexcept</text>
</g>
<!-- Node29&#45;&gt;Node35 -->
<g id="edge52" class="edge"><title>Node29&#45;&gt;Node35</title>
<path fill="none" stroke="midnightblue" d="M988.564,-224.444C1007.07,-215.675 1036.08,-201.935 1057.36,-191.858"/>
<polygon fill="midnightblue" stroke="midnightblue" points="1058.98,-194.96 1066.52,-187.516 1055.99,-188.634 1058.98,-194.96"/>
</g>
</g>
</svg>
        <g id="navigator" transform="translate(0 0)" fill="#404254">
                <rect fill="#f2f5e9" fill-opacity="0.5" stroke="#606060" stroke-width=".5" x="0" y="0" width="60" height="60"/>
                <use id="zoomplus" xlink:href="#zoomPlus" x="17" y="9" onmousedown="handleZoom(evt,'in')"/>
                <use id="zoomminus" xlink:href="#zoomMin" x="42" y="9" onmousedown="handleZoom(evt,'out')"/>
                <use id="reset" xlink:href="#resetDef" x="30" y="36" onmousedown="handleReset()"/>
                <g id="arrowUp" xlink:href="#dirArrow" transform="translate(30 24)" onmousedown="handlePan(0,-1)">
                  <use xlink:href="#rim" fill="#404040">
                        <set attributeName="fill" to="#808080" begin="arrowUp.mouseover" end="arrowUp.mouseout"/>
                  </use>
                  <path fill="none" stroke="white" stroke-width="1.5" d="M0,-3.0v7 M-2.5,-0.5L0,-3.0L2.5,-0.5"/>
                </g>
                <g id="arrowRight" xlink:href="#dirArrow" transform="rotate(90) translate(36 -43)" onmousedown="handlePan(1,0)">
                  <use xlink:href="#rim" fill="#404040">
                        <set attributeName="fill" to="#808080" begin="arrowRight.mouseover" end="arrowRight.mouseout"/>
                  </use>
                  <path fill="none" stroke="white" stroke-width="1.5" d="M0,-3.0v7 M-2.5,-0.5L0,-3.0L2.5,-0.5"/>
                </g>
                <g id="arrowDown" xlink:href="#dirArrow" transform="rotate(180) translate(-30 -48)" onmousedown="handlePan(0,1)">
                  <use xlink:href="#rim" fill="#404040">
                        <set attributeName="fill" to="#808080" begin="arrowDown.mouseover" end="arrowDown.mouseout"/>
                  </use>
                  <path fill="none" stroke="white" stroke-width="1.5" d="M0,-3.0v7 M-2.5,-0.5L0,-3.0L2.5,-0.5"/>
                </g>
                <g id="arrowLeft" xlink:href="#dirArrow" transform="rotate(270) translate(-36 17)" onmousedown="handlePan(-1,0)">
                  <use xlink:href="#rim" fill="#404040">
                        <set attributeName="fill" to="#808080" begin="arrowLeft.mouseover" end="arrowLeft.mouseout"/>
                  </use>
                  <path fill="none" stroke="white" stroke-width="1.5" d="M0,-3.0v7 M-2.5,-0.5L0,-3.0L2.5,-0.5"/>
                </g>
        </g>
        <svg viewBox="0 0 15 15" width="100%" height="30px" preserveAspectRatio="xMaxYMin meet">
         <g id="arrow_out" transform="scale(0.3 0.3)">
          <a xlink:href="table_8cpp__incl_org.svg" target="_base">
           <rect id="button" ry="5" rx="5" y="6" x="6" height="38" width="38"
                fill="#f2f5e9" fill-opacity="0.5" stroke="#606060" stroke-width="1.0"/>
           <path id="arrow"
             d="M 11.500037,31.436501 C 11.940474,20.09759 22.043105,11.32322 32.158766,21.979434 L 37.068811,17.246167 C 37.068811,17.246167 37.088388,32 37.088388,32 L 22.160133,31.978069 C 22.160133,31.978069 26.997745,27.140456 26.997745,27.140456 C 18.528582,18.264221 13.291696,25.230495 11.500037,31.436501 z"
             style="fill:#404040;"/>
          </a>
         </g>
        </svg>
</svg>
