<?xml version="1.0" encoding="UTF-8" standalone="no"?>
<!DOCTYPE svg PUBLIC "-//W3C//DTD SVG 1.1//EN"
 "http://www.w3.org/Graphics/SVG/1.1/DTD/svg11.dtd">
<!-- Generated by graphviz version 2.38.0 (20140413.2041)
 -->
<!-- Title: boucle_ecriture Pages: 1 -->
<!--zoomable 621 -->
<svg id="main" version="1.1" xmlns="http://www.w3.org/2000/svg" xmlns:xlink="http://www.w3.org/1999/xlink" xml:space="preserve" onload="init(evt)">
<style type="text/css"><![CDATA[
.edge:hover path { stroke: red; }
.edge:hover polygon { stroke: red; fill: red; }
]]></style>
<script type="text/javascript"><![CDATA[
var edges = document.getElementsByTagName('g');
if (edges && edges.length) {
  for (var i=0;i<edges.length;i++) {
    if (edges[i].id.substr(0,4)=='edge') {
      edges[i].setAttribute('class','edge');
    }
  }
}
]]></script>
        <defs>
                <circle id="rim" cx="0" cy="0" r="7"/>
                <circle id="rim2" cx="0" cy="0" r="3.5"/>
                <g id="zoomPlus">
                        <use xlink:href="#rim" fill="#404040">
                                <set attributeName="fill" to="#808080" begin="zoomplus.mouseover" end="zoomplus.mouseout"/>
                        </use>
                        <path d="M-4,0h8M0,-4v8" fill="none" stroke="white" stroke-width="1.5" pointer-events="none"/>
                </g>
                <g id="zoomMin">
                        <use xlink:href="#rim" fill="#404040">
                                <set attributeName="fill" to="#808080" begin="zoomminus.mouseover" end="zoomminus.mouseout"/>
                        </use>
                        <path d="M-4,0h8" fill="none" stroke="white" stroke-width="1.5" pointer-events="none"/>
                </g>
                <g id="dirArrow">
                        <path fill="none" stroke="white" stroke-width="1.5" d="M0,-3.0v7 M-2.5,-0.5L0,-3.0L2.5,-0.5"/>
                </g>
               <g id="resetDef">
                       <use xlink:href="#rim2" fill="#404040">
                               <set attributeName="fill" to="#808080" begin="reset.mouseover" end="reset.mouseout"/>
                       </use>
               </g>
        </defs>

<script type="text/javascript">
var viewWidth = 765;
var viewHeight = 621;
var sectionId = 'dynsection-1';
</script>
<script xlink:href="svgpan.js"/>
<svg id="graph" class="graph">
<g id="viewport">
<title>boucle_ecriture</title>
<polygon fill="white" stroke="none" points="-4,4 -4,-617 761,-617 761,4 -4,4"/>
<!-- Node0 -->
<g id="node1" class="node"><title>Node0</title>
<polygon fill="#bfbfbf" stroke="black" points="0,-303.5 0,-322.5 83,-322.5 83,-303.5 0,-303.5"/>
<text text-anchor="middle" x="41.5" y="-310.5" font-family="Helvetica,sans-Serif" font-size="10.00">boucle_ecriture</text>
</g>
<!-- Node1 -->
<g id="node2" class="node"><title>Node1</title>
<g id="a_node2"><a xlink:href="fonctions__auxiliaires_8cpp.html#a0f11a266115e98b2536637a1ad8b05f7" target="_top" xlink:title="Ouvre une base de données de bulletins en écriture pour un segment d&#39;exécution donné. ">
<polygon fill="white" stroke="black" points="156.5,-574.5 156.5,-593.5 269.5,-593.5 269.5,-574.5 156.5,-574.5"/>
<text text-anchor="middle" x="213" y="-581.5" font-family="Helvetica,sans-Serif" font-size="10.00">ouvrir_fichier_bulletins</text>
</a>
</g>
</g>
<!-- Node0&#45;&gt;Node1 -->
<g id="edge1" class="edge"><title>Node0&#45;&gt;Node1</title>
<path fill="none" stroke="midnightblue" d="M42.2014,-322.53C41.5885,-359.841 44.6379,-497.265 119,-565 126.755,-572.064 136.404,-576.79 146.525,-579.903"/>
<polygon fill="midnightblue" stroke="midnightblue" points="145.771,-583.323 156.327,-582.418 147.51,-576.543 145.771,-583.323"/>
</g>
<!-- Node7 -->
<g id="node8" class="node"><title>Node7</title>
<g id="a_node8"><a xlink:href="table_8cpp.html#ac4690b0ec4007e562e68502017efc011" target="_top" xlink:title="Ecrit une ligne de paye pour un agent donné dans le fichier CSV Table et, en outre, génère le rang de la ligne dans le fichier Ajoute l&#39;Annee et le Mois comme deux premières colonnes Optionnellement ajoute le Budget, l&#39;Employeur, le Siret et l&#39;Etablissement comme colonnes suivantes Ajoute dans tous les cas l&#39;Echelon, la Categorie ainsi que le NIR en dernières colonnes. ">
<polygon fill="white" stroke="black" points="136,-487 136,-517 290,-517 290,-487 136,-487"/>
<text text-anchor="start" x="144" y="-505" font-family="Helvetica,sans-Serif" font-size="10.00">ECRIRE_LIGNE_l_GENERER</text>
<text text-anchor="middle" x="213" y="-494" font-family="Helvetica,sans-Serif" font-size="10.00">_RANG_ECHELON</text>
</a>
</g>
</g>
<!-- Node0&#45;&gt;Node7 -->
<g id="edge8" class="edge"><title>Node0&#45;&gt;Node7</title>
<path fill="none" stroke="midnightblue" d="M44.1282,-322.873C49.3642,-351.395 68.4733,-434.574 119,-477 121.419,-479.031 123.987,-480.898 126.669,-482.615"/>
<polygon fill="midnightblue" stroke="midnightblue" points="125.146,-485.773 135.581,-487.602 128.564,-479.665 125.146,-485.773"/>
</g>
<!-- Node9 -->
<g id="node10" class="node"><title>Node9</title>
<g id="a_node10"><a xlink:href="table_8cpp.html#ac99b105f075700364aa7b14d11ceab7b" target="_top" xlink:title="Ecrit une ligne de bulletin de paye pour un agent donné dans le fichier CSV Bulletins.paie et, en outre, génère le rang de la ligne dans le fichier Ajoute les colonnes Annee et Mois en début de fichier &#160;Ajoute optionnellement les colonnes Budget, Employeur, Siret et Etablissement Ajoute les colonnes Echelon, Categorie et NIR en fin de fichier &#160;. ">
<polygon fill="white" stroke="black" points="132.5,-235 132.5,-265 293.5,-265 293.5,-235 132.5,-235"/>
<text text-anchor="start" x="140.5" y="-253" font-family="Helvetica,sans-Serif" font-size="10.00">ECRIRE_LIGNE_BULLETIN</text>
<text text-anchor="middle" x="213" y="-242" font-family="Helvetica,sans-Serif" font-size="10.00">_GENERER_RANG_ECHELON</text>
</a>
</g>
</g>
<!-- Node0&#45;&gt;Node9 -->
<g id="edge10" class="edge"><title>Node0&#45;&gt;Node9</title>
<path fill="none" stroke="midnightblue" d="M59.3811,-303.396C74.5991,-295.036 97.7798,-283.031 119,-275 125.409,-272.574 132.149,-270.285 138.95,-268.15"/>
<polygon fill="midnightblue" stroke="midnightblue" points="140.368,-271.378 148.927,-265.134 138.342,-264.677 140.368,-271.378"/>
</g>
<!-- Node11 -->
<g id="node12" class="node"><title>Node11</title>
<g id="a_node12"><a xlink:href="table_8cpp.html#a72acdb89510299d6bd8136ab10ccce65" target="_top" xlink:title="Ecrit une ligne de paye pour un agent donné dans le fichier CSV Table et, en outre, génère le rang de la ligne dans le fichier &#160;Ajoute l&#39;Annee et le Mois comme deux premières colonnes Optionnellement ajoute le Budget, l&#39;Employeur, le Siret et l&#39;Etablissement comme colonnes suivantes Ajoute dans tous les cas la Categorie ainsi que le NIR en dernières colonnes. ">
<polygon fill="white" stroke="black" points="119,-448.5 119,-467.5 307,-467.5 307,-448.5 119,-448.5"/>
<text text-anchor="middle" x="213" y="-455.5" font-family="Helvetica,sans-Serif" font-size="10.00">ECRIRE_LIGNE_l_GENERER_RANG</text>
</a>
</g>
</g>
<!-- Node0&#45;&gt;Node11 -->
<g id="edge12" class="edge"><title>Node0&#45;&gt;Node11</title>
<path fill="none" stroke="midnightblue" d="M45.4026,-322.765C53.0787,-346.781 76.3095,-408.95 119,-439 121.695,-440.897 124.537,-442.614 127.486,-444.167"/>
<polygon fill="midnightblue" stroke="midnightblue" points="126.065,-447.366 136.614,-448.35 128.982,-441.002 126.065,-447.366"/>
</g>
<!-- Node12 -->
<g id="node13" class="node"><title>Node12</title>
<g id="a_node13"><a xlink:href="table_8cpp.html#ac961030aff2e8f0da8ff2788c16e2272" target="_top" xlink:title="Ecrit une ligne de bulletin de paye pour un agent donné dans le fichier CSV Bulletins.paie et, en outre, génère le rang de la ligne dans le fichier Ajoute les colonnes Annee et Mois en début de fichier &#160;Ajoute optionnellement les colonnes Budget, Employeur, Siret et Etablissement Ajoute les colonnes Categorie et NIR en fin de fichier &#160;. ">
<polygon fill="white" stroke="black" points="141,-186 141,-216 285,-216 285,-186 141,-186"/>
<text text-anchor="start" x="149" y="-204" font-family="Helvetica,sans-Serif" font-size="10.00">ECRIRE_LIGNE_BULLETIN</text>
<text text-anchor="middle" x="213" y="-193" font-family="Helvetica,sans-Serif" font-size="10.00">_GENERER_RANG</text>
</a>
</g>
</g>
<!-- Node0&#45;&gt;Node12 -->
<g id="edge14" class="edge"><title>Node0&#45;&gt;Node12</title>
<path fill="none" stroke="midnightblue" d="M48.3034,-303.228C59.5695,-285.129 86.2014,-246.384 119,-226 122.858,-223.602 126.945,-221.431 131.169,-219.467"/>
<polygon fill="midnightblue" stroke="midnightblue" points="132.746,-222.601 140.598,-215.488 130.024,-216.151 132.746,-222.601"/>
</g>
<!-- Node13 -->
<g id="node14" class="node"><title>Node13</title>
<g id="a_node14"><a xlink:href="table_8cpp.html#a9227a92c4b8fb92bd91242d938be476d" target="_top" xlink:title="Ecrit une ligne de paye pour un agent donné dans le fichier CSV Table &#160;Ajoute l&#39;Annee et le Mois comm...">
<polygon fill="white" stroke="black" points="146,-399 146,-429 280,-429 280,-399 146,-399"/>
<text text-anchor="start" x="154" y="-417" font-family="Helvetica,sans-Serif" font-size="10.00">ECRIRE_LIGNE_l_SIRET</text>
<text text-anchor="middle" x="213" y="-406" font-family="Helvetica,sans-Serif" font-size="10.00">_ECHELON</text>
</a>
</g>
</g>
<!-- Node0&#45;&gt;Node13 -->
<g id="edge16" class="edge"><title>Node0&#45;&gt;Node13</title>
<path fill="none" stroke="midnightblue" d="M49.3689,-322.521C61.5387,-338.684 88.4977,-371.44 119,-389 124.42,-392.12 130.242,-394.862 136.232,-397.27"/>
<polygon fill="midnightblue" stroke="midnightblue" points="135.157,-400.605 145.75,-400.786 137.582,-394.038 135.157,-400.605"/>
</g>
<!-- Node14 -->
<g id="node15" class="node"><title>Node14</title>
<g id="a_node15"><a xlink:href="table_8cpp.html#ae5fac93ecc2de57ead73a4529b95d917" target="_top" xlink:title="Ecrit une ligne de bulletin de paye pour un agent donné dans le fichier CSV Bulletins.paie &#160;Ajoute les colonnes Annee et Mois en début de fichier &#160;Ajoute les colonnes Budget, Employeur, Siret et Etablissement Ajoute les colonnes Echelon, Categorie et NIR en fin de fichier &#160;. ">
<polygon fill="white" stroke="black" points="141,-137 141,-167 285,-167 285,-137 141,-137"/>
<text text-anchor="start" x="149" y="-155" font-family="Helvetica,sans-Serif" font-size="10.00">ECRIRE_LIGNE_BULLETIN</text>
<text text-anchor="middle" x="213" y="-144" font-family="Helvetica,sans-Serif" font-size="10.00">_SIRET_ECHELON</text>
</a>
</g>
</g>
<!-- Node0&#45;&gt;Node14 -->
<g id="edge18" class="edge"><title>Node0&#45;&gt;Node14</title>
<path fill="none" stroke="midnightblue" d="M45.0715,-303.381C52.2502,-278.437 74.9313,-211.238 119,-177 122.841,-174.016 127.01,-171.387 131.384,-169.071"/>
<polygon fill="midnightblue" stroke="midnightblue" points="133.04,-172.16 140.607,-164.744 130.067,-165.823 133.04,-172.16"/>
</g>
<!-- Node15 -->
<g id="node16" class="node"><title>Node15</title>
<g id="a_node16"><a xlink:href="table_8cpp.html#a82d211f064919b7c49ce3afea746bd6c" target="_top" xlink:title="Ecrit une ligne de paye pour un agent donné dans le fichier CSV Table &#160;Ajoute l&#39;Annee et le Mois comm...">
<polygon fill="white" stroke="black" points="146,-360.5 146,-379.5 280,-379.5 280,-360.5 146,-360.5"/>
<text text-anchor="middle" x="213" y="-367.5" font-family="Helvetica,sans-Serif" font-size="10.00">ECRIRE_LIGNE_l_SIRET</text>
</a>
</g>
</g>
<!-- Node0&#45;&gt;Node15 -->
<g id="edge20" class="edge"><title>Node0&#45;&gt;Node15</title>
<path fill="none" stroke="midnightblue" d="M58.677,-322.586C73.8046,-331.17 97.264,-343.524 119,-351 126.84,-353.697 135.191,-356.067 143.549,-358.136"/>
<polygon fill="midnightblue" stroke="midnightblue" points="142.798,-361.555 153.333,-360.427 144.394,-354.739 142.798,-361.555"/>
</g>
<!-- Node16 -->
<g id="node17" class="node"><title>Node16</title>
<g id="a_node17"><a xlink:href="table_8cpp.html#a96061df9a94d349009a11fa399bbec5c" target="_top" xlink:title="Ecrit une ligne de bulletin de paye pour un agent donné dans le fichier CSV Bulletins.paie &#160;Ajoute les colonnes Annee et Mois en début de fichier &#160;Ajoute les colonnes Budget, Employeur, Siret et Etablissement Ajoute les colonnes Categorie et NIR en fin de fichier &#160;. ">
<polygon fill="white" stroke="black" points="141,-88 141,-118 285,-118 285,-88 141,-88"/>
<text text-anchor="start" x="149" y="-106" font-family="Helvetica,sans-Serif" font-size="10.00">ECRIRE_LIGNE_BULLETIN</text>
<text text-anchor="middle" x="213" y="-95" font-family="Helvetica,sans-Serif" font-size="10.00">_SIRET</text>
</a>
</g>
</g>
<!-- Node0&#45;&gt;Node16 -->
<g id="edge22" class="edge"><title>Node0&#45;&gt;Node16</title>
<path fill="none" stroke="midnightblue" d="M43.5419,-303.23C47.3547,-272.482 63.3759,-176.85 119,-128 122.904,-124.571 127.231,-121.607 131.82,-119.044"/>
<polygon fill="midnightblue" stroke="midnightblue" points="133.479,-122.129 140.927,-114.595 130.406,-115.84 133.479,-122.129"/>
</g>
<!-- Node17 -->
<g id="node18" class="node"><title>Node17</title>
<g id="a_node18"><a xlink:href="table_8cpp.html#a2fee89611cf768d7f527283808fd5a83" target="_top" xlink:title="Ecrit une ligne de paye pour un agent donné dans le fichier CSV Table Ajoute l&#39;Annee et le Mois comme...">
<polygon fill="white" stroke="black" points="137,-322.5 137,-341.5 289,-341.5 289,-322.5 137,-322.5"/>
<text text-anchor="middle" x="213" y="-329.5" font-family="Helvetica,sans-Serif" font-size="10.00">ECRIRE_LIGNE_l_ECHELON</text>
</a>
</g>
</g>
<!-- Node0&#45;&gt;Node17 -->
<g id="edge24" class="edge"><title>Node0&#45;&gt;Node17</title>
<path fill="none" stroke="midnightblue" d="M83.0995,-317.551C96.3558,-319.037 111.611,-320.747 126.883,-322.459"/>
<polygon fill="midnightblue" stroke="midnightblue" points="126.572,-325.946 136.9,-323.582 127.352,-318.989 126.572,-325.946"/>
</g>
<!-- Node18 -->
<g id="node19" class="node"><title>Node18</title>
<g id="a_node19"><a xlink:href="table_8cpp.html#a81cadaba9e542262f469cce0176edab7" target="_top" xlink:title="Ecrit une ligne de bulletin de paye pour un agent donné dans le fichier CSV Bulletins.paie &#160;Ajoute les colonnes Annee et Mois en début de fichier &#160;Ajoute les colonnes Echelon, Categorie et NIR en fin de fichier &#160;. ">
<polygon fill="white" stroke="black" points="137.5,-39 137.5,-69 288.5,-69 288.5,-39 137.5,-39"/>
<text text-anchor="start" x="145.5" y="-57" font-family="Helvetica,sans-Serif" font-size="10.00">ECRIRE_LIGNE_BULLETINS</text>
<text text-anchor="middle" x="213" y="-46" font-family="Helvetica,sans-Serif" font-size="10.00">_ECHELON</text>
</a>
</g>
</g>
<!-- Node0&#45;&gt;Node18 -->
<g id="edge26" class="edge"><title>Node0&#45;&gt;Node18</title>
<path fill="none" stroke="midnightblue" d="M42.5866,-303.3C43.451,-267.718 51.3811,-143.104 119,-79 121.92,-76.2322 125.112,-73.7638 128.5,-71.5631"/>
<polygon fill="midnightblue" stroke="midnightblue" points="130.28,-74.5777 137.281,-66.6257 126.849,-68.476 130.28,-74.5777"/>
</g>
<!-- Node19 -->
<g id="node20" class="node"><title>Node19</title>
<g id="a_node20"><a xlink:href="table_8cpp.html#a76d65e4a709ff415979be1460608f6ab" target="_top" xlink:title="Ecrit une ligne de paye pour un agent donné dans le fichier CSV Table &#160;Ajoute l&#39;Annee et le Mois comm...">
<polygon fill="white" stroke="black" points="164,-284.5 164,-303.5 262,-303.5 262,-284.5 164,-284.5"/>
<text text-anchor="middle" x="213" y="-291.5" font-family="Helvetica,sans-Serif" font-size="10.00">ECRIRE_LIGNE_l</text>
</a>
</g>
</g>
<!-- Node0&#45;&gt;Node19 -->
<g id="edge28" class="edge"><title>Node0&#45;&gt;Node19</title>
<path fill="none" stroke="midnightblue" d="M83.0995,-308.449C104.257,-306.077 130.509,-303.135 153.789,-300.525"/>
<polygon fill="midnightblue" stroke="midnightblue" points="154.355,-303.984 163.903,-299.391 153.575,-297.027 154.355,-303.984"/>
</g>
<!-- Node20 -->
<g id="node21" class="node"><title>Node20</title>
<g id="a_node21"><a xlink:href="table_8cpp.html#a916e1e5b2942bd8d0c96914172abefc2" target="_top" xlink:title="Ecrit une ligne de bulletin de paye pour un agent donné dans le fichier CSV Bulletins.paie &#160;Ajoute les colonnes Annee et Mois en début de fichier &#160;Ajoute les colonnes Categorie et NIR en fin de fichier &#160;. ">
<polygon fill="white" stroke="black" points="137.5,-0.5 137.5,-19.5 288.5,-19.5 288.5,-0.5 137.5,-0.5"/>
<text text-anchor="middle" x="213" y="-7.5" font-family="Helvetica,sans-Serif" font-size="10.00">ECRIRE_LIGNE_BULLETINS</text>
</a>
</g>
</g>
<!-- Node0&#45;&gt;Node20 -->
<g id="edge30" class="edge"><title>Node0&#45;&gt;Node20</title>
<path fill="none" stroke="midnightblue" d="M43.7525,-303.246C49.7696,-257.913 77.1481,-68.3503 119,-29 121.806,-26.3614 124.876,-24.0462 128.136,-22.0174"/>
<polygon fill="midnightblue" stroke="midnightblue" points="129.93,-25.0292 137.166,-17.2904 126.683,-18.8276 129.93,-25.0292"/>
</g>
<!-- Node21 -->
<g id="node22" class="node"><title>Node21</title>
<g id="a_node22"><a xlink:href="fonctions__auxiliaires_8cpp.html#aa3ac470d830a5989c8a77534a2d2c096" target="_top" xlink:title="Ouvre une base de données de type table (bulletins + lignes) en écriture pour un segment d&#39;exécution ...">
<polygon fill="white" stroke="black" points="164,-536.5 164,-555.5 262,-555.5 262,-536.5 164,-536.5"/>
<text text-anchor="middle" x="213" y="-543.5" font-family="Helvetica,sans-Serif" font-size="10.00">ouvrir_fichier_base</text>
</a>
</g>
</g>
<!-- Node0&#45;&gt;Node21 -->
<g id="edge32" class="edge"><title>Node0&#45;&gt;Node21</title>
<path fill="none" stroke="midnightblue" d="M42.8041,-322.951C44.42,-357.2 54.6205,-471.158 119,-527 128.725,-535.435 141.174,-540.491 153.78,-543.446"/>
<polygon fill="midnightblue" stroke="midnightblue" points="153.392,-546.935 163.874,-545.389 154.716,-540.061 153.392,-546.935"/>
</g>
<!-- Node2 -->
<g id="node3" class="node"><title>Node2</title>
<g id="a_node3"><a xlink:href="fonctions__auxiliaires_8cpp.html#aeafedd27b99b9ca6eecd49ff027b3671" target="_top" xlink:title="Ouvre une base de données de type table (bulletins + lignes) en écriture pour un segment d&#39;exécution ...">
<polygon fill="white" stroke="black" points="366,-555.5 366,-574.5 470,-574.5 470,-555.5 366,-555.5"/>
<text text-anchor="middle" x="418" y="-562.5" font-family="Helvetica,sans-Serif" font-size="10.00">ouvrir_fichier_base0</text>
</a>
</g>
</g>
<!-- Node1&#45;&gt;Node2 -->
<g id="edge2" class="edge"><title>Node1&#45;&gt;Node2</title>
<path fill="none" stroke="midnightblue" d="M269.739,-578.783C296.383,-576.289 328.348,-573.297 355.679,-570.739"/>
<polygon fill="midnightblue" stroke="midnightblue" points="356.275,-574.199 365.906,-569.782 355.623,-567.229 356.275,-574.199"/>
</g>
<!-- Node3 -->
<g id="node4" class="node"><title>Node3</title>
<g id="a_node4"><a xlink:href="fonctions__auxiliaires_8cpp.html#aa4c818d49539c9dec49c5cf3144b8f53" target="_top" xlink:title="Taille du fichier en octets. ">
<polygon fill="white" stroke="black" points="552,-593.5 552,-612.5 620,-612.5 620,-593.5 552,-593.5"/>
<text text-anchor="middle" x="586" y="-600.5" font-family="Helvetica,sans-Serif" font-size="10.00">taille_fichier</text>
</a>
</g>
</g>
<!-- Node2&#45;&gt;Node3 -->
<g id="edge3" class="edge"><title>Node2&#45;&gt;Node3</title>
<path fill="none" stroke="midnightblue" d="M460.889,-574.589C485.623,-580.251 516.873,-587.405 541.828,-593.117"/>
<polygon fill="midnightblue" stroke="midnightblue" points="541.221,-596.569 551.75,-595.389 542.784,-589.745 541.221,-596.569"/>
</g>
<!-- Node4 -->
<g id="node5" class="node"><title>Node4</title>
<g id="a_node5"><a xlink:href="fonctions__auxiliaires_8cpp.html#aff3c87803f64d34f00a30ef30bb74a9b" target="_top" xlink:title="ecrire_entete_table">
<polygon fill="white" stroke="black" points="536.5,-555.5 536.5,-574.5 635.5,-574.5 635.5,-555.5 536.5,-555.5"/>
<text text-anchor="middle" x="586" y="-562.5" font-family="Helvetica,sans-Serif" font-size="10.00">ecrire_entete_table</text>
</a>
</g>
</g>
<!-- Node2&#45;&gt;Node4 -->
<g id="edge4" class="edge"><title>Node2&#45;&gt;Node4</title>
<path fill="none" stroke="midnightblue" d="M470.16,-565C487.841,-565 507.795,-565 526.05,-565"/>
<polygon fill="midnightblue" stroke="midnightblue" points="526.28,-568.5 536.28,-565 526.28,-561.5 526.28,-568.5"/>
</g>
<!-- Node6 -->
<g id="node7" class="node"><title>Node6</title>
<g id="a_node7"><a xlink:href="fonctions__auxiliaires_8cpp.html#a5e2253f583a3358618441c2cba35742b" target="_top" xlink:title="Ecrit les libellés des colonnes des bulletins. ">
<polygon fill="white" stroke="black" points="529,-517.5 529,-536.5 643,-536.5 643,-517.5 529,-517.5"/>
<text text-anchor="middle" x="586" y="-524.5" font-family="Helvetica,sans-Serif" font-size="10.00">ecrire_entete_bulletins</text>
</a>
</g>
</g>
<!-- Node2&#45;&gt;Node6 -->
<g id="edge6" class="edge"><title>Node2&#45;&gt;Node6</title>
<path fill="none" stroke="midnightblue" d="M460.889,-555.411C482.893,-550.374 510.055,-544.156 533.352,-538.823"/>
<polygon fill="midnightblue" stroke="midnightblue" points="534.446,-542.163 543.412,-536.52 532.884,-535.34 534.446,-542.163"/>
</g>
<!-- Node5 -->
<g id="node6" class="node"><title>Node5</title>
<g id="a_node6"><a xlink:href="fonctions__auxiliaires_8cpp.html#aca69dd2811b53b087f39810c114e7dde" target="_top" xlink:title="Ecrit les libellés des colonnes d&#39;une base quelconque avec un tableau de libellés de taille donnée...">
<polygon fill="white" stroke="black" points="679,-536.5 679,-555.5 757,-555.5 757,-536.5 679,-536.5"/>
<text text-anchor="middle" x="718" y="-543.5" font-family="Helvetica,sans-Serif" font-size="10.00">ecrire_entete0</text>
</a>
</g>
</g>
<!-- Node4&#45;&gt;Node5 -->
<g id="edge5" class="edge"><title>Node4&#45;&gt;Node5</title>
<path fill="none" stroke="midnightblue" d="M635.777,-557.871C646.587,-556.291 658.037,-554.618 668.824,-553.041"/>
<polygon fill="midnightblue" stroke="midnightblue" points="669.531,-556.475 678.919,-551.566 668.518,-549.549 669.531,-556.475"/>
</g>
<!-- Node6&#45;&gt;Node5 -->
<g id="edge7" class="edge"><title>Node6&#45;&gt;Node5</title>
<path fill="none" stroke="midnightblue" d="M643.264,-535.223C651.659,-536.45 660.253,-537.706 668.47,-538.907"/>
<polygon fill="midnightblue" stroke="midnightblue" points="668.233,-542.41 678.634,-540.393 669.246,-535.483 668.233,-542.41"/>
</g>
<!-- Node8 -->
<g id="node9" class="node"><title>Node8</title>
<g id="a_node9"><a xlink:href="table_8cpp.html#aa1e1ec482bbaf2ed7cfffe4dc2f4f42d" target="_top" xlink:title="Ecrit une ligne de paye pour un agent donné dans le fichier CSV Table. ">
<polygon fill="white" stroke="black" points="343,-382.5 343,-401.5 493,-401.5 493,-382.5 343,-382.5"/>
<text text-anchor="middle" x="418" y="-389.5" font-family="Helvetica,sans-Serif" font-size="10.00">ECRIRE_LIGNE_l_COMMUN</text>
</a>
</g>
</g>
<!-- Node7&#45;&gt;Node8 -->
<g id="edge9" class="edge"><title>Node7&#45;&gt;Node8</title>
<path fill="none" stroke="midnightblue" d="M282.701,-486.867C291.074,-484.058 299.361,-480.787 307,-477 343.46,-458.925 379.612,-427.784 400.045,-408.632"/>
<polygon fill="midnightblue" stroke="midnightblue" points="402.494,-411.132 407.314,-401.697 397.663,-406.067 402.494,-411.132"/>
</g>
<!-- Node10 -->
<g id="node11" class="node"><title>Node10</title>
<g id="a_node11"><a xlink:href="table_8cpp.html#a4c2fb8f5119259a3b8fd7e2867a554d2" target="_top" xlink:title="Ecrit une ligne de bulletin de paye pour un agent donné dans le fichier CSV Bulletins.paie &#160;. ">
<polygon fill="white" stroke="black" points="346,-112 346,-142 490,-142 490,-112 346,-112"/>
<text text-anchor="start" x="354" y="-130" font-family="Helvetica,sans-Serif" font-size="10.00">ECRIRE_LIGNE_BULLETIN</text>
<text text-anchor="middle" x="418" y="-119" font-family="Helvetica,sans-Serif" font-size="10.00">_COMMUN</text>
</a>
</g>
</g>
<!-- Node9&#45;&gt;Node10 -->
<g id="edge11" class="edge"><title>Node9&#45;&gt;Node10</title>
<path fill="none" stroke="midnightblue" d="M286.89,-234.847C293.864,-232.321 300.683,-229.391 307,-226 343.29,-206.518 377.266,-172.613 397.594,-149.989"/>
<polygon fill="midnightblue" stroke="midnightblue" points="400.461,-152.029 404.445,-142.212 395.209,-147.402 400.461,-152.029"/>
</g>
<!-- Node11&#45;&gt;Node8 -->
<g id="edge13" class="edge"><title>Node11&#45;&gt;Node8</title>
<path fill="none" stroke="midnightblue" d="M270.038,-448.461C282.335,-445.84 295.202,-442.684 307,-439 335.665,-430.049 367.043,-416.215 388.924,-405.869"/>
<polygon fill="midnightblue" stroke="midnightblue" points="390.468,-409.01 397.974,-401.533 387.444,-402.697 390.468,-409.01"/>
</g>
<!-- Node12&#45;&gt;Node10 -->
<g id="edge15" class="edge"><title>Node12&#45;&gt;Node10</title>
<path fill="none" stroke="midnightblue" d="M278.477,-185.919C288.12,-183.215 297.881,-180.222 307,-177 331.357,-168.395 357.733,-156.5 378.55,-146.47"/>
<polygon fill="midnightblue" stroke="midnightblue" points="380.241,-149.54 387.697,-142.012 377.174,-143.247 380.241,-149.54"/>
</g>
<!-- Node13&#45;&gt;Node8 -->
<g id="edge17" class="edge"><title>Node13&#45;&gt;Node8</title>
<path fill="none" stroke="midnightblue" d="M280.189,-406.827C296.921,-405.013 315.116,-403.042 332.613,-401.145"/>
<polygon fill="midnightblue" stroke="midnightblue" points="333.253,-404.597 342.818,-400.039 332.499,-397.637 333.253,-404.597"/>
</g>
<!-- Node14&#45;&gt;Node10 -->
<g id="edge19" class="edge"><title>Node14&#45;&gt;Node10</title>
<path fill="none" stroke="midnightblue" d="M285.285,-143.221C301.557,-141.217 318.97,-139.073 335.629,-137.021"/>
<polygon fill="midnightblue" stroke="midnightblue" points="336.39,-140.454 345.887,-135.758 335.534,-133.506 336.39,-140.454"/>
</g>
<!-- Node15&#45;&gt;Node8 -->
<g id="edge21" class="edge"><title>Node15&#45;&gt;Node8</title>
<path fill="none" stroke="midnightblue" d="M280.189,-377.173C296.921,-378.987 315.116,-380.958 332.613,-382.855"/>
<polygon fill="midnightblue" stroke="midnightblue" points="332.499,-386.363 342.818,-383.961 333.253,-379.403 332.499,-386.363"/>
</g>
<!-- Node16&#45;&gt;Node10 -->
<g id="edge23" class="edge"><title>Node16&#45;&gt;Node10</title>
<path fill="none" stroke="midnightblue" d="M285.285,-111.428C301.557,-113.352 318.97,-115.41 335.629,-117.38"/>
<polygon fill="midnightblue" stroke="midnightblue" points="335.545,-120.894 345.887,-118.593 336.367,-113.943 335.545,-120.894"/>
</g>
<!-- Node17&#45;&gt;Node8 -->
<g id="edge25" class="edge"><title>Node17&#45;&gt;Node8</title>
<path fill="none" stroke="midnightblue" d="M267.949,-341.544C280.838,-344.23 294.485,-347.413 307,-351 333.844,-358.694 363.463,-369.897 385.198,-378.649"/>
<polygon fill="midnightblue" stroke="midnightblue" points="384.009,-381.944 394.591,-382.476 386.651,-375.461 384.009,-381.944"/>
</g>
<!-- Node18&#45;&gt;Node10 -->
<g id="edge27" class="edge"><title>Node18&#45;&gt;Node10</title>
<path fill="none" stroke="midnightblue" d="M275.428,-69.1227C286.04,-72.1299 296.902,-75.4616 307,-79 330.426,-87.2086 355.871,-98.1722 376.382,-107.549"/>
<polygon fill="midnightblue" stroke="midnightblue" points="375.183,-110.85 385.729,-111.867 378.119,-104.496 375.183,-110.85"/>
</g>
<!-- Node19&#45;&gt;Node8 -->
<g id="edge29" class="edge"><title>Node19&#45;&gt;Node8</title>
<path fill="none" stroke="midnightblue" d="M262.018,-299.832C276.845,-302.674 292.958,-306.86 307,-313 342.786,-328.646 378.445,-357.25 399.075,-375.408"/>
<polygon fill="midnightblue" stroke="midnightblue" points="396.927,-378.183 406.707,-382.257 401.602,-372.973 396.927,-378.183"/>
</g>
<!-- Node20&#45;&gt;Node10 -->
<g id="edge31" class="edge"><title>Node20&#45;&gt;Node10</title>
<path fill="none" stroke="midnightblue" d="M281.963,-19.5111C290.631,-21.9786 299.192,-25.0862 307,-29 343.656,-47.3738 377.539,-81.1664 397.748,-103.861"/>
<polygon fill="midnightblue" stroke="midnightblue" points="395.345,-106.432 404.554,-111.671 400.623,-101.833 395.345,-106.432"/>
</g>
<!-- Node21&#45;&gt;Node2 -->
<g id="edge33" class="edge"><title>Node21&#45;&gt;Node2</title>
<path fill="none" stroke="midnightblue" d="M262.108,-550.503C290.006,-553.114 325.427,-556.429 355.354,-559.23"/>
<polygon fill="midnightblue" stroke="midnightblue" points="355.406,-562.75 365.688,-560.197 356.058,-555.781 355.406,-562.75"/>
</g>
</g>
</svg>
        <g id="navigator" transform="translate(0 0)" fill="#404254">
                <rect fill="#f2f5e9" fill-opacity="0.5" stroke="#606060" stroke-width=".5" x="0" y="0" width="60" height="60"/>
                <use id="zoomplus" xlink:href="#zoomPlus" x="17" y="9" onmousedown="handleZoom(evt,'in')"/>
                <use id="zoomminus" xlink:href="#zoomMin" x="42" y="9" onmousedown="handleZoom(evt,'out')"/>
                <use id="reset" xlink:href="#resetDef" x="30" y="36" onmousedown="handleReset()"/>
                <g id="arrowUp" xlink:href="#dirArrow" transform="translate(30 24)" onmousedown="handlePan(0,-1)">
                  <use xlink:href="#rim" fill="#404040">
                        <set attributeName="fill" to="#808080" begin="arrowUp.mouseover" end="arrowUp.mouseout"/>
                  </use>
                  <path fill="none" stroke="white" stroke-width="1.5" d="M0,-3.0v7 M-2.5,-0.5L0,-3.0L2.5,-0.5"/>
                </g>
                <g id="arrowRight" xlink:href="#dirArrow" transform="rotate(90) translate(36 -43)" onmousedown="handlePan(1,0)">
                  <use xlink:href="#rim" fill="#404040">
                        <set attributeName="fill" to="#808080" begin="arrowRight.mouseover" end="arrowRight.mouseout"/>
                  </use>
                  <path fill="none" stroke="white" stroke-width="1.5" d="M0,-3.0v7 M-2.5,-0.5L0,-3.0L2.5,-0.5"/>
                </g>
                <g id="arrowDown" xlink:href="#dirArrow" transform="rotate(180) translate(-30 -48)" onmousedown="handlePan(0,1)">
                  <use xlink:href="#rim" fill="#404040">
                        <set attributeName="fill" to="#808080" begin="arrowDown.mouseover" end="arrowDown.mouseout"/>
                  </use>
                  <path fill="none" stroke="white" stroke-width="1.5" d="M0,-3.0v7 M-2.5,-0.5L0,-3.0L2.5,-0.5"/>
                </g>
                <g id="arrowLeft" xlink:href="#dirArrow" transform="rotate(270) translate(-36 17)" onmousedown="handlePan(-1,0)">
                  <use xlink:href="#rim" fill="#404040">
                        <set attributeName="fill" to="#808080" begin="arrowLeft.mouseover" end="arrowLeft.mouseout"/>
                  </use>
                  <path fill="none" stroke="white" stroke-width="1.5" d="M0,-3.0v7 M-2.5,-0.5L0,-3.0L2.5,-0.5"/>
                </g>
        </g>
        <svg viewBox="0 0 15 15" width="100%" height="30px" preserveAspectRatio="xMaxYMin meet">
         <g id="arrow_out" transform="scale(0.3 0.3)">
          <a xlink:href="table_8cpp_a666a48e623a324e4c739c91c1ea9adf7_cgraph_org.svg" target="_base">
           <rect id="button" ry="5" rx="5" y="6" x="6" height="38" width="38"
                fill="#f2f5e9" fill-opacity="0.5" stroke="#606060" stroke-width="1.0"/>
           <path id="arrow"
             d="M 11.500037,31.436501 C 11.940474,20.09759 22.043105,11.32322 32.158766,21.979434 L 37.068811,17.246167 C 37.068811,17.246167 37.088388,32 37.088388,32 L 22.160133,31.978069 C 22.160133,31.978069 26.997745,27.140456 26.997745,27.140456 C 18.528582,18.264221 13.291696,25.230495 11.500037,31.436501 z"
             style="fill:#404040;"/>
          </a>
         </g>
        </svg>
</svg>
