<?xml version="1.0" encoding="UTF-8" standalone="no"?>
<!DOCTYPE svg PUBLIC "-//W3C//DTD SVG 1.1//EN"
 "http://www.w3.org/Graphics/SVG/1.1/DTD/svg11.dtd">
<!-- Generated by graphviz version 2.38.0 (20140413.2041)
 -->
<!-- Title: ECRIRE_LIGNE_BULLETIN_COMMUN Pages: 1 -->
<!--zoomable 274 -->
<svg id="main" version="1.1" xmlns="http://www.w3.org/2000/svg" xmlns:xlink="http://www.w3.org/1999/xlink" xml:space="preserve" onload="init(evt)">
<style type="text/css"><![CDATA[
.edge:hover path { stroke: red; }
.edge:hover polygon { stroke: red; fill: red; }
]]></style>
<script type="text/javascript"><![CDATA[
var edges = document.getElementsByTagName('g');
if (edges && edges.length) {
  for (var i=0;i<edges.length;i++) {
    if (edges[i].id.substr(0,4)=='edge') {
      edges[i].setAttribute('class','edge');
    }
  }
}
]]></script>
        <defs>
                <circle id="rim" cx="0" cy="0" r="7"/>
                <circle id="rim2" cx="0" cy="0" r="3.5"/>
                <g id="zoomPlus">
                        <use xlink:href="#rim" fill="#404040">
                                <set attributeName="fill" to="#808080" begin="zoomplus.mouseover" end="zoomplus.mouseout"/>
                        </use>
                        <path d="M-4,0h8M0,-4v8" fill="none" stroke="white" stroke-width="1.5" pointer-events="none"/>
                </g>
                <g id="zoomMin">
                        <use xlink:href="#rim" fill="#404040">
                                <set attributeName="fill" to="#808080" begin="zoomminus.mouseover" end="zoomminus.mouseout"/>
                        </use>
                        <path d="M-4,0h8" fill="none" stroke="white" stroke-width="1.5" pointer-events="none"/>
                </g>
                <g id="dirArrow">
                        <path fill="none" stroke="white" stroke-width="1.5" d="M0,-3.0v7 M-2.5,-0.5L0,-3.0L2.5,-0.5"/>
                </g>
               <g id="resetDef">
                       <use xlink:href="#rim2" fill="#404040">
                               <set attributeName="fill" to="#808080" begin="reset.mouseover" end="reset.mouseout"/>
                       </use>
               </g>
        </defs>

<script type="text/javascript">
var viewWidth = 672;
var viewHeight = 274;
var sectionId = 'dynsection-3';
</script>
<script xlink:href="svgpan.js"/>
<svg id="graph" class="graph">
<g id="viewport">
<title>ECRIRE_LIGNE_BULLETIN_COMMUN</title>
<polygon fill="white" stroke="none" points="-4,4 -4,-270 668,-270 668,4 -4,4"/>
<!-- Node26 -->
<g id="node1" class="node"><title>Node26</title>
<polygon fill="#bfbfbf" stroke="black" points="0,-112.5 0,-142.5 144,-142.5 144,-112.5 0,-112.5"/>
<text text-anchor="start" x="8" y="-130.5" font-family="Helvetica,sans-Serif" font-size="10.00">ECRIRE_LIGNE_BULLETIN</text>
<text text-anchor="middle" x="72" y="-119.5" font-family="Helvetica,sans-Serif" font-size="10.00">_COMMUN</text>
</g>
<!-- Node27 -->
<g id="node2" class="node"><title>Node27</title>
<g id="a_node2"><a xlink:href="table_8cpp.html#ac961030aff2e8f0da8ff2788c16e2272" target="_top" xlink:title="Ecrit une ligne de bulletin de paye pour un agent donné dans le fichier CSV Bulletins.paie et, en outre, génère le rang de la ligne dans le fichier Ajoute les colonnes Annee et Mois en début de fichier &#160;Ajoute optionnellement les colonnes Budget, Employeur, Siret et Etablissement Ajoute les colonnes Categorie et NIR en fin de fichier &#160;. ">
<polygon fill="white" stroke="black" points="188.5,-235.5 188.5,-265.5 332.5,-265.5 332.5,-235.5 188.5,-235.5"/>
<text text-anchor="start" x="196.5" y="-253.5" font-family="Helvetica,sans-Serif" font-size="10.00">ECRIRE_LIGNE_BULLETIN</text>
<text text-anchor="middle" x="260.5" y="-242.5" font-family="Helvetica,sans-Serif" font-size="10.00">_GENERER_RANG</text>
</a>
</g>
</g>
<!-- Node26&#45;&gt;Node27 -->
<g id="edge1" class="edge"><title>Node26&#45;&gt;Node27</title>
<path fill="none" stroke="midnightblue" d="M91.9137,-150.207C111.717,-172.61 144.789,-206.345 180,-226.5 185.881,-229.866 192.282,-232.805 198.814,-235.361"/>
<polygon fill="midnightblue" stroke="midnightblue" points="94.4353,-147.772 85.2386,-142.512 89.1475,-152.359 94.4353,-147.772"/>
</g>
<!-- Node31 -->
<g id="node6" class="node"><title>Node31</title>
<g id="a_node6"><a xlink:href="table_8cpp.html#ac99b105f075700364aa7b14d11ceab7b" target="_top" xlink:title="Ecrit une ligne de bulletin de paye pour un agent donné dans le fichier CSV Bulletins.paie et, en outre, génère le rang de la ligne dans le fichier Ajoute les colonnes Annee et Mois en début de fichier &#160;Ajoute optionnellement les colonnes Budget, Employeur, Siret et Etablissement Ajoute les colonnes Echelon, Categorie et NIR en fin de fichier &#160;. ">
<polygon fill="white" stroke="black" points="180,-186.5 180,-216.5 341,-216.5 341,-186.5 180,-186.5"/>
<text text-anchor="start" x="188" y="-204.5" font-family="Helvetica,sans-Serif" font-size="10.00">ECRIRE_LIGNE_BULLETIN</text>
<text text-anchor="middle" x="260.5" y="-193.5" font-family="Helvetica,sans-Serif" font-size="10.00">_GENERER_RANG_ECHELON</text>
</a>
</g>
</g>
<!-- Node26&#45;&gt;Node31 -->
<g id="edge5" class="edge"><title>Node26&#45;&gt;Node31</title>
<path fill="none" stroke="midnightblue" d="M111.62,-147.191C131.712,-157.013 156.852,-168.65 180,-177.5 188.215,-180.641 197.028,-183.647 205.689,-186.405"/>
<polygon fill="midnightblue" stroke="midnightblue" points="112.999,-143.969 102.482,-142.68 109.9,-150.245 112.999,-143.969"/>
</g>
<!-- Node32 -->
<g id="node7" class="node"><title>Node32</title>
<g id="a_node7"><a xlink:href="table_8cpp.html#a96061df9a94d349009a11fa399bbec5c" target="_top" xlink:title="Ecrit une ligne de bulletin de paye pour un agent donné dans le fichier CSV Bulletins.paie &#160;Ajoute les colonnes Annee et Mois en début de fichier &#160;Ajoute les colonnes Budget, Employeur, Siret et Etablissement Ajoute les colonnes Categorie et NIR en fin de fichier &#160;. ">
<polygon fill="white" stroke="black" points="188.5,-137.5 188.5,-167.5 332.5,-167.5 332.5,-137.5 188.5,-137.5"/>
<text text-anchor="start" x="196.5" y="-155.5" font-family="Helvetica,sans-Serif" font-size="10.00">ECRIRE_LIGNE_BULLETIN</text>
<text text-anchor="middle" x="260.5" y="-144.5" font-family="Helvetica,sans-Serif" font-size="10.00">_SIRET</text>
</a>
</g>
</g>
<!-- Node26&#45;&gt;Node32 -->
<g id="edge7" class="edge"><title>Node26&#45;&gt;Node32</title>
<path fill="none" stroke="midnightblue" d="M154.005,-138.359C165.437,-139.891 177.12,-141.457 188.349,-142.962"/>
<polygon fill="midnightblue" stroke="midnightblue" points="154.416,-134.882 144.04,-137.023 153.486,-141.82 154.416,-134.882"/>
</g>
<!-- Node33 -->
<g id="node8" class="node"><title>Node33</title>
<g id="a_node8"><a xlink:href="table_8cpp.html#ae5fac93ecc2de57ead73a4529b95d917" target="_top" xlink:title="Ecrit une ligne de bulletin de paye pour un agent donné dans le fichier CSV Bulletins.paie &#160;Ajoute les colonnes Annee et Mois en début de fichier &#160;Ajoute les colonnes Budget, Employeur, Siret et Etablissement Ajoute les colonnes Echelon, Categorie et NIR en fin de fichier &#160;. ">
<polygon fill="white" stroke="black" points="188.5,-88.5 188.5,-118.5 332.5,-118.5 332.5,-88.5 188.5,-88.5"/>
<text text-anchor="start" x="196.5" y="-106.5" font-family="Helvetica,sans-Serif" font-size="10.00">ECRIRE_LIGNE_BULLETIN</text>
<text text-anchor="middle" x="260.5" y="-95.5" font-family="Helvetica,sans-Serif" font-size="10.00">_SIRET_ECHELON</text>
</a>
</g>
</g>
<!-- Node26&#45;&gt;Node33 -->
<g id="edge9" class="edge"><title>Node26&#45;&gt;Node33</title>
<path fill="none" stroke="midnightblue" d="M154.005,-117.076C165.437,-115.605 177.12,-114.101 188.349,-112.656"/>
<polygon fill="midnightblue" stroke="midnightblue" points="153.511,-113.61 144.04,-118.358 154.405,-120.553 153.511,-113.61"/>
</g>
<!-- Node34 -->
<g id="node9" class="node"><title>Node34</title>
<g id="a_node9"><a xlink:href="table_8cpp.html#a916e1e5b2942bd8d0c96914172abefc2" target="_top" xlink:title="Ecrit une ligne de bulletin de paye pour un agent donné dans le fichier CSV Bulletins.paie &#160;Ajoute les colonnes Annee et Mois en début de fichier &#160;Ajoute les colonnes Categorie et NIR en fin de fichier &#160;. ">
<polygon fill="white" stroke="black" points="185,-50 185,-69 336,-69 336,-50 185,-50"/>
<text text-anchor="middle" x="260.5" y="-57" font-family="Helvetica,sans-Serif" font-size="10.00">ECRIRE_LIGNE_BULLETINS</text>
</a>
</g>
</g>
<!-- Node26&#45;&gt;Node34 -->
<g id="edge11" class="edge"><title>Node26&#45;&gt;Node34</title>
<path fill="none" stroke="midnightblue" d="M111.969,-108.035C131.967,-98.5579 156.92,-87.5108 180,-79.5 191.429,-75.5334 204.032,-71.9959 215.771,-69.04"/>
<polygon fill="midnightblue" stroke="midnightblue" points="110.369,-104.92 102.867,-112.401 113.397,-111.231 110.369,-104.92"/>
</g>
<!-- Node35 -->
<g id="node10" class="node"><title>Node35</title>
<g id="a_node10"><a xlink:href="table_8cpp.html#a81cadaba9e542262f469cce0176edab7" target="_top" xlink:title="Ecrit une ligne de bulletin de paye pour un agent donné dans le fichier CSV Bulletins.paie &#160;Ajoute les colonnes Annee et Mois en début de fichier &#160;Ajoute les colonnes Echelon, Categorie et NIR en fin de fichier &#160;. ">
<polygon fill="white" stroke="black" points="185,-0.5 185,-30.5 336,-30.5 336,-0.5 185,-0.5"/>
<text text-anchor="start" x="193" y="-18.5" font-family="Helvetica,sans-Serif" font-size="10.00">ECRIRE_LIGNE_BULLETINS</text>
<text text-anchor="middle" x="260.5" y="-7.5" font-family="Helvetica,sans-Serif" font-size="10.00">_ECHELON</text>
</a>
</g>
</g>
<!-- Node26&#45;&gt;Node35 -->
<g id="edge13" class="edge"><title>Node26&#45;&gt;Node35</title>
<path fill="none" stroke="midnightblue" d="M95.1987,-105.165C115.655,-85.6894 147.658,-57.9038 180,-40.5 187.007,-36.7292 194.673,-33.4247 202.392,-30.5602"/>
<polygon fill="midnightblue" stroke="midnightblue" points="92.6987,-102.714 87.9472,-112.184 97.567,-107.744 92.6987,-102.714"/>
</g>
<!-- Node28 -->
<g id="node3" class="node"><title>Node28</title>
<g id="a_node3"><a xlink:href="table_8cpp.html#a666a48e623a324e4c739c91c1ea9adf7" target="_top" xlink:title="Lance l&#39;écriture des fichiers Bulletins.paie.csv et Table....csv pour un segment des données de paye...">
<polygon fill="white" stroke="black" points="377,-118 377,-137 460,-137 460,-118 377,-118"/>
<text text-anchor="middle" x="418.5" y="-125" font-family="Helvetica,sans-Serif" font-size="10.00">boucle_ecriture</text>
</a>
</g>
</g>
<!-- Node27&#45;&gt;Node28 -->
<g id="edge2" class="edge"><title>Node27&#45;&gt;Node28</title>
<path fill="none" stroke="midnightblue" d="M333.938,-230.878C336.377,-229.514 338.74,-228.056 341,-226.5 376.064,-202.354 402.279,-157.15 412.641,-137.286"/>
<polygon fill="midnightblue" stroke="midnightblue" points="332.212,-227.828 324.828,-235.426 335.338,-234.091 332.212,-227.828"/>
</g>
<!-- Node29 -->
<g id="node4" class="node"><title>Node29</title>
<g id="a_node4"><a xlink:href="lhx_2main_8cpp.html#abb1f1ad236423a832fd1efa1e9deeafa" target="_top" xlink:title="Pour un segment donné (sous&#45;ensemble de bases de paye XML), redécoupe le segment en partie égales ou ...">
<polygon fill="white" stroke="black" points="496,-118 496,-137 590,-137 590,-118 496,-118"/>
<text text-anchor="middle" x="543" y="-125" font-family="Helvetica,sans-Serif" font-size="10.00">produire_segment</text>
</a>
</g>
</g>
<!-- Node28&#45;&gt;Node29 -->
<g id="edge3" class="edge"><title>Node28&#45;&gt;Node29</title>
<path fill="none" stroke="midnightblue" d="M470.413,-127.5C478.858,-127.5 487.572,-127.5 495.89,-127.5"/>
<polygon fill="midnightblue" stroke="midnightblue" points="470.291,-124 460.291,-127.5 470.291,-131 470.291,-124"/>
</g>
<!-- Node30 -->
<g id="node5" class="node"><title>Node30</title>
<g id="a_node5"><a xlink:href="lhx_2main_8cpp.html#a3c04138a5bfe5d72780bb7e82a18e627" target="_top" xlink:title="main">
<polygon fill="white" stroke="black" points="626,-118 626,-137 664,-137 664,-118 626,-118"/>
<text text-anchor="middle" x="645" y="-125" font-family="Helvetica,sans-Serif" font-size="10.00">main</text>
</a>
</g>
</g>
<!-- Node29&#45;&gt;Node30 -->
<g id="edge4" class="edge"><title>Node29&#45;&gt;Node30</title>
<path fill="none" stroke="midnightblue" d="M600.316,-127.5C609.594,-127.5 618.577,-127.5 625.96,-127.5"/>
<polygon fill="midnightblue" stroke="midnightblue" points="600.195,-124 590.195,-127.5 600.195,-131 600.195,-124"/>
</g>
<!-- Node31&#45;&gt;Node28 -->
<g id="edge6" class="edge"><title>Node31&#45;&gt;Node28</title>
<path fill="none" stroke="midnightblue" d="M328.305,-182.881C332.653,-181.195 336.92,-179.401 341,-177.5 365.161,-166.242 390.557,-148.227 405.161,-137.172"/>
<polygon fill="midnightblue" stroke="midnightblue" points="326.888,-179.672 318.699,-186.395 329.293,-186.246 326.888,-179.672"/>
</g>
<!-- Node32&#45;&gt;Node28 -->
<g id="edge8" class="edge"><title>Node32&#45;&gt;Node28</title>
<path fill="none" stroke="midnightblue" d="M342.592,-139.504C354.427,-137.608 366.167,-135.726 376.72,-134.035"/>
<polygon fill="midnightblue" stroke="midnightblue" points="341.973,-136.059 332.652,-141.097 343.08,-142.971 341.973,-136.059"/>
</g>
<!-- Node33&#45;&gt;Node28 -->
<g id="edge10" class="edge"><title>Node33&#45;&gt;Node28</title>
<path fill="none" stroke="midnightblue" d="M342.592,-115.976C354.427,-117.796 366.167,-119.603 376.72,-121.226"/>
<polygon fill="midnightblue" stroke="midnightblue" points="343.068,-112.508 332.652,-114.447 342.004,-119.426 343.068,-112.508"/>
</g>
<!-- Node34&#45;&gt;Node28 -->
<g id="edge12" class="edge"><title>Node34&#45;&gt;Node28</title>
<path fill="none" stroke="midnightblue" d="M319.711,-71.8813C326.995,-74.0876 334.251,-76.6192 341,-79.5 365.082,-89.7788 390.3,-107.073 404.923,-117.856"/>
<polygon fill="midnightblue" stroke="midnightblue" points="320.38,-68.4332 309.805,-69.0721 318.47,-75.1677 320.38,-68.4332"/>
</g>
<!-- Node35&#45;&gt;Node28 -->
<g id="edge14" class="edge"><title>Node35&#45;&gt;Node28</title>
<path fill="none" stroke="midnightblue" d="M331.06,-34.8024C334.507,-36.5496 337.844,-38.4451 341,-40.5 373.363,-61.5692 400.213,-99.9721 411.615,-117.857"/>
<polygon fill="midnightblue" stroke="midnightblue" points="332.272,-31.5075 321.723,-30.5159 329.351,-37.8691 332.272,-31.5075"/>
</g>
</g>
</svg>
        <g id="navigator" transform="translate(0 0)" fill="#404254">
                <rect fill="#f2f5e9" fill-opacity="0.5" stroke="#606060" stroke-width=".5" x="0" y="0" width="60" height="60"/>
                <use id="zoomplus" xlink:href="#zoomPlus" x="17" y="9" onmousedown="handleZoom(evt,'in')"/>
                <use id="zoomminus" xlink:href="#zoomMin" x="42" y="9" onmousedown="handleZoom(evt,'out')"/>
                <use id="reset" xlink:href="#resetDef" x="30" y="36" onmousedown="handleReset()"/>
                <g id="arrowUp" xlink:href="#dirArrow" transform="translate(30 24)" onmousedown="handlePan(0,-1)">
                  <use xlink:href="#rim" fill="#404040">
                        <set attributeName="fill" to="#808080" begin="arrowUp.mouseover" end="arrowUp.mouseout"/>
                  </use>
                  <path fill="none" stroke="white" stroke-width="1.5" d="M0,-3.0v7 M-2.5,-0.5L0,-3.0L2.5,-0.5"/>
                </g>
                <g id="arrowRight" xlink:href="#dirArrow" transform="rotate(90) translate(36 -43)" onmousedown="handlePan(1,0)">
                  <use xlink:href="#rim" fill="#404040">
                        <set attributeName="fill" to="#808080" begin="arrowRight.mouseover" end="arrowRight.mouseout"/>
                  </use>
                  <path fill="none" stroke="white" stroke-width="1.5" d="M0,-3.0v7 M-2.5,-0.5L0,-3.0L2.5,-0.5"/>
                </g>
                <g id="arrowDown" xlink:href="#dirArrow" transform="rotate(180) translate(-30 -48)" onmousedown="handlePan(0,1)">
                  <use xlink:href="#rim" fill="#404040">
                        <set attributeName="fill" to="#808080" begin="arrowDown.mouseover" end="arrowDown.mouseout"/>
                  </use>
                  <path fill="none" stroke="white" stroke-width="1.5" d="M0,-3.0v7 M-2.5,-0.5L0,-3.0L2.5,-0.5"/>
                </g>
                <g id="arrowLeft" xlink:href="#dirArrow" transform="rotate(270) translate(-36 17)" onmousedown="handlePan(-1,0)">
                  <use xlink:href="#rim" fill="#404040">
                        <set attributeName="fill" to="#808080" begin="arrowLeft.mouseover" end="arrowLeft.mouseout"/>
                  </use>
                  <path fill="none" stroke="white" stroke-width="1.5" d="M0,-3.0v7 M-2.5,-0.5L0,-3.0L2.5,-0.5"/>
                </g>
        </g>
        <svg viewBox="0 0 15 15" width="100%" height="30px" preserveAspectRatio="xMaxYMin meet">
         <g id="arrow_out" transform="scale(0.3 0.3)">
          <a xlink:href="table_8cpp_a4c2fb8f5119259a3b8fd7e2867a554d2_icgraph_org.svg" target="_base">
           <rect id="button" ry="5" rx="5" y="6" x="6" height="38" width="38"
                fill="#f2f5e9" fill-opacity="0.5" stroke="#606060" stroke-width="1.0"/>
           <path id="arrow"
             d="M 11.500037,31.436501 C 11.940474,20.09759 22.043105,11.32322 32.158766,21.979434 L 37.068811,17.246167 C 37.068811,17.246167 37.088388,32 37.088388,32 L 22.160133,31.978069 C 22.160133,31.978069 26.997745,27.140456 26.997745,27.140456 C 18.528582,18.264221 13.291696,25.230495 11.500037,31.436501 z"
             style="fill:#404040;"/>
          </a>
         </g>
        </svg>
</svg>
