<?xml version="1.0" encoding="UTF-8" standalone="no"?>
<!DOCTYPE svg PUBLIC "-//W3C//DTD SVG 1.1//EN"
 "http://www.w3.org/Graphics/SVG/1.1/DTD/svg11.dtd">
<!-- Generated by graphviz version 2.38.0 (20140413.2041)
 -->
<!-- Title: ECRIRE_LIGNE_l_ECHELON Pages: 1 -->
<svg width="483pt" height="28pt"
 viewBox="0.00 0.00 483.00 28.00" xmlns="http://www.w3.org/2000/svg" xmlns:xlink="http://www.w3.org/1999/xlink">
<g id="graph0" class="graph" transform="scale(1 1) rotate(0) translate(4 24)">
<title>ECRIRE_LIGNE_l_ECHELON</title>
<polygon fill="white" stroke="none" points="-4,4 -4,-24 479,-24 479,4 -4,4"/>
<!-- Node91 -->
<g id="node1" class="node"><title>Node91</title>
<polygon fill="#bfbfbf" stroke="black" points="0,-0.5 0,-19.5 152,-19.5 152,-0.5 0,-0.5"/>
<text text-anchor="middle" x="76" y="-7.5" font-family="Helvetica,sans-Serif" font-size="10.00">ECRIRE_LIGNE_l_ECHELON</text>
</g>
<!-- Node92 -->
<g id="node2" class="node"><title>Node92</title>
<g id="a_node2"><a xlink:href="table_8cpp.html#a666a48e623a324e4c739c91c1ea9adf7" target="_top" xlink:title="Lance l&#39;écriture des fichiers Bulletins.paie.csv et Table....csv pour un segment des données de paye...">
<polygon fill="white" stroke="black" points="188,-0.5 188,-19.5 271,-19.5 271,-0.5 188,-0.5"/>
<text text-anchor="middle" x="229.5" y="-7.5" font-family="Helvetica,sans-Serif" font-size="10.00">boucle_ecriture</text>
</a>
</g>
</g>
<!-- Node91&#45;&gt;Node92 -->
<g id="edge1" class="edge"><title>Node91&#45;&gt;Node92</title>
<path fill="none" stroke="midnightblue" d="M162.558,-10C171.246,-10 179.759,-10 187.63,-10"/>
<polygon fill="midnightblue" stroke="midnightblue" points="162.306,-6.5001 152.306,-10 162.306,-13.5001 162.306,-6.5001"/>
</g>
<!-- Node93 -->
<g id="node3" class="node"><title>Node93</title>
<g id="a_node3"><a xlink:href="lhx_2main_8cpp.html#ae310350c218de4ee80cbf65bc27bcd1b" target="_top" xlink:title="Pour un segment donné (sous&#45;ensemble de bases de paye XML), redécoupe le segment en partie égales ou ...">
<polygon fill="white" stroke="black" points="307,-0.5 307,-19.5 401,-19.5 401,-0.5 307,-0.5"/>
<text text-anchor="middle" x="354" y="-7.5" font-family="Helvetica,sans-Serif" font-size="10.00">produire_segment</text>
</a>
</g>
</g>
<!-- Node92&#45;&gt;Node93 -->
<g id="edge2" class="edge"><title>Node92&#45;&gt;Node93</title>
<path fill="none" stroke="midnightblue" d="M281.413,-10C289.858,-10 298.572,-10 306.89,-10"/>
<polygon fill="midnightblue" stroke="midnightblue" points="281.291,-6.5001 271.291,-10 281.291,-13.5001 281.291,-6.5001"/>
</g>
<!-- Node94 -->
<g id="node4" class="node"><title>Node94</title>
<g id="a_node4"><a xlink:href="lhx_2main_8cpp.html#a3c04138a5bfe5d72780bb7e82a18e627" target="_top" xlink:title="main">
<polygon fill="white" stroke="black" points="437,-0.5 437,-19.5 475,-19.5 475,-0.5 437,-0.5"/>
<text text-anchor="middle" x="456" y="-7.5" font-family="Helvetica,sans-Serif" font-size="10.00">main</text>
</a>
</g>
</g>
<!-- Node93&#45;&gt;Node94 -->
<g id="edge3" class="edge"><title>Node93&#45;&gt;Node94</title>
<path fill="none" stroke="midnightblue" d="M411.316,-10C420.594,-10 429.577,-10 436.96,-10"/>
<polygon fill="midnightblue" stroke="midnightblue" points="411.195,-6.5001 401.195,-10 411.195,-13.5001 411.195,-6.5001"/>
</g>
</g>
</svg>
