<?xml version="1.0" encoding="UTF-8" standalone="no"?>
<!DOCTYPE svg PUBLIC "-//W3C//DTD SVG 1.1//EN"
 "http://www.w3.org/Graphics/SVG/1.1/DTD/svg11.dtd">
<!-- Generated by graphviz version 2.38.0 (20140413.2041)
 -->
<!-- Title: fwidgets_lib/tags.h Pages: 1 -->
<svg width="2070pt" height="431pt"
 viewBox="0.00 0.00 2069.50 431.00" xmlns="http://www.w3.org/2000/svg" xmlns:xlink="http://www.w3.org/1999/xlink">
<g id="graph0" class="graph" transform="scale(1 1) rotate(0) translate(4 427)">
<title>fwidgets_lib/tags.h</title>
<polygon fill="white" stroke="none" points="-4,4 -4,-427 2065.5,-427 2065.5,4 -4,4"/>
<!-- Node1 -->
<g id="node1" class="node"><title>Node1</title>
<polygon fill="#bfbfbf" stroke="black" points="447.5,-403.5 447.5,-422.5 550.5,-422.5 550.5,-403.5 447.5,-403.5"/>
<text text-anchor="middle" x="499" y="-410.5" font-family="Helvetica,sans-Serif" font-size="10.00">fwidgets_lib/tags.h</text>
</g>
<!-- Node2 -->
<g id="node2" class="node"><title>Node2</title>
<g id="a_node2"><a xlink:href="validator_8h.html" target="_top" xlink:title="Ce fichier contient notamment la structure info_t qui stocke les données de paye décodées ainsi que l...">
<polygon fill="white" stroke="black" points="408,-347.5 408,-366.5 490,-366.5 490,-347.5 408,-347.5"/>
<text text-anchor="middle" x="449" y="-354.5" font-family="Helvetica,sans-Serif" font-size="10.00">lhx/validator.h</text>
</a>
</g>
</g>
<!-- Node1&#45;&gt;Node2 -->
<g id="edge1" class="edge"><title>Node1&#45;&gt;Node2</title>
<path fill="none" stroke="midnightblue" d="M483.924,-395.718C475.111,-386.2 464.334,-374.561 457.103,-366.751"/>
<polygon fill="midnightblue" stroke="midnightblue" points="481.381,-398.123 490.744,-403.083 486.518,-393.367 481.381,-398.123"/>
</g>
<!-- Node3 -->
<g id="node3" class="node"><title>Node3</title>
<g id="a_node3"><a xlink:href="fonctions__auxiliaires_8h.html" target="_top" xlink:title="Diverses fonctions auxiliaires en inlining. ">
<polygon fill="white" stroke="black" points="245.5,-291.5 245.5,-310.5 382.5,-310.5 382.5,-291.5 245.5,-291.5"/>
<text text-anchor="middle" x="314" y="-298.5" font-family="Helvetica,sans-Serif" font-size="10.00">lhx/fonctions_auxiliaires.h</text>
</a>
</g>
</g>
<!-- Node1&#45;&gt;Node3 -->
<g id="edge22" class="edge"><title>Node1&#45;&gt;Node3</title>
<path fill="none" stroke="midnightblue" d="M466.69,-399.68C446.629,-391.496 420.638,-379.907 399,-367 369.804,-349.584 338.914,-323.852 323.671,-310.593"/>
<polygon fill="midnightblue" stroke="midnightblue" points="465.432,-402.946 476.017,-403.414 468.034,-396.448 465.432,-402.946"/>
</g>
<!-- Node4 -->
<g id="node4" class="node"><title>Node4</title>
<g id="a_node4"><a xlink:href="fonctions__auxiliaires_8cpp.html" target="_top" xlink:title="Ce fichier contient le code relatif aux fonctions auxiliaires utilisées par les fonctions principales...">
<polygon fill="white" stroke="black" points="0,-235.5 0,-254.5 148,-254.5 148,-235.5 0,-235.5"/>
<text text-anchor="middle" x="74" y="-242.5" font-family="Helvetica,sans-Serif" font-size="10.00">lhx/fonctions_auxiliaires.cpp</text>
</a>
</g>
</g>
<!-- Node1&#45;&gt;Node4 -->
<g id="edge23" class="edge"><title>Node1&#45;&gt;Node4</title>
<path fill="none" stroke="midnightblue" d="M437.162,-406.048C389.861,-400.047 323.687,-388.481 269,-367 192.607,-336.993 112.892,-276.928 84.6678,-254.61"/>
<polygon fill="midnightblue" stroke="midnightblue" points="436.907,-409.543 447.258,-407.281 437.756,-402.594 436.907,-409.543"/>
</g>
<!-- Node5 -->
<g id="node5" class="node"><title>Node5</title>
<g id="a_node5"><a xlink:href="ligne__paye_8h.html" target="_top" xlink:title="Définit deux fonctions auxiliaires utilisées dans lignes_paye.cpp. ">
<polygon fill="white" stroke="black" points="204.5,-235.5 204.5,-254.5 297.5,-254.5 297.5,-235.5 204.5,-235.5"/>
<text text-anchor="middle" x="251" y="-242.5" font-family="Helvetica,sans-Serif" font-size="10.00">lhx/ligne_paye.h</text>
</a>
</g>
</g>
<!-- Node1&#45;&gt;Node5 -->
<g id="edge25" class="edge"><title>Node1&#45;&gt;Node5</title>
<path fill="none" stroke="midnightblue" d="M437.087,-408.02C374.109,-400.248 279.743,-377.473 236,-311 224.413,-293.392 236.883,-267.968 245.06,-254.74"/>
<polygon fill="midnightblue" stroke="midnightblue" points="436.967,-411.529 447.299,-409.184 437.759,-404.574 436.967,-411.529"/>
</g>
<!-- Node11 -->
<g id="node11" class="node"><title>Node11</title>
<g id="a_node11"><a xlink:href="table_8cpp.html" target="_top" xlink:title="Ce fichier contient l&#39;ensemble du code permettant de générer les fichiers des bulletins de paye et li...">
<polygon fill="white" stroke="black" points="614.5,-235.5 614.5,-254.5 689.5,-254.5 689.5,-235.5 614.5,-235.5"/>
<text text-anchor="middle" x="652" y="-242.5" font-family="Helvetica,sans-Serif" font-size="10.00">lhx/table.cpp</text>
</a>
</g>
</g>
<!-- Node1&#45;&gt;Node11 -->
<g id="edge26" class="edge"><title>Node1&#45;&gt;Node11</title>
<path fill="none" stroke="midnightblue" d="M526.396,-398.401C556.903,-381.867 605.525,-351.126 633,-311 645.089,-293.345 649.592,-267.94 651.185,-254.728"/>
<polygon fill="midnightblue" stroke="midnightblue" points="524.39,-395.503 517.178,-403.264 527.656,-401.694 524.39,-395.503"/>
</g>
<!-- Node12 -->
<g id="node12" class="node"><title>Node12</title>
<g id="a_node12"><a xlink:href="table_8h.html" target="_top" xlink:title="lhx/table.h">
<polygon fill="white" stroke="black" points="560,-291.5 560,-310.5 624,-310.5 624,-291.5 560,-291.5"/>
<text text-anchor="middle" x="592" y="-298.5" font-family="Helvetica,sans-Serif" font-size="10.00">lhx/table.h</text>
</a>
</g>
</g>
<!-- Node1&#45;&gt;Node12 -->
<g id="edge24" class="edge"><title>Node1&#45;&gt;Node12</title>
<path fill="none" stroke="midnightblue" d="M512.878,-395.586C532.927,-371.871 569.283,-328.869 584.736,-310.591"/>
<polygon fill="midnightblue" stroke="midnightblue" points="510.081,-393.472 506.298,-403.368 515.427,-397.992 510.081,-393.472"/>
</g>
<!-- Node13 -->
<g id="node13" class="node"><title>Node13</title>
<g id="a_node13"><a xlink:href="fwidgets_8h.html" target="_top" xlink:title="fwidgets_lib/fwidgets.h">
<polygon fill="white" stroke="black" points="1276,-347.5 1276,-366.5 1398,-366.5 1398,-347.5 1276,-347.5"/>
<text text-anchor="middle" x="1337" y="-354.5" font-family="Helvetica,sans-Serif" font-size="10.00">fwidgets_lib/fwidgets.h</text>
</a>
</g>
</g>
<!-- Node1&#45;&gt;Node13 -->
<g id="edge27" class="edge"><title>Node1&#45;&gt;Node13</title>
<path fill="none" stroke="midnightblue" d="M561.108,-407.998C716.628,-397.976 1121.37,-371.895 1275.85,-361.94"/>
<polygon fill="midnightblue" stroke="midnightblue" points="560.542,-404.527 550.788,-408.663 560.993,-411.512 560.542,-404.527"/>
</g>
<!-- Node19 -->
<g id="node19" class="node"><title>Node19</title>
<g id="a_node19"><a xlink:href="altair_8cpp.html" target="_top" xlink:title="Code implémentant la classe principale Altair, qui joue le rôle d&#39;agent de l&#39;interface graphique...">
<polygon fill="white" stroke="black" points="737.5,-0.5 737.5,-19.5 858.5,-19.5 858.5,-0.5 737.5,-0.5"/>
<text text-anchor="middle" x="798" y="-7.5" font-family="Helvetica,sans-Serif" font-size="10.00">Interface/gui/altair.cpp</text>
</a>
</g>
</g>
<!-- Node1&#45;&gt;Node19 -->
<g id="edge72" class="edge"><title>Node1&#45;&gt;Node19</title>
<path fill="none" stroke="midnightblue" d="M561.13,-411.37C637.186,-406.931 756,-386.478 756,-302 756,-302 756,-302 756,-126.5 756,-84.2533 781.125,-38.2642 792.509,-19.594"/>
<polygon fill="midnightblue" stroke="midnightblue" points="560.51,-407.897 550.699,-411.895 560.862,-414.888 560.51,-407.897"/>
</g>
<!-- Node2&#45;&gt;Node3 -->
<g id="edge2" class="edge"><title>Node2&#45;&gt;Node3</title>
<path fill="none" stroke="midnightblue" d="M418.094,-343.638C392.76,-333.504 357.569,-319.427 335.291,-310.516"/>
<polygon fill="midnightblue" stroke="midnightblue" points="417.024,-346.979 427.609,-347.444 419.624,-340.48 417.024,-346.979"/>
</g>
<!-- Node6 -->
<g id="node6" class="node"><title>Node6</title>
<g id="a_node6"><a xlink:href="ligne__paye_8cpp.html" target="_top" xlink:title="Ce fichier contient le code relatif au traitement individuel des lignes de paye. ">
<polygon fill="white" stroke="black" points="141,-179.5 141,-198.5 245,-198.5 245,-179.5 141,-179.5"/>
<text text-anchor="middle" x="193" y="-186.5" font-family="Helvetica,sans-Serif" font-size="10.00">lhx/ligne_paye.cpp</text>
</a>
</g>
</g>
<!-- Node2&#45;&gt;Node6 -->
<g id="edge18" class="edge"><title>Node2&#45;&gt;Node6</title>
<path fill="none" stroke="midnightblue" d="M397.666,-355.294C351.922,-352.433 284.849,-342.553 236,-311 210.089,-294.263 205.035,-284.168 195,-255 188.388,-235.783 190.086,-211.455 191.676,-198.704"/>
<polygon fill="midnightblue" stroke="midnightblue" points="397.489,-358.79 407.662,-355.829 397.864,-351.8 397.489,-358.79"/>
</g>
<!-- Node7 -->
<g id="node7" class="node"><title>Node7</title>
<g id="a_node7"><a xlink:href="validator_8cpp.html" target="_top" xlink:title="Ce fichier contient le code relatif au décoidage de la partie &quot;bulletins de paye&quot; (variables communes...">
<polygon fill="white" stroke="black" points="279.5,-179.5 279.5,-198.5 372.5,-198.5 372.5,-179.5 279.5,-179.5"/>
<text text-anchor="middle" x="326" y="-186.5" font-family="Helvetica,sans-Serif" font-size="10.00">lhx/validator.cpp</text>
</a>
</g>
</g>
<!-- Node2&#45;&gt;Node7 -->
<g id="edge21" class="edge"><title>Node2&#45;&gt;Node7</title>
<path fill="none" stroke="midnightblue" d="M436.228,-338.763C410.167,-303.592 351.693,-224.676 332.349,-198.568"/>
<polygon fill="midnightblue" stroke="midnightblue" points="433.621,-341.124 442.387,-347.075 439.246,-336.957 433.621,-341.124"/>
</g>
<!-- Node8 -->
<g id="node8" class="node"><title>Node8</title>
<g id="a_node8"><a xlink:href="lhx_2main_8cpp.html" target="_top" xlink:title="Ce fichier contient le code relatif à l&#39;analyse de la ligne de commande, au découpage de la liste des...">
<polygon fill="white" stroke="black" points="510.5,-179.5 510.5,-198.5 585.5,-198.5 585.5,-179.5 510.5,-179.5"/>
<text text-anchor="middle" x="548" y="-186.5" font-family="Helvetica,sans-Serif" font-size="10.00">lhx/main.cpp</text>
</a>
</g>
</g>
<!-- Node2&#45;&gt;Node8 -->
<g id="edge19" class="edge"><title>Node2&#45;&gt;Node8</title>
<path fill="none" stroke="midnightblue" d="M461.195,-339.082C475.181,-319.358 498.441,-285.554 516,-255 527.281,-235.37 538.518,-211.21 544.196,-198.595"/>
<polygon fill="midnightblue" stroke="midnightblue" points="458.271,-337.153 455.307,-347.325 463.967,-341.222 458.271,-337.153"/>
</g>
<!-- Node9 -->
<g id="node9" class="node"><title>Node9</title>
<g id="a_node9"><a xlink:href="recherche_8h.html" target="_top" xlink:title="lhx/recherche.h">
<polygon fill="white" stroke="black" points="392.5,-235.5 392.5,-254.5 481.5,-254.5 481.5,-235.5 392.5,-235.5"/>
<text text-anchor="middle" x="437" y="-242.5" font-family="Helvetica,sans-Serif" font-size="10.00">lhx/recherche.h</text>
</a>
</g>
</g>
<!-- Node2&#45;&gt;Node9 -->
<g id="edge20" class="edge"><title>Node2&#45;&gt;Node9</title>
<path fill="none" stroke="midnightblue" d="M446.965,-337.348C444.337,-313.254 439.87,-272.308 437.937,-254.591"/>
<polygon fill="midnightblue" stroke="midnightblue" points="443.494,-337.807 448.058,-347.368 450.453,-337.048 443.494,-337.807"/>
</g>
<!-- Node2&#45;&gt;Node12 -->
<g id="edge13" class="edge"><title>Node2&#45;&gt;Node12</title>
<path fill="none" stroke="midnightblue" d="M481.027,-343.906C507.912,-333.754 545.641,-319.506 569.447,-310.516"/>
<polygon fill="midnightblue" stroke="midnightblue" points="479.778,-340.636 471.659,-347.444 482.25,-347.185 479.778,-340.636"/>
</g>
<!-- Node3&#45;&gt;Node4 -->
<g id="edge3" class="edge"><title>Node3&#45;&gt;Node4</title>
<path fill="none" stroke="midnightblue" d="M266.077,-289.217C220.726,-279.013 153.558,-263.901 111.851,-254.516"/>
<polygon fill="midnightblue" stroke="midnightblue" points="265.447,-292.663 275.971,-291.444 266.984,-285.834 265.447,-292.663"/>
</g>
<!-- Node3&#45;&gt;Node5 -->
<g id="edge4" class="edge"><title>Node3&#45;&gt;Node5</title>
<path fill="none" stroke="midnightblue" d="M295.96,-284.537C284.727,-274.909 270.681,-262.869 261.306,-254.834"/>
<polygon fill="midnightblue" stroke="midnightblue" points="294.008,-287.473 303.878,-291.324 298.563,-282.159 294.008,-287.473"/>
</g>
<!-- Node3&#45;&gt;Node7 -->
<g id="edge12" class="edge"><title>Node3&#45;&gt;Node7</title>
<path fill="none" stroke="midnightblue" d="M316.035,-281.348C318.663,-257.254 323.13,-216.308 325.063,-198.591"/>
<polygon fill="midnightblue" stroke="midnightblue" points="312.547,-281.048 314.942,-291.368 319.506,-281.807 312.547,-281.048"/>
</g>
<!-- Node3&#45;&gt;Node8 -->
<g id="edge7" class="edge"><title>Node3&#45;&gt;Node8</title>
<path fill="none" stroke="midnightblue" d="M393.027,-290.064C424.837,-283.526 460.82,-272.742 490,-255 514.037,-240.386 533.763,-212.695 542.753,-198.644"/>
<polygon fill="midnightblue" stroke="midnightblue" points="392.007,-286.696 382.859,-292.041 393.343,-293.567 392.007,-286.696"/>
</g>
<!-- Node3&#45;&gt;Node9 -->
<g id="edge8" class="edge"><title>Node3&#45;&gt;Node9</title>
<path fill="none" stroke="midnightblue" d="M342.773,-287.368C365.807,-277.255 397.484,-263.349 417.601,-254.516"/>
<polygon fill="midnightblue" stroke="midnightblue" points="341.239,-284.219 333.49,-291.444 344.053,-290.628 341.239,-284.219"/>
</g>
<!-- Node3&#45;&gt;Node11 -->
<g id="edge11" class="edge"><title>Node3&#45;&gt;Node11</title>
<path fill="none" stroke="midnightblue" d="M377.555,-289.846C447.355,-278.695 557.122,-261.158 614.392,-252.008"/>
<polygon fill="midnightblue" stroke="midnightblue" points="376.88,-286.41 367.557,-291.444 377.984,-293.322 376.88,-286.41"/>
</g>
<!-- Node5&#45;&gt;Node6 -->
<g id="edge5" class="edge"><title>Node5&#45;&gt;Node6</title>
<path fill="none" stroke="midnightblue" d="M234.087,-228.253C223.797,-218.673 211.034,-206.791 202.488,-198.834"/>
<polygon fill="midnightblue" stroke="midnightblue" points="231.977,-231.071 241.681,-235.324 236.747,-225.948 231.977,-231.071"/>
</g>
<!-- Node5&#45;&gt;Node7 -->
<g id="edge6" class="edge"><title>Node5&#45;&gt;Node7</title>
<path fill="none" stroke="midnightblue" d="M271.305,-229.38C284.861,-219.62 302.242,-207.106 313.731,-198.834"/>
<polygon fill="midnightblue" stroke="midnightblue" points="269.12,-226.641 263.05,-235.324 273.21,-232.321 269.12,-226.641"/>
</g>
<!-- Node9&#45;&gt;Node8 -->
<g id="edge9" class="edge"><title>Node9&#45;&gt;Node8</title>
<path fill="none" stroke="midnightblue" d="M464.005,-230.862C484.588,-220.849 512.345,-207.346 530.21,-198.655"/>
<polygon fill="midnightblue" stroke="midnightblue" points="462.295,-227.802 454.834,-235.324 465.358,-234.097 462.295,-227.802"/>
</g>
<!-- Node10 -->
<g id="node10" class="node"><title>Node10</title>
<g id="a_node10"><a xlink:href="recherche_8cpp.html" target="_top" xlink:title="Ce fichier contient le code permettant de rechercher en mémoire, après décodage des bases XML...">
<polygon fill="white" stroke="black" points="390.5,-179.5 390.5,-198.5 491.5,-198.5 491.5,-179.5 390.5,-179.5"/>
<text text-anchor="middle" x="441" y="-186.5" font-family="Helvetica,sans-Serif" font-size="10.00">lhx/recherche.cpp</text>
</a>
</g>
</g>
<!-- Node9&#45;&gt;Node10 -->
<g id="edge10" class="edge"><title>Node9&#45;&gt;Node10</title>
<path fill="none" stroke="midnightblue" d="M438.4,-225.101C439.064,-216.136 439.825,-205.858 440.352,-198.751"/>
<polygon fill="midnightblue" stroke="midnightblue" points="434.909,-224.852 437.661,-235.083 441.89,-225.369 434.909,-224.852"/>
</g>
<!-- Node12&#45;&gt;Node5 -->
<g id="edge14" class="edge"><title>Node12&#45;&gt;Node5</title>
<path fill="none" stroke="midnightblue" d="M549.761,-293.311C485.622,-283.154 364.107,-263.911 297.518,-253.366"/>
<polygon fill="midnightblue" stroke="midnightblue" points="549.495,-296.813 559.92,-294.92 550.59,-289.899 549.495,-296.813"/>
</g>
<!-- Node12&#45;&gt;Node7 -->
<g id="edge17" class="edge"><title>Node12&#45;&gt;Node7</title>
<path fill="none" stroke="midnightblue" d="M572.842,-285.299C553.049,-270.728 520.793,-248.662 490,-235 451.408,-217.878 404.758,-205.843 371.094,-198.555"/>
<polygon fill="midnightblue" stroke="midnightblue" points="570.905,-288.221 581.009,-291.409 575.098,-282.616 570.905,-288.221"/>
</g>
<!-- Node12&#45;&gt;Node8 -->
<g id="edge15" class="edge"><title>Node12&#45;&gt;Node8</title>
<path fill="none" stroke="midnightblue" d="M634.106,-291.159C671.949,-281.217 718.642,-262.743 698,-235 672.276,-200.426 620.905,-191.415 585.507,-189.565"/>
<polygon fill="midnightblue" stroke="midnightblue" points="633.084,-287.806 624.227,-293.62 634.776,-294.599 633.084,-287.806"/>
</g>
<!-- Node12&#45;&gt;Node11 -->
<g id="edge16" class="edge"><title>Node12&#45;&gt;Node11</title>
<path fill="none" stroke="midnightblue" d="M609.181,-284.537C619.879,-274.909 633.256,-262.869 642.185,-254.834"/>
<polygon fill="midnightblue" stroke="midnightblue" points="606.732,-282.033 601.64,-291.324 611.414,-287.236 606.732,-282.033"/>
</g>
<!-- Node14 -->
<g id="node14" class="node"><title>Node14</title>
<g id="a_node14"><a xlink:href="flineframe_8h.html" target="_top" xlink:title="Ce fichier contient la classe FLineFrame, dérivée fonctionnelle de FLineEdit. ">
<polygon fill="white" stroke="black" points="863.5,-291.5 863.5,-310.5 992.5,-310.5 992.5,-291.5 863.5,-291.5"/>
<text text-anchor="middle" x="928" y="-298.5" font-family="Helvetica,sans-Serif" font-size="10.00">fwidgets_lib/flineframe.h</text>
</a>
</g>
</g>
<!-- Node13&#45;&gt;Node14 -->
<g id="edge28" class="edge"><title>Node13&#45;&gt;Node14</title>
<path fill="none" stroke="midnightblue" d="M1265.67,-346.583C1188.65,-336.413 1067.03,-320.356 992.694,-310.541"/>
<polygon fill="midnightblue" stroke="midnightblue" points="1265.4,-350.077 1275.77,-347.916 1266.31,-343.137 1265.4,-350.077"/>
</g>
<!-- Node15 -->
<g id="node15" class="node"><title>Node15</title>
<g id="a_node15"><a xlink:href="flineframe_8cpp.html" target="_top" xlink:title="fwidgets_lib/flineframe.cpp">
<polygon fill="white" stroke="black" points="956,-235.5 956,-254.5 1096,-254.5 1096,-235.5 956,-235.5"/>
<text text-anchor="middle" x="1026" y="-242.5" font-family="Helvetica,sans-Serif" font-size="10.00">fwidgets_lib/flineframe.cpp</text>
</a>
</g>
</g>
<!-- Node13&#45;&gt;Node15 -->
<g id="edge65" class="edge"><title>Node13&#45;&gt;Node15</title>
<path fill="none" stroke="midnightblue" d="M1265.69,-350.378C1219.62,-344.722 1159.29,-333.436 1110,-311 1078.78,-296.792 1048.59,-268.917 1034.4,-254.735"/>
<polygon fill="midnightblue" stroke="midnightblue" points="1265.55,-353.885 1275.88,-351.568 1266.36,-346.933 1265.55,-353.885"/>
</g>
<!-- Node18 -->
<g id="node18" class="node"><title>Node18</title>
<g id="a_node18"><a xlink:href="altair_8h.html" target="_top" xlink:title="Code de la classe principale Altair, qui joue le rôle d&#39;agent de l&#39;interface graphique. ">
<polygon fill="white" stroke="black" points="1144,-56.5 1144,-75.5 1254,-75.5 1254,-56.5 1144,-56.5"/>
<text text-anchor="middle" x="1199" y="-63.5" font-family="Helvetica,sans-Serif" font-size="10.00">Interface/gui/altair.h</text>
</a>
</g>
</g>
<!-- Node13&#45;&gt;Node18 -->
<g id="edge69" class="edge"><title>Node13&#45;&gt;Node18</title>
<path fill="none" stroke="midnightblue" d="M1312.47,-342.058C1274.15,-318.519 1202.27,-266.762 1181,-199 1178.34,-190.519 1177.33,-187.098 1181,-179 1191,-156.909 1212,-165.091 1222,-143 1232.58,-119.641 1215.64,-90.1059 1205.59,-75.7001"/>
<polygon fill="midnightblue" stroke="midnightblue" points="1311.06,-345.293 1321.44,-347.427 1314.65,-339.287 1311.06,-345.293"/>
</g>
<!-- Node22 -->
<g id="node22" class="node"><title>Node22</title>
<g id="a_node22"><a xlink:href="run_8cpp.html" target="_top" xlink:title="Implémentation de la classe Altair agent de la classe MainWindow qui construit l&#39;interface graphique...">
<polygon fill="white" stroke="black" points="1413.5,-0.5 1413.5,-19.5 1526.5,-19.5 1526.5,-0.5 1413.5,-0.5"/>
<text text-anchor="middle" x="1470" y="-7.5" font-family="Helvetica,sans-Serif" font-size="10.00">Interface/gui/run.cpp</text>
</a>
</g>
</g>
<!-- Node13&#45;&gt;Node22 -->
<g id="edge71" class="edge"><title>Node13&#45;&gt;Node22</title>
<path fill="none" stroke="midnightblue" d="M1345.74,-337.986C1357.59,-313.973 1379.85,-270.392 1402,-235 1412.47,-218.27 1418.81,-216.467 1428,-199 1440.3,-175.61 1441.36,-168.58 1448,-143 1459.85,-97.3517 1466.74,-41.0972 1469.09,-19.7609"/>
<polygon fill="midnightblue" stroke="midnightblue" points="1342.44,-336.75 1341.19,-347.271 1348.73,-339.829 1342.44,-336.75"/>
</g>
<!-- Node27 -->
<g id="node27" class="node"><title>Node27</title>
<g id="a_node27"><a xlink:href="tools_8h.html" target="_top" xlink:title="fwidgets_lib/tools.h">
<polygon fill="white" stroke="black" points="1588.5,-291.5 1588.5,-310.5 1693.5,-310.5 1693.5,-291.5 1588.5,-291.5"/>
<text text-anchor="middle" x="1641" y="-298.5" font-family="Helvetica,sans-Serif" font-size="10.00">fwidgets_lib/tools.h</text>
</a>
</g>
</g>
<!-- Node13&#45;&gt;Node27 -->
<g id="edge47" class="edge"><title>Node13&#45;&gt;Node27</title>
<path fill="none" stroke="midnightblue" d="M1395.19,-345.664C1452.64,-335.459 1539.45,-320.039 1593.06,-310.516"/>
<polygon fill="midnightblue" stroke="midnightblue" points="1394.4,-342.248 1385.17,-347.444 1395.63,-349.141 1394.4,-342.248"/>
</g>
<!-- Node28 -->
<g id="node28" class="node"><title>Node28</title>
<g id="a_node28"><a xlink:href="flistframe_8h.html" target="_top" xlink:title="fwidgets_lib/flistframe.h">
<polygon fill="white" stroke="black" points="1411.5,-235.5 1411.5,-254.5 1536.5,-254.5 1536.5,-235.5 1411.5,-235.5"/>
<text text-anchor="middle" x="1474" y="-242.5" font-family="Helvetica,sans-Serif" font-size="10.00">fwidgets_lib/flistframe.h</text>
</a>
</g>
</g>
<!-- Node13&#45;&gt;Node28 -->
<g id="edge66" class="edge"><title>Node13&#45;&gt;Node28</title>
<path fill="none" stroke="midnightblue" d="M1354.54,-340.7C1369.99,-327.338 1393.21,-307.547 1414,-291 1430.3,-278.025 1449.66,-263.691 1461.89,-254.765"/>
<polygon fill="midnightblue" stroke="midnightblue" points="1352.07,-338.203 1346.82,-347.4 1356.66,-343.489 1352.07,-338.203"/>
</g>
<!-- Node30 -->
<g id="node30" class="node"><title>Node30</title>
<g id="a_node30"><a xlink:href="fwidgets_8cpp.html" target="_top" xlink:title="fwidgets_lib/fwidgets.cpp">
<polygon fill="white" stroke="black" points="1928.5,-179.5 1928.5,-198.5 2061.5,-198.5 2061.5,-179.5 1928.5,-179.5"/>
<text text-anchor="middle" x="1995" y="-186.5" font-family="Helvetica,sans-Serif" font-size="10.00">fwidgets_lib/fwidgets.cpp</text>
</a>
</g>
</g>
<!-- Node13&#45;&gt;Node30 -->
<g id="edge67" class="edge"><title>Node13&#45;&gt;Node30</title>
<path fill="none" stroke="midnightblue" d="M1408.39,-356.427C1563.48,-355.654 1923.24,-344.077 1997,-255 2010.25,-239 2003.42,-212.421 1998.53,-198.736"/>
<polygon fill="midnightblue" stroke="midnightblue" points="1408.01,-352.928 1398.02,-356.464 1408.04,-359.928 1408.01,-352.928"/>
</g>
<!-- Node34 -->
<g id="node34" class="node"><title>Node34</title>
<g id="a_node34"><a xlink:href="common_8h.html" target="_top" xlink:title="Code de la classe common, qui regroupe des utilitaires communs à l&#39;interface graphique MainWindow...">
<polygon fill="white" stroke="black" points="1229,-235.5 1229,-254.5 1355,-254.5 1355,-235.5 1229,-235.5"/>
<text text-anchor="middle" x="1292" y="-242.5" font-family="Helvetica,sans-Serif" font-size="10.00">Interface/gui/common.h</text>
</a>
</g>
</g>
<!-- Node13&#45;&gt;Node34 -->
<g id="edge68" class="edge"><title>Node13&#45;&gt;Node34</title>
<path fill="none" stroke="midnightblue" d="M1329.64,-337.998C1319.82,-313.997 1302.83,-272.468 1295.51,-254.591"/>
<polygon fill="midnightblue" stroke="midnightblue" points="1326.44,-339.438 1333.47,-347.368 1332.92,-336.788 1326.44,-339.438"/>
</g>
<!-- Node36 -->
<g id="node36" class="node"><title>Node36</title>
<g id="a_node36"><a xlink:href="highlighter_8cpp.html" target="_top" xlink:title="Implémentation de la classe Highlighter qui sert à coloriser le code XML des projets ...">
<polygon fill="white" stroke="black" points="1423.5,-291.5 1423.5,-310.5 1570.5,-310.5 1570.5,-291.5 1423.5,-291.5"/>
<text text-anchor="middle" x="1497" y="-298.5" font-family="Helvetica,sans-Serif" font-size="10.00">Interface/gui/highlighter.cpp</text>
</a>
</g>
</g>
<!-- Node13&#45;&gt;Node36 -->
<g id="edge70" class="edge"><title>Node13&#45;&gt;Node36</title>
<path fill="none" stroke="midnightblue" d="M1372.05,-344.172C1402.17,-334.004 1444.9,-319.585 1471.77,-310.516"/>
<polygon fill="midnightblue" stroke="midnightblue" points="1370.71,-340.929 1362.35,-347.444 1372.95,-347.562 1370.71,-340.929"/>
</g>
<!-- Node14&#45;&gt;Node15 -->
<g id="edge29" class="edge"><title>Node14&#45;&gt;Node15</title>
<path fill="none" stroke="midnightblue" d="M952.586,-286.453C970.678,-276.483 994.735,-263.228 1010.29,-254.655"/>
<polygon fill="midnightblue" stroke="midnightblue" points="950.815,-283.432 943.745,-291.324 954.193,-289.563 950.815,-283.432"/>
</g>
<!-- Node16 -->
<g id="node16" class="node"><title>Node16</title>
<g id="a_node16"><a xlink:href="options_8h.html" target="_top" xlink:title="Code des classes du dialogue d&#39;options. ">
<polygon fill="white" stroke="black" points="822.5,-179.5 822.5,-198.5 943.5,-198.5 943.5,-179.5 822.5,-179.5"/>
<text text-anchor="middle" x="883" y="-186.5" font-family="Helvetica,sans-Serif" font-size="10.00">Interface/gui/options.h</text>
</a>
</g>
</g>
<!-- Node14&#45;&gt;Node16 -->
<g id="edge30" class="edge"><title>Node14&#45;&gt;Node16</title>
<path fill="none" stroke="midnightblue" d="M920.636,-281.998C910.817,-257.997 893.828,-216.468 886.515,-198.591"/>
<polygon fill="midnightblue" stroke="midnightblue" points="917.443,-283.438 924.469,-291.368 923.922,-280.788 917.443,-283.438"/>
</g>
<!-- Node21 -->
<g id="node21" class="node"><title>Node21</title>
<g id="a_node21"><a xlink:href="options_8cpp.html" target="_top" xlink:title="Implémentation des classes du dialogue d&#39;options. ">
<polygon fill="white" stroke="black" points="877,-0.5 877,-19.5 1009,-19.5 1009,-0.5 877,-0.5"/>
<text text-anchor="middle" x="943" y="-7.5" font-family="Helvetica,sans-Serif" font-size="10.00">Interface/gui/options.cpp</text>
</a>
</g>
</g>
<!-- Node14&#45;&gt;Node21 -->
<g id="edge46" class="edge"><title>Node14&#45;&gt;Node21</title>
<path fill="none" stroke="midnightblue" d="M891.481,-287.905C851.803,-272.188 794,-240.606 794,-190 794,-190 794,-190 794,-126.5 794,-67.0953 868.896,-33.8675 912.488,-19.5589"/>
<polygon fill="midnightblue" stroke="midnightblue" points="890.292,-291.198 900.883,-291.471 892.774,-284.653 890.292,-291.198"/>
</g>
<!-- Node25 -->
<g id="node25" class="node"><title>Node25</title>
<g id="a_node25"><a xlink:href="matricules_8h.html" target="_top" xlink:title="Code de la classe MatriculeInput, qui construit un dialogue d&#39;extraction des bulletins. ">
<polygon fill="white" stroke="black" points="962,-179.5 962,-198.5 1096,-198.5 1096,-179.5 962,-179.5"/>
<text text-anchor="middle" x="1029" y="-186.5" font-family="Helvetica,sans-Serif" font-size="10.00">Interface/gui/matricules.h</text>
</a>
</g>
</g>
<!-- Node14&#45;&gt;Node25 -->
<g id="edge42" class="edge"><title>Node14&#45;&gt;Node25</title>
<path fill="none" stroke="midnightblue" d="M929.59,-281.488C931.635,-267.429 936.311,-248.309 947,-235 961.134,-217.401 984.094,-205.647 1002.13,-198.579"/>
<polygon fill="midnightblue" stroke="midnightblue" points="926.107,-281.137 928.449,-291.47 933.062,-281.932 926.107,-281.137"/>
</g>
<!-- Node17 -->
<g id="node17" class="node"><title>Node17</title>
<g id="a_node17"><a xlink:href="altair-gui_8h.html" target="_top" xlink:title="Code de la classe MainWindow qui construit l&#39;interface graphique. ">
<polygon fill="white" stroke="black" points="949.5,-112.5 949.5,-142.5 1050.5,-142.5 1050.5,-112.5 949.5,-112.5"/>
<text text-anchor="start" x="957.5" y="-130.5" font-family="Helvetica,sans-Serif" font-size="10.00">Interface/gui/altair</text>
<text text-anchor="middle" x="1000" y="-119.5" font-family="Helvetica,sans-Serif" font-size="10.00">&#45;gui.h</text>
</a>
</g>
</g>
<!-- Node16&#45;&gt;Node17 -->
<g id="edge31" class="edge"><title>Node16&#45;&gt;Node17</title>
<path fill="none" stroke="midnightblue" d="M908.684,-174.938C927.545,-165.347 953.134,-152.334 972.425,-142.523"/>
<polygon fill="midnightblue" stroke="midnightblue" points="907.09,-171.822 899.763,-179.475 910.263,-178.062 907.09,-171.822"/>
</g>
<!-- Node16&#45;&gt;Node19 -->
<g id="edge40" class="edge"><title>Node16&#45;&gt;Node19</title>
<path fill="none" stroke="midnightblue" d="M874.509,-170.318C856.613,-133.053 815.577,-47.6019 802.259,-19.8684"/>
<polygon fill="midnightblue" stroke="midnightblue" points="871.416,-171.964 878.9,-179.463 877.726,-168.933 871.416,-171.964"/>
</g>
<!-- Node16&#45;&gt;Node21 -->
<g id="edge41" class="edge"><title>Node16&#45;&gt;Node21</title>
<path fill="none" stroke="midnightblue" d="M883.548,-169.081C884.943,-142.646 889.847,-93.6698 907,-56 913.468,-41.7957 925.421,-28.1927 933.773,-19.7327"/>
<polygon fill="midnightblue" stroke="midnightblue" points="880.045,-169.091 883.131,-179.226 887.039,-169.379 880.045,-169.091"/>
</g>
<!-- Node17&#45;&gt;Node18 -->
<g id="edge32" class="edge"><title>Node17&#45;&gt;Node18</title>
<path fill="none" stroke="midnightblue" d="M1051.15,-109.36C1087.1,-98.2919 1134.1,-84.3665 1165.42,-75.5709"/>
<polygon fill="midnightblue" stroke="midnightblue" points="1049.84,-106.1 1041.32,-112.399 1051.91,-112.788 1049.84,-106.1"/>
</g>
<!-- Node24 -->
<g id="node24" class="node"><title>Node24</title>
<g id="a_node24"><a xlink:href="_interface_2gui_2main_8cpp.html" target="_top" xlink:title="Lance l&#39;interface graphique en chargeant le bon contexte linguistique et la feuille de style...">
<polygon fill="white" stroke="black" points="949,-56.5 949,-75.5 1069,-75.5 1069,-56.5 949,-56.5"/>
<text text-anchor="middle" x="1009" y="-63.5" font-family="Helvetica,sans-Serif" font-size="10.00">Interface/gui/main.cpp</text>
</a>
</g>
</g>
<!-- Node17&#45;&gt;Node24 -->
<g id="edge39" class="edge"><title>Node17&#45;&gt;Node24</title>
<path fill="none" stroke="midnightblue" d="M1003.66,-102.289C1005.09,-92.857 1006.63,-82.6548 1007.69,-75.6578"/>
<polygon fill="midnightblue" stroke="midnightblue" points="1000.17,-101.988 1002.13,-112.399 1007.09,-103.035 1000.17,-101.988"/>
</g>
<!-- Node18&#45;&gt;Node17 -->
<g id="edge33" class="edge"><title>Node18&#45;&gt;Node17</title>
<path fill="none" stroke="midnightblue" d="M1165.83,-78.5538C1134.37,-88.4407 1086.83,-102.681 1050.66,-113.073"/>
<polygon fill="midnightblue" stroke="midnightblue" points="1166.97,-81.8643 1175.44,-75.5071 1164.85,-75.1913 1166.97,-81.8643"/>
</g>
<!-- Node18&#45;&gt;Node19 -->
<g id="edge34" class="edge"><title>Node18&#45;&gt;Node19</title>
<path fill="none" stroke="midnightblue" d="M1133.71,-56.2082C1057.58,-45.9563 932.75,-29.1459 858.662,-19.1689"/>
<polygon fill="midnightblue" stroke="midnightblue" points="1133.29,-59.6822 1143.66,-57.5482 1134.22,-52.7449 1133.29,-59.6822"/>
</g>
<!-- Node20 -->
<g id="node20" class="node"><title>Node20</title>
<g id="a_node20"><a xlink:href="mainwindow_8cpp.html" target="_top" xlink:title="Code de l&#39;implémentation de la classe MainWindow de l&#39;interface graphique. ">
<polygon fill="white" stroke="black" points="1077.5,-0.5 1077.5,-19.5 1232.5,-19.5 1232.5,-0.5 1077.5,-0.5"/>
<text text-anchor="middle" x="1155" y="-7.5" font-family="Helvetica,sans-Serif" font-size="10.00">Interface/gui/mainwindow.cpp</text>
</a>
</g>
</g>
<!-- Node18&#45;&gt;Node20 -->
<g id="edge35" class="edge"><title>Node18&#45;&gt;Node20</title>
<path fill="none" stroke="midnightblue" d="M1185.27,-48.144C1177.6,-38.7357 1168.37,-27.4046 1162.13,-19.7511"/>
<polygon fill="midnightblue" stroke="midnightblue" points="1182.7,-50.5415 1191.73,-56.083 1188.13,-46.1198 1182.7,-50.5415"/>
</g>
<!-- Node18&#45;&gt;Node21 -->
<g id="edge36" class="edge"><title>Node18&#45;&gt;Node21</title>
<path fill="none" stroke="midnightblue" d="M1148.49,-54.3456C1100.11,-44.1405 1028.05,-28.94 983.374,-19.5164"/>
<polygon fill="midnightblue" stroke="midnightblue" points="1147.93,-57.8041 1158.44,-56.4435 1149.37,-50.9549 1147.93,-57.8041"/>
</g>
<!-- Node18&#45;&gt;Node22 -->
<g id="edge37" class="edge"><title>Node18&#45;&gt;Node22</title>
<path fill="none" stroke="midnightblue" d="M1251.83,-54.4734C1303.04,-44.2678 1379.77,-28.9794 1427.26,-19.5164"/>
<polygon fill="midnightblue" stroke="midnightblue" points="1251.06,-51.0567 1241.94,-56.4435 1252.43,-57.9218 1251.06,-51.0567"/>
</g>
<!-- Node23 -->
<g id="node23" class="node"><title>Node23</title>
<g id="a_node23"><a xlink:href="xmlparser_8cpp.html" target="_top" xlink:title="Implémentation de la classe Altair agent de la classe MainWindow qui construit l&#39;interface graphique...">
<polygon fill="white" stroke="black" points="1251,-0.5 1251,-19.5 1395,-19.5 1395,-0.5 1251,-0.5"/>
<text text-anchor="middle" x="1323" y="-7.5" font-family="Helvetica,sans-Serif" font-size="10.00">Interface/gui/xmlparser.cpp</text>
</a>
</g>
</g>
<!-- Node18&#45;&gt;Node23 -->
<g id="edge38" class="edge"><title>Node18&#45;&gt;Node23</title>
<path fill="none" stroke="midnightblue" d="M1228.01,-52.3678C1251.23,-42.2553 1283.16,-28.3486 1303.44,-19.5164"/>
<polygon fill="midnightblue" stroke="midnightblue" points="1226.42,-49.2419 1218.65,-56.4435 1229.21,-55.6597 1226.42,-49.2419"/>
</g>
<!-- Node25&#45;&gt;Node17 -->
<g id="edge43" class="edge"><title>Node25&#45;&gt;Node17</title>
<path fill="none" stroke="midnightblue" d="M1020.42,-170.392C1016.08,-161.498 1010.9,-150.855 1006.83,-142.523"/>
<polygon fill="midnightblue" stroke="midnightblue" points="1017.32,-172.019 1024.85,-179.475 1023.61,-168.952 1017.32,-172.019"/>
</g>
<!-- Node25&#45;&gt;Node20 -->
<g id="edge44" class="edge"><title>Node25&#45;&gt;Node20</title>
<path fill="none" stroke="midnightblue" d="M982.728,-175.728C966.311,-168.904 949.553,-158.535 940,-143 919.746,-110.063 915.619,-86.0117 940,-56 957.313,-34.6886 1023.18,-23.1142 1077.49,-17.0658"/>
<polygon fill="midnightblue" stroke="midnightblue" points="981.706,-179.084 992.298,-179.349 984.183,-172.537 981.706,-179.084"/>
</g>
<!-- Node26 -->
<g id="node26" class="node"><title>Node26</title>
<g id="a_node26"><a xlink:href="matricules_8cpp.html" target="_top" xlink:title="Implémentation de la classe MatriculeInput, qui construit un dialogue d&#39;extraction des bulletins...">
<polygon fill="white" stroke="black" points="1068.5,-118 1068.5,-137 1213.5,-137 1213.5,-118 1068.5,-118"/>
<text text-anchor="middle" x="1141" y="-125" font-family="Helvetica,sans-Serif" font-size="10.00">Interface/gui/matricules.cpp</text>
</a>
</g>
</g>
<!-- Node25&#45;&gt;Node26 -->
<g id="edge45" class="edge"><title>Node25&#45;&gt;Node26</title>
<path fill="none" stroke="midnightblue" d="M1054.01,-174.712C1075.7,-163.188 1106.45,-146.855 1124.98,-137.009"/>
<polygon fill="midnightblue" stroke="midnightblue" points="1052.24,-171.693 1045.05,-179.475 1055.52,-177.874 1052.24,-171.693"/>
</g>
<!-- Node27&#45;&gt;Node15 -->
<g id="edge48" class="edge"><title>Node27&#45;&gt;Node15</title>
<path fill="none" stroke="midnightblue" d="M1578.1,-290.969C1398.45,-270.894 1199.66,-256.933 1096.41,-250.304"/>
<polygon fill="midnightblue" stroke="midnightblue" points="1577.94,-294.473 1588.26,-292.114 1578.72,-287.517 1577.94,-294.473"/>
</g>
<!-- Node27&#45;&gt;Node28 -->
<g id="edge49" class="edge"><title>Node27&#45;&gt;Node28</title>
<path fill="none" stroke="midnightblue" d="M1604.83,-288.304C1573.36,-278.129 1528.51,-263.625 1500.34,-254.516"/>
<polygon fill="midnightblue" stroke="midnightblue" points="1603.95,-291.697 1614.54,-291.444 1606.1,-285.037 1603.95,-291.697"/>
</g>
<!-- Node27&#45;&gt;Node30 -->
<g id="edge54" class="edge"><title>Node27&#45;&gt;Node30</title>
<path fill="none" stroke="midnightblue" d="M1703.95,-299.502C1789.49,-297.524 1936.34,-289.091 1976,-255 1992.58,-240.746 1995.1,-212.892 1995.24,-198.725"/>
<polygon fill="midnightblue" stroke="midnightblue" points="1703.76,-296.006 1693.83,-299.713 1703.91,-303.004 1703.76,-296.006"/>
</g>
<!-- Node31 -->
<g id="node31" class="node"><title>Node31</title>
<g id="a_node31"><a xlink:href="fstring_8cpp.html" target="_top" xlink:title="fwidgets_lib/fstring.cpp">
<polygon fill="white" stroke="black" points="1554.5,-235.5 1554.5,-254.5 1677.5,-254.5 1677.5,-235.5 1554.5,-235.5"/>
<text text-anchor="middle" x="1616" y="-242.5" font-family="Helvetica,sans-Serif" font-size="10.00">fwidgets_lib/fstring.cpp</text>
</a>
</g>
</g>
<!-- Node27&#45;&gt;Node31 -->
<g id="edge53" class="edge"><title>Node27&#45;&gt;Node31</title>
<path fill="none" stroke="midnightblue" d="M1632.66,-281.983C1628.42,-272.817 1623.45,-262.092 1620.05,-254.751"/>
<polygon fill="midnightblue" stroke="midnightblue" points="1629.49,-283.479 1636.87,-291.083 1635.85,-280.538 1629.49,-283.479"/>
</g>
<!-- Node32 -->
<g id="node32" class="node"><title>Node32</title>
<g id="a_node32"><a xlink:href="gui__options_8h.html" target="_top" xlink:title="fwidgets_lib/gui_options.h">
<polygon fill="white" stroke="black" points="1695.5,-235.5 1695.5,-254.5 1832.5,-254.5 1832.5,-235.5 1695.5,-235.5"/>
<text text-anchor="middle" x="1764" y="-242.5" font-family="Helvetica,sans-Serif" font-size="10.00">fwidgets_lib/gui_options.h</text>
</a>
</g>
</g>
<!-- Node27&#45;&gt;Node32 -->
<g id="edge55" class="edge"><title>Node27&#45;&gt;Node32</title>
<path fill="none" stroke="midnightblue" d="M1669.77,-287.368C1692.81,-277.255 1724.48,-263.349 1744.6,-254.516"/>
<polygon fill="midnightblue" stroke="midnightblue" points="1668.24,-284.219 1660.49,-291.444 1671.05,-290.628 1668.24,-284.219"/>
</g>
<!-- Node33 -->
<g id="node33" class="node"><title>Node33</title>
<g id="a_node33"><a xlink:href="tools_8cpp.html" target="_top" xlink:title="fwidgets_lib/tools.cpp">
<polygon fill="white" stroke="black" points="1851,-235.5 1851,-254.5 1967,-254.5 1967,-235.5 1851,-235.5"/>
<text text-anchor="middle" x="1909" y="-242.5" font-family="Helvetica,sans-Serif" font-size="10.00">fwidgets_lib/tools.cpp</text>
</a>
</g>
</g>
<!-- Node27&#45;&gt;Node33 -->
<g id="edge56" class="edge"><title>Node27&#45;&gt;Node33</title>
<path fill="none" stroke="midnightblue" d="M1693.56,-289.41C1744.21,-279.204 1819.87,-263.96 1866.73,-254.516"/>
<polygon fill="midnightblue" stroke="midnightblue" points="1692.58,-286.037 1683.47,-291.444 1693.96,-292.899 1692.58,-286.037"/>
</g>
<!-- Node27&#45;&gt;Node34 -->
<g id="edge57" class="edge"><title>Node27&#45;&gt;Node34</title>
<path fill="none" stroke="midnightblue" d="M1578.13,-290.272C1512.27,-280.082 1409.85,-264.235 1347.07,-254.522"/>
<polygon fill="midnightblue" stroke="midnightblue" points="1577.96,-293.787 1588.37,-291.857 1579.03,-286.869 1577.96,-293.787"/>
</g>
<!-- Node28&#45;&gt;Node18 -->
<g id="edge52" class="edge"><title>Node28&#45;&gt;Node18</title>
<path fill="none" stroke="midnightblue" d="M1457.61,-228.19C1429.24,-201.463 1368.29,-146.862 1309,-112 1282.14,-96.2082 1248.7,-83.3896 1225.78,-75.531"/>
<polygon fill="midnightblue" stroke="midnightblue" points="1455.37,-230.889 1465.03,-235.244 1460.2,-225.817 1455.37,-230.889"/>
</g>
<!-- Node29 -->
<g id="node29" class="node"><title>Node29</title>
<g id="a_node29"><a xlink:href="flistframe_8cpp.html" target="_top" xlink:title="fwidgets_lib/flistframe.cpp">
<polygon fill="white" stroke="black" points="1536.5,-179.5 1536.5,-198.5 1673.5,-198.5 1673.5,-179.5 1536.5,-179.5"/>
<text text-anchor="middle" x="1605" y="-186.5" font-family="Helvetica,sans-Serif" font-size="10.00">fwidgets_lib/flistframe.cpp</text>
</a>
</g>
</g>
<!-- Node28&#45;&gt;Node29 -->
<g id="edge50" class="edge"><title>Node28&#45;&gt;Node29</title>
<path fill="none" stroke="midnightblue" d="M1504.32,-231.503C1528.88,-221.38 1562.82,-207.388 1584.34,-198.516"/>
<polygon fill="midnightblue" stroke="midnightblue" points="1502.67,-228.397 1494.76,-235.444 1505.34,-234.868 1502.67,-228.397"/>
</g>
<!-- Node28&#45;&gt;Node30 -->
<g id="edge51" class="edge"><title>Node28&#45;&gt;Node30</title>
<path fill="none" stroke="midnightblue" d="M1546.87,-234.811C1688.37,-218.877 1842.37,-204.117 1928.23,-196.121"/>
<polygon fill="midnightblue" stroke="midnightblue" points="1546.25,-231.358 1536.71,-235.96 1547.04,-238.314 1546.25,-231.358"/>
</g>
<!-- Node34&#45;&gt;Node16 -->
<g id="edge58" class="edge"><title>Node34&#45;&gt;Node16</title>
<path fill="none" stroke="midnightblue" d="M1218.69,-234.322C1140.19,-223.956 1017.04,-207.697 943.744,-198.02"/>
<polygon fill="midnightblue" stroke="midnightblue" points="1218.62,-237.842 1228.99,-235.681 1219.53,-230.902 1218.62,-237.842"/>
</g>
<!-- Node34&#45;&gt;Node17 -->
<g id="edge59" class="edge"><title>Node34&#45;&gt;Node17</title>
<path fill="none" stroke="midnightblue" d="M1260.51,-231.546C1205.68,-209.857 1093.03,-165.3 1035.51,-142.545"/>
<polygon fill="midnightblue" stroke="midnightblue" points="1259.47,-234.895 1270.05,-235.319 1262.04,-228.386 1259.47,-234.895"/>
</g>
<!-- Node34&#45;&gt;Node18 -->
<g id="edge60" class="edge"><title>Node34&#45;&gt;Node18</title>
<path fill="none" stroke="midnightblue" d="M1313.03,-229.156C1328.2,-216.487 1344.61,-197.44 1336,-179 1311.63,-126.806 1249.47,-90.9865 1217.94,-75.5545"/>
<polygon fill="midnightblue" stroke="midnightblue" points="1310.64,-226.586 1304.9,-235.494 1314.94,-232.107 1310.64,-226.586"/>
</g>
<!-- Node34&#45;&gt;Node20 -->
<g id="edge63" class="edge"><title>Node34&#45;&gt;Node20</title>
<path fill="none" stroke="midnightblue" d="M1320.29,-230.379C1332.39,-222.933 1345.27,-212.457 1352,-199 1355.98,-191.05 1354.5,-187.53 1352,-179 1333.01,-114.251 1317.16,-96.2403 1263,-56 1239.85,-38.7988 1209.15,-26.8346 1186.4,-19.5901"/>
<polygon fill="midnightblue" stroke="midnightblue" points="1318.27,-227.502 1311.3,-235.48 1321.72,-233.59 1318.27,-227.502"/>
</g>
<!-- Node34&#45;&gt;Node23 -->
<g id="edge64" class="edge"><title>Node34&#45;&gt;Node23</title>
<path fill="none" stroke="midnightblue" d="M1360.28,-232.348C1378.81,-225.718 1396.83,-215.316 1408,-199 1443.91,-146.559 1440.78,-110.448 1408,-56 1396.89,-37.5469 1375.39,-26.2646 1356.8,-19.6119"/>
<polygon fill="midnightblue" stroke="midnightblue" points="1359.01,-229.079 1350.57,-235.483 1361.16,-235.74 1359.01,-229.079"/>
</g>
<!-- Node34&#45;&gt;Node25 -->
<g id="edge61" class="edge"><title>Node34&#45;&gt;Node25</title>
<path fill="none" stroke="midnightblue" d="M1240.42,-233.41C1190.72,-223.204 1116.47,-207.96 1070.48,-198.516"/>
<polygon fill="midnightblue" stroke="midnightblue" points="1239.83,-236.861 1250.33,-235.444 1241.24,-230.004 1239.83,-236.861"/>
</g>
<!-- Node35 -->
<g id="node35" class="node"><title>Node35</title>
<g id="a_node35"><a xlink:href="common_8cpp.html" target="_top" xlink:title="Interface/gui/common.cpp">
<polygon fill="white" stroke="black" points="1190.5,-179.5 1190.5,-198.5 1327.5,-198.5 1327.5,-179.5 1190.5,-179.5"/>
<text text-anchor="middle" x="1259" y="-186.5" font-family="Helvetica,sans-Serif" font-size="10.00">Interface/gui/common.cpp</text>
</a>
</g>
</g>
<!-- Node34&#45;&gt;Node35 -->
<g id="edge62" class="edge"><title>Node34&#45;&gt;Node35</title>
<path fill="none" stroke="midnightblue" d="M1281.17,-226.275C1275.53,-217.045 1268.88,-206.17 1264.35,-198.751"/>
<polygon fill="midnightblue" stroke="midnightblue" points="1278.35,-228.375 1286.55,-235.083 1284.32,-224.725 1278.35,-228.375"/>
</g>
</g>
</svg>
