<?xml version="1.0" encoding="UTF-8" standalone="no"?>
<!DOCTYPE svg PUBLIC "-//W3C//DTD SVG 1.1//EN"
 "http://www.w3.org/Graphics/SVG/1.1/DTD/svg11.dtd">
<!-- Generated by graphviz version 2.40.1 (20161225.0304)
 -->
<!-- Title: fwidgets_lib/tools.h Pages: 1 -->
<!--zoomable 263 -->
<svg id="main" version="1.1" xmlns="http://www.w3.org/2000/svg" xmlns:xlink="http://www.w3.org/1999/xlink" xml:space="preserve" onload="init(evt)">
<style type="text/css"><![CDATA[
.edge:hover path { stroke: red; }
.edge:hover polygon { stroke: red; fill: red; }
]]></style>
<script type="text/javascript"><![CDATA[
var edges = document.getElementsByTagName('g');
if (edges && edges.length) {
  for (var i=0;i<edges.length;i++) {
    if (edges[i].id.substr(0,4)=='edge') {
      edges[i].setAttribute('class','edge');
    }
  }
}
]]></script>
        <defs>
                <circle id="rim" cx="0" cy="0" r="7"/>
                <circle id="rim2" cx="0" cy="0" r="3.5"/>
                <g id="zoomPlus">
                        <use xlink:href="#rim" fill="#404040">
                                <set attributeName="fill" to="#808080" begin="zoomplus.mouseover" end="zoomplus.mouseout"/>
                        </use>
                        <path d="M-4,0h8M0,-4v8" fill="none" stroke="white" stroke-width="1.5" pointer-events="none"/>
                </g>
                <g id="zoomMin">
                        <use xlink:href="#rim" fill="#404040">
                                <set attributeName="fill" to="#808080" begin="zoomminus.mouseover" end="zoomminus.mouseout"/>
                        </use>
                        <path d="M-4,0h8" fill="none" stroke="white" stroke-width="1.5" pointer-events="none"/>
                </g>
                <g id="dirArrow">
                        <path fill="none" stroke="white" stroke-width="1.5" d="M0,-3.0v7 M-2.5,-0.5L0,-3.0L2.5,-0.5"/>
                </g>
               <g id="resetDef">
                       <use xlink:href="#rim2" fill="#404040">
                               <set attributeName="fill" to="#808080" begin="reset.mouseover" end="reset.mouseout"/>
                       </use>
               </g>
        </defs>

<script type="text/javascript">
var viewWidth = 1140;
var viewHeight = 263;
var sectionId = 'dynsection-1';
</script>
<script xlink:href="svgpan.js"/>
<svg id="graph" class="graph">
<g id="viewport">
<title>fwidgets_lib/tools.h</title>
<polygon fill="#ffffff" stroke="transparent" points="-4,4 -4,-259 1136,-259 1136,4 -4,4"/>
<!-- Node7 -->
<g id="node1" class="node">
<title>Node7</title>
<polygon fill="#bfbfbf" stroke="#000000" points="570,-235.5 570,-254.5 671,-254.5 671,-235.5 570,-235.5"/>
<text text-anchor="middle" x="620.5" y="-242.5" font-family="Helvetica,sans-Serif" font-size="10.00" fill="#000000">fwidgets_lib/tools.h</text>
</g>
<!-- Node8 -->
<g id="node2" class="node">
<title>Node8</title>
<g id="a_node2"><a xlink:href="flineframe_8cpp.html" target="_top" xlink:title="fwidgets_lib/flineframe.cpp">
<polygon fill="#ffffff" stroke="#000000" points="209,-179.5 209,-198.5 342,-198.5 342,-179.5 209,-179.5"/>
<text text-anchor="middle" x="275.5" y="-186.5" font-family="Helvetica,sans-Serif" font-size="10.00" fill="#000000">fwidgets_lib/flineframe.cpp</text>
</a>
</g>
</g>
<!-- Node7&#45;&gt;Node8 -->
<g id="edge1" class="edge">
<title>Node7&#45;&gt;Node8</title>
<path fill="none" stroke="#191970" d="M560.0833,-235.1932C496.5314,-224.8776 397.186,-208.7519 334.2635,-198.5384"/>
<polygon fill="#191970" stroke="#191970" points="559.5329,-238.6496 569.9646,-236.7971 560.6546,-231.7401 559.5329,-238.6496"/>
</g>
<!-- Node9 -->
<g id="node3" class="node">
<title>Node9</title>
<g id="a_node3"><a xlink:href="flistframe_8h.html" target="_top" xlink:title="fwidgets_lib/flistframe.h">
<polygon fill="#ffffff" stroke="#000000" points="398.5,-179.5 398.5,-198.5 518.5,-198.5 518.5,-179.5 398.5,-179.5"/>
<text text-anchor="middle" x="458.5" y="-186.5" font-family="Helvetica,sans-Serif" font-size="10.00" fill="#000000">fwidgets_lib/flistframe.h</text>
</a>
</g>
</g>
<!-- Node7&#45;&gt;Node9 -->
<g id="edge2" class="edge">
<title>Node7&#45;&gt;Node9</title>
<path fill="none" stroke="#191970" d="M583.0578,-232.057C553.4099,-221.8084 512.6804,-207.729 485.9854,-198.5011"/>
<polygon fill="#191970" stroke="#191970" points="582.0564,-235.414 592.6512,-235.3733 584.3435,-228.7982 582.0564,-235.414"/>
</g>
<!-- Node11 -->
<g id="node5" class="node">
<title>Node11</title>
<g id="a_node5"><a xlink:href="fwidgets_8cpp.html" target="_top" xlink:title="fwidgets_lib/fwidgets.cpp">
<polygon fill="#ffffff" stroke="#000000" points="0,-123.5 0,-142.5 127,-142.5 127,-123.5 0,-123.5"/>
<text text-anchor="middle" x="63.5" y="-130.5" font-family="Helvetica,sans-Serif" font-size="10.00" fill="#000000">fwidgets_lib/fwidgets.cpp</text>
</a>
</g>
</g>
<!-- Node7&#45;&gt;Node11 -->
<g id="edge16" class="edge">
<title>Node7&#45;&gt;Node11</title>
<path fill="none" stroke="#191970" d="M559.7833,-237.604C512.4737,-230.7286 445.6224,-218.5504 389.5,-199 371.1045,-192.5919 369.0128,-185.0608 350.5,-179 329.6984,-172.1898 205.2667,-153.4817 127.227,-142.1311"/>
<polygon fill="#191970" stroke="#191970" points="559.4778,-241.0956 569.8698,-239.0326 560.4595,-234.1648 559.4778,-241.0956"/>
</g>
<!-- Node21 -->
<g id="node15" class="node">
<title>Node21</title>
<g id="a_node15"><a xlink:href="fstring_8cpp.html" target="_top" xlink:title="fwidgets_lib/fstring.cpp">
<polygon fill="#ffffff" stroke="#000000" points="698,-179.5 698,-198.5 815,-198.5 815,-179.5 698,-179.5"/>
<text text-anchor="middle" x="756.5" y="-186.5" font-family="Helvetica,sans-Serif" font-size="10.00" fill="#000000">fwidgets_lib/fstring.cpp</text>
</a>
</g>
</g>
<!-- Node7&#45;&gt;Node21 -->
<g id="edge15" class="edge">
<title>Node7&#45;&gt;Node21</title>
<path fill="none" stroke="#191970" d="M653.2399,-231.5189C678.0083,-221.3201 711.405,-207.5685 733.4258,-198.5011"/>
<polygon fill="#191970" stroke="#191970" points="651.7934,-228.3293 643.8792,-235.3733 654.4587,-234.8021 651.7934,-228.3293"/>
</g>
<!-- Node22 -->
<g id="node16" class="node">
<title>Node22</title>
<g id="a_node16"><a xlink:href="gui__options_8h.html" target="_top" xlink:title="fwidgets_lib/gui_options.h">
<polygon fill="#ffffff" stroke="#000000" points="833,-179.5 833,-198.5 962,-198.5 962,-179.5 833,-179.5"/>
<text text-anchor="middle" x="897.5" y="-186.5" font-family="Helvetica,sans-Serif" font-size="10.00" fill="#000000">fwidgets_lib/gui_options.h</text>
</a>
</g>
</g>
<!-- Node7&#45;&gt;Node22 -->
<g id="edge17" class="edge">
<title>Node7&#45;&gt;Node22</title>
<path fill="none" stroke="#191970" d="M677.6976,-233.4366C728.7639,-223.1127 802.6582,-208.1738 850.3918,-198.5237"/>
<polygon fill="#191970" stroke="#191970" points="676.9114,-230.0246 667.8033,-235.4369 678.2985,-236.8858 676.9114,-230.0246"/>
</g>
<!-- Node23 -->
<g id="node17" class="node">
<title>Node23</title>
<g id="a_node17"><a xlink:href="tools_8cpp.html" target="_top" xlink:title="fwidgets_lib/tools.cpp">
<polygon fill="#ffffff" stroke="#000000" points="980,-179.5 980,-198.5 1091,-198.5 1091,-179.5 980,-179.5"/>
<text text-anchor="middle" x="1035.5" y="-186.5" font-family="Helvetica,sans-Serif" font-size="10.00" fill="#000000">fwidgets_lib/tools.cpp</text>
</a>
</g>
</g>
<!-- Node7&#45;&gt;Node23 -->
<g id="edge18" class="edge">
<title>Node7&#45;&gt;Node23</title>
<path fill="none" stroke="#191970" d="M681.0922,-237.5203C751.1042,-228.7708 869.7404,-213.6157 971.5,-199 974.1716,-198.6163 976.9048,-198.2166 979.6645,-197.8074"/>
<polygon fill="#191970" stroke="#191970" points="680.6129,-234.0529 671.1231,-238.7639 681.4795,-240.999 680.6129,-234.0529"/>
</g>
<!-- Node24 -->
<g id="node18" class="node">
<title>Node24</title>
<g id="a_node18"><a xlink:href="common_8h.html" target="_top" xlink:title="Code de la classe common, qui regroupe des utilitaires communs à l&#39;interface graphique MainWindow...">
<polygon fill="#ffffff" stroke="#000000" points="561,-179.5 561,-198.5 680,-198.5 680,-179.5 561,-179.5"/>
<text text-anchor="middle" x="620.5" y="-186.5" font-family="Helvetica,sans-Serif" font-size="10.00" fill="#000000">Interface/gui/common.h</text>
</a>
</g>
</g>
<!-- Node7&#45;&gt;Node24 -->
<g id="edge19" class="edge">
<title>Node7&#45;&gt;Node24</title>
<path fill="none" stroke="#191970" d="M620.5,-225.1575C620.5,-216.155 620.5,-205.9199 620.5,-198.6427"/>
<polygon fill="#191970" stroke="#191970" points="617.0001,-225.2455 620.5,-235.2455 624.0001,-225.2456 617.0001,-225.2455"/>
</g>
<!-- Node10 -->
<g id="node4" class="node">
<title>Node10</title>
<g id="a_node4"><a xlink:href="flistframe_8cpp.html" target="_top" xlink:title="fwidgets_lib/flistframe.cpp">
<polygon fill="#ffffff" stroke="#000000" points="145,-123.5 145,-142.5 276,-142.5 276,-123.5 145,-123.5"/>
<text text-anchor="middle" x="210.5" y="-130.5" font-family="Helvetica,sans-Serif" font-size="10.00" fill="#000000">fwidgets_lib/flistframe.cpp</text>
</a>
</g>
</g>
<!-- Node9&#45;&gt;Node10 -->
<g id="edge3" class="edge">
<title>Node9&#45;&gt;Node10</title>
<path fill="none" stroke="#191970" d="M406.1433,-177.1775C360.4696,-166.8641 295.0564,-152.0934 252.6763,-142.5237"/>
<polygon fill="#191970" stroke="#191970" points="405.6237,-180.6482 416.1491,-179.4369 407.1656,-173.8202 405.6237,-180.6482"/>
</g>
<!-- Node9&#45;&gt;Node11 -->
<g id="edge4" class="edge">
<title>Node9&#45;&gt;Node11</title>
<path fill="none" stroke="#191970" d="M387.9129,-178.9927C313.8683,-168.4953 198.537,-152.1445 127.1889,-142.0293"/>
<polygon fill="#191970" stroke="#191970" points="387.6857,-182.4954 398.078,-180.4338 388.6683,-175.5647 387.6857,-182.4954"/>
</g>
<!-- Node12 -->
<g id="node6" class="node">
<title>Node12</title>
<g id="a_node6"><a xlink:href="moc__flistframe_8cpp.html" target="_top" xlink:title="fwidgets_lib/moc_flistframe.cpp">
<polygon fill="#ffffff" stroke="#000000" points="294,-123.5 294,-142.5 449,-142.5 449,-123.5 294,-123.5"/>
<text text-anchor="middle" x="371.5" y="-130.5" font-family="Helvetica,sans-Serif" font-size="10.00" fill="#000000">fwidgets_lib/moc_flistframe.cpp</text>
</a>
</g>
</g>
<!-- Node9&#45;&gt;Node12 -->
<g id="edge5" class="edge">
<title>Node9&#45;&gt;Node12</title>
<path fill="none" stroke="#191970" d="M434.8375,-173.769C419.4209,-163.8456 399.774,-151.1994 386.4806,-142.6427"/>
<polygon fill="#191970" stroke="#191970" points="433.0427,-176.7761 443.3458,-179.2455 436.8315,-170.89 433.0427,-176.7761"/>
</g>
<!-- Node13 -->
<g id="node7" class="node">
<title>Node13</title>
<g id="a_node7"><a xlink:href="altair_8h.html" target="_top" xlink:title="Code de la classe principale Altair, qui joue le rôle d&#39;agent de l&#39;interface graphique. ">
<polygon fill="#ffffff" stroke="#000000" points="506,-123.5 506,-142.5 609,-142.5 609,-123.5 506,-123.5"/>
<text text-anchor="middle" x="557.5" y="-130.5" font-family="Helvetica,sans-Serif" font-size="10.00" fill="#000000">Interface/gui/altair.h</text>
</a>
</g>
</g>
<!-- Node9&#45;&gt;Node13 -->
<g id="edge6" class="edge">
<title>Node9&#45;&gt;Node13</title>
<path fill="none" stroke="#191970" d="M484.9357,-174.0465C502.5508,-164.0824 525.1847,-151.2794 540.4531,-142.6427"/>
<polygon fill="#191970" stroke="#191970" points="482.7253,-171.2756 475.7445,-179.2455 486.1717,-177.3684 482.7253,-171.2756"/>
</g>
<!-- Node14 -->
<g id="node8" class="node">
<title>Node14</title>
<g id="a_node8"><a xlink:href="altair-gui_8h.html" target="_top" xlink:title="Code de la classe MainWindow qui construit l&#39;interface graphique. ">
<polygon fill="#ffffff" stroke="#000000" points="717,-56.5 717,-86.5 812,-86.5 812,-56.5 717,-56.5"/>
<text text-anchor="start" x="725" y="-74.5" font-family="Helvetica,sans-Serif" font-size="10.00" fill="#000000">Interface/gui/altair</text>
<text text-anchor="middle" x="764.5" y="-63.5" font-family="Helvetica,sans-Serif" font-size="10.00" fill="#000000">&#45;gui.h</text>
</a>
</g>
</g>
<!-- Node13&#45;&gt;Node14 -->
<g id="edge7" class="edge">
<title>Node13&#45;&gt;Node14</title>
<path fill="none" stroke="#191970" d="M594.394,-120.3826C628.6033,-109.7518 679.5306,-94.6227 716.8012,-84.0196"/>
<polygon fill="#191970" stroke="#191970" points="593.2797,-117.0639 584.7813,-123.3906 595.3702,-123.7444 593.2797,-117.0639"/>
</g>
<!-- Node16 -->
<g id="node10" class="node">
<title>Node16</title>
<g id="a_node10"><a xlink:href="altair_8cpp.html" target="_top" xlink:title="Code implémentant la classe principale Altair, qui joue le rôle d&#39;agent de l&#39;interface graphique...">
<polygon fill="#ffffff" stroke="#000000" points="586,-62 586,-81 699,-81 699,-62 586,-62"/>
<text text-anchor="middle" x="642.5" y="-69" font-family="Helvetica,sans-Serif" font-size="10.00" fill="#000000">Interface/gui/altair.cpp</text>
</a>
</g>
</g>
<!-- Node13&#45;&gt;Node16 -->
<g id="edge10" class="edge">
<title>Node13&#45;&gt;Node16</title>
<path fill="none" stroke="#191970" d="M578.9662,-117.4685C594.8119,-106.0037 615.8736,-90.765 629.312,-81.0419"/>
<polygon fill="#191970" stroke="#191970" points="576.8314,-114.6931 570.7813,-123.3906 580.9347,-120.3643 576.8314,-114.6931"/>
</g>
<!-- Node17 -->
<g id="node11" class="node">
<title>Node17</title>
<g id="a_node11"><a xlink:href="mainwindow_8cpp.html" target="_top" xlink:title="Code de l&#39;implémentation de la classe MainWindow de l&#39;interface graphique. ">
<polygon fill="#ffffff" stroke="#000000" points="830.5,-62 830.5,-81 976.5,-81 976.5,-62 830.5,-62"/>
<text text-anchor="middle" x="903.5" y="-69" font-family="Helvetica,sans-Serif" font-size="10.00" fill="#000000">Interface/gui/mainwindow.cpp</text>
</a>
</g>
</g>
<!-- Node13&#45;&gt;Node17 -->
<g id="edge11" class="edge">
<title>Node13&#45;&gt;Node17</title>
<path fill="none" stroke="#191970" d="M619.1531,-122.5141C672.6849,-113.3481 752.2644,-99.5748 821.5,-87 831.9062,-85.11 843.0453,-83.0375 853.6532,-81.0403"/>
<polygon fill="#191970" stroke="#191970" points="618.4039,-119.0913 609.1372,-124.2273 619.5842,-125.9911 618.4039,-119.0913"/>
</g>
<!-- Node18 -->
<g id="node12" class="node">
<title>Node18</title>
<g id="a_node12"><a xlink:href="options_8cpp.html" target="_top" xlink:title="Implémentation des classes du dialogue d&#39;options. ">
<polygon fill="#ffffff" stroke="#000000" points="443.5,-62 443.5,-81 567.5,-81 567.5,-62 443.5,-62"/>
<text text-anchor="middle" x="505.5" y="-69" font-family="Helvetica,sans-Serif" font-size="10.00" fill="#000000">Interface/gui/options.cpp</text>
</a>
</g>
</g>
<!-- Node13&#45;&gt;Node18 -->
<g id="edge12" class="edge">
<title>Node13&#45;&gt;Node18</title>
<path fill="none" stroke="#191970" d="M542.7662,-115.5744C533.3616,-104.4517 521.5189,-90.4454 513.7396,-81.2449"/>
<polygon fill="#191970" stroke="#191970" points="540.2456,-118.0142 549.375,-123.3906 545.591,-113.4945 540.2456,-118.0142"/>
</g>
<!-- Node19 -->
<g id="node13" class="node">
<title>Node19</title>
<g id="a_node13"><a xlink:href="run_8cpp.html" target="_top" xlink:title="Implémentation de la classe Altair agent de la classe MainWindow qui construit l&#39;interface graphique...">
<polygon fill="#ffffff" stroke="#000000" points="319.5,-62 319.5,-81 425.5,-81 425.5,-62 319.5,-62"/>
<text text-anchor="middle" x="372.5" y="-69" font-family="Helvetica,sans-Serif" font-size="10.00" fill="#000000">Interface/gui/run.cpp</text>
</a>
</g>
</g>
<!-- Node13&#45;&gt;Node19 -->
<g id="edge13" class="edge">
<title>Node13&#45;&gt;Node19</title>
<path fill="none" stroke="#191970" d="M518.6977,-120.1009C483.61,-108.4366 432.7534,-91.5302 401.2033,-81.0419"/>
<polygon fill="#191970" stroke="#191970" points="518.0002,-123.5573 528.5938,-123.3906 520.2085,-116.9147 518.0002,-123.5573"/>
</g>
<!-- Node20 -->
<g id="node14" class="node">
<title>Node20</title>
<g id="a_node14"><a xlink:href="xmlparser_8cpp.html" target="_top" xlink:title="Implémentation de la classe Altair agent de la classe MainWindow qui construit l&#39;interface graphique...">
<polygon fill="#ffffff" stroke="#000000" points="166,-62 166,-81 301,-81 301,-62 166,-62"/>
<text text-anchor="middle" x="233.5" y="-69" font-family="Helvetica,sans-Serif" font-size="10.00" fill="#000000">Interface/gui/xmlparser.cpp</text>
</a>
</g>
</g>
<!-- Node13&#45;&gt;Node20 -->
<g id="edge14" class="edge">
<title>Node13&#45;&gt;Node20</title>
<path fill="none" stroke="#191970" d="M495.8877,-121.7821C445.8901,-112.6172 373.5989,-99.2258 310.5,-87 300.7273,-85.1065 290.2669,-83.0325 280.3057,-81.0349"/>
<polygon fill="#191970" stroke="#191970" points="495.4266,-125.2558 505.8935,-123.6144 496.6875,-118.3703 495.4266,-125.2558"/>
</g>
<!-- Node14&#45;&gt;Node13 -->
<g id="edge8" class="edge">
<title>Node14&#45;&gt;Node13</title>
<path fill="none" stroke="#191970" d="M709.8265,-89.5896C673.5695,-100.6563 627.0152,-114.3737 594.9063,-123.3906"/>
<polygon fill="#191970" stroke="#191970" points="711.2242,-92.8219 719.7592,-86.5446 709.1725,-86.1294 711.2242,-92.8219"/>
</g>
<!-- Node15 -->
<g id="node9" class="node">
<title>Node15</title>
<g id="a_node9"><a xlink:href="_interface_2gui_2main_8cpp.html" target="_top" xlink:title="Lance l&#39;interface graphique en chargeant le bon contexte linguistique et la feuille de style...">
<polygon fill="#ffffff" stroke="#000000" points="708,-.5 708,-19.5 821,-19.5 821,-.5 708,-.5"/>
<text text-anchor="middle" x="764.5" y="-7.5" font-family="Helvetica,sans-Serif" font-size="10.00" fill="#000000">Interface/gui/main.cpp</text>
</a>
</g>
</g>
<!-- Node14&#45;&gt;Node15 -->
<g id="edge9" class="edge">
<title>Node14&#45;&gt;Node15</title>
<path fill="none" stroke="#191970" d="M764.5,-46.2849C764.5,-36.9858 764.5,-26.9883 764.5,-19.8469"/>
<polygon fill="#191970" stroke="#191970" points="761.0001,-46.2977 764.5,-56.2977 768.0001,-46.2978 761.0001,-46.2977"/>
</g>
<!-- Node24&#45;&gt;Node13 -->
<g id="edge25" class="edge">
<title>Node24&#45;&gt;Node13</title>
<path fill="none" stroke="#191970" d="M601.7808,-172.3607C590.8818,-162.6727 577.5245,-150.7995 568.348,-142.6427"/>
<polygon fill="#191970" stroke="#191970" points="599.7268,-175.2178 609.5262,-179.2455 604.3774,-169.9859 599.7268,-175.2178"/>
</g>
<!-- Node24&#45;&gt;Node14 -->
<g id="edge24" class="edge">
<title>Node24&#45;&gt;Node14</title>
<path fill="none" stroke="#191970" d="M689.7533,-178.1243C711.6843,-171.4116 734.179,-160.5558 749.5,-143 763.0936,-127.4235 765.4578,-102.6959 765.3815,-86.7853"/>
<polygon fill="#191970" stroke="#191970" points="688.7608,-174.7675 680.0792,-180.8404 690.653,-181.5069 688.7608,-174.7675"/>
</g>
<!-- Node24&#45;&gt;Node17 -->
<g id="edge31" class="edge">
<title>Node24&#45;&gt;Node17</title>
<path fill="none" stroke="#191970" d="M667.9887,-176.6687C697.416,-168.4349 735.7211,-156.6354 768.5,-143 813.3123,-124.3589 863.0422,-95.8321 887.7599,-81.0788"/>
<polygon fill="#191970" stroke="#191970" points="666.6839,-173.3978 657.9737,-179.4296 668.5443,-180.146 666.6839,-173.3978"/>
</g>
<!-- Node24&#45;&gt;Node20 -->
<g id="edge32" class="edge">
<title>Node24&#45;&gt;Node20</title>
<path fill="none" stroke="#191970" d="M581.8189,-175.9807C557.1185,-167.3421 524.5768,-155.3549 496.5,-143 478.6703,-135.1542 475.7992,-129.678 457.5,-123 425.6374,-111.3722 337.313,-92.4772 281.5659,-81.0943"/>
<polygon fill="#191970" stroke="#191970" points="580.955,-179.3855 591.5497,-179.3529 583.2471,-172.7714 580.955,-179.3855"/>
</g>
<!-- Node25 -->
<g id="node19" class="node">
<title>Node25</title>
<g id="a_node19"><a xlink:href="options_8h.html" target="_top" xlink:title="Code des classes du dialogue d&#39;options. ">
<polygon fill="#ffffff" stroke="#000000" points="627,-123.5 627,-142.5 740,-142.5 740,-123.5 627,-123.5"/>
<text text-anchor="middle" x="683.5" y="-130.5" font-family="Helvetica,sans-Serif" font-size="10.00" fill="#000000">Interface/gui/options.h</text>
</a>
</g>
</g>
<!-- Node24&#45;&gt;Node25 -->
<g id="edge20" class="edge">
<title>Node24&#45;&gt;Node25</title>
<path fill="none" stroke="#191970" d="M639.2192,-172.3607C650.1182,-162.6727 663.4755,-150.7995 672.652,-142.6427"/>
<polygon fill="#191970" stroke="#191970" points="636.6226,-169.9859 631.4738,-179.2455 641.2732,-175.2178 636.6226,-169.9859"/>
</g>
<!-- Node26 -->
<g id="node20" class="node">
<title>Node26</title>
<g id="a_node20"><a xlink:href="matricules_8h.html" target="_top" xlink:title="Code de la classe MatriculeInput, qui construit un dialogue d&#39;extraction des bulletins. ">
<polygon fill="#ffffff" stroke="#000000" points="835,-123.5 835,-142.5 962,-142.5 962,-123.5 835,-123.5"/>
<text text-anchor="middle" x="898.5" y="-130.5" font-family="Helvetica,sans-Serif" font-size="10.00" fill="#000000">Interface/gui/matricules.h</text>
</a>
</g>
</g>
<!-- Node24&#45;&gt;Node26 -->
<g id="edge26" class="edge">
<title>Node24&#45;&gt;Node26</title>
<path fill="none" stroke="#191970" d="M677.9041,-177.4366C729.1547,-167.1127 803.3158,-152.1738 851.2218,-142.5237"/>
<polygon fill="#191970" stroke="#191970" points="677.0859,-174.031 667.974,-179.4369 678.4683,-180.8932 677.0859,-174.031"/>
</g>
<!-- Node28 -->
<g id="node22" class="node">
<title>Node28</title>
<g id="a_node22"><a xlink:href="common_8cpp.html" target="_top" xlink:title="Interface/gui/common.cpp">
<polygon fill="#ffffff" stroke="#000000" points="980.5,-123.5 980.5,-142.5 1110.5,-142.5 1110.5,-123.5 980.5,-123.5"/>
<text text-anchor="middle" x="1045.5" y="-130.5" font-family="Helvetica,sans-Serif" font-size="10.00" fill="#000000">Interface/gui/common.cpp</text>
</a>
</g>
</g>
<!-- Node24&#45;&gt;Node28 -->
<g id="edge30" class="edge">
<title>Node24&#45;&gt;Node28</title>
<path fill="none" stroke="#191970" d="M690.3694,-178.8998C816.3549,-161.8034 849.4071,-159.0425 971.5,-143 974.3278,-142.6284 977.216,-142.2469 980.1335,-141.8598"/>
<polygon fill="#191970" stroke="#191970" points="689.7672,-175.4493 680.3304,-180.2656 690.711,-182.3854 689.7672,-175.4493"/>
</g>
<!-- Node25&#45;&gt;Node14 -->
<g id="edge21" class="edge">
<title>Node25&#45;&gt;Node14</title>
<path fill="none" stroke="#191970" d="M704.1624,-117.3119C716.6143,-107.8577 732.3885,-95.8809 744.6852,-86.5446"/>
<polygon fill="#191970" stroke="#191970" points="702.0042,-114.5559 696.1563,-123.3906 706.2372,-120.1311 702.0042,-114.5559"/>
</g>
<!-- Node25&#45;&gt;Node16 -->
<g id="edge22" class="edge">
<title>Node25&#45;&gt;Node16</title>
<path fill="none" stroke="#191970" d="M671.4446,-114.9169C664.1029,-103.9043 655.01,-90.265 648.9966,-81.2449"/>
<polygon fill="#191970" stroke="#191970" points="668.6345,-117.0116 677.0938,-123.3906 674.4589,-113.1286 668.6345,-117.0116"/>
</g>
<!-- Node25&#45;&gt;Node18 -->
<g id="edge23" class="edge">
<title>Node25&#45;&gt;Node18</title>
<path fill="none" stroke="#191970" d="M646.1659,-120.1009C612.4059,-108.4366 563.4736,-91.5302 533.1172,-81.0419"/>
<polygon fill="#191970" stroke="#191970" points="645.0927,-123.433 655.6875,-123.3906 647.3787,-116.8168 645.0927,-123.433"/>
</g>
<!-- Node26&#45;&gt;Node14 -->
<g id="edge27" class="edge">
<title>Node26&#45;&gt;Node14</title>
<path fill="none" stroke="#191970" d="M868.3991,-119.185C847.2573,-109.4819 818.9919,-96.5093 797.2801,-86.5446"/>
<polygon fill="#191970" stroke="#191970" points="867.014,-122.4003 877.5625,-123.3906 869.9339,-116.0384 867.014,-122.4003"/>
</g>
<!-- Node26&#45;&gt;Node17 -->
<g id="edge28" class="edge">
<title>Node26&#45;&gt;Node17</title>
<path fill="none" stroke="#191970" d="M900.106,-113.2462C900.9755,-102.5519 902.0111,-89.814 902.7077,-81.2449"/>
<polygon fill="#191970" stroke="#191970" points="896.6032,-113.1399 899.2813,-123.3906 903.5802,-113.7072 896.6032,-113.1399"/>
</g>
<!-- Node27 -->
<g id="node21" class="node">
<title>Node27</title>
<g id="a_node21"><a xlink:href="matricules_8cpp.html" target="_top" xlink:title="Implémentation de la classe MatriculeInput, qui construit un dialogue d&#39;extraction des bulletins...">
<polygon fill="#ffffff" stroke="#000000" points="995,-62 995,-81 1132,-81 1132,-62 995,-62"/>
<text text-anchor="middle" x="1063.5" y="-69" font-family="Helvetica,sans-Serif" font-size="10.00" fill="#000000">Interface/gui/matricules.cpp</text>
</a>
</g>
</g>
<!-- Node26&#45;&gt;Node27 -->
<g id="edge29" class="edge">
<title>Node26&#45;&gt;Node27</title>
<path fill="none" stroke="#191970" d="M933.9164,-119.7993C965.1793,-108.1468 1010.002,-91.4402 1037.8998,-81.0419"/>
<polygon fill="#191970" stroke="#191970" points="932.4291,-116.6184 924.2813,-123.3906 934.8739,-123.1776 932.4291,-116.6184"/>
</g>
</g>
</svg>
        <g id="navigator" transform="translate(0 0)" fill="#404254">
                <rect fill="#f2f5e9" fill-opacity="0.5" stroke="#606060" stroke-width=".5" x="0" y="0" width="60" height="60"/>
                <use id="zoomplus" xlink:href="#zoomPlus" x="17" y="9" onmousedown="handleZoom(evt,'in')"/>
                <use id="zoomminus" xlink:href="#zoomMin" x="42" y="9" onmousedown="handleZoom(evt,'out')"/>
                <use id="reset" xlink:href="#resetDef" x="30" y="36" onmousedown="handleReset()"/>
                <g id="arrowUp" xlink:href="#dirArrow" transform="translate(30 24)" onmousedown="handlePan(0,-1)">
                  <use xlink:href="#rim" fill="#404040">
                        <set attributeName="fill" to="#808080" begin="arrowUp.mouseover" end="arrowUp.mouseout"/>
                  </use>
                  <path fill="none" stroke="white" stroke-width="1.5" d="M0,-3.0v7 M-2.5,-0.5L0,-3.0L2.5,-0.5"/>
                </g>
                <g id="arrowRight" xlink:href="#dirArrow" transform="rotate(90) translate(36 -43)" onmousedown="handlePan(1,0)">
                  <use xlink:href="#rim" fill="#404040">
                        <set attributeName="fill" to="#808080" begin="arrowRight.mouseover" end="arrowRight.mouseout"/>
                  </use>
                  <path fill="none" stroke="white" stroke-width="1.5" d="M0,-3.0v7 M-2.5,-0.5L0,-3.0L2.5,-0.5"/>
                </g>
                <g id="arrowDown" xlink:href="#dirArrow" transform="rotate(180) translate(-30 -48)" onmousedown="handlePan(0,1)">
                  <use xlink:href="#rim" fill="#404040">
                        <set attributeName="fill" to="#808080" begin="arrowDown.mouseover" end="arrowDown.mouseout"/>
                  </use>
                  <path fill="none" stroke="white" stroke-width="1.5" d="M0,-3.0v7 M-2.5,-0.5L0,-3.0L2.5,-0.5"/>
                </g>
                <g id="arrowLeft" xlink:href="#dirArrow" transform="rotate(270) translate(-36 17)" onmousedown="handlePan(-1,0)">
                  <use xlink:href="#rim" fill="#404040">
                        <set attributeName="fill" to="#808080" begin="arrowLeft.mouseover" end="arrowLeft.mouseout"/>
                  </use>
                  <path fill="none" stroke="white" stroke-width="1.5" d="M0,-3.0v7 M-2.5,-0.5L0,-3.0L2.5,-0.5"/>
                </g>
        </g>
        <svg viewBox="0 0 15 15" width="100%" height="30px" preserveAspectRatio="xMaxYMin meet">
         <g id="arrow_out" transform="scale(0.3 0.3)">
          <a xlink:href="tools_8h__dep__incl_org.svg" target="_base">
           <rect id="button" ry="5" rx="5" y="6" x="6" height="38" width="38"
                fill="#f2f5e9" fill-opacity="0.5" stroke="#606060" stroke-width="1.0"/>
           <path id="arrow"
             d="M 11.500037,31.436501 C 11.940474,20.09759 22.043105,11.32322 32.158766,21.979434 L 37.068811,17.246167 C 37.068811,17.246167 37.088388,32 37.088388,32 L 22.160133,31.978069 C 22.160133,31.978069 26.997745,27.140456 26.997745,27.140456 C 18.528582,18.264221 13.291696,25.230495 11.500037,31.436501 z"
             style="fill:#404040;"/>
          </a>
         </g>
        </svg>
</svg>
