<?xml version="1.0" encoding="UTF-8" standalone="no"?>
<!DOCTYPE svg PUBLIC "-//W3C//DTD SVG 1.1//EN"
 "http://www.w3.org/Graphics/SVG/1.1/DTD/svg11.dtd">
<!-- Generated by graphviz version 2.38.0 (20140413.2041)
 -->
<!-- Title: fwidgets_lib/tools.h Pages: 1 -->
<svg width="1104pt" height="263pt"
 viewBox="0.00 0.00 1104.00 263.00" xmlns="http://www.w3.org/2000/svg" xmlns:xlink="http://www.w3.org/1999/xlink">
<g id="graph0" class="graph" transform="scale(1 1) rotate(0) translate(4 259)">
<title>fwidgets_lib/tools.h</title>
<polygon fill="white" stroke="none" points="-4,4 -4,-259 1100,-259 1100,4 -4,4"/>
<!-- Node7 -->
<g id="node1" class="node"><title>Node7</title>
<polygon fill="#bfbfbf" stroke="black" points="506,-235.5 506,-254.5 607,-254.5 607,-235.5 506,-235.5"/>
<text text-anchor="middle" x="556.5" y="-242.5" font-family="Helvetica,sans-Serif" font-size="10.00">fwidgets_lib/tools.h</text>
</g>
<!-- Node8 -->
<g id="node2" class="node"><title>Node8</title>
<g id="a_node2"><a xlink:href="flineframe_8cpp.html" target="_top" xlink:title="fwidgets_lib/flineframe.cpp">
<polygon fill="white" stroke="black" points="169,-179.5 169,-198.5 302,-198.5 302,-179.5 169,-179.5"/>
<text text-anchor="middle" x="235.5" y="-186.5" font-family="Helvetica,sans-Serif" font-size="10.00">fwidgets_lib/flineframe.cpp</text>
</a>
</g>
</g>
<!-- Node7&#45;&gt;Node8 -->
<g id="edge1" class="edge"><title>Node7&#45;&gt;Node8</title>
<path fill="none" stroke="midnightblue" d="M495.8,-233.789C435.187,-223.592 343.089,-208.099 286.244,-198.536"/>
<polygon fill="midnightblue" stroke="midnightblue" points="495.549,-237.296 505.991,-235.503 496.71,-230.393 495.549,-237.296"/>
</g>
<!-- Node9 -->
<g id="node3" class="node"><title>Node9</title>
<g id="a_node3"><a xlink:href="flistframe_8h.html" target="_top" xlink:title="fwidgets_lib/flistframe.h">
<polygon fill="white" stroke="black" points="358.5,-179.5 358.5,-198.5 478.5,-198.5 478.5,-179.5 358.5,-179.5"/>
<text text-anchor="middle" x="418.5" y="-186.5" font-family="Helvetica,sans-Serif" font-size="10.00">fwidgets_lib/flistframe.h</text>
</a>
</g>
</g>
<!-- Node7&#45;&gt;Node9 -->
<g id="edge2" class="edge"><title>Node7&#45;&gt;Node9</title>
<path fill="none" stroke="midnightblue" d="M525.251,-231.772C499.329,-221.629 463.138,-207.467 440.264,-198.516"/>
<polygon fill="midnightblue" stroke="midnightblue" points="524.046,-235.059 534.633,-235.444 526.596,-228.54 524.046,-235.059"/>
</g>
<!-- Node11 -->
<g id="node5" class="node"><title>Node11</title>
<g id="a_node5"><a xlink:href="fwidgets_8cpp.html" target="_top" xlink:title="fwidgets_lib/fwidgets.cpp">
<polygon fill="white" stroke="black" points="0,-123.5 0,-142.5 127,-142.5 127,-123.5 0,-123.5"/>
<text text-anchor="middle" x="63.5" y="-130.5" font-family="Helvetica,sans-Serif" font-size="10.00">fwidgets_lib/fwidgets.cpp</text>
</a>
</g>
</g>
<!-- Node7&#45;&gt;Node11 -->
<g id="edge15" class="edge"><title>Node7&#45;&gt;Node11</title>
<path fill="none" stroke="midnightblue" d="M495.661,-235.057C453.79,-227.873 397.318,-216.128 349.5,-199 331.161,-192.431 328.947,-185.257 310.5,-179 276.291,-167.396 182.836,-151.954 121.195,-142.508"/>
<polygon fill="midnightblue" stroke="midnightblue" points="495.265,-238.54 505.707,-236.742 496.423,-231.636 495.265,-238.54"/>
</g>
<!-- Node20 -->
<g id="node14" class="node"><title>Node20</title>
<g id="a_node14"><a xlink:href="fstring_8cpp.html" target="_top" xlink:title="fwidgets_lib/fstring.cpp">
<polygon fill="white" stroke="black" points="634,-179.5 634,-198.5 751,-198.5 751,-179.5 634,-179.5"/>
<text text-anchor="middle" x="692.5" y="-186.5" font-family="Helvetica,sans-Serif" font-size="10.00">fwidgets_lib/fstring.cpp</text>
</a>
</g>
</g>
<!-- Node7&#45;&gt;Node20 -->
<g id="edge14" class="edge"><title>Node7&#45;&gt;Node20</title>
<path fill="none" stroke="midnightblue" d="M587.635,-231.638C613.157,-221.504 648.609,-207.427 671.051,-198.516"/>
<polygon fill="midnightblue" stroke="midnightblue" points="586.052,-228.5 578.05,-235.444 588.635,-235.006 586.052,-228.5"/>
</g>
<!-- Node21 -->
<g id="node15" class="node"><title>Node21</title>
<g id="a_node15"><a xlink:href="gui__options_8h.html" target="_top" xlink:title="fwidgets_lib/gui_options.h">
<polygon fill="white" stroke="black" points="769,-179.5 769,-198.5 898,-198.5 898,-179.5 769,-179.5"/>
<text text-anchor="middle" x="833.5" y="-186.5" font-family="Helvetica,sans-Serif" font-size="10.00">fwidgets_lib/gui_options.h</text>
</a>
</g>
</g>
<!-- Node7&#45;&gt;Node21 -->
<g id="edge16" class="edge"><title>Node7&#45;&gt;Node21</title>
<path fill="none" stroke="midnightblue" d="M610.497,-233.473C662.848,-223.268 741.272,-207.979 789.814,-198.516"/>
<polygon fill="midnightblue" stroke="midnightblue" points="609.537,-230.095 600.391,-235.444 610.876,-236.965 609.537,-230.095"/>
</g>
<!-- Node22 -->
<g id="node16" class="node"><title>Node22</title>
<g id="a_node16"><a xlink:href="tools_8cpp.html" target="_top" xlink:title="fwidgets_lib/tools.cpp">
<polygon fill="white" stroke="black" points="916,-179.5 916,-198.5 1027,-198.5 1027,-179.5 916,-179.5"/>
<text text-anchor="middle" x="971.5" y="-186.5" font-family="Helvetica,sans-Serif" font-size="10.00">fwidgets_lib/tools.cpp</text>
</a>
</g>
</g>
<!-- Node7&#45;&gt;Node22 -->
<g id="edge17" class="edge"><title>Node7&#45;&gt;Node22</title>
<path fill="none" stroke="midnightblue" d="M617.059,-236.464C687.041,-227.702 805.649,-212.69 907.5,-199 910.169,-198.641 912.9,-198.271 915.658,-197.894"/>
<polygon fill="midnightblue" stroke="midnightblue" points="616.583,-232.996 607.095,-237.71 617.452,-239.942 616.583,-232.996"/>
</g>
<!-- Node23 -->
<g id="node17" class="node"><title>Node23</title>
<g id="a_node17"><a xlink:href="common_8h.html" target="_top" xlink:title="Code de la classe common, qui regroupe des utilitaires communs à l&#39;interface graphique MainWindow...">
<polygon fill="white" stroke="black" points="497,-179.5 497,-198.5 616,-198.5 616,-179.5 497,-179.5"/>
<text text-anchor="middle" x="556.5" y="-186.5" font-family="Helvetica,sans-Serif" font-size="10.00">Interface/gui/common.h</text>
</a>
</g>
</g>
<!-- Node7&#45;&gt;Node23 -->
<g id="edge18" class="edge"><title>Node7&#45;&gt;Node23</title>
<path fill="none" stroke="midnightblue" d="M556.5,-224.805C556.5,-215.91 556.5,-205.78 556.5,-198.751"/>
<polygon fill="midnightblue" stroke="midnightblue" points="553,-225.083 556.5,-235.083 560,-225.083 553,-225.083"/>
</g>
<!-- Node10 -->
<g id="node4" class="node"><title>Node10</title>
<g id="a_node4"><a xlink:href="flistframe_8cpp.html" target="_top" xlink:title="fwidgets_lib/flistframe.cpp">
<polygon fill="white" stroke="black" points="145,-123.5 145,-142.5 276,-142.5 276,-123.5 145,-123.5"/>
<text text-anchor="middle" x="210.5" y="-130.5" font-family="Helvetica,sans-Serif" font-size="10.00">fwidgets_lib/flistframe.cpp</text>
</a>
</g>
</g>
<!-- Node9&#45;&gt;Node10 -->
<g id="edge3" class="edge"><title>Node9&#45;&gt;Node10</title>
<path fill="none" stroke="midnightblue" d="M375.722,-176.894C336.442,-166.697 279.071,-151.802 243.304,-142.516"/>
<polygon fill="midnightblue" stroke="midnightblue" points="374.983,-180.318 385.542,-179.444 376.742,-173.543 374.983,-180.318"/>
</g>
<!-- Node9&#45;&gt;Node11 -->
<g id="edge4" class="edge"><title>Node9&#45;&gt;Node11</title>
<path fill="none" stroke="midnightblue" d="M352.211,-177.917C285.145,-167.715 182.605,-152.117 119.488,-142.516"/>
<polygon fill="midnightblue" stroke="midnightblue" points="351.837,-181.4 362.249,-179.444 352.889,-174.479 351.837,-181.4"/>
</g>
<!-- Node12 -->
<g id="node6" class="node"><title>Node12</title>
<g id="a_node6"><a xlink:href="altair_8h.html" target="_top" xlink:title="Code de la classe principale Altair, qui joue le rôle d&#39;agent de l&#39;interface graphique. ">
<polygon fill="white" stroke="black" points="425,-123.5 425,-142.5 528,-142.5 528,-123.5 425,-123.5"/>
<text text-anchor="middle" x="476.5" y="-130.5" font-family="Helvetica,sans-Serif" font-size="10.00">Interface/gui/altair.h</text>
</a>
</g>
</g>
<!-- Node9&#45;&gt;Node12 -->
<g id="edge5" class="edge"><title>Node9&#45;&gt;Node12</title>
<path fill="none" stroke="midnightblue" d="M435.413,-172.253C445.703,-162.673 458.466,-150.791 467.012,-142.834"/>
<polygon fill="midnightblue" stroke="midnightblue" points="432.753,-169.948 427.819,-179.324 437.523,-175.071 432.753,-169.948"/>
</g>
<!-- Node13 -->
<g id="node7" class="node"><title>Node13</title>
<g id="a_node7"><a xlink:href="altair-gui_8h.html" target="_top" xlink:title="Code de la classe MainWindow qui construit l&#39;interface graphique. ">
<polygon fill="white" stroke="black" points="528,-56.5 528,-86.5 623,-86.5 623,-56.5 528,-56.5"/>
<text text-anchor="start" x="536" y="-74.5" font-family="Helvetica,sans-Serif" font-size="10.00">Interface/gui/altair</text>
<text text-anchor="middle" x="575.5" y="-63.5" font-family="Helvetica,sans-Serif" font-size="10.00">&#45;gui.h</text>
</a>
</g>
</g>
<!-- Node12&#45;&gt;Node13 -->
<g id="edge6" class="edge"><title>Node12&#45;&gt;Node13</title>
<path fill="none" stroke="midnightblue" d="M494.368,-117.739C508.906,-108.282 529.469,-95.9304 546.338,-86.523"/>
<polygon fill="midnightblue" stroke="midnightblue" points="492.154,-115.009 485.784,-123.475 496.043,-120.829 492.154,-115.009"/>
</g>
<!-- Node15 -->
<g id="node9" class="node"><title>Node15</title>
<g id="a_node9"><a xlink:href="altair_8cpp.html" target="_top" xlink:title="Code implémentant la classe principale Altair, qui joue le rôle d&#39;agent de l&#39;interface graphique...">
<polygon fill="white" stroke="black" points="272,-62 272,-81 385,-81 385,-62 272,-62"/>
<text text-anchor="middle" x="328.5" y="-69" font-family="Helvetica,sans-Serif" font-size="10.00">Interface/gui/altair.cpp</text>
</a>
</g>
</g>
<!-- Node12&#45;&gt;Node15 -->
<g id="edge9" class="edge"><title>Node12&#45;&gt;Node15</title>
<path fill="none" stroke="midnightblue" d="M445.734,-119.631C416.981,-108.072 374.815,-91.12 349.665,-81.0091"/>
<polygon fill="midnightblue" stroke="midnightblue" points="444.711,-122.992 455.295,-123.475 447.322,-116.498 444.711,-122.992"/>
</g>
<!-- Node16 -->
<g id="node10" class="node"><title>Node16</title>
<g id="a_node10"><a xlink:href="mainwindow_8cpp.html" target="_top" xlink:title="Code de l&#39;implémentation de la classe MainWindow de l&#39;interface graphique. ">
<polygon fill="white" stroke="black" points="794.5,-62 794.5,-81 940.5,-81 940.5,-62 794.5,-62"/>
<text text-anchor="middle" x="867.5" y="-69" font-family="Helvetica,sans-Serif" font-size="10.00">Interface/gui/mainwindow.cpp</text>
</a>
</g>
</g>
<!-- Node12&#45;&gt;Node16 -->
<g id="edge10" class="edge"><title>Node12&#45;&gt;Node16</title>
<path fill="none" stroke="midnightblue" d="M538.317,-123.561C600.757,-114.904 699.946,-100.791 785.5,-87 796.918,-85.1595 809.208,-83.0533 820.709,-81.0272"/>
<polygon fill="midnightblue" stroke="midnightblue" points="537.666,-120.118 528.24,-124.955 538.625,-127.052 537.666,-120.118"/>
</g>
<!-- Node17 -->
<g id="node11" class="node"><title>Node17</title>
<g id="a_node11"><a xlink:href="options_8cpp.html" target="_top" xlink:title="Implémentation des classes du dialogue d&#39;options. ">
<polygon fill="white" stroke="black" points="129.5,-62 129.5,-81 253.5,-81 253.5,-62 129.5,-62"/>
<text text-anchor="middle" x="191.5" y="-69" font-family="Helvetica,sans-Serif" font-size="10.00">Interface/gui/options.cpp</text>
</a>
</g>
</g>
<!-- Node12&#45;&gt;Node17 -->
<g id="edge11" class="edge"><title>Node12&#45;&gt;Node17</title>
<path fill="none" stroke="midnightblue" d="M425.738,-121.402C370.485,-109.867 283.226,-91.6498 232.258,-81.0091"/>
<polygon fill="midnightblue" stroke="midnightblue" points="425.162,-124.857 435.666,-123.475 426.593,-118.005 425.162,-124.857"/>
</g>
<!-- Node18 -->
<g id="node12" class="node"><title>Node18</title>
<g id="a_node12"><a xlink:href="run_8cpp.html" target="_top" xlink:title="Implémentation de la classe Altair agent de la classe MainWindow qui construit l&#39;interface graphique...">
<polygon fill="white" stroke="black" points="403.5,-62 403.5,-81 509.5,-81 509.5,-62 403.5,-62"/>
<text text-anchor="middle" x="456.5" y="-69" font-family="Helvetica,sans-Serif" font-size="10.00">Interface/gui/run.cpp</text>
</a>
</g>
</g>
<!-- Node12&#45;&gt;Node18 -->
<g id="edge12" class="edge"><title>Node12&#45;&gt;Node18</title>
<path fill="none" stroke="midnightblue" d="M470.334,-113.657C466.676,-102.772 462.21,-89.4863 459.36,-81.0091"/>
<polygon fill="midnightblue" stroke="midnightblue" points="467.131,-115.111 473.634,-123.475 473.766,-112.881 467.131,-115.111"/>
</g>
<!-- Node19 -->
<g id="node13" class="node"><title>Node19</title>
<g id="a_node13"><a xlink:href="xmlparser_8cpp.html" target="_top" xlink:title="Implémentation de la classe Altair agent de la classe MainWindow qui construit l&#39;interface graphique...">
<polygon fill="white" stroke="black" points="641,-62 641,-81 776,-81 776,-62 641,-62"/>
<text text-anchor="middle" x="708.5" y="-69" font-family="Helvetica,sans-Serif" font-size="10.00">Interface/gui/xmlparser.cpp</text>
</a>
</g>
</g>
<!-- Node12&#45;&gt;Node19 -->
<g id="edge13" class="edge"><title>Node12&#45;&gt;Node19</title>
<path fill="none" stroke="midnightblue" d="M519.514,-120.968C564.564,-109.415 634.348,-91.5173 675.322,-81.0091"/>
<polygon fill="midnightblue" stroke="midnightblue" points="518.557,-117.6 509.74,-123.475 520.296,-124.381 518.557,-117.6"/>
</g>
<!-- Node13&#45;&gt;Node12 -->
<g id="edge7" class="edge"><title>Node13&#45;&gt;Node12</title>
<path fill="none" stroke="midnightblue" d="M549.151,-92.1788C532.272,-102.791 510.892,-115.341 495.585,-123.475"/>
<polygon fill="midnightblue" stroke="midnightblue" points="551.458,-94.8583 557.998,-86.523 547.687,-88.9606 551.458,-94.8583"/>
</g>
<!-- Node14 -->
<g id="node8" class="node"><title>Node14</title>
<g id="a_node8"><a xlink:href="_interface_2gui_2main_8cpp.html" target="_top" xlink:title="Lance l&#39;interface graphique en chargeant le bon contexte linguistique et la feuille de style...">
<polygon fill="white" stroke="black" points="519,-0.5 519,-19.5 632,-19.5 632,-0.5 519,-0.5"/>
<text text-anchor="middle" x="575.5" y="-7.5" font-family="Helvetica,sans-Serif" font-size="10.00">Interface/gui/main.cpp</text>
</a>
</g>
</g>
<!-- Node13&#45;&gt;Node14 -->
<g id="edge8" class="edge"><title>Node13&#45;&gt;Node14</title>
<path fill="none" stroke="midnightblue" d="M575.5,-46.2892C575.5,-36.857 575.5,-26.6548 575.5,-19.6578"/>
<polygon fill="midnightblue" stroke="midnightblue" points="572,-46.3993 575.5,-56.3993 579,-46.3994 572,-46.3993"/>
</g>
<!-- Node23&#45;&gt;Node12 -->
<g id="edge24" class="edge"><title>Node23&#45;&gt;Node12</title>
<path fill="none" stroke="midnightblue" d="M535.199,-173.622C520.585,-163.757 501.673,-150.992 489.321,-142.655"/>
<polygon fill="midnightblue" stroke="midnightblue" points="533.4,-176.63 543.647,-179.324 537.316,-170.828 533.4,-176.63"/>
</g>
<!-- Node23&#45;&gt;Node13 -->
<g id="edge23" class="edge"><title>Node23&#45;&gt;Node13</title>
<path fill="none" stroke="midnightblue" d="M559.562,-169.385C563.367,-146.257 569.773,-107.317 573.19,-86.5453"/>
<polygon fill="midnightblue" stroke="midnightblue" points="556.098,-168.883 557.928,-179.319 563.005,-170.019 556.098,-168.883"/>
</g>
<!-- Node23&#45;&gt;Node16 -->
<g id="edge30" class="edge"><title>Node23&#45;&gt;Node16</title>
<path fill="none" stroke="midnightblue" d="M626.419,-179.002C703.106,-172.478 867.479,-188.435 907.5,-143 924.801,-123.359 895.846,-95.0421 878.717,-81.0251"/>
<polygon fill="midnightblue" stroke="midnightblue" points="625.779,-175.55 616.202,-180.081 626.514,-182.512 625.779,-175.55"/>
</g>
<!-- Node23&#45;&gt;Node19 -->
<g id="edge31" class="edge"><title>Node23&#45;&gt;Node19</title>
<path fill="none" stroke="midnightblue" d="M626.509,-177.83C666.613,-170.414 711.336,-158.875 723.5,-143 737.656,-124.525 723.323,-95.6798 714.426,-81.2867"/>
<polygon fill="midnightblue" stroke="midnightblue" points="625.665,-174.425 616.435,-179.627 626.894,-181.317 625.665,-174.425"/>
</g>
<!-- Node24 -->
<g id="node18" class="node"><title>Node24</title>
<g id="a_node18"><a xlink:href="options_8h.html" target="_top" xlink:title="Code des classes du dialogue d&#39;options. ">
<polygon fill="white" stroke="black" points="294,-123.5 294,-142.5 407,-142.5 407,-123.5 294,-123.5"/>
<text text-anchor="middle" x="350.5" y="-130.5" font-family="Helvetica,sans-Serif" font-size="10.00">Interface/gui/options.h</text>
</a>
</g>
</g>
<!-- Node23&#45;&gt;Node24 -->
<g id="edge19" class="edge"><title>Node23&#45;&gt;Node24</title>
<path fill="none" stroke="midnightblue" d="M513.885,-176.829C474.99,-166.633 418.336,-151.782 382.989,-142.516"/>
<polygon fill="midnightblue" stroke="midnightblue" points="513.298,-180.293 523.859,-179.444 515.073,-173.522 513.298,-180.293"/>
</g>
<!-- Node25 -->
<g id="node19" class="node"><title>Node25</title>
<g id="a_node19"><a xlink:href="matricules_8h.html" target="_top" xlink:title="Code de la classe MatriculeInput, qui construit un dialogue d&#39;extraction des bulletins. ">
<polygon fill="white" stroke="black" points="771,-123.5 771,-142.5 898,-142.5 898,-123.5 771,-123.5"/>
<text text-anchor="middle" x="834.5" y="-130.5" font-family="Helvetica,sans-Serif" font-size="10.00">Interface/gui/matricules.h</text>
</a>
</g>
</g>
<!-- Node23&#45;&gt;Node25 -->
<g id="edge25" class="edge"><title>Node23&#45;&gt;Node25</title>
<path fill="none" stroke="midnightblue" d="M610.692,-177.473C663.232,-167.268 741.939,-151.979 790.656,-142.516"/>
<polygon fill="midnightblue" stroke="midnightblue" points="609.699,-174.101 600.55,-179.444 611.034,-180.972 609.699,-174.101"/>
</g>
<!-- Node27 -->
<g id="node21" class="node"><title>Node27</title>
<g id="a_node21"><a xlink:href="common_8cpp.html" target="_top" xlink:title="Interface/gui/common.cpp">
<polygon fill="white" stroke="black" points="584.5,-123.5 584.5,-142.5 714.5,-142.5 714.5,-123.5 584.5,-123.5"/>
<text text-anchor="middle" x="649.5" y="-130.5" font-family="Helvetica,sans-Serif" font-size="10.00">Interface/gui/common.cpp</text>
</a>
</g>
</g>
<!-- Node23&#45;&gt;Node27 -->
<g id="edge29" class="edge"><title>Node23&#45;&gt;Node27</title>
<path fill="none" stroke="midnightblue" d="M580.306,-174.177C597.419,-164.241 619.965,-151.149 634.595,-142.655"/>
<polygon fill="midnightblue" stroke="midnightblue" points="578.332,-171.276 571.442,-179.324 581.847,-177.329 578.332,-171.276"/>
</g>
<!-- Node24&#45;&gt;Node13 -->
<g id="edge20" class="edge"><title>Node24&#45;&gt;Node13</title>
<path fill="none" stroke="midnightblue" d="M392.554,-120.879C430.9,-110.739 487.517,-95.7665 527.594,-85.1685"/>
<polygon fill="midnightblue" stroke="midnightblue" points="391.51,-117.535 382.737,-123.475 393.3,-124.302 391.51,-117.535"/>
</g>
<!-- Node24&#45;&gt;Node15 -->
<g id="edge21" class="edge"><title>Node24&#45;&gt;Node15</title>
<path fill="none" stroke="midnightblue" d="M343.843,-113.997C339.796,-103.05 334.813,-89.5746 331.646,-81.0091"/>
<polygon fill="midnightblue" stroke="midnightblue" points="340.597,-115.31 347.348,-123.475 347.163,-112.882 340.597,-115.31"/>
</g>
<!-- Node24&#45;&gt;Node17 -->
<g id="edge22" class="edge"><title>Node24&#45;&gt;Node17</title>
<path fill="none" stroke="midnightblue" d="M318.253,-119.933C287.35,-108.368 241.493,-91.2083 214.239,-81.0091"/>
<polygon fill="midnightblue" stroke="midnightblue" points="317.127,-123.248 327.719,-123.475 319.58,-116.692 317.127,-123.248"/>
</g>
<!-- Node25&#45;&gt;Node13 -->
<g id="edge26" class="edge"><title>Node25&#45;&gt;Node13</title>
<path fill="none" stroke="midnightblue" d="M784.176,-121.36C743.028,-112.536 683.382,-99.4633 631.5,-87 628.766,-86.3432 625.96,-85.6566 623.13,-84.9546"/>
<polygon fill="midnightblue" stroke="midnightblue" points="783.451,-124.784 793.962,-123.453 784.915,-117.939 783.451,-124.784"/>
</g>
<!-- Node25&#45;&gt;Node16 -->
<g id="edge27" class="edge"><title>Node25&#45;&gt;Node16</title>
<path fill="none" stroke="midnightblue" d="M844.111,-114.671C850.247,-103.608 857.932,-89.7512 862.781,-81.0091"/>
<polygon fill="midnightblue" stroke="midnightblue" points="841.018,-113.032 839.228,-123.475 847.139,-116.428 841.018,-113.032"/>
</g>
<!-- Node26 -->
<g id="node20" class="node"><title>Node26</title>
<g id="a_node20"><a xlink:href="matricules_8cpp.html" target="_top" xlink:title="Implémentation de la classe MatriculeInput, qui construit un dialogue d&#39;extraction des bulletins...">
<polygon fill="white" stroke="black" points="959,-62 959,-81 1096,-81 1096,-62 959,-62"/>
<text text-anchor="middle" x="1027.5" y="-69" font-family="Helvetica,sans-Serif" font-size="10.00">Interface/gui/matricules.cpp</text>
</a>
</g>
</g>
<!-- Node25&#45;&gt;Node26 -->
<g id="edge28" class="edge"><title>Node25&#45;&gt;Node26</title>
<path fill="none" stroke="midnightblue" d="M871.71,-120.529C909.22,-108.965 966.243,-91.3849 999.899,-81.0091"/>
<polygon fill="midnightblue" stroke="midnightblue" points="870.677,-117.184 862.152,-123.475 872.74,-123.874 870.677,-117.184"/>
</g>
</g>
</svg>
