<?xml version="1.0" encoding="UTF-8" standalone="no"?>
<!DOCTYPE svg PUBLIC "-//W3C//DTD SVG 1.1//EN"
 "http://www.w3.org/Graphics/SVG/1.1/DTD/svg11.dtd">
<!-- Generated by graphviz version 2.40.1 (20161225.0304)
 -->
<!-- Title: decoder_fichier Pages: 1 -->
<svg width="414pt" height="28pt"
 viewBox="0.00 0.00 414.00 28.00" xmlns="http://www.w3.org/2000/svg" xmlns:xlink="http://www.w3.org/1999/xlink">
<g id="graph0" class="graph" transform="scale(1 1) rotate(0) translate(4 24)">
<title>decoder_fichier</title>
<polygon fill="#ffffff" stroke="transparent" points="-4,4 -4,-24 410,-24 410,4 -4,4"/>
<!-- Node13 -->
<g id="node1" class="node">
<title>Node13</title>
<polygon fill="#bfbfbf" stroke="#000000" points="0,-.5 0,-19.5 83,-19.5 83,-.5 0,-.5"/>
<text text-anchor="middle" x="41.5" y="-7.5" font-family="Helvetica,sans-Serif" font-size="10.00" fill="#000000">decoder_fichier</text>
</g>
<!-- Node14 -->
<g id="node2" class="node">
<title>Node14</title>
<g id="a_node2"><a xlink:href="fonctions__auxiliaires_8cpp.html#a6a6eceeeb38bc24fd24e0acb226c1304" target="_top" xlink:title="Calcule la mémoire requise pour l&#39;exécution du programme. ">
<polygon fill="#ffffff" stroke="#000000" points="119,-.5 119,-19.5 249,-19.5 249,-.5 119,-.5"/>
<text text-anchor="middle" x="184" y="-7.5" font-family="Helvetica,sans-Serif" font-size="10.00" fill="#000000">calculer_memoire_requise</text>
</a>
</g>
</g>
<!-- Node13&#45;&gt;Node14 -->
<g id="edge1" class="edge">
<title>Node13&#45;&gt;Node14</title>
<path fill="none" stroke="#191970" d="M83.1,-10C91.1301,-10 99.7719,-10 108.499,-10"/>
<polygon fill="#191970" stroke="#191970" points="108.7515,-13.5001 118.7515,-10 108.7514,-6.5001 108.7515,-13.5001"/>
</g>
<!-- Node15 -->
<g id="node3" class="node">
<title>Node15</title>
<g id="a_node3"><a xlink:href="fonctions__auxiliaires_8cpp.html#a32c99ab7b5fefd5ac69921080ecd95f5" target="_top" xlink:title="Transforme un fichier de type std::ifstream en un std::string. ">
<polygon fill="#ffffff" stroke="#000000" points="285,-.5 285,-19.5 406,-19.5 406,-.5 285,-.5"/>
<text text-anchor="middle" x="345.5" y="-7.5" font-family="Helvetica,sans-Serif" font-size="10.00" fill="#000000">read_stream_into_string</text>
</a>
</g>
</g>
<!-- Node14&#45;&gt;Node15 -->
<g id="edge2" class="edge">
<title>Node14&#45;&gt;Node15</title>
<path fill="none" stroke="#191970" d="M249.2227,-10C257.6248,-10 266.26,-10 274.7456,-10"/>
<polygon fill="#191970" stroke="#191970" points="274.9964,-13.5001 284.9964,-10 274.9963,-6.5001 274.9964,-13.5001"/>
</g>
</g>
</svg>
