<?xml version="1.0" encoding="UTF-8" standalone="no"?>
<!DOCTYPE svg PUBLIC "-//W3C//DTD SVG 1.1//EN"
 "http://www.w3.org/Graphics/SVG/1.1/DTD/svg11.dtd">
<!-- Generated by graphviz version 2.38.0 (20140413.2041)
 -->
<!-- Title: parseFile Pages: 1 -->
<!--zoomable 497 -->
<svg id="main" version="1.1" xmlns="http://www.w3.org/2000/svg" xmlns:xlink="http://www.w3.org/1999/xlink" xml:space="preserve" onload="init(evt)">
<style type="text/css"><![CDATA[
.edge:hover path { stroke: red; }
.edge:hover polygon { stroke: red; fill: red; }
]]></style>
<script type="text/javascript"><![CDATA[
var edges = document.getElementsByTagName('g');
if (edges && edges.length) {
  for (var i=0;i<edges.length;i++) {
    if (edges[i].id.substr(0,4)=='edge') {
      edges[i].setAttribute('class','edge');
    }
  }
}
]]></script>
        <defs>
                <circle id="rim" cx="0" cy="0" r="7"/>
                <circle id="rim2" cx="0" cy="0" r="3.5"/>
                <g id="zoomPlus">
                        <use xlink:href="#rim" fill="#404040">
                                <set attributeName="fill" to="#808080" begin="zoomplus.mouseover" end="zoomplus.mouseout"/>
                        </use>
                        <path d="M-4,0h8M0,-4v8" fill="none" stroke="white" stroke-width="1.5" pointer-events="none"/>
                </g>
                <g id="zoomMin">
                        <use xlink:href="#rim" fill="#404040">
                                <set attributeName="fill" to="#808080" begin="zoomminus.mouseover" end="zoomminus.mouseout"/>
                        </use>
                        <path d="M-4,0h8" fill="none" stroke="white" stroke-width="1.5" pointer-events="none"/>
                </g>
                <g id="dirArrow">
                        <path fill="none" stroke="white" stroke-width="1.5" d="M0,-3.0v7 M-2.5,-0.5L0,-3.0L2.5,-0.5"/>
                </g>
               <g id="resetDef">
                       <use xlink:href="#rim2" fill="#404040">
                               <set attributeName="fill" to="#808080" begin="reset.mouseover" end="reset.mouseout"/>
                       </use>
               </g>
        </defs>

<script type="text/javascript">
var viewWidth = 809;
var viewHeight = 497;
var sectionId = 'dynsection-9';
</script>
<script xlink:href="svgpan.js"/>
<svg id="graph" class="graph">
<g id="viewport">
<title>parseFile</title>
<polygon fill="white" stroke="none" points="-4,4 -4,-493 805,-493 805,4 -4,4"/>
<!-- Node49 -->
<g id="node1" class="node"><title>Node49</title>
<polygon fill="#bfbfbf" stroke="black" points="0,-133.5 0,-152.5 56,-152.5 56,-133.5 0,-133.5"/>
<text text-anchor="middle" x="28" y="-140.5" font-family="Helvetica,sans-Serif" font-size="10.00">parseFile</text>
</g>
<!-- Node50 -->
<g id="node2" class="node"><title>Node50</title>
<g id="a_node2"><a xlink:href="fonctions__auxiliaires_8cpp.html#a595f0eff37a7e74c477ad08221736a0d" target="_top" xlink:title="Fonction d&#39;affichage de des lignes du fichier XML de paye entourant celle où se pose un problème de c...">
<polygon fill="white" stroke="black" points="665,-412.5 665,-431.5 801,-431.5 801,-412.5 665,-412.5"/>
<text text-anchor="middle" x="733" y="-419.5" font-family="Helvetica,sans-Serif" font-size="10.00">afficher_environnement_xhl</text>
</a>
</g>
</g>
<!-- Node49&#45;&gt;Node50 -->
<g id="edge1" class="edge"><title>Node49&#45;&gt;Node50</title>
<path fill="none" stroke="midnightblue" d="M30.7688,-152.615C41.6504,-208.497 104.727,-489 274.5,-489 274.5,-489 274.5,-489 426,-489 526.041,-489 640.311,-454.405 696.705,-434.933"/>
<polygon fill="midnightblue" stroke="midnightblue" points="697.94,-438.208 706.221,-431.599 695.626,-431.602 697.94,-438.208"/>
</g>
<!-- Node51 -->
<g id="node3" class="node"><title>Node51</title>
<g id="a_node3"><a xlink:href="validator_8h.html#ad164d34b6591a52b6e92b087582fe0cb" target="_top" xlink:title="Permet d&#39;atteindre un noeud donné par son libellé de balise XML à partir d&#39;un pointeur XmlNodePtr de ...">
<polygon fill="white" stroke="black" points="691.5,-152.5 691.5,-171.5 774.5,-171.5 774.5,-152.5 691.5,-152.5"/>
<text text-anchor="middle" x="733" y="-159.5" font-family="Helvetica,sans-Serif" font-size="10.00">atteindreNoeud</text>
</a>
</g>
</g>
<!-- Node49&#45;&gt;Node51 -->
<g id="edge2" class="edge"><title>Node49&#45;&gt;Node51</title>
<path fill="none" stroke="midnightblue" d="M56.1934,-146.485C101.419,-151.97 194.987,-162 274.5,-162 274.5,-162 274.5,-162 426,-162 515.893,-162 620.641,-162 681.332,-162"/>
<polygon fill="midnightblue" stroke="midnightblue" points="681.412,-165.5 691.412,-162 681.412,-158.5 681.412,-165.5"/>
</g>
<!-- Node52 -->
<g id="node4" class="node"><title>Node52</title>
<g id="a_node4"><a xlink:href="fonctions__auxiliaires_8cpp.html#ab49257996eb9a8f23f7da4c66838be65" target="_top" xlink:title="Produit un journal d&#39;exécution. ">
<polygon fill="white" stroke="black" points="108.5,-76.5 108.5,-95.5 167.5,-95.5 167.5,-76.5 108.5,-76.5"/>
<text text-anchor="middle" x="138" y="-83.5" font-family="Helvetica,sans-Serif" font-size="10.00">ecrire_log</text>
</a>
</g>
</g>
<!-- Node49&#45;&gt;Node52 -->
<g id="edge3" class="edge"><title>Node49&#45;&gt;Node52</title>
<path fill="none" stroke="midnightblue" d="M43.4276,-133.484C55.9833,-125.402 74.8139,-113.754 92,-105 95.5539,-103.19 99.3208,-101.403 103.102,-99.693"/>
<polygon fill="midnightblue" stroke="midnightblue" points="104.654,-102.835 112.42,-95.6287 101.855,-96.4187 104.654,-102.835"/>
</g>
<!-- Node53 -->
<g id="node5" class="node"><title>Node53</title>
<g id="a_node5"><a xlink:href="validator_8cpp.html#af23e7af258b590af3650be8ab06708be" target="_top" xlink:title="Définit le besoin de mémoire en octets pour un bulletin de paye de données XML (Table) ...">
<polygon fill="white" stroke="black" points="93,-38.5 93,-57.5 183,-57.5 183,-38.5 93,-38.5"/>
<text text-anchor="middle" x="138" y="-45.5" font-family="Helvetica,sans-Serif" font-size="10.00">memoire_p_ligne</text>
</a>
</g>
</g>
<!-- Node49&#45;&gt;Node53 -->
<g id="edge4" class="edge"><title>Node49&#45;&gt;Node53</title>
<path fill="none" stroke="midnightblue" d="M34.8161,-133.325C44.7504,-117.518 66.4139,-86.0135 92,-67 94.2973,-65.2929 96.7709,-63.7056 99.3345,-62.2363"/>
<polygon fill="midnightblue" stroke="midnightblue" points="100.944,-65.3445 108.272,-57.6924 97.7714,-59.1047 100.944,-65.3445"/>
</g>
<!-- Node54 -->
<g id="node6" class="node"><title>Node54</title>
<g id="a_node6"><a xlink:href="validator_8cpp.html#abdf1df3dd61991073a485a3e5d8addd2" target="_top" xlink:title="Lance le décodage des variables Bulletins de paye (Nom, Prenom, Matricule,...) ">
<polygon fill="white" stroke="black" points="92,-114.5 92,-133.5 184,-133.5 184,-114.5 92,-114.5"/>
<text text-anchor="middle" x="138" y="-121.5" font-family="Helvetica,sans-Serif" font-size="10.00">parseLignesPaye</text>
</a>
</g>
</g>
<!-- Node49&#45;&gt;Node54 -->
<g id="edge5" class="edge"><title>Node49&#45;&gt;Node54</title>
<path fill="none" stroke="midnightblue" d="M56.253,-138.205C64.0621,-136.832 72.8696,-135.282 81.7229,-133.725"/>
<polygon fill="midnightblue" stroke="midnightblue" points="82.445,-137.151 91.6872,-131.972 81.232,-130.257 82.445,-137.151"/>
</g>
<!-- Node60 -->
<g id="node12" class="node"><title>Node60</title>
<g id="a_node12"><a xlink:href="ligne__paye_8h.html#a703180379a24b61c33f035b1b8a8f437" target="_top" xlink:title="Affiche un message d&#39;avertissement sur la sortie d&#39;erreur lorsqu&#39;un noeud XML ne peut être atteint...">
<polygon fill="white" stroke="black" points="537,-346.5 537,-365.5 611,-365.5 611,-346.5 537,-346.5"/>
<text text-anchor="middle" x="574" y="-353.5" font-family="Helvetica,sans-Serif" font-size="10.00">warning_msg</text>
</a>
</g>
</g>
<!-- Node49&#45;&gt;Node60 -->
<g id="edge32" class="edge"><title>Node49&#45;&gt;Node60</title>
<path fill="none" stroke="midnightblue" d="M37.3734,-152.718C72.4683,-192.591 213.049,-343.903 367,-394 416.025,-409.953 432.47,-404.23 483,-394 505.582,-389.428 529.54,-379.008 547.055,-370.234"/>
<polygon fill="midnightblue" stroke="midnightblue" points="548.795,-373.275 556.074,-365.577 545.583,-367.056 548.795,-373.275"/>
</g>
<!-- Node54&#45;&gt;Node50 -->
<g id="edge29" class="edge"><title>Node54&#45;&gt;Node50</title>
<path fill="none" stroke="midnightblue" d="M142.002,-133.747C150.622,-160.565 177.587,-236.787 220,-287 272.144,-348.733 291.764,-364.512 367,-394 460.813,-430.769 578.42,-432.734 654.369,-428.902"/>
<polygon fill="midnightblue" stroke="midnightblue" points="655.011,-432.372 664.803,-428.326 654.625,-425.383 655.011,-432.372"/>
</g>
<!-- Node54&#45;&gt;Node51 -->
<g id="edge6" class="edge"><title>Node54&#45;&gt;Node51</title>
<path fill="none" stroke="midnightblue" d="M184.017,-124.909C270.439,-126.94 465.527,-132.915 629,-148 646.114,-149.579 664.749,-151.921 681.405,-154.239"/>
<polygon fill="midnightblue" stroke="midnightblue" points="681.095,-157.73 691.489,-155.673 682.081,-150.8 681.095,-157.73"/>
</g>
<!-- Node55 -->
<g id="node7" class="node"><title>Node55</title>
<g id="a_node7"><a xlink:href="ligne__paye_8cpp.html#a1387e6beec261819622addf319a581c7" target="_top" xlink:title="Concatène la propriété &quot;V&quot; du noeud cur passé en premier argument avec la chaîne contenue de la table...">
<polygon fill="white" stroke="black" points="551,-76.5 551,-95.5 597,-95.5 597,-76.5 551,-76.5"/>
<text text-anchor="middle" x="574" y="-83.5" font-family="Helvetica,sans-Serif" font-size="10.00">concat</text>
</a>
</g>
</g>
<!-- Node54&#45;&gt;Node55 -->
<g id="edge7" class="edge"><title>Node54&#45;&gt;Node55</title>
<path fill="none" stroke="midnightblue" d="M184.289,-115.323C195.895,-113.333 208.381,-111.395 220,-110 337.612,-95.8762 478.342,-89.4123 540.621,-87.0826"/>
<polygon fill="midnightblue" stroke="midnightblue" points="540.757,-90.58 550.623,-86.719 540.502,-83.5847 540.757,-90.58"/>
</g>
<!-- Node57 -->
<g id="node9" class="node"><title>Node57</title>
<g id="a_node9"><a xlink:href="ligne__paye_8cpp.html#ab0033809d3d04a56bf668e6722da255c" target="_top" xlink:title="Analyse les noeuds fils du noeud. ">
<polygon fill="white" stroke="black" points="246,-258.5 246,-277.5 305,-277.5 305,-258.5 246,-258.5"/>
<text text-anchor="middle" x="275.5" y="-265.5" font-family="Helvetica,sans-Serif" font-size="10.00">lignePaye</text>
</a>
</g>
</g>
<!-- Node54&#45;&gt;Node57 -->
<g id="edge9" class="edge"><title>Node54&#45;&gt;Node57</title>
<path fill="none" stroke="midnightblue" d="M148.313,-133.898C171.146,-158.163 230.116,-220.832 258.615,-251.119"/>
<polygon fill="midnightblue" stroke="midnightblue" points="256.076,-253.528 265.478,-258.412 261.174,-248.731 256.076,-253.528"/>
</g>
<!-- Node66 -->
<g id="node18" class="node"><title>Node66</title>
<g id="a_node18"><a xlink:href="ligne__paye_8cpp.html#a6703d71fd67ea3e020d421379d894d87" target="_top" xlink:title="Teste si il y a un montant brut ou net payé ou remboursé non nul mais pas de ligne de paye détaillant...">
<polygon fill="white" stroke="black" points="220,-38.5 220,-57.5 331,-57.5 331,-38.5 220,-38.5"/>
<text text-anchor="middle" x="275.5" y="-45.5" font-family="Helvetica,sans-Serif" font-size="10.00">test_bulletin_irregulier</text>
</a>
</g>
</g>
<!-- Node54&#45;&gt;Node66 -->
<g id="edge30" class="edge"><title>Node54&#45;&gt;Node66</title>
<path fill="none" stroke="midnightblue" d="M165.94,-114.4C172.082,-111.733 178.434,-108.574 184,-105 202.265,-93.2739 201.825,-83.8655 220,-72 225.816,-68.2027 232.334,-64.7455 238.784,-61.7114"/>
<polygon fill="midnightblue" stroke="midnightblue" points="240.375,-64.8344 248.095,-57.5785 237.535,-58.4362 240.375,-64.8344"/>
</g>
<!-- Node67 -->
<g id="node19" class="node"><title>Node67</title>
<g id="a_node19"><a xlink:href="ligne__paye_8cpp.html#a96d1e754fa36a716b5cd2fab2ab93fdc" target="_top" xlink:title="Réalloue un ligne de paye en NA sur les variables propres aux lignes de paye (Code, Libellé, Base,...) ">
<polygon fill="white" stroke="black" points="230.5,-0.5 230.5,-19.5 320.5,-19.5 320.5,-0.5 230.5,-0.5"/>
<text text-anchor="middle" x="275.5" y="-7.5" font-family="Helvetica,sans-Serif" font-size="10.00">allouer_ligne_NA</text>
</a>
</g>
</g>
<!-- Node54&#45;&gt;Node67 -->
<g id="edge31" class="edge"><title>Node54&#45;&gt;Node67</title>
<path fill="none" stroke="midnightblue" d="M170.355,-114.305C175.309,-111.819 180.081,-108.755 184,-105 210.989,-79.1438 192.197,-53.9785 220,-29 221.891,-27.3007 223.943,-25.7516 226.105,-24.3397"/>
<polygon fill="midnightblue" stroke="midnightblue" points="227.785,-27.4106 234.884,-19.5457 224.429,-21.267 227.785,-27.4106"/>
</g>
<!-- Node56 -->
<g id="node8" class="node"><title>Node56</title>
<g id="a_node8"><a xlink:href="ligne__paye_8cpp.html#a6044ec3fae81f42425539be4d999edd4" target="_top" xlink:title="Remplace les occurrences d&#39;un caractère à l&#39;intérieur d&#39;une chaîne xmlChar* par le &#160;caractère &#39;_&#39;...">
<polygon fill="white" stroke="black" points="708,-95.5 708,-114.5 758,-114.5 758,-95.5 708,-95.5"/>
<text text-anchor="middle" x="733" y="-102.5" font-family="Helvetica,sans-Serif" font-size="10.00">sanitize</text>
</a>
</g>
</g>
<!-- Node55&#45;&gt;Node56 -->
<g id="edge8" class="edge"><title>Node55&#45;&gt;Node56</title>
<path fill="none" stroke="midnightblue" d="M597.161,-88.6819C623.323,-91.848 667.129,-97.1493 697.686,-100.847"/>
<polygon fill="midnightblue" stroke="midnightblue" points="697.544,-104.356 707.892,-102.082 698.385,-97.4063 697.544,-104.356"/>
</g>
<!-- Node58 -->
<g id="node10" class="node"><title>Node58</title>
<g id="a_node10"><a xlink:href="ligne__paye_8cpp.html#a45ce15888cd33c4753e852fce36fb56e" target="_top" xlink:title="Appelle Bulletin et affiche l&#39;interprétation des erreurs. ">
<polygon fill="white" stroke="black" points="376.5,-365.5 376.5,-384.5 473.5,-384.5 473.5,-365.5 376.5,-365.5"/>
<text text-anchor="middle" x="425" y="-372.5" font-family="Helvetica,sans-Serif" font-size="10.00">bulletin_obligatoire</text>
</a>
</g>
</g>
<!-- Node57&#45;&gt;Node58 -->
<g id="edge10" class="edge"><title>Node57&#45;&gt;Node58</title>
<path fill="none" stroke="midnightblue" d="M283.901,-277.649C298.12,-295.565 331.053,-334.13 367,-356 370.411,-358.075 374.077,-359.955 377.845,-361.651"/>
<polygon fill="midnightblue" stroke="midnightblue" points="376.751,-364.984 387.334,-365.495 379.38,-358.496 376.751,-364.984"/>
</g>
<!-- Node61 -->
<g id="node13" class="node"><title>Node61</title>
<g id="a_node13"><a xlink:href="ligne__paye_8cpp.html#a8636e0f8d6d7fce58969c36956342c90" target="_top" xlink:title="Appelle Bulletin. ">
<polygon fill="white" stroke="black" points="376.5,-278 376.5,-308 473.5,-308 473.5,-278 376.5,-278"/>
<text text-anchor="start" x="384.5" y="-296" font-family="Helvetica,sans-Serif" font-size="10.00">bulletin_obligatoire</text>
<text text-anchor="middle" x="425" y="-285" font-family="Helvetica,sans-Serif" font-size="10.00">_numerique</text>
</a>
</g>
</g>
<!-- Node57&#45;&gt;Node61 -->
<g id="edge17" class="edge"><title>Node57&#45;&gt;Node61</title>
<path fill="none" stroke="midnightblue" d="M305.29,-272.88C322.653,-275.823 345.394,-279.677 366.32,-283.224"/>
<polygon fill="midnightblue" stroke="midnightblue" points="365.971,-286.714 376.416,-284.935 367.141,-279.813 365.971,-286.714"/>
</g>
<!-- Node63 -->
<g id="node15" class="node"><title>Node63</title>
<g id="a_node15"><a xlink:href="ligne__paye_8cpp.html#a4a91586d82e91ad3e3c02355b57c9e09" target="_top" xlink:title="Appelle Bulletin. ">
<polygon fill="white" stroke="black" points="367,-327.5 367,-346.5 483,-346.5 483,-327.5 367,-327.5"/>
<text text-anchor="middle" x="425" y="-334.5" font-family="Helvetica,sans-Serif" font-size="10.00">bulletin_optionnel_char</text>
</a>
</g>
</g>
<!-- Node57&#45;&gt;Node63 -->
<g id="edge21" class="edge"><title>Node57&#45;&gt;Node63</title>
<path fill="none" stroke="midnightblue" d="M292.458,-277.648C310.24,-288.159 340.044,-305.064 367,-317 372.529,-319.448 378.458,-321.808 384.328,-323.995"/>
<polygon fill="midnightblue" stroke="midnightblue" points="383.473,-327.407 394.068,-327.498 385.842,-320.82 383.473,-327.407"/>
</g>
<!-- Node64 -->
<g id="node16" class="node"><title>Node64</title>
<g id="a_node16"><a xlink:href="ligne__paye_8cpp.html#a9ddbe10974c6bd265152624a68cd0580" target="_top" xlink:title="Appelle Bulletin. ">
<polygon fill="white" stroke="black" points="379,-229 379,-259 471,-259 471,-229 379,-229"/>
<text text-anchor="start" x="387" y="-247" font-family="Helvetica,sans-Serif" font-size="10.00">bulletin_optionnel</text>
<text text-anchor="middle" x="425" y="-236" font-family="Helvetica,sans-Serif" font-size="10.00">_numerique</text>
</a>
</g>
</g>
<!-- Node57&#45;&gt;Node64 -->
<g id="edge24" class="edge"><title>Node57&#45;&gt;Node64</title>
<path fill="none" stroke="midnightblue" d="M305.29,-263.316C323.311,-260.383 347.125,-256.508 368.691,-252.999"/>
<polygon fill="midnightblue" stroke="midnightblue" points="369.428,-256.426 378.736,-251.365 368.303,-249.517 369.428,-256.426"/>
</g>
<!-- Node65 -->
<g id="node17" class="node"><title>Node65</title>
<g id="a_node17"><a xlink:href="ligne__paye_8h.html#a1918a95b8d7eafcb07bcf867242b3514" target="_top" xlink:title="Vérifie que la taille des données de paye en nombre de lignes de paye au décodage effectif des fichie...">
<polygon fill="white" stroke="black" points="389.5,-190.5 389.5,-209.5 460.5,-209.5 460.5,-190.5 389.5,-190.5"/>
<text text-anchor="middle" x="425" y="-197.5" font-family="Helvetica,sans-Serif" font-size="10.00">verifier_taille</text>
</a>
</g>
</g>
<!-- Node57&#45;&gt;Node65 -->
<g id="edge28" class="edge"><title>Node57&#45;&gt;Node65</title>
<path fill="none" stroke="midnightblue" d="M292.101,-258.463C309.813,-247.897 339.787,-230.795 367,-219 371.841,-216.902 376.994,-214.891 382.146,-213.015"/>
<polygon fill="midnightblue" stroke="midnightblue" points="383.685,-216.185 391.973,-209.586 381.378,-209.576 383.685,-216.185"/>
</g>
<!-- Node58&#45;&gt;Node50 -->
<g id="edge11" class="edge"><title>Node58&#45;&gt;Node50</title>
<path fill="none" stroke="midnightblue" d="M473.812,-382.344C523.683,-390.004 602.451,-402.102 659.881,-410.923"/>
<polygon fill="midnightblue" stroke="midnightblue" points="659.569,-414.416 669.984,-412.475 660.631,-407.497 659.569,-414.416"/>
</g>
<!-- Node59 -->
<g id="node11" class="node"><title>Node59</title>
<g id="a_node11"><a xlink:href="ligne__paye_8cpp.html#a8720dbeccf4eabbc5ffa9d7be551a7a5" target="_top" xlink:title="Atteint le prochain noeud de libellé donné, après un saut éventuel, et le lit. ">
<polygon fill="white" stroke="black" points="549.5,-281.5 549.5,-300.5 598.5,-300.5 598.5,-281.5 549.5,-281.5"/>
<text text-anchor="middle" x="574" y="-288.5" font-family="Helvetica,sans-Serif" font-size="10.00">Bulletin</text>
</a>
</g>
</g>
<!-- Node58&#45;&gt;Node59 -->
<g id="edge12" class="edge"><title>Node58&#45;&gt;Node59</title>
<path fill="none" stroke="midnightblue" d="M460.148,-365.496C467.847,-362.842 475.852,-359.663 483,-356 509.533,-342.401 536.861,-321.504 554.336,-307.094"/>
<polygon fill="midnightblue" stroke="midnightblue" points="556.664,-309.709 562.077,-300.601 552.166,-304.346 556.664,-309.709"/>
</g>
<!-- Node58&#45;&gt;Node60 -->
<g id="edge15" class="edge"><title>Node58&#45;&gt;Node60</title>
<path fill="none" stroke="midnightblue" d="M473.727,-368.831C490.666,-366.642 509.697,-364.182 526.531,-362.006"/>
<polygon fill="midnightblue" stroke="midnightblue" points="527.221,-365.446 536.689,-360.693 526.323,-358.504 527.221,-365.446"/>
</g>
<!-- Node59&#45;&gt;Node51 -->
<g id="edge13" class="edge"><title>Node59&#45;&gt;Node51</title>
<path fill="none" stroke="midnightblue" d="M598.663,-283.791C608.516,-280.188 619.782,-275.248 629,-269 666.309,-243.713 700.689,-203.073 718.746,-179.835"/>
<polygon fill="midnightblue" stroke="midnightblue" points="721.762,-181.652 725.042,-171.577 716.196,-177.407 721.762,-181.652"/>
</g>
<!-- Node59&#45;&gt;Node56 -->
<g id="edge14" class="edge"><title>Node59&#45;&gt;Node56</title>
<path fill="none" stroke="midnightblue" d="M598.751,-286.301C609.337,-283.078 621.159,-277.742 629,-269 667.887,-225.644 628.989,-188.774 665,-143 673.612,-132.053 686.307,-123.724 698.337,-117.694"/>
<polygon fill="midnightblue" stroke="midnightblue" points="700.141,-120.716 707.752,-113.345 697.206,-114.361 700.141,-120.716"/>
</g>
<!-- Node60&#45;&gt;Node50 -->
<g id="edge16" class="edge"><title>Node60&#45;&gt;Node50</title>
<path fill="none" stroke="midnightblue" d="M597.829,-365.597C624.765,-376.92 669.718,-395.818 700.091,-408.586"/>
<polygon fill="midnightblue" stroke="midnightblue" points="698.823,-411.85 709.398,-412.499 701.536,-405.397 698.823,-411.85"/>
</g>
<!-- Node61&#45;&gt;Node59 -->
<g id="edge18" class="edge"><title>Node61&#45;&gt;Node59</title>
<path fill="none" stroke="midnightblue" d="M473.727,-292.351C495.089,-292.06 519.776,-291.724 539.188,-291.46"/>
<polygon fill="midnightblue" stroke="midnightblue" points="539.424,-294.957 549.376,-291.321 539.329,-287.958 539.424,-294.957"/>
</g>
<!-- Node61&#45;&gt;Node60 -->
<g id="edge20" class="edge"><title>Node61&#45;&gt;Node60</title>
<path fill="none" stroke="midnightblue" d="M461.21,-308.09C485.547,-318.52 517.655,-332.281 541.214,-342.377"/>
<polygon fill="midnightblue" stroke="midnightblue" points="539.852,-345.602 550.422,-346.324 542.61,-339.168 539.852,-345.602"/>
</g>
<!-- Node62 -->
<g id="node14" class="node"><title>Node62</title>
<g id="a_node14"><a xlink:href="ligne__paye_8cpp.html#a5342d9b40b92c978ff404415b691e059" target="_top" xlink:title="Substitue le séparateur décimal passé en paramètre au séparateur par défaut (.) ">
<polygon fill="white" stroke="black" points="519,-230 519,-260 629,-260 629,-230 519,-230"/>
<text text-anchor="start" x="527" y="-248" font-family="Helvetica,sans-Serif" font-size="10.00">substituer_separateur</text>
<text text-anchor="middle" x="574" y="-237" font-family="Helvetica,sans-Serif" font-size="10.00">_decimal</text>
</a>
</g>
</g>
<!-- Node61&#45;&gt;Node62 -->
<g id="edge19" class="edge"><title>Node61&#45;&gt;Node62</title>
<path fill="none" stroke="midnightblue" d="M472.108,-277.944C486.475,-273.253 502.471,-268.03 517.415,-263.15"/>
<polygon fill="midnightblue" stroke="midnightblue" points="518.636,-266.434 527.055,-260.002 516.463,-259.779 518.636,-266.434"/>
</g>
<!-- Node63&#45;&gt;Node59 -->
<g id="edge22" class="edge"><title>Node63&#45;&gt;Node59</title>
<path fill="none" stroke="midnightblue" d="M456.458,-327.469C480.702,-319.882 514.591,-309.278 539.579,-301.458"/>
<polygon fill="midnightblue" stroke="midnightblue" points="540.853,-304.727 549.351,-298.4 538.762,-298.047 540.853,-304.727"/>
</g>
<!-- Node63&#45;&gt;Node60 -->
<g id="edge23" class="edge"><title>Node63&#45;&gt;Node60</title>
<path fill="none" stroke="midnightblue" d="M483.255,-344.4C497.645,-346.26 512.909,-348.233 526.689,-350.014"/>
<polygon fill="midnightblue" stroke="midnightblue" points="526.532,-353.523 536.899,-351.334 527.43,-346.581 526.532,-353.523"/>
</g>
<!-- Node64&#45;&gt;Node59 -->
<g id="edge25" class="edge"><title>Node64&#45;&gt;Node59</title>
<path fill="none" stroke="midnightblue" d="M471.304,-258.485C493.387,-265.546 519.473,-273.886 539.696,-280.352"/>
<polygon fill="midnightblue" stroke="midnightblue" points="538.805,-283.741 549.396,-283.453 540.937,-277.074 538.805,-283.741"/>
</g>
<!-- Node64&#45;&gt;Node60 -->
<g id="edge27" class="edge"><title>Node64&#45;&gt;Node60</title>
<path fill="none" stroke="midnightblue" d="M468.01,-259.012C473.266,-261.652 478.403,-264.646 483,-268 502.861,-282.491 501.589,-292.642 519,-310 529.598,-320.566 542.302,-331.465 552.724,-340.001"/>
<polygon fill="midnightblue" stroke="midnightblue" points="550.531,-342.729 560.51,-346.289 554.929,-337.283 550.531,-342.729"/>
</g>
<!-- Node64&#45;&gt;Node62 -->
<g id="edge26" class="edge"><title>Node64&#45;&gt;Node62</title>
<path fill="none" stroke="midnightblue" d="M471.304,-244.308C483.153,-244.389 496.154,-244.477 508.783,-244.563"/>
<polygon fill="midnightblue" stroke="midnightblue" points="508.779,-248.063 518.803,-244.631 508.827,-241.063 508.779,-248.063"/>
</g>
</g>
</svg>
        <g id="navigator" transform="translate(0 0)" fill="#404254">
                <rect fill="#f2f5e9" fill-opacity="0.5" stroke="#606060" stroke-width=".5" x="0" y="0" width="60" height="60"/>
                <use id="zoomplus" xlink:href="#zoomPlus" x="17" y="9" onmousedown="handleZoom(evt,'in')"/>
                <use id="zoomminus" xlink:href="#zoomMin" x="42" y="9" onmousedown="handleZoom(evt,'out')"/>
                <use id="reset" xlink:href="#resetDef" x="30" y="36" onmousedown="handleReset()"/>
                <g id="arrowUp" xlink:href="#dirArrow" transform="translate(30 24)" onmousedown="handlePan(0,-1)">
                  <use xlink:href="#rim" fill="#404040">
                        <set attributeName="fill" to="#808080" begin="arrowUp.mouseover" end="arrowUp.mouseout"/>
                  </use>
                  <path fill="none" stroke="white" stroke-width="1.5" d="M0,-3.0v7 M-2.5,-0.5L0,-3.0L2.5,-0.5"/>
                </g>
                <g id="arrowRight" xlink:href="#dirArrow" transform="rotate(90) translate(36 -43)" onmousedown="handlePan(1,0)">
                  <use xlink:href="#rim" fill="#404040">
                        <set attributeName="fill" to="#808080" begin="arrowRight.mouseover" end="arrowRight.mouseout"/>
                  </use>
                  <path fill="none" stroke="white" stroke-width="1.5" d="M0,-3.0v7 M-2.5,-0.5L0,-3.0L2.5,-0.5"/>
                </g>
                <g id="arrowDown" xlink:href="#dirArrow" transform="rotate(180) translate(-30 -48)" onmousedown="handlePan(0,1)">
                  <use xlink:href="#rim" fill="#404040">
                        <set attributeName="fill" to="#808080" begin="arrowDown.mouseover" end="arrowDown.mouseout"/>
                  </use>
                  <path fill="none" stroke="white" stroke-width="1.5" d="M0,-3.0v7 M-2.5,-0.5L0,-3.0L2.5,-0.5"/>
                </g>
                <g id="arrowLeft" xlink:href="#dirArrow" transform="rotate(270) translate(-36 17)" onmousedown="handlePan(-1,0)">
                  <use xlink:href="#rim" fill="#404040">
                        <set attributeName="fill" to="#808080" begin="arrowLeft.mouseover" end="arrowLeft.mouseout"/>
                  </use>
                  <path fill="none" stroke="white" stroke-width="1.5" d="M0,-3.0v7 M-2.5,-0.5L0,-3.0L2.5,-0.5"/>
                </g>
        </g>
        <svg viewBox="0 0 15 15" width="100%" height="30px" preserveAspectRatio="xMaxYMin meet">
         <g id="arrow_out" transform="scale(0.3 0.3)">
          <a xlink:href="validator_8cpp_ae1ac2699ac4449a4a9a16b0e37234b35_cgraph_org.svg" target="_base">
           <rect id="button" ry="5" rx="5" y="6" x="6" height="38" width="38"
                fill="#f2f5e9" fill-opacity="0.5" stroke="#606060" stroke-width="1.0"/>
           <path id="arrow"
             d="M 11.500037,31.436501 C 11.940474,20.09759 22.043105,11.32322 32.158766,21.979434 L 37.068811,17.246167 C 37.068811,17.246167 37.088388,32 37.088388,32 L 22.160133,31.978069 C 22.160133,31.978069 26.997745,27.140456 26.997745,27.140456 C 18.528582,18.264221 13.291696,25.230495 11.500037,31.436501 z"
             style="fill:#404040;"/>
          </a>
         </g>
        </svg>
</svg>
