<?xml version="1.0" encoding="UTF-8" standalone="no"?>
<!DOCTYPE svg PUBLIC "-//W3C//DTD SVG 1.1//EN"
 "http://www.w3.org/Graphics/SVG/1.1/DTD/svg11.dtd">
<!-- Generated by graphviz version 2.38.0 (20140413.2041)
 -->
<!-- Title: lhx/validator.h Pages: 1 -->
<svg width="1536pt" height="196pt"
 viewBox="0.00 0.00 1535.50 196.00" xmlns="http://www.w3.org/2000/svg" xmlns:xlink="http://www.w3.org/1999/xlink">
<g id="graph0" class="graph" transform="scale(1 1) rotate(0) translate(4 192)">
<title>lhx/validator.h</title>
<polygon fill="white" stroke="none" points="-4,4 -4,-192 1531.5,-192 1531.5,4 -4,4"/>
<!-- Node0 -->
<g id="node1" class="node"><title>Node0</title>
<polygon fill="#bfbfbf" stroke="black" points="652,-168.5 652,-187.5 729,-187.5 729,-168.5 652,-168.5"/>
<text text-anchor="middle" x="690.5" y="-175.5" font-family="Helvetica,sans-Serif" font-size="10.00">lhx/validator.h</text>
</g>
<!-- Node1 -->
<g id="node2" class="node"><title>Node1</title>
<polygon fill="white" stroke="#bfbfbf" points="0,-112.5 0,-131.5 41,-131.5 41,-112.5 0,-112.5"/>
<text text-anchor="middle" x="20.5" y="-119.5" font-family="Helvetica,sans-Serif" font-size="10.00">string</text>
</g>
<!-- Node0&#45;&gt;Node1 -->
<g id="edge1" class="edge"><title>Node0&#45;&gt;Node1</title>
<path fill="none" stroke="midnightblue" d="M651.897,-177.243C553.158,-177.238 283.448,-173.28 51.0029,-131.624"/>
<polygon fill="midnightblue" stroke="midnightblue" points="51.4755,-128.153 41.0104,-129.806 50.2221,-135.039 51.4755,-128.153"/>
</g>
<!-- Node2 -->
<g id="node3" class="node"><title>Node2</title>
<polygon fill="white" stroke="#bfbfbf" points="59,-112.5 59,-131.5 104,-131.5 104,-112.5 59,-112.5"/>
<text text-anchor="middle" x="81.5" y="-119.5" font-family="Helvetica,sans-Serif" font-size="10.00">cstdlib</text>
</g>
<!-- Node0&#45;&gt;Node2 -->
<g id="edge2" class="edge"><title>Node0&#45;&gt;Node2</title>
<path fill="none" stroke="midnightblue" d="M651.68,-176.593C559.721,-175.071 321.426,-167.856 113.954,-131.692"/>
<polygon fill="midnightblue" stroke="midnightblue" points="114.555,-128.245 104.098,-129.948 113.335,-135.137 114.555,-128.245"/>
</g>
<!-- Node3 -->
<g id="node4" class="node"><title>Node3</title>
<polygon fill="white" stroke="#bfbfbf" points="122.5,-112.5 122.5,-131.5 168.5,-131.5 168.5,-112.5 122.5,-112.5"/>
<text text-anchor="middle" x="145.5" y="-119.5" font-family="Helvetica,sans-Serif" font-size="10.00">cstdint</text>
</g>
<!-- Node0&#45;&gt;Node3 -->
<g id="edge3" class="edge"><title>Node0&#45;&gt;Node3</title>
<path fill="none" stroke="midnightblue" d="M651.975,-175.96C567.805,-173.188 361.163,-163.651 178.855,-131.7"/>
<polygon fill="midnightblue" stroke="midnightblue" points="179.277,-128.22 168.818,-129.913 178.05,-135.111 179.277,-128.22"/>
</g>
<!-- Node4 -->
<g id="node5" class="node"><title>Node4</title>
<polygon fill="white" stroke="#bfbfbf" points="187,-112.5 187,-131.5 240,-131.5 240,-112.5 187,-112.5"/>
<text text-anchor="middle" x="213.5" y="-119.5" font-family="Helvetica,sans-Serif" font-size="10.00">cstdbool</text>
</g>
<!-- Node0&#45;&gt;Node4 -->
<g id="edge4" class="edge"><title>Node0&#45;&gt;Node4</title>
<path fill="none" stroke="midnightblue" d="M651.903,-174.926C576.561,-170.477 404.545,-158.352 250.28,-131.878"/>
<polygon fill="midnightblue" stroke="midnightblue" points="250.597,-128.381 240.145,-130.113 249.397,-135.277 250.597,-128.381"/>
</g>
<!-- Node5 -->
<g id="node6" class="node"><title>Node5</title>
<polygon fill="white" stroke="#bfbfbf" points="258,-112.5 258,-131.5 303,-131.5 303,-112.5 258,-112.5"/>
<text text-anchor="middle" x="280.5" y="-119.5" font-family="Helvetica,sans-Serif" font-size="10.00">climits</text>
</g>
<!-- Node0&#45;&gt;Node5 -->
<g id="edge5" class="edge"><title>Node0&#45;&gt;Node5</title>
<path fill="none" stroke="midnightblue" d="M651.825,-174.393C584.794,-169.445 442.628,-157.049 313.208,-131.829"/>
<polygon fill="midnightblue" stroke="midnightblue" points="313.609,-128.341 303.12,-129.832 312.25,-135.208 313.609,-128.341"/>
</g>
<!-- Node6 -->
<g id="node7" class="node"><title>Node6</title>
<polygon fill="white" stroke="#bfbfbf" points="321,-112.5 321,-131.5 368,-131.5 368,-112.5 321,-112.5"/>
<text text-anchor="middle" x="344.5" y="-119.5" font-family="Helvetica,sans-Serif" font-size="10.00">clocale</text>
</g>
<!-- Node0&#45;&gt;Node6 -->
<g id="edge6" class="edge"><title>Node0&#45;&gt;Node6</title>
<path fill="none" stroke="midnightblue" d="M651.684,-172.98C594.117,-166.68 482.586,-153.172 378.278,-131.923"/>
<polygon fill="midnightblue" stroke="midnightblue" points="378.71,-128.438 368.208,-129.842 377.293,-135.293 378.71,-128.438"/>
</g>
<!-- Node7 -->
<g id="node8" class="node"><title>Node7</title>
<polygon fill="white" stroke="#bfbfbf" points="386.5,-112.5 386.5,-131.5 430.5,-131.5 430.5,-112.5 386.5,-112.5"/>
<text text-anchor="middle" x="408.5" y="-119.5" font-family="Helvetica,sans-Serif" font-size="10.00">cerrno</text>
</g>
<!-- Node0&#45;&gt;Node7 -->
<g id="edge7" class="edge"><title>Node0&#45;&gt;Node7</title>
<path fill="none" stroke="midnightblue" d="M651.972,-171.382C604.416,-164.165 520.92,-150.574 440.559,-132.054"/>
<polygon fill="midnightblue" stroke="midnightblue" points="441.311,-128.636 430.777,-129.771 439.72,-135.453 441.311,-128.636"/>
</g>
<!-- Node8 -->
<g id="node9" class="node"><title>Node8</title>
<polygon fill="white" stroke="#bfbfbf" points="448.5,-112.5 448.5,-131.5 492.5,-131.5 492.5,-112.5 448.5,-112.5"/>
<text text-anchor="middle" x="470.5" y="-119.5" font-family="Helvetica,sans-Serif" font-size="10.00">cmath</text>
</g>
<!-- Node0&#45;&gt;Node8 -->
<g id="edge8" class="edge"><title>Node0&#45;&gt;Node8</title>
<path fill="none" stroke="midnightblue" d="M652.353,-168.493C616.176,-160.297 560.074,-147.259 502.769,-132.245"/>
<polygon fill="midnightblue" stroke="midnightblue" points="503.377,-128.785 492.815,-129.62 501.592,-135.554 503.377,-128.785"/>
</g>
<!-- Node9 -->
<g id="node10" class="node"><title>Node9</title>
<polygon fill="white" stroke="#bfbfbf" points="510.5,-112.5 510.5,-131.5 556.5,-131.5 556.5,-112.5 510.5,-112.5"/>
<text text-anchor="middle" x="533.5" y="-119.5" font-family="Helvetica,sans-Serif" font-size="10.00">cstring</text>
</g>
<!-- Node0&#45;&gt;Node9 -->
<g id="edge9" class="edge"><title>Node0&#45;&gt;Node9</title>
<path fill="none" stroke="midnightblue" d="M665.623,-168.444C638.745,-159.199 595.8,-144.428 566.207,-134.25"/>
<polygon fill="midnightblue" stroke="midnightblue" points="567.32,-130.931 556.725,-130.988 565.043,-137.551 567.32,-130.931"/>
</g>
<!-- Node10 -->
<g id="node11" class="node"><title>Node10</title>
<polygon fill="white" stroke="#bfbfbf" points="574.5,-112.5 574.5,-131.5 620.5,-131.5 620.5,-112.5 574.5,-112.5"/>
<text text-anchor="middle" x="597.5" y="-119.5" font-family="Helvetica,sans-Serif" font-size="10.00">cctype</text>
</g>
<!-- Node0&#45;&gt;Node10 -->
<g id="edge10" class="edge"><title>Node0&#45;&gt;Node10</title>
<path fill="none" stroke="midnightblue" d="M675.558,-168.324C660.915,-159.822 638.366,-146.729 621.262,-136.797"/>
<polygon fill="midnightblue" stroke="midnightblue" points="622.81,-133.649 612.405,-131.655 619.295,-139.703 622.81,-133.649"/>
</g>
<!-- Node11 -->
<g id="node12" class="node"><title>Node11</title>
<polygon fill="white" stroke="#bfbfbf" points="638.5,-112.5 638.5,-131.5 742.5,-131.5 742.5,-112.5 638.5,-112.5"/>
<text text-anchor="middle" x="690.5" y="-119.5" font-family="Helvetica,sans-Serif" font-size="10.00">libxml/xmlmemory.h</text>
</g>
<!-- Node0&#45;&gt;Node11 -->
<g id="edge11" class="edge"><title>Node0&#45;&gt;Node11</title>
<path fill="none" stroke="midnightblue" d="M690.5,-168.083C690.5,-161.006 690.5,-150.861 690.5,-141.986"/>
<polygon fill="midnightblue" stroke="midnightblue" points="694,-141.751 690.5,-131.751 687,-141.751 694,-141.751"/>
</g>
<!-- Node12 -->
<g id="node13" class="node"><title>Node12</title>
<polygon fill="white" stroke="#bfbfbf" points="760.5,-112.5 760.5,-131.5 840.5,-131.5 840.5,-112.5 760.5,-112.5"/>
<text text-anchor="middle" x="800.5" y="-119.5" font-family="Helvetica,sans-Serif" font-size="10.00">libxml/parser.h</text>
</g>
<!-- Node0&#45;&gt;Node12 -->
<g id="edge12" class="edge"><title>Node0&#45;&gt;Node12</title>
<path fill="none" stroke="midnightblue" d="M708.173,-168.324C725.894,-159.625 753.403,-146.12 773.788,-136.113"/>
<polygon fill="midnightblue" stroke="midnightblue" points="775.436,-139.203 782.87,-131.655 772.351,-132.919 775.436,-139.203"/>
</g>
<!-- Node13 -->
<g id="node14" class="node"><title>Node13</title>
<polygon fill="white" stroke="#bfbfbf" points="858.5,-112.5 858.5,-131.5 914.5,-131.5 914.5,-112.5 858.5,-112.5"/>
<text text-anchor="middle" x="886.5" y="-119.5" font-family="Helvetica,sans-Serif" font-size="10.00">cinttypes</text>
</g>
<!-- Node0&#45;&gt;Node13 -->
<g id="edge13" class="edge"><title>Node0&#45;&gt;Node13</title>
<path fill="none" stroke="midnightblue" d="M721.557,-168.444C755.991,-158.956 811.548,-143.65 848.539,-133.459"/>
<polygon fill="midnightblue" stroke="midnightblue" points="849.735,-136.76 858.446,-130.729 847.876,-130.011 849.735,-136.76"/>
</g>
<!-- Node14 -->
<g id="node15" class="node"><title>Node14</title>
<polygon fill="white" stroke="#bfbfbf" points="932.5,-112.5 932.5,-131.5 976.5,-131.5 976.5,-112.5 932.5,-112.5"/>
<text text-anchor="middle" x="954.5" y="-119.5" font-family="Helvetica,sans-Serif" font-size="10.00">vector</text>
</g>
<!-- Node0&#45;&gt;Node14 -->
<g id="edge14" class="edge"><title>Node0&#45;&gt;Node14</title>
<path fill="none" stroke="midnightblue" d="M729.077,-170.667C773.486,-163.131 848.79,-149.6 922.324,-132.114"/>
<polygon fill="midnightblue" stroke="midnightblue" points="923.31,-135.477 932.214,-129.735 921.673,-128.671 923.31,-135.477"/>
</g>
<!-- Node15 -->
<g id="node16" class="node"><title>Node15</title>
<polygon fill="white" stroke="#bfbfbf" points="994.5,-112.5 994.5,-131.5 1032.5,-131.5 1032.5,-112.5 994.5,-112.5"/>
<text text-anchor="middle" x="1013.5" y="-119.5" font-family="Helvetica,sans-Serif" font-size="10.00">array</text>
</g>
<!-- Node0&#45;&gt;Node15 -->
<g id="edge15" class="edge"><title>Node0&#45;&gt;Node15</title>
<path fill="none" stroke="midnightblue" d="M729.061,-173.106C783.878,-167.139 887.549,-154.26 984.383,-131.939"/>
<polygon fill="midnightblue" stroke="midnightblue" points="985.397,-135.296 994.334,-129.606 983.799,-128.481 985.397,-135.296"/>
</g>
<!-- Node16 -->
<g id="node17" class="node"><title>Node16</title>
<polygon fill="white" stroke="#bfbfbf" points="1050.5,-112.5 1050.5,-131.5 1104.5,-131.5 1104.5,-112.5 1050.5,-112.5"/>
<text text-anchor="middle" x="1077.5" y="-119.5" font-family="Helvetica,sans-Serif" font-size="10.00">iostream</text>
</g>
<!-- Node0&#45;&gt;Node16 -->
<g id="edge16" class="edge"><title>Node0&#45;&gt;Node16</title>
<path fill="none" stroke="midnightblue" d="M729.167,-173.542C792.3,-167.571 921.582,-153.986 1040.45,-131.999"/>
<polygon fill="midnightblue" stroke="midnightblue" points="1041.26,-135.407 1050.45,-130.125 1039.97,-128.527 1041.26,-135.407"/>
</g>
<!-- Node17 -->
<g id="node18" class="node"><title>Node17</title>
<polygon fill="white" stroke="#bfbfbf" points="1122.5,-112.5 1122.5,-131.5 1172.5,-131.5 1172.5,-112.5 1122.5,-112.5"/>
<text text-anchor="middle" x="1147.5" y="-119.5" font-family="Helvetica,sans-Serif" font-size="10.00">iomanip</text>
</g>
<!-- Node0&#45;&gt;Node17 -->
<g id="edge17" class="edge"><title>Node0&#45;&gt;Node17</title>
<path fill="none" stroke="midnightblue" d="M729.278,-174.862C802.407,-170.403 965.775,-158.406 1112.28,-131.962"/>
<polygon fill="midnightblue" stroke="midnightblue" points="1113.14,-135.362 1122.35,-130.117 1111.88,-128.477 1113.14,-135.362"/>
</g>
<!-- Node18 -->
<g id="node19" class="node"><title>Node18</title>
<polygon fill="white" stroke="#bfbfbf" points="1190.5,-112.5 1190.5,-131.5 1246.5,-131.5 1246.5,-112.5 1190.5,-112.5"/>
<text text-anchor="middle" x="1218.5" y="-119.5" font-family="Helvetica,sans-Serif" font-size="10.00">algorithm</text>
</g>
<!-- Node0&#45;&gt;Node18 -->
<g id="edge18" class="edge"><title>Node0&#45;&gt;Node18</title>
<path fill="none" stroke="midnightblue" d="M729.26,-175.389C810.95,-171.578 1006.87,-160.247 1180.24,-131.976"/>
<polygon fill="midnightblue" stroke="midnightblue" points="1181.01,-135.396 1190.31,-130.311 1179.87,-128.49 1181.01,-135.396"/>
</g>
<!-- Node19 -->
<g id="node20" class="node"><title>Node19</title>
<polygon fill="white" stroke="#bfbfbf" points="1264.5,-112.5 1264.5,-131.5 1308.5,-131.5 1308.5,-112.5 1264.5,-112.5"/>
<text text-anchor="middle" x="1286.5" y="-119.5" font-family="Helvetica,sans-Serif" font-size="10.00">tags.h</text>
</g>
<!-- Node0&#45;&gt;Node19 -->
<g id="edge19" class="edge"><title>Node0&#45;&gt;Node19</title>
<path fill="none" stroke="midnightblue" d="M729.214,-176.615C819.751,-175.139 1052.32,-168.019 1254.38,-131.838"/>
<polygon fill="midnightblue" stroke="midnightblue" points="1255.07,-135.271 1264.28,-130.037 1253.81,-128.384 1255.07,-135.271"/>
</g>
<!-- Node20 -->
<g id="node21" class="node"><title>Node20</title>
<g id="a_node21"><a xlink:href="expression__reg__elus_8h.html" target="_top" xlink:title="Expressions régulières représentant les élus. ">
<polygon fill="white" stroke="black" points="1265.5,-56.5 1265.5,-75.5 1379.5,-75.5 1379.5,-56.5 1265.5,-56.5"/>
<text text-anchor="middle" x="1322.5" y="-63.5" font-family="Helvetica,sans-Serif" font-size="10.00">expression_reg_elus.h</text>
</a>
</g>
</g>
<!-- Node0&#45;&gt;Node20 -->
<g id="edge20" class="edge"><title>Node0&#45;&gt;Node20</title>
<path fill="none" stroke="midnightblue" d="M729.03,-177.091C859.04,-177.017 1275.77,-173.517 1317.5,-132 1329.39,-120.168 1329.19,-100.248 1326.91,-85.5718"/>
<polygon fill="midnightblue" stroke="midnightblue" points="1330.31,-84.7188 1324.93,-75.5916 1323.44,-86.0818 1330.31,-84.7188"/>
</g>
<!-- Node22 -->
<g id="node23" class="node"><title>Node22</title>
<g id="a_node23"><a xlink:href="expression__reg__cata_8h.html" target="_top" xlink:title="Ce fichier contient les expressions rationnelles permettant d&#39;identifier les catégories statutaires A...">
<polygon fill="white" stroke="black" points="1392,-112.5 1392,-131.5 1507,-131.5 1507,-112.5 1392,-112.5"/>
<text text-anchor="middle" x="1449.5" y="-119.5" font-family="Helvetica,sans-Serif" font-size="10.00">expression_reg_cata.h</text>
</a>
</g>
</g>
<!-- Node0&#45;&gt;Node22 -->
<g id="edge22" class="edge"><title>Node0&#45;&gt;Node22</title>
<path fill="none" stroke="midnightblue" d="M729.206,-174.667C831.009,-168.466 1114.66,-150.758 1350.5,-132 1360.67,-131.191 1371.42,-130.276 1381.94,-129.347"/>
<polygon fill="midnightblue" stroke="midnightblue" points="1382.29,-132.83 1391.93,-128.455 1381.66,-125.858 1382.29,-132.83"/>
</g>
<!-- Node21 -->
<g id="node22" class="node"><title>Node21</title>
<g id="a_node22"><a xlink:href="expression__reg__commun_8h.html" target="_top" xlink:title="Elements constitutifs des expressions régulières. ">
<polygon fill="white" stroke="black" points="1325.5,-0.5 1325.5,-19.5 1459.5,-19.5 1459.5,-0.5 1325.5,-0.5"/>
<text text-anchor="middle" x="1392.5" y="-7.5" font-family="Helvetica,sans-Serif" font-size="10.00">expression_reg_commun.h</text>
</a>
</g>
</g>
<!-- Node20&#45;&gt;Node21 -->
<g id="edge21" class="edge"><title>Node20&#45;&gt;Node21</title>
<path fill="none" stroke="midnightblue" d="M1333.75,-56.324C1344.3,-48.1849 1360.3,-35.8395 1372.94,-26.0874"/>
<polygon fill="midnightblue" stroke="midnightblue" points="1375.27,-28.7132 1381.05,-19.8339 1370.99,-23.1707 1375.27,-28.7132"/>
</g>
<!-- Node23 -->
<g id="node24" class="node"><title>Node23</title>
<g id="a_node24"><a xlink:href="expression__reg__adjoints_8h.html" target="_top" xlink:title="Expressions régulières de niveau adjoints / auxiliaires / aides (catégories C) ">
<polygon fill="white" stroke="black" points="1397.5,-56.5 1397.5,-75.5 1527.5,-75.5 1527.5,-56.5 1397.5,-56.5"/>
<text text-anchor="middle" x="1462.5" y="-63.5" font-family="Helvetica,sans-Serif" font-size="10.00">expression_reg_adjoints.h</text>
</a>
</g>
</g>
<!-- Node22&#45;&gt;Node23 -->
<g id="edge23" class="edge"><title>Node22&#45;&gt;Node23</title>
<path fill="none" stroke="midnightblue" d="M1451.65,-112.083C1453.37,-104.927 1455.85,-94.6353 1458,-85.6911"/>
<polygon fill="midnightblue" stroke="midnightblue" points="1461.46,-86.2925 1460.39,-75.7511 1454.65,-84.6541 1461.46,-86.2925"/>
</g>
<!-- Node23&#45;&gt;Node21 -->
<g id="edge24" class="edge"><title>Node23&#45;&gt;Node21</title>
<path fill="none" stroke="midnightblue" d="M1451.25,-56.324C1440.7,-48.1849 1424.7,-35.8395 1412.06,-26.0874"/>
<polygon fill="midnightblue" stroke="midnightblue" points="1414.01,-23.1707 1403.95,-19.8339 1409.73,-28.7132 1414.01,-23.1707"/>
</g>
</g>
</svg>
