<?xml version="1.0" encoding="UTF-8" standalone="no"?>
<!DOCTYPE svg PUBLIC "-//W3C//DTD SVG 1.1//EN"
 "http://www.w3.org/Graphics/SVG/1.1/DTD/svg11.dtd">
<!-- Generated by graphviz version 2.38.0 (20140413.2041)
 -->
<!-- Title: normaliser_accents Pages: 1 -->
<svg width="411pt" height="28pt"
 viewBox="0.00 0.00 411.00 28.00" xmlns="http://www.w3.org/2000/svg" xmlns:xlink="http://www.w3.org/1999/xlink">
<g id="graph0" class="graph" transform="scale(1 1) rotate(0) translate(4 24)">
<title>normaliser_accents</title>
<polygon fill="white" stroke="none" points="-4,4 -4,-24 407,-24 407,4 -4,4"/>
<!-- Node20 -->
<g id="node1" class="node"><title>Node20</title>
<polygon fill="#bfbfbf" stroke="black" points="0,-0.5 0,-19.5 101,-19.5 101,-0.5 0,-0.5"/>
<text text-anchor="middle" x="50.5" y="-7.5" font-family="Helvetica,sans-Serif" font-size="10.00">normaliser_accents</text>
</g>
<!-- Node21 -->
<g id="node2" class="node"><title>Node21</title>
<g id="a_node2"><a xlink:href="validator_8h.html#a36359f86441c3ac6219a34f63b8c3da6" target="_top" xlink:title="Lance l&#39;ensemble des processus de pré&#45;traitement et de post&#45;traitement des fichiers de paye...">
<polygon fill="white" stroke="black" points="137,-0.5 137,-19.5 199,-19.5 199,-0.5 137,-0.5"/>
<text text-anchor="middle" x="168" y="-7.5" font-family="Helvetica,sans-Serif" font-size="10.00">parse_info</text>
</a>
</g>
</g>
<!-- Node20&#45;&gt;Node21 -->
<g id="edge1" class="edge"><title>Node20&#45;&gt;Node21</title>
<path fill="none" stroke="midnightblue" d="M111.433,-10C120.206,-10 128.912,-10 136.739,-10"/>
<polygon fill="midnightblue" stroke="midnightblue" points="111.153,-6.5001 101.153,-10 111.153,-13.5001 111.153,-6.5001"/>
</g>
<!-- Node22 -->
<g id="node3" class="node"><title>Node22</title>
<g id="a_node3"><a xlink:href="lhx_2main_8cpp.html#ae310350c218de4ee80cbf65bc27bcd1b" target="_top" xlink:title="Pour un segment donné (sous&#45;ensemble de bases de paye XML), redécoupe le segment en partie égales ou ...">
<polygon fill="white" stroke="black" points="235,-0.5 235,-19.5 329,-19.5 329,-0.5 235,-0.5"/>
<text text-anchor="middle" x="282" y="-7.5" font-family="Helvetica,sans-Serif" font-size="10.00">produire_segment</text>
</a>
</g>
</g>
<!-- Node21&#45;&gt;Node22 -->
<g id="edge2" class="edge"><title>Node21&#45;&gt;Node22</title>
<path fill="none" stroke="midnightblue" d="M209.219,-10C217.537,-10 226.362,-10 234.872,-10"/>
<polygon fill="midnightblue" stroke="midnightblue" points="209.014,-6.5001 199.014,-10 209.014,-13.5001 209.014,-6.5001"/>
</g>
<!-- Node23 -->
<g id="node4" class="node"><title>Node23</title>
<g id="a_node4"><a xlink:href="lhx_2main_8cpp.html#a3c04138a5bfe5d72780bb7e82a18e627" target="_top" xlink:title="main">
<polygon fill="white" stroke="black" points="365,-0.5 365,-19.5 403,-19.5 403,-0.5 365,-0.5"/>
<text text-anchor="middle" x="384" y="-7.5" font-family="Helvetica,sans-Serif" font-size="10.00">main</text>
</a>
</g>
</g>
<!-- Node22&#45;&gt;Node23 -->
<g id="edge3" class="edge"><title>Node22&#45;&gt;Node23</title>
<path fill="none" stroke="midnightblue" d="M339.316,-10C348.594,-10 357.577,-10 364.96,-10"/>
<polygon fill="midnightblue" stroke="midnightblue" points="339.195,-6.5001 329.195,-10 339.195,-13.5001 339.195,-6.5001"/>
</g>
</g>
</svg>
