<?xml version="1.0" encoding="UTF-8" standalone="no"?>
<!DOCTYPE svg PUBLIC "-//W3C//DTD SVG 1.1//EN"
 "http://www.w3.org/Graphics/SVG/1.1/DTD/svg11.dtd">
<!-- Generated by graphviz version 2.38.0 (20140413.2041)
 -->
<!-- Title: lhx/validator.h Pages: 1 -->
<!--zoomable 196 -->
<svg id="main" version="1.1" xmlns="http://www.w3.org/2000/svg" xmlns:xlink="http://www.w3.org/1999/xlink" xml:space="preserve" onload="init(evt)">
<style type="text/css"><![CDATA[
.edge:hover path { stroke: red; }
.edge:hover polygon { stroke: red; fill: red; }
]]></style>
<script type="text/javascript"><![CDATA[
var edges = document.getElementsByTagName('g');
if (edges && edges.length) {
  for (var i=0;i<edges.length;i++) {
    if (edges[i].id.substr(0,4)=='edge') {
      edges[i].setAttribute('class','edge');
    }
  }
}
]]></script>
        <defs>
                <circle id="rim" cx="0" cy="0" r="7"/>
                <circle id="rim2" cx="0" cy="0" r="3.5"/>
                <g id="zoomPlus">
                        <use xlink:href="#rim" fill="#404040">
                                <set attributeName="fill" to="#808080" begin="zoomplus.mouseover" end="zoomplus.mouseout"/>
                        </use>
                        <path d="M-4,0h8M0,-4v8" fill="none" stroke="white" stroke-width="1.5" pointer-events="none"/>
                </g>
                <g id="zoomMin">
                        <use xlink:href="#rim" fill="#404040">
                                <set attributeName="fill" to="#808080" begin="zoomminus.mouseover" end="zoomminus.mouseout"/>
                        </use>
                        <path d="M-4,0h8" fill="none" stroke="white" stroke-width="1.5" pointer-events="none"/>
                </g>
                <g id="dirArrow">
                        <path fill="none" stroke="white" stroke-width="1.5" d="M0,-3.0v7 M-2.5,-0.5L0,-3.0L2.5,-0.5"/>
                </g>
               <g id="resetDef">
                       <use xlink:href="#rim2" fill="#404040">
                               <set attributeName="fill" to="#808080" begin="reset.mouseover" end="reset.mouseout"/>
                       </use>
               </g>
        </defs>

<script type="text/javascript">
var viewWidth = 1598;
var viewHeight = 196;
var sectionId = 'dynsection-0';
</script>
<script xlink:href="svgpan.js"/>
<svg id="graph" class="graph">
<g id="viewport">
<title>lhx/validator.h</title>
<polygon fill="white" stroke="none" points="-4,4 -4,-192 1594,-192 1594,4 -4,4"/>
<!-- Node0 -->
<g id="node1" class="node"><title>Node0</title>
<polygon fill="#bfbfbf" stroke="black" points="670.5,-168.5 670.5,-187.5 752.5,-187.5 752.5,-168.5 670.5,-168.5"/>
<text text-anchor="middle" x="711.5" y="-175.5" font-family="Helvetica,sans-Serif" font-size="10.00">lhx/validator.h</text>
</g>
<!-- Node1 -->
<g id="node2" class="node"><title>Node1</title>
<polygon fill="white" stroke="#bfbfbf" points="0,-112.5 0,-131.5 43,-131.5 43,-112.5 0,-112.5"/>
<text text-anchor="middle" x="21.5" y="-119.5" font-family="Helvetica,sans-Serif" font-size="10.00">string</text>
</g>
<!-- Node0&#45;&gt;Node1 -->
<g id="edge1" class="edge"><title>Node0&#45;&gt;Node1</title>
<path fill="none" stroke="midnightblue" d="M670.257,-177.237C567.359,-177.179 291.108,-173.031 52.9227,-131.637"/>
<polygon fill="midnightblue" stroke="midnightblue" points="53.4964,-128.184 43.0405,-129.894 52.2805,-135.078 53.4964,-128.184"/>
</g>
<!-- Node2 -->
<g id="node3" class="node"><title>Node2</title>
<polygon fill="white" stroke="#bfbfbf" points="61.5,-112.5 61.5,-131.5 107.5,-131.5 107.5,-112.5 61.5,-112.5"/>
<text text-anchor="middle" x="84.5" y="-119.5" font-family="Helvetica,sans-Serif" font-size="10.00">cstdlib</text>
</g>
<!-- Node0&#45;&gt;Node2 -->
<g id="edge2" class="edge"><title>Node0&#45;&gt;Node2</title>
<path fill="none" stroke="midnightblue" d="M670.481,-176.576C575.079,-175.016 330.899,-167.725 117.929,-131.687"/>
<polygon fill="midnightblue" stroke="midnightblue" points="118.26,-128.192 107.812,-129.949 117.075,-135.091 118.26,-128.192"/>
</g>
<!-- Node3 -->
<g id="node4" class="node"><title>Node3</title>
<polygon fill="white" stroke="#bfbfbf" points="126,-112.5 126,-131.5 173,-131.5 173,-112.5 126,-112.5"/>
<text text-anchor="middle" x="149.5" y="-119.5" font-family="Helvetica,sans-Serif" font-size="10.00">cstdint</text>
</g>
<!-- Node0&#45;&gt;Node3 -->
<g id="edge3" class="edge"><title>Node0&#45;&gt;Node3</title>
<path fill="none" stroke="midnightblue" d="M670.353,-176.036C582.498,-173.433 370.064,-164.246 183.182,-131.775"/>
<polygon fill="midnightblue" stroke="midnightblue" points="183.632,-128.3 173.176,-130.009 182.416,-135.194 183.632,-128.3"/>
</g>
<!-- Node4 -->
<g id="node5" class="node"><title>Node4</title>
<polygon fill="white" stroke="#bfbfbf" points="191.5,-112.5 191.5,-131.5 247.5,-131.5 247.5,-112.5 191.5,-112.5"/>
<text text-anchor="middle" x="219.5" y="-119.5" font-family="Helvetica,sans-Serif" font-size="10.00">cstdbool</text>
</g>
<!-- Node0&#45;&gt;Node4 -->
<g id="edge4" class="edge"><title>Node0&#45;&gt;Node4</title>
<path fill="none" stroke="midnightblue" d="M670.252,-174.764C590.221,-170.018 408.469,-157.243 257.5,-132 257.4,-131.983 257.299,-131.966 257.199,-131.949"/>
<polygon fill="midnightblue" stroke="midnightblue" points="258.118,-128.562 247.636,-130.107 256.793,-135.436 258.118,-128.562"/>
</g>
<!-- Node5 -->
<g id="node6" class="node"><title>Node5</title>
<polygon fill="white" stroke="#bfbfbf" points="266,-112.5 266,-131.5 311,-131.5 311,-112.5 266,-112.5"/>
<text text-anchor="middle" x="288.5" y="-119.5" font-family="Helvetica,sans-Serif" font-size="10.00">climits</text>
</g>
<!-- Node0&#45;&gt;Node5 -->
<g id="edge5" class="edge"><title>Node0&#45;&gt;Node5</title>
<path fill="none" stroke="midnightblue" d="M670.358,-174.433C600.481,-169.605 454.084,-157.458 321.077,-131.795"/>
<polygon fill="midnightblue" stroke="midnightblue" points="321.604,-128.332 311.118,-129.843 320.258,-135.202 321.604,-128.332"/>
</g>
<!-- Node6 -->
<g id="node7" class="node"><title>Node6</title>
<polygon fill="white" stroke="#bfbfbf" points="329.5,-112.5 329.5,-131.5 379.5,-131.5 379.5,-112.5 329.5,-112.5"/>
<text text-anchor="middle" x="354.5" y="-119.5" font-family="Helvetica,sans-Serif" font-size="10.00">clocale</text>
</g>
<!-- Node0&#45;&gt;Node6 -->
<g id="edge6" class="edge"><title>Node0&#45;&gt;Node6</title>
<path fill="none" stroke="midnightblue" d="M670.334,-172.753C608.862,-166.071 489.587,-151.796 389.5,-132 389.4,-131.98 389.3,-131.96 389.2,-131.94"/>
<polygon fill="midnightblue" stroke="midnightblue" points="390.177,-128.572 379.657,-129.831 388.666,-135.407 390.177,-128.572"/>
</g>
<!-- Node7 -->
<g id="node8" class="node"><title>Node7</title>
<polygon fill="white" stroke="#bfbfbf" points="398,-112.5 398,-131.5 445,-131.5 445,-112.5 398,-112.5"/>
<text text-anchor="middle" x="421.5" y="-119.5" font-family="Helvetica,sans-Serif" font-size="10.00">cerrno</text>
</g>
<!-- Node0&#45;&gt;Node7 -->
<g id="edge7" class="edge"><title>Node0&#45;&gt;Node7</title>
<path fill="none" stroke="midnightblue" d="M670.318,-170.997C621.358,-163.594 537.01,-150.003 455.19,-131.975"/>
<polygon fill="midnightblue" stroke="midnightblue" points="455.749,-128.513 445.227,-129.754 454.226,-135.346 455.749,-128.513"/>
</g>
<!-- Node8 -->
<g id="node9" class="node"><title>Node8</title>
<polygon fill="white" stroke="#bfbfbf" points="463,-112.5 463,-131.5 508,-131.5 508,-112.5 463,-112.5"/>
<text text-anchor="middle" x="485.5" y="-119.5" font-family="Helvetica,sans-Serif" font-size="10.00">cmath</text>
</g>
<!-- Node0&#45;&gt;Node8 -->
<g id="edge8" class="edge"><title>Node0&#45;&gt;Node8</title>
<path fill="none" stroke="midnightblue" d="M672.355,-168.478C635.152,-160.254 577.411,-147.171 518.106,-132.063"/>
<polygon fill="midnightblue" stroke="midnightblue" points="518.747,-128.614 508.191,-129.522 517.008,-135.395 518.747,-128.614"/>
</g>
<!-- Node9 -->
<g id="node10" class="node"><title>Node9</title>
<polygon fill="white" stroke="#bfbfbf" points="526.5,-112.5 526.5,-131.5 574.5,-131.5 574.5,-112.5 526.5,-112.5"/>
<text text-anchor="middle" x="550.5" y="-119.5" font-family="Helvetica,sans-Serif" font-size="10.00">cstring</text>
</g>
<!-- Node0&#45;&gt;Node9 -->
<g id="edge9" class="edge"><title>Node0&#45;&gt;Node9</title>
<path fill="none" stroke="midnightblue" d="M685.989,-168.444C658.506,-159.226 614.642,-144.513 584.304,-134.338"/>
<polygon fill="midnightblue" stroke="midnightblue" points="585.171,-130.937 574.577,-131.075 582.945,-137.574 585.171,-130.937"/>
</g>
<!-- Node10 -->
<g id="node11" class="node"><title>Node10</title>
<polygon fill="white" stroke="#bfbfbf" points="593,-112.5 593,-131.5 640,-131.5 640,-112.5 593,-112.5"/>
<text text-anchor="middle" x="616.5" y="-119.5" font-family="Helvetica,sans-Serif" font-size="10.00">cctype</text>
</g>
<!-- Node0&#45;&gt;Node10 -->
<g id="edge10" class="edge"><title>Node0&#45;&gt;Node10</title>
<path fill="none" stroke="midnightblue" d="M696.237,-168.324C681.279,-159.822 658.245,-146.729 640.773,-136.797"/>
<polygon fill="midnightblue" stroke="midnightblue" points="642.149,-133.553 631.726,-131.655 638.69,-139.639 642.149,-133.553"/>
</g>
<!-- Node11 -->
<g id="node12" class="node"><title>Node11</title>
<polygon fill="white" stroke="#bfbfbf" points="658,-112.5 658,-131.5 765,-131.5 765,-112.5 658,-112.5"/>
<text text-anchor="middle" x="711.5" y="-119.5" font-family="Helvetica,sans-Serif" font-size="10.00">libxml/xmlmemory.h</text>
</g>
<!-- Node0&#45;&gt;Node11 -->
<g id="edge11" class="edge"><title>Node0&#45;&gt;Node11</title>
<path fill="none" stroke="midnightblue" d="M711.5,-168.083C711.5,-161.006 711.5,-150.861 711.5,-141.986"/>
<polygon fill="midnightblue" stroke="midnightblue" points="715,-141.751 711.5,-131.751 708,-141.751 715,-141.751"/>
</g>
<!-- Node12 -->
<g id="node13" class="node"><title>Node12</title>
<polygon fill="white" stroke="#bfbfbf" points="782.5,-112.5 782.5,-131.5 866.5,-131.5 866.5,-112.5 782.5,-112.5"/>
<text text-anchor="middle" x="824.5" y="-119.5" font-family="Helvetica,sans-Serif" font-size="10.00">libxml/parser.h</text>
</g>
<!-- Node0&#45;&gt;Node12 -->
<g id="edge12" class="edge"><title>Node0&#45;&gt;Node12</title>
<path fill="none" stroke="midnightblue" d="M729.405,-168.444C747.754,-159.675 776.505,-145.935 797.594,-135.858"/>
<polygon fill="midnightblue" stroke="midnightblue" points="799.165,-138.986 806.679,-131.516 796.147,-132.67 799.165,-138.986"/>
</g>
<!-- Node13 -->
<g id="node14" class="node"><title>Node13</title>
<polygon fill="white" stroke="#bfbfbf" points="885,-112.5 885,-131.5 944,-131.5 944,-112.5 885,-112.5"/>
<text text-anchor="middle" x="914.5" y="-119.5" font-family="Helvetica,sans-Serif" font-size="10.00">cinttypes</text>
</g>
<!-- Node0&#45;&gt;Node13 -->
<g id="edge13" class="edge"><title>Node0&#45;&gt;Node13</title>
<path fill="none" stroke="midnightblue" d="M743.666,-168.444C779.277,-158.971 836.701,-143.695 875.012,-133.504"/>
<polygon fill="midnightblue" stroke="midnightblue" points="876.032,-136.855 884.796,-130.902 874.232,-130.09 876.032,-136.855"/>
</g>
<!-- Node14 -->
<g id="node15" class="node"><title>Node14</title>
<polygon fill="white" stroke="#bfbfbf" points="962.5,-112.5 962.5,-131.5 1008.5,-131.5 1008.5,-112.5 962.5,-112.5"/>
<text text-anchor="middle" x="985.5" y="-119.5" font-family="Helvetica,sans-Serif" font-size="10.00">vector</text>
</g>
<!-- Node0&#45;&gt;Node14 -->
<g id="edge14" class="edge"><title>Node0&#45;&gt;Node14</title>
<path fill="none" stroke="midnightblue" d="M752.842,-170.481C799.132,-162.924 876.565,-149.514 952.304,-132.108"/>
<polygon fill="midnightblue" stroke="midnightblue" points="953.545,-135.413 962.492,-129.739 951.959,-128.594 953.545,-135.413"/>
</g>
<!-- Node15 -->
<g id="node16" class="node"><title>Node15</title>
<polygon fill="white" stroke="#bfbfbf" points="1027,-112.5 1027,-131.5 1068,-131.5 1068,-112.5 1027,-112.5"/>
<text text-anchor="middle" x="1047.5" y="-119.5" font-family="Helvetica,sans-Serif" font-size="10.00">array</text>
</g>
<!-- Node0&#45;&gt;Node15 -->
<g id="edge15" class="edge"><title>Node0&#45;&gt;Node15</title>
<path fill="none" stroke="midnightblue" d="M752.928,-172.843C810.173,-166.676 916.781,-153.672 1016.96,-131.809"/>
<polygon fill="midnightblue" stroke="midnightblue" points="1017.94,-135.177 1026.95,-129.595 1016.43,-128.343 1017.94,-135.177"/>
</g>
<!-- Node16 -->
<g id="node17" class="node"><title>Node16</title>
<polygon fill="white" stroke="#bfbfbf" points="1086,-112.5 1086,-131.5 1143,-131.5 1143,-112.5 1086,-112.5"/>
<text text-anchor="middle" x="1114.5" y="-119.5" font-family="Helvetica,sans-Serif" font-size="10.00">iostream</text>
</g>
<!-- Node0&#45;&gt;Node16 -->
<g id="edge16" class="edge"><title>Node0&#45;&gt;Node16</title>
<path fill="none" stroke="midnightblue" d="M752.628,-173.516C818.813,-167.567 953.186,-154.081 1075.94,-132.112"/>
<polygon fill="midnightblue" stroke="midnightblue" points="1076.67,-135.536 1085.89,-130.308 1075.42,-128.648 1076.67,-135.536"/>
</g>
<!-- Node17 -->
<g id="node18" class="node"><title>Node17</title>
<polygon fill="white" stroke="#bfbfbf" points="1161,-112.5 1161,-131.5 1214,-131.5 1214,-112.5 1161,-112.5"/>
<text text-anchor="middle" x="1187.5" y="-119.5" font-family="Helvetica,sans-Serif" font-size="10.00">iomanip</text>
</g>
<!-- Node0&#45;&gt;Node17 -->
<g id="edge17" class="edge"><title>Node0&#45;&gt;Node17</title>
<path fill="none" stroke="midnightblue" d="M752.52,-174.874C829.111,-170.46 999.147,-158.566 1150.87,-132.062"/>
<polygon fill="midnightblue" stroke="midnightblue" points="1151.6,-135.488 1160.84,-130.295 1150.38,-128.595 1151.6,-135.488"/>
</g>
<!-- Node18 -->
<g id="node19" class="node"><title>Node18</title>
<polygon fill="white" stroke="#bfbfbf" points="1232.5,-112.5 1232.5,-131.5 1292.5,-131.5 1292.5,-112.5 1232.5,-112.5"/>
<text text-anchor="middle" x="1262.5" y="-119.5" font-family="Helvetica,sans-Serif" font-size="10.00">algorithm</text>
</g>
<!-- Node0&#45;&gt;Node18 -->
<g id="edge18" class="edge"><title>Node0&#45;&gt;Node18</title>
<path fill="none" stroke="midnightblue" d="M752.553,-175.332C838.17,-171.437 1042.12,-159.984 1222.42,-131.959"/>
<polygon fill="midnightblue" stroke="midnightblue" points="1223.01,-135.408 1232.35,-130.395 1221.92,-128.494 1223.01,-135.408"/>
</g>
<!-- Node19 -->
<g id="node20" class="node"><title>Node19</title>
<g id="a_node20"><a xlink:href="tags_8h.html" target="_top" xlink:title="tags.h">
<polygon fill="white" stroke="black" points="1311,-112.5 1311,-131.5 1356,-131.5 1356,-112.5 1311,-112.5"/>
<text text-anchor="middle" x="1333.5" y="-119.5" font-family="Helvetica,sans-Serif" font-size="10.00">tags.h</text>
</a>
</g>
</g>
<!-- Node0&#45;&gt;Node19 -->
<g id="edge19" class="edge"><title>Node0&#45;&gt;Node19</title>
<path fill="none" stroke="midnightblue" d="M752.621,-176.654C847.675,-175.259 1089.94,-168.292 1300.88,-131.717"/>
<polygon fill="midnightblue" stroke="midnightblue" points="1301.66,-135.134 1310.9,-129.953 1300.45,-128.24 1301.66,-135.134"/>
</g>
<!-- Node20 -->
<g id="node21" class="node"><title>Node20</title>
<g id="a_node21"><a xlink:href="expression__reg__elus_8h.html" target="_top" xlink:title="Expressions régulières représentant les élus. ">
<polygon fill="white" stroke="black" points="1308,-56.5 1308,-75.5 1431,-75.5 1431,-56.5 1308,-56.5"/>
<text text-anchor="middle" x="1369.5" y="-63.5" font-family="Helvetica,sans-Serif" font-size="10.00">expression_reg_elus.h</text>
</a>
</g>
</g>
<!-- Node0&#45;&gt;Node20 -->
<g id="edge20" class="edge"><title>Node0&#45;&gt;Node20</title>
<path fill="none" stroke="midnightblue" d="M752.658,-177.246C889.399,-177.651 1322.35,-175.463 1365.5,-132 1377.31,-120.108 1376.78,-100.197 1374.25,-85.5395"/>
<polygon fill="midnightblue" stroke="midnightblue" points="1377.63,-84.6068 1372.09,-75.5746 1370.79,-86.0889 1377.63,-84.6068"/>
</g>
<!-- Node22 -->
<g id="node23" class="node"><title>Node22</title>
<g id="a_node23"><a xlink:href="expression__reg__cata_8h.html" target="_top" xlink:title="Ce fichier contient les expressions rationnelles permettant d&#39;identifier les catégories statutaires A...">
<polygon fill="white" stroke="black" points="1442,-112.5 1442,-131.5 1567,-131.5 1567,-112.5 1442,-112.5"/>
<text text-anchor="middle" x="1504.5" y="-119.5" font-family="Helvetica,sans-Serif" font-size="10.00">expression_reg_cata.h</text>
</a>
</g>
</g>
<!-- Node0&#45;&gt;Node22 -->
<g id="edge22" class="edge"><title>Node0&#45;&gt;Node22</title>
<path fill="none" stroke="midnightblue" d="M752.56,-174.588C859.175,-168.264 1153.56,-150.418 1398.5,-132 1409.22,-131.194 1420.54,-130.29 1431.63,-129.373"/>
<polygon fill="midnightblue" stroke="midnightblue" points="1432.06,-132.849 1441.74,-128.53 1431.48,-125.874 1432.06,-132.849"/>
</g>
<!-- Node21 -->
<g id="node22" class="node"><title>Node21</title>
<g id="a_node22"><a xlink:href="expression__reg__commun_8h.html" target="_top" xlink:title="Elements constitutifs des expressions régulières. ">
<polygon fill="white" stroke="black" points="1373,-0.5 1373,-19.5 1516,-19.5 1516,-0.5 1373,-0.5"/>
<text text-anchor="middle" x="1444.5" y="-7.5" font-family="Helvetica,sans-Serif" font-size="10.00">expression_reg_commun.h</text>
</a>
</g>
</g>
<!-- Node20&#45;&gt;Node21 -->
<g id="edge21" class="edge"><title>Node20&#45;&gt;Node21</title>
<path fill="none" stroke="midnightblue" d="M1381.55,-56.324C1392.96,-48.1066 1410.33,-35.6017 1423.93,-25.8069"/>
<polygon fill="midnightblue" stroke="midnightblue" points="1426.16,-28.5174 1432.23,-19.8339 1422.07,-22.8366 1426.16,-28.5174"/>
</g>
<!-- Node23 -->
<g id="node24" class="node"><title>Node23</title>
<g id="a_node24"><a xlink:href="expression__reg__adjoints_8h.html" target="_top" xlink:title="Expressions régulières de niveau adjoints / auxiliaires / aides (catégories C) ">
<polygon fill="white" stroke="black" points="1449,-56.5 1449,-75.5 1590,-75.5 1590,-56.5 1449,-56.5"/>
<text text-anchor="middle" x="1519.5" y="-63.5" font-family="Helvetica,sans-Serif" font-size="10.00">expression_reg_adjoints.h</text>
</a>
</g>
</g>
<!-- Node22&#45;&gt;Node23 -->
<g id="edge23" class="edge"><title>Node22&#45;&gt;Node23</title>
<path fill="none" stroke="midnightblue" d="M1506.98,-112.083C1508.99,-104.849 1511.89,-94.4087 1514.39,-85.3968"/>
<polygon fill="midnightblue" stroke="midnightblue" points="1517.76,-86.323 1517.07,-75.7511 1511.02,-84.4495 1517.76,-86.323"/>
</g>
<!-- Node23&#45;&gt;Node21 -->
<g id="edge24" class="edge"><title>Node23&#45;&gt;Node21</title>
<path fill="none" stroke="midnightblue" d="M1507.45,-56.324C1496.04,-48.1066 1478.67,-35.6017 1465.07,-25.8069"/>
<polygon fill="midnightblue" stroke="midnightblue" points="1466.93,-22.8366 1456.77,-19.8339 1462.84,-28.5174 1466.93,-22.8366"/>
</g>
</g>
</svg>
        <g id="navigator" transform="translate(0 0)" fill="#404254">
                <rect fill="#f2f5e9" fill-opacity="0.5" stroke="#606060" stroke-width=".5" x="0" y="0" width="60" height="60"/>
                <use id="zoomplus" xlink:href="#zoomPlus" x="17" y="9" onmousedown="handleZoom(evt,'in')"/>
                <use id="zoomminus" xlink:href="#zoomMin" x="42" y="9" onmousedown="handleZoom(evt,'out')"/>
                <use id="reset" xlink:href="#resetDef" x="30" y="36" onmousedown="handleReset()"/>
                <g id="arrowUp" xlink:href="#dirArrow" transform="translate(30 24)" onmousedown="handlePan(0,-1)">
                  <use xlink:href="#rim" fill="#404040">
                        <set attributeName="fill" to="#808080" begin="arrowUp.mouseover" end="arrowUp.mouseout"/>
                  </use>
                  <path fill="none" stroke="white" stroke-width="1.5" d="M0,-3.0v7 M-2.5,-0.5L0,-3.0L2.5,-0.5"/>
                </g>
                <g id="arrowRight" xlink:href="#dirArrow" transform="rotate(90) translate(36 -43)" onmousedown="handlePan(1,0)">
                  <use xlink:href="#rim" fill="#404040">
                        <set attributeName="fill" to="#808080" begin="arrowRight.mouseover" end="arrowRight.mouseout"/>
                  </use>
                  <path fill="none" stroke="white" stroke-width="1.5" d="M0,-3.0v7 M-2.5,-0.5L0,-3.0L2.5,-0.5"/>
                </g>
                <g id="arrowDown" xlink:href="#dirArrow" transform="rotate(180) translate(-30 -48)" onmousedown="handlePan(0,1)">
                  <use xlink:href="#rim" fill="#404040">
                        <set attributeName="fill" to="#808080" begin="arrowDown.mouseover" end="arrowDown.mouseout"/>
                  </use>
                  <path fill="none" stroke="white" stroke-width="1.5" d="M0,-3.0v7 M-2.5,-0.5L0,-3.0L2.5,-0.5"/>
                </g>
                <g id="arrowLeft" xlink:href="#dirArrow" transform="rotate(270) translate(-36 17)" onmousedown="handlePan(-1,0)">
                  <use xlink:href="#rim" fill="#404040">
                        <set attributeName="fill" to="#808080" begin="arrowLeft.mouseover" end="arrowLeft.mouseout"/>
                  </use>
                  <path fill="none" stroke="white" stroke-width="1.5" d="M0,-3.0v7 M-2.5,-0.5L0,-3.0L2.5,-0.5"/>
                </g>
        </g>
        <svg viewBox="0 0 15 15" width="100%" height="30px" preserveAspectRatio="xMaxYMin meet">
         <g id="arrow_out" transform="scale(0.3 0.3)">
          <a xlink:href="validator_8h__incl_org.svg" target="_base">
           <rect id="button" ry="5" rx="5" y="6" x="6" height="38" width="38"
                fill="#f2f5e9" fill-opacity="0.5" stroke="#606060" stroke-width="1.0"/>
           <path id="arrow"
             d="M 11.500037,31.436501 C 11.940474,20.09759 22.043105,11.32322 32.158766,21.979434 L 37.068811,17.246167 C 37.068811,17.246167 37.088388,32 37.088388,32 L 22.160133,31.978069 C 22.160133,31.978069 26.997745,27.140456 26.997745,27.140456 C 18.528582,18.264221 13.291696,25.230495 11.500037,31.436501 z"
             style="fill:#404040;"/>
          </a>
         </g>
        </svg>
</svg>
