<?xml version="1.0" encoding="UTF-8" standalone="no"?>
<!DOCTYPE svg PUBLIC "-//W3C//DTD SVG 1.1//EN"
 "http://www.w3.org/Graphics/SVG/1.1/DTD/svg11.dtd">
<!-- Generated by graphviz version 2.38.0 (20140413.2041)
 -->
<!-- Title: parseLignesPaye Pages: 1 -->
<svg width="519pt" height="28pt"
 viewBox="0.00 0.00 519.00 28.00" xmlns="http://www.w3.org/2000/svg" xmlns:xlink="http://www.w3.org/1999/xlink">
<g id="graph0" class="graph" transform="scale(1 1) rotate(0) translate(4 24)">
<title>parseLignesPaye</title>
<polygon fill="white" stroke="none" points="-4,4 -4,-24 515,-24 515,4 -4,4"/>
<!-- Node88 -->
<g id="node1" class="node"><title>Node88</title>
<polygon fill="#bfbfbf" stroke="black" points="0,-0.5 0,-19.5 99,-19.5 99,-0.5 0,-0.5"/>
<text text-anchor="middle" x="49.5" y="-7.5" font-family="Helvetica,sans-Serif" font-size="10.00">parseLignesPaye</text>
</g>
<!-- Node89 -->
<g id="node2" class="node"><title>Node89</title>
<g id="a_node2"><a xlink:href="validator_8cpp.html#ae1ac2699ac4449a4a9a16b0e37234b35" target="_top" xlink:title="Décode une structure info_t contenant les données de paye à l&#39;état brut &quot;fichier&quot; (...">
<polygon fill="white" stroke="black" points="135,-0.5 135,-19.5 195,-19.5 195,-0.5 135,-0.5"/>
<text text-anchor="middle" x="165" y="-7.5" font-family="Helvetica,sans-Serif" font-size="10.00">parseFile</text>
</a>
</g>
</g>
<!-- Node88&#45;&gt;Node89 -->
<g id="edge1" class="edge"><title>Node88&#45;&gt;Node89</title>
<path fill="none" stroke="midnightblue" d="M109.313,-10C118.204,-10 127.028,-10 134.909,-10"/>
<polygon fill="midnightblue" stroke="midnightblue" points="109.293,-6.5001 99.2929,-10 109.293,-13.5001 109.293,-6.5001"/>
</g>
<!-- Node90 -->
<g id="node3" class="node"><title>Node90</title>
<g id="a_node3"><a xlink:href="validator_8h.html#a36359f86441c3ac6219a34f63b8c3da6" target="_top" xlink:title="Lance l&#39;ensemble des processus de pré&#45;traitement et de post&#45;traitement des fichiers de paye...">
<polygon fill="white" stroke="black" points="231,-0.5 231,-19.5 298,-19.5 298,-0.5 231,-0.5"/>
<text text-anchor="middle" x="264.5" y="-7.5" font-family="Helvetica,sans-Serif" font-size="10.00">parse_info</text>
</a>
</g>
</g>
<!-- Node89&#45;&gt;Node90 -->
<g id="edge2" class="edge"><title>Node89&#45;&gt;Node90</title>
<path fill="none" stroke="midnightblue" d="M205.323,-10C213.798,-10 222.668,-10 230.856,-10"/>
<polygon fill="midnightblue" stroke="midnightblue" points="205.253,-6.5001 195.253,-10 205.253,-13.5001 205.253,-6.5001"/>
</g>
<!-- Node91 -->
<g id="node4" class="node"><title>Node91</title>
<g id="a_node4"><a xlink:href="lhx_2main_8cpp.html#abb1f1ad236423a832fd1efa1e9deeafa" target="_top" xlink:title="Pour un segment donné (sous&#45;ensemble de bases de paye XML), redécoupe le segment en partie égales ou ...">
<polygon fill="white" stroke="black" points="334,-0.5 334,-19.5 436,-19.5 436,-0.5 334,-0.5"/>
<text text-anchor="middle" x="385" y="-7.5" font-family="Helvetica,sans-Serif" font-size="10.00">produire_segment</text>
</a>
</g>
</g>
<!-- Node90&#45;&gt;Node91 -->
<g id="edge3" class="edge"><title>Node90&#45;&gt;Node91</title>
<path fill="none" stroke="midnightblue" d="M308.308,-10C316.527,-10 325.206,-10 333.638,-10"/>
<polygon fill="midnightblue" stroke="midnightblue" points="308.194,-6.5001 298.194,-10 308.194,-13.5001 308.194,-6.5001"/>
</g>
<!-- Node92 -->
<g id="node5" class="node"><title>Node92</title>
<g id="a_node5"><a xlink:href="lhx_2main_8cpp.html#a3c04138a5bfe5d72780bb7e82a18e627" target="_top" xlink:title="main">
<polygon fill="white" stroke="black" points="472,-0.5 472,-19.5 511,-19.5 511,-0.5 472,-0.5"/>
<text text-anchor="middle" x="491.5" y="-7.5" font-family="Helvetica,sans-Serif" font-size="10.00">main</text>
</a>
</g>
</g>
<!-- Node91&#45;&gt;Node92 -->
<g id="edge4" class="edge"><title>Node91&#45;&gt;Node92</title>
<path fill="none" stroke="midnightblue" d="M446.271,-10C455.565,-10 464.512,-10 471.898,-10"/>
<polygon fill="midnightblue" stroke="midnightblue" points="446.108,-6.5001 436.107,-10 446.107,-13.5001 446.108,-6.5001"/>
</g>
</g>
</svg>
