<?xml version="1.0" encoding="UTF-8" standalone="no"?>
<!DOCTYPE svg PUBLIC "-//W3C//DTD SVG 1.1//EN"
 "http://www.w3.org/Graphics/SVG/1.1/DTD/svg11.dtd">
<!-- Generated by graphviz version 2.38.0 (20140413.2041)
 -->
<!-- Title: Interface/gui/xmlparser.cpp Pages: 1 -->
<!--zoomable 476 -->
<svg id="main" version="1.1" xmlns="http://www.w3.org/2000/svg" xmlns:xlink="http://www.w3.org/1999/xlink" xml:space="preserve" onload="init(evt)">
<style type="text/css"><![CDATA[
.edge:hover path { stroke: red; }
.edge:hover polygon { stroke: red; fill: red; }
]]></style>
<script type="text/javascript"><![CDATA[
var edges = document.getElementsByTagName('g');
if (edges && edges.length) {
  for (var i=0;i<edges.length;i++) {
    if (edges[i].id.substr(0,4)=='edge') {
      edges[i].setAttribute('class','edge');
    }
  }
}
]]></script>
        <defs>
                <circle id="rim" cx="0" cy="0" r="7"/>
                <circle id="rim2" cx="0" cy="0" r="3.5"/>
                <g id="zoomPlus">
                        <use xlink:href="#rim" fill="#404040">
                                <set attributeName="fill" to="#808080" begin="zoomplus.mouseover" end="zoomplus.mouseout"/>
                        </use>
                        <path d="M-4,0h8M0,-4v8" fill="none" stroke="white" stroke-width="1.5" pointer-events="none"/>
                </g>
                <g id="zoomMin">
                        <use xlink:href="#rim" fill="#404040">
                                <set attributeName="fill" to="#808080" begin="zoomminus.mouseover" end="zoomminus.mouseout"/>
                        </use>
                        <path d="M-4,0h8" fill="none" stroke="white" stroke-width="1.5" pointer-events="none"/>
                </g>
                <g id="dirArrow">
                        <path fill="none" stroke="white" stroke-width="1.5" d="M0,-3.0v7 M-2.5,-0.5L0,-3.0L2.5,-0.5"/>
                </g>
               <g id="resetDef">
                       <use xlink:href="#rim2" fill="#404040">
                               <set attributeName="fill" to="#808080" begin="reset.mouseover" end="reset.mouseout"/>
                       </use>
               </g>
        </defs>

<script type="text/javascript">
var viewWidth = 1194;
var viewHeight = 476;
var sectionId = 'dynsection-0';
</script>
<script xlink:href="svgpan.js"/>
<svg id="graph" class="graph">
<g id="viewport">
<title>Interface/gui/xmlparser.cpp</title>
<polygon fill="white" stroke="none" points="-4,4 -4,-472 1189.5,-472 1189.5,4 -4,4"/>
<!-- Node0 -->
<g id="node1" class="node"><title>Node0</title>
<polygon fill="#bfbfbf" stroke="black" points="426,-448.5 426,-467.5 561,-467.5 561,-448.5 426,-448.5"/>
<text text-anchor="middle" x="493.5" y="-455.5" font-family="Helvetica,sans-Serif" font-size="10.00">Interface/gui/xmlparser.cpp</text>
</g>
<!-- Node1 -->
<g id="node2" class="node"><title>Node1</title>
<g id="a_node2"><a xlink:href="altair_8h.html" target="_top" xlink:title="Code de la classe principale Altair, qui joue le rôle d&#39;agent de l&#39;interface graphique. ">
<polygon fill="white" stroke="black" points="714.5,-392.5 714.5,-411.5 760.5,-411.5 760.5,-392.5 714.5,-392.5"/>
<text text-anchor="middle" x="737.5" y="-399.5" font-family="Helvetica,sans-Serif" font-size="10.00">altair.h</text>
</a>
</g>
</g>
<!-- Node0&#45;&gt;Node1 -->
<g id="edge1" class="edge"><title>Node0&#45;&gt;Node1</title>
<path fill="none" stroke="midnightblue" d="M532.163,-448.444C579.785,-437.904 659.86,-420.183 704.646,-410.271"/>
<polygon fill="midnightblue" stroke="midnightblue" points="705.429,-413.682 714.437,-408.104 703.917,-406.848 705.429,-413.682"/>
</g>
<!-- Node13 -->
<g id="node14" class="node"><title>Node13</title>
<g id="a_node14"><a xlink:href="common_8h.html" target="_top" xlink:title="Code de la classe common, qui regroupe des utilitaires communs à l&#39;interface graphique MainWindow...">
<polygon fill="white" stroke="black" points="334.5,-224.5 334.5,-243.5 396.5,-243.5 396.5,-224.5 334.5,-224.5"/>
<text text-anchor="middle" x="365.5" y="-231.5" font-family="Helvetica,sans-Serif" font-size="10.00">common.h</text>
</a>
</g>
</g>
<!-- Node0&#45;&gt;Node13 -->
<g id="edge48" class="edge"><title>Node0&#45;&gt;Node13</title>
<path fill="none" stroke="midnightblue" d="M481.546,-448.462C453.035,-427.264 381.489,-368.932 355.5,-300 349.779,-284.826 353.484,-266.482 357.917,-253.155"/>
<polygon fill="midnightblue" stroke="midnightblue" points="361.229,-254.293 361.462,-243.7 354.674,-251.835 361.229,-254.293"/>
</g>
<!-- Node2 -->
<g id="node3" class="node"><title>Node2</title>
<g id="a_node3"><a xlink:href="fstring_8h.html" target="_top" xlink:title="fstring.h">
<polygon fill="white" stroke="black" points="541.5,-56.5 541.5,-75.5 593.5,-75.5 593.5,-56.5 541.5,-56.5"/>
<text text-anchor="middle" x="567.5" y="-63.5" font-family="Helvetica,sans-Serif" font-size="10.00">fstring.h</text>
</a>
</g>
</g>
<!-- Node1&#45;&gt;Node2 -->
<g id="edge2" class="edge"><title>Node1&#45;&gt;Node2</title>
<path fill="none" stroke="midnightblue" d="M760.718,-399.828C847.451,-394.828 1147.5,-371.699 1147.5,-291 1147.5,-291 1147.5,-291 1147.5,-177 1147.5,-121.362 730.199,-80.9678 603.527,-69.9876"/>
<polygon fill="midnightblue" stroke="midnightblue" points="603.811,-66.4993 593.548,-69.1317 603.212,-73.4736 603.811,-66.4993"/>
</g>
<!-- Node4 -->
<g id="node5" class="node"><title>Node4</title>
<g id="a_node5"><a xlink:href="enums_8h.html" target="_top" xlink:title="Enumérations et constantes permettant de paramétrer les fwidgets. ">
<polygon fill="white" stroke="black" points="605.5,-0.5 605.5,-19.5 659.5,-19.5 659.5,-0.5 605.5,-0.5"/>
<text text-anchor="middle" x="632.5" y="-7.5" font-family="Helvetica,sans-Serif" font-size="10.00">enums.h</text>
</a>
</g>
</g>
<!-- Node1&#45;&gt;Node4 -->
<g id="edge22" class="edge"><title>Node1&#45;&gt;Node4</title>
<path fill="none" stroke="midnightblue" d="M760.643,-400.346C852.381,-397.136 1185.5,-379.397 1185.5,-291 1185.5,-291 1185.5,-291 1185.5,-121 1185.5,-15.5405 793.741,-9.68052 669.694,-10.4684"/>
<polygon fill="midnightblue" stroke="midnightblue" points="669.518,-6.96963 659.547,-10.5519 669.575,-13.9694 669.518,-6.96963"/>
</g>
<!-- Node5 -->
<g id="node6" class="node"><title>Node5</title>
<g id="a_node6"><a xlink:href="flistframe_8h.html" target="_top" xlink:title="flistframe.h">
<polygon fill="white" stroke="black" points="217,-224.5 217,-243.5 282,-243.5 282,-224.5 217,-224.5"/>
<text text-anchor="middle" x="249.5" y="-231.5" font-family="Helvetica,sans-Serif" font-size="10.00">flistframe.h</text>
</a>
</g>
</g>
<!-- Node1&#45;&gt;Node5 -->
<g id="edge5" class="edge"><title>Node1&#45;&gt;Node5</title>
<path fill="none" stroke="midnightblue" d="M714.349,-401.343C660.799,-401.372 525.051,-397.031 421.5,-356 357.552,-330.661 294.57,-277.083 265.768,-250.554"/>
<polygon fill="midnightblue" stroke="midnightblue" points="267.964,-247.816 258.27,-243.542 263.183,-252.929 267.964,-247.816"/>
</g>
<!-- Node6 -->
<g id="node7" class="node"><title>Node6</title>
<g id="a_node7"><a xlink:href="fwidgets_8h.html" target="_top" xlink:title="fwidgets.h">
<polygon fill="white" stroke="black" points="472.5,-112.5 472.5,-131.5 534.5,-131.5 534.5,-112.5 472.5,-112.5"/>
<text text-anchor="middle" x="503.5" y="-119.5" font-family="Helvetica,sans-Serif" font-size="10.00">fwidgets.h</text>
</a>
</g>
</g>
<!-- Node1&#45;&gt;Node6 -->
<g id="edge17" class="edge"><title>Node1&#45;&gt;Node6</title>
<path fill="none" stroke="midnightblue" d="M760.77,-399.207C842.21,-392.302 1109.5,-364.072 1109.5,-291 1109.5,-291 1109.5,-291 1109.5,-233 1109.5,-148.362 1012.97,-187.02 930.5,-168 791.581,-135.962 621.906,-126.678 544.965,-124.031"/>
<polygon fill="midnightblue" stroke="midnightblue" points="544.845,-120.526 534.737,-123.7 544.619,-127.522 544.845,-120.526"/>
</g>
<!-- Node1&#45;&gt;Node13 -->
<g id="edge18" class="edge"><title>Node1&#45;&gt;Node13</title>
<path fill="none" stroke="midnightblue" d="M714.356,-398.292C640.125,-389.09 410.304,-356.418 366.5,-300 356.451,-287.057 357.479,-267.888 360.251,-253.718"/>
<polygon fill="midnightblue" stroke="midnightblue" points="363.74,-254.181 362.671,-243.64 356.933,-252.547 363.74,-254.181"/>
</g>
<!-- Node14 -->
<g id="node15" class="node"><title>Node14</title>
<g id="a_node15"><a xlink:href="altair-gui_8h.html" target="_top" xlink:title="Code de la classe MainWindow qui construit l&#39;interface graphique. ">
<polygon fill="white" stroke="black" points="706.5,-336.5 706.5,-355.5 768.5,-355.5 768.5,-336.5 706.5,-336.5"/>
<text text-anchor="middle" x="737.5" y="-343.5" font-family="Helvetica,sans-Serif" font-size="10.00">altair&#45;gui.h</text>
</a>
</g>
</g>
<!-- Node1&#45;&gt;Node14 -->
<g id="edge23" class="edge"><title>Node1&#45;&gt;Node14</title>
<path fill="none" stroke="midnightblue" d="M732.334,-392.083C730.824,-384.927 730.394,-374.635 731.042,-365.691"/>
<polygon fill="midnightblue" stroke="midnightblue" points="734.515,-366.126 732.369,-355.751 727.577,-365.2 734.515,-366.126"/>
</g>
<!-- Node3 -->
<g id="node4" class="node"><title>Node3</title>
<polygon fill="white" stroke="#bfbfbf" points="539.5,-0.5 539.5,-19.5 587.5,-19.5 587.5,-0.5 539.5,-0.5"/>
<text text-anchor="middle" x="563.5" y="-7.5" font-family="Helvetica,sans-Serif" font-size="10.00">QtCore</text>
</g>
<!-- Node2&#45;&gt;Node3 -->
<g id="edge3" class="edge"><title>Node2&#45;&gt;Node3</title>
<path fill="none" stroke="midnightblue" d="M566.839,-56.083C566.315,-49.0059 565.564,-38.8611 564.906,-29.9865"/>
<polygon fill="midnightblue" stroke="midnightblue" points="568.377,-29.4652 564.148,-19.7511 561.397,-29.9823 568.377,-29.4652"/>
</g>
<!-- Node2&#45;&gt;Node4 -->
<g id="edge4" class="edge"><title>Node2&#45;&gt;Node4</title>
<path fill="none" stroke="midnightblue" d="M577.943,-56.324C587.646,-48.2631 602.315,-36.0765 614,-26.3695"/>
<polygon fill="midnightblue" stroke="midnightblue" points="616.411,-28.9163 621.867,-19.8339 611.938,-23.532 616.411,-28.9163"/>
</g>
<!-- Node5&#45;&gt;Node2 -->
<g id="edge10" class="edge"><title>Node5&#45;&gt;Node2</title>
<path fill="none" stroke="midnightblue" d="M259.42,-224.402C275.05,-211.137 306.704,-185.397 336.5,-168 403.056,-129.14 487.339,-95.9549 533.476,-79.0225"/>
<polygon fill="midnightblue" stroke="midnightblue" points="534.792,-82.2683 542.994,-75.5619 532.4,-75.6897 534.792,-82.2683"/>
</g>
<!-- Node5&#45;&gt;Node6 -->
<g id="edge6" class="edge"><title>Node5&#45;&gt;Node6</title>
<path fill="none" stroke="midnightblue" d="M282.237,-225.983C313.463,-218.66 361.397,-205.758 400.5,-188 431.22,-174.049 463.66,-152.237 483.741,-137.783"/>
<polygon fill="midnightblue" stroke="midnightblue" points="486.037,-140.44 492.047,-131.715 481.908,-134.788 486.037,-140.44"/>
</g>
<!-- Node9 -->
<g id="node10" class="node"><title>Node9</title>
<g id="a_node10"><a xlink:href="tools_8h.html" target="_top" xlink:title="tools.h">
<polygon fill="white" stroke="black" points="345.5,-168.5 345.5,-187.5 391.5,-187.5 391.5,-168.5 345.5,-168.5"/>
<text text-anchor="middle" x="368.5" y="-175.5" font-family="Helvetica,sans-Serif" font-size="10.00">tools.h</text>
</a>
</g>
</g>
<!-- Node5&#45;&gt;Node9 -->
<g id="edge11" class="edge"><title>Node5&#45;&gt;Node9</title>
<path fill="none" stroke="midnightblue" d="M268.356,-224.444C287.766,-215.636 318.23,-201.812 340.465,-191.722"/>
<polygon fill="midnightblue" stroke="midnightblue" points="342.072,-194.836 349.732,-187.516 339.18,-188.462 342.072,-194.836"/>
</g>
<!-- Node10 -->
<g id="node11" class="node"><title>Node10</title>
<polygon fill="white" stroke="#bfbfbf" points="0,-168.5 0,-187.5 71,-187.5 71,-168.5 0,-168.5"/>
<text text-anchor="middle" x="35.5" y="-175.5" font-family="Helvetica,sans-Serif" font-size="10.00">QToolButton</text>
</g>
<!-- Node5&#45;&gt;Node10 -->
<g id="edge14" class="edge"><title>Node5&#45;&gt;Node10</title>
<path fill="none" stroke="midnightblue" d="M216.998,-224.799C180.241,-215.524 120.2,-200.373 79.3238,-190.058"/>
<polygon fill="midnightblue" stroke="midnightblue" points="79.9226,-186.6 69.3702,-187.547 78.2099,-193.387 79.9226,-186.6"/>
</g>
<!-- Node11 -->
<g id="node12" class="node"><title>Node11</title>
<polygon fill="white" stroke="#bfbfbf" points="89.5,-168.5 89.5,-187.5 189.5,-187.5 189.5,-168.5 89.5,-168.5"/>
<text text-anchor="middle" x="139.5" y="-175.5" font-family="Helvetica,sans-Serif" font-size="10.00">QFileSystemModel</text>
</g>
<!-- Node5&#45;&gt;Node11 -->
<g id="edge15" class="edge"><title>Node5&#45;&gt;Node11</title>
<path fill="none" stroke="midnightblue" d="M231.827,-224.324C214.106,-215.625 186.597,-202.12 166.212,-192.113"/>
<polygon fill="midnightblue" stroke="midnightblue" points="167.649,-188.919 157.13,-187.655 164.564,-195.203 167.649,-188.919"/>
</g>
<!-- Node12 -->
<g id="node13" class="node"><title>Node12</title>
<polygon fill="white" stroke="#bfbfbf" points="208,-168.5 208,-187.5 289,-187.5 289,-168.5 208,-168.5"/>
<text text-anchor="middle" x="248.5" y="-175.5" font-family="Helvetica,sans-Serif" font-size="10.00">QMessageBox</text>
</g>
<!-- Node5&#45;&gt;Node12 -->
<g id="edge16" class="edge"><title>Node5&#45;&gt;Node12</title>
<path fill="none" stroke="midnightblue" d="M249.335,-224.083C249.204,-217.006 249.016,-206.861 248.852,-197.986"/>
<polygon fill="midnightblue" stroke="midnightblue" points="252.347,-197.685 248.662,-187.751 245.348,-197.814 252.347,-197.685"/>
</g>
<!-- Node6&#45;&gt;Node2 -->
<g id="edge8" class="edge"><title>Node6&#45;&gt;Node2</title>
<path fill="none" stroke="midnightblue" d="M513.783,-112.324C523.336,-104.263 537.78,-92.0765 549.284,-82.3695"/>
<polygon fill="midnightblue" stroke="midnightblue" points="551.644,-84.9577 557.03,-75.8339 547.13,-79.6076 551.644,-84.9577"/>
</g>
<!-- Node7 -->
<g id="node8" class="node"><title>Node7</title>
<polygon fill="white" stroke="#bfbfbf" points="375,-56.5 375,-75.5 438,-75.5 438,-56.5 375,-56.5"/>
<text text-anchor="middle" x="406.5" y="-63.5" font-family="Helvetica,sans-Serif" font-size="10.00">QtWidgets</text>
</g>
<!-- Node6&#45;&gt;Node7 -->
<g id="edge7" class="edge"><title>Node6&#45;&gt;Node7</title>
<path fill="none" stroke="midnightblue" d="M487.915,-112.324C472.501,-103.743 448.688,-90.486 430.79,-80.5224"/>
<polygon fill="midnightblue" stroke="midnightblue" points="432.486,-77.4606 422.046,-75.6545 429.081,-83.5767 432.486,-77.4606"/>
</g>
<!-- Node8 -->
<g id="node9" class="node"><title>Node8</title>
<g id="a_node9"><a xlink:href="tags_8h.html" target="_top" xlink:title="tags.h">
<polygon fill="white" stroke="black" points="479.5,-56.5 479.5,-75.5 523.5,-75.5 523.5,-56.5 479.5,-56.5"/>
<text text-anchor="middle" x="501.5" y="-63.5" font-family="Helvetica,sans-Serif" font-size="10.00">tags.h</text>
</a>
</g>
</g>
<!-- Node6&#45;&gt;Node8 -->
<g id="edge9" class="edge"><title>Node6&#45;&gt;Node8</title>
<path fill="none" stroke="midnightblue" d="M503.17,-112.083C502.908,-105.006 502.532,-94.8611 502.203,-85.9865"/>
<polygon fill="midnightblue" stroke="midnightblue" points="505.692,-85.6147 501.824,-75.7511 498.697,-85.8738 505.692,-85.6147"/>
</g>
<!-- Node9&#45;&gt;Node6 -->
<g id="edge13" class="edge"><title>Node9&#45;&gt;Node6</title>
<path fill="none" stroke="midnightblue" d="M389.891,-168.444C412.207,-159.517 447.403,-145.439 472.708,-135.317"/>
<polygon fill="midnightblue" stroke="midnightblue" points="474.224,-138.48 482.209,-131.516 471.624,-131.981 474.224,-138.48"/>
</g>
<!-- Node9&#45;&gt;Node7 -->
<g id="edge12" class="edge"><title>Node9&#45;&gt;Node7</title>
<path fill="none" stroke="midnightblue" d="M371.482,-168.368C377.642,-150.537 391.889,-109.295 400.188,-85.2717"/>
<polygon fill="midnightblue" stroke="midnightblue" points="403.575,-86.1862 403.532,-75.5914 396.959,-83.9005 403.575,-86.1862"/>
</g>
<!-- Node13&#45;&gt;Node6 -->
<g id="edge20" class="edge"><title>Node13&#45;&gt;Node6</title>
<path fill="none" stroke="midnightblue" d="M396.84,-226.479C420.455,-220.154 452.285,-208.431 473.5,-188 486.626,-175.359 494.558,-155.875 498.939,-141.534"/>
<polygon fill="midnightblue" stroke="midnightblue" points="502.348,-142.338 501.625,-131.768 495.598,-140.482 502.348,-142.338"/>
</g>
<!-- Node13&#45;&gt;Node7 -->
<g id="edge19" class="edge"><title>Node13&#45;&gt;Node7</title>
<path fill="none" stroke="midnightblue" d="M374.891,-224.391C383.307,-216.019 395.129,-202.476 400.5,-188 413.259,-153.613 411.42,-109.929 408.95,-85.569"/>
<polygon fill="midnightblue" stroke="midnightblue" points="412.418,-85.0912 407.785,-75.5632 405.465,-85.901 412.418,-85.0912"/>
</g>
<!-- Node13&#45;&gt;Node9 -->
<g id="edge21" class="edge"><title>Node13&#45;&gt;Node9</title>
<path fill="none" stroke="midnightblue" d="M365.995,-224.083C366.389,-217.006 366.952,-206.861 367.445,-197.986"/>
<polygon fill="midnightblue" stroke="midnightblue" points="370.954,-197.93 368.014,-187.751 363.964,-197.542 370.954,-197.93"/>
</g>
<!-- Node14&#45;&gt;Node1 -->
<g id="edge42" class="edge"><title>Node14&#45;&gt;Node1</title>
<path fill="none" stroke="midnightblue" d="M742.631,-355.751C744.157,-362.858 744.604,-373.136 743.972,-382.101"/>
<polygon fill="midnightblue" stroke="midnightblue" points="740.493,-381.713 742.666,-392.083 747.434,-382.622 740.493,-381.713"/>
</g>
<!-- Node14&#45;&gt;Node13 -->
<g id="edge36" class="edge"><title>Node14&#45;&gt;Node13</title>
<path fill="none" stroke="midnightblue" d="M706.26,-345.357C628.725,-345.588 430.293,-341.963 382.5,-300 369.508,-288.593 365.862,-268.606 365.094,-253.798"/>
<polygon fill="midnightblue" stroke="midnightblue" points="368.593,-253.664 364.961,-243.711 361.593,-253.757 368.593,-253.664"/>
</g>
<!-- Node15 -->
<g id="node16" class="node"><title>Node15</title>
<polygon fill="white" stroke="#bfbfbf" points="963.5,-280.5 963.5,-299.5 1043.5,-299.5 1043.5,-280.5 963.5,-280.5"/>
<text text-anchor="middle" x="1003.5" y="-287.5" font-family="Helvetica,sans-Serif" font-size="10.00">QMainWindow</text>
</g>
<!-- Node14&#45;&gt;Node15 -->
<g id="edge24" class="edge"><title>Node14&#45;&gt;Node15</title>
<path fill="none" stroke="midnightblue" d="M768.534,-338.7C813.854,-329.5 898.649,-312.286 953.021,-301.248"/>
<polygon fill="midnightblue" stroke="midnightblue" points="954.033,-304.614 963.136,-299.194 952.64,-297.754 954.033,-304.614"/>
</g>
<!-- Node16 -->
<g id="node17" class="node"><title>Node16</title>
<polygon fill="white" stroke="#bfbfbf" points="978.5,-224.5 978.5,-243.5 1030.5,-243.5 1030.5,-224.5 978.5,-224.5"/>
<text text-anchor="middle" x="1004.5" y="-231.5" font-family="Helvetica,sans-Serif" font-size="10.00">QDialog</text>
</g>
<!-- Node14&#45;&gt;Node16 -->
<g id="edge25" class="edge"><title>Node14&#45;&gt;Node16</title>
<path fill="none" stroke="midnightblue" d="M768.755,-345.464C840.952,-345.8 1015.94,-342.151 1052.5,-300 1066.86,-283.441 1045.81,-262.88 1027.22,-249.372"/>
<polygon fill="midnightblue" stroke="midnightblue" points="1028.95,-246.313 1018.73,-243.529 1024.98,-252.08 1028.95,-246.313"/>
</g>
<!-- Node17 -->
<g id="node18" class="node"><title>Node17</title>
<polygon fill="white" stroke="#bfbfbf" points="553.5,-280.5 553.5,-299.5 613.5,-299.5 613.5,-280.5 553.5,-280.5"/>
<text text-anchor="middle" x="583.5" y="-287.5" font-family="Helvetica,sans-Serif" font-size="10.00">QProcess</text>
</g>
<!-- Node14&#45;&gt;Node17 -->
<g id="edge26" class="edge"><title>Node14&#45;&gt;Node17</title>
<path fill="none" stroke="midnightblue" d="M713.098,-336.444C687.303,-327.399 646.423,-313.064 617.482,-302.916"/>
<polygon fill="midnightblue" stroke="midnightblue" points="618.382,-299.523 607.788,-299.516 616.066,-306.128 618.382,-299.523"/>
</g>
<!-- Node18 -->
<g id="node19" class="node"><title>Node18</title>
<polygon fill="white" stroke="#bfbfbf" points="631.5,-280.5 631.5,-299.5 699.5,-299.5 699.5,-280.5 631.5,-280.5"/>
<text text-anchor="middle" x="665.5" y="-287.5" font-family="Helvetica,sans-Serif" font-size="10.00">QDomNode</text>
</g>
<!-- Node14&#45;&gt;Node18 -->
<g id="edge27" class="edge"><title>Node14&#45;&gt;Node18</title>
<path fill="none" stroke="midnightblue" d="M725.932,-336.324C715.08,-328.185 698.619,-315.839 685.617,-306.087"/>
<polygon fill="midnightblue" stroke="midnightblue" points="687.379,-303.034 677.279,-299.834 683.179,-308.634 687.379,-303.034"/>
</g>
<!-- Node19 -->
<g id="node20" class="node"><title>Node19</title>
<polygon fill="white" stroke="#bfbfbf" points="717.5,-280.5 717.5,-299.5 757.5,-299.5 757.5,-280.5 717.5,-280.5"/>
<text text-anchor="middle" x="737.5" y="-287.5" font-family="Helvetica,sans-Serif" font-size="10.00">QFile</text>
</g>
<!-- Node14&#45;&gt;Node19 -->
<g id="edge28" class="edge"><title>Node14&#45;&gt;Node19</title>
<path fill="none" stroke="midnightblue" d="M737.5,-336.083C737.5,-329.006 737.5,-318.861 737.5,-309.986"/>
<polygon fill="midnightblue" stroke="midnightblue" points="741,-309.751 737.5,-299.751 734,-309.751 741,-309.751"/>
</g>
<!-- Node20 -->
<g id="node21" class="node"><title>Node20</title>
<polygon fill="white" stroke="#bfbfbf" points="775.5,-280.5 775.5,-299.5 819.5,-299.5 819.5,-280.5 775.5,-280.5"/>
<text text-anchor="middle" x="797.5" y="-287.5" font-family="Helvetica,sans-Serif" font-size="10.00">QtXml</text>
</g>
<!-- Node14&#45;&gt;Node20 -->
<g id="edge29" class="edge"><title>Node14&#45;&gt;Node20</title>
<path fill="none" stroke="midnightblue" d="M747.14,-336.324C756.01,-328.341 769.375,-316.313 780.108,-306.653"/>
<polygon fill="midnightblue" stroke="midnightblue" points="782.593,-309.125 787.685,-299.834 777.91,-303.922 782.593,-309.125"/>
</g>
<!-- Node21 -->
<g id="node22" class="node"><title>Node21</title>
<g id="a_node22"><a xlink:href="options_8h.html" target="_top" xlink:title="Code des classes du dialogue d&#39;options. ">
<polygon fill="white" stroke="black" points="391.5,-280.5 391.5,-299.5 447.5,-299.5 447.5,-280.5 391.5,-280.5"/>
<text text-anchor="middle" x="419.5" y="-287.5" font-family="Helvetica,sans-Serif" font-size="10.00">options.h</text>
</a>
</g>
</g>
<!-- Node14&#45;&gt;Node21 -->
<g id="edge30" class="edge"><title>Node14&#45;&gt;Node21</title>
<path fill="none" stroke="midnightblue" d="M706.167,-340.815C655.833,-333.913 553.666,-319.162 457.603,-300.092"/>
<polygon fill="midnightblue" stroke="midnightblue" points="458.223,-296.647 447.73,-298.112 456.847,-303.51 458.223,-296.647"/>
</g>
<!-- Node23 -->
<g id="node24" class="node"><title>Node23</title>
<g id="a_node24"><a xlink:href="highlighter_8h.html" target="_top" xlink:title="Code de l&#39;utilitaire de colorisation du code XML du projet .alt. ">
<polygon fill="white" stroke="black" points="466,-280.5 466,-299.5 535,-299.5 535,-280.5 466,-280.5"/>
<text text-anchor="middle" x="500.5" y="-287.5" font-family="Helvetica,sans-Serif" font-size="10.00">highlighter.h</text>
</a>
</g>
</g>
<!-- Node14&#45;&gt;Node23 -->
<g id="edge37" class="edge"><title>Node14&#45;&gt;Node23</title>
<path fill="none" stroke="midnightblue" d="M706.028,-337.829C664.736,-328.421 592.023,-311.853 545.079,-301.157"/>
<polygon fill="midnightblue" stroke="midnightblue" points="545.712,-297.712 535.184,-298.903 544.156,-304.537 545.712,-297.712"/>
</g>
<!-- Node26 -->
<g id="node27" class="node"><title>Node26</title>
<g id="a_node27"><a xlink:href="gui__enums_8h.html" target="_top" xlink:title="Code de constantes et de classes regroupant des constantes. ">
<polygon fill="white" stroke="black" points="862.5,-224.5 862.5,-243.5 934.5,-243.5 934.5,-224.5 862.5,-224.5"/>
<text text-anchor="middle" x="898.5" y="-231.5" font-family="Helvetica,sans-Serif" font-size="10.00">gui_enums.h</text>
</a>
</g>
</g>
<!-- Node14&#45;&gt;Node26 -->
<g id="edge40" class="edge"><title>Node14&#45;&gt;Node26</title>
<path fill="none" stroke="midnightblue" d="M768.847,-341.704C815.206,-336.11 898.521,-323.059 916.5,-300 927.264,-286.195 919.317,-266.346 910.843,-252.221"/>
<polygon fill="midnightblue" stroke="midnightblue" points="913.53,-249.937 905.114,-243.501 907.679,-253.78 913.53,-249.937"/>
</g>
<!-- Node28 -->
<g id="node29" class="node"><title>Node28</title>
<g id="a_node29"><a xlink:href="matricules_8h.html" target="_top" xlink:title="Code de la classe MatriculeInput, qui construit un dialogue d&#39;extraction des bulletins. ">
<polygon fill="white" stroke="black" points="837.5,-280.5 837.5,-299.5 907.5,-299.5 907.5,-280.5 837.5,-280.5"/>
<text text-anchor="middle" x="872.5" y="-287.5" font-family="Helvetica,sans-Serif" font-size="10.00">matricules.h</text>
</a>
</g>
</g>
<!-- Node14&#45;&gt;Node28 -->
<g id="edge43" class="edge"><title>Node14&#45;&gt;Node28</title>
<path fill="none" stroke="midnightblue" d="M758.891,-336.444C781.207,-327.517 816.403,-313.439 841.708,-303.317"/>
<polygon fill="midnightblue" stroke="midnightblue" points="843.224,-306.48 851.209,-299.516 840.624,-299.981 843.224,-306.48"/>
</g>
<!-- Node21&#45;&gt;Node13 -->
<g id="edge35" class="edge"><title>Node21&#45;&gt;Node13</title>
<path fill="none" stroke="midnightblue" d="M410.583,-280.083C402.72,-272.22 391.069,-260.569 381.581,-251.081"/>
<polygon fill="midnightblue" stroke="midnightblue" points="383.797,-248.347 374.251,-243.751 378.847,-253.297 383.797,-248.347"/>
</g>
<!-- Node22 -->
<g id="node23" class="node"><title>Node22</title>
<g id="a_node23"><a xlink:href="flineframe_8h.html" target="_top" xlink:title="Ce fichier contient la classe FLineFrame, dérivée fonctionnelle de FLineEdit. ">
<polygon fill="white" stroke="black" points="533.5,-168.5 533.5,-187.5 601.5,-187.5 601.5,-168.5 533.5,-168.5"/>
<text text-anchor="middle" x="567.5" y="-175.5" font-family="Helvetica,sans-Serif" font-size="10.00">flineframe.h</text>
</a>
</g>
</g>
<!-- Node21&#45;&gt;Node22 -->
<g id="edge31" class="edge"><title>Node21&#45;&gt;Node22</title>
<path fill="none" stroke="midnightblue" d="M420.403,-280.171C422.273,-266.358 427.805,-239.607 443.5,-224 464.861,-202.758 497.008,-191.465 523.217,-185.505"/>
<polygon fill="midnightblue" stroke="midnightblue" points="524.227,-188.87 533.302,-183.402 522.798,-182.017 524.227,-188.87"/>
</g>
<!-- Node22&#45;&gt;Node2 -->
<g id="edge33" class="edge"><title>Node22&#45;&gt;Node2</title>
<path fill="none" stroke="midnightblue" d="M567.5,-168.368C567.5,-150.617 567.5,-109.666 567.5,-85.5974"/>
<polygon fill="midnightblue" stroke="midnightblue" points="571,-85.5914 567.5,-75.5914 564,-85.5915 571,-85.5914"/>
</g>
<!-- Node22&#45;&gt;Node4 -->
<g id="edge34" class="edge"><title>Node22&#45;&gt;Node4</title>
<path fill="none" stroke="midnightblue" d="M570.995,-168.075C581.271,-141.832 611.533,-64.5453 625.406,-29.1165"/>
<polygon fill="midnightblue" stroke="midnightblue" points="628.758,-30.1559 629.145,-19.5681 622.24,-27.6036 628.758,-30.1559"/>
</g>
<!-- Node22&#45;&gt;Node6 -->
<g id="edge32" class="edge"><title>Node22&#45;&gt;Node6</title>
<path fill="none" stroke="midnightblue" d="M557.217,-168.324C547.664,-160.263 533.22,-148.077 521.716,-138.369"/>
<polygon fill="midnightblue" stroke="midnightblue" points="523.87,-135.608 513.97,-131.834 519.356,-140.958 523.87,-135.608"/>
</g>
<!-- Node24 -->
<g id="node25" class="node"><title>Node24</title>
<polygon fill="white" stroke="#bfbfbf" points="453,-224.5 453,-243.5 554,-243.5 554,-224.5 453,-224.5"/>
<text text-anchor="middle" x="503.5" y="-231.5" font-family="Helvetica,sans-Serif" font-size="10.00">QSyntaxHighlighter</text>
</g>
<!-- Node23&#45;&gt;Node24 -->
<g id="edge38" class="edge"><title>Node23&#45;&gt;Node24</title>
<path fill="none" stroke="midnightblue" d="M500.995,-280.083C501.389,-273.006 501.952,-262.861 502.445,-253.986"/>
<polygon fill="midnightblue" stroke="midnightblue" points="505.954,-253.93 503.014,-243.751 498.964,-253.542 505.954,-253.93"/>
</g>
<!-- Node25 -->
<g id="node26" class="node"><title>Node25</title>
<polygon fill="white" stroke="#bfbfbf" points="572,-224.5 572,-243.5 667,-243.5 667,-224.5 572,-224.5"/>
<text text-anchor="middle" x="619.5" y="-231.5" font-family="Helvetica,sans-Serif" font-size="10.00">QTextCharFormat</text>
</g>
<!-- Node23&#45;&gt;Node25 -->
<g id="edge39" class="edge"><title>Node23&#45;&gt;Node25</title>
<path fill="none" stroke="midnightblue" d="M519.356,-280.444C538.766,-271.636 569.23,-257.812 591.465,-247.722"/>
<polygon fill="midnightblue" stroke="midnightblue" points="593.072,-250.836 600.732,-243.516 590.18,-244.462 593.072,-250.836"/>
</g>
<!-- Node27 -->
<g id="node28" class="node"><title>Node27</title>
<polygon fill="white" stroke="#bfbfbf" points="875.5,-168.5 875.5,-187.5 921.5,-187.5 921.5,-168.5 875.5,-168.5"/>
<text text-anchor="middle" x="898.5" y="-175.5" font-family="Helvetica,sans-Serif" font-size="10.00">cstdint</text>
</g>
<!-- Node26&#45;&gt;Node27 -->
<g id="edge41" class="edge"><title>Node26&#45;&gt;Node27</title>
<path fill="none" stroke="midnightblue" d="M898.5,-224.083C898.5,-217.006 898.5,-206.861 898.5,-197.986"/>
<polygon fill="midnightblue" stroke="midnightblue" points="902,-197.751 898.5,-187.751 895,-197.751 902,-197.751"/>
</g>
<!-- Node28&#45;&gt;Node13 -->
<g id="edge45" class="edge"><title>Node28&#45;&gt;Node13</title>
<path fill="none" stroke="midnightblue" d="M837.496,-281.483C834.461,-280.94 831.431,-280.435 828.5,-280 658.509,-254.743 614.428,-261.851 443.5,-244 431.546,-242.752 418.573,-241.296 406.702,-239.923"/>
<polygon fill="midnightblue" stroke="midnightblue" points="406.945,-236.428 396.607,-238.745 406.134,-243.38 406.945,-236.428"/>
</g>
<!-- Node28&#45;&gt;Node16 -->
<g id="edge44" class="edge"><title>Node28&#45;&gt;Node16</title>
<path fill="none" stroke="midnightblue" d="M893.416,-280.444C915.236,-271.517 949.65,-257.439 974.392,-247.317"/>
<polygon fill="midnightblue" stroke="midnightblue" points="975.752,-250.542 983.682,-243.516 973.101,-244.063 975.752,-250.542"/>
</g>
<!-- Node28&#45;&gt;Node22 -->
<g id="edge46" class="edge"><title>Node28&#45;&gt;Node22</title>
<path fill="none" stroke="midnightblue" d="M848.821,-280.46C794.993,-261.047 663.301,-213.551 601.092,-191.115"/>
<polygon fill="midnightblue" stroke="midnightblue" points="601.969,-187.711 591.374,-187.61 599.594,-194.296 601.969,-187.711"/>
</g>
<!-- Node28&#45;&gt;Node26 -->
<g id="edge47" class="edge"><title>Node28&#45;&gt;Node26</title>
<path fill="none" stroke="midnightblue" d="M876.793,-280.083C880.352,-272.691 885.522,-261.953 889.924,-252.811"/>
<polygon fill="midnightblue" stroke="midnightblue" points="893.102,-254.279 894.287,-243.751 886.795,-251.243 893.102,-254.279"/>
</g>
</g>
</svg>
        <g id="navigator" transform="translate(0 0)" fill="#404254">
                <rect fill="#f2f5e9" fill-opacity="0.5" stroke="#606060" stroke-width=".5" x="0" y="0" width="60" height="60"/>
                <use id="zoomplus" xlink:href="#zoomPlus" x="17" y="9" onmousedown="handleZoom(evt,'in')"/>
                <use id="zoomminus" xlink:href="#zoomMin" x="42" y="9" onmousedown="handleZoom(evt,'out')"/>
                <use id="reset" xlink:href="#resetDef" x="30" y="36" onmousedown="handleReset()"/>
                <g id="arrowUp" xlink:href="#dirArrow" transform="translate(30 24)" onmousedown="handlePan(0,-1)">
                  <use xlink:href="#rim" fill="#404040">
                        <set attributeName="fill" to="#808080" begin="arrowUp.mouseover" end="arrowUp.mouseout"/>
                  </use>
                  <path fill="none" stroke="white" stroke-width="1.5" d="M0,-3.0v7 M-2.5,-0.5L0,-3.0L2.5,-0.5"/>
                </g>
                <g id="arrowRight" xlink:href="#dirArrow" transform="rotate(90) translate(36 -43)" onmousedown="handlePan(1,0)">
                  <use xlink:href="#rim" fill="#404040">
                        <set attributeName="fill" to="#808080" begin="arrowRight.mouseover" end="arrowRight.mouseout"/>
                  </use>
                  <path fill="none" stroke="white" stroke-width="1.5" d="M0,-3.0v7 M-2.5,-0.5L0,-3.0L2.5,-0.5"/>
                </g>
                <g id="arrowDown" xlink:href="#dirArrow" transform="rotate(180) translate(-30 -48)" onmousedown="handlePan(0,1)">
                  <use xlink:href="#rim" fill="#404040">
                        <set attributeName="fill" to="#808080" begin="arrowDown.mouseover" end="arrowDown.mouseout"/>
                  </use>
                  <path fill="none" stroke="white" stroke-width="1.5" d="M0,-3.0v7 M-2.5,-0.5L0,-3.0L2.5,-0.5"/>
                </g>
                <g id="arrowLeft" xlink:href="#dirArrow" transform="rotate(270) translate(-36 17)" onmousedown="handlePan(-1,0)">
                  <use xlink:href="#rim" fill="#404040">
                        <set attributeName="fill" to="#808080" begin="arrowLeft.mouseover" end="arrowLeft.mouseout"/>
                  </use>
                  <path fill="none" stroke="white" stroke-width="1.5" d="M0,-3.0v7 M-2.5,-0.5L0,-3.0L2.5,-0.5"/>
                </g>
        </g>
        <svg viewBox="0 0 15 15" width="100%" height="30px" preserveAspectRatio="xMaxYMin meet">
         <g id="arrow_out" transform="scale(0.3 0.3)">
          <a xlink:href="xmlparser_8cpp__incl_org.svg" target="_base">
           <rect id="button" ry="5" rx="5" y="6" x="6" height="38" width="38"
                fill="#f2f5e9" fill-opacity="0.5" stroke="#606060" stroke-width="1.0"/>
           <path id="arrow"
             d="M 11.500037,31.436501 C 11.940474,20.09759 22.043105,11.32322 32.158766,21.979434 L 37.068811,17.246167 C 37.068811,17.246167 37.088388,32 37.088388,32 L 22.160133,31.978069 C 22.160133,31.978069 26.997745,27.140456 26.997745,27.140456 C 18.528582,18.264221 13.291696,25.230495 11.500037,31.436501 z"
             style="fill:#404040;"/>
          </a>
         </g>
        </svg>
</svg>
